<svg width="100%" height="100%" viewBox="0 0 18 16" version="1.1" xmlns="http://www.w3.org/2000/svg" xmlns:xlink="http://www.w3.org/1999/xlink" xml:space="preserve" style="fill-rule:evenodd;clip-rule:evenodd;stroke-linejoin:round;stroke-miterlimit:2;"><g id="actionscript"><g><path d="M5.23,5.359L2.352,5.359L2.352,2.079L5.219,2.079L5.217,1.472L11.361,1.456C11.659,1.455 12.333,2.135 13.305,3.134C14.228,4.082 15.025,5.129 15.025,5.346L15.041,14.327L5.26,14.314L5.23,5.359Z" style="fill:white;"/></g><path d="M5.23,5.359L2.352,5.359L2.352,2.079L5.219,2.079L5.217,1.472L11.361,1.456C11.659,1.455 12.333,2.135 13.305,3.134C14.228,4.082 15.025,5.129 15.025,5.346L15.041,14.327L5.26,14.314L5.23,5.359Z" style="fill:white;"/><path d="M9.27,6.331L9.288,6.965C9.288,6.965 8.581,6.931 8.657,7.577C8.693,7.89 8.81,8.655 8.665,9.088C8.512,9.551 8.056,9.685 8.056,9.685C8.056,9.685 8.593,9.874 8.654,10.192C8.715,10.51 8.642,11.553 8.657,11.847C8.678,12.265 8.874,12.381 9.039,12.402C9.203,12.423 9.262,12.43 9.262,12.43L9.265,13.067C9.265,13.067 8.98,13.072 8.773,13.038C8.566,13.004 8.223,12.908 8.088,12.584C7.952,12.259 7.933,12.261 7.959,11.891C7.985,11.52 8.039,10.761 8.056,10.529C8.073,10.297 7.95,10.156 7.803,10.08C7.657,10.004 7.48,10.006 7.48,10.006L7.485,9.38C7.485,9.38 7.746,9.403 7.901,9.252C8.055,9.101 8.108,8.99 8.09,8.734L8.073,8.477C8.073,8.477 7.969,7.989 7.976,7.543C7.983,7.097 8.115,6.666 8.436,6.493C8.757,6.32 9.27,6.331 9.27,6.331Z" style="fill:url(#_Linear-swbqsnq);"/><g transform="matrix(-1,0,0,1,20.3222,0)"><path d="M9.27,6.331L9.288,6.965C9.288,6.965 8.581,6.931 8.657,7.577C8.693,7.89 8.81,8.655 8.665,9.088C8.512,9.551 8.056,9.685 8.056,9.685C8.056,9.685 8.593,9.874 8.654,10.192C8.715,10.51 8.642,11.553 8.657,11.847C8.678,12.265 8.874,12.381 9.039,12.402C9.203,12.423 9.262,12.43 9.262,12.43L9.265,13.067C9.265,13.067 8.98,13.072 8.773,13.038C8.566,13.004 8.223,12.908 8.088,12.584C7.952,12.259 7.933,12.261 7.959,11.891C7.985,11.52 8.039,10.761 8.056,10.529C8.073,10.297 7.95,10.156 7.803,10.08C7.657,10.004 7.48,10.006 7.48,10.006L7.485,9.38C7.485,9.38 7.746,9.403 7.901,9.252C8.055,9.101 8.108,8.99 8.09,8.734L8.073,8.477C8.073,8.477 7.969,7.989 7.976,7.543C7.983,7.097 8.115,6.666 8.436,6.493C8.757,6.32 9.27,6.331 9.27,6.331Z" style="fill:url(#_Linear-sv42z0g);"/></g><g transform="matrix(1,0,0,1,-0.227733,0.357917)"><g style="filter:url(#_Effect-c6jnqty);"><path d="M11.424,1.465C11.718,1.713 11.88,2.202 11.987,2.698C12.137,3.39 12.291,4.096 12.291,4.096C12.291,4.096 13.036,4.305 13.679,4.602C14.006,4.754 14.759,4.902 14.977,5.203C14.792,4.828 14.095,3.945 13.305,3.134C12.397,2.2 11.748,1.545 11.424,1.465Z" style="fill-opacity:0.75;"/></g></g><path d="M11.424,1.465C11.718,1.713 12.063,2.097 12.17,2.594C12.32,3.285 12.291,4.096 12.291,4.096C12.291,4.096 13.487,4.111 14.13,4.408C14.456,4.559 14.759,4.902 14.977,5.203C14.792,4.828 14.095,3.945 13.305,3.134C12.397,2.2 11.748,1.545 11.424,1.465Z" style="fill:url(#_Linear-4u6lcke);"/><g transform="matrix(1.10502,0,0,1.0433,-0.246972,-0.142192)"><rect x="2.352" y="2.129" width="8.284" height="3.144" style="fill:url(#_Linear-kml8yv3);"/></g><g transform="matrix(1.73707,0,0,1.23999,-1.93701,-0.573098)"><rect x="2.628" y="2.388" width="4.942" height="2.145" style="fill:url(#_Linear-rv3xa5l);"/></g><path d="M5.492,4.715L5.967,2.764L6.499,2.763L6.926,4.717L6.505,4.725L6.4,4.278L6.008,4.273L5.932,4.721L5.492,4.715ZM6.052,3.981L6.379,3.986L6.232,3.111L6.052,3.981Z" style="fill:white;"/><path d="M8.086,3.14L8.187,2.839C8.187,2.839 7.996,2.758 7.783,2.75C7.571,2.742 7.077,2.909 7.091,3.312C7.106,3.715 7.337,3.747 7.491,3.844C7.644,3.941 7.815,4.031 7.817,4.191C7.819,4.351 7.65,4.419 7.506,4.408C7.363,4.396 7.161,4.304 7.161,4.304L7.08,4.658C7.08,4.658 7.297,4.767 7.55,4.758C7.803,4.749 8.209,4.641 8.256,4.184C8.29,3.852 8.063,3.702 7.9,3.61C7.737,3.519 7.544,3.467 7.528,3.303C7.512,3.138 7.712,3.071 7.814,3.078C7.915,3.084 8.086,3.14 8.086,3.14Z" style="fill:white;"/></g><defs><linearGradient id="_Linear-swbqsnq" x1="0" y1="0" x2="1" y2="0" gradientUnits="userSpaceOnUse" gradientTransform="matrix(0.0513354,-6.00715,6.00715,0.0513354,8.68949,12.688)"><stop offset="0" style="stop-color:rgb(153,153,153);stop-opacity:1"/><stop offset="1" style="stop-color:rgb(97,97,97);stop-opacity:1"/></linearGradient><linearGradient id="_Linear-sv42z0g" x1="0" y1="0" x2="1" y2="0" gradientUnits="userSpaceOnUse" gradientTransform="matrix(0.00252151,-6.01012,-6.01012,-0.00252151,8.77949,12.7111)"><stop offset="0" style="stop-color:rgb(153,153,153);stop-opacity:1"/><stop offset="1" style="stop-color:rgb(83,83,83);stop-opacity:1"/></linearGradient><filter id="_Effect-c6jnqty" filterUnits="userSpaceOnUse" x="9.30882" y="-0.650981" width="7.78384" height="7.96937"><feGaussianBlur in="SourceGraphic" stdDeviation="0.3526"/></filter><linearGradient id="_Linear-4u6lcke" x1="0" y1="0" x2="1" y2="0" gradientUnits="userSpaceOnUse" gradientTransform="matrix(0.803315,-0.719603,0.719603,0.803315,12.5083,3.97764)"><stop offset="0" style="stop-color:rgb(253,253,253);stop-opacity:1"/><stop offset="1" style="stop-color:rgb(202,202,202);stop-opacity:1"/></linearGradient><linearGradient id="_Linear-kml8yv3" x1="0" y1="0" x2="1" y2="0" gradientUnits="userSpaceOnUse" gradientTransform="matrix(0.442813,2.20689,-2.08363,0.469009,5.1688,2.74414)"><stop offset="0" style="stop-color:rgb(211,70,73);stop-opacity:1"/><stop offset="1" style="stop-color:rgb(86,9,11);stop-opacity:1"/></linearGradient><linearGradient id="_Linear-rv3xa5l" x1="0" y1="0" x2="1" y2="0" gradientUnits="userSpaceOnUse" gradientTransform="matrix(0.401375,2.4858,-1.77446,0.562275,4.58217,2.11087)"><stop offset="0" style="stop-color:rgb(236,97,100);stop-opacity:1"/><stop offset="1" style="stop-color:rgb(130,15,17);stop-opacity:1"/></linearGradient></defs></svg>