<svg width="100%" height="100%" viewBox="0 0 18 16" version="1.1" xmlns="http://www.w3.org/2000/svg" xmlns:xlink="http://www.w3.org/1999/xlink" xml:space="preserve" style="fill-rule:evenodd;clip-rule:evenodd;stroke-linejoin:round;stroke-miterlimit:2;"><g id="ada"><g transform="matrix(1.07381,0,0,1.16787,0.071922,-0.951721)"><path d="M15.532,3.683L15.532,11.647C15.532,13.112 14.238,14.301 12.645,14.301L3.984,14.301C2.391,14.301 1.097,13.112 1.097,11.647L1.097,3.683C1.097,2.218 2.391,1.029 3.984,1.029L12.645,1.029C14.238,1.029 15.532,2.218 15.532,3.683Z" style="fill:white;"/></g><g id="svglogo" transform="matrix(0.0541524,0,0,0.0541524,1.4897,4.03549)"><path d="M212.689,88.844C212.691,84.258 217.532,82.572 225.4,81.73C231.934,81.01 237.139,79.926 240.529,77.755L240.526,83.548C240.522,90.462 234.684,93.823 226.891,94.587C223.713,94.29 220.386,94.012 216.933,93.758C214.246,92.735 212.688,90.997 212.689,88.844ZM62.019,90.818L95.542,90.836L98.288,98.95C83.859,101.562 69.493,105.004 55.634,109.346L62.019,90.818ZM78.746,41.584L90.466,75.988L66.989,75.976L78.746,41.584ZM153.284,58.882C162.119,58.886 169.254,66.857 169.249,76.753C169.246,83.751 165.484,89.777 160.055,92.574C155.968,92.708 151.827,92.894 147.646,93.135C141.597,90.693 137.297,84.413 137.301,76.736C137.306,66.598 144.45,58.877 153.284,58.882ZM255.42,98.226C255.411,97.998 255.403,97.771 255.403,97.557L255.42,65.21C255.422,60.262 253.495,43.967 228.202,43.954C211.865,43.946 200.484,52.751 198.904,64.578L214.88,64.586C216.335,59.276 222.872,56.745 228.56,56.748C235.699,56.751 239.932,59.409 239.93,62.668C239.928,67.736 232.546,68.941 222.138,69.901C208.342,71.1 196.6,74.715 196.593,88.716C196.593,90.107 196.732,91.416 196.976,92.661C193.151,92.521 189.227,92.418 185.215,92.357L185.253,17.862L169.279,17.853L169.262,51.407C164.424,46.818 158.131,44.159 150.871,44.156C134.654,44.147 121.214,58.14 121.204,76.608C121.201,83.487 123.092,89.754 126.307,94.903C122.301,95.34 118.278,95.839 114.246,96.4L88.92,23.847L68.71,23.837L36.432,116.082C27.016,119.768 17.96,123.923 9.423,128.567C50.749,110.61 152.645,86.325 267.953,101.293C267.403,100.684 262.932,99.519 255.42,98.226" style="fill:rgb(0,90,0);fill-rule:nonzero;"/></g></g></svg>