<svg width="100%" height="100%" viewBox="0 0 18 16" version="1.1" xmlns="http://www.w3.org/2000/svg" xmlns:xlink="http://www.w3.org/1999/xlink" xml:space="preserve" style="fill-rule:evenodd;clip-rule:evenodd;stroke-linejoin:round;stroke-miterlimit:2;"><g id="airflow" transform="matrix(0.25479,0,0,0.25479,1.5,0.500639)"><g id="Path-o4edazq" transform="matrix(1,0,0,1,-1306.61,-822.232)"><path d="M1307.56,880.867L1335.75,851.974C1335.93,851.797 1335.95,851.515 1335.81,851.308C1334.1,848.915 1330.93,848.5 1329.76,846.892C1326.29,842.129 1325.41,839.433 1323.92,839.6C1323.81,839.615 1323.72,839.666 1323.65,839.743L1313.46,850.181C1307.61,856.181 1306.77,869.406 1306.61,880.481C1306.61,880.482 1306.61,880.483 1306.61,880.483C1306.61,880.786 1306.86,881.035 1307.16,881.035C1307.32,881.035 1307.46,880.975 1307.56,880.867Z" style="fill:rgb(1,124,238);fill-rule:nonzero;"/></g><g id="Path-r56r7wz" transform="matrix(1,0,0,1,-1346.88,-850.567)"><path d="M1405.51,908.489L1376.62,880.3C1376.44,880.121 1376.16,880.094 1375.95,880.237C1373.56,881.952 1373.14,885.114 1371.54,886.286C1366.77,889.758 1364.08,890.639 1364.24,892.131C1364.26,892.235 1364.31,892.33 1364.39,892.401L1374.83,902.583C1380.83,908.441 1394.05,909.283 1405.12,909.435C1405.12,909.435 1405.12,909.435 1405.12,909.435C1405.43,909.435 1405.68,909.186 1405.68,908.883C1405.68,908.735 1405.62,908.593 1405.51,908.489Z" style="fill:rgb(0,173,70);fill-rule:nonzero;"/></g><g id="Path-bqtxc05" transform="matrix(1,0,0,1,-1345.96,-850.233)"><path d="M1373.91,902.252C1370.63,899.052 1369.11,892.722 1375.39,879.669C1365.18,884.236 1361.6,890.239 1363.36,891.958L1373.91,902.252Z" style="fill:rgb(4,214,89);fill-rule:nonzero;"/></g><g id="Path-ygp8xk6" transform="matrix(1,0,0,1,-1375.21,-782.123)"><path d="M1433.13,782.359L1404.95,811.252C1404.77,811.429 1404.74,811.711 1404.88,811.918C1406.6,814.311 1409.76,814.726 1410.93,816.334C1414.4,821.097 1415.29,823.793 1416.78,823.626C1416.88,823.611 1416.98,823.561 1417.05,823.483L1427.23,813.045C1433.09,807.045 1433.93,793.82 1434.08,782.745C1434.08,782.745 1434.08,782.744 1434.08,782.744C1434.08,782.441 1433.83,782.191 1433.53,782.191C1433.38,782.191 1433.24,782.252 1433.13,782.359Z" style="fill:rgb(0,199,212);fill-rule:nonzero;"/></g><g id="Path-zax12ku" transform="matrix(1,0,0,1,-1374.88,-850.233)"><path d="M1426.9,881.155C1423.7,884.435 1417.37,885.955 1404.32,879.669C1408.88,889.888 1414.89,893.469 1416.61,891.708L1426.9,881.155Z" style="fill:rgb(17,225,238);fill-rule:nonzero;"/></g><g id="Path-hsyyggb" transform="matrix(1,0,0,1,-1306.77,-781.97)"><path d="M1307,782.919L1335.89,811.105C1336.07,811.284 1336.35,811.311 1336.56,811.168C1338.95,809.453 1339.37,806.291 1340.98,805.119C1345.74,801.647 1348.43,800.766 1348.27,799.274C1348.25,799.17 1348.2,799.074 1348.12,799.003L1337.69,788.821C1331.69,782.963 1318.46,782.121 1307.39,781.969C1307.38,781.969 1307.38,781.969 1307.38,781.969C1307.08,781.969 1306.83,782.218 1306.83,782.521C1306.83,782.671 1306.89,782.815 1307,782.919Z" style="fill:rgb(228,57,33);fill-rule:nonzero;"/></g><g id="Path-jcf8p8v" transform="matrix(1,0,0,1,-1374.88,-797.859)"><path d="M1405.8,804.711C1409.08,807.911 1410.6,814.241 1404.31,827.295C1414.53,822.728 1418.11,816.724 1416.35,815.006L1405.8,804.711Z" style="fill:rgb(255,117,87);"/></g><g id="Path-fej5wbx" transform="matrix(1,0,0,1,-1322.5,-821.316)"><path d="M1329.36,849.266C1332.56,845.986 1338.88,844.466 1351.94,850.752C1347.37,840.533 1341.37,836.952 1339.65,838.713L1329.36,849.266Z" style="fill:rgb(12,182,255);fill-rule:nonzero;"/></g></g></svg>