<svg width="100%" height="100%" viewBox="0 0 18 16" version="1.1" xmlns="http://www.w3.org/2000/svg" xmlns:xlink="http://www.w3.org/1999/xlink" xml:space="preserve" style="fill-rule:evenodd;clip-rule:evenodd;stroke-linejoin:round;stroke-miterlimit:2;"><path id="alire-dark" d="M1.246,11.229C1.042,11.432 0.712,11.431 0.51,11.227C0.307,11.023 0.308,10.693 0.512,10.49L5.933,5.098C6.082,4.95 6.306,4.906 6.5,4.987C6.694,5.068 6.821,5.258 6.821,5.468L6.813,10.329L11.655,10.345C11.942,10.345 12.175,10.58 12.174,10.867C12.173,11.154 11.939,11.387 11.651,11.386L6.29,11.37C6.003,11.369 5.771,11.135 5.771,10.848L5.777,6.722L1.246,11.229ZM15.63,8.677L17.435,10.497C17.637,10.701 17.636,11.031 17.432,11.234C17.227,11.436 16.897,11.435 16.695,11.23L14.376,8.891L14.376,7.622L15.445,7.64C15.913,7.648 16.508,7.471 16.516,6.892C16.52,6.58 16.464,6.362 16.342,6.219C16.206,6.06 16.004,6.005 15.805,5.973C15.514,5.927 15.217,5.942 14.993,5.943L12.191,5.948L12.178,9.207C12.177,9.494 11.943,9.726 11.656,9.725C11.368,9.724 11.136,9.49 11.137,9.203L11.151,5.426C11.152,5.14 11.384,4.908 11.671,4.907L14.991,4.901C15.323,4.9 15.784,4.886 16.205,4.993C16.56,5.083 16.887,5.253 17.134,5.543C17.386,5.838 17.566,6.266 17.557,6.906C17.542,8.053 16.566,8.619 15.63,8.677Z" style="fill:white;"/></svg>