<svg width="100%" height="100%" viewBox="0 0 18 16" version="1.1" xmlns="http://www.w3.org/2000/svg" xmlns:xlink="http://www.w3.org/1999/xlink" xml:space="preserve" style="fill-rule:evenodd;clip-rule:evenodd;stroke-linejoin:round;stroke-miterlimit:2;"><g id="Amp" transform="matrix(0.793597,0,0,0.793597,23.8264,2.17588)"><g transform="matrix(1,0,0,1,-28.2,-2.15168)"><path d="M3.415,17.298L7.885,12.765L9.511,18.941L11.875,18.295L9.52,9.328L0.695,6.937L0.067,9.352L6.139,11.002L1.688,15.528L3.415,17.298Z" style="fill:rgb(243,78,63);fill-rule:nonzero;"/></g><g transform="matrix(1,0,0,1,-28.2,-2.15168)"><path d="M16.304,12.044L18.668,11.397L16.313,2.43L7.488,0.04L6.86,2.454L14.312,4.479L16.304,12.044Z" style="fill:rgb(243,78,63);fill-rule:nonzero;"/></g><g transform="matrix(1,0,0,1,-28.2,-2.15168)"><path d="M12.913,15.49L15.276,14.844L12.921,5.877L4.096,3.486L3.468,5.901L10.92,7.925L12.913,15.49Z" style="fill:rgb(243,78,63);fill-rule:nonzero;"/></g></g></svg>