<svg width="100%" height="100%" viewBox="0 0 18 16" version="1.1" xmlns="http://www.w3.org/2000/svg" xmlns:xlink="http://www.w3.org/1999/xlink" xml:space="preserve" style="fill-rule:evenodd;clip-rule:evenodd;stroke-linejoin:round;stroke-miterlimit:2;"><g id="angular" transform="matrix(0.444676,0,0,0.444676,1.91464,-44.4422)"><path d="M31.868,106.691L30.717,124.761L19.715,101.067L31.868,106.691ZM24.247,130.056L15.934,134.8L7.62,130.056L9.311,125.959L22.556,125.959L24.247,130.056ZM15.934,110.061L20.29,120.652L11.578,120.652L15.934,110.061ZM1.139,124.761L0,106.691L12.153,101.067L1.139,124.761Z" style="fill:url(#_Linear1);fill-rule:nonzero;"/><path d="M31.868,106.691L30.717,124.761L19.715,101.067L31.868,106.691ZM24.247,130.056L15.934,134.8L7.62,130.056L9.311,125.959L22.556,125.959L24.247,130.056ZM15.934,110.061L20.29,120.652L11.578,120.652L15.934,110.061ZM1.139,124.761L0,106.691L12.153,101.067L1.139,124.761Z" style="fill:url(#_Linear2);fill-rule:nonzero;"/></g><defs><linearGradient id="_Linear1" x1="0" y1="0" x2="1" y2="0" gradientUnits="userSpaceOnUse" gradientTransform="matrix(25.3733,-12.0578,12.0578,25.3733,7.03268,131.74)"><stop offset="0" style="stop-color:rgb(228,0,53);stop-opacity:1"/><stop offset="0.24" style="stop-color:rgb(246,10,72);stop-opacity:1"/><stop offset="0.35" style="stop-color:rgb(242,7,85);stop-opacity:1"/><stop offset="0.49" style="stop-color:rgb(220,8,125);stop-opacity:1"/><stop offset="0.75" style="stop-color:rgb(151,23,231);stop-opacity:1"/><stop offset="1" style="stop-color:rgb(108,0,245);stop-opacity:1"/></linearGradient><linearGradient id="_Linear2" x1="0" y1="0" x2="1" y2="0" gradientUnits="userSpaceOnUse" gradientTransform="matrix(16.605,18.9417,-18.9417,16.605,5.887,105.135)"><stop offset="0" style="stop-color:rgb(255,49,217);stop-opacity:1"/><stop offset="1" style="stop-color:rgb(255,91,225);stop-opacity:0"/></linearGradient></defs></svg>