<svg width="100%" height="100%" viewBox="0 0 18 16" version="1.1" xmlns="http://www.w3.org/2000/svg" xmlns:xlink="http://www.w3.org/1999/xlink" xml:space="preserve" style="fill-rule:evenodd;clip-rule:evenodd;stroke-linejoin:round;stroke-miterlimit:2;"><g id="ansible" transform="matrix(0.0587931,0,0,0.0587931,8.71418,9.22961)"><g transform="matrix(1,0,0,1,-123.452,-148.782)"><path d="M255.879,127.868C255.879,198.323 198.769,255.433 128.313,255.433C57.863,255.433 0.747,198.323 0.747,127.868C0.747,57.418 57.863,0.302 128.313,0.302C198.769,0.302 255.879,57.418 255.879,127.868" style="fill:rgb(26,25,24);fill-rule:nonzero;"/></g><g transform="matrix(1,0,0,1,-123.452,-148.782)"><path d="M130.46,78.229L163.472,159.705L113.608,120.427L130.46,78.229L130.46,78.229ZM189.105,178.474L138.326,56.272C136.876,52.748 133.978,50.883 130.46,50.883C126.936,50.883 123.826,52.748 122.377,56.272L66.644,190.312L85.709,190.312L107.771,135.047L173.61,188.237C176.258,190.378 178.169,191.346 180.652,191.346C185.626,191.346 189.974,187.617 189.974,182.235C189.974,181.359 189.664,179.969 189.104,178.474L189.105,178.474Z" style="fill:white;fill-rule:nonzero;"/></g></g></svg>