<svg width="100%" height="100%" viewBox="0 0 18 16" version="1.1" xmlns="http://www.w3.org/2000/svg" xmlns:xlink="http://www.w3.org/1999/xlink" xml:space="preserve" style="fill-rule:evenodd;clip-rule:evenodd;stroke-linecap:round;stroke-linejoin:round;stroke-miterlimit:1;"><g id="applescript"><g transform="matrix(1.07381,0,0,1.16787,0.071922,-0.951721)"><path d="M15.532,4.347L15.532,10.983C15.532,12.814 13.915,14.301 11.923,14.301L4.706,14.301C2.714,14.301 1.097,12.814 1.097,10.983L1.097,4.347C1.097,2.516 2.714,1.029 4.706,1.029L11.923,1.029C13.915,1.029 15.532,2.516 15.532,4.347Z" style="fill:white;"/></g><g transform="matrix(1.24674,0,0,1.24674,-2.21704,-1.48299)"><path d="M9.165,5.252L9.75,4.055C9.75,4.055 10.156,2.943 9.128,2.499C8.1,2.055 7.617,3.142 7.617,3.142L5.662,6.837C5.662,6.837 5.346,7.426 5.45,7.899C5.553,8.372 5.868,8.693 6.382,8.904C6.897,9.114 9.409,10.434 9.84,10.698C10.271,10.962 10.525,11.384 10.48,11.731C10.428,12.129 10.218,12.464 10.218,12.464C10.218,12.464 12.039,8.879 12.416,8.226C12.814,7.536 12.374,6.968 11.587,6.513C11.073,6.217 9.165,5.252 9.165,5.252Z" style="fill:none;stroke:rgb(173,172,172);stroke-width:0.67px;"/></g><g transform="matrix(1.24674,0,0,1.24674,-2.21704,-1.48299)"><path d="M9.165,5.252L7.783,7.736C7.783,7.736 7.711,6.846 7.019,6.569C6.324,6.291 5.657,6.813 5.657,6.813" style="fill:none;stroke:rgb(173,172,172);stroke-width:0.67px;"/></g><g transform="matrix(1.24674,0,0,1.24674,-2.21704,-1.48299)"><path d="M10.201,12.463C10.201,12.463 9.725,13.054 8.745,12.715C7.935,12.434 8.002,11.569 8.101,11.285C8.13,11.199 8.754,10.113 8.754,10.113" style="fill:none;stroke:rgb(173,172,172);stroke-width:0.67px;"/></g></g></svg>