<svg width="100%" height="100%" viewBox="0 0 18 16" version="1.1" xmlns="http://www.w3.org/2000/svg" xmlns:xlink="http://www.w3.org/1999/xlink" xml:space="preserve" style="fill-rule:evenodd;clip-rule:evenodd;stroke-linejoin:round;stroke-miterlimit:2;"><g id="appveyor" transform="matrix(5.49634,0,0,5.49634,-1.49072,-32.5344)"><g transform="matrix(0.0400043,0,0,0.0400043,0.543729,6.01026)"><path d="M34.12,0C52.832,0 68.23,15.398 68.23,34.11C68.23,52.822 52.832,68.22 34.12,68.22C15.408,68.22 0.01,52.822 0.01,34.11C0.01,15.398 15.408,0 34.12,0ZM24.27,62.88C27.092,63.877 30.049,64.44 33.04,64.55L47.88,43.11C52.78,36.061 51.401,26.305 44.74,20.89C38.783,16.298 30.424,16.274 24.44,20.83L3.81,36.83C4.074,39.691 4.747,42.5 5.81,45.17L17.59,32.3C17.469,33.1 17.408,33.908 17.408,34.717C17.408,43.56 24.685,50.837 33.528,50.837C34.812,50.837 36.092,50.684 37.34,50.38L24.27,62.88Z" style="fill:rgb(52,152,219);"/></g><g transform="matrix(0.0400043,0,0,0.0400043,0.543729,6.01026)"><path d="M42.49,40.74C44.085,38.811 44.959,36.385 44.959,33.882C44.959,30.66 43.512,27.602 41.02,25.56C36.263,21.974 29.414,22.871 25.74,27.56C24.132,29.492 23.251,31.928 23.251,34.442C23.251,37.673 24.706,40.738 27.21,42.78C31.967,46.366 38.816,45.469 42.49,40.78L42.49,40.74Z" style="fill:rgb(52,152,219);"/></g></g></svg>