<svg width="100%" height="100%" viewBox="0 0 18 16" version="1.1" xmlns="http://www.w3.org/2000/svg" xmlns:xlink="http://www.w3.org/1999/xlink" xml:space="preserve" style="fill-rule:evenodd;clip-rule:evenodd;stroke-linejoin:round;stroke-miterlimit:2;"><g id="archive-light"><g transform="matrix(1,0,0,1,1,0.306145)"><g transform="matrix(1,0,0,1.09428,0.769524,0.348051)"><rect x="5.816" y="3.596" width="1.138" height="0.68" style="fill:rgb(180,180,180);"/></g><g transform="matrix(1,0,0,1.09428,0.769524,-1.09254)"><rect x="5.816" y="3.596" width="1.138" height="0.68" style="fill:rgb(180,180,180);"/></g><g transform="matrix(1,0,0,1.09428,0.769524,-2.54245)"><rect x="5.816" y="3.596" width="1.138" height="0.68" style="fill:rgb(180,180,180);"/></g><g transform="matrix(1,0,0,1.09428,0.0286199,1.07696)"><rect x="5.816" y="3.596" width="1.138" height="0.68" style="fill:rgb(180,180,180);"/></g><g transform="matrix(1,0,0,1.09428,0.769524,1.82031)"><rect x="5.816" y="3.596" width="1.138" height="0.68" style="fill:rgb(180,180,180);"/></g><g transform="matrix(1,0,0,1.09428,0.0286199,-0.355141)"><rect x="5.816" y="3.596" width="1.138" height="0.68" style="fill:rgb(180,180,180);"/></g><g transform="matrix(1,0,0,1.09428,0.0286199,-1.82855)"><rect x="5.816" y="3.596" width="1.138" height="0.68" style="fill:rgb(180,180,180);"/></g><g transform="matrix(1,0,0,1.09428,0.0286199,2.54006)"><rect x="5.816" y="3.596" width="1.138" height="0.68" style="fill:rgb(180,180,180);"/></g><g transform="matrix(1,0,0,1.09428,0.769524,3.27914)"><rect x="5.816" y="3.596" width="1.138" height="0.68" style="fill:rgb(180,180,180);"/></g><path d="M6.235,8.81L6.235,9.942L5.906,11.247L6.976,11.996L8,11.209L7.688,9.842L7.688,8.791L6.235,8.81Z" style="fill:rgb(180,180,180);"/></g><path id="with-logo" d="M11.912,1.086C11.537,0.711 11.028,0.5 10.498,0.5C8.668,0.5 4.44,0.5 4.44,0.5C3.645,0.5 3,1.145 3,1.94L3,14.06C3,14.855 3.645,15.5 4.44,15.5L13.56,15.5C14.355,15.5 15,14.855 15,14.06L15,5.002C15,4.472 14.789,3.963 14.414,3.588C13.728,2.902 12.598,1.772 11.912,1.086ZM9.642,1.75L9.642,4.461C9.642,5.344 10.359,6.061 11.242,6.061L13.75,6.061L13.75,14.06C13.75,14.165 13.665,14.25 13.56,14.25C13.56,14.25 4.44,14.25 4.44,14.25C4.335,14.25 4.25,14.165 4.25,14.06C4.25,14.06 4.25,1.94 4.25,1.94C4.25,1.835 4.335,1.75 4.44,1.75L9.642,1.75ZM10.892,1.862C10.941,1.892 10.987,1.928 11.028,1.97L13.53,4.472C13.625,4.566 13.692,4.684 13.725,4.811L11.242,4.811C11.049,4.811 10.892,4.654 10.892,4.461L10.892,1.862Z" style="fill:rgb(180,180,180);"/></g></svg>