<svg width="100%" height="100%" viewBox="0 0 18 16" version="1.1" xmlns="http://www.w3.org/2000/svg" xmlns:xlink="http://www.w3.org/1999/xlink" xml:space="preserve" style="fill-rule:evenodd;clip-rule:evenodd;stroke-linejoin:round;stroke-miterlimit:2;"><g id="arrow-dark" transform="matrix(2.14537,0,0,2.14537,-20.1815,-9.06837)"><path d="M10.572,6.319L10.572,5.294L13.235,7.957L10.572,10.617L10.572,9.601L12.21,7.961L10.572,6.319Z"/><g transform="matrix(1,0,0,1,1.6985,0)"><path d="M10.572,6.319L10.572,5.294L13.235,7.957L10.572,10.617L10.572,9.601L12.21,7.961L10.572,6.319Z"/></g><g transform="matrix(1,0,0,1,3.397,0)"><path d="M10.572,6.319L10.572,5.294L13.235,7.957L10.572,10.617L10.572,9.601L12.21,7.961L10.572,6.319Z"/></g></g></svg>