<svg width="100%" height="100%" viewBox="0 0 18 16" version="1.1" xmlns="http://www.w3.org/2000/svg" xmlns:xlink="http://www.w3.org/1999/xlink" xml:space="preserve" style="fill-rule:evenodd;clip-rule:evenodd;stroke-linejoin:round;stroke-miterlimit:2;"><g id="arrow" transform="matrix(1.81531,0,0,1.81531,-15.6921,-6.44247)"><g transform="matrix(0.591528,0,0,0.643345,8.68391,3.02469)"><path d="M15.532,3.683L15.532,11.647C15.532,13.112 14.238,14.301 12.645,14.301L3.984,14.301C2.391,14.301 1.097,13.112 1.097,11.647L1.097,3.683C1.097,2.218 2.391,1.029 3.984,1.029L12.645,1.029C14.238,1.029 15.532,2.218 15.532,3.683Z" style="fill:white;"/></g><path d="M10.572,6.319L10.572,5.294L13.235,7.957L10.572,10.617L10.572,9.601L12.21,7.961L10.572,6.319Z"/><g transform="matrix(1,0,0,1,1.6985,0)"><path d="M10.572,6.319L10.572,5.294L13.235,7.957L10.572,10.617L10.572,9.601L12.21,7.961L10.572,6.319Z"/></g><g transform="matrix(1,0,0,1,3.397,0)"><path d="M10.572,6.319L10.572,5.294L13.235,7.957L10.572,10.617L10.572,9.601L12.21,7.961L10.572,6.319Z"/></g></g></svg>