<svg width="100%" height="100%" viewBox="0 0 18 16" version="1.1" xmlns="http://www.w3.org/2000/svg" xmlns:xlink="http://www.w3.org/1999/xlink" xml:space="preserve" style="fill-rule:evenodd;clip-rule:evenodd;stroke-linejoin:round;stroke-miterlimit:2;"><g id="asciidoc" transform="matrix(0.0903057,0,0,0.0903057,2,1)"><path d="M14.035,0.034L65.242,89.279L154.142,89.279C154.726,85.443 155.029,81.514 155.029,77.515C155.029,34.705 120.325,0 77.515,0L15.055,0C14.713,0 14.372,0.011 14.035,0.034Z" style="fill:rgb(31,129,151);fill-rule:nonzero;"/><path d="M0,28.595L34.819,89.279L0,89.279L0,28.595Z" style="fill:rgb(31,129,151);fill-rule:nonzero;"/><path d="M0,115.667L0,139.974C0,148.289 6.74,155.029 15.055,155.029L72.544,155.029L49.96,115.667L0,115.667Z" style="fill:rgb(31,129,151);fill-rule:nonzero;"/><path d="M100.906,151.437C119.727,145.487 135.441,132.549 145.005,115.667L80.383,115.667L100.906,151.437Z" style="fill:rgb(31,129,151);fill-rule:nonzero;"/></g></svg>