<svg width="100%" height="100%" viewBox="0 0 18 16" version="1.1" xmlns="http://www.w3.org/2000/svg" xmlns:xlink="http://www.w3.org/1999/xlink" xml:space="preserve" style="fill-rule:evenodd;clip-rule:evenodd;stroke-linecap:round;stroke-linejoin:round;stroke-miterlimit:1;"><g id="asp" transform="matrix(1.14245,0,0,1.14245,-1.72344,-0.633003)"><g transform="matrix(0.984546,0,0,0.944227,0.0656707,0.0797213)"><path d="M12.453,1.429L14.684,3.904L14.684,14.408L4.25,14.408L4.25,1.429L12.453,1.429Z" style="fill:white;stroke:black;stroke-width:0.38px;"/></g><path d="M12.098,1.486L12.125,3.83L14.473,3.815" style="fill:none;stroke:black;stroke-width:0.36px;stroke-linecap:square;"/><path d="M7.739,9.808L7.755,8.919L5.73,6.568L5.742,5.053L7.005,3.805L11.019,3.813L12.609,5.307L12.615,5.793L12.27,6.202L10.572,6.214L9.825,5.442L9.787,6.627L12.59,9.414L12.619,10.977L11.354,12.237L7.002,12.217L6.147,11.397L6.153,10.639L6.956,9.817L7.739,9.808Z" style="fill:url(#_Linear-ru9yrc8);stroke:black;stroke-width:0.29px;stroke-linecap:square;"/><path d="M10.224,10.374L11.079,10.381L11.173,10.304L11.166,10.151L10.676,9.643L10.224,10.374Z"/><path d="M10.8,12.158L9.825,11.036L9.831,10.591L10.601,9.769L7.728,9.809" style="fill:none;stroke:black;stroke-width:0.29px;stroke-linecap:square;"/><path d="M9.854,5.42L11.07,3.861" style="fill:none;stroke:black;stroke-width:0.29px;"/><path d="M6.95,4.659L8.896,4.651" style="fill:none;stroke:black;stroke-width:0.18px;stroke-linecap:square;"/><g transform="matrix(1,0,0,1,-0.389142,0.771325)"><path d="M6.95,4.659L8.896,4.651" style="fill:none;stroke:black;stroke-width:0.18px;stroke-linecap:square;"/></g><g transform="matrix(1,0,0,1,-0.368229,1.55668)"><path d="M6.95,4.659L8.896,4.651" style="fill:none;stroke:black;stroke-width:0.18px;stroke-linecap:square;"/></g><g transform="matrix(0.909238,0.000355589,0.000355589,0.999999,0.764007,2.34739)"><path d="M6.95,4.659L8.896,4.651" style="fill:none;stroke:black;stroke-width:0.19px;stroke-linecap:square;"/></g><g transform="matrix(0.909238,0.000355589,0.000355589,0.999999,1.2538,3.12406)"><path d="M6.95,4.659L8.896,4.651" style="fill:none;stroke:black;stroke-width:0.19px;stroke-linecap:square;"/></g><g transform="matrix(0.909238,0.000355589,0.000355589,0.999999,2.12457,3.97309)"><path d="M6.95,4.659L8.896,4.651" style="fill:none;stroke:black;stroke-width:0.19px;stroke-linecap:square;"/></g></g><defs><linearGradient id="_Linear-ru9yrc8" x1="0" y1="0" x2="1" y2="0" gradientUnits="userSpaceOnUse" gradientTransform="matrix(-0.0899065,-7.48884,7.48884,-0.0899065,8.89879,11.7327)"><stop offset="0" style="stop-color:rgb(74,227,230);stop-opacity:1"/><stop offset="1" style="stop-color:rgb(145,203,240);stop-opacity:1"/></linearGradient></defs></svg>