<svg width="100%" height="100%" viewBox="0 0 18 16" version="1.1" xmlns="http://www.w3.org/2000/svg" xmlns:xlink="http://www.w3.org/1999/xlink" xml:space="preserve" style="fill-rule:evenodd;clip-rule:evenodd;stroke-linejoin:round;stroke-miterlimit:2;"><g id="astro"><g transform="matrix(1.01367,0,0,1.02363,-0.0276671,-0.0234697)"><rect x="2.025" y="0.993" width="13.782" height="13.705" style="fill:rgb(27,29,35);"/></g><path d="M7.27,9.986C7.27,9.986 7.747,10.691 9.028,10.637C10.309,10.583 10.725,10.177 10.725,10.177C10.725,10.177 10.871,10.408 10.792,10.802C10.712,11.196 10.516,11.583 10.015,11.861C9.515,12.14 9.274,12.407 9.278,12.787C9.282,13.166 9.364,13.28 9.364,13.28C9.364,13.28 9.323,13.335 8.956,12.93C8.59,12.525 8.665,12.298 8.649,12.001C8.633,11.705 8.618,11.374 8.179,11.362C7.698,11.349 7.648,11.818 7.648,11.818C7.648,11.818 7.443,11.66 7.317,11.305C7.191,10.95 7.197,10.788 7.197,10.539C7.197,10.29 7.27,9.986 7.27,9.986Z" style="fill:url(#_Linear-asq5i92);"/><path d="M5.172,9.872C5.172,9.872 5.843,9.598 6.326,9.454C6.81,9.31 7.719,9.249 7.719,9.249C7.719,9.249 8.554,6.637 8.7,6.28C8.847,5.923 9.197,5.906 9.284,6.213C9.37,6.519 10.264,9.243 10.264,9.243C10.264,9.243 11.068,9.252 11.567,9.384C12.066,9.517 12.836,9.89 12.836,9.89C12.836,9.89 10.806,4.399 10.672,3.991C10.538,3.584 10.399,3.576 10.143,3.592C9.887,3.608 8.127,3.571 7.9,3.588C7.674,3.605 7.502,3.526 7.325,3.961C7.148,4.396 5.172,9.872 5.172,9.872Z" style="fill:white;"/></g><defs><linearGradient id="_Linear-asq5i92" x1="0" y1="0" x2="1" y2="0" gradientUnits="userSpaceOnUse" gradientTransform="matrix(-1.02329,2.10265,-2.10265,-1.02329,10.0849,10.7879)"><stop offset="0" style="stop-color:rgb(236,70,216);stop-opacity:1"/><stop offset="1" style="stop-color:rgb(221,59,59);stop-opacity:1"/></linearGradient></defs></svg>