<svg width="100%" height="100%" viewBox="0 0 18 16" version="1.1" xmlns="http://www.w3.org/2000/svg" xmlns:xlink="http://www.w3.org/1999/xlink" xml:space="preserve" style="fill-rule:evenodd;clip-rule:evenodd;stroke-linejoin:round;stroke-miterlimit:2;"><g id="file-audio"><g transform="matrix(0.541615,0,0,0.541615,0.336027,-0.666355)"><path d="M17.229,4C17.018,4.008 16.817,4.09 16.66,4.232L9.06,10.552C8.809,10.802 8.457,10.922 8.105,10.88L3.208,10.88L3.2,10.88C2.542,10.88 2,11.422 2,12.08L2,12.088L2,19.914L2,19.92C2,20.578 2.542,21.12 3.2,21.12L3.208,21.12L8.1,21.12C8.452,21.078 8.804,21.198 9.055,21.448L16.655,27.768C17.176,28.201 17.736,27.992 17.736,27.479L17.736,4.522C17.737,4.513 17.737,4.503 17.737,4.494C17.737,4.223 17.514,4 17.243,4C17.238,4 17.234,4 17.229,4Z" style="fill:none;stroke:rgb(114,134,149);stroke-width:3.08px;"/></g><g transform="matrix(1,0,0,1,0.6195,0.095837)"><path d="M12.23,5.509C13.335,7.065 13.23,8.726 12.23,10.465" style="fill:none;stroke:rgb(114,134,149);stroke-width:1.25px;stroke-linecap:round;stroke-linejoin:miter;stroke-miterlimit:1;"/></g><path d="M14.981,2.809C17.294,6.014 17.111,9.483 14.981,13.157" style="fill:none;stroke:rgb(114,134,149);stroke-width:1.25px;stroke-linecap:round;stroke-linejoin:miter;stroke-miterlimit:1;"/></g></svg>