<svg width="100%" height="100%" viewBox="0 0 18 16" version="1.1" xmlns="http://www.w3.org/2000/svg" xmlns:xlink="http://www.w3.org/1999/xlink" xml:space="preserve" style="fill-rule:evenodd;clip-rule:evenodd;stroke-linejoin:round;stroke-miterlimit:2;"><g id="audio" transform="matrix(1.7003,0,0,1.7003,-6.1451,-5.7281)"><g transform="matrix(1.0267,0,0,1.03013,-0.12274,-0.255068)"><path d="M4.848,7.909L4.848,8.466C4.848,8.598 4.741,8.704 4.609,8.704C4.477,8.704 4.37,8.598 4.37,8.466L4.37,7.909C4.37,7.778 4.477,7.671 4.609,7.671C4.741,7.671 4.848,7.778 4.848,7.909Z" style="fill:rgb(114,134,149);"/></g><g transform="matrix(1.0267,0,0,1.87878,0.694806,-7.20366)"><path d="M4.848,7.802L4.848,8.574C4.848,8.646 4.741,8.704 4.609,8.704C4.477,8.704 4.37,8.646 4.37,8.574L4.37,7.802C4.37,7.73 4.477,7.671 4.609,7.671C4.741,7.671 4.848,7.73 4.848,7.802Z" style="fill:rgb(114,134,149);"/></g><g transform="matrix(1.0267,0,0,1.87878,2.3299,-7.20366)"><path d="M4.848,7.802L4.848,8.574C4.848,8.646 4.741,8.704 4.609,8.704C4.477,8.704 4.37,8.646 4.37,8.574L4.37,7.802C4.37,7.73 4.477,7.671 4.609,7.671C4.741,7.671 4.848,7.73 4.848,7.802Z" style="fill:rgb(114,134,149);"/></g><g transform="matrix(1.0267,0,0,1.87878,5.75619,-7.20366)"><path d="M4.848,7.802L4.848,8.574C4.848,8.646 4.741,8.704 4.609,8.704C4.477,8.704 4.37,8.646 4.37,8.574L4.37,7.802C4.37,7.73 4.477,7.671 4.609,7.671C4.741,7.671 4.848,7.73 4.848,7.802Z" style="fill:rgb(114,134,149);"/></g><g transform="matrix(1.0267,0,0,3.75757,1.51235,-22.5868)"><path d="M4.848,7.737L4.848,8.639C4.848,8.675 4.741,8.704 4.609,8.704C4.477,8.704 4.37,8.675 4.37,8.639L4.37,7.737C4.37,7.701 4.477,7.671 4.609,7.671C4.741,7.671 4.848,7.701 4.848,7.737Z" style="fill:rgb(114,134,149);"/></g><g transform="matrix(1.13564,0,0,3.1313,2.67136,-17.4591)"><path d="M4.848,7.758L4.848,8.618C4.848,8.666 4.741,8.704 4.609,8.704C4.477,8.704 4.37,8.666 4.37,8.618L4.37,7.758C4.37,7.71 4.477,7.671 4.609,7.671C4.741,7.671 4.848,7.71 4.848,7.758Z" style="fill:rgb(114,134,149);"/></g><g transform="matrix(1.13564,0,0,6.26261,3.54095,-43.0976)"><path d="M4.848,7.715L4.848,8.661C4.848,8.685 4.741,8.704 4.609,8.704C4.477,8.704 4.37,8.685 4.37,8.661L4.37,7.715C4.37,7.691 4.477,7.671 4.609,7.671C4.741,7.671 4.848,7.691 4.848,7.715Z" style="fill:rgb(114,134,149);"/></g><g transform="matrix(1.13564,0,0,3.1313,4.41053,-17.4591)"><path d="M4.848,7.758L4.848,8.618C4.848,8.666 4.741,8.704 4.609,8.704C4.477,8.704 4.37,8.666 4.37,8.618L4.37,7.758C4.37,7.71 4.477,7.671 4.609,7.671C4.741,7.671 4.848,7.71 4.848,7.758Z" style="fill:rgb(114,134,149);"/></g><g transform="matrix(1.0267,0,0,3.75757,6.57374,-22.5868)"><path d="M4.848,7.737L4.848,8.639C4.848,8.675 4.741,8.704 4.609,8.704C4.477,8.704 4.37,8.675 4.37,8.639L4.37,7.737C4.37,7.701 4.477,7.671 4.609,7.671C4.741,7.671 4.848,7.701 4.848,7.737Z" style="fill:rgb(114,134,149);"/></g><g transform="matrix(1.0267,0,0,1.87878,7.39128,-7.20366)"><path d="M4.848,7.802L4.848,8.574C4.848,8.646 4.741,8.704 4.609,8.704C4.477,8.704 4.37,8.646 4.37,8.574L4.37,7.802C4.37,7.73 4.477,7.671 4.609,7.671C4.741,7.671 4.848,7.73 4.848,7.802Z" style="fill:rgb(114,134,149);"/></g><g transform="matrix(1.0267,0,0,1.03013,8.20883,-0.255068)"><path d="M4.848,7.909L4.848,8.466C4.848,8.598 4.741,8.704 4.609,8.704C4.477,8.704 4.37,8.598 4.37,8.466L4.37,7.909C4.37,7.778 4.477,7.671 4.609,7.671C4.741,7.671 4.848,7.778 4.848,7.909Z" style="fill:rgb(114,134,149);"/></g></g></svg>