<svg width="100%" height="100%" viewBox="0 0 18 16" version="1.1" xmlns="http://www.w3.org/2000/svg" xmlns:xlink="http://www.w3.org/1999/xlink" xml:space="preserve" style="fill-rule:evenodd;clip-rule:evenodd;stroke-linejoin:round;stroke-miterlimit:2;"><g id="avro" transform="matrix(0.42674,0,0,0.42674,1.5,1.5989)"><path d="M9.323,18.312L10.865,23.022L34.997,29.904L9.323,18.312Z" style="fill:rgb(0,104,224);fill-rule:nonzero;"/><path d="M17.748,10.514C18.044,11.688 17.732,12.435 15.831,12.25L34.901,29.922C35.117,30.009 35.155,29.864 35.005,29.643L17.748,10.514Z" style="fill:rgb(0,0,148);fill-rule:nonzero;"/><path d="M17.142,1.986C17.142,1.986 16.462,2.628 17.177,3.46C17.708,4.077 18.501,3.698 18.501,3.698C18.501,3.698 19.232,3.288 18.677,2.423C17.955,1.298 17.142,1.986 17.142,1.986ZM35.043,30L7.99,17.949C7.99,17.949 -0.849,12.482 0.067,10.322C0.958,8.231 8.837,12.444 9.671,12.638C10.504,12.834 10.968,12.306 10.983,11.938C11.008,11.407 9.813,9.889 10.433,9.241C11.05,8.595 13.069,9.854 13.069,9.854L14.708,10.988L35.043,30Z" style="fill:rgb(28,204,252);fill-rule:nonzero;"/><path d="M35.15,29.886L17.297,10.11C17.297,10.11 14.082,6.459 14.215,5.414C14.349,4.368 18.619,7.705 18.619,7.705C18.619,7.705 19.094,8.162 19.544,8.084C19.995,8.008 19.513,7.26 19.513,7.26C19.513,7.26 18.775,5.546 19.268,5.238C19.763,4.933 21.013,6.223 21.013,6.223C21.013,6.223 21.325,6.546 21.653,6.459C21.98,6.37 21.804,5.651 21.804,5.651C21.804,5.651 19.547,0.444 20.531,0.056C22.034,-0.539 24.173,3.769 24.891,5.111C25.072,5.481 35.15,29.886 35.15,29.886L35.15,29.886ZM7.29,5.416C7.29,5.416 6.374,6.023 7.393,7.188C8.329,8.263 9.163,7.705 9.163,7.705C9.163,7.705 10.027,7.177 9.198,6.181C8.101,4.864 7.29,5.416 7.29,5.416Z" style="fill:rgb(28,204,252);fill-rule:nonzero;"/></g></svg>