<svg width="100%" height="100%" viewBox="0 0 18 16" version="1.1" xmlns="http://www.w3.org/2000/svg" xmlns:xlink="http://www.w3.org/1999/xlink" xml:space="preserve" style="fill-rule:evenodd;clip-rule:evenodd;"><g id="babashka" transform="matrix(0.0401814,0,0,0.0401814,8.63837,7.67855)"><g transform="matrix(1,0,0,1,-435.296,-220.438)"><path d="M522.163,365.61C556.622,341.191 579.112,300.994 579.112,255.543C579.112,181.086 527.582,84.176 444.296,41.784C361.758,86.423 309.479,181.086 309.479,255.543C309.479,300.994 331.969,341.191 366.428,365.61C365.197,365.775 363.99,365.985 362.806,366.243C336.625,371.956 304.685,415.091 304.685,415.091L383.778,415.091C397.85,415.091 411.23,409.806 421.814,403.877C426.955,410.678 435.11,415.076 444.296,415.076C453.481,415.076 461.639,410.678 466.777,403.877C477.362,409.806 490.741,415.091 504.813,415.091L583.906,415.091C583.906,415.091 551.966,371.956 525.785,366.243C524.601,365.985 523.394,365.775 522.163,365.61Z" style="fill:url(#_Linear-9ho2zmd);"/></g><g transform="matrix(1,0,0,1,-435.296,-220.438)"><circle cx="444.146" cy="263.333" r="93.323" style="fill:white;"/></g><g transform="matrix(1,0,0,1,-435.296,-220.438)"><path d="M363.106,223.487C418.381,227.381 451.036,213.9 473.656,180.495C473.656,180.495 430.065,165.815 403.551,180.495C377.127,195.126 363.106,223.487 363.106,223.487Z" style="fill:rgb(180,180,180);fill-rule:nonzero;"/></g><g transform="matrix(1,0,0,1,-435.296,-220.438)"><path d="M517.696,215.248C495.526,212.851 475.753,205.661 466.316,178.548C466.316,178.548 485.918,183.022 505.712,201.051C526.27,219.776 517.696,215.248 517.696,215.248Z" style="fill:rgb(180,180,180);fill-rule:nonzero;"/></g><g transform="matrix(1,0,0,1,-435.296,-220.438)"><circle cx="444.146" cy="263.333" r="93.323" style="fill:none;stroke:rgb(10,0,0);stroke-width:11.98px;"/></g><g transform="matrix(1,0,0,1,-435.296,-220.438)"><path d="M462.571,223.337L425.721,223.337L434.709,232.325L434.709,259.288C436.057,250.45 452.834,250.15 453.733,259.288L455.98,232.325L462.571,223.337Z" style="fill-rule:nonzero;"/></g><g transform="matrix(1,0,0,1,-435.296,-220.438)"><path d="M328.988,235.321C328.988,228.702 334.354,223.337 340.972,223.337L426.326,223.337C433.57,223.337 439.158,229.716 438.205,236.898L430.787,292.772C429.996,298.728 424.915,303.178 418.908,303.178L340.972,303.178C334.354,303.178 328.988,297.813 328.988,291.195L328.988,235.321Z" style="fill-rule:nonzero;"/></g><g transform="matrix(1,0,0,1,-435.296,-220.438)"><path d="M364.334,290.011L364.334,285.068L362.672,285.068C361.593,285.068 360.874,284.304 360.515,283.181L353.684,262.599C353.234,261.295 352.695,260.352 351.976,259.633C350.628,258.239 348.875,257.79 346.898,257.79L344.741,257.79L344.741,262.958L346.179,262.958C347.392,262.958 348.336,263.407 348.741,264.845L349.684,268.171L341.236,290.011L347.392,290.011L352.47,275.631L355.167,284.304C356.2,287.674 357.953,290.011 361.908,290.011L364.334,290.011Z" style="fill:white;fill-rule:nonzero;"/></g><g transform="matrix(1,0,0,1,-435.296,-220.438)"><rect x="374.131" y="285.068" width="16.777" height="4.943" style="fill:white;fill-rule:nonzero;"/></g><g transform="matrix(1,0,0,1,-435.296,-220.438)"><path d="M450.29,236.899C449.338,229.716 454.925,223.337 462.169,223.337L547.355,223.337C553.973,223.337 559.339,228.702 559.339,235.321L559.339,291.074C559.339,297.692 553.973,303.058 547.355,303.058L469.575,303.058C463.568,303.058 458.487,298.608 457.696,292.651L450.29,236.899Z" style="fill-rule:nonzero;"/></g><g transform="matrix(1,0,0,1,-435.296,-220.438)"><path d="M494.118,290.146L494.118,285.203L492.455,285.203C491.376,285.203 490.657,284.439 490.298,283.315L483.467,262.733C483.018,261.43 482.479,260.486 481.76,259.767C480.411,258.374 478.659,257.925 476.681,257.925L474.524,257.925L474.524,263.093L475.962,263.093C477.176,263.093 478.119,263.542 478.524,264.98L479.468,268.306L471.019,290.146L477.176,290.146L482.254,275.766L484.95,284.439C485.984,287.809 487.736,290.146 491.691,290.146L494.118,290.146Z" style="fill:white;fill-rule:nonzero;"/></g><g transform="matrix(1,0,0,1,-435.296,-220.438)"><rect x="503.914" y="285.203" width="16.777" height="4.943" style="fill:white;fill-rule:nonzero;"/></g></g><defs><linearGradient id="_Linear-9ho2zmd" x1="0" y1="0" x2="1" y2="0" gradientUnits="userSpaceOnUse" gradientTransform="matrix(2.28671e-14,373.448,-373.448,2.28671e-14,449.089,41.784)"><stop offset="0" style="stop-color:rgb(228,31,38);stop-opacity:1"/><stop offset="1" style="stop-color:rgb(183,0,0);stop-opacity:1"/></linearGradient></defs></svg>