<svg width="100%" height="100%" viewBox="0 0 18 16" version="1.1" xmlns="http://www.w3.org/2000/svg" xmlns:xlink="http://www.w3.org/1999/xlink" xml:space="preserve" style="fill-rule:evenodd;clip-rule:evenodd;stroke-linejoin:round;stroke-miterlimit:2;"><g transform="matrix(0.0273437,0,0,0.0273438,9,8)"><g id="babel" transform="matrix(1,0,0,1,-209.815,-256)"><clipPath id="_clip-hein6u8"><rect x="0" y="0" width="419.63" height="512"/></clipPath><g clip-path="url(#_clip-hein6u8)"><g transform="matrix(1,0,0,1,-46.19,0)"><path d="M133.39,111.06L133.22,111.06L133.39,111.06Z" style="fill:none;fill-rule:nonzero;"/></g><g transform="matrix(1,0,0,1,-46.19,0)"><path d="M141.82,442C143.02,441.646 144.199,441.222 145.35,440.73L141.82,442Z" style="fill:none;fill-rule:nonzero;"/></g><g transform="matrix(1,0,0,1,-46.19,0)"><path d="M123.86,117.7C122.65,118.63 121.45,119.59 120.27,120.56C119.09,121.53 118.15,122.35 117.1,123.27L125.59,116.39L123.86,117.7Z" style="fill:none;fill-rule:nonzero;"/></g><g transform="matrix(1,0,0,1,-46.19,0)"><path d="M305.05,239.56L294.6,240.46C252.04,257.207 220.87,266.433 201.09,268.14C165.757,338.373 143.837,382.797 135.33,401.41C151.01,397.137 181.257,382.667 226.07,358C228.603,357.78 246.24,346.937 278.98,325.47L323.09,290.53C332.63,286.53 341.36,273.143 349.28,250.37L349.12,248.48C338.64,240.913 323.95,237.94 305.05,239.56Z" style="fill:none;fill-rule:nonzero;"/></g><g transform="matrix(1,0,0,1,-46.19,0)"><path d="M393.83,98.54L394.64,88.54L398.21,88.23C398.49,91.52 399.74,93.06 401.95,92.87C407.283,86.097 409.743,80.397 409.33,75.77C409.253,74.91 409.11,74.057 408.9,73.22C406.357,70.582 403.405,68.371 400.16,66.67L396.6,67L397.31,75.28L393.99,75.57C393.791,72.654 392.817,69.844 391.17,67.43L389.49,67.57C389.416,66.706 389.285,65.847 389.1,65C382.433,58.6 368.97,56.267 348.71,58C344.91,58.32 335.143,59.687 319.41,62.1L319.01,57.4L313.78,57.85C297.78,60.583 289.987,64.487 290.4,69.56L254,151.69C249.913,154.15 246.173,164.397 242.78,182.43C238,189.803 235.23,196.193 234.47,201.6C235.38,201.808 236.265,202.113 237.11,202.51C280.87,183.403 306.167,173.567 313,173C333.54,159.8 346.123,150.443 350.75,144.93C352.183,144.81 355.893,140.657 361.88,132.47C368.493,131.863 379.143,120.553 393.83,98.54Z" style="fill:none;fill-rule:nonzero;"/></g><g transform="matrix(1,0,0,1,-46.19,0)"><path d="M98.89,133.91L100.82,136.91C103.02,134.91 104.9,133.22 106.48,131.91L103.77,127.84C102.033,129.772 100.404,131.799 98.89,133.91Z" style="fill:rgb(1,1,1);fill-rule:nonzero;"/></g><g transform="matrix(1,0,0,1,-46.19,0)"><path d="M162.94,72.18L162.83,71C159.69,72.83 156.51,74.65 153.24,76.47L153.53,79.83C154.188,79.748 154.833,79.584 155.45,79.34C160.483,75.327 162.98,72.94 162.94,72.18Z" style="fill:rgb(1,1,1);fill-rule:nonzero;"/></g><g transform="matrix(1,0,0,1,-46.19,0)"><path d="M254,151.69L290.4,69.58C289.96,64.513 297.753,60.61 313.78,57.87L319.01,57.42L319.41,62.12C335.137,59.713 344.903,58.34 348.71,58C368.95,56.253 382.413,58.587 389.1,65C386.367,52.68 371.403,47.68 344.21,50C340.423,50.327 330.657,51.693 314.91,54.1L314.51,49.4L309.29,49.85C293.29,52.583 285.493,56.49 285.9,61.57L249.45,143.67C245.363,146.13 241.623,156.38 238.23,174.42C232.043,183.973 229.217,191.887 229.75,198.16L230.02,201.29C231.493,201.157 232.977,201.255 234.42,201.58C235.193,196.173 237.963,189.783 242.73,182.41C246.123,164.397 249.88,154.157 254,151.69Z" style="fill:rgb(1,1,1);fill-rule:nonzero;"/></g><g transform="matrix(1,0,0,1,-46.19,0)"><path d="M397.31,75.26L396.6,67L400.16,66.69C403.405,68.391 406.357,70.602 408.9,73.24C407.5,67.62 403.087,62.77 395.66,58.69L392.1,59L392.81,67.28L391.17,67.43C392.817,69.837 393.794,72.64 394,75.55L397.31,75.26Z" style="fill:rgb(1,1,1);fill-rule:nonzero;"/></g><g transform="matrix(1,0,0,1,-46.19,0)"><path d="M294.6,240.46L305.05,239.56C323.95,237.933 338.64,240.907 349.12,248.48L348.72,243.88C338.127,233.813 322.07,229.707 300.55,231.56L290.1,232.46C247.54,249.213 216.37,258.443 196.59,260.15C151.67,349.483 128.427,397.057 126.86,402.87L128.76,402.71C130.983,402.464 133.181,402.029 135.33,401.41C143.85,382.79 165.77,338.367 201.09,268.14C220.87,266.44 252.04,257.213 294.6,240.46Z" style="fill:rgb(1,1,1);fill-rule:nonzero;"/></g><g transform="matrix(1,0,0,1,-46.19,0)"><path d="M404.52,178.42L448.32,139.9C458.073,127.3 463.903,107.097 465.81,79.29L465.25,72.79C464.584,65.042 461.852,57.613 457.34,51.28C459.205,55.568 460.36,60.131 460.76,64.79L461.31,71.29C459.41,99.13 453.58,119.337 443.82,131.91L400,170.42C384.48,179.133 376.923,185.8 377.33,190.42C379.05,192.333 380.717,194.177 382.33,195.95C384.19,191.53 391.587,185.687 404.52,178.42Z" style="fill:rgb(1,1,1);fill-rule:nonzero;"/></g><g transform="matrix(1,0,0,1,-46.19,0)"><path d="M108.06,123.55C107.43,124.09 106.81,124.66 106.19,125.26C106.829,124.992 107.502,124.813 108.19,124.73L108.06,123.55Z" style="fill:rgb(1,1,1);fill-rule:nonzero;"/></g><g transform="matrix(1,0,0,1,-46.19,0)"><path d="M339.42,338.53C323.087,348.823 298.997,366.24 267.15,390.78C260.883,395.693 249.55,399.377 233.15,401.83L233.31,403.62L235.2,403.46L243.6,400.93L243.75,402.72C232.15,412.44 215.193,418.263 192.88,420.19C180.293,426.95 164.45,433.787 145.35,440.7C144.199,441.192 143.02,441.616 141.82,441.97C132.853,445.157 123.187,448.363 112.82,451.59C107.64,453.203 102.287,454.823 96.76,456.45C90.387,469.683 81.423,483.2 69.87,497C68.31,500.78 66.72,505.25 65.09,510.45L65.22,512.02L68.54,511.73C82.94,495.603 93.86,479.85 101.3,464.47C143.3,452.123 175.34,440.037 197.42,428.21C219.74,426.29 236.697,420.467 248.29,410.74L248.13,408.95L239.74,411.48L237.84,411.64L237.69,409.85C254.063,407.39 265.397,403.707 271.69,398.8C303.543,374.253 327.633,356.837 343.96,346.55C394.313,309.557 418.023,274.04 415.09,240C414.983,238.72 413.487,236.117 410.6,232.19C413.44,266.17 389.713,301.617 339.42,338.53Z" style="fill:rgb(1,1,1);fill-rule:nonzero;"/></g><g transform="matrix(1,0,0,1,-46.19,0)"><path d="M220.71,73.75C195.45,82.237 169.933,96.013 144.16,115.08L140.59,115.39C140.45,113.763 138.05,112.33 133.39,111.09L133.22,111.09C130.613,112.757 128.07,114.52 125.59,116.38L117.1,123.26C115.44,124.73 113.82,126.26 112.22,127.79L112.65,132.72C110.846,133.07 109.12,133.748 107.56,134.72L111.68,140.91C119.409,132.535 128.177,125.182 137.77,119.03C142.497,120.283 144.933,121.73 145.08,123.37L148.64,123.06C170.813,106.687 192.79,94.213 214.57,85.64C216.939,82.971 219.09,80.115 221,77.1L220.71,73.75Z" style="fill:rgb(1,1,1);fill-rule:nonzero;"/></g><g transform="matrix(1,0,0,1,-46.19,0)"><path d="M77.86,461.47L77.62,458.69L77.57,458.11C75.93,458.25 74.87,458.05 74.4,457.5C74.231,457.312 74.128,457.073 74.11,456.82L70.69,458.7L67.37,458.99L67.08,455.63L65.18,455.79C63.31,457.5 59.37,459.2 53.4,460.88C52.49,462.41 51.58,463.94 50.69,465.42C51.014,467.153 51.725,468.79 52.77,470.21C61.677,468.09 67.313,465.95 69.68,463.79L71.57,463.62L71.86,466.98L75.19,466.7L77.37,465.5C77.76,464.194 77.926,462.831 77.86,461.47Z" style="fill:rgb(1,1,1);fill-rule:nonzero;"/></g><g transform="matrix(1,0,0,1,-46.19,0)"><path d="M400,170.42L443.79,131.91C453.57,119.303 459.41,99.097 461.31,71.29L460.76,64.79C460.36,60.131 459.205,55.568 457.34,51.28C451.48,37.8 438.42,26.467 418.16,17.28C402.413,6.593 374.027,0.833 333,0C299,2.933 254.667,14.95 200,36.05C183.581,47.864 166.467,58.68 148.75,68.44L149,71.8C150.812,71.488 152.542,70.807 154.08,69.8C156.3,69.613 157.5,70.563 157.68,72.65L161.1,70.78L162.76,70.63L162.76,70.99L162.87,72.2C162.93,72.96 160.433,75.337 155.38,79.33C149.453,83.997 139.997,90.923 127.01,100.11L128.94,103.11L127.28,103.25L123.58,101.99C123.667,103.043 121.973,103.71 118.5,103.99L118.65,105.78L122.65,110.18C120.806,110.177 118.981,109.796 117.29,109.06C109.53,109.727 101.883,115.347 94.35,125.92L96.28,128.92C102.78,122.92 106.583,119.883 107.69,119.81L108.02,123.56L108.12,124.74C107.432,124.823 106.759,125.002 106.12,125.27C105.049,125.699 104.007,126.197 103,126.76L103.7,127.76L106.41,131.83L107.12,132.9C108.76,131.14 110.427,129.43 112.12,127.77C113.72,126.22 115.34,124.71 117,123.24C118.05,122.32 119.1,121.42 120.17,120.53C121.24,119.64 122.55,118.6 123.76,117.67L125.49,116.36C127.97,114.513 130.513,112.75 133.12,111.07L133.29,111.07C137.957,112.31 140.357,113.743 140.49,115.37L144.06,115.06C169.833,96 195.35,82.223 220.61,73.73L221,77.1C219.09,80.115 216.939,82.971 214.57,85.64C213.23,87.05 212.17,87.79 211.4,87.86C211.573,90.167 212.43,92.371 213.86,94.19C214.227,98.523 202.773,127.487 179.5,181.08C126.62,305.693 82.183,397.81 46.19,457.43C46.516,459.159 47.227,460.793 48.27,462.21C50.13,461.77 51.83,461.33 53.4,460.88C59.4,459.2 63.31,457.5 65.18,455.79L67.08,455.63L67.37,458.99L70.69,458.7L74.11,456.82C74.128,457.073 74.231,457.312 74.4,457.5C74.87,458.05 75.93,458.25 77.57,458.11L77.62,458.69L77.86,461.47C77.922,462.821 77.757,464.174 77.37,465.47C76.151,469.383 74.423,473.118 72.23,476.58C68.597,480.66 64.717,489.27 60.59,502.41L60.72,503.97L64.05,503.69C66.05,501.43 67.99,499.19 69.87,496.95C81.423,483.177 90.4,469.677 96.8,456.45C102.333,454.823 107.687,453.203 112.86,451.59C123.2,448.363 132.867,445.157 141.86,441.97L145.39,440.7C164.49,433.78 180.347,426.943 192.96,420.19C215.28,418.27 232.237,412.447 243.83,402.72L243.68,400.93L235.28,403.46L233.39,403.62L233.23,401.83C249.603,399.37 260.937,395.687 267.23,390.78C299.083,366.233 323.173,348.817 339.5,338.53C389.787,301.623 413.513,266.177 410.68,232.19C410.685,232.13 410.685,232.07 410.68,232.01C410.4,228.71 400.98,216.69 382.42,195.95C380.833,194.17 379.167,192.327 377.42,190.42C376.98,185.8 384.507,179.133 400,170.42ZM323.09,290.53L279,325.47C246.26,346.937 228.623,357.78 226.09,358C181.263,382.667 151.017,397.137 135.35,401.41C133.201,402.029 131.003,402.464 128.78,402.71L126.88,402.87C128.453,397.017 151.697,349.443 196.61,260.15C216.39,258.443 247.56,249.213 290.12,232.46L300.57,231.56C322.09,229.713 338.147,233.82 348.74,243.88L349.14,248.48L349.3,250.37C341.367,273.17 332.63,286.557 323.09,290.53ZM350.71,144.89C346.09,150.403 333.52,159.773 313,173C306.193,173.593 280.893,183.443 237.1,202.55C236.255,202.153 235.37,201.848 234.46,201.64C233.017,201.315 231.533,201.217 230.06,201.35L229.79,198.22C229.25,191.947 232.077,184.033 238.27,174.48C241.663,156.44 245.403,146.19 249.49,143.73L285.94,61.63C285.513,56.55 293.31,52.643 309.33,49.91L314.55,49.46L314.95,54.16C330.69,51.76 340.457,50.393 344.25,50.06C371.417,47.693 386.367,52.673 389.1,65C389.284,65.837 389.414,66.686 389.49,67.54L391.17,67.4L392.81,67.25L392.1,59L395.66,58.69C403.087,62.77 407.5,67.62 408.9,73.24C409.11,74.077 409.253,74.93 409.33,75.79C409.73,80.423 407.27,86.123 401.95,92.89C399.74,93.08 398.49,91.54 398.21,88.25L394.64,88.56L393.83,98.56C379.163,120.56 368.497,131.857 361.83,132.45C355.85,140.617 352.143,144.763 350.71,144.89Z" style="fill:rgb(245,220,94);fill-rule:nonzero;"/></g></g></g><g id="babel1"></g></g></svg>