<svg width="100%" height="100%" viewBox="0 0 18 16" version="1.1" xmlns="http://www.w3.org/2000/svg" xmlns:xlink="http://www.w3.org/1999/xlink" xml:space="preserve" style="fill-rule:evenodd;clip-rule:evenodd;stroke-linejoin:round;stroke-miterlimit:2;"><g id="batchfile" transform="matrix(1.92468,0,0,1.92468,-8.25586,-8.03829)"><g transform="matrix(0.557914,0,0,0.606786,4.32683,3.68194)"><path d="M15.532,4.347L15.532,10.983C15.532,12.814 13.915,14.301 11.923,14.301L4.706,14.301C2.714,14.301 1.097,12.814 1.097,10.983L1.097,4.347C1.097,2.516 2.714,1.029 4.706,1.029L11.923,1.029C13.915,1.029 15.532,2.516 15.532,4.347Z" style="fill:white;"/></g><g transform="matrix(1.57157,0,0,1.34064,-4.54679,-1.59964)"><path d="M8.275,4.741C8.326,4.928 8.36,5.12 8.378,5.315C8.44,5.348 8.499,5.387 8.554,5.433C8.71,5.353 8.87,5.292 9.035,5.249C9.191,5.443 9.307,5.675 9.374,5.928C9.259,6.073 9.133,6.203 8.996,6.319C9.003,6.397 9.003,6.476 8.996,6.555C9.133,6.671 9.259,6.801 9.374,6.946C9.307,7.199 9.191,7.431 9.035,7.624C8.87,7.581 8.71,7.52 8.554,7.441C8.499,7.487 8.44,7.526 8.378,7.559C8.36,7.754 8.326,7.946 8.275,8.133C8.052,8.193 7.821,8.193 7.598,8.133C7.548,7.946 7.513,7.754 7.495,7.559C7.433,7.526 7.374,7.487 7.319,7.441C7.164,7.52 7.003,7.581 6.838,7.624C6.682,7.431 6.566,7.199 6.499,6.946C6.614,6.801 6.74,6.671 6.877,6.555C6.871,6.476 6.871,6.397 6.877,6.319C6.74,6.203 6.614,6.073 6.499,5.928C6.566,5.675 6.682,5.443 6.838,5.249C7.003,5.292 7.164,5.353 7.319,5.433C7.374,5.387 7.433,5.348 7.495,5.315C7.513,5.12 7.548,4.928 7.598,4.741C7.821,4.681 8.052,4.681 8.275,4.741ZM7.937,5.979C8.155,5.979 8.332,6.184 8.332,6.437C8.332,6.689 8.155,6.894 7.937,6.894C7.719,6.894 7.542,6.689 7.542,6.437C7.542,6.184 7.719,5.979 7.937,5.979Z" style="fill:url(#_Radial-lb2nzu3);"/></g><g transform="matrix(1.15286,0,0,1.01022,1.45711,3.70862)"><path d="M8.275,4.741C8.326,4.928 8.36,5.12 8.378,5.315C8.44,5.348 8.499,5.387 8.554,5.433C8.71,5.353 8.87,5.292 9.035,5.249C9.191,5.443 9.307,5.675 9.374,5.928C9.259,6.073 9.133,6.203 8.996,6.319C9.003,6.397 9.003,6.476 8.996,6.555C9.133,6.671 9.259,6.801 9.374,6.946C9.307,7.199 9.191,7.431 9.035,7.624C8.87,7.581 8.71,7.52 8.554,7.441C8.499,7.487 8.44,7.526 8.378,7.559C8.36,7.754 8.326,7.946 8.275,8.133C8.052,8.193 7.821,8.193 7.598,8.133C7.548,7.946 7.513,7.754 7.495,7.559C7.433,7.526 7.374,7.487 7.319,7.441C7.164,7.52 7.003,7.581 6.838,7.624C6.682,7.431 6.566,7.199 6.499,6.946C6.614,6.801 6.74,6.671 6.877,6.555C6.871,6.476 6.871,6.397 6.877,6.319C6.74,6.203 6.614,6.073 6.499,5.928C6.566,5.675 6.682,5.443 6.838,5.249C7.003,5.292 7.164,5.353 7.319,5.433C7.374,5.387 7.433,5.348 7.495,5.315C7.513,5.12 7.548,4.928 7.598,4.741C7.821,4.681 8.052,4.681 8.275,4.741ZM7.937,5.806C8.237,5.806 8.481,6.089 8.481,6.437C8.481,6.785 8.237,7.068 7.937,7.068C7.636,7.068 7.392,6.785 7.392,6.437C7.392,6.089 7.636,5.806 7.937,5.806Z" style="fill:url(#_Radial-xlaqwwh);"/></g></g><defs><radialGradient id="_Radial-lb2nzu3" cx="0" cy="0" r="1" gradientUnits="userSpaceOnUse" gradientTransform="matrix(-1.45654,-1.60883,1.37243,-1.70743,8.71747,7.35851)"><stop offset="0" style="stop-color:rgb(146,154,162);stop-opacity:1"/><stop offset="0.46" style="stop-color:rgb(154,162,171);stop-opacity:1"/><stop offset="1" style="stop-color:rgb(175,184,194);stop-opacity:1"/></radialGradient><radialGradient id="_Radial-xlaqwwh" cx="0" cy="0" r="1" gradientUnits="userSpaceOnUse" gradientTransform="matrix(-1.45654,-1.60883,1.37243,-1.70743,8.71747,7.35851)"><stop offset="0" style="stop-color:rgb(72,75,78);stop-opacity:1"/><stop offset="0.46" style="stop-color:rgb(81,87,91);stop-opacity:1"/><stop offset="1" style="stop-color:rgb(104,116,123);stop-opacity:1"/></radialGradient></defs></svg>