<svg width="100%" height="100%" viewBox="0 0 18 16" version="1.1" xmlns="http://www.w3.org/2000/svg" xmlns:xlink="http://www.w3.org/1999/xlink" xml:space="preserve" style="fill-rule:evenodd;clip-rule:evenodd;stroke-linejoin:round;stroke-miterlimit:2;"><g id="bazel" transform="matrix(0.344274,0,0,0.344274,25.0397,5.24581)"><g transform="matrix(1,0,0,1,-69.235,-24.315)"><path d="M22.64,43.31L22.64,54L11.75,43.11L11.75,32.42L22.64,43.31Z" style="fill:rgb(0,112,26);fill-rule:nonzero;"/></g><g transform="matrix(1,0,0,1,-69.235,-24.315)"><path d="M22.64,43.31L33.54,32.42L33.54,43.11L22.64,54L22.64,43.31Z" style="fill:rgb(0,67,0);fill-rule:nonzero;"/></g><g transform="matrix(1,0,0,1,-69.235,-24.315)"><path d="M11.75,32.42L11.75,43.11L0.86,32.21L0.86,21.52L11.75,32.42Z" style="fill:rgb(67,160,71);fill-rule:nonzero;"/></g><g transform="matrix(1,0,0,1,-69.235,-24.315)"><path d="M44.43,21.52L44.43,32.21L33.54,43.11L33.54,32.42L44.43,21.52Z" style="fill:rgb(67,160,71);fill-rule:nonzero;"/></g><g transform="matrix(1,0,0,1,-69.235,-24.315)"><path d="M22.64,43.31L11.75,32.42L22.64,21.52L33.54,32.42L22.64,43.31Z" style="fill:rgb(67,160,71);fill-rule:nonzero;"/></g><g transform="matrix(1,0,0,1,-69.235,-24.315)"><path d="M11.75,32.42L0.86,21.52L11.75,10.63L22.64,21.52L11.75,32.42Z" style="fill:rgb(118,210,117);fill-rule:nonzero;"/></g><g transform="matrix(1,0,0,1,-69.235,-24.315)"><path d="M33.54,32.42L22.64,21.52L33.54,10.63L44.43,21.52L33.54,32.42Z" style="fill:rgb(118,210,117);fill-rule:nonzero;"/></g></g></svg>