<svg width="100%" height="100%" viewBox="0 0 18 16" version="1.1" xmlns="http://www.w3.org/2000/svg" xmlns:xlink="http://www.w3.org/1999/xlink" xml:space="preserve" style="fill-rule:evenodd;clip-rule:evenodd;stroke-linejoin:round;stroke-miterlimit:2;"><g id="behat" transform="matrix(1.05304,0,0,1.05304,-0.675435,-0.386687)"><path d="M3.808,15.081L13.732,15.087C13.732,15.087 14.587,14.236 14.575,12.213C14.558,9.247 12.059,7.952 12.059,7.952C12.059,7.952 12.94,6.942 12.986,5.296C13.032,3.651 11.565,0.852 8.363,0.842C5.151,0.832 3.8,3.617 3.801,5.39C3.801,6.747 3.808,15.081 3.808,15.081Z" style="fill:rgb(74,74,74);"/><g transform="matrix(1.63747,0,0,3.11271,-6.23054,-22.7964)"><path d="M8.822,9.79L9.999,9.947C11.296,10.16 11.994,10.678 11.994,11.283C11.994,11.62 11.765,11.929 11.385,12.17L9.616,12.17C10.432,12.101 11.056,11.728 11.056,11.279C11.056,10.781 10.289,10.377 9.344,10.377C8.4,10.377 7.633,10.781 7.633,11.279C7.633,11.41 7.687,11.535 7.782,11.647L8.249,11.512L7.758,12.106L6.541,12.007L6.97,11.883C6.804,11.701 6.711,11.498 6.711,11.283C6.711,10.776 7.228,10.332 8,10.09C7.238,9.909 6.707,9.506 6.707,9.039C6.707,8.403 7.688,7.887 8.896,7.887C10.105,7.887 11.086,8.403 11.086,9.039C11.086,9.306 10.912,9.553 10.62,9.749L10.875,9.85L9.936,9.858L9.695,9.381L9.994,9.5C10.186,9.373 10.301,9.213 10.301,9.039C10.301,8.631 9.672,8.3 8.896,8.3C8.121,8.3 7.492,8.631 7.492,9.039C7.492,9.34 7.777,9.575 8.286,9.704C8.398,9.732 8.629,9.765 8.822,9.79Z" style="fill:white;"/></g></g></svg>