<svg width="100%" height="100%" viewBox="0 0 18 16" version="1.1" xmlns="http://www.w3.org/2000/svg" xmlns:xlink="http://www.w3.org/1999/xlink" xml:space="preserve" style="fill-rule:evenodd;clip-rule:evenodd;stroke-linejoin:round;stroke-miterlimit:2;"><g id="bibtex"><g transform="matrix(1.07381,0,0,1.16787,0.071922,-0.951721)"><path d="M15.532,3.683L15.532,11.647C15.532,13.112 14.238,14.301 12.645,14.301L3.984,14.301C2.391,14.301 1.097,13.112 1.097,11.647L1.097,3.683C1.097,2.218 2.391,1.029 3.984,1.029L12.645,1.029C14.238,1.029 15.532,2.218 15.532,3.683Z" style="fill:white;"/></g><g id="bibtex1" transform="matrix(0.192045,0,0,0.192045,1.75,5.65791)"><path id="path14" d="M0,0.004L0,0.602C1.73,0.602 2.007,0.602 2.007,1.719L2.007,15.176C2.007,16.293 1.734,16.293 0,16.293L0,16.891L8.496,16.891C11.656,16.891 13.707,14.641 13.707,12.391C13.707,10.164 11.679,8.262 9.039,8.086C11.406,7.618 13.062,6.036 13.062,4.157C13.062,2.106 11.039,0 7.851,0L0,0.004ZM3.609,7.907L3.609,1.579C3.609,0.735 3.656,0.61 4.64,0.61L7.785,0.61C10.214,0.61 11.296,2.594 11.296,4.133C11.296,6.02 9.796,7.907 7.144,7.907L3.609,7.907ZM4.64,16.305C3.66,16.305 3.613,16.18 3.613,15.336L3.613,8.309L8.156,8.309C10.683,8.309 11.914,10.575 11.914,12.395C11.914,14.211 10.515,16.305 7.839,16.305" style="fill-rule:nonzero;"/><path id="path16" d="M18.41,5.997C18.41,4.934 18.535,4.809 20.328,4.809L20.328,4.211C19.488,4.235 18.199,4.286 17.554,4.286C16.91,4.286 15.621,4.239 14.781,4.211L14.781,4.809C16.492,4.809 16.613,4.934 16.613,5.997L16.613,15.114C16.613,16.176 16.496,16.301 14.781,16.301L14.781,16.899C15.621,16.875 16.91,16.829 17.554,16.829C18.199,16.829 19.484,16.875 20.328,16.899L20.328,16.301C18.535,16.301 18.41,16.18 18.41,15.114" style="fill-rule:nonzero;"/><path id="path18" d="M21.75,4.204L21.75,4.801C23.386,4.801 23.507,4.95 23.507,5.965L23.507,15.133C23.507,16.149 23.386,16.297 21.75,16.297L21.75,16.895L29.226,16.895C31.972,16.895 33.707,15.215 33.707,13.489C33.707,11.883 32.121,10.524 29.968,10.254C31.726,9.887 33.136,8.774 33.136,7.34C33.136,5.786 31.406,4.204 28.707,4.204L21.75,4.204ZM25.109,10.004L25.109,5.868C25.109,4.883 25.234,4.809 26.109,4.809L28.511,4.809C30.789,4.809 31.164,6.731 31.164,7.321C31.164,8.207 30.515,10.004 27.91,10.004L25.109,10.004ZM25.109,10.504L28.828,10.504C30.933,10.504 31.605,12.411 31.605,13.465C31.605,14.594 30.789,16.301 28.531,16.301L26.101,16.301C25.234,16.301 25.113,16.227 25.113,15.223" style="fill-rule:nonzero;"/><path id="path20" d="M48.628,0.047L34.328,0.047L33.91,5.524L34.355,5.524C34.675,1.422 35.027,0.704 38.867,0.704L40.234,0.704C40.707,0.778 40.707,1.079 40.707,1.649L40.707,15.129C40.707,16.024 40.632,16.297 38.546,16.297L37.843,16.297L37.843,16.895C39.031,16.872 40.269,16.848 41.484,16.848C42.695,16.848 43.937,16.872 45.124,16.895L45.124,16.297L44.433,16.297C42.378,16.297 42.304,16.024 42.304,15.129L42.304,1.649C42.304,1.102 42.304,0.805 42.75,0.704L44.109,0.704C47.898,0.704 48.269,1.418 48.589,5.524L49.035,5.524" style="fill-rule:nonzero;"/><path id="path22" d="M60.957,18.133L60.511,18.133C59.968,21.805 59.648,23.801 55.292,23.801L51.855,23.801C50.867,23.801 50.82,23.676 50.82,22.825L50.82,15.903L53.156,15.903C55.492,15.903 55.714,16.758 55.714,18.848L56.113,18.848L56.113,12.407L55.714,12.407C55.714,14.461 55.492,15.301 53.156,15.301L50.82,15.301L50.82,9.164C50.82,8.329 50.867,8.204 51.855,8.204L55.242,8.204C59.074,8.204 59.519,9.727 59.867,13L60.312,13L59.718,7.524L47.179,7.524L47.179,8.204C48.933,8.204 49.214,8.204 49.214,9.317L49.214,22.68C49.214,23.793 48.937,23.793 47.179,23.793L47.179,24.391L60.066,24.391" style="fill-rule:nonzero;"/><path id="path24" d="M67.73,7.524L71.394,2.227C71.761,1.707 72.507,0.637 74.539,0.61L74.539,0.012C73.972,0.059 73.031,0.059 72.437,0.059C71.621,0.059 70.605,0.059 69.988,0.012L69.988,0.61C70.781,0.684 70.976,1.18 70.976,1.579C70.976,1.875 70.855,2.075 70.679,2.321L67.41,7.063L63.746,1.7C63.574,1.43 63.55,1.352 63.55,1.278C63.55,1.055 63.82,0.633 64.64,0.61L64.64,0.012C63.847,0.059 62.636,0.059 61.82,0.059C61.179,0.059 59.941,0.059 59.343,0.012L59.343,0.61C60.703,0.61 61.148,0.661 61.695,1.43L66.472,8.446L62.164,14.739C61.101,16.278 59.492,16.305 59.019,16.305L59.019,16.903C59.585,16.856 60.527,16.856 61.121,16.856C61.789,16.856 62.953,16.856 63.57,16.903L63.57,16.305C62.804,16.231 62.582,15.735 62.582,15.336C62.582,15.016 62.703,14.84 62.828,14.664L66.789,8.883L71.097,15.215C71.292,15.489 71.292,15.563 71.292,15.637C71.292,15.832 71.07,16.258 70.203,16.309L70.203,16.907C70.996,16.86 72.207,16.86 73.023,16.86C73.664,16.86 74.902,16.86 75.503,16.907L75.503,16.309C73.917,16.309 73.667,16.188 73.175,15.489" style="fill-rule:nonzero;"/></g></g></svg>