<svg width="100%" height="100%" viewBox="0 0 18 16" version="1.1" xmlns="http://www.w3.org/2000/svg" xmlns:xlink="http://www.w3.org/1999/xlink" xml:space="preserve" style="fill-rule:evenodd;clip-rule:evenodd;stroke-linecap:round;stroke-linejoin:round;stroke-miterlimit:1;"><g id="bicep"><g><path d="M2.587,4.28L9,0.556L15.415,4.28L9.002,8L2.587,4.28Z" style="fill:rgb(39,105,150);"/><path d="M2.587,11.719L2.587,4.28L9,8L2.587,11.719Z" style="fill:rgb(31,103,159);"/><path d="M9.001,8L15.415,4.28L15.415,11.719L9.001,8Z" style="fill:rgb(30,117,181);"/><path d="M9,15.441L2.587,11.719L9,8L9,15.441Z" style="fill:rgb(31,82,129);"/><path d="M9,15.441L9,8L15.415,11.719L9,15.441Z" style="fill:rgb(29,95,151);"/><path d="M9,7.978L9,15.459L8.946,15.441L8.946,8L9,7.978Z" style="fill:rgb(19,91,153);"/><g transform="matrix(1,0,0,23.5977,0,-180.893)"><path d="M9,8.32L9,8.004L9.054,8.005L9.054,8.32L9,8.32Z" style="fill:rgb(18,96,164);"/></g><path d="M2.587,4.28L9,8L15.415,4.28" style="fill:none;stroke:rgb(16,126,201);stroke-width:0.06px;"/><path d="M2.587,11.719L9,8L15.415,11.719" style="fill:none;stroke:rgb(16,124,200);stroke-width:0.06px;"/><path d="M2.587,4.28L9,0.556L15.415,4.28L15.415,11.719L9,15.441L2.587,11.719L2.587,4.28Z" style="fill:none;stroke:rgb(21,139,213);stroke-width:0.08px;"/></g><path d="M4.855,8.652L8.045,4.67L7.991,4.618L8.247,3.227L9.067,2.317L9.426,2.315L9.663,2.526L8.775,3.49L8.593,4.418L9.218,4.962L10.086,4.701L10.973,3.72L11.227,3.931L11.229,4.311L10.452,5.174L9.247,5.588L9.064,5.586L9,5.543L7.932,8.276L4.855,8.652Z" style="fill:white;"/><path d="M5.86,8.224L8.368,5.035L8.616,5.256L7.424,8.224L5.86,8.224Z" style="fill:rgb(74,110,148);"/><g transform="matrix(1.05184,0,0,1.03857,-0.381533,-0.448704)"><path d="M11.02,12.394C11.02,12.394 5.763,11.507 5.719,11.5C4.994,11.378 4.453,10.712 4.453,9.94C4.453,9.063 5.156,8.351 6.022,8.351C6.024,8.351 11.367,8.361 11.367,8.361L11.373,8.361C12.478,8.364 13.375,9.273 13.375,10.392C13.375,11.514 12.475,12.424 11.367,12.424C11.259,12.424 11.153,12.415 11.05,12.399C11.04,12.397 11.03,12.395 11.02,12.394Z" style="fill:white;"/></g><path d="M10.225,8.723L10.227,8.703L7.124,8.703L7.123,8.712C7.419,9.01 7.602,9.421 7.602,9.875C7.602,10.418 7.34,10.9 6.934,11.201L9.942,11.682C9.643,11.318 9.464,10.852 9.464,10.344C9.464,9.693 9.76,9.11 10.225,8.723Z" style="fill:rgb(97,129,161);"/><g transform="matrix(0.746558,0,0,0.737141,1.45681,2.54755)"><ellipse cx="6.022" cy="9.94" rx="1.569" ry="1.59" style="fill:rgb(145,167,189);"/></g><g transform="matrix(6.47141e-17,-1.05686,1.12481,6.88749e-17,-5.15435,16.1506)"><path d="M5.938,9.406L6.383,9.64L6.383,10.109L5.938,10.344L5.494,10.109L5.494,9.64L5.938,9.406Z" style="fill:white;"/></g><g transform="matrix(1.14533,0,0,1.6413,-0.896697,-4.81109)"><ellipse cx="10.894" cy="9.234" rx="1.431" ry="0.999" style="fill:rgb(97,129,161);"/></g><g transform="matrix(3.62717e-16,-5.92362,1.79406,1.09854e-16,-6.59512,77.0097)"><path d="M11.254,9.524L11.413,9.827L11.413,10.433L11.254,10.736L11.096,10.433L11.096,9.827L11.254,9.524Z" style="fill:rgb(145,167,189);"/><path d="M11.254,9.524L11.413,9.827L11.413,10.433L11.254,10.736L11.096,10.433L11.096,9.827L11.254,9.524ZM11.254,9.677L11.136,9.903C11.136,9.903 11.136,10.357 11.136,10.357C11.136,10.357 11.254,10.583 11.254,10.583L11.372,10.357C11.372,10.357 11.372,9.903 11.372,9.903L11.254,9.677Z" style="fill:white;"/></g></g></svg>