<svg width="100%" height="100%" viewBox="0 0 18 16" version="1.1" xmlns="http://www.w3.org/2000/svg" xmlns:xlink="http://www.w3.org/1999/xlink" xml:space="preserve" style="fill-rule:evenodd;clip-rule:evenodd;stroke-linejoin:round;stroke-miterlimit:2;"><g id="bitbucket" transform="matrix(0.176188,0,0,0.176188,7.4143,6.59049)"><g transform="matrix(1,0,0,1,-104.445,-86.5145)"><path d="M73.639,56.242C73.627,56.242 73.616,56.242 73.604,56.242C72.108,56.242 70.877,57.473 70.877,58.969C70.877,59.115 70.889,59.261 70.912,59.406L82.488,129.678C82.784,131.446 84.322,132.758 86.115,132.773L141.648,132.773C142.993,132.79 144.16,131.81 144.375,130.482L155.978,59.433C156.001,59.289 156.013,59.143 156.013,58.996C156.013,57.5 154.782,56.269 153.286,56.269C153.275,56.269 153.263,56.27 153.251,56.27L73.639,56.242ZM122.383,107.031L104.658,107.031L99.858,81.971L126.677,81.971L122.383,107.031Z" style="fill:rgb(38,132,255);fill-rule:nonzero;"/></g><g transform="matrix(1,0,0,1,-104.445,-86.5145)"><path d="M152.269,81.971L126.677,81.971L122.383,107.031L104.658,107.031L83.729,131.887C84.392,132.46 85.238,132.779 86.115,132.787L141.662,132.787C143.007,132.804 144.174,131.824 144.389,130.496L152.269,81.971Z" style="fill:url(#_Linear-tfc0gke);fill-rule:nonzero;"/></g></g><defs><linearGradient id="_Linear-tfc0gke" x1="0" y1="0" x2="1" y2="0" gradientUnits="userSpaceOnUse" gradientTransform="matrix(-42.2943,33.0228,-33.0228,-42.2943,158.187,88.9789)"><stop offset="0" style="stop-color:rgb(0,82,204);stop-opacity:1"/><stop offset="0.18" style="stop-color:rgb(0,82,204);stop-opacity:1"/><stop offset="1" style="stop-color:rgb(38,132,255);stop-opacity:1"/></linearGradient></defs></svg>