<svg width="100%" height="100%" viewBox="0 0 18 16" version="1.1" xmlns="http://www.w3.org/2000/svg" xmlns:xlink="http://www.w3.org/1999/xlink" xml:space="preserve" style="fill-rule:evenodd;clip-rule:evenodd;stroke-linejoin:round;stroke-miterlimit:2;"><g id="black" transform="matrix(1.05608,0,0,1.05608,-0.542713,-0.459202)"><g transform="matrix(1.81381,0,0,1.35089,-0.224677,-0.887023)"><ellipse cx="5.106" cy="6.586" rx="4.568" ry="2.971" style="fill:url(#_Linear-h72n19l);"/></g><g transform="matrix(1.75812,0,0,1.26486,0.0626758,-0.325305)"><path d="M5.106,3.615C7.627,3.615 9.674,4.946 9.674,6.586C9.674,8.226 7.627,9.557 5.106,9.557C2.585,9.557 0.538,8.226 0.538,6.586C0.538,4.946 2.585,3.615 5.106,3.615ZM5.1,3.812C2.663,3.812 0.685,5.198 0.685,6.586C0.685,7.975 2.663,9.36 5.1,9.36C7.537,9.36 9.516,7.997 9.516,6.586C9.516,5.182 7.537,3.812 5.1,3.812Z" style="fill:white;"/></g><g transform="matrix(1.69943,0,0,1.18123,0.352651,0.22547)"><path d="M0.795,7.51C0.628,7.211 0.538,6.899 0.538,6.586C0.538,5.1 2.585,3.615 5.106,3.615C7.627,3.615 9.674,5.083 9.674,6.586C9.674,6.991 9.527,7.392 9.263,7.763C9.488,7.415 9.612,7.034 9.612,6.634C9.612,5.178 7.59,3.712 5.1,3.712C2.428,3.712 0.588,5.357 0.588,6.634C0.588,6.939 0.661,7.234 0.795,7.51Z" style="fill:rgb(2,2,2);"/></g><g transform="matrix(1,0,0,1,0.0723244,0.0723244)"><path d="M6.898,5.597C6.898,5.597 7.212,5.361 7.443,5.458C7.54,5.498 7.182,5.679 7.182,5.679C7.182,5.679 7.766,5.91 7.729,6.487C7.68,7.26 6.811,7.501 6.811,7.501L6.812,7.532C6.901,7.581 7.196,7.746 7.26,8C7.336,8.305 7.323,8.534 7.323,8.534C7.323,8.534 7.704,8.131 8.076,7.693C8.447,7.256 8.728,6.745 8.728,6.745L9.26,6.745C9.26,6.745 8.665,7.719 8.295,8.303C8.197,8.457 8.068,8.643 7.998,8.79C7.803,9.199 7.799,9.504 7.868,9.498C7.945,9.491 8.262,9.242 8.604,8.909C8.947,8.577 9.061,8.36 9.479,8.125C9.897,7.889 10.188,7.943 10.277,7.971C10.425,8.018 10.515,8.278 10.515,8.278L10.685,8L11.197,8C11.197,8 10.605,9.051 10.517,9.214C10.43,9.376 10.489,9.498 10.674,9.324C10.859,9.15 11.292,8.721 11.527,8.463C11.762,8.204 12.193,7.977 12.543,7.972C12.892,7.966 12.992,8.13 12.994,8.35C12.996,8.57 12.842,8.657 12.742,8.657C12.641,8.658 12.504,8.538 12.508,8.42C12.512,8.301 12.59,8.195 12.59,8.195C12.59,8.195 12.601,8.157 12.544,8.156C12.459,8.153 12.22,8.421 12.037,8.776C11.853,9.131 11.747,9.342 11.87,9.461C11.992,9.581 12.39,9.421 12.542,9.293C12.694,9.164 13.275,8.651 13.743,8.031C14.211,7.411 14.806,6.763 14.806,6.763L15.334,6.772L14.258,8.537C14.258,8.537 14.201,8.635 14.303,8.632C14.406,8.63 14.549,8.575 14.658,8.472C14.766,8.369 14.854,8.214 15.002,8.092C15.15,7.969 15.4,7.925 15.488,8.079C15.576,8.234 15.564,8.363 15.5,8.448C15.437,8.532 15.265,8.579 15.17,8.508C15.048,8.416 15.128,8.259 15.128,8.259L15.11,8.24C15.11,8.24 15.016,8.284 14.901,8.445C14.786,8.605 14.676,8.688 14.676,8.688C14.676,8.688 14.863,8.842 14.86,9.046C14.857,9.25 14.724,9.372 14.705,9.422C14.687,9.471 14.708,9.566 14.889,9.457C15.069,9.348 15.437,9.018 15.49,8.96C15.544,8.901 15.661,8.902 15.568,9.052C15.476,9.203 14.848,9.758 14.488,9.766C14.128,9.774 14.183,9.403 14.232,9.302C14.281,9.201 14.369,9.028 14.393,8.97C14.418,8.913 14.412,8.816 14.365,8.813C14.319,8.809 14.263,8.846 14.187,8.845C14.111,8.843 14.106,8.805 14.078,8.803C14.05,8.802 14.051,8.806 13.98,8.917C13.909,9.028 13.506,9.71 13.506,9.71L12.952,9.711L13.916,8.149L13.907,8.128C13.907,8.128 12.872,9.206 12.736,9.34C12.6,9.473 12.197,9.736 11.886,9.734C11.575,9.733 11.253,9.535 11.286,9.225C11.318,8.914 11.373,8.858 11.373,8.858L11.356,8.845C11.356,8.845 11.026,9.199 10.888,9.344C10.75,9.489 10.486,9.703 10.253,9.708C10.019,9.713 10.002,9.51 10.009,9.444L10.033,9.232L10.001,9.233C10.001,9.233 9.563,9.713 9.236,9.709C8.909,9.705 8.763,9.446 8.777,9.265C8.791,9.084 8.884,8.855 8.884,8.855L8.868,8.831C8.868,8.831 8.142,9.711 7.737,9.708C7.332,9.704 7.327,9.41 7.327,9.336C7.326,9.261 7.387,8.94 7.532,8.696L7.727,8.367C7.727,8.367 7.556,8.483 7.259,8.812C6.962,9.14 6.581,9.707 5.847,9.708C5.377,9.709 5.277,9.334 5.331,9.059C5.435,8.528 5.955,8.42 5.955,8.42C5.955,8.42 5.97,8.441 5.773,8.637C5.577,8.834 5.441,9.037 5.463,9.222C5.494,9.487 5.666,9.605 6.062,9.283C6.398,9.009 6.653,8.443 6.658,8.164C6.661,7.966 6.648,7.864 6.609,7.788C6.573,7.715 6.448,7.628 6.448,7.628C6.448,7.628 6.299,7.702 6.171,7.697C6.042,7.692 5.916,7.469 6.111,7.338C6.306,7.207 6.449,7.25 6.509,7.291C6.569,7.332 6.596,7.366 6.596,7.366L6.618,7.364L6.642,7.32C6.642,7.32 7.179,6.984 7.185,6.516C7.19,6.048 6.919,5.844 6.919,5.844L6.881,5.84C6.881,5.84 6.418,6.271 6.233,6.593C5.906,7.165 5.784,7.852 5.517,8.317C5.098,9.044 4.454,9.758 3.373,9.7C2.398,9.649 2.345,9.004 2.345,8.814C2.345,8.623 2.634,8.281 2.88,8.281C3.121,8.281 3.233,8.482 3.22,8.688C3.208,8.894 3.01,8.997 2.904,9.018C2.798,9.04 2.61,9.046 2.61,9.046C2.61,9.046 2.828,9.562 3.327,9.534C3.935,9.5 4.23,9.154 4.428,8.65C4.667,8.041 4.974,7.581 5.325,7.044C5.825,6.279 6.546,5.817 6.546,5.817C6.546,5.817 5.742,5.669 5.054,5.856C4.365,6.043 3.595,6.432 3.383,6.882C3.171,7.333 3.309,7.739 3.71,7.683C4.111,7.626 4.393,7.386 4.608,7.025C4.822,6.665 4.827,6.613 4.923,6.419L5.104,6.056C5.104,6.056 5.278,6.649 5.015,7.132C4.751,7.615 4.386,8.02 3.566,7.868C2.894,7.743 2.986,7.087 3.217,6.766C3.537,6.323 4.086,5.881 4.96,5.657C5.772,5.448 6.898,5.597 6.898,5.597ZM9.406,9.469C9.536,9.466 9.755,9.294 10.063,8.91C10.306,8.609 10.427,8.229 10.246,8.183C10.093,8.145 9.722,8.459 9.538,8.765C9.319,9.129 9.199,9.473 9.406,9.469Z" style="fill:rgb(4,4,4);"/></g><path d="M6.898,5.597C6.898,5.597 7.212,5.361 7.443,5.458C7.54,5.498 7.182,5.679 7.182,5.679C7.182,5.679 7.766,5.91 7.729,6.487C7.68,7.26 6.811,7.501 6.811,7.501L6.812,7.532C6.901,7.581 7.196,7.746 7.26,8C7.336,8.305 7.323,8.534 7.323,8.534C7.323,8.534 7.704,8.131 8.076,7.693C8.447,7.256 8.728,6.745 8.728,6.745L9.26,6.745C9.26,6.745 8.665,7.719 8.295,8.303C8.197,8.457 8.068,8.643 7.998,8.79C7.803,9.199 7.799,9.504 7.868,9.498C7.945,9.491 8.262,9.242 8.604,8.909C8.947,8.577 9.061,8.36 9.479,8.125C9.897,7.889 10.188,7.943 10.277,7.971C10.425,8.018 10.515,8.278 10.515,8.278L10.685,8L11.197,8C11.197,8 10.605,9.051 10.517,9.214C10.43,9.376 10.489,9.498 10.674,9.324C10.859,9.15 11.292,8.721 11.527,8.463C11.762,8.204 12.193,7.977 12.543,7.972C12.892,7.966 12.992,8.13 12.994,8.35C12.996,8.57 12.842,8.657 12.742,8.657C12.641,8.658 12.504,8.538 12.508,8.42C12.512,8.301 12.59,8.195 12.59,8.195C12.59,8.195 12.601,8.157 12.544,8.156C12.459,8.153 12.22,8.421 12.037,8.776C11.853,9.131 11.747,9.342 11.87,9.461C11.992,9.581 12.39,9.421 12.542,9.293C12.694,9.164 13.275,8.651 13.743,8.031C14.211,7.411 14.806,6.763 14.806,6.763L15.334,6.772L14.258,8.537C14.258,8.537 14.201,8.635 14.303,8.632C14.406,8.63 14.549,8.575 14.658,8.472C14.766,8.369 14.854,8.214 15.002,8.092C15.15,7.969 15.4,7.925 15.488,8.079C15.576,8.234 15.564,8.363 15.5,8.448C15.437,8.532 15.265,8.579 15.17,8.508C15.048,8.416 15.128,8.259 15.128,8.259L15.11,8.24C15.11,8.24 15.016,8.284 14.901,8.445C14.786,8.605 14.676,8.688 14.676,8.688C14.676,8.688 14.863,8.842 14.86,9.046C14.857,9.25 14.724,9.372 14.705,9.422C14.687,9.471 14.708,9.566 14.889,9.457C15.069,9.348 15.437,9.018 15.49,8.96C15.544,8.901 15.661,8.902 15.568,9.052C15.476,9.203 14.848,9.758 14.488,9.766C14.128,9.774 14.183,9.403 14.232,9.302C14.281,9.201 14.369,9.028 14.393,8.97C14.418,8.913 14.412,8.816 14.365,8.813C14.319,8.809 14.263,8.846 14.187,8.845C14.111,8.843 14.106,8.805 14.078,8.803C14.05,8.802 14.051,8.806 13.98,8.917C13.909,9.028 13.506,9.71 13.506,9.71L12.952,9.711L13.916,8.149L13.907,8.128C13.907,8.128 12.872,9.206 12.736,9.34C12.6,9.473 12.197,9.736 11.886,9.734C11.575,9.733 11.253,9.535 11.286,9.225C11.318,8.914 11.373,8.858 11.373,8.858L11.356,8.845C11.356,8.845 11.026,9.199 10.888,9.344C10.75,9.489 10.486,9.703 10.253,9.708C10.019,9.713 10.002,9.51 10.009,9.444L10.033,9.232L10.001,9.233C10.001,9.233 9.563,9.713 9.236,9.709C8.909,9.705 8.763,9.446 8.777,9.265C8.791,9.084 8.884,8.855 8.884,8.855L8.868,8.831C8.868,8.831 8.142,9.711 7.737,9.708C7.332,9.704 7.327,9.41 7.327,9.336C7.326,9.261 7.387,8.94 7.532,8.696L7.727,8.367C7.727,8.367 7.556,8.483 7.259,8.812C6.962,9.14 6.581,9.707 5.847,9.708C5.377,9.709 5.277,9.334 5.331,9.059C5.435,8.528 5.955,8.42 5.955,8.42C5.955,8.42 5.97,8.441 5.773,8.637C5.577,8.834 5.441,9.037 5.463,9.222C5.494,9.487 5.666,9.605 6.062,9.283C6.398,9.009 6.653,8.443 6.658,8.164C6.661,7.966 6.648,7.864 6.609,7.788C6.573,7.715 6.448,7.628 6.448,7.628C6.448,7.628 6.299,7.702 6.171,7.697C6.042,7.692 5.916,7.469 6.111,7.338C6.306,7.207 6.449,7.25 6.509,7.291C6.569,7.332 6.596,7.366 6.596,7.366L6.618,7.364L6.642,7.32C6.642,7.32 7.179,6.984 7.185,6.516C7.19,6.048 6.919,5.844 6.919,5.844L6.881,5.84C6.881,5.84 6.418,6.271 6.233,6.593C5.906,7.165 5.784,7.852 5.517,8.317C5.098,9.044 4.454,9.758 3.373,9.7C2.398,9.649 2.345,9.004 2.345,8.814C2.345,8.623 2.634,8.281 2.88,8.281C3.121,8.281 3.233,8.482 3.22,8.688C3.208,8.894 3.01,8.997 2.904,9.018C2.798,9.04 2.61,9.046 2.61,9.046C2.61,9.046 2.828,9.562 3.327,9.534C3.935,9.5 4.23,9.154 4.428,8.65C4.667,8.041 4.974,7.581 5.325,7.044C5.825,6.279 6.546,5.817 6.546,5.817C6.546,5.817 5.742,5.669 5.054,5.856C4.365,6.043 3.595,6.432 3.383,6.882C3.171,7.333 3.309,7.739 3.71,7.683C4.111,7.626 4.393,7.386 4.608,7.025C4.822,6.665 4.827,6.613 4.923,6.419L5.104,6.056C5.104,6.056 5.278,6.649 5.015,7.132C4.751,7.615 4.386,8.02 3.566,7.868C2.894,7.743 2.986,7.087 3.217,6.766C3.537,6.323 4.086,5.881 4.96,5.657C5.772,5.448 6.898,5.597 6.898,5.597ZM9.406,9.469C9.536,9.466 9.755,9.294 10.063,8.91C10.306,8.609 10.427,8.229 10.246,8.183C10.093,8.145 9.722,8.459 9.538,8.765C9.319,9.129 9.199,9.473 9.406,9.469Z" style="fill:white;"/></g><defs><linearGradient id="_Linear-h72n19l" x1="0" y1="0" x2="1" y2="0" gradientUnits="userSpaceOnUse" gradientTransform="matrix(1.79246e-15,3.30878,-2.46432,2.40669e-15,5.0858,3.66382)"><stop offset="0" style="stop-color:rgb(184,185,185);stop-opacity:1"/><stop offset="1" style="stop-color:black;stop-opacity:1"/></linearGradient></defs></svg>