<svg width="100%" height="100%" viewBox="0 0 18 16" version="1.1" xmlns="http://www.w3.org/2000/svg" xmlns:xlink="http://www.w3.org/1999/xlink" xml:space="preserve" style="fill-rule:evenodd;clip-rule:evenodd;stroke-linejoin:round;stroke-miterlimit:2;"><g id="browserslist" transform="matrix(0.4375,0,0,0.4375,5.17432,4.61182)"><g transform="matrix(1,0,0,1,-7.25559,-8.25559)"><circle cx="16" cy="16" r="16" style="fill:rgb(255,213,57);"/></g><g transform="matrix(1,0,0,1,-7.25559,-8.25559)"><path d="M25.91,15.8C23.52,17.78 18.78,18.45 16.55,18.61L13.45,11.81C15.62,9.3 20.12,5.15 20.75,8.71C21.39,12.28 24.52,13.91 26.01,14.21L25.91,15.79L25.91,15.8Z" style="fill:white;fill-rule:nonzero;"/></g><g transform="matrix(1,0,0,1,-7.25559,-8.25559)"><path d="M21.14,8.65C21.081,8.219 20.908,7.812 20.64,7.47C20.39,7.17 20.07,7.01 19.7,6.96C19.02,6.86 18.23,7.19 17.48,7.66C15.867,8.755 14.414,10.067 13.16,11.56L13,11.75L16.31,19.02L16.58,19C19.953,18.779 23.231,17.787 26.16,16.1L26.28,16C27.17,15.35 28.11,14 26.85,13.28C26.29,12.96 25.67,13.22 25.27,13.58C23.142,12.754 21.581,10.89 21.14,8.65ZM24.85,14.25C22.529,13.304 20.841,11.242 20.37,8.78C20.334,8.49 20.224,8.215 20.05,7.98C19.939,7.841 19.777,7.751 19.6,7.73C19.2,7.68 18.61,7.87 17.88,8.32C16.53,9.15 14.98,10.66 13.91,11.88L16.79,18.2C19.54,17.97 22.47,17.44 25.08,15.88C25.25,15.78 25.38,15.63 25.46,15.48C25.526,15.359 25.56,15.224 25.56,15.087C25.56,14.774 25.381,14.487 25.1,14.35C25.016,14.318 24.933,14.285 24.85,14.25Z" style="fill:rgb(30,30,30);"/></g><g transform="matrix(0.919616,-0.392819,0.392819,0.919616,-10.6618,0.639072)"><ellipse cx="20.03" cy="12.77" rx="1.36" ry="1.35" style="fill:rgb(30,30,30);"/></g><g transform="matrix(0.919616,-0.392819,0.392819,0.919616,-10.2883,0.644486)"><ellipse cx="20.23" cy="11.86" rx="0.55" ry="0.65" style="fill:white;"/></g><g transform="matrix(1,0,0,1,-7.25559,-8.25559)"><path d="M17.32,14.37C17.32,20.65 23.48,22.1 26.75,20.52C26.38,22.01 25.04,23.27 22.87,23.69C22.83,24.34 23.57,25.8 24.23,26.38C22.73,26.94 21.01,26.18 20.06,25.58C19.7,26.1 19.54,27.67 19.54,28.65C18.41,28.65 16.94,27.02 16.57,26.4C16.05,26.7 15.14,28.3 14.97,29.23C13.828,28.524 13.13,27.273 13.13,25.93C12.49,26.38 10.67,27.49 9.83,27.87C9.41,26.91 9.58,25.72 9.83,24.49C9.47,24.68 6.85,24.92 5.8,24.68C6.33,24.08 7.04,22.73 7.36,22.1C5.872,21.941 4.466,21.334 3.33,20.36C4.13,20 4.93,19.48 5.8,18.61C4.69,18.01 3,17.13 2.6,15.59C3.63,15.52 4.9,15.37 5.56,15.07C4.72,14.58 3.33,13.04 3.61,11.18C4.31,11.52 5.77,11.78 6.48,11.65C5.86,10.29 5.45,8.97 6.06,7.15C6.76,7.86 7.597,8.421 8.52,8.8C8.38,7.46 9,4.99 9.83,4.33C10.18,5.09 11.05,6.33 11.63,6.63C11.78,5.63 13.08,3.26 14.23,2.94C14.23,3.76 14.68,5.24 15.05,5.69C15.91,4.79 18.8,3.32 21.09,3.83C20.38,4.57 19.86,4.83 19.67,5.43C21.41,5.43 24.27,5.99 26.75,8.6C22.87,7.15 17.32,9.52 17.32,14.37Z" style="fill:rgb(30,30,30);fill-rule:nonzero;"/></g></g></svg>