<svg width="100%" height="100%" viewBox="0 0 18 16" version="1.1" xmlns="http://www.w3.org/2000/svg" xmlns:xlink="http://www.w3.org/1999/xlink" xml:space="preserve" style="fill-rule:evenodd;clip-rule:evenodd;stroke-linejoin:round;stroke-miterlimit:2;"><g id="Buf" transform="matrix(0.0408262,0,0,0.0408262,17.7924,7.67958)"><g transform="matrix(1,0,0,1,-399.068,-165.652)"><rect x="110.222" y="89.812" width="36.741" height="257.188" style="fill:rgb(14,93,245);"/></g><g transform="matrix(1,0,0,1,-399.068,-165.652)"><rect x="183.707" y="89.812" width="36.741" height="257.188" style="fill:rgb(14,93,245);"/></g><g transform="matrix(1,0,0,1,-399.068,-165.652)"><rect x="257.188" y="89.812" width="36.741" height="257.188" style="fill:rgb(14,93,245);"/></g><g transform="matrix(1,0,0,1,-399.068,-165.652)"><rect x="330.67" y="89.812" width="36.741" height="257.188" style="fill:rgb(14,93,245);"/></g><g transform="matrix(1,0,0,1,-399.068,-165.652)"><rect x="0" y="0" width="36.741" height="257.188" style="fill:rgb(95,220,255);"/></g><g transform="matrix(1,0,0,1,-399.068,-165.652)"><rect x="73.481" y="0" width="36.741" height="257.188" style="fill:rgb(95,220,255);"/></g><g transform="matrix(1,0,0,1,-399.068,-165.652)"><rect x="146.963" y="0" width="36.741" height="257.188" style="fill:rgb(95,220,255);"/></g><g transform="matrix(1,0,0,1,-399.068,-165.652)"><rect x="220.448" y="0" width="36.741" height="257.188" style="fill:rgb(95,220,255);"/></g></g></svg>