<svg width="100%" height="100%" viewBox="0 0 18 16" version="1.1" xmlns="http://www.w3.org/2000/svg" xmlns:xlink="http://www.w3.org/1999/xlink" xml:space="preserve" style="fill-rule:evenodd;clip-rule:evenodd;stroke-linejoin:round;stroke-miterlimit:2;"><g id="cabal" transform="matrix(1,0,0,1,0.105618,0.00168425)"><path d="M3.725,5.181C3.575,5.265 3.708,6.692 3.68,7.613C3.189,8.123 2.188,8.859 2.231,9.091C2.271,9.307 3.344,9.748 3.983,10.124C4.256,10.978 4.47,12.332 4.666,12.392C4.883,12.459 5.46,11.302 5.798,10.628C6.574,10.631 7.69,10.715 7.731,10.59C7.808,10.355 7.109,9.39 6.66,8.591C6.834,7.75 7.182,6.303 7.082,6.149C6.976,5.986 5.756,6.516 5.302,6.663C4.903,6.298 3.898,5.084 3.725,5.181Z" style="fill:rgb(46,91,193);"/><path d="M9.469,1.359C10.535,1.186 11.042,1.46 11.337,1.877C11.633,2.295 15.133,7.101 15.354,7.336C15.575,7.571 15.708,7.909 15.261,7.997C14.814,8.084 11.476,8.643 11.099,8.754C10.721,8.865 10.175,8.963 9.809,8.445C9.444,7.927 5.759,3.156 5.521,2.836C5.284,2.516 5.313,2.153 5.713,2.076C6.113,1.999 8.403,1.531 9.469,1.359Z" style="fill:rgb(45,155,189);"/><path d="M14.715,8.738C15.23,8.649 15.556,8.648 15.146,9.23C14.737,9.812 12.312,13.098 12.064,13.37C11.816,13.643 11.468,13.893 10.845,13.971C10.221,14.048 7.124,14.544 6.748,14.651C6.371,14.758 6.185,14.654 6.482,14.246C6.78,13.838 9.405,10.203 9.618,9.913C9.83,9.624 10.184,9.494 10.839,9.368C11.493,9.242 14.199,8.828 14.715,8.738Z" style="fill:rgb(74,75,205);"/></g></svg>