<svg width="100%" height="100%" viewBox="0 0 18 16" version="1.1" xmlns="http://www.w3.org/2000/svg" xmlns:xlink="http://www.w3.org/1999/xlink" xml:space="preserve" style="fill-rule:evenodd;clip-rule:evenodd;stroke-linejoin:round;stroke-miterlimit:2;"><g id="cad-light" transform="matrix(0.0676876,0,0,0.0676876,0.335991,-0.664504)"><path d="M225.941,72.838C225.909,72.778 225.883,72.715 225.849,72.656C225.819,72.604 225.784,72.557 225.753,72.507C224.331,70.104 222.303,68.115 219.873,66.739L135.873,19.26C130.989,16.519 125.011,16.519 120.127,19.26L36.126,66.739C33.651,68.14 31.594,70.176 30.167,72.637C30.152,72.663 30.134,72.687 30.119,72.714C30.093,72.761 30.073,72.81 30.048,72.857C28.708,75.243 28.003,77.932 28,80.668L28,175.333C28.005,181.092 31.115,186.423 36.127,189.261L120.127,236.739C122.361,237.995 124.866,238.695 127.428,238.78C127.59,238.792 127.752,238.808 127.918,238.81C127.946,238.811 127.974,238.811 128.002,238.811C128.223,238.811 128.441,238.795 128.658,238.778C131.191,238.68 133.664,237.981 135.873,236.739L219.873,189.261C224.885,186.422 227.995,181.092 228,175.333L228,80.668C227.997,77.925 227.288,75.228 225.941,72.838ZM128,33.189L203.813,76.041L129.016,118.811L52.329,75.96L128,33.189ZM44,89.634L121.013,132.667L120.128,218.361L44,175.333L44,89.634ZM136.13,218.215L137.014,132.668L212,89.79L212,175.332L136.13,218.215Z" style="fill:rgb(180,180,180);fill-rule:nonzero;"/></g></svg>