<svg width="100%" height="100%" viewBox="0 0 18 16" version="1.1" xmlns="http://www.w3.org/2000/svg" xmlns:xlink="http://www.w3.org/1999/xlink" xml:space="preserve" style="fill-rule:evenodd;clip-rule:evenodd;stroke-linejoin:round;stroke-miterlimit:2;"><g transform="matrix(1.34033,0,0,1.43182,-1.46132,-0.751659)"><g id="cairo"><path d="M3.76,9.123C3.077,8.293 2.67,7.248 2.67,6.112C2.67,3.414 4.971,1.223 7.805,1.223C10.639,1.223 12.94,3.414 12.94,6.112C12.94,8.811 10.639,11.001 7.805,11.001C7.741,11.001 7.677,11 7.613,10.998C7.81,10.856 8.022,10.658 8.23,10.384C8.424,10.13 8.613,9.86 8.742,9.593C9.107,8.84 9.163,8.097 8.782,7.718C8.572,7.509 8.021,7.47 7.479,7.53C6.69,7.617 5.828,7.911 5.828,7.911C5.828,7.911 7.115,7.117 8.097,7.07C8.604,7.045 8.934,7.339 8.934,7.339C8.934,7.339 8.96,6.899 8.913,6.461C8.866,6.024 8.7,5.401 9.118,5.174C9.597,4.914 10.164,4.991 10.164,4.991L10.172,4.856C10.172,4.856 10.107,4.739 9.809,4.633C9.534,4.535 9.054,4.446 8.38,4.473C7.094,4.525 6.913,4.88 6.677,5.218C6.414,5.593 6.438,6.169 6.296,6.477C6.155,6.786 5.7,7.079 5.207,7.519C4.714,7.958 4.506,8.227 4.229,8.56L3.76,9.123ZM8.367,1.931C8.94,1.931 9.405,2.362 9.405,2.893C9.405,3.424 8.94,3.855 8.367,3.855C7.793,3.855 7.328,3.424 7.328,2.893C7.328,2.362 7.793,1.931 8.367,1.931Z" style="fill:rgb(254,74,73);"/></g></g></svg>