<svg width="100%" height="100%" viewBox="0 0 18 16" version="1.1" xmlns="http://www.w3.org/2000/svg" xmlns:xlink="http://www.w3.org/1999/xlink" xml:space="preserve" style="fill-rule:evenodd;clip-rule:evenodd;stroke-linecap:square;stroke-miterlimit:1;"><g id="capnproto"><g transform="matrix(1.38033,0,0,1.2093,-0.452003,-0.19203)"><path d="M12.281,3.053L12.281,10.495C12.281,11.865 11.307,12.976 10.108,12.976L3.588,12.976C2.388,12.976 1.414,11.865 1.414,10.495L1.414,3.053C1.414,1.684 2.388,0.572 3.588,0.572L10.108,0.572C11.307,0.572 12.281,1.684 12.281,3.053Z" style="fill:rgb(255,0,0);"/></g><g transform="matrix(0.955907,0,0,0.955907,0.392124,0.71332)"><path d="M7.039,6.322L7.329,6.327C7.329,6.327 7.345,6.68 7.202,6.866C7.059,7.051 6.854,7.309 6.246,7.288C5.637,7.267 5.308,6.841 5.368,6.242C5.428,5.643 5.839,5.134 6.517,5.107C6.876,5.093 7.015,5.32 7.015,5.32L7.031,5.115L7.324,5.121L7.317,5.938L7.027,5.938C7.027,5.938 7.003,5.409 6.604,5.398C6.205,5.387 6.068,5.793 6.05,6.168C6.031,6.543 6.198,7.006 6.497,6.992C6.986,6.969 7.039,6.322 7.039,6.322Z" style="fill:white;stroke:black;stroke-width:0.13px;"/></g><g transform="matrix(0.955907,0,0,0.955907,0.392124,0.71332)"><path d="M7.32,6.988L7.63,6.945L8.19,5.115L8.892,5.063L9.482,6.761L9.727,6.778L9.722,7.07L8.549,7.164L8.543,6.859L8.84,6.848L8.737,6.481L8.111,6.512L7.971,6.905L8.282,6.899L8.278,7.21L7.322,7.286L7.32,6.988ZM8.159,6.226L8.651,6.214L8.424,5.492L8.159,6.226Z" style="fill:white;stroke:black;stroke-width:0.13px;"/></g><g transform="matrix(0.955907,0,0,0.955907,0.392124,0.71332)"><path d="M9.799,6.275C9.799,6.275 10.1,6.266 10.12,6.213C10.14,6.159 10.137,6.013 10.137,6.013L10.153,4.884C10.153,4.884 10.147,4.766 10.075,4.753C10.003,4.741 9.795,4.764 9.795,4.764L9.792,4.498C9.792,4.498 11.088,4.36 11.307,4.36C11.525,4.36 11.954,4.45 11.982,4.857C12.011,5.263 11.62,5.499 11.377,5.528C11.134,5.556 10.735,5.563 10.735,5.563L10.728,6.034C10.728,6.034 10.752,6.18 10.873,6.18C10.994,6.18 11.099,6.164 11.099,6.164L11.08,6.469L9.799,6.54L9.799,6.275ZM10.722,4.7L10.73,5.272C10.73,5.272 11.361,5.33 11.359,4.969C11.357,4.587 10.722,4.7 10.722,4.7Z" style="fill:white;stroke:black;stroke-width:0.13px;"/></g><g transform="matrix(0.955907,0,0,0.955907,0.392124,0.71332)"><path d="M12.1,4.701C12.1,4.701 12.634,4.624 12.65,4.289C12.665,3.953 12.483,3.912 12.345,3.917C12.207,3.922 12.081,4.023 12.091,4.173C12.1,4.323 12.159,4.354 12.253,4.359C12.346,4.364 12.441,4.319 12.441,4.319C12.441,4.319 12.344,4.472 12.296,4.535C12.248,4.598 12.1,4.701 12.1,4.701Z" style="fill:white;stroke:black;stroke-width:0.13px;"/></g><g transform="matrix(0.955907,0,0,0.955907,0.392124,0.71332)"><path d="M12.657,4.878L12.658,4.595L13.704,4.518L14.521,5.93L14.521,4.905C14.521,4.905 14.529,4.744 14.374,4.741C14.22,4.738 14.148,4.749 14.148,4.749L14.152,4.465L15.175,4.404L15.175,4.649C15.175,4.649 15.062,4.652 14.97,4.663C14.878,4.674 14.83,4.727 14.834,4.84C14.838,4.953 14.829,6.481 14.829,6.481L14.165,6.515L13.324,5.025L13.362,6.151C13.362,6.151 13.375,6.311 13.492,6.311C13.61,6.311 13.672,6.315 13.672,6.315L13.679,6.566L12.646,6.631L12.65,6.388C12.65,6.388 13.022,6.4 13.024,6.157C13.026,5.914 13.025,5.15 13.021,5.041C13.018,4.933 13.012,4.828 12.858,4.848C12.758,4.86 12.657,4.878 12.657,4.878Z" style="fill:white;stroke:black;stroke-width:0.13px;"/></g><g transform="matrix(0.955907,0,0,0.955907,0.392124,0.71332)"><path d="M1.703,7.997L3.35,7.826C3.35,7.826 4.422,7.661 4.41,8.581C4.404,9.03 4.248,9.355 3.972,9.518C3.638,9.715 2.837,9.716 2.837,9.716C2.837,9.716 2.839,10.281 2.852,10.534C2.865,10.787 3.258,10.689 3.258,10.689L3.272,11.116L1.707,11.304L1.709,10.845C1.709,10.845 1.829,10.819 1.917,10.808C2.006,10.797 2.122,10.748 2.122,10.576C2.122,10.404 2.125,8.781 2.111,8.591C2.097,8.401 1.702,8.494 1.702,8.494L1.703,7.997ZM2.862,9.295C2.862,9.295 3.179,9.307 3.398,9.179C3.556,9.086 3.635,8.901 3.642,8.682C3.66,8.159 2.868,8.302 2.868,8.302L2.862,9.295Z" style="fill:white;stroke:black;stroke-width:0.13px;"/></g><g transform="matrix(0.955907,0,0,0.955907,0.392124,0.71332)"><path d="M4.609,8.349C4.609,8.349 6.218,8.224 6.525,8.208C6.629,8.203 6.876,8.201 6.971,8.244C7.157,8.328 7.298,8.486 7.311,8.747C7.319,8.897 7.211,9.096 7.075,9.197C6.854,9.361 6.56,9.382 6.56,9.382C6.56,9.382 7.154,9.289 7.163,9.717C7.169,10.041 7.168,10.211 7.168,10.211C7.168,10.211 7.127,10.352 7.258,10.365C7.39,10.378 7.399,10.2 7.399,10.2L7.403,9.958L7.648,9.957C7.648,9.957 7.707,10.348 7.517,10.574C7.328,10.8 7.169,10.798 6.968,10.811C6.767,10.825 6.451,10.744 6.416,10.422C6.396,10.25 6.381,10.148 6.396,9.963C6.411,9.778 6.442,9.606 6.156,9.601C5.87,9.597 5.794,9.61 5.794,9.61C5.794,9.61 5.796,10.253 5.801,10.355C5.808,10.506 6.241,10.436 6.241,10.436L6.245,10.773L4.628,10.911L4.624,10.566C4.624,10.566 5.056,10.606 5.056,10.27C5.056,9.934 5.069,9.083 5.073,8.836C5.077,8.589 4.612,8.703 4.612,8.703L4.609,8.349ZM5.787,8.561L5.805,9.278C5.805,9.278 6.125,9.294 6.347,9.218C6.458,9.18 6.575,9.057 6.565,8.874C6.556,8.714 6.499,8.612 6.366,8.568C6.214,8.518 5.787,8.561 5.787,8.561Z" style="fill:white;stroke:black;stroke-width:0.13px;"/></g><g transform="matrix(0.955907,0,0,0.955907,0.392124,0.71332)"><path d="M7.766,9.11C7.777,8.326 8.252,8.044 8.464,7.915C8.711,7.765 9.343,7.633 9.811,7.762C10.356,7.913 10.567,8.563 10.525,9.071C10.482,9.579 10.23,10.039 9.713,10.278C9.312,10.463 8.685,10.506 8.234,10.212C7.959,10.033 7.758,9.714 7.766,9.11ZM9.172,8.069C8.865,8.075 8.69,8.371 8.649,8.61C8.609,8.849 8.61,9.176 8.619,9.441C8.628,9.706 8.771,10.068 9.129,10.053C9.487,10.039 9.639,9.578 9.658,9.412C9.674,9.267 9.688,8.901 9.682,8.639C9.676,8.377 9.479,8.064 9.172,8.069Z" style="fill:white;stroke:black;stroke-width:0.13px;"/></g><g transform="matrix(0.955907,0,0,0.955907,0.392124,0.71332)"><path d="M10.703,7.55L13.325,7.324L13.305,8.324L12.905,8.34C12.905,8.34 12.938,8.002 12.814,7.865C12.69,7.728 12.394,7.766 12.394,7.766C12.394,7.766 12.381,9.3 12.382,9.441C12.384,9.669 12.526,9.626 12.541,9.627C12.682,9.634 12.831,9.617 12.831,9.617L12.836,9.953L11.18,10.079L11.2,9.744C11.2,9.744 11.406,9.762 11.533,9.693C11.598,9.659 11.626,9.582 11.63,9.51C11.642,9.295 11.645,7.86 11.645,7.86C11.645,7.86 11.373,7.842 11.236,7.995C11.099,8.148 11.124,8.526 11.124,8.526L10.719,8.545L10.703,7.55Z" style="fill:white;stroke:black;stroke-width:0.13px;"/></g><g transform="matrix(0.955907,0,0,0.955907,0.392124,0.71332)"><path d="M15.003,7.156C15.816,7.125 16.344,7.542 16.327,8.451C16.311,9.36 15.571,9.841 14.849,9.875C14.127,9.91 13.555,9.501 13.563,8.597C13.572,7.693 14.191,7.187 15.003,7.156ZM15.005,7.523C14.646,7.547 14.43,7.876 14.395,8.533C14.361,9.191 14.628,9.508 14.896,9.517C15.165,9.527 15.5,9.304 15.51,8.479C15.518,7.803 15.266,7.506 15.005,7.523Z" style="fill:white;stroke:black;stroke-width:0.13px;"/></g></g></svg>