<svg width="100%" height="100%" viewBox="0 0 18 16" version="1.1" xmlns="http://www.w3.org/2000/svg" xmlns:xlink="http://www.w3.org/1999/xlink" xml:space="preserve" style="fill-rule:evenodd;clip-rule:evenodd;stroke-linejoin:round;stroke-miterlimit:2;"><g id="cargo"><g style="filter:url(#_Effect-0usifai);"><path d="M9.033,15.853L0.957,13.349L0.957,11.118L2.185,10.405L10.379,14.644L9.033,15.853Z" style="fill-opacity:0.11;"/></g><g style="filter:url(#_Effect-38loikp);"><path d="M2.113,12.509L8.881,15.842L16.188,12.476L3.231,11.942L2.113,12.509Z" style="fill-opacity:0.22;"/></g><g id="support"><path d="M1.892,11.416L1.892,11.547L8.999,14.907L8.999,14.698L1.892,11.416Z" style="fill:rgb(91,71,47);"/><path d="M1.891,11.419L2.104,11.35L8.999,14.546L9.003,14.702L1.891,11.419Z" style="fill:rgb(141,111,77);"/><path d="M2.032,12.268L2.036,11.615L3.001,12.07L2.998,12.758L2.032,12.268Z" style="fill:rgb(129,98,64);"/><path d="M3.109,12.118L3.119,12.698L3.723,12.396L3.109,12.118Z" style="fill:rgb(152,115,74);"/><path d="M2.991,12.751L2.999,12.068L3.109,12.12L3.124,12.707L2.991,12.751Z" style="fill:rgb(138,104,68);"/><path d="M1.958,12.214L1.962,12.394L2.995,12.953L2.994,12.751L1.958,12.214Z" style="fill:rgb(80,62,41);fill-opacity:0.89;"/><path d="M2.993,12.959L3.884,12.487L3.714,12.392L2.99,12.751L2.993,12.959Z" style="fill:rgb(111,85,56);fill-opacity:0.95;"/><path d="M5.998,13.426L4.917,12.958L4.92,13.652L5.993,14.234L5.998,13.426Z" style="fill:rgb(127,96,63);"/><path d="M5.998,13.427L5.995,14.198L6.724,13.764L5.998,13.427Z" style="fill:rgb(153,116,75);"/><path d="M4.911,13.642L4.909,13.84L5.987,14.415L5.984,14.21L4.911,13.642Z" style="fill:rgb(87,68,45);"/><path d="M6.959,13.876L5.964,14.418L5.979,14.206L6.709,13.761L6.959,13.876Z" style="fill:rgb(101,80,55);fill-opacity:0.93;"/><path d="M16.194,11.341L16.024,11.259L9,14.551L9.003,14.704L16.194,11.341Z" style="fill:rgb(179,142,99);"/><path d="M16.199,11.517L16.191,11.338L9.001,14.699L8.998,14.922L16.199,11.517Z" style="fill:rgb(134,104,70);"/><path d="M15.373,12.618L16.136,12.255L16.132,11.545L15.376,11.904L15.373,12.618Z" style="fill:rgb(200,161,117);"/><path d="M15.241,11.967L15.379,11.899L15.378,12.639L15.308,12.666L15.256,12.626L15.241,11.967Z" style="fill:rgb(152,116,77);"/><path d="M15.262,12.655L15.243,11.965L14.573,12.263L15.262,12.655Z" style="fill:rgb(98,68,33);"/><path d="M13.214,13.665L15.326,12.664L14.58,12.262L13.201,12.918L13.214,13.665Z" style="fill:rgb(121,84,43);"/><path d="M13.094,13.722L13.148,13.693L13.213,13.664L13.218,12.898L13.091,12.95L13.094,13.722Z" style="fill:rgb(152,114,71);"/><path d="M12.362,14.073L13.096,13.725L13.091,12.948L12.361,13.326L12.362,14.073Z" style="fill:rgb(201,161,118);"/><path d="M12.244,13.358L12.367,13.32L12.365,14.068L12.3,14.105L12.244,14.081L12.244,13.358Z" style="fill:rgb(158,122,82);"/><path d="M12.247,14.078L12.244,13.359L11.628,13.673L12.247,14.078Z" style="fill:rgb(97,67,32);"/><path d="M9.97,14.451L9.99,15.234L12.316,14.115L11.626,13.672L9.97,14.451Z" style="fill:rgb(120,83,42);"/><path d="M9.852,15.287L9.843,14.506L9.974,14.445L9.994,15.228L9.852,15.287Z" style="fill:rgb(133,95,54);"/><path d="M8.997,14.91L9.846,14.523L9.862,15.285L9.009,15.685L8.997,14.91Z" style="fill:rgb(202,162,118);"/><path d="M9.123,15.625L9.121,14.98L9.838,14.642L9.843,14.506L8.988,14.916L9.003,15.682L9.123,15.625Z" style="fill:rgb(188,149,107);"/><path d="M9.003,15.681L8.991,14.903L7.914,14.391L7.92,15.132L9.003,15.681Z" style="fill:rgb(130,99,65);"/><path d="M7.921,15.13L7.925,15.396L9.025,15.907L16.178,12.444L16.184,12.225L9.019,15.675L7.921,15.13Z" style="fill:rgb(137,106,71);"/></g><g id="top"><path d="M2.176,7.104L5.629,5.72L5.635,8.559L2.176,7.104Z" style="fill:url(#_Linear-ka0itme);"/><path d="M5.628,8.492L5.409,8.599L2.15,7.233L2.146,7.118L2.211,7.099L5.628,8.492Z" style="fill:rgb(226,185,103);"/><path d="M5.53,8.526L2.157,7.114L2.203,7.087L5.564,8.472L5.53,8.526Z" style="fill:rgb(214,165,71);"/><path d="M4.073,7.869L5.63,7.282L5.625,7.158L3.946,7.82L4.073,7.869Z" style="fill:rgb(214,165,71);"/><path d="M3.947,7.845L5.634,7.16L5.604,6.694L3.343,7.593L3.345,7.732L3.943,7.991L3.947,7.845Z" style="fill:rgb(241,208,145);"/><path d="M3.725,7.764L5.625,7.023L5.614,6.902L3.598,7.715L3.725,7.764Z" style="fill:rgb(229,194,127);"/><path d="M5.623,4.23L5.626,3.966L8.728,2.735L5.641,1.543L5.646,1.337L9.007,0.037L15.941,2.811L15.965,2.931L8.98,5.605L5.623,4.23Z" style="fill:url(#_Linear-zhajc6o);"/><path d="M5.624,3.997L9.022,5.334L15.823,2.763L15.946,2.817L15.962,2.924L8.976,5.583L5.623,4.264L5.624,3.997Z" style="fill:rgb(235,192,108);"/><path d="M5.623,4.112L8.945,5.41L9.023,5.334L5.623,3.997L5.623,4.112Z" style="fill:rgb(217,170,79);"/><path d="M12.574,4.097L15.934,2.813L15.805,2.756L12.545,4.031L12.574,4.097Z" style="fill:rgb(217,171,84);"/><path d="M5.769,4.059L9.049,2.782L12.315,4.089L12.549,4.006L9.128,2.613L5.615,4.002L5.769,4.059Z" style="fill:rgb(234,187,97);"/><path d="M9.275,2.674L12.436,1.41L12.286,1.35L9.125,2.615L9.275,2.674Z" style="fill:rgb(232,185,94);"/><path d="M14.045,3.66L14.037,3.503L10.418,2.098L11.039,1.832L14.666,3.25L14.673,3.421L14.045,3.66Z" style="fill:rgb(240,207,143);"/><path d="M10.903,2.097L14.261,3.429L14.397,3.375L11.041,2.043L10.903,2.097Z" style="fill:rgb(228,193,126);"/><path d="M14.133,3.521L14.664,3.31L14.512,3.251L13.997,3.459L14.133,3.521Z" style="fill:rgb(232,215,182);"/><path d="M10.338,2.132L14.044,3.621L14.04,3.503L10.44,2.088L10.338,2.132Z" style="fill:rgb(217,173,87);"/><path d="M8.776,2.759L5.645,1.525L5.645,1.413L8.904,2.712L8.776,2.759Z" style="fill:rgb(236,194,112);"/><path d="M9.019,2.656L5.648,1.341L5.647,1.416L8.901,2.714L9.019,2.656Z" style="fill:rgb(218,170,78);"/><path d="M7.44,2.234L7.443,2.041L10.86,0.779L10.27,0.544L6.837,1.839L6.835,1.997L7.44,2.234Z" style="fill:rgb(240,207,143);"/><path d="M7.434,2.194L10.989,0.833L10.854,0.779L7.436,2.04L7.434,2.194Z" style="fill:rgb(217,172,84);"/><path d="M6.828,1.876L7.396,2.119L7.487,1.984L7.035,1.808L6.828,1.876Z" style="fill:rgb(223,202,162);"/><path d="M7.356,1.938L10.508,0.763L10.348,0.717L7.204,1.89L7.356,1.938Z" style="fill:rgb(225,191,125);"/><path d="M7.434,4.96L7.436,4.832L10.996,3.404L10.365,3.147L6.874,4.592L6.87,4.728L7.434,4.96Z" style="fill:rgb(240,210,152);"/><path d="M7.434,4.932L10.953,3.508L10.956,3.422L7.433,4.821L7.434,4.932Z" style="fill:rgb(208,164,78);"/><path d="M7.572,4.635L10.59,3.391L10.415,3.327L7.398,4.545L7.572,4.635Z" style="fill:rgb(228,193,125);"/><path d="M6.949,4.625L7.417,4.831L7.565,4.772L7.088,4.563L6.949,4.625Z" style="fill:rgb(231,212,175);"/></g><g id="side_left"><path d="M2.154,11.319L2.152,7.222L9,10.116L8.999,14.443L2.154,11.319Z" style="fill:url(#_Linear-qdadx6q);"/><path d="M5.426,12.783L5.407,8.599L5.551,8.536L9.001,9.981L8.999,10.131L5.735,8.846L5.726,12.939L5.426,12.783Z" style="fill:rgb(200,151,54);"/><path d="M5.529,8.481L5.584,10.794L5.627,8.433L5.529,8.481Z" style="fill:rgb(167,128,51);fill-opacity:0.99;"/><g opacity="0.81"><path d="M6.317,11.161C6.294,11.132 6.271,11.103 6.247,11.074C6.27,11.067 6.292,11.061 6.315,11.054C6.316,11.015 6.318,10.977 6.322,10.938C6.302,10.905 6.282,10.873 6.262,10.84C6.286,10.84 6.311,10.841 6.336,10.841C6.343,10.807 6.352,10.772 6.362,10.739C6.346,10.704 6.329,10.668 6.313,10.633C6.34,10.64 6.366,10.648 6.393,10.655C6.405,10.626 6.42,10.598 6.436,10.571C6.424,10.535 6.412,10.498 6.401,10.461C6.428,10.476 6.455,10.49 6.482,10.505C6.5,10.482 6.52,10.461 6.541,10.442C6.534,10.405 6.527,10.368 6.52,10.332C6.547,10.353 6.574,10.374 6.6,10.395C6.623,10.379 6.647,10.366 6.672,10.355C6.671,10.32 6.669,10.285 6.667,10.25C6.692,10.277 6.717,10.303 6.742,10.329C6.769,10.322 6.797,10.317 6.825,10.314C6.829,10.282 6.833,10.251 6.837,10.219C6.859,10.25 6.881,10.281 6.903,10.311C6.934,10.313 6.964,10.316 6.994,10.322C7.003,10.294 7.012,10.267 7.021,10.24C7.039,10.274 7.058,10.308 7.076,10.342C7.109,10.352 7.14,10.363 7.171,10.377C7.185,10.355 7.198,10.333 7.212,10.311C7.227,10.347 7.241,10.383 7.256,10.419C7.288,10.437 7.319,10.456 7.35,10.477C7.368,10.462 7.386,10.446 7.404,10.43C7.413,10.467 7.423,10.503 7.433,10.539C7.464,10.564 7.494,10.591 7.524,10.619C7.545,10.61 7.566,10.601 7.588,10.592C7.593,10.627 7.597,10.662 7.602,10.698C7.631,10.729 7.658,10.762 7.685,10.795C7.709,10.793 7.733,10.791 7.758,10.789C7.757,10.822 7.756,10.856 7.756,10.889C7.781,10.925 7.805,10.962 7.828,10.999C7.854,11.004 7.88,11.009 7.906,11.014C7.9,11.044 7.894,11.074 7.888,11.104C7.909,11.143 7.929,11.183 7.948,11.223C7.975,11.235 8.001,11.247 8.028,11.259C8.017,11.284 8.006,11.309 7.995,11.334C8.012,11.375 8.026,11.417 8.04,11.459C8.066,11.477 8.092,11.495 8.118,11.513C8.103,11.533 8.088,11.552 8.073,11.572C8.083,11.613 8.093,11.655 8.1,11.697C8.125,11.721 8.15,11.744 8.174,11.768C8.155,11.781 8.136,11.795 8.117,11.808C8.122,11.848 8.125,11.889 8.127,11.929C8.149,11.957 8.172,11.985 8.194,12.013C8.172,12.02 8.15,12.027 8.128,12.033C8.127,12.071 8.124,12.108 8.119,12.146C8.139,12.177 8.158,12.209 8.177,12.24C8.153,12.24 8.128,12.24 8.104,12.24C8.097,12.273 8.088,12.306 8.078,12.339C8.093,12.373 8.109,12.407 8.124,12.441C8.098,12.434 8.072,12.427 8.047,12.42C8.034,12.448 8.02,12.475 8.004,12.502C8.015,12.537 8.026,12.572 8.037,12.607C8.011,12.594 7.984,12.58 7.958,12.566C7.94,12.588 7.921,12.609 7.9,12.628C7.907,12.663 7.913,12.699 7.919,12.734C7.894,12.714 7.868,12.694 7.842,12.675C7.82,12.69 7.796,12.703 7.772,12.715C7.773,12.748 7.774,12.782 7.776,12.815C7.751,12.79 7.727,12.765 7.703,12.74C7.677,12.748 7.65,12.754 7.622,12.757C7.619,12.788 7.615,12.818 7.611,12.849C7.589,12.82 7.568,12.79 7.546,12.761C7.517,12.761 7.487,12.758 7.458,12.753C7.449,12.78 7.44,12.807 7.431,12.833C7.413,12.801 7.395,12.768 7.377,12.736C7.345,12.727 7.314,12.716 7.284,12.703C7.271,12.725 7.257,12.747 7.244,12.768C7.229,12.734 7.215,12.699 7.201,12.664C7.169,12.648 7.138,12.629 7.108,12.609C7.09,12.625 7.073,12.641 7.055,12.657C7.045,12.621 7.036,12.586 7.026,12.551C6.995,12.526 6.965,12.501 6.936,12.474C6.915,12.484 6.893,12.493 6.872,12.502C6.867,12.467 6.862,12.432 6.858,12.397C6.829,12.367 6.801,12.335 6.774,12.303C6.75,12.305 6.726,12.308 6.702,12.31C6.702,12.277 6.703,12.244 6.703,12.21C6.678,12.175 6.653,12.138 6.63,12.101C6.604,12.097 6.578,12.092 6.552,12.088C6.557,12.058 6.563,12.027 6.568,11.997C6.547,11.958 6.526,11.918 6.507,11.878C6.48,11.866 6.453,11.855 6.426,11.843C6.437,11.818 6.448,11.792 6.458,11.766C6.441,11.725 6.426,11.683 6.411,11.64C6.385,11.622 6.358,11.604 6.332,11.586C6.347,11.566 6.362,11.546 6.377,11.526C6.366,11.484 6.356,11.441 6.347,11.398C6.322,11.374 6.296,11.35 6.271,11.326C6.29,11.313 6.309,11.299 6.329,11.285C6.323,11.244 6.319,11.203 6.317,11.161ZM7.931,11.533L7.929,11.532C7.894,11.515 7.87,11.544 7.871,11.578C7.871,11.617 7.894,11.664 7.93,11.682C7.965,11.698 7.989,11.669 7.989,11.636C7.989,11.597 7.966,11.551 7.931,11.533ZM7.057,11.126C7.057,11.184 7.058,11.243 7.059,11.301C7.136,11.338 7.212,11.376 7.289,11.413C7.318,11.427 7.381,11.448 7.394,11.402C7.396,11.396 7.397,11.389 7.397,11.383C7.396,11.34 7.37,11.301 7.339,11.273C7.329,11.264 7.318,11.253 7.305,11.247C7.222,11.207 7.139,11.166 7.057,11.126ZM6.619,10.907C6.628,10.937 6.638,10.966 6.647,10.996C6.655,11.021 6.658,11.071 6.621,11.074C6.578,11.077 6.535,11.081 6.492,11.084C6.483,11.208 6.496,11.332 6.523,11.453C6.593,11.487 6.663,11.521 6.734,11.554C6.731,11.356 6.727,11.157 6.724,10.958C6.689,10.941 6.654,10.924 6.619,10.907ZM6.505,10.836L6.503,10.835C6.467,10.817 6.443,10.847 6.444,10.882C6.445,10.922 6.469,10.97 6.506,10.988C6.542,11.005 6.566,10.975 6.565,10.941C6.564,10.901 6.541,10.855 6.505,10.836ZM7.213,10.499L7.211,10.498C7.176,10.48 7.152,10.51 7.152,10.544C7.153,10.584 7.176,10.632 7.213,10.65C7.249,10.667 7.273,10.638 7.272,10.604C7.272,10.564 7.249,10.518 7.213,10.499ZM7.352,10.692C7.318,10.716 7.284,10.741 7.25,10.765C7.221,10.787 7.186,10.748 7.173,10.725C7.142,10.669 7.11,10.613 7.079,10.557C6.934,10.52 6.779,10.544 6.668,10.649C6.93,10.777 7.191,10.905 7.452,11.033C7.515,11.064 7.569,11.121 7.611,11.176C7.676,11.261 7.727,11.366 7.728,11.475C7.728,11.495 7.726,11.515 7.721,11.534C7.702,11.602 7.645,11.644 7.581,11.665C7.607,11.703 7.633,11.742 7.653,11.784C7.68,11.844 7.693,11.909 7.702,11.974C7.709,12.014 7.751,12.052 7.788,12.064C7.796,12.067 7.805,12.07 7.814,12.07C7.865,12.075 7.872,12.014 7.872,11.976C7.872,11.962 7.871,11.947 7.871,11.933C7.871,11.926 7.874,11.919 7.882,11.923C7.907,11.935 7.931,11.947 7.956,11.958C7.959,11.905 7.958,11.852 7.953,11.799C7.909,11.752 7.864,11.705 7.819,11.659C7.795,11.634 7.777,11.589 7.791,11.555C7.813,11.5 7.836,11.445 7.859,11.39C7.757,11.121 7.587,10.862 7.352,10.692ZM6.795,12.034L6.793,12.033C6.758,12.016 6.734,12.046 6.734,12.08C6.735,12.119 6.759,12.166 6.795,12.183C6.831,12.2 6.854,12.17 6.854,12.136C6.853,12.097 6.83,12.052 6.795,12.034ZM7.063,11.553C7.063,11.609 7.064,11.666 7.065,11.722C7.123,11.75 7.182,11.778 7.24,11.806C7.247,11.809 7.252,11.814 7.252,11.821C7.253,11.91 7.254,11.999 7.255,12.088C7.255,12.096 7.25,12.095 7.244,12.092C7.044,11.997 6.844,11.901 6.644,11.806C6.664,11.849 6.686,11.891 6.709,11.932C6.75,11.94 6.791,11.949 6.833,11.957C6.869,11.964 6.892,12.007 6.898,12.04C6.909,12.104 6.92,12.167 6.93,12.23C6.956,12.257 6.982,12.282 7.009,12.307C7.152,12.433 7.342,12.541 7.539,12.522C7.548,12.468 7.557,12.415 7.567,12.362C7.572,12.328 7.604,12.321 7.63,12.34C7.672,12.371 7.713,12.402 7.755,12.433C7.779,12.413 7.801,12.391 7.821,12.367C7.719,12.318 7.617,12.269 7.515,12.221C7.495,12.212 7.481,12.193 7.469,12.176C7.441,12.136 7.419,12.088 7.408,12.041C7.389,11.971 7.384,11.898 7.37,11.827C7.357,11.757 7.321,11.677 7.252,11.644C7.189,11.614 7.126,11.583 7.063,11.553ZM7.673,12.454L7.672,12.453C7.637,12.436 7.613,12.466 7.613,12.499C7.614,12.538 7.637,12.584 7.673,12.602C7.708,12.618 7.732,12.589 7.731,12.555C7.731,12.517 7.708,12.472 7.673,12.454Z" style="fill:rgb(145,101,16);"/></g><path d="M3.348,11.836L3.352,11.066L3.457,11.068L3.518,11.197L3.667,11.175L3.805,11.196L3.836,11.306L3.954,11.32L3.946,12.111L3.348,11.836Z" style="fill:url(#_Radial-vjugzj2);"/><g><g><path d="M2.493,7.909L2.435,7.884C2.466,7.835 2.497,7.786 2.529,7.736C2.56,7.813 2.591,7.889 2.622,7.966L2.563,7.94C2.562,8.007 2.562,8.074 2.561,8.142L2.494,8.111C2.494,8.044 2.494,7.977 2.493,7.909Z" style="fill:rgb(173,126,35);"/></g></g><g><g><path d="M4.898,8.93L4.827,8.899C4.865,8.838 4.903,8.778 4.941,8.718C4.979,8.812 5.017,8.905 5.055,8.998L4.983,8.967C4.982,9.049 4.981,9.131 4.98,9.213L4.899,9.176C4.898,9.094 4.898,9.012 4.898,8.93Z" style="fill:rgb(173,126,35);"/></g></g><path d="M3.346,7.726L3.349,8.442L3.483,8.443L3.508,8.512L3.668,8.507L3.735,8.618L3.934,8.61L3.947,7.98L3.346,7.726Z" style="fill:url(#_Radial-voct1t8);"/><path d="M2.156,11.368L2.154,11.28L8.995,14.428L9,14.552L2.156,11.368Z" style="fill:rgb(120,94,62);"/><path d="M5.614,4.22L5.627,8.549L8.997,9.923L8.975,5.579L5.614,4.22Z" style="fill:url(#_Linear-mxntavc);"/><path d="M6.898,9.075L6.907,8.29L7.023,8.286L7.109,8.314L7.141,8.404L7.294,8.436L7.343,8.515L7.469,8.545L7.459,9.296L6.898,9.075Z" style="fill:url(#_Radial-7jw9fmw);"/><path d="M5.624,8.595L9.001,10.015L9.002,9.897L5.628,8.523L5.624,8.595Z" style="fill:rgb(168,124,36);"/><path d="M6.867,4.727L6.87,5.37L7.031,5.399L7.121,5.474L7.206,5.507L7.434,5.511L7.431,4.958L6.867,4.727Z" style="fill:url(#_Radial-fau1z45);"/><g><g><path d="M5.975,4.89L5.893,4.854C5.937,4.784 5.981,4.714 6.026,4.644C6.071,4.752 6.115,4.861 6.159,4.97L6.075,4.933C6.074,5.029 6.073,5.125 6.072,5.221L5.976,5.177C5.976,5.081 5.976,4.986 5.975,4.89Z" style="fill:rgb(173,126,35);"/></g></g><g><g><path d="M8.39,5.95L8.295,5.909C8.346,5.828 8.396,5.748 8.447,5.668C8.499,5.793 8.549,5.917 8.599,6.041L8.503,5.999C8.502,6.109 8.501,6.218 8.5,6.328L8.391,6.278C8.39,6.169 8.39,6.059 8.39,5.95Z" style="fill:rgb(173,126,35);"/></g></g><path d="M5.625,3.993L5.642,1.525L8.776,2.757L5.625,3.993Z" style="fill:url(#_Linear-h7t838y);"/><path d="M6.832,1.995L6.828,2.653L6.954,2.651L6.959,2.771L7.205,2.773L7.206,2.879L7.428,2.875L7.438,2.231L6.832,1.995Z" style="fill:url(#_Radial-wg1qt17);"/><g><g><path d="M5.971,2.166L5.9,2.135C5.938,2.075 5.976,2.015 6.014,1.955C6.052,2.048 6.09,2.141 6.128,2.235L6.056,2.203C6.055,2.285 6.054,2.367 6.053,2.45L5.972,2.412C5.971,2.33 5.971,2.248 5.971,2.166Z" style="fill:rgb(173,126,35);"/></g></g></g><g id="side_right"><path d="M8.995,14.428L15.878,11.244L15.881,11.33L8.997,14.552L8.995,14.428Z" style="fill:rgb(148,117,79);"/><path d="M8.995,14.428L8.971,5.585L15.961,2.917L15.95,11.209L8.995,14.428Z" style="fill:url(#_Linear-ef8w0u4);"/><path d="M12.359,4.292L12.43,12.838L12.621,12.738L12.594,4.206L12.359,4.292Z" style="fill:rgb(231,180,78);"/><path d="M9.095,5.538L9.111,14.374L8.996,14.43L8.976,5.584L9.095,5.538Z" style="fill:rgb(232,182,83);"/><path d="M12.493,12.778L12.605,12.731L12.606,10.085L12.498,10.144L12.493,12.778Z" style="fill:url(#_Linear-qtdaumf);"/><path d="M9.108,10.111L15.95,7.339L15.95,7.246L9.106,9.956L9.108,10.111Z" style="fill:rgb(228,182,93);"/><path d="M8.983,10.007L15.954,7.246L15.954,7.12L8.984,9.895L8.983,10.007Z" style="fill:rgb(185,144,63);"/><g opacity="0.65"><path d="M9.974,7.491C9.95,7.483 9.927,7.475 9.903,7.466C9.926,7.438 9.95,7.41 9.973,7.382C9.974,7.34 9.977,7.298 9.981,7.256C9.961,7.241 9.94,7.225 9.92,7.21C9.946,7.187 9.971,7.165 9.997,7.142C10.004,7.099 10.013,7.056 10.024,7.014C10.007,6.992 9.991,6.971 9.975,6.949C10.002,6.933 10.029,6.916 10.056,6.9C10.069,6.858 10.084,6.816 10.1,6.775C10.088,6.748 10.077,6.722 10.065,6.695C10.092,6.685 10.12,6.676 10.147,6.666C10.165,6.627 10.185,6.588 10.206,6.55C10.199,6.519 10.193,6.489 10.186,6.458C10.213,6.455 10.239,6.453 10.266,6.451C10.288,6.416 10.312,6.381 10.337,6.348C10.336,6.314 10.335,6.281 10.333,6.247C10.358,6.252 10.382,6.257 10.407,6.262C10.433,6.232 10.46,6.203 10.489,6.175C10.492,6.14 10.496,6.106 10.5,6.071C10.521,6.083 10.543,6.094 10.565,6.105C10.593,6.082 10.623,6.059 10.653,6.038C10.662,6.004 10.67,5.97 10.679,5.936C10.697,5.953 10.715,5.971 10.733,5.988C10.763,5.971 10.794,5.956 10.825,5.943C10.838,5.91 10.851,5.877 10.864,5.845C10.878,5.867 10.892,5.89 10.906,5.913C10.936,5.903 10.966,5.896 10.997,5.89C11.014,5.86 11.031,5.83 11.047,5.8C11.057,5.827 11.066,5.854 11.076,5.881C11.105,5.879 11.134,5.88 11.163,5.882C11.183,5.856 11.203,5.829 11.223,5.803C11.228,5.833 11.232,5.863 11.237,5.893C11.264,5.899 11.291,5.907 11.316,5.917C11.339,5.895 11.362,5.874 11.384,5.852C11.384,5.884 11.384,5.916 11.384,5.949C11.408,5.962 11.431,5.977 11.453,5.994C11.477,5.977 11.501,5.96 11.525,5.944C11.52,5.977 11.515,6.01 11.511,6.043C11.531,6.064 11.55,6.085 11.568,6.108C11.593,6.097 11.617,6.086 11.642,6.075C11.633,6.108 11.623,6.141 11.613,6.174C11.63,6.2 11.644,6.227 11.657,6.255C11.681,6.251 11.706,6.246 11.73,6.241C11.717,6.273 11.703,6.304 11.689,6.335C11.7,6.367 11.71,6.399 11.717,6.432C11.741,6.433 11.764,6.435 11.787,6.436C11.77,6.465 11.752,6.494 11.735,6.523C11.74,6.558 11.744,6.594 11.746,6.63C11.768,6.638 11.789,6.646 11.81,6.654C11.79,6.679 11.769,6.704 11.749,6.73C11.749,6.768 11.747,6.807 11.744,6.845C11.762,6.859 11.78,6.872 11.799,6.886C11.776,6.907 11.754,6.928 11.731,6.95C11.725,6.989 11.717,7.029 11.708,7.068C11.723,7.088 11.739,7.107 11.754,7.126C11.729,7.142 11.705,7.158 11.681,7.175C11.669,7.214 11.656,7.254 11.642,7.293C11.653,7.317 11.664,7.342 11.675,7.366C11.65,7.376 11.625,7.387 11.6,7.397C11.583,7.435 11.565,7.473 11.546,7.51C11.553,7.539 11.56,7.568 11.566,7.597C11.541,7.601 11.516,7.605 11.492,7.609C11.471,7.645 11.448,7.679 11.425,7.714C11.427,7.746 11.428,7.778 11.43,7.81C11.406,7.808 11.383,7.805 11.359,7.803C11.334,7.834 11.308,7.865 11.281,7.895C11.278,7.93 11.274,7.964 11.271,7.998C11.25,7.989 11.228,7.98 11.207,7.971C11.179,7.997 11.151,8.023 11.121,8.047C11.112,8.082 11.104,8.117 11.095,8.153C11.077,8.137 11.059,8.121 11.041,8.106C11.011,8.126 10.98,8.145 10.949,8.162C10.936,8.197 10.922,8.232 10.909,8.267C10.895,8.245 10.881,8.223 10.866,8.202C10.836,8.215 10.805,8.226 10.773,8.235C10.755,8.268 10.738,8.302 10.72,8.335C10.71,8.308 10.7,8.281 10.69,8.254C10.66,8.259 10.63,8.261 10.6,8.262C10.578,8.292 10.557,8.323 10.535,8.353C10.53,8.321 10.525,8.29 10.52,8.258C10.492,8.255 10.464,8.249 10.436,8.241C10.411,8.267 10.387,8.293 10.362,8.319C10.363,8.284 10.363,8.249 10.364,8.214C10.338,8.202 10.313,8.188 10.289,8.172C10.262,8.192 10.235,8.213 10.209,8.233C10.215,8.197 10.22,8.16 10.226,8.123C10.204,8.102 10.183,8.08 10.164,8.057C10.136,8.071 10.109,8.085 10.081,8.099C10.092,8.062 10.103,8.025 10.114,7.988C10.097,7.96 10.081,7.931 10.067,7.901C10.04,7.907 10.013,7.914 9.985,7.921C10.001,7.885 10.017,7.85 10.033,7.814C10.021,7.78 10.011,7.745 10.003,7.709C9.977,7.709 9.951,7.708 9.925,7.707C9.945,7.674 9.965,7.642 9.985,7.609C9.979,7.57 9.976,7.531 9.974,7.491ZM11.557,6.418L11.556,6.419C11.521,6.433 11.501,6.477 11.502,6.513C11.502,6.545 11.525,6.576 11.559,6.561C11.594,6.547 11.614,6.503 11.613,6.467C11.612,6.437 11.591,6.406 11.557,6.418ZM10.717,6.78C10.718,6.838 10.719,6.895 10.72,6.953C10.795,6.922 10.87,6.89 10.945,6.859C10.995,6.838 11.05,6.793 11.049,6.734C11.048,6.688 11.002,6.663 10.959,6.681C10.879,6.714 10.798,6.747 10.717,6.78ZM10.283,6.951C10.292,6.973 10.301,6.995 10.31,7.017C10.325,7.051 10.309,7.095 10.284,7.12C10.24,7.163 10.197,7.206 10.153,7.249C10.145,7.366 10.152,7.486 10.182,7.6C10.254,7.569 10.325,7.538 10.396,7.507C10.393,7.307 10.391,7.108 10.388,6.908C10.353,6.923 10.318,6.937 10.283,6.951ZM10.168,6.983L10.166,6.983C10.128,6.999 10.106,7.046 10.106,7.085C10.106,7.12 10.131,7.152 10.168,7.137C10.206,7.121 10.229,7.074 10.228,7.035C10.228,7.002 10.204,6.969 10.168,6.983ZM10.866,6.026L10.864,6.027C10.828,6.04 10.807,6.085 10.808,6.122C10.808,6.155 10.831,6.187 10.867,6.173C10.903,6.16 10.924,6.115 10.924,6.078C10.923,6.047 10.901,6.014 10.866,6.026ZM11,6.096C10.968,6.149 10.936,6.202 10.903,6.255C10.889,6.278 10.855,6.306 10.829,6.282C10.798,6.254 10.767,6.225 10.737,6.197C10.564,6.305 10.429,6.469 10.333,6.647C10.588,6.546 10.844,6.444 11.099,6.343C11.146,6.325 11.205,6.327 11.251,6.346C11.327,6.38 11.364,6.456 11.366,6.537C11.368,6.653 11.298,6.762 11.228,6.85C11.249,6.861 11.27,6.873 11.287,6.89C11.327,6.93 11.338,6.992 11.348,7.046C11.356,7.082 11.408,7.071 11.43,7.058C11.489,7.024 11.51,6.963 11.509,6.898C11.508,6.884 11.508,6.87 11.508,6.856C11.507,6.848 11.51,6.84 11.517,6.837C11.541,6.827 11.564,6.817 11.588,6.807C11.589,6.756 11.588,6.705 11.583,6.655C11.54,6.648 11.497,6.642 11.454,6.636C11.42,6.63 11.419,6.585 11.426,6.56C11.446,6.487 11.467,6.415 11.487,6.342C11.412,6.211 11.287,6.114 11.135,6.095C11.09,6.089 11.045,6.09 11,6.096ZM10.457,7.943L10.455,7.943C10.418,7.961 10.395,8.008 10.396,8.048C10.396,8.083 10.421,8.114 10.457,8.097C10.495,8.079 10.517,8.032 10.517,7.992C10.516,7.959 10.493,7.927 10.457,7.943ZM10.724,7.202C10.725,7.258 10.726,7.315 10.727,7.371C10.785,7.346 10.842,7.321 10.9,7.295C10.906,7.293 10.911,7.292 10.911,7.3C10.913,7.388 10.915,7.476 10.916,7.565C10.916,7.572 10.912,7.576 10.905,7.579C10.705,7.67 10.505,7.76 10.304,7.851C10.324,7.876 10.346,7.898 10.371,7.919C10.412,7.888 10.454,7.858 10.495,7.827C10.522,7.808 10.554,7.817 10.561,7.851C10.572,7.906 10.583,7.961 10.594,8.016C10.826,8.044 11.045,7.898 11.197,7.737C11.206,7.675 11.214,7.613 11.222,7.552C11.227,7.52 11.249,7.478 11.283,7.472C11.324,7.464 11.364,7.457 11.405,7.45C11.427,7.409 11.448,7.367 11.467,7.325C11.368,7.369 11.269,7.414 11.171,7.459C11.13,7.477 11.092,7.432 11.076,7.4C11.071,7.393 11.068,7.385 11.065,7.377C11.045,7.32 11.041,7.257 11.027,7.198C11.016,7.153 10.988,7.108 10.936,7.115C10.928,7.116 10.919,7.118 10.911,7.122C10.849,7.148 10.786,7.175 10.724,7.202ZM11.327,7.545L11.325,7.546C11.29,7.562 11.269,7.608 11.269,7.646C11.27,7.678 11.294,7.709 11.328,7.692C11.364,7.676 11.384,7.63 11.384,7.593C11.383,7.561 11.361,7.531 11.327,7.545Z" style="fill:rgb(145,101,16);"/></g><g opacity="0.65"><path d="M13.445,10.44C13.423,10.432 13.4,10.423 13.377,10.415C13.399,10.388 13.422,10.361 13.444,10.334C13.445,10.294 13.447,10.253 13.452,10.213C13.432,10.198 13.412,10.183 13.393,10.168C13.417,10.146 13.442,10.124 13.466,10.103C13.474,10.061 13.482,10.019 13.492,9.978C13.476,9.957 13.461,9.937 13.445,9.916C13.471,9.9 13.497,9.884 13.523,9.868C13.536,9.827 13.55,9.786 13.566,9.747C13.554,9.72 13.543,9.694 13.531,9.668C13.558,9.659 13.585,9.65 13.611,9.64C13.629,9.602 13.648,9.564 13.669,9.527C13.662,9.497 13.656,9.466 13.649,9.436C13.675,9.434 13.701,9.431 13.727,9.429C13.749,9.394 13.772,9.36 13.797,9.327C13.795,9.294 13.794,9.261 13.793,9.228C13.817,9.233 13.841,9.237 13.865,9.242C13.891,9.212 13.917,9.183 13.945,9.155C13.949,9.121 13.953,9.087 13.956,9.052C13.978,9.063 13.999,9.074 14.021,9.085C14.049,9.061 14.078,9.039 14.108,9.018C14.116,8.983 14.125,8.949 14.134,8.915C14.152,8.932 14.17,8.949 14.187,8.966C14.217,8.949 14.247,8.934 14.278,8.92C14.291,8.887 14.304,8.854 14.317,8.821C14.331,8.844 14.345,8.866 14.359,8.889C14.389,8.879 14.419,8.871 14.45,8.865C14.467,8.834 14.484,8.804 14.501,8.774C14.51,8.801 14.52,8.827 14.529,8.854C14.558,8.852 14.587,8.852 14.616,8.854C14.636,8.827 14.656,8.8 14.677,8.773C14.681,8.804 14.686,8.834 14.691,8.864C14.718,8.87 14.744,8.878 14.77,8.887C14.793,8.865 14.816,8.842 14.839,8.82C14.839,8.853 14.838,8.885 14.838,8.918C14.862,8.931 14.885,8.946 14.907,8.963C14.932,8.945 14.957,8.928 14.981,8.911C14.976,8.945 14.971,8.979 14.965,9.012C14.986,9.032 15.005,9.054 15.023,9.077C15.048,9.066 15.073,9.054 15.098,9.043C15.088,9.077 15.079,9.11 15.069,9.143C15.085,9.17 15.099,9.198 15.112,9.226C15.137,9.221 15.162,9.216 15.186,9.211C15.172,9.243 15.158,9.275 15.144,9.307C15.155,9.339 15.164,9.371 15.172,9.404C15.195,9.406 15.219,9.408 15.242,9.409C15.224,9.438 15.207,9.467 15.189,9.497C15.194,9.533 15.197,9.569 15.199,9.606C15.221,9.613 15.242,9.621 15.264,9.629C15.243,9.655 15.222,9.681 15.201,9.706C15.2,9.745 15.198,9.784 15.194,9.822C15.213,9.836 15.232,9.85 15.25,9.864C15.227,9.885 15.204,9.907 15.181,9.928C15.174,9.968 15.166,10.007 15.157,10.047C15.172,10.066 15.187,10.086 15.202,10.106C15.177,10.122 15.153,10.137 15.128,10.153C15.116,10.193 15.103,10.232 15.088,10.271C15.099,10.296 15.11,10.32 15.121,10.345C15.095,10.355 15.07,10.365 15.045,10.375C15.028,10.412 15.01,10.45 14.99,10.486C14.997,10.515 15.003,10.544 15.009,10.573C14.984,10.577 14.959,10.58 14.935,10.584C14.913,10.618 14.891,10.652 14.867,10.686C14.869,10.718 14.87,10.75 14.872,10.782C14.848,10.779 14.825,10.776 14.801,10.772C14.776,10.803 14.75,10.833 14.723,10.861C14.72,10.895 14.716,10.929 14.712,10.963C14.691,10.953 14.67,10.944 14.649,10.934C14.622,10.959 14.593,10.983 14.563,11.006C14.555,11.04 14.546,11.075 14.538,11.109C14.52,11.093 14.502,11.077 14.484,11.061C14.455,11.08 14.425,11.097 14.394,11.113C14.381,11.147 14.367,11.181 14.354,11.215C14.34,11.193 14.326,11.171 14.312,11.149C14.282,11.161 14.252,11.171 14.221,11.179C14.204,11.21 14.186,11.242 14.169,11.274C14.159,11.247 14.15,11.221 14.14,11.194C14.111,11.198 14.081,11.2 14.052,11.199C14.031,11.228 14.01,11.257 13.989,11.285C13.984,11.255 13.98,11.224 13.975,11.193C13.947,11.189 13.92,11.182 13.893,11.174C13.869,11.198 13.845,11.222 13.821,11.247C13.822,11.213 13.822,11.179 13.823,11.145C13.798,11.133 13.773,11.119 13.75,11.103C13.725,11.122 13.699,11.141 13.673,11.16C13.679,11.124 13.684,11.089 13.69,11.053C13.668,11.033 13.648,11.012 13.63,10.989C13.603,11.001 13.577,11.014 13.55,11.027C13.561,10.992 13.571,10.956 13.582,10.921C13.565,10.894 13.55,10.865 13.536,10.836C13.51,10.842 13.484,10.848 13.457,10.854C13.472,10.82 13.488,10.786 13.503,10.752C13.491,10.719 13.482,10.685 13.474,10.65C13.449,10.649 13.424,10.648 13.399,10.647C13.418,10.616 13.437,10.585 13.456,10.554C13.451,10.516 13.447,10.478 13.445,10.44ZM15.01,9.391L15.008,9.391C14.973,9.406 14.952,9.45 14.953,9.486C14.953,9.518 14.976,9.549 15.01,9.535C15.045,9.521 15.066,9.476 15.065,9.44C15.065,9.409 15.044,9.378 15.01,9.391ZM14.169,9.751C14.17,9.808 14.171,9.865 14.172,9.922C14.246,9.891 14.32,9.86 14.395,9.83C14.444,9.809 14.499,9.765 14.498,9.707C14.497,9.661 14.451,9.636 14.409,9.653C14.329,9.686 14.249,9.718 14.169,9.751ZM13.744,9.918C13.753,9.94 13.762,9.961 13.771,9.982C13.785,10.015 13.769,10.059 13.745,10.083C13.703,10.124 13.661,10.165 13.618,10.207C13.61,10.321 13.618,10.437 13.647,10.548C13.716,10.519 13.785,10.49 13.854,10.46C13.852,10.266 13.849,10.071 13.846,9.877C13.812,9.89 13.778,9.904 13.744,9.918ZM13.632,9.948L13.63,9.949C13.594,9.964 13.572,10.01 13.572,10.048C13.573,10.081 13.597,10.113 13.632,10.098C13.669,10.083 13.691,10.037 13.691,10C13.69,9.967 13.667,9.935 13.632,9.948ZM14.319,9.002L14.317,9.003C14.281,9.017 14.26,9.062 14.261,9.099C14.261,9.131 14.284,9.163 14.32,9.149C14.355,9.135 14.377,9.09 14.376,9.054C14.376,9.022 14.354,8.99 14.319,9.002ZM14.453,9.071C14.42,9.124 14.388,9.177 14.355,9.23C14.341,9.253 14.307,9.281 14.281,9.257C14.251,9.23 14.22,9.202 14.19,9.174C14.02,9.282 13.887,9.445 13.792,9.62C14.045,9.519 14.297,9.418 14.55,9.317C14.596,9.298 14.656,9.3 14.702,9.319C14.779,9.353 14.814,9.429 14.816,9.51C14.818,9.627 14.747,9.735 14.676,9.822C14.697,9.834 14.718,9.846 14.735,9.863C14.774,9.903 14.786,9.966 14.794,10.019C14.802,10.055 14.855,10.045 14.877,10.033C14.936,9.999 14.958,9.938 14.957,9.873C14.957,9.859 14.957,9.845 14.956,9.831C14.956,9.823 14.958,9.815 14.966,9.812C14.99,9.802 15.014,9.792 15.037,9.782C15.039,9.731 15.038,9.68 15.033,9.629C14.99,9.623 14.947,9.616 14.904,9.61C14.87,9.604 14.869,9.559 14.876,9.533C14.897,9.46 14.919,9.387 14.94,9.314C14.865,9.183 14.74,9.086 14.587,9.068C14.542,9.063 14.497,9.064 14.453,9.071ZM13.913,10.885L13.912,10.886C13.875,10.902 13.853,10.948 13.854,10.986C13.854,11.019 13.878,11.05 13.914,11.035C13.95,11.019 13.972,10.973 13.971,10.935C13.971,10.902 13.948,10.871 13.913,10.885ZM14.176,10.167C14.176,10.222 14.177,10.278 14.178,10.333C14.235,10.309 14.292,10.285 14.348,10.261C14.354,10.258 14.359,10.258 14.36,10.265C14.361,10.352 14.362,10.439 14.364,10.526C14.364,10.533 14.359,10.537 14.353,10.54C14.157,10.624 13.961,10.709 13.765,10.793C13.785,10.817 13.806,10.84 13.83,10.86C13.87,10.831 13.91,10.803 13.951,10.774C13.977,10.755 14.008,10.766 14.015,10.799C14.025,10.852 14.036,10.906 14.047,10.96C14.272,10.993 14.489,10.858 14.641,10.703C14.649,10.642 14.658,10.581 14.667,10.52C14.671,10.488 14.693,10.448 14.728,10.442C14.768,10.436 14.808,10.429 14.849,10.423C14.872,10.383 14.893,10.342 14.912,10.3C14.813,10.342 14.714,10.384 14.616,10.427C14.575,10.445 14.538,10.399 14.522,10.367C14.518,10.36 14.514,10.352 14.512,10.344C14.492,10.287 14.488,10.225 14.474,10.166C14.464,10.122 14.437,10.077 14.385,10.083C14.376,10.084 14.368,10.086 14.36,10.09C14.298,10.115 14.237,10.141 14.176,10.167ZM14.77,10.516L14.769,10.517C14.733,10.532 14.712,10.577 14.713,10.614C14.713,10.647 14.736,10.677 14.771,10.662C14.806,10.647 14.827,10.602 14.827,10.565C14.826,10.533 14.804,10.503 14.77,10.516Z" style="fill:rgb(145,101,16);"/></g><g><path d="M9.609,10.506L9.523,10.544C9.565,10.446 9.606,10.348 9.648,10.251C9.693,10.309 9.74,10.367 9.788,10.425L9.707,10.461C9.712,10.551 9.716,10.64 9.721,10.73L9.62,10.782C9.616,10.69 9.612,10.598 9.609,10.506Z" style="fill:rgb(173,126,35);"/></g><g><path d="M12.006,9.46L11.928,9.495C11.966,9.406 12.004,9.317 12.041,9.228C12.083,9.281 12.126,9.334 12.169,9.387L12.096,9.42C12.1,9.501 12.104,9.583 12.108,9.665L12.016,9.712C12.013,9.628 12.009,9.544 12.006,9.46Z" style="fill:rgb(173,126,35);"/></g><g><path d="M13.064,4.617L12.966,4.659C13.014,4.551 13.062,4.443 13.11,4.336C13.163,4.4 13.217,4.464 13.272,4.528L13.179,4.568C13.184,4.667 13.19,4.766 13.195,4.865L13.077,4.923C13.073,4.821 13.069,4.719 13.064,4.617Z" style="fill:rgb(173,126,35);"/></g><g><path d="M15.481,3.662L15.392,3.7C15.435,3.603 15.478,3.505 15.522,3.408C15.57,3.466 15.618,3.524 15.668,3.582L15.584,3.618C15.589,3.707 15.594,3.796 15.599,3.885L15.493,3.937C15.489,3.845 15.485,3.753 15.481,3.662Z" style="fill:rgb(173,126,35);"/></g><path d="M10.567,13.683L10.559,13.006L10.681,12.98L10.692,12.873L10.928,12.858L10.947,12.76L11.155,12.75L11.161,13.414L10.567,13.683Z" style="fill:url(#_Radial-c2v5g8w);"/><path d="M10.563,9.525L10.565,10.109L10.781,10.107L10.814,9.991L11.065,9.985L11.068,9.879L11.175,9.883L11.175,9.27L10.563,9.525Z" style="fill:url(#_Radial-qyjjtjh);"/><path d="M14.057,7.876L14.04,7.098L14.217,7.093L14.248,6.998L14.421,6.98L14.527,6.978L14.545,6.877L14.642,6.892L14.656,7.641L14.057,7.876Z" style="fill:url(#_Radial-3e95fdd);"/><path d="M14.042,3.648L14.67,3.409L14.654,4.063L14.523,4.099L14.51,4.211L14.409,4.209L14.305,4.156L14.295,4.22L14.057,4.298L14.042,3.648Z" style="fill:url(#_Radial-l2cvopv);"/></g></g><defs><filter id="_Effect-0usifai" filterUnits="userSpaceOnUse" x="0.239685" y="9.68788" width="10.856" height="6.8819"><feGaussianBlur in="SourceGraphic" stdDeviation="0.119508"/></filter><filter id="_Effect-38loikp" filterUnits="userSpaceOnUse" x="1.55802" y="11.3869" width="15.1843" height="5.00963"><feGaussianBlur in="SourceGraphic" stdDeviation="0.0924468"/></filter><linearGradient id="_Linear-ka0itme" x1="0" y1="0" x2="1" y2="0" gradientUnits="userSpaceOnUse" gradientTransform="matrix(-0.292879,1.26472,-1.26472,-0.292879,5.31037,6.77914)"><stop offset="0" style="stop-color:rgb(227,176,77);stop-opacity:1"/><stop offset="0.8" style="stop-color:rgb(228,177,77);stop-opacity:1"/><stop offset="1" style="stop-color:rgb(229,177,77);stop-opacity:1"/></linearGradient><linearGradient id="_Linear-zhajc6o" x1="0" y1="0" x2="1" y2="0" gradientUnits="userSpaceOnUse" gradientTransform="matrix(0.128486,2.52282,-2.52282,0.128486,10.12,1.95913)"><stop offset="0" style="stop-color:rgb(230,178,77);stop-opacity:1"/><stop offset="0.47" style="stop-color:rgb(230,178,77);stop-opacity:1"/><stop offset="1" style="stop-color:rgb(231,178,78);stop-opacity:1"/></linearGradient><linearGradient id="_Linear-qdadx6q" x1="0" y1="0" x2="1" y2="0" gradientUnits="userSpaceOnUse" gradientTransform="matrix(0.868083,-2.77777,2.77777,0.868083,4.50459,12.0562)"><stop offset="0" style="stop-color:rgb(179,120,4);stop-opacity:1"/><stop offset="0.24" style="stop-color:rgb(182,123,7);stop-opacity:1"/><stop offset="0.54" style="stop-color:rgb(191,132,16);stop-opacity:1"/><stop offset="1" style="stop-color:rgb(208,149,33);stop-opacity:1"/></linearGradient><radialGradient id="_Radial-vjugzj2" cx="0" cy="0" r="1" gradientUnits="userSpaceOnUse" gradientTransform="matrix(0.248994,-0.246876,0.246876,0.248994,3.63265,11.613)"><stop offset="0" style="stop-color:rgb(196,151,64);stop-opacity:1"/><stop offset="1" style="stop-color:rgb(209,172,99);stop-opacity:1"/></radialGradient><radialGradient id="_Radial-voct1t8" cx="0" cy="0" r="1" gradientUnits="userSpaceOnUse" gradientTransform="matrix(0.243784,0.38119,-0.38119,0.243784,3.64649,8.22004)"><stop offset="0" style="stop-color:rgb(202,160,79);stop-opacity:1"/><stop offset="1" style="stop-color:rgb(238,210,156);stop-opacity:1"/></radialGradient><linearGradient id="_Linear-mxntavc" x1="0" y1="0" x2="1" y2="0" gradientUnits="userSpaceOnUse" gradientTransform="matrix(0.667187,-2.87709,2.87709,0.667187,6.8758,8.41513)"><stop offset="0" style="stop-color:rgb(187,129,13);stop-opacity:1"/><stop offset="0.45" style="stop-color:rgb(197,139,23);stop-opacity:1"/><stop offset="1" style="stop-color:rgb(223,163,47);stop-opacity:1"/></linearGradient><radialGradient id="_Radial-7jw9fmw" cx="0" cy="0" r="1" gradientUnits="userSpaceOnUse" gradientTransform="matrix(0.216042,0.410769,-0.410769,0.216042,7.1856,8.80884)"><stop offset="0" style="stop-color:rgb(203,159,71);stop-opacity:1"/><stop offset="1" style="stop-color:rgb(222,194,139);stop-opacity:1"/></radialGradient><radialGradient id="_Radial-fau1z45" cx="0" cy="0" r="1" gradientUnits="userSpaceOnUse" gradientTransform="matrix(0.214377,0.280365,-0.280365,0.214377,7.15966,5.18331)"><stop offset="0" style="stop-color:rgb(232,187,98);stop-opacity:1"/><stop offset="0.54" style="stop-color:rgb(233,191,109);stop-opacity:1"/><stop offset="1" style="stop-color:rgb(237,207,147);stop-opacity:1"/></radialGradient><linearGradient id="_Linear-h7t838y" x1="0" y1="0" x2="1" y2="0" gradientUnits="userSpaceOnUse" gradientTransform="matrix(0.959417,-1.2531,1.2531,0.959417,5.9918,3.632)"><stop offset="0" style="stop-color:rgb(204,146,35);stop-opacity:1"/><stop offset="0.47" style="stop-color:rgb(210,151,39);stop-opacity:1"/><stop offset="1" style="stop-color:rgb(224,165,51);stop-opacity:1"/></linearGradient><radialGradient id="_Radial-wg1qt17" cx="0" cy="0" r="1" gradientUnits="userSpaceOnUse" gradientTransform="matrix(0.204027,0.292825,-0.292825,0.204027,7.12069,2.44659)"><stop offset="0" style="stop-color:rgb(230,184,95);stop-opacity:1"/><stop offset="0.5" style="stop-color:rgb(233,191,109);stop-opacity:1"/><stop offset="1" style="stop-color:rgb(241,210,151);stop-opacity:1"/></radialGradient><linearGradient id="_Linear-ef8w0u4" x1="0" y1="0" x2="1" y2="0" gradientUnits="userSpaceOnUse" gradientTransform="matrix(-3.07777,0.148836,-0.148836,-3.07777,12.436,10.0464)"><stop offset="0" style="stop-color:rgb(227,169,55);stop-opacity:1"/><stop offset="1" style="stop-color:rgb(236,179,63);stop-opacity:1"/></linearGradient><linearGradient id="_Linear-qtdaumf" x1="0" y1="0" x2="1" y2="0" gradientUnits="userSpaceOnUse" gradientTransform="matrix(0.00507629,-2.35561,2.35561,0.00507629,12.5415,12.5876)"><stop offset="0" style="stop-color:rgb(208,160,69);stop-opacity:1"/><stop offset="1" style="stop-color:rgb(226,177,81);stop-opacity:1"/></linearGradient><radialGradient id="_Radial-c2v5g8w" cx="0" cy="0" r="1" gradientUnits="userSpaceOnUse" gradientTransform="matrix(-0.168838,0.383573,-0.383573,-0.168838,10.8427,13.2235)"><stop offset="0" style="stop-color:rgb(239,195,106);stop-opacity:1"/><stop offset="0.62" style="stop-color:rgb(239,199,116);stop-opacity:1"/><stop offset="0.82" style="stop-color:rgb(240,208,140);stop-opacity:1"/><stop offset="1" style="stop-color:rgb(242,217,167);stop-opacity:1"/></radialGradient><radialGradient id="_Radial-qyjjtjh" cx="0" cy="0" r="1" gradientUnits="userSpaceOnUse" gradientTransform="matrix(-0.209518,0.439015,-0.439015,-0.209518,10.8643,9.67279)"><stop offset="0" style="stop-color:rgb(234,188,99);stop-opacity:1"/><stop offset="1" style="stop-color:rgb(240,213,162);stop-opacity:1"/></radialGradient><radialGradient id="_Radial-3e95fdd" cx="0" cy="0" r="1" gradientUnits="userSpaceOnUse" gradientTransform="matrix(-0.160142,0.340409,-0.340409,-0.160142,14.355,7.37771)"><stop offset="0" style="stop-color:rgb(239,193,104);stop-opacity:1"/><stop offset="0.52" style="stop-color:rgb(240,197,115);stop-opacity:1"/><stop offset="1" style="stop-color:rgb(243,212,153);stop-opacity:1"/></radialGradient><radialGradient id="_Radial-l2cvopv" cx="0" cy="0" r="1" gradientUnits="userSpaceOnUse" gradientTransform="matrix(-0.219911,0.332998,-0.332998,-0.219911,14.3579,3.83563)"><stop offset="0" style="stop-color:rgb(236,190,99);stop-opacity:1"/><stop offset="0.49" style="stop-color:rgb(237,195,112);stop-opacity:1"/><stop offset="1" style="stop-color:rgb(241,210,148);stop-opacity:1"/></radialGradient></defs></svg>