<svg width="100%" height="100%" viewBox="0 0 18 16" version="1.1" xmlns="http://www.w3.org/2000/svg" xmlns:xlink="http://www.w3.org/1999/xlink" xml:space="preserve" style="fill-rule:evenodd;clip-rule:evenodd;stroke-linecap:round;stroke-linejoin:round;stroke-miterlimit:1;"><g id="casbin" transform="matrix(0.998509,0,0,0.998509,0.642962,0.0627086)"><path d="M9.135,0.662C12.277,0.637 13.427,2.268 13.427,2.268C13.427,2.268 13.964,2.215 14.297,2.21C14.716,2.203 15.024,2.487 15.029,2.852C15.036,3.295 14.061,3.783 14.061,3.783C14.061,3.783 14.154,3.935 14.154,5.009C14.155,6.083 14,6.388 13.995,7.075C13.99,7.761 14.151,8.386 14.151,8.86C14.151,9.334 14.237,10.496 14.235,10.93C14.233,11.364 14.116,12.92 13.276,13.902C12.436,14.884 10.881,15.184 9.135,15.158C7.952,15.176 6.307,15.002 5.379,13.91C4.543,12.925 4.503,11.446 4.502,11.012C4.5,10.578 4.492,9.36 4.492,8.886C4.492,8.412 4.586,7.762 4.581,7.075C4.577,6.389 4.525,6.111 4.526,5.037C4.526,3.963 4.559,3.759 4.559,3.759C4.559,3.759 3.667,3.31 3.673,2.868C3.679,2.503 3.961,2.172 4.38,2.178C4.713,2.183 5.292,2.23 5.292,2.23C5.292,2.23 6.575,0.63 9.135,0.662Z" style="fill:rgb(140,197,231);"/><path d="M4.58,3.155C4.58,3.155 4.602,2.991 4.631,2.911C4.66,2.831 4.756,2.674 4.756,2.674C4.756,2.674 4.447,2.364 4.273,2.757C4.136,3.069 4.58,3.155 4.58,3.155Z" style="fill:rgb(60,137,191);"/><path d="M13.91,2.679C13.91,2.679 14.009,2.839 14.042,2.928C14.074,3.014 14.111,3.217 14.111,3.217C14.111,3.217 14.481,3.054 14.407,2.738C14.329,2.408 13.91,2.679 13.91,2.679Z" style="fill:rgb(60,137,191);"/><g transform="matrix(1.11097,0,0,1.19232,-0.632727,-0.598323)"><path d="M7.129,3.105C8.025,3.105 8.474,3.621 8.474,4.488C8.474,5.255 7.676,5.888 6.909,5.888C6.142,5.888 5.693,5.263 5.693,4.595C5.693,3.749 6.362,3.105 7.129,3.105Z" style="fill:rgb(224,222,220);"/></g><g transform="matrix(0.861602,0,0,0.932414,1.04979,0.367406)"><ellipse cx="7.184" cy="4.753" rx="0.707" ry="0.684" style="fill:rgb(17,18,18);"/></g><g transform="matrix(1.30378,0,0,1.11714,-2.28846,-0.530023)"><ellipse cx="7.431" cy="4.524" rx="0.153" ry="0.181" style="fill:white;"/></g><g transform="matrix(-1.11788,0,0,1.19232,19.3557,-0.598323)"><path d="M7.129,3.105C8.025,3.105 8.474,3.621 8.474,4.488C8.474,5.255 7.676,5.888 6.909,5.888C6.142,5.888 5.693,5.263 5.693,4.595C5.693,3.749 6.362,3.105 7.129,3.105Z" style="fill:rgb(224,222,220);"/></g><g transform="matrix(0.994442,0,0,0.994744,0.0766731,0.0218448)"><ellipse cx="11.425" cy="4.801" rx="0.645" ry="0.645" style="fill:rgb(17,18,18);"/></g><g transform="matrix(1.12195,0,0,1.0332,-1.39136,-0.156637)"><ellipse cx="11.286" cy="4.523" rx="0.168" ry="0.195" style="fill:white;"/></g><g transform="matrix(0.939572,0,0,1.20879,0.794479,-1.45641)"><path d="M9.105,6.286C9.797,6.286 10.342,6.583 10.342,6.858C10.342,7.133 9.911,7.282 9.076,7.282C8.149,7.282 7.857,7.083 7.857,6.807C7.857,6.532 8.413,6.286 9.105,6.286Z" style="fill:rgb(184,147,127);"/></g><g transform="matrix(1,0,0,1.04163,0,-0.328442)"><path d="M9.309,7.219C9.672,7.219 9.865,7.274 9.865,7.549C9.865,7.869 9.66,7.911 9.309,7.911C8.951,7.911 8.76,7.88 8.76,7.564C8.76,7.247 8.942,7.219 9.309,7.219Z" style="fill:rgb(224,222,220);"/></g><g transform="matrix(1.00743,0,0,0.926697,-0.0737658,0.439694)"><path d="M9.342,5.997C9.692,5.997 9.933,6.175 9.933,6.392C9.933,6.663 9.812,6.769 9.349,6.769C8.888,6.769 8.783,6.703 8.783,6.392C8.783,6.175 8.945,5.997 9.342,5.997Z"/></g><g transform="matrix(1.11616,0,0,0.97498,-1.6879,0.300834)"><path d="M14.236,9.437C14.377,9.437 14.503,9.661 14.503,9.983C14.503,10.304 14.399,10.603 14.236,10.603C14.02,10.603 13.978,10.358 13.978,9.983C13.978,9.709 14.131,9.437 14.236,9.437Z" style="fill:rgb(184,147,127);"/></g><path d="M6.035,14.548C6.241,14.537 6.844,14.908 6.849,15.002C6.853,15.096 6.597,15.236 6.237,15.237C5.876,15.239 5.629,15.085 5.622,14.981C5.615,14.877 5.873,14.556 6.035,14.548Z" style="fill:rgb(184,147,127);"/><path d="M12.601,14.493C12.777,14.495 13.064,14.661 13.061,14.917C13.058,15.107 12.759,15.202 12.418,15.203C12.077,15.204 11.837,15.115 11.837,14.949C11.836,14.753 12.425,14.49 12.601,14.493Z" style="fill:rgb(184,147,127);"/><path d="M4.842,14.315C2.758,14.337 1.726,11.135 1.715,10.027C1.703,8.905 1.715,6.969 1.715,6.969C1.715,6.969 3.331,6.979 3.852,6.877C4.213,6.806 4.842,6.354 4.842,6.354L4.842,14.315Z" style="fill:rgb(46,204,113);"/><g transform="matrix(1,0,0,2.0296,0,-5.33563)"><path d="M4.842,5.76L4.842,9.682C6.747,9.672 7.935,8.255 7.92,7.573C7.909,7.02 7.92,6.062 7.92,6.062C7.92,6.062 6.312,6.055 5.799,6.005C5.39,5.965 4.842,5.76 4.842,5.76Z" style="fill:rgb(43,192,106);"/></g><path d="M1.715,6.969C1.715,6.969 3.331,6.979 3.852,6.877C4.213,6.806 4.842,6.354 4.842,6.354C4.842,6.354 5.39,6.77 5.799,6.852C6.312,6.954 7.92,6.969 7.92,6.969C7.92,6.969 7.909,8.912 7.92,10.034C7.935,11.418 6.747,14.296 4.842,14.315C2.758,14.337 1.726,11.135 1.715,10.027C1.703,8.905 1.715,6.969 1.715,6.969" style="fill:none;stroke:rgb(39,174,96);stroke-width:0.29px;"/><path d="M3.454,10.05C3.312,9.915 3.307,9.69 3.442,9.549C3.578,9.408 3.802,9.403 3.943,9.538C3.943,9.538 4.554,10.122 4.554,10.122L5.982,8.677C6.119,8.538 6.343,8.537 6.482,8.674C6.621,8.811 6.623,9.036 6.485,9.175L4.813,10.867C4.677,11.005 4.456,11.008 4.317,10.874L3.454,10.05Z" style="fill:white;"/></g></svg>