<svg width="100%" height="100%" viewBox="0 0 18 16" version="1.1" xmlns="http://www.w3.org/2000/svg" xmlns:xlink="http://www.w3.org/1999/xlink" xml:space="preserve" style="fill-rule:evenodd;clip-rule:evenodd;stroke-linejoin:round;stroke-miterlimit:2;"><g id="cassandra" transform="matrix(0.0742986,1.71713e-33,-1.71713e-33,-0.0742986,-1.88582,57.9129)"><g id="g2828"><g id="g2830"><g id="g2836" transform="matrix(1,0,0,1,210.878,690.483)"><path id="path2838" d="M0,0C1.584,-18.452 -27.455,-36.014 -64.859,-39.223C-102.263,-42.432 -133.869,-30.072 -135.451,-11.621C-137.035,6.834 -107.996,24.395 -70.592,27.604C-33.188,30.812 -1.582,18.455 0,0" style="fill:rgb(187,230,251);fill-rule:nonzero;"/></g></g></g><g id="g2840"><g id="g2842"><g id="g2848"><g id="g2856"><g id="g2858"><clipPath id="_clip-e57yeks"><rect x="96.008" y="653.754" width="88.29" height="62.176"/></clipPath><g clip-path="url(#_clip-e57yeks)"><g opacity="0.35"><g id="g2860" transform="matrix(1,0,0,1,141.384,715.923)"><path id="path2862" d="M0,0C-14.268,0.232 -30.964,-5.433 -43.387,-10.738C-44.68,-14.464 -45.376,-18.427 -45.376,-22.535C-45.376,-44.423 -25.612,-62.169 -1.231,-62.169C23.15,-62.169 42.914,-44.423 42.914,-22.535C42.914,-15.608 40.93,-9.1 37.451,-3.434C27.512,-1.889 13.842,-0.225 0,0" style="fill:white;fill-rule:nonzero;"/></g></g></g></g></g></g></g></g><g id="g2864"><g id="g2866"><g id="g2872" transform="matrix(1,0,0,1,140.153,715.928)"><path id="path2874" d="M0,0C-7.899,0.482 -21.514,-3.639 -32.867,-7.75C-34.592,-11.821 -35.55,-16.276 -35.55,-20.951C-35.55,-40.129 -18.162,-55.676 0.232,-55.676C18.505,-55.676 34.672,-40.104 36.014,-20.951C36.45,-14.714 34.303,-8.837 31.322,-3.77C19.552,-1.697 7.061,-0.431 0,0" style="fill:white;fill-rule:nonzero;"/></g></g></g><g id="g2876"><g id="g2878"><g id="g2884" transform="matrix(1,0,0,1,119.882,697.495)"><path id="path2886" d="M0,0C0.969,2.146 2.437,3.197 3.859,4.996C3.701,5.422 3.355,6.815 3.355,7.298C3.355,9.454 5.104,11.204 7.261,11.204C7.77,11.204 8.256,11.103 8.701,10.926C15.166,15.853 23.677,18.001 32.23,16.089C33.011,15.913 33.777,15.7 34.529,15.466C26.076,16.638 16.548,13.644 10.067,8.413C10.265,7.946 10.814,6.611 10.814,6.074C10.814,3.917 9.418,3.392 7.261,3.392C6.771,3.392 6.303,3.486 5.87,3.651C4.406,1.685 2.612,-2.06 1.734,-4.401C5.318,-7.607 8.556,-8.769 12.776,-10.346C12.765,-10.145 12.921,-9.959 12.921,-9.754C12.921,-3.251 18.646,2.034 25.15,2.034C30.978,2.034 35.804,-2.204 36.746,-7.764C39.654,-5.914 42.466,-4.496 44.609,-1.754C44.109,-1.144 43.57,0.583 43.57,1.433C43.57,3.39 45.158,4.977 47.115,4.977C47.392,4.977 47.658,4.937 47.917,4.877C49.005,7.113 49.826,9.483 50.351,11.927C40.181,19.456 20.504,18.429 20.504,18.429C20.504,18.429 4.846,19.246 -5.754,14.08C-5.047,8.969 -3.008,4.11 0,0" style="fill:rgb(55,53,53);fill-rule:nonzero;"/></g><g id="g2888" transform="matrix(1,0,0,1,168.491,700.428)"><path id="path2890" d="M0,0C0.719,-0.648 1.111,-1.217 1.42,-1.771C2.371,-3.481 0.463,-5.046 -1.494,-5.046C-1.693,-5.046 -1.885,-5.019 -2.076,-4.987C-4.281,-8.433 -8.143,-12.852 -11.574,-15.076C-6.313,-15.938 -1.352,-18.045 2.596,-21.301C5.471,-16.15 7.676,-8.712 7.676,-2.394C7.676,2.415 5.553,5.94 2.348,8.526C2.18,5.95 0.805,2.347 0,0" style="fill:rgb(55,53,53);fill-rule:nonzero;"/></g><g id="g2892" transform="matrix(1,0,0,1,125.784,667.803)"><path id="path2894" d="M0,0C1.753,4.841 6.065,8.592 10.144,11.892C9.547,12.709 8.652,14.732 8.279,15.69C3.304,17.203 -1.098,20.035 -4.512,23.784C-4.537,23.675 -4.568,23.569 -4.594,23.46C-5.237,20.579 -5.355,17.692 -5.035,14.876C-2.653,14.432 -0.85,12.345 -0.85,9.834C-0.85,8.345 -2.155,6.187 -3.168,5.248C-2.067,2.872 -1.316,1.726 0,0" style="fill:rgb(55,53,53);fill-rule:nonzero;"/></g><g id="g2896" transform="matrix(1,0,0,1,125.476,663.739)"><path id="path2898" d="M0,0C-2.091,2.079 -3.537,6.226 -4.894,8.83C-5.148,8.791 -5.408,8.764 -5.674,8.764C-8.51,8.764 -11.481,11.144 -10.809,13.898C-10.437,15.422 -9.385,16.419 -7.672,17.251C-8.062,20.408 -8.168,24.946 -7.435,28.228C-7.225,29.167 -6.78,29.607 -6.485,30.501C-9.614,35.08 -11.636,41.09 -11.636,47.053C-11.636,47.271 -11.625,47.486 -11.62,47.702C-16.908,45.05 -20.873,40.872 -20.873,34.295C-20.873,19.747 -12.494,5.476 -0.027,-0.118C-0.018,-0.079 -0.01,-0.039 0,0" style="fill:rgb(55,53,53);fill-rule:nonzero;"/></g><g id="g2900" transform="matrix(1,0,0,1,156.131,683.851)"><path id="path2902" d="M0,0C-1.611,-4.582 -5.967,-7.873 -11.1,-7.873C-13.846,-7.873 -16.365,-6.926 -18.367,-5.352C-22.494,-8.566 -26.238,-14.212 -28.141,-19.11C-27.287,-20.029 -26.692,-20.785 -25.734,-21.6C-22.847,-22.352 -18.871,-21.6 -15.746,-21.6C-3.176,-21.6 7.957,-16.008 14.34,-6.202C10.096,-3.263 5.09,-0.466 0,0" style="fill:rgb(55,53,53);fill-rule:nonzero;"/></g></g></g><g id="g2904"><g id="g2906"><g id="g2912" transform="matrix(1,0,0,1,119.56,695.794)"><path id="path2914" d="M0,0C0.969,2.146 2.184,4.132 3.605,5.931C3.447,6.356 3.355,6.815 3.355,7.298C3.355,9.454 5.104,11.204 7.261,11.204C7.77,11.204 8.256,11.103 8.701,10.926C15.166,15.853 23.677,18.001 32.23,16.089C33.011,15.913 33.777,15.7 34.529,15.466C26.076,16.638 17.342,14.047 10.861,8.815C11.059,8.349 11.167,7.835 11.167,7.298C11.167,5.141 9.418,3.392 7.261,3.392C6.771,3.392 6.303,3.486 5.87,3.651C4.406,1.685 3.209,-0.487 2.331,-2.829C5.409,-6.146 9.187,-8.769 13.406,-10.346C13.396,-10.145 13.375,-9.946 13.375,-9.741C13.375,-3.238 18.646,2.034 25.15,2.034C30.978,2.034 35.804,-2.204 36.746,-7.764C39.654,-5.914 42.238,-3.538 44.38,-0.796C43.88,-0.186 43.57,0.583 43.57,1.433C43.57,3.39 45.158,4.977 47.115,4.977C47.392,4.977 47.658,4.937 47.917,4.877C49.005,7.113 49.826,9.483 50.351,11.927C40.181,19.456 20.504,18.429 20.504,18.429C20.504,18.429 4.846,19.246 -5.754,14.08C-5.047,8.969 -3.008,4.11 0,0" style="fill:rgb(18,135,177);fill-rule:nonzero;"/></g><g id="g2916" transform="matrix(1,0,0,1,169.04,699.848)"><path id="path2918" d="M0,0C0.719,-0.648 1.18,-1.577 1.18,-2.621C1.18,-4.578 -0.408,-6.166 -2.365,-6.166C-2.564,-6.166 -2.756,-6.139 -2.947,-6.107C-5.152,-9.553 -8.074,-12.491 -11.506,-14.715C-6.434,-15.508 -1.66,-17.66 2.287,-20.916C5.162,-15.765 6.805,-9.832 6.805,-3.514C6.805,1.295 4.682,4.82 1.477,7.406C1.309,4.83 0.805,2.347 0,0" style="fill:rgb(18,135,177);fill-rule:nonzero;"/></g><g id="g2920" transform="matrix(1,0,0,1,126.325,666.64)"><path id="path2922" d="M0,0C1.753,4.841 4.799,9.185 8.878,12.484C8.281,13.302 7.789,14.195 7.416,15.153C2.44,16.666 -1.961,19.498 -5.375,23.247C-5.4,23.138 -5.432,23.032 -5.457,22.923C-6.101,20.042 -6.219,17.155 -5.898,14.339C-3.517,13.895 -1.713,11.808 -1.713,9.297C-1.713,7.808 -2.352,6.469 -3.365,5.53C-2.446,3.582 -1.316,1.726 0,0" style="fill:rgb(18,135,177);fill-rule:nonzero;"/></g><g id="g2924" transform="matrix(1,0,0,1,125.462,663.798)"><path id="path2926" d="M0,0C-2.091,2.079 -3.846,4.467 -5.202,7.07C-5.457,7.031 -5.717,7.005 -5.982,7.005C-8.818,7.005 -11.117,9.304 -11.117,12.139C-11.117,14.171 -9.933,15.923 -8.22,16.755C-8.609,19.911 -8.477,23.187 -7.743,26.469C-7.533,27.407 -7.277,28.323 -6.982,29.218C-10.111,33.796 -11.944,39.331 -11.944,45.294C-11.944,45.512 -11.934,45.727 -11.929,45.942C-17.217,43.291 -21.182,39.112 -21.182,32.536C-21.182,17.987 -12.494,5.476 -0.027,-0.118C-0.018,-0.079 -0.01,-0.039 0,0" style="fill:rgb(18,135,177);fill-rule:nonzero;"/></g><g id="g2928" transform="matrix(1,0,0,1,155.809,682.151)"><path id="path2930" d="M0,0C-1.611,-4.582 -5.967,-7.873 -11.1,-7.873C-13.846,-7.873 -16.365,-6.926 -18.367,-5.352C-22.494,-8.566 -25.609,-12.947 -27.511,-17.846C-26.658,-18.765 -25.746,-19.631 -24.788,-20.445C-21.9,-21.197 -18.871,-21.6 -15.746,-21.6C-3.176,-21.6 7.875,-15.11 14.258,-5.305C10.014,-2.365 5.09,-0.466 0,0" style="fill:rgb(18,135,177);fill-rule:nonzero;"/></g></g></g><g id="g2932"><g id="g2934"><g id="g2940"><g id="g2948"><g id="g2950"><clipPath id="_clip-dd67h3w"><rect x="121.202" y="662.519" width="45.899" height="45.859"/></clipPath><g clip-path="url(#_clip-dd67h3w)"><g id="g2952" transform="matrix(1,0,0,1,156.222,685.187)"><path id="path2954" d="M0,0L10.879,2.595L-0.041,3.152L8.846,9.944L-1.238,6.329L5.615,15.826L-3.85,9.535L-0.541,20.652L-7.041,11.489L-7.189,23.068L-11.466,12.754L-15.032,23.191L-14.839,10.896L-21.002,21.917L-17.667,10.215L-27.664,17.485L-19.833,7.645L-32.244,12.209L-22.449,4.962L-35.009,4.576L-22.167,1.262L-35.02,-1.517L-22.333,-2.437L-33.032,-9.288L-22.015,-5.294L-29.659,-14.975L-20,-7.185L-23.478,-20.176L-16.021,-9.604L-17.066,-22.09L-12.833,-10.771L-9.23,-22.668L-8.354,-10.735L-3.006,-20.916L-6.166,-9.271L3.627,-16.857L-2.695,-7.185L8.049,-11.371L-0.166,-3.298L10.85,-4.164L0,0Z" style="fill:white;fill-rule:nonzero;"/></g></g></g></g></g></g></g><g id="g2956"><g id="g2958"><g id="g2964"><g id="g2972"><g id="g2974"><clipPath id="_clip-4qce4pg"><rect x="40.403" y="664.37" width="212.402" height="61.818"/></clipPath><g clip-path="url(#_clip-4qce4pg)"><g opacity="0.35"><g id="g2976" transform="matrix(1,0,0,1,40.4033,664.37)"><path id="path2978" d="M0,0C33.74,33.739 60.687,44.155 85.143,48.91C88.379,49.539 88.991,56.61 88.991,56.61C88.991,56.61 89.444,51.402 91.709,50.723C93.973,50.043 96.916,58.875 96.916,58.875C96.916,58.875 94.199,50.949 96.916,50.496C99.634,50.043 104.615,58.195 104.615,58.195C104.615,58.195 102.578,51.176 103.937,50.723C105.294,50.27 112.087,60.912 112.087,60.912C112.087,60.912 108.011,53.893 111.861,53.213C115.712,52.534 121.328,58.004 121.328,58.004C121.328,58.004 116.912,52.999 118.88,52.308C127.259,49.363 134.039,60.253 134.039,60.253C134.039,60.253 132.468,55.478 128.392,50.27C137.222,48.006 143.781,61.309 143.781,61.309L137.222,48.006C140.619,46.193 154.207,61.818 154.207,61.818C154.207,61.818 147.187,49.59 143.111,47.1C145.375,45.288 153.527,52.534 153.527,52.534C153.527,52.534 146.96,44.383 149.451,43.93C153.074,40.986 166.433,59.101 166.433,59.101C166.433,59.101 161.226,48.459 153.527,40.08C159.962,36.861 175.945,57.516 175.945,57.516C175.945,57.516 175.492,50.949 163.943,40.533C172.548,41.665 183.644,57.969 183.644,57.969C183.644,57.969 179.568,45.741 169.83,37.137C178.279,38.016 191.794,58.875 191.794,58.875C191.794,58.875 186.587,44.383 175.945,36.004C187.72,33.4 204.703,50.949 204.703,50.949C204.703,50.949 198.023,38.494 189.304,33.4C199.042,29.664 212.402,45.062 212.402,45.062C212.402,45.062 199.042,24.455 177.757,25.361C170.773,25.658 149.648,46.549 104.389,44.835C44.609,42.57 31.929,17.209 0,0" style="fill:rgb(55,53,53);fill-rule:nonzero;"/></g></g></g></g></g></g><g id="g2980" transform="matrix(1,0,0,1,41.7861,666.933)"><path id="path2982" d="M0,0C33.74,33.739 60.686,44.154 85.142,48.91C88.379,49.539 88.991,56.609 88.991,56.609C88.991,56.609 89.443,51.4 91.709,50.722C93.973,50.043 96.916,58.873 96.916,58.873C96.916,58.873 94.199,50.947 96.916,50.495C99.634,50.043 104.615,58.194 104.615,58.194C104.615,58.194 102.578,51.175 103.935,50.722C105.294,50.269 112.087,60.912 112.087,60.912C112.087,60.912 108.011,53.892 111.861,53.213C115.71,52.533 121.328,58.003 121.328,58.003C121.328,58.003 116.912,52.998 118.88,52.307C127.259,49.363 134.037,60.252 134.037,60.252C134.037,60.252 132.466,55.477 128.392,50.269C137.222,48.004 143.781,61.309 143.781,61.309L137.222,48.004C140.619,46.193 154.205,61.816 154.205,61.816C154.205,61.816 147.187,49.59 143.111,47.099C145.375,45.287 153.527,52.533 153.527,52.533C153.527,52.533 146.96,44.381 149.451,43.929C153.074,40.984 166.433,59.1 166.433,59.1C166.433,59.1 161.224,48.457 153.527,40.079C159.962,36.859 175.945,57.515 175.945,57.515C175.945,57.515 175.492,50.947 163.943,40.531C172.548,41.664 183.644,57.968 183.644,57.968C183.644,57.968 179.568,45.74 169.83,37.135C178.279,38.014 191.794,58.873 191.794,58.873C191.794,58.873 186.587,44.381 175.945,36.003C187.72,33.399 204.703,50.947 204.703,50.947C204.703,50.947 198.023,38.494 189.304,33.399C199.042,29.663 212.402,45.061 212.402,45.061C212.402,45.061 199.042,24.454 177.755,25.36C170.773,25.658 149.648,46.549 104.388,44.834C44.609,42.57 31.928,17.209 0,0" style="fill:rgb(55,53,53);fill-rule:nonzero;"/></g></g></g><g id="g2984"><g id="g2986"><g id="g2992"><g id="g3000"><g id="g3002" opacity="0.35"><g id="g3004" transform="matrix(1,0,0,1,39.5195,660.68)"><path id="path3006" d="M0,0C17.832,-8.945 34.137,1.358 54.686,-4.433C70.309,-8.837 89.331,-14.266 115.144,-10.529C140.958,-6.794 163.037,4.415 173.568,24.456C176.851,33.399 190.21,22.417 190.21,22.417C190.21,22.417 180.474,26.493 180.701,24.568C180.927,22.644 195.306,15.964 195.306,15.964C195.306,15.964 182.285,20.04 183.078,16.983C183.871,13.926 199.38,1.698 199.38,1.698C199.38,1.698 181.832,15.058 180.361,13.247C178.888,11.435 187.833,4.075 187.833,4.075C187.833,4.075 173.001,13.247 167.792,10.542C164.046,8.599 183.191,-3.964 183.191,-3.964C183.191,-3.964 170.736,5.548 167.792,3.057C164.849,0.565 181.832,-19.814 181.832,-19.814C181.832,-19.814 162.583,1.019 160.66,-0C158.734,-1.019 165.98,-10.983 165.98,-10.983C165.98,-10.983 156.47,-0.566 153.867,-2.378C151.263,-4.19 167.453,-31.249 167.453,-31.249C167.453,-31.249 149.904,-3.511 142.658,-8.151C154.037,-33.117 149.791,-36.684 149.791,-36.684C149.791,-36.684 148.339,-11.214 134.166,-11.888C127.033,-12.228 137.562,-30.909 137.562,-30.909C137.562,-30.909 127.871,-13.847 121.417,-14.187C133.312,-36.698 129.072,-45.854 129.072,-45.854C129.072,-45.854 131.039,-26.628 114.906,-15.929C121.019,-21.362 111.07,-45.854 111.07,-45.854C111.07,-45.854 119.822,-9.763 104.615,-16.644C102.212,-17.729 104.445,-34.646 104.445,-34.646C104.445,-34.646 101.388,-15.284 96.804,-16.304C94.131,-16.897 79.82,-43.137 79.82,-43.137C79.82,-43.137 91.539,-14.775 87.973,-15.964C85.375,-16.831 80.5,-28.532 80.5,-28.532C80.5,-28.532 82.877,-16.983 80.5,-16.304C78.123,-15.624 64.875,-28.532 64.875,-28.532C64.875,-28.532 74.726,-16.983 73.027,-14.605C70.453,-11.002 67.436,-10.833 63.856,-12.228C58.647,-14.258 51.629,-23.776 51.629,-23.776C51.629,-23.776 58.625,-14.139 57.402,-10.529C55.439,-4.729 35.325,-21.738 35.325,-21.738C35.325,-21.738 47.213,-10.529 44.496,-8.151C41.779,-5.774 27.025,-6.509 22.418,-6.496C8.832,-6.454 4.124,-3.267 0,0" style="fill:rgb(55,53,53);fill-rule:nonzero;"/></g></g></g></g><g id="g3008" transform="matrix(1,0,0,1,38.8408,662.718)"><path id="path3010" d="M0,0C17.832,-8.945 34.136,1.358 54.685,-4.434C70.308,-8.836 89.331,-14.266 115.145,-10.529C140.959,-6.793 163.036,4.416 173.567,24.455C176.85,33.399 190.209,22.418 190.209,22.418C190.209,22.418 180.473,26.493 180.7,24.568C180.926,22.644 195.305,15.964 195.305,15.964C195.305,15.964 182.284,20.039 183.077,16.982C183.87,13.926 199.381,1.698 199.381,1.698C199.381,1.698 181.831,15.059 180.36,13.246C178.889,11.435 187.833,4.076 187.833,4.076C187.833,4.076 173,13.246 167.792,10.543C164.045,8.599 183.19,-3.963 183.19,-3.963C183.19,-3.963 170.735,5.548 167.792,3.057C164.848,0.565 181.833,-19.814 181.833,-19.814C181.833,-19.814 162.583,1.019 160.659,0C158.735,-1.02 165.981,-10.982 165.981,-10.982C165.981,-10.982 156.469,-0.566 153.866,-2.378C151.262,-4.189 167.452,-31.249 167.452,-31.249C167.452,-31.249 149.903,-3.51 142.657,-8.152C154.036,-33.117 149.79,-36.684 149.79,-36.684C149.79,-36.684 148.338,-11.214 134.165,-11.889C127.032,-12.229 137.561,-30.909 137.561,-30.909C137.561,-30.909 127.87,-13.846 121.417,-14.186C133.313,-36.698 129.071,-45.854 129.071,-45.854C129.071,-45.854 131.038,-26.627 114.905,-15.928C121.018,-21.362 111.069,-45.854 111.069,-45.854C111.069,-45.854 119.823,-9.763 104.616,-16.644C102.213,-17.73 104.446,-34.646 104.446,-34.646C104.446,-34.646 101.387,-15.285 96.804,-16.304C94.13,-16.897 79.819,-43.137 79.819,-43.137C79.819,-43.137 91.538,-14.775 87.972,-15.965C85.374,-16.83 80.499,-28.531 80.499,-28.531C80.499,-28.531 82.877,-16.983 80.499,-16.304C78.122,-15.625 64.875,-28.531 64.875,-28.531C64.875,-28.531 74.726,-16.983 73.026,-14.605C70.452,-11.002 67.435,-10.834 63.856,-12.229C58.646,-14.258 51.628,-23.776 51.628,-23.776C51.628,-23.776 58.624,-14.138 57.402,-10.529C55.438,-4.73 35.325,-21.738 35.325,-21.738C35.325,-21.738 47.213,-10.529 44.495,-8.152C41.778,-5.774 27.024,-6.51 22.417,-6.496C8.831,-6.453 4.124,-3.267 0,0" style="fill:rgb(55,53,53);fill-rule:nonzero;"/></g></g></g></g></svg>