<svg width="100%" height="100%" viewBox="0 0 18 16" version="1.1" xmlns="http://www.w3.org/2000/svg" xmlns:xlink="http://www.w3.org/1999/xlink" xml:space="preserve" style="fill-rule:evenodd;clip-rule:evenodd;stroke-linejoin:round;stroke-miterlimit:2;"><g id="cedar" transform="matrix(0.0661773,0,0,0.0661773,20.1185,7.48692)"><g transform="matrix(1,0,0,1,-244.471,-105.632)"><path d="M54.39,147.455C54.39,146.643 54.719,145.866 55.302,145.301L74.034,127.133C75.197,126.004 77.047,126.004 78.211,127.133L96.943,145.301C97.525,145.866 97.854,146.643 97.854,147.455L97.854,223.717C97.854,225.374 96.511,226.717 94.854,226.717L57.39,226.717C55.734,226.717 54.39,225.374 54.39,223.717L54.39,147.455Z" style="fill:rgb(166,92,25);fill-rule:nonzero;"/></g><g transform="matrix(1,0,0,1,-244.471,-105.632)"><path d="M73.219,0.932C74.39,-0.24 76.29,-0.24 77.461,0.932L95.682,19.153C96.854,20.324 96.854,22.224 95.682,23.395L24.197,94.88C23.026,96.052 21.126,96.052 19.955,94.88L1.734,76.659C0.562,75.488 0.562,73.588 1.734,72.417L73.219,0.932Z" style="fill:rgb(113,166,33);fill-rule:nonzero;"/></g><g transform="matrix(1,0,0,1,-244.471,-105.632)"><path d="M73.219,62.71C74.39,61.539 76.29,61.539 77.461,62.71L95.682,80.931C96.854,82.103 96.854,84.002 95.682,85.174L24.197,156.659C23.026,157.83 21.126,157.83 19.955,156.659L1.734,138.438C0.562,137.266 0.562,135.367 1.734,134.195L73.219,62.71Z" style="fill:rgb(81,115,47);fill-rule:nonzero;"/></g><g transform="matrix(1,0,0,1,-244.471,-105.632)"><path d="M109.902,31.285C108.731,30.114 106.831,30.114 105.66,31.285L87.439,49.506C86.267,50.678 86.267,52.577 87.439,53.749L128.721,95.031C129.892,96.202 131.792,96.202 132.963,95.031L151.184,76.81C152.356,75.638 152.356,73.739 151.184,72.567L109.902,31.285Z" style="fill:rgb(113,166,33);fill-rule:nonzero;"/></g><g transform="matrix(1,0,0,1,-244.471,-105.632)"><path d="M109.902,92.914C108.731,91.742 106.831,91.742 105.66,92.914L87.439,111.135C86.267,112.306 86.267,114.206 87.439,115.377L128.721,156.659C129.892,157.831 131.792,157.831 132.963,156.659L151.184,138.438C152.356,137.267 152.356,135.367 151.184,134.196L109.902,92.914Z" style="fill:rgb(81,115,47);fill-rule:nonzero;"/></g></g></svg>