<svg width="100%" height="100%" viewBox="0 0 18 16" version="1.1" xmlns="http://www.w3.org/2000/svg" xmlns:xlink="http://www.w3.org/1999/xlink" xml:space="preserve" style="fill-rule:evenodd;clip-rule:evenodd;stroke-linecap:round;stroke-linejoin:round;stroke-miterlimit:1;"><g transform="matrix(0.902608,0,0,0.902608,0.876525,0.602056)"><g transform="matrix(1.47167,0,0,1.07409,-1.99349,-0.602504)"><path d="M11.207,7.104L11.207,14.31C11.207,14.634 11.016,14.896 10.779,14.896L4.161,14.896C3.925,14.896 3.733,14.634 3.733,14.31L3.733,7.104C3.733,6.78 3.925,6.517 4.161,6.517L10.779,6.517C11.016,6.517 11.207,6.78 11.207,7.104Z" style="fill:none;stroke:rgb(114,134,149);stroke-width:1.04px;"/></g><g transform="matrix(0.965117,0,0,1,0.250149,1.72903)"><path d="M4.922,4.669L4.922,3.152L4.924,3.152C4.922,3.106 4.922,3.059 4.922,3.012C4.922,0.944 6.779,-0.734 9.066,-0.734C11.354,-0.734 13.211,0.944 13.211,3.012C13.211,3.059 13.21,4.423 13.208,4.47" style="fill:none;stroke:rgb(114,134,149);stroke-width:1.36px;"/></g><g transform="matrix(1.14743,0,0,1.09858,-1.46757,-0.141442)"><ellipse cx="9.118" cy="9.607" rx="0.837" ry="0.886" style="fill:none;stroke:rgb(114,134,149);stroke-width:0.82px;"/></g><g transform="matrix(1,0,0,1,0.0103342,1)"><path d="M8.995,10.386L8.974,12.185" style="fill:none;stroke:rgb(114,134,149);stroke-width:0.92px;"/></g></g></svg>