<svg width="100%" height="100%" viewBox="0 0 18 16" version="1.1" xmlns="http://www.w3.org/2000/svg" xmlns:xlink="http://www.w3.org/1999/xlink" xml:space="preserve" style="fill-rule:evenodd;clip-rule:evenodd;stroke-linecap:round;stroke-linejoin:round;stroke-miterlimit:1;"><g id="cert-1-light" transform="matrix(1.10597,0,0,1.10597,-0.953713,-0.957637)"><g transform="matrix(1.02353,0,0,0.880576,-0.377319,0.585184)"><ellipse cx="9.162" cy="4.564" rx="0.977" ry="1.136" style="fill:none;stroke:white;stroke-opacity:0.6;stroke-width:0.79px;"/></g><g transform="matrix(1.07015,0,0,1.07798,-0.65508,-0.552953)"><path d="M7.445,8.37C6.402,7.812 5.693,6.717 5.693,5.46C5.693,3.636 7.185,2.155 9.022,2.155C10.859,2.155 12.351,3.636 12.351,5.46C12.351,6.697 11.665,7.776 10.651,8.342L11.294,9.075C11.465,9.27 11.466,9.561 11.296,9.758C11.296,9.758 10.476,10.705 10.476,10.705L11.02,11.363C11.187,11.566 11.177,11.86 10.996,12.051L9.405,13.733C9.207,13.942 8.877,13.954 8.665,13.758L7.613,12.79C7.506,12.691 7.445,12.552 7.445,12.407L7.445,8.37ZM10.315,7.321C10.91,6.913 11.3,6.231 11.3,5.46C11.3,4.212 10.279,3.199 9.022,3.199C7.765,3.199 6.744,4.212 6.744,5.46C6.744,6.115 7.026,6.706 7.476,7.12C7.759,7.379 8.108,7.569 8.496,7.66L8.496,8.723L8.496,12.179L8.997,12.641L9.914,11.671L9.383,11.029C9.221,10.833 9.224,10.55 9.391,10.357L10.202,9.42L9.393,8.498C9.31,8.403 9.264,8.281 9.264,8.155L9.264,7.708C9.651,7.668 10.01,7.53 10.315,7.321Z" style="fill:white;fill-opacity:0.6;"/></g></g></svg>