<svg width="100%" height="100%" viewBox="0 0 18 16" version="1.1" xmlns="http://www.w3.org/2000/svg" xmlns:xlink="http://www.w3.org/1999/xlink" xml:space="preserve" style="fill-rule:evenodd;clip-rule:evenodd;stroke-linejoin:round;stroke-miterlimit:2;"><g id="checkly" transform="matrix(0.226128,0,0,0.226128,1.76808,0.5)"><path d="M35.605,0C48.985,0 55.673,0 59.829,4.157L59.806,4.157C63.963,8.313 63.963,15.003 63.963,28.381L63.963,33.088C63.963,46.468 63.963,53.156 59.806,57.312C59.084,58.034 58.265,58.652 57.373,59.149C56.408,59.686 55.37,60.079 54.309,60.374C53.763,60.528 53.209,60.652 52.652,60.758C52.555,60.776 51.674,60.93 51.288,61.002L51.106,61.038L12.856,61.038L12.674,61.002L11.31,60.758C10.753,60.653 10.2,60.525 9.653,60.374C8.592,60.08 7.553,59.686 6.589,59.149C5.697,58.652 4.878,58.034 4.156,57.312C0,53.156 0,46.466 0,33.088L0,28.381C0,15 0,8.313 4.157,4.157C8.313,0 15,0 28.378,0L35.605,0Z" style="fill:rgb(0,117,255);fill-rule:nonzero;"/><path d="M51.412,45.925C51.641,47.185 52.963,48.01 54.082,48.4L54.091,48.398C54.091,48.398 56.048,49.281 57.845,49.352C57.845,49.352 55.687,56.017 50.981,59.856L50.954,59.876L40.303,62.586L36.107,63.82L27.902,63.82L23.706,62.586L13.05,59.876L13.023,59.856C8.317,56.016 6.16,49.352 6.16,49.352C7.955,49.282 9.915,48.398 9.915,48.398C11.034,48.006 12.357,47.183 12.585,45.923C12.709,45.228 12.423,44.596 12.093,44.005C11.059,42.152 10.335,40.135 9.786,38.089C9.235,36.034 8.772,33.922 8.598,31.818C8.507,30.715 8.252,29.098 9.342,28.393C9.68,28.175 10.074,28.063 10.466,27.978C14.936,27.016 19.163,29.883 22.631,32.375L22.751,32.325C22.991,32.205 23.241,32.099 23.495,32.01C23.912,31.863 24.333,31.75 24.758,31.658C26.75,31.138 29.217,30.837 31.889,30.837L31.899,30.839L31.999,30.839C32.032,30.839 32.065,30.841 32.099,30.839L32.109,30.839C34.781,30.839 37.249,31.139 39.24,31.66C39.665,31.751 40.086,31.865 40.503,32.012C40.756,32.102 41.007,32.207 41.247,32.328L41.367,32.378C44.834,29.883 49.063,27.018 53.532,27.98C53.924,28.063 54.318,28.177 54.656,28.395C55.746,29.1 55.491,30.717 55.4,31.82C55.226,33.924 54.761,36.036 54.212,38.09C53.662,40.137 52.939,42.152 51.905,44.007C51.575,44.598 51.287,45.23 51.413,45.925L51.412,45.925Z" style="fill:white;fill-rule:nonzero;"/><path d="M12.242,30.67C11.999,30.721 11.755,30.791 11.545,30.926C10.927,31.326 11.006,32.199 11.067,32.867L11.083,33.047C11.191,34.351 11.477,35.659 11.819,36.932C12.057,37.819 12.349,38.696 12.723,39.538C13.134,38.902 13.593,38.298 14.097,37.732C14.495,37.282 14.906,36.868 15.317,36.488C17.553,34.419 19.779,33.391 19.779,33.391C17.632,31.847 15.011,30.072 12.244,30.667L12.242,30.669L12.242,30.67ZM23.752,62.313L23.752,62.304L23.762,62.261L23.768,62.233L23.785,62.161L23.994,61.224C24.084,60.86 24.181,60.497 24.288,60.136C24.556,59.236 24.892,58.324 25.536,57.642C26.189,56.952 27.082,56.572 27.961,56.197L28.265,56.067C29.235,55.646 30.234,55.115 30.756,54.194C31.266,53.294 31.216,52.148 30.788,51.209C30.512,50.606 30.095,50.079 29.604,49.627C29.331,49.377 29.039,49.148 28.731,48.943C26.274,47.291 22.957,47.003 20.252,48.208C17.924,49.244 16.135,51.269 14.987,53.546C14.593,54.326 14.265,55.138 13.991,55.967C13.718,56.798 13.496,57.647 13.309,58.502L13.301,58.544L13.282,58.639L13.26,58.751C13.251,58.794 13.243,58.838 13.235,58.881L13.214,58.987L13.21,59.008C13.19,59.11 13.168,59.213 13.15,59.313L13.098,59.573L13.091,59.609C13.087,59.626 13.084,59.642 13.081,59.659L13.075,59.694L13.071,59.719L13.071,59.725C13.067,59.749 13.062,59.772 13.057,59.796C13.05,59.825 13.047,59.854 13.042,59.883C12.987,60.181 12.938,60.481 12.895,60.781L12.89,60.814C12.888,60.826 12.886,60.839 12.884,60.851L12.884,60.868L12.879,60.913L12.866,61.015L12.866,61.035C12.928,61.048 12.992,61.054 13.056,61.061L13.133,61.069L13.158,61.072C13.293,61.086 13.428,61.101 13.563,61.118L13.734,61.138L14.154,61.187L14.382,61.214L14.64,61.245L15.188,61.314C15.388,61.338 15.588,61.364 15.788,61.39L16.112,61.432L16.436,61.473L17.12,61.564C17.358,61.595 17.596,61.629 17.835,61.662C18.055,61.692 18.272,61.722 18.49,61.754L18.573,61.765L18.949,61.819C19.075,61.837 19.2,61.856 19.326,61.873L19.411,61.886C19.636,61.919 19.862,61.952 20.086,61.987L20.466,62.047L20.847,62.105L21.494,62.21L21.614,62.23L22.34,62.352L22.946,62.46L23.057,62.48L23.511,62.566L23.708,62.595L23.766,62.315L23.752,62.313ZM23.49,53.019C23.49,52.18 24.181,51.489 25.02,51.489C25.859,51.489 26.55,52.18 26.55,53.019C26.55,53.858 25.859,54.549 25.02,54.549C24.181,54.549 23.49,53.858 23.49,53.019ZM32.101,61.5L32.074,61.5L31.994,61.498C31.959,61.498 31.932,61.498 31.914,61.5L31.888,61.5C31.822,61.496 29.091,61.313 27.891,63.826L27.891,63.828C27.891,63.828 29.309,66.328 31.886,66.334L31.9,66.334C31.922,66.334 31.944,66.333 31.966,66.331L31.999,66.328L32.032,66.331C32.054,66.333 32.077,66.334 32.099,66.334L32.111,66.334C34.688,66.326 36.106,63.826 36.106,63.826L36.106,63.824C34.905,61.312 32.176,61.494 32.109,61.498L32.101,61.5ZM51.108,60.851L51.108,60.868L51.12,60.866L51.123,60.89C51.128,60.924 51.136,60.982 51.139,61.013L51.139,61.033C51.076,61.044 51.013,61.053 50.949,61.059C50.923,61.061 50.897,61.064 50.871,61.067C50.784,61.075 50.699,61.085 50.612,61.096L50.442,61.116L50.27,61.136C50.131,61.151 49.994,61.168 49.858,61.184L49.852,61.184C49.688,61.204 49.526,61.222 49.364,61.243L48.817,61.311C48.616,61.338 48.417,61.363 48.216,61.388C48,61.415 47.785,61.442 47.569,61.471L47.227,61.517C46.994,61.547 46.76,61.579 46.527,61.611L46.17,61.66L45.8,61.712L45.799,61.712L45.432,61.763C45.181,61.799 44.93,61.833 44.679,61.871L44.592,61.884C44.368,61.917 44.142,61.95 43.918,61.985L43.538,62.045L43.158,62.103C42.905,62.143 42.654,62.184 42.403,62.226C42.158,62.265 41.912,62.306 41.665,62.35C41.425,62.391 41.186,62.435 40.948,62.478C40.797,62.505 40.645,62.534 40.494,62.563L40.297,62.593L40.239,62.313L40.239,62.304C40.233,62.272 40.227,62.24 40.219,62.209L40.208,62.161L39.998,61.224C39.909,60.86 39.812,60.497 39.704,60.136C39.436,59.236 39.101,58.324 38.456,57.642C37.806,56.955 36.913,56.574 36.038,56.2L35.728,56.066C34.758,55.646 33.758,55.115 33.236,54.194C32.726,53.297 32.776,52.148 33.205,51.209C33.483,50.606 33.899,50.079 34.388,49.627C34.66,49.377 34.954,49.149 35.261,48.943C37.72,47.291 41.035,47.003 43.741,48.208C46.068,49.244 47.855,51.269 49.006,53.546C49.4,54.326 49.727,55.138 50.001,55.967C50.273,56.805 50.502,57.656 50.686,58.517L50.688,58.524C50.689,58.531 50.69,58.537 50.691,58.544L50.71,58.639L50.733,58.751C50.736,58.776 50.742,58.801 50.747,58.828L50.757,58.882L50.778,58.987C50.78,58.994 50.781,59.001 50.782,59.008C50.803,59.11 50.824,59.215 50.842,59.313L50.894,59.573L50.903,59.616L50.911,59.659C50.913,59.671 50.915,59.682 50.917,59.694L50.921,59.719L50.921,59.725L50.929,59.761L50.931,59.775L50.936,59.796C50.94,59.825 50.944,59.854 50.95,59.883L50.962,59.947C50.965,59.969 50.969,59.99 50.973,60.012L51.048,60.453L51.098,60.781L51.103,60.817L51.108,60.851ZM37.438,53.019C37.438,53.858 38.129,54.549 38.968,54.549C39.807,54.549 40.498,53.858 40.498,53.019C40.498,52.18 39.807,51.489 38.968,51.489C38.129,51.489 37.438,52.18 37.438,53.019ZM52.44,30.926C52.23,30.792 51.986,30.721 51.743,30.669L51.741,30.667C48.974,30.072 46.353,31.847 44.206,33.391C44.206,33.391 46.432,34.419 48.669,36.488C49.079,36.868 49.489,37.282 49.888,37.732C50.375,38.282 50.841,38.882 51.262,39.538C51.635,38.696 51.928,37.819 52.166,36.932C52.508,35.659 52.794,34.351 52.902,33.047L52.918,32.867C52.978,32.199 53.058,31.327 52.44,30.927L52.44,30.926Z" style="fill:rgb(0,38,82);"/></g></svg>