<svg width="100%" height="100%" viewBox="0 0 18 16" version="1.1" xmlns="http://www.w3.org/2000/svg" xmlns:xlink="http://www.w3.org/1999/xlink" xml:space="preserve" style="fill-rule:evenodd;clip-rule:evenodd;stroke-linejoin:round;stroke-miterlimit:2;"><g id="circleci-light" transform="matrix(0.134875,0,0,0.134875,2,0.905588)"><path d="M38.6,52.6C38.6,45.7 44.2,40.1 51.1,40.1C58,40.1 63.6,45.7 63.6,52.6C63.6,59.5 58,65.1 51.1,65.1C44.2,65.2 38.6,59.5 38.6,52.6ZM51.1,0C26.5,0 5.9,16.8 0.1,39.6C0.1,39.8 0,39.9 0,40.1C0,41.5 1.1,42.6 2.5,42.6L23.7,42.6C24.7,42.6 25.6,42 26,41.1C30.4,31.6 39.9,25 51.1,25C66.3,25 78.7,37.4 78.7,52.6C78.7,67.8 66.3,80.2 51.1,80.2C40,80.2 30.4,73.6 26,64.1C25.6,63.2 24.7,62.6 23.7,62.6L2.5,62.6C1.1,62.6 0,63.7 0,65.1C0,65.3 0,65.4 0.1,65.6C5.9,88.4 26.5,105.2 51.1,105.2C80.2,105.2 103.8,81.6 103.8,52.5C103.8,23.5 80.2,0 51.1,0Z" style="fill:white;fill-rule:nonzero;"/></g></svg>