<svg width="100%" height="100%" viewBox="0 0 18 16" version="1.1" xmlns="http://www.w3.org/2000/svg" xmlns:xlink="http://www.w3.org/1999/xlink" xml:space="preserve" style="fill-rule:evenodd;clip-rule:evenodd;stroke-linecap:round;"><g id="cirrus-dark" transform="matrix(0.0909091,0,0,0.0909091,2.36364,1.6139)"><g id="Shape" transform="matrix(1,0,0,1,7,7)"><path d="M0,126.494L111,126.494" style="fill:none;fill-rule:nonzero;stroke:black;stroke-width:13.5px;"/></g><g id="Shape1" transform="matrix(1,0,0,1,7,7)"><path d="M111,126.494C122.598,126.494 132,117.055 132,105.412C132,93.768 122.598,84.329 111,84.329" style="fill:none;stroke:black;stroke-width:13.5px;"/></g><g id="Shape2" transform="matrix(1,0,0,1,7,7)"><path d="M0,84.329L111,84.329" style="fill:none;fill-rule:nonzero;stroke:black;stroke-width:13.5px;"/></g><g id="Shape3" transform="matrix(1,0,0,1,7,7)"><path d="M111,84.329C122.598,84.329 132,74.891 132,63.247C132,51.604 122.598,42.165 111,42.165" style="fill:none;stroke:black;stroke-width:13.5px;"/></g><g id="Shape4" transform="matrix(1,0,0,1,7,7)"><path d="M0,42.165L111,42.165" style="fill:none;fill-rule:nonzero;stroke:black;stroke-width:13.5px;"/></g><g id="Shape5" transform="matrix(1,0,0,1,7,7)"><path d="M111,42.165C122.598,42.165 132,32.726 132,21.082C132,9.439 122.598,0 111,-0" style="fill:none;stroke:black;stroke-width:13.5px;"/></g></g></svg>