<svg width="100%" height="100%" viewBox="0 0 18 16" version="1.1" xmlns="http://www.w3.org/2000/svg" xmlns:xlink="http://www.w3.org/1999/xlink" xml:space="preserve" style="fill-rule:evenodd;clip-rule:evenodd;stroke-linejoin:round;stroke-miterlimit:2;"><g id="citation" transform="matrix(1,0,0,1,-0.144773,-0.445842)"><path d="M9.191,2.134C9.28,2.134 9.365,2.169 9.428,2.232C9.491,2.295 9.526,2.381 9.526,2.469C9.526,2.647 9.526,2.864 9.526,3.043C9.526,3.231 9.373,3.384 9.185,3.384C7.911,3.384 3.514,3.384 3.514,3.384C3.355,3.384 3.226,3.513 3.226,3.672L3.226,10.979C3.226,11.138 3.355,11.268 3.514,11.268L5.585,11.268C5.911,11.268 6.182,11.518 6.208,11.843C6.208,11.843 6.372,13.892 6.372,13.892L9.237,11.419C9.351,11.322 9.496,11.268 9.646,11.268L14.024,11.268C14.183,11.268 14.312,11.138 14.312,10.979L14.312,8.305C14.312,8.227 14.343,8.152 14.399,8.096C14.454,8.041 14.529,8.01 14.607,8.01C14.805,8.01 15.064,8.01 15.262,8.01C15.428,8.01 15.562,8.144 15.562,8.31C15.562,9.064 15.562,10.979 15.562,10.979C15.562,11.828 14.873,12.518 14.024,12.518C14.024,12.518 9.878,12.518 9.878,12.518L6.255,15.643C6.077,15.797 5.828,15.838 5.61,15.748C5.392,15.659 5.243,15.455 5.224,15.22L5.008,12.518L3.514,12.518C2.665,12.518 1.976,11.828 1.976,10.979C1.976,10.979 1.976,3.672 1.976,3.672C1.976,2.823 2.665,2.134 3.514,2.134L9.191,2.134ZM13.816,2.915C13.816,2.915 12.883,1.982 12.378,1.477C12.325,1.424 12.308,1.343 12.337,1.273C12.365,1.202 12.433,1.156 12.509,1.155C13.368,1.14 15.236,1.109 15.992,1.096C16.078,1.095 16.16,1.128 16.221,1.189C16.281,1.25 16.315,1.332 16.313,1.418C16.301,2.144 16.272,3.897 16.257,4.795C16.255,4.889 16.198,4.973 16.111,5.008C16.024,5.043 15.924,5.023 15.858,4.957C15.399,4.498 14.7,3.799 14.7,3.799L10.831,7.583C10.585,7.824 10.189,7.82 9.947,7.573C9.706,7.327 9.711,6.931 9.957,6.69L13.816,2.915Z" style="fill:rgb(114,134,149);"/></g></svg>