<svg width="100%" height="100%" viewBox="0 0 18 16" version="1.1" xmlns="http://www.w3.org/2000/svg" xmlns:xlink="http://www.w3.org/1999/xlink" xml:space="preserve" style="fill-rule:evenodd;clip-rule:evenodd;stroke-linejoin:round;stroke-miterlimit:2;"><g id="clickhouse-dark" transform="matrix(0.641967,0,0,0.641967,0.761315,-4.83912)"><path d="M4.958,10.244L4.958,29.756C4.958,29.959 4.793,30.124 4.59,30.124L3.077,30.124C2.874,30.124 2.708,29.959 2.708,29.756L2.708,10.244C2.708,10.04 2.874,9.875 3.077,9.875L4.59,9.875C4.793,9.875 4.958,10.04 4.958,10.244Z"/><path d="M9.458,10.244L9.458,29.756C9.458,29.959 9.293,30.124 9.09,30.124L7.577,30.124C7.374,30.124 7.209,29.959 7.209,29.756L7.209,10.244C7.209,10.04 7.374,9.875 7.577,9.875L9.09,9.875C9.293,9.875 9.458,10.04 9.458,10.244Z"/><path d="M13.959,10.244L13.959,29.756C13.959,29.959 13.793,30.124 13.59,30.124L12.077,30.124C11.874,30.124 11.709,29.959 11.709,29.756L11.709,10.244C11.709,10.04 11.874,9.875 12.077,9.875L13.59,9.875C13.793,9.875 13.959,10.04 13.959,10.244Z"/><path d="M18.458,10.244L18.458,29.756C18.458,29.959 18.292,30.124 18.089,30.124L16.576,30.124C16.373,30.124 16.208,29.959 16.208,29.756L16.208,10.244C16.208,10.04 16.373,9.875 16.576,9.875L18.089,9.875C18.292,9.875 18.458,10.04 18.458,10.244Z"/><path d="M22.959,18.119L22.959,21.881C22.959,22.085 22.793,22.25 22.59,22.25L21.077,22.25C20.874,22.25 20.709,22.085 20.709,21.881L20.709,18.119C20.709,17.915 20.874,17.75 21.077,17.75L22.59,17.75C22.793,17.75 22.959,17.915 22.959,18.119Z"/></g></svg>