<svg width="100%" height="100%" viewBox="0 0 18 16" version="1.1" xmlns="http://www.w3.org/2000/svg" xmlns:xlink="http://www.w3.org/1999/xlink" xml:space="preserve" style="fill-rule:evenodd;clip-rule:evenodd;stroke-linejoin:round;stroke-miterlimit:2;"><g id="clickhouse"><g transform="matrix(1.07381,0,0,1.16787,0.071922,-0.951721)"><path d="M15.532,3.683L15.532,11.647C15.532,13.112 14.238,14.301 12.645,14.301L3.984,14.301C2.391,14.301 1.097,13.112 1.097,11.647L1.097,3.683C1.097,2.218 2.391,1.029 3.984,1.029L12.645,1.029C14.238,1.029 15.532,2.218 15.532,3.683Z"/></g><g transform="matrix(0.543203,0,0,0.543203,2.0288,-2.86387)"><path d="M4.958,10.311L4.958,29.689C4.958,29.929 4.763,30.124 4.523,30.124L3.144,30.124C2.904,30.124 2.708,29.929 2.708,29.689L2.708,10.311C2.708,10.07 2.904,9.875 3.144,9.875L4.523,9.875C4.763,9.875 4.958,10.07 4.958,10.311Z" style="fill:white;"/><path d="M9.458,10.311L9.458,29.689C9.458,29.929 9.263,30.124 9.023,30.124L7.644,30.124C7.404,30.124 7.209,29.929 7.209,29.689L7.209,10.311C7.209,10.07 7.404,9.875 7.644,9.875L9.023,9.875C9.263,9.875 9.458,10.07 9.458,10.311Z" style="fill:white;"/><path d="M13.959,10.311L13.959,29.689C13.959,29.929 13.763,30.124 13.523,30.124L12.144,30.124C11.904,30.124 11.709,29.929 11.709,29.689L11.709,10.311C11.709,10.07 11.904,9.875 12.144,9.875L13.523,9.875C13.763,9.875 13.959,10.07 13.959,10.311Z" style="fill:white;"/><path d="M18.458,10.311L18.458,29.689C18.458,29.929 18.262,30.124 18.022,30.124L16.643,30.124C16.403,30.124 16.208,29.929 16.208,29.689L16.208,10.311C16.208,10.07 16.403,9.875 16.643,9.875L18.022,9.875C18.262,9.875 18.458,10.07 18.458,10.311Z" style="fill:white;"/><path d="M22.959,18.186L22.959,21.814C22.959,22.055 22.763,22.25 22.523,22.25L21.144,22.25C20.904,22.25 20.709,22.055 20.709,21.814L20.709,18.186C20.709,17.945 20.904,17.75 21.144,17.75L22.523,17.75C22.763,17.75 22.959,17.945 22.959,18.186Z" style="fill:white;"/></g></g></svg>