<svg width="100%" height="100%" viewBox="0 0 18 16" version="1.1" xmlns="http://www.w3.org/2000/svg" xmlns:xlink="http://www.w3.org/1999/xlink" xml:space="preserve" style="fill-rule:evenodd;clip-rule:evenodd;stroke-linejoin:round;stroke-miterlimit:2;"><g id="clojurescript"><g transform="matrix(1.09417,0,0,1.20394,0.211832,-0.992419)"><ellipse cx="8.032" cy="7.469" rx="6.855" ry="6.23" style="fill:white;"/></g><g transform="matrix(1.02123,0,0,1.12368,0.79771,-0.392924)"><path d="M7.504,13.68C3.967,13.435 1.177,10.746 1.177,7.469C1.177,4.192 3.967,1.503 7.504,1.258L7.504,2.151C4.508,2.394 2.157,4.684 2.157,7.469C2.157,10.254 4.508,12.545 7.504,12.787L7.504,13.68Z" style="fill:rgb(145,220,71);"/></g><g transform="matrix(1.02123,0,0,1.12368,0.79771,-0.392924)"><path d="M8.449,1.251C12.038,1.447 14.886,4.158 14.886,7.469C14.886,10.78 12.038,13.491 8.449,13.687L8.449,12.795C11.498,12.601 13.907,10.289 13.907,7.469C13.907,4.65 11.498,2.338 8.449,2.143L8.449,1.251Z" style="fill:rgb(88,129,216);"/></g><path d="M6.32,9.141C6.32,9.141 6.652,9.353 6.645,9.402C6.622,9.567 6.546,9.616 6.546,9.616C6.546,9.616 6.435,9.85 5.913,9.844C5.39,9.838 4.638,9.408 4.583,8.348C4.529,7.289 5.397,6.812 5.909,6.826C6.505,6.844 6.702,7.155 6.702,7.155L6.411,7.464C6.411,7.464 6.355,7.208 5.891,7.23C5.501,7.249 4.959,7.585 5.022,8.322C5.086,9.058 5.487,9.387 5.862,9.381C6.237,9.375 6.32,9.141 6.32,9.141Z" style="fill:rgb(145,220,71);"/><g transform="matrix(1,0,0,1.02732,0,-0.156547)"><rect x="7.721" y="5.73" width="0.516" height="3.912" style="fill:rgb(145,220,71);"/></g><path d="M9.657,6.982C9.657,6.982 9.696,9.786 9.679,10.124C9.664,10.427 9.606,10.533 9.392,10.562C9.179,10.591 8.909,10.559 8.909,10.559C8.909,10.559 8.751,10.934 8.977,10.998C9.204,11.061 9.764,10.997 9.98,10.79C10.196,10.583 10.227,10.174 10.221,9.897C10.214,9.562 10.17,6.988 10.17,6.988L9.657,6.982Z" style="fill:rgb(88,129,216);"/><ellipse cx="9.883" cy="6.149" rx="0.336" ry="0.348" style="fill:rgb(88,129,216);"/><path d="M12.252,6.816C11.685,6.871 11.371,7.208 11.36,7.631C11.345,8.175 11.885,8.337 12.256,8.477C12.627,8.617 12.845,8.697 12.87,8.99C12.894,9.283 12.681,9.43 12.283,9.437C11.769,9.447 11.572,9.215 11.572,9.215C11.469,9.153 11.228,9.275 11.239,9.377C11.239,9.377 11.335,9.919 12.449,9.821C13.005,9.773 13.353,9.417 13.361,8.926C13.372,8.259 12.474,8.077 12.474,8.077C12.474,8.077 11.821,7.968 11.863,7.576C11.889,7.334 11.996,7.203 12.426,7.211C12.78,7.219 13.033,7.425 13.033,7.425C13.11,7.504 13.354,7.297 13.298,7.153C13.261,7.057 12.79,6.765 12.252,6.816Z" style="fill:rgb(88,129,216);"/></g></svg>