<svg width="100%" height="100%" viewBox="0 0 18 16" version="1.1" xmlns="http://www.w3.org/2000/svg" xmlns:xlink="http://www.w3.org/1999/xlink" xml:space="preserve" style="fill-rule:evenodd;clip-rule:evenodd;stroke-linejoin:round;stroke-miterlimit:2;"><g id="clojuredart" transform="matrix(1,0,0,1,0.305153,-0.00435652)"><path d="M8.75,0.764C8.75,0.764 11.357,1.831 12.484,2.246C13.612,2.662 14.301,3.474 14.187,5.004C14.073,6.534 13.86,9.873 13.86,9.873L11.918,11.85C11.918,11.85 11.39,11.475 10.832,10.794C10.275,10.113 9.439,8.054 8.841,6.187C8.243,4.32 7.523,3.2 7.175,2.743C6.827,2.286 6.193,1.792 6.193,1.792L8.75,0.764Z" style="fill:url(#_Linear-4opwlls);"/><g transform="matrix(1,0,0,1.0708,0,-0.0148632)"><path d="M6.925,12.537L5.81,11.456L4.257,2.362L6.193,1.687C6.193,1.687 6.827,2.149 7.175,2.575C7.523,3.002 8.243,4.048 8.841,5.792C9.439,7.536 10.275,9.459 10.832,10.095C11.39,10.731 11.918,11.08 11.918,11.08L10.908,12.047C10.908,12.047 10.554,11.743 9.946,10.712C9.188,9.428 8.88,7.754 8.697,7.336C8.691,7.323 8.685,7.31 8.679,7.297C8.399,7.576 7.789,8.287 7.387,9.527C7.012,10.686 6.939,12.101 6.925,12.537ZM8.451,6.791C7.592,4.942 6.814,3.866 5.989,3.142C5.085,2.349 4.257,2.362 4.257,2.362C4.257,2.362 3.126,3.048 3.194,4.092C3.262,5.136 3.536,9.251 3.536,9.251L5.81,11.456C6.031,10.823 6.44,9.73 6.998,8.598C7.532,7.517 8.182,6.98 8.451,6.791Z" style="fill:white;"/></g><g transform="matrix(1.22771,0,0,1.31532,-1.25584,-2.19688)"><path d="M8.135,6.125C7.667,4.854 7.134,4.082 6.867,3.755C6.584,3.408 6.068,3.033 6.068,3.033L8.135,2.256L8.135,6.125Z" style="fill:rgb(154,181,223);"/></g><path d="M8.451,7.257C7.592,5.278 6.814,4.125 5.989,3.35C5.085,2.501 4.257,2.514 4.257,2.514C4.257,2.514 3.126,3.249 3.194,4.367C3.262,5.484 3.536,9.891 3.536,9.891L5.81,12.253C6.031,11.574 6.44,10.404 6.998,9.192C7.532,8.034 8.182,7.459 8.451,7.257Z" style="fill:rgb(151,195,73);"/><path d="M6.925,13.41L8.692,15.245L10.908,12.885C10.908,12.885 10.554,12.56 9.946,11.456C9.188,10.08 8.88,8.288 8.697,7.841C8.691,7.827 8.685,7.813 8.679,7.799C8.399,8.097 7.789,8.859 7.387,10.186C7.012,11.427 6.939,12.943 6.925,13.41Z" style="fill:url(#_Linear-g5b0xo5);"/><path d="M8.733,15.202L8.733,7.941C8.92,8.513 9.236,10.167 9.946,11.456C10.554,12.56 10.908,12.885 10.908,12.885L8.733,15.202Z" style="fill:url(#_Linear-6rm4cwy);"/></g><defs><linearGradient id="_Linear-4opwlls" x1="0" y1="0" x2="1" y2="0" gradientUnits="userSpaceOnUse" gradientTransform="matrix(4.07201,0.0147705,-0.0171526,4.72871,9.51165,4.11533)"><stop offset="0" style="stop-color:rgb(129,149,212);stop-opacity:1"/><stop offset="1" style="stop-color:rgb(152,179,222);stop-opacity:1"/></linearGradient><linearGradient id="_Linear-g5b0xo5" x1="0" y1="0" x2="1" y2="0" gradientUnits="userSpaceOnUse" gradientTransform="matrix(0.166815,0.000100909,-0.000100909,0.166815,8.56217,11.7233)"><stop offset="0" style="stop-color:rgb(151,195,73);stop-opacity:1"/><stop offset="0.55" style="stop-color:rgb(155,196,83);stop-opacity:1"/><stop offset="1" style="stop-color:rgb(169,201,123);stop-opacity:1"/></linearGradient><linearGradient id="_Linear-6rm4cwy" x1="0" y1="0" x2="1" y2="0" gradientUnits="userSpaceOnUse" gradientTransform="matrix(1.36551,0.00964387,-0.00964387,1.36551,9.09996,12.8279)"><stop offset="0" style="stop-color:rgb(144,182,97);stop-opacity:1"/><stop offset="1" style="stop-color:rgb(149,192,77);stop-opacity:1"/></linearGradient></defs></svg>