<svg width="100%" height="100%" viewBox="0 0 18 16" version="1.1" xmlns="http://www.w3.org/2000/svg" xmlns:xlink="http://www.w3.org/1999/xlink" xml:space="preserve" style="fill-rule:evenodd;clip-rule:evenodd;stroke-linejoin:round;stroke-miterlimit:2;"><g id="clojure" transform="matrix(0.0585938,0,0,0.0585938,1.5,0.499854)"><path id="path8" d="M127.999,0C57.423,0 0,57.423 0,128.001C0,198.585 57.423,256.005 127.999,256.005C198.577,256.005 256,198.585 256,128.001C256,57.423 198.577,0 127.999,0" style="fill:white;fill-rule:nonzero;"/><path id="path10" d="M123.318,130.303C122.168,132.795 120.899,135.595 119.585,138.575C114.94,149.099 109.796,161.905 107.917,170.109C107.242,173.031 106.824,176.652 106.832,180.667C106.832,182.255 106.917,183.924 107.052,185.624C113.619,188.037 120.712,189.364 128.119,189.377C134.862,189.364 141.34,188.25 147.403,186.234C145.978,184.931 144.618,183.542 143.38,181.977C135.16,171.495 130.574,156.133 123.318,130.303" style="fill:rgb(145,220,71);fill-rule:nonzero;"/><path id="path12" d="M92.97,78.225C77.271,89.289 66.998,107.537 66.959,128.217C66.998,148.588 76.962,166.6 92.266,177.71C96.02,162.073 105.43,147.755 119.541,119.055C118.703,116.753 117.748,114.233 116.679,111.586C112.77,101.78 107.128,90.392 102.093,85.235C99.526,82.541 96.411,80.213 92.97,78.225" style="fill:rgb(145,220,71);fill-rule:nonzero;"/><path id="path14" d="M181.394,198.367C173.294,197.352 166.609,196.127 160.761,194.064C150.925,198.948 139.848,201.707 128.119,201.707C87.535,201.707 54.636,168.813 54.631,128.217C54.631,106.19 64.335,86.444 79.687,72.977C75.581,71.985 71.299,71.406 66.925,71.414C45.363,71.617 22.602,83.55 13.126,115.777C12.24,120.468 12.451,124.015 12.451,128.219C12.451,192.104 64.242,243.895 128.122,243.895C167.244,243.895 201.804,224.456 222.733,194.726C211.413,197.547 200.527,198.896 191.205,198.925C187.711,198.925 184.431,198.738 181.394,198.367" style="fill:rgb(99,177,50);fill-rule:nonzero;"/><path id="path16" d="M159.658,175.953C160.372,176.307 161.991,176.885 164.244,177.524C179.401,166.397 189.251,148.474 189.29,128.217L189.284,128.217C189.227,94.446 161.898,67.121 128.119,67.054C121.405,67.067 114.955,68.175 108.916,70.176C121.335,84.332 127.307,104.562 133.084,126.691C133.087,126.701 133.092,126.709 133.094,126.717C133.105,126.735 134.942,132.862 138.096,140.991C141.228,149.109 145.69,159.159 150.556,166.483C153.751,171.391 157.265,174.918 159.658,175.953" style="fill:rgb(144,180,254);fill-rule:nonzero;"/><path id="path18" d="M128.122,12.541C89.378,12.541 55.106,31.614 34.114,60.859C45.039,54.017 56.194,51.549 65.929,51.637C79.375,51.676 89.946,55.845 95.018,58.697C96.243,59.403 97.406,60.163 98.545,60.944C107.595,56.958 117.595,54.729 128.119,54.729C168.708,54.734 201.612,87.628 201.618,128.217L201.612,128.217C201.612,148.681 193.242,167.184 179.749,180.508C183.061,180.879 186.593,181.11 190.2,181.092C203.011,181.098 216.858,178.271 227.239,169.54C234.008,163.838 239.679,155.489 242.824,142.971C243.439,138.136 243.793,133.221 243.793,128.219C243.793,64.337 192.007,12.541 128.122,12.541" style="fill:rgb(88,129,216);fill-rule:nonzero;"/></g></svg>