<svg width="100%" height="100%" viewBox="0 0 18 16" version="1.1" xmlns="http://www.w3.org/2000/svg" xmlns:xlink="http://www.w3.org/1999/xlink" xml:space="preserve" style="fill-rule:evenodd;clip-rule:evenodd;stroke-linejoin:round;stroke-miterlimit:2;"><g transform="matrix(0.21875,0,0,0.21875,9,8)"><g id="cmake" transform="matrix(1,0,0,1,-32,-32)"><g id="g922" transform="matrix(2.21905,0,0,2.21905,-14.6035,-34.5714)"><g id="polygon6" transform="matrix(0.794524,0,0,0.794524,3.80013,12.6397)"><path d="M21.3,3.8L3.6,38.8L22.9,22.4L21.3,3.8Z" style="fill:rgb(6,79,140);fill-rule:nonzero;"/></g><g id="polygon8" transform="matrix(0.794524,0,0,0.794524,3.80013,12.6397)"><path d="M38.6,39.9L14.8,30.3L3.5,39.9L38.6,39.9Z" style="fill:rgb(36,152,71);fill-rule:nonzero;"/></g><g id="polygon10" transform="matrix(0.794524,0,0,0.794524,3.80013,12.6397)"><path d="M39.8,39.6L22.1,4.4L24.7,33.5L39.8,39.6Z" style="fill:rgb(190,33,40);fill-rule:nonzero;"/></g><g id="polygon34" transform="matrix(0.794524,0,0,0.794524,3.80013,12.6397)"><path d="M23.9,33.2L23,23.3L15.4,29.8L23.9,33.2Z" style="fill:rgb(205,205,206);fill-rule:nonzero;"/></g></g></g><g id="cmake1"></g></g></svg>