<svg width="100%" height="100%" viewBox="0 0 18 16" version="1.1" xmlns="http://www.w3.org/2000/svg" xmlns:xlink="http://www.w3.org/1999/xlink" xml:space="preserve" style="fill-rule:evenodd;clip-rule:evenodd;stroke-linejoin:round;stroke-miterlimit:2;"><g id="codacy-dark" transform="matrix(3.74407,0,0,3.74407,-3.89989,-8.58245)"><g transform="matrix(0.0751476,0,0,0.0751476,1.44225,2.45261)"><path d="M8.6,21.6C9.9,16.9 13,12.9 17.2,10.4L13.2,3.6C7.2,7 2.7,12.8 0.9,19.5L8.6,21.6Z"/></g><g transform="matrix(0.0751476,0,0,0.0751476,1.44225,2.45261)"><path d="M21.7,8.5C23.3,8.1 24.9,7.9 26.5,7.9L26.5,0C24.2,0 21.9,0.3 19.7,0.9L21.7,8.5Z"/></g><g transform="matrix(0.0751476,0,0,0.0751476,1.44225,2.45261)"><path d="M31.3,8.5C36,9.8 40.1,12.9 42.5,17.1L49.4,13.1C45.9,7.1 40.1,2.6 33.3,0.8L31.3,8.5Z"/></g><g transform="matrix(0.0751476,0,0,0.0751476,1.44225,2.45261)"><path d="M0,26.3C0,28.6 0.3,30.9 0.9,33.1L8.6,31.1C8.2,29.5 8,27.9 8,26.3L0,26.3Z"/></g><g transform="matrix(0.0751476,0,0,0.0751476,1.44225,2.45261)"><path d="M3.5,39.5C4.7,41.5 6.1,43.3 7.7,44.9L13.3,39.3C12.2,38.2 11.2,36.9 10.4,35.5L3.5,39.5Z"/></g><g transform="matrix(0.0751476,0,0,0.0751476,1.44225,2.45261)"><path d="M13.2,49.1C17.2,51.4 21.8,52.6 26.4,52.6L26.4,44.7C23.2,44.7 20,43.9 17.2,42.2L13.2,49.1Z"/></g><g transform="matrix(0.0751476,0,0,0.0751476,1.44225,2.45261)"><path d="M42.5,35.6C40,39.8 36,42.9 31.3,44.2L33.4,51.8C40.2,50 46,45.6 49.5,39.5L42.5,35.6Z"/></g><g transform="matrix(0.0751476,0,0,0.0751476,1.44225,2.45261)"><path d="M52.4,33.1C53.6,28.6 53.6,23.9 52.5,19.4L44.8,21.4C45.6,24.5 45.6,27.8 44.7,31L52.4,33.1Z"/></g></g></svg>