<svg width="100%" height="100%" viewBox="0 0 18 16" version="1.1" xmlns="http://www.w3.org/2000/svg" xmlns:xlink="http://www.w3.org/1999/xlink" xml:space="preserve" style="fill-rule:evenodd;clip-rule:evenodd;stroke-linejoin:round;stroke-miterlimit:2;"><path id="codeofconduct-dark" d="M11.713,13.466C11.717,13.463 11.721,13.46 11.725,13.457C13.211,12.359 14.597,11.059 15.274,9.769C16.801,7.038 16.671,4.31 15.141,2.944C13.711,1.668 10.992,1.494 9.294,3.522L9.294,3.522C7.596,1.494 4.877,1.668 3.447,2.944C1.917,4.31 1.787,7.038 3.314,9.769C4.312,11.67 6.846,13.59 8.974,14.857C9.171,14.974 9.417,14.974 9.614,14.857C10.293,14.452 11.014,13.982 11.713,13.466ZM8.334,4.329C7.144,2.929 5.274,2.988 4.279,3.877C3.726,4.371 3.47,5.121 3.47,5.986C3.47,6.955 3.789,8.059 4.408,9.166C4.411,9.171 4.414,9.176 4.417,9.182C5.274,10.821 7.421,12.441 9.294,13.589C9.661,13.365 10.038,13.122 10.413,12.865L9.158,11.503C8.924,11.25 8.941,10.854 9.194,10.62C9.448,10.386 9.844,10.402 10.077,10.656L11.431,12.125C11.824,11.821 12.203,11.504 12.553,11.177L11.111,9.772C10.864,9.531 10.859,9.135 11.1,8.888C11.34,8.641 11.737,8.636 11.984,8.877L13.419,10.275C13.7,9.941 13.941,9.603 14.127,9.263C13.748,8.86 12.826,7.904 12.296,7.571C11.999,7.384 11.374,7.374 11.053,7.461C10.293,7.667 9.736,8.349 9.278,8.735C8.933,9.027 8.604,9.191 8.327,9.211C7.965,9.236 7.556,9.095 7.174,8.844C6.501,8.399 5.898,7.624 5.898,7.624C5.708,7.379 5.727,7.031 5.942,6.808L8.334,4.329ZM14.7,8.061C14.977,7.336 15.118,6.631 15.118,5.986C15.118,5.121 14.862,4.371 14.309,3.877C14.309,3.877 14.309,3.877 14.309,3.877C13.188,2.876 11.222,3.113 9.691,4.728C9.527,4.902 9.309,5.135 9.193,5.239L7.24,7.263C7.361,7.388 7.505,7.527 7.661,7.652C7.784,7.751 7.914,7.843 8.046,7.905C8.104,7.933 8.159,7.96 8.213,7.964C8.26,7.931 8.517,7.745 8.683,7.594C9.221,7.103 9.895,6.48 10.726,6.255C11.304,6.098 12.426,6.175 12.962,6.513C13.435,6.81 14.195,7.548 14.7,8.061Z" style="fill:rgb(93,108,121);"/></svg>