<svg width="100%" height="100%" viewBox="0 0 18 16" version="1.1" xmlns="http://www.w3.org/2000/svg" xmlns:xlink="http://www.w3.org/1999/xlink" xml:space="preserve" style="fill-rule:evenodd;clip-rule:evenodd;stroke-linejoin:round;stroke-miterlimit:2;"><g id="commitlint"><g transform="matrix(1.64277,0,0,1.18352,-1.28554,-0.183523)"><path d="M10.522,1.71L10.522,12.119C10.522,12.511 10.293,12.829 10.011,12.829L2.511,12.829C2.229,12.829 2,12.511 2,12.119L2,1.71C2,1.318 2.229,1 2.511,1L10.011,1C10.293,1 10.522,1.318 10.522,1.71Z"/></g><path d="M10.509,10.64L11.188,9.629L11.625,9.631L12.302,10.644L11.959,10.648L11.406,9.938L10.876,10.643L10.509,10.64Z" style="fill:rgb(206,61,64);"/><path d="M6.892,7.6L6.892,7.274C6.892,7.274 6.715,7.064 6.292,7.055C5.695,7.041 5.22,7.4 5.258,8.241C5.297,9.081 5.95,9.358 6.293,9.333C6.637,9.307 6.895,9.112 6.895,9.112L6.894,8.77C6.894,8.77 6.661,8.997 6.286,8.989C5.912,8.981 5.594,8.653 5.613,8.16C5.632,7.668 5.902,7.351 6.294,7.371C6.687,7.39 6.892,7.6 6.892,7.6Z" style="fill:rgb(80,178,221);"/><path d="M7.679,6.524L8.224,6.524C8.224,6.524 8.225,8.313 8.224,8.509C8.223,8.901 8.437,9.242 8.861,9.243C9.255,9.244 9.311,9.244 9.311,9.244L9.308,8.95C9.308,8.95 9.16,8.952 9,8.95C8.82,8.948 8.724,8.928 8.646,8.825C8.568,8.723 8.533,8.602 8.535,8.486C8.541,8.15 8.533,6.29 8.533,6.29L7.679,6.29L7.679,6.524Z" style="fill:rgb(80,178,221);"/><g transform="matrix(1.20833,0,0,0.883434,-2.13464,1.04122)"><rect x="10.246" y="8.932" width="1.93" height="0.355" style="fill:rgb(206,61,64);"/></g></g></svg>