<svg width="100%" height="100%" viewBox="0 0 18 16" version="1.1" xmlns="http://www.w3.org/2000/svg" xmlns:xlink="http://www.w3.org/1999/xlink" xml:space="preserve" style="fill-rule:evenodd;clip-rule:evenodd;stroke-linejoin:round;stroke-miterlimit:2;"><g id="conan" transform="matrix(2.6518,0,0,2.6518,-14.0452,-11.2087)"><path d="M8.682,7.565L5.862,5.993L8.692,4.426L11.505,5.999L8.682,7.565Z" style="fill:rgb(134,199,247);"/><path d="M5.862,5.993L5.868,8.49L8.689,10.061L8.682,7.565" style="fill:url(#_Linear1);"/><path d="M8.682,7.565L11.505,5.999L11.519,8.497L8.689,10.061L8.682,7.565L8.689,10.061" style="fill:rgb(169,220,252);"/><path d="M10.049,6.807L10.153,6.749L10.153,9.252L10.048,9.31L10.049,6.807" style="fill:url(#_Linear2);"/><path d="M9.713,6.291L10.429,5.936C10.285,5.786 10.025,5.591 9.802,5.475C9.173,5.145 8.506,5.255 7.965,5.508C7.394,5.776 7.235,6.239 7.768,6.607C7.991,6.761 8.309,6.848 8.525,6.879L9.2,6.545C8.827,6.596 8.352,6.52 8.175,6.396C7.924,6.222 7.986,5.929 8.313,5.74C8.733,5.498 9.28,5.588 9.486,5.704C9.749,5.853 9.849,6.096 9.713,6.291Z" style="fill:url(#_Linear3);"/></g><defs><linearGradient id="_Linear1" x1="0" y1="0" x2="1" y2="0" gradientUnits="userSpaceOnUse" gradientTransform="matrix(-2.53054,0.101155,-0.101155,-2.53054,8.54128,8)"><stop offset="0" style="stop-color:rgb(33,175,255);stop-opacity:1"/><stop offset="1" style="stop-color:rgb(1,135,253);stop-opacity:1"/></linearGradient><linearGradient id="_Linear2" x1="0" y1="0" x2="1" y2="0" gradientUnits="userSpaceOnUse" gradientTransform="matrix(0.0849808,-0.000768943,0.000768943,0.0849808,10.0605,8.04276)"><stop offset="0" style="stop-color:rgb(2,137,253);stop-opacity:1"/><stop offset="1" style="stop-color:rgb(32,173,255);stop-opacity:1"/></linearGradient><linearGradient id="_Linear3" x1="0" y1="0" x2="1" y2="0" gradientUnits="userSpaceOnUse" gradientTransform="matrix(-2.73542,0.141494,-0.141494,-2.73542,10.2773,5.91583)"><stop offset="0" style="stop-color:rgb(32,173,255);stop-opacity:1"/><stop offset="1" style="stop-color:rgb(1,135,253);stop-opacity:1"/></linearGradient></defs></svg>