<svg width="100%" height="100%" viewBox="0 0 18 16" version="1.1" xmlns="http://www.w3.org/2000/svg" xmlns:xlink="http://www.w3.org/1999/xlink" xml:space="preserve" style="fill-rule:evenodd;clip-rule:evenodd;"><g id="conda" transform="matrix(0.146762,0,0,0.146762,2.4863,0.364417)"><path d="M13.392,17.77C14.281,16.806 15.206,15.882 16.167,15.012C18.632,12.696 21.34,10.646 24.23,8.877C23.553,12.188 23.328,15.272 23.442,18.13C20.47,17.559 17.046,17.327 13.392,17.77ZM1.963,37.646C1.732,38.454 1.617,39.147 1.386,39.956C1.501,39.263 1.732,38.454 1.963,37.646ZM30.332,5.678C34.732,3.725 39.42,2.356 44.228,1.617C42.15,4.273 40.649,6.929 39.494,9.585C36.971,7.979 33.992,6.601 30.332,5.678ZM9.597,22.385C10.749,20.66 12.014,19.164 13.28,17.784L13.392,17.77C12.044,19.233 10.779,20.788 9.597,22.385ZM1.963,37.646C3.58,32.219 6.236,26.907 9.585,22.172C9.589,22.243 9.593,22.314 9.597,22.385C9.852,26.452 10.881,29.963 12.356,33.027C8.892,33.835 5.428,35.336 1.963,37.646ZM24.23,8.877L24.251,8.776C26.214,7.622 28.177,6.582 30.255,5.658L30.332,5.678C28.226,6.612 26.186,7.68 24.23,8.877ZM25.511,42.836C23.893,41.794 21.012,39.487 18.477,35.914C22.749,35.567 26.445,36.145 28.292,36.491C26.426,39.675 25.499,42.65 25.511,42.836ZM41.225,25.052C41.11,23.548 41.112,20.55 41.919,17.091C44.344,19.516 45.73,22.056 46.422,23.327C43.56,23.877 41.327,24.953 41.225,25.052ZM35.683,28.177C33.258,30.024 31.641,31.988 31.641,31.757C30.833,30.371 29.332,27.599 28.408,23.789C31.988,25.29 34.413,27.138 35.683,28.177ZM49.656,19.862C48.386,17.784 46.422,15.012 43.305,12.356C44.344,9.585 45.845,6.813 48.039,4.042C50.811,6.351 52.889,9.007 54.39,11.663C51.965,14.781 50.464,17.784 49.656,19.862ZM11.086,48.963C8.43,47 5.889,44.344 3.926,40.879C7.275,38.57 10.855,37.184 14.319,36.491C16.744,40.302 19.747,43.074 21.825,44.806C19.169,45.152 15.243,46.307 11.086,48.963ZM24.366,47.924C24.02,50.349 24.02,53.005 24.366,55.545C22.403,55.083 18.361,53.813 14.088,51.157C18.708,48.386 22.749,48.039 24.366,47.924ZM38.108,13.857C36.953,17.899 36.607,21.479 36.607,23.789C34.528,22.287 31.526,20.44 27.599,19.169C27.368,16.398 27.484,13.165 28.292,9.7C32.334,10.624 35.567,12.125 38.108,13.857ZM73.675,5.428C73.675,5.428 81.99,9.816 86.84,14.319C88.803,15.821 89.265,19.054 87.417,21.017C86.609,22.056 78.872,30.024 77.486,30.948C75.061,32.103 73.329,31.41 71.481,29.794C69.749,28.292 67.901,27.022 65.823,25.983C69.634,22.749 73.098,21.364 77.024,20.44C76.909,15.359 73.675,5.428 73.675,5.428ZM27.368,32.565C24.712,32.103 20.786,31.757 16.167,32.45C14.666,29.447 13.511,25.983 13.28,21.941C17.322,21.364 20.786,21.71 23.904,22.403C24.712,26.791 26.214,30.371 27.368,32.565ZM8.314,51.042C5.543,53.351 2.887,56.238 0.693,60.28C-0.231,54.506 -0.231,48.27 0.924,42.381C3.002,45.961 5.658,48.848 8.314,51.042ZM85.916,80.835C87.302,82.336 90.882,85.223 86.955,89.381C63.282,114.208 12.125,104.97 1.617,65.245L1.732,65.245C4.504,59.587 7.853,55.661 11.086,53.12C17.668,57.624 24.135,58.894 25.059,59.01C30.14,79.449 54.275,87.302 71.019,74.137C77.14,69.403 78.641,73.906 85.916,80.835ZM20.209,64.322C20.209,64.322 16.86,64.206 12.356,62.359C12.356,62.359 10.393,65.13 9.007,69.749C25.867,101.506 61.55,104.162 82.567,85.801C82.567,85.801 82.567,85.685 82.221,85.223C80.489,83.376 76.216,78.526 75.754,78.756C69.518,84.069 61.55,87.186 52.774,87.186C36.838,87.186 23.904,74.137 20.209,64.322ZM68.248,6.351C70.558,9.931 71.366,14.204 71.597,16.513C69.634,17.322 66.4,18.823 63.167,21.364C62.705,19.285 61.897,15.936 60.164,12.241C62.243,10.047 64.899,7.968 68.248,6.351ZM56.7,16.629C57.855,19.631 58.432,22.056 58.548,23.442C56.931,23.096 55.314,22.865 53.698,22.749C54.16,21.479 55.083,19.169 56.7,16.629ZM69.518,3.811C68.941,3.58 68.248,3.349 67.671,3.233C68.363,3.349 68.941,3.58 69.518,3.811ZM57.739,7.853C56.238,5.543 54.275,3.118 51.85,0.924C56.585,0.924 60.973,1.386 65.245,2.425C62.243,4.042 59.818,5.889 57.739,7.853Z" style="fill:rgb(67,176,42);stroke:rgb(67,176,42);stroke-width:0.25px;"/></g></svg>