<svg width="100%" height="100%" viewBox="0 0 18 16" version="1.1" xmlns="http://www.w3.org/2000/svg" xmlns:xlink="http://www.w3.org/1999/xlink" xml:space="preserve" style="fill-rule:evenodd;clip-rule:evenodd;"><g id="copier" transform="matrix(0.168356,0,0,0.168356,7.52782,6.69618)"><g transform="matrix(1,0,0,1,-41.0614,-30.8948)"><path d="M75.232,8.59L93.05,22.437C95.301,24.178 96.621,26.868 96.621,29.714C96.621,31.765 95.935,33.758 94.673,35.375L67.215,70.707C65.474,72.958 62.784,74.278 59.938,74.278C57.887,74.278 55.894,73.592 54.277,72.33L36.46,58.484C34.209,56.743 32.889,54.053 32.889,51.207C32.889,49.156 33.575,47.163 34.837,45.546L62.294,10.213C64.035,7.963 66.725,6.643 69.57,6.643C71.622,6.643 73.615,7.329 75.232,8.591L75.232,8.59ZM55.348,4.072L75.878,13.434C79.161,14.922 81.279,18.209 81.279,21.813C81.279,23.137 80.994,24.445 80.442,25.648L61.877,66.361C60.389,69.644 57.102,71.763 53.498,71.763C52.174,71.763 50.865,71.477 49.662,70.925L29.132,61.563C25.849,60.075 23.73,56.788 23.73,53.184C23.73,51.86 24.016,50.551 24.568,49.348L43.133,8.635C44.621,5.351 47.908,3.232 51.513,3.232C52.836,3.232 54.145,3.518 55.348,4.07L55.348,4.072ZM39.418,3.131L61.667,6.89C66.033,7.608 69.269,11.419 69.269,15.844C69.269,16.399 69.218,16.954 69.117,17.5L61.155,61.533C60.251,66.528 55.428,69.915 50.423,69.069L28.175,65.31C23.809,64.592 20.573,60.781 20.573,56.356C20.573,55.801 20.624,55.246 20.725,54.7L28.686,10.667C29.589,5.672 34.413,2.284 39.418,3.13L39.418,3.131ZM25.377,5.862L47.923,4.962C48.052,4.957 48.181,4.954 48.31,4.954C53.226,4.954 57.318,8.894 57.503,13.807L59.288,58.518C59.293,58.647 59.296,58.776 59.296,58.905C59.296,63.821 55.356,67.913 50.443,68.098L27.897,68.998C27.768,69.003 27.639,69.006 27.51,69.006C22.595,69.006 18.503,65.066 18.317,60.154L16.532,15.442C16.527,15.313 16.524,15.184 16.524,15.055C16.524,10.139 20.464,6.047 25.377,5.862ZM9.42,11.919L30.921,5.076C31.829,4.785 32.777,4.636 33.731,4.636C37.734,4.636 41.299,7.249 42.504,11.066L56.074,53.705C56.365,54.613 56.513,55.561 56.513,56.514C56.513,60.517 53.902,64.081 50.085,65.287L28.585,72.13C27.677,72.421 26.729,72.569 25.776,72.569C21.773,72.569 18.208,69.957 17.003,66.14L3.43,23.502C3.139,22.594 2.991,21.646 2.991,20.693C2.991,16.69 5.603,13.125 9.42,11.92L9.42,11.919Z" style="fill:rgb(221,221,221);fill-rule:nonzero;stroke:rgb(221,221,221);stroke-width:6px;"/></g><g transform="matrix(1,0,0,1,-41.0614,-30.8948)"><path d="M9.421,11.92L30.922,5.076C31.83,4.785 32.778,4.636 33.732,4.636C37.735,4.636 41.3,7.249 42.505,11.066L56.075,53.705C56.366,54.613 56.514,55.561 56.514,56.514C56.514,60.517 53.903,64.081 50.086,65.287L28.585,72.13C27.677,72.421 26.729,72.569 25.776,72.569C21.773,72.569 18.208,69.957 17.003,66.14L3.43,23.502C3.139,22.594 2.991,21.646 2.991,20.693C2.991,16.69 5.603,13.125 9.42,11.92L9.421,11.92Z" style="fill:rgb(59,179,196);fill-rule:nonzero;stroke:white;stroke-width:2.42px;"/></g><g transform="matrix(1,0,0,1,-41.0614,-30.8948)"><path d="M25.377,5.862L47.923,4.962C48.052,4.957 48.181,4.954 48.31,4.954C53.226,4.954 57.318,8.894 57.503,13.807L59.288,58.518C59.293,58.647 59.296,58.776 59.296,58.905C59.296,63.821 55.356,67.913 50.443,68.098L27.897,68.998C27.768,69.003 27.639,69.006 27.51,69.006C22.595,69.006 18.503,65.066 18.317,60.154L16.532,15.442C16.527,15.313 16.524,15.184 16.524,15.055C16.524,10.139 20.464,6.047 25.377,5.862Z" style="fill:rgb(183,79,142);fill-rule:nonzero;stroke:white;stroke-width:2.42px;"/></g><g transform="matrix(1,0,0,1,-41.0614,-30.8948)"><path d="M39.418,3.13L61.667,6.89C66.033,7.608 69.269,11.419 69.269,15.844C69.269,16.399 69.218,16.954 69.117,17.5L61.155,61.533C60.251,66.528 55.428,69.915 50.423,69.069L28.175,65.31C23.809,64.592 20.573,60.781 20.573,56.356C20.573,55.801 20.624,55.246 20.725,54.7L28.686,10.667C29.589,5.672 34.413,2.284 39.418,3.13Z" style="fill:rgb(233,20,20);fill-rule:nonzero;stroke:white;stroke-width:2.42px;"/></g><g transform="matrix(1,0,0,1,-41.0614,-30.8948)"><path d="M55.348,4.071L75.878,13.433C79.161,14.921 81.279,18.208 81.279,21.812C81.279,23.136 80.994,24.444 80.442,25.647L61.877,66.361C60.389,69.644 57.102,71.763 53.498,71.763C52.174,71.763 50.865,71.477 49.662,70.925L29.132,61.563C25.849,60.075 23.73,56.788 23.73,53.184C23.73,51.86 24.016,50.551 24.568,49.348L43.133,8.635C44.621,5.351 47.908,3.232 51.513,3.232C52.836,3.232 54.145,3.518 55.348,4.07L55.348,4.071Z" style="fill:rgb(229,120,19);fill-rule:nonzero;stroke:white;stroke-width:2.42px;"/></g><g transform="matrix(1,0,0,1,-41.0614,-30.8948)"><path d="M75.232,8.59L93.05,22.437C95.301,24.178 96.621,26.868 96.621,29.714C96.621,31.765 95.935,33.758 94.673,35.375L67.215,70.707C65.474,72.958 62.784,74.278 59.938,74.278C57.887,74.278 55.894,73.592 54.277,72.33L36.46,58.484C34.209,56.743 32.889,54.053 32.889,51.207C32.889,49.156 33.575,47.163 34.837,45.546L62.294,10.214C64.035,7.963 66.726,6.642 69.571,6.642C71.622,6.642 73.615,7.328 75.232,8.59Z" style="fill:rgb(248,195,1);fill-opacity:0.99;fill-rule:nonzero;stroke:white;stroke-width:2.42px;"/></g></g></svg>