<svg width="100%" height="100%" viewBox="0 0 18 16" version="1.1" xmlns="http://www.w3.org/2000/svg" xmlns:xlink="http://www.w3.org/1999/xlink" xml:space="preserve" style="fill-rule:evenodd;clip-rule:evenodd;stroke-linejoin:round;stroke-miterlimit:2;"><g id="coveralls" transform="matrix(2.01053,0,0,2.01053,-9.44652,-4.12934)"><g transform="matrix(1.5452,0,0,1.40382,-3.29447,-1.38203)"><path d="M8.084,2.93L8.628,4.776L10.392,4.776L8.965,5.916L9.51,7.762L8.084,6.621L6.657,7.762L7.202,5.916L5.775,4.776L7.539,4.776L8.084,2.93Z" style="fill:rgb(220,225,226);"/></g><g transform="matrix(1.5452,0,0,1.40382,-3.33694,-1.56154)"><path d="M8.084,2.93L8.628,4.776L10.392,4.776L8.965,5.916L9.51,7.762L8.084,6.621L6.657,7.762L7.202,5.916L5.775,4.776L7.539,4.776L8.084,2.93Z" style="fill:rgb(192,85,71);"/></g></g></svg>