<svg width="100%" height="100%" viewBox="0 0 18 16" version="1.1" xmlns="http://www.w3.org/2000/svg" xmlns:xlink="http://www.w3.org/1999/xlink" xml:space="preserve" style="fill-rule:evenodd;clip-rule:evenodd;stroke-linejoin:round;stroke-miterlimit:2;"><g id="crystal" transform="matrix(3.61703,0,0,3.61703,2,1.02448)"><g transform="matrix(0.296875,0,0,0.322881,-0.533055,-0.546359)"><path d="M15.532,3.683L15.532,11.647C15.532,13.112 14.238,14.301 12.645,14.301L3.984,14.301C2.391,14.301 1.097,13.112 1.097,11.647L1.097,3.683C1.097,2.218 2.391,1.029 3.984,1.029L12.645,1.029C14.238,1.029 15.532,2.218 15.532,3.683Z" style="fill:white;"/></g><g transform="matrix(0.0520573,0,0,0.0520573,-1.28813,-1.66343)"><path d="M96.4,78L87.3,44C87.3,43.9 87.2,43.8 87,43.7L52.9,34.6C52.8,34.6 52.6,34.6 52.5,34.7L27.5,59.6C27.4,59.7 27.4,59.8 27.4,60L36.5,94C36.5,94.1 36.6,94.2 36.8,94.3L70.9,103.4C71,103.4 71.2,103.4 71.3,103.3L96.3,78.4C96.4,78.2 96.5,78.1 96.4,78Z"/></g><g transform="matrix(0.0520573,0,0,0.0520573,-1.28813,-1.66343)"><path d="M63,51.3L54,84.7C54,84.8 53.9,84.8 53.8,84.7L29.4,60.3C29.3,60.2 29.4,60.2 29.4,60.1L62.9,51.1C62.9,51.2 63,51.2 63,51.3Z" style="fill:white;"/></g></g></svg>