<svg width="100%" height="100%" viewBox="0 0 18 16" version="1.1" xmlns="http://www.w3.org/2000/svg" xmlns:xlink="http://www.w3.org/1999/xlink" xml:space="preserve" style="fill-rule:evenodd;clip-rule:evenodd;stroke-linejoin:round;stroke-miterlimit:2;"><g id="crystal-dark" transform="matrix(4.1735,0,0,4.1735,0.923077,-0.04868)"><g transform="matrix(0.0520573,0,0,0.0520573,-1.28813,-1.66343)"><path d="M96.4,78L87.3,44C87.3,43.9 87.2,43.8 87,43.7L52.9,34.6C52.8,34.6 52.6,34.6 52.5,34.7L27.5,59.6C27.4,59.7 27.4,59.8 27.4,60L36.5,94C36.5,94.1 36.6,94.2 36.8,94.3L70.9,103.4C71,103.4 71.2,103.4 71.3,103.3L96.3,78.4C96.4,78.2 96.5,78.1 96.4,78Z"/></g><g transform="matrix(0.0520573,0,0,0.0520573,-1.28813,-1.66343)"><path d="M63,51.3L54,84.7C54,84.8 53.9,84.8 53.8,84.7L29.4,60.3C29.3,60.2 29.4,60.2 29.4,60.1L62.9,51.1C62.9,51.2 63,51.2 63,51.3Z" style="fill:white;"/></g></g></svg>