<svg width="100%" height="100%" viewBox="0 0 18 16" version="1.1" xmlns="http://www.w3.org/2000/svg" xmlns:xlink="http://www.w3.org/1999/xlink" xml:space="preserve" style="fill-rule:evenodd;clip-rule:evenodd;stroke-linejoin:round;stroke-miterlimit:2;"><g id="csharp" transform="matrix(0.0847412,0,0,0.0847412,8.25899,7.34373)"><g id="path12" transform="matrix(0.1,0,0,0.1,-122.256,-133.164)"><path d="M512.999,1080.38L512.999,1737.75C512.999,1819.08 556.38,1894.29 626.857,1934.92L1196.14,2263.65C1266.51,2304.3 1353.5,2304.3 1423.86,2263.65L1993.14,1934.92C2063.51,1894.31 2107,1818.99 2107,1737.75L2107,1080.38C2107,999.027 2063.62,923.822 1993.14,883.177L1423.86,554.532C1353.5,513.876 1266.5,513.876 1196.14,554.532L626.857,883.177C556.487,923.801 512.997,999.128 512.999,1080.38L512.999,1080.38Z" style="fill:url(#_Linear-j7h4le8);fill-rule:nonzero;"/></g><g id="path13" transform="matrix(0.879,0,0,0.879,-210.689,-329.311)"><path d="M204.306,370.507L204.306,396.416C204.306,396.42 204.306,396.423 204.306,396.427C204.306,399.975 207.225,402.894 210.773,402.894C210.777,402.894 210.787,402.894 210.788,402.894C214.34,402.894 217.262,399.971 217.262,396.42C217.262,396.418 217.262,396.417 217.262,396.416C217.262,392.863 220.186,389.94 223.739,389.94C227.291,389.94 230.215,392.863 230.215,396.416C230.215,407.075 221.444,415.846 210.784,415.846C200.125,415.846 191.354,407.075 191.354,396.416L191.354,370.511C191.354,359.852 200.125,351.08 210.784,351.08C221.444,351.08 230.215,359.852 230.215,370.511C230.215,374.064 227.291,376.987 223.739,376.987C220.186,376.987 217.262,374.064 217.262,370.511C217.262,366.958 214.339,364.035 210.786,364.035C207.233,364.035 204.31,366.958 204.31,370.511L204.306,370.507ZM307.933,396.416C307.933,396.418 307.933,396.421 307.933,396.423C307.933,399.973 305.012,402.894 301.463,402.894C301.46,402.894 301.458,402.894 301.455,402.894L294.977,402.894L294.977,409.368C294.977,411.088 294.297,412.736 293.08,413.949C291.867,415.166 290.219,415.851 288.501,415.851C286.783,415.851 285.134,415.166 283.922,413.949C282.709,412.733 282.027,411.085 282.025,409.368L282.025,402.894L269.072,402.894L269.072,409.368C269.072,409.373 269.072,409.378 269.072,409.383C269.072,412.929 266.155,415.846 262.609,415.846C262.604,415.846 262.586,415.846 262.583,415.846C259.037,415.846 256.12,412.929 256.12,409.383C256.12,409.378 256.12,409.373 256.12,409.368L256.12,402.894L249.638,402.894C246.085,402.894 243.162,399.97 243.162,396.418C243.162,392.865 246.085,389.941 249.638,389.941L256.116,389.941L256.116,376.989L249.638,376.989C246.085,376.989 243.162,374.066 243.162,370.513C243.162,366.96 246.085,364.037 249.638,364.037L256.116,364.037L256.116,357.558C256.116,354.006 259.039,351.082 262.592,351.082C266.145,351.082 269.068,354.006 269.068,357.558L269.068,364.033L282.021,364.033L282.021,357.558C282.021,354.006 284.944,351.082 288.497,351.082C292.05,351.082 294.973,354.006 294.973,357.558L294.973,364.033L301.451,364.033C303.167,364.033 304.815,364.713 306.028,365.93C307.245,367.142 307.93,368.791 307.93,370.509C307.93,372.227 307.245,373.876 306.028,375.088C304.816,376.303 303.168,376.988 301.451,376.989L294.973,376.989L294.973,389.941L301.451,389.941C305.001,389.95 307.919,392.867 307.929,396.416L307.933,396.416ZM282.025,376.989L269.072,376.989L269.072,389.941L282.025,389.941L282.025,376.989Z" style="fill:white;fill-rule:nonzero;"/></g></g><defs><linearGradient id="_Linear-j7h4le8" x1="0" y1="0" x2="1" y2="0" gradientUnits="userSpaceOnUse" gradientTransform="matrix(768.555,1337.85,-1337.85,768.555,669.543,910.955)"><stop offset="0" style="stop-color:rgb(146,123,229);stop-opacity:1"/><stop offset="1" style="stop-color:rgb(81,43,212);stop-opacity:1"/></linearGradient></defs></svg>