<svg width="100%" height="100%" viewBox="0 0 18 16" version="1.1" xmlns="http://www.w3.org/2000/svg" xmlns:xlink="http://www.w3.org/1999/xlink" xml:space="preserve" style="fill-rule:evenodd;clip-rule:evenodd;stroke-linejoin:round;stroke-miterlimit:2;"><g id="csharp-1" transform="matrix(0.234375,0,0,0.234375,9,8)"><g transform="matrix(1,0,0,1,-32,-32)"><clipPath id="_clip-ecn7gtb"><rect x="0" y="0" width="64" height="64"/></clipPath><g clip-path="url(#_clip-ecn7gtb)"><circle cx="32" cy="32" r="32" style="fill:rgb(5,147,12);"/><path d="M9.82,9C3.01,15.069 -0.891,23.769 -0.891,32.891C-0.891,50.445 13.555,64.891 31.109,64.891C40.231,64.891 48.931,60.99 55,54.18L9.82,9Z" style="fill-opacity:0.1;fill-rule:nonzero;"/><path d="M30.43,43.55C28.253,44.609 25.849,45.117 23.43,45.03C20.197,45.172 17.056,43.909 14.82,41.57C12.598,39.079 11.438,35.814 11.59,32.48C11.434,28.867 12.748,25.34 15.23,22.71C17.657,20.227 21.021,18.88 24.49,19C26.518,18.923 28.54,19.263 30.43,20L30.43,23.15C28.597,22.131 26.527,21.61 24.43,21.64C21.789,21.552 19.235,22.611 17.43,24.54C15.558,26.674 14.589,29.455 14.73,32.29C14.592,34.969 15.495,37.601 17.25,39.63C18.952,41.46 21.372,42.458 23.87,42.36C26.174,42.417 28.449,41.832 30.44,40.67L30.43,43.55Z" style="fill-rule:nonzero;"/><path d="M52.76,26.46L52.36,28.32L47.76,28.32L46.66,33.6L51.6,33.6L51.13,35.46L46.29,35.46L44.74,42.46L42.53,42.46L44.04,35.46L39.64,35.46L38.16,42.46L36,42.46L37.48,35.46L32.84,35.46L33.19,33.6L37.85,33.6L38.92,28.33L34.05,28.33L34.42,26.47L39.29,26.47L40.77,19.4L43,19.4L41.52,26.47L45.95,26.47L47.46,19.4L49.62,19.4L48.14,26.47L52.76,26.46ZM45.59,28.32L41.15,28.32L40,33.6L44.46,33.6L45.59,28.32Z" style="fill-rule:nonzero;"/></g></g></g></svg>