<svg width="100%" height="100%" viewBox="0 0 18 16" version="1.1" xmlns="http://www.w3.org/2000/svg" xmlns:xlink="http://www.w3.org/1999/xlink" xml:space="preserve" style="fill-rule:evenodd;clip-rule:evenodd;stroke-linejoin:round;stroke-miterlimit:2;"><g transform="matrix(0.150235,0,0,0.150235,9,8)"><g id="csv" transform="matrix(1,0,0,1,-53.25,-53.25)"><path d="M99.4,7.4L15.7,0.1C11.5,-0.3 7.7,2.9 7.4,7.1L0.1,90.7C-0.3,94.9 2.9,98.7 7.1,99L90.8,106.3C95,106.7 98.8,103.5 99.1,99.3L106.4,15.6C106.8,11.5 103.6,7.8 99.4,7.4" style="fill:white;fill-rule:nonzero;"/><path d="M92,36.2L81.9,69.5C81.8,69.8 81.7,69.9 81.4,70L73.9,70.7C73.7,70.7 73.5,70.6 73.5,70.3L65.7,38.7C65.5,38.3 65.8,37.9 66.2,37.9L72.5,37.3C72.8,37.3 73,37.4 73,37.7L78.3,62.9L85.3,36.6C85.4,36.3 85.5,36.1 85.9,36.1L91.6,35.6C91.8,35.6 92.1,35.9 92,36.2M63.4,40.4L61.2,44.8C61.1,45.1 60.8,45.3 60.4,45.2C58.7,44.6 57,44.4 54.9,44.6C52.1,44.8 50.6,46.2 50.8,48.8C50.9,49.9 51.4,50.9 55.9,52.4C61.4,54.4 62.7,57 63,60.1C63.7,68 58.4,72.3 51.7,72.9C48.1,73.2 45.2,73.1 42.3,71.8C42.1,71.7 41.9,71.5 42,71.3L44.2,66.3C44.4,65.9 44.5,65.8 45,65.9C46.8,66.6 48.3,67.1 51.3,66.9C53.9,66.7 55.8,65.3 55.6,62.6C55.5,61.4 54.9,60.4 50.7,58.8C45.3,56.8 43.6,54.1 43.3,50.5C42.7,43.8 47.4,39.2 53.9,38.6C58,38.2 59.9,38.4 63.1,39.6C63.5,39.7 63.5,40 63.4,40.4M39.9,42.7L37.7,47C37.6,47.2 37.5,47.4 37.3,47.4C37.2,47.4 37,47.4 36.9,47.3C35.2,46.6 33.7,46.4 31.7,46.5C28.1,46.8 22.7,50.8 23.6,60.5C24.1,66 27.2,68.7 31,68.3C32.5,68.2 34.2,67.8 36.2,66.6C36.6,66.4 36.8,66.5 37,66.7L39,70.8C39.2,71.2 39.1,71.5 38.7,71.8C36.1,73.6 33.7,74.2 30.2,74.5C22.3,75.2 17.2,70.7 16.5,62.2C15.3,49 22.4,41.4 31.4,40.6C35.1,40.3 37.4,40.5 39.7,41.8C40.1,41.9 40.1,42.3 39.9,42.7M99.1,10.4L15.5,3.1C12.9,2.9 10.7,4.8 10.4,7.3L3.1,91C2.9,93.6 4.8,95.8 7.3,96.1L91,103.4C93.6,103.6 95.8,101.7 96.1,99.2L103.4,15.5C103.6,12.9 101.7,10.6 99.1,10.4" style="fill:rgb(245,130,32);fill-rule:nonzero;"/></g><g id="csv1"></g></g></svg>