<svg width="100%" height="100%" viewBox="0 0 18 16" version="1.1" xmlns="http://www.w3.org/2000/svg" xmlns:xlink="http://www.w3.org/1999/xlink" xml:space="preserve" style="fill-rule:evenodd;clip-rule:evenodd;stroke-linejoin:round;stroke-miterlimit:2;"><g id="cucumber" transform="matrix(0.358982,0,0,0.358982,2.38577,-0.376458)"><g transform="matrix(1,0,0,1,-2160.7,-274.287)"><path d="M2188.02,280.017C2187.7,279.826 2187.38,279.648 2187.05,279.482C2186.71,279.316 2186.36,279.154 2186.01,279.015C2185.89,278.968 2185.78,278.924 2185.67,278.88C2185.36,278.766 2185.05,278.638 2184.73,278.545C2182.94,277.948 2181.06,277.643 2179.18,277.643C2169.56,277.643 2161.65,285.556 2161.65,295.173C2161.65,303.555 2167.66,310.822 2175.89,312.393L2175.89,317.41C2186.43,315.828 2195.76,307.503 2196.45,296.572C2196.87,289.994 2193.57,283.28 2188.02,280.017Z" style="fill:rgb(35,217,108);fill-rule:nonzero;"/></g><g transform="matrix(1,0,0,1,-2159.39,-272.979)"><path d="M2173.63,317.206L2173.63,311.85C2165.37,309.854 2159.5,302.396 2159.5,293.894C2159.5,283.76 2167.84,275.421 2177.97,275.421C2179.92,275.421 2181.86,275.73 2183.71,276.336C2183.96,276.409 2184.22,276.505 2184.47,276.599L2184.69,276.683C2184.84,276.741 2184.95,276.785 2185.07,276.834C2185.38,276.957 2185.73,277.116 2186.16,277.324C2186.51,277.501 2186.86,277.691 2187.2,277.895C2192.96,281.284 2196.54,288.288 2196.09,295.325C2195.4,306.153 2186.41,315.286 2174.72,317.041L2173.63,317.206ZM2177.97,277.309L2177.94,277.309C2177.91,277.309 2177.89,277.309 2177.86,277.309C2168.77,277.309 2161.29,284.79 2161.29,293.881C2161.29,301.808 2166.97,308.68 2174.76,310.162L2175.53,310.311L2175.53,314.985C2185.81,312.978 2193.58,304.814 2194.19,295.204C2194.6,288.857 2191.4,282.554 2186.23,279.518L2186.22,279.514C2185.92,279.333 2185.61,279.166 2185.31,279.013C2184.94,278.832 2184.63,278.692 2184.34,278.579C2184.22,278.529 2184.13,278.488 2184.03,278.454L2183.79,278.364C2183.56,278.279 2183.35,278.199 2183.15,278.139C2181.48,277.59 2179.73,277.31 2177.97,277.309Z" style="fill-rule:nonzero;"/></g><g transform="matrix(1,0,0,1,-2172.14,-286.076)"><path d="M2187.18,298.064C2187.71,297.997 2188.25,298.203 2188.6,298.613C2188.88,298.909 2189.1,299.246 2189.26,299.612C2189.84,300.895 2190.19,302.735 2189.47,303.767C2187.94,303.375 2186.64,302.366 2185.88,300.981C2185.69,300.606 2185.58,300.194 2185.56,299.773C2185.59,298.881 2186.29,298.141 2187.18,298.064ZM2182.05,305.305C2182.39,305.56 2182.76,305.783 2183.15,305.97C2184.56,306.581 2186.18,306.535 2187.55,305.846C2187.01,304.441 2185.92,303.315 2184.53,302.733C2184.12,302.549 2183.68,302.45 2183.23,302.443C2183.14,302.435 2183.04,302.435 2182.95,302.443C2182.1,302.478 2181.42,303.186 2181.42,304.035C2181.42,304.534 2181.65,305.004 2182.05,305.305ZM2187.55,308.403C2186.85,307.936 2185.41,308.124 2184.56,308.14C2184.05,308.147 2183.54,308.255 2183.06,308.457C2182.65,308.602 2182.28,308.828 2181.96,309.123C2181.61,309.434 2181.4,309.884 2181.4,310.356C2181.4,311.256 2182.14,311.996 2183.04,311.996C2183.11,311.996 2183.17,311.992 2183.23,311.985C2183.68,311.988 2184.13,311.889 2184.53,311.695C2185.83,311.136 2187.37,309.602 2187.55,308.403L2187.55,308.403ZM2189.91,310.208C2188.41,310.764 2187.19,311.906 2186.55,313.372C2186.36,313.741 2186.26,314.146 2186.26,314.557C2186.26,314.571 2186.26,314.584 2186.26,314.597C2186.26,315.541 2187.03,316.318 2187.98,316.318C2188.45,316.318 2188.91,316.12 2189.24,315.772C2189.48,315.426 2189.69,315.058 2189.87,314.673C2190.43,313.47 2190.65,311.316 2189.91,310.208L2189.91,310.208ZM2192.21,303.741C2193.68,303.309 2194.9,302.268 2195.55,300.883C2195.74,300.504 2195.83,300.089 2195.84,299.668C2195.86,298.747 2195.14,297.963 2194.22,297.905C2193.68,297.846 2193.13,298.063 2192.78,298.484C2192.53,298.829 2192.32,299.197 2192.14,299.583C2191.58,300.877 2191.38,302.723 2192.22,303.736L2192.21,303.741ZM2196.01,314.673C2196,314.252 2195.9,313.838 2195.72,313.459C2195.13,312.062 2193.96,310.987 2192.51,310.509C2191.8,311.819 2191.72,313.388 2192.31,314.76C2192.47,315.129 2192.68,315.471 2192.94,315.772C2193.97,316.882 2196.11,316.061 2196.01,314.673L2196.01,314.673ZM2199.8,309.006C2199.46,308.761 2199.09,308.55 2198.7,308.374C2198.23,308.172 2197.72,308.064 2197.2,308.057C2196.21,307.974 2195.22,308.147 2194.32,308.558C2194.86,309.945 2195.94,311.052 2197.32,311.613C2197.72,311.796 2198.17,311.895 2198.62,311.902C2198.68,311.909 2198.74,311.912 2198.8,311.912C2199.69,311.912 2200.43,311.179 2200.43,310.288C2200.43,309.787 2200.19,309.314 2199.8,309.006L2199.8,309.006Z" style="fill-rule:nonzero;"/></g></g></svg>