<svg width="100%" height="100%" viewBox="0 0 18 16" version="1.1" xmlns="http://www.w3.org/2000/svg" xmlns:xlink="http://www.w3.org/1999/xlink" xml:space="preserve" style="fill-rule:evenodd;clip-rule:evenodd;stroke-linejoin:round;stroke-miterlimit:2;"><g id="cuda" transform="matrix(0.379639,0,0,0.379639,1.46907,3.06662)"><path d="M14.824,7.762L14.824,5.418C15.054,5.402 15.285,5.389 15.521,5.382C21.981,5.18 26.219,10.893 26.219,10.893C26.219,10.893 21.642,17.205 16.735,17.205C16.027,17.205 15.395,17.092 14.824,16.901L14.824,9.79C17.34,10.092 17.845,11.194 19.356,13.696L22.719,10.881C22.719,10.881 20.264,7.684 16.126,7.684C15.677,7.684 15.246,7.716 14.823,7.761L14.824,7.762ZM14.823,0.016L14.823,3.519C15.054,3.5 15.287,3.485 15.52,3.477C24.502,3.176 30.355,10.791 30.355,10.791C30.355,10.791 23.634,18.906 16.63,18.906C15.988,18.906 15.387,18.847 14.823,18.749L14.823,20.914C15.306,20.975 15.806,21.011 16.327,21.011C22.844,21.011 27.558,17.707 32.122,13.796C32.878,14.397 35.976,15.86 36.613,16.501C32.273,20.108 22.161,23.014 16.427,23.014C15.875,23.014 15.344,22.981 14.823,22.932L14.823,25.974L39.593,25.974L39.593,0.017L14.824,0.017L14.823,0.016ZM14.823,16.9L14.823,18.749C8.795,17.681 7.122,11.462 7.122,11.462C7.122,11.462 10.016,8.278 14.823,7.762L14.823,9.79L14.814,9.79C12.291,9.49 10.321,11.83 10.321,11.83C10.321,11.83 11.426,15.769 14.824,16.903L14.823,16.9ZM4.119,11.194C4.119,11.194 7.691,5.961 14.824,5.42L14.824,3.522C6.924,4.151 0.081,10.794 0.081,10.794C0.081,10.794 3.956,21.917 14.824,22.935L14.824,20.917C6.848,19.92 4.119,11.194 4.119,11.194Z" style="fill:rgb(116,183,27);fill-rule:nonzero;"/></g></svg>