<svg width="100%" height="100%" viewBox="0 0 18 16" version="1.1" xmlns="http://www.w3.org/2000/svg" xmlns:xlink="http://www.w3.org/1999/xlink" xml:space="preserve" style="fill-rule:evenodd;clip-rule:evenodd;stroke-linejoin:round;stroke-miterlimit:2;"><g id="cypress-dark" transform="matrix(0.301917,0,0,0.301917,1.76697,0.747186)"><path d="M0.854,30.359C0.288,28.298 0,26.157 0,24.001C0,14.159 6.181,5.16 15.382,1.611L16.589,4.733C8.669,7.789 3.349,15.531 3.349,24.001C3.349,25.859 3.596,27.699 4.082,29.472L0.854,30.359Z" style="fill:rgb(88,208,158);fill-rule:nonzero;"/><g transform="matrix(0.104528,0.994522,-0.994522,0.104528,34.6712,-23.3363)"><path d="M22.854,21.959C22.288,19.898 22,17.757 22,15.601C22,5.759 28.181,-3.24 37.382,-6.789L38.589,-3.667C30.669,-0.611 25.349,7.131 25.349,15.601C25.349,17.459 25.596,19.299 26.082,21.072L22.854,21.959Z" style="fill:rgb(88,208,158);fill-rule:nonzero;"/></g><g transform="matrix(0.0871557,0.996195,-0.996195,0.0871557,65.984,-14.9156)"><path d="M53.451,35.793C49.87,28.919 42.822,24.648 35.061,24.648C32.312,24.648 29.639,25.178 27.123,26.218L25.84,23.127C28.764,21.917 31.867,21.3 35.061,21.3C44.077,21.3 52.262,26.26 56.422,34.246L53.451,35.793Z" style="fill:url(#_Linear-cguzp29);fill-rule:nonzero;"/></g><path d="M16.877,19.049C18.819,19.049 20.401,20.085 21.214,21.892L21.278,22.033L24.54,20.925L24.47,20.758C23.207,17.682 20.298,15.77 16.877,15.77C14.472,15.77 12.517,16.541 10.902,18.124C9.296,19.697 8.484,21.676 8.484,24.006C8.484,26.317 9.296,28.285 10.902,29.858C12.517,31.441 14.472,32.212 16.877,32.212C20.298,32.212 23.207,30.3 24.47,27.226L24.54,27.059L21.273,25.949L21.211,26.096C20.483,27.871 18.863,28.933 16.877,28.933C15.524,28.933 14.382,28.46 13.476,27.529C12.561,26.586 12.098,25.402 12.098,24.009C12.098,22.606 12.55,21.444 13.476,20.458C14.379,19.522 15.524,19.049 16.877,19.049Z" style="fill:rgb(27,30,46);fill-rule:nonzero;"/><path d="M37.306,16.074L32.658,27.835L27.979,16.074L24.151,16.074L30.713,32.127L26.045,43.449L29.391,44.115L40.923,16.074L37.306,16.074Z" style="fill:rgb(27,30,46);fill-rule:nonzero;"/><path d="M26.643,41.989L25.828,43.963C25.666,44.354 25.296,44.618 24.879,44.636C24.604,44.647 24.326,44.654 24.045,44.654C14.448,44.649 5.957,37.883 3.853,28.56L0.586,29.298C1.767,34.527 4.73,39.273 8.931,42.665C13.18,46.096 18.533,47.99 24.009,48L24.058,48C24.38,48 24.699,47.992 25.018,47.98C26.736,47.908 28.272,46.831 28.928,45.235L29.993,42.655L26.643,41.989Z" style="fill:url(#_Linear-b7bdgfq);fill-rule:nonzero;"/></g><defs><linearGradient id="_Linear-cguzp29" x1="0" y1="0" x2="1" y2="0" gradientUnits="userSpaceOnUse" gradientTransform="matrix(18.2649,4.38445,-4.38445,18.2649,32.5577,26.5711)"><stop offset="0" style="stop-color:rgb(88,208,158);stop-opacity:1"/><stop offset="0.09" style="stop-color:rgb(88,208,158);stop-opacity:1"/><stop offset="0.99" style="stop-color:rgb(88,208,158);stop-opacity:0"/><stop offset="1" style="stop-color:rgb(88,208,158);stop-opacity:0"/></linearGradient><linearGradient id="_Linear-b7bdgfq" x1="0" y1="0" x2="1" y2="0" gradientUnits="userSpaceOnUse" gradientTransform="matrix(23.8782,2.77753,-2.77753,23.8782,2.44441,37.1264)"><stop offset="0" style="stop-color:rgb(88,208,158);stop-opacity:1"/><stop offset="1" style="stop-color:rgb(27,30,46);stop-opacity:1"/></linearGradient></defs></svg>