<svg width="100%" height="100%" viewBox="0 0 18 16" version="1.1" xmlns="http://www.w3.org/2000/svg" xmlns:xlink="http://www.w3.org/1999/xlink" xml:space="preserve" style="fill-rule:evenodd;clip-rule:evenodd;stroke-linejoin:round;stroke-miterlimit:2;"><g id="dlang" transform="matrix(0.332473,0,0,0.332473,-23.1052,1.34624)"><g transform="matrix(3.37686,0,0,3.03298,69.2784,-2.76495)"><path d="M14.761,2.947L14.761,12.073C14.761,12.483 14.462,12.816 14.094,12.816L2.067,12.816C1.699,12.816 1.4,12.483 1.4,12.073L1.4,2.947C1.4,2.537 1.699,2.205 2.067,2.205L14.094,2.205C14.462,2.205 14.761,2.537 14.761,2.947Z" style="fill:rgb(176,57,49);"/></g><g transform="matrix(1.43078,0,0,1.43078,-91.9604,15.1726)"><ellipse cx="137.815" cy="0" rx="5.124" ry="4.697" style="fill:white;"/></g><g transform="matrix(1.47509,0,0,1.47509,-142.164,-18.315)"><path d="M151.62,16.732C151.274,16.775 151.003,17.051 151.001,17.385L151.023,34.454C151.023,34.712 151.093,35.245 151.82,35.245L158.357,35.219C160.226,35.216 161.477,35.184 162.223,35.09C162.227,35.09 162.236,35.09 162.24,35.09C162.953,34.991 163.709,34.808 164.531,34.541C165.959,34.095 167.225,33.435 168.314,32.554C169.38,31.7 170.206,30.69 170.787,29.553C171.367,28.416 171.66,27.214 171.658,25.968C171.655,24.233 171.13,22.609 170.077,21.148C169.024,19.686 167.587,18.567 165.818,17.826C164.02,17.064 161.676,16.716 158.767,16.722L151.708,16.732C151.678,16.732 151.649,16.728 151.62,16.732ZM155.419,20.244L158.462,20.24C159.884,20.237 160.896,20.28 161.47,20.359C162.051,20.439 162.688,20.608 163.363,20.868C164.032,21.123 164.615,21.435 165.116,21.824C166.494,22.895 167.144,24.163 167.146,25.842C167.15,27.561 166.522,28.901 165.179,30.024C164.766,30.364 164.307,30.653 163.801,30.893C163.322,31.116 162.697,31.308 161.908,31.473C161.164,31.622 160.035,31.707 158.565,31.71L155.434,31.714L155.419,20.244Z" style="fill:white;fill-rule:nonzero;"/></g></g></svg>