<svg width="100%" height="100%" viewBox="0 0 18 16" version="1.1" xmlns="http://www.w3.org/2000/svg" xmlns:xlink="http://www.w3.org/1999/xlink" xml:space="preserve" style="fill-rule:evenodd;clip-rule:evenodd;stroke-linejoin:round;stroke-miterlimit:2;"><g id="dart" transform="matrix(0.102828,0,0,0.102828,1.80668,0.940874)"><path d="M29.64,108.94L6.36,85.66C3.6,82.82 1.88,78.82 1.88,74.91C1.88,73.1 2.9,70.27 3.67,68.64L25.16,23.87L29.64,108.94Z" style="fill:rgb(1,87,155);fill-rule:nonzero;"/><path d="M109.34,28.35L86.06,5.07C84.03,3.03 79.79,0.59 76.21,0.59C73.13,0.59 70.11,1.21 68.15,2.38L25.17,23.87L109.34,28.35Z" style="fill:rgb(64,196,255);fill-rule:nonzero;"/><path d="M57.4,136.7L113.82,136.7L113.82,112.52L71.73,99.09L33.23,112.52L57.4,136.7Z" style="fill:rgb(64,196,255);fill-rule:nonzero;"/><path d="M25.17,96.41C25.17,103.59 26.07,105.36 29.65,108.95L33.23,112.53L113.82,112.53L74.42,67.76L25.17,23.88L25.17,96.41Z" style="fill:rgb(41,182,246);fill-rule:nonzero;"/><path d="M96.8,23.87L25.16,23.87L113.81,112.52L137.99,112.52L137.99,57L109.34,28.35C105.32,24.31 101.74,23.87 96.8,23.87Z" style="fill:rgb(1,87,155);fill-rule:nonzero;"/><path d="M30.54,109.84C26.96,106.24 26.06,102.7 26.06,96.41L26.06,24.77L25.16,23.87L25.16,96.4C25.17,102.7 25.17,104.44 30.54,109.84L33.23,112.53L30.54,109.84Z" style="fill:white;fill-opacity:0.2;fill-rule:nonzero;"/><path d="M137.1,56.11L137.1,111.63L112.92,111.63L113.82,112.52L138,112.52L138,57.01L137.1,56.11Z" style="fill:rgb(38,50,56);fill-opacity:0.2;fill-rule:nonzero;"/><path d="M109.34,28.35C104.9,23.91 101.26,23.87 95.91,23.87L25.17,23.87L26.07,24.77L95.92,24.77C98.58,24.77 105.33,24.32 109.34,28.35Z" style="fill:white;fill-opacity:0.2;fill-rule:nonzero;"/><path d="M137.1,56.11L86.06,5.07C84.03,3.03 79.79,0.59 76.21,0.59C73.13,0.59 70.11,1.21 68.15,2.38L25.17,23.87L3.68,68.64C2.91,70.27 1.89,73.1 1.89,74.91C1.89,78.82 3.61,82.82 6.37,85.66L27.83,106.96C28.34,107.59 28.94,108.23 29.66,108.94L57.43,136.71L113.85,136.71L113.85,112.53L138.03,112.53L138.03,57.01L137.1,56.11Z" style="fill:url(#_Radial1);fill-rule:nonzero;"/></g><defs><radialGradient id="_Radial1" cx="0" cy="0" r="1" gradientUnits="userSpaceOnUse" gradientTransform="matrix(68.065,0,0,-68.065,69.955,68.6464)"><stop offset="0" style="stop-color:white;stop-opacity:0.02"/><stop offset="1" style="stop-color:white;stop-opacity:0"/></radialGradient></defs></svg>