<svg width="100%" height="100%" viewBox="0 0 18 16" version="1.1" xmlns="http://www.w3.org/2000/svg" xmlns:xlink="http://www.w3.org/1999/xlink" xml:space="preserve" style="fill-rule:evenodd;clip-rule:evenodd;stroke-linejoin:round;stroke-miterlimit:2;"><g id="datadog"><g transform="matrix(1.26362,0,0,1.61195,-1.70438,-1.58039)"><rect x="2.536" y="1.291" width="11.871" height="9.306" style="fill:rgb(99,44,166);"/></g><g id="dd_icon_white.svg" transform="matrix(0.0132192,0,0,0.0132192,9,8)"><g transform="matrix(1,0,0,1,-400.25,-453.885)"><path d="M303.36,238.61C334.72,217.24 375.12,225.64 368.36,232.08C355.47,244.36 372.62,240.73 374.47,263.39C375.83,280.08 370.38,289.27 365.69,294.5C355.9,295.78 344,298.17 329.67,302.83C321.19,305.59 313.82,308.65 307.36,311.73C305.66,310.62 303.81,309.26 301.62,307.37C279.5,288.19 280.24,254.37 303.36,238.61M490.68,370.72C496.37,366.31 522.23,358 546.17,355.17C558.74,353.69 576.66,352.83 580.48,354.97C588.07,359.16 588.07,372.13 582.87,384.11C575.3,401.51 564.6,420.74 552.48,422.32C532.71,424.93 514.02,414.23 492.68,398.29C485.06,392.56 480.38,378.68 490.68,370.72M526.75,201.27C555.94,214.85 552.12,240.69 552.93,255.87C553.15,260.23 553.08,263.17 552.71,265.19C548.67,263 542.28,261.39 532.15,261.84C529.19,261.96 526.31,262.31 523.52,262.75C512.75,256.98 506.31,245.69 500.42,233.69C499.88,232.58 499.46,231.59 499.06,230.63C498.89,230.19 498.71,229.72 498.54,229.32C498.47,229.1 498.42,228.93 498.34,228.73C495.11,218.48 497.28,216.43 498.64,213.27C500.05,210.04 505.32,207.38 497.53,204.69C496.86,204.44 496.03,204.3 495.09,204.12C500.25,197.72 515.7,196.17 526.75,201.27M367.62,510.22C336.17,490.03 303.63,461.07 289.4,445.04C287.01,443.24 287.4,435.25 287.4,435.25C300.24,445.23 353.51,483.29 409.84,500.67C429.71,506.81 460.2,509.13 486.65,494.14C506.86,482.68 531.19,462.71 545.71,442.13L548.37,446.74C548.27,449.8 541.59,464.71 538.19,470.7C544.33,474.23 548.91,475.19 555.74,477.06L602.38,469.79C619.12,442.75 631.12,399.14 618.33,357.63C611.03,333.82 572.97,286.41 570.24,283.8C560.68,274.61 571.84,239.11 552.89,200.38C532.86,159.41 480.67,116.69 458,98.1C464.68,102.98 505.82,119.57 525,142.72C526.8,140.33 527.54,127.9 529.19,124.75C512.72,103.18 511.44,64.8 511.44,54.54C511.44,35.73 501.88,14.41 501.88,14.41C501.88,14.41 518.35,27.45 522.61,49.91C527.64,76.51 538.36,97.46 552.54,115.19C579.38,148.62 603.62,165.77 615.87,153.42C630.53,138.58 601,72.2 563.28,35.15C519.25,-8.09 507.74,-2.52 481.91,6.7C461.3,14.05 450.16,72.57 396.44,71.41C387.34,70.35 363.9,69.78 352.31,69.88C358.35,61.45 363.53,54.94 363.53,54.94C363.53,54.94 345.51,62.19 330.15,71.38L328.97,69.61C334.15,58.69 339.72,51.79 339.72,51.79C339.72,51.79 325.32,60.44 312.18,70.8C314.57,57.78 323.62,49.53 323.62,49.53C323.62,49.53 305.43,52.81 282.26,78.3C255.93,85.5 249.6,90.23 228.62,99.52C194.5,92.08 178.41,80.07 163.07,57.96C151.39,41.07 130.6,38.51 109.36,47.24C78.39,60.04 39.22,77.57 39.22,77.57C39.22,77.57 51.99,77.05 65.3,77.62C47.08,84.52 29.58,94.01 29.58,94.01C29.58,94.01 38.11,93.71 48.64,93.89C41.37,99.93 37.35,102.81 30.42,107.4C13.76,119.5 0.25,133.48 0.25,133.48C0.25,133.48 11.56,128.33 21.72,125.44C14.62,141.71 0.54,153.69 3.13,173.61C5.62,191.8 27.95,229.27 56.77,252.27C59.26,254.27 98.63,290.7 128.33,275.74C158.01,260.8 169.72,247.49 174.6,227.08C180.34,203.64 177.07,185.91 164.81,135.03C160.77,118.24 150.24,83.66 145.16,67.12L146.29,66.31C156,86.8 180.85,140.81 190.86,177.09C206.49,233.66 201.61,262.36 194.46,272.88C172.89,304.61 117.62,308.8 92.48,291.22C88.63,352.13 102.24,378.95 106.85,392.46C104.56,407.99 114.62,436.83 114.62,436.83C114.62,436.83 115.75,423.72 120.36,416.81C121.59,432.22 129.36,450.53 129.36,450.53C129.36,450.53 128.89,439.22 132.42,429.45C137.4,437.88 141.05,439.88 145.76,446.21C150.47,462.68 159.91,474.71 159.91,474.71C159.91,474.71 158.38,465.88 159.22,456.69C182.27,478.83 186.24,511.14 188.53,535.97C194.99,604.23 80.9,658.51 58.79,701.21C42.03,726.5 31.99,766.51 60.37,790.1C128.97,847.07 102.62,862.75 136.96,887.79C184.07,922.13 243.01,906.75 263.07,878.82C291,839.9 283.83,803.19 273.45,768.85C265.34,742 243.3,697.39 216.04,680.13C188.18,662.48 161.09,659.18 138.14,661.54L140.26,659.1C173.27,652.54 207.78,656.14 232.75,672.24C261.1,690.46 287.03,721.71 300.59,769.61C315.97,767.42 318.14,766.43 332.22,764.43L300.52,517.67L367.62,510.22ZM385.94,819.52L382.29,785.3L453.58,676.56L534.51,700.2L604.1,583.97L687.52,639L750.9,506.08L773.43,748.15L385.94,819.52ZM774.27,456.51L519.55,502.68C513.24,510.81 497.64,525.09 490.14,528.81C457.97,545.01 436.23,540.32 417.44,535.44C405.36,532.38 398.36,530.66 388.33,526.15L326.16,534.68L363.9,849.55L800.25,770.89L774.27,456.51Z" style="fill:white;fill-rule:nonzero;"/></g></g></g></svg>