<svg width="100%" height="100%" viewBox="0 0 18 16" version="1.1" xmlns="http://www.w3.org/2000/svg" xmlns:xlink="http://www.w3.org/1999/xlink" xml:space="preserve" style="fill-rule:evenodd;clip-rule:evenodd;stroke-linejoin:round;stroke-miterlimit:2;"><g id="debug-light" transform="matrix(1,0,0,1,-0.0950312,0.758514)"><path d="M3.757,13.946L4.34,13.388C4.326,13.701 4.068,13.946 3.757,13.946ZM4.953,7.687C4.748,7.618 4.497,7.523 4.274,7.413C4.003,7.278 3.774,7.111 3.645,6.948C3.517,6.786 3.405,6.525 3.332,6.229C3.204,5.707 3.175,5.07 3.175,5.07C3.16,4.748 3.41,4.475 3.731,4.461C4.053,4.446 4.239,4.761 4.284,5.009C4.335,5.286 4.364,5.435 4.428,5.776C4.46,5.95 4.486,6.13 4.559,6.222C4.63,6.312 4.796,6.374 4.953,6.441C4.992,6.458 5.031,6.474 5.07,6.489C5.292,5.824 5.81,5.293 6.467,5.053L6.456,4.947L6.456,3.444C6.456,2.822 6.909,2.299 7.504,2.011C7.356,1.821 6.816,1.414 6.816,1.414C6.788,1.393 6.763,1.368 6.742,1.341L6.64,1.397L6.454,1.455L6.255,1.475L6.057,1.455L5.87,1.397L5.702,1.305L5.557,1.185L5.437,1.039L5.346,0.872L5.288,0.685L5.268,0.487L5.288,0.289L5.346,0.103L5.437,-0.065L5.557,-0.21L5.702,-0.331L5.87,-0.422L6.057,-0.48L6.255,-0.5L6.454,-0.48L6.64,-0.422L6.808,-0.331L6.953,-0.21L7.073,-0.065L7.164,0.103L7.222,0.289L7.242,0.487L7.222,0.685L7.219,0.695C7.256,0.709 7.292,0.729 7.325,0.754C7.325,0.754 8,1.284 8.175,1.515C8.224,1.581 8.268,1.679 8.304,1.782C8.378,1.774 8.453,1.77 8.527,1.77L9.677,1.77C9.771,1.77 9.865,1.777 9.959,1.789C9.996,1.683 10.04,1.583 10.091,1.515C10.265,1.284 10.941,0.754 10.941,0.754C10.959,0.74 10.978,0.728 10.997,0.718L10.987,0.686L10.967,0.487L10.987,0.289L11.045,0.103L11.136,-0.065L11.256,-0.211L11.402,-0.331L11.57,-0.422L11.756,-0.48L11.955,-0.5L12.153,-0.48L12.339,-0.422L12.507,-0.331L12.653,-0.211L12.773,-0.065L12.864,0.103L12.922,0.289L12.942,0.487L12.922,0.686L12.864,0.872L12.773,1.04L12.653,1.186L12.507,1.306L12.339,1.397L12.153,1.455L11.955,1.475L11.756,1.455L11.57,1.397L11.506,1.362C11.489,1.381 11.47,1.398 11.45,1.414C11.45,1.414 10.896,1.831 10.756,2.017C10.752,2.023 10.748,2.028 10.745,2.035C11.318,2.328 11.749,2.842 11.749,3.444L11.749,4.947L11.738,5.053C12.393,5.293 12.91,5.821 13.133,6.484C13.168,6.47 13.203,6.456 13.237,6.441C13.394,6.374 13.56,6.312 13.631,6.222C13.704,6.13 13.73,5.95 13.762,5.776C13.826,5.435 13.85,5.025 13.85,5.025L13.85,5.017C13.864,4.696 14.137,4.446 14.459,4.461C14.78,4.475 15.03,4.748 15.015,5.07C15.015,5.07 14.986,5.707 14.858,6.229C14.785,6.525 14.673,6.786 14.545,6.948C14.416,7.111 14.187,7.278 13.916,7.413C13.698,7.521 13.454,7.613 13.252,7.682L13.252,8.619L14.43,8.613C14.752,8.611 15.014,8.871 15.016,9.193C15.018,9.515 14.757,9.778 14.436,9.78L13.252,9.785L13.252,10.182C13.252,10.362 13.241,10.539 13.218,10.712C13.426,10.782 13.686,10.879 13.916,10.993C14.187,11.128 14.416,11.295 14.545,11.458C14.673,11.62 14.785,11.881 14.858,12.177C14.986,12.699 15.015,13.336 15.015,13.336C15.03,13.658 14.802,13.932 14.512,13.944C14.201,13.958 13.975,13.72 13.904,13.386C13.853,13.145 13.826,12.97 13.762,12.63C13.73,12.456 13.704,12.276 13.631,12.184C13.56,12.093 13.394,12.032 13.237,11.965C13.13,11.919 13.014,11.876 12.907,11.839C12.267,13.306 10.804,14.332 9.102,14.332C7.399,14.332 5.934,13.304 5.295,11.835C5.186,11.872 5.065,11.917 4.953,11.965C4.796,12.032 4.63,12.093 4.559,12.184C4.486,12.276 4.46,12.456 4.428,12.63C4.364,12.97 4.344,13.315 4.341,13.38C4.341,13.38 3.74,13.945 3.731,13.945C3.41,13.931 3.16,13.658 3.175,13.336C3.175,13.336 3.204,12.699 3.332,12.177C3.405,11.881 3.517,11.62 3.645,11.458C3.774,11.295 4.003,11.128 4.274,10.993C4.509,10.877 4.775,10.778 4.986,10.708C4.964,10.536 4.953,10.36 4.953,10.182L4.953,9.778L3.76,9.784C3.438,9.786 3.176,9.526 3.174,9.204C3.172,8.882 3.433,8.619 3.755,8.617L4.953,8.612L4.953,7.687ZM11.944,6.669C11.75,6.318 11.377,6.081 10.949,6.081L7.255,6.081C6.84,6.081 6.476,6.305 6.278,6.639L11.944,6.669ZM6.119,7.805L6.119,10.182C6.119,11.629 7.151,12.837 8.519,13.108L8.519,7.817L6.119,7.805ZM9.686,13.108C11.053,12.837 12.085,11.629 12.085,10.182L12.085,7.836L9.686,7.823L9.686,13.108ZM11.955,0.875C12.169,0.875 12.342,0.701 12.342,0.487C12.342,0.273 12.169,0.1 11.955,0.1C11.741,0.1 11.567,0.273 11.567,0.487C11.567,0.701 11.741,0.875 11.955,0.875ZM7.622,3.546L7.622,4.747L10.582,4.747L10.582,3.546C10.582,3.192 10.073,2.937 9.677,2.937L8.527,2.937C8.131,2.937 7.622,3.192 7.622,3.546ZM6.255,0.875C6.469,0.875 6.643,0.702 6.643,0.487C6.643,0.273 6.469,0.1 6.255,0.1C6.041,0.1 5.867,0.273 5.867,0.487C5.867,0.702 6.041,0.875 6.255,0.875Z" style="fill:white;fill-opacity:0.6;"/></g></svg>