<svg width="100%" height="100%" viewBox="0 0 18 16" version="1.1" xmlns="http://www.w3.org/2000/svg" xmlns:xlink="http://www.w3.org/1999/xlink" xml:space="preserve" style="fill-rule:evenodd;clip-rule:evenodd;stroke-linecap:round;stroke-linejoin:round;stroke-miterlimit:1;"><g id="debug-dark" transform="matrix(1,0,0,1,0.0072551,0.752208)"><g transform="matrix(1,0,0,1,-0.102286,0.00630673)"><path d="M4.953,10.182L4.953,7.218C4.953,5.946 5.984,4.915 7.255,4.915L10.949,4.915C12.22,4.915 13.252,5.946 13.252,7.218L13.252,10.182C13.252,12.472 11.393,14.332 9.102,14.332C6.812,14.332 4.953,12.472 4.953,10.182ZM12.085,10.182L12.085,7.218C12.085,6.59 11.576,6.081 10.949,6.081L7.255,6.081C6.628,6.081 6.119,6.59 6.119,7.218L6.119,10.182C6.119,11.828 7.456,13.165 9.102,13.165C10.749,13.165 12.085,11.828 12.085,10.182Z" style="fill:rgb(93,108,121);"/></g><g transform="matrix(0.711855,0,0,0.859197,3.18068,-0.502065)"><path d="M11.893,4.6L11.893,6.349L11.865,6.575L11.786,6.787L11.66,6.979L11.495,7.145L11.294,7.282L11.063,7.386L10.807,7.452L10.534,7.475L5.816,7.475L5.543,7.452L5.286,7.386L5.055,7.282L4.855,7.145L4.69,6.979L4.564,6.787L4.485,6.575L4.457,6.349L4.457,4.6C4.457,3.491 5.952,2.652 7.367,2.652L8.982,2.652C10.398,2.652 11.893,3.499 11.893,4.6ZM6.096,4.719L6.096,6.117L10.254,6.117L10.254,4.719C10.254,4.307 9.539,4.01 8.982,4.01L7.367,4.01C6.811,4.01 6.096,4.307 6.096,4.719Z" style="fill:rgb(93,108,121);"/></g><g transform="matrix(1,0,0,0.981908,0,0.24696)"><path d="M9,13.65L9,7.14" style="fill:none;stroke:rgb(93,108,121);stroke-width:1.18px;"/></g><path d="M12.586,7.262L5.496,7.225" style="fill:none;stroke:rgb(93,108,121);stroke-width:1.17px;"/><path d="M5.407,7.255C5.407,7.255 4.291,6.959 4,6.591C3.708,6.224 3.655,5.05 3.655,5.05" style="fill:none;stroke:rgb(93,108,121);stroke-width:1.17px;"/><g transform="matrix(0.764747,0.00115045,0.00115045,0.999994,1.14091,-0.00616386)"><path d="M5.403,9.199L3.274,9.209" style="fill:none;stroke:rgb(93,108,121);stroke-width:1.31px;"/></g><g transform="matrix(1,0,0,-1,2.22045e-16,18.4185)"><path d="M5.407,7.255C5.407,7.255 4.291,6.959 4,6.591C3.708,6.224 3.655,5.05 3.655,5.05" style="fill:none;stroke:rgb(93,108,121);stroke-width:1.17px;"/></g><g transform="matrix(-1,0,0,1,17.9855,-3.33067e-16)"><path d="M5.407,7.255C5.407,7.255 4.291,6.959 4,6.591C3.708,6.224 3.655,5.05 3.655,5.05" style="fill:none;stroke:rgb(93,108,121);stroke-width:1.17px;"/></g><g transform="matrix(-1,0,0,-1,17.9855,18.4185)"><path d="M5.407,7.255C5.407,7.255 4.291,6.959 4,6.591C3.708,6.224 3.655,5.05 3.655,5.05" style="fill:none;stroke:rgb(93,108,121);stroke-width:1.17px;"/></g><g transform="matrix(0.811523,0.000921701,0.000921701,0.999995,9.93743,-0.00147248)"><path d="M5.403,9.199L3.274,9.209" style="fill:none;stroke:rgb(93,108,121);stroke-width:1.28px;"/></g><g transform="matrix(-1,0,0,-1,15.0002,3.43306)"><path d="M8.032,2.343C8.032,2.343 7.418,1.869 7.26,1.66C7.141,1.502 7.089,1.091 7.089,1.091" style="fill:none;stroke:rgb(93,108,121);stroke-width:0.83px;"/></g><g transform="matrix(1,0,0,-1,3.06078,3.43306)"><path d="M8.032,2.343C8.032,2.343 7.418,1.869 7.26,1.66C7.141,1.502 7.089,1.091 7.089,1.091" style="fill:none;stroke:rgb(93,108,121);stroke-width:0.83px;"/></g><g transform="matrix(0.790758,0,0,0.83308,7.4385,-0.394408)"><ellipse cx="5.582" cy="1.066" rx="0.379" ry="0.36" style="fill:none;stroke:rgb(93,108,121);stroke-width:1.69px;"/></g><g transform="matrix(0.789162,0,0,0.83308,1.74781,-0.394408)"><ellipse cx="5.582" cy="1.066" rx="0.379" ry="0.36" style="fill:none;stroke:rgb(93,108,121);stroke-width:1.69px;"/></g></g></svg>