<svg width="100%" height="100%" viewBox="0 0 18 16" version="1.1" xmlns="http://www.w3.org/2000/svg" xmlns:xlink="http://www.w3.org/1999/xlink" xml:space="preserve" style="fill-rule:evenodd;clip-rule:evenodd;stroke-linejoin:round;stroke-miterlimit:2;"><g id="deno" transform="matrix(0.0454537,0,0,0.0454537,24.38,7.64799)"><g><g transform="matrix(28.2406,0,0,26.585,-619.135,-188.676)"><ellipse cx="9.942" cy="7.388" rx="6.038" ry="6.414" style="fill:white;"/></g><g id="background" transform="matrix(1,0,0,1,-503.369,-157.258)"><path d="M28.829,227.937C19.958,208.794 15.007,187.472 15.007,165.002C15.007,159.187 15.339,153.448 15.984,147.805C16.639,142.102 17.61,136.506 18.877,131.032C25.997,100.328 42.557,73.224 65.329,52.95C84.456,35.944 107.887,23.81 133.573,18.31C143.71,16.145 154.224,15.006 165.003,15.006C168.781,15.01 172.586,15.155 176.414,15.447C194.568,16.833 211.723,21.403 227.373,28.568C239.998,34.354 251.683,41.842 262.135,50.737C288.388,73.101 306.697,104.254 312.786,139.213C314.241,147.592 314.999,156.209 314.999,165.002C314.996,168.786 314.85,172.597 314.557,176.431C313.451,190.92 310.316,204.773 305.453,217.733C298.665,235.784 288.494,252.185 275.715,266.161C259.094,283.132 237.972,290.684 220.331,290.37C207.503,290.141 194.952,285.037 186.279,277.569C173.889,266.9 168.885,254.704 167.169,241.095C166.743,237.712 166.993,228.494 168.754,222.111C170.066,217.353 173.394,208.165 178.261,204.146C172.568,201.694 165.24,196.354 162.93,193.791C162.362,193.161 162.436,192.174 162.944,191.495C163.453,190.817 164.344,190.549 165.143,190.836C170.038,192.516 175.999,194.173 182.285,195.225C190.552,196.607 200.833,198.347 211.248,198.859C236.643,200.106 263.169,188.708 271.402,166.029C279.634,143.35 276.44,120.918 246.906,107.463C217.371,94.007 203.728,78.008 179.865,68.359C164.278,62.056 146.93,65.798 129.119,75.641C81.145,102.153 38.164,185.92 57.977,263.528C58.26,264.59 57.782,265.708 56.819,266.237C55.916,266.732 54.806,266.591 54.058,265.906C48.292,259.57 43.06,252.74 38.435,245.485C34.857,239.871 31.645,234.01 28.829,227.937Z"/></g><g id="outline" transform="matrix(1,0,0,1,-503.369,-157.258)"><path d="M172.67,0.181C263.638,4.413 334.056,81.702 329.825,172.67C325.593,263.638 248.303,334.055 157.336,329.823C66.368,325.592 -4.05,248.303 0.181,157.336C4.413,66.368 81.702,-4.05 172.67,0.181ZM211.248,198.859C200.833,198.347 190.552,196.607 182.285,195.225C175.999,194.173 170.038,192.516 165.143,190.836C164.344,190.549 163.453,190.817 162.944,191.495C162.436,192.174 162.362,193.161 162.93,193.791C165.24,196.354 172.568,201.694 178.261,204.146C173.394,208.165 170.066,217.353 168.754,222.111C166.993,228.494 166.743,237.712 167.169,241.095C168.885,254.704 173.889,266.9 186.279,277.569C194.952,285.037 207.503,290.141 220.331,290.37C238.033,290.685 259.24,283.08 275.887,265.985C297.652,242.124 311.91,211.098 314.557,176.431C320.86,93.885 258.961,21.75 176.414,15.447C93.869,9.144 21.734,71.044 15.431,153.59C12.167,196.339 27.195,236.296 53.912,265.76C54.656,266.569 55.856,266.766 56.819,266.237C57.782,265.708 58.26,264.59 57.977,263.528C38.164,185.92 81.145,102.153 129.119,75.641C146.93,65.798 164.278,62.056 179.865,68.359C203.728,78.008 217.371,94.007 246.906,107.463C276.44,120.918 279.634,143.35 271.402,166.029C263.169,188.708 236.643,200.106 211.248,198.859Z" style="fill:none;"/></g><g id="eye" transform="matrix(1,0,0,1,-503.369,-157.258)"><path d="M159.634,78.772C167.726,78.138 174.786,85.044 176.003,94.229C177.627,106.464 173.136,119.103 158.37,119.394C145.756,119.646 141.934,106.925 142.77,99.219C143.6,91.513 149.952,79.532 159.634,78.772Z"/></g></g></g></svg>