<svg width="100%" height="100%" viewBox="0 0 18 16" version="1.1" xmlns="http://www.w3.org/2000/svg" xmlns:xlink="http://www.w3.org/1999/xlink" xml:space="preserve" style="fill-rule:evenodd;clip-rule:evenodd;stroke-linejoin:round;stroke-miterlimit:2;"><g id="deno"><g transform="matrix(1.28364,0,0,1.20838,-3.76196,-0.928048)"><ellipse cx="9.942" cy="7.388" rx="6.038" ry="6.414" style="fill:white;"/></g><g transform="matrix(0.466667,0,0,0.466667,2,1)"><path d="M15,0C23.284,0 30,6.716 30,15C30,23.284 23.284,30 15,30C6.716,30 0,23.284 0,15C0,6.716 6.716,0 15,0Z" style="fill-rule:nonzero;"/><path d="M14.664,22.339C14.279,22.236 13.883,22.458 13.771,22.838L13.766,22.856L12.769,26.547L12.765,26.565C12.671,26.95 12.901,27.341 13.286,27.445C13.67,27.549 14.066,27.326 14.179,26.947L14.184,26.929L15.18,23.238L15.184,23.22C15.191,23.192 15.196,23.164 15.2,23.136L15.203,23.108L15.179,22.989L15.145,22.817L15.123,22.709C15.076,22.619 15.011,22.54 14.932,22.476C14.853,22.412 14.762,22.366 14.664,22.339ZM7.722,18.538C7.704,18.574 7.689,18.612 7.677,18.652L7.67,18.676L6.674,22.368L6.669,22.386C6.575,22.77 6.805,23.162 7.19,23.266C7.575,23.369 7.97,23.147 8.083,22.767L8.088,22.749L8.991,19.402C8.518,19.152 8.093,18.863 7.722,18.538ZM5.347,14.293C4.962,14.189 4.567,14.412 4.454,14.791L4.449,14.809L3.453,18.501L3.448,18.518C3.355,18.903 3.585,19.295 3.969,19.398C4.354,19.502 4.75,19.28 4.862,18.9L4.867,18.882L5.863,15.191L5.868,15.173C5.962,14.788 5.732,14.397 5.347,14.293ZM27.682,13.455C27.297,13.351 26.901,13.573 26.789,13.953L26.784,13.971L25.788,17.662L25.783,17.68C25.69,18.065 25.92,18.456 26.304,18.56C26.689,18.664 27.085,18.441 27.197,18.062L27.202,18.044L28.198,14.352L28.203,14.335C28.297,13.95 28.067,13.558 27.682,13.455ZM3.178,8.525C2.344,10.044 1.812,11.711 1.614,13.433C1.709,13.541 1.834,13.619 1.973,13.656C2.358,13.76 2.753,13.538 2.866,13.158L2.871,13.14L3.867,9.449L3.872,9.431C3.965,9.046 3.735,8.654 3.351,8.551C3.294,8.535 3.236,8.527 3.178,8.525ZM25.159,8.551C24.774,8.447 24.379,8.67 24.266,9.049L24.261,9.067L23.265,12.758L23.26,12.776C23.167,13.161 23.397,13.553 23.781,13.656C24.166,13.76 24.562,13.538 24.674,13.158L24.679,13.14L25.675,9.449L25.68,9.431C25.774,9.046 25.544,8.654 25.159,8.551Z" style="fill:white;fill-rule:nonzero;"/><path d="M7.513,5.041C7.128,4.937 6.732,5.159 6.62,5.539L6.615,5.557L5.619,9.248L5.614,9.266C5.521,9.651 5.751,10.043 6.135,10.146C6.52,10.25 6.916,10.027 7.028,9.648L7.033,9.63L8.029,5.939L8.034,5.921C8.127,5.536 7.898,5.144 7.513,5.041ZM20.312,5.738C19.927,5.635 19.531,5.857 19.419,6.237L19.414,6.255L18.744,8.735C19.178,8.949 19.592,9.201 19.981,9.488L20.045,9.536L20.828,6.636L20.832,6.619C20.926,6.234 20.696,5.842 20.312,5.738ZM13.797,1.576C13.33,1.618 12.865,1.683 12.404,1.773L12.307,1.793L11.378,5.234L11.374,5.252C11.28,5.637 11.51,6.028 11.895,6.132C12.279,6.236 12.675,6.013 12.788,5.634L12.792,5.616L13.789,1.924L13.793,1.907C13.82,1.798 13.821,1.685 13.797,1.576ZM22.963,4.126L22.767,4.852L22.762,4.869C22.669,5.254 22.899,5.646 23.283,5.75C23.668,5.853 24.064,5.631 24.176,5.251L24.181,5.233L24.203,5.155C23.836,4.812 23.451,4.49 23.049,4.19L22.963,4.126ZM17.167,1.697L16.814,3.006L16.809,3.024C16.716,3.409 16.946,3.8 17.33,3.904C17.715,4.008 18.111,3.785 18.223,3.405L18.228,3.388L18.6,2.01C18.162,1.889 17.719,1.79 17.271,1.714L17.167,1.697Z" style="fill:white;fill-rule:nonzero;"/><path d="M9.691,24.625C9.803,24.246 10.199,24.023 10.584,24.127C10.969,24.23 11.198,24.622 11.105,25.007L11.1,25.025L10.387,27.666L10.288,27.63C9.858,27.469 9.438,27.287 9.027,27.084L9.686,24.643L9.691,24.625Z" style="fill:white;fill-rule:nonzero;"/><path d="M14.414,8.491C10.052,8.491 6.659,11.237 6.659,14.652C6.659,17.877 9.781,19.936 14.621,19.833C15.033,19.824 15.152,20.101 15.286,20.473C15.42,20.846 15.78,22.81 16.067,24.312C16.323,25.656 16.584,27.005 16.783,28.36C19.944,27.942 22.866,26.381 25.008,24.026L22.724,15.509C22.154,13.452 21.489,11.556 19.728,10.179C18.312,9.072 16.512,8.491 14.414,8.491Z" style="fill:white;fill-rule:nonzero;"/><path d="M15.352,10.957C15.869,10.957 16.289,11.377 16.289,11.895C16.289,12.412 15.869,12.832 15.352,12.832C14.834,12.832 14.414,12.412 14.414,11.895C14.414,11.377 14.834,10.957 15.352,10.957Z" style="fill-rule:nonzero;"/></g></g></svg>