<svg width="100%" height="100%" viewBox="0 0 18 16" version="1.1" xmlns="http://www.w3.org/2000/svg" xmlns:xlink="http://www.w3.org/1999/xlink" xml:space="preserve" style="fill-rule:evenodd;clip-rule:evenodd;stroke-linejoin:round;stroke-miterlimit:2;"><g id="dependabot" transform="matrix(2.15147,0,0,2.15147,-10.6271,-9.37322)"><path d="M6.304,9.038L5.948,9.037C5.776,9.037 5.636,8.896 5.637,8.724C5.637,8.551 5.778,8.412 5.95,8.412L6.304,8.413L6.304,7.426L6.324,7.23L6.382,7.046L6.472,6.88L6.59,6.736L6.734,6.617L6.9,6.527L7.084,6.47L7.281,6.45L8.917,6.45C8.918,6.109 8.918,5.566 8.918,5.566L8.341,5.57C8.168,5.571 8.027,5.432 8.026,5.259C8.025,5.087 8.164,4.946 8.337,4.945L9.229,4.939C9.313,4.939 9.393,4.972 9.452,5.03C9.511,5.089 9.544,5.169 9.544,5.252L9.542,6.45L10.966,6.45L11.162,6.47L11.346,6.527L11.512,6.617L11.656,6.736L11.775,6.88L11.865,7.046L11.922,7.23L11.942,7.426L11.942,8.413L12.297,8.414C12.469,8.415 12.609,8.555 12.609,8.727C12.608,8.9 12.468,9.04 12.295,9.039L11.942,9.038L11.942,10.235L11.922,10.431L11.865,10.615L11.775,10.781L11.656,10.925L11.512,11.044L11.346,11.134L11.162,11.191L10.966,11.211L7.281,11.211L7.084,11.191L6.9,11.134L6.734,11.044L6.59,10.925L6.472,10.781L6.382,10.615L6.324,10.431L6.304,10.235L6.304,9.038ZM11.317,7.426C11.317,7.232 11.16,7.075 10.966,7.075L7.281,7.075C7.087,7.075 6.929,7.232 6.929,7.426L6.929,10.235C6.929,10.428 7.087,10.586 7.281,10.586L10.966,10.586C11.16,10.586 11.317,10.428 11.317,10.235L11.317,7.426Z" style="fill:rgb(99,108,118);"/><path d="M8.455,9.207C8.454,9.38 8.313,9.519 8.141,9.517C7.968,9.516 7.829,9.375 7.831,9.203L7.836,8.481C7.837,8.308 7.978,8.169 8.15,8.17C8.323,8.172 8.462,8.313 8.461,8.485L8.455,9.207Z" style="fill:rgb(99,108,118);"/><g transform="matrix(1,0,0,1,1.95634,-2.08167e-17)"><path d="M8.455,9.207C8.454,9.38 8.313,9.519 8.141,9.517C7.968,9.516 7.829,9.375 7.831,9.203L7.836,8.481C7.837,8.308 7.978,8.169 8.15,8.17C8.323,8.172 8.462,8.313 8.461,8.485L8.455,9.207Z" style="fill:rgb(99,108,118);"/></g></g></svg>