<svg width="100%" height="100%" viewBox="0 0 18 16" version="1.1" xmlns="http://www.w3.org/2000/svg" xmlns:xlink="http://www.w3.org/1999/xlink" xml:space="preserve" style="fill-rule:evenodd;clip-rule:evenodd;stroke-linejoin:round;stroke-miterlimit:2;"><g id="dependabot" transform="matrix(1.10906,0,0,1.10906,-0.828596,-0.802094)"><g transform="matrix(0.968214,0,0,1.05485,0.811966,-0.148887)"><path d="M15.532,3.679L15.532,11.651C15.532,13.114 14.238,14.301 12.645,14.301L3.984,14.301C2.391,14.301 1.097,13.114 1.097,11.651L1.097,3.679C1.097,2.216 2.391,1.029 3.984,1.029L12.645,1.029C14.238,1.029 15.532,2.216 15.532,3.679Z" style="fill:rgb(9,101,213);"/><path d="M15.532,3.679L15.532,11.651C15.532,13.114 14.238,14.301 12.645,14.301L3.984,14.301C2.391,14.301 1.097,13.114 1.097,11.651L1.097,3.679C1.097,2.216 2.391,1.029 3.984,1.029L12.645,1.029C14.238,1.029 15.532,2.216 15.532,3.679ZM14.95,3.679C14.95,2.511 13.917,1.563 12.645,1.563L3.984,1.563C2.712,1.563 1.679,2.511 1.679,3.679L1.679,11.651C1.679,12.819 2.712,13.767 3.984,13.767L12.645,13.767C13.917,13.767 14.95,12.819 14.95,11.651L14.95,3.679Z" style="fill:rgb(49,52,56);"/></g><g transform="matrix(1.00924,0,0,1.03954,-0.00912083,-0.110243)"><path d="M9.817,5.746L12.293,5.746C12.634,5.746 12.91,6.015 12.91,6.345L12.91,8.328L13.519,8.328L13.519,10.331L12.91,10.331L12.91,11.136C12.91,11.466 12.634,11.735 12.293,11.735L5.3,11.735C4.96,11.735 4.683,11.466 4.683,11.136L4.683,10.331L4.061,10.331L4.061,8.328L4.683,8.328L4.683,6.345C4.683,6.015 4.96,5.746 5.3,5.746L9.408,5.746L9.408,5.144L8.464,5.144C8.376,5.144 8.173,4.94 8.173,4.838L8.173,3.747L9.817,3.747L9.817,5.746ZM6.137,9.207L6.567,9.611C6.697,9.733 7.007,9.739 7.144,9.607L8.026,8.758C8.188,8.603 8.189,8.349 8.029,8.192C7.869,8.034 7.607,8.033 7.445,8.189L6.85,8.762L6.711,8.631C6.547,8.477 6.285,8.481 6.127,8.64C5.968,8.8 5.973,9.053 6.137,9.207ZM9.621,9.207L10.051,9.611C10.182,9.733 10.492,9.739 10.629,9.607L11.511,8.758C11.673,8.603 11.674,8.349 11.514,8.192C11.353,8.034 11.092,8.033 10.93,8.189L10.335,8.762L10.195,8.631C10.031,8.477 9.77,8.481 9.611,8.64C9.453,8.8 9.458,9.053 9.621,9.207Z" style="fill:white;"/></g></g></svg>