<svg width="100%" height="100%" viewBox="0 0 18 16" version="1.1" xmlns="http://www.w3.org/2000/svg" xmlns:xlink="http://www.w3.org/1999/xlink" xml:space="preserve" style="fill-rule:evenodd;clip-rule:evenodd;stroke-linejoin:round;stroke-miterlimit:2;"><g id="dioxus" transform="matrix(1.24124,0,0,1.24124,-2.08371,-2.21562)"><g transform="matrix(-1,0,0,1,17.8591,6.93889e-18)"><path d="M6.475,3.494L6.479,2.599L4.687,2.591L4.683,3.486C4.683,3.486 4.638,4.572 5.682,6.216C6.127,6.917 6.988,7.822 8.43,9.012C9.482,9.881 9.865,10.215 10.22,10.655C11.329,12.031 11.385,12.974 11.385,12.974L11.385,13.87L13.177,13.868L13.176,12.973C13.176,12.973 13.23,11.535 11.615,9.531C11.207,9.025 10.779,8.629 9.57,7.63C8.335,6.611 7.576,5.857 7.195,5.256C6.511,4.179 6.475,3.494 6.475,3.494Z" style="fill:rgb(233,96,32);"/></g><g transform="matrix(0.94607,6.72214e-05,6.72214e-05,1,0.628368,-0.0380509)"><path d="M11.492,3.523C11.759,3.522 11.977,3.728 11.977,3.98C11.977,4.233 11.761,4.439 11.493,4.439L5.582,4.447C5.315,4.447 5.098,4.242 5.097,3.989C5.097,3.736 5.314,3.53 5.581,3.53L11.492,3.523Z" style="fill:rgb(45,50,59);"/></g><g transform="matrix(0.700478,0.000373343,0.000373343,1,2.8744,1.61242)"><path d="M11.492,3.523C11.853,3.522 12.147,3.727 12.147,3.98C12.147,4.233 11.854,4.439 11.493,4.439L5.582,4.447C5.221,4.447 4.928,4.242 4.928,3.989C4.927,3.736 5.22,3.531 5.581,3.53L11.492,3.523Z" style="fill:rgb(45,50,59);"/></g><g transform="matrix(0.700478,0.000373343,0.000373343,1,3.01836,7.00109)"><path d="M11.492,3.523C11.853,3.522 12.147,3.727 12.147,3.98C12.147,4.233 11.854,4.439 11.493,4.439L5.582,4.447C5.221,4.447 4.928,4.242 4.928,3.989C4.927,3.736 5.22,3.531 5.581,3.53L11.492,3.523Z" style="fill:rgb(45,50,59);"/></g><g transform="matrix(0.918217,0.00010194,0.00010194,1,1.26798,8.61269)"><path d="M11.492,3.523C11.768,3.522 11.991,3.727 11.992,3.98C11.992,4.233 11.769,4.439 11.493,4.439L5.582,4.447C5.307,4.447 5.083,4.242 5.083,3.989C5.082,3.736 5.306,3.53 5.581,3.53L11.492,3.523Z" style="fill:rgb(45,50,59);"/></g><path d="M4.683,3.486L4.687,2.591L6.479,2.599L6.475,3.494C6.475,3.494 6.511,4.179 7.195,5.256C7.576,5.857 8.335,6.611 9.57,7.63C10.779,8.629 11.207,9.025 11.615,9.531C13.23,11.535 13.176,12.973 13.176,12.973L13.177,13.868L11.385,13.87L11.385,12.974C11.385,12.974 11.329,12.031 10.22,10.655C9.865,10.215 9.482,9.881 8.43,9.012C6.988,7.822 6.127,6.917 5.682,6.216C4.638,4.572 4.683,3.486 4.683,3.486Z" style="fill:rgb(0,168,214);"/></g></svg>