<svg width="100%" height="100%" viewBox="0 0 18 16" version="1.1" xmlns="http://www.w3.org/2000/svg" xmlns:xlink="http://www.w3.org/1999/xlink" xml:space="preserve" style="fill-rule:evenodd;clip-rule:evenodd;stroke-linejoin:round;stroke-miterlimit:2;"><g id="directx-1-dark" transform="matrix(0.0197651,0,0,0.0197651,0.365145,4.32955)"><path d="M98.617,121.935L91.034,121.935L91.034,78.25C91.034,74.799 91.245,70.576 91.67,65.581L91.488,65.581C90.761,68.518 90.11,70.622 89.535,71.893L67.284,121.935L63.56,121.935L41.355,72.256C40.719,70.803 40.068,68.578 39.402,65.581L39.221,65.581C39.463,68.185 39.584,72.438 39.584,78.341L39.584,121.935L32.227,121.935L32.227,56.817L42.308,56.817L62.288,102.227C63.832,105.708 64.831,108.312 65.285,110.038L65.557,110.038C66.858,106.466 67.903,103.802 68.69,102.046L89.081,56.817L98.617,56.817L98.617,121.935ZM118.552,63.628C117.219,63.628 116.084,63.174 115.146,62.266C114.208,61.358 113.738,60.207 113.738,58.815C113.738,57.423 114.207,56.265 115.146,55.341C116.085,54.417 117.219,53.956 118.552,53.956C119.914,53.956 121.073,54.418 122.026,55.341C122.979,56.264 123.457,57.423 123.457,58.815C123.457,60.148 122.98,61.283 122.026,62.221C121.072,63.159 119.914,63.628 118.552,63.628ZM122.185,121.935L114.738,121.935L114.738,75.435L122.185,75.435L122.185,121.935ZM168.957,119.801C165.385,121.95 161.146,123.025 156.242,123.025C149.612,123.025 144.261,120.868 140.189,116.554C136.117,112.24 134.082,106.647 134.082,99.775C134.082,92.116 136.277,85.963 140.666,81.316C145.055,76.669 150.913,74.345 158.24,74.345C162.327,74.345 165.929,75.102 169.048,76.616L169.048,84.245C165.597,81.823 161.903,80.612 157.968,80.612C153.215,80.612 149.318,82.315 146.275,85.72C143.232,89.125 141.712,93.599 141.712,99.139C141.712,104.588 143.143,108.887 146.003,112.035C148.863,115.183 152.701,116.758 157.515,116.758C161.572,116.758 165.386,115.411 168.958,112.716L168.958,119.801L168.957,119.801ZM204.468,82.973C203.166,81.974 201.289,81.474 198.837,81.474C195.658,81.474 193.002,82.973 190.867,85.97C188.732,88.967 187.666,93.054 187.666,98.231L187.666,121.935L180.219,121.935L180.219,75.435L187.666,75.435L187.666,85.017L187.848,85.017C188.908,81.747 190.527,79.197 192.707,77.365C194.887,75.533 197.323,74.618 200.018,74.618C201.955,74.618 203.439,74.83 204.468,75.254L204.468,82.973ZM230.761,123.025C223.888,123.025 218.402,120.853 214.3,116.508C210.198,112.163 208.147,106.404 208.147,99.23C208.147,91.419 210.281,85.319 214.55,80.93C218.819,76.541 224.586,74.346 231.851,74.346C238.783,74.346 244.195,76.48 248.085,80.749C251.975,85.018 253.92,90.937 253.92,98.504C253.92,105.921 251.823,111.862 247.63,116.327C243.437,120.792 237.814,123.025 230.761,123.025ZM231.306,80.612C226.522,80.612 222.739,82.239 219.953,85.494C217.167,88.749 215.775,93.236 215.775,98.958C215.775,104.468 217.183,108.812 219.998,111.991C222.813,115.17 226.582,116.759 231.305,116.759C236.118,116.759 239.819,115.2 242.408,112.082C244.997,108.964 246.29,104.529 246.29,98.777C246.29,92.964 244.996,88.485 242.408,85.336C239.82,82.187 236.119,80.612 231.306,80.612ZM263.002,120.255L263.002,112.263C267.059,115.26 271.523,116.759 276.398,116.759C282.937,116.759 286.207,114.579 286.207,110.22C286.207,108.979 285.927,107.927 285.367,107.064C284.807,106.201 284.05,105.437 283.096,104.771C282.142,104.105 281.022,103.507 279.736,102.977L275.581,101.32C273.522,100.503 271.713,99.678 270.154,98.845C268.595,98.012 267.294,97.074 266.249,96.03C265.204,94.986 264.417,93.798 263.888,92.465C263.359,91.132 263.094,89.574 263.094,87.788C263.094,85.608 263.594,83.679 264.593,81.998C265.592,80.317 266.924,78.91 268.589,77.775C270.254,76.64 272.153,75.784 274.288,75.209C276.423,74.634 278.624,74.346 280.895,74.346C284.921,74.346 288.524,75.043 291.703,76.435L291.703,83.973C288.282,81.733 284.347,80.613 279.896,80.613C278.503,80.613 277.247,80.772 276.127,81.09C275.007,81.408 274.045,81.855 273.243,82.43C272.441,83.005 271.82,83.694 271.382,84.496C270.944,85.298 270.723,86.184 270.723,87.152C270.723,88.363 270.942,89.377 271.382,90.194C271.822,91.011 272.464,91.738 273.312,92.374C274.16,93.01 275.189,93.585 276.4,94.1C277.611,94.615 278.988,95.175 280.532,95.78C282.591,96.568 284.437,97.377 286.072,98.21C287.707,99.043 289.099,99.981 290.25,101.025C291.401,102.069 292.286,103.273 292.907,104.635C293.528,105.997 293.838,107.617 293.838,109.494C293.838,111.795 293.331,113.793 292.317,115.488C291.301,117.186 289.911,118.631 288.253,119.711C286.557,120.831 284.605,121.664 282.395,122.209C280.185,122.754 277.869,123.026 275.447,123.026C270.661,123.025 266.514,122.101 263.002,120.255ZM324.715,123.025C317.842,123.025 312.356,120.853 308.253,116.508C304.15,112.163 302.1,106.404 302.1,99.23C302.1,91.419 304.235,85.319 308.503,80.93C312.771,76.541 318.539,74.346 325.805,74.346C332.737,74.346 338.149,76.48 342.038,80.749C345.927,85.018 347.873,90.937 347.873,98.504C347.873,105.921 345.777,111.862 341.584,116.327C337.391,120.792 331.768,123.025 324.715,123.025ZM325.26,80.612C320.476,80.612 316.692,82.239 313.906,85.494C311.12,88.749 309.728,93.236 309.728,98.958C309.728,104.468 311.136,108.812 313.952,111.991C316.768,115.17 320.537,116.759 325.26,116.759C330.073,116.759 333.774,115.2 336.363,112.082C338.952,108.964 340.245,104.529 340.245,98.777C340.245,92.964 338.951,88.485 336.363,85.336C333.775,82.187 330.073,80.612 325.26,80.612ZM381.069,59.632C379.616,58.815 377.965,58.406 376.12,58.406C370.912,58.406 368.309,61.691 368.309,68.26L368.309,75.435L379.207,75.435L379.207,81.792L368.309,81.792L368.309,121.935L360.907,121.935L360.907,81.792L352.96,81.792L352.96,75.435L360.907,75.435L360.907,67.897C360.907,63.023 362.315,59.171 365.13,56.34C367.945,53.509 371.456,52.094 375.664,52.094C377.935,52.094 379.736,52.366 381.068,52.911L381.068,59.632L381.069,59.632ZM410.448,121.481C408.692,122.45 406.377,122.934 403.501,122.934C395.357,122.934 391.286,118.393 391.286,109.311L391.286,81.792L383.294,81.792L383.294,75.435L391.286,75.435L391.286,64.082L398.733,61.675L398.733,75.434L410.448,75.434L410.448,81.791L398.733,81.791L398.733,107.994C398.733,111.112 399.262,113.337 400.322,114.669C401.382,116.001 403.137,116.667 405.59,116.667C407.467,116.667 409.087,116.152 410.448,115.123L410.448,121.481ZM32.12,316.336L32.12,138.487L81.233,138.487C143.905,138.487 175.243,167.384 175.243,225.18C175.243,252.631 166.54,274.686 149.136,291.346C131.732,308.006 108.435,316.336 79.249,316.336L32.12,316.336ZM52.956,157.339L52.956,297.485L79.497,297.485C102.813,297.485 120.961,291.243 133.943,278.758C146.925,266.273 153.415,248.578 153.415,225.676C153.415,180.118 129.188,157.339 80.737,157.339L52.956,157.339ZM217.907,157.091C214.268,157.091 211.167,155.851 208.605,153.37C206.043,150.889 204.76,147.748 204.76,143.944C204.76,140.14 206.041,136.979 208.605,134.456C211.169,131.933 214.268,130.673 217.907,130.673C221.628,130.673 224.79,131.935 227.395,134.456C230,136.977 231.302,140.142 231.302,143.944C231.302,147.583 230,150.684 227.395,153.246C224.79,155.808 221.628,157.091 217.907,157.091ZM227.829,316.336L207.489,316.336L207.489,189.336L227.829,189.336L227.829,316.336ZM335.233,209.924C331.677,207.195 326.551,205.832 319.854,205.832C311.172,205.832 303.916,209.924 298.088,218.109C292.26,226.294 289.344,237.457 289.344,251.595L289.344,316.335L269.004,316.335L269.004,189.335L289.344,189.335L289.344,215.505L289.84,215.505C292.734,206.575 297.157,199.61 303.111,194.607C309.065,189.604 315.718,187.103 323.079,187.103C328.369,187.103 332.422,187.683 335.233,188.839L335.233,209.924ZM456.033,257.922L366.364,257.922C366.693,272.061 370.498,282.975 377.774,290.664C385.05,298.353 395.054,302.197 407.788,302.197C422.092,302.197 435.238,297.484 447.228,288.058L447.228,307.158C436.066,315.263 421.307,319.312 402.951,319.312C385.009,319.312 370.91,313.546 360.659,302.011C350.408,290.476 345.28,274.251 345.28,253.331C345.28,233.571 350.881,217.47 362.086,205.024C373.291,192.578 387.2,186.358 403.819,186.358C420.438,186.358 433.294,191.734 442.39,202.481C451.486,213.228 456.033,228.155 456.033,247.254L456.033,257.922ZM435.196,240.682C435.114,228.944 432.282,219.805 426.7,213.274C421.118,206.743 413.368,203.475 403.447,203.475C393.854,203.475 385.712,206.907 379.014,213.77C372.316,220.633 368.181,229.604 366.612,240.682L435.196,240.682ZM573.358,310.508C563.602,316.377 552.026,319.313 538.631,319.313C520.524,319.313 505.908,313.422 494.789,301.641C483.67,289.86 478.107,274.584 478.107,255.813C478.107,234.897 484.101,218.09 496.091,205.399C508.081,192.708 524.077,186.36 544.087,186.36C555.249,186.36 565.089,188.428 573.605,192.561L573.605,213.397C564.179,206.784 554.091,203.475 543.343,203.475C530.363,203.475 519.716,208.127 511.407,217.428C503.098,226.729 498.942,238.946 498.942,254.076C498.942,268.959 502.848,280.701 510.663,289.299C518.478,297.897 528.956,302.197 542.102,302.197C553.182,302.197 563.6,298.519 573.356,291.16L573.356,310.508L573.358,310.508ZM663.028,315.096C658.231,317.742 651.907,319.065 644.051,319.065C621.809,319.065 610.69,306.663 610.69,281.858L610.69,206.7L588.862,206.7L588.862,189.337L610.69,189.337L610.69,158.332L631.03,151.759L631.03,189.338L663.028,189.338L663.028,206.701L631.03,206.701L631.03,278.264C631.03,286.78 632.475,292.858 635.37,296.494C638.265,300.13 643.059,301.951 649.757,301.951C654.884,301.951 659.308,300.547 663.028,297.734L663.028,315.096ZM815.7,316.336L790.276,316.336L749.348,248.248C748.108,246.182 746.743,243.246 745.254,239.441L744.758,239.441L740.541,248.248L698.373,316.336L672.824,316.336L732.355,226.916L677.537,138.487L703.086,138.487L739.426,200.994C741.822,205.131 743.932,209.264 745.75,213.396L746.246,213.396C748.892,207.939 751.207,203.642 753.191,200.498L791.02,138.487L814.956,138.487L759.022,226.668L815.7,316.336ZM427.166,86.881C423.724,86.881 420.789,85.667 418.359,83.237C415.929,80.807 414.715,77.872 414.715,74.43C414.715,70.988 415.929,68.053 418.359,65.623C420.789,63.193 423.724,61.979 427.166,61.979C430.598,61.979 433.527,63.194 435.957,65.623C438.387,68.052 439.602,70.988 439.602,74.43C439.602,77.872 438.387,80.808 435.957,83.237C433.527,85.666 430.598,86.881 427.166,86.881ZM427.166,63.44C424.134,63.44 421.544,64.514 419.397,66.661C417.25,68.808 416.176,71.398 416.176,74.431C416.176,77.464 417.249,80.051 419.397,82.192C421.432,84.287 424.246,85.45 427.166,85.404C430.198,85.404 432.786,84.333 434.928,82.192C437.07,80.051 438.141,77.463 438.141,74.431C438.141,71.399 437.07,68.809 434.928,66.661C432.786,64.513 430.2,63.44 427.166,63.44ZM433.209,82.216L430.52,82.216L428.793,78.414C427.919,76.511 426.979,75.559 425.971,75.559L424.51,75.559L424.51,82.216L422.302,82.216L422.302,66.378L426.752,66.378C428.6,66.378 430.024,66.766 431.026,67.54C432.028,68.314 432.529,69.366 432.529,70.694C432.529,71.779 432.177,72.703 431.474,73.466C430.771,74.229 429.788,74.744 428.527,75.01L428.527,75.076C429.402,75.264 430.271,76.238 431.134,77.998L433.209,82.216ZM424.511,68.271L424.511,73.683L426.886,73.683C429.066,73.683 430.156,72.776 430.156,70.96C430.156,69.986 429.863,69.294 429.277,68.885C428.691,68.476 427.759,68.271 426.488,68.271L424.511,68.271ZM829.193,164.779C825.751,164.779 822.815,163.565 820.385,161.135C817.955,158.705 816.741,155.77 816.741,152.328C816.741,148.886 817.955,145.951 820.385,143.521C822.815,141.091 825.75,139.877 829.193,139.877C832.624,139.877 835.553,141.092 837.983,143.521C840.413,145.95 841.628,148.886 841.628,152.328C841.628,155.77 840.413,158.706 837.983,161.135C835.553,163.564 832.623,164.779 829.193,164.779ZM829.193,141.338C826.161,141.338 823.571,142.412 821.423,144.559C819.275,146.706 818.202,149.296 818.202,152.329C818.202,155.362 819.275,157.949 821.423,160.09C823.571,162.231 826.16,163.302 829.193,163.302C832.226,163.302 834.813,162.231 836.954,160.09C839.095,157.949 840.167,155.361 840.167,152.329C840.167,149.297 839.097,146.707 836.954,144.559C834.811,142.411 832.225,141.338 829.193,141.338ZM835.236,160.114L832.547,160.114L830.82,156.312C829.946,154.409 829.005,153.457 827.998,153.457L826.537,153.457L826.537,160.114L824.329,160.114L824.329,144.276L828.778,144.276C830.626,144.276 832.051,144.664 833.053,145.438C834.055,146.212 834.555,147.264 834.555,148.592C834.555,149.677 834.203,150.601 833.5,151.364C832.797,152.127 831.815,152.642 830.554,152.908L830.554,152.974C831.428,153.162 832.297,154.136 833.16,155.896L835.236,160.114ZM826.537,146.169L826.537,151.581L828.911,151.581C831.091,151.581 832.182,150.674 832.182,148.858C832.182,147.884 831.888,147.192 831.302,146.783C830.716,146.374 829.785,146.169 828.513,146.169L826.537,146.169Z" style="fill-rule:nonzero;"/></g></svg>