<svg width="100%" height="100%" viewBox="0 0 18 16" version="1.1" xmlns="http://www.w3.org/2000/svg" xmlns:xlink="http://www.w3.org/1999/xlink" xml:space="preserve" style="fill-rule:evenodd;clip-rule:evenodd;stroke-linejoin:round;stroke-miterlimit:2;"><g id="directx" transform="matrix(1.0062,0,0,1.0062,-0.101226,-0.0495868)"><g transform="matrix(1.03545,0,0,1.19349,0.00126207,-0.0918967)"><path d="M15.934,1.034L15.934,12.526C15.934,12.802 15.676,13.025 15.358,13.025L2.111,13.025C1.793,13.025 1.535,12.802 1.535,12.526L1.535,1.034C1.535,0.759 1.793,0.535 2.111,0.535L15.358,0.535C15.676,0.535 15.934,0.759 15.934,1.034Z"/></g><g><g transform="matrix(0.757383,0,0,1,7.06776,-0.638917)"><path d="M9.72,14.613L9.72,13.45L10.582,13.45L10.58,13.66L10.055,13.66L10.055,13.934L10.546,13.934L10.546,14.125L10.055,14.125L10.055,14.399L10.58,14.399L10.58,14.613L9.72,14.613Z" style="fill:white;"/></g><g transform="matrix(0.967679,0,0,1,4.40984,-0.638917)"><path d="M8.96,14.613L8.96,13.66L8.644,13.66L8.644,13.45L9.568,13.45L9.568,13.66L9.249,13.66L9.249,14.613L8.96,14.613Z" style="fill:white;"/></g><g transform="matrix(0.935857,0,0,1,3.97114,-0.638917)"><path d="M8.723,14.613L8.467,14.613L8.366,14.349L7.901,14.349L7.805,14.613L7.556,14.613L7.992,13.45L8.292,13.45L8.723,14.613ZM8.291,14.153L8.13,13.721L7.973,14.153L8.291,14.153Z" style="fill:white;"/></g><g transform="matrix(1.1497,0,0,1,1.72299,-0.638917)"><path d="M6.317,14.613L6.317,13.45L6.64,13.45L6.88,14.243L7.119,13.45L7.441,13.45L7.441,14.613L7.223,14.613L7.223,13.751L6.973,14.613L6.778,14.613L6.535,13.783L6.535,14.613L6.317,14.613Z" style="fill:white;"/></g><g transform="matrix(1.05091,0,0,1,1.62403,-0.638917)"><rect x="5.862" y="13.45" width="0.235" height="1.163" style="fill:white;"/></g><g transform="matrix(1,0,0,1,1.2457,-0.638917)"><path d="M5.122,14.613L5.122,13.66L4.811,13.66L4.811,13.45L5.707,13.45L5.707,13.66L5.398,13.66L5.398,14.613L5.122,14.613Z" style="fill:white;"/></g><g transform="matrix(0.826761,0,0,1.00825,1.47106,-0.759521)"><path d="M4.011,14.613L4.011,13.46L4.284,13.46L4.284,14.401L4.807,14.401L4.807,14.613L4.011,14.613Z" style="fill:white;"/></g><g transform="matrix(1,0,0,1,0.166542,-0.638917)"><path d="M2.829,13.45L3.064,13.45L3.064,14.08C3.064,14.18 3.067,14.245 3.073,14.274C3.083,14.322 3.107,14.36 3.145,14.389C3.182,14.418 3.234,14.432 3.3,14.432C3.366,14.432 3.417,14.419 3.45,14.391C3.484,14.364 3.505,14.331 3.512,14.291C3.518,14.251 3.522,14.186 3.522,14.093L3.522,13.45L3.757,13.45L3.757,14.061C3.757,14.201 3.75,14.299 3.738,14.357C3.725,14.415 3.702,14.463 3.667,14.503C3.633,14.543 3.588,14.574 3.531,14.598C3.473,14.621 3.399,14.633 3.307,14.633C3.196,14.633 3.111,14.62 3.054,14.595C2.997,14.569 2.951,14.536 2.918,14.495C2.885,14.454 2.863,14.411 2.852,14.366C2.837,14.299 2.829,14.201 2.829,14.07L2.829,13.45Z" style="fill:white;"/></g></g><g transform="matrix(1.11434,0,0,1.11434,-0.700241,-0.911294)"><g style="filter:url(#_Effect-ltw6jao);"><path d="M9.265,4.83L7.288,4.83L6.118,6.247L4.952,4.83L2.983,4.83L2.983,5.846L4.743,7.969L2.983,10.092L2.983,11.11L4.952,11.11L6.118,9.684L7.288,11.11L9.265,11.11L9.265,10.092L7.505,7.969L9.265,5.846L9.265,4.83" style="fill:rgb(28,168,19);"/></g></g><path d="M9.265,4.83L7.288,4.83L6.118,6.247L4.952,4.83L2.983,4.83L2.983,5.846L4.743,7.969L2.983,10.092L2.983,11.11L4.952,11.11L6.118,9.684L7.288,11.11L9.265,11.11L9.265,10.092L7.505,7.969L9.265,5.846L9.265,4.83" style="fill:rgb(28,168,19);"/><clipPath id="_clip-cm6w0vb"><path d="M9.265,4.83L7.288,4.83L6.118,6.247L4.952,4.83L2.983,4.83L2.983,5.846L4.743,7.969L2.983,10.092L2.983,11.11L4.952,11.11L6.118,9.684L7.288,11.11L9.265,11.11L9.265,10.092L7.505,7.969L9.265,5.846L9.265,4.83"/></clipPath><g clip-path="url(#_clip-cm6w0vb)"><g transform="matrix(1.20729,0,0,1.02156,-0.548705,-0.0994459)"><rect x="2.647" y="4.612" width="5.641" height="6.498" style="fill:url(#_Linear-t720lun);"/></g><path d="M9.452,4.727L9.452,5.151L2.634,5.151L2.634,4.727L9.452,4.727ZM9.452,5.476L9.452,5.838L2.634,5.838L2.634,5.476L9.452,5.476ZM9.452,6.152L9.452,6.485L2.634,6.485L2.634,6.152L9.452,6.152ZM9.452,6.807L9.452,7.141L2.634,7.141L2.634,6.807L9.452,6.807ZM9.452,7.481L9.452,7.815L2.634,7.815L2.634,7.481L9.452,7.481ZM9.452,8.126L9.452,8.46L2.634,8.46L2.634,8.126L9.452,8.126ZM9.452,8.797L9.452,9.131L2.634,9.131L2.634,8.797L9.452,8.797ZM9.452,9.453L9.452,9.786L2.634,9.786L2.634,9.453L9.452,9.453ZM9.452,10.094L9.452,10.462L2.634,10.462L2.634,10.094L9.452,10.094ZM9.452,10.774L9.452,11.142L2.634,11.142L2.634,10.774L9.452,10.774Z" style="fill:url(#_Linear-4hsfx4l);"/></g><g transform="matrix(1.1147,0,0,1.1147,-1.25096,-0.914161)"><g style="filter:url(#_Effect-goky0cs);"><path d="M9.664,4.83L9.664,5.846L9.905,6.124L9.905,9.788L9.664,10.092L9.664,11.11L12.149,11.11L12.149,10.092L11.912,9.788L11.912,6.124L12.149,5.846L12.149,4.83L9.664,4.83Z" style="fill:rgb(28,168,19);"/></g></g><path d="M9.664,4.83L9.664,5.846L9.905,6.124L9.905,9.788L9.664,10.092L9.664,11.11L12.149,11.11L12.149,10.092L11.912,9.788L11.912,6.124L12.149,5.846L12.149,4.83L9.664,4.83Z" style="fill:rgb(28,168,19);"/><clipPath id="_clip-tjtjdfw"><path d="M9.664,4.83L9.664,5.846L9.905,6.124L9.905,9.788L9.664,10.092L9.664,11.11L12.149,11.11L12.149,10.092L11.912,9.788L11.912,6.124L12.149,5.846L12.149,4.83L9.664,4.83Z"/></clipPath><g clip-path="url(#_clip-tjtjdfw)"><g transform="matrix(0.495149,0,0,1.02156,8.14633,-0.0994459)"><rect x="2.647" y="4.612" width="5.641" height="6.498" style="fill:url(#_Linear-oircboy);"/></g><g transform="matrix(0.398795,0,0,1,8.53295,0)"><path d="M9.452,4.727L9.452,5.151L2.634,5.151L2.634,4.727L9.452,4.727ZM9.452,5.476L9.452,5.838L2.634,5.838L2.634,5.476L9.452,5.476ZM9.452,6.152L9.452,6.485L2.634,6.485L2.634,6.152L9.452,6.152ZM9.452,6.807L9.452,7.141L2.634,7.141L2.634,6.807L9.452,6.807ZM9.452,7.481L9.452,7.815L2.634,7.815L2.634,7.481L9.452,7.481ZM9.452,8.126L9.452,8.46L2.634,8.46L2.634,8.126L9.452,8.126ZM9.452,8.797L9.452,9.131L2.634,9.131L2.634,8.797L9.452,8.797ZM9.452,9.453L9.452,9.786L2.634,9.786L2.634,9.453L9.452,9.453ZM9.452,10.094L9.452,10.462L2.634,10.462L2.634,10.094L9.452,10.094ZM9.452,10.774L9.452,11.142L2.634,11.142L2.634,10.774L9.452,10.774Z" style="fill:url(#_Linear-n353see);"/></g></g><g transform="matrix(1.1147,0,0,1.1147,1.66082,-0.914161)"><g style="filter:url(#_Effect-16bwukr);"><path d="M9.664,4.83L9.664,5.846L9.905,6.124L9.905,9.788L9.664,10.092L9.664,11.11L12.149,11.11L12.149,10.092L11.912,9.788L11.912,6.124L12.149,5.846L12.149,4.83L9.664,4.83Z" style="fill:rgb(28,168,19);"/></g></g><g transform="matrix(1,0,0,1,2.89848,0)"><path d="M9.664,4.83L9.664,5.846L9.905,6.124L9.905,9.788L9.664,10.092L9.664,11.11L12.149,11.11L12.149,10.092L11.912,9.788L11.912,6.124L12.149,5.846L12.149,4.83L9.664,4.83Z" style="fill:rgb(28,168,19);"/><clipPath id="_clip-k9xyk1i"><path d="M9.664,4.83L9.664,5.846L9.905,6.124L9.905,9.788L9.664,10.092L9.664,11.11L12.149,11.11L12.149,10.092L11.912,9.788L11.912,6.124L12.149,5.846L12.149,4.83L9.664,4.83Z"/></clipPath><g clip-path="url(#_clip-k9xyk1i)"><g transform="matrix(0.495149,0,0,1.02156,8.24785,-0.0994459)"><rect x="2.647" y="4.612" width="5.641" height="6.498" style="fill:url(#_Linear-wpobevq);"/></g><g transform="matrix(0.405614,0,0,1,8.39871,0)"><path d="M9.452,4.727L9.452,5.151L2.634,5.151L2.634,4.727L9.452,4.727ZM9.452,5.476L9.452,5.838L2.634,5.838L2.634,5.476L9.452,5.476ZM9.452,6.152L9.452,6.485L2.634,6.485L2.634,6.152L9.452,6.152ZM9.452,6.807L9.452,7.141L2.634,7.141L2.634,6.807L9.452,6.807ZM9.452,7.481L9.452,7.815L2.634,7.815L2.634,7.481L9.452,7.481ZM9.452,8.126L9.452,8.46L2.634,8.46L2.634,8.126L9.452,8.126ZM9.452,8.797L9.452,9.131L2.634,9.131L2.634,8.797L9.452,8.797ZM9.452,9.453L9.452,9.786L2.634,9.786L2.634,9.453L9.452,9.453ZM9.452,10.094L9.452,10.462L2.634,10.462L2.634,10.094L9.452,10.094ZM9.452,10.774L9.452,11.142L2.634,11.142L2.634,10.774L9.452,10.774Z" style="fill:url(#_Linear-o8eh73h);"/></g></g></g><g transform="matrix(0.332064,0,0,0.332601,5.1073,1.15282)"><g transform="matrix(0.0172945,0,0,0.0172945,1.74776,0.492087)"><path d="M27.045,320.967L27.045,134.193L96.386,134.193C159.058,134.193 193.285,158.401 193.285,226.774C193.285,292.72 142.498,320.967 94.189,320.967L27.045,320.967ZM69.895,165.538L69.895,287.092L92.209,287.027C131.835,286.911 150.222,249.676 150.222,226.774C150.222,181.216 124.55,165.846 87.243,165.846L69.895,165.538Z" style="fill:white;"/></g><g transform="matrix(0.0283651,0,0,0.0283651,0.386034,-1.09235)"><path d="M217.907,157.091C214.268,157.091 211.167,155.851 208.605,153.37C206.043,150.889 204.76,147.748 204.76,143.944C204.76,140.14 206.041,136.979 208.605,134.456C211.169,131.933 214.268,130.673 217.907,130.673C221.628,130.673 224.79,131.935 227.395,134.456C230,136.977 231.302,140.142 231.302,143.944C231.302,147.583 230,150.684 227.395,153.246C224.79,155.808 221.628,157.091 217.907,157.091Z" style="fill:white;"/></g><g transform="matrix(0.0172945,0,0,0.0172945,2.79329,0.54863)"><rect x="197.097" y="183.834" width="43.075" height="133.864" style="fill:white;"/></g><g transform="matrix(0.0172945,0,0,0.0172945,3.70825,0.492087)"><path d="M346.875,224.46C343.319,221.731 339.443,219.392 329.091,219.365C305.155,219.301 299.805,240.519 299.805,254.657L299.805,320.967L256.988,320.967L256.988,187.103L299.805,187.773L299.805,208.267C299.805,208.267 310.475,183.053 329.706,182.961C342.375,182.9 346.875,187.103 346.875,187.103L346.875,224.46Z" style="fill:white;"/></g><g transform="matrix(0.0172945,0,0,0.0172945,4.57259,0.504971)"><path d="M464.593,262.452L377.118,262.452C377.447,276.591 382.785,294.923 411.1,294.266C425.4,293.934 441.691,293.04 453.681,283.614L453.681,308.901C442.519,317.006 424.65,325.144 406.295,324.991C353.966,324.555 336.184,295.073 336.026,253.652C335.831,202.729 368.759,182.347 403.148,182.216C462.817,181.988 464.509,240.589 464.593,262.452ZM426.886,239.886C427.191,226.136 421.388,210.768 403.442,210.372C382.986,209.919 378.096,224.345 378.008,239.602L426.886,239.886Z" style="fill:white;"/></g><g transform="matrix(0.0172945,0,0,0.0172945,5.21161,0.504936)"><path d="M582.803,311.923C573.047,317.792 564.779,325.055 541.831,324.993C516.605,324.925 471.771,303.734 471.712,254.881C471.645,199.271 517.318,182.218 548.9,182.218C560.062,182.218 576.332,185.739 582.803,192.375L582.803,223.77C573.377,217.157 563.225,211.296 552.477,211.296C531.824,211.296 509.59,221.187 509.396,252.674C509.258,275.17 520.255,293.145 549.254,294.202C560.327,294.606 573.047,289.665 582.803,282.306L582.803,311.923Z" style="fill:white;"/></g><g transform="matrix(0.0172945,0,0,0.0172945,6.01129,0.524974)"><path d="M671.103,313.609C666.306,316.255 663.888,323.913 644.575,323.834C622.333,323.743 601.086,310.996 601.086,286.191L601.086,217.463L579.395,217.463L579.395,185.201L601.086,185.201L601.086,158.867L643.632,143.246L643.632,185.201L671.103,185.201L671.103,217.463L643.632,217.463L643.632,274.289C643.632,283.813 647.893,292.74 658.015,292.74C666.796,292.74 666.887,288.998 670.607,286.185L671.103,313.609Z" style="fill:white;"/></g><g transform="matrix(0.0178419,0,0,0.0181623,6.71369,0.297644)"><path d="M829.546,316.336L782.334,316.336C782.334,316.336 747.49,253.782 746.001,249.977L708.251,316.336L658.269,316.336L720.608,226.644L667.573,138.487L715.022,138.487L746.001,200.12L782.334,138.487L824.153,138.487L771.415,226.644L829.546,316.336Z" style="fill:white;"/></g></g></g><defs><filter id="_Effect-ltw6jao" filterUnits="userSpaceOnUse" x="-0.533185" y="1.31367" width="13.3148" height="13.3128"><feGaussianBlur in="SourceGraphic" stdDeviation="0.586086"/></filter><linearGradient id="_Linear-t720lun" x1="0" y1="0" x2="1" y2="0" gradientUnits="userSpaceOnUse" gradientTransform="matrix(0.0245705,-5.37297,4.54642,0.0290375,4.28456,10.6115)"><stop offset="0" style="stop-color:rgb(96,194,90);stop-opacity:1"/><stop offset="0.22" style="stop-color:rgb(130,207,125);stop-opacity:1"/><stop offset="0.5" style="stop-color:rgb(210,238,208);stop-opacity:1"/><stop offset="0.76" style="stop-color:rgb(127,206,122);stop-opacity:1"/><stop offset="1" style="stop-color:rgb(96,194,90);stop-opacity:1"/></linearGradient><linearGradient id="_Linear-4hsfx4l" x1="0" y1="0" x2="1" y2="0" gradientUnits="userSpaceOnUse" gradientTransform="matrix(-0.0560984,-5.99449,5.99449,-0.0560984,6.99722,10.9399)"><stop offset="0" style="stop-color:rgb(28,168,19);stop-opacity:1"/><stop offset="0.2" style="stop-color:rgb(70,184,63);stop-opacity:1"/><stop offset="0.44" style="stop-color:rgb(176,224,173);stop-opacity:1"/><stop offset="0.55" style="stop-color:rgb(176,224,172);stop-opacity:1"/><stop offset="0.77" style="stop-color:rgb(65,182,57);stop-opacity:1"/><stop offset="1" style="stop-color:rgb(28,168,19);stop-opacity:1"/></linearGradient><filter id="_Effect-goky0cs" filterUnits="userSpaceOnUse" x="5.45104" y="0.617595" width="10.9107" height="14.7049"><feGaussianBlur in="SourceGraphic" stdDeviation="0.702099"/></filter><linearGradient id="_Linear-oircboy" x1="0" y1="0" x2="1" y2="0.0267197" gradientUnits="userSpaceOnUse" gradientTransform="matrix(0.0245705,-5.37297,4.54642,0.0290375,4.28456,10.6115)"><stop offset="0" style="stop-color:rgb(96,194,90);stop-opacity:1"/><stop offset="0.22" style="stop-color:rgb(130,207,125);stop-opacity:1"/><stop offset="0.5" style="stop-color:rgb(210,238,208);stop-opacity:1"/><stop offset="0.76" style="stop-color:rgb(127,206,122);stop-opacity:1"/><stop offset="1" style="stop-color:rgb(96,194,90);stop-opacity:1"/></linearGradient><linearGradient id="_Linear-n353see" x1="0" y1="0" x2="1" y2="-0.0494579" gradientUnits="userSpaceOnUse" gradientTransform="matrix(-0.0560984,-5.99449,5.99449,-0.0560984,6.99722,10.9399)"><stop offset="0" style="stop-color:rgb(28,168,19);stop-opacity:1"/><stop offset="0.2" style="stop-color:rgb(70,184,63);stop-opacity:1"/><stop offset="0.44" style="stop-color:rgb(176,224,173);stop-opacity:1"/><stop offset="0.55" style="stop-color:rgb(176,224,172);stop-opacity:1"/><stop offset="0.77" style="stop-color:rgb(65,182,57);stop-opacity:1"/><stop offset="1" style="stop-color:rgb(28,168,19);stop-opacity:1"/></linearGradient><filter id="_Effect-16bwukr" filterUnits="userSpaceOnUse" x="5.45104" y="0.617595" width="10.9107" height="14.7049"><feGaussianBlur in="SourceGraphic" stdDeviation="0.702099"/></filter><linearGradient id="_Linear-wpobevq" x1="0" y1="0" x2="1" y2="0.0267197" gradientUnits="userSpaceOnUse" gradientTransform="matrix(0.0245705,-5.37297,4.54642,0.0290375,4.28456,10.6115)"><stop offset="0" style="stop-color:rgb(96,194,90);stop-opacity:1"/><stop offset="0.22" style="stop-color:rgb(130,207,125);stop-opacity:1"/><stop offset="0.5" style="stop-color:rgb(210,238,208);stop-opacity:1"/><stop offset="0.76" style="stop-color:rgb(127,206,122);stop-opacity:1"/><stop offset="1" style="stop-color:rgb(96,194,90);stop-opacity:1"/></linearGradient><linearGradient id="_Linear-o8eh73h" x1="0" y1="0" x2="1" y2="-0.0474981" gradientUnits="userSpaceOnUse" gradientTransform="matrix(-0.0560984,-5.99449,5.99449,-0.0560984,6.99722,10.9399)"><stop offset="0" style="stop-color:rgb(28,168,19);stop-opacity:1"/><stop offset="0.2" style="stop-color:rgb(70,184,63);stop-opacity:1"/><stop offset="0.44" style="stop-color:rgb(176,224,173);stop-opacity:1"/><stop offset="0.55" style="stop-color:rgb(176,224,172);stop-opacity:1"/><stop offset="0.77" style="stop-color:rgb(65,182,57);stop-opacity:1"/><stop offset="1" style="stop-color:rgb(28,168,19);stop-opacity:1"/></linearGradient></defs></svg>