<svg width="100%" height="100%" viewBox="0 0 18 16" version="1.1" xmlns="http://www.w3.org/2000/svg" xmlns:xlink="http://www.w3.org/1999/xlink" xml:space="preserve" style="fill-rule:evenodd;clip-rule:evenodd;stroke-linejoin:round;stroke-miterlimit:2;"><g id="dist" transform="matrix(1.47962,0,0,1.73638,-4.16408,-8.72414)"><path d="M8.903,13.399C8.317,13.399 7.789,13.282 7.32,13.049C6.851,12.815 6.479,12.497 6.205,12.094C5.931,11.69 5.794,11.236 5.794,10.731C5.794,10.225 5.919,9.772 6.171,9.372C6.423,8.973 6.766,8.656 7.202,8.422C7.637,8.189 8.129,8.072 8.677,8.072C9.12,8.072 9.53,8.15 9.905,8.307C10.281,8.464 10.596,8.677 10.851,8.945L10.851,6.354C10.851,6.207 10.906,6.088 11.015,5.999C11.124,5.909 11.261,5.864 11.426,5.864C11.598,5.864 11.737,5.909 11.843,5.999C11.948,6.088 12,6.207 12,6.354L12,10.731C12,11.236 11.863,11.69 11.589,12.094C11.315,12.497 10.945,12.815 10.48,13.049C10.014,13.282 9.488,13.399 8.903,13.399ZM8.903,12.535C9.286,12.535 9.627,12.457 9.928,12.3C10.228,12.143 10.465,11.927 10.637,11.652C10.81,11.377 10.896,11.07 10.896,10.731C10.896,10.385 10.81,10.078 10.637,9.809C10.465,9.54 10.228,9.328 9.928,9.171C9.627,9.014 9.286,8.936 8.903,8.936C8.527,8.936 8.187,9.014 7.883,9.171C7.579,9.328 7.339,9.54 7.162,9.809C6.986,10.078 6.898,10.385 6.898,10.731C6.898,11.07 6.986,11.377 7.162,11.652C7.339,11.927 7.579,12.143 7.883,12.3C8.187,12.457 8.527,12.535 8.903,12.535Z" style="fill:url(#_Linear-e5vuqc8);fill-rule:nonzero;"/></g><defs><linearGradient id="_Linear-e5vuqc8" x1="0" y1="0" x2="1" y2="0" gradientUnits="userSpaceOnUse" gradientTransform="matrix(6.22209,0.0115538,-0.0135587,5.30201,5.76684,10.3159)"><stop offset="0" style="stop-color:rgb(245,112,112);stop-opacity:1"/><stop offset="1" style="stop-color:rgb(255,117,195);stop-opacity:1"/></linearGradient></defs></svg>