<svg width="100%" height="100%" viewBox="0 0 18 16" version="1.1" xmlns="http://www.w3.org/2000/svg" xmlns:xlink="http://www.w3.org/1999/xlink" xml:space="preserve" style="fill-rule:evenodd;clip-rule:evenodd;stroke-linejoin:round;stroke-miterlimit:2;"><g id="django"><g transform="matrix(1.55109,0,0,1.53179,-0.697423,0.053463)"><path d="M11.084,1.662L11.084,8.714C11.084,9.47 10.478,10.084 9.731,10.084L2.773,10.084C2.026,10.084 1.42,9.47 1.42,8.714L1.42,1.662C1.42,0.905 2.026,0.292 2.773,0.292L9.731,0.292C10.478,0.292 11.084,0.905 11.084,1.662Z" style="fill:rgb(16,49,39);"/></g><path d="M8.098,3.462L9.8,3.473L9.77,11.189C9.77,11.189 8.685,11.416 7.699,11.422C6.712,11.427 5.749,11.23 5.147,10.598C4.66,10.087 4.469,9.295 4.501,8.721C4.533,8.147 4.587,7.268 5.316,6.641C6.077,5.987 6.635,5.924 7.381,5.9C7.966,5.881 8.086,5.982 8.086,5.982L8.098,3.462ZM8.094,7.381C8.094,7.381 8.037,7.304 7.526,7.294C6.982,7.282 6.248,7.564 6.21,8.653C6.171,9.775 6.987,10.048 7.436,10.043C7.871,10.039 8.1,9.986 8.1,9.986L8.094,7.381Z" style="fill:white;"/><g transform="matrix(1,0,0,1.03165,0,-0.140361)"><rect x="10.735" y="3.49" width="1.701" height="1.695" style="fill:white;"/></g><path d="M10.744,5.986C10.744,5.986 10.73,9.082 10.725,10.096C10.721,11.058 10.43,11.848 10.236,12.091C9.877,12.543 9.072,12.909 9.072,12.909L10.688,13.663C10.688,13.663 11.305,13.28 11.752,12.82C12.2,12.361 12.373,11.652 12.407,11.128C12.441,10.603 12.429,6.015 12.429,6.015L10.744,5.986Z" style="fill:white;"/></g></svg>