<svg width="100%" height="100%" viewBox="0 0 18 16" version="1.1" xmlns="http://www.w3.org/2000/svg" xmlns:xlink="http://www.w3.org/1999/xlink" xml:space="preserve" style="fill-rule:evenodd;clip-rule:evenodd;stroke-linejoin:round;stroke-miterlimit:2;"><g id="docker" transform="matrix(0.0241982,0,0,0.0241982,0.833211,1.5)"><path d="M664.01,223.35C647.46,212.21 603.98,207.46 572.37,215.97C570.67,184.48 554.43,157.94 524.72,134.8L513.73,127.42L506.4,138.49C492,160.35 485.93,189.49 488.07,215.98C489.77,232.3 495.44,250.64 506.4,263.95C465.25,287.82 427.33,282.4 259.37,282.4L0.06,282.4C-0.7,320.33 5.4,393.28 51.79,452.67C56.91,459.23 62.53,465.58 68.63,471.69C106.35,509.46 163.34,537.16 248.56,537.23C378.56,537.35 489.95,467.07 557.71,297.16C580.01,297.53 638.86,301.15 667.66,245.5C668.36,244.56 674.99,230.74 674.99,230.74L664.01,223.36L664.01,223.35ZM169.29,184.21L96.37,184.21L96.37,257.13L169.29,257.13L169.29,184.21ZM263.5,184.21L190.58,184.21L190.58,257.13L263.5,257.13L263.5,184.21ZM357.71,184.21L284.79,184.21L284.79,257.13L357.71,257.13L357.71,184.21ZM451.92,184.21L379,184.21L379,257.13L451.92,257.13L451.92,184.21ZM75.1,184.21L2.16,184.21L2.16,257.13L75.08,257.13L75.08,184.21L75.1,184.21ZM169.31,92.1L96.39,92.1L96.39,165.02L169.31,165.02L169.31,92.1ZM263.52,92.1L190.6,92.1L190.6,165.02L263.52,165.02L263.52,92.1ZM357.73,92.1L284.81,92.1L284.81,165.02L357.73,165.02L357.73,92.1ZM357.7,0L284.78,0L284.78,72.92L357.7,72.92L357.7,0Z" style="fill:rgb(29,99,237);fill-rule:nonzero;"/></g></svg>