<svg width="100%" height="100%" viewBox="0 0 18 16" version="1.1" xmlns="http://www.w3.org/2000/svg" xmlns:xlink="http://www.w3.org/1999/xlink" xml:space="preserve" style="fill-rule:evenodd;clip-rule:evenodd;stroke-linejoin:round;stroke-miterlimit:2;"><g transform="matrix(0.0072,0,0,0.0072,9,8)"><g id="docker" transform="matrix(1,0,0,1,-1250,-1050)"><g transform="matrix(1,0,0,1,0,342.676)"><path d="M1440.31,446.797L1663.61,446.797L1663.61,675.068L1776.51,675.068C1828.66,675.068 1882.29,665.781 1931.66,649.053C1955.93,640.82 1983.15,629.375 2007.09,614.971C1975.57,573.818 1959.47,521.855 1954.75,470.635C1948.3,400.957 1962.36,310.273 2009.51,255.742L2032.99,228.594L2060.96,251.084C2131.38,307.656 2190.61,386.719 2201.05,476.846C2285.84,451.904 2385.4,457.803 2460.14,500.938L2490.8,518.633L2474.67,550.137C2411.45,673.496 2279.3,711.719 2150.1,704.951C1956.77,1186.48 1535.86,1414.45 1025.52,1414.45C761.846,1414.45 519.951,1315.89 382.197,1081.96L379.941,1078.15L359.873,1037.31C313.311,934.346 297.842,821.543 308.33,708.828L311.484,675.068L502.441,675.068L502.441,446.797L725.732,446.797L725.732,223.496L1172.34,223.496L1172.34,0.195L1440.31,0.195L1440.31,446.797" style="fill:rgb(54,69,72);"/><path d="M2163.77,531.25C2178.74,414.883 2091.66,323.486 2037.66,280.088C1975.42,352.041 1965.75,540.615 2063.39,620.01C2008.9,668.408 1894.08,712.275 1776.51,712.275L345.41,712.275C333.984,835 355.527,948.018 404.736,1044.75L421.016,1074.53C431.323,1092.01 442.587,1108.91 454.756,1125.16C513.594,1128.94 567.842,1130.23 617.471,1129.14L617.49,1129.14C715.02,1126.99 794.6,1115.47 854.912,1094.57C856.566,1094.06 858.288,1093.79 860.02,1093.79C869.454,1093.79 877.217,1101.56 877.217,1110.99C877.217,1118.1 872.81,1124.51 866.172,1127.05C858.145,1129.84 849.785,1132.44 841.152,1134.91L841.123,1134.91C793.633,1148.48 742.705,1157.6 677.002,1161.65C680.908,1161.72 672.939,1162.24 672.92,1162.24C670.684,1162.38 667.871,1162.7 665.625,1162.82C639.766,1164.28 611.855,1164.58 583.32,1164.58C552.109,1164.58 521.377,1163.99 487.012,1162.24L486.133,1162.82C605.371,1296.85 791.816,1377.23 1025.53,1377.23C1520.14,1377.23 1939.67,1157.97 2125.45,665.732C2257.25,679.258 2383.92,645.645 2441.53,533.164C2349.76,480.205 2231.73,497.09 2163.77,531.25" style="fill:rgb(34,160,200);"/><path d="M2163.77,531.25C2178.74,414.883 2091.66,323.486 2037.66,280.088C1975.42,352.041 1965.75,540.615 2063.39,620.01C2008.9,668.408 1894.08,712.275 1776.51,712.275L430.156,712.275C424.316,900.225 494.063,1042.89 617.461,1129.14L617.49,1129.14C715.02,1126.99 794.6,1115.47 854.912,1094.57C856.566,1094.06 858.288,1093.79 860.02,1093.79C869.454,1093.79 877.217,1101.56 877.217,1110.99C877.217,1118.1 872.81,1124.51 866.172,1127.05C858.145,1129.84 849.785,1132.44 841.152,1134.91L841.123,1134.91C793.633,1148.48 738.33,1158.77 672.627,1162.82C672.607,1162.82 671.035,1161.31 671.016,1161.31C839.346,1247.66 1083.42,1247.34 1363.25,1139.85C1677.02,1019.31 1969,789.658 2172.72,526.992C2169.66,528.379 2166.67,529.795 2163.77,531.25" style="fill:rgb(55,177,217);"/><path d="M348.096,861.387C356.982,927.129 376.221,988.682 404.736,1044.75L421.016,1074.53C431.322,1092.02 442.586,1108.91 454.756,1125.16C513.604,1128.94 567.852,1130.23 617.49,1129.14C715.02,1126.99 794.6,1115.47 854.912,1094.57C856.566,1094.06 858.288,1093.79 860.02,1093.79C869.454,1093.79 877.217,1101.56 877.217,1110.99C877.217,1118.1 872.81,1124.51 866.172,1127.05C858.145,1129.84 849.785,1132.44 841.152,1134.91L841.123,1134.91C793.633,1148.48 738.623,1158.18 672.92,1162.25C670.664,1162.38 666.729,1162.41 664.453,1162.54C638.613,1163.98 610.986,1164.87 582.441,1164.87C551.24,1164.87 519.326,1164.28 484.98,1162.53C604.219,1296.55 791.816,1377.23 1025.53,1377.23C1448.96,1377.23 1817.36,1216.5 2031.18,861.387L348.096,861.387" style="fill:rgb(27,129,165);"/><path d="M443.037,861.387C468.35,976.816 529.18,1067.43 617.49,1129.14C715.02,1126.99 794.6,1115.47 854.912,1094.57C856.566,1094.06 858.288,1093.79 860.02,1093.79C869.454,1093.79 877.217,1101.56 877.217,1110.99C877.217,1118.1 872.81,1124.51 866.172,1127.05C858.145,1129.84 849.785,1132.44 841.152,1134.91L841.123,1134.91C793.633,1148.48 737.461,1158.18 671.748,1162.25C840.068,1248.57 1083.44,1247.33 1363.25,1139.85C1532.53,1074.81 1695.45,977.998 1841.61,861.387L443.037,861.387" style="fill:rgb(29,145,180);"/><path d="M539.648,484.014L733.184,484.014L733.184,677.549L539.648,677.549L539.648,484.014ZM555.771,500.146L571.045,500.146L571.045,661.426L555.771,661.426L555.771,500.146ZM584.482,500.146L600.371,500.146L600.371,661.426L584.492,661.426L584.492,500.146L584.482,500.146ZM613.799,500.146L629.688,500.146L629.688,661.426L613.799,661.426L613.799,500.146ZM643.135,500.146L659.014,500.146L659.014,661.426L643.135,661.426L643.135,500.146ZM672.461,500.146L688.34,500.146L688.34,661.426L672.461,661.426L672.461,500.146ZM701.777,500.146L717.061,500.146L717.061,661.426L701.777,661.426L701.777,500.146ZM762.939,260.713L956.494,260.713L956.494,454.238L762.939,454.238L762.939,260.713ZM779.082,276.846L794.346,276.846L794.346,438.115L779.082,438.115L779.082,276.846ZM807.793,276.846L823.672,276.846L823.672,438.115L807.803,438.115L807.803,276.846L807.793,276.846ZM837.109,276.846L852.988,276.846L852.988,438.115L837.109,438.115L837.109,276.846ZM866.436,276.846L882.314,276.846L882.314,438.115L866.436,438.115L866.436,276.846ZM895.762,276.846L911.65,276.846L911.65,438.115L895.762,438.115L895.762,276.846ZM925.078,276.846L940.371,276.846L940.371,438.115L925.078,438.115L925.078,276.846Z" style="fill:rgb(35,163,194);"/><path d="M762.939,484.014L956.494,484.014L956.494,677.549L762.939,677.549L762.939,484.014ZM779.082,500.146L794.346,500.146L794.346,661.426L779.082,661.426L779.082,500.146ZM807.793,500.146L823.672,500.146L823.672,661.426L807.803,661.426L807.803,500.146L807.793,500.146ZM837.109,500.146L852.988,500.146L852.988,661.426L837.109,661.426L837.109,500.146ZM866.436,500.146L882.314,500.146L882.314,661.426L866.436,661.426L866.436,500.146ZM895.762,500.146L911.65,500.146L911.65,661.426L895.762,661.426L895.762,500.146ZM925.078,500.146L940.371,500.146L940.371,661.426L925.078,661.426L925.078,500.146Z" style="fill:rgb(52,187,222);"/><path d="M986.26,484.014L1179.8,484.014L1179.8,677.549L986.26,677.549L986.26,484.014ZM1002.38,500.146L1017.65,500.146L1017.65,661.426L1002.38,661.426L1002.38,500.146ZM1031.09,500.146L1046.97,500.146L1046.97,661.426L1031.09,661.426L1031.09,500.146ZM1060.42,500.146L1076.3,500.146L1076.3,661.426L1060.42,661.426L1060.42,500.146ZM1089.75,500.146L1105.62,500.146L1105.62,661.426L1089.75,661.426L1089.75,500.146ZM1119.06,500.146L1134.96,500.146L1134.96,661.426L1119.06,661.426L1119.06,500.146ZM1148.39,500.146L1163.66,500.146L1163.66,661.426L1148.39,661.426L1148.39,500.146Z" style="fill:rgb(35,163,194);"/><path d="M986.26,260.713L1179.8,260.713L1179.8,454.238L986.26,454.238L986.26,260.713ZM1002.38,276.846L1017.65,276.846L1017.65,438.115L1002.38,438.115L1002.38,276.846ZM1031.09,276.846L1046.97,276.846L1046.97,438.115L1031.09,438.115L1031.09,276.846ZM1060.42,276.846L1076.3,276.846L1076.3,438.115L1060.42,438.115L1060.42,276.846ZM1089.75,276.846L1105.62,276.846L1105.62,438.115L1089.75,438.115L1089.75,276.846ZM1119.06,276.846L1134.96,276.846L1134.96,438.115L1119.06,438.115L1119.06,276.846ZM1148.39,276.846L1163.66,276.846L1163.66,438.115L1148.39,438.115L1148.39,276.846ZM1209.56,484.014L1403.1,484.014L1403.1,677.549L1209.56,677.549L1209.56,484.014ZM1225.69,500.146L1240.96,500.146L1240.96,661.426L1225.69,661.426L1225.69,500.146ZM1254.4,500.146L1270.28,500.146L1270.28,661.426L1254.4,661.426L1254.4,500.146ZM1283.72,500.146L1299.6,500.146L1299.6,661.426L1283.72,661.426L1283.72,500.146ZM1313.05,500.146L1328.94,500.146L1328.94,661.426L1313.05,661.426L1313.05,500.146ZM1342.37,500.146L1358.26,500.146L1358.26,661.426L1342.37,661.426L1342.37,500.146ZM1371.7,500.146L1386.97,500.146L1386.97,661.426L1371.7,661.426L1371.7,500.146Z" style="fill:rgb(52,187,222);"/><path d="M1209.56,260.713L1403.1,260.713L1403.1,454.238L1209.56,454.238L1209.56,260.713ZM1225.69,276.846L1240.96,276.846L1240.96,438.115L1225.69,438.115L1225.69,276.846ZM1254.4,276.846L1270.28,276.846L1270.28,438.115L1254.4,438.115L1254.4,276.846ZM1283.72,276.846L1299.6,276.846L1299.6,438.115L1283.72,438.115L1283.72,276.846ZM1313.05,276.846L1328.94,276.846L1328.94,438.115L1313.05,438.115L1313.05,276.846ZM1342.37,276.846L1358.26,276.846L1358.26,438.115L1342.37,438.115L1342.37,276.846ZM1371.7,276.846L1386.97,276.846L1386.97,438.115L1371.7,438.115L1371.7,276.846Z" style="fill:rgb(35,163,194);"/><path d="M1209.56,37.402L1403.1,37.402L1403.1,230.957L1209.56,230.957L1209.56,37.402ZM1225.69,53.525L1240.96,53.525L1240.96,214.814L1225.69,214.814L1225.69,53.516L1225.69,53.525ZM1254.4,53.525L1270.28,53.525L1270.28,214.814L1254.4,214.814L1254.4,53.516L1254.4,53.525ZM1283.72,53.525L1299.6,53.525L1299.6,214.814L1283.72,214.814L1283.72,53.516L1283.72,53.525ZM1313.05,53.525L1328.94,53.525L1328.94,214.814L1313.05,214.814L1313.05,53.516L1313.05,53.525ZM1342.37,53.525L1358.26,53.525L1358.26,214.814L1342.37,214.814L1342.37,53.516L1342.37,53.525ZM1371.7,53.525L1386.97,53.525L1386.97,214.814L1371.7,214.814L1371.7,53.516L1371.7,53.525Z" style="fill:rgb(52,187,222);"/><path d="M1432.86,484.014L1626.4,484.014L1626.4,677.549L1432.86,677.549L1432.86,484.014ZM1448.98,500.146L1464.26,500.146L1464.26,661.426L1448.98,661.426L1448.98,500.146L1448.98,500.146ZM1477.69,500.146L1493.57,500.146L1493.57,661.426L1477.69,661.426L1477.69,500.146L1477.69,500.146ZM1507.02,500.146L1522.91,500.146L1522.91,661.426L1507.02,661.426L1507.02,500.146ZM1536.34,500.146L1552.23,500.146L1552.23,661.426L1536.34,661.426L1536.34,500.146ZM1565.67,500.146L1581.55,500.146L1581.55,661.426L1565.67,661.426L1565.67,500.146ZM1594.99,500.146L1610.26,500.146L1610.26,661.426L1594.99,661.426L1594.99,500.146Z" style="fill:rgb(35,163,194);"/><path d="M944.375,991.328C944.612,991.325 944.85,991.323 945.087,991.323C974.381,991.323 998.486,1015.43 998.486,1044.72C998.486,1074.02 974.381,1098.12 945.087,1098.12C944.843,1098.12 944.599,1098.12 944.355,1098.12C915.341,1097.72 891.689,1073.74 891.689,1044.72C891.689,1015.7 915.353,991.715 944.375,991.328" style="fill:rgb(211,236,236);"/><path d="M944.375,1006.48C949.258,1006.48 953.916,1007.39 958.213,1009.06C953.409,1011.85 950.442,1017 950.442,1022.56C950.442,1031.1 957.461,1038.14 966.006,1038.16C971.914,1038.16 977.041,1034.89 979.697,1030.05C981.626,1034.69 982.619,1039.68 982.619,1044.71C982.619,1065.68 965.36,1082.94 944.386,1082.94C923.413,1082.94 906.154,1065.68 906.154,1044.71C906.154,1023.74 923.406,1006.48 944.375,1006.48M0,880.684L2483.66,880.684C2429.59,866.973 2312.57,848.438 2331.87,777.559C2233.53,891.348 1996.39,857.393 1936.53,801.289C1869.89,897.949 1481.9,861.201 1454.84,785.898C1371.29,883.955 1112.39,883.955 1028.84,785.898C1001.76,861.201 613.779,897.949 547.129,801.279C487.285,857.393 250.156,891.348 151.816,777.568C171.113,848.438 54.092,866.973 0,880.693" style="fill:rgb(54,69,72);"/><path d="M1086.3,1376.07C954.072,1313.33 881.504,1228.03 841.123,1134.92C792.002,1148.94 732.969,1157.9 664.365,1161.75C638.525,1163.19 611.338,1163.94 582.822,1163.94C549.932,1163.94 515.273,1162.96 478.887,1161.04C600.146,1282.23 749.316,1375.53 1025.53,1377.23C1045.92,1377.23 1066.15,1376.84 1086.3,1376.07" style="fill:rgb(189,217,215);"/><path d="M890.234,1220.84C871.943,1196.01 854.199,1164.8 841.152,1134.9C792.031,1148.94 732.979,1157.9 664.365,1161.76C711.494,1187.33 778.887,1211.04 890.244,1220.84" style="fill:rgb(211,236,236);"/></g></g><g id="docker1"></g></g></svg>