<svg width="100%" height="100%" viewBox="0 0 18 16" version="1.1" xmlns="http://www.w3.org/2000/svg" xmlns:xlink="http://www.w3.org/1999/xlink" xml:space="preserve" style="fill-rule:evenodd;clip-rule:evenodd;stroke-linejoin:round;stroke-miterlimit:2;"><g id="docusaurus" transform="matrix(0.0769231,0,0,0.0769231,1.26923,0.29899)"><rect x="99" y="52" width="84" height="34" style="fill:white;"/><path d="M23,163C15.602,163 9.157,158.973 5.697,153C3.931,156.036 3,159.487 3,163C3,174.046 11.954,183 23,183L43,183L43,163L23,163Z" style="fill:rgb(62,204,95);"/><path d="M112.98,57.376L183,53L183,43C183,31.954 174.046,23 163,23L73,23L70.5,18.67C69.388,16.745 66.611,16.745 65.5,18.67L63,23L60.5,18.67C59.389,16.745 56.611,16.745 55.5,18.67L53,23L50.5,18.67C49.389,16.745 46.611,16.745 45.5,18.67L43,23C42.978,23 42.958,23.003 42.935,23.003L38.793,18.862C37.223,17.291 34.541,18.009 33.965,20.156L32.596,25.26L27.404,23.868C25.256,23.293 23.293,25.257 23.869,27.404L25.259,32.597L20.157,33.964C18.009,34.54 17.29,37.223 18.861,38.794L23.003,42.936C23.003,42.957 23,42.978 23,43L18.67,45.5C16.745,46.611 16.745,49.389 18.67,50.5L23,53L18.67,55.5C16.745,56.611 16.745,59.389 18.67,60.5L23,63L18.67,65.5C16.745,66.611 16.745,69.389 18.67,70.5L23,73L18.67,75.5C16.745,76.611 16.745,79.389 18.67,80.5L23,83L18.67,85.5C16.745,86.611 16.745,89.389 18.67,90.5L23,93L18.67,95.5C16.745,96.611 16.745,99.389 18.67,100.5L23,103L18.67,105.5C16.745,106.611 16.745,109.389 18.67,110.5L23,113L18.67,115.5C16.745,116.611 16.745,119.389 18.67,120.5L23,123L18.67,125.5C16.745,126.611 16.745,129.389 18.67,130.5L23,133L18.67,135.5C16.745,136.611 16.745,139.389 18.67,140.5L23,143L18.67,145.5C16.745,146.611 16.745,149.389 18.67,150.5L23,153L18.67,155.5C16.745,156.611 16.745,159.389 18.67,160.5L23,163C23,174.046 31.954,183 43,183L163,183C174.046,183 183,174.046 183,163L183,83L112.98,78.624C107.402,78.275 103,73.589 103,68C103,62.379 107.37,57.727 112.98,57.376" style="fill:rgb(62,204,95);"/><rect x="143" y="143" width="30" height="40" style="fill:rgb(62,204,95);"/><path d="M193,158C192.781,158 192.572,158.037 192.361,158.064C192.323,157.914 192.287,157.763 192.245,157.613C194.101,156.837 195.316,155.012 195.316,153C195.316,150.259 193.061,148.002 190.32,148C189.228,148.004 188.168,148.368 187.304,149.036C187.193,148.923 187.082,148.811 186.969,148.7C187.622,147.841 187.977,146.792 187.98,145.713C187.978,142.971 185.722,140.716 182.98,140.716C180.981,140.716 179.165,141.915 178.381,143.754C178.233,143.712 178.084,143.677 177.936,143.639C177.963,143.428 178,143.219 178,143C178,140.257 175.743,138 173,138C170.257,138 168,140.257 168,143C168,143.219 168.037,143.428 168.064,143.639C167.916,143.677 167.767,143.712 167.619,143.754C166.837,141.911 165.02,140.708 163.018,140.708C160.276,140.708 158.02,142.964 158.02,145.706C158.02,145.708 158.02,145.711 158.02,145.713C158.02,146.838 158.404,147.864 159.031,148.7C155.314,152.332 153,157.393 153,163C153,174.046 161.954,183 173,183C182.339,183 190.16,176.59 192.361,167.936C192.572,167.963 192.781,168 193,168C195.743,168 198,165.743 198,163C198,160.257 195.743,158 193,158" style="fill:rgb(68,216,96);"/><rect x="153" y="103" width="30" height="20" style="fill:rgb(62,204,95);"/><path d="M193,115.5C194.371,115.5 195.5,114.371 195.5,113C195.5,111.629 194.371,110.5 193,110.5C192.891,110.5 192.786,110.519 192.681,110.532C192.661,110.457 192.644,110.382 192.623,110.307C193.55,109.918 194.156,109.006 194.156,108.001C194.156,106.631 193.03,105.503 191.66,105.5C191.091,105.5 190.572,105.697 190.152,106.018C190.097,105.961 190.041,105.905 189.984,105.85C190.298,105.433 190.49,104.919 190.49,104.356C190.49,102.985 189.361,101.857 187.99,101.857C186.99,101.857 186.082,102.457 185.69,103.377C184.815,103.129 183.91,103.003 183,103C177.478,103 173,107.478 173,113C173,118.522 177.478,123 183,123C183.934,123 184.833,122.862 185.69,122.623C186.082,123.543 186.99,124.143 187.99,124.143C189.361,124.143 190.49,123.015 190.49,121.644C190.49,121.081 190.298,120.567 189.984,120.15C190.041,120.095 190.097,120.039 190.152,119.982C190.572,120.303 191.091,120.5 191.66,120.5C193.031,120.5 194.16,119.371 194.16,118C194.16,116.993 193.552,116.081 192.623,115.693C192.644,115.619 192.661,115.543 192.681,115.468C192.786,115.481 192.891,115.5 193,115.5" style="fill:rgb(68,216,96);"/><path d="M63,55.5C61.629,55.5 60.5,54.371 60.5,53C60.5,48.864 57.136,45.5 53,45.5C48.864,45.5 45.5,48.864 45.5,53C45.5,54.371 44.371,55.5 43,55.5C41.629,55.5 40.5,54.371 40.5,53C40.5,46.107 46.107,40.5 53,40.5C59.893,40.5 65.5,46.107 65.5,53C65.5,54.371 64.371,55.5 63,55.5"/><path d="M103,183L163,183C174.046,183 183,174.046 183,163L183,93L123,93C111.954,93 103,101.954 103,113L103,183Z" style="fill:rgb(255,255,80);"/><path d="M168.02,124L117.98,124C117.431,124 116.98,123.549 116.98,123C116.98,122.451 117.431,122 117.98,122L168.02,122C168.569,122 169.02,122.451 169.02,123C169.02,123.549 168.569,124 168.02,124M168.02,144L117.98,144C117.431,144 116.98,143.549 116.98,143C116.98,142.451 117.431,142 117.98,142L168.02,142C168.569,142 169.02,142.451 169.02,143C169.02,143.549 168.569,144 168.02,144M168.02,164L117.98,164C117.431,164 116.98,163.549 116.98,163C116.98,162.451 117.431,162 117.98,162L168.02,162C168.569,162 169.02,162.451 169.02,163C169.02,163.549 168.569,164 168.02,164M168.02,114.186L117.98,114.186C117.431,114.186 116.98,113.735 116.98,113.186C116.98,112.637 117.431,112.186 117.98,112.186L168.02,112.186C168.569,112.186 169.02,112.637 169.02,113.186C169.02,113.735 168.569,114.186 168.02,114.186M168.02,134L117.98,134C117.431,134 116.98,133.549 116.98,133C116.98,132.451 117.431,132 117.98,132L168.02,132C168.569,132 169.02,132.451 169.02,133C169.02,133.549 168.569,134 168.02,134M168.02,154L117.98,154C117.431,154 116.98,153.549 116.98,153C116.98,152.451 117.431,152 117.98,152L168.02,152C168.569,152 169.02,152.451 169.02,153C169.02,153.549 168.569,154 168.02,154M183,61.611C182.988,61.611 182.978,61.605 182.966,61.606C179.876,61.711 178.414,64.802 177.124,67.529C175.778,70.379 174.737,72.232 173.031,72.176C171.142,72.108 170.062,69.974 168.918,67.716C167.604,65.122 166.104,62.18 162.955,62.29C159.909,62.394 158.442,65.084 157.148,67.457C155.771,69.985 154.834,71.522 153.027,71.451C151.1,71.381 150.076,69.646 148.891,67.638C147.57,65.402 146.043,62.888 142.955,62.974C139.961,63.077 138.49,65.359 137.192,67.374C135.819,69.504 134.857,70.802 133.027,70.725C131.054,70.655 130.035,69.215 128.856,67.548C127.532,65.675 126.04,63.555 122.961,63.658C120.033,63.758 118.562,65.628 117.265,67.276C116.033,68.84 115.071,70.078 113.036,70C113.024,70 113.012,69.999 113,69.999C112.451,69.999 111.999,70.451 111.999,71C111.999,71.535 112.429,71.981 112.964,72C115.981,72.101 117.509,70.2 118.836,68.513C120.013,67.017 121.029,65.726 123.029,65.658C124.955,65.576 125.858,66.773 127.224,68.703C128.521,70.537 129.993,72.617 132.955,72.724C136.058,72.828 137.551,70.509 138.873,68.457C140.055,66.623 141.075,65.04 143.023,64.973C144.816,64.906 145.792,66.323 147.168,68.654C148.465,70.851 149.934,73.34 152.955,73.45C156.08,73.558 157.589,70.83 158.904,68.415C160.043,66.327 161.118,64.355 163.023,64.289C164.816,64.247 165.751,65.884 167.134,68.619C168.426,71.172 169.891,74.064 172.959,74.175L173.128,74.178C176.192,74.178 177.646,71.103 178.933,68.384C180.072,65.974 181.15,63.704 183,63.611L183,61.611Z"/><rect x="83" y="143" width="40" height="40" style="fill:rgb(62,204,95);"/><g transform="matrix(0.965926,-0.258819,0.258819,0.965926,103,100.579)"><path d="M84.568,16.697C84.568,25.905 77.092,33.381 67.885,33.381L16.729,33.381C7.522,33.381 0.046,25.905 0.046,16.697C0.046,7.49 7.522,0.014 16.729,0.014L67.885,0.014C77.092,0.014 84.568,7.49 84.568,16.697Z" style="fill:rgb(216,216,216);"/><g transform="matrix(1,0,0,1,1,20.75)"><path d="M20.701,2.781C20.701,4.128 19.607,5.222 18.26,5.222C16.912,5.222 15.818,4.128 15.818,2.781C15.818,1.433 16.912,0.339 18.26,0.339C19.607,0.339 20.701,1.433 20.701,2.781Z" style="fill:rgb(74,74,74);"/><path d="M26.488,2.781C26.488,4.128 25.394,5.222 24.047,5.222C22.699,5.222 21.605,4.128 21.605,2.781C21.605,1.433 22.699,0.339 24.047,0.339C25.394,0.339 26.488,1.433 26.488,2.781Z" style="fill:rgb(74,74,74);"/><path d="M32.275,2.781C32.275,4.128 31.181,5.222 29.834,5.222C28.486,5.222 27.392,4.128 27.392,2.781C27.392,1.433 28.486,0.339 29.834,0.339C31.181,0.339 32.275,1.433 32.275,2.781Z" style="fill:rgb(74,74,74);"/><path d="M38.062,2.781C38.062,4.128 36.968,5.222 35.621,5.222C34.273,5.222 33.179,4.128 33.179,2.781C33.179,1.433 34.273,0.339 35.621,0.339C36.968,0.339 38.062,1.433 38.062,2.781Z" style="fill:rgb(74,74,74);"/><path d="M43.849,2.781C43.849,4.128 42.755,5.222 41.408,5.222C40.06,5.222 38.966,4.128 38.966,2.781C38.966,1.433 40.06,0.339 41.408,0.339C42.755,0.339 43.849,1.433 43.849,2.781Z" style="fill:rgb(74,74,74);"/><path d="M49.636,2.781C49.636,4.128 48.542,5.222 47.195,5.222C45.847,5.222 44.753,4.128 44.753,2.781C44.753,1.433 45.847,0.339 47.195,0.339C48.542,0.339 49.636,1.433 49.636,2.781Z" style="fill:rgb(74,74,74);"/><path d="M55.423,2.781C55.423,4.128 54.329,5.222 52.981,5.222C51.634,5.222 50.54,4.128 50.54,2.781C50.54,1.433 51.634,0.339 52.981,0.339C54.329,0.339 55.423,1.433 55.423,2.781Z" style="fill:rgb(74,74,74);"/><path d="M61.21,2.781C61.21,4.128 60.116,5.222 58.769,5.222C57.421,5.222 56.327,4.128 56.327,2.781C56.327,1.433 57.421,0.339 58.769,0.339C60.116,0.339 61.21,1.433 61.21,2.781Z" style="fill:rgb(74,74,74);"/><path d="M66.997,2.781C66.997,4.128 65.903,5.222 64.555,5.222C63.208,5.222 62.114,4.128 62.114,2.781C62.114,1.433 63.208,0.339 64.555,0.339C65.903,0.339 66.997,1.433 66.997,2.781Z" style="fill:rgb(74,74,74);"/><path d="M1.447,0.34L13.733,0.34C14.282,0.34 14.733,0.791 14.733,1.34L14.733,4.222C14.733,4.771 14.282,5.222 13.733,5.222L1.447,5.222C0.898,5.222 0.447,4.771 0.447,4.222L0.447,1.339C0.447,0.79 0.898,0.339 1.447,0.339L1.447,0.34ZM69.081,0.34L81.368,0.34C81.917,0.34 82.368,0.791 82.368,1.34L82.368,4.222C82.368,4.771 81.917,5.222 81.368,5.222L69.08,5.222C68.531,5.222 68.08,4.771 68.08,4.222L68.08,1.339C68.08,0.79 68.531,0.339 69.08,0.339L69.081,0.34Z" style="fill:rgb(74,74,74);"/></g><g transform="matrix(1,0,0,1,1,9)"><path d="M1.447,0.404L6.137,0.404C6.686,0.404 7.137,0.855 7.137,1.404L7.137,4.286C7.137,4.835 6.686,5.286 6.137,5.286L1.447,5.286C0.898,5.286 0.447,4.835 0.447,4.286L0.447,1.404C0.447,0.855 0.898,0.404 1.447,0.404Z" style="fill:rgb(74,74,74);"/><path d="M12.925,2.846C12.925,4.193 11.831,5.287 10.484,5.287C9.136,5.287 8.042,4.193 8.042,2.846C8.042,1.498 9.136,0.404 10.484,0.404C11.831,0.404 12.925,1.498 12.925,2.846Z" style="fill:rgb(74,74,74);"/><path d="M18.712,2.846C18.712,4.193 17.618,5.287 16.27,5.287C14.923,5.287 13.829,4.193 13.829,2.846C13.829,1.498 14.923,0.404 16.27,0.404C17.618,0.404 18.712,1.498 18.712,2.846Z" style="fill:rgb(74,74,74);"/><path d="M24.499,2.846C24.499,4.193 23.405,5.287 22.057,5.287C20.71,5.287 19.616,4.193 19.616,2.846C19.616,1.498 20.71,0.404 22.057,0.404C23.405,0.404 24.499,1.498 24.499,2.846Z" style="fill:rgb(74,74,74);"/><path d="M30.286,2.846C30.286,4.193 29.192,5.287 27.844,5.287C26.497,5.287 25.403,4.193 25.403,2.846C25.403,1.498 26.497,0.404 27.844,0.404C29.192,0.404 30.286,1.498 30.286,2.846Z" style="fill:rgb(74,74,74);"/><path d="M36.073,2.846C36.073,4.193 34.979,5.287 33.632,5.287C32.284,5.287 31.19,4.193 31.19,2.846C31.19,1.498 32.284,0.404 33.632,0.404C34.979,0.404 36.073,1.498 36.073,2.846Z" style="fill:rgb(74,74,74);"/><path d="M41.86,2.846C41.86,4.193 40.766,5.287 39.418,5.287C38.071,5.287 36.977,4.193 36.977,2.846C36.977,1.498 38.071,0.404 39.418,0.404C40.766,0.404 41.86,1.498 41.86,2.846Z" style="fill:rgb(74,74,74);"/><path d="M47.647,2.846C47.647,4.193 46.553,5.287 45.206,5.287C43.858,5.287 42.764,4.193 42.764,2.846C42.764,1.498 43.858,0.404 45.206,0.404C46.553,0.404 47.647,1.498 47.647,2.846Z" style="fill:rgb(74,74,74);"/><path d="M53.434,2.846C53.434,4.193 52.34,5.287 50.993,5.287C49.645,5.287 48.551,4.193 48.551,2.846C48.551,1.498 49.645,0.404 50.993,0.404C52.34,0.404 53.434,1.498 53.434,2.846Z" style="fill:rgb(74,74,74);"/><path d="M59.22,2.846C59.22,4.193 58.126,5.287 56.779,5.287C55.431,5.287 54.337,4.193 54.337,2.846C54.337,1.498 55.431,0.404 56.779,0.404C58.126,0.404 59.22,1.498 59.22,2.846Z" style="fill:rgb(74,74,74);"/><path d="M65.007,2.846C65.007,4.193 63.913,5.287 62.566,5.287C61.218,5.287 60.124,4.193 60.124,2.846C60.124,1.498 61.218,0.404 62.566,0.404C63.913,0.404 65.007,1.498 65.007,2.846Z" style="fill:rgb(74,74,74);"/><path d="M70.794,2.846C70.794,4.193 69.7,5.287 68.352,5.287C67.005,5.287 65.911,4.193 65.911,2.846C65.911,1.498 67.005,0.404 68.352,0.404C69.7,0.404 70.794,1.498 70.794,2.846Z" style="fill:rgb(74,74,74);"/><path d="M76.581,2.846C76.581,4.193 75.487,5.287 74.14,5.287C72.792,5.287 71.698,4.193 71.698,2.846C71.698,1.498 72.792,0.404 74.14,0.404C75.487,0.404 76.581,1.498 76.581,2.846Z" style="fill:rgb(74,74,74);"/><path d="M82.368,2.846C82.368,4.193 81.274,5.287 79.927,5.287C78.579,5.287 77.485,4.193 77.485,2.846C77.485,1.498 78.579,0.404 79.927,0.404C81.274,0.404 82.368,1.498 82.368,2.846Z" style="fill:rgb(74,74,74);"/></g><g transform="matrix(-1,7.65714e-16,-7.65714e-16,-1,83.368,8.75)"><path d="M1,0L5.691,0C6.24,-0 6.691,0.451 6.691,1L6.691,3.883C6.691,4.432 6.24,4.883 5.691,4.883L1,4.883C0.451,4.883 0,4.432 0,3.883L0,1C-0,0.451 0.451,0 1,0Z" style="fill:rgb(74,74,74);"/><path d="M12.478,2.442C12.478,3.789 11.384,4.883 10.037,4.883C8.689,4.883 7.595,3.789 7.595,2.442C7.595,1.094 8.689,0 10.037,0C11.384,0 12.478,1.094 12.478,2.442Z" style="fill:rgb(74,74,74);"/><path d="M18.265,2.442C18.265,3.789 17.171,4.883 15.823,4.883C14.476,4.883 13.382,3.789 13.382,2.442C13.382,1.094 14.476,0 15.823,0C17.171,0 18.265,1.094 18.265,2.442Z" style="fill:rgb(74,74,74);"/><path d="M24.052,2.442C24.052,3.789 22.958,4.883 21.611,4.883C20.263,4.883 19.169,3.789 19.169,2.442C19.169,1.094 20.263,0 21.611,0C22.958,0 24.052,1.094 24.052,2.442Z" style="fill:rgb(74,74,74);"/><path d="M29.839,2.442C29.839,3.789 28.745,4.883 27.398,4.883C26.05,4.883 24.956,3.789 24.956,2.442C24.956,1.094 26.05,0 27.398,0C28.745,0 29.839,1.094 29.839,2.442Z" style="fill:rgb(74,74,74);"/><path d="M35.626,2.442C35.626,3.789 34.532,4.883 33.185,4.883C31.837,4.883 30.743,3.789 30.743,2.442C30.743,1.094 31.837,0 33.185,0C34.532,0 35.626,1.094 35.626,2.442Z" style="fill:rgb(74,74,74);"/><path d="M41.413,2.442C41.413,3.789 40.319,4.883 38.972,4.883C37.624,4.883 36.53,3.789 36.53,2.442C36.53,1.094 37.624,0 38.972,0C40.319,0 41.413,1.094 41.413,2.442Z" style="fill:rgb(74,74,74);"/><path d="M47.2,2.442C47.2,3.789 46.106,4.883 44.759,4.883C43.411,4.883 42.317,3.789 42.317,2.442C42.317,1.094 43.411,0 44.759,0C46.106,0 47.2,1.094 47.2,2.442Z" style="fill:rgb(74,74,74);"/><path d="M52.987,2.442C52.987,3.789 51.893,4.883 50.546,4.883C49.198,4.883 48.104,3.789 48.104,2.442C48.104,1.094 49.198,0 50.546,0C51.893,0 52.987,1.094 52.987,2.442Z" style="fill:rgb(74,74,74);"/><path d="M58.774,2.442C58.774,3.789 57.68,4.883 56.332,4.883C54.985,4.883 53.891,3.789 53.891,2.442C53.891,1.094 54.985,0 56.332,0C57.68,0 58.774,1.094 58.774,2.442Z" style="fill:rgb(74,74,74);"/><path d="M64.561,2.442C64.561,3.789 63.467,4.883 62.119,4.883C60.772,4.883 59.678,3.789 59.678,2.442C59.678,1.094 60.772,0 62.119,0C63.467,0 64.561,1.094 64.561,2.442Z" style="fill:rgb(74,74,74);"/><path d="M70.348,2.442C70.348,3.789 69.254,4.883 67.906,4.883C66.559,4.883 65.465,3.789 65.465,2.442C65.465,1.094 66.559,0 67.906,0C69.254,0 70.348,1.094 70.348,2.442Z" style="fill:rgb(74,74,74);"/><path d="M76.135,2.442C76.135,3.789 75.041,4.883 73.694,4.883C72.346,4.883 71.252,3.789 71.252,2.442C71.252,1.094 72.346,0 73.694,0C75.041,0 76.135,1.094 76.135,2.442Z" style="fill:rgb(74,74,74);"/><path d="M81.921,2.442C81.921,3.789 80.827,4.883 79.48,4.883C78.132,4.883 77.038,3.789 77.038,2.442C77.038,1.094 78.132,0 79.48,0C80.827,0 81.921,1.094 81.921,2.442Z" style="fill:rgb(74,74,74);"/><path d="M12.478,2.442C12.478,3.789 11.384,4.883 10.037,4.883C8.689,4.883 7.595,3.789 7.595,2.442C7.595,1.094 8.689,0 10.037,0C11.384,0 12.478,1.094 12.478,2.442Z" style="fill:rgb(74,74,74);"/><path d="M18.265,2.442C18.265,3.789 17.171,4.883 15.823,4.883C14.476,4.883 13.382,3.789 13.382,2.442C13.382,1.094 14.476,0 15.823,0C17.171,0 18.265,1.094 18.265,2.442Z" style="fill:rgb(74,74,74);"/><path d="M24.052,2.442C24.052,3.789 22.958,4.883 21.611,4.883C20.263,4.883 19.169,3.789 19.169,2.442C19.169,1.094 20.263,0 21.611,0C22.958,0 24.052,1.094 24.052,2.442Z" style="fill:rgb(74,74,74);"/><path d="M29.839,2.442C29.839,3.789 28.745,4.883 27.398,4.883C26.05,4.883 24.956,3.789 24.956,2.442C24.956,1.094 26.05,0 27.398,0C28.745,0 29.839,1.094 29.839,2.442Z" style="fill:rgb(74,74,74);"/><path d="M35.626,2.442C35.626,3.789 34.532,4.883 33.185,4.883C31.837,4.883 30.743,3.789 30.743,2.442C30.743,1.094 31.837,0 33.185,0C34.532,0 35.626,1.094 35.626,2.442Z" style="fill:rgb(74,74,74);"/><path d="M41.413,2.442C41.413,3.789 40.319,4.883 38.972,4.883C37.624,4.883 36.53,3.789 36.53,2.442C36.53,1.094 37.624,0 38.972,0C40.319,0 41.413,1.094 41.413,2.442Z" style="fill:rgb(74,74,74);"/><path d="M47.2,2.442C47.2,3.789 46.106,4.883 44.759,4.883C43.411,4.883 42.317,3.789 42.317,2.442C42.317,1.094 43.411,0 44.759,0C46.106,0 47.2,1.094 47.2,2.442Z" style="fill:rgb(74,74,74);"/><path d="M52.987,2.442C52.987,3.789 51.893,4.883 50.546,4.883C49.198,4.883 48.104,3.789 48.104,2.442C48.104,1.094 49.198,0 50.546,0C51.893,0 52.987,1.094 52.987,2.442Z" style="fill:rgb(74,74,74);"/><path d="M58.774,2.442C58.774,3.789 57.68,4.883 56.332,4.883C54.985,4.883 53.891,3.789 53.891,2.442C53.891,1.094 54.985,0 56.332,0C57.68,0 58.774,1.094 58.774,2.442Z" style="fill:rgb(74,74,74);"/><path d="M64.561,2.442C64.561,3.789 63.467,4.883 62.119,4.883C60.772,4.883 59.678,3.789 59.678,2.442C59.678,1.094 60.772,0 62.119,0C63.467,0 64.561,1.094 64.561,2.442Z" style="fill:rgb(74,74,74);"/><path d="M70.348,2.442C70.348,3.789 69.254,4.883 67.906,4.883C66.559,4.883 65.465,3.789 65.465,2.442C65.465,1.094 66.559,0 67.906,0C69.254,0 70.348,1.094 70.348,2.442Z" style="fill:rgb(74,74,74);"/><path d="M76.135,2.442C76.135,3.789 75.041,4.883 73.694,4.883C72.346,4.883 71.252,3.789 71.252,2.442C71.252,1.094 72.346,0 73.694,0C75.041,0 76.135,1.094 76.135,2.442Z" style="fill:rgb(74,74,74);"/><path d="M81.921,2.442C81.921,3.789 80.827,4.883 79.48,4.883C78.132,4.883 77.038,3.789 77.038,2.442C77.038,1.094 78.132,0 79.48,0C80.827,0 81.921,1.094 81.921,2.442Z" style="fill:rgb(74,74,74);"/></g><g><path d="M2.447,15.19L9.127,15.19C9.676,15.19 10.127,15.641 10.127,16.19L10.127,19.073C10.127,19.622 9.676,20.073 9.127,20.073L2.447,20.073C1.898,20.073 1.447,19.622 1.447,19.073L1.447,16.191C1.447,15.642 1.898,15.191 2.447,15.191L2.447,15.19Z" style="fill:rgb(74,74,74);"/><g transform="matrix(1,0,0,1,11.212,15.19)"><path d="M4.883,2.442C4.883,3.789 3.789,4.883 2.442,4.883C1.094,4.883 0,3.789 0,2.442C0,1.094 1.094,0 2.442,0C3.789,0 4.883,1.094 4.883,2.442Z" style="fill:rgb(74,74,74);"/><path d="M10.67,2.442C10.67,3.789 9.576,4.883 8.229,4.883C6.881,4.883 5.787,3.789 5.787,2.442C5.787,1.094 6.881,0 8.229,0C9.576,0 10.67,1.094 10.67,2.442Z" style="fill:rgb(74,74,74);"/><path d="M16.457,2.442C16.457,3.789 15.363,4.883 14.016,4.883C12.668,4.883 11.574,3.789 11.574,2.442C11.574,1.094 12.668,0 14.016,0C15.363,0 16.457,1.094 16.457,2.442Z" style="fill:rgb(74,74,74);"/><path d="M22.244,2.442C22.244,3.789 21.15,4.883 19.803,4.883C18.455,4.883 17.361,3.789 17.361,2.442C17.361,1.094 18.455,0 19.803,0C21.15,0 22.244,1.094 22.244,2.442Z" style="fill:rgb(74,74,74);"/><path d="M28.031,2.442C28.031,3.789 26.937,4.883 25.59,4.883C24.242,4.883 23.148,3.789 23.148,2.442C23.148,1.094 24.242,0 25.59,0C26.937,0 28.031,1.094 28.031,2.442Z" style="fill:rgb(74,74,74);"/><path d="M33.818,2.442C33.818,3.789 32.724,4.883 31.377,4.883C30.029,4.883 28.935,3.789 28.935,2.442C28.935,1.094 30.029,0 31.377,0C32.724,0 33.818,1.094 33.818,2.442Z" style="fill:rgb(74,74,74);"/><path d="M39.605,2.442C39.605,3.789 38.511,4.883 37.164,4.883C35.816,4.883 34.722,3.789 34.722,2.442C34.722,1.094 35.816,0 37.164,0C38.511,0 39.605,1.094 39.605,2.442Z" style="fill:rgb(74,74,74);"/><path d="M45.391,2.442C45.391,3.789 44.297,4.883 42.95,4.883C41.602,4.883 40.508,3.789 40.508,2.442C40.508,1.094 41.602,0 42.95,0C44.297,0 45.391,1.094 45.391,2.442Z" style="fill:rgb(74,74,74);"/><path d="M51.178,2.442C51.178,3.789 50.084,4.883 48.737,4.883C47.389,4.883 46.295,3.789 46.295,2.442C46.295,1.094 47.389,0 48.737,0C50.084,0 51.178,1.094 51.178,2.442Z" style="fill:rgb(74,74,74);"/><path d="M56.965,2.442C56.965,3.789 55.871,4.883 54.524,4.883C53.176,4.883 52.082,3.789 52.082,2.442C52.082,1.094 53.176,0 54.524,0C55.871,0 56.965,1.094 56.965,2.442Z" style="fill:rgb(74,74,74);"/><path d="M62.752,2.442C62.752,3.789 61.658,4.883 60.311,4.883C58.963,4.883 57.869,3.789 57.869,2.442C57.869,1.094 58.963,0 60.311,0C61.658,0 62.752,1.094 62.752,2.442Z" style="fill:rgb(74,74,74);"/></g><path d="M76.05,15.19L82.368,15.19C82.917,15.19 83.368,15.641 83.368,16.19L83.368,19.073C83.368,19.622 82.917,20.073 82.368,20.073L76.049,20.073C75.5,20.073 75.049,19.622 75.049,19.073L75.049,16.191C75.049,15.642 75.5,15.191 76.049,15.191L76.05,15.19Z" style="fill:rgb(74,74,74);"/></g><g transform="matrix(1,0,0,1,1,26)"><path d="M5.33,3.568C5.33,4.915 4.236,6.009 2.889,6.009C1.541,6.009 0.447,4.915 0.447,3.568C0.447,2.22 1.541,1.126 2.889,1.126C4.236,1.126 5.33,2.22 5.33,3.568Z" style="fill:rgb(74,74,74);"/><path d="M11.117,3.568C11.117,4.915 10.023,6.009 8.676,6.009C7.328,6.009 6.234,4.915 6.234,3.568C6.234,2.22 7.328,1.126 8.676,1.126C10.023,1.126 11.117,2.22 11.117,3.568Z" style="fill:rgb(74,74,74);"/><path d="M16.904,3.568C16.904,4.915 15.81,6.009 14.463,6.009C13.115,6.009 12.021,4.915 12.021,3.568C12.021,2.22 13.115,1.126 14.463,1.126C15.81,1.126 16.904,2.22 16.904,3.568Z" style="fill:rgb(74,74,74);"/><path d="M22.691,3.568C22.691,4.915 21.597,6.009 20.249,6.009C18.902,6.009 17.808,4.915 17.808,3.568C17.808,2.22 18.902,1.126 20.249,1.126C21.597,1.126 22.691,2.22 22.691,3.568Z" style="fill:rgb(74,74,74);"/><path d="M24.594,1.126L52.434,1.126C52.983,1.126 53.434,1.577 53.434,2.126L53.434,5.01C53.434,5.559 52.983,6.01 52.434,6.01L24.594,6.01C24.045,6.01 23.594,5.559 23.594,5.01L23.594,2.126C23.594,1.577 24.045,1.126 24.594,1.126ZM55.337,1.126L58.944,1.126C59.493,1.126 59.944,1.577 59.944,2.126L59.944,5.01C59.944,5.559 59.493,6.01 58.944,6.01L55.337,6.01C54.788,6.01 54.337,5.559 54.337,5.01L54.337,2.126C54.337,1.577 54.788,1.126 55.337,1.126Z" style="fill:rgb(74,74,74);"/><path d="M65.731,3.568C65.731,4.915 64.637,6.009 63.289,6.009C61.942,6.009 60.848,4.915 60.848,3.568C60.848,2.22 61.942,1.126 63.289,1.126C64.637,1.126 65.731,2.22 65.731,3.568Z" style="fill:rgb(74,74,74);"/><path d="M71.518,3.568C71.518,4.915 70.424,6.009 69.077,6.009C67.729,6.009 66.635,4.915 66.635,3.568C66.635,2.22 67.729,1.126 69.077,1.126C70.424,1.126 71.518,2.22 71.518,3.568Z" style="fill:rgb(74,74,74);"/><path d="M82.368,3.568C82.368,4.915 81.274,6.009 79.927,6.009C78.579,6.009 77.485,4.915 77.485,3.568C77.485,2.22 78.579,1.126 79.927,1.126C81.274,1.126 82.368,2.22 82.368,3.568Z" style="fill:rgb(74,74,74);"/><g id="a" transform="matrix(-1,7.65714e-16,-7.65714e-16,-1,76.942,3.296)"><path d="M4.883,0.09L4.883,1.17C4.883,1.719 4.432,2.17 3.883,2.17L1,2.17C0.451,2.17 0,1.719 0,1.17L0,0.09L4.883,0.09Z" style="fill:rgb(74,74,74);"/></g><g id="b" transform="matrix(1,0,0,1,72.06,3.839)"><path d="M4.883,0.09L4.883,1.17C4.883,1.719 4.432,2.17 3.883,2.17L1,2.17C0.451,2.17 0,1.719 0,1.17L0,0.09L4.883,0.09Z" style="fill:rgb(74,74,74);"/></g></g><path d="M83.187,2.17C83.187,2.769 82.701,3.255 82.102,3.255L2.893,3.255C2.294,3.255 1.808,2.769 1.808,2.17C1.808,1.571 2.294,1.085 2.893,1.085L82.102,1.085C82.701,1.085 83.187,1.571 83.187,2.17Z" style="fill:rgb(74,74,74);"/><path d="M8.361,2.171C8.361,2.57 8.037,2.894 7.637,2.894L4.522,2.894C4.122,2.894 3.798,2.57 3.798,2.171C3.798,1.771 4.122,1.447 4.522,1.447L7.637,1.447C8.037,1.447 8.361,1.771 8.361,2.171Z" style="fill:rgb(216,216,216);fill-opacity:0.14;"/><path d="M14.605,2.171C14.605,2.57 14.281,2.894 13.881,2.894L10.766,2.894C10.366,2.894 10.042,2.57 10.042,2.171C10.042,1.771 10.366,1.447 10.766,1.447L13.881,1.447C14.281,1.447 14.605,1.771 14.605,2.171Z" style="fill:rgb(216,216,216);fill-opacity:0.14;"/><path d="M19.409,2.171C19.409,2.57 19.085,2.894 18.685,2.894L15.57,2.894C15.17,2.894 14.846,2.57 14.846,2.171C14.846,1.771 15.17,1.447 15.57,1.447L18.685,1.447C19.085,1.447 19.409,1.771 19.409,2.171Z" style="fill:rgb(216,216,216);fill-opacity:0.14;"/><path d="M24.212,2.171C24.212,2.57 23.888,2.894 23.488,2.894L20.373,2.894C19.973,2.894 19.649,2.57 19.649,2.171C19.649,1.771 19.973,1.447 20.373,1.447L23.488,1.447C23.888,1.447 24.212,1.771 24.212,2.171Z" style="fill:rgb(216,216,216);fill-opacity:0.14;"/><path d="M29.016,2.171C29.016,2.57 28.692,2.894 28.292,2.894L25.177,2.894C24.777,2.894 24.453,2.57 24.453,2.171C24.453,1.771 24.777,1.447 25.177,1.447L28.292,1.447C28.692,1.447 29.016,1.771 29.016,2.171Z" style="fill:rgb(216,216,216);fill-opacity:0.14;"/><path d="M35.02,2.171C35.02,2.57 34.696,2.894 34.296,2.894L31.181,2.894C30.781,2.894 30.457,2.57 30.457,2.171C30.457,1.771 30.781,1.447 31.181,1.447L34.296,1.447C34.696,1.447 35.02,1.771 35.02,2.171Z" style="fill:rgb(216,216,216);fill-opacity:0.14;"/><path d="M39.823,2.171C39.823,2.57 39.499,2.894 39.099,2.894L35.984,2.894C35.584,2.894 35.26,2.57 35.26,2.171C35.26,1.771 35.584,1.447 35.984,1.447L39.099,1.447C39.499,1.447 39.823,1.771 39.823,2.171Z" style="fill:rgb(216,216,216);fill-opacity:0.14;"/><path d="M44.627,2.171C44.627,2.57 44.303,2.894 43.903,2.894L40.788,2.894C40.388,2.894 40.064,2.57 40.064,2.171C40.064,1.771 40.388,1.447 40.788,1.447L43.903,1.447C44.303,1.447 44.627,1.771 44.627,2.171Z" style="fill:rgb(216,216,216);fill-opacity:0.14;"/><path d="M49.43,2.171C49.43,2.57 49.106,2.894 48.706,2.894L45.591,2.894C45.191,2.894 44.867,2.57 44.867,2.171C44.867,1.771 45.191,1.447 45.591,1.447L48.706,1.447C49.106,1.447 49.43,1.771 49.43,2.171Z" style="fill:rgb(216,216,216);fill-opacity:0.14;"/><path d="M55.435,2.171C55.435,2.57 55.111,2.894 54.711,2.894L51.596,2.894C51.196,2.894 50.872,2.57 50.872,2.171C50.872,1.771 51.196,1.447 51.596,1.447L54.711,1.447C55.111,1.447 55.435,1.771 55.435,2.171Z" style="fill:rgb(216,216,216);fill-opacity:0.14;"/><path d="M60.238,2.171C60.238,2.57 59.914,2.894 59.514,2.894L56.399,2.894C55.999,2.894 55.675,2.57 55.675,2.171C55.675,1.771 55.999,1.447 56.399,1.447L59.514,1.447C59.914,1.447 60.238,1.771 60.238,2.171Z" style="fill:rgb(216,216,216);fill-opacity:0.14;"/><path d="M65.042,2.171C65.042,2.57 64.718,2.894 64.318,2.894L61.203,2.894C60.803,2.894 60.479,2.57 60.479,2.171C60.479,1.771 60.803,1.447 61.203,1.447L64.318,1.447C64.718,1.447 65.042,1.771 65.042,2.171Z" style="fill:rgb(216,216,216);fill-opacity:0.14;"/><path d="M71.046,2.171C71.046,2.57 70.722,2.894 70.322,2.894L67.207,2.894C66.807,2.894 66.483,2.57 66.483,2.171C66.483,1.771 66.807,1.447 67.207,1.447L70.322,1.447C70.722,1.447 71.046,1.771 71.046,2.171Z" style="fill:rgb(216,216,216);fill-opacity:0.14;"/><path d="M75.849,2.171C75.849,2.57 75.525,2.894 75.125,2.894L72.01,2.894C71.61,2.894 71.286,2.57 71.286,2.171C71.286,1.771 71.61,1.447 72.01,1.447L75.125,1.447C75.525,1.447 75.849,1.771 75.849,2.171Z" style="fill:rgb(216,216,216);fill-opacity:0.14;"/><path d="M80.653,2.171C80.653,2.57 80.329,2.894 79.929,2.894L76.814,2.894C76.414,2.894 76.09,2.57 76.09,2.171C76.09,1.771 76.414,1.447 76.814,1.447L79.929,1.447C80.329,1.447 80.653,1.771 80.653,2.171Z" style="fill:rgb(216,216,216);fill-opacity:0.14;"/></g><path d="M143,158C142.781,158 142.572,158.037 142.361,158.064C142.323,157.914 142.287,157.763 142.245,157.613C144.101,156.837 145.316,155.012 145.316,153C145.316,150.259 143.061,148.002 140.32,148C139.228,148.004 138.168,148.368 137.304,149.036C137.193,148.923 137.082,148.811 136.969,148.7C137.622,147.841 137.977,146.792 137.98,145.713C137.978,142.971 135.722,140.716 132.98,140.716C130.981,140.716 129.165,141.915 128.381,143.754C128.233,143.712 128.084,143.677 127.936,143.639C127.963,143.428 128,143.219 128,143C128,140.257 125.743,138 123,138C120.257,138 118,140.257 118,143C118,143.219 118.037,143.428 118.064,143.639C117.916,143.677 117.767,143.712 117.619,143.754C116.837,141.911 115.02,140.708 113.018,140.708C110.276,140.708 108.02,142.964 108.02,145.706C108.02,145.708 108.02,145.711 108.02,145.713C108.02,146.838 108.404,147.864 109.031,148.7C105.314,152.332 103,157.393 103,163C103,174.046 111.954,183 123,183C132.339,183 140.16,176.59 142.361,167.936C142.572,167.963 142.781,168 143,168C145.743,168 148,165.743 148,163C148,160.257 145.743,158 143,158" style="fill:rgb(68,216,96);"/><rect x="83" y="103" width="40" height="20" style="fill:rgb(62,204,95);"/><path d="M133,115.5C134.371,115.5 135.5,114.371 135.5,113C135.5,111.629 134.371,110.5 133,110.5C132.891,110.5 132.786,110.519 132.681,110.532C132.661,110.457 132.644,110.382 132.623,110.307C133.55,109.918 134.156,109.006 134.156,108.001C134.156,106.631 133.03,105.503 131.66,105.5C131.091,105.5 130.572,105.697 130.152,106.018C130.097,105.961 130.041,105.905 129.984,105.85C130.298,105.433 130.49,104.919 130.49,104.356C130.49,102.985 129.361,101.857 127.99,101.857C126.99,101.857 126.082,102.457 125.69,103.377C124.815,103.129 123.91,103.003 123,103C117.478,103 113,107.478 113,113C113,118.522 117.478,123 123,123C123.934,123 124.833,122.862 125.69,122.623C126.082,123.543 126.99,124.143 127.99,124.143C129.361,124.143 130.49,123.015 130.49,121.644C130.49,121.081 130.298,120.567 129.984,120.15C130.041,120.095 130.097,120.039 130.152,119.982C130.572,120.303 131.091,120.5 131.66,120.5C133.031,120.5 134.16,119.371 134.16,118C134.16,116.993 133.552,116.081 132.623,115.693C132.644,115.619 132.661,115.543 132.681,115.468C132.786,115.481 132.891,115.5 133,115.5" style="fill:rgb(68,216,96);"/><path d="M143,41.75C142.84,41.75 142.67,41.73 142.51,41.7C142.349,41.669 142.192,41.622 142.04,41.56C141.89,41.5 141.75,41.42 141.609,41.33C141.479,41.24 141.35,41.13 141.229,41.02C141.12,40.9 141.01,40.78 140.92,40.64C140.83,40.5 140.75,40.36 140.689,40.21C140.566,39.905 140.502,39.579 140.5,39.25C140.5,39.09 140.52,38.92 140.55,38.76C140.58,38.6 140.63,38.45 140.689,38.29C140.75,38.14 140.83,38 140.92,37.86C141.01,37.73 141.12,37.6 141.229,37.48C141.35,37.37 141.479,37.26 141.609,37.17C141.75,37.08 141.89,37 142.04,36.94C142.189,36.88 142.35,36.83 142.51,36.8C142.83,36.73 143.16,36.73 143.49,36.8C143.649,36.83 143.81,36.88 143.96,36.94C144.109,37 144.25,37.08 144.39,37.17C144.52,37.26 144.649,37.37 144.77,37.48C144.88,37.6 144.99,37.73 145.08,37.86C145.17,38 145.25,38.14 145.31,38.29C145.37,38.45 145.42,38.6 145.45,38.76C145.479,38.92 145.5,39.09 145.5,39.25C145.5,39.91 145.229,40.56 144.77,41.02C144.649,41.13 144.52,41.24 144.39,41.33C144.25,41.42 144.109,41.5 143.96,41.56C143.655,41.684 143.329,41.749 143,41.75M163,40.5C162.34,40.5 161.7,40.23 161.229,39.77C161.118,39.65 161.015,39.523 160.92,39.39C160.83,39.25 160.75,39.11 160.689,38.96C160.566,38.655 160.502,38.329 160.5,38C160.5,37.34 160.77,36.7 161.229,36.23C161.35,36.12 161.479,36.01 161.609,35.92C161.75,35.83 161.89,35.75 162.04,35.69C162.189,35.63 162.35,35.58 162.51,35.55C162.83,35.48 163.17,35.48 163.49,35.55C163.649,35.58 163.81,35.63 163.96,35.69C164.109,35.75 164.25,35.83 164.39,35.92C164.52,36.01 164.649,36.12 164.77,36.23C165.229,36.7 165.5,37.34 165.5,38C165.5,38.16 165.479,38.33 165.45,38.49C165.42,38.65 165.37,38.81 165.31,38.96C165.24,39.11 165.17,39.25 165.08,39.39C164.99,39.52 164.88,39.65 164.77,39.77C164.649,39.88 164.52,39.99 164.39,40.08C164.25,40.17 164.109,40.25 163.96,40.31C163.655,40.434 163.329,40.499 163,40.5"/></g></svg>