<svg width="100%" height="100%" viewBox="0 0 18 16" version="1.1" xmlns="http://www.w3.org/2000/svg" xmlns:xlink="http://www.w3.org/1999/xlink" xml:space="preserve" style="fill-rule:evenodd;clip-rule:evenodd;stroke-linejoin:round;stroke-miterlimit:2;"><g id="dub-dark" transform="matrix(1.17049,0,0,1.17049,-1.53443,-1.36388)"><g transform="matrix(1,0,0,1,-0.217104,0.0470516)"><path d="M2.382,11.423L2.386,4.45C2.386,4.45 3.739,4.458 4.693,4.44C5.647,4.421 6.531,4.694 7.077,5.465C7.624,6.235 7.604,6.915 7.602,7.403C7.601,7.891 7.59,8.685 7.589,8.756C7.584,9.244 8.021,10.33 9.256,10.343C10.274,10.353 10.778,9.409 10.783,8.912C10.784,8.836 10.77,4.45 10.77,4.45C10.77,4.45 13.243,4.462 14.216,4.429C15.188,4.395 16.039,5.427 16.052,6.406C16.059,6.962 15.892,7.318 15.713,7.533C15.577,7.696 15.417,7.763 15.418,7.855C15.418,7.881 15.651,8.062 15.809,8.351C15.965,8.636 16.045,9.025 16.024,9.45C15.971,10.504 15.189,11.435 14.163,11.429C13.134,11.422 10.998,11.408 10.998,11.408C11.103,11.312 11.35,11.128 11.554,10.901C11.753,10.68 11.91,10.415 11.968,10.332L14.056,10.306C14.056,10.306 14.89,10.261 14.906,9.379C14.922,8.497 13.937,8.38 13.937,8.38L12.411,8.388L12.41,7.297L14.156,7.291C14.156,7.291 14.896,7.274 14.922,6.43C14.947,5.586 13.928,5.536 13.928,5.536L11.894,5.535C11.894,5.535 11.865,8.659 11.861,9.083C11.859,9.268 11.806,9.688 11.552,10.116C11.154,10.783 10.363,11.488 9.265,11.477C7.617,11.462 6.827,10.392 6.562,9.501C6.475,9.207 6.487,8.904 6.488,8.704C6.489,8.547 6.498,7.076 6.498,7.033C6.494,6.747 5.891,5.534 4.964,5.545C4.204,5.554 3.491,5.563 3.491,5.563L3.496,10.324C3.496,10.324 4.857,10.308 5.235,10.304C5.585,10.3 6.131,9.759 6.131,9.759L6.781,10.805C6.781,10.805 6.008,11.442 5.374,11.453C4.739,11.463 2.382,11.423 2.382,11.423Z"/></g><g transform="matrix(0.92927,0,0,0.871018,0.446816,1.39104)"><ellipse cx="9.176" cy="8.505" rx="1.238" ry="1.32" style="fill:url(#_Radial-cjg6s4e);"/></g><g transform="matrix(0.323224,0,0,0.302963,6.99521,4.66688)"><ellipse cx="9.176" cy="8.505" rx="1.238" ry="1.32" style="fill:url(#_Radial-5jann16);"/></g></g><defs><radialGradient id="_Radial-cjg6s4e" cx="0" cy="0" r="1" gradientUnits="userSpaceOnUse" gradientTransform="matrix(1.14615,1.36249,-1.27708,1.2228,8.86481,7.92935)"><stop offset="0" style="stop-color:rgb(189,7,7);stop-opacity:1"/><stop offset="0.52" style="stop-color:rgb(200,47,47);stop-opacity:1"/><stop offset="1" style="stop-color:rgb(236,176,176);stop-opacity:1"/></radialGradient><radialGradient id="_Radial-5jann16" cx="0" cy="0" r="1" gradientUnits="userSpaceOnUse" gradientTransform="matrix(1.14615,1.36249,-1.27708,1.2228,8.86481,7.92935)"><stop offset="0" style="stop-color:rgb(189,7,7);stop-opacity:1"/><stop offset="0.52" style="stop-color:rgb(200,47,47);stop-opacity:1"/><stop offset="1" style="stop-color:rgb(236,176,176);stop-opacity:1"/></radialGradient></defs></svg>