<svg width="100%" height="100%" viewBox="0 0 18 16" version="1.1" xmlns="http://www.w3.org/2000/svg" xmlns:xlink="http://www.w3.org/1999/xlink" xml:space="preserve" style="fill-rule:evenodd;clip-rule:evenodd;stroke-linejoin:round;stroke-miterlimit:2;"><g id="dune" transform="matrix(1.00717,0,0,1.00717,0.0987624,0.115811)"><path d="M14.275,3.727C14.29,3.666 14.295,3.606 14.29,3.545C14.285,3.485 14.274,3.428 14.258,3.374C14.275,3.188 14.231,2.921 13.933,2.695C13.417,2.304 12.94,2.025 12.407,1.763C11.874,1.501 11.63,1.386 11.493,1.16C11.454,1.096 11.432,1.029 11.419,0.965L11.592,0.898C11.592,0.898 12.161,0.783 13.107,1.105C14.054,1.427 15.94,2.248 15.94,2.248L15.941,4.317C15.935,4.317 15.929,4.318 15.923,4.317C15.646,4.282 15.444,4.256 14.975,4.112C14.793,4.056 14.48,3.91 14.275,3.727Z" style="fill:rgb(183,111,41);"/><path d="M14.258,3.374C14.06,2.725 13.06,2.435 12.247,1.96C11.412,1.471 11.182,1.331 11.197,1.051L11.419,0.965C11.432,1.029 11.454,1.096 11.493,1.16C11.63,1.386 11.874,1.501 12.407,1.763C12.94,2.025 13.417,2.304 13.933,2.695C14.231,2.921 14.275,3.188 14.258,3.374Z" style="fill:rgb(175,104,41);"/><path d="M15.923,4.317C15.929,4.318 15.935,4.317 15.941,4.317L15.944,8.715C15.787,8.158 15.467,7.13 15.107,6.557C14.397,5.43 13.827,5.27 13.763,4.907C13.736,4.751 13.733,4.57 13.738,4.415C14.024,4.186 14.219,3.96 14.275,3.727C14.48,3.91 14.793,4.056 14.975,4.112C15.444,4.256 15.646,4.282 15.923,4.317Z" style="fill:rgb(129,80,33);"/><path d="M15.944,8.715L15.948,14.771L1.736,14.778L1.735,14.241C2.474,14.217 3.844,14.039 4.932,13.125C6.5,11.806 7.039,10.291 7.759,8.897C8.48,7.503 9.796,6.757 11.303,5.877C12.229,5.337 13.166,4.872 13.738,4.415C13.733,4.57 13.736,4.751 13.763,4.907C13.827,5.27 14.397,5.43 15.107,6.557C15.467,7.13 15.787,8.158 15.944,8.715Z" style="fill:rgb(138,66,30);"/><path d="M8.165,8.254C8.921,7.252 10.045,6.611 11.303,5.877C12.229,5.337 13.166,4.872 13.738,4.415C13.733,4.57 13.736,4.751 13.763,4.907C13.827,5.27 14.397,5.43 15.107,6.557C15.467,7.13 15.787,8.158 15.944,8.715L15.945,9.602C15.863,9.503 15.768,9.392 15.715,9.339C15.605,9.23 15.576,9.118 15.576,9.033C15.576,8.948 15.681,8.816 15.609,8.639C15.538,8.462 15.326,8.412 15.326,8.412C15.326,8.412 15.357,8.03 15.238,7.751C15.118,7.472 15.032,7.406 15.032,7.406L14.939,7.392C14.939,7.392 15.051,7.283 14.774,6.948C14.497,6.614 14.245,6.361 13.962,6.161C13.679,5.961 13.614,5.812 13.502,5.837C13.391,5.861 13.353,5.997 13.209,5.982C13.065,5.967 12.993,5.731 12.8,5.784C12.608,5.838 11.746,6.582 11.644,6.723C11.541,6.864 11.281,6.863 11.214,6.945C11.147,7.028 10.697,7.563 10.643,7.704C10.589,7.845 10.621,8.174 10.506,8.258C10.391,8.343 10.145,8.329 10.145,8.329C10.145,8.329 9.652,9.015 9.638,9.151C9.623,9.287 9.728,9.37 9.719,9.426C9.709,9.481 9.563,9.48 9.441,9.567C9.319,9.653 9.184,9.93 9.18,10.174C9.177,10.418 9.094,11.427 9.1,11.919C9.107,12.41 9.04,13.087 9.152,13.189C9.264,13.29 9.363,13.317 9.372,13.463C9.381,13.61 9.637,13.811 9.803,13.942C9.968,14.073 10.549,14.423 10.754,14.479C10.958,14.535 11.182,14.626 11.292,14.713L11.368,14.773L3.289,14.777C3.612,14.655 4.167,14.395 4.907,13.866C6.137,12.986 6.276,12.651 6.84,11.565C7.27,10.736 7.893,9.021 8.165,8.254Z" style="fill:rgb(133,65,29);"/><path d="M3.289,14.777L1.736,14.778L1.735,14.241C2.474,14.217 3.844,14.039 4.932,13.125C6.5,11.806 7.039,10.291 7.759,8.897C7.879,8.666 8.015,8.453 8.165,8.254C7.893,9.021 7.27,10.736 6.84,11.565C6.276,12.651 6.137,12.986 4.907,13.866C4.167,14.395 3.612,14.655 3.289,14.777Z" style="fill:rgb(126,63,27);"/><path d="M5.925,14.452C5.925,14.452 6.687,14.109 6.949,13.984C7.212,13.859 7.432,13.893 7.538,13.814C7.644,13.735 7.735,13.585 7.79,13.626C7.844,13.667 7.731,13.877 7.721,14.03C7.711,14.182 7.586,14.254 7.464,14.273C7.343,14.291 7.196,14.343 7.172,14.401C7.149,14.459 7.098,14.502 6.868,14.516C6.638,14.531 6.507,14.599 6.344,14.62C6.18,14.641 5.925,14.452 5.925,14.452Z" style="fill:rgb(138,66,30);"/><path d="M6.215,14.077C6.215,14.077 6.407,14.152 6.504,14.038C6.602,13.925 6.625,13.871 6.749,13.855C6.872,13.838 6.942,13.65 7.04,13.627C7.138,13.605 7.269,13.629 7.31,13.508C7.351,13.387 7.463,13.458 7.522,13.358C7.581,13.258 7.696,13.285 7.693,13.207C7.69,13.129 7.762,13.078 7.458,13.087C7.153,13.096 7.154,13.1 7.157,13.161C7.16,13.222 7.137,13.351 7.027,13.35C6.917,13.349 6.91,13.385 6.905,13.478C6.899,13.572 6.935,13.626 6.794,13.628C6.654,13.63 6.673,13.715 6.574,13.755C6.474,13.795 6.43,13.831 6.329,13.853C6.228,13.876 6.177,13.919 6.177,13.984C6.177,14.049 6.215,14.077 6.215,14.077Z" style="fill:rgb(138,66,30);"/><path d="M5.976,13.687C6.037,13.709 6.344,13.511 6.458,13.496C6.571,13.482 6.69,13.311 6.823,13.227C6.956,13.143 7.009,13.043 7.085,13.004C7.161,12.966 7.181,12.873 7.152,12.837C7.122,12.8 7.077,12.773 6.985,12.821C6.893,12.87 6.934,12.963 6.837,12.967C6.739,12.972 6.645,12.941 6.636,13.042C6.627,13.142 6.507,13.147 6.439,13.218C6.371,13.289 6.431,13.387 6.323,13.394C6.214,13.401 6.18,13.503 6.121,13.509C6.062,13.515 5.992,13.506 5.977,13.579C5.963,13.653 5.915,13.665 5.976,13.687Z" style="fill:rgb(138,66,30);"/><path d="M15.945,9.602C15.863,9.503 15.768,9.392 15.715,9.339C15.605,9.23 15.576,9.118 15.576,9.033C15.576,8.948 15.681,8.816 15.609,8.639C15.538,8.462 15.326,8.412 15.326,8.412C15.326,8.412 15.357,8.03 15.238,7.751C15.118,7.472 15.032,7.406 15.032,7.406L14.939,7.392C14.939,7.392 15.051,7.283 14.774,6.948C14.497,6.614 14.245,6.361 13.962,6.161C13.679,5.961 13.614,5.812 13.502,5.837C13.391,5.861 13.353,5.997 13.209,5.982C13.065,5.967 12.993,5.731 12.8,5.784C12.608,5.838 11.746,6.582 11.644,6.723C11.541,6.864 11.281,6.863 11.214,6.945C11.147,7.028 10.697,7.563 10.643,7.704C10.589,7.845 10.621,8.174 10.506,8.258C10.391,8.343 10.145,8.329 10.145,8.329C10.145,8.329 9.652,9.015 9.638,9.151C9.623,9.287 9.728,9.37 9.719,9.426C9.709,9.481 9.563,9.48 9.441,9.567C9.319,9.653 9.184,9.93 9.18,10.174C9.177,10.418 9.094,11.427 9.1,11.919C9.107,12.41 9.04,13.087 9.152,13.189C9.264,13.29 9.363,13.317 9.372,13.463C9.381,13.61 9.637,13.811 9.803,13.942C9.968,14.073 10.549,14.423 10.754,14.479C10.958,14.535 11.182,14.626 11.292,14.713L11.368,14.773L15.948,14.771L15.945,9.602Z" style="fill:rgb(138,66,30);"/><path d="M1.73,7.659L1.729,6.212L2.033,6.221C2.252,6.228 2.221,6.255 2.275,6.383C2.33,6.511 2.421,6.421 2.452,6.52C2.489,6.641 2.391,6.636 2.31,6.789C2.229,6.942 2.141,7.102 2.115,7.376C2.101,7.524 1.906,7.611 1.73,7.659Z" style="fill:rgb(176,168,137);"/><path d="M1.729,6.212L1.728,5.545C2.134,5.449 2.688,5.314 3.001,5.22C3.537,5.057 4.063,4.966 4.317,4.914C4.57,4.862 4.75,4.804 5.199,4.733C5.648,4.663 5.891,4.615 6.104,4.69C6.317,4.766 6.082,4.855 5.976,4.916C5.87,4.976 5.798,5.144 5.725,5.176C5.652,5.209 5.44,5.196 5.354,5.235C5.267,5.274 5.241,5.297 5.176,5.315C5.111,5.333 5.09,5.418 5.09,5.488C5.09,5.559 5.118,5.605 5.248,5.597C5.378,5.59 5.587,5.603 5.635,5.532C5.683,5.461 6.016,5.34 6.158,5.335C6.3,5.331 6.401,5.213 6.601,5.191C6.802,5.169 6.895,5.079 7.186,5.056C7.477,5.034 7.579,4.922 7.708,5.016C7.838,5.11 7.608,5.176 7.648,5.3C7.689,5.424 7.778,5.363 7.862,5.406C7.947,5.449 7.886,5.669 7.758,5.718C7.63,5.767 7.619,5.942 7.511,5.964C7.403,5.986 6.991,6.186 6.83,6.291C6.67,6.397 6.386,6.568 6.124,6.643C5.863,6.718 5.439,7.024 5.163,7.087C4.888,7.151 4.38,7.314 3.951,7.42C3.522,7.526 3.109,7.636 3.252,7.713C3.395,7.79 3.647,7.947 3.491,8C3.335,8.053 2.984,8.273 2.802,8.431C2.62,8.589 2.451,8.546 2.4,8.503C2.349,8.46 2.4,8.416 2.537,8.341C2.675,8.265 2.977,8.09 2.773,8.065C2.569,8.039 2.536,8.11 2.365,8.22C2.263,8.285 1.961,8.307 1.73,8.314L1.73,7.659C1.906,7.611 2.101,7.524 2.115,7.376C2.141,7.102 2.229,6.942 2.31,6.789C2.391,6.636 2.489,6.641 2.452,6.52C2.421,6.421 2.33,6.511 2.275,6.383C2.221,6.255 2.252,6.228 2.033,6.221L1.729,6.212Z" style="fill:rgb(172,163,134);"/><path d="M1.735,14.013L1.735,13.732C1.883,13.641 2.114,13.489 2.194,13.38C2.316,13.214 2.584,13.251 2.619,13.199C2.654,13.146 2.704,13.048 2.929,13.053C3.155,13.057 3.433,13.054 3.677,12.891C3.921,12.728 3.981,12.589 4.219,12.405C4.457,12.222 4.656,12.26 4.813,12.06C4.969,11.86 5.094,11.583 5.144,11.71C5.168,11.77 5.184,11.845 5.194,11.908C5.206,11.978 5.211,12.032 5.211,12.032C5.211,12.032 5.091,12.035 5.023,12.122C4.954,12.21 4.585,12.632 4.48,12.816C4.374,13.001 4.314,13.038 4.293,13.143C4.272,13.247 4.043,13.385 3.898,13.503C3.753,13.621 3.392,13.752 3.094,13.862C2.866,13.946 2.093,13.994 1.735,14.013Z" style="fill:rgb(164,160,131);"/><path d="M8.124,6.801C7.787,6.936 7.286,7.25 6.974,7.414C6.647,7.587 6.495,7.895 6.057,8.222C5.619,8.549 5.058,8.703 4.817,8.82C4.575,8.936 3.743,9.208 3.252,9.433C2.76,9.658 1.897,10.404 1.897,10.404L1.732,10.409L1.731,9.711C1.831,9.627 1.929,9.541 1.968,9.498C2.058,9.397 2.184,9.439 2.377,9.294C2.57,9.149 2.736,9.212 3.054,9C3.371,8.787 3.748,8.464 3.884,8.277C4.02,8.09 4.559,7.909 4.958,7.753C5.357,7.598 5.391,7.583 5.764,7.382C6.137,7.182 6.364,7.349 6.747,7.201C7.13,7.052 7.211,7.046 7.629,6.815C8.048,6.583 8.074,6.378 8.259,6.315C8.445,6.251 8.856,6.312 9.123,6.199C9.391,6.085 9.609,5.974 9.609,6.047C9.609,6.119 9.326,6.31 9.108,6.413C8.974,6.477 8.778,6.556 8.569,6.635C8.439,6.685 8.304,6.734 8.175,6.781C8.158,6.787 8.141,6.794 8.124,6.801Z" style="fill:rgb(179,171,140);"/><path d="M1.735,13.732L1.733,11.518C2.037,11.232 2.484,10.8 2.52,10.709C2.575,10.569 2.833,10.587 2.984,10.391C3.135,10.195 3.257,9.978 3.571,9.786C3.885,9.593 4.392,9.311 4.696,9.095C4.999,8.879 5.512,8.661 5.745,8.556C5.979,8.451 6.58,8.105 6.856,7.745C7.131,7.385 7.382,7.45 7.619,7.199C7.855,6.947 8.131,6.79 8.313,6.697C8.495,6.603 8.604,6.57 8.562,6.697C8.521,6.824 8.336,7.035 8.336,7.035C8.336,7.035 8.587,6.89 8.763,6.753C8.938,6.617 9.074,6.569 9.219,6.543C9.364,6.516 9.46,6.605 9.33,6.673C9.201,6.741 8.912,6.916 8.781,7.057C8.649,7.198 8.473,7.268 8.236,7.448C8,7.629 7.898,7.731 7.624,8.059C7.349,8.388 7.198,8.341 7.189,8.579C7.181,8.818 7.014,8.951 7.025,9.132C7.036,9.312 7.092,9.423 6.952,9.52C6.811,9.617 6.349,9.763 6.221,10.024C6.092,10.286 6.164,10.673 6.122,10.783C6.08,10.893 5.819,10.892 5.798,11.054C5.776,11.216 5.708,11.38 5.529,11.582C5.444,11.678 5.31,11.804 5.194,11.908C5.184,11.845 5.168,11.77 5.144,11.71C5.094,11.583 4.969,11.86 4.813,12.06C4.656,12.26 4.457,12.222 4.219,12.405C3.981,12.589 3.921,12.728 3.677,12.891C3.433,13.054 3.155,13.057 2.929,13.053C2.704,13.048 2.654,13.146 2.619,13.199C2.584,13.251 2.316,13.214 2.194,13.38C2.114,13.489 1.883,13.641 1.735,13.732Z" style="fill:rgb(172,164,134);"/><path d="M8.124,6.801C7.966,6.895 7.783,7.024 7.619,7.199C7.382,7.45 7.131,7.385 6.856,7.745C6.58,8.105 5.979,8.451 5.745,8.556C5.512,8.661 4.999,8.879 4.696,9.095C4.392,9.311 3.885,9.593 3.571,9.786C3.257,9.978 3.135,10.195 2.984,10.391C2.833,10.587 2.575,10.569 2.52,10.709C2.484,10.8 2.037,11.232 1.733,11.518L1.732,10.409L1.897,10.404C1.897,10.404 2.76,9.658 3.252,9.433C3.743,9.208 4.575,8.936 4.817,8.82C5.058,8.703 5.619,8.549 6.057,8.222C6.495,7.895 6.647,7.587 6.974,7.414C7.286,7.25 7.787,6.936 8.124,6.801Z" style="fill:rgb(176,168,137);"/><path d="M5.623,3.215L11.197,1.051C11.182,1.331 11.412,1.471 12.247,1.96C13.128,2.475 14.229,2.773 14.29,3.545C14.295,3.606 14.29,3.666 14.275,3.727C14.219,3.96 14.024,4.186 13.738,4.415C13.166,4.872 12.229,5.337 11.303,5.877C9.796,6.757 8.48,7.503 7.759,8.897C7.039,10.291 6.5,11.806 4.932,13.125C3.844,14.039 2.474,14.217 1.735,14.241L1.735,14.013C2.093,13.994 2.866,13.946 3.094,13.862C3.392,13.752 3.753,13.621 3.898,13.503C4.043,13.385 4.272,13.247 4.293,13.143C4.314,13.038 4.374,13.001 4.48,12.816C4.585,12.632 4.954,12.21 5.023,12.122C5.091,12.035 5.211,12.032 5.211,12.032C5.211,12.032 5.206,11.978 5.194,11.908C5.31,11.804 5.444,11.678 5.529,11.582C5.708,11.38 5.776,11.216 5.798,11.054C5.819,10.892 6.08,10.893 6.122,10.783C6.164,10.673 6.092,10.286 6.221,10.024C6.349,9.763 6.811,9.617 6.952,9.52C7.092,9.423 7.036,9.312 7.025,9.132C7.014,8.951 7.181,8.818 7.189,8.579C7.198,8.341 7.349,8.388 7.624,8.059C7.898,7.731 8,7.629 8.236,7.448C8.473,7.268 8.649,7.198 8.781,7.057C8.912,6.916 9.201,6.741 9.33,6.673C9.46,6.605 9.364,6.516 9.219,6.543C9.074,6.569 8.938,6.617 8.763,6.753C8.587,6.89 8.336,7.035 8.336,7.035C8.336,7.035 8.521,6.824 8.562,6.697C8.572,6.669 8.573,6.649 8.569,6.635C8.778,6.556 8.974,6.477 9.108,6.413C9.326,6.31 9.609,6.119 9.609,6.047C9.609,5.974 9.391,6.085 9.123,6.199C8.856,6.312 8.445,6.251 8.259,6.315C8.074,6.378 8.048,6.583 7.629,6.815C7.211,7.046 7.13,7.052 6.747,7.201C6.364,7.349 6.137,7.182 5.764,7.382C5.391,7.583 5.357,7.598 4.958,7.753C4.559,7.909 4.02,8.09 3.884,8.277C3.748,8.464 3.371,8.787 3.054,9C2.736,9.212 2.57,9.149 2.377,9.294C2.184,9.439 2.058,9.397 1.968,9.498C1.929,9.541 1.831,9.627 1.731,9.711L1.73,8.314C1.961,8.307 2.263,8.285 2.365,8.22C2.536,8.11 2.569,8.039 2.773,8.065C2.977,8.09 2.675,8.265 2.537,8.341C2.4,8.416 2.349,8.46 2.4,8.503C2.451,8.546 2.62,8.589 2.802,8.431C2.984,8.273 3.335,8.053 3.491,8C3.647,7.947 3.395,7.79 3.252,7.713C3.109,7.636 3.522,7.526 3.951,7.42C4.38,7.314 4.888,7.151 5.163,7.087C5.439,7.024 5.863,6.718 6.124,6.643C6.386,6.568 6.67,6.397 6.83,6.291C6.991,6.186 7.403,5.986 7.511,5.964C7.619,5.942 7.63,5.767 7.758,5.718C7.886,5.669 7.947,5.449 7.862,5.406C7.778,5.363 7.689,5.424 7.648,5.3C7.608,5.176 7.838,5.11 7.708,5.016C7.579,4.922 7.477,5.034 7.186,5.056C6.895,5.079 6.802,5.169 6.601,5.191C6.401,5.213 6.3,5.331 6.158,5.335C6.016,5.34 5.683,5.461 5.635,5.532C5.587,5.603 5.378,5.59 5.248,5.597C5.118,5.605 5.09,5.559 5.09,5.488C5.09,5.418 5.111,5.333 5.176,5.315C5.241,5.297 5.267,5.274 5.354,5.235C5.44,5.196 5.652,5.209 5.725,5.176C5.798,5.144 5.87,4.976 5.976,4.916C6.082,4.855 6.317,4.766 6.104,4.69C5.891,4.615 5.648,4.663 5.199,4.733C4.75,4.804 4.57,4.862 4.317,4.914C4.063,4.966 3.537,5.057 3.001,5.22C2.688,5.314 2.134,5.449 1.728,5.545L1.728,5.128C1.917,5.097 2.28,5.033 2.432,4.984C2.643,4.917 2.978,4.607 3.317,4.549C3.656,4.491 4.108,4.393 4.664,4.219C5.07,4.092 5.449,3.516 5.623,3.215Z" style="fill:url(#_Linear-ed9my9b);"/><path d="M1.728,5.128L1.727,4.728L5.623,3.215C5.449,3.516 5.07,4.092 4.664,4.219C4.108,4.393 3.656,4.491 3.317,4.549C2.978,4.607 2.643,4.917 2.432,4.984C2.28,5.033 1.917,5.097 1.728,5.128Z" style="fill:rgb(183,177,149);"/></g><defs><linearGradient id="_Linear-ed9my9b" x1="0" y1="0" x2="1" y2="0" gradientUnits="userSpaceOnUse" gradientTransform="matrix(4.74812,-6.19261,6.19261,4.74812,5.81705,8.11325)"><stop offset="0" style="stop-color:rgb(176,168,137);stop-opacity:1"/><stop offset="1" style="stop-color:rgb(177,170,140);stop-opacity:1"/></linearGradient></defs></svg>