<svg width="100%" height="100%" viewBox="0 0 18 16" version="1.1" xmlns="http://www.w3.org/2000/svg" xmlns:xlink="http://www.w3.org/1999/xlink" xml:space="preserve" style="fill-rule:evenodd;clip-rule:evenodd;stroke-linejoin:round;stroke-miterlimit:2;"><g id="edgedb"><g transform="matrix(1.07381,0,0,1.16787,0.071922,-0.951721)"><path d="M15.532,3.683L15.532,11.647C15.532,13.112 14.238,14.301 12.645,14.301L3.984,14.301C2.391,14.301 1.097,13.112 1.097,11.647L1.097,3.683C1.097,2.218 2.391,1.029 3.984,1.029L12.645,1.029C14.238,1.029 15.532,2.218 15.532,3.683Z" style="fill:rgb(9,185,133);"/></g><g transform="matrix(0.698184,0,0,0.698184,5.81999,-0.94133)"><path d="M0,19.968L0,5.645L9.109,5.645L9.109,8.366L3.036,8.366L3.036,11.288L7.62,11.288L7.62,13.981L3.036,13.981L3.036,17.247L9.109,17.247L9.109,19.968L0,19.968Z" style="fill:white;"/></g></g></svg>