<svg width="100%" height="100%" viewBox="0 0 18 16" version="1.1" xmlns="http://www.w3.org/2000/svg" xmlns:xlink="http://www.w3.org/1999/xlink" xml:space="preserve" style="fill-rule:evenodd;clip-rule:evenodd;stroke-linejoin:round;stroke-miterlimit:2;"><g id="editorconfig" transform="matrix(1,0,0,1,-0.8052,0.00650201)"><path d="M11.277,5.535C10.136,4.716 6.998,4.426 6.454,4.861C5.911,5.296 4.708,6.977 3.983,9.279C3.259,11.58 3.056,13.68 3.454,14.043C3.852,14.407 6.339,14.403 7.713,13.978C9.087,13.552 10.593,12.593 11.803,11.538C13.168,10.348 12.856,6.667 11.277,5.535Z" style="fill:rgb(2,2,2);"/><path d="M6.723,5.181C6.302,5.451 5.804,6.01 4.724,8.383C3.784,10.45 3.19,13.278 3.699,13.719C4.208,14.161 6.485,14.141 7.934,13.589C9.665,12.93 11.747,11.55 12.189,10.563C12.632,9.576 12.108,6.489 11.064,5.779C9.641,4.811 7.026,4.987 6.723,5.181Z" style="fill:rgb(254,254,254);"/><path d="M3.475,12.869C3.459,13.117 3.773,13.34 4.026,13.496C4.279,13.653 4.91,13.601 5.046,13.452C5.158,13.33 4.925,13.054 4.46,12.809C4.197,12.671 3.494,12.567 3.475,12.869Z"/><path d="M3.786,12.997C3.75,13.126 4.02,13.331 4.332,13.418C4.524,13.471 4.859,13.479 4.892,13.388C4.927,13.293 4.728,13.169 4.357,13.032C3.985,12.896 3.809,12.913 3.786,12.997Z" style="fill:rgb(255,250,250);"/><path d="M12.13,6.597C12.493,6.389 13.477,5.862 14.171,5.814C14.908,5.763 15.443,5.846 15.82,6.162C16.175,6.46 16.413,7.128 16.346,7.637C16.207,8.684 15.364,9.195 14.828,9.471C14.291,9.747 13.598,10.093 13.243,10.1C13.113,10.103 12.794,10.001 12.59,9.931C12.78,8.859 12.612,7.562 12.13,6.597Z"/><path d="M12.381,7.212C12.343,7.096 12.301,6.982 12.255,6.871C12.556,6.69 13.089,6.384 13.455,6.246C13.991,6.046 14.638,5.931 15.256,6.18C15.875,6.429 16.092,6.961 16.136,7.183C16.143,7.217 16.148,7.251 16.151,7.286C16.089,7.162 16.008,7.037 15.907,6.908C15.608,6.524 15.55,6.494 15.177,6.38C14.684,6.23 13.933,6.258 13.351,6.617C13.075,6.787 12.684,7.027 12.381,7.212Z" style="fill:white;"/><path d="M12.46,7.474C12.436,7.386 12.41,7.298 12.381,7.212C12.684,7.027 13.075,6.787 13.351,6.617C13.933,6.258 14.684,6.23 15.177,6.38C15.55,6.494 15.608,6.524 15.907,6.908C16.008,7.037 16.089,7.162 16.151,7.286C16.16,7.399 16.15,7.517 16.123,7.637C16.039,7.337 15.995,7.097 15.491,6.751C14.954,6.383 14.236,6.463 13.551,6.756C13.103,6.948 12.691,7.273 12.46,7.474Z"/><path d="M16.123,7.637C16.034,8.031 15.756,8.448 15.349,8.764C14.779,9.206 14.545,9.372 14.195,9.581C14.114,9.629 13.715,9.8 13.496,9.85C13.22,9.914 12.945,9.86 12.945,9.86L12.613,9.786C12.72,9.05 12.664,8.222 12.46,7.474C12.691,7.273 13.103,6.948 13.551,6.756C14.236,6.463 14.954,6.383 15.491,6.751C15.995,7.097 16.039,7.337 16.123,7.637Z" style="fill:rgb(255,242,242);"/><path d="M7.381,8.949C7.381,8.949 6.967,9.539 5.935,9.431C5.134,9.348 4.508,9.159 4.165,8.781C3.823,8.404 3.792,8.038 3.959,7.599C4.125,7.159 4.704,7.265 5.086,7.288C5.273,7.3 5.709,7.413 6.073,7.563C6.452,7.72 6.851,7.911 7.095,8.054C7.555,8.324 7.493,8.7 7.493,8.7L7.698,8.838L8.024,8.855C8.024,8.855 8.071,8.642 9.095,8.739C10.119,8.835 10.53,9.019 10.925,9.134C11.514,9.306 11.647,9.571 11.647,9.571C11.647,9.571 11.872,9.564 12.052,9.614C12.58,9.76 13.375,9.992 13.58,10.064C13.909,10.18 14.176,10.345 14.178,10.421C14.18,10.496 14.144,10.537 14.096,10.613C14.048,10.689 13.866,10.836 13.866,10.836L13.796,10.856L13.783,10.726C13.783,10.726 14.026,10.549 13.942,10.462C13.857,10.376 13.796,10.312 13.796,10.312C13.796,10.312 13.552,10.172 12.842,9.975C12.199,9.797 11.655,9.712 11.655,9.712C11.655,9.712 11.699,10.338 11.286,10.579C10.873,10.819 10.316,10.849 9.731,10.848C9.146,10.847 8.756,10.742 8.31,10.351C7.864,9.96 7.908,9.649 7.901,9.438C7.895,9.228 7.89,9.078 7.89,9.078L7.704,8.988L7.501,8.908L7.381,8.949Z"/><path d="M4.511,8.88C4.719,9.035 5,9.169 5.443,9.248C6.039,9.354 6.76,9.239 6.887,9.179C7.015,9.119 7.258,8.939 7.289,8.792C7.32,8.644 7.375,8.468 7.064,8.237C6.711,7.975 5.999,7.71 5.606,7.566C5.433,7.503 5.297,7.463 5.17,7.437C5.034,7.716 4.886,8.029 4.724,8.383C4.651,8.545 4.58,8.711 4.511,8.88Z" style="fill:rgb(254,254,254);"/><path d="M4.73,7.399C4.71,7.399 4.69,7.399 4.669,7.4C4.325,7.403 4.213,7.547 4.117,7.739C4.021,7.93 4.047,8.288 4.085,8.426C4.115,8.538 4.098,8.511 4.211,8.615C4.373,8.181 4.549,7.774 4.73,7.399Z" style="fill:rgb(254,254,254);"/><path d="M6.228,8.642C6.142,8.957 6.219,9.372 6.396,9.329C6.486,9.307 6.574,9.168 6.639,9.067C6.701,8.972 6.751,8.931 6.779,8.776C6.825,8.528 6.829,8.287 6.655,8.255C6.481,8.223 6.328,8.276 6.228,8.642Z"/><path d="M6.404,8.637C6.344,8.793 6.33,9.042 6.396,9.08C6.461,9.119 6.537,9.048 6.603,8.909C6.638,8.837 6.642,8.73 6.646,8.621C6.65,8.534 6.662,8.413 6.571,8.424C6.473,8.437 6.46,8.491 6.404,8.637Z" style="fill:rgb(240,240,241);"/><path d="M8.057,9.304C8.016,9.894 8.226,10.343 9.091,10.629C9.956,10.914 10.827,10.67 11.093,10.506C11.359,10.343 11.459,10.21 11.456,10.006C11.454,9.803 11.395,9.566 11.061,9.373C10.726,9.181 10.015,9.053 9.612,8.977C9.21,8.901 8.872,8.859 8.557,8.85C8.215,8.84 8.075,9.041 8.057,9.304Z" style="fill:rgb(254,254,254);"/><path d="M9.161,9.996C9.337,10.1 9.576,9.999 9.741,9.72C9.906,9.44 10.044,9.038 9.683,8.98C9.564,8.961 9.322,9.132 9.211,9.385C9.1,9.638 9,9.902 9.161,9.996Z" style="fill:rgb(12,12,12);"/><path d="M9.373,9.708C9.457,9.762 9.569,9.609 9.602,9.516C9.636,9.424 9.699,9.291 9.598,9.272C9.523,9.258 9.482,9.293 9.418,9.394C9.354,9.495 9.324,9.676 9.373,9.708Z" style="fill:rgb(240,240,241);"/><path d="M6.275,5.028C6.278,4.397 6.321,4.084 6.784,3.236C7.514,1.897 8.822,1.556 9.508,1.717C10.193,1.877 10.408,2.597 10.345,3.107C10.282,3.616 10.066,4.111 9.888,4.448C9.81,4.595 9.709,4.758 9.62,4.895C8.317,4.603 6.815,4.572 6.454,4.861C6.424,4.885 6.31,4.996 6.275,5.028Z"/><path d="M6.501,4.829C6.496,4.707 6.494,4.567 6.505,4.444C6.533,4.149 6.673,3.822 6.91,3.464C7.147,3.107 7.23,2.836 7.657,2.508C8.084,2.18 8.45,1.866 8.99,1.868C9.53,1.87 9.993,2.192 10.094,2.462C10.22,2.801 10.128,3.113 10.107,3.336C10.086,3.558 9.894,4.001 9.723,4.219C9.613,4.36 9.432,4.646 9.317,4.832C8.144,4.61 6.896,4.595 6.501,4.829Z" style="fill:rgb(247,247,247);"/><path d="M6.643,4.776C6.643,4.776 6.634,4.605 6.669,4.453C6.705,4.301 6.829,4.099 6.953,3.9C7.079,3.696 7.635,2.933 7.982,2.665C8.329,2.398 8.59,2.152 9.145,2.171C9.7,2.189 9.865,2.517 9.905,2.738C9.945,2.959 9.901,3.183 9.798,3.439C9.738,3.588 9.686,3.756 9.581,3.975C9.476,4.195 9.319,4.404 9.319,4.404L9.07,4.399L9.091,4.169C9.091,4.169 9.332,3.911 9.533,3.563C9.734,3.215 9.851,2.768 9.592,2.516C9.384,2.314 8.874,2.437 8.634,2.53C8.395,2.622 8.091,2.841 7.693,3.248C7.335,3.613 7.179,3.868 7.009,4.134C6.839,4.399 6.796,4.469 6.783,4.589C6.773,4.676 6.778,4.746 6.778,4.746L6.643,4.776Z"/><path d="M6.777,4.73C7.226,4.629 7.994,4.638 8.791,4.747L8.828,4.741C8.828,4.741 8.943,4.597 9.092,4.399L9.07,4.399L9.091,4.169C9.091,4.169 9.332,3.911 9.533,3.563C9.734,3.215 9.851,2.768 9.592,2.516C9.384,2.314 8.874,2.437 8.634,2.53C8.395,2.622 8.091,2.841 7.693,3.248C7.335,3.613 7.179,3.868 7.009,4.134C6.839,4.399 6.796,4.469 6.783,4.589C6.776,4.651 6.776,4.704 6.777,4.73Z" style="fill:rgb(255,242,242);"/></g></svg>