<svg width="100%" height="100%" viewBox="0 0 18 16" version="1.1" xmlns="http://www.w3.org/2000/svg" xmlns:xlink="http://www.w3.org/1999/xlink" xml:space="preserve" style="fill-rule:evenodd;clip-rule:evenodd;stroke-linejoin:round;stroke-miterlimit:2;"><g id="ejs" transform="matrix(1.27199,0,0,1.27199,-2.93266,-2.00985)"><g transform="matrix(0.844196,0,0,0.918146,2.36212,0.831867)"><path d="M15.532,3.683L15.532,11.647C15.532,13.112 14.238,14.301 12.645,14.301L3.984,14.301C2.391,14.301 1.097,13.112 1.097,11.647L1.097,3.683C1.097,2.218 2.391,1.029 3.984,1.029L12.645,1.029C14.238,1.029 15.532,2.218 15.532,3.683Z" style="fill:white;"/></g><path d="M4.271,5.812L4.271,9.921L7.442,9.921L7.442,9.158L5.202,9.158L5.202,8.179L7.125,8.179L7.125,7.464L5.202,7.464L5.202,6.525L7.352,6.525L7.352,5.812L4.271,5.812Z" style="fill:rgb(180,202,101);"/><path d="M14.326,6.101C14.326,6.101 13.842,5.768 12.911,5.768C11.833,5.768 11.184,6.208 11.184,6.991C11.185,7.519 11.38,7.928 12.384,8.179C13.298,8.406 13.587,8.454 13.592,8.804C13.597,9.08 13.262,9.25 12.801,9.248C11.905,9.244 11.446,8.804 11.446,8.804L11.116,9.506C11.116,9.506 11.611,9.976 12.804,9.971C13.888,9.966 14.494,9.406 14.491,8.804C14.488,8.085 14.103,7.693 12.957,7.464C12.452,7.363 12.099,7.286 12.1,6.967C12.101,6.602 12.441,6.477 12.928,6.479C13.57,6.481 14.031,6.787 14.031,6.787L14.326,6.101Z" style="fill:rgb(180,202,101);"/><path d="M8.108,5.812L8.108,6.525L9.531,6.525L9.531,8.677C9.531,8.677 9.519,9.196 8.962,9.204C8.467,9.211 8.188,8.804 8.188,8.804L7.679,9.391C7.679,9.391 8.046,9.974 9,9.971C10.152,9.967 10.48,9.247 10.478,8.629C10.476,8.012 10.478,5.812 10.478,5.812L8.108,5.812Z" style="fill:rgb(180,202,101);"/></g></svg>