<svg width="100%" height="100%" viewBox="0 0 18 16" version="1.1" xmlns="http://www.w3.org/2000/svg" xmlns:xlink="http://www.w3.org/1999/xlink" xml:space="preserve" style="fill-rule:evenodd;clip-rule:evenodd;stroke-linejoin:round;stroke-miterlimit:2;"><g id="eleventy"><g transform="matrix(1.17977,0,0,1.1022,-0.597001,-0.685866)"><rect x="1.777" y="1.076" width="12.714" height="13.609"/></g><g transform="matrix(0.389959,0,0,0.389959,2.76074,1.7606)"><path d="M10.611,24.027C10.389,24.027 10.278,23.731 10.278,23.138L10.278,8.478C10.278,8.194 10.222,8.061 10.106,8.079C9.406,8.256 9.054,8.345 9.044,8.345C8.85,8.362 8.754,8.167 8.754,7.761L8.754,6.487C8.754,6.135 8.86,5.936 9.071,5.891L12.574,4.99C12.601,4.982 12.641,4.977 12.693,4.977C12.887,4.977 12.983,5.184 12.983,5.6L12.983,23.139C12.983,23.733 12.867,24.029 12.638,24.029L10.611,24.027ZM19.684,24.054C19.329,24.054 19.023,24.029 18.762,23.98C18.501,23.931 18.23,23.82 17.947,23.648C17.664,23.475 17.432,23.239 17.25,22.938C17.068,22.638 16.92,22.216 16.806,21.677C16.693,21.137 16.634,20.497 16.634,19.753L16.634,12.949C16.634,12.772 16.585,12.683 16.489,12.683L15.666,12.683C15.444,12.683 15.333,12.471 15.333,12.048L15.333,11.331C15.333,10.897 15.444,10.68 15.666,10.68L16.489,10.68C16.585,10.68 16.634,10.562 16.634,10.323L16.873,5.163C16.9,4.694 17.013,4.46 17.218,4.46L18.546,4.46C18.767,4.46 18.878,4.694 18.878,5.163L18.878,10.323C18.878,10.562 18.93,10.68 19.038,10.68L20.731,10.68C20.952,10.68 21.063,10.897 21.063,11.331L21.063,12.048C21.063,12.471 20.952,12.683 20.731,12.683L19.033,12.683C18.972,12.683 18.93,12.698 18.908,12.73C18.885,12.76 18.876,12.834 18.876,12.949L18.876,19.795C18.876,20.307 18.908,20.736 18.974,21.076C19.041,21.416 19.137,21.667 19.265,21.825C19.393,21.982 19.521,22.091 19.649,22.143C19.777,22.197 19.935,22.221 20.12,22.221L21.061,22.221C21.3,22.221 21.418,22.386 21.418,22.712L21.418,23.507C21.418,23.869 21.29,24.052 21.034,24.052L19.684,24.054ZM24.775,25.645C24.977,25.645 25.155,25.48 25.305,25.148C25.455,24.815 25.532,24.345 25.532,23.734C25.532,23.591 25.443,23.101 25.266,22.261L22.664,11.449C22.647,11.326 22.637,11.227 22.637,11.156C22.637,10.838 22.704,10.678 22.837,10.678L24.443,10.678C24.566,10.678 24.667,10.72 24.748,10.803C24.83,10.887 24.891,11.057 24.933,11.313L26.658,20.44C26.692,20.546 26.714,20.6 26.724,20.6C26.759,20.6 26.778,20.551 26.778,20.455L28.131,11.353C28.165,11.087 28.222,10.909 28.296,10.816C28.37,10.722 28.466,10.675 28.581,10.675L29.695,10.675C29.845,10.675 29.922,10.848 29.922,11.193C29.922,11.271 29.912,11.375 29.894,11.498L27.532,23.798C27.347,24.815 27.143,25.594 26.921,26.133C26.699,26.673 26.453,27.04 26.177,27.234C25.904,27.429 25.542,27.53 25.088,27.54L24.955,27.54C24.238,27.54 23.753,27.35 23.497,26.968C23.426,26.89 23.391,26.685 23.391,26.357C23.391,25.702 23.497,25.375 23.709,25.375C23.726,25.375 23.886,25.419 24.187,25.508C24.492,25.601 24.687,25.646 24.775,25.646L24.775,25.645ZM3.935,24.052C3.714,24.052 3.603,23.756 3.603,23.162L3.603,8.502C3.603,8.219 3.546,8.086 3.43,8.103C2.731,8.281 2.379,8.369 2.369,8.369C2.174,8.386 2.078,8.192 2.078,7.785L2.078,6.512C2.078,6.16 2.184,5.96 2.396,5.916L5.901,5.012C5.928,5.004 5.968,4.999 6.019,4.999C6.214,4.999 6.31,5.206 6.31,5.623L6.31,23.162C6.31,23.755 6.194,24.051 5.965,24.051L3.935,24.051L3.935,24.052Z" style="fill:white;fill-rule:nonzero;"/></g></g></svg>