<svg width="100%" height="100%" viewBox="0 0 18 16" version="1.1" xmlns="http://www.w3.org/2000/svg" xmlns:xlink="http://www.w3.org/1999/xlink" xml:space="preserve" style="fill-rule:evenodd;clip-rule:evenodd;stroke-linejoin:round;stroke-miterlimit:2;"><g transform="matrix(0.234375,0,0,0.234375,9,8)"><g id="elixir" transform="matrix(1,0,0,1,-32,-32)"><clipPath id="_clip-1o860ir"><rect x="0" y="0" width="64" height="64"/></clipPath><g clip-path="url(#_clip-1o860ir)"><g><path d="M34.034,0.161C29.384,1.809 24.895,6.62 20.568,14.592C14.077,26.552 5.694,43.546 17.238,57.001C22.578,63.226 31.396,66.9 42.969,61.081C52.265,56.407 54.851,42.993 51.513,36.689C44.628,23.686 37.643,20.479 35.773,12.415C34.526,7.039 33.946,2.955 34.034,0.161Z" style="fill:url(#_Linear-f1isscf);"/><path d="M34.034,-0C29.36,1.665 24.872,6.476 20.568,14.431C14.113,26.365 5.694,43.385 17.238,56.84C22.578,63.065 31.283,65.076 36.113,61.385C39.262,58.978 41.403,56.684 42.637,51.85C44.011,46.468 42.957,39.221 42.234,35.893C41.32,31.68 41.021,27.057 41.337,22.023C41.226,21.887 41.143,21.786 41.088,21.719C38.573,18.641 36.633,15.961 35.773,12.254C34.526,6.878 33.946,2.794 34.034,-0Z" style="fill:url(#_Linear-euu3ej3);"/><path d="M30.164,2.094C25.811,5.534 22.575,11.304 20.455,19.405C17.275,31.555 16.93,42.76 18.052,49.278C20.226,61.912 31.498,66.708 43.059,60.827C50.174,57.208 53.138,49.44 52.981,41.007C52.818,32.276 35.946,22.381 32.958,15.095C30.966,10.237 30.035,5.903 30.164,2.094Z" style="fill:url(#_Linear-eg4k8bz);"/><path d="M41.199,24.874C46.42,31.569 47.558,36.23 44.613,38.856C40.197,42.795 29.396,45.365 22.677,40.6C18.197,37.423 16.502,30.609 17.592,20.156C15.743,24.018 14.179,27.93 12.902,31.892C11.624,35.854 11.251,40 11.782,44.331C13.384,47.571 17.277,49.734 23.463,50.822C32.741,52.454 41.523,51.647 47.415,48.677C51.344,46.697 53.202,44.725 52.99,42.763C53.131,39.865 52.238,37.107 50.309,34.487C48.38,31.868 45.343,28.664 41.199,24.874Z" style="fill:url(#_Linear-mobfsk4);"/><path d="M20.799,18.189C20.756,23.024 21.999,27.62 24.529,31.978C28.324,38.515 32.754,44.973 39.383,50.327C43.803,53.896 47.334,55.049 49.977,53.786C47.806,57.672 45.498,59.576 43.052,59.498C39.383,59.382 34.91,57.778 27.742,49.165C22.964,43.423 19.695,37.991 17.936,32.87C18.215,30.838 18.511,28.815 18.823,26.799C19.136,24.784 19.795,21.914 20.799,18.189Z" style="fill:url(#_Linear-hejid6d);"/><path d="M32.011,24.824C32.417,28.763 33.949,35.064 32.011,39.259C30.073,43.454 21.121,51.032 23.592,57.708C26.063,64.384 32.085,62.886 35.863,59.809C39.641,56.732 41.663,51.73 42.111,48.211C42.559,44.693 41.039,37.924 40.544,32.035C40.215,28.11 40.438,24.744 41.215,21.938L40.058,20.482L33.244,18.464C32.152,20.079 31.741,22.199 32.011,24.824Z" style="fill:url(#_Linear-u5oodzy);"/><path d="M34.443,5.315C32.238,6.247 30.149,8.093 28.175,10.854C25.215,14.995 23.707,17.478 24.823,25.687C25.567,31.16 26.1,36.195 26.421,40.792L35.964,13.065C35.613,11.652 35.321,10.376 35.089,9.237C34.856,8.098 34.641,6.791 34.443,5.315Z" style="fill:url(#_Linear-1x13srd);"/><path d="M35.946,13.01C33.523,14.424 31.646,17.321 30.314,21.701C28.983,26.08 27.764,32.203 26.659,40.069C28.133,35.066 29.111,31.443 29.592,29.198C30.314,25.832 30.561,21.071 32.479,17.839C33.757,15.684 34.913,14.075 35.946,13.01Z" style="fill:rgb(51,10,76);fill-opacity:0.31;"/><path d="M24.729,59.938C28.715,60.508 30.8,61.014 30.983,61.457C31.257,62.122 30.478,62.73 28.265,62.321C26.79,62.049 25.611,61.254 24.729,59.938Z" style="fill:white;"/><path d="M26.732,5.315C24.539,7.934 22.639,10.712 21.031,13.646C19.424,16.581 18.275,18.771 17.586,20.215C17.372,21.292 17.268,22.881 17.273,24.982C17.278,27.084 17.46,29.421 17.818,31.992C18.132,26.956 19.093,22.068 20.7,17.328C22.308,12.587 24.318,8.583 26.732,5.315Z" style="fill:rgb(237,237,237);fill-opacity:0.6;"/></g></g></g><g id="elixir1"></g></g><defs><linearGradient id="_Linear-f1isscf" x1="0" y1="0" x2="1" y2="0" gradientUnits="userSpaceOnUse" gradientTransform="matrix(-0.934786,59.1219,-59.1219,-0.934786,33.138,4.87812)"><stop offset="0" style="stop-color:rgb(217,216,220);stop-opacity:1"/><stop offset="1" style="stop-color:white;stop-opacity:0.38"/></linearGradient><linearGradient id="_Linear-euu3ej3" x1="0" y1="0" x2="1" y2="0" gradientUnits="userSpaceOnUse" gradientTransform="matrix(-6.73434,58.3678,-58.3678,-6.73434,34.1416,4.86323)"><stop offset="0" style="stop-color:rgb(141,103,175);stop-opacity:0.67"/><stop offset="1" style="stop-color:rgb(159,141,175);stop-opacity:1"/></linearGradient><linearGradient id="_Linear-eg4k8bz" x1="0" y1="0" x2="1" y2="0" gradientUnits="userSpaceOnUse" gradientTransform="matrix(2.50407e-15,40.8946,-40.8946,2.50407e-15,36.7317,21.3398)"><stop offset="0" style="stop-color:rgb(38,5,61);stop-opacity:0.76"/><stop offset="1" style="stop-color:rgb(183,180,180);stop-opacity:0.27"/></linearGradient><linearGradient id="_Linear-mobfsk4" x1="0" y1="0" x2="1" y2="0" gradientUnits="userSpaceOnUse" gradientTransform="matrix(16.5281,25.2686,-25.2686,16.5281,15.749,24.1052)"><stop offset="0" style="stop-color:rgb(145,115,159);stop-opacity:0.46"/><stop offset="1" style="stop-color:rgb(50,5,79);stop-opacity:0.54"/></linearGradient><linearGradient id="_Linear-hejid6d" x1="0" y1="0" x2="1" y2="0" gradientUnits="userSpaceOnUse" gradientTransform="matrix(-22.5493,-31.0592,31.0592,-22.5493,43.5763,58.0173)"><stop offset="0" style="stop-color:rgb(70,61,73);stop-opacity:0.33"/><stop offset="1" style="stop-color:rgb(52,10,80);stop-opacity:0.82"/></linearGradient><linearGradient id="_Linear-u5oodzy" x1="0" y1="0" x2="1" y2="0" gradientUnits="userSpaceOnUse" gradientTransform="matrix(-5.01352,40.6942,-40.6942,-5.01352,37.6919,21.7252)"><stop offset="0" style="stop-color:rgb(113,83,131);stop-opacity:0.15"/><stop offset="1" style="stop-color:rgb(244,244,244);stop-opacity:0.23"/></linearGradient><linearGradient id="_Linear-1x13srd" x1="0" y1="0" x2="1" y2="0" gradientUnits="userSpaceOnUse" gradientTransform="matrix(-13.8617,-8.04093,8.04093,-13.8617,39.6229,31.0943)"><stop offset="0" style="stop-color:rgb(165,161,168);stop-opacity:0.35"/><stop offset="1" style="stop-color:rgb(55,12,80);stop-opacity:0.58"/></linearGradient></defs></svg>