<svg width="100%" height="100%" viewBox="0 0 18 16" version="1.1" xmlns="http://www.w3.org/2000/svg" xmlns:xlink="http://www.w3.org/1999/xlink" xml:space="preserve" style="fill-rule:evenodd;clip-rule:evenodd;stroke-linejoin:round;stroke-miterlimit:2;"><g transform="matrix(0.140625,0,0,0.140625,9,8)"><g id="erlang" transform="matrix(1,0,0,1,-64,-40.5)"><g transform="matrix(1.76483,0,0,2.08766,0.543315,-0.23518)"><rect x="-0.308" y="0.113" width="72.528" height="38.799" style="fill:rgb(235,235,235);"/></g><g transform="matrix(1,0,0,1,0,-23.5)"><path d="M20.7,103.9C11,93.5 5.2,79.2 5.3,62.1C5.2,47 10,34 18.2,24.1L1,24.1L1,103.8L20.7,103.9ZM111.1,103.9C115.3,99.4 119.1,94.1 122.5,88L103.5,78.5C96.8,89.3 87.1,99.3 73.6,99.4C54,99.3 46.3,82.5 46.3,60.9L119.6,60.9C119.7,58.5 119.7,57.3 119.6,56.2C120.1,43.3 116.7,32.5 110.5,24.1L127,24.1L127,103.8L111.1,103.9ZM47.5,42.4C48.3,32.6 56,26.1 65.1,26C74.2,26 80.8,32.6 81,42.4L47.5,42.4Z" style="fill:rgb(169,5,51);fill-rule:nonzero;"/></g></g><g id="erlang1"></g></g></svg>