<svg width="100%" height="100%" viewBox="0 0 18 16" version="1.1" xmlns="http://www.w3.org/2000/svg" xmlns:xlink="http://www.w3.org/1999/xlink" xml:space="preserve" style="fill-rule:evenodd;clip-rule:evenodd;stroke-miterlimit:1;"><g id="erlang-mk-light" transform="matrix(1.18203,0,0,1.18203,-1.64839,-1.43458)"><path d="M5.902,13.881C5.902,13.881 5.173,13.781 4.434,12.98C3.487,11.953 3.65,11.417 3.65,11.417L6.68,10.547L7.043,10.915L5.902,13.881ZM6.497,11.041L4.305,11.705C4.305,11.705 4.276,12.051 4.832,12.593C5.431,13.177 5.673,13.184 5.673,13.184L6.497,11.041Z" style="fill:white;"/><g transform="matrix(1.26867,-1.18701,0.511066,0.546224,-8.37268,14.3588)"><rect x="7.834" y="10.094" width="3.26" height="0.544" style="fill:white;stroke:white;stroke-width:0.04px;"/></g><path d="M5.898,13.912C5.898,13.912 5.159,13.812 4.411,13.001C3.448,11.956 3.62,11.408 3.62,11.408L3.642,11.387L6.672,10.517L6.703,10.525L7.065,10.893L7.072,10.926L5.931,13.893L5.898,13.912ZM5.882,13.846C5.882,13.846 7.007,10.923 7.007,10.923L6.671,10.582C6.671,10.582 3.677,11.442 3.677,11.442C3.66,11.537 3.621,12.052 4.457,12.959C5.108,13.665 5.751,13.821 5.882,13.846Z" style="fill:white;"/><path d="M6.497,11.041L5.673,13.184C5.673,13.184 5.431,13.177 4.832,12.593C4.276,12.051 4.305,11.705 4.305,11.705L6.497,11.041ZM6.265,11.25L4.521,11.875C4.521,11.875 4.609,12.156 4.924,12.439C5.275,12.754 5.548,12.889 5.548,12.889L6.265,11.25Z" style="fill:white;"/><path d="M15.243,2.979C15.243,2.979 14.755,2.701 13.772,2.78C12.789,2.859 12.486,3.081 12.074,3.458C11.661,3.834 10.92,4.511 10.92,4.511C10.92,4.511 11.404,4.625 11.581,4.815C11.839,5.091 11.888,5.479 11.888,5.479L12.429,6.02C12.429,6.02 12.853,6.183 13.005,6.343C13.332,6.686 13.389,7.112 13.389,7.112C13.389,7.112 14.065,6.516 14.561,6.022C15.058,5.527 15.392,4.953 15.368,4.009C15.349,3.22 15.243,2.979 15.243,2.979Z" style="fill:white;"/><path d="M15.251,2.979C15.257,2.963 15.264,2.949 15.272,2.966C15.272,2.967 15.273,2.97 15.275,2.975C15.293,3.022 15.382,3.291 15.4,4.009C15.423,4.963 15.085,5.544 14.584,6.044C14.107,6.519 13.463,7.088 13.413,7.133C13.411,7.134 13.41,7.135 13.409,7.135C13.402,7.14 13.392,7.142 13.389,7.144C13.389,7.144 13.362,7.144 13.358,7.116C13.358,7.116 13.357,7.112 13.356,7.105C13.344,7.035 13.271,6.667 12.982,6.364C12.849,6.224 12.498,6.081 12.43,6.054C12.423,6.051 12.418,6.049 12.418,6.049L12.429,6.051L12.407,6.042L11.866,5.502C11.862,5.498 11.859,5.492 11.857,5.483C11.857,5.483 11.857,5.479 11.856,5.473C11.846,5.409 11.784,5.079 11.558,4.837C11.455,4.726 11.244,4.643 11.092,4.593C11.008,4.566 10.941,4.548 10.92,4.543C10.919,4.54 10.916,4.533 10.913,4.524L10.899,4.488L12.053,3.434C12.47,3.054 12.775,2.828 13.77,2.749C14.765,2.669 15.259,2.952 15.259,2.952L15.251,2.979ZM10.984,4.495C11.119,4.533 11.46,4.64 11.604,4.794C11.842,5.049 11.907,5.397 11.917,5.464L12.447,5.993C12.448,5.994 12.45,5.995 12.453,5.996C12.524,6.024 12.888,6.175 13.028,6.321C13.29,6.597 13.382,6.924 13.41,7.052C13.564,6.915 14.117,6.42 14.539,5.999C15.03,5.511 15.36,4.943 15.337,4.01C15.32,3.324 15.238,3.056 15.218,3.001C15.146,2.964 14.667,2.739 13.775,2.811C12.802,2.889 12.503,3.108 12.095,3.481L10.984,4.495Z" style="fill:white;"/><path d="M11.017,4.537C11.168,4.581 11.454,4.679 11.581,4.815C11.839,5.091 11.888,5.479 11.888,5.479L12.429,6.02C12.429,6.02 12.853,6.183 13.005,6.343C13.237,6.586 13.333,6.871 13.369,7.016L13.466,4.55L11.017,4.537Z" style="fill:white;"/><path d="M13.213,4.947L13.785,6.756C13.556,6.965 13.389,7.112 13.389,7.112C13.389,7.112 13.332,6.686 13.005,6.343C12.951,6.286 12.863,6.229 12.772,6.179L13.213,4.947Z" style="fill:white;"/><g transform="matrix(1,0,0,1.0474,0,-0.305617)"><path d="M12.772,6.191C12.606,6.104 12.429,6.04 12.429,6.04L11.888,5.523C11.888,5.523 11.883,5.484 11.867,5.423L13.291,4.808L12.772,6.191Z" style="fill:white;"/></g><path d="M15.221,2.967C15.116,2.916 14.634,2.711 13.772,2.78C12.789,2.859 12.486,3.081 12.074,3.458L10.92,4.511C10.92,4.511 11.049,4.541 11.198,4.597C11.607,4.226 12.382,3.533 12.703,3.306C13.148,2.991 13.826,2.945 14.1,2.95L15.221,2.967Z" style="fill:white;"/><path d="M13.494,4.546C13.494,4.546 13.621,4.372 14.01,4.014C14.398,3.656 14.67,3.519 14.67,3.519C14.67,3.519 14.288,3.928 14.072,4.114C13.855,4.3 13.494,4.546 13.494,4.546Z" style="fill:white;"/><path d="M10.84,6.543L10.861,6.704L11.175,7.018L11.303,7.02L12.688,5.703L13.226,4.829L12.241,5.282L10.84,6.543Z" style="fill:white;stroke:white;stroke-width:0.05px;"/><g transform="matrix(1.21243,0,0,1.18938,-2.44427,-1.25725)"><ellipse cx="11.403" cy="6.528" rx="0.103" ry="0.11" style="fill:white;stroke:white;stroke-width:0.04px;"/></g><g transform="matrix(1.21243,0,0,1.18938,-1.73358,-1.9005)"><ellipse cx="11.403" cy="6.528" rx="0.103" ry="0.11" style="fill:white;stroke:white;stroke-width:0.04px;"/></g><g transform="matrix(0.297683,-0.267208,4.07424,4.53889,-41.3658,-40.4663)"><rect x="11.351" y="11.097" width="1.441" height="1.427" style="fill:white;stroke:white;stroke-width:0.01px;"/></g><g transform="matrix(0.350748,-0.316951,1.03573,1.14617,-4.33198,2.19942)"><rect x="11.351" y="11.097" width="1.441" height="1.427" style="fill:white;stroke:white;stroke-width:0.05px;"/></g><path d="M7.027,6.824L7.23,6.869L7.655,6.485L7.637,6.251L6.595,5.095L5.97,5.68L7.027,6.824Z" style="fill:white;"/><path d="M7.637,6.282C7.637,6.282 7.666,6.218 7.669,6.248L7.686,6.477C7.687,6.496 7.675,6.507 7.666,6.512L7.676,6.508L7.251,6.892L7.23,6.901C7.23,6.901 7.061,6.863 7.027,6.856L7.004,6.845L5.947,5.701L5.949,5.657L6.573,5.072L6.618,5.074L7.661,6.23L7.637,6.282ZM7.044,6.796L7.221,6.835L7.623,6.472L7.607,6.264L6.593,5.139L6.014,5.682L7.044,6.796Z" style="fill:white;"/><path d="M6.673,5.181L6.595,5.095L5.97,5.68L6.194,5.922C6.316,5.789 6.466,5.615 6.521,5.521C6.573,5.429 6.631,5.29 6.673,5.181Z" style="fill:white;"/><g transform="matrix(0.789017,0,0,0.758307,1.41278,1.36878)"><circle cx="6.708" cy="5.822" r="0.099" style="fill:white;stroke:white;stroke-width:0.07px;"/></g><g transform="matrix(0.756494,0,0,0.761453,1.97153,1.80077)"><circle cx="6.708" cy="5.822" r="0.099" style="fill:white;stroke:white;stroke-width:0.07px;"/></g><path d="M2.742,10.161C2.742,10.161 2.947,8.559 3.863,7.457C4.443,6.759 5.426,5.853 6.068,5.284C6.439,4.955 6.696,4.737 6.696,4.737C6.696,4.737 7.512,3.813 8.302,3.392C9.091,2.971 9.594,3.029 9.594,3.029C9.594,3.029 9.726,2.891 9.315,2.309C8.905,1.727 8.573,1.908 8.573,1.908C8.573,1.908 8.304,2.396 7.709,3.018C7.115,3.64 6.21,4.272 6.21,4.272C6.21,4.272 4.733,5.586 4.297,6.139C3.86,6.691 3.267,7.699 3.057,8.341C2.841,9.006 2.742,10.161 2.742,10.161Z" style="fill:white;"/><path d="M9.576,2.771C9.401,2.779 9.159,2.809 8.89,2.896C8.517,3.016 7.513,3.462 6.926,3.727C7.185,3.517 7.472,3.267 7.709,3.018C8.304,2.396 8.573,1.908 8.573,1.908C8.573,1.908 8.905,1.727 9.315,2.309C9.459,2.513 9.536,2.662 9.576,2.771Z" style="fill:white;"/><path d="M8.573,1.939L8.558,1.881C8.558,1.881 8.563,1.878 8.571,1.875C8.631,1.85 8.954,1.743 9.341,2.291C9.637,2.711 9.656,2.909 9.642,2.989C9.636,3.029 9.621,3.046 9.618,3.049C9.607,3.063 9.594,3.061 9.594,3.061L9.59,3.06C9.59,3.06 9.095,3.004 8.316,3.42C7.531,3.839 6.72,4.758 6.72,4.758L6.696,4.769L6.717,4.761L6.709,4.768C6.664,4.806 6.423,5.011 6.089,5.307C5.448,5.876 4.466,6.78 3.887,7.477C2.976,8.572 2.773,10.165 2.773,10.165L2.711,10.158C2.711,10.158 2.81,8.999 3.028,8.332C3.238,7.687 3.834,6.675 4.272,6.119C4.71,5.565 6.189,4.249 6.189,4.249L6.192,4.247C6.192,4.247 7.094,3.617 7.687,2.997C8.278,2.378 8.546,1.893 8.546,1.893L8.573,1.939ZM6.673,4.717C6.674,4.716 6.675,4.715 6.676,4.714C6.73,4.653 7.521,3.773 8.287,3.364C8.992,2.988 9.472,2.991 9.576,2.997C9.583,2.976 9.589,2.935 9.571,2.86C9.545,2.752 9.471,2.584 9.29,2.327C8.937,1.827 8.65,1.909 8.595,1.933C8.555,2.003 8.281,2.465 7.732,3.04C7.15,3.648 6.272,4.267 6.23,4.297C6.181,4.34 4.75,5.616 4.321,6.158C3.886,6.708 3.295,7.712 3.087,8.351C2.982,8.672 2.906,9.109 2.854,9.473C3.006,8.904 3.3,8.085 3.839,7.437C4.42,6.738 5.404,5.831 6.047,5.26C6.382,4.964 6.624,4.758 6.669,4.72L6.673,4.717Z" style="fill:white;"/><path d="M8.848,2.242L9.245,2.641" style="fill:none;stroke:white;stroke-width:0.05px;"/><path d="M8.819,2.047L9.442,2.685" style="fill:none;stroke:white;stroke-width:0.05px;"/><path d="M5.16,5.241L5.532,5.768C5.594,5.711 5.656,5.654 5.716,5.6L5.307,5.102C5.258,5.148 5.209,5.194 5.16,5.241Z" style="fill:white;"/><path d="M6.603,4.817C6.663,4.766 6.696,4.737 6.696,4.737C6.696,4.737 6.707,4.726 6.726,4.705L6.253,4.242C6.225,4.262 6.21,4.272 6.21,4.272C6.21,4.272 6.189,4.291 6.15,4.326L6.603,4.817Z" style="fill:white;"/><path d="M5.221,4.996L5.771,5.667L5.934,5.662L6.595,5.095L6.654,4.872L6.082,4.252C6.082,4.252 5.925,4.137 5.511,4.511C5.113,4.87 5.221,4.996 5.221,4.996Z" style="fill:white;"/><path d="M6.106,4.232C6.107,4.233 6.108,4.235 6.109,4.236L6.676,4.851L6.654,4.904L6.684,4.88L6.626,5.098C6.623,5.109 6.617,5.116 6.611,5.12L6.615,5.118L5.954,5.686L5.934,5.693L5.771,5.698L5.746,5.687C5.746,5.687 5.197,5.016 5.196,5.016C5.194,5.013 5.181,4.996 5.177,4.963C5.17,4.9 5.197,4.752 5.49,4.488C5.883,4.133 6.061,4.205 6.092,4.221C6.097,4.224 6.1,4.226 6.1,4.226C6.103,4.228 6.105,4.23 6.106,4.232ZM5.785,5.635L5.922,5.631L6.567,5.077L6.619,4.881L6.063,4.277C6.05,4.27 6.009,4.257 5.931,4.278C5.843,4.303 5.713,4.371 5.532,4.534C5.359,4.691 5.283,4.801 5.254,4.875C5.23,4.936 5.24,4.967 5.245,4.977C5.246,4.978 5.247,4.979 5.247,4.98L5.785,5.635Z" style="fill:white;"/></g></svg>