<svg width="100%" height="100%" viewBox="0 0 18 16" version="1.1" xmlns="http://www.w3.org/2000/svg" xmlns:xlink="http://www.w3.org/1999/xlink" xml:space="preserve" style="fill-rule:evenodd;clip-rule:evenodd;stroke-linejoin:round;stroke-miterlimit:2;"><g transform="matrix(0.625,0,0,0.625,9,8)"><g id="eslint.svg" transform="matrix(1,0,0,1,-12,-12)"><path d="M12.183,6.521L12.184,6.522L12.185,6.522L12.183,6.521ZM11.815,17.644L11.814,17.643L11.813,17.643L11.815,17.644ZM23.849,11.066L23.851,11.071L23.852,11.071L23.849,11.066Z" style="fill-rule:nonzero;"/><path d="M7.309,9.012L11.862,6.383C11.976,6.317 12.116,6.317 12.23,6.383L16.783,9.012C16.897,9.078 16.967,9.2 16.967,9.331L16.967,14.589C16.967,14.721 16.897,14.842 16.783,14.908L12.23,17.537C12.116,17.603 11.976,17.603 11.862,17.537L7.309,14.908C7.195,14.842 7.125,14.72 7.125,14.589L7.125,9.331C7.125,9.199 7.195,9.078 7.309,9.012Z" style="fill:rgb(128,128,242);fill-rule:nonzero;"/><path d="M23.852,11.529L18.406,2.054C18.208,1.711 17.843,1.459 17.447,1.459L6.554,1.459C6.158,1.459 5.793,1.712 5.595,2.054L0.149,11.508C-0.049,11.854 -0.049,12.28 0.149,12.626L5.595,22.023C5.793,22.366 6.158,22.541 6.554,22.541L17.447,22.541C17.843,22.541 18.208,22.371 18.406,22.028L23.852,12.615C24.049,12.28 24.049,11.864 23.852,11.529ZM19.342,16.085C19.338,16.226 19.26,16.354 19.137,16.423L12.2,20.426C12.079,20.496 11.929,20.496 11.808,20.426L4.865,16.424C4.742,16.355 4.664,16.227 4.66,16.086L4.66,8.08C4.664,7.939 4.741,7.811 4.864,7.742L11.8,3.74C11.921,3.67 12.071,3.67 12.192,3.74L19.135,7.743C19.258,7.811 19.337,7.94 19.341,8.081L19.342,16.085Z" style="fill:rgb(75,50,195);fill-rule:nonzero;"/></g><g id="eslint.svg1"></g></g></svg>