<svg width="100%" height="100%" viewBox="0 0 18 16" version="1.1" xmlns="http://www.w3.org/2000/svg" xmlns:xlink="http://www.w3.org/1999/xlink" xml:space="preserve" style="fill-rule:evenodd;clip-rule:evenodd;stroke-linejoin:round;stroke-miterlimit:2;"><g transform="matrix(0.00704225,0,0,0.00704225,9,8)"><g id="ms-excel" transform="matrix(1,0,0,1,-1144.88,-1065)"><path d="M1437.75,1011.75L532.5,852L532.5,2032.39C532.5,2086.3 576.2,2130 630.107,2130L2192.14,2130C2246.05,2130 2289.75,2086.3 2289.75,2032.39L2289.75,1597.5L1437.75,1011.75Z" style="fill:rgb(24,92,55);fill-rule:nonzero;"/><path d="M1437.75,0L630.107,0C576.2,0 532.5,43.7 532.5,97.607L532.5,532.5L1437.75,1065L1917,1224.75L2289.75,1065L2289.75,532.5L1437.75,0Z" style="fill:rgb(33,163,102);fill-rule:nonzero;"/><rect x="532.5" y="532.5" width="905.25" height="532.5" style="fill:rgb(16,124,65);fill-rule:nonzero;"/><path d="M1180.39,426L532.5,426L532.5,1757.25L1180.39,1757.25C1234.23,1757.08 1277.83,1713.48 1278,1659.64L1278,523.607C1277.83,469.773 1234.23,426.175 1180.39,426Z" style="fill-opacity:0.1;fill-rule:nonzero;"/><path d="M1127.14,479.25L532.5,479.25L532.5,1810.5L1127.14,1810.5C1180.98,1810.33 1224.58,1766.73 1224.75,1712.89L1224.75,576.857C1224.58,523.023 1180.98,479.425 1127.14,479.25Z" style="fill-opacity:0.2;fill-rule:nonzero;"/><path d="M1127.14,479.25L532.5,479.25L532.5,1704L1127.14,1704C1180.98,1703.83 1224.58,1660.23 1224.75,1606.39L1224.75,576.857C1224.58,523.023 1180.98,479.425 1127.14,479.25Z" style="fill-opacity:0.2;fill-rule:nonzero;"/><path d="M1073.89,479.25L532.5,479.25L532.5,1704L1073.89,1704C1127.73,1703.83 1171.33,1660.23 1171.5,1606.39L1171.5,576.857C1171.33,523.023 1127.73,479.425 1073.89,479.25Z" style="fill-opacity:0.2;fill-rule:nonzero;"/><path d="M97.607,479.25L1073.89,479.25C1127.8,479.25 1171.5,522.95 1171.5,576.857L1171.5,1553.14C1171.5,1607.05 1127.8,1650.75 1073.89,1650.75L97.607,1650.75C43.7,1650.75 0,1607.05 0,1553.14L0,576.857C0,522.95 43.7,479.25 97.607,479.25Z" style="fill:url(#_Linear-ohxmakr);fill-rule:nonzero;"/><path d="M302.3,1382.26L507.632,1064.1L319.5,747.683L470.836,747.683L573.502,950.033C582.981,969.256 589.477,983.527 592.992,992.952L594.323,992.952C601.068,977.616 608.168,962.724 615.623,948.275L725.371,747.79L864.3,747.79L671.375,1062.34L869.2,1382.26L721.378,1382.26L602.79,1160.16C597.204,1150.71 592.464,1140.78 588.626,1130.5L586.869,1130.5C583.395,1140.57 578.786,1150.22 573.13,1159.25L451.028,1382.26L302.3,1382.26Z" style="fill:white;fill-rule:nonzero;"/><path d="M2192.14,0L1437.75,0L1437.75,532.5L2289.75,532.5L2289.75,97.607C2289.75,43.7 2246.05,0 2192.14,0Z" style="fill:rgb(51,196,129);fill-rule:nonzero;"/><rect x="1437.75" y="1065" width="852" height="532.5" style="fill:rgb(16,124,65);fill-rule:nonzero;"/></g><g id="ms-excel1"></g></g><defs><linearGradient id="_Linear-ohxmakr" x1="0" y1="0" x2="1" y2="0" gradientUnits="userSpaceOnUse" gradientTransform="matrix(764.474,1324.04,-1324.04,764.474,203.513,402.982)"><stop offset="0" style="stop-color:rgb(24,136,79);stop-opacity:1"/><stop offset="0.5" style="stop-color:rgb(17,126,67);stop-opacity:1"/><stop offset="1" style="stop-color:rgb(11,102,49);stop-opacity:1"/></linearGradient></defs></svg>