<svg width="100%" height="100%" viewBox="0 0 18 16" version="1.1" xmlns="http://www.w3.org/2000/svg" xmlns:xlink="http://www.w3.org/1999/xlink" xml:space="preserve" style="fill-rule:evenodd;clip-rule:evenodd;stroke-linejoin:round;stroke-miterlimit:2;"><g id="fantomas" transform="matrix(0.013885,0,0,0.013885,1.50417,0.501699)"><g><path d="M517.4,744.6L488.2,1049.8C486.6,1066.6 503.7,1078.9 519.1,1072L597.6,1036.7C619.7,1026.8 633.9,1004.9 633.9,980.7L633.9,964.3C633.9,941.4 649.7,921.5 672,916.2L830.9,878.7C866.4,871.9 873.7,843.5 881.3,821.9L896.4,764.7L633.9,817.9L633.9,792.8C633.9,775.4 646.3,760.4 663.4,757.1L911,709.6L944.5,582.7L613.1,641C561.5,650.1 522.4,692.4 517.4,744.6Z" style="fill:rgb(48,185,219);fill-rule:nonzero;"/></g><path d="M414.3,817.9L414.3,793.9C414.3,776.5 402,761.5 384.9,758.1L137.3,709.5L146.6,744.7C149.8,756.9 159.7,766.2 172,768.7L414.3,817.9Z" style="fill:rgb(48,185,219);fill-rule:nonzero;"/><path d="M-0.3,447.3L532.2,529.4L532.2,6.1L911,120C923.8,123.9 931.6,136.8 929,150L865.7,466.5C864.1,474.5 870.9,481.7 879,480.5L1080,451.3L1080,504.7L541.1,590.8L-0.3,504.7L-0.3,447.3Z" style="fill:rgb(55,139,186);fill-rule:nonzero;"/></g></svg>