<svg width="100%" height="100%" viewBox="0 0 18 16" version="1.1" xmlns="http://www.w3.org/2000/svg" xmlns:xlink="http://www.w3.org/1999/xlink" xml:space="preserve" style="fill-rule:evenodd;clip-rule:evenodd;stroke-linejoin:round;stroke-miterlimit:2;"><g id="fastapi"><g transform="matrix(1.0229,0,0,1.0229,-0.364801,-0.341901)"><circle cx="9.155" cy="8.155" r="6.843" style="fill:white;"/></g><g id="fastapi1" transform="matrix(1.0052,0,0,1.0052,-0.0468243,-1.02253)"><path d="M9,1.515C9,1.515 9,1.515 9,1.515C4.894,1.515 1.515,4.882 1.515,8.975C1.515,8.975 1.515,8.976 1.515,8.976C1.515,13.069 4.893,16.437 9,16.437C9,16.437 9,16.437 9,16.437C13.107,16.437 16.485,13.069 16.485,8.976C16.485,8.976 16.485,8.975 16.485,8.975C16.485,4.882 13.106,1.515 9,1.515ZM8.483,4.893L13.192,4.893L8.464,8.216L11.697,8.216L4.808,13.058L6.303,9.735L6.987,8.216L8.483,4.893Z" style="fill:rgb(0,204,184);fill-opacity:0.98;fill-rule:nonzero;"/></g></g></svg>