<svg width="100%" height="100%" viewBox="0 0 18 16" version="1.1" xmlns="http://www.w3.org/2000/svg" xmlns:xlink="http://www.w3.org/1999/xlink" xml:space="preserve" style="fill-rule:evenodd;clip-rule:evenodd;stroke-linejoin:round;stroke-miterlimit:2;"><g id="figma" transform="matrix(0.263158,0,0,0.263158,4,0.5)"><path d="M19,28.5C19,23.288 23.288,19 28.5,19C33.712,19 38,23.288 38,28.5C38,33.712 33.712,38 28.5,38C23.288,38 19,33.712 19,28.5" style="fill:rgb(26,188,254);fill-rule:nonzero;"/><path d="M0,47.5C-0,42.288 4.288,38 9.5,38L19,38L19,47.5C19,52.712 14.712,57 9.5,57C4.288,57 0,52.712 0,47.5" style="fill:rgb(10,207,131);fill-rule:nonzero;"/><path d="M19,0L19,19L28.5,19C33.712,19 38,14.712 38,9.5C38,4.288 33.712,0 28.5,0L19,0Z" style="fill:rgb(255,114,98);fill-rule:nonzero;"/><path d="M0,9.5C0,14.712 4.288,19 9.5,19L19,19L19,0L9.5,0C4.288,0 -0,4.288 0,9.5" style="fill:rgb(242,78,30);fill-rule:nonzero;"/><path d="M0,28.5C0,33.712 4.288,38 9.5,38L19,38L19,19L9.5,19C4.288,19 -0,23.288 0,28.5" style="fill:rgb(162,89,255);fill-rule:nonzero;"/></g></svg>