<svg width="100%" height="100%" viewBox="0 0 18 16" version="1.1" xmlns="http://www.w3.org/2000/svg" xmlns:xlink="http://www.w3.org/1999/xlink" xml:space="preserve" style="fill-rule:evenodd;clip-rule:evenodd;stroke-linejoin:round;stroke-miterlimit:2;"><g id="_-file-type-image-1" transform="matrix(0.234375,0,0,0.234375,1.5,0.5)"><path d="M64,4.267C64,1.912 62.088,0 59.733,0L4.267,0C1.912,0 0,1.912 0,4.267L0,59.733C0,62.088 1.912,64 4.267,64L59.733,64C62.088,64 64,62.088 64,59.733L64,4.267Z" style="fill:white;stroke:rgb(114,134,149);stroke-width:0.18px;"/><rect x="6" y="6" width="52" height="46" style="fill:rgb(0,144,224);"/><path d="M6,44L26,24L54,52L6,52L6,44Z" style="fill:rgb(116,216,0);fill-rule:nonzero;"/><path d="M28,52L48,32L58,42L58,52L28,52Z" style="fill:rgb(93,173,0);fill-rule:nonzero;"/><circle cx="14" cy="14" r="4" style="fill:rgb(255,218,0);"/></g></svg>