<?xml version="1.0" encoding="UTF-8" standalone="no"?><!DOCTYPE svg PUBLIC "-//W3C//DTD SVG 1.1//EN" "http://www.w3.org/Graphics/SVG/1.1/DTD/svg11.dtd"><svg width="100%" height="100%" viewBox="0 0 18 16" version="1.1" xmlns="http://www.w3.org/2000/svg" xmlns:xlink="http://www.w3.org/1999/xlink" xml:space="preserve" xmlns:serif="http://www.serif.com/" style="fill-rule:evenodd;clip-rule:evenodd;stroke-linejoin:round;stroke-miterlimit:2;"><g transform="matrix(0.46875,0,0,0.46875,9,8)"><g id="nginx" transform="matrix(1,0,0,1,-16,-16)"><g transform="matrix(1.07155,0,0,1.07155,-1.10906,-1.14309)"><path d="M15.948,2L16.013,2C16.346,2.159 16.671,2.335 16.985,2.528C20.604,4.609 24.224,6.691 27.843,8.774C28.129,8.927 28.294,9.24 28.257,9.562C28.249,13.951 28.257,18.339 28.252,22.726C28.205,22.935 28.077,23.118 27.896,23.233C24.047,25.449 20.198,27.664 16.349,29.877C16.159,30.022 15.898,30.037 15.692,29.914C11.839,27.705 7.989,25.491 4.143,23.274C3.888,23.153 3.73,22.89 3.743,22.608L3.743,9.445C3.724,9.164 3.877,8.899 4.13,8.775C7.745,6.696 11.359,4.616 14.974,2.535C15.296,2.351 15.612,2.156 15.948,2" style="fill:rgb(1,150,57);fill-rule:nonzero;"/></g><g transform="matrix(1.07155,0,0,1.07155,-1.10906,-1.14309)"><path d="M8.767,10.538L8.767,21.397C8.758,21.802 8.912,22.194 9.194,22.484C9.744,23.028 10.607,23.114 11.254,22.69C11.682,22.399 11.939,21.914 11.939,21.397C11.939,18.777 11.934,16.157 11.939,13.537C14.328,16.397 16.721,19.253 19.12,22.105C19.796,22.79 20.778,23.085 21.72,22.887C22.391,22.755 22.901,22.196 22.971,21.516C22.976,17.822 22.976,14.128 22.971,10.435C22.9,9.622 22.211,8.991 21.395,8.991C20.579,8.991 19.89,9.622 19.819,10.435C19.819,13.097 19.803,15.756 19.819,18.417C17.473,15.651 15.156,12.861 12.819,10.085C12.192,9.282 11.177,8.878 10.17,9.033C9.398,9.119 8.799,9.762 8.767,10.538Z" style="fill:white;fill-rule:nonzero;"/></g></g><g id="nginx1" serif:id="nginx"></g></g></svg>