<?xml version="1.0" encoding="UTF-8" standalone="no"?><!DOCTYPE svg PUBLIC "-//W3C//DTD SVG 1.1//EN" "http://www.w3.org/Graphics/SVG/1.1/DTD/svg11.dtd"><svg width="100%" height="100%" viewBox="0 0 18 16" version="1.1" xmlns="http://www.w3.org/2000/svg" xmlns:xlink="http://www.w3.org/1999/xlink" xml:space="preserve" xmlns:serif="http://www.serif.com/" style="fill-rule:evenodd;clip-rule:evenodd;stroke-linejoin:round;stroke-miterlimit:2;"><g transform="matrix(0.46875,0,0,0.46875,9,8)"><g id="sublimetext" transform="matrix(1,0,0,1,-16,-16)"><g transform="matrix(1.07143,0,0,1.07143,-1.14286,-1.24286)"><path d="M2,28.5L2,29.5C2,30.331 2.669,31 3.5,31L28.5,31C29.331,31 30,30.331 30,29.5L30,28.5C30,29.331 29.331,30 28.5,30L3.5,30C2.669,30 2,29.331 2,28.5Z" style="fill-opacity:0.2;fill-rule:nonzero;"/></g><g transform="matrix(0,-1.07143,-1.07143,0,-1.14286,-1.24286)"><path d="M-2,-28.6C-2,-29.373 -2.627,-30 -3.4,-30L-28.6,-30C-29.373,-30 -30,-29.373 -30,-28.6L-30,-3.4C-30,-2.627 -29.373,-2 -28.6,-2L-3.4,-2C-2.627,-2 -2,-2.627 -2,-3.4L-2,-28.6Z" style="fill:rgb(79,79,79);"/></g><g transform="matrix(1.07143,0,0,1.07143,-1.14286,-1.24286)"><path d="M3.5,2C2.669,2 2,2.669 2,3.5L2,4.5C2,3.669 2.669,3 3.5,3L28.5,3C29.331,3 30,3.669 30,4.5L30,3.5C30,2.669 29.331,2 28.5,2L3.5,2Z" style="fill:white;fill-opacity:0.1;fill-rule:nonzero;"/></g><g transform="matrix(1.07143,0,0,1.07143,-1.14286,-1.24286)"><path d="M24,6L8,11L8,17L15.273,19.727L8,22L8,28L24,23L24,17L16.727,14.273L24,12L24,6Z" style="fill-opacity:0.2;fill-rule:nonzero;"/></g><g transform="matrix(1.07143,0,0,1.07143,-1.14286,-1.24286)"><path d="M24,5L8,10L8,16L24,11L24,5Z" style="fill:rgb(255,171,54);fill-rule:nonzero;"/></g><g transform="matrix(1.07143,0,0,1.07143,-1.14286,-1.24286)"><path d="M24,16L8,21L8,27L24,22L24,16Z" style="fill:rgb(255,171,54);fill-rule:nonzero;"/></g><g transform="matrix(1.07143,0,0,1.07143,-1.14286,-1.24286)"><path d="M22.545,16.455L13.818,19.182L22.545,22.455L24,22L24,17L22.545,16.455Z" style="fill-opacity:0.2;fill-rule:nonzero;"/></g><g transform="matrix(1.07143,0,0,1.07143,-1.14286,-1.24286)"><path d="M8,10L24,16L24,22L8,16L8,10Z" style="fill:rgb(255,171,54);fill-rule:nonzero;"/></g></g><g id="sublimetext1" serif:id="sublimetext"></g></g></svg>