<?xml version="1.0" encoding="UTF-8" standalone="no"?><!DOCTYPE svg PUBLIC "-//W3C//DTD SVG 1.1//EN" "http://www.w3.org/Graphics/SVG/1.1/DTD/svg11.dtd"><svg width="100%" height="100%" viewBox="0 0 18 16" version="1.1" xmlns="http://www.w3.org/2000/svg" xmlns:xlink="http://www.w3.org/1999/xlink" xml:space="preserve" xmlns:serif="http://www.serif.com/" style="fill-rule:evenodd;clip-rule:evenodd;stroke-linejoin:round;stroke-miterlimit:2;"><g transform="matrix(0.117188,0,0,0.117188,9,8)"><g id="python" transform="matrix(1,0,0,1,-64,-64)"><g transform="matrix(1.19166,0,0,1.19166,-12.268,-0.368081)"><path d="M63.391,1.988C59.169,2.008 55.139,2.367 51.591,2.995C41.141,4.841 39.245,8.705 39.245,15.832L39.245,25.243L63.938,25.243L63.938,28.38L29.977,28.38C22.801,28.38 16.517,32.693 14.551,40.901C12.283,50.306 12.183,56.176 14.551,65.997C16.306,73.308 20.498,78.516 27.675,78.516L36.166,78.516L36.166,67.234C36.166,59.083 43.217,51.894 51.592,51.894L76.257,51.894C83.123,51.894 88.603,46.24 88.603,39.346L88.603,15.833C88.603,9.14 82.957,4.113 76.257,2.996C72.013,2.29 67.612,1.969 63.391,1.988ZM50.037,9.557C52.587,9.557 54.671,11.674 54.671,14.278C54.671,16.871 52.588,18.968 50.037,18.968C47.477,18.968 45.404,16.871 45.404,14.278C45.403,11.674 47.477,9.557 50.037,9.557Z" style="fill:url(#_Linear1);fill-rule:nonzero;"/></g><g transform="matrix(1.19166,0,0,1.19166,-12.268,-0.368081)"><path d="M91.682,28.379L91.682,39.346C91.682,47.846 84.474,55.001 76.256,55.001L51.591,55.001C44.835,55.001 39.245,60.784 39.245,67.55L39.245,91.065C39.245,97.756 45.063,101.693 51.591,103.612C59.407,105.909 66.903,106.325 76.256,103.612C82.472,101.811 88.602,98.189 88.602,91.065L88.602,81.653L63.938,81.653L63.938,78.515L100.95,78.515C108.126,78.515 110.802,73.51 113.298,65.996C115.876,58.261 115.765,50.822 113.298,40.9C111.524,33.755 108.137,28.379 100.95,28.379L91.682,28.379ZM77.809,87.927C80.37,87.927 82.443,90.024 82.443,92.619C82.443,95.221 80.369,97.338 77.809,97.338C75.259,97.338 73.176,95.221 73.176,92.619C73.176,90.024 75.259,87.927 77.809,87.927Z" style="fill:url(#_Linear2);fill-rule:nonzero;"/></g></g><g id="python1" serif:id="python"></g></g><defs><linearGradient id="_Linear1" x1="0" y1="0" x2="1" y2="0" gradientUnits="userSpaceOnUse" gradientTransform="matrix(56.5291,49.0678,-49.0678,56.5291,10.3369,4.93063)"><stop offset="0" style="stop-color:rgb(90,159,212);stop-opacity:1"/><stop offset="1" style="stop-color:rgb(48,105,152);stop-opacity:1"/></linearGradient><linearGradient id="_Linear2" x1="0" y1="0" x2="1" y2="0" gradientUnits="userSpaceOnUse" gradientTransform="matrix(-20.1858,-28.8124,28.8124,-20.1858,88.7189,83.6924)"><stop offset="0" style="stop-color:rgb(255,212,59);stop-opacity:1"/><stop offset="1" style="stop-color:rgb(255,232,115);stop-opacity:1"/></linearGradient></defs></svg>