<?xml version="1.0" encoding="UTF-8" standalone="no"?><!DOCTYPE svg PUBLIC "-//W3C//DTD SVG 1.1//EN" "http://www.w3.org/Graphics/SVG/1.1/DTD/svg11.dtd"><svg width="100%" height="100%" viewBox="0 0 18 16" version="1.1" xmlns="http://www.w3.org/2000/svg" xmlns:xlink="http://www.w3.org/1999/xlink" xml:space="preserve" xmlns:serif="http://www.serif.com/" style="fill-rule:evenodd;clip-rule:evenodd;stroke-linejoin:round;stroke-miterlimit:2;"><g transform="matrix(0.166667,0,0,0.166667,9,8)"><g id="html5" transform="matrix(1,0,0,1,-39.357,-45)"><clipPath id="_clip1"><rect x="0" y="0" width="78.714" height="90"/></clipPath><g clip-path="url(#_clip1)"><g transform="matrix(1,0,0,1,0,-21.105)"><path d="M78.714,21.835L71.543,102.169L39.309,111.105L7.164,102.181L0,21.835L78.714,21.835Z" style="fill:rgb(228,77,38);fill-rule:nonzero;"/><path d="M39.357,104.274L65.404,97.053L71.532,28.404L39.357,28.404L39.357,104.274Z" style="fill:rgb(241,101,41);fill-rule:nonzero;"/><path d="M25.416,48.113L39.356,48.113L39.356,38.264L14.647,38.264L14.883,40.908L17.305,68.063L39.357,68.063L39.357,58.204L26.317,58.204L25.416,48.113ZM27.639,72.985L17.745,72.985L19.125,88.457L39.311,94.057L39.356,94.045L39.356,83.796L39.313,83.807L28.339,80.844L27.639,72.985Z" style="fill:rgb(235,235,235);fill-rule:nonzero;"/><path d="M39.323,68.057L51.457,68.057L50.313,80.837L39.322,83.803L39.322,94.055L59.522,88.455L59.67,86.79L61.986,60.847L62.226,58.201L39.323,58.201L39.323,68.057ZM39.323,38.253L39.323,48.112L63.123,48.112L63.323,45.897L63.772,40.897L64.007,38.253L39.323,38.253Z" style="fill:white;fill-rule:nonzero;"/></g></g></g><g id="html51" serif:id="html5"></g></g></svg>