<?xml version="1.0" encoding="UTF-8" standalone="no"?><!DOCTYPE svg PUBLIC "-//W3C//DTD SVG 1.1//EN" "http://www.w3.org/Graphics/SVG/1.1/DTD/svg11.dtd"><svg width="100%" height="100%" viewBox="0 0 18 16" version="1.1" xmlns="http://www.w3.org/2000/svg" xmlns:xlink="http://www.w3.org/1999/xlink" xml:space="preserve" xmlns:serif="http://www.serif.com/" style="fill-rule:evenodd;clip-rule:evenodd;stroke-linejoin:round;stroke-miterlimit:2;"><g transform="matrix(0.0307143,0,0,0.0307143,9,8)"><g id="ai" transform="matrix(1,0,0,1,-350,-350)"><g id="Layer_2" transform="matrix(2.09238,0,0,2.09238,98.9144,105.192)"><g id="Surfaces"><g id="Drawing_Surface"><g id="Outline_no_shadow"><path id="rect8" d="M240,42.057C240,18.845 221.155,0 197.943,0L42.057,0C18.845,0 0,18.845 0,42.057L0,191.943C0,215.155 18.845,234 42.057,234L197.943,234C221.155,234 240,215.155 240,191.943L240,42.057Z" style="fill:rgb(51,0,0);"/></g></g></g><g id="Outlined_Mnemonics_Logos"><g id="Ai"><path id="path13" d="M116.3,140.428L79.109,140.428L71.542,163.934C71.331,164.815 70.515,165.427 69.61,165.383L50.773,165.383C49.699,165.383 49.324,164.793 49.646,163.612L81.846,70.876C82.168,69.91 82.491,68.81 82.813,67.576C83.234,65.428 83.449,63.244 83.457,61.055C83.45,61.009 83.447,60.962 83.447,60.915C83.447,60.368 83.896,59.918 84.443,59.918C84.49,59.918 84.537,59.922 84.584,59.928L110.182,59.928C110.932,59.928 111.361,60.197 111.47,60.733L148.018,163.773C148.339,164.847 148.017,165.384 147.051,165.383L126.121,165.383C125.381,165.465 124.687,164.98 124.511,164.256L116.3,140.428ZM84.905,120.142L110.343,120.142C109.699,117.997 108.948,115.582 108.089,112.897C107.229,110.216 106.317,107.344 105.353,104.284C104.386,101.225 103.42,98.166 102.454,95.107C101.488,92.048 100.603,89.096 99.798,86.252C98.993,83.409 98.268,80.806 97.625,78.443L97.463,78.443C96.557,82.792 95.429,87.09 94.083,91.323C92.578,96.153 91.049,101.091 89.494,106.135C87.937,111.182 86.407,115.851 84.905,120.142Z" style="fill:rgb(255,154,0);fill-rule:nonzero;"/><path id="path15" d="M169.75,76.994C166.431,77.128 163.207,75.838 160.895,73.452C158.593,70.966 157.375,67.661 157.514,64.275C157.396,60.919 158.714,57.666 161.137,55.34C163.533,53.04 166.752,51.793 170.072,51.878C173.937,51.878 176.969,53.032 179.169,55.34C181.411,57.761 182.599,60.978 182.469,64.275C182.605,67.675 181.355,70.989 179.008,73.452C176.553,75.872 173.194,77.158 169.75,76.994ZM158.641,163.773L158.641,86.815C158.641,85.849 159.069,85.366 159.929,85.366L179.732,85.366C180.59,85.366 181.02,85.849 181.021,86.815L181.021,163.773C181.021,164.847 180.591,165.384 179.732,165.383L160.09,165.383C159.125,165.383 158.641,164.847 158.641,163.773Z" style="fill:rgb(255,154,0);fill-rule:nonzero;"/></g></g></g></g><g id="ai1" serif:id="ai"></g></g></svg>