<svg width="100%" height="100%" viewBox="0 0 18 16" version="1.1" xmlns="http://www.w3.org/2000/svg" xmlns:xlink="http://www.w3.org/1999/xlink" xml:space="preserve" style="fill-rule:evenodd;clip-rule:evenodd;stroke-linejoin:round;stroke-miterlimit:2;"><g id="file_type_binary-light" transform="matrix(1.32018,0,0,1.32018,-2.88083,-9.34607)"><g transform="matrix(1,0,0,1,-4.49242,6.218)"><path d="M11.686,11.802L11.686,7.563L10.881,7.563L9.492,8.48L9.492,9.283L10.818,8.413L10.876,8.413L10.876,11.804L9.499,11.804L9.499,12.497L12.999,12.497L12.999,11.802L11.686,11.802Z" style="fill:rgb(180,180,180);"/></g><g transform="matrix(1,0,0,1,4.43991,6.218)"><path d="M6.781,12.602C5.639,12.602 5,11.68 5,10.029C5,8.38 5.639,7.458 6.781,7.458C7.919,7.458 8.559,8.381 8.559,10.029C8.559,11.68 7.919,12.602 6.781,12.602ZM5.81,10.029C5.81,10.127 5.813,10.225 5.817,10.323L7.636,8.989C7.489,8.436 7.198,8.148 6.781,8.148C6.148,8.148 5.81,8.804 5.81,10.029ZM6.781,11.912C7.41,11.912 7.748,11.256 7.748,10.029C7.748,9.93 7.746,9.83 7.742,9.738L5.926,11.074C6.074,11.625 6.361,11.912 6.781,11.912Z" style="fill:rgb(180,180,180);"/></g><path d="M11.686,11.802L11.686,7.563L10.881,7.563L9.492,8.48L9.492,9.283L10.818,8.413L10.876,8.413L10.876,11.804L9.499,11.804L9.499,12.497L12.999,12.497L12.999,11.802L11.686,11.802Z" style="fill:rgb(180,180,180);"/><path d="M6.781,12.602C5.639,12.602 5,11.68 5,10.029C5,8.38 5.639,7.458 6.781,7.458C7.919,7.458 8.559,8.381 8.559,10.029C8.559,11.68 7.919,12.602 6.781,12.602ZM5.81,10.029C5.81,10.127 5.813,10.225 5.817,10.323L7.636,8.989C7.489,8.436 7.198,8.148 6.781,8.148C6.148,8.148 5.81,8.804 5.81,10.029ZM6.781,11.912C7.41,11.912 7.748,11.256 7.748,10.029C7.748,9.93 7.746,9.83 7.742,9.738L5.926,11.074C6.074,11.625 6.361,11.912 6.781,11.912Z" style="fill:rgb(180,180,180);"/></g></svg>