<?xml version="1.0" encoding="UTF-8" standalone="no"?><!DOCTYPE svg PUBLIC "-//W3C//DTD SVG 1.1//EN" "http://www.w3.org/Graphics/SVG/1.1/DTD/svg11.dtd"><svg width="100%" height="100%" viewBox="0 0 18 16" version="1.1" xmlns="http://www.w3.org/2000/svg" xmlns:xlink="http://www.w3.org/1999/xlink" xml:space="preserve" xmlns:serif="http://www.serif.com/" style="fill-rule:evenodd;clip-rule:evenodd;stroke-linecap:round;stroke-linejoin:round;stroke-miterlimit:1.5;"><g id="settings" transform="matrix(1.48144,0,0,1.38723,-2.75891,-4.4818)"><path d="M8.709,4.385C8.199,4.288 7.676,4.288 7.166,4.385C7.203,5.06 6.958,5.586 6.433,5.962C6.363,6.002 6.295,6.044 6.229,6.088C5.66,6.386 5.112,6.349 4.583,5.978C4.249,6.401 3.987,6.884 3.811,7.405C4.377,7.708 4.681,8.197 4.724,8.872C4.721,8.956 4.721,9.04 4.724,9.123C4.681,9.798 4.377,10.287 3.811,10.591C3.987,11.111 4.249,11.594 4.583,12.017C5.112,11.646 5.66,11.609 6.229,11.907C6.295,11.952 6.363,11.994 6.433,12.033C6.958,12.41 7.203,12.935 7.166,13.61C7.676,13.708 8.199,13.708 8.709,13.61C8.672,12.935 8.917,12.41 9.442,12.033C9.512,11.994 9.58,11.952 9.646,11.907C10.215,11.609 10.763,11.646 11.292,12.017C11.626,11.594 11.888,11.111 12.064,10.591C11.498,10.287 11.194,9.798 11.151,9.123C11.154,9.04 11.154,8.956 11.151,8.872C11.194,8.197 11.498,7.708 12.064,7.405C11.888,6.884 11.626,6.401 11.292,5.978C10.763,6.349 10.215,6.386 9.646,6.088C9.58,6.044 9.512,6.002 9.442,5.962C8.917,5.586 8.672,5.06 8.709,4.385ZM7.938,7.433C8.746,7.433 9.403,8.134 9.403,8.998C9.403,9.861 8.746,10.562 7.938,10.562C7.129,10.562 6.472,9.861 6.472,8.998C6.472,8.134 7.129,7.433 7.938,7.433Z" style="fill:none;stroke:rgb(114,134,149);stroke-width:0.87px;"/></g></svg>