<svg width="100%" height="100%" viewBox="0 0 18 16" version="1.1" xmlns="http://www.w3.org/2000/svg" xmlns:xlink="http://www.w3.org/1999/xlink" xml:space="preserve" style="fill-rule:evenodd;clip-rule:evenodd;stroke-linejoin:round;stroke-miterlimit:2;"><g id="file-type-image" transform="matrix(0.234375,0,0,0.234375,9,8)"><g transform="matrix(1,0,0,1,-32,-32)"><g id="Layer_2"><g id="Layer_1-2"><path d="M64,4C64,1.792 62.208,0 60,0L4,0C1.792,0 0,1.792 0,4L0,60C0,62.208 1.792,64 4,64L60,64C62.208,64 64,62.208 64,60L64,4Z" style="fill:white;"/><path d="M64,4L64,60C64,62.208 62.208,64 60,64L4,64C1.792,64 0,62.208 0,60L0,4C0,1.792 1.792,0 4,0L60,0C62.208,0 64,1.792 64,4ZM63.8,4C63.8,1.903 62.097,0.2 60,0.2L4,0.2C1.903,0.2 0.2,1.903 0.2,4L0.2,60C0.2,62.097 1.903,63.8 4,63.8L60,63.8C62.097,63.8 63.8,62.097 63.8,60L63.8,4Z" style="fill:rgb(114,134,149);"/><rect x="6" y="6" width="52" height="46" style="fill:rgb(0,144,224);"/><path d="M6,44L26,24L54,52L6,52L6,44Z" style="fill:rgb(116,216,0);fill-rule:nonzero;"/><path d="M28,52L48,32L58,42L58,52L28,52Z" style="fill:rgb(93,173,0);fill-rule:nonzero;"/><circle cx="14" cy="14" r="4" style="fill:rgb(255,218,0);"/></g></g></g></g></svg>