<?xml version="1.0" encoding="UTF-8" standalone="no"?><!DOCTYPE svg PUBLIC "-//W3C//DTD SVG 1.1//EN" "http://www.w3.org/Graphics/SVG/1.1/DTD/svg11.dtd"><svg width="100%" height="100%" viewBox="0 0 18 16" version="1.1" xmlns="http://www.w3.org/2000/svg" xmlns:xlink="http://www.w3.org/1999/xlink" xml:space="preserve" xmlns:serif="http://www.serif.com/" style="fill-rule:evenodd;clip-rule:evenodd;stroke-linejoin:round;stroke-miterlimit:2;"><g transform="matrix(0.0245098,0,0,0.0245098,9,8)"><g id="wast" transform="matrix(1,0,0,1,-306,-306)"><clipPath id="_clip1"><rect x="0" y="0" width="612" height="612"/></clipPath><g clip-path="url(#_clip1)"><path d="M376,0L376,3.3C376,42.06 344.58,73.47 305.83,73.47C267.07,73.47 235.66,42.05 235.66,3.3L235.66,-0L0,0L0,612L612,612L612,0L376,0Z" style="fill:rgb(101,79,240);fill-rule:nonzero;"/><path d="M142.16,329.81L182.72,329.81L210.41,477.28L210.91,477.28L244.19,329.81L282.13,329.81L312.19,479.09L312.78,479.09L344.34,329.81L384.12,329.81L332.43,546.5L292.18,546.5L262.37,399.03L261.59,399.03L229.68,546.5L188.68,546.5L142.16,329.81ZM429.85,329.81L493.79,329.81L557.29,546.5L515.45,546.5L501.64,498.28L428.8,498.28L418.14,546.5L377.39,546.5L429.85,329.81ZM454.19,383.22L436.5,462.72L491.56,462.72L471.25,383.22L454.19,383.22Z" style="fill:white;fill-rule:nonzero;"/></g></g><g id="wast1" serif:id="wast"></g></g></svg>