<?xml version="1.0" encoding="UTF-8" standalone="no"?><!DOCTYPE svg PUBLIC "-//W3C//DTD SVG 1.1//EN" "http://www.w3.org/Graphics/SVG/1.1/DTD/svg11.dtd"><svg width="100%" height="100%" viewBox="0 0 18 16" version="1.1" xmlns="http://www.w3.org/2000/svg" xmlns:xlink="http://www.w3.org/1999/xlink" xml:space="preserve" xmlns:serif="http://www.serif.com/" style="fill-rule:evenodd;clip-rule:evenodd;stroke-linejoin:round;stroke-miterlimit:2;"><g transform="matrix(0.5,0,0,0.5,9,8)"><g id="settings" transform="matrix(1,0,0,1,-16,-16)"><path d="M23.265,24.381L24.165,23.487C28.329,23.623 28.393,23.477 28.576,23.049L29.72,20.264L29.805,20L29.712,19.769C29.663,19.647 29.512,19.283 26.912,16.804L26.912,15.5C29.912,12.61 29.848,12.462 29.677,12.039L28.538,9.225C28.367,8.803 28.302,8.638 24.168,8.751L23.268,7.821C23.361,6.451 23.314,5.075 23.127,3.715L23.011,3.452L20.037,2.152C19.599,1.952 19.445,1.88 16.637,4.938L15.375,4.919C12.484,1.833 12.347,1.889 11.914,2.064L9.149,3.182C8.716,3.357 8.563,3.419 8.731,7.619L7.838,8.509C3.676,8.373 3.612,8.521 3.431,8.947L2.285,11.733L2.195,12L2.289,12.232C2.338,12.352 2.483,12.712 5.089,15.194L5.089,16.494C2.089,19.384 2.154,19.532 2.326,19.956L3.464,22.773C3.638,23.204 3.7,23.357 7.833,23.249L8.733,24.184C8.64,25.552 8.686,26.926 8.87,28.284L8.986,28.549L11.979,29.857C12.414,30.039 12.565,30.104 15.365,27.057L16.627,27.073C19.522,30.163 19.67,30.103 20.093,29.932L22.852,28.817C23.288,28.644 23.44,28.583 23.265,24.381ZM11.407,17.857C11.191,17.291 11.08,16.691 11.08,16.086C11.08,13.366 13.317,11.129 16.037,11.129C18.756,11.129 20.994,13.366 20.994,16.086C20.994,18.101 19.764,19.925 17.895,20.681C15.341,21.68 12.417,20.407 11.407,17.857Z" style="fill:rgb(114,134,149);fill-rule:nonzero;"/></g><g id="settings1" serif:id="settings"></g></g></svg>