<?xml version="1.0" encoding="UTF-8" standalone="no"?><!DOCTYPE svg PUBLIC "-//W3C//DTD SVG 1.1//EN" "http://www.w3.org/Graphics/SVG/1.1/DTD/svg11.dtd"><svg width="100%" height="100%" viewBox="0 0 15 15" version="1.1" xmlns="http://www.w3.org/2000/svg" xmlns:xlink="http://www.w3.org/1999/xlink" xml:space="preserve" xmlns:serif="http://www.serif.com/" style="fill-rule:evenodd;clip-rule:evenodd;stroke-linejoin:round;stroke-miterlimit:2;"><g transform="matrix(1,0,0,1,-1.5,-0.5)"><g id="afdesign" transform="matrix(0.015,0,0,0.015,9,8)"><g transform="matrix(1,0,0,1,-500,-500)"><clipPath id="_clip1"><rect x="0" y="0" width="1000" height="1000"/></clipPath><g clip-path="url(#_clip1)"><g transform="matrix(2.30947,0,0,2.30947,-722.864,-408.776)"><path id="affinity_designer_icon" d="M746,189.99C746,182.821 740.179,177 733.01,177L325.99,177C318.821,177 313,182.821 313,189.99L313,597.01C313,604.179 318.821,610 325.99,610L733.01,610C740.179,610 746,604.179 746,597.01L746,189.99Z" style="fill:rgb(20,78,140);"/><g><clipPath id="_clip2"><path d="M746,189.99C746,182.821 740.179,177 733.01,177L325.99,177C318.821,177 313,182.821 313,189.99L313,597.01C313,604.179 318.821,610 325.99,610L733.01,610C740.179,610 746,604.179 746,597.01L746,189.99Z"/></clipPath><g clip-path="url(#_clip2)"><path id="affinity_designer_icon1" serif:id="affinity_designer_icon" d="M746,189.99C746,182.821 740.179,177 733.01,177L325.99,177C318.821,177 313,182.821 313,189.99L313,597.01C313,604.179 318.821,610 325.99,610L733.01,610C740.179,610 746,604.179 746,597.01L746,189.99Z" style="fill:rgb(27,114,190);"/><path id="affinity_designer_icon2" serif:id="affinity_designer_icon" d="M746,189.99C746,182.821 740.179,177 733.01,177L490.53,177L313,484.491L313,597.01C313,604.179 318.821,610 325.99,610L733.01,610C740.179,610 746,604.179 746,597.01L746,189.99Z" style="fill:rgb(5,104,170);"/><path d="M513.198,610L483,610L405,453.186L557,177L581.46,177L422.333,452.617L513.197,610L513.198,610ZM595,610L519.693,610L430.956,456.303L746.03,456.303L746,485L595,610ZM520.15,177L494.86,177L313,491.99L313,535.795L520.15,177ZM564.08,450.638L478.434,450.638C468.437,450.638 459.141,445.408 454.142,436.752C449.15,428.105 449.15,417.418 454.142,408.771L497.025,334.496L564.08,450.638ZM746,450.638L570.575,450.638L500.272,328.87L587.955,177L619.725,177.02L573.58,334L595,378L746,437.38L746,450.638Z" style="fill:rgb(7,79,127);"/><g transform="matrix(0.42285,0,0,0.42285,280.018,-579.481)"><path d="M1102,2813L582.167,2813L379.998,2462.83L1102,2462.83L1102,2813ZM536.087,2813L78,2813L78,2560.53L523.44,1789L697.52,1789L321.2,2440.81L536.087,2813ZM648.781,2422.9L472.775,2422.9C453.127,2422.9 434.972,2412.59 425.148,2395.57C415.336,2378.58 415.336,2357.57 425.148,2340.58C464.245,2272.86 513.2,2188.07 513.2,2188.07L648.781,2422.9ZM1102,2422.9L694.881,2422.9L536.24,2148.16L743.6,1789L1102,1789L1102,2422.9Z" style="fill:url(#_Radial3);"/></g><g transform="matrix(0.42285,0,0,0.42285,280.018,-579.481)"><path d="M1125.76,2831.83L593.04,2831.83L379.998,2462.83L1125.39,2462.83L1125.76,2831.83ZM321.2,2440.81L546.96,2831.83L46.573,2831.83L44.897,2617.86L535.807,1767.58L709.887,1767.58L321.2,2440.81ZM401.282,2475.12L600.135,2819.55L1113.46,2819.55L1113.12,2475.12L401.282,2475.12ZM542.901,1779.87L57.211,2621.11L58.765,2819.55L525.677,2819.55L307.011,2440.81L688.603,1779.87L542.901,1779.87ZM648.781,2422.9L472.315,2422.9L472.085,2422.89L471.626,2422.89L471.396,2422.88L471.167,2422.88L470.251,2422.84L470.023,2422.83L469.794,2422.82L469.566,2422.81L469.338,2422.79L469.11,2422.78L468.883,2422.76L468.655,2422.75L467.747,2422.67L467.521,2422.65L467.294,2422.63L467.068,2422.61L466.842,2422.58L466.616,2422.56L466.391,2422.53L466.165,2422.51L465.715,2422.45L465.491,2422.42L465.266,2422.39L464.594,2422.3L464.37,2422.26L464.147,2422.23L463.924,2422.19L463.701,2422.16L463.255,2422.08L462.811,2422L462.59,2421.96L462.368,2421.92L462.147,2421.88L461.926,2421.83L461.705,2421.79L461.485,2421.74L461.264,2421.7L461.044,2421.65L460.825,2421.6L460.605,2421.55L460.386,2421.51L460.167,2421.45L459.948,2421.4L459.512,2421.3L459.294,2421.24L458.86,2421.14L458.426,2421.02L457.562,2420.78L457.132,2420.66L456.918,2420.6L456.704,2420.53L456.49,2420.47L456.276,2420.4L456.063,2420.33L455.85,2420.27L455.637,2420.2L455.001,2419.99L454.79,2419.91L454.368,2419.77L454.158,2419.7L453.738,2419.54L453.529,2419.47L453.32,2419.39L453.112,2419.31L452.903,2419.23L452.695,2419.15L452.074,2418.91L451.868,2418.82L451.662,2418.74L451.456,2418.65L451.251,2418.57L450.841,2418.39L450.637,2418.3L450.433,2418.22L450.23,2418.12L449.824,2417.94L449.42,2417.76L449.219,2417.66L449.018,2417.57L448.817,2417.47L448.617,2417.38L448.417,2417.28L447.82,2416.98L447.424,2416.78L447.03,2416.58L446.833,2416.47L446.637,2416.37L446.442,2416.26L446.247,2416.16L446.052,2416.05L445.47,2415.72L445.277,2415.62L445.085,2415.51L444.893,2415.39L444.701,2415.28L444.51,2415.17L444.32,2415.05L444.129,2414.94L443.94,2414.83L443.75,2414.71L443.561,2414.59L443.373,2414.47L443.185,2414.36L442.811,2414.12L442.439,2413.88L442.253,2413.75L442.068,2413.63L441.884,2413.51L441.7,2413.38L441.516,2413.26L441.333,2413.13L441.151,2413L440.969,2412.88L440.787,2412.75L440.606,2412.62L440.066,2412.23L439.888,2412.1L439.709,2411.96L439.531,2411.83L439.354,2411.7L439.177,2411.56L439.001,2411.43L438.825,2411.29L438.475,2411.01L438.301,2410.88L438.127,2410.74L437.954,2410.6L437.782,2410.45L437.438,2410.17L437.268,2410.03L437.097,2409.88L436.928,2409.74L436.758,2409.6L436.422,2409.3L436.254,2409.16L436.087,2409.01L435.755,2408.71L435.59,2408.56L435.098,2408.11L434.935,2407.95L434.773,2407.8L434.612,2407.64L434.45,2407.49L434.29,2407.33L434.13,2407.18L433.812,2406.86L433.654,2406.7L433.34,2406.38L433.028,2406.06L432.873,2405.9L432.719,2405.74L432.565,2405.57L432.412,2405.41L432.26,2405.25L432.108,2405.08L431.957,2404.91L431.806,2404.75L431.657,2404.58L431.507,2404.41L431.063,2403.9L430.625,2403.39L430.481,2403.22L430.337,2403.04L430.193,2402.87L430.051,2402.69L429.909,2402.52L429.767,2402.34L429.627,2402.16L429.487,2401.99L429.347,2401.81L429.071,2401.45L428.797,2401.09L428.661,2400.91L428.526,2400.73L428.392,2400.55L428.258,2400.36L428.125,2400.18L427.992,2399.99L427.861,2399.81L427.599,2399.43L427.47,2399.25L427.341,2399.06L427.213,2398.87L426.959,2398.49L426.833,2398.3L426.583,2397.92L426.46,2397.73L426.337,2397.53L426.214,2397.34L426.093,2397.15L425.972,2396.95L425.852,2396.76L425.614,2396.36L425.496,2396.17L425.379,2395.97L425.263,2395.77L425.033,2395.37L424.919,2395.17L424.806,2394.97L424.694,2394.77L424.583,2394.57L424.473,2394.37L424.255,2393.97L424.148,2393.76L424.041,2393.56L423.936,2393.36L423.831,2393.15L423.727,2392.95L423.624,2392.75L423.522,2392.54L423.421,2392.34L423.32,2392.13L423.221,2391.93L423.025,2391.51L422.928,2391.31L422.738,2390.89L422.644,2390.69L422.458,2390.27L422.367,2390.07L422.187,2389.65L422.011,2389.23L421.924,2389.02L421.838,2388.81L421.753,2388.6L421.669,2388.39L421.586,2388.18L421.422,2387.76L421.262,2387.34L421.183,2387.12L421.029,2386.7L420.953,2386.49L420.878,2386.28L420.803,2386.06L420.73,2385.85L420.658,2385.64L420.586,2385.42L420.516,2385.21L420.446,2384.99L420.377,2384.78L420.309,2384.57L420.242,2384.35L420.176,2384.14L420.111,2383.92L420.047,2383.7L419.983,2383.49L419.921,2383.27L419.859,2383.06L419.798,2382.84L419.739,2382.63L419.68,2382.41L419.622,2382.19L419.565,2381.98L419.508,2381.76L419.453,2381.54L419.399,2381.32L419.345,2381.11L419.292,2380.89L419.19,2380.45L419.14,2380.24L419.091,2380.02L419.043,2379.8L418.949,2379.36L418.859,2378.92L418.773,2378.48L418.731,2378.26L418.69,2378.05L418.65,2377.83L418.611,2377.61L418.573,2377.39L418.536,2377.16L418.499,2376.95L418.464,2376.72L418.429,2376.5L418.395,2376.28L418.362,2376.06L418.331,2375.84L418.299,2375.62L418.269,2375.4L418.24,2375.18L418.184,2374.74L418.158,2374.52L418.132,2374.29L418.107,2374.07L418.061,2373.63L418.039,2373.41L418.018,2373.19L417.997,2372.96L417.978,2372.74L417.942,2372.3L417.925,2372.08L417.91,2371.85L417.895,2371.63L417.881,2371.41L417.868,2371.19L417.856,2370.97L417.844,2370.74L417.834,2370.52L417.816,2370.08L417.808,2369.85L417.796,2369.41L417.791,2369.19L417.787,2368.96L417.781,2368.52L417.78,2368.3L417.78,2367.85L417.781,2367.63L417.784,2367.41L417.787,2367.18L417.791,2366.96L417.796,2366.74L417.802,2366.52L417.808,2366.29L417.816,2366.07L417.834,2365.63L417.844,2365.4L417.868,2364.96L417.881,2364.74L417.895,2364.51L417.925,2364.07L417.942,2363.85L417.978,2363.41L417.997,2363.18L418.039,2362.74L418.061,2362.52L418.084,2362.3L418.107,2362.07L418.132,2361.85L418.184,2361.41L418.24,2360.97L418.269,2360.75L418.299,2360.53L418.331,2360.3L418.362,2360.08L418.395,2359.86L418.429,2359.64L418.499,2359.2L418.573,2358.76L418.611,2358.54L418.65,2358.32L418.69,2358.1L418.731,2357.88L418.773,2357.66L418.859,2357.22L418.904,2357.01L418.949,2356.79L419.043,2356.35L419.091,2356.13L419.14,2355.91L419.19,2355.69L419.241,2355.48L419.292,2355.26L419.345,2355.04L419.399,2354.82L419.453,2354.61L419.508,2354.39L419.622,2353.95L419.68,2353.74L419.798,2353.3L419.859,2353.09L419.921,2352.87L419.983,2352.66L420.047,2352.44L420.111,2352.23L420.176,2352.01L420.242,2351.8L420.309,2351.58L420.377,2351.37L420.446,2351.15L420.516,2350.94L420.586,2350.72L420.73,2350.3L420.803,2350.09L420.878,2349.87L420.953,2349.66L421.029,2349.45L421.106,2349.24L421.183,2349.02L421.262,2348.81L421.422,2348.39L421.586,2347.97L421.669,2347.76L421.753,2347.55L421.838,2347.34L421.924,2347.13L422.011,2346.92L422.187,2346.5L422.367,2346.08L422.458,2345.87L422.551,2345.67L422.644,2345.46L422.738,2345.25L422.833,2345.05L422.928,2344.84L423.025,2344.63L423.123,2344.43L423.221,2344.22L423.32,2344.01L423.522,2343.61L423.624,2343.4L423.727,2343.2L423.831,2342.99L424.041,2342.59L424.148,2342.39L424.255,2342.18L424.473,2341.78L424.583,2341.58L424.694,2341.38L424.806,2341.18L424.919,2340.97L425.033,2340.78L425.148,2340.58L513.2,2188.07L648.781,2422.9ZM1125.14,2422.9L694.861,2422.9L536.24,2148.16L755.967,1767.58L1120.69,1767.58L1125.14,2422.9ZM435.796,2346.71L435.7,2346.88L435.612,2347.03L435.524,2347.19L435.437,2347.34L435.265,2347.66L435.18,2347.81L435.095,2347.97L435.013,2348.12L434.847,2348.44L434.685,2348.76L434.605,2348.92L434.526,2349.07L434.292,2349.55L434.14,2349.87L434.065,2350.03L433.917,2350.35L433.844,2350.51L433.772,2350.68L433.7,2350.84L433.629,2351L433.489,2351.32L433.353,2351.64L433.285,2351.81L433.153,2352.13L433.087,2352.3L432.959,2352.62L432.896,2352.79L432.833,2352.95L432.771,2353.12L432.71,2353.28L432.65,2353.44L432.59,2353.61L432.531,2353.78L432.473,2353.94L432.416,2354.1L432.358,2354.27L432.302,2354.44L432.247,2354.6L432.192,2354.77L432.138,2354.93L432.032,2355.27L431.98,2355.43L431.928,2355.6L431.878,2355.77L431.828,2355.93L431.73,2356.27L431.682,2356.44L431.635,2356.61L431.589,2356.77L431.543,2356.94L431.498,2357.11L431.41,2357.45L431.367,2357.61L431.283,2357.95L431.242,2358.12L431.202,2358.29L431.124,2358.63L431.086,2358.8L431.012,2359.14L430.976,2359.31L430.906,2359.65L430.872,2359.82L430.839,2359.99L430.775,2360.33L430.713,2360.67L430.626,2361.18L430.599,2361.35L430.572,2361.53L430.52,2361.87L430.496,2362.04L430.471,2362.21L430.425,2362.55L430.403,2362.72L430.382,2362.9L430.361,2363.07L430.341,2363.24L430.322,2363.41L430.304,2363.59L430.286,2363.76L430.252,2364.1L430.237,2364.28L430.207,2364.62L430.181,2364.96L430.169,2365.14L430.157,2365.31L430.146,2365.48L430.136,2365.65L430.127,2365.83L430.118,2366L430.11,2366.17L430.103,2366.35L430.096,2366.52L430.09,2366.69L430.085,2366.86L430.08,2367.04L430.076,2367.21L430.073,2367.38L430.071,2367.55L430.069,2367.73L430.068,2367.9L430.068,2368.25L430.069,2368.42L430.073,2368.76L430.076,2368.94L430.08,2369.11L430.085,2369.28L430.09,2369.46L430.096,2369.63L430.11,2369.97L430.118,2370.15L430.136,2370.49L430.146,2370.67L430.157,2370.84L430.181,2371.18L430.194,2371.36L430.207,2371.53L430.237,2371.87L430.252,2372.05L430.286,2372.39L430.322,2372.73L430.341,2372.91L430.361,2373.08L430.403,2373.42L430.425,2373.59L430.448,2373.76L430.471,2373.94L430.496,2374.11L430.52,2374.28L430.572,2374.62L430.626,2374.96L430.655,2375.14L430.713,2375.48L430.775,2375.82L430.839,2376.16L430.872,2376.33L430.906,2376.5L430.976,2376.84L431.012,2377.01L431.086,2377.35L431.124,2377.52L431.202,2377.86L431.242,2378.03L431.283,2378.2L431.325,2378.36L431.367,2378.53L431.41,2378.7L431.498,2379.04L431.543,2379.21L431.589,2379.38L431.635,2379.54L431.682,2379.71L431.73,2379.88L431.779,2380.05L431.828,2380.21L431.878,2380.38L431.929,2380.55L431.98,2380.71L432.032,2380.88L432.085,2381.05L432.138,2381.21L432.192,2381.38L432.247,2381.55L432.302,2381.71L432.358,2381.88L432.415,2382.04L432.473,2382.21L432.531,2382.37L432.59,2382.54L432.65,2382.7L432.711,2382.87L432.771,2383.03L432.833,2383.19L432.896,2383.36L432.959,2383.52L433.023,2383.69L433.153,2384.01L433.218,2384.18L433.285,2384.34L433.421,2384.66L433.49,2384.83L433.559,2384.99L433.629,2385.15L433.7,2385.31L433.844,2385.63L433.99,2385.95L434.065,2386.12L434.14,2386.28L434.216,2386.43L434.292,2386.6L434.369,2386.75L434.447,2386.91L434.605,2387.23L434.685,2387.39L434.847,2387.71L434.93,2387.86L435.012,2388.02L435.18,2388.34L435.265,2388.49L435.351,2388.65L435.437,2388.8L435.524,2388.96L435.612,2389.12L435.7,2389.27L435.789,2389.43L435.879,2389.58L435.969,2389.74L436.151,2390.04L436.243,2390.19L436.336,2390.35L436.522,2390.65L436.616,2390.8L436.806,2391.1L436.902,2391.25L436.999,2391.4L437.096,2391.54L437.193,2391.69L437.292,2391.84L437.39,2391.99L437.489,2392.13L437.589,2392.28L437.69,2392.42L437.79,2392.57L437.891,2392.71L437.993,2392.85L438.096,2393L438.199,2393.14L438.303,2393.28L438.406,2393.42L438.511,2393.56L438.617,2393.7L438.722,2393.84L438.828,2393.98L439.042,2394.26L439.151,2394.4L439.258,2394.53L439.367,2394.67L439.477,2394.81L439.586,2394.94L439.698,2395.08L439.808,2395.21L439.919,2395.35L440.032,2395.48L440.144,2395.62L440.256,2395.75L440.598,2396.14L440.714,2396.27L440.829,2396.4L441.061,2396.66L441.178,2396.79L441.414,2397.05L441.532,2397.17L441.651,2397.3L441.771,2397.43L441.891,2397.55L442.011,2397.68L442.253,2397.92L442.374,2398.05L442.866,2398.53L442.992,2398.66L443.116,2398.77L443.24,2398.89L443.367,2399.01L443.492,2399.13L443.618,2399.25L443.745,2399.37L443.873,2399.48L444.001,2399.6L444.129,2399.71L444.258,2399.83L444.387,2399.94L444.516,2400.06L444.648,2400.17L444.777,2400.28L444.908,2400.4L445.041,2400.51L445.171,2400.62L445.303,2400.73L445.437,2400.84L445.569,2400.95L445.704,2401.06L445.972,2401.28L446.106,2401.38L446.378,2401.6L446.513,2401.7L446.65,2401.8L446.787,2401.91L446.925,2402.01L447.063,2402.12L447.339,2402.32L447.478,2402.42L447.617,2402.53L447.758,2402.63L447.898,2402.73L448.039,2402.83L448.18,2402.92L448.32,2403.02L448.606,2403.22L448.748,2403.31L448.89,2403.41L449.034,2403.51L449.178,2403.6L449.323,2403.69L449.467,2403.79L449.611,2403.88L449.756,2403.97L449.903,2404.07L450.049,2404.16L450.196,2404.25L450.342,2404.34L450.489,2404.43L450.637,2404.51L451.081,2404.78L451.23,2404.86L451.379,2404.95L451.53,2405.03L451.68,2405.12L451.829,2405.2L451.98,2405.29L452.133,2405.37L452.586,2405.61L452.739,2405.7L452.894,2405.78L453.046,2405.85L453.198,2405.93L453.353,2406.01L453.507,2406.09L453.662,2406.16L453.972,2406.32L454.127,2406.39L454.282,2406.47L454.439,2406.54L454.595,2406.61L454.752,2406.68L454.91,2406.76L455.066,2406.83L455.223,2406.9L455.383,2406.97L455.539,2407.04L455.698,2407.11L455.859,2407.17L456.017,2407.24L456.176,2407.31L456.336,2407.37L456.495,2407.44L456.656,2407.5L456.817,2407.57L456.979,2407.63L457.139,2407.7L457.3,2407.76L457.626,2407.88L457.788,2407.94L457.949,2408L458.112,2408.06L458.276,2408.12L458.441,2408.18L458.603,2408.23L458.766,2408.29L458.93,2408.34L459.097,2408.4L459.261,2408.45L459.425,2408.51L459.592,2408.56L459.757,2408.61L459.922,2408.67L460.088,2408.72L460.422,2408.82L460.588,2408.87L460.755,2408.91L460.923,2408.96L461.09,2409.01L461.258,2409.06L461.425,2409.1L461.595,2409.15L461.763,2409.19L461.931,2409.24L462.101,2409.28L462.269,2409.32L462.44,2409.37L462.609,2409.41L462.777,2409.45L462.949,2409.49L463.119,2409.53L463.289,2409.56L463.631,2409.64L463.803,2409.68L463.974,2409.71L464.146,2409.75L464.317,2409.78L464.489,2409.82L464.835,2409.88L465.006,2409.91L465.178,2409.94L465.7,2410.03L466.046,2410.09L466.22,2410.12L466.394,2410.14L466.569,2410.17L466.745,2410.19L466.919,2410.22L467.092,2410.24L467.267,2410.26L467.444,2410.28L467.62,2410.3L467.793,2410.33L467.969,2410.35L468.147,2410.36L468.324,2410.38L468.499,2410.4L468.675,2410.42L468.852,2410.43L469.028,2410.45L469.204,2410.46L469.382,2410.48L469.738,2410.5L469.915,2410.52L470.092,2410.53L470.45,2410.55L470.627,2410.56L470.803,2410.57L470.983,2410.57L471.161,2410.58L471.34,2410.59L471.52,2410.59L471.699,2410.6L472.056,2410.6L472.237,2410.61L627.498,2410.61L513.2,2212.64L435.796,2346.71ZM763.061,1779.87L550.429,2148.16L701.956,2410.61L1112.77,2410.61L1108.49,1779.87L763.061,1779.87Z" style="fill:url(#_Linear4);"/></g></g></g></g></g></g></g></g><defs><radialGradient id="_Radial3" cx="0" cy="0" r="1" gradientUnits="userSpaceOnUse" gradientTransform="matrix(1216.45,0,0,1216.45,860.679,1596.55)"><stop offset="0" style="stop-color:rgb(107,225,251);stop-opacity:1"/><stop offset="1" style="stop-color:rgb(56,189,250);stop-opacity:1"/></radialGradient><linearGradient id="_Linear4" x1="0" y1="0" x2="1" y2="0" gradientUnits="userSpaceOnUse" gradientTransform="matrix(-0.0178722,-1024,1024,-0.0178722,1.81089e+06,2781.44)"><stop offset="0" style="stop-color:rgb(74,197,250);stop-opacity:1"/><stop offset="1" style="stop-color:rgb(151,232,252);stop-opacity:1"/></linearGradient></defs></svg>