<svg width="100%" height="100%" viewBox="0 0 18 16" version="1.1" xmlns="http://www.w3.org/2000/svg" xmlns:xlink="http://www.w3.org/1999/xlink" xml:space="preserve" style="fill-rule:evenodd;clip-rule:evenodd;stroke-linejoin:round;stroke-miterlimit:2;"><path id="file_type_source-1-light" d="M11.912,1.086C11.537,0.711 11.028,0.5 10.498,0.5C8.668,0.5 4.44,0.5 4.44,0.5C3.645,0.5 3,1.145 3,1.94L3,14.06C3,14.855 3.645,15.5 4.44,15.5L13.56,15.5C14.355,15.5 15,14.855 15,14.06L15,5.002C15,4.472 14.789,3.963 14.414,3.588C13.728,2.902 12.598,1.772 11.912,1.086ZM9.642,1.75L9.642,4.461C9.642,5.344 10.359,6.061 11.242,6.061L13.75,6.061L13.75,14.06C13.75,14.165 13.665,14.25 13.56,14.25C13.56,14.25 4.44,14.25 4.44,14.25C4.335,14.25 4.25,14.165 4.25,14.06C4.25,14.06 4.25,1.94 4.25,1.94C4.25,1.835 4.335,1.75 4.44,1.75L9.642,1.75ZM9.738,7.311C9.845,7.203 9.991,7.143 10.143,7.143C10.294,7.143 10.44,7.203 10.547,7.311L12.832,9.596C12.94,9.703 13,9.848 13,10C13,10.152 12.94,10.297 12.832,10.405L10.547,12.69C10.44,12.797 10.294,12.857 10.143,12.857C9.829,12.857 9.571,12.599 9.571,12.285C9.571,12.134 9.631,11.988 9.738,11.881L11.62,10L9.738,8.119C9.631,8.012 9.57,7.867 9.57,7.715C9.57,7.563 9.631,7.418 9.738,7.311ZM8.262,7.311C8.155,7.203 8.009,7.143 7.857,7.143C7.706,7.143 7.56,7.203 7.453,7.311L5.168,9.596C5.06,9.703 5,9.848 5,10C5,10.152 5.06,10.297 5.168,10.405L7.453,12.69C7.56,12.797 7.706,12.857 7.857,12.857C8.171,12.857 8.429,12.599 8.429,12.285C8.429,12.134 8.369,11.988 8.262,11.881L6.38,10L8.262,8.119C8.369,8.012 8.43,7.867 8.43,7.715C8.43,7.563 8.369,7.418 8.262,7.311ZM10.892,1.862C10.941,1.892 10.987,1.928 11.028,1.97L13.53,4.472C13.625,4.566 13.692,4.684 13.725,4.811L11.242,4.811C11.049,4.811 10.892,4.654 10.892,4.461L10.892,1.862Z" style="fill:white;fill-opacity:0.6;"/></svg>