<?xml version="1.0" encoding="UTF-8" standalone="no"?><!DOCTYPE svg PUBLIC "-//W3C//DTD SVG 1.1//EN" "http://www.w3.org/Graphics/SVG/1.1/DTD/svg11.dtd"><svg width="100%" height="100%" viewBox="0 0 18 16" version="1.1" xmlns="http://www.w3.org/2000/svg" xmlns:xlink="http://www.w3.org/1999/xlink" xml:space="preserve" xmlns:serif="http://www.serif.com/" style="fill-rule:evenodd;clip-rule:evenodd;stroke-linejoin:round;stroke-miterlimit:2;"><g id="rails"><g transform="matrix(1.01023,0,0,1.24925,0.582271,-0.227081)"><ellipse cx="8.333" cy="6.586" rx="7.914" ry="6.404" style="fill:rgb(204,0,0);"/></g><g id="rails1" serif:id="rails" transform="matrix(0.0316302,0,0,0.0316302,9,6.89287)"><g transform="matrix(1,0,0,1,-205.5,-77.5)"><g transform="matrix(1,0,0,1,8,8)"><path d="M344.6,121.5L344.6,139.6L377.3,139.6C384,139.6 395.5,134.7 395.9,121L395.9,114C395.9,102.3 386.3,95.4 377.3,95.4L361,95.4L361,87L393.3,87L393.3,68.8L362.3,68.8C354.3,68.8 343.6,75.4 343.6,87.7L343.6,94C343.6,106.3 354.2,112.6 362.3,112.6C384.8,112.7 356.9,112.6 377.7,112.6L377.7,121.4M169.4,117.1C169.4,117.1 186.9,115.6 186.9,93C186.9,70.4 165.7,68.3 165.7,68.3L127.5,68.3L127.5,139.6L146.7,139.6L146.7,122.4L163.3,139.6L191.7,139.6L169.4,117.1ZM162,102.5L146.7,102.5L146.7,86.2L162.1,86.2C162.1,86.2 166.4,87.8 166.4,94.3C166.4,100.8 162,102.5 162,102.5ZM234.3,68.8L214.8,68.8C200.9,68.8 196.2,81.4 196.2,87.4L196.2,139.6L215.7,139.6L215.7,127.1L234,127.1L234,139.6L252.9,139.6L252.9,87.4C252.9,72.2 239.1,68.8 234.3,68.8ZM234,106.9L215.6,106.9L215.6,89.6C215.6,89.6 215.6,85.7 221.7,85.7L228.4,85.7C233.8,85.7 233.9,89.6 233.9,89.6L233.9,106.9L234,106.9Z" style="fill:white;"/><rect x="261.8" y="68.8" width="20.3" height="70.8" style="fill:white;"/><path d="M310.6,121.3L310.6,68.8L290.4,68.8L290.4,139.6L337.9,139.6L337.9,121.3L310.6,121.3Z" style="fill:white;"/><path d="M7,139.6L86,139.6C86,139.6 70.9,70.7 120.9,42.8C131.8,37.5 166.5,17.7 223.3,59.7C225.1,58.2 226.8,57 226.8,57C226.8,57 174.8,5.1 116.9,10.9C87.8,13.5 52,40 31,75C10,110 7,139.6 7,139.6Z" style="fill:white;"/><path d="M7,139.6L86,139.6C86,139.6 70.9,70.7 120.9,42.8C131.8,37.5 166.5,17.7 223.3,59.7C225.1,58.2 226.8,57 226.8,57C226.8,57 174.8,5.1 116.9,10.9C87.8,13.5 52,40 31,75C10,110 7,139.6 7,139.6Z" style="fill:white;"/><path d="M7,139.6L86,139.6C86,139.6 70.9,70.7 120.9,42.8C131.8,37.5 166.5,17.7 223.3,59.7C225.1,58.2 226.8,57 226.8,57C226.8,57 174.8,5.1 116.9,10.9C87.7,13.5 51.9,40 30.9,75C9.9,110 7,139.6 7,139.6ZM171.6,16.5L172,9.8C171.1,9.3 168.6,8.1 162.3,6.3L161.9,12.9C165.2,14 168.4,15.2 171.6,16.5Z" style="fill:white;"/><path d="M162.1,37.7L161.7,44C165,44.1 168.3,44.5 171.6,45.2L172,39C168.6,38.3 165.3,37.9 162.1,37.7ZM125.1,6.5L126.1,6.5L124.1,0.4C121,0.4 117.8,0.6 114.5,1L116.4,6.9C119.3,6.6 122.2,6.5 125.1,6.5ZM129.9,43.3L132.2,50.2C135.1,48.8 138,47.6 140.9,46.7L138.7,40.1C135.3,41.1 132.4,42.2 129.9,43.3ZM84.5,17L80,10.1C77.5,11.4 74.9,12.8 72.2,14.4L76.8,21.4C79.4,19.8 81.9,18.3 84.5,17ZM105,62L109.8,69.2C111.5,66.7 113.5,64.4 115.7,62.1L111.2,55.3C108.9,57.4 106.8,59.7 105,62ZM90.5,94.2L98.6,100.6C99,96.7 99.7,92.8 100.7,88.9L93.5,83.2C92.2,86.9 91.3,90.6 90.5,94.2ZM46.7,46.7L39.6,40.5C37,43 34.5,45.5 32.2,48L39.9,54.6C42,51.9 44.3,49.2 46.7,46.7ZM16.5,91.4L5,87.2C3.1,91.5 1,96.5 0,99.2L11.5,103.4C12.8,100 14.9,95.1 16.5,91.4ZM89,119.6C89.2,124.9 89.7,129.2 90.2,132.2L102.2,136.5C101.3,132.6 100.4,128.2 99.8,123.5L89,119.6Z" style="fill:white;"/></g></g></g></g></svg>