<?xml version="1.0" encoding="UTF-8" standalone="no"?><!DOCTYPE svg PUBLIC "-//W3C//DTD SVG 1.1//EN" "http://www.w3.org/Graphics/SVG/1.1/DTD/svg11.dtd"><svg width="100%" height="100%" viewBox="0 0 18 16" version="1.1" xmlns="http://www.w3.org/2000/svg" xmlns:xlink="http://www.w3.org/1999/xlink" xml:space="preserve" xmlns:serif="http://www.serif.com/" style="fill-rule:evenodd;clip-rule:evenodd;"><g id="webgpu" transform="matrix(0.0208333,0,0,0.0208333,9,8)"><g transform="matrix(1,0,0,1,-384,-384)"><g transform="matrix(1.0419,0,0,1.0419,13.2234,76.1182)"><path id="Triangle_4" d="M626.63,295.5L566.441,191.25L686.991,191.25L626.63,295.5Z" style="fill:rgb(0,134,232);fill-rule:nonzero;stroke:rgb(0,134,232);stroke-width:1px;"/><path id="Triangle_5" d="M626.63,87.001L566.441,191.251L686.991,191.251L626.63,87.001Z" style="fill:rgb(0,147,255);fill-rule:nonzero;stroke:rgb(0,147,255);stroke-width:1px;"/><path id="Triangle_3" d="M506.26,504L385.88,295.5L626.64,295.498L506.26,504Z" style="fill:rgb(0,118,204);fill-rule:nonzero;stroke:rgb(0,118,204);stroke-width:1px;"/><path id="Triangle_2" d="M506.26,87L385.88,295.5L626.64,295.498L506.26,87Z" style="fill:rgb(0,102,176);fill-rule:nonzero;stroke:rgb(0,102,176);stroke-width:1px;"/><path id="Triangle_1" d="M265.5,504L24.74,87L506.25,87L265.5,504Z" style="fill:rgb(0,90,156);fill-rule:nonzero;stroke:rgb(0,90,156);stroke-width:1px;"/></g></g></g></svg>