<?xml version="1.0" encoding="UTF-8" standalone="no"?><!DOCTYPE svg PUBLIC "-//W3C//DTD SVG 1.1//EN" "http://www.w3.org/Graphics/SVG/1.1/DTD/svg11.dtd"><svg width="100%" height="100%" viewBox="0 0 18 16" version="1.1" xmlns="http://www.w3.org/2000/svg" xmlns:xlink="http://www.w3.org/1999/xlink" xml:space="preserve" xmlns:serif="http://www.serif.com/" style="fill-rule:evenodd;clip-rule:evenodd;stroke-linejoin:round;stroke-miterlimit:2;"><g transform="matrix(0.15,0,0,0.15,9,8)"><g id="graphql" transform="matrix(1,0,0,1,-50,-50)"><path d="M50,6.903L87.323,28.452L87.323,71.548L50,93.097L12.677,71.548L12.677,28.452L50,6.903ZM16.865,30.869L16.865,62.525L44.28,15.041L16.865,30.869ZM50,13.509L18.398,68.246L81.603,68.246L50,13.509ZM77.415,72.433L22.585,72.433L50,88.261L77.415,72.433ZM83.135,62.525L55.721,15.041L83.135,30.869L83.135,62.525Z" style="fill:rgb(225,0,152);"/><circle cx="50" cy="9.321" r="8.82" style="fill:rgb(225,0,152);"/><circle cx="85.229" cy="29.661" r="8.82" style="fill:rgb(225,0,152);"/><circle cx="85.229" cy="70.34" r="8.82" style="fill:rgb(225,0,152);"/><circle cx="50" cy="90.679" r="8.82" style="fill:rgb(225,0,152);"/><circle cx="14.766" cy="70.34" r="8.82" style="fill:rgb(225,0,152);"/><circle cx="14.766" cy="29.661" r="8.82" style="fill:rgb(225,0,152);"/></g><g id="graphql1" serif:id="graphql"></g></g></svg>