<?xml version="1.0" encoding="UTF-8" standalone="no"?><!DOCTYPE svg PUBLIC "-//W3C//DTD SVG 1.1//EN" "http://www.w3.org/Graphics/SVG/1.1/DTD/svg11.dtd"><svg width="100%" height="100%" viewBox="0 0 18 16" version="1.1" xmlns="http://www.w3.org/2000/svg" xmlns:xlink="http://www.w3.org/1999/xlink" xml:space="preserve" xmlns:serif="http://www.serif.com/" style="fill-rule:evenodd;clip-rule:evenodd;stroke-linejoin:round;stroke-miterlimit:2;"><g transform="matrix(0.5,0,0,0.5,9,8)"><g id="file-audio" serif:id="file audio" transform="matrix(1,0,0,1,-16,-16)"><path d="M17.229,4C17.018,4.008 16.817,4.09 16.66,4.232L9.06,10.552C8.809,10.802 8.457,10.922 8.105,10.88L3.208,10.88C3.205,10.88 3.203,10.88 3.2,10.88C2.542,10.88 2,11.422 2,12.08C2,12.083 2,12.085 2,12.088L2,19.914C2,19.916 2,19.918 2,19.92C2,20.578 2.542,21.12 3.2,21.12C3.203,21.12 3.205,21.12 3.208,21.12L8.1,21.12C8.452,21.078 8.804,21.198 9.055,21.448L16.655,27.768C17.176,28.201 17.736,27.992 17.736,27.479L17.736,4.522C17.737,4.513 17.737,4.503 17.737,4.494C17.737,4.223 17.514,4 17.243,4C17.238,4 17.234,4 17.229,4ZM27,6.3L25.209,8.093C28.291,12.915 28.291,19.115 25.209,23.937L26.994,25.713C30.991,19.875 30.993,12.14 27,6.3ZM22.667,10.623L20.905,12.4C22.507,14.539 22.507,17.498 20.905,19.637L22.661,21.393C25.198,18.268 25.202,13.754 22.671,10.624L22.667,10.623Z" style="fill:rgb(114,134,149);fill-rule:nonzero;"/></g><g id="file-audio1" serif:id="file audio"></g></g></svg>