<?xml version="1.0" encoding="UTF-8" standalone="no"?><!DOCTYPE svg PUBLIC "-//W3C//DTD SVG 1.1//EN" "http://www.w3.org/Graphics/SVG/1.1/DTD/svg11.dtd"><svg width="100%" height="100%" viewBox="0 0 18 16" version="1.1" xmlns="http://www.w3.org/2000/svg" xmlns:xlink="http://www.w3.org/1999/xlink" xml:space="preserve" xmlns:serif="http://www.serif.com/" style="fill-rule:evenodd;clip-rule:evenodd;stroke-linejoin:round;stroke-miterlimit:2;"><g transform="matrix(0.0625,0,0,0.0625,9,8)"><g id="readme" transform="matrix(1,0,0,1,-128,-128)"><path d="M224,48L160,48C147.413,48.001 135.539,53.948 128,64.028C120.461,53.948 108.587,48.001 96,48L32,48C23.226,48.01 16.01,55.226 16,64L16,192C16.01,200.774 23.226,207.99 32,208L96,208C109.16,208.015 119.985,218.84 120,232C120,236.389 123.611,240 128,240C132.389,240 136,236.389 136,232C136.015,218.84 146.84,208.015 160,208L224,208C232.774,207.99 239.99,200.774 240,192L240,64C239.99,55.226 232.774,48.01 224,48ZM96,192L32,192.01L32,192L32,64L96,64C109.16,64.015 119.985,74.84 120,88L120,200.019C113.087,194.807 104.658,191.991 96,192ZM224,192L160,192C151.342,191.991 142.913,194.808 136,200.022L136,88C136.015,74.84 146.84,64.015 160,64L224,64L224,192Z" style="fill:rgb(114,134,149);fill-rule:nonzero;"/></g><g id="readme1" serif:id="readme"></g></g></svg>