<?xml version="1.0" encoding="UTF-8" standalone="no"?><!DOCTYPE svg PUBLIC "-//W3C//DTD SVG 1.1//EN" "http://www.w3.org/Graphics/SVG/1.1/DTD/svg11.dtd"><svg width="100%" height="100%" viewBox="0 0 18 16" version="1.1" xmlns="http://www.w3.org/2000/svg" xmlns:xlink="http://www.w3.org/1999/xlink" xml:space="preserve" xmlns:serif="http://www.serif.com/" style="fill-rule:evenodd;clip-rule:evenodd;stroke-linejoin:round;stroke-miterlimit:2;"><g transform="matrix(0.0238095,0,0,0.0238095,9,8)"><g id="blend" transform="matrix(1,0,0,1,-315,-275)"><g transform="matrix(4.1667,0,0,4.16665,-202.544,1792.5)"><g id="vlpa"><g><g transform="matrix(5.1923,0,0,5.1923,-1154.3,1375.3)"><path d="M243.13,-333.72C243.236,-335.611 244.162,-337.277 245.559,-338.458C246.929,-339.618 248.773,-340.327 250.785,-340.327C252.795,-340.327 254.639,-339.618 256.01,-338.458C257.406,-337.277 258.332,-335.611 258.439,-333.722C258.545,-331.779 257.764,-329.974 256.394,-328.636C254.997,-327.275 253.01,-326.421 250.785,-326.421C248.56,-326.421 246.569,-327.275 245.173,-328.636C243.802,-329.974 243.023,-331.779 243.13,-333.72Z" style="fill:white;fill-rule:nonzero;"/></g><g transform="matrix(2.6642,0,0,2.6642,-520.32,532.51)"><path d="M243.13,-333.72C243.236,-335.611 244.162,-337.277 245.559,-338.458C246.929,-339.618 248.773,-340.327 250.785,-340.327C252.795,-340.327 254.639,-339.618 256.01,-338.458C257.406,-337.277 258.332,-335.611 258.439,-333.722C258.545,-331.779 257.764,-329.974 256.394,-328.636C254.997,-327.275 253.01,-326.421 250.785,-326.421C248.56,-326.421 246.569,-327.275 245.173,-328.636C243.802,-329.974 243.023,-331.779 243.13,-333.72Z" style="fill:rgb(38,87,135);fill-rule:nonzero;"/><path d="M230.94,-329.89C230.953,-329.15 231.189,-327.712 231.543,-326.589C232.287,-324.212 233.549,-322.013 235.305,-320.075C237.107,-318.083 239.326,-316.483 241.889,-315.347C244.583,-314.154 247.502,-313.546 250.534,-313.551C253.561,-313.555 256.48,-314.175 259.174,-315.377C261.737,-316.524 263.954,-318.131 265.753,-320.124C267.508,-322.07 268.768,-324.273 269.514,-326.65C269.889,-327.851 270.126,-329.07 270.221,-330.293C270.314,-331.498 270.275,-332.705 270.104,-333.911C269.77,-336.261 268.957,-338.466 267.705,-340.476C266.56,-342.323 265.084,-343.94 263.329,-345.301L263.333,-345.304L245.622,-358.903C245.606,-358.915 245.593,-358.928 245.576,-358.939C244.414,-359.831 242.46,-359.828 241.182,-358.934C239.89,-358.03 239.742,-356.535 240.892,-355.592L240.887,-355.587L248.274,-349.58L225.759,-349.556L225.729,-349.556C223.868,-349.554 222.079,-348.333 221.725,-346.79C221.361,-345.218 222.625,-343.914 224.56,-343.907L224.557,-343.9L235.969,-343.922L215.605,-328.291C215.579,-328.272 215.551,-328.252 215.527,-328.233C213.606,-326.762 212.985,-324.316 214.195,-322.768C215.423,-321.194 218.034,-321.191 219.975,-322.759L231.089,-331.855C231.089,-331.855 230.927,-330.627 230.94,-329.89ZM259.499,-325.778C257.209,-323.445 254.003,-322.122 250.534,-322.115C247.06,-322.109 243.854,-323.42 241.564,-325.749C240.445,-326.884 239.623,-328.19 239.116,-329.581C238.619,-330.948 238.426,-332.399 238.554,-333.863C238.675,-335.294 239.101,-336.659 239.781,-337.894C240.449,-339.108 241.369,-340.205 242.505,-341.133C244.731,-342.947 247.565,-343.929 250.529,-343.933C253.496,-343.937 256.328,-342.964 258.556,-341.156C259.69,-340.232 260.609,-339.139 261.277,-337.927C261.96,-336.693 262.383,-335.333 262.509,-333.898C262.635,-332.436 262.442,-330.987 261.945,-329.619C261.437,-328.224 260.618,-326.918 259.499,-325.778Z" style="fill:rgb(234,118,0);fill-rule:nonzero;"/></g></g></g></g></g><g id="blend1" serif:id="blend"></g></g></svg>