<?xml version="1.0" encoding="UTF-8" standalone="no"?><!DOCTYPE svg PUBLIC "-//W3C//DTD SVG 1.1//EN" "http://www.w3.org/Graphics/SVG/1.1/DTD/svg11.dtd"><svg width="100%" height="100%" viewBox="0 0 18 16" version="1.1" xmlns="http://www.w3.org/2000/svg" xmlns:xlink="http://www.w3.org/1999/xlink" xml:space="preserve" xmlns:serif="http://www.serif.com/" style="fill-rule:evenodd;clip-rule:evenodd;stroke-linejoin:round;stroke-miterlimit:2;"><g transform="matrix(0.0428571,0,0,0.0428571,9,8)"><g id="php8" transform="matrix(1,0,0,1,-175,-175)"><g id="rect4138" transform="matrix(0.484765,0,0,1,0,0)"><rect x="0" y="0" width="722" height="350" style="fill:rgb(96,130,187);"/></g><g id="path3486" transform="matrix(1,0,0,1,-186,0)"><path d="M270.267,192.576C278.197,192.576 284.118,191.091 287.864,188.162C291.57,185.264 294.129,180.243 295.471,173.238C296.721,166.691 296.245,162.12 294.055,159.653C291.815,157.133 286.974,155.855 279.664,155.855L266.991,155.855L259.965,192.576L270.267,192.576ZM228.815,237.81C228.227,237.81 227.668,237.543 227.294,237.081C226.92,236.62 226.768,236.012 226.88,235.425L245.5,138.114C245.681,137.173 246.492,136.493 247.436,136.493L287.567,136.493C300.18,136.493 309.567,139.972 315.468,146.833C321.4,153.731 323.232,163.372 320.912,175.49C319.968,180.426 318.345,185.011 316.087,189.116C313.826,193.225 310.839,197.028 307.206,200.419C302.857,204.553 297.935,207.551 292.59,209.315C287.33,211.056 280.574,211.938 272.511,211.938L256.261,211.938L251.621,236.189C251.44,237.13 250.629,237.81 249.685,237.81L228.815,237.81Z" style="fill:white;fill-rule:nonzero;"/></g><g id="path3494" transform="matrix(1,0,0,1,-186,0)"><path d="M370.398,211.938C369.816,211.938 369.265,211.671 368.896,211.209C368.526,210.748 368.376,210.141 368.487,209.553L376.618,166.497C377.391,162.402 377.2,159.463 376.081,158.221C375.396,157.462 373.338,156.189 367.252,156.189L352.521,156.189L342.298,210.317C342.12,211.259 341.319,211.938 340.387,211.938L319.947,211.938C319.366,211.938 318.815,211.671 318.445,211.209C318.075,210.748 317.925,210.14 318.036,209.553L336.418,112.242C336.595,111.301 337.397,110.622 338.329,110.622L358.768,110.622C359.35,110.622 359.901,110.889 360.271,111.35C360.64,111.812 360.79,112.419 360.679,113.007L356.244,136.493L372.091,136.493C384.163,136.493 392.349,138.683 397.117,143.189C401.977,147.785 403.494,155.134 401.625,165.034L393.073,210.317C392.895,211.259 392.094,211.938 391.162,211.938L370.398,211.938Z" style="fill:white;fill-rule:nonzero;"/></g><g id="path3502" transform="matrix(1,0,0,1,-186,0)"><path d="M439.25,192.576C447.484,192.576 453.632,191.091 457.522,188.162C461.37,185.265 464.027,180.243 465.421,173.238C466.72,166.691 466.225,162.12 463.95,159.653C461.625,157.133 456.597,155.855 449.008,155.855L435.848,155.855L428.552,192.576L439.25,192.576ZM396.208,237.81C395.597,237.81 395.017,237.543 394.629,237.081C394.24,236.62 394.082,236.012 394.198,235.425L413.533,138.114C413.721,137.173 414.563,136.493 415.544,136.493L457.214,136.493C470.311,136.493 480.058,139.972 486.185,146.833C492.345,153.73 494.247,163.372 491.839,175.49C490.857,180.426 489.172,185.011 486.828,189.116C484.481,193.225 481.378,197.028 477.606,200.419C473.091,204.553 467.98,207.551 462.43,209.315C456.967,211.056 449.952,211.938 441.58,211.938L424.706,211.938L419.889,236.189C419.702,237.13 418.859,237.81 417.878,237.81L396.208,237.81Z" style="fill:white;fill-rule:nonzero;"/></g></g><g id="php81" serif:id="php8"></g></g></svg>