<?xml version="1.0" encoding="UTF-8" standalone="no"?><!DOCTYPE svg PUBLIC "-//W3C//DTD SVG 1.1//EN" "http://www.w3.org/Graphics/SVG/1.1/DTD/svg11.dtd"><svg width="100%" height="100%" viewBox="0 0 18 16" version="1.1" xmlns="http://www.w3.org/2000/svg" xmlns:xlink="http://www.w3.org/1999/xlink" xml:space="preserve" xmlns:serif="http://www.serif.com/" style="fill-rule:evenodd;clip-rule:evenodd;stroke-linejoin:round;stroke-miterlimit:2;"><g transform="matrix(0.472203,0,0,0.472203,9,8)"><g id="xml" transform="matrix(1,0,0,1,-18.0007,-7.00202)"><clipPath id="_clip1"><rect x="0" y="0" width="36.001" height="14.004"/></clipPath><g clip-path="url(#_clip1)"><path id="path2764" d="M35.998,14L34.995,13.021L34.975,0.995L35.998,0.008L35.998,14Z" style="fill:rgb(128,51,0);"/><rect id="rect1873" x="0.987" y="0.995" width="34.008" height="12.03" style="fill:rgb(255,102,0);"/><path id="path1875" d="M0,0L36.001,0.004L34.983,0.991L0.999,1.003L0,0Z" style="fill:rgb(255,204,170);"/><path id="path2762" d="M0.004,14L36.001,14.004L34.994,13.017L0.987,13.017L0.004,14Z" style="fill:rgb(85,34,0);"/><path id="path3651" d="M0.995,13.009L0,14L0,0L0.991,0.991L0.995,13.009Z" style="fill:rgb(255,153,85);"/><g id="g4580"><path id="text4574" d="M4.817,3.867L7.741,3.867L9.264,6.51L10.741,3.867L13.635,3.867L10.963,8.028L13.887,12.457L10.905,12.457L9.212,9.697L7.512,12.457L4.547,12.457L7.512,7.981L4.817,3.867ZM14.708,3.867L18.2,3.867L19.547,9.094L20.889,3.867L24.37,3.867L24.37,12.457L22.202,12.457L22.202,5.906L20.52,12.457L18.557,12.457L16.881,5.906L16.881,12.457L14.708,12.457L14.708,3.867ZM26.057,3.867L28.712,3.867L28.712,10.342L32.854,10.342L32.854,12.457L26.057,12.457L26.057,3.867Z" style="fill:rgb(128,51,0);fill-rule:nonzero;"/><path id="text4570" d="M4.242,2.939L7.166,2.939L8.69,5.582L10.166,2.939L13.061,2.939L10.389,7.099L13.313,11.529L10.33,11.529L8.637,8.769L6.938,11.529L3.973,11.529L6.938,7.053L4.242,2.939ZM14.133,2.939L17.625,2.939L18.973,8.166L20.315,2.939L23.795,2.939L23.795,11.529L21.627,11.529L21.627,4.978L19.946,11.529L17.983,11.529L16.307,4.978L16.307,11.529L14.133,11.529L14.133,2.939ZM25.483,2.939L28.137,2.939L28.137,9.414L32.28,9.414L32.28,11.529L25.483,11.529L25.483,2.939Z" style="fill:white;fill-rule:nonzero;"/></g></g></g><g id="xml1" serif:id="xml"></g></g></svg>