<?xml version="1.0" encoding="UTF-8" standalone="no"?><!DOCTYPE svg PUBLIC "-//W3C//DTD SVG 1.1//EN" "http://www.w3.org/Graphics/SVG/1.1/DTD/svg11.dtd"><svg width="100%" height="100%" viewBox="0 0 18 16" version="1.1" xmlns="http://www.w3.org/2000/svg" xmlns:xlink="http://www.w3.org/1999/xlink" xml:space="preserve" xmlns:serif="http://www.serif.com/" style="fill-rule:evenodd;clip-rule:evenodd;stroke-linejoin:round;stroke-miterlimit:2;"><g transform="matrix(0.0759186,0,0,0.0759186,9,8)"><g id="ruby" transform="matrix(1,0,0,1,-99.065,-98.79)"><path id="polygon3282" d="M153.5,130.41L40.38,197.58L186.849,187.641L198.13,39.95L153.5,130.41Z" style="fill:url(#_Linear1);"/><path id="polygon3293" d="M187.089,187.54L174.5,100.65L140.209,145.93L187.089,187.54Z" style="fill:url(#_Linear2);"/><path id="polygon3304" d="M187.259,187.54L95.03,180.3L40.87,197.391L187.259,187.54Z" style="fill:url(#_Linear3);"/><path id="polygon3319" d="M41,197.41L64.04,121.93L13.34,132.771L41,197.41Z" style="fill:url(#_Linear4);"/><path id="polygon3334" d="M140.2,146.18L119,63.14L58.33,120.01L140.2,146.18Z" style="fill:url(#_Linear5);"/><path id="polygon3349" d="M193.32,64.31L135.97,17.47L120,69.1L193.32,64.31Z" style="fill:url(#_Linear6);"/><path id="polygon3362" d="M166.5,0.77L132.77,19.41L111.49,0.52L166.5,0.77Z" style="fill:url(#_Linear7);"/><path id="polygon3375" d="M0,158.09L14.13,132.32L2.7,101.62L0,158.09Z" style="fill:url(#_Linear8);"/><path id="path3377" d="M1.94,100.65L13.44,133.27L63.41,122.059L120.46,69.039L136.56,17.9L111.209,0L68.109,16.13C54.53,28.76 28.18,53.75 27.23,54.22C26.29,54.7 9.83,85.81 1.94,100.65Z" style="fill:white;"/><path id="path3400" d="M42.32,42.05C71.75,12.87 109.69,-4.37 124.25,10.32C138.801,25.01 123.37,60.71 93.94,89.88C64.51,119.05 27.04,137.24 12.49,122.55C-2.07,107.87 12.89,71.22 42.32,42.05Z" style="fill:url(#_Linear9);"/><path id="path3413" d="M41,197.38L63.86,121.66L139.78,146.05C112.33,171.79 81.8,193.55 41,197.38Z" style="fill:url(#_Linear10);"/><path id="path3424" d="M120.56,68.89L140.05,146.09C162.98,121.98 183.56,96.06 193.639,64L120.56,68.89Z" style="fill:url(#_Linear11);"/><path id="path3435" d="M193.44,64.39C201.24,40.85 203.04,7.08 166.259,0.81L136.079,17.48L193.44,64.39Z" style="fill:url(#_Linear12);"/><path id="path3437" d="M0,157.75C1.08,196.601 29.11,197.18 41.05,197.521L13.47,133.11L0,157.75Z" style="fill:rgb(158,18,9);"/><path id="path3448" d="M120.669,69.01C138.289,79.84 173.8,101.59 174.52,101.99C175.639,102.62 189.83,78.06 193.05,64.18L120.669,69.01Z" style="fill:url(#_Radial13);"/><path id="path3459" d="M63.83,121.66L94.39,180.62C112.46,170.82 126.61,158.88 139.57,146.09L63.83,121.66Z" style="fill:url(#_Radial14);"/><path id="path3472" d="M13.35,133.19L9.02,184.75C17.19,195.91 28.43,196.88 40.22,196.01C31.69,174.78 14.65,132.33 13.35,133.19Z" style="fill:url(#_Linear15);"/><path id="path3485" d="M135.9,17.61L196.61,26.13C193.37,12.4 183.42,3.54 166.46,0.77L135.9,17.61Z" style="fill:url(#_Linear16);"/></g><g id="ruby1" serif:id="ruby"></g></g><defs><linearGradient id="_Linear1" x1="0" y1="0" x2="1" y2="0" gradientUnits="userSpaceOnUse" gradientTransform="matrix(-41.7974,-73.7955,73.7955,-41.7974,174.074,215.549)"><stop offset="0" style="stop-color:rgb(251,118,85);stop-opacity:1"/><stop offset="0" style="stop-color:rgb(251,118,85);stop-opacity:1"/><stop offset="0.41" style="stop-color:rgb(228,43,30);stop-opacity:1"/><stop offset="0.99" style="stop-color:rgb(153,0,0);stop-opacity:1"/><stop offset="1" style="stop-color:rgb(153,0,0);stop-opacity:1"/></linearGradient><linearGradient id="_Linear2" x1="0" y1="0" x2="1" y2="0" gradientUnits="userSpaceOnUse" gradientTransform="matrix(-53.8674,-36.1483,36.1483,-53.8674,194.895,153.558)"><stop offset="0" style="stop-color:rgb(135,17,1);stop-opacity:1"/><stop offset="0" style="stop-color:rgb(135,17,1);stop-opacity:1"/><stop offset="0.99" style="stop-color:rgb(145,18,9);stop-opacity:1"/><stop offset="1" style="stop-color:rgb(145,18,9);stop-opacity:1"/></linearGradient><linearGradient id="_Linear3" x1="0" y1="0" x2="1" y2="0" gradientUnits="userSpaceOnUse" gradientTransform="matrix(-53.8657,-36.1472,36.1472,-53.8657,151.795,217.785)"><stop offset="0" style="stop-color:rgb(135,17,1);stop-opacity:1"/><stop offset="0" style="stop-color:rgb(135,17,1);stop-opacity:1"/><stop offset="0.99" style="stop-color:rgb(145,18,9);stop-opacity:1"/><stop offset="1" style="stop-color:rgb(145,18,9);stop-opacity:1"/></linearGradient><linearGradient id="_Linear4" x1="0" y1="0" x2="1" y2="0" gradientUnits="userSpaceOnUse" gradientTransform="matrix(8.3506,54.2708,-54.2708,8.3506,38.6963,127.391)"><stop offset="0" style="stop-color:white;stop-opacity:1"/><stop offset="0" style="stop-color:white;stop-opacity:1"/><stop offset="0.23" style="stop-color:rgb(229,114,82);stop-opacity:1"/><stop offset="0.46" style="stop-color:rgb(222,59,32);stop-opacity:1"/><stop offset="0.99" style="stop-color:rgb(166,0,3);stop-opacity:1"/><stop offset="1" style="stop-color:rgb(166,0,3);stop-opacity:1"/></linearGradient><linearGradient id="_Linear5" x1="0" y1="0" x2="1" y2="0" gradientUnits="userSpaceOnUse" gradientTransform="matrix(3.07681,55.3868,-55.3868,3.07681,96.1328,76.7153)"><stop offset="0" style="stop-color:white;stop-opacity:1"/><stop offset="0" style="stop-color:white;stop-opacity:1"/><stop offset="0.23" style="stop-color:rgb(228,113,78);stop-opacity:1"/><stop offset="0.56" style="stop-color:rgb(190,26,13);stop-opacity:1"/><stop offset="0.99" style="stop-color:rgb(168,13,0);stop-opacity:1"/><stop offset="1" style="stop-color:rgb(168,13,0);stop-opacity:1"/></linearGradient><linearGradient id="_Linear6" x1="0" y1="0" x2="1" y2="0" gradientUnits="userSpaceOnUse" gradientTransform="matrix(9.2111,39.6952,-39.6952,9.2111,147.103,25.521)"><stop offset="0" style="stop-color:white;stop-opacity:1"/><stop offset="0" style="stop-color:white;stop-opacity:1"/><stop offset="0.18" style="stop-color:rgb(228,99,66);stop-opacity:1"/><stop offset="0.4" style="stop-color:rgb(200,36,16);stop-opacity:1"/><stop offset="0.99" style="stop-color:rgb(168,13,0);stop-opacity:1"/><stop offset="1" style="stop-color:rgb(168,13,0);stop-opacity:1"/></linearGradient><linearGradient id="_Linear7" x1="0" y1="0" x2="1" y2="0" gradientUnits="userSpaceOnUse" gradientTransform="matrix(39.6925,-19.8463,19.8463,39.6925,118.976,11.5415)"><stop offset="0" style="stop-color:white;stop-opacity:1"/><stop offset="0" style="stop-color:white;stop-opacity:1"/><stop offset="0.54" style="stop-color:rgb(200,31,17);stop-opacity:1"/><stop offset="0.99" style="stop-color:rgb(191,9,5);stop-opacity:1"/><stop offset="1" style="stop-color:rgb(191,9,5);stop-opacity:1"/></linearGradient><linearGradient id="_Linear8" x1="0" y1="0" x2="1" y2="0" gradientUnits="userSpaceOnUse" gradientTransform="matrix(3.2669,32.7081,-32.7081,3.2669,3.9033,113.555)"><stop offset="0" style="stop-color:white;stop-opacity:1"/><stop offset="0" style="stop-color:white;stop-opacity:1"/><stop offset="0.31" style="stop-color:rgb(222,64,36);stop-opacity:1"/><stop offset="0.99" style="stop-color:rgb(191,25,11);stop-opacity:1"/><stop offset="1" style="stop-color:rgb(191,25,11);stop-opacity:1"/></linearGradient><linearGradient id="_Linear9" x1="0" y1="0" x2="1" y2="0" gradientUnits="userSpaceOnUse" gradientTransform="matrix(153.571,-157.914,157.914,153.571,-18.5557,155.105)"><stop offset="0" style="stop-color:rgb(189,0,18);stop-opacity:1"/><stop offset="0" style="stop-color:rgb(189,0,18);stop-opacity:1"/><stop offset="0.07" style="stop-color:white;stop-opacity:1"/><stop offset="0.17" style="stop-color:white;stop-opacity:1"/><stop offset="0.27" style="stop-color:rgb(200,47,28);stop-opacity:1"/><stop offset="0.33" style="stop-color:rgb(130,12,1);stop-opacity:1"/><stop offset="0.46" style="stop-color:rgb(163,22,1);stop-opacity:1"/><stop offset="0.72" style="stop-color:rgb(179,19,1);stop-opacity:1"/><stop offset="0.99" style="stop-color:rgb(232,38,9);stop-opacity:1"/><stop offset="1" style="stop-color:rgb(232,38,9);stop-opacity:1"/></linearGradient><linearGradient id="_Linear10" x1="0" y1="0" x2="1" y2="0" gradientUnits="userSpaceOnUse" gradientTransform="matrix(-46.257,-11.4166,11.4166,-46.257,99.0747,171.033)"><stop offset="0" style="stop-color:rgb(140,12,1);stop-opacity:1"/><stop offset="0" style="stop-color:rgb(140,12,1);stop-opacity:1"/><stop offset="0.54" style="stop-color:rgb(153,12,0);stop-opacity:1"/><stop offset="0.99" style="stop-color:rgb(168,13,14);stop-opacity:1"/><stop offset="1" style="stop-color:rgb(168,13,14);stop-opacity:1"/></linearGradient><linearGradient id="_Linear11" x1="0" y1="0" x2="1" y2="0" gradientUnits="userSpaceOnUse" gradientTransform="matrix(-41.0932,-36.8306,36.8306,-41.0932,178.526,115.515)"><stop offset="0" style="stop-color:rgb(126,17,11);stop-opacity:1"/><stop offset="0" style="stop-color:rgb(126,17,11);stop-opacity:1"/><stop offset="0.99" style="stop-color:rgb(158,12,0);stop-opacity:1"/><stop offset="1" style="stop-color:rgb(158,12,0);stop-opacity:1"/></linearGradient><linearGradient id="_Linear12" x1="0" y1="0" x2="1" y2="0" gradientUnits="userSpaceOnUse" gradientTransform="matrix(-20.4693,-21.8832,21.8832,-20.4693,193.624,47.937)"><stop offset="0" style="stop-color:rgb(121,19,13);stop-opacity:1"/><stop offset="0" style="stop-color:rgb(121,19,13);stop-opacity:1"/><stop offset="0.99" style="stop-color:rgb(158,18,11);stop-opacity:1"/><stop offset="1" style="stop-color:rgb(158,18,11);stop-opacity:1"/></linearGradient><radialGradient id="_Radial13" cx="0" cy="0" r="1" gradientUnits="userSpaceOnUse" gradientTransform="matrix(50.3576,0,0,50.3576,143.832,79.3882)"><stop offset="0" style="stop-color:rgb(168,13,0);stop-opacity:1"/><stop offset="0" style="stop-color:rgb(168,13,0);stop-opacity:1"/><stop offset="0.99" style="stop-color:rgb(126,14,8);stop-opacity:1"/><stop offset="1" style="stop-color:rgb(126,14,8);stop-opacity:1"/></radialGradient><radialGradient id="_Radial14" cx="0" cy="0" r="1" gradientUnits="userSpaceOnUse" gradientTransform="matrix(66.9437,0,0,66.9437,74.0923,145.751)"><stop offset="0" style="stop-color:rgb(163,12,0);stop-opacity:1"/><stop offset="0" style="stop-color:rgb(163,12,0);stop-opacity:1"/><stop offset="0.99" style="stop-color:rgb(128,14,8);stop-opacity:1"/><stop offset="1" style="stop-color:rgb(128,14,8);stop-opacity:1"/></radialGradient><linearGradient id="_Linear15" x1="0" y1="0" x2="1" y2="0" gradientUnits="userSpaceOnUse" gradientTransform="matrix(-16.6812,-56.5939,56.5939,-16.6812,26.6699,197.336)"><stop offset="0" style="stop-color:rgb(139,33,20);stop-opacity:1"/><stop offset="0" style="stop-color:rgb(139,33,20);stop-opacity:1"/><stop offset="0.43" style="stop-color:rgb(158,16,10);stop-opacity:1"/><stop offset="0.99" style="stop-color:rgb(179,16,12);stop-opacity:1"/><stop offset="1" style="stop-color:rgb(179,16,12);stop-opacity:1"/></linearGradient><linearGradient id="_Linear16" x1="0" y1="0" x2="1" y2="0" gradientUnits="userSpaceOnUse" gradientTransform="matrix(37.3979,16.508,-16.508,37.3979,154.641,9.7979)"><stop offset="0" style="stop-color:rgb(179,16,0);stop-opacity:1"/><stop offset="0" style="stop-color:rgb(179,16,0);stop-opacity:1"/><stop offset="0.44" style="stop-color:rgb(145,15,8);stop-opacity:1"/><stop offset="0.99" style="stop-color:rgb(121,28,18);stop-opacity:1"/><stop offset="1" style="stop-color:rgb(121,28,18);stop-opacity:1"/></linearGradient></defs></svg>