<?xml version="1.0" encoding="UTF-8" standalone="no"?><!DOCTYPE svg PUBLIC "-//W3C//DTD SVG 1.1//EN" "http://www.w3.org/Graphics/SVG/1.1/DTD/svg11.dtd"><svg width="100%" height="100%" viewBox="0 0 18 16" version="1.1" xmlns="http://www.w3.org/2000/svg" xmlns:xlink="http://www.w3.org/1999/xlink" xml:space="preserve" xmlns:serif="http://www.serif.com/" style="fill-rule:evenodd;clip-rule:evenodd;"><g transform="matrix(0.0244898,0,0,0.0244898,9,8)"><g id="arduino" transform="matrix(1,0,0,1,-362,-172)"><clipPath id="_clip1"><rect x="0" y="0" width="724" height="344"/></clipPath><g clip-path="url(#_clip1)"><g transform="matrix(1,0,0,1,2,0)"><g transform="matrix(1,0,0,1,0.763739,1.26208)"><path d="M174,30C78.9,22.43 -1,135 38,222C76,316.4 219,342 287,266.4C352.9,201.8 378.3,102.4 459,51.4C541,-4.6 673,48.28 689,147.8C704.6,243.1 601.9,335.8 509,307.8C440.3,292.3 391,233.6 363,171.8C328.5,112.8 283.4,49.8 213,33.8C200.5,30.96 187.6,29.84 174.8,29.86L174,30Z" style="fill:none;fill-rule:nonzero;stroke:rgb(0,151,156);stroke-width:59px;"/></g><path d="M118,165L238,165" style="fill:none;fill-rule:nonzero;stroke:rgb(0,151,156);stroke-width:25px;"/><path d="M486,165L586,165M535,115L535,215" style="fill:none;fill-rule:nonzero;stroke:rgb(0,151,156);stroke-width:32px;"/></g></g></g><g id="arduino1" serif:id="arduino"></g></g></svg>