<?xml version="1.0" encoding="UTF-8" standalone="no"?><!DOCTYPE svg PUBLIC "-//W3C//DTD SVG 1.1//EN" "http://www.w3.org/Graphics/SVG/1.1/DTD/svg11.dtd"><svg width="100%" height="100%" viewBox="0 0 18 16" version="1.1" xmlns="http://www.w3.org/2000/svg" xmlns:xlink="http://www.w3.org/1999/xlink" xml:space="preserve" xmlns:serif="http://www.serif.com/" style="fill-rule:evenodd;clip-rule:evenodd;stroke-linejoin:round;stroke-miterlimit:2;"><g id="codecov" transform="matrix(0.25,0,0,0.25,9,8)"><g transform="matrix(1,0,0,1,-30,-30)"><g id="Page-1"><g id="codecov1" serif:id="codecov"><circle id="Oval" cx="30" cy="30" r="30" style="fill:rgb(255,0,119);"/><path id="Path" d="M30.053,7.05C16.797,7.05 6,17.74 6,30.783L6,30.89L10.062,33.242L10.169,33.242C12.735,31.531 15.835,30.89 18.935,31.424C21.073,31.852 23.105,32.814 24.708,34.311L25.457,34.952L25.884,34.097C26.312,33.242 26.739,32.493 27.167,31.745C27.381,31.424 27.595,31.21 27.808,30.89L28.236,30.355L27.702,29.928C25.457,28.11 22.784,26.827 19.898,26.293C17.118,25.758 14.339,25.865 11.773,26.72C13.697,18.275 21.18,12.288 30.053,12.288C35.078,12.288 39.782,14.213 43.31,17.74C45.875,20.199 47.586,23.299 48.334,26.72C46.731,26.186 45.02,25.972 43.31,25.972L42.989,25.972C42.347,25.972 41.706,26.079 40.958,26.079L40.851,26.079C40.637,26.079 40.316,26.186 40.102,26.186C39.675,26.293 39.354,26.293 38.927,26.4C38.927,26.4 37.964,26.72 37.644,26.827L37.537,26.827C36.788,27.041 36.147,27.362 35.399,27.683C35.078,27.789 34.757,28.003 34.437,28.217L34.33,28.217C32.726,29.179 31.229,30.355 30.053,31.852L29.947,32.066C29.626,32.493 29.412,32.814 29.198,33.028C28.984,33.242 28.878,33.562 28.664,33.883L28.557,34.097C28.343,34.417 28.236,34.738 28.129,34.952L28.129,35.059C27.808,35.7 27.488,36.449 27.274,37.197L27.274,37.304C26.739,39.014 26.419,40.832 26.419,42.756L26.419,44.787C26.419,45.001 26.526,45.322 26.526,45.536C27.06,48.101 28.236,50.56 30.053,52.805L30.16,52.912L30.267,52.805C31.016,51.95 32.726,49.277 32.94,47.674C32.085,46.07 31.657,44.253 31.657,42.542C31.657,36.556 36.361,31.531 42.454,31.21L42.882,31.21C45.341,31.103 47.8,31.852 49.831,33.242L49.938,33.242L54,30.89L54,30.783C54,24.475 51.541,18.489 46.944,13.999C42.454,9.509 36.468,7.05 30.053,7.05" style="fill:white;fill-rule:nonzero;"/></g></g></g></g></svg>