<?xml version="1.0" encoding="UTF-8" standalone="no"?><!DOCTYPE svg PUBLIC "-//W3C//DTD SVG 1.1//EN" "http://www.w3.org/Graphics/SVG/1.1/DTD/svg11.dtd"><svg width="100%" height="100%" viewBox="0 0 18 16" version="1.1" xmlns="http://www.w3.org/2000/svg" xmlns:xlink="http://www.w3.org/1999/xlink" xml:space="preserve" xmlns:serif="http://www.serif.com/" style="fill-rule:evenodd;clip-rule:evenodd;stroke-linejoin:round;stroke-miterlimit:2;"><g id="vitest" transform="matrix(0.0615385,0,0,0.0615385,9,8)"><g transform="matrix(1,0,0,1,-130,-130)"><path d="M190.4,90.219L133.456,172.553C132.852,173.426 131.979,174.08 130.969,174.416C129.959,174.752 128.867,174.748 127.859,174.411C126.851,174.072 125.982,173.415 125.383,172.541C124.785,171.665 124.49,170.618 124.543,169.561L126.822,124.104L90.03,116.301C89.244,116.134 88.511,115.777 87.897,115.261C87.283,114.745 86.806,114.086 86.509,113.343C86.212,112.599 86.104,111.794 86.195,110.998C86.285,110.203 86.571,109.441 87.028,108.782L143.973,26.447C144.577,25.574 145.45,24.92 146.46,24.585C147.47,24.249 148.562,24.251 149.57,24.59C150.578,24.928 151.447,25.585 152.046,26.461C152.644,27.336 152.939,28.382 152.886,29.44L150.607,74.898L187.399,82.7C188.185,82.867 188.918,83.224 189.532,83.74C190.147,84.256 190.623,84.915 190.919,85.658C191.217,86.402 191.324,87.207 191.234,88.003C191.144,88.798 190.857,89.56 190.4,90.22L190.4,90.219Z" style="fill:rgb(252,199,43);fill-rule:nonzero;"/><path d="M130.767,241.631C129.252,241.633 127.752,241.337 126.353,240.757C124.954,240.177 123.683,239.326 122.613,238.255L68.807,184.452C66.654,182.288 65.448,179.359 65.452,176.307C65.456,173.255 66.67,170.327 68.828,168.17C70.987,166.011 73.913,164.796 76.966,164.791C80.018,164.788 82.948,165.993 85.112,168.146L130.767,213.796L230.226,114.341C232.394,112.208 235.317,111.018 238.359,111.03C241.401,111.043 244.315,112.256 246.464,114.407C248.615,116.558 249.83,119.471 249.843,122.513C249.854,125.555 248.664,128.478 246.53,130.646L138.918,238.255C137.849,239.328 136.578,240.177 135.179,240.757C133.781,241.337 132.281,241.633 130.767,241.631Z" style="fill:rgb(114,155,27);fill-rule:nonzero;"/><path d="M130.72,241.631C132.235,241.633 133.735,241.337 135.134,240.757C136.534,240.177 137.804,239.326 138.874,238.255L192.68,184.452C194.833,182.288 196.04,179.359 196.035,176.307C196.032,173.255 194.817,170.327 192.658,168.17C190.5,166.011 187.573,164.796 184.521,164.791C181.469,164.788 178.54,165.993 176.375,168.146L130.72,213.796L31.261,114.341C29.093,112.208 26.17,111.018 23.128,111.03C20.086,111.043 17.173,112.256 15.022,114.407C12.871,116.558 11.658,119.471 11.645,122.513C11.633,125.555 12.823,128.478 14.956,130.646L122.569,238.255C123.638,239.328 124.909,240.177 126.308,240.757C127.707,241.337 129.206,241.633 130.72,241.631Z" style="fill:rgb(114,155,27);fill-opacity:0.5;fill-rule:nonzero;"/></g></g></svg>