<?xml version="1.0" encoding="UTF-8" standalone="no"?><!DOCTYPE svg PUBLIC "-//W3C//DTD SVG 1.1//EN" "http://www.w3.org/Graphics/SVG/1.1/DTD/svg11.dtd"><svg width="100%" height="100%" viewBox="0 0 18 16" version="1.1" xmlns="http://www.w3.org/2000/svg" xmlns:xlink="http://www.w3.org/1999/xlink" xml:space="preserve" xmlns:serif="http://www.serif.com/" style="fill-rule:evenodd;clip-rule:evenodd;stroke-linejoin:round;stroke-miterlimit:2;"><g transform="matrix(0.006,0,0,0.006,9,8)"><g id="javascript" transform="matrix(1,0,0,1,-1250,-1250)"><rect x="0" y="0" width="2500" height="2500" style="fill:rgb(247,223,30);fill-rule:nonzero;"/><path d="M657.344,2089.18L848.652,1973.4C885.566,2038.84 919.141,2094.21 999.678,2094.21C1076.88,2094.21 1125.56,2064.01 1125.56,1946.55L1125.56,1147.74L1360.49,1147.74L1360.49,1949.87C1360.49,2193.2 1217.85,2303.97 1009.75,2303.97C821.807,2303.97 712.715,2206.63 657.334,2089.16M1488.1,2064L1679.38,1953.25C1729.75,2035.49 1795.19,2095.9 1910.98,2095.9C2008.33,2095.9 2070.4,2047.23 2070.4,1980.1C2070.4,1899.55 2006.63,1871.02 1899.23,1824.04L1840.51,1798.85C1671.01,1726.71 1558.57,1636.08 1558.57,1444.78C1558.57,1268.56 1692.82,1134.31 1902.6,1134.31C2051.95,1134.31 2159.36,1186.34 2236.54,1322.27L2053.61,1439.75C2013.33,1367.59 1969.72,1339.06 1902.59,1339.06C1833.78,1339.06 1790.15,1382.69 1790.15,1439.75C1790.15,1510.23 1833.78,1538.77 1934.46,1582.4L1993.19,1607.57C2192.9,1693.16 2305.33,1780.42 2305.33,1976.75C2305.33,2188.21 2139.2,2303.99 1916.01,2303.99C1697.85,2303.99 1556.88,2199.95 1488.09,2064.01" style="fill-rule:nonzero;"/></g><g id="javascript1" serif:id="javascript"></g></g></svg>