<?xml version="1.0" encoding="UTF-8" standalone="no"?><!DOCTYPE svg PUBLIC "-//W3C//DTD SVG 1.1//EN" "http://www.w3.org/Graphics/SVG/1.1/DTD/svg11.dtd"><svg width="100%" height="100%" viewBox="0 0 18 16" version="1.1" xmlns="http://www.w3.org/2000/svg" xmlns:xlink="http://www.w3.org/1999/xlink" xml:space="preserve" xmlns:serif="http://www.serif.com/" style="fill-rule:evenodd;clip-rule:evenodd;stroke-linejoin:round;stroke-miterlimit:2;"><g id="netlify" transform="matrix(0.117188,0,0,0.117188,9,8)"><g transform="matrix(1,0,0,1,-64,-64)"><g><path d="M125.189,54.774L73.226,2.811L71.296,0.885L69.161,0L58.839,0L56.704,0.885L54.774,2.811L2.811,54.774L0.885,56.704L0,58.839L0,69.161L0.885,71.296L2.811,73.226L54.774,125.189L56.704,127.115L58.839,128L69.161,128L71.296,127.115L73.226,125.189L125.189,73.226L127.115,71.296L128,69.161L128,58.839L127.115,56.704L125.189,54.774Z" style="fill:rgb(1,72,71);fill-rule:nonzero;"/><path d="M59.368,116.019L59.368,91.056L60.031,90.393L67.974,90.393L68.636,91.056L68.636,116.019L67.974,116.681L60.031,116.681L59.368,116.019Z" style="fill:rgb(50,230,226);fill-rule:nonzero;"/><path d="M59.368,36.944L59.368,11.981L60.031,11.319L67.974,11.319L68.636,11.981L68.636,36.944L67.974,37.607L60.031,37.607L59.368,36.944Z" style="fill:rgb(50,230,226);fill-rule:nonzero;"/><path d="M38.39,97.522L37.296,97.522L31.839,92.065L31.839,90.971L39.11,83.695L44.887,83.7L45.661,84.469L45.661,90.246L38.39,97.522Z" style="fill:rgb(50,230,226);fill-rule:nonzero;"/><path d="M31.839,37.305L31.839,36.215L37.296,30.754L38.385,30.754L45.661,38.03L45.661,43.802L44.892,44.581L39.115,44.581L31.839,37.305Z" style="fill:rgb(50,230,226);fill-rule:nonzero;"/><path d="M9.86,59.355L37.936,59.355L38.599,60.017L38.599,67.969L37.936,68.632L9.86,68.632L9.197,67.969L9.197,60.017L9.86,59.355Z" style="fill:rgb(50,230,226);fill-rule:nonzero;"/><path d="M78.883,80.538L70.945,80.538L70.282,79.875L70.282,61.294C70.286,57.985 68.988,55.423 64.994,55.339C62.944,55.285 60.591,55.339 58.083,55.441L57.705,55.828L57.709,79.875L57.047,80.538L49.108,80.538L48.445,79.875L48.445,48.125L49.108,47.462L66.969,47.462C73.911,47.462 79.537,53.088 79.537,60.031L79.537,79.875L78.874,80.538L78.883,80.538Z" style="fill:white;fill-rule:nonzero;"/><path d="M118.14,68.645L90.064,68.645L89.401,67.983L89.401,60.031L90.064,59.368L118.14,59.368L118.803,60.031L118.803,67.983L118.14,68.645Z" style="fill:rgb(50,230,226);fill-rule:nonzero;"/></g></g></g></svg>