<svg width="100%" height="100%" viewBox="0 0 18 16" version="1.1" xmlns="http://www.w3.org/2000/svg" xmlns:xlink="http://www.w3.org/1999/xlink" xml:space="preserve" style="fill-rule:evenodd;clip-rule:evenodd;stroke-linejoin:round;stroke-miterlimit:2;"><path id="file_type_default-light" d="M10.557,1.379C9.995,0.816 9.232,0.5 8.436,0.5C6.887,0.5 4.44,0.5 4.44,0.5C3.645,0.5 3,1.145 3,1.94L3,14.06C3,14.855 3.645,15.5 4.44,15.5L13.56,15.5C14.355,15.5 15,14.855 15,14.06L15,7.064C15,6.268 14.684,5.505 14.121,4.943C13.135,3.956 11.544,2.365 10.557,1.379ZM8.149,1.75L8.149,5.22C8.149,6.213 8.955,7.02 9.949,7.02L13.749,7.02C13.75,7.034 13.75,7.049 13.75,7.064L13.75,14.06C13.75,14.165 13.665,14.25 13.56,14.25C13.56,14.25 4.44,14.25 4.44,14.25C4.335,14.25 4.25,14.165 4.25,14.06C4.25,14.06 4.25,1.94 4.25,1.94C4.25,1.835 4.335,1.75 4.44,1.75L8.149,1.75ZM9.399,2.039L9.407,2.044C9.503,2.109 9.591,2.181 9.674,2.263L13.181,5.77L9.949,5.77C9.645,5.77 9.399,5.523 9.399,5.22L9.399,2.039Z" style="fill:white;fill-opacity:0.6;"/></svg>