<?xml version="1.0" encoding="UTF-8" standalone="no"?><!DOCTYPE svg PUBLIC "-//W3C//DTD SVG 1.1//EN" "http://www.w3.org/Graphics/SVG/1.1/DTD/svg11.dtd"><svg width="100%" height="100%" viewBox="0 0 18 16" version="1.1" xmlns="http://www.w3.org/2000/svg" xmlns:xlink="http://www.w3.org/1999/xlink" xml:space="preserve" xmlns:serif="http://www.serif.com/" style="fill-rule:evenodd;clip-rule:evenodd;"><g id="mdx" transform="matrix(0.0208333,0,0,0.0208333,9,8)"><g transform="matrix(1,0,0,1,-360,-150)"><clipPath id="_clip1"><rect x="0" y="0" width="720" height="300"/></clipPath><g clip-path="url(#_clip1)"><g transform="matrix(1.90254,0,0,1.46614,-285.01,-1.21362)"><path d="M526.63,15.872L526.63,186.388C526.63,193.917 521.919,200.029 516.117,200.029L162.38,200.029C156.578,200.029 151.868,193.917 151.868,186.388L151.868,15.872C151.868,8.343 156.578,2.231 162.38,2.231L516.117,2.231C521.919,2.231 526.63,8.343 526.63,15.872Z" style="fill:rgb(13,17,23);"/></g><g transform="matrix(5.22523,0,0,5.22523,-2285.36,-634.941)"><path d="M454.25,166.25L454.25,141.25L468,155L482,141L482,166M508.25,162.25L508.25,133M494.75,149.5L508.25,163L521.75,149.5" style="fill:none;fill-rule:nonzero;stroke:white;stroke-width:6px;"/><path d="M560.25,163.49L531,134.25M531.25,163.5L560.5,134.25" style="fill:none;fill-rule:nonzero;stroke:rgb(252,179,44);stroke-width:6px;"/></g></g></g></g></svg>