<svg width="100%" height="100%" viewBox="0 0 18 16" version="1.1" xmlns="http://www.w3.org/2000/svg" xmlns:xlink="http://www.w3.org/1999/xlink" xml:space="preserve" style="fill-rule:evenodd;clip-rule:evenodd;stroke-linejoin:round;stroke-miterlimit:2;"><path id="file_type_binary-1-light" d="M11.912,1.086C11.537,0.711 11.028,0.5 10.498,0.5C8.668,0.5 4.44,0.5 4.44,0.5C3.645,0.5 3,1.145 3,1.94L3,14.06C3,14.855 3.645,15.5 4.44,15.5L13.56,15.5C14.355,15.5 15,14.855 15,14.06L15,5.002C15,4.472 14.789,3.963 14.414,3.588C13.728,2.902 12.598,1.772 11.912,1.086ZM9.642,1.75L9.642,4.461C9.642,5.344 10.359,6.061 11.242,6.061L13.75,6.061L13.75,14.06C13.75,14.165 13.665,14.25 13.56,14.25C13.56,14.25 4.44,14.25 4.44,14.25C4.335,14.25 4.25,14.165 4.25,14.06C4.25,14.06 4.25,1.94 4.25,1.94C4.25,1.835 4.335,1.75 4.44,1.75L9.642,1.75ZM6.781,12.602C7.919,12.602 8.559,11.68 8.559,10.029C8.559,8.381 7.919,7.458 6.781,7.458C5.639,7.458 5,8.38 5,10.029C5,11.68 5.639,12.603 6.781,12.603L6.781,12.602ZM11.686,11.802L11.686,7.563L10.881,7.563L9.492,8.48L9.492,9.283L10.818,8.413L10.876,8.413L10.876,11.804L9.499,11.804L9.499,12.497L12.999,12.497L12.999,11.802L11.686,11.802ZM6.781,11.912C6.361,11.912 6.074,11.625 5.926,11.074L7.742,9.738C7.746,9.83 7.748,9.93 7.748,10.029C7.748,11.256 7.41,11.912 6.781,11.912ZM5.81,10.029C5.81,8.804 6.148,8.148 6.781,8.148C7.198,8.148 7.489,8.436 7.636,8.989L5.817,10.323C5.813,10.225 5.81,10.127 5.81,10.029ZM10.892,1.862C10.941,1.892 10.987,1.928 11.028,1.97L13.53,4.472C13.625,4.566 13.692,4.684 13.725,4.811L11.242,4.811C11.049,4.811 10.892,4.654 10.892,4.461L10.892,1.862Z" style="fill:white;fill-opacity:0.6;"/></svg>