<?xml version="1.0" encoding="UTF-8" standalone="no"?><!DOCTYPE svg PUBLIC "-//W3C//DTD SVG 1.1//EN" "http://www.w3.org/Graphics/SVG/1.1/DTD/svg11.dtd"><svg width="100%" height="100%" viewBox="0 0 18 16" version="1.1" xmlns="http://www.w3.org/2000/svg" xmlns:xlink="http://www.w3.org/1999/xlink" xml:space="preserve" xmlns:serif="http://www.serif.com/" style="fill-rule:evenodd;clip-rule:evenodd;stroke-linejoin:round;stroke-miterlimit:2;"><g transform="matrix(0.0146484,0,0,0.0146484,9,8)"><g id="afphoto" transform="matrix(1,0,0,1,-512,-512)"><clipPath id="_clip1"><rect x="0" y="0" width="1024" height="1024"/></clipPath><g clip-path="url(#_clip1)"><g transform="matrix(0.88567,0,0,1.12025,-5787.01,-235.252)"><rect x="6534" y="210" width="3805" height="973" style="fill:none;"/><g><g transform="matrix(1.12908,0,0,0.89266,6534,210)"><path d="M1024,100C1024,44.808 979.192,0 924,0L100,0C44.808,0 0,44.808 0,100L0,924C0,979.192 44.808,1024 100,1024L924,1024C979.192,1024 1024,979.192 1024,924L1024,100Z" style="fill:rgb(78,49,136);"/></g><g transform="matrix(1.12908,0,0,0.89266,3600.65,210)"><path d="M3547,650.087L3547,909C3547,930.809 3529.51,948.566 3507.8,948.992L3243.38,948.991L3070.74,650.087L3547,650.087ZM3204.04,948.991L2736.26,948.991L2970.28,544.277L3204.04,948.991ZM2698.7,946.362C2684.55,940.937 2674.26,927.71 2673.11,911.965L2673,733.502L2863.17,404.251L3011.81,404.251L2698.7,946.362ZM3147.75,403.636C3160.7,403.69 3173.09,411.297 3179.78,422.571C3179.85,422.685 3179.98,422.915 3179.98,422.915L3219.28,490.967L3219.62,491.531C3226.04,502.765 3226.29,516.92 3219.87,528.358C3206.7,551.4 3193.32,574.331 3180.04,597.318C3173.52,608.497 3161.18,615.791 3148.06,615.954C3123.03,616.059 3072.84,616.001 3072.77,616.001C3059.82,615.947 3047.23,609.042 3040.53,597.768C3040.38,597.524 3040.1,597.025 3040.1,597.025C3040.1,597.025 3000.78,528.966 3000.7,528.808C2994.27,517.574 2994.28,503.061 3000.7,491.623C3000.79,491.455 3000.99,491.119 3000.99,491.119C3000.99,491.119 3027.3,445.481 3040.47,422.662C3046.99,411.483 3059.36,403.792 3072.47,403.628C3072.69,403.627 3073.13,403.617 3073.13,403.617L3147.3,403.636L3147.75,403.636ZM3519.89,77.126L3208.64,616.001L3547,616.001L3547,115C3547,97.434 3535.65,82.497 3519.89,77.126ZM3053.34,75L3481.77,75L3250.07,476.157L3035.86,105.276L3053.34,75ZM3149.52,370.191L2882.84,370.191L3016.18,139.336L3149.52,370.191Z" style="fill:url(#_Radial2);"/></g></g></g></g></g><g id="afphoto1" serif:id="afphoto"></g></g><defs><radialGradient id="_Radial2" cx="0" cy="0" r="1" gradientUnits="userSpaceOnUse" gradientTransform="matrix(1038.25,0,0,1038.25,3341.03,-89.259)"><stop offset="0" style="stop-color:rgb(249,166,255);stop-opacity:1"/><stop offset="1" style="stop-color:rgb(234,115,255);stop-opacity:1"/></radialGradient></defs></svg>