<?xml version="1.0" encoding="UTF-8" standalone="no"?><!DOCTYPE svg PUBLIC "-//W3C//DTD SVG 1.1//EN" "http://www.w3.org/Graphics/SVG/1.1/DTD/svg11.dtd"><svg width="100%" height="100%" viewBox="0 0 18 16" version="1.1" xmlns="http://www.w3.org/2000/svg" xmlns:xlink="http://www.w3.org/1999/xlink" xml:space="preserve" xmlns:serif="http://www.serif.com/" style="fill-rule:evenodd;clip-rule:evenodd;stroke-linejoin:round;stroke-miterlimit:2;"><g id="protobuf" transform="matrix(1.53822,0,0,1.53822,-4.76943,-4.2606)"><g transform="matrix(0.734459,-0.407117,0.443643,0.800354,-2.88911,2.19426)"><path d="M9.469,9.311C9.469,8.795 9.013,8.377 8.451,8.377L4.121,8.377C3.559,8.377 3.103,8.795 3.103,9.311C3.103,9.826 3.559,10.245 4.121,10.245L8.451,10.245C9.013,10.245 9.469,9.826 9.469,9.311Z" style="fill:rgb(234,67,53);"/></g><g transform="matrix(0.727242,0.419873,-0.457544,0.792489,5.53149,-1.13695)"><path d="M9.469,9.311C9.469,8.795 9.013,8.377 8.451,8.377L4.121,8.377C3.559,8.377 3.103,8.795 3.103,9.311C3.103,9.826 3.559,10.245 4.121,10.245L8.451,10.245C9.013,10.245 9.469,9.826 9.469,9.311Z" style="fill:rgb(66,133,244);"/></g><g transform="matrix(-0.734459,-0.407117,-0.443643,0.800354,20.7922,2.13962)"><path d="M9.469,9.311C9.469,8.795 9.013,8.377 8.451,8.377L4.121,8.377C3.559,8.377 3.103,8.795 3.103,9.311C3.103,9.826 3.559,10.245 4.121,10.245L8.451,10.245C9.013,10.245 9.469,9.826 9.469,9.311Z" style="fill:rgb(22,159,89);"/></g><g transform="matrix(-0.727242,0.419873,0.457544,0.792489,12.3716,-1.19159)"><path d="M9.469,9.311C9.469,8.795 9.013,8.377 8.451,8.377L4.121,8.377C3.559,8.377 3.103,8.795 3.103,9.311C3.103,9.826 3.559,10.245 4.121,10.245L8.451,10.245C9.013,10.245 9.469,9.826 9.469,9.311Z" style="fill:rgb(250,186,2);"/></g></g></svg>