<?xml version="1.0" encoding="UTF-8" standalone="no"?><!DOCTYPE svg PUBLIC "-//W3C//DTD SVG 1.1//EN" "http://www.w3.org/Graphics/SVG/1.1/DTD/svg11.dtd"><svg width="100%" height="100%" viewBox="0 0 18 16" version="1.1" xmlns="http://www.w3.org/2000/svg" xmlns:xlink="http://www.w3.org/1999/xlink" xml:space="preserve" xmlns:serif="http://www.serif.com/" style="fill-rule:evenodd;clip-rule:evenodd;stroke-linejoin:round;stroke-miterlimit:2;"><g transform="matrix(0.185185,0,0,0.185185,9,8)"><g id="sql" transform="matrix(1,0,0,1,-30.5,-40.5)"><g id="A" transform="matrix(1,0,0,1,0.5,0.5)"><g><path d="M0,10.929L0,69.069C0,75.106 13.432,80 30,80L30,10.929L0,10.929Z" style="fill:rgb(0,114,198);"/><path id="C" d="M29.589,79.999L30,79.999C46.568,79.999 60,75.107 60,69.07L60,10.93L29.589,10.93L29.589,80L29.589,79.999Z" style="fill:rgb(0,114,198);"/></g><path id="C1" serif:id="C" d="M29.589,79.999L30,79.999C46.568,79.999 60,75.107 60,69.07L60,10.93L29.589,10.93L29.589,80L29.589,79.999Z" style="fill:white;fill-opacity:0.15;"/><path d="M60,10.929C60,16.965 46.568,21.858 30,21.858C13.432,21.858 0,16.965 0,10.929C0,4.893 13.432,0 30,0C46.568,0 60,4.893 60,10.929" style="fill:white;"/><path d="M53.866,10.299C53.866,14.284 43.181,17.51 30,17.51C16.819,17.51 6.132,14.284 6.132,10.299C6.132,6.314 16.819,3.088 30,3.088C43.181,3.088 53.866,6.316 53.866,10.299" style="fill:rgb(127,186,0);"/><path d="M48.867,14.707C51.991,13.488 53.869,11.962 53.869,10.303C53.868,6.318 43.183,3.09 30,3.09C16.817,3.09 6.134,6.318 6.134,10.303C6.134,11.961 8.011,13.488 11.136,14.707C15.499,13.003 22.318,11.904 30.001,11.904C37.684,11.904 44.501,13.003 48.867,14.707" style="fill:rgb(184,212,50);"/><path d="M20.472,51.287C20.472,53.094 19.821,54.493 18.517,55.484C17.213,56.475 15.415,56.972 13.118,56.972C11.164,56.972 9.531,56.618 8.219,55.909L8.219,51.658C9.733,52.951 11.401,53.598 13.223,53.598C14.103,53.598 14.784,53.421 15.264,53.066C15.744,52.711 15.984,52.243 15.984,51.657C15.984,51.082 15.753,50.582 15.291,50.157C14.829,49.732 13.889,49.183 12.472,48.51C9.584,47.148 8.141,45.286 8.141,42.933C8.141,41.225 8.77,39.855 10.03,38.823C11.29,37.791 12.961,37.276 15.046,37.276C16.895,37.276 18.425,37.521 19.642,38.007L19.642,41.978C18.366,41.092 16.913,40.65 15.285,40.65C14.467,40.65 13.82,40.824 13.345,41.173C12.887,41.489 12.618,42.017 12.633,42.574C12.633,43.176 12.824,43.67 13.208,44.055C13.592,44.44 14.376,44.916 15.564,45.483C17.334,46.325 18.594,47.178 19.348,48.046C20.102,48.914 20.473,49.996 20.473,51.287L20.472,51.287ZM40.842,46.985C40.842,49.225 40.335,51.17 39.323,52.815C38.311,54.46 36.885,55.616 35.046,56.281L40.537,61.394L34.993,61.394L31.072,56.971C29.391,56.91 27.874,56.462 26.523,55.63C25.172,54.798 24.128,53.658 23.394,52.21C22.66,50.762 22.291,49.148 22.291,47.369C22.291,45.395 22.689,43.635 23.485,42.09C24.281,40.545 25.401,39.356 26.845,38.524C28.289,37.692 29.942,37.276 31.81,37.276C33.551,37.276 35.112,37.679 36.49,38.485C37.868,39.291 38.936,40.436 39.698,41.924C40.46,43.412 40.842,45.099 40.842,46.984L40.842,46.985ZM36.354,47.225C36.354,45.294 35.936,43.77 35.099,42.649C34.262,41.528 33.119,40.968 31.666,40.968C30.187,40.968 29.004,41.53 28.114,42.653C27.224,43.776 26.781,45.274 26.781,47.142C26.781,49.002 27.216,50.486 28.087,51.597C28.958,52.708 30.115,53.263 31.559,53.263C33.03,53.263 34.195,52.725 35.058,51.65C35.921,50.575 36.354,49.1 36.354,47.224L36.354,47.225ZM55.247,56.639L43.972,56.639L43.972,37.596L48.236,37.596L48.236,53.16L55.246,53.16L55.247,56.639Z" style="fill:white;"/></g><g id="A1" serif:id="A"><g><path d="M0,10.929L0,69.069C0,75.106 13.432,80 30,80L30,10.929L0,10.929Z" style="fill:rgb(0,114,198);"/><path id="C2" serif:id="C" d="M29.589,79.999L30,79.999C46.568,79.999 60,75.107 60,69.07L60,10.93L29.589,10.93L29.589,80L29.589,79.999Z" style="fill:rgb(0,114,198);"/></g><path id="C3" serif:id="C" d="M29.589,79.999L30,79.999C46.568,79.999 60,75.107 60,69.07L60,10.93L29.589,10.93L29.589,80L29.589,79.999Z" style="fill:white;fill-opacity:0.15;"/><path d="M60,10.929C60,16.965 46.568,21.858 30,21.858C13.432,21.858 0,16.965 0,10.929C0,4.893 13.432,0 30,0C46.568,0 60,4.893 60,10.929" style="fill:white;"/><path d="M53.866,10.299C53.866,14.284 43.181,17.51 30,17.51C16.819,17.51 6.132,14.284 6.132,10.299C6.132,6.314 16.819,3.088 30,3.088C43.181,3.088 53.866,6.316 53.866,10.299" style="fill:rgb(127,186,0);"/><path d="M48.867,14.707C51.991,13.488 53.869,11.962 53.869,10.303C53.868,6.318 43.183,3.09 30,3.09C16.817,3.09 6.134,6.318 6.134,10.303C6.134,11.961 8.011,13.488 11.136,14.707C15.499,13.003 22.318,11.904 30.001,11.904C37.684,11.904 44.501,13.003 48.867,14.707" style="fill:rgb(184,212,50);"/><path d="M20.472,51.287C20.472,53.094 19.821,54.493 18.517,55.484C17.213,56.475 15.415,56.972 13.118,56.972C11.164,56.972 9.531,56.618 8.219,55.909L8.219,51.658C9.733,52.951 11.401,53.598 13.223,53.598C14.103,53.598 14.784,53.421 15.264,53.066C15.744,52.711 15.984,52.243 15.984,51.657C15.984,51.082 15.753,50.582 15.291,50.157C14.829,49.732 13.889,49.183 12.472,48.51C9.584,47.148 8.141,45.286 8.141,42.933C8.141,41.225 8.77,39.855 10.03,38.823C11.29,37.791 12.961,37.276 15.046,37.276C16.895,37.276 18.425,37.521 19.642,38.007L19.642,41.978C18.366,41.092 16.913,40.65 15.285,40.65C14.467,40.65 13.82,40.824 13.345,41.173C12.887,41.489 12.618,42.017 12.633,42.574C12.633,43.176 12.824,43.67 13.208,44.055C13.592,44.44 14.376,44.916 15.564,45.483C17.334,46.325 18.594,47.178 19.348,48.046C20.102,48.914 20.473,49.996 20.473,51.287L20.472,51.287ZM40.842,46.985C40.842,49.225 40.335,51.17 39.323,52.815C38.311,54.46 36.885,55.616 35.046,56.281L40.537,61.394L34.993,61.394L31.072,56.971C29.391,56.91 27.874,56.462 26.523,55.63C25.172,54.798 24.128,53.658 23.394,52.21C22.66,50.762 22.291,49.148 22.291,47.369C22.291,45.395 22.689,43.635 23.485,42.09C24.281,40.545 25.401,39.356 26.845,38.524C28.289,37.692 29.942,37.276 31.81,37.276C33.551,37.276 35.112,37.679 36.49,38.485C37.868,39.291 38.936,40.436 39.698,41.924C40.46,43.412 40.842,45.099 40.842,46.984L40.842,46.985ZM36.354,47.225C36.354,45.294 35.936,43.77 35.099,42.649C34.262,41.528 33.119,40.968 31.666,40.968C30.187,40.968 29.004,41.53 28.114,42.653C27.224,43.776 26.781,45.274 26.781,47.142C26.781,49.002 27.216,50.486 28.087,51.597C28.958,52.708 30.115,53.263 31.559,53.263C33.03,53.263 34.195,52.725 35.058,51.65C35.921,50.575 36.354,49.1 36.354,47.224L36.354,47.225ZM55.247,56.639L43.972,56.639L43.972,37.596L48.236,37.596L48.236,53.16L55.246,53.16L55.247,56.639Z" style="fill:white;"/></g></g><g id="sql1" serif:id="sql"></g></g></svg>