<?xml version="1.0" encoding="UTF-8" standalone="no"?><!DOCTYPE svg PUBLIC "-//W3C//DTD SVG 1.1//EN" "http://www.w3.org/Graphics/SVG/1.1/DTD/svg11.dtd"><svg width="100%" height="100%" viewBox="0 0 18 16" version="1.1" xmlns="http://www.w3.org/2000/svg" xmlns:xlink="http://www.w3.org/1999/xlink" xml:space="preserve" xmlns:serif="http://www.serif.com/" style="fill-rule:evenodd;clip-rule:evenodd;stroke-linejoin:round;stroke-miterlimit:2;"><g id="turbo" transform="matrix(0.144231,0,0,0.144231,9,8)"><g transform="matrix(1,0,0,1,-52,-52)"><g transform="matrix(2.32719,0,0,2.32719,-68.793,-68.7539)"><path d="M51.888,37.926C44.189,37.926 37.926,44.19 37.926,51.888C37.926,59.587 44.189,65.85 51.888,65.85C59.586,65.85 65.85,59.587 65.85,51.888C65.85,44.19 59.586,37.926 51.888,37.926ZM51.888,59.114C47.897,59.114 44.662,55.879 44.662,51.888C44.662,47.897 47.897,44.663 51.888,44.663C55.879,44.663 59.113,47.897 59.113,51.888C59.113,55.879 55.879,59.114 51.888,59.114Z" style="fill:white;fill-rule:nonzero;"/><path d="M53.058,35.633L53.058,30.42C64.389,31.026 73.39,40.407 73.39,51.888C73.39,63.37 64.389,72.748 53.058,73.356L53.058,68.143C61.503,67.54 68.19,60.484 68.19,51.888C68.19,43.293 61.503,36.236 53.058,35.633ZM39.575,62.548C37.336,59.964 35.893,56.672 35.636,53.058L30.42,53.058C30.69,58.115 32.713,62.704 35.883,66.238L39.572,62.548L39.575,62.548ZM50.718,73.356L50.718,68.143C47.102,67.886 43.81,66.446 41.226,64.204L37.536,67.894C41.072,71.066 45.661,73.086 50.716,73.356L50.718,73.356Z" style="fill:url(#_Linear1);"/></g></g></g><defs><linearGradient id="_Linear1" x1="0" y1="0" x2="1" y2="0" gradientUnits="userSpaceOnUse" gradientTransform="matrix(-21.1328,21.1328,-21.1328,-21.1328,53.9007,33.4389)"><stop offset="0" style="stop-color:rgb(0,150,255);stop-opacity:1"/><stop offset="1" style="stop-color:rgb(255,30,86);stop-opacity:1"/></linearGradient></defs></svg>