<svg width="100%" height="100%" viewBox="0 0 18 16" version="1.1" xmlns="http://www.w3.org/2000/svg" xmlns:xlink="http://www.w3.org/1999/xlink" xml:space="preserve" style="fill-rule:evenodd;clip-rule:evenodd;stroke-linecap:round;stroke-linejoin:round;stroke-miterlimit:1;"><g id="file_type_image-dark" transform="matrix(0.247797,0,0,0.247797,1.07048,0.813877)"><path d="M63.044,9.22L63.044,48.78L62.876,50.441L62.392,51.999L61.629,53.404L60.623,54.623L59.404,55.629L57.999,56.392L56.441,56.876L54.78,57.044L9.22,57.044L7.559,56.876L6.001,56.392L4.596,55.629L3.377,54.623L2.371,53.404L1.608,51.999L1.124,50.441L0.956,48.78L0.956,9.22L1.124,7.559L1.608,6.001L2.371,4.596L3.377,3.377L4.596,2.371L6.001,1.608L7.559,1.124L9.22,0.956L54.78,0.956L56.441,1.124L57.999,1.608L59.404,2.371L60.623,3.377L61.629,4.596L62.392,6.001L62.876,7.559L63.044,9.22ZM58,9.22C58,7.443 56.557,6 54.78,6L9.22,6C7.443,6 6,7.443 6,9.22L6,48.78C6,50.557 7.443,52 9.22,52L54.78,52C56.557,52 58,50.557 58,48.78L58,9.22Z" style="fill:rgb(93,108,121);"/><g transform="matrix(4.26667,0,0,4.26667,-6.4,-2.13333)"><path d="M2.494,11.237C2.494,11.237 6.05,7.672 6.891,6.829C7.405,6.315 7.79,6.322 8.237,6.768C8.856,7.386 11.041,9.566 11.041,9.566" style="fill:none;stroke:rgb(93,108,121);stroke-width:1.18px;"/></g><g transform="matrix(4.26667,0,0,4.26667,-6.4,-2.13333)"><path d="M7.682,13.068C7.682,13.068 11.122,9.628 11.98,8.77C12.501,8.249 13.015,8.265 13.52,8.77C14.037,9.287 15.432,10.682 15.432,10.682" style="fill:none;stroke:rgb(93,108,121);stroke-width:1.18px;"/></g><g transform="matrix(1,0,0,1,4.3928,2.36552)"><circle cx="14" cy="14" r="4" style="fill:none;stroke:rgb(93,108,121);stroke-width:3.03px;stroke-linecap:butt;stroke-miterlimit:2;"/></g></g></svg>