<?xml version="1.0" encoding="UTF-8" standalone="no"?><!DOCTYPE svg PUBLIC "-//W3C//DTD SVG 1.1//EN" "http://www.w3.org/Graphics/SVG/1.1/DTD/svg11.dtd"><svg width="100%" height="100%" viewBox="0 0 18 16" version="1.1" xmlns="http://www.w3.org/2000/svg" xmlns:xlink="http://www.w3.org/1999/xlink" xml:space="preserve" xmlns:serif="http://www.serif.com/" style="fill-rule:evenodd;clip-rule:evenodd;stroke-linejoin:round;stroke-miterlimit:2;"><g id="prettier" transform="matrix(0.028,0,0,0.028,9,8)"><g transform="matrix(1,0,0,1,-250,-250)"><g id="Icon--Light-" serif:id="Icon-(Light)" transform="matrix(2.2381,0,0,2.2381,15,15)"><g id="key"><g id="prettier-banner-light"><g id="Icon--Light-1" serif:id="Icon-(Light)"><g id="line-11" transform="matrix(1,0,0,1,0,200)"><path id="line-11-dash-3" d="M210,2.234L210,7.766C210,8.999 208.999,10 207.766,10L152.234,10C151.001,10 150,8.999 150,7.766L150,2.234C150,1.001 151.001,0 152.234,0L207.766,0C208.999,0 210,1.001 210,2.234Z" style="fill:rgb(207,212,215);fill-opacity:0.5;"/><path id="line-11-dash-2" d="M140,2.234L140,7.766C140,8.999 138.999,10 137.766,10L72.234,10C71.001,10 70,8.999 70,7.766L70,2.234C70,1.001 71.001,0 72.234,0L137.766,0C138.999,0 140,1.001 140,2.234Z" style="fill:rgb(207,212,215);fill-opacity:0.5;"/><path id="line-11-dash-1" d="M60,2.234L60,7.766C60,8.999 58.999,10 57.766,10L2.234,10C1.001,10 0,8.999 0,7.766L0,2.234C0,1.001 1.001,0 2.234,0L57.766,0C58.999,0 60,1.001 60,2.234Z" style="fill:rgb(234,94,94);"/></g><g id="line-10" transform="matrix(1,0,0,1,0,180)"><path id="line-10-dash-5" d="M210,2.234L210,7.766C210,8.999 208.999,10 207.766,10L162.234,10C161.001,10 160,8.999 160,7.766L160,2.234C160,1.001 161.001,0 162.234,0L207.766,0C208.999,0 210,1.001 210,2.234Z" style="fill:rgb(207,212,215);fill-opacity:0.5;"/><path id="line-10-dash-4" d="M150,2.234L150,7.766C150,8.999 148.999,10 147.766,10L132.234,10C131.001,10 130,8.999 130,7.766L130,2.234C130,1.001 131.001,0 132.234,0L147.766,0C148.999,0 150,1.001 150,2.234Z" style="fill:rgb(207,212,215);fill-opacity:0.5;"/><path id="line-10-dash-3" d="M120,2.234L120,7.766C120,8.999 118.999,10 117.766,10L72.234,10C71.001,10 70,8.999 70,7.766L70,2.234C70,1.001 71.001,0 72.234,0L117.766,0C118.999,0 120,1.001 120,2.234Z" style="fill:rgb(207,212,215);fill-opacity:0.5;"/><path id="line-10-dash-2" d="M60,2.234L60,7.766C60,8.999 58.999,10 57.766,10L42.234,10C41.001,10 40,8.999 40,7.766L40,2.234C40,1.001 41.001,0 42.234,0L57.766,0C58.999,0 60,1.001 60,2.234Z" style="fill:rgb(247,185,62);"/><path id="line-10-dash-1" d="M30,2.234L30,7.766C30,8.999 28.999,10 27.766,10L2.234,10C1.001,10 0,8.999 0,7.766L0,2.234C0,1.001 1.001,0 2.234,0L27.766,0C28.999,0 30,1.001 30,2.234Z" style="fill:rgb(86,179,180);"/></g><g id="line-9" transform="matrix(1,0,0,1,0,160)"><path id="line-9-dash-3" d="M210,2.234L210,7.766C210,8.999 208.999,10 207.766,10L112.234,10C111.001,10 110,8.999 110,7.766L110,2.234C110,1.001 111.001,0 112.234,0L207.766,0C208.999,0 210,1.001 210,2.234Z" style="fill:rgb(207,212,215);fill-opacity:0.5;"/><path id="line-9-dash-2" d="M100,2.234L100,7.766C100,8.999 98.999,10 97.766,10L72.234,10C71.001,10 70,8.999 70,7.766L70,2.234C70,1.001 71.001,0 72.234,0L97.766,0C98.999,0 100,1.001 100,2.234Z" style="fill:rgb(207,212,215);fill-opacity:0.5;"/><path id="line-9-dash-1" d="M60,2.234L60,7.766C60,8.999 58.999,10 57.766,10L2.234,10C1.001,10 0,8.999 0,7.766L0,2.234C0,1.001 1.001,0 2.234,0L57.766,0C58.999,0 60,1.001 60,2.234Z" style="fill:rgb(191,133,191);"/></g><g id="line-8" transform="matrix(1,0,0,1,0,140)"><path id="line-8-dash-4" d="M210,2.234L210,7.766C210,8.999 208.999,10 207.766,10L182.234,10C181.001,10 180,8.999 180,7.766L180,2.234C180,1.001 181.001,0 182.234,0L207.766,0C208.999,0 210,1.001 210,2.234Z" style="fill:rgb(207,212,215);fill-opacity:0.5;"/><path id="line-8-dash-3" d="M170,2.234L170,7.766C170,8.999 168.999,10 167.766,10L142.234,10C141.001,10 140,8.999 140,7.766L140,2.234C140,1.001 141.001,0 142.234,0L167.766,0C168.999,0 170,1.001 170,2.234Z" style="fill:rgb(207,212,215);fill-opacity:0.5;"/><path id="line-8-dash-2" d="M130,2.234L130,7.766C130,8.999 128.999,10 127.766,10L32.234,10C31.001,10 30,8.999 30,7.766L30,2.234C30,1.001 31.001,0 32.234,0L127.766,0C128.999,0 130,1.001 130,2.234Z" style="fill:rgb(247,185,62);"/><path id="line-8-dash-1" d="M20,2.234L20,7.766C20,8.999 18.999,10 17.766,10L2.234,10C1.001,10 0,8.999 0,7.766L0,2.234C0,1.001 1.001,0 2.234,0L17.766,0C18.999,0 20,1.001 20,2.234Z" style="fill:rgb(191,133,191);"/></g><g id="line-7" transform="matrix(1,0,0,1,0,120)"><path id="line-7-dash-4" d="M210,2.234L210,7.766C210,8.999 208.999,10 207.766,10L172.234,10C171.001,10 170,8.999 170,7.766L170,2.234C170,1.001 171.001,0 172.234,0L207.766,0C208.999,0 210,1.001 210,2.234Z" style="fill:rgb(207,212,215);fill-opacity:0.5;"/><path id="line-7-dash-3" d="M160,2.234L160,7.766C160,8.999 158.999,10 157.766,10L122.234,10C121.001,10 120,8.999 120,7.766L120,2.234C120,1.001 121.001,0 122.234,0L157.766,0C158.999,0 160,1.001 160,2.234Z" style="fill:rgb(191,133,191);"/><path id="line-7-dash-2" d="M110,2.234L110,7.766C110,8.999 108.999,10 107.766,10L62.234,10C61.001,10 60,8.999 60,7.766L60,2.234C60,1.001 61.001,0 62.234,0L107.766,0C108.999,0 110,1.001 110,2.234Z" style="fill:rgb(234,94,94);"/><path id="line-7-dash-1" d="M50,2.234L50,7.766C50,8.999 48.999,10 47.766,10L2.234,10C1.001,10 0,8.999 0,7.766L0,2.234C0,1.001 1.001,0 2.234,0L47.766,0C48.999,0 50,1.001 50,2.234Z" style="fill:rgb(86,179,180);"/></g><g id="line-6" transform="matrix(1,0,0,1,0,100)"><path id="line-6-dash-4" d="M210,2.234L210,7.766C210,8.999 208.999,10 207.766,10L182.234,10C181.001,10 180,8.999 180,7.766L180,2.234C180,1.001 181.001,0 182.234,0L207.766,0C208.999,0 210,1.001 210,2.234Z" style="fill:rgb(207,212,215);fill-opacity:0.5;"/><path id="line-6-dash-3" d="M170,2.234L170,7.766C170,8.999 168.999,10 167.766,10L82.234,10C81.001,10 80,8.999 80,7.766L80,2.234C80,1.001 81.001,0 82.234,0L167.766,0C168.999,0 170,1.001 170,2.234Z" style="fill:rgb(86,179,180);"/><path id="line-6-dash-2" d="M70,2.234L70,7.766C70,8.999 68.999,10 67.766,10L32.234,10C31.001,10 30,8.999 30,7.766L30,2.234C30,1.001 31.001,0 32.234,0L67.766,0C68.999,0 70,1.001 70,2.234Z" style="fill:rgb(247,185,62);"/><path id="line-6-dash-1" d="M20,2.234L20,7.766C20,8.999 18.999,10 17.766,10L2.234,10C1.001,10 0,8.999 0,7.766L0,2.234C0,1.001 1.001,0 2.234,0L17.766,0C18.999,0 20,1.001 20,2.234Z" style="fill:rgb(234,94,94);"/></g><g id="line-5" transform="matrix(1,0,0,1,0,80)"><path id="line-5-dash-4" d="M210,2.234L210,7.766C210,8.999 208.999,10 207.766,10L192.234,10C191.001,10 190,8.999 190,7.766L190,2.234C190,1.001 191.001,0 192.234,0L207.766,0C208.999,0 210,1.001 210,2.234Z" style="fill:rgb(207,212,215);fill-opacity:0.5;"/><path id="line-5-dash-3" d="M180,2.234L180,7.766C180,8.999 178.999,10 177.766,10L122.234,10C121.001,10 120,8.999 120,7.766L120,2.234C120,1.001 121.001,0 122.234,0L177.766,0C178.999,0 180,1.001 180,2.234Z" style="fill:rgb(247,185,62);"/><path id="line-5-dash-2" d="M110,2.234L110,7.766C110,8.999 108.999,10 107.766,10L72.234,10C71.001,10 70,8.999 70,7.766L70,2.234C70,1.001 71.001,0 72.234,0L107.766,0C108.999,0 110,1.001 110,2.234Z" style="fill:rgb(207,212,215);fill-opacity:0.5;"/><path id="line-5-dash-1" d="M60,2.234L60,7.766C60,8.999 58.999,10 57.766,10L2.234,10C1.001,10 0,8.999 0,7.766L0,2.234C0,1.001 1.001,0 2.234,0L57.766,0C58.999,0 60,1.001 60,2.234Z" style="fill:rgb(191,133,191);"/></g><g id="line-4" transform="matrix(1,0,0,1,0,60)"><path id="line-4-dash-5" d="M210,2.234L210,7.766C210,8.999 208.999,10 207.766,10L192.234,10C191.001,10 190,8.999 190,7.766L190,2.234C190,1.001 191.001,0 192.234,0L207.766,0C208.999,0 210,1.001 210,2.234Z" style="fill:rgb(207,212,215);fill-opacity:0.5;"/><path id="line-4-dash-4" d="M180,2.234L180,7.766C180,8.999 178.999,10 177.766,10L122.234,10C121.001,10 120,8.999 120,7.766L120,2.234C120,1.001 121.001,0 122.234,0L177.766,0C178.999,0 180,1.001 180,2.234Z" style="fill:rgb(234,94,94);"/><path id="line-4-dash-3" d="M110,2.234L110,7.766C110,8.999 108.999,10 107.766,10L72.234,10C71.001,10 70,8.999 70,7.766L70,2.234C70,1.001 71.001,0 72.234,0L107.766,0C108.999,0 110,1.001 110,2.234Z" style="fill:rgb(207,212,215);fill-opacity:0.5;"/><path id="line-4-dash-2" d="M60,2.234L60,7.766C60,8.999 58.999,10 57.766,10L42.234,10C41.001,10 40,8.999 40,7.766L40,2.234C40,1.001 41.001,0 42.234,0L57.766,0C58.999,0 60,1.001 60,2.234Z" style="fill:rgb(86,179,180);"/><path id="line-4-dash-1" d="M30,2.234L30,7.766C30,8.999 28.999,10 27.766,10L2.234,10C1.001,10 0,8.999 0,7.766L0,2.234C0,1.001 1.001,0 2.234,0L27.766,0C28.999,0 30,1.001 30,2.234Z" style="fill:rgb(247,185,62);"/></g><g id="line-3" transform="matrix(1,0,0,1,0,40)"><path id="line-3-dash-4" d="M210,2.234L210,7.766C210,8.999 208.999,10 207.766,10L182.234,10C181.001,10 180,8.999 180,7.766L180,2.234C180,1.001 181.001,0 182.234,0L207.766,0C208.999,0 210,1.001 210,2.234Z" style="fill:rgb(207,212,215);fill-opacity:0.5;"/><path id="line-3-dash-3" d="M170,2.234L170,7.766C170,8.999 168.999,10 167.766,10L152.234,10C151.001,10 150,8.999 150,7.766L150,2.234C150,1.001 151.001,0 152.234,0L167.766,0C168.999,0 170,1.001 170,2.234Z" style="fill:rgb(86,179,180);"/><path id="line-3-dash-2" d="M140,2.234L140,7.766C140,8.999 138.999,10 137.766,10L92.234,10C91.001,10 90,8.999 90,7.766L90,2.234C90,1.001 91.001,0 92.234,0L137.766,0C138.999,0 140,1.001 140,2.234Z" style="fill:rgb(191,133,191);"/><path id="line-3-dash-1" d="M80,2.234L80,7.766C80,8.999 78.999,10 77.766,10L2.234,10C1.001,10 0,8.999 0,7.766L0,2.234C0,1.001 1.001,0 2.234,0L77.766,0C78.999,0 80,1.001 80,2.234Z" style="fill:rgb(86,179,180);"/></g><g id="line-2" transform="matrix(1,0,0,1,0,20)"><path id="line-2-dash-3" d="M210,2.234L210,7.766C210,8.999 208.999,10 207.766,10L172.234,10C171.001,10 170,8.999 170,7.766L170,2.234C170,1.001 171.001,0 172.234,0L207.766,0C208.999,0 210,1.001 210,2.234Z" style="fill:rgb(207,212,215);fill-opacity:0.5;"/><path id="line-2-dash-2" d="M160,2.234L160,7.766C160,8.999 158.999,10 157.766,10L52.234,10C51.001,10 50,8.999 50,7.766L50,2.234C50,1.001 51.001,0 52.234,0L157.766,0C158.999,0 160,1.001 160,2.234Z" style="fill:rgb(247,185,62);"/><path id="line-2-dash-1" d="M40,2.234L40,7.766C40,8.999 38.999,10 37.766,10L2.234,10C1.001,10 0,8.999 0,7.766L0,2.234C0,1.001 1.001,0 2.234,0L37.766,0C38.999,0 40,1.001 40,2.234Z" style="fill:rgb(234,94,94);"/></g><g id="line-1"><path id="line-1-dash-2" d="M210,2.234L210,7.766C210,8.999 208.999,10 207.766,10L142.234,10C141.001,10 140,8.999 140,7.766L140,2.234C140,1.001 141.001,0 142.234,0L207.766,0C208.999,0 210,1.001 210,2.234Z" style="fill:rgb(207,212,215);fill-opacity:0.5;"/><path id="line-1-dash-1" d="M130,2.234L130,7.766C130,8.999 128.999,10 127.766,10L2.234,10C1.001,10 0,8.999 0,7.766L0,2.234C0,1.001 1.001,0 2.234,0L127.766,0C128.999,0 130,1.001 130,2.234Z" style="fill:rgb(86,179,180);"/></g></g></g></g></g></g></g></svg>