<?xml version="1.0" encoding="UTF-8" standalone="no"?><!DOCTYPE svg PUBLIC "-//W3C//DTD SVG 1.1//EN" "http://www.w3.org/Graphics/SVG/1.1/DTD/svg11.dtd"><svg width="100%" height="100%" viewBox="0 0 18 16" version="1.1" xmlns="http://www.w3.org/2000/svg" xmlns:xlink="http://www.w3.org/1999/xlink" xml:space="preserve" xmlns:serif="http://www.serif.com/" style="fill-rule:evenodd;clip-rule:evenodd;stroke-linejoin:round;stroke-miterlimit:2;"><g id="makefile"><g transform="matrix(0.942408,0,0,1.00362,0.452022,-0.0909576)"><path d="M17.294,2.039C17.294,1.101 16.483,0.34 15.485,0.34L2.656,0.34C1.657,0.34 0.847,1.101 0.847,2.039L0.847,14.085C0.847,15.023 1.657,15.784 2.656,15.784L15.485,15.784C16.483,15.784 17.294,15.023 17.294,14.085L17.294,2.039Z" style="fill:white;"/></g><g id="gnu" transform="matrix(0.4375,0,0,0.4375,9,8)"><g transform="matrix(1,0,0,1,-16,-16)"><clipPath id="_clip1"><rect x="0" y="0" width="32" height="32"/></clipPath><g clip-path="url(#_clip1)"><path d="M6.76,18.578C6.468,18.594 6.203,18.766 6.072,19.026C5.916,19.307 5.551,19.349 5.379,19.297C5.098,19.203 4.738,19.136 4.389,19.386C4.035,19.636 3.66,19.449 3.728,18.99C3.796,18.537 3.957,18.131 4.395,17.881C5.348,17.339 4.681,16.959 5.202,16.407C5.728,15.855 5.613,15.688 5.593,14.938C3.827,14.672 2.822,14.162 1.708,12.766C0.588,11.37 0.156,10.219 0.041,8.464C-0.079,6.709 0.025,5.573 0.781,4.12C1.541,2.667 2.338,1.969 3.719,1.24C5.1,0.511 6.453,0.339 7.703,0.36C8.958,0.381 9.792,0.469 10.495,0.876C11.203,1.282 11.849,1.787 12.261,1.787C12.584,1.808 12.896,1.719 13.157,1.532C13.214,2.891 11.99,3.011 10.897,3.037C9.803,3.068 9.131,2.615 8.121,2.782C7.116,2.954 5.465,3.412 4.663,4.808C3.861,6.209 3.83,6.704 3.897,7.876C3.964,9.048 4.975,9.923 5.543,9.933C6.116,9.943 6.241,9.777 6.741,9.454C7.241,9.126 9.788,5.975 10.652,5.266C11.522,4.558 12.381,4.339 13.308,4.328C14.235,4.317 14.469,4.349 15.214,4.656C15.964,4.958 16.422,5.526 17.027,5.87C17.329,5.688 17.527,5.417 17.803,5.209C18.819,4.475 19.339,4.271 20.543,4.386C21.231,4.459 22.1,4.85 22.621,5.303C23.543,6.11 24.309,7.225 24.923,8.074C25.407,8.741 25.97,9.532 26.782,9.777C27.657,10.048 28.324,8.907 28.423,8.272C28.48,7.913 28.548,7.6 28.548,7.204C28.548,6.808 28.512,6.329 28.397,5.918C28.277,5.512 28.1,5.121 27.876,4.762C27.532,4.205 26.97,3.627 26.386,3.33C26.058,3.163 25.287,2.861 24.797,2.851C24.198,2.835 23.745,3.039 23.193,3.075C22.526,3.122 21.334,3.268 20.813,2.757C20.48,2.429 20.438,2.205 20.381,1.783C20.527,1.903 20.735,1.981 20.917,1.997C21.334,2.033 21.724,1.695 22.063,1.492C22.344,1.331 22.735,1.039 23.099,0.893C24.037,0.513 25.188,0.523 26.177,0.627C26.974,0.705 28.005,1.059 28.698,1.455C29.401,1.851 30.073,2.518 30.568,3.148C31.188,3.94 31.526,4.617 31.75,5.606C32.036,6.866 32.12,8.757 31.771,10.002C31.495,10.981 30.589,12.486 29.813,13.221C29.053,13.95 28.167,14.304 27.167,14.497C27.209,14.695 27.209,14.882 27.261,15.049C27.339,15.289 27.48,15.549 27.766,15.466C27.881,15.435 27.948,15.403 28.094,15.539C28.25,15.674 28.172,16.185 27.74,16.419C27.521,16.534 27.297,16.56 26.948,16.57C26.521,16.586 26.094,16.565 25.677,16.507C25.302,16.444 25.078,16.142 24.656,16.096C24.01,16.023 23.515,15.554 22.995,15.221C22.781,15.086 22.709,15.086 22.584,15.013C22.652,15.216 22.74,15.43 22.787,15.633C22.829,15.826 22.813,16.013 22.834,16.169C22.86,16.33 22.902,16.45 22.928,16.58C23.032,16.674 23.063,16.814 23.241,16.856C23.413,16.903 23.684,16.835 23.861,16.809C24.043,16.783 24.163,16.689 24.299,16.715C24.44,16.741 24.575,16.845 24.69,16.934C24.81,17.028 24.909,17.043 25.003,17.273C25.097,17.513 25.185,17.992 25.196,18.309C25.212,18.632 25.175,18.918 25.081,19.174C24.987,19.43 24.899,19.539 24.643,19.794C24.388,20.044 23.966,20.414 23.549,20.674C23.627,20.783 23.658,20.888 23.783,21.013C23.903,21.138 24.148,21.273 24.257,21.404C24.372,21.534 24.429,21.628 24.429,21.774C24.445,21.951 24.403,22.123 24.304,22.274C24.007,22.67 23.663,22.743 23.236,22.93C23.309,23.373 23.366,23.69 23.262,24.138C23.22,24.32 23.127,24.732 22.903,24.836C22.679,24.94 22.247,24.888 21.971,24.935C21.7,24.977 21.544,25.018 21.33,25.06C21.2,25.248 21.012,25.456 20.945,25.623C20.877,25.795 20.898,25.852 20.955,26.024C21.007,26.196 21.2,26.441 21.252,26.649C21.304,26.847 21.32,27.06 21.268,27.264C21.216,27.468 21.112,27.649 20.961,27.795C20.789,27.972 20.451,28.113 20.284,28.253C20.117,28.404 19.945,28.42 19.992,28.659C20.055,28.987 20.539,29.518 20.888,29.649C21.133,29.722 21.398,29.701 21.628,29.597C21.612,29.873 21.368,30.066 21.211,30.253C21.638,30.128 22.055,29.894 22.346,29.581C22.257,29.852 21.95,30.289 21.487,30.67C21.029,31.05 21.029,30.977 20.799,31.128C21.216,31.211 21.606,31.191 21.929,31.133C21.669,31.279 21.377,31.373 21.075,31.409C20.69,31.451 20.455,31.419 20.106,31.331C19.757,31.248 19.439,30.93 19.017,30.711C19.059,30.872 19.09,31.06 19.267,31.221C19.449,31.377 19.71,31.466 19.996,31.596C19.637,31.56 19.251,31.549 18.897,31.471C18.631,31.408 18.454,31.346 18.262,31.252C18.07,31.158 17.923,31.018 17.752,30.898C17.83,31.054 17.856,31.242 17.997,31.367C18.132,31.497 18.362,31.549 18.544,31.633C18.356,31.628 18.169,31.675 17.971,31.623C17.757,31.571 17.554,31.477 17.382,31.342C17.168,31.186 16.965,31.009 16.788,30.816C16.611,30.623 16.392,30.373 16.324,30.196C16.261,30.019 16.366,29.899 16.387,29.748C16.267,29.826 16.116,29.873 16.022,29.988C15.928,30.103 15.845,30.207 15.887,30.41C15.929,30.613 16.116,30.863 16.252,31.087C15.856,30.764 15.637,30.639 15.544,30.254C15.455,29.889 15.679,29.561 15.851,29.285C15.94,29.15 16.07,29.019 16.148,28.889C15.966,28.717 15.768,28.566 15.617,28.368C15.466,28.17 15.398,27.899 15.247,27.712C15.091,27.524 14.877,27.405 14.7,27.248C14.856,27.592 15.122,28.014 15.179,28.274C15.236,28.54 15.111,28.706 15.018,28.852C14.924,28.993 14.773,29.029 14.627,29.112C14.481,29.201 14.257,29.133 14.174,29.263C14.085,29.393 14.065,29.591 14.143,29.721L14.487,30.252C14.32,30.153 14.174,30.028 14.049,29.877C13.95,29.747 13.804,29.627 13.783,29.455C13.762,29.283 13.752,29.127 13.866,28.971C13.981,28.815 14.293,28.763 14.429,28.643C14.57,28.523 14.648,28.445 14.637,28.294C14.632,28.138 14.481,28.028 14.351,27.929C13.95,27.627 13.445,27.356 13.106,26.997C12.96,26.856 12.851,26.684 12.788,26.492C12.746,26.351 12.788,26.242 12.882,26.07C12.976,25.898 13.299,25.664 13.34,25.481C13.382,25.293 13.215,25.252 13.069,25.184C12.918,25.121 12.637,25.22 12.501,25.106C12.365,24.992 12.543,24.752 12.386,24.616C12.23,24.486 11.876,24.559 11.693,24.418C11.532,24.283 11.422,24.095 11.375,23.892C11.312,23.704 11.302,23.501 11.344,23.309C11.386,23.158 11.516,23.132 11.594,23.054C11.672,22.981 11.74,22.919 11.636,22.799C11.537,22.684 11.193,22.804 11.001,22.658C10.803,22.512 10.923,22.153 10.782,22.002C10.647,21.856 10.402,21.913 10.266,21.861C10.141,21.814 10.089,21.981 10.011,21.715C9.928,21.455 9.928,20.652 9.818,20.356C9.714,20.059 9.5,20.335 9.407,20.043C9.303,19.746 9.402,19.277 9.355,18.829L9.157,17.621C8.459,18.09 8.001,18.236 7.251,18.366C7.188,20.199 7.017,21.277 7.642,23.309C8.262,25.335 9.517,26.533 11.215,28.252C8.975,26.575 7.908,25.21 7.241,23.466C6.569,21.716 6.699,20.258 6.762,18.581L6.76,18.578ZM18.656,17.839C18.828,17.849 19.036,17.891 19.156,17.969C19.276,18.052 19.406,18.115 19.515,18.219C19.791,18.505 19.994,18.839 20.088,19.224C20.145,19.474 20.151,19.787 20.171,20.078C20.088,19.812 20.036,19.531 19.916,19.292C19.728,18.912 19.416,18.542 19.02,18.375C18.931,18.333 18.832,18.318 18.734,18.339C18.765,18.396 18.817,18.438 18.823,18.516C18.823,18.594 18.807,18.75 18.672,18.813C18.458,18.917 18.219,18.844 18.052,18.698C17.885,18.542 17.833,18.297 17.917,18.089C18.021,17.829 18.417,17.829 18.657,17.839L18.656,17.839ZM16.495,17.474C16.516,17.031 16.672,16.661 17.073,16.448C17.318,16.307 17.594,16.208 17.875,16.162C18.151,16.126 18.828,16.152 19.234,16.339C19.541,16.474 19.755,16.698 20.031,16.86C20.302,17.021 20.495,17.131 20.755,17.313C21.156,17.594 21.39,17.896 21.666,18.079C21.801,18.168 21.984,18.157 22.166,18.209C22.025,18.251 21.848,18.298 21.697,18.251C21.483,18.162 21.286,18.048 21.114,17.897C20.911,17.715 20.687,17.553 20.453,17.418C20.286,17.324 20.015,17.21 19.828,17.09C19.651,16.97 19.338,16.715 19.161,16.626C18.885,16.511 18.588,16.454 18.296,16.459C17.952,16.469 17.457,16.527 17.197,16.761C16.937,17.006 16.838,17.209 16.895,17.516C16.994,17.407 17.062,17.261 17.155,17.177C17.358,17 17.593,16.995 17.848,17.026C18.134,17.062 18.28,17.229 18.374,17.5C18.311,17.458 18.192,17.354 18.103,17.318C17.91,17.245 17.692,17.266 17.52,17.375C17.28,17.51 17.343,17.698 17.312,17.906C17.296,18.005 17.26,18.083 17.234,18.172C17.14,18.151 17.062,18.104 16.989,18.042C16.994,18.141 16.979,18.23 16.999,18.339C17.019,18.448 17.072,18.584 17.114,18.704C16.942,18.537 16.77,18.381 16.666,18.168C16.551,17.96 16.489,17.715 16.494,17.475L16.495,17.474ZM16.786,14.276C16.906,14.094 16.942,13.818 17.015,13.588C16.989,13.874 17.046,14.192 16.906,14.401C16.766,14.61 16.515,14.573 16.317,14.635C16.473,14.515 16.661,14.458 16.786,14.276ZM13.844,18.547C14,18.417 14.427,18.521 14.745,18.542L14.057,18.719C14.036,18.802 14.047,18.886 13.994,18.953C13.941,19.02 13.843,19.042 13.765,19.094C13.775,18.886 13.682,18.677 13.843,18.547L13.844,18.547ZM16.089,9.677C16.277,9.776 16.516,9.917 16.688,9.917C16.849,9.922 16.896,9.813 16.995,9.745C17.146,10.25 17.328,10.808 17.594,11.266C17.703,11.459 17.771,11.37 17.86,11.563C17.943,11.756 17.98,12.152 18.058,12.402C18.136,12.647 18.24,12.829 18.334,13.043C18.105,12.71 17.803,12.288 17.667,12.012C17.537,11.736 17.62,11.715 17.516,11.455C17.412,11.189 17.198,10.783 17.037,10.445C16.922,10.461 16.787,10.481 16.698,10.455C16.615,10.424 16.625,10.33 16.547,10.273C16.469,10.216 16.339,10.237 16.229,10.143C16.12,10.049 16.094,9.851 16.088,9.679L16.089,9.677ZM15.063,12.177C15.245,12.161 15.464,12.208 15.631,12.198C15.798,12.193 15.917,12.146 16.063,12.12C16.037,11.87 16.063,11.406 15.829,11.235C15.678,11.131 15.058,11.209 14.897,11.245C14.522,11.323 14.09,11.547 13.73,11.683C14.074,11.443 14.371,11.219 14.787,11.1C15.037,11.027 15.615,10.928 15.87,10.996C15.99,11.027 16.011,11.079 16.084,11.178C16.324,11.517 16.324,11.808 16.386,12.209C16.449,12.303 16.516,12.365 16.568,12.464C16.62,12.589 16.651,12.719 16.657,12.849C16.594,12.76 16.636,12.646 16.459,12.578C16.282,12.505 16.011,12.568 15.771,12.594C15.943,12.724 16.031,12.844 16.037,13.104C16.047,13.417 15.782,13.64 15.506,13.661C15.126,13.692 14.928,13.609 14.777,13.281C14.709,13.14 14.756,12.968 14.751,12.828C14.293,12.859 14.298,12.844 13.965,13.125C14.147,13.391 14.262,13.542 14.564,13.703C14.731,13.792 14.923,13.88 15.132,13.917C15.341,13.954 15.684,13.99 15.908,13.953C16.101,13.932 16.278,13.844 16.413,13.703C16.574,13.557 16.59,13.338 16.653,13.167C16.648,13.339 16.617,13.506 16.559,13.662C16.371,14.021 16.054,14.131 15.668,14.131C15.303,14.131 14.85,14.048 14.507,13.907C14.231,13.792 13.778,13.475 13.674,13.193C13.596,13.005 13.658,12.771 13.648,12.558C14.028,12.308 14.122,12.37 14.57,12.298C14.758,12.262 14.888,12.194 15.065,12.178L15.063,12.177ZM12.859,10.474C12.864,10.318 12.885,10.323 12.895,10.25C12.551,10.156 12.416,10.38 12.213,10.797C12.135,10.953 12.213,11.047 12.13,11.146C12.052,11.25 11.916,11.235 11.786,11.334C11.656,11.433 11.526,11.62 11.401,11.725C11.151,11.933 10.807,12.058 10.51,12.199C10.713,12.053 11.104,11.829 11.229,11.616C11.297,11.501 11.286,11.288 11.39,11.184C11.494,11.085 11.531,11.012 11.661,10.986C11.796,10.96 11.744,10.804 11.786,10.679C11.828,10.559 11.916,10.471 12.005,10.346C12.099,10.221 12.213,10.039 12.396,9.971C12.573,9.903 12.86,9.976 12.995,9.94C13.13,9.898 13.052,9.799 13.151,9.737C13.25,9.68 13.443,9.706 13.578,9.643C13.812,9.528 13.927,9.341 14.068,9.138C14.089,9.576 14.084,9.888 13.927,10.299C13.75,10.757 13.573,11.033 13.073,11.315C12.901,11.414 12.729,11.445 12.583,11.497C12.666,11.382 12.786,11.336 12.833,11.158C12.88,10.976 12.849,10.622 12.859,10.476L12.859,10.474ZM20.938,12.594C20.698,12.615 20.646,12.578 20.454,12.714L20.761,13.198C20.756,12.88 20.787,12.818 20.938,12.594ZM20.318,12.365C20.646,12.23 20.933,12.115 21.292,12.089C21.433,12.079 21.657,12.099 21.802,12.11C21.927,11.928 22.083,11.787 22.141,11.579C22.177,11.438 22.162,10.798 22.089,10.631C21.896,10.152 21.704,10.131 21.433,9.855C21.235,9.652 21.23,9.345 21.167,9.001C21.146,8.876 21.084,8.72 21.058,8.59C20.678,8.527 20.298,8.507 19.912,8.527C20.11,8.339 20.303,8.168 20.36,7.881C20.417,7.574 20.365,7.261 20.209,6.99C20.048,6.735 19.787,6.511 19.548,6.302C19.314,6.094 18.97,5.922 18.746,5.75C19.038,5.651 19.34,5.495 19.626,5.437C20.371,5.296 21.017,5.515 21.735,5.953C22.157,6.203 22.501,6.443 22.938,6.906C23.376,7.364 23.917,8.203 24.344,8.703C24.766,9.203 25.11,9.594 25.479,9.896C25.849,10.193 26.187,10.281 26.536,10.469L27.088,11.052L27.531,10.5L28.245,10.583L28.396,9.781L29.047,9.599L28.943,8.516L29.417,8.183L29.058,7.511L29.417,6.771L28.948,5.932L29.13,5.125L28.588,4.656L28.515,3.797L27.755,3.511L27.453,2.761L26.599,2.751L26.182,2.194L25.604,2.236L24.969,2.163L24.61,1.903L24.079,2.247L23.444,1.919L22.184,2.398L23.007,1.679L23.861,1.544L24.512,1.377L25.397,1.663L26.173,1.47L26.923,1.913L27.72,1.871L28.111,2.569L28.897,2.658L29.324,3.434L29.819,3.705L29.954,4.7L30.397,5.122L30.199,5.992L30.72,6.653L30.236,7.356L30.757,7.799L30.09,8.388L30.767,9.096L29.949,9.362L30.48,10.117L29.808,10.237L30.246,11.065L29.496,11.055L29.876,11.675L29.048,11.576L29.246,12.472L28.621,11.925L28.413,13.008L27.981,12.232L27.747,13.201L27.221,12.487L27.237,13.508L26.648,12.591C26.768,13.112 26.747,13.68 27.086,14.169C28.149,14.028 28.836,13.758 29.649,12.981C30.383,12.267 31.269,10.788 31.508,9.846C31.779,8.778 31.789,6.804 31.518,5.711C31.263,4.664 30.924,4.159 30.325,3.305C29.752,2.696 29.19,2.05 28.46,1.617C27.387,0.976 26.022,0.804 24.804,0.82C24.278,0.825 23.762,0.919 23.273,1.106C22.57,1.361 22.007,1.924 21.289,2.2C21.055,2.289 20.872,2.289 20.685,2.195C20.867,2.554 21.06,2.716 21.513,2.846C21.836,2.94 22.612,2.882 23.148,2.83C23.721,2.778 24.018,2.606 24.799,2.616C25.559,2.632 26.164,2.918 26.492,3.106C27.174,3.497 27.664,3.929 28.091,4.616C28.32,4.991 28.487,5.413 28.601,5.845C28.715,6.277 28.762,6.762 28.773,7.189C28.783,7.611 28.747,7.991 28.643,8.371C28.403,9.262 27.867,10.173 26.768,10.032C26.096,9.949 25.086,8.683 24.742,8.219C24.054,7.287 23.351,6.25 22.492,5.474C21.95,4.99 21.268,4.682 20.544,4.609C19.221,4.489 18.825,4.739 17.83,5.562C18.033,5.625 18.231,5.661 18.439,5.755C18.897,5.963 19.319,6.234 19.689,6.578C20.074,6.937 20.246,7.167 20.262,7.682C20.272,8.026 19.991,8.302 19.731,8.547C19.575,8.698 19.361,8.839 19.236,8.958C19.064,9.114 18.856,9.286 19.069,9.531C19.147,9.625 19.288,9.698 19.402,9.786C19.59,9.921 19.506,10.432 19.261,10.572C18.959,10.754 18.573,10.718 18.308,10.489C18.636,10.447 18.844,10.4 18.834,10.13C18.834,9.979 18.636,9.849 18.438,9.76C17.974,9.546 17.62,9.578 17.157,9.244C16.683,8.905 16.678,8.718 16.548,8.192C16.324,8.213 16.116,8.218 15.808,8.317C15.506,8.416 15.173,8.656 14.897,8.718C14.204,8.864 14.069,8.822 13.689,8.728C13.022,8.551 12.153,8.848 11.288,9.124C11.147,9.171 10.564,9.124 10.173,9.259C9.47,9.54 8.814,9.92 8.23,10.4C7.49,11.025 6.516,12.89 5.964,15.035C5.907,15.686 6.094,16.124 5.683,16.441C5.272,16.764 5.282,17.576 5.141,17.806C5.006,18.035 4.844,17.931 4.542,18.254C4.245,18.577 4.094,18.525 4.099,19.129C4.359,18.962 4.734,18.764 5.068,18.749C5.36,18.739 5.36,19.124 6.115,18.384C6.516,17.983 7.287,17.973 7.823,17.795C8.359,17.623 9.323,17.259 10.292,16.18C11.256,15.102 11.719,13.961 11.907,12.321C11.933,12.607 11.985,12.936 11.865,13.738C11.735,14.545 11.469,15.446 12.037,16.53L12.386,17.202C12.178,16.916 11.766,16.452 11.641,16.119L11.36,15.348C10.719,16.348 10.574,16.53 9.688,17.244C9.652,17.692 9.641,18.155 9.787,18.583C9.933,19.011 9.704,19.5 9.813,19.781C9.922,20.062 10.178,19.901 10.261,20.187C10.35,20.468 10.219,21.031 10.35,21.307C10.481,21.583 10.798,21.416 10.954,21.51C11.105,21.599 11.157,21.718 11.24,21.838C11.323,21.953 11.209,22.234 11.375,22.322C11.541,22.41 11.802,22.338 11.979,22.421C12.151,22.51 12.177,22.718 12.14,22.905C12.093,23.093 11.911,23.176 11.827,23.369C11.744,23.525 11.754,23.718 11.853,23.864C11.952,24.041 12.171,24.135 12.384,24.223C12.603,24.312 12.91,24.259 13.134,24.384C13.358,24.504 13.561,24.749 13.676,24.926C13.796,25.098 13.827,25.223 13.822,25.41C13.801,25.613 13.744,25.811 13.64,25.988C13.541,26.165 13.322,26.384 13.666,26.728C14.005,27.067 13.994,26.921 14.192,27.145C14.166,26.76 14.01,26.452 14.124,26.161C14.244,25.869 14.588,25.817 14.77,25.692C14.958,25.557 15.062,25.379 15.202,25.228C15.202,25.426 15.223,25.639 15.202,25.785C15.155,26.087 15.067,26.363 15.52,26.41C15.723,26.431 15.916,26.301 16.129,26.222C16.02,26.42 15.822,26.581 15.79,26.821C15.754,27.081 15.816,27.347 15.967,27.566C16.128,27.806 16.42,27.983 16.628,28.123C16.842,28.264 16.956,28.274 17.118,28.352C17.123,28.586 17.076,28.836 17.102,29.06C17.128,29.284 17.201,29.482 17.331,29.664C17.461,29.852 17.664,29.956 17.862,30.091C17.753,29.841 17.539,29.607 17.539,29.346C17.544,29.08 17.622,28.898 17.878,28.664C18.134,28.43 18.727,28.232 19.008,28.008C19.216,27.862 19.383,27.659 19.482,27.425C19.581,27.206 19.555,26.852 19.576,26.654C19.67,26.93 19.68,27.019 19.711,27.305C19.742,27.591 19.544,27.998 19.461,28.211C19.763,28.07 20.008,27.82 20.138,27.513C20.216,27.56 20.18,27.68 20.206,27.914C20.331,27.789 20.472,27.695 20.597,27.581C20.722,27.461 20.857,27.362 20.92,27.196C20.983,27.035 20.956,26.863 20.91,26.675C20.863,26.482 20.655,26.264 20.54,26.055C20.425,25.852 20.561,25.649 20.55,25.399C20.326,25.363 20.133,25.243 19.868,25.284C19.613,25.32 19.311,25.612 19.04,25.617C18.78,25.617 18.623,25.367 18.405,25.299C18.187,25.231 17.967,25.242 17.744,25.205C18.025,24.939 19.109,24.814 19.848,24.695C20.494,24.586 21.15,24.528 21.806,24.518C22.103,24.508 22.483,24.607 22.686,24.549C22.889,24.486 22.847,24.351 22.905,24.195C23.077,23.773 22.994,23.393 22.9,22.966C22.311,22.893 21.692,22.81 21.093,22.857C20.51,22.899 19.817,23.18 19.213,23.196C18.692,23.217 17.916,23.097 17.468,22.821C16.916,22.488 16.489,21.769 16.338,21.535C16.093,21.16 15.786,20.42 15.593,20.087C15.405,19.748 15.364,19.655 15.208,19.514C15.052,19.373 14.838,19.363 14.651,19.285C14.865,19.306 15.099,19.238 15.292,19.348C15.589,19.52 15.912,20.213 16.094,20.52C16.287,19.869 16.245,19.619 16.802,19.249C16.354,19.754 16.338,20.14 16.229,20.733C16.604,21.342 17.125,22.322 17.802,22.592C18.052,22.691 18.474,22.753 18.74,22.785C19.568,22.889 20.365,22.629 21.178,22.426C21.767,22.28 22.371,22.337 23.095,22.379C23.34,22.395 23.913,22.249 24.038,22.004C24.106,21.858 24.09,21.691 24.007,21.561C23.913,21.42 23.663,21.353 23.533,21.222C23.398,21.092 23.325,20.941 23.215,20.805C22.751,20.894 22.277,20.946 21.804,20.956C22.096,20.836 22.377,20.768 22.684,20.649C22.997,20.519 23.299,20.357 23.585,20.175C23.83,20.008 23.986,19.915 24.168,19.727C24.345,19.534 24.574,19.342 24.704,19.112C24.839,18.878 24.855,18.617 24.865,18.331C24.87,18.045 24.86,17.643 24.745,17.409C24.636,17.18 24.422,17.112 24.25,17.06C24.083,17.003 23.964,17.143 23.786,17.159C23.604,17.18 23.442,17.289 23.182,17.169C22.854,16.992 22.567,16.742 22.359,16.435C22.099,16.07 21.911,15.471 21.645,15.013C21.192,14.216 20.619,13.477 20.077,12.742C20.03,12.56 19.962,12.31 19.936,12.065C19.9,11.633 19.894,11.19 20.025,10.773C20.124,10.45 20.275,10.112 20.608,9.981C20.743,9.924 20.894,9.913 21.03,9.955C21.15,9.997 21.27,10.132 21.223,10.288C21.171,10.46 21.051,10.465 20.973,10.554C20.848,10.674 20.765,10.825 20.728,10.992C20.874,10.987 21.077,10.976 21.197,11.013C21.358,11.049 21.504,11.159 21.588,11.383C21.395,11.216 21.302,11.138 21.067,11.133C20.958,11.128 20.822,11.169 20.708,11.185C20.661,11.331 20.635,11.513 20.573,11.628C20.505,11.737 20.385,11.711 20.339,11.842C20.292,12.014 20.287,12.191 20.313,12.363L20.318,12.365ZM21.974,12.167C22.047,12.193 22.073,12.203 22.167,12.271C22.261,12.344 22.386,12.412 22.459,12.578C22.522,12.75 22.537,12.932 22.516,13.114C22.448,13.093 22.365,13.104 22.297,13.046C22.229,12.988 22.193,12.864 22.104,12.806C22.021,12.749 21.948,12.764 21.854,12.749C21.906,12.879 21.922,13.015 21.901,13.15C21.854,13.421 21.693,13.561 21.432,13.593C21.323,13.609 21.14,13.572 21.041,13.551C21.088,13.655 21.166,13.744 21.213,13.848C21.432,13.817 21.593,13.817 21.713,13.765C21.828,13.708 21.958,13.583 22.104,13.536C22.255,13.484 22.39,13.484 22.557,13.458C22.427,13.567 22.343,13.677 22.213,13.791L22.494,14.624C22.697,14.749 22.89,14.817 23.145,14.973C23.4,15.129 23.702,15.411 24.036,15.562C24.369,15.713 24.567,15.796 24.911,15.859C25.26,15.927 25.536,16.208 25.875,16.255C26.214,16.297 26.854,16.312 27.12,16.286C27.417,16.255 27.808,16.104 27.844,15.776C27.589,15.833 27.209,15.781 27.016,15.307C26.933,15.099 26.969,14.713 26.839,14.468C26.709,14.218 26.526,14.14 26.308,13.833C26.089,13.531 25.735,13.047 25.532,12.64C25.334,12.229 25.282,11.77 25.115,11.4C24.948,11.035 24.693,10.744 24.49,10.457C24.058,9.842 23.709,9.421 22.995,9.108C22.651,8.962 22.261,8.92 21.901,8.827C21.75,8.895 21.542,8.962 21.505,9.14C21.479,9.343 21.531,9.546 21.666,9.703C21.874,9.922 22.192,10.161 22.312,10.51C22.395,10.734 22.416,11.479 22.348,11.687C22.275,11.901 22.108,12.026 21.973,12.166L21.974,12.167ZM22.042,13.943C21.974,14 21.927,14.058 21.818,14.104C21.714,14.151 21.568,14.161 21.427,14.198C21.625,14.505 21.833,14.818 22.021,15.146C22.214,15.469 22.375,15.823 22.557,16.162C22.547,15.969 22.557,15.761 22.531,15.579C22.505,15.402 22.422,15.24 22.338,14.964C22.255,14.693 22.156,14.318 22.041,13.943L22.042,13.943ZM16.708,7.156C16.682,7.458 16.734,7.932 16.797,8.234C16.87,8.588 16.943,8.77 17.235,8.984C17.761,9.38 18.094,9.312 18.506,9.541C18.699,9.645 18.944,9.827 19.016,10.02C19.084,10.213 18.969,10.421 18.818,10.504C19.078,10.54 19.365,10.249 19.245,9.957C19.182,9.811 18.906,9.743 18.818,9.592C18.74,9.457 18.724,9.295 18.771,9.144C18.844,8.878 19.38,8.628 19.568,8.42C19.86,8.087 19.969,7.816 19.808,7.394C19.579,6.8 18.683,6.321 18.152,6.087C17.907,5.978 17.767,5.972 17.579,5.915C17.97,6.144 18.381,6.326 18.579,6.837C18.74,7.264 18.6,7.426 18.605,7.795C18.61,7.972 18.834,8.055 18.938,8.165C19.021,8.259 19.016,8.332 18.948,8.462C18.943,8.353 18.885,8.254 18.797,8.196C18.651,8.087 18.484,8.113 18.406,7.894C18.286,7.566 18.526,7.248 18.255,6.878C18.057,6.602 17.786,6.289 17.422,6.284C17.261,6.284 17.099,6.305 16.943,6.362L16.698,6.065L16.693,6.065C16.198,5.612 15.86,5.237 15.162,4.924C14.469,4.617 14.126,4.565 13.323,4.585C12.531,4.601 11.74,4.668 10.813,5.465C9.891,6.262 7.506,9.314 6.928,9.699C6.355,10.084 6.225,10.22 5.506,10.22C4.782,10.22 3.657,9.199 3.61,7.923C3.568,6.647 3.553,6.194 4.438,4.657C5.323,3.12 6.928,2.647 8.12,2.49C9.313,2.329 10.031,2.745 10.912,2.75C11.792,2.75 12.662,2.599 12.922,1.901C12.797,1.974 12.625,2.057 12.151,2.031C11.677,2.01 11.021,1.458 10.281,1.093C9.541,0.723 8.724,0.682 7.666,0.661C6.614,0.64 5.296,0.724 3.994,1.427C2.687,2.125 1.801,2.875 1.041,4.255C0.286,5.63 0.171,6.755 0.296,8.422C0.416,10.089 0.931,11.333 1.921,12.552C2.911,13.771 3.9,14.37 5.687,14.594L6.062,12.938L5.39,13.896L5.411,12.828L4.802,13.578L4.536,12.557L4.046,13.375L3.801,12.24L3.087,12.813L3.311,11.875L2.368,11.979L2.8,11.323L1.941,11.333L2.441,10.458L1.681,10.338L2.29,9.541L1.358,9.27L2.129,8.53L1.363,7.905L1.962,7.441L1.399,6.696L1.998,6.003L1.774,5.086L2.279,4.648L2.43,3.601L2.998,3.315L3.488,2.502L4.389,2.403L4.837,1.669L5.743,1.716L6.597,1.252L7.488,1.455L8.493,1.153L9.243,1.325L10.217,1.471L11.16,2.221L9.717,1.721L8.993,2.065L8.389,1.7L7.978,1.981L7.244,2.054L6.588,2.018L6.114,2.596L5.135,2.606L4.791,3.392L3.921,3.694L3.843,4.6L3.218,5.084L3.426,5.938L2.89,6.818L3.301,7.594L2.895,8.302L3.437,8.651L3.317,9.792L4.067,9.98L4.234,10.824L5.052,10.741L5.557,11.319L6.187,10.704C7.328,10.131 7.802,9.813 8.692,8.85C9.708,7.751 10.291,6.735 11.64,5.985C12.609,5.443 13.4,5.251 14.489,5.443C15.51,5.615 15.854,6.229 16.609,6.875C16.692,6.729 16.703,6.693 16.838,6.583C16.796,6.776 16.729,6.968 16.713,7.151L16.708,7.156Z" style="fill-rule:nonzero;"/></g></g></g></g></svg>