<?xml version="1.0" encoding="UTF-8" standalone="no"?><!DOCTYPE svg PUBLIC "-//W3C//DTD SVG 1.1//EN" "http://www.w3.org/Graphics/SVG/1.1/DTD/svg11.dtd"><svg width="100%" height="100%" viewBox="0 0 18 16" version="1.1" xmlns="http://www.w3.org/2000/svg" xmlns:xlink="http://www.w3.org/1999/xlink" xml:space="preserve" xmlns:serif="http://www.serif.com/" style="fill-rule:evenodd;clip-rule:evenodd;stroke-linejoin:round;stroke-miterlimit:2;"><g id="unocss" transform="matrix(0.0636364,0,0,0.0636364,9,8)"><g transform="matrix(1,0,0,1,-110,-110)"><path d="M117.444,167.888C117.444,140.273 139.83,117.888 167.444,117.888C195.058,117.888 217.444,140.273 217.444,167.888C217.444,195.502 195.058,217.888 167.444,217.888C139.83,217.888 117.444,195.502 117.444,167.888Z" style="fill:rgb(133,133,133);fill-rule:nonzero;"/><path d="M117.444,53C117.444,25.386 139.83,3 167.444,3C195.058,3 217.444,25.386 217.444,53L217.444,98C217.444,100.761 215.205,103 212.444,103L122.444,103C119.683,103 117.444,100.761 117.444,98L117.444,53Z" style="fill:rgb(204,204,204);fill-rule:nonzero;"/><path d="M102,167.888C102,195.502 79.614,217.888 52,217.888C24.386,217.888 2,195.502 2,167.888L2,122.888C2,120.126 4.239,117.888 7,117.888L97,117.888C99.761,117.888 102,120.126 102,122.888L102,167.888Z" style="fill:rgb(77,77,77);fill-rule:nonzero;"/></g></g></svg>