<?xml version="1.0" encoding="UTF-8" standalone="no"?><!DOCTYPE svg PUBLIC "-//W3C//DTD SVG 1.1//EN" "http://www.w3.org/Graphics/SVG/1.1/DTD/svg11.dtd"><svg width="100%" height="100%" viewBox="0 0 18 16" version="1.1" xmlns="http://www.w3.org/2000/svg" xmlns:xlink="http://www.w3.org/1999/xlink" xml:space="preserve" xmlns:serif="http://www.serif.com/" style="fill-rule:evenodd;clip-rule:evenodd;stroke-linejoin:round;stroke-miterlimit:2;"><g transform="matrix(0.2125,0,0,0.2125,9,8)"><g id="bun" transform="matrix(1,0,0,1,-40,-35)"><path id="Shadow" d="M71.09,20.74C70.93,20.57 70.76,20.4 70.59,20.24C70.42,20.08 70.26,19.9 70.09,19.74C69.92,19.58 69.76,19.4 69.59,19.24C69.42,19.08 69.26,18.9 69.09,18.74C68.92,18.58 68.76,18.4 68.59,18.24C68.42,18.08 68.26,17.9 68.09,17.74C67.92,17.58 67.76,17.4 67.59,17.24C72.548,22.113 75.392,28.749 75.5,35.7C75.5,52.27 58.68,65.75 38,65.75C26.42,65.75 16.06,61.52 9.17,54.89L12.67,58.39C19.55,65.3 30.14,69.75 42,69.75C62.68,69.75 79.5,56.27 79.5,39.75C79.5,32.69 76.46,26 71.09,20.74Z" style="fill-rule:nonzero;"/><g id="Body"><path id="Background" d="M73,35.7C73,50.91 57.33,63.24 38,63.24C18.67,63.24 3,50.91 3,35.7C3,26.27 9,17.94 18.22,13C27.44,8.06 33.18,3 38,3C42.82,3 46.94,7.13 57.78,13C67,17.94 73,26.27 73,35.7Z" style="fill:rgb(251,240,223);fill-rule:nonzero;"/><path id="Bottom_Shadow" d="M73,35.7C72.995,33.746 72.726,31.802 72.2,29.92C69.47,63.22 28.85,64.82 12.88,54.86C20.058,60.423 28.92,63.38 38,63.24C57.3,63.24 73,50.89 73,35.7Z" style="fill:rgb(246,222,206);fill-rule:nonzero;"/><path id="Light_Shine" d="M24.53,11.17C29,8.49 34.94,3.46 40.78,3.45C39.882,3.16 38.944,3.008 38,3C35.58,3 33,4.25 29.75,6.13C28.62,6.79 27.45,7.52 26.21,8.28C23.88,9.72 21.21,11.35 18.21,12.98C8.69,18.13 3,26.62 3,35.7L3,36.89C9.06,15.48 20.07,13.85 24.53,11.17Z" style="fill:rgb(255,254,252);fill-rule:nonzero;"/><path id="Top" d="M35.12,5.53C35.148,10.305 33.091,14.863 29.49,18C29.21,18.25 29.43,18.73 29.79,18.59C33.16,17.28 37.71,13.36 35.79,5.45C35.71,5 35.12,5.12 35.12,5.53ZM37.39,5.53C39.865,9.568 40.453,14.493 39,19C38.88,19.35 39.31,19.65 39.55,19.36C41.74,16.56 43.65,11 37.93,5C37.64,4.74 37.19,5.14 37.39,5.49L37.39,5.53ZM40.15,5.36C44.025,8.103 46.525,12.396 47,17.12C46.998,17.133 46.998,17.146 46.998,17.159C46.998,17.34 47.147,17.489 47.328,17.489C47.482,17.489 47.617,17.381 47.65,17.23C48.57,13.74 48.05,7.79 40.48,4.7C40.08,4.54 39.82,5.08 40.15,5.32L40.15,5.36ZM21.69,15.76C26.297,14.384 30.107,11.108 32.16,6.76C32.34,6.4 32.91,6.54 32.82,6.94C31.09,14.94 25.3,16.61 21.7,16.39C21.32,16.4 21.33,15.87 21.69,15.76Z" style="fill:rgb(204,190,167);"/><path id="Outline" d="M38,65.75C17.32,65.75 0.5,52.27 0.5,35.7C0.5,25.7 6.68,16.37 17.03,10.78C20.03,9.18 22.6,7.57 24.89,6.16C26.15,5.38 27.34,4.65 28.49,3.97C32,1.89 35,0.5 38,0.5C41,0.5 43.62,1.7 46.9,3.64C47.9,4.21 48.9,4.83 49.97,5.51C52.46,7.05 55.27,8.79 58.97,10.78C69.32,16.37 75.5,25.69 75.5,35.7C75.5,52.27 58.68,65.75 38,65.75ZM38,3C35.58,3 33,4.25 29.75,6.13C28.62,6.79 27.45,7.52 26.21,8.28C23.88,9.72 21.21,11.35 18.21,12.98C8.69,18.13 3,26.62 3,35.7C3,50.89 18.7,63.25 38,63.25C57.3,63.25 73,50.89 73,35.7C73,26.62 67.31,18.13 57.78,13C54,11 51.05,9.12 48.66,7.64C47.57,6.97 46.57,6.35 45.66,5.8C42.63,4 40.42,3 38,3Z" style="fill-rule:nonzero;"/></g><g id="Mouth"><g id="Background-2"><path d="M45.05,43C44.601,44.84 43.578,46.49 42.13,47.71C41.043,48.764 39.635,49.426 38.13,49.59C36.58,49.452 35.122,48.788 34,47.71C32.567,46.484 31.558,44.835 31.12,43C31.116,42.968 31.114,42.937 31.114,42.905C31.114,42.51 31.439,42.185 31.834,42.185C31.863,42.185 31.891,42.187 31.92,42.19L44.26,42.19C44.285,42.187 44.311,42.186 44.336,42.186C44.731,42.186 45.056,42.511 45.056,42.906C45.056,42.937 45.054,42.969 45.05,43Z" style="fill:rgb(183,20,34);fill-rule:nonzero;"/></g><g id="Tongue"><path id="Background-3" d="M34,47.79C35.12,48.869 36.572,49.538 38.12,49.69C39.664,49.536 41.112,48.867 42.23,47.79C42.588,47.457 42.922,47.099 43.23,46.72C41.985,45.308 40.211,44.472 38.33,44.41C36.309,44.458 34.437,45.499 33.33,47.19C33.56,47.4 33.76,47.6 34,47.79Z" style="fill:rgb(255,97,100);fill-rule:nonzero;"/><path id="Outline-2" d="M34.16,47C35.164,45.703 36.71,44.935 38.35,44.92C39.847,44.964 41.275,45.567 42.35,46.61C42.58,46.36 42.8,46.1 43.01,45.84C41.738,44.629 40.056,43.939 38.3,43.91C36.4,43.926 34.605,44.793 33.41,46.27C33.646,46.527 33.897,46.771 34.16,47Z" style="fill-rule:nonzero;"/></g><path id="Outline-3" d="M38.09,50.19C36.424,50.044 34.855,49.339 33.64,48.19C32.092,46.881 31.002,45.111 30.53,43.14C30.461,42.785 30.557,42.417 30.79,42.14C31.068,41.805 31.485,41.616 31.92,41.63L44.26,41.63C44.694,41.621 45.11,41.808 45.39,42.14C45.621,42.418 45.713,42.786 45.64,43.14C45.168,45.111 44.078,46.881 42.53,48.19C41.317,49.337 39.753,50.042 38.09,50.19ZM31.92,42.79C31.76,42.79 31.72,42.86 31.71,42.88C32.133,44.589 33.089,46.12 34.44,47.25C35.428,48.223 36.713,48.839 38.09,49C39.464,48.841 40.747,48.233 41.74,47.27C43.087,46.139 44.039,44.608 44.46,42.9C44.416,42.835 44.338,42.8 44.26,42.81L31.92,42.79Z" style="fill-rule:nonzero;"/></g><g id="Face"><ellipse id="Right_Blush" cx="53.22" cy="40.18" rx="5.85" ry="3.44" style="fill:rgb(254,187,208);"/><ellipse id="Left_Bluch" cx="22.95" cy="40.18" rx="5.85" ry="3.44" style="fill:rgb(254,187,208);"/><path id="Eyes" d="M25.7,38.8C25.703,38.8 25.707,38.8 25.71,38.8C28.733,38.8 31.22,36.313 31.22,33.29C31.22,30.267 28.733,27.78 25.71,27.78C22.687,27.78 20.2,30.267 20.2,33.29C20.2,36.309 22.681,38.795 25.7,38.8ZM50.47,38.8C50.483,38.8 50.497,38.8 50.51,38.8C53.533,38.8 56.02,36.313 56.02,33.29C56.02,30.267 53.533,27.78 50.51,27.78C47.487,27.78 45,30.267 45,33.29C44.994,36.3 47.46,38.784 50.47,38.8Z"/><path id="Iris" d="M24,33.64C24.003,33.64 24.007,33.64 24.01,33.64C25.146,33.64 26.08,32.706 26.08,31.57C26.08,30.434 25.146,29.5 24.01,29.5C22.874,29.5 21.94,30.434 21.94,31.57C21.94,32.702 22.868,33.635 24,33.64ZM48.75,33.64C48.75,33.64 48.777,33.64 48.78,33.64C49.916,33.64 50.85,32.706 50.85,31.57C50.85,30.434 49.916,29.5 48.78,29.5C47.644,29.5 46.71,30.434 46.71,31.57C46.71,32.694 47.626,33.624 48.75,33.64Z" style="fill:white;"/></g></g><g id="bun1" serif:id="bun"></g></g></svg>