<svg width="100%" height="100%" viewBox="0 0 18 16" version="1.1" xmlns="http://www.w3.org/2000/svg" xmlns:xlink="http://www.w3.org/1999/xlink" xml:space="preserve" style="fill-rule:evenodd;clip-rule:evenodd;stroke-linejoin:round;stroke-miterlimit:2;"><g id="firebase" transform="matrix(0.0716517,0,0,0.0716517,3.24738,0.904328)"><path d="M51.228,191.109C59.403,194.399 68.273,196.352 77.586,196.677C90.19,197.117 102.175,194.511 112.89,189.561C100.041,184.513 88.404,177.131 78.473,167.952C72.035,178.26 62.514,186.401 51.228,191.109Z" style="fill:rgb(255,145,0);fill-rule:nonzero;"/><path d="M78.471,167.955C55.801,146.988 42.048,116.641 43.21,83.356C43.248,82.275 43.305,81.195 43.372,80.115C39.311,79.065 35.073,78.424 30.71,78.272C24.466,78.054 18.42,78.828 12.711,80.436C6.659,91.037 3.007,103.2 2.552,116.228C1.378,149.852 21.725,179.231 51.226,191.112C62.512,186.404 72.033,178.272 78.471,167.955Z" style="fill:rgb(255,196,0);fill-rule:nonzero;"/><path d="M78.472,167.954C83.743,159.519 86.939,149.63 87.311,138.976C88.289,110.95 69.449,86.841 43.373,80.114C43.306,81.194 43.249,82.274 43.211,83.355C42.049,116.64 55.801,146.987 78.472,167.954Z" style="fill:rgb(255,145,0);fill-rule:nonzero;"/><path d="M84.394,1.335C69.543,13.233 57.816,28.921 50.721,46.994C46.658,57.345 44.106,68.465 43.36,80.121C69.437,86.848 88.277,110.957 87.299,138.983C86.926,149.637 83.721,159.516 78.46,167.961C88.391,177.149 100.028,184.522 112.877,189.57C138.667,177.649 156.965,151.996 158.025,121.654C158.711,101.995 151.158,84.474 140.485,69.685C129.214,54.044 84.394,1.335 84.394,1.335Z" style="fill:rgb(221,44,0);fill-rule:nonzero;"/></g></svg>