<svg width="100%" height="100%" viewBox="0 0 18 16" version="1.1" xmlns="http://www.w3.org/2000/svg" xmlns:xlink="http://www.w3.org/1999/xlink" xml:space="preserve" style="fill-rule:evenodd;clip-rule:evenodd;stroke-miterlimit:1;"><g id="fish"><g transform="matrix(0.906516,-0.15928,0.240986,1.37153,-0.791479,-1.48016)"><path d="M15.116,4.82L15.116,10.797C15.116,10.83 15.075,10.858 15.024,10.858L2.168,10.858C2.117,10.858 2.076,10.83 2.076,10.797L2.076,4.82C2.076,4.787 2.117,4.759 2.168,4.759L15.024,4.759C15.075,4.759 15.116,4.787 15.116,4.82Z"/></g><g transform="matrix(1.04408,-0.18345,0.293152,1.66843,-2.37624,-3.53971)"><g style="filter:url(#_Effect-5deb4fr);"><path d="M15.116,5.064L15.116,10.553C15.116,10.721 14.898,10.858 14.629,10.858L2.563,10.858C2.294,10.858 2.076,10.721 2.076,10.553L2.076,5.064C2.076,4.896 2.294,4.759 2.563,4.759L14.629,4.759C14.898,4.759 15.116,4.896 15.116,5.064Z"/></g></g><g transform="matrix(1.04408,-0.18345,0.293152,1.66843,-2.37624,-3.53971)"><path d="M15.116,5.064L15.116,10.553C15.116,10.721 14.898,10.858 14.629,10.858L2.563,10.858C2.294,10.858 2.076,10.721 2.076,10.553L2.076,5.064C2.076,4.896 2.294,4.759 2.563,4.759L14.629,4.759C14.898,4.759 15.116,4.896 15.116,5.064Z" style="fill:url(#_Linear-hj5j5q7);stroke:black;stroke-opacity:0.65;stroke-width:0.06px;"/></g><g transform="matrix(0.906516,-0.15928,0.240986,1.37153,-0.791479,-1.48016)"><path d="M13.01,4.759L15.024,4.759C15.075,4.759 15.116,4.787 15.116,4.82L15.116,10.797C15.116,10.83 15.075,10.858 15.024,10.858L2.168,10.858C2.117,10.858 2.076,10.83 2.076,10.797L2.076,8.375L13.01,4.759Z" style="fill:url(#_Linear-0gx0532);"/></g><path d="M3.108,9.676L2.252,4.8C2.244,4.754 2.275,4.71 2.321,4.702L12.149,2.975L3.108,9.676Z" style="fill:url(#_Linear-z6nl5ew);"/><path d="M4.924,8.529C4.733,8.337 4.563,8.142 4.415,7.965C4.038,7.516 3.802,7.185 3.802,7.185L3.812,6.966C3.812,6.966 4.441,6.47 5.244,6.066L5.244,6.33C5.243,6.331 5.242,6.331 5.242,6.331L5.244,6.408L5.244,6.529L4.247,7.159C4.245,7.158 4.244,7.159 4.244,7.16L4.247,7.159C4.285,7.168 4.739,7.693 4.924,7.909L4.924,8.529Z" style="fill:rgb(74,174,71);"/><path d="M5.633,5.885C6.03,5.715 6.449,5.586 6.844,5.558C7.426,5.516 8.219,5.651 8.904,6.189C8.994,6.259 9.081,6.334 9.166,6.412L9.166,6.838C8.963,6.673 8.679,6.445 8.526,6.34C8.06,6.02 7.324,5.951 6.936,5.936C6.446,5.917 5.958,6.051 5.633,6.168L5.633,5.885Z" style="fill:rgb(74,174,71);"/><path d="M8.77,9.346C8.233,9.571 7.609,9.726 7.043,9.691C6.721,9.671 6.351,9.53 6.053,9.384C5.749,9.234 5.467,9.028 5.213,8.803L5.213,8.426L5.271,8.465C5.787,8.811 6.298,9.206 6.942,9.287C7.15,9.314 7.704,9.311 8.039,9.245C8.216,9.21 8.531,9.118 8.77,9.045L8.77,9.346Z" style="fill:rgb(74,174,71);"/><path d="M9.421,6.66C9.696,6.944 9.937,7.242 10.126,7.479L10.541,8L10.539,8.27L9.556,8.928C9.415,9.023 9.254,9.116 9.077,9.204L9.077,8.948C9.082,8.947 9.085,8.946 9.085,8.946L9.095,8.727L10.076,8.093L9.421,7.26L9.421,6.66Z" style="fill:rgb(74,174,71);"/><path d="M7.366,5.287L7.901,5.368L8.701,4.76L9.32,5.605L9.768,5.621L8.864,4.39L8.599,4.407L7.366,5.287Z" style="fill:rgb(74,174,71);"/><path d="M5.706,6.842L5.649,7.347L6.029,7.447L6.08,6.902L5.706,6.842Z" style="fill:rgb(74,174,71);"/><g transform="matrix(-0.186104,1.44009,-1.23648,-0.159792,24.909,-7.90791)"><path d="M13.166,8.487C13.021,8.709 12.921,8.799 12.785,8.974L12.358,9.525L12.203,9.549C12.203,9.549 11.839,9.123 11.707,8.946C11.607,8.811 11.507,8.653 11.427,8.519L11.755,8.469C11.982,8.802 12.253,9.146 12.253,9.146C12.253,9.146 12.469,8.891 12.693,8.607C12.713,8.583 12.732,8.559 12.749,8.536L13.166,8.487Z" style="fill:rgb(74,174,71);"/></g><g transform="matrix(-0.186104,1.44009,-1.23648,-0.159792,24.909,-7.90791)"><path d="M11.273,8.202C11.118,7.739 11.191,7.154 11.37,6.968C11.565,6.765 12.098,6.693 12.239,7.147C12.47,6.632 12.951,6.665 13.175,6.955C13.363,7.199 13.443,7.78 13.294,8.224L12.939,8.265C13,8.161 13.041,8.065 13.076,7.946C13.143,7.714 13.187,7.11 12.712,7.093C12.549,7.087 12.438,7.192 12.382,7.3C12.272,7.513 12.31,7.797 12.31,7.797L12.16,7.812C12.16,7.812 12.15,7.464 12.062,7.257C11.994,7.099 11.832,7.073 11.682,7.13C11.51,7.196 11.428,7.435 11.437,7.671C11.442,7.84 11.494,8.008 11.566,8.158L11.273,8.202Z" style="fill:rgb(74,155,200);"/></g><path d="M6.291,9.765C6.291,9.765 6.239,9.97 6.249,10.095C6.26,10.22 6.313,10.578 6.407,10.714C6.499,10.85 6.675,10.827 6.675,10.827C6.675,10.827 6.638,10.405 6.635,10.241C6.632,10.076 6.688,9.943 6.688,9.943L6.68,9.831L6.291,9.765Z" style="fill:rgb(74,174,71);"/></g><defs><filter id="_Effect-5deb4fr" filterUnits="userSpaceOnUse" x="1.08461" y="4.13911" width="15.0225" height="7.33859"><feGaussianBlur in="SourceGraphic" stdDeviation="0.123913"/></filter><linearGradient id="_Linear-hj5j5q7" x1="0" y1="0" x2="1" y2="0" gradientUnits="userSpaceOnUse" gradientTransform="matrix(-12.0614,-5.46737,8.73681,-7.54786,14.706,10.5667)"><stop offset="0" style="stop-color:rgb(126,126,127);stop-opacity:1"/><stop offset="0.55" style="stop-color:rgb(174,174,174);stop-opacity:1"/><stop offset="1" style="stop-color:rgb(194,194,194);stop-opacity:1"/></linearGradient><linearGradient id="_Linear-0gx0532" x1="0" y1="0" x2="1" y2="0" gradientUnits="userSpaceOnUse" gradientTransform="matrix(-0.178638,-3.73612,5.65265,-0.118071,8.55851,10.5571)"><stop offset="0" style="stop-color:rgb(61,61,61);stop-opacity:1"/><stop offset="1" style="stop-color:rgb(68,68,68);stop-opacity:1"/></linearGradient><linearGradient id="_Linear-z6nl5ew" x1="0" y1="0" x2="1" y2="0" gradientUnits="userSpaceOnUse" gradientTransform="matrix(-1.95033,-2.97843,2.97843,-1.95033,4.74267,8)"><stop offset="0" style="stop-color:rgb(75,76,76);stop-opacity:1"/><stop offset="0.44" style="stop-color:rgb(65,66,66);stop-opacity:1"/><stop offset="1" style="stop-color:rgb(41,41,41);stop-opacity:1"/></linearGradient></defs></svg>