<svg width="100%" height="100%" viewBox="0 0 18 16" version="1.1" xmlns="http://www.w3.org/2000/svg" xmlns:xlink="http://www.w3.org/1999/xlink" xml:space="preserve" style="fill-rule:evenodd;clip-rule:evenodd;stroke-linejoin:round;stroke-miterlimit:2;"><g id="flask" transform="matrix(1.30435,0,0,1.30435,-2.298,-1.65238)"><g transform="matrix(1.10564,0,0,1.13006,-0.307617,-0.214618)"><path d="M13.313,2.261L13.313,11.216C13.313,11.553 13.033,11.827 12.689,11.827L3.536,11.827C3.191,11.827 2.912,11.553 2.912,11.216L2.912,2.261C2.912,1.924 3.191,1.65 3.536,1.65L12.689,1.65C13.033,1.65 13.313,1.924 13.313,2.261Z" style="fill:url(#_Linear-onwb3es);"/></g><path d="M11.295,13.15L6.943,8.798L6.492,7.863L6.174,7.545L5.703,6.446L8.741,4.377L14.412,10.048L14.412,12.37C14.327,12.57 14.229,12.731 14.12,12.814C13.966,12.931 13.785,13.046 13.61,13.15L11.295,13.15Z" style="fill:rgb(27,109,116);"/><path d="M5.297,5.853L8.741,4.377L8.882,6.307L6.174,7.545L5.878,6.857L5.876,6.479L5.599,6.458L5.297,5.853Z" style="fill:white;"/><path d="M6.346,7.911L8.962,6.708L9.223,7.604L6.943,8.798L6.346,7.911Z" style="fill:white;"/><path d="M7.202,9.126L9.391,7.982C9.391,7.982 9.849,8.892 10.541,9.206C11.355,9.575 12.002,9.448 12.002,9.448L12.021,9.294L12.64,9.161L12.917,9.528L12.9,9.629L12.323,10.069L12.109,10.061L12.115,9.917C12.115,9.917 11.135,10.424 10.05,10.433C8.295,10.447 7.202,9.126 7.202,9.126Z" style="fill:white;"/></g><defs><linearGradient id="_Linear-onwb3es" x1="0" y1="0" x2="1" y2="0" gradientUnits="userSpaceOnUse" gradientTransform="matrix(-0.0404527,-9.61547,9.82779,-0.0395787,8.08753,11.6261)"><stop offset="0" style="stop-color:rgb(57,169,190);stop-opacity:1"/><stop offset="1" style="stop-color:rgb(173,223,225);stop-opacity:1"/></linearGradient></defs></svg>