<svg width="100%" height="100%" viewBox="0 0 18 16" version="1.1" xmlns="http://www.w3.org/2000/svg" xmlns:xlink="http://www.w3.org/1999/xlink" xml:space="preserve" style="fill-rule:evenodd;clip-rule:evenodd;stroke-linejoin:round;stroke-miterlimit:2;"><g id="flatbuffers"><g id="gray-circle" transform="matrix(1.5152,0,0,1.36385,-0.984518,0.116652)"><ellipse cx="6.59" cy="5.78" rx="5.115" ry="5.682" style="fill:rgb(241,241,241);"/></g><path id="ship" d="M8.016,8.787C7.659,8.807 7.374,8.842 7.178,8.897C6.546,9.073 6.616,9.359 6.616,9.359C6.616,9.359 6.463,8.825 6.751,8.282C6.988,7.834 7.652,7.472 7.652,7.472C7.652,7.472 7.097,5.985 7.062,4.663C7.022,3.156 8.958,2.292 8.958,2.292C8.958,2.292 10.908,3.094 10.989,4.55C11.053,5.707 10.353,7.451 10.353,7.451C10.353,7.451 10.849,7.82 11.181,8.212C11.514,8.604 11.357,9.291 11.357,9.291C11.357,9.291 11.239,9.023 10.649,8.868C10.465,8.819 10.24,8.793 9.954,8.778L9.954,9.061L8.016,9.061L8.016,8.787ZM8.985,3.573C8.35,3.573 7.835,4.09 7.835,4.727C7.835,5.364 8.35,5.881 8.985,5.881C9.62,5.881 10.135,5.364 10.135,4.727C10.135,4.09 9.62,3.573 8.985,3.573Z" style="fill:rgb(204,0,0);"/><g transform="matrix(1.19045,0,0,1.1515,-1.8599,-1.75892)"><path d="M9.681,11.587C9.557,11.539 9.469,11.421 9.469,11.283C9.469,11.102 9.619,10.956 9.804,10.956C9.944,10.956 10.064,11.04 10.114,11.16C10.149,11.147 10.186,11.139 10.225,11.139C10.395,11.139 10.53,11.276 10.526,11.444C10.522,11.587 10.419,11.708 10.284,11.74C10.264,11.911 10.134,12.043 9.976,12.043C9.805,12.043 9.665,11.887 9.665,11.696C9.665,11.658 9.671,11.622 9.681,11.587ZM9.401,12.472C9.318,12.422 9.262,12.329 9.262,12.222C9.262,12.064 9.385,11.935 9.536,11.935C9.654,11.935 9.755,12.014 9.793,12.123C9.794,12.123 9.795,12.123 9.796,12.123C9.93,12.123 10.04,12.235 10.04,12.372C10.04,12.509 9.93,12.621 9.796,12.621C9.786,12.621 9.776,12.62 9.766,12.619C9.76,12.736 9.672,12.828 9.564,12.828C9.452,12.828 9.361,12.728 9.361,12.606C9.361,12.555 9.376,12.509 9.401,12.472ZM9.244,12.914C9.336,12.914 9.412,12.991 9.412,13.087C9.412,13.183 9.336,13.261 9.244,13.261C9.151,13.261 9.076,13.183 9.076,13.087C9.076,12.991 9.151,12.914 9.244,12.914Z" style="fill:url(#_Linear1);"/></g><g transform="matrix(1,0,0,1,-0.0831774,-0.161957)"><path d="M9.594,10.284C9.502,10.421 9.353,10.511 9.184,10.511C8.906,10.511 8.681,10.268 8.681,9.969C8.681,9.669 8.906,9.426 9.184,9.426C9.436,9.426 9.645,9.625 9.682,9.885C9.755,9.797 9.862,9.741 9.981,9.741C10.202,9.741 10.381,9.934 10.381,10.173C10.381,10.2 10.379,10.227 10.374,10.253C10.393,10.249 10.412,10.247 10.431,10.247C10.607,10.247 10.75,10.401 10.75,10.59C10.75,10.78 10.607,10.934 10.431,10.934C10.255,10.934 10.112,10.78 10.112,10.59C10.112,10.587 10.112,10.584 10.112,10.58C10.071,10.596 10.027,10.604 9.981,10.604C9.795,10.604 9.639,10.468 9.594,10.284Z" style="fill:url(#_Linear2);"/></g><g transform="matrix(1,0,0,1,-0.0788698,-0.0359663)"><path d="M7.535,11.079C7.366,11.038 7.241,10.89 7.241,10.715C7.241,10.508 7.415,10.341 7.629,10.341C7.635,10.341 7.641,10.341 7.647,10.341C7.78,10.195 7.977,10.103 8.196,10.103C8.597,10.103 8.922,10.412 8.922,10.793C8.922,10.878 8.906,10.96 8.876,11.035C9.142,11.072 9.347,11.289 9.347,11.55C9.347,11.771 9.201,11.96 8.996,12.036C9.007,12.072 9.014,12.11 9.014,12.149C9.014,12.227 8.99,12.299 8.947,12.362C9.079,12.388 9.18,12.512 9.18,12.662C9.18,12.831 9.053,12.967 8.897,12.967C8.741,12.967 8.615,12.831 8.615,12.662C8.615,12.628 8.62,12.595 8.63,12.564C8.594,12.571 8.557,12.575 8.52,12.575C8.247,12.575 8.025,12.384 8.025,12.149C8.025,11.984 8.136,11.84 8.297,11.77C8.264,11.703 8.246,11.629 8.246,11.55C8.246,11.527 8.247,11.504 8.251,11.481C8.233,11.482 8.214,11.483 8.196,11.483C7.902,11.483 7.649,11.317 7.535,11.079ZM8.224,9.527C8.365,9.527 8.48,9.644 8.48,9.789C8.48,9.934 8.365,10.051 8.224,10.051C8.082,10.051 7.967,9.934 7.967,9.789C7.967,9.644 8.082,9.527 8.224,9.527Z" style="fill:url(#_Linear3);"/></g></g><defs><linearGradient id="_Linear1" x1="0" y1="0" x2="1" y2="0" gradientUnits="userSpaceOnUse" gradientTransform="matrix(0.418951,-1.8522,1.7916,0.433122,9.52676,12.4366)"><stop offset="0" style="stop-color:rgb(250,187,64);stop-opacity:1"/><stop offset="0.55" style="stop-color:rgb(240,147,50);stop-opacity:1"/><stop offset="1" style="stop-color:rgb(204,0,0);stop-opacity:1"/></linearGradient><linearGradient id="_Linear2" x1="0" y1="0" x2="1" y2="0" gradientUnits="userSpaceOnUse" gradientTransform="matrix(-0.0694237,1.27021,-1.27021,-0.0694237,9.7137,10.1407)"><stop offset="0" style="stop-color:rgb(204,0,0);stop-opacity:1"/><stop offset="1" style="stop-color:rgb(250,186,2);stop-opacity:1"/></linearGradient><linearGradient id="_Linear3" x1="0" y1="0" x2="1" y2="0" gradientUnits="userSpaceOnUse" gradientTransform="matrix(-0.679733,-3.02361,3.02361,-0.679733,8.88427,12.751)"><stop offset="0" style="stop-color:rgb(250,187,64);stop-opacity:1"/><stop offset="1" style="stop-color:rgb(204,0,0);stop-opacity:1"/></linearGradient></defs></svg>