<svg width="100%" height="100%" viewBox="0 0 18 16" version="1.1" xmlns="http://www.w3.org/2000/svg" xmlns:xlink="http://www.w3.org/1999/xlink" xml:space="preserve" style="fill-rule:evenodd;clip-rule:evenodd;stroke-linejoin:round;stroke-miterlimit:2;"><g id="flow" transform="matrix(0.0577439,0,0,0.0577439,2,0.714745)"><path d="M224.74,109L140.63,24.9L224.74,24.9L224.74,109Z" style="fill:rgb(255,202,32);fill-opacity:0.7;fill-rule:nonzero;"/><path d="M81.72,0L129.4,0L165.84,36.43L81.72,36.43L81.72,0Z" style="fill:rgb(255,202,32);fill-opacity:0.7;fill-rule:nonzero;"/><path d="M84.45,84.12L0.34,0L101.47,0L101.47,84.11L84.45,84.12ZM158.34,168.22L242.45,252.33L158.34,252.33L158.34,168.22Z" style="fill:rgb(255,207,57);fill-opacity:0.9;fill-rule:nonzero;"/><path d="M101.47,168.23L17.37,84.11L101.48,84.11L101.48,168.22L101.47,168.23ZM192.05,125.66L125,58.57L192.08,58.57L192.05,125.66ZM199.89,244.5L123.61,168.23L199.89,168.23L199.89,244.5Z" style="fill:rgb(255,228,144);fill-opacity:0.7;fill-rule:nonzero;"/><path d="M101.47,67L34.47,0L101.47,0L101.47,67Z" style="fill:rgb(252,188,124);fill-opacity:0.9;fill-rule:nonzero;"/><path d="M123.95,168.22L208.06,252.33L123.95,252.33L123.95,168.22Z" style="fill:rgb(249,160,64);fill-opacity:0.8;fill-rule:nonzero;"/><path d="M209.08,201.8L125.08,117.8L209.08,117.8L209.08,201.8Z" style="fill:rgb(249,160,64);fill-opacity:0.7;fill-rule:nonzero;"/><path d="M125,58.57L208.09,141.66L125,141.66L125,58.57Z" style="fill:rgb(255,207,57);fill-opacity:0.9;fill-rule:nonzero;"/><path d="M101.47,252L0,150.51L101.47,150.51L101.47,252Z" style="fill:rgb(255,199,55);fill-opacity:0.7;fill-rule:nonzero;"/></g></svg>