<svg width="100%" height="100%" viewBox="0 0 18 16" version="1.1" xmlns="http://www.w3.org/2000/svg" xmlns:xlink="http://www.w3.org/1999/xlink" xml:space="preserve" style="fill-rule:evenodd;clip-rule:evenodd;stroke-linejoin:round;stroke-miterlimit:2;"><g id="fluent"><g transform="matrix(1.07657,0,0,0.985474,-0.954519,0.5)"><ellipse cx="9.247" cy="7.611" rx="6.967" ry="7.611" style="fill:rgb(52,61,70);"/></g><g transform="matrix(1.04701,0,0,0.834614,2.70997,2.6309)"><path d="M0.688,7.364C0.596,7.364 0.492,7.311 0.375,7.205C0.358,7.323 0.342,7.441 0.327,7.558C0.313,7.675 0.295,7.788 0.275,7.895C0.254,8.002 0.228,8.102 0.198,8.194C0.167,8.286 0.126,8.365 0.077,8.432C-0.033,8.577 -0.184,8.65 -0.379,8.65C-0.409,8.65 -0.434,8.635 -0.454,8.607C-0.488,8.555 -0.502,8.497 -0.496,8.431C-0.489,8.365 -0.469,8.271 -0.434,8.149C-0.4,8.027 -0.356,7.892 -0.303,7.745C-0.25,7.598 -0.19,7.442 -0.124,7.276L0.085,6.776C0.061,6.705 0.049,6.642 0.049,6.587C0.049,6.531 0.057,6.475 0.072,6.42C0.087,6.364 0.108,6.312 0.135,6.263C0.197,6.148 0.265,6.09 0.341,6.09C0.355,6.09 0.37,6.092 0.385,6.096C0.668,5.494 0.831,5.151 0.873,5.067L0.962,4.892C1.129,4.584 1.287,4.4 1.436,4.339C1.487,4.318 1.538,4.308 1.591,4.308C1.644,4.308 1.688,4.331 1.722,4.377C1.756,4.423 1.773,4.497 1.773,4.597C1.773,4.883 1.646,5.212 1.39,5.584L0.969,6.17C0.894,6.271 0.823,6.376 0.755,6.483C0.79,6.534 0.823,6.579 0.854,6.616C0.884,6.653 0.909,6.672 0.929,6.672C0.949,6.672 0.978,6.664 1.017,6.647C1.056,6.63 1.101,6.607 1.151,6.578C1.201,6.55 1.255,6.517 1.313,6.48C1.37,6.443 1.425,6.404 1.48,6.365C1.598,6.278 1.682,6.209 1.73,6.158C1.778,6.108 1.815,6.073 1.841,6.054C1.899,5.778 2.01,5.49 2.175,5.189C2.323,4.922 2.487,4.691 2.665,4.497C2.839,4.31 2.976,4.216 3.077,4.216C3.127,4.216 3.169,4.235 3.205,4.271C3.27,4.339 3.302,4.412 3.302,4.491C3.302,4.57 3.285,4.663 3.251,4.771C3.216,4.879 3.166,4.994 3.1,5.116C2.96,5.375 2.772,5.623 2.534,5.86C2.472,6.008 2.441,6.186 2.441,6.393C2.441,6.487 2.465,6.575 2.513,6.658C2.561,6.741 2.615,6.782 2.673,6.782C2.753,6.782 2.906,6.678 3.132,6.471L3.421,6.192C3.539,6.074 3.647,6.015 3.745,6.015C3.814,6.015 3.849,6.051 3.849,6.123C3.849,6.211 3.807,6.316 3.722,6.438C3.583,6.642 3.419,6.84 3.229,7.032C2.921,7.341 2.646,7.496 2.404,7.496C2.253,7.496 2.124,7.424 2.02,7.28C1.91,7.13 1.842,6.925 1.815,6.666C1.663,6.855 1.485,7.015 1.283,7.146C1.06,7.291 0.861,7.364 0.688,7.364Z" style="fill:white;fill-rule:nonzero;"/><path d="M5.37,6.428C5.37,6.565 5.418,6.633 5.515,6.633C5.611,6.633 5.777,6.517 6.014,6.286L6.157,6.139C6.251,6.041 6.341,5.993 6.426,5.993C6.457,5.993 6.478,6.003 6.488,6.024C6.497,6.045 6.502,6.072 6.502,6.103C6.502,6.135 6.498,6.169 6.488,6.203C6.479,6.238 6.467,6.274 6.45,6.312C6.415,6.397 6.38,6.464 6.347,6.511C6.313,6.559 6.274,6.608 6.229,6.659C6.184,6.71 6.131,6.767 6.069,6.83C6.008,6.893 5.939,6.957 5.865,7.023C5.79,7.089 5.715,7.149 5.639,7.203C5.469,7.328 5.328,7.39 5.218,7.39C5.086,7.39 4.983,7.332 4.908,7.215C4.838,7.107 4.798,6.962 4.79,6.78C4.595,7.031 4.389,7.224 4.172,7.36C4.039,7.442 3.926,7.484 3.834,7.484C3.742,7.484 3.662,7.47 3.593,7.442C3.524,7.414 3.463,7.373 3.411,7.317C3.299,7.199 3.242,7.035 3.242,6.825C3.242,6.524 3.328,6.233 3.5,5.954C3.554,5.867 3.615,5.791 3.682,5.726C3.827,5.612 3.98,5.555 4.143,5.555C4.214,5.555 4.265,5.583 4.295,5.639C4.307,5.66 4.313,5.688 4.313,5.723C4.313,5.758 4.305,5.798 4.289,5.843C4.274,5.888 4.254,5.936 4.232,5.985C4.209,6.035 4.184,6.086 4.156,6.139C4.129,6.192 4.104,6.243 4.081,6.294C4.027,6.413 4,6.499 4,6.551C4,6.603 4.012,6.642 4.035,6.666C4.059,6.69 4.088,6.703 4.123,6.703C4.2,6.703 4.265,6.679 4.319,6.632C4.373,6.586 4.427,6.532 4.48,6.471L4.632,6.283L4.78,6.092C4.885,5.958 4.965,5.874 5.019,5.841C5.074,5.808 5.113,5.795 5.138,5.803C5.163,5.811 5.189,5.826 5.215,5.847C5.24,5.868 5.266,5.894 5.291,5.923C5.349,5.994 5.382,6.058 5.388,6.115C5.39,6.151 5.388,6.206 5.381,6.278C5.374,6.351 5.37,6.401 5.37,6.428Z" style="fill:white;fill-rule:nonzero;"/><path d="M8.392,5.956C8.444,5.956 8.469,5.993 8.469,6.066C8.469,6.115 8.456,6.176 8.43,6.25C8.403,6.324 8.365,6.393 8.315,6.457C8.266,6.522 8.209,6.589 8.144,6.658C8.08,6.727 8.005,6.8 7.919,6.876C7.833,6.951 7.738,7.027 7.634,7.101C7.53,7.176 7.42,7.243 7.303,7.303C7.045,7.436 6.795,7.502 6.553,7.502C6.368,7.502 6.206,7.442 6.068,7.321C5.923,7.195 5.85,7.042 5.85,6.861C5.85,6.578 5.972,6.309 6.215,6.054C6.425,5.834 6.672,5.664 6.956,5.543C7.129,5.47 7.276,5.433 7.396,5.433C7.493,5.433 7.575,5.463 7.642,5.523C7.714,5.588 7.749,5.675 7.749,5.785C7.749,5.957 7.641,6.148 7.423,6.357C7.389,6.391 7.357,6.419 7.329,6.442L7.271,6.491C7.163,6.586 6.999,6.692 6.778,6.81C6.846,6.855 6.91,6.878 6.969,6.878C7.027,6.878 7.08,6.869 7.127,6.851C7.174,6.833 7.228,6.808 7.287,6.776C7.347,6.743 7.41,6.704 7.478,6.659C7.545,6.613 7.614,6.564 7.683,6.509C7.838,6.389 7.972,6.265 8.085,6.139C8.145,6.07 8.22,6.015 8.312,5.974C8.342,5.962 8.369,5.956 8.392,5.956ZM6.603,6.528L6.692,6.471C6.721,6.452 6.747,6.434 6.77,6.418C6.988,6.26 7.113,6.163 7.143,6.127C7.173,6.09 7.188,6.065 7.188,6.051C7.188,6.036 7.185,6.02 7.179,6.001C7.172,5.982 7.163,5.965 7.153,5.95C7.127,5.912 7.099,5.893 7.07,5.893C7.041,5.893 7.009,5.9 6.973,5.913C6.938,5.927 6.903,5.945 6.867,5.969C6.831,5.993 6.797,6.021 6.764,6.055C6.731,6.088 6.702,6.123 6.677,6.161C6.62,6.247 6.591,6.321 6.591,6.383C6.591,6.446 6.595,6.494 6.603,6.528Z" style="fill:white;fill-rule:nonzero;"/><path d="M9.884,6.359C9.884,6.482 9.912,6.544 9.97,6.544C10.11,6.544 10.293,6.425 10.518,6.186L10.562,6.139C10.649,6.066 10.72,6.029 10.775,6.029C10.829,6.029 10.864,6.039 10.879,6.06C10.893,6.08 10.901,6.113 10.901,6.157C10.901,6.258 10.86,6.364 10.779,6.477C10.658,6.661 10.492,6.836 10.281,7.002C10.037,7.194 9.818,7.291 9.624,7.291C9.489,7.291 9.404,7.196 9.37,7.008C9.36,6.959 9.353,6.912 9.348,6.867C9.338,6.759 9.326,6.699 9.314,6.686C9.303,6.674 9.279,6.675 9.244,6.689C9.209,6.704 9.167,6.727 9.119,6.761C9.071,6.794 9.018,6.834 8.959,6.882C8.65,7.139 8.472,7.287 8.426,7.323C8.314,7.41 8.239,7.453 8.2,7.453C8.161,7.453 8.123,7.443 8.086,7.423C8.049,7.402 8.016,7.377 7.988,7.346C7.929,7.276 7.9,7.206 7.9,7.134C7.9,6.723 7.972,6.364 8.114,6.056C8.209,5.848 8.326,5.704 8.465,5.624C8.535,5.582 8.611,5.561 8.692,5.561C8.84,5.561 8.914,5.622 8.914,5.744C8.914,5.819 8.879,5.941 8.808,6.111L8.76,6.231C8.725,6.313 8.708,6.36 8.71,6.371C8.716,6.412 8.731,6.432 8.753,6.432C8.778,6.432 8.815,6.409 8.864,6.363L9.162,6.084L9.311,5.954C9.483,5.813 9.61,5.742 9.691,5.742C9.734,5.742 9.773,5.764 9.809,5.807C9.875,5.886 9.908,5.955 9.908,6.013C9.908,6.032 9.907,6.055 9.904,6.082C9.901,6.109 9.898,6.138 9.895,6.17L9.889,6.265C9.885,6.298 9.884,6.329 9.884,6.359Z" style="fill:white;fill-rule:nonzero;"/><path d="M12.354,6.058C12.46,6.058 12.513,6.104 12.513,6.196C12.513,6.284 12.463,6.398 12.363,6.538L12.284,6.642C12.188,6.765 12.076,6.886 11.947,7.006C11.819,7.125 11.707,7.219 11.609,7.289C11.383,7.446 11.178,7.525 10.995,7.525C10.822,7.525 10.681,7.459 10.571,7.329C10.477,7.217 10.43,7.098 10.43,6.973C10.43,6.848 10.44,6.724 10.459,6.601C10.479,6.477 10.504,6.357 10.536,6.239C10.598,5.999 10.667,5.795 10.742,5.626C10.761,5.58 10.771,5.55 10.771,5.537L10.562,5.537C10.483,5.537 10.422,5.514 10.378,5.468C10.335,5.422 10.313,5.369 10.313,5.311C10.313,5.253 10.322,5.21 10.339,5.183C10.357,5.156 10.378,5.136 10.404,5.124C10.441,5.105 10.495,5.095 10.566,5.095L10.964,5.097C10.972,5.093 10.99,5.064 11.016,5.01L11.115,4.796C11.157,4.701 11.199,4.631 11.242,4.587C11.285,4.542 11.335,4.52 11.393,4.52C11.451,4.52 11.499,4.526 11.539,4.54C11.578,4.553 11.611,4.57 11.638,4.591C11.691,4.634 11.718,4.682 11.718,4.733C11.718,4.755 11.712,4.784 11.7,4.821L11.609,5.097L12.38,5.095C12.447,5.095 12.48,5.139 12.48,5.226C12.48,5.432 12.334,5.535 12.041,5.535L11.447,5.537C11.434,5.545 11.412,5.584 11.381,5.655L11.308,5.824C11.289,5.866 11.276,5.898 11.269,5.919L11.233,6.019C11.161,6.224 11.124,6.372 11.124,6.463C11.124,6.553 11.144,6.629 11.182,6.69C11.22,6.751 11.271,6.782 11.335,6.782C11.399,6.782 11.461,6.766 11.523,6.735C11.584,6.704 11.643,6.666 11.702,6.621C11.808,6.538 11.891,6.462 11.951,6.391C12.012,6.321 12.062,6.267 12.102,6.231C12.102,6.231 12.14,6.197 12.216,6.131C12.274,6.082 12.32,6.058 12.354,6.058Z" style="fill:white;fill-rule:nonzero;"/></g></g></svg>