<svg width="100%" height="100%" viewBox="0 0 18 16" version="1.1" xmlns="http://www.w3.org/2000/svg" xmlns:xlink="http://www.w3.org/1999/xlink" xml:space="preserve" style="fill-rule:evenodd;clip-rule:evenodd;stroke-linejoin:round;stroke-miterlimit:2;"><g transform="matrix(0.0531163,0,0,0.0531163,3.08975,0.787535)"><path d="M136.28,4.09L217.95,4L80.93,140.95L45.22,176.46L4.59,135.78L136.28,4.09ZM135.52,126.37C136.58,124.97 138.53,125.66 140.01,125.48L217.88,125.5L146.91,196.4L106.07,155.81L135.52,126.37Z" style="fill:rgb(68,209,253);fill-rule:nonzero;"/><path d="M65.36,196.47L106.07,155.81L146.91,196.4L147.08,196.58L106.08,237.2L65.36,196.47Z" style="fill:rgb(31,188,253);fill-rule:nonzero;"/><path d="M106.08,237.2L147.08,196.58L217.91,267.48C191.23,267.54 164.56,267.46 137.89,267.52C136.37,267.86 135.43,266.47 134.46,265.61L106.08,237.2Z" style="fill:rgb(8,88,156);fill-rule:nonzero;"/></g></svg>