<svg width="100%" height="100%" viewBox="0 0 18 16" version="1.1" xmlns="http://www.w3.org/2000/svg" xmlns:xlink="http://www.w3.org/1999/xlink" xml:space="preserve" style="fill-rule:evenodd;clip-rule:evenodd;stroke-linejoin:round;stroke-miterlimit:2;"><g id="flyio" transform="matrix(0.194877,0,0,0.194877,1,0.804258)"><path d="M57.413,10.134L66.867,10.134C75.276,10.134 82.103,16.961 82.103,25.37L82.103,58.613C82.103,67.022 75.276,73.849 66.867,73.849L66.122,73.849C61.794,73.172 59.917,71.874 58.467,70.777L46.447,60.894C45.829,60.394 44.937,60.394 44.319,60.894L40.414,64.105L29.416,55.062C28.798,54.561 27.907,54.561 27.289,55.062L12.01,68.503C8.935,71.004 6.901,70.542 5.582,70.397C2.175,67.601 0,63.359 0,58.613L0,25.37C0,16.961 6.827,10.134 15.237,10.134L24.67,10.134L24.653,10.172L24.335,11.099L24.236,11.417L23.808,13.316L23.749,13.649L23.561,15.551L23.536,16.073L23.532,16.256L23.55,17.128L23.593,17.639L23.699,18.439L23.834,19.159L23.994,19.822L24.202,20.54L24.742,22.06L24.92,22.516L25.86,24.502L26.192,25.112L27.279,26.978L27.695,27.651L29.212,29.885L29.431,30.181L31.405,32.75L32.043,33.541L34.297,36.176L34.76,36.683L36.618,38.682L37.354,39.444L38.57,40.652L38.326,40.856L38.174,40.993C37.761,41.378 37.369,41.787 37.002,42.217C36.826,42.425 36.658,42.64 36.498,42.861C36.255,43.199 36.037,43.555 35.847,43.925C35.75,44.117 35.663,44.315 35.586,44.516C35.388,45.03 35.269,45.572 35.233,46.122L35.226,46.597C35.243,47.267 35.38,47.928 35.629,48.55C35.882,49.18 36.25,49.758 36.715,50.253C37.053,50.613 37.438,50.927 37.86,51.185C38.219,51.405 38.602,51.586 39,51.724C39.865,52.017 40.783,52.122 41.692,52.03L41.697,52.03C42.472,51.955 43.226,51.731 43.917,51.371C44.215,51.213 44.499,51.03 44.765,50.822C45.527,50.229 46.117,49.444 46.475,48.548C46.755,47.849 46.892,47.102 46.88,46.35L46.858,45.957C46.807,45.438 46.683,44.928 46.49,44.444C46.406,44.233 46.311,44.027 46.205,43.826C46.008,43.456 45.784,43.102 45.535,42.765C45.421,42.611 45.303,42.46 45.181,42.312C44.775,41.827 44.338,41.37 43.873,40.942L43.544,40.662L44.101,40.112L46.495,37.612L47.323,36.703L48.61,35.255L49.447,34.276L50.641,32.822L51.449,31.806L52.636,30.219L53.235,29.398L54.085,28.127L54.793,27.044L56.127,24.721L56.89,23.197L56.912,23.15L57.496,21.736C57.504,21.718 57.51,21.699 57.516,21.68L58.145,19.718L58.211,19.432L58.484,17.87L58.537,17.447L58.553,17.188L58.572,16.21L58.567,16.028L58.517,15.152L58.455,14.472L58.145,12.511C58.14,12.485 58.135,12.459 58.127,12.433L57.729,10.983L57.592,10.58L57.413,10.134ZM61.907,51.589C59.937,51.617 58.325,53.229 58.297,55.199C58.326,57.168 59.938,58.78 61.907,58.808C63.876,58.779 65.488,57.168 65.518,55.199C65.49,53.229 63.877,51.617 61.907,51.589Z" style="fill:url(#_Radial-ltumw6g);"/><path d="M35.639,72.544L35.002,73.079C34.413,73.565 33.675,73.834 32.912,73.841L15.235,73.841C11.715,73.845 8.301,72.625 5.581,70.39C6.9,70.535 8.934,70.997 12.009,68.496L27.286,55.056C27.904,54.557 28.795,54.557 29.413,55.056L40.41,64.098L44.314,60.888C44.933,60.388 45.824,60.388 46.442,60.888L58.461,70.77C59.911,71.867 61.788,73.164 66.115,73.841L58.12,73.841C57.414,73.833 56.727,73.604 56.157,73.187L56.017,73.079L55.424,72.586C55.376,72.528 55.323,72.475 55.266,72.427C54.594,71.864 46.079,64.81 46.079,64.81C45.709,64.502 45.167,64.503 44.798,64.812C44.429,65.121 44.819,64.838 35.76,72.427C35.717,72.463 35.676,72.502 35.639,72.544ZM61.901,51.584C59.935,51.62 58.328,53.227 58.291,55.193C58.329,57.159 59.935,58.765 61.901,58.802C63.867,58.765 65.473,57.159 65.511,55.193C65.474,53.227 63.867,51.62 61.901,51.584ZM38.566,40.648L37.35,39.44L36.614,38.678L34.756,36.679L34.293,36.172L32.04,33.538L31.402,32.747L29.428,30.178L29.209,29.882L27.692,27.648L27.276,26.975L26.189,25.109L25.857,24.499L24.917,22.514L24.739,22.058L24.2,20.538L23.992,19.82L23.832,19.157L23.697,18.437L23.591,17.637L23.548,17.126L23.53,16.254L23.534,16.071L23.559,15.549L23.747,13.648L23.806,13.315L24.234,11.416L24.332,11.098L24.65,10.171L24.752,9.931L25.258,8.819L25.609,8.157L26.098,7.351L26.585,6.633L26.932,6.177L27.332,5.695L27.772,5.211L28.149,4.833L29.067,4.025L29.738,3.476C29.754,3.462 29.771,3.45 29.788,3.438L30.582,2.901L31.213,2.499L32.411,1.868C32.429,1.857 32.45,1.848 32.469,1.839L34.167,1.134L34.324,1.075L35.834,0.633L36.472,0.49L37.334,0.317L37.906,0.23L38.783,0.121L39.381,0.068L40.568,0.005L41.033,0L41.914,0.018L42.143,0.031L43.419,0.137L45.106,0.375L45.301,0.416L46.969,0.831L47.459,0.977L48.003,1.165L48.666,1.416L49.19,1.638L49.96,2.001L50.445,2.25L51.317,2.762L51.642,2.962L52.831,3.83L53.172,4.126L54,4.88L54.041,4.921L54.744,5.675L54.986,5.948L55.811,7.044L55.979,7.306L56.634,8.412L56.831,8.791L57.2,9.616L57.586,10.579L57.723,10.982L58.121,12.432C58.128,12.458 58.134,12.484 58.139,12.51L58.449,14.471L58.511,15.15L58.561,16.026L58.566,16.208L58.547,17.186L58.531,17.445L58.478,17.868L58.205,19.43L58.139,19.716L57.51,21.678C57.504,21.697 57.498,21.716 57.49,21.734L56.906,23.148L56.884,23.195L56.121,24.718L54.787,27.041L54.079,28.124L53.23,29.395L52.631,30.216L51.444,31.803L50.636,32.819L49.442,34.272L48.605,35.251L47.318,36.699L46.49,37.608L44.096,40.108L43.54,40.658L43.868,40.938C44.333,41.366 44.77,41.823 45.176,42.308C45.298,42.456 45.416,42.607 45.53,42.761C45.779,43.097 46.003,43.452 46.2,43.821C46.306,44.021 46.401,44.228 46.485,44.439C46.676,44.923 46.805,45.435 46.853,45.952L46.875,46.345C46.887,47.097 46.75,47.845 46.47,48.543C46.112,49.439 45.522,50.224 44.76,50.817C44.494,51.025 44.21,51.208 43.912,51.366C43.221,51.726 42.468,51.949 41.693,52.025L41.688,52.025C40.779,52.116 39.861,52.012 38.996,51.719C38.598,51.581 38.216,51.4 37.856,51.18C37.434,50.922 37.049,50.609 36.711,50.248C36.246,49.753 35.878,49.175 35.625,48.545C35.376,47.923 35.24,47.262 35.222,46.592L35.229,46.117C35.265,45.567 35.384,45.025 35.582,44.511C35.659,44.309 35.746,44.112 35.843,43.92C36.033,43.55 36.251,43.195 36.494,42.857C36.653,42.636 36.822,42.421 36.998,42.213C37.365,41.783 37.757,41.374 38.17,40.989L38.322,40.852L38.566,40.648Z"/><path d="M35.002,73.079L44.798,64.812C45.167,64.503 45.709,64.502 46.079,64.81L56.017,73.079C56.621,73.571 57.377,73.84 58.156,73.841L32.876,73.841C33.652,73.841 34.403,73.572 35.002,73.079ZM41.1,43.568L41.196,43.596C41.227,43.611 41.253,43.632 41.281,43.651L41.361,43.722C41.559,43.904 41.751,44.095 41.936,44.291C42.066,44.43 42.193,44.573 42.315,44.721C42.47,44.908 42.615,45.104 42.747,45.308C42.804,45.398 42.857,45.489 42.907,45.584C42.95,45.666 42.989,45.751 43.023,45.837C43.083,45.987 43.128,46.145 43.142,46.306L43.139,46.608C43.098,47.16 42.794,47.661 42.322,47.951C42.02,48.134 41.68,48.246 41.328,48.278L40.955,48.289L40.64,48.261C40.493,48.24 40.348,48.204 40.207,48.156C40.064,48.107 39.926,48.043 39.797,47.964L39.551,47.784C39.261,47.537 39.064,47.198 38.991,46.824C38.979,46.761 38.969,46.698 38.962,46.634L38.953,46.346C38.958,46.268 38.97,46.191 38.987,46.114C39.03,45.946 39.092,45.783 39.17,45.628C39.271,45.434 39.386,45.247 39.514,45.069C39.727,44.781 39.958,44.507 40.205,44.248C40.364,44.08 40.527,43.917 40.697,43.76L40.818,43.651C40.902,43.596 40.903,43.596 40.999,43.568L41.1,43.568ZM40.481,3.42L40.52,3.417L40.52,37.082L40.436,36.927C39.328,34.877 38.296,32.787 37.343,30.66C36.57,28.939 35.87,27.185 35.244,25.405C34.745,23.987 34.322,22.543 33.979,21.079C33.714,19.916 33.51,18.736 33.426,17.544C33.393,17.035 33.384,16.526 33.397,16.016C33.405,15.572 33.423,15.129 33.451,14.686C33.495,13.99 33.566,13.295 33.668,12.605C33.749,12.062 33.849,11.521 33.972,10.986C34.07,10.561 34.184,10.139 34.314,9.724C34.502,9.124 34.727,8.538 34.989,7.966C35.085,7.76 35.188,7.555 35.296,7.354C35.946,6.15 36.828,5.041 37.983,4.3C38.733,3.811 39.59,3.51 40.481,3.42ZM44.846,3.505L47.111,4.151C48.16,4.538 49.17,5.042 50.098,5.672C51.363,6.526 52.453,7.613 53.31,8.876C53.812,9.624 54.228,10.431 54.553,11.274C55.024,12.521 55.316,13.828 55.419,15.156C55.449,15.504 55.466,15.853 55.473,16.202C55.481,16.526 55.479,16.851 55.453,17.175C55.389,17.9 55.253,18.617 55.046,19.315C54.88,19.886 54.684,20.448 54.459,20.999C54.179,21.684 53.868,22.356 53.527,23.012C52.773,24.469 51.904,25.864 50.974,27.213C49.821,28.871 48.592,30.475 47.291,32.019C45.878,33.704 44.405,35.337 42.874,36.915C43.913,34.967 44.882,32.983 45.781,30.966C46.281,29.842 46.752,28.706 47.195,27.559C47.682,26.299 48.122,25.022 48.512,23.729C48.802,22.76 49.058,21.781 49.269,20.791C49.45,19.942 49.592,19.084 49.68,18.221C49.754,17.501 49.781,16.777 49.763,16.055C49.756,15.613 49.74,15.171 49.714,14.73C49.608,12.955 49.338,11.185 48.82,9.482C48.624,8.836 48.385,8.204 48.106,7.59C47.443,6.146 46.518,4.797 45.266,3.812L44.846,3.505Z" style="fill:white;"/></g><defs><radialGradient id="_Radial-ltumw6g" cx="0" cy="0" r="1" gradientUnits="userSpaceOnUse" gradientTransform="matrix(59.4764,0,0,59.4764,43.593,41.714)"><stop offset="0" style="stop-color:rgb(186,123,240);stop-opacity:1"/><stop offset="0.45" style="stop-color:rgb(153,107,236);stop-opacity:1"/><stop offset="1" style="stop-color:rgb(80,70,228);stop-opacity:1"/></radialGradient></defs></svg>