<svg width="100%" height="100%" viewBox="0 0 18 16" version="1.1" xmlns="http://www.w3.org/2000/svg" xmlns:xlink="http://www.w3.org/1999/xlink" xml:space="preserve" style="fill-rule:evenodd;clip-rule:evenodd;stroke-linejoin:round;stroke-miterlimit:2;"><g transform="matrix(1,0,0,1,0.553868,5.63993)"><g id="font"><g transform="matrix(13.75,0,0,13.75,1.52301,7.14507)"><path d="M0.647,-0.007C0.647,-0.001 0.642,0.002 0.632,0.002C0.625,0.002 0.619,0.002 0.614,0.001L0.487,-0.001L0.36,0.001C0.355,0.002 0.35,0.002 0.345,0.002C0.332,0.002 0.325,-0.001 0.325,-0.008C0.325,-0.015 0.334,-0.019 0.352,-0.019C0.411,-0.02 0.44,-0.026 0.44,-0.037C0.44,-0.038 0.439,-0.04 0.438,-0.045L0.43,-0.072L0.425,-0.086C0.419,-0.107 0.404,-0.152 0.381,-0.223L0.167,-0.223C0.127,-0.116 0.107,-0.055 0.107,-0.039C0.107,-0.03 0.111,-0.024 0.119,-0.022C0.121,-0.021 0.138,-0.02 0.169,-0.018C0.188,-0.017 0.198,-0.014 0.198,-0.008C0.198,-0.001 0.189,0.002 0.172,0.002C0.141,0.002 0.106,0.001 0.065,-0.002C0.055,-0.003 0.045,-0.003 0.034,-0.003C0.023,-0.003 0.013,-0.002 0.003,-0.001C-0.002,-0 -0.007,-0 -0.01,-0C-0.019,-0 -0.024,-0.003 -0.024,-0.009C-0.024,-0.015 -0.014,-0.018 0.008,-0.019C0.028,-0.02 0.044,-0.023 0.053,-0.029C0.062,-0.034 0.07,-0.045 0.075,-0.061C0.161,-0.306 0.231,-0.503 0.285,-0.652C0.286,-0.66 0.289,-0.669 0.293,-0.679L0.298,-0.697C0.3,-0.704 0.303,-0.708 0.306,-0.708C0.308,-0.708 0.31,-0.706 0.311,-0.702C0.32,-0.676 0.339,-0.622 0.37,-0.539C0.394,-0.474 0.454,-0.312 0.549,-0.052C0.554,-0.037 0.561,-0.028 0.57,-0.024C0.578,-0.02 0.595,-0.018 0.621,-0.017C0.638,-0.016 0.647,-0.013 0.647,-0.007ZM0.375,-0.246C0.364,-0.276 0.347,-0.326 0.322,-0.395L0.274,-0.532C0.246,-0.459 0.212,-0.363 0.173,-0.246L0.375,-0.246Z" style="fill:rgb(114,134,149);fill-rule:nonzero;"/></g><g transform="matrix(13.75,0,0,13.75,9.80051,7.14507)"><path d="M0.429,-0.045C0.429,-0.034 0.417,-0.022 0.394,-0.01C0.37,0.003 0.347,0.009 0.325,0.009C0.279,0.009 0.255,-0.015 0.253,-0.062C0.228,-0.013 0.188,0.012 0.135,0.012C0.106,0.012 0.083,0.004 0.064,-0.014C0.045,-0.031 0.036,-0.052 0.036,-0.079C0.036,-0.134 0.069,-0.177 0.135,-0.209C0.158,-0.22 0.197,-0.23 0.253,-0.241L0.253,-0.266C0.253,-0.325 0.25,-0.363 0.244,-0.382C0.233,-0.416 0.209,-0.433 0.172,-0.433C0.149,-0.433 0.129,-0.427 0.114,-0.414C0.098,-0.401 0.09,-0.385 0.09,-0.366C0.09,-0.361 0.094,-0.358 0.103,-0.358C0.111,-0.358 0.118,-0.354 0.125,-0.346C0.132,-0.338 0.135,-0.329 0.135,-0.319C0.135,-0.29 0.12,-0.275 0.091,-0.275C0.076,-0.275 0.063,-0.28 0.053,-0.291C0.043,-0.301 0.038,-0.314 0.038,-0.33C0.038,-0.361 0.05,-0.388 0.075,-0.411C0.102,-0.436 0.14,-0.448 0.189,-0.448C0.262,-0.448 0.307,-0.428 0.324,-0.388C0.33,-0.373 0.333,-0.342 0.333,-0.297L0.333,-0.11C0.333,-0.079 0.333,-0.061 0.334,-0.056C0.337,-0.032 0.347,-0.02 0.363,-0.02C0.382,-0.02 0.397,-0.027 0.409,-0.04C0.416,-0.047 0.421,-0.051 0.424,-0.051C0.427,-0.051 0.429,-0.049 0.429,-0.045ZM0.253,-0.151L0.253,-0.224C0.203,-0.213 0.167,-0.198 0.146,-0.18C0.124,-0.161 0.113,-0.137 0.113,-0.106C0.113,-0.085 0.119,-0.067 0.132,-0.054C0.144,-0.04 0.159,-0.033 0.178,-0.033C0.207,-0.033 0.23,-0.049 0.247,-0.081C0.251,-0.088 0.253,-0.112 0.253,-0.151Z" style="fill:rgb(114,134,149);fill-rule:nonzero;"/></g></g></g></svg>