<svg width="100%" height="100%" viewBox="0 0 18 16" version="1.1" xmlns="http://www.w3.org/2000/svg" xmlns:xlink="http://www.w3.org/1999/xlink" xml:space="preserve" style="fill-rule:evenodd;clip-rule:evenodd;stroke-linejoin:round;stroke-miterlimit:2;"><g id="fortran"><g transform="matrix(1.02455,0,0,1.22954,0.0422993,-0.166431)"><path d="M16.075,2.738L16.075,10.546C16.075,11.758 14.894,12.742 13.439,12.742L4.047,12.742C2.592,12.742 1.411,11.758 1.411,10.546L1.411,2.738C1.411,1.526 2.592,0.542 4.047,0.542L13.439,0.542C14.894,0.542 16.075,1.526 16.075,2.738Z" style="fill:rgb(115,79,150);"/></g><path d="M3.51,2.165L3.53,3.441C3.53,3.441 5.056,3.453 5.195,3.616C5.335,3.779 5.322,4.099 5.322,4.099C5.322,4.099 5.318,11.669 5.325,11.902C5.332,12.136 5.244,12.384 4.954,12.456C4.663,12.528 3.539,12.577 3.539,12.577L3.541,13.859L9.818,13.848L9.843,12.541C9.843,12.541 8.611,12.513 8.35,12.476C8.09,12.438 7.882,12.39 7.855,11.89C7.829,11.39 7.819,8.323 7.819,8.323C7.819,8.323 9.411,8.358 9.704,9.017C9.997,9.676 10.02,10.752 10.02,10.752L11.325,10.752L11.313,4.973L9.994,4.971C9.994,4.971 9.955,6.049 9.706,6.493C9.456,6.936 9.181,6.938 8.767,7.008C8.353,7.078 7.85,7.075 7.85,7.075L7.841,3.427C7.841,3.427 10.541,3.466 11.204,3.516C11.868,3.566 12.621,4.056 12.863,4.851C13.105,5.647 13.147,6.925 13.147,6.925L14.471,6.972L14.474,2.156L3.51,2.165Z" style="fill:white;"/></g></svg>