<svg width="100%" height="100%" viewBox="0 0 18 16" version="1.1" xmlns="http://www.w3.org/2000/svg" xmlns:xlink="http://www.w3.org/1999/xlink" xml:space="preserve" style="fill-rule:evenodd;clip-rule:evenodd;stroke-linejoin:round;stroke-miterlimit:2;"><g id="fsprojects"><g transform="matrix(1.17691,0,0,1.28841,-0.265368,-0.144205)"><rect x="1.5" y="0.5" width="12.745" height="11.642" style="fill:rgb(53,140,183);"/></g><g transform="matrix(1.17691,0,0,1.28841,-0.265368,-0.144205)"><path d="M6.544,12.142C6.742,11.945 6.927,11.554 6.837,10.78C6.664,9.289 6.286,8.471 6.286,8.471L6.284,8.193C6.284,8.193 7.028,8.402 7.333,8.589L8.143,9.084C8.143,9.084 8.469,8.196 9.053,6.809C9.638,5.423 10.399,3.995 10.399,3.995L10.674,3.992C10.674,3.992 10.165,5.336 10.009,6.4C9.854,7.463 9.849,8.413 9.849,8.413C9.849,8.413 10.172,8.445 10.584,8.299C11.243,8.068 11.754,7.885 11.754,7.885L11.752,8.057C11.752,8.057 11.151,8.504 10.793,8.989C10.435,9.474 10.253,10.009 10.261,10.402C10.273,10.985 10.639,11.807 11.293,12.142L6.544,12.142Z" style="fill:rgb(215,232,242);"/></g><g transform="matrix(0.446667,0,0,0.446667,1.2252,0.534163)"><g id="path4912" transform="matrix(0.0635593,0,0,0.0635593,1.5,0.881356)"><path d="M112,224L0,112L112,0L112,56L56,112L112,168L112,224Z" style="fill:rgb(173,214,234);fill-rule:nonzero;"/></g><g id="path9393" transform="matrix(0.0635593,0,0,0.0635593,1.5,0.881356)"><path d="M112,152L72,112L112,72L112,152Z" style="fill:rgb(173,214,234);fill-rule:nonzero;"/></g><g id="path13640" transform="matrix(0.0635593,0,0,0.0635593,1.5,0.881356)"><path d="M120,0L120,56L176,112L120,168L120,224L236,112L120,0Z" style="fill:rgb(218,226,237);fill-rule:nonzero;"/></g></g><g transform="matrix(0.177387,0.0581216,-0.0581216,0.177387,11.6269,1.38827)"><g id="path49121" transform="matrix(0.0635593,0,0,0.0635593,1.5,0.881356)"><path d="M112,224L0,112L112,0L112,56L56,112L112,168L112,224Z" style="fill:rgb(173,214,234);fill-rule:nonzero;"/></g><g id="path93931" transform="matrix(0.0635593,0,0,0.0635593,1.5,0.881356)"><path d="M112,152L72,112L112,72L112,152Z" style="fill:rgb(173,214,234);fill-rule:nonzero;"/></g><g id="path136401" transform="matrix(0.0635593,0,0,0.0635593,1.5,0.881356)"><path d="M120,0L120,56L176,112L120,168L120,224L236,112L120,0Z" style="fill:rgb(218,226,237);fill-rule:nonzero;"/></g></g><g transform="matrix(0.0835847,-0.166907,0.166907,0.0835847,3.62818,10.473)"><g id="path49122" transform="matrix(0.0635593,0,0,0.0635593,1.5,0.881356)"><path d="M112,224L0,112L112,0L112,56L56,112L112,168L112,224Z" style="fill:rgb(173,214,234);fill-rule:nonzero;"/></g><g id="path93932" transform="matrix(0.0635593,0,0,0.0635593,1.5,0.881356)"><path d="M112,152L72,112L112,72L112,152Z" style="fill:rgb(173,214,234);fill-rule:nonzero;"/></g><g id="path136402" transform="matrix(0.0635593,0,0,0.0635593,1.5,0.881356)"><path d="M120,0L120,56L176,112L120,168L120,224L236,112L120,0Z" style="fill:rgb(218,226,237);fill-rule:nonzero;"/></g></g><g transform="matrix(0.113161,0.113114,-0.113114,0.113161,14.694,7.26076)"><g id="path49123" transform="matrix(0.0635593,0,0,0.0635593,1.5,0.881356)"><path d="M112,224L0,112L112,0L112,56L56,112L112,168L112,224Z" style="fill:rgb(173,214,234);fill-rule:nonzero;"/></g><g id="path93933" transform="matrix(0.0635593,0,0,0.0635593,1.5,0.881356)"><path d="M112,152L72,112L112,72L112,152Z" style="fill:rgb(173,214,234);fill-rule:nonzero;"/></g><g id="path136403" transform="matrix(0.0635593,0,0,0.0635593,1.5,0.881356)"><path d="M120,0L120,56L176,112L120,168L120,224L236,112L120,0Z" style="fill:rgb(218,226,237);fill-rule:nonzero;"/></g></g></g></svg>