<svg width="100%" height="100%" viewBox="0 0 18 16" version="1.1" xmlns="http://www.w3.org/2000/svg" xmlns:xlink="http://www.w3.org/1999/xlink" xml:space="preserve" style="fill-rule:evenodd;clip-rule:evenodd;stroke-linejoin:round;stroke-miterlimit:2;"><g id="f3d"><g transform="matrix(1.02055,0,0,1.01069,-0.33024,-0.0305492)"><path d="M16.073,2.859L3.469,2.859L3.469,14.598C3.469,15.026 3.812,15.373 4.236,15.373C6.97,15.373 16.073,15.373 16.073,15.373L16.073,2.859Z" style="fill:rgb(147,60,0);"/></g><g transform="matrix(1.00825,-0.604717,1.51601e-17,-1.71752,0.166866,16.2776)"><rect x="1.757" y="1.633" width="2.279" height="6.129" style="fill:rgb(255,149,72);"/></g><g transform="matrix(1.27405,0,0,1.43449,-1.16218,-0.219729)"><path d="M12.712,1.063C12.712,0.755 12.431,0.506 12.084,0.506L4.241,0.506L4.241,7.841L12.712,7.841L12.712,1.063Z" style="fill:rgb(255,107,0);"/></g><path id="_0" d="M10.73,12.603C10.783,12.279 11.136,12.028 11.563,12.028C11.99,12.028 12.343,12.279 12.396,12.603L12.4,12.603L12.402,12.687L12.402,13.725C12.402,14.089 12.026,14.384 11.563,14.384C11.099,14.384 10.723,14.089 10.723,13.725L10.723,12.687L10.728,12.603L10.73,12.603ZM11.265,12.684C11.289,12.554 11.413,12.454 11.563,12.454C11.712,12.454 11.836,12.554 11.861,12.684L11.864,12.684L11.865,13.68C11.865,13.833 11.73,13.957 11.563,13.957C11.396,13.957 11.26,13.833 11.26,13.68L11.262,12.684L11.265,12.684Z" style="fill:white;"/><path id="_6" d="M8.741,13.628L8.741,12.687L8.746,12.603L8.748,12.603C8.801,12.279 9.154,12.028 9.581,12.028C10.008,12.028 10.343,12.279 10.396,12.603L10.396,12.661L9.899,12.661C9.865,12.542 9.721,12.454 9.581,12.454C9.432,12.454 9.307,12.554 9.283,12.684L9.281,12.684L9.28,13.044C9.399,12.928 9.575,12.855 9.772,12.855C10.131,12.855 10.385,13.12 10.432,13.403C10.458,13.564 10.449,13.691 10.434,13.756C10.357,14.103 10.06,14.393 9.585,14.393C9.073,14.393 8.736,14.116 8.741,13.628ZM9.88,13.757L9.872,13.757C9.835,13.873 9.719,13.957 9.581,13.957C9.414,13.957 9.279,13.833 9.279,13.68L9.279,13.431C9.302,13.36 9.432,13.245 9.577,13.245C9.737,13.245 9.869,13.351 9.879,13.446L9.88,13.75C9.88,13.752 9.88,13.755 9.88,13.757Z" style="fill:white;"/><path id="_3" d="M8.443,13.402L8.443,13.725C8.443,14.089 8.066,14.384 7.603,14.384C7.153,14.384 6.786,14.051 6.764,13.703L7.265,13.7C7.301,13.815 7.465,13.957 7.603,13.957C7.77,13.957 7.906,13.833 7.906,13.68L7.905,13.502C7.849,13.397 7.733,13.325 7.6,13.325L7.348,13.328L7.348,12.966L7.577,12.966L7.577,12.965C7.731,12.963 7.855,12.842 7.855,12.694C7.855,12.618 7.822,12.549 7.768,12.499C7.721,12.471 7.664,12.454 7.603,12.454C7.463,12.454 7.31,12.505 7.286,12.685L6.764,12.686L6.766,12.603L6.77,12.603C6.823,12.279 7.176,12.028 7.603,12.028C7.68,12.028 7.755,12.036 7.826,12.051L7.712,12.051L7.712,12.06C7.733,12.058 7.755,12.057 7.777,12.057C7.813,12.057 7.849,12.06 7.884,12.066C8.053,12.113 8.197,12.201 8.296,12.315C8.358,12.402 8.394,12.506 8.394,12.618C8.394,12.842 8.248,13.036 8.037,13.125C8.222,13.164 8.373,13.267 8.443,13.402Z" style="fill:white;"/><path id="f" d="M11.797,2.867L8.059,2.867L8.059,8.694L9.514,8.694L9.514,6.327L11.426,6.327L11.426,5.313L9.514,5.313L9.514,3.942L11.797,3.942L11.797,2.867Z" style="fill:white;"/></g></svg>