<svg width="100%" height="100%" viewBox="0 0 18 16" version="1.1" xmlns="http://www.w3.org/2000/svg" xmlns:xlink="http://www.w3.org/1999/xlink" xml:space="preserve" style="fill-rule:evenodd;clip-rule:evenodd;stroke-linejoin:round;stroke-miterlimit:2;"><g id="gbif-light" transform="matrix(0.0304413,0,0,0.0304413,8.73354,7.76399)"><g transform="matrix(1,0,0,1,-351.017,-493.297)"><path d="M325.5,495.4C325.5,405.7 369.3,328 499.7,328C499.6,417.9 440.5,495.4 325.5,495.4" style="fill:white;fill-rule:nonzero;"/></g><g transform="matrix(1,0,0,1,-351.017,-493.297)"><path d="M534.3,731C558.7,731 577.5,727.5 596.7,720.5C596.7,649.5 554.3,598.7 479.5,562.1C422.3,533.4 351.8,518.5 287.4,518.5C315.6,433.9 295,328.8 267.7,271.1C237.4,331.5 218.5,435.1 247.6,519.4C190.5,523.6 145.2,548.5 126,581.3C124.6,583.8 121.6,589.1 123.4,590.1C124.8,590.8 127,588.6 128.3,587.4C148.9,568.3 176.2,559 202.5,559C263.2,559 305.9,609.3 336.2,639.5C401.3,704.3 464.8,731.2 534.3,731" style="fill:white;fill-rule:nonzero;"/></g></g></svg>