<svg width="100%" height="100%" viewBox="0 0 18 16" version="1.1" xmlns="http://www.w3.org/2000/svg" xmlns:xlink="http://www.w3.org/1999/xlink" xml:space="preserve" style="fill-rule:evenodd;clip-rule:evenodd;"><g id="gcc" transform="matrix(1,0,0,1,2.69966,0.5)"><g id="Colors" transform="matrix(0.0224337,0,0,0.0224337,-0.385126,-0.268702)"><path id="path1335" d="M392.568,64.839C384.133,77.739 375.697,90.638 367.261,103.538C407.254,149.959 447.247,196.38 487.24,242.801C492.871,219.762 496.991,244.894 501.594,254.635C513.92,282.505 515.839,313.561 519.682,343.382C526.957,399.821 524.561,432.856 519.383,463.654C502.607,563.451 443.095,621.699 386.255,655.236C366.812,666.708 348.099,674.729 320.651,678.474C292.368,682.333 264.656,680.805 236.264,675.273C212.823,670.706 189.247,663.008 167.598,653.087C133.078,637.267 104.585,609.886 82.283,579.848C60.706,550.788 47.096,516.112 36.76,481.364C17.959,418.159 10.01,350.852 25.007,285.832C34.355,245.302 47.833,205.166 66.267,168.159C85.828,128.887 113.323,93.318 146.606,63.826C166.592,46.115 188.318,29.795 212.778,19.943C230.721,12.717 249.714,11.088 269.321,12.382C288.708,13.66 307.213,15.832 325.682,22.4C350.815,31.338 374.5,45.318 392.568,64.839Z" style="fill:rgb(255,207,171);stroke:black;stroke-width:5.4px;"/><path id="path2211" d="M206.41,233.155L192.484,197.803L207.481,190.305L237.477,186.019L293.182,117.459L324.248,121.745L344.601,111.032L359.599,107.818L336.032,159.238L289.968,164.595L206.41,233.155Z" style="fill:rgb(243,145,5);stroke:black;stroke-width:1.3px;"/><path id="path3100" d="M406.734,89.607L431.373,120.673L437.801,131.386L390.665,115.317L396.022,100.319L406.734,89.607Z" style="fill:rgb(255,207,171);stroke:black;stroke-width:1.3px;"/><path id="path3976" d="M388.523,113.174L412.091,126.029L436.729,133.528L403.52,151.74L378.882,149.597L376.739,132.457L388.523,113.174Z" style="fill:rgb(243,154,5);stroke:black;stroke-width:1.3px;"/><path id="path4852" d="M207.481,235.297L224.622,263.15L207.481,307.071L248.189,314.57L256.758,323.14L282.468,362.776L363.884,319.926L388.121,326.622L414.234,318.855L396.022,299.572L399.236,294.216L407.806,288.86L412.091,302.786L419.589,319.926L439.943,344.565L445.299,341.352L446.37,325.283L465.288,321.952L471.965,316.764L488.677,314.739L492.97,293.681L480.651,242.796L480.651,221.371L499.934,218.157L517.073,231.012L541.712,237.44L551.353,235.297L522.43,198.874L504.651,180.671L494.577,174.236L475.294,161.381L435.658,163.523L404.592,171.022L377.81,183.877L361.742,181.734L341.387,172.093L334.96,162.452L293.182,161.381L207.481,235.297Z" style="fill:rgb(171,154,126);stroke:black;stroke-width:1.3px;"/><path id="path5728" d="M407.806,287.788L413.161,301.715L409.948,310.285L393.879,300.643L398.165,293.145L407.806,287.788Z" style="fill:white;stroke:black;stroke-width:1.3px;"/><path id="path6604" d="M432.444,229.941L449.584,214.943L459.225,213.872L462.439,219.228L447.442,235.297L438.872,238.51L432.444,229.941Z" style="fill:white;stroke:black;stroke-width:1.3px;"/><path id="path7479" d="M463.446,155.645L411.02,168.879L376.739,182.805L346.744,174.236L336.032,161.381L363.884,98.177L389.981,65.857L407.077,59.087L426.017,62.825L445.639,91.624L466.201,105.395L463.833,109.561L433.515,99.248L406.734,87.464L381.024,127.1L375.668,141.027L379.953,153.883L449.584,142.098L457.018,148.277L463.446,155.645Z" style="fill:white;stroke:black;stroke-width:1.3px;"/><path id="path8354" d="M483.865,163.523L496.138,179.233L503.883,179.451L532.509,211.292L539.629,219.927L552.425,211.729L567.422,178.521L575.743,152.118L576.879,130.001L570.009,121.745L545.998,121.745L527.786,126.029C527.786,126.029 512.789,133.528 517.073,133.528C521.358,133.528 541.712,139.955 541.712,139.955L550.282,146.383L552.425,156.024L540.641,179.592L535.285,184.948L510.646,168.879L503.147,163.523L495.648,162.452L483.865,163.523Z" style="fill:white;stroke:black;stroke-width:1.3px;"/><path id="path5093" d="M473.858,288.768C473.527,286.306 457.004,288.768 457.004,288.768C457.004,288.768 454.116,298.616 458.33,298.616C462.543,298.616 474.19,291.23 473.858,288.768Z" style="fill:white;stroke:rgb(158,0,0);stroke-width:1.3px;"/></g><g id="Drawing" transform="matrix(0.0224337,0,0,0.0224337,-0.385126,-0.268702)"><g id="g6" transform="matrix(0.28502,0,0,-0.28502,-6.76956,704.989)"><g id="g8"><path id="path10" d="M1762.84,1670.56C1771.27,1684.06 1791.91,1682.37 1825.62,1661.5C1853.08,1645.27 1889.27,1641.93 1928.03,1639.28C1991.52,1634.92 1986.45,1644.37 1956.65,1674.39L1920.74,1706.61C1920.74,1706.61 1933.95,1698.96 1955.87,1719.22C1985.21,1746.34 2041.5,1871.14 2051.49,1960.98C2062.72,2052.08 2047.74,2065.8 1950.41,2054.57C1910.48,2049.58 1862.39,2037.85 1842.43,2025.37C1842.43,2025.37 1813.91,2011.1 1818.28,2002.99C1822.65,1994.88 1860.56,1990.93 1860.56,1990.93C1931.69,1979.7 1951.17,1956.17 1951.17,1929.96C1951.17,1902.51 1914.22,1834.95 1896.75,1834.95C1890.51,1834.95 1868.05,1852.42 1846.84,1872.38C1804.41,1913.56 1781.58,1918.96 1740.53,1906.76C1717.47,1913.07 1684.01,1916.39 1656.98,1931.93C1650.36,1935.74 1654.57,1941.09 1641.46,1957.56C1617.77,1987.33 1599.76,1984.69 1574.8,1978.45C1543.61,1970.97 1542.36,1970.97 1566.07,1988.43C1589.78,2005.9 1588.53,2008.4 1536.12,2077.03L1483.71,2148.16L1546.1,2116.97C1609.74,2084.52 1664.65,2075.78 1677.13,2095.75C1682.12,2101.99 1664.65,2118.21 1638.44,2130.69C1613.49,2143.17 1583.54,2171.87 1572.31,2193.08C1559.83,2215.55 1543.61,2241.75 1536.12,2251.73C1517.4,2272.95 1452.1,2284.37 1416.99,2271.09C1381.2,2257.55 1359,2221.16 1330.29,2183.55C1306.05,2151.79 1292.54,2127.82 1281.2,2108.52C1257.87,2114.03 1217.91,2097 1201.69,2082.03C1174.24,2057.07 1168,2055.82 1114.34,2069.55C1060.68,2084.52 1054.44,2083.27 1025.74,2057.07C1009.52,2040.85 964.598,1984.69 925.915,1932.28C888.479,1878.62 853.538,1834.95 849.795,1833.7C846.051,1833.7 819.846,1831.2 792.393,1828.71C764.94,1826.21 727.504,1818.73 708.786,1811.24C678.838,1800.01 676.342,1795.02 685.077,1762.57C691.316,1743.85 718.769,1686.45 747.47,1636.54L798.632,1546.69L767.436,1471.82C749.966,1430.64 738.735,1391.96 742.479,1386.96C746.222,1380.73 782.41,1371.99 823.59,1367L898.462,1358.26L955.863,1272.16C1009.52,1191.05 1019.1,1186.51 1038.22,1196.04C1044.65,1199.25 1075.66,1221 1116.84,1240.96C1158.02,1262.18 1214.17,1293.38 1241.62,1312.09C1280.47,1337.73 1319.8,1346.44 1340.64,1338.52C1353.27,1333.72 1359.11,1322.81 1353.93,1305.85C1343.04,1270.84 1343.54,1249.05 1348.42,1226.34C1356.93,1217.24 1367.91,1213.09 1383.88,1202.28C1438.95,1168.44 1460,1166.09 1461.25,1202.28L1461.25,1229.73L1474.97,1201.03C1494.94,1159.85 1527.38,1171.08 1532.38,1222.25C1536.12,1252.2 1528.63,1272.16 1508.67,1293.38C1493.69,1309.6 1485.9,1330.84 1492.14,1330.84C1504.62,1330.84 1547.35,1273.41 1547.35,1258.43C1547.35,1253.44 1554.84,1248.45 1564.82,1248.45C1583.54,1248.45 1597.27,1274.66 1597.27,1310.85C1597.27,1324.63 1634.5,1332.41 1669.24,1344.72C1678.52,1348.01 1678.45,1352.66 1687.32,1358.73C1704.09,1355.22 1698.57,1354.99 1711.08,1355.88C1729.69,1357.2 1737.98,1362.44 1743.27,1370.74C1769.47,1413.17 1773.21,1466.83 1753.25,1514.25C1743.27,1539.2 1734.53,1590.99 1735.78,1613.45C1735.78,1613.45 1736.97,1628.29 1742.46,1642.97M1597.27,1478.06C1597.27,1503.02 1592.27,1503.02 1547.35,1479.31C1526.14,1468.08 1509.91,1450.61 1509.91,1439.38C1509.91,1410.67 1546.1,1373.24 1573.56,1373.24C1586.03,1373.24 1646.08,1362.01 1662.45,1361.83C1662.1,1357.05 1655.19,1352.89 1650.64,1351.44C1631.73,1345.4 1600.84,1348.77 1589.78,1350.78C1569.81,1353.27 1567.32,1347.03 1568.56,1310.85C1571.06,1287.14 1568.56,1275.9 1563.57,1285.89C1559.83,1295.87 1542.36,1318.33 1523.64,1335.8C1503.67,1354.52 1489.95,1384.47 1487.45,1410.67C1481.21,1469.32 1456.26,1514.25 1406.34,1556.67C1353.93,1600.35 1333.97,1635.29 1343.95,1670.23C1348.94,1690.2 1360.17,1697.68 1383.88,1697.68C1426.31,1698.93 1506.17,1735.12 1557.33,1777.55C1624.72,1836.2 1602.26,1838.69 1522.39,1782.54C1456.26,1736.37 1437.54,1728.88 1362.67,1725.14L1279.06,1718.9L1320.24,1761.32C1341.45,1783.79 1360.17,1806.25 1360.17,1811.24C1360.17,1837.44 1474.97,1886.11 1561.08,1896.09C1683.37,1909.82 1689.61,1908.57 1697.09,1867.39C1705.83,1819.97 1733.28,1808.74 1725.8,1856.16C1720.8,1889.85 1720.8,1889.85 1739.52,1867.39C1750.75,1853.67 1759.49,1828.71 1759.49,1811.24C1759.49,1793.77 1763.23,1766.32 1766.97,1751.34C1773.21,1730.13 1766.97,1723.89 1734.53,1716.4L1693.35,1707.67L1702.09,1634.04C1705.83,1594.11 1718.31,1540.45 1728.29,1514.25C1747.01,1470.57 1743.27,1393.2 1722.05,1379.48C1717.06,1375.73 1685.86,1376.98 1654.67,1380.73C1603.5,1388.21 1597.27,1391.96 1597.27,1421.9M1503.67,2251.73C1514.91,2246.74 1534.87,2221.78 1547.35,2195.58C1561.08,2169.38 1584.79,2139.43 1599.76,2129.44C1615.06,2118.57 1654.78,2103.08 1652.49,2100.93C1647.7,2096.43 1575.52,2119.06 1529.88,2144.42C1494.94,2164.38 1458.75,2178.11 1450.02,2174.37C1440.03,2171.87 1411.33,2135.68 1383.88,2093.26C1328.97,2008.4 1318.99,1942.26 1358.92,1928.54C1382.63,1921.05 1558.56,1962.68 1587.28,1967.22C1608.06,1970.51 1634.7,1949.75 1634.7,1934.78C1634.7,1929.79 1597.27,1922.3 1552.34,1918.55C1498.68,1913.56 1450.02,1899.84 1413.83,1878.62C1348.94,1842.43 1311.5,1839.94 1260.34,1866.14C1209.18,1892.35 1211.67,1919.8 1285.3,2067.05C1366.41,2233.02 1423.81,2281.68 1503.67,2251.73ZM1497.44,2100.74C1551.09,2019.63 1551.09,2023.38 1513.66,2033.36C1458.75,2049.58 1415.72,2075.01 1405.39,2081.85C1414.31,2101.49 1436.29,2146.91 1451.27,2146.91C1460,2146.91 1479.97,2125.7 1497.44,2100.74ZM1260.34,2079.53C1260.34,2077.03 1246.62,2044.59 1229.14,2005.9C1200.44,1944.76 1192.96,1937.27 1150.53,1929.79C1125.57,1926.04 1088.14,1922.3 1066.92,1922.3C1036.97,1922.3 1008.27,1902.33 929.658,1824.97C874.752,1771.31 812.359,1715.15 791.145,1700.18L752.462,1673.97L730,1723.89C702.547,1785.03 710.034,1795.02 796.137,1802.5C867.265,1808.74 874.752,1813.73 932.154,1897.34C953.368,1928.54 992.051,1978.45 1019.5,2008.4C1061.93,2057.07 1070.67,2062.06 1094.38,2048.33C1134.31,2027.12 1179.23,2032.11 1211.67,2059.56C1239.13,2082.03 1260.34,2090.76 1260.34,2079.53ZM1483.71,2018.38L1538.62,2000.91L1496.19,1979.7C1473.73,1968.47 1435.04,1955.99 1410.09,1952.25C1353.93,1943.51 1342.7,1960.98 1367.66,2019.63C1377.96,2045.78 1384.87,2051.76 1390.65,2061.27C1397.14,2058.78 1453.76,2028.37 1483.71,2018.38ZM2039.58,1991.74C2042.07,1948.07 2024.03,1891.1 1999.08,1829.96C1960.39,1732.62 1921.89,1694.78 1899.43,1734.71C1886.45,1757.42 1856.32,1802.87 1806.01,1844.16C1802.23,1847.26 1797.34,1852.28 1786.58,1854.76C1770.86,1858.38 1766.51,1852.2 1762.42,1855.35C1741.35,1883.55 1742.02,1896.09 1769.47,1897.34C1784.44,1897.34 1806.91,1886.11 1819.38,1871.14C1830.62,1857.41 1855.57,1837.44 1873.04,1828.71C1902.99,1812.49 1907.98,1813.73 1934.19,1841.19C1954.15,1862.4 1965.47,1892.62 1967.46,1930.86C1969.41,1968.47 1955.4,1989.68 1891.76,2003.41C1873.04,2007.15 1836.06,2006.67 1841.05,2010.41C1852.28,2021.64 1960.39,2044.59 1996.58,2043.34C2025.28,2040.85 2038.41,2043.83 2039.58,1991.74ZM1255.35,1842.43C1279.06,1831.2 1306.51,1822.47 1316.5,1822.47C1348.94,1822.47 1310.26,1776.3 1257.85,1752.59C1231.64,1741.36 1210.43,1727.63 1210.43,1722.64C1210.43,1717.65 1235.38,1708.91 1266.58,1703.92C1316.5,1697.68 1322.74,1692.69 1316.5,1671.48C1304.02,1631.55 1331.47,1581.63 1392.62,1529.22C1441.28,1489.29 1447.52,1479.31 1432.55,1465.58C1420.07,1453.1 1401.35,1450.61 1360.17,1458.09L1304.02,1468.08L1307.76,1532.97C1311.5,1604.09 1292.79,1621.56 1280.31,1559.17C1261.59,1464.33 1272.82,1446.86 1361.42,1430.64C1386.38,1426.9 1418.82,1409.43 1433.8,1393.2L1461.25,1363.26L1425.06,1350.78C1403.85,1343.29 1382.63,1342.04 1377.64,1348.28C1351.44,1370.74 1289.04,1370.74 1254.1,1348.28L1217.91,1324.57L1168,1364.5C1098.12,1418.16 1089.38,1431.89 1065.67,1506.76C1048.2,1566.66 1029.49,1595.36 1017.01,1582.88C1014.51,1580.38 1023.25,1544.2 1038.22,1500.52C1061.93,1426.9 1095.62,1381.97 1166.75,1330.81C1180.48,1320.83 1189.21,1310.85 1185.47,1307.1C1176.74,1299.61 1025.74,1223.5 1018.26,1223.5C1014.51,1223.5 988.308,1259.68 959.607,1304.61C914.684,1374.49 902.205,1385.72 868.513,1386.96C847.299,1388.21 814.855,1391.96 796.137,1396.95L763.692,1404.43L793.641,1476.81L824.838,1549.19L797.385,1592.86C781.162,1620.32 774.923,1644.03 779.915,1657.75C788.65,1676.47 791.145,1675.22 797.385,1650.26C807.368,1611.58 827.333,1614.08 829.829,1654.01C829.829,1671.48 847.299,1701.43 866.017,1720.14C885.983,1738.86 898.462,1747.6 893.47,1738.86C884.735,1721.39 897.214,1685.2 912.188,1685.2C918.427,1685.2 923.419,1703.92 923.419,1726.38C923.419,1755.08 937.145,1781.29 973.333,1822.47C1015.76,1871.14 1022,1874.88 1023.25,1851.17C1023.25,1834.95 1030.74,1822.47 1039.47,1822.47C1050.7,1822.47 1054.44,1833.7 1050.7,1858.66L1045.71,1896.09L1118.09,1899.84C1175.49,1902.33 1194.2,1898.59 1201.69,1883.61C1207.93,1872.38 1231.64,1853.67 1255.35,1842.43ZM1608.81,1451.65C1607.83,1445.16 1610.28,1436.73 1613.04,1431.72C1625.81,1408.5 1662.76,1416.35 1692.1,1449.36C1709.57,1468.08 1709.57,1473.07 1694.6,1479.31C1677.04,1486.99 1624.86,1479.9 1616.6,1471.45C1611.64,1466.37 1609.78,1458.12 1608.81,1451.65ZM1853.08,1773.8C1866.8,1756.33 1890.51,1722.64 1906.74,1700.18C1906.74,1700.18 1917.23,1687.16 1929.34,1675.3C1941.45,1663.44 1955.17,1652.75 1955.17,1652.75C1955.17,1652.75 1935.08,1651.78 1891.76,1663.99C1792.24,1692.05 1785.69,1706.42 1793.18,1736.37C1799.42,1760.08 1801.91,1760.08 1834.36,1728.88C1851.83,1711.41 1871.8,1701.43 1875.54,1706.42C1889.27,1718.9 1821.88,1783.79 1801.91,1776.3C1784.44,1770.06 1768.75,1816.74 1773.14,1838.1C1774.32,1843.87 1780.15,1844.03 1787.88,1840.7C1803.34,1834.03 1824.9,1809.03 1853.08,1773.8ZM1743.27,1688.95C1738.27,1685.2 1730.79,1685.2 1725.8,1688.95C1722.05,1693.94 1725.8,1697.68 1734.53,1697.68C1743.27,1697.68 1747.01,1693.94 1743.27,1688.95ZM1572.31,1429.39C1572.31,1396.95 1554.84,1388.21 1541.11,1410.67C1529.88,1428.14 1542.36,1460.59 1559.83,1460.59C1566.07,1460.59 1572.31,1446.86 1572.31,1429.39ZM1676.12,1458.26C1676.12,1451.39 1636.51,1427.81 1631.28,1442.47C1625.9,1457.55 1636.91,1461.31 1650.58,1462.58C1664.89,1463.91 1676.12,1465.12 1676.12,1458.26ZM1460,1429.39C1460,1419.41 1455.01,1410.67 1448.77,1410.67C1432.55,1410.67 1421.32,1430.64 1431.3,1440.62C1445.03,1454.35 1460,1448.11 1460,1429.39Z" style="fill-rule:nonzero;"/><g id="g24"><path id="path26" d="M1637.2,1751.34C1655.91,1732.62 1675.88,1721.39 1679.62,1726.38C1692.1,1738.86 1647.18,1785.03 1623.47,1785.03C1609.74,1785.03 1613.49,1776.3 1637.2,1751.34Z" style="fill-rule:nonzero;"/></g><g id="g28"><path id="path30" d="M1556.09,1703.92C1528.63,1677.72 1524.89,1666.49 1534.87,1647.77C1542.36,1634.04 1557.33,1622.81 1567.32,1622.81C1593.52,1622.81 1663.4,1693.94 1657.16,1713.9C1647.18,1742.61 1592.27,1737.61 1556.09,1703.92ZM1634.7,1710.16C1634.7,1703.92 1625.97,1697.68 1615.98,1697.68C1606,1697.68 1592.27,1686.45 1584.79,1672.73C1577.3,1659 1564.82,1651.51 1557.33,1655.26C1548.6,1661.5 1554.84,1675.22 1577.3,1693.94C1613.49,1723.89 1634.7,1730.13 1634.7,1710.16Z" style="fill-rule:nonzero;"/></g><g id="path2180" transform="matrix(3.65385,0,0,-3.65385,0,2512.29)"><path d="M398.814,287.773C398.814,287.773 396.537,290.209 393.928,292.044C391.318,293.879 388.013,295.111 388.013,295.111C388.013,295.111 400.313,311.011 402.113,308.954C403.913,306.897 402.609,303.359 401.838,298.73C401.058,294.053 398.814,287.773 398.814,287.773Z" style="fill:rgb(255,207,171);stroke:black;stroke-width:1.55px;"/></g></g></g><g id="text3047"><path id="path3233" d="M154.972,548.962C137.928,548.962 124.619,544.757 115.046,536.345C105.472,527.934 100.685,515.98 100.685,500.485C100.685,489.085 102.442,478.544 105.956,468.859C109.47,459.175 114.575,450.737 121.271,443.541C127.912,436.403 136.061,430.813 145.717,426.774C155.373,422.734 166.233,420.715 178.297,420.714C185.546,420.714 192.782,421.586 200.004,423.329C207.225,425.072 214.599,427.908 222.126,431.837L218.391,450.598L216.896,450.598C210.754,444.843 204.072,440.678 196.849,438.105C189.628,435.532 181.866,434.246 173.566,434.245C164.435,434.246 156.439,436.044 149.577,439.641C142.715,443.238 136.932,448.025 132.228,454.001C127.634,459.867 124.162,466.702 121.81,474.504C119.458,482.307 118.282,490.164 118.282,498.078C118.282,509.976 121.533,519.162 128.036,525.637C134.538,532.112 144.153,535.349 156.881,535.349C162.47,535.349 167.714,534.837 172.612,533.814C177.509,532.79 182.116,531.476 186.433,529.871L193.406,498.245L160.452,498.245L163.607,484.383L213.079,484.383L200.794,537.424C197.142,538.918 193.849,540.26 190.916,541.45C187.983,542.64 184.303,543.871 179.876,545.144C176.058,546.251 172.115,547.164 168.047,547.883C163.98,548.603 159.622,548.962 154.974,548.962L154.972,548.962Z" style="fill-rule:nonzero;"/><path id="path3235" d="M282.716,548.8C267.055,548.8 254.77,544.746 245.86,536.639C236.951,528.532 232.496,517.035 232.496,502.15C232.496,490.75 234.211,480.125 237.642,470.274C241.073,460.424 245.998,451.791 252.418,444.376C258.782,437.071 266.612,431.302 275.909,427.069C285.206,422.836 295.582,420.719 307.037,420.719C314.176,420.719 320.927,421.591 327.291,423.334C333.655,425.077 340.185,427.83 346.881,431.593L343.146,450.186L341.901,450.186C340.075,448.36 338.234,446.659 336.381,445.081C334.527,443.504 331.746,441.775 328.038,439.893C324.995,438.289 321.37,436.947 317.164,435.868C312.959,434.789 308.31,434.249 303.22,434.249C295.472,434.249 288.361,435.868 281.886,439.105C275.411,442.342 269.795,446.866 265.035,452.677C260.386,458.321 256.734,465.183 254.078,473.263C251.422,481.342 250.094,489.948 250.094,499.078C250.093,510.478 253.054,519.346 258.975,525.683C264.896,532.019 273.447,535.187 284.625,535.187C289.882,535.187 294.877,534.592 299.608,533.403C304.34,532.213 308.642,530.705 312.516,528.879C316.113,527.163 319.35,525.365 322.228,523.483C325.105,521.602 327.568,519.859 329.616,518.254L330.778,518.254L326.877,537.346C321.066,540.279 314.384,542.921 306.83,545.273C299.276,547.625 291.238,548.801 282.716,548.801L282.716,548.8Z" style="fill-rule:nonzero;"/><path id="path3237" d="M401.587,548.8C385.927,548.8 373.641,544.746 364.732,536.639C355.822,528.532 351.367,517.035 351.367,502.15C351.367,490.75 353.083,480.125 356.514,470.274C359.945,460.424 364.87,451.791 371.289,444.376C377.653,437.071 385.484,431.302 394.781,427.069C404.077,422.836 414.453,420.719 425.908,420.719C433.047,420.719 439.798,421.591 446.163,423.334C452.526,425.077 459.057,427.83 465.753,431.593L462.017,450.186L460.772,450.186C458.946,448.36 457.106,446.659 455.252,445.081C453.398,443.504 450.618,441.775 446.91,439.893C443.866,438.289 440.242,436.947 436.036,435.868C431.83,434.789 427.182,434.249 422.091,434.249C414.344,434.249 407.233,435.868 400.758,439.105C394.283,442.342 388.666,446.866 383.907,452.677C379.258,458.321 375.606,465.183 372.95,473.263C370.293,481.342 368.965,489.948 368.965,499.078C368.965,510.478 371.926,519.346 377.847,525.683C383.768,532.019 392.318,535.187 403.497,535.187C408.754,535.187 413.748,534.592 418.48,533.403C423.211,532.213 427.514,530.705 431.388,528.879C434.985,527.163 438.222,525.365 441.1,523.483C443.977,521.602 446.44,519.859 448.487,518.254L449.649,518.254L445.748,537.346C439.937,540.279 433.256,542.921 425.701,545.273C418.147,547.625 410.109,548.801 401.587,548.801L401.587,548.8Z" style="fill-rule:nonzero;"/></g><path id="path4122" d="M443.085,287.443C441.949,282.377 428.219,291.798 428.03,297.29C427.841,302.782 441.376,313.455 442.422,308.652C443.464,303.871 444.213,292.471 443.085,287.443Z" style="fill:white;stroke:black;stroke-width:1.3px;"/></g></g></svg>