<svg width="100%" height="100%" viewBox="0 0 18 16" version="1.1" xmlns="http://www.w3.org/2000/svg" xmlns:xlink="http://www.w3.org/1999/xlink" xml:space="preserve" style="fill-rule:evenodd;clip-rule:evenodd;stroke-linejoin:round;stroke-miterlimit:2;"><g transform="matrix(0.125,0,0,0.125,9,8)"><g id="git" transform="matrix(1,0,0,1,-64,-64)"><g transform="matrix(2.37988,0,0,2.37988,-1.75961,-88.3628)"><path d="M52.7,61.7L29.951,38.952C28.642,37.642 26.517,37.642 25.207,38.952L20.483,43.676L26.474,49.668C27.868,49.198 29.464,49.513 30.574,50.624C31.69,51.741 32.003,53.351 31.521,54.749L37.296,60.524C38.692,60.043 40.305,60.354 41.421,61.471C42.981,63.03 42.981,65.557 41.421,67.117C39.86,68.677 37.334,68.677 35.774,67.117C34.601,65.943 34.311,64.22 34.905,62.775L29.519,57.389L29.518,71.563C29.899,71.751 30.257,72.001 30.574,72.317C32.134,73.876 32.134,76.402 30.574,77.964C29.014,79.523 26.486,79.523 24.928,77.964C23.368,76.402 23.368,73.876 24.928,72.317C25.314,71.932 25.759,71.641 26.235,71.446L26.235,57.141C25.759,56.947 25.314,56.657 24.928,56.27C23.746,55.089 23.462,53.356 24.068,51.905L18.162,45.997L2.563,61.595C1.252,62.906 1.252,65.031 2.563,66.342L25.312,89.09C26.622,90.4 28.746,90.4 30.058,89.09L52.7,66.446C54.011,65.136 54.011,63.01 52.7,61.7Z" style="fill:rgb(243,79,41);fill-rule:nonzero;"/></g></g><g id="git1"></g></g></svg>