<svg width="100%" height="100%" viewBox="0 0 18 16" version="1.1" xmlns="http://www.w3.org/2000/svg" xmlns:xlink="http://www.w3.org/1999/xlink" xml:space="preserve" style="fill-rule:evenodd;clip-rule:evenodd;stroke-linejoin:round;stroke-miterlimit:2;"><g id="gitbook"><g transform="matrix(1.07381,0,0,1.16787,0.071922,-0.951721)"><path d="M15.532,3.683L15.532,11.647C15.532,13.112 14.238,14.301 12.645,14.301L3.984,14.301C2.391,14.301 1.097,13.112 1.097,11.647L1.097,3.683C1.097,2.218 2.391,1.029 3.984,1.029L12.645,1.029C14.238,1.029 15.532,2.218 15.532,3.683Z" style="fill:white;"/></g><g transform="matrix(0.362682,0,0,0.362682,2.97422,2.02826)"><path d="M14.099,17.28C15.659,18.182 16.438,18.633 17.295,18.634C18.152,18.634 18.933,18.185 20.495,17.286L30.43,11.568C30.879,11.31 31.156,10.83 31.156,10.312C31.156,9.794 30.879,9.314 30.43,9.056L20.491,3.336C18.931,2.438 18.151,1.989 17.295,1.99C16.439,1.99 15.659,2.44 14.1,3.339L5.56,8.262C2.573,9.951 0.709,13.117 0.682,16.548L0.682,16.863C0.708,20.291 2.568,23.454 5.55,25.144L10.891,28.231C14.016,30.038 15.579,30.941 17.295,30.941C19.011,30.943 20.575,30.041 23.701,28.236L29.345,24.978C30.908,24.076 31.689,23.625 32.118,22.882C32.547,22.139 32.547,21.237 32.547,19.432L32.547,15.937C32.547,15.18 31.924,14.557 31.167,14.557C30.926,14.557 30.688,14.621 30.479,14.741L18.891,21.411C18.111,21.859 17.722,22.084 17.295,22.084C16.867,22.084 16.478,21.86 15.698,21.412L7.858,16.906C7.464,16.679 7.267,16.566 7.108,16.546C6.75,16.5 6.402,16.702 6.265,17.036C6.205,17.184 6.206,17.411 6.209,17.866C6.211,18.2 6.211,18.367 6.243,18.521C6.313,18.864 6.493,19.175 6.756,19.406C6.874,19.509 7.019,19.593 7.309,19.76L15.694,24.606C16.475,25.057 16.866,25.283 17.294,25.283C17.724,25.283 18.114,25.058 18.896,24.607L29.174,18.674C29.441,18.52 29.574,18.444 29.674,18.501C29.774,18.559 29.774,18.713 29.774,19.021L29.774,20.605C29.774,21.056 29.774,21.282 29.667,21.467C29.56,21.653 29.365,21.766 28.974,21.991L20.5,26.883C18.936,27.785 18.154,28.237 17.296,28.236C16.438,28.236 15.656,27.784 14.094,26.88L6.167,22.296L6.111,22.263C4.453,21.291 3.426,19.512 3.415,17.59L3.415,16.069C3.415,15.006 3.981,14.023 4.901,13.489C5.714,13.017 6.72,13.017 7.534,13.487L14.099,17.28Z" style="fill:rgb(24,28,31);"/></g></g></svg>