<svg width="100%" height="100%" viewBox="0 0 18 16" version="1.1" xmlns="http://www.w3.org/2000/svg" xmlns:xlink="http://www.w3.org/1999/xlink" xml:space="preserve" style="fill-rule:evenodd;clip-rule:evenodd;stroke-linejoin:round;stroke-miterlimit:2;"><g id="gitcliff"><g transform="matrix(1.1212,0,0,1.55284,-0.66785,0.0671886)"><path d="M2.459,6.978C2.124,6.403 1.939,5.771 1.939,5.109C1.939,2.443 4.934,0.279 8.623,0.279C12.312,0.279 15.307,2.443 15.307,5.109C15.307,5.973 14.992,6.785 14.44,7.487C13.885,7.248 12.743,6.758 12.37,6.601C11.995,6.444 11.303,6.131 10.812,5.937C10.679,5.885 10.561,5.841 10.468,5.812C10.452,5.807 10.437,5.803 10.423,5.799C10.014,5.682 9.527,5.742 9.527,5.742C9.527,5.742 8.589,5.148 8.146,4.852C7.704,4.556 7.407,4.477 7.198,4.49C7.045,4.499 6.877,4.582 6.74,4.668C6.581,4.768 6.451,4.839 6.451,4.839L5.876,5.194C5.536,5.404 4.851,5.816 4.428,6.056C4.005,6.297 3.155,6.677 2.459,6.978Z" style="fill:rgb(195,203,206);fill-opacity:0.69;"/></g><g transform="matrix(1.1212,0,0,1.55284,-0.66785,0.0671886)"><path d="M14.44,7.487C13.291,8.95 11.115,9.938 8.623,9.938C8.205,9.938 7.797,9.911 7.4,9.858C7.485,9.805 7.586,9.745 7.692,9.684C7.833,9.602 8.479,9.408 9.233,9.143C9.577,9.022 9.965,8.881 10.291,8.712C10.776,8.461 11.315,8.085 11.502,7.77C11.97,6.982 11.531,6.271 10.812,5.937C11.303,6.131 11.995,6.444 12.37,6.601C12.743,6.758 13.885,7.248 14.44,7.487Z" style="fill:url(#_Linear-axqr8v6);"/></g><g transform="matrix(1.1212,0,0,1.55284,-0.66785,0.0671886)"><path d="M6.74,4.668C6.877,4.582 7.045,4.499 7.198,4.49C7.407,4.477 7.704,4.556 8.146,4.852C8.589,5.148 9.527,5.742 9.527,5.742C9.527,5.742 10.014,5.682 10.423,5.799C10.437,5.803 10.452,5.807 10.468,5.812C10.27,5.759 10.061,5.732 9.85,5.737C9.338,5.747 8.781,5.878 8.166,6.036C8.013,6.075 7.747,6.097 7.57,6.117C7.331,6.143 7.166,6.154 7.13,6.13C6.991,6.038 8.182,5.926 8.182,5.926C8.182,5.926 7.994,5.893 7.806,5.825C7.512,5.718 7.17,5.627 7.027,5.594C6.458,5.46 6.326,5.414 6.282,5.333C6.193,5.166 6.622,4.772 6.74,4.668Z" style="fill:rgb(254,139,72);"/></g><path d="M7.314,9.564C7.314,9.571 7.318,9.579 7.326,9.586C7.366,9.623 7.552,9.607 7.82,9.565C8.018,9.535 8.317,9.5 8.488,9.44C9.177,9.195 9.802,8.992 10.376,8.975C10.613,8.968 10.847,9.01 11.069,9.093C11.173,9.138 11.306,9.206 11.455,9.287C12.26,9.806 12.753,10.909 12.228,12.133C12.018,12.622 11.415,13.206 10.871,13.596C10.505,13.857 10.07,14.077 9.685,14.265C8.839,14.676 8.115,14.978 7.956,15.104C7.837,15.199 7.725,15.293 7.629,15.375C5.557,14.991 3.783,13.752 2.686,12.039L7.314,9.564Z" style="fill:url(#_Linear-zqky9qv);"/><path d="M2.686,12.039C2.456,11.68 2.256,11.3 2.089,10.903C2.87,10.436 3.823,9.845 4.297,9.472C4.771,9.098 5.539,8.459 5.921,8.133L6.565,7.582C6.565,7.582 6.711,7.472 6.889,7.316C6.757,7.477 6.276,8.089 6.376,8.349C6.424,8.475 6.573,8.546 7.211,8.753C7.371,8.805 7.754,8.946 8.084,9.112C8.296,9.218 8.506,9.27 8.506,9.27C8.506,9.27 7.305,9.426 7.314,9.564L2.686,12.039Z" style="fill:url(#_Linear-wj72z0w);"/><g transform="matrix(0.779122,0,0,1.1911,1.64624,-1.31034)"><rect x="7.403" y="6.857" width="0.051" height="0.152" style="fill:rgb(186,187,187);"/></g><path d="M7.438,6.955L7.436,6.925L7.412,6.916L7.415,6.853L7.461,6.853L7.459,6.962L7.438,6.955" style="fill:rgb(151,158,160);"/></g><defs><linearGradient id="_Linear-axqr8v6" x1="0" y1="0" x2="1" y2="0" gradientUnits="userSpaceOnUse" gradientTransform="matrix(2.62982,-2.91114,4.03187,1.89882,9.33126,9.63425)"><stop offset="0" style="stop-color:rgb(190,91,36);stop-opacity:1"/><stop offset="0.61" style="stop-color:rgb(196,95,38);stop-opacity:1"/><stop offset="0.81" style="stop-color:rgb(211,105,43);stop-opacity:1"/><stop offset="1" style="stop-color:rgb(227,115,49);stop-opacity:1"/></linearGradient><linearGradient id="_Linear-zqky9qv" x1="0" y1="0" x2="1" y2="0" gradientUnits="userSpaceOnUse" gradientTransform="matrix(-1.49129,-3.35835,3.35835,-1.49129,8.66392,14.455)"><stop offset="0" style="stop-color:rgb(27,41,44);stop-opacity:1"/><stop offset="0.55" style="stop-color:rgb(27,43,46);stop-opacity:1"/><stop offset="1" style="stop-color:rgb(27,51,53);stop-opacity:1"/></linearGradient><linearGradient id="_Linear-wj72z0w" x1="0" y1="0" x2="1" y2="0" gradientUnits="userSpaceOnUse" gradientTransform="matrix(-3.92992,2.15691,-2.15691,-3.92992,6.63403,9.09845)"><stop offset="0" style="stop-color:rgb(28,43,46);stop-opacity:1"/><stop offset="1" style="stop-color:rgb(28,56,57);stop-opacity:1"/></linearGradient></defs></svg>