<svg width="100%" height="100%" viewBox="0 0 18 16" version="1.1" xmlns="http://www.w3.org/2000/svg" xmlns:xlink="http://www.w3.org/1999/xlink" xml:space="preserve" style="fill-rule:evenodd;clip-rule:evenodd;stroke-linejoin:round;stroke-miterlimit:2;"><g id="gitlab" transform="matrix(0.468747,0,0,0.468747,6.20175,4.10305)"><g transform="matrix(1,0,0,1,-10.0305,-7.68645)"><path d="M31.462,12.779L31.417,12.664L27.067,1.313C26.978,1.09 26.822,0.901 26.62,0.773C26.416,0.644 26.177,0.582 25.937,0.595C25.697,0.608 25.466,0.695 25.277,0.844C25.09,0.995 24.955,1.2 24.892,1.431L21.95,10.432L10.051,10.432L7.11,1.431C7.046,1.2 6.911,0.995 6.724,0.844C6.536,0.694 6.306,0.606 6.065,0.593C5.825,0.581 5.586,0.643 5.383,0.773C5.18,0.901 5.023,1.09 4.935,1.313L0.579,12.679L0.534,12.792C-0.091,14.429 -0.168,16.225 0.315,17.909C0.799,19.594 1.815,21.076 3.213,22.132L3.23,22.144L3.268,22.174L9.903,27.141L13.183,29.625L15.177,31.135C15.412,31.312 15.697,31.408 15.991,31.408C16.284,31.408 16.57,31.312 16.804,31.135L18.798,29.625L22.08,27.141L28.753,22.144L28.772,22.131C30.174,21.075 31.195,19.592 31.68,17.905C32.166,16.218 32.089,14.418 31.462,12.779Z" style="fill:rgb(226,67,41);fill-rule:nonzero;"/></g><g transform="matrix(1,0,0,1,-10.0305,-7.68645)"><path d="M31.462,12.779L31.417,12.664C29.296,13.101 27.296,14.001 25.561,15.298L16.008,22.538C19.265,25.001 22.1,27.141 22.1,27.141L28.773,22.144L28.792,22.131C30.191,21.072 31.208,19.588 31.689,17.901C32.171,16.214 32.091,14.416 31.462,12.779Z" style="fill:rgb(252,109,38);fill-rule:nonzero;"/></g><g transform="matrix(1,0,0,1,-10.0305,-7.68645)"><path d="M9.908,27.141L13.183,29.625L15.177,31.135C15.412,31.312 15.697,31.408 15.991,31.408C16.284,31.408 16.57,31.312 16.804,31.135L18.798,29.625L22.08,27.141C22.08,27.141 19.245,25.001 15.988,22.538L9.908,27.141Z" style="fill:rgb(252,163,38);fill-rule:nonzero;"/></g><g transform="matrix(1,0,0,1,-10.0305,-7.68645)"><path d="M6.435,15.305C4.701,14.007 2.701,13.108 0.579,12.672L0.534,12.785C-0.092,14.423 -0.17,16.22 0.313,17.906C0.796,19.592 1.814,21.075 3.213,22.132L3.23,22.144L3.268,22.174L9.903,27.141L16.008,22.538L6.435,15.305Z" style="fill:rgb(252,109,38);fill-rule:nonzero;"/></g></g></svg>