<svg width="100%" height="100%" viewBox="0 0 18 16" version="1.1" xmlns="http://www.w3.org/2000/svg" xmlns:xlink="http://www.w3.org/1999/xlink" xml:space="preserve" style="fill-rule:evenodd;clip-rule:evenodd;stroke-linejoin:round;stroke-miterlimit:2;"><g id="gitpod" transform="matrix(0.144444,0,0,0.144444,9,8)"><g transform="matrix(1,0,0,1,-45,-50)"><path d="M53.47,5.409C56.143,10.101 54.518,16.079 49.84,18.761L20.755,35.433C19.985,35.875 19.51,36.694 19.51,37.581L19.51,63.761C19.51,64.649 19.985,65.468 20.755,65.91L43.768,79.101C44.531,79.539 45.469,79.539 46.232,79.101L69.245,65.91C70.015,65.468 70.49,64.649 70.49,63.761L70.49,47.481L49.794,59.195C45.101,61.85 39.151,60.188 36.504,55.48C33.856,50.773 35.514,44.804 40.206,42.148L69.819,25.387C78.84,20.281 90,26.82 90,37.209L90,65.746C90,72.43 86.43,78.601 80.645,81.917L54.211,97.07C48.504,100.342 41.496,100.342 35.788,97.07L9.355,81.917C3.57,78.601 0,72.43 0,65.746L0,35.597C0,28.914 3.57,22.742 9.355,19.426L40.16,1.767C44.838,-0.914 50.797,0.716 53.47,5.409Z" style="fill:url(#_Linear-rc9iolo);"/></g></g><defs><linearGradient id="_Linear-rc9iolo" x1="0" y1="0" x2="1" y2="0" gradientUnits="userSpaceOnUse" gradientTransform="matrix(-46.4038,72.7219,-72.7219,-46.4038,67.7395,15.4543)"><stop offset="0" style="stop-color:rgb(255,180,91);stop-opacity:1"/><stop offset="1" style="stop-color:rgb(255,138,0);stop-opacity:1"/></linearGradient></defs></svg>