<svg width="100%" height="100%" viewBox="0 0 18 16" version="1.1" xmlns="http://www.w3.org/2000/svg" xmlns:xlink="http://www.w3.org/1999/xlink" xml:space="preserve" style="fill-rule:evenodd;clip-rule:evenodd;stroke-linejoin:round;stroke-miterlimit:2;"><g id="glTF" transform="matrix(0.0186056,0,0,0.0186056,8.83255,7.85115)"><g transform="matrix(1,0,0,1,-494.13,-242)"><g><path d="M419.671,403.727C434.428,387.173 442.232,362.992 442.232,330.411L442.232,148.37L411.058,148.37L411.058,176.85L410.673,176.85C404.768,165.821 396.56,157.547 386.042,152.027C375.518,146.512 363.973,143.752 351.405,143.752C334.212,143.752 319.714,147.023 307.915,153.566C296.111,160.109 286.616,168.516 279.436,178.775C272.249,189.039 267.121,200.327 264.041,212.643C260.962,224.958 259.423,237.021 259.423,248.82C259.423,262.423 261.281,275.316 265.004,287.499C268.72,299.689 274.3,310.399 281.745,319.636C289.184,328.872 298.42,336.184 309.455,341.572C320.49,346.96 333.449,349.654 348.332,349.654C354.49,349.654 360.708,348.885 366.997,347.345C373.288,345.806 379.187,343.563 384.707,340.61C390.221,337.664 395.159,333.941 399.524,329.45C403.884,324.963 407.474,319.637 410.3,313.478L411.057,313.478L411.057,326.562C411.057,337.855 409.963,348.115 407.785,357.352C405.603,366.589 402.073,374.479 397.202,381.02C392.325,387.563 386.167,392.692 378.728,396.415C371.283,400.132 362.179,401.996 351.403,401.996C346.014,401.996 340.368,401.417 334.468,400.264C332.338,399.848 330.268,399.336 328.257,398.734C326.069,397.962 323.899,397.177 321.747,396.378C321.547,396.293 321.348,396.206 321.149,396.119L321.149,396.155C236.622,364.583 180.992,310.909 180.992,250.003C180.992,152.856 322.515,74.104 497.092,74.104C594.345,74.104 681.543,96.254 739.528,134.697C676.24,70.283 562.757,25.022 433.005,25C234.282,24.965 73.17,125.674 73.153,249.938C73.141,334.759 148.195,408.635 259.046,446.996C347.965,450.04 393.094,433.537 419.671,403.727ZM406.248,271.526C404.066,280.762 400.668,289.038 396.049,296.349C391.432,303.663 385.334,309.568 377.769,314.052C370.198,318.545 361.027,320.787 350.252,320.787C339.475,320.787 330.491,318.545 323.311,314.052C316.125,309.568 310.352,303.662 305.992,296.349C301.626,289.038 298.548,280.895 296.755,271.91C294.958,262.932 294.061,253.954 294.061,244.97C294.061,235.481 295.149,226.37 297.332,217.644C299.51,208.925 302.973,201.227 307.724,194.552C312.469,187.883 318.561,182.561 326.005,178.58C333.444,174.605 342.422,172.615 352.946,172.615C363.205,172.615 371.93,174.672 379.116,178.773C386.296,182.88 392.135,188.334 396.627,195.129C401.113,201.93 404.385,209.561 406.441,218.028C408.492,226.495 409.52,235.094 409.52,243.814C409.52,253.052 408.425,262.289 406.248,271.526Z" style="fill:rgb(134,197,64);fill-rule:nonzero;"/><path d="M434.849,422.485C415.995,439.598 382.317,459.132 336.452,466.801C367.159,472.14 399.517,474.995 432.942,474.999C562.178,475.024 675.367,429.908 738.823,365.944C680.839,404.15 593.993,425.895 497.095,425.895C474.077,425.897 456.469,425.086 434.849,422.485Z" style="fill:rgb(134,197,64);fill-rule:nonzero;"/></g><g><g><path d="M633.84,347.908L586.875,347.908L586.875,189.705L527.953,189.705L527.953,149.471L692.763,149.471L692.763,189.705L633.84,189.705L633.84,347.908Z" style="fill:rgb(134,197,64);fill-rule:nonzero;"/></g><g><path d="M764.173,347.908L717.206,347.908L717.206,149.471L862.194,149.471L862.194,189.705L764.173,189.705L764.173,226.833L849.976,226.833L849.976,267.066L764.173,267.066L764.173,347.908Z" style="fill:rgb(134,197,64);fill-rule:nonzero;"/></g></g><rect x="469.554" y="100.031" width="32.714" height="247.313" style="fill:rgb(134,197,64);fill-rule:nonzero;"/></g><g transform="matrix(1,0,0,1,-494.13,-242)"><path d="M902.783,155.289L895.435,155.289L895.435,174.4L889.017,174.4L889.017,155.289L881.67,155.289L881.67,149.769L902.782,149.769L902.782,155.289L902.783,155.289Z" style="fill:rgb(134,197,64);fill-rule:nonzero;"/><path d="M905.647,149.769L915.1,149.769L919.342,166.19L919.411,166.19L923.654,149.769L933.107,149.769L933.107,174.4L927.069,174.4L927.069,155.703L927.001,155.703L921.826,174.4L916.929,174.4L911.752,155.703L911.683,155.703L911.683,174.4L905.647,174.4L905.647,149.769Z" style="fill:rgb(134,197,64);fill-rule:nonzero;"/></g></g></svg>