<svg width="100%" height="100%" viewBox="0 0 18 16" version="1.1" xmlns="http://www.w3.org/2000/svg" xmlns:xlink="http://www.w3.org/1999/xlink" xml:space="preserve" style="fill-rule:evenodd;clip-rule:evenodd;stroke-linejoin:round;stroke-miterlimit:2;"><g id="go-1" transform="matrix(1.00882,0,0,1.00882,-0.00722307,-0.0581826)"><path d="M6.616,13.065C6.616,13.065 6.355,13.067 6.374,13.394C6.387,13.622 6.881,13.538 6.881,13.538L6.616,13.065Z" style="fill:rgb(0,1,0);"/><path d="M6.607,13.151C6.607,13.151 6.433,13.163 6.426,13.383C6.421,13.535 6.788,13.467 6.788,13.467L6.607,13.151Z" style="fill:rgb(246,210,162);"/><path d="M13.328,12.511C13.328,12.511 13.441,12.476 13.564,12.506C13.686,12.535 13.855,12.73 13.909,12.786C13.963,12.843 14.043,12.882 14.095,12.848C14.147,12.815 14.38,12.615 14.392,12.545C14.403,12.475 14.43,12.326 14.402,12.215C14.374,12.103 14.241,11.995 14.128,11.936C14.014,11.877 13.974,11.836 13.831,11.834C13.688,11.833 13.636,11.875 13.636,11.875L13.328,12.511Z" style="fill:rgb(0,1,0);"/><path d="M13.487,12.418L13.483,12.249L13.665,11.884C13.665,11.884 13.902,11.872 13.999,11.924C14.095,11.976 14.16,12.02 14.259,12.114C14.358,12.209 14.337,12.314 14.337,12.314L14.318,12.405L14.231,12.283L14.173,12.31L14.228,12.389C14.228,12.389 14.251,12.422 14.254,12.49C14.257,12.559 14.269,12.603 14.182,12.678C14.096,12.753 14.028,12.836 13.956,12.73C13.885,12.623 13.736,12.435 13.639,12.429C13.542,12.422 13.487,12.418 13.487,12.418Z" style="fill:rgb(246,210,162);"/><path d="M13.587,5.76C13.587,5.76 13.917,5.674 14.129,5.67C14.341,5.666 14.551,5.848 14.55,5.953C14.549,6.058 14.542,6.064 14.548,6.103C14.555,6.142 14.478,6.211 14.478,6.211C14.478,6.211 14.483,6.314 14.47,6.37C14.456,6.426 14.292,6.499 14.187,6.497C14.081,6.495 14,6.427 14,6.427L13.729,6.424L13.587,5.76Z" style="fill:rgb(0,1,0);"/><path d="M13.637,5.836C13.637,5.836 13.919,5.773 14.068,5.757C14.216,5.741 14.337,5.796 14.401,5.835C14.511,5.902 14.48,6.055 14.48,6.055C14.48,6.055 14.442,6.068 14.409,6.053C14.385,6.041 14.368,6.002 14.346,5.993C14.295,5.97 14.262,5.99 14.262,5.99L14.259,6.039C14.259,6.039 14.336,6.051 14.375,6.117C14.415,6.184 14.414,6.359 14.322,6.396C14.23,6.432 14.077,6.443 14.049,6.408C14.021,6.373 14.011,6.355 13.936,6.355C13.861,6.354 13.745,6.353 13.745,6.353L13.637,5.836Z" style="fill:rgb(246,210,162);"/><path d="M10.397,1.061C10.397,1.061 10.668,0.628 11.141,0.641C11.615,0.654 12.048,1.038 12.06,1.354C12.073,1.67 11.793,2.327 11.793,2.327L10.397,1.061Z" style="fill:rgb(0,1,0);"/><path d="M10.497,1.09C10.497,1.09 10.708,0.695 11.17,0.707C11.518,0.717 11.985,1.054 11.975,1.416C11.965,1.788 11.763,2.23 11.763,2.23L10.497,1.09Z" style="fill:rgb(106,215,229);"/><path d="M10.767,1.334C10.767,1.334 10.899,1.038 11.293,1.197C11.639,1.336 11.285,1.819 11.285,1.819L10.767,1.334Z"/><path d="M4.303,3.636C4.303,3.636 3.28,3.771 3.307,4.603C3.318,4.916 3.336,5.184 3.522,5.341C3.643,5.444 3.902,5.468 4.025,5.518C4.214,5.595 4.365,5.683 4.365,5.683L4.303,3.636Z" style="fill:rgb(0,1,0);"/><path d="M4.257,3.727C4.257,3.727 3.491,3.857 3.442,4.527C3.424,4.778 3.475,5.057 3.629,5.216C3.887,5.48 4.306,5.532 4.306,5.532L4.257,3.727Z" style="fill:rgb(106,215,229);"/><path d="M3.914,4.636C3.92,4.936 4.268,4.976 4.268,4.976L4.272,4.356C4.272,4.356 3.908,4.325 3.914,4.636Z" style="fill:rgb(0,1,0);"/><path d="M4.656,2.836C4.158,3.477 4.215,3.771 4.203,4.691C4.195,5.28 4.359,6.031 4.576,6.468C4.793,6.904 5.197,7.709 5.491,8.139C5.785,8.568 6.039,9 6.101,9.263C6.163,9.526 6.143,9.639 6.234,10.02C6.325,10.401 6.377,10.718 6.375,11.539C6.374,12.361 6.334,12.764 6.542,13.131C6.75,13.498 7.121,13.959 7.461,14.211C7.802,14.462 8.631,14.624 9,14.579C9.369,14.534 10.331,14.405 11.07,14.056C11.81,13.707 12.683,13.245 13.181,12.711C13.68,12.176 13.86,11.559 13.945,10.825C14.029,10.09 14.011,8.356 14.005,7.792C14,7.227 13.793,5.942 13.42,5.225C13.047,4.507 12.95,4.758 12.816,4.244C12.682,3.731 12.256,2.678 11.99,2.385C11.723,2.092 10.365,0.941 10.026,0.737C9.687,0.533 8.728,0.456 7.898,0.733C7.067,1.011 5.097,2.268 4.656,2.836Z" style="fill:rgb(0,1,0);"/><path d="M4.286,4.571C4.278,5 4.357,5.69 4.558,6.136C4.758,6.583 4.857,6.876 5.177,7.398C5.497,7.92 5.803,8.278 5.923,8.453C6.043,8.628 6.419,9.905 6.443,10.13C6.473,10.409 6.462,10.931 6.459,11.341C6.453,12.247 6.398,12.489 6.588,12.882C6.778,13.276 6.766,13.383 6.883,13.493C7,13.602 7.081,13.729 7.2,13.847C7.318,13.965 7.381,13.974 7.417,13.996C7.453,14.018 7.629,14.153 7.737,14.231C7.846,14.308 8.51,14.45 8.776,14.452C9.041,14.454 9.137,14.468 9.545,14.39C9.953,14.311 10.849,14.002 11.342,13.782C11.835,13.562 12.375,13.271 12.83,12.872C13.285,12.474 13.401,12.316 13.532,11.944C13.663,11.571 13.856,10.591 13.883,10.405C13.909,10.218 13.961,9.857 13.95,9.404C13.939,8.951 13.954,8.697 13.955,8.402C13.955,8.107 13.757,6.96 13.683,6.544C13.608,6.128 13.42,5.531 13.139,5.068C12.858,4.604 12.59,3.992 12.465,3.575C12.34,3.158 12.075,2.748 11.861,2.448C11.646,2.148 11.465,2 11.268,1.847C11.07,1.695 10.896,1.55 10.746,1.399C10.595,1.248 10.275,0.931 9.956,0.796C9.636,0.66 9.537,0.638 9,0.646C8.463,0.654 7.97,0.81 7.644,0.929C7.318,1.049 6.94,1.24 6.747,1.392C6.553,1.543 6.182,1.784 6.067,1.829C5.952,1.874 5.984,1.921 5.783,2.067C5.583,2.213 5.426,2.346 5.262,2.446C5.098,2.547 4.827,2.802 4.646,3.041C4.465,3.28 4.302,3.658 4.286,4.571Z" style="fill:rgb(106,215,229);"/><g transform="matrix(1.15571,0,0,1.17352,-1.24562,-0.614235)"><ellipse cx="6.405" cy="3.577" rx="1.149" ry="1.112" style="fill:rgb(5,11,14);"/></g><g transform="matrix(1.0636,0,0,1.08911,-0.655594,-0.312343)"><ellipse cx="6.405" cy="3.577" rx="1.149" ry="1.112" style="fill:white;"/></g><g transform="matrix(1.04095,0,0,1.00701,-0.27416,-0.0261415)"><ellipse cx="6.823" cy="3.328" rx="0.367" ry="0.402"/></g><g transform="matrix(0.204087,0,0,0.197433,5.65085,2.6892)"><ellipse cx="6.823" cy="3.328" rx="0.367" ry="0.402" style="fill:white;"/></g><g transform="matrix(1.15571,0,0,1.17352,1.63659,-2.08542)"><ellipse cx="6.405" cy="3.577" rx="1.149" ry="1.112" style="fill:rgb(5,11,14);"/></g><g transform="matrix(1.0636,0,0,1.08911,2.22662,-1.78352)"><ellipse cx="6.405" cy="3.577" rx="1.149" ry="1.112" style="fill:white;"/></g><g transform="matrix(1.04095,0,0,1.00701,2.68927,-1.429)"><ellipse cx="6.823" cy="3.328" rx="0.367" ry="0.402"/></g><g transform="matrix(0.204087,0,0,0.197433,8.58828,1.26943)"><ellipse cx="6.823" cy="3.328" rx="0.367" ry="0.402" style="fill:white;"/></g><path d="M8.009,3.888C7.458,4.271 7.351,4.336 7.354,4.623C7.355,4.709 7.333,4.852 7.382,4.92C7.503,5.09 7.669,5.173 7.741,5.144C7.926,5.07 8.014,5.001 8.014,5.001C8.014,5.001 8.065,5.169 8.122,5.359C8.178,5.55 8.221,5.689 8.494,5.675C8.768,5.662 8.853,5.53 8.853,5.53C8.853,5.53 9.043,5.502 9.195,5.418C9.346,5.334 9.309,5.159 9.277,5.086C9.246,5.013 9,4.621 9,4.621L9,4.572C9,4.572 9.254,4.406 9.353,4.327C9.451,4.247 9.292,3.917 9.218,3.863C9.145,3.81 9.161,3.727 8.841,3.727C8.52,3.726 8.257,3.716 8.009,3.888Z" style="fill:rgb(32,32,27);"/><path d="M8.74,5.178C8.779,5.253 8.831,5.38 8.929,5.381C9.027,5.381 9.131,5.376 9.162,5.345C9.213,5.294 9.245,5.261 9.224,5.19C9.202,5.119 9.149,5.023 9.082,4.917C9.015,4.81 8.966,4.612 8.852,4.603C8.737,4.595 8.675,4.611 8.633,4.621C8.591,4.63 8.547,4.616 8.544,4.677C8.54,4.738 8.543,4.821 8.615,4.935C8.688,5.049 8.702,5.103 8.74,5.178Z" style="fill:white;"/><path d="M8.233,4.785C8.124,4.845 8.074,4.918 8.105,5.01C8.137,5.102 8.211,5.366 8.253,5.444C8.294,5.521 8.288,5.605 8.471,5.599C8.655,5.593 8.723,5.526 8.714,5.379C8.704,5.231 8.655,5.211 8.565,5.005C8.474,4.799 8.475,4.702 8.376,4.706" style="fill:white;"/><path d="M8.082,3.961C7.736,4.16 7.581,4.353 7.512,4.412C7.444,4.471 7.429,4.505 7.428,4.667C7.428,4.828 7.558,4.952 7.624,5.009C7.689,5.066 7.806,5.016 7.862,4.983C7.919,4.95 8.147,4.775 8.211,4.697C8.275,4.619 8.449,4.566 8.647,4.526C8.845,4.487 9.024,4.486 9.145,4.381C9.265,4.275 9.341,4.153 9.218,4.031C9.095,3.909 8.995,3.789 8.779,3.798C8.563,3.806 8.427,3.762 8.082,3.961Z" style="fill:rgb(246,210,162);"/><path d="M7.829,3.658C8.169,3.444 8.389,3.499 8.471,3.613C8.549,3.721 8.579,3.873 8.303,4.071C8.028,4.269 7.657,4.288 7.585,4.206C7.474,4.081 7.426,3.913 7.829,3.658Z"/><path d="M10.281,8.27C10.281,8.27 10.348,8.2 10.356,8.168C10.363,8.138 10.375,8.085 10.451,8.076C10.536,8.066 10.733,7.893 10.733,7.893C10.733,7.893 10.719,7.839 10.744,7.698C10.769,7.556 10.806,7.378 10.808,7.332C10.811,7.285 10.866,7.248 10.866,7.248C10.866,7.248 11.144,7.257 11.305,7.256C11.466,7.254 11.804,7.417 11.839,7.621C11.874,7.825 11.858,8.067 11.691,8.145C11.525,8.223 11.375,8.244 11.261,8.146C11.148,8.047 11.115,8.022 10.979,8.024C10.844,8.026 10.77,8.027 10.77,8.027C10.77,8.027 10.671,8.032 10.578,8.127C10.502,8.206 10.348,8.291 10.348,8.291L10.281,8.27Z" style="fill:rgb(1,2,2);"/><path d="M10.798,7.926C10.798,7.926 10.8,7.864 10.802,7.808C10.805,7.752 10.879,7.69 10.88,7.599C10.88,7.508 10.881,7.335 10.881,7.335C10.881,7.335 11.062,7.326 11.224,7.331C11.386,7.337 11.663,7.439 11.713,7.547C11.763,7.656 11.774,7.718 11.778,7.787C11.782,7.856 11.789,7.923 11.746,7.923C11.704,7.923 11.721,7.868 11.688,7.796C11.656,7.723 11.636,7.703 11.595,7.702C11.553,7.7 11.551,7.736 11.551,7.757C11.552,7.777 11.617,7.795 11.625,7.835C11.633,7.874 11.77,7.952 11.643,8.072C11.633,8.082 11.579,8.136 11.52,8.141C11.461,8.146 11.363,8.056 11.323,8.02C11.283,7.984 11.218,7.943 11.167,7.933C11.117,7.923 10.798,7.926 10.798,7.926Z" style="fill:rgb(246,210,162);"/><path d="M8.106,14.139C8.34,14.138 8.596,14.33 8.646,14.377C8.696,14.424 8.742,14.559 8.644,14.673C8.545,14.788 8.442,14.806 8.414,14.866C8.386,14.926 8.375,15.104 8.313,15.222C8.25,15.341 8.272,15.431 7.914,15.421C7.555,15.411 7.439,15.361 7.435,15.138C7.431,14.916 7.572,14.768 7.668,14.624C7.763,14.48 7.82,14.312 7.842,14.26C7.864,14.207 7.872,14.141 8.106,14.139Z"/><path d="M7.769,15.335C7.769,15.335 7.737,15.234 7.706,15.181C7.676,15.128 7.617,15.053 7.699,15.052C7.78,15.052 7.788,15.083 7.799,15.132C7.811,15.182 7.819,15.35 7.949,15.35C8.079,15.35 8.154,15.267 8.204,15.196C8.253,15.126 8.253,15.108 8.269,15.045C8.285,14.982 8.342,14.971 8.343,14.899C8.343,14.827 8.376,14.815 8.427,14.76C8.478,14.705 8.59,14.649 8.588,14.585C8.587,14.521 8.612,14.443 8.409,14.334C8.206,14.224 8.036,14.153 7.934,14.302C7.833,14.452 7.744,14.657 7.649,14.788C7.555,14.919 7.498,15.038 7.499,15.122C7.5,15.206 7.588,15.349 7.664,15.348C7.74,15.347 7.769,15.335 7.769,15.335Z" style="fill:rgb(246,210,162);"/></g></svg>