<svg width="100%" height="100%" viewBox="0 0 18 16" version="1.1" xmlns="http://www.w3.org/2000/svg" xmlns:xlink="http://www.w3.org/1999/xlink" xml:space="preserve" style="fill-rule:evenodd;clip-rule:evenodd;stroke-linejoin:round;stroke-miterlimit:2;"><g transform="matrix(0.0876339,0,0,0.0876339,9,8)"><g id="Go-lang" transform="matrix(1,0,0,1,-102.7,-38.35)"><clipPath id="_clip-6q3cj50"><rect x="0" y="0" width="205.4" height="76.7"/></clipPath><g clip-path="url(#_clip-6q3cj50)"><g><g><g><g><path d="M15.5,23.2C15.1,23.2 15,23 15.2,22.7L17.3,20C17.5,19.7 18,19.5 18.4,19.5L54.1,19.5C54.5,19.5 54.6,19.8 54.4,20.1L52.7,22.7C52.5,23 52,23.3 51.7,23.3L15.5,23.2Z" style="fill:rgb(0,172,215);fill-rule:nonzero;"/></g></g></g><g><g><g><path d="M0.4,32.4C0,32.4 -0.1,32.2 0.1,31.9L2.2,29.2C2.4,28.9 2.9,28.7 3.3,28.7L48.9,28.7C49.3,28.7 49.5,29 49.4,29.3L48.6,31.7C48.5,32.1 48.1,32.3 47.7,32.3L0.4,32.4Z" style="fill:rgb(0,172,215);fill-rule:nonzero;"/></g></g></g><g><g><g><path d="M24.6,41.6C24.2,41.6 24.1,41.3 24.3,41L25.7,38.5C25.9,38.2 26.3,37.9 26.7,37.9L46.7,37.9C47.1,37.9 47.3,38.2 47.3,38.6L47.1,41C47.1,41.4 46.7,41.7 46.4,41.7L24.6,41.6Z" style="fill:rgb(0,172,215);fill-rule:nonzero;"/></g></g></g><g><g id="CXHf1q_3_"><g><g><path d="M128.4,21.4C122.1,23 117.8,24.2 111.6,25.8C110.1,26.2 110,26.3 108.7,24.8C107.2,23.1 106.1,22 104,21C97.7,17.9 91.6,18.8 85.9,22.5C79.1,26.9 75.6,33.4 75.7,41.5C75.8,49.5 81.3,56.1 89.2,57.2C96,58.1 101.7,55.7 106.2,50.6C107.1,49.5 107.9,48.3 108.9,46.9L89.6,46.9C87.5,46.9 87,45.6 87.7,43.9C89,40.8 91.4,35.6 92.8,33C93.1,32.4 93.8,31.4 95.3,31.4L131.7,31.4C131.5,34.1 131.5,36.8 131.1,39.5C130,46.7 127.3,53.3 122.9,59.1C115.7,68.6 106.3,74.5 94.4,76.1C84.6,77.4 75.5,75.5 67.5,69.5C60.1,63.9 55.9,56.5 54.8,47.3C53.5,36.4 56.7,26.6 63.3,18C70.4,8.7 79.8,2.8 91.3,0.7C100.7,-1 109.7,0.1 117.8,5.6C123.1,9.1 126.9,13.9 129.4,19.7C130,20.6 129.6,21.1 128.4,21.4Z" style="fill:rgb(0,172,215);fill-rule:nonzero;"/></g><g><path d="M161.5,76.7C152.4,76.5 144.1,73.9 137.1,67.9C131.2,62.8 127.5,56.3 126.3,48.6C124.5,37.3 127.6,27.3 134.4,18.4C141.7,8.8 150.5,3.8 162.4,1.7C172.6,-0.1 182.2,0.9 190.9,6.8C198.8,12.2 203.7,19.5 205,29.1C206.7,42.6 202.8,53.6 193.5,63C186.9,69.7 178.8,73.9 169.5,75.8C166.8,76.3 164.1,76.4 161.5,76.7ZM185.3,36.3C185.2,35 185.2,34 185,33C183.2,23.1 174.1,17.5 164.6,19.7C155.3,21.8 149.3,27.7 147.1,37.1C145.3,44.9 149.1,52.8 156.3,56C161.8,58.4 167.3,58.1 172.6,55.4C180.5,51.3 184.8,44.9 185.3,36.3Z" style="fill:rgb(0,172,215);fill-rule:nonzero;"/></g></g></g></g></g></g></g><g id="Go-lang1"></g></g></svg>