<svg width="100%" height="100%" viewBox="0 0 18 16" version="1.1" xmlns="http://www.w3.org/2000/svg" xmlns:xlink="http://www.w3.org/1999/xlink" xml:space="preserve" style="fill-rule:evenodd;clip-rule:evenodd;"><g id="golangci-lint" transform="matrix(0.13,0,0,0.13,2.5,0.688554)"><g id="go"><g id="logo__go__circle"><circle id="a" cx="50" cy="50" r="50" style="fill:rgb(23,175,194);"/></g><g transform="matrix(1,0,0,1,16,20)"><g id="logo__go__body"><g id="Group"><g><path id="Shape" d="M0.818,50.893C0.953,53.683 3.728,52.391 4.988,51.52C6.181,50.692 6.53,51.38 6.635,49.747C6.703,48.673 6.827,47.6 6.765,46.522C4.961,46.358 2.997,46.789 1.517,47.868C0.755,48.424 -0.675,50.198 0.817,50.893" style="fill:rgb(151,235,245);fill-rule:nonzero;stroke:rgb(23,131,145);stroke-width:1.5px;"/><path id="Shape1" d="M0.818,50.893C1.056,50.759 2.086,50.217 2.248,49.893" style="fill:rgb(198,177,152);fill-rule:nonzero;stroke:rgb(23,131,145);stroke-width:1px;"/><path id="Shape2" d="M7.235,17.676C-3.405,14.676 4.505,1.096 13.051,6.681L7.236,17.677L7.235,17.676ZM54.51,5.662C62.933,-0.272 70.544,13.117 60.756,16.485L54.51,5.662Z" style="fill:rgb(151,235,245);fill-rule:nonzero;stroke:rgb(23,131,145);stroke-width:1.5px;"/><path id="Shape3" d="M7.68,13.926C6.275,13.181 5.245,12.169 6.104,10.541C6.899,9.034 8.376,9.197 9.78,9.941L7.68,13.927L7.68,13.926ZM59.538,12.51C60.942,11.765 61.972,10.753 61.113,9.124C60.318,7.616 58.841,7.78 57.437,8.524L59.537,12.51L59.538,12.51Z" style="fill:rgb(23,131,145);fill-rule:nonzero;"/><path id="Shape4" d="M68.2,50.54C68.067,53.328 65.29,52.037 64.032,51.166C62.838,50.338 62.489,51.026 62.384,49.393C62.316,48.319 62.192,47.246 62.254,46.168C64.058,46.004 66.022,46.435 67.502,47.514C68.264,48.07 69.694,49.844 68.202,50.539" style="fill:rgb(151,235,245);fill-rule:nonzero;stroke:rgb(23,131,145);stroke-width:1.5px;"/><path id="Shape5" d="M68.2,50.54C67.797,50.388 66.524,49.904 66.25,49.538" style="fill:rgb(198,177,152);fill-rule:nonzero;stroke:rgb(23,131,145);stroke-width:1px;"/><path id="Shape6" d="M63.011,47.897C63.624,58.339 64.981,70.403 60.151,80.081C55.071,90.263 42.376,92.824 31.916,92.449C23.701,92.154 13.776,89.466 9.14,81.936C3.7,73.102 6.274,59.968 6.67,50.138C7.137,38.495 3.525,26.818 7.338,15.424C11.294,3.604 21.962,0.934 33.443,0.024C44.096,0.024 54.083,1.551 59.288,11.818C63.96,23.325 62.298,35.734 63.011,47.897Z" style="fill:rgb(151,235,246);fill-rule:nonzero;stroke:rgb(23,131,145);stroke-width:1.5px;"/><path id="Shape7" d="M35.324,16.367C37.237,27.52 55.41,24.572 52.8,13.323C50.46,3.236 34.688,6.028 35.324,16.367ZM13.606,18.17C16.086,27.88 31.582,25.395 30.998,15.655C30.298,3.99 11.236,6.241 13.606,18.171L13.606,18.17ZM37.517,30.75C37.525,32.2 37.845,33.83 37.572,35.37C37.202,36.07 36.479,36.145 35.855,36.428C34.992,36.292 34.265,35.723 33.92,34.914C33.7,33.154 34.003,31.448 34.06,29.687L37.517,30.751L37.517,30.75Z" style="fill:white;fill-rule:nonzero;stroke:rgb(23,131,145);stroke-width:1px;"/><g id="Group1" transform="matrix(1,0,0,1,15.58,13.684)"><ellipse id="Oval" cx="2.704" cy="2.904" rx="2.617" ry="2.843" style="fill:rgb(23,131,145);"/><circle id="Oval1" cx="3.895" cy="3.546" r="1" style="fill:white;"/></g><g id="Group2" transform="matrix(1,0,0,1,37.56,12.976)"><ellipse id="Oval2" cx="2.748" cy="2.904" rx="2.573" ry="2.843" style="fill:rgb(23,131,145);"/><circle id="Oval3" cx="3.918" cy="3.546" r="1" style="fill:white;"/></g><path id="Shape8" d="M30.038,30.593C28.898,33.369 30.675,38.919 33.773,34.825C33.551,33.065 33.856,31.36 33.911,29.598L30.039,30.593L30.038,30.593Z" style="fill:white;fill-rule:nonzero;stroke:rgb(23,131,145);stroke-width:1px;"/><path id="Shape9" d="M30.43,25.247C28.3,25.429 26.56,27.967 27.668,29.975C29.133,32.635 32.404,29.74 34.441,30.011C36.786,30.061 38.707,32.499 40.591,30.453C42.684,28.178 39.688,25.961 37.347,24.971L30.43,25.248L30.43,25.247Z" style="fill:rgb(151,235,245);fill-rule:nonzero;stroke:rgb(23,131,145);stroke-width:1.2px;"/><path id="Shape10" d="M30.16,25.136C30.004,21.438 37.033,20.976 37.863,24.071C38.691,27.161 30.507,27.878 30.161,25.137C29.886,22.947 30.161,25.137 30.161,25.137L30.16,25.136Z" style="fill:rgb(22,131,145);fill-rule:nonzero;"/></g></g></g></g><g id="logo__go__shield" transform="matrix(1,0,0,1,12,46)"><path id="Combined-Shape" d="M29,3.742L29,32.811L14.444,45L0,32.811L0,3.74C0.452,3.759 0.911,3.769 1.374,3.769C7.18,3.769 12.191,2.228 14.528,0C16.864,2.228 21.876,3.769 27.682,3.769C28.126,3.769 28.566,3.76 29,3.742Z" style="fill:url(#_Linear-mqsewy6);stroke:rgb(3,109,122);stroke-width:1px;stroke-linecap:square;"/><g id="bug" transform="matrix(1,0,0,1,6,13)"><g id="Line-4" transform="matrix(-1,0,0,1,5.53846,0)"><path d="M1.385,12.308L3.342,13.484L4.154,16" style="fill:none;stroke:rgb(3,109,122);stroke-width:1px;stroke-linecap:square;"/></g><path id="Line-41" d="M12.462,12.308L14.419,13.484L15.231,16" style="fill:none;stroke:rgb(3,109,122);stroke-width:1px;stroke-linecap:square;"/><path id="Line-2" d="M13.846,8.615L16.356,8.615L18,11.077" style="fill:none;stroke:rgb(3,109,122);stroke-width:1px;stroke-linecap:square;"/><ellipse id="Oval-2" cx="8.308" cy="8" rx="4.154" ry="8" style="fill:none;stroke:rgb(3,109,122);stroke-width:1px;"/><g id="Line-21" transform="matrix(-1,0,0,1,4.15385,0)"><path d="M0,8.615L2.509,8.615L4.154,11.077" style="fill:none;stroke:rgb(3,109,122);stroke-width:1px;stroke-linecap:square;"/></g><path id="Line-3" d="M12.462,3.692L15.432,2.939L16.615,1.231" style="fill:none;stroke:rgb(3,109,122);stroke-width:1px;stroke-linecap:square;"/><g id="Line-31" transform="matrix(-1,0,0,1,4.15385,0)"><path d="M0,3.692L2.971,2.939L4.154,1.231" style="fill:none;stroke:rgb(3,109,122);stroke-width:1px;stroke-linecap:square;"/></g><path id="Combined-Shape1" d="M6.048,1.231C6.63,1.674 7.428,1.947 8.308,1.947C9.187,1.947 9.985,1.674 10.568,1.231C11.708,2.662 12.462,5.146 12.462,7.97C12.462,12.405 10.602,16 8.308,16C6.014,16 4.154,12.405 4.154,7.97C4.154,5.146 4.908,2.662 6.048,1.231Z" style="fill:none;stroke:rgb(3,109,122);stroke-width:1px;"/><path id="Line-6" d="M8.308,2.945L8.308,15.516" style="fill:none;stroke:rgb(3,109,122);stroke-width:1px;stroke-linecap:square;"/></g></g></g></g><defs><linearGradient id="_Linear-mqsewy6" x1="0" y1="0" x2="1" y2="0" gradientUnits="userSpaceOnUse" gradientTransform="matrix(0.729393,0,0,0.729393,14.1,22.5)"><stop offset="0" style="stop-color:rgb(151,235,246);stop-opacity:1"/><stop offset="1" style="stop-color:rgb(89,193,206);stop-opacity:1"/></linearGradient></defs></svg>