<svg width="100%" height="100%" viewBox="0 0 18 16" version="1.1" xmlns="http://www.w3.org/2000/svg" xmlns:xlink="http://www.w3.org/1999/xlink" xml:space="preserve" style="fill-rule:evenodd;clip-rule:evenodd;stroke-linecap:round;stroke-linejoin:round;stroke-miterlimit:1;"><g id="goreleaser"><g transform="matrix(1.09619,0,0,1.09619,-0.0991002,-0.00290654)"><circle cx="8.301" cy="7.301" r="6.751" style="fill:rgb(59,86,114);"/><path d="M8.301,0.55C12.026,0.55 15.051,3.575 15.051,7.301C15.051,11.026 12.026,14.051 8.301,14.051C4.575,14.051 1.55,11.026 1.55,7.301C1.55,3.575 4.575,0.55 8.301,0.55ZM8.301,0.702C4.659,0.702 1.702,3.659 1.702,7.301C1.702,10.942 4.659,13.899 8.301,13.899C11.942,13.899 14.899,10.942 14.899,7.301C14.899,3.659 11.942,0.702 8.301,0.702Z"/></g><path d="M9.828,11.616C9.854,11.71 9.909,11.98 9.887,12.18C9.866,12.384 9.809,12.616 9.578,12.884C9.353,13.144 8.967,13.333 8.835,13.387C8.736,13.428 8.676,13.453 8.642,13.458L8.607,13.461L8.577,13.456L8.549,13.443L8.522,13.422L8.505,13.398L8.494,13.372L8.489,13.343L8.492,13.308C8.498,13.279 8.521,13.237 8.545,13.192C8.57,13.147 8.644,12.997 8.678,12.797C8.713,12.599 8.677,12.4 8.651,12.305C8.642,12.271 8.618,12.226 8.593,12.182L8.485,12.234L8.478,12.236C8.419,12.342 8.281,12.548 8.002,12.754C7.783,12.915 7.559,12.98 7.299,12.989C6.9,13.003 6.495,12.891 6.418,12.868L6.404,12.864C6.363,12.852 6.333,12.815 6.331,12.77C6.331,12.77 6.306,12.253 6.339,11.883C6.372,11.514 6.563,11.255 6.713,11.114C6.872,10.964 7.08,10.878 7.203,10.837L7.175,10.783L7.236,10.691C7.122,10.625 6.955,10.549 6.774,10.552C6.45,10.557 6.262,10.651 6.179,10.674C6.163,10.678 6.15,10.68 6.138,10.682L6.101,10.681L6.076,10.675L6.048,10.66L6.021,10.636L6.002,10.603L5.995,10.577L5.993,10.543C5.995,10.509 6.019,10.445 6.078,10.342C6.183,10.157 6.387,9.864 6.582,9.705C6.982,9.38 7.399,9.335 7.873,9.482C7.928,9.499 7.981,9.521 8.03,9.545L8.059,9.504C7.958,9.472 7.862,9.426 7.774,9.37C7.536,9.217 7.321,8.976 7.148,8.767C7.031,8.626 6.938,8.464 6.837,8.319C6.745,8.187 6.652,8.069 6.561,7.945L6.328,7.629C6.253,7.527 6.153,7.362 6.067,7.23C5.985,7.105 5.892,6.992 5.821,6.87C5.716,6.691 5.625,6.523 5.556,6.39C5.387,6.064 5.192,5.644 5.106,5.292C5.021,4.938 5.017,4.947 5.023,4.541C4.816,4.387 4.821,4.148 4.835,4.031C4.849,3.903 4.955,3.691 5.108,3.6C5.256,3.512 5.367,3.5 5.494,3.519C5.526,3.49 5.56,3.461 5.596,3.433C5.971,3.132 6.357,3.008 6.681,2.961C6.887,2.932 7.058,2.932 7.205,2.946C7.224,2.879 7.263,2.794 7.338,2.698C7.444,2.563 7.593,2.526 7.734,2.535C7.861,2.543 7.978,2.589 8.038,2.621C8.17,2.691 8.32,2.842 8.292,3.1C8.282,3.193 8.258,3.28 8.234,3.348C8.251,3.363 8.266,3.378 8.281,3.395C8.484,3.415 8.671,3.536 8.757,3.673C8.882,3.872 8.955,4.167 8.765,4.427C8.785,4.499 8.801,4.565 8.838,4.666L8.904,4.843C8.922,4.817 8.94,4.792 8.96,4.768C9.027,4.685 9.093,4.609 9.159,4.564C9.222,4.521 9.287,4.503 9.354,4.513C9.508,4.537 9.565,4.63 9.595,4.698C9.606,4.724 9.612,4.76 9.608,4.802C9.603,4.865 9.577,4.948 9.543,5.018C9.5,5.107 9.362,5.285 9.27,5.377L9.164,5.48C9.246,5.664 9.332,5.839 9.411,5.959C9.571,6.202 9.668,6.356 9.758,6.455C9.857,6.563 10.002,6.707 10.074,6.849C10.102,6.903 10.128,6.97 10.148,7.039L10.251,7.006C10.36,6.972 10.449,6.972 10.49,6.971C10.553,6.968 10.617,6.988 10.67,7.013C11.069,6.839 11.481,6.723 11.843,6.69C12.534,6.627 13.065,6.783 13.065,6.783C13.104,6.794 13.132,6.827 13.139,6.867C13.139,6.867 13.259,7.635 13.032,8.359C12.697,9.423 12.239,9.993 10.997,10.836C10.643,11.076 10.213,11.327 9.809,11.55L9.828,11.616L9.746,11.723C9.739,11.691 9.733,11.664 9.727,11.644L9.686,11.498C10.108,11.268 10.566,11.003 10.939,10.75C12.154,9.925 12.605,9.369 12.932,8.327C13.152,7.627 13.036,6.883 13.036,6.883C13.036,6.883 12.521,6.733 11.853,6.794C11.487,6.827 11.069,6.949 10.666,7.129C10.62,7.101 10.557,7.072 10.494,7.075C10.457,7.076 10.379,7.075 10.282,7.105C10.211,7.127 10.137,7.153 10.074,7.174C10.057,7.081 10.021,6.973 9.982,6.896C9.913,6.762 9.774,6.627 9.681,6.525C9.588,6.424 9.488,6.266 9.324,6.016C9.233,5.878 9.132,5.668 9.038,5.454C9.072,5.422 9.137,5.362 9.196,5.303C9.282,5.218 9.409,5.054 9.45,4.972C9.49,4.89 9.518,4.784 9.499,4.739C9.479,4.694 9.441,4.632 9.338,4.616C9.235,4.6 9.141,4.71 9.041,4.833C8.975,4.915 8.916,5.018 8.883,5.079C8.819,4.916 8.768,4.778 8.74,4.701C8.694,4.574 8.679,4.502 8.65,4.403C8.849,4.175 8.781,3.906 8.669,3.728C8.591,3.605 8.416,3.5 8.232,3.496C8.197,3.453 8.157,3.415 8.112,3.383L8.109,3.381C8.136,3.319 8.176,3.21 8.189,3.089C8.211,2.887 8.093,2.768 7.99,2.713C7.886,2.658 7.584,2.554 7.42,2.762C7.314,2.897 7.292,3.003 7.29,3.061C7.131,3.038 6.939,3.029 6.696,3.064C6.387,3.109 6.019,3.227 5.661,3.514C5.612,3.553 5.567,3.592 5.526,3.631L5.489,3.623C5.38,3.606 5.287,3.615 5.161,3.689C5.036,3.764 4.95,3.938 4.938,4.043C4.926,4.145 4.917,4.364 5.128,4.486L5.127,4.531C5.122,4.934 5.124,4.922 5.208,5.267C5.291,5.612 5.483,6.023 5.648,6.342C5.717,6.474 5.807,6.64 5.911,6.817C5.981,6.938 6.073,7.05 6.154,7.173C6.239,7.303 6.338,7.467 6.411,7.567L6.645,7.884C6.655,7.898 6.666,7.912 6.676,7.926L6.645,7.988C6.668,7.988 6.69,7.98 6.707,7.967C6.779,8.062 6.851,8.156 6.922,8.26C7.022,8.403 7.113,8.562 7.229,8.701C7.395,8.902 7.601,9.135 7.83,9.282C7.952,9.36 8.09,9.416 8.236,9.437L8.061,9.681C8,9.644 7.922,9.606 7.842,9.581C7.404,9.446 7.018,9.485 6.648,9.786C6.462,9.938 6.269,10.217 6.168,10.393C6.102,10.509 6.083,10.558 6.107,10.574C6.149,10.604 6.35,10.454 6.772,10.448C7.033,10.444 7.27,10.584 7.381,10.661L7.26,10.842L7.334,10.907C7.334,10.907 7.007,10.98 6.784,11.19C6.647,11.318 6.473,11.555 6.442,11.892C6.41,12.256 6.435,12.765 6.435,12.765C6.435,12.765 6.868,12.9 7.295,12.885C7.534,12.876 7.739,12.818 7.941,12.67C8.314,12.395 8.419,12.121 8.419,12.121C8.419,12.121 8.098,11.678 7.922,11.479C7.749,11.284 7.334,10.907 7.334,10.907C7.465,11.025 7.742,11.277 7.886,11.436C8.082,11.652 8.438,12.141 8.438,12.141L8.632,12.046C8.676,12.115 8.734,12.215 8.751,12.277C8.78,12.382 8.819,12.599 8.781,12.815C8.743,13.031 8.663,13.193 8.637,13.242C8.61,13.29 8.581,13.332 8.598,13.351C8.616,13.369 8.671,13.342 8.796,13.291C8.921,13.24 9.286,13.061 9.499,12.816C9.711,12.57 9.764,12.356 9.784,12.169C9.798,12.033 9.774,11.862 9.751,11.746C9.774,11.74 9.795,11.727 9.81,11.707C9.83,11.681 9.836,11.648 9.828,11.616Z"/><g transform="matrix(0.162619,-0.0727706,0.062037,0.138633,2.32259,7.91034)"><path d="M6.475,5.725L7.187,7.508L8.723,8.336L7.187,9.163L6.475,10.946L5.762,9.163L4.226,8.336L5.762,7.508L6.475,5.725Z" style="fill:white;"/></g><g transform="matrix(0.107888,0.0454765,-0.0395463,0.0938191,5.70292,8.0823)"><path d="M6.475,5.725L7.187,7.508L8.723,8.336L7.187,9.163L6.475,10.946L5.762,9.163L4.226,8.336L5.762,7.508L6.475,5.725Z" style="fill:white;"/></g><g transform="matrix(0.0675936,-4.2629e-18,-2.51081e-18,0.0557857,4.5013,11.796)"><path d="M6.475,5.725L7.187,7.508L8.723,8.336L7.187,9.163L6.475,10.946L5.762,9.163L4.226,8.336L5.762,7.508L6.475,5.725Z" style="fill:white;"/></g><g transform="matrix(0.112767,-0.0295668,0.0238464,0.0909488,12.1278,11.4664)"><path d="M6.475,5.725L7.187,7.508L8.723,8.336L7.187,9.163L6.475,10.946L5.762,9.163L4.226,8.336L5.762,7.508L6.475,5.725Z" style="fill:white;"/></g><g transform="matrix(0.0640933,0,0,0.0538427,11.5765,3.56202)"><path d="M6.475,5.725L7.187,7.508L8.723,8.336L7.187,9.163L6.475,10.946L5.762,9.163L4.226,8.336L5.762,7.508L6.475,5.725Z" style="fill:white;"/></g><g transform="matrix(0.0984233,0.0395863,-0.0351346,0.0873549,11.9986,3.82996)"><path d="M6.475,5.725L7.187,7.508L8.723,8.336L7.187,9.163L6.475,10.946L5.762,9.163L4.226,8.336L5.762,7.508L6.475,5.725Z" style="fill:white;"/></g><g transform="matrix(0.0561612,0.0225883,-0.0199726,0.0496578,13.8874,3.58971)"><path d="M6.475,5.725L7.187,7.508L8.723,8.336L7.187,9.163L6.475,10.946L5.762,9.163L4.226,8.336L5.762,7.508L6.475,5.725Z" style="fill:white;"/></g><path d="M7.334,10.907C7.334,10.907 7.749,11.284 7.922,11.479C8.098,11.678 8.419,12.121 8.419,12.121C8.419,12.121 8.314,12.395 7.941,12.67C7.739,12.818 7.534,12.876 7.295,12.885C6.868,12.9 6.435,12.765 6.435,12.765C6.435,12.765 6.41,12.256 6.442,11.892C6.473,11.555 6.647,11.318 6.784,11.19C7.007,10.98 7.334,10.907 7.334,10.907Z" style="fill:rgb(249,189,85);stroke:black;stroke-width:0.02px;"/><path d="M7.641,11.194C7.539,11.211 7.351,11.256 7.236,11.373C7.176,11.433 7.106,11.529 7.085,11.662C7.051,11.88 7.061,12.203 7.061,12.203C7.061,12.203 7.282,12.264 7.508,12.259C7.624,12.256 7.76,12.227 7.849,12.164C8.01,12.051 8.114,11.895 8.172,11.789C8.085,11.676 7.992,11.558 7.922,11.479C7.853,11.401 7.745,11.294 7.641,11.194Z" style="fill:rgb(255,225,100);"/><path d="M7.334,10.907C7.334,10.907 7.749,11.284 7.922,11.479C8.098,11.678 8.419,12.121 8.419,12.121C8.419,12.121 8.314,12.395 7.941,12.67C7.739,12.818 7.534,12.876 7.295,12.885C6.868,12.9 6.435,12.765 6.435,12.765C6.435,12.765 6.41,12.256 6.442,11.892C6.473,11.555 6.647,11.318 6.784,11.19C7.007,10.98 7.334,10.907 7.334,10.907Z" style="fill:none;stroke:black;stroke-width:0.02px;"/><path d="M7.381,10.661C7.27,10.584 7.033,10.444 6.772,10.448C6.35,10.454 6.149,10.604 6.107,10.574C6.083,10.558 6.102,10.509 6.168,10.393C6.269,10.217 6.462,9.938 6.648,9.786C7.018,9.485 7.404,9.446 7.842,9.581C7.922,9.606 8,9.644 8.061,9.681C7.77,10.088 7.521,10.454 7.381,10.661Z" style="fill:rgb(224,45,69);"/><path d="M7.357,10.695C7.251,10.621 7.024,10.486 6.773,10.489C6.441,10.494 6.248,10.59 6.163,10.613C6.124,10.624 6.098,10.619 6.083,10.609L6.07,10.596L6.06,10.58L6.056,10.563L6.055,10.547C6.057,10.517 6.081,10.462 6.132,10.373C6.235,10.193 6.432,9.908 6.622,9.754C7.003,9.443 7.402,9.402 7.854,9.541C7.938,9.567 8.019,9.607 8.082,9.646C8.092,9.652 8.099,9.662 8.102,9.673C8.104,9.684 8.101,9.696 8.095,9.706C7.804,10.112 7.556,10.477 7.416,10.685C7.41,10.694 7.4,10.7 7.389,10.702C7.378,10.704 7.367,10.702 7.357,10.695ZM7.381,10.661C7.521,10.454 7.77,10.088 8.061,9.681C8,9.644 7.922,9.606 7.842,9.581C7.404,9.446 7.018,9.485 6.648,9.786C6.462,9.938 6.269,10.217 6.168,10.393C6.102,10.509 6.083,10.558 6.107,10.574C6.149,10.604 6.35,10.454 6.772,10.448C7.033,10.444 7.27,10.584 7.381,10.661Z"/><path d="M8.632,12.046C8.676,12.115 8.734,12.215 8.751,12.277C8.78,12.382 8.819,12.599 8.781,12.815C8.743,13.031 8.663,13.193 8.637,13.242C8.61,13.29 8.581,13.332 8.598,13.351C8.616,13.369 8.671,13.342 8.796,13.291C8.921,13.24 9.286,13.061 9.499,12.816C9.711,12.57 9.764,12.356 9.784,12.169C9.804,11.982 9.752,11.732 9.727,11.644L9.686,11.498C9.252,11.735 8.857,11.935 8.632,12.046Z" style="fill:rgb(224,45,69);"/><path d="M9.767,11.633C9.792,11.723 9.846,11.981 9.825,12.174C9.805,12.367 9.75,12.588 9.53,12.843C9.313,13.094 8.939,13.277 8.811,13.329C8.719,13.367 8.663,13.392 8.632,13.397C8.616,13.399 8.604,13.398 8.595,13.395L8.581,13.389L8.568,13.379L8.559,13.368L8.554,13.355L8.551,13.34L8.553,13.32C8.558,13.295 8.579,13.26 8.6,13.222C8.626,13.175 8.703,13.017 8.74,12.808C8.776,12.599 8.739,12.389 8.711,12.288C8.695,12.228 8.639,12.134 8.597,12.069C8.591,12.059 8.589,12.046 8.592,12.035C8.595,12.024 8.603,12.014 8.614,12.009C8.838,11.898 9.233,11.698 9.666,11.461C9.65,11.471 9.641,11.49 9.646,11.509L9.655,11.515C9.233,11.745 8.851,11.938 8.632,12.046C8.676,12.115 8.734,12.215 8.751,12.277C8.78,12.382 8.819,12.599 8.781,12.815C8.743,13.031 8.663,13.193 8.637,13.242C8.61,13.29 8.581,13.332 8.598,13.351C8.616,13.369 8.671,13.342 8.796,13.291C8.921,13.24 9.286,13.061 9.499,12.816C9.711,12.57 9.764,12.356 9.784,12.169C9.801,12.006 9.764,11.794 9.738,11.685C9.747,11.683 9.755,11.677 9.76,11.67C9.768,11.659 9.771,11.646 9.767,11.633ZM9.695,11.529L9.726,11.487L9.767,11.633L9.735,11.675C9.732,11.664 9.73,11.653 9.727,11.644L9.695,11.529Z"/><path d="M8.438,12.141C8.438,12.141 8.082,11.652 7.886,11.436C7.693,11.223 7.26,10.842 7.26,10.842C7.26,10.842 8.57,8.86 9.379,8C9.957,7.385 11.036,6.867 11.853,6.794C12.521,6.733 13.036,6.883 13.036,6.883C13.036,6.883 13.152,7.627 12.932,8.327C12.605,9.369 12.154,9.925 10.939,10.75C9.975,11.404 8.438,12.141 8.438,12.141Z" style="fill:rgb(222,222,222);"/><path d="M7.894,9.916C8.061,10.037 8.451,10.332 8.777,10.682C9.035,10.96 9.306,11.403 9.439,11.632C9.522,11.587 9.608,11.541 9.696,11.493C9.56,11.264 9.257,10.779 8.976,10.488C8.612,10.113 8.218,9.81 8.055,9.689C8,9.767 7.946,9.843 7.894,9.916Z" style="fill:rgb(224,45,69);"/><path d="M7.761,11.306L8.621,10.492C8.698,10.419 8.867,10.383 8.975,10.504C9.085,10.629 9.036,10.791 8.954,10.857L8.027,11.602C7.976,11.539 7.927,11.482 7.886,11.436C7.851,11.397 7.808,11.353 7.761,11.306Z" style="fill:rgb(224,45,69);"/><path d="M7.761,11.306L8.621,10.492C8.698,10.419 8.867,10.383 8.975,10.504C9.085,10.629 9.036,10.791 8.954,10.857L8.027,11.602C7.976,11.539 7.927,11.482 7.886,11.436C7.851,11.397 7.808,11.353 7.761,11.306Z" style="fill:none;stroke:black;stroke-width:0.04px;"/><path d="M8.438,12.141C8.438,12.141 8.082,11.652 7.886,11.436C7.693,11.223 7.26,10.842 7.26,10.842C7.26,10.842 8.57,8.86 9.379,8C9.957,7.385 11.036,6.867 11.853,6.794C12.521,6.733 13.036,6.883 13.036,6.883C13.036,6.883 13.152,7.627 12.932,8.327C12.605,9.369 12.154,9.925 10.939,10.75C9.975,11.404 8.438,12.141 8.438,12.141Z" style="fill:none;stroke:black;stroke-width:0.04px;"/><g transform="matrix(1.15352,0,0,1.13928,-1.91847,-1.01269)"><ellipse cx="11.753" cy="8.03" rx="0.663" ry="0.672" style="fill:rgb(53,53,53);"/></g><g transform="matrix(0.965038,0,0,0.952712,0.296868,0.485559)"><ellipse cx="11.753" cy="8.03" rx="0.663" ry="0.672" style="fill:rgb(207,231,255);"/></g><g transform="matrix(1,0,0,1,-0.00544528,0.000992381)"><ellipse cx="11.608" cy="7.429" rx="0.031" ry="0.032" style="fill:rgb(222,222,222);"/></g><g transform="matrix(1,0,0,1,0.327544,0.0646476)"><ellipse cx="11.608" cy="7.429" rx="0.031" ry="0.032" style="fill:rgb(222,222,222);"/></g><g transform="matrix(1,0,0,1,0.590277,0.276563)"><ellipse cx="11.608" cy="7.429" rx="0.031" ry="0.032" style="fill:rgb(222,222,222);"/></g><g transform="matrix(1,0,0,1,0.725694,0.583747)"><ellipse cx="11.608" cy="7.429" rx="0.031" ry="0.032" style="fill:rgb(222,222,222);"/></g><g transform="matrix(1,0,0,1,0.700951,0.921522)"><ellipse cx="11.608" cy="7.429" rx="0.031" ry="0.032" style="fill:rgb(222,222,222);"/></g><g transform="matrix(1,0,0,1,0.527516,1.20921)"><ellipse cx="11.608" cy="7.429" rx="0.031" ry="0.032" style="fill:rgb(222,222,222);"/></g><g transform="matrix(1,0,0,1,0.236207,1.38077)"><ellipse cx="11.608" cy="7.429" rx="0.031" ry="0.032" style="fill:rgb(222,222,222);"/></g><g transform="matrix(1,0,0,1,-0.102524,1.39479)"><ellipse cx="11.608" cy="7.429" rx="0.031" ry="0.032" style="fill:rgb(222,222,222);"/></g><g transform="matrix(1,0,0,1,-0.409666,1.25233)"><ellipse cx="11.608" cy="7.429" rx="0.031" ry="0.032" style="fill:rgb(222,222,222);"/></g><g transform="matrix(1,0,0,1,-0.614517,0.984239)"><ellipse cx="11.608" cy="7.429" rx="0.031" ry="0.032" style="fill:rgb(222,222,222);"/></g><g transform="matrix(1,0,0,1,-0.672553,0.654264)"><ellipse cx="11.608" cy="7.429" rx="0.031" ry="0.032" style="fill:rgb(222,222,222);"/></g><g transform="matrix(1,0,0,1,-0.566283,0.332566)"><ellipse cx="11.608" cy="7.429" rx="0.031" ry="0.032" style="fill:rgb(222,222,222);"/></g><g transform="matrix(1,0,0,1,-0.325965,0.0968887)"><ellipse cx="11.608" cy="7.429" rx="0.031" ry="0.032" style="fill:rgb(222,222,222);"/></g><path d="M8.864,9.292C8.865,9.313 8.866,9.339 8.866,9.356C8.865,9.388 8.926,9.54 8.956,9.635C8.986,9.73 9.029,9.867 9.023,9.956C9.017,10.046 9.002,10.071 8.955,10.106C8.908,10.142 8.876,10.13 8.876,10.13C8.876,10.13 8.887,10.154 8.877,10.159C8.867,10.165 8.854,10.165 8.814,10.166C8.774,10.167 8.685,10.149 8.619,10.069C8.567,10.005 8.52,9.878 8.502,9.752C8.498,9.724 8.495,9.696 8.492,9.669C8.493,9.59 8.493,9.498 8.493,9.436C8.631,9.415 8.753,9.363 8.864,9.292Z" style="fill:rgb(247,216,170);"/><path d="M8.902,10.153L8.9,10.162L8.897,10.168L8.893,10.173L8.888,10.177C8.876,10.184 8.861,10.186 8.815,10.187C8.771,10.188 8.674,10.169 8.603,10.082C8.549,10.016 8.5,9.886 8.482,9.755L8.472,9.671L8.471,9.669L8.473,9.436C8.473,9.426 8.48,9.417 8.49,9.416C8.625,9.395 8.744,9.344 8.853,9.275C8.859,9.271 8.867,9.27 8.874,9.274C8.88,9.277 8.885,9.284 8.885,9.291L8.886,9.357C8.886,9.365 8.892,9.383 8.899,9.406C8.919,9.468 8.955,9.562 8.976,9.629C9.006,9.726 9.05,9.866 9.043,9.958C9.037,10.056 9.019,10.084 8.968,10.123C8.942,10.143 8.919,10.15 8.902,10.153ZM8.878,10.136L8.879,10.131C8.888,10.133 8.917,10.135 8.955,10.106C9.002,10.071 9.017,10.046 9.023,9.956C9.029,9.867 8.986,9.73 8.956,9.635C8.926,9.54 8.865,9.388 8.866,9.356L8.864,9.292C8.753,9.363 8.631,9.415 8.493,9.436L8.492,9.669L8.502,9.752C8.52,9.878 8.567,10.005 8.619,10.069C8.685,10.149 8.774,10.167 8.814,10.166C8.854,10.165 8.867,10.165 8.877,10.159C8.884,10.155 8.881,10.143 8.878,10.136Z"/><path d="M8.721,9.875C8.721,9.875 8.725,9.997 8.766,10.055C8.814,10.122 8.891,10.141 8.891,10.141" style="fill:none;stroke:black;stroke-width:0.02px;"/><path d="M10.083,7.438C10.087,7.361 10.087,7.293 10.085,7.252C10.083,7.228 10.079,7.202 10.074,7.174C10.137,7.153 10.211,7.127 10.282,7.105C10.379,7.075 10.457,7.076 10.494,7.075C10.557,7.072 10.62,7.101 10.666,7.129C10.465,7.218 10.268,7.323 10.083,7.438Z" style="fill:rgb(247,216,170);"/><path d="M10.066,7.437C10.07,7.361 10.07,7.294 10.068,7.253C10.066,7.23 10.063,7.204 10.058,7.177C10.056,7.169 10.061,7.161 10.069,7.159C10.131,7.137 10.206,7.111 10.277,7.089C10.376,7.058 10.456,7.06 10.493,7.058C10.559,7.056 10.626,7.085 10.675,7.114C10.68,7.117 10.683,7.123 10.683,7.13C10.682,7.136 10.679,7.141 10.673,7.144C10.472,7.233 10.276,7.337 10.092,7.452C10.087,7.455 10.08,7.455 10.075,7.452C10.069,7.449 10.066,7.443 10.066,7.437ZM10.083,7.438C10.268,7.323 10.465,7.218 10.666,7.129C10.62,7.101 10.557,7.072 10.494,7.075C10.457,7.076 10.379,7.075 10.282,7.105C10.211,7.127 10.137,7.153 10.074,7.174C10.079,7.202 10.083,7.228 10.085,7.252C10.087,7.293 10.087,7.361 10.083,7.438Z"/><path d="M8.883,5.079C8.916,5.018 8.975,4.915 9.041,4.833C9.141,4.71 9.235,4.6 9.338,4.616C9.441,4.632 9.479,4.694 9.499,4.739C9.518,4.784 9.49,4.89 9.45,4.972C9.409,5.054 9.282,5.218 9.196,5.303C9.137,5.362 9.072,5.422 9.038,5.454C8.982,5.326 8.929,5.196 8.883,5.079Z" style="fill:rgb(247,216,170);"/><path d="M8.868,5.071C8.901,5.01 8.961,4.906 9.028,4.823C9.089,4.747 9.148,4.677 9.208,4.636C9.251,4.607 9.295,4.593 9.34,4.6C9.451,4.617 9.493,4.684 9.514,4.732C9.523,4.753 9.524,4.784 9.518,4.82C9.51,4.869 9.489,4.929 9.465,4.979C9.424,5.062 9.295,5.229 9.208,5.315C9.149,5.374 9.084,5.435 9.049,5.466C9.045,5.47 9.04,5.471 9.035,5.47C9.029,5.469 9.025,5.465 9.023,5.461C8.967,5.332 8.914,5.202 8.868,5.085C8.866,5.081 8.866,5.075 8.868,5.071ZM8.883,5.079C8.929,5.196 8.982,5.326 9.038,5.454C9.072,5.422 9.137,5.362 9.196,5.303C9.282,5.218 9.409,5.054 9.45,4.972C9.49,4.89 9.518,4.784 9.499,4.739C9.479,4.694 9.441,4.632 9.338,4.616C9.235,4.6 9.141,4.71 9.041,4.833C8.975,4.915 8.916,5.018 8.883,5.079Z"/><path d="M7.29,3.061C7.292,3.003 7.314,2.897 7.42,2.762C7.584,2.554 7.886,2.658 7.99,2.713C8.093,2.768 8.211,2.887 8.189,3.089C8.176,3.21 8.136,3.319 8.109,3.381C7.893,3.227 7.645,3.128 7.418,3.083C7.378,3.075 7.335,3.068 7.29,3.061Z" style="fill:rgb(79,208,252);"/><path d="M7.274,3.061C7.276,3.001 7.298,2.891 7.407,2.752C7.493,2.643 7.614,2.615 7.728,2.622C7.84,2.629 7.944,2.67 7.997,2.698C8.105,2.756 8.228,2.88 8.205,3.091C8.192,3.214 8.151,3.325 8.125,3.388C8.123,3.392 8.119,3.396 8.114,3.397C8.109,3.398 8.104,3.398 8.1,3.395C7.885,3.242 7.64,3.144 7.415,3.1C7.375,3.092 7.332,3.084 7.288,3.078C7.279,3.077 7.273,3.069 7.274,3.061ZM7.29,3.061C7.335,3.068 7.378,3.075 7.418,3.083C7.645,3.128 7.893,3.227 8.109,3.381C8.136,3.319 8.176,3.21 8.189,3.089C8.211,2.887 8.093,2.768 7.99,2.713C7.886,2.658 7.584,2.554 7.42,2.762C7.314,2.897 7.292,3.003 7.29,3.061Z"/><path d="M7.513,3.105C7.519,3.08 7.53,3.046 7.551,3.007C7.598,2.918 7.755,2.86 7.857,2.943C7.96,3.027 7.98,3.104 7.952,3.198C7.944,3.225 7.933,3.247 7.922,3.265C7.788,3.193 7.648,3.14 7.513,3.105Z"/><path d="M7.418,3.083C7.646,3.128 7.895,3.228 8.112,3.383C8.307,3.522 8.392,3.763 8.534,4.094C8.676,4.424 8.659,4.476 8.74,4.701C8.821,4.926 9.103,5.68 9.324,6.016C9.488,6.266 9.588,6.424 9.681,6.525C9.774,6.627 9.913,6.762 9.982,6.896C10.033,6.996 10.078,7.147 10.085,7.252C10.091,7.358 10.08,7.646 10.031,7.793C9.991,7.914 9.856,8.206 9.672,8.444C9.598,8.539 9.483,8.679 9.416,8.757C9.324,8.865 9.254,8.96 9.187,9.026C8.964,9.246 8.704,9.45 8.354,9.446C8.163,9.444 7.984,9.381 7.83,9.282C7.601,9.135 7.395,8.902 7.229,8.701C7.113,8.562 7.022,8.403 6.922,8.26C6.83,8.126 6.737,8.008 6.645,7.884C6.581,7.797 6.482,7.663 6.411,7.567C6.338,7.467 6.239,7.303 6.154,7.173C6.073,7.05 5.981,6.938 5.911,6.817C5.807,6.64 5.717,6.474 5.648,6.342C5.483,6.023 5.291,5.612 5.208,5.267C5.124,4.922 5.122,4.934 5.127,4.531C5.133,4.128 5.26,3.836 5.661,3.514C6.019,3.227 6.387,3.109 6.696,3.064C7.007,3.02 7.234,3.047 7.418,3.083Z" style="fill:rgb(79,208,252);"/><path d="M7.422,3.063C7.653,3.108 7.904,3.209 8.124,3.366C8.322,3.507 8.41,3.751 8.553,4.086C8.695,4.417 8.678,4.469 8.76,4.694C8.841,4.918 9.121,5.67 9.341,6.005C9.505,6.253 9.604,6.41 9.697,6.511C9.791,6.614 9.931,6.751 10,6.887C10.052,6.989 10.098,7.143 10.105,7.251C10.112,7.358 10.1,7.651 10.05,7.8C10.01,7.921 9.874,8.216 9.688,8.457C9.615,8.552 9.499,8.693 9.432,8.771C9.339,8.879 9.269,8.974 9.202,9.04C8.975,9.264 8.71,9.471 8.354,9.467C8.159,9.465 7.976,9.401 7.819,9.3C7.588,9.151 7.38,8.917 7.212,8.714C7.097,8.574 7.005,8.415 6.905,8.272C6.813,8.138 6.72,8.02 6.628,7.896L6.395,7.579C6.321,7.479 6.222,7.315 6.136,7.184C6.056,7.061 5.963,6.948 5.893,6.828C5.789,6.65 5.699,6.484 5.63,6.351C5.463,6.031 5.271,5.619 5.187,5.272C5.103,4.925 5.101,4.937 5.106,4.531C5.112,4.121 5.241,3.825 5.648,3.497C6.009,3.208 6.381,3.089 6.693,3.044C7.007,2.999 7.237,3.026 7.422,3.063ZM7.418,3.083C7.234,3.047 7.007,3.02 6.696,3.064C6.387,3.109 6.019,3.227 5.661,3.514C5.26,3.836 5.133,4.128 5.127,4.531C5.122,4.934 5.124,4.922 5.208,5.267C5.291,5.612 5.483,6.023 5.648,6.342C5.717,6.474 5.807,6.64 5.911,6.817C5.981,6.938 6.073,7.05 6.154,7.173C6.239,7.303 6.338,7.467 6.411,7.567L6.645,7.884C6.737,8.008 6.83,8.126 6.922,8.26C7.022,8.403 7.113,8.562 7.229,8.701C7.395,8.902 7.601,9.135 7.83,9.282C7.984,9.381 8.163,9.444 8.354,9.446C8.704,9.45 8.964,9.246 9.187,9.026C9.254,8.96 9.324,8.865 9.416,8.757C9.483,8.679 9.598,8.539 9.672,8.444C9.856,8.206 9.991,7.914 10.031,7.793C10.08,7.646 10.091,7.358 10.085,7.252C10.078,7.147 10.033,6.996 9.982,6.896C9.913,6.762 9.774,6.627 9.681,6.525C9.588,6.424 9.488,6.266 9.324,6.016C9.103,5.68 8.821,4.926 8.74,4.701C8.659,4.476 8.676,4.424 8.534,4.094C8.392,3.763 8.307,3.522 8.112,3.383C7.895,3.228 7.646,3.128 7.418,3.083Z"/><path d="M5.452,4.583C5.452,4.583 5.368,4.614 5.142,4.494C4.916,4.373 4.926,4.147 4.938,4.043C4.95,3.938 5.036,3.764 5.161,3.689C5.287,3.615 5.38,3.606 5.489,3.623C5.598,3.641 5.745,3.732 5.745,3.732" style="fill:rgb(79,208,252);stroke:black;stroke-width:0.02px;"/><path d="M5.495,4.409C5.495,4.409 5.207,4.367 5.249,4.111C5.285,3.891 5.489,3.874 5.555,3.895C5.621,3.915 5.665,3.946 5.665,3.946C5.665,3.946 5.595,4.045 5.553,4.163C5.511,4.281 5.495,4.409 5.495,4.409Z"/><path d="M7.92,3.608C7.62,3.869 7.691,4.191 7.842,4.381C8.01,4.594 8.31,4.708 8.585,4.468C8.861,4.227 8.792,3.923 8.669,3.728C8.546,3.533 8.177,3.384 7.92,3.608Z" style="fill:white;"/><path d="M7.909,3.595C8.175,3.364 8.556,3.518 8.683,3.719C8.809,3.92 8.88,4.233 8.596,4.48C8.483,4.58 8.365,4.62 8.253,4.619C8.086,4.618 7.933,4.523 7.829,4.392C7.674,4.196 7.6,3.864 7.909,3.595ZM7.92,3.608C7.62,3.869 7.691,4.191 7.842,4.381C8.01,4.594 8.31,4.708 8.585,4.468C8.861,4.227 8.792,3.923 8.669,3.728C8.546,3.533 8.177,3.384 7.92,3.608Z"/><path d="M8.09,4.184C8.142,4.253 8.246,4.241 8.295,4.193C8.329,4.161 8.346,4.105 8.316,4.039C8.279,3.956 8.16,3.958 8.116,3.997C8.063,4.045 8.045,4.125 8.09,4.184Z"/><path d="M6.728,4.181C7.089,4.179 7.341,4.523 7.35,4.824C7.357,5.048 7.188,5.424 6.782,5.426C6.354,5.428 6.171,5.06 6.17,4.777C6.169,4.497 6.368,4.183 6.728,4.181Z" style="fill:white;"/><path d="M6.728,4.16C7.1,4.159 7.361,4.513 7.371,4.824C7.378,5.055 7.203,5.445 6.782,5.447C6.34,5.449 6.15,5.07 6.149,4.777C6.148,4.487 6.355,4.162 6.728,4.16ZM6.728,4.181C6.368,4.183 6.169,4.497 6.17,4.777C6.171,5.06 6.354,5.428 6.782,5.426C7.188,5.424 7.357,5.048 7.35,4.824C7.341,4.523 7.089,4.179 6.728,4.181Z"/><path d="M6.523,4.934C6.524,4.854 6.584,4.81 6.648,4.809C6.713,4.808 6.784,4.846 6.784,4.945C6.785,5.044 6.699,5.079 6.647,5.077C6.594,5.075 6.522,5.014 6.523,4.934Z"/><path d="M7.701,5.245C7.733,5.293 7.782,5.367 7.808,5.402C7.85,5.455 7.884,5.484 7.958,5.441C8.03,5.4 7.98,5.293 7.957,5.238C7.94,5.197 7.889,5.119 7.865,5.083C7.765,5.161 7.779,5.198 7.701,5.245Z" style="fill:white;"/><path d="M7.69,5.227C7.726,5.205 7.741,5.186 7.758,5.163C7.778,5.137 7.8,5.107 7.852,5.066C7.856,5.063 7.862,5.061 7.868,5.062C7.874,5.063 7.879,5.066 7.882,5.071C7.907,5.108 7.958,5.188 7.976,5.23C7.991,5.265 8.015,5.32 8.016,5.367C8.017,5.405 8.004,5.439 7.968,5.46C7.933,5.48 7.906,5.485 7.882,5.482C7.848,5.477 7.821,5.451 7.792,5.414C7.765,5.38 7.715,5.305 7.684,5.256C7.681,5.251 7.68,5.245 7.681,5.24C7.682,5.234 7.686,5.23 7.69,5.227ZM7.701,5.245C7.733,5.293 7.782,5.367 7.808,5.402C7.85,5.455 7.884,5.484 7.958,5.441C8.03,5.4 7.98,5.293 7.957,5.238C7.94,5.197 7.889,5.119 7.865,5.083C7.765,5.161 7.779,5.198 7.701,5.245Z"/><path d="M8.084,4.991C8.111,5.032 8.188,5.154 8.203,5.191C8.229,5.255 8.205,5.322 8.123,5.334C8.09,5.339 8.05,5.318 8.031,5.294C7.975,5.224 7.907,5.12 7.877,5.073C7.96,5.011 8.018,5.018 8.084,4.991Z" style="fill:white;"/><path d="M8.101,4.979C8.129,5.022 8.207,5.145 8.222,5.184C8.238,5.222 8.238,5.26 8.222,5.292C8.207,5.323 8.175,5.348 8.126,5.355C8.086,5.361 8.038,5.336 8.015,5.307C7.958,5.236 7.89,5.131 7.859,5.084C7.853,5.075 7.856,5.063 7.864,5.056C7.95,4.993 8.008,4.999 8.076,4.971C8.085,4.967 8.096,4.971 8.101,4.979ZM8.084,4.991C8.018,5.018 7.96,5.011 7.877,5.073C7.907,5.12 7.975,5.224 8.031,5.294C8.05,5.318 8.09,5.339 8.123,5.334C8.205,5.322 8.229,5.255 8.203,5.191C8.188,5.154 8.111,5.032 8.084,4.991Z"/><path d="M8.157,4.807C8.207,4.865 8.183,4.924 8.162,4.942C8.056,5.033 7.99,4.987 7.874,5.075C7.758,5.164 7.784,5.201 7.685,5.253C7.6,5.299 7.493,5.266 7.493,5.183C7.493,5.099 7.571,4.955 7.731,4.852C7.928,4.725 8.099,4.74 8.157,4.807Z" style="fill:rgb(247,216,170);"/><path d="M8.173,4.794C8.233,4.864 8.201,4.936 8.175,4.958C8.119,5.006 8.074,5.018 8.027,5.03C7.985,5.04 7.941,5.05 7.886,5.092C7.831,5.134 7.809,5.165 7.79,5.19C7.768,5.219 7.748,5.244 7.695,5.272C7.637,5.303 7.57,5.301 7.525,5.274C7.493,5.255 7.472,5.224 7.472,5.183C7.472,5.095 7.552,4.942 7.72,4.834C7.843,4.755 7.957,4.73 8.041,4.737C8.101,4.742 8.147,4.764 8.173,4.794ZM8.157,4.807C8.099,4.74 7.928,4.725 7.731,4.852C7.571,4.955 7.493,5.099 7.493,5.183C7.493,5.266 7.6,5.299 7.685,5.253C7.784,5.201 7.758,5.164 7.874,5.075C7.99,4.987 8.056,5.033 8.162,4.942C8.183,4.924 8.207,4.865 8.157,4.807Z"/><path d="M7.62,4.964C7.655,4.995 7.727,4.979 7.798,4.932C7.87,4.885 7.9,4.839 7.864,4.785C7.829,4.73 7.744,4.762 7.682,4.8C7.621,4.838 7.585,4.932 7.62,4.964Z"/><path d="M7.023,6.834C7.023,6.834 6.984,6.993 6.975,7.268C6.966,7.548 6.991,7.723 7.163,7.765C7.336,7.808 7.399,7.516 7.416,7.38C7.432,7.243 7.42,6.826 7.42,6.826C7.42,6.826 7.366,6.838 7.218,6.836C7.07,6.835 7.023,6.834 7.023,6.834Z" style="fill:rgb(247,216,170);"/><path d="M7.42,6.847L7.441,6.825L7.441,6.828C7.442,6.846 7.444,6.942 7.445,7.051C7.446,7.174 7.445,7.313 7.436,7.382C7.426,7.466 7.398,7.608 7.339,7.698C7.296,7.765 7.237,7.805 7.158,7.786C7.064,7.762 7.01,7.704 6.981,7.612C6.954,7.526 6.95,7.41 6.954,7.267C6.963,7.018 6.995,6.863 7.001,6.834L7.002,6.829L7.019,6.851C7.009,6.898 6.983,7.045 6.975,7.268C6.966,7.548 6.991,7.723 7.163,7.765C7.336,7.808 7.399,7.516 7.416,7.38C7.43,7.261 7.423,6.933 7.42,6.847ZM7.023,6.834L7.024,6.813L7.218,6.815C7.349,6.817 7.405,6.808 7.415,6.806L7.418,6.826C7.406,6.829 7.348,6.838 7.218,6.836L7.023,6.834Z"/><path d="M7.421,6.815L7.456,6.81" style="fill:none;stroke:black;stroke-width:0.02px;"/><path d="M6.984,6.814C6.984,6.814 6.992,6.817 7.001,6.819C7.01,6.822 7.021,6.823 7.021,6.823" style="fill:none;stroke:black;stroke-width:0.02px;"/></g></svg>