<svg width="100%" height="100%" viewBox="0 0 18 16" version="1.1" xmlns="http://www.w3.org/2000/svg" xmlns:xlink="http://www.w3.org/1999/xlink" xml:space="preserve" style="fill-rule:evenodd;clip-rule:evenodd;stroke-linejoin:round;stroke-miterlimit:2;"><g id="gradle" transform="matrix(0.383496,0,0,0.383496,-9.1099,1.24624)"><g id="gradle1"><path id="gradle2" d="M63.492,5.902C61.3,3.709 57.715,3.647 55.449,5.763C55.339,5.866 55.275,6.009 55.272,6.159C55.272,6.309 55.331,6.453 55.436,6.56L56.157,7.306C56.35,7.498 56.659,7.52 56.878,7.356C57.449,6.925 58.147,6.692 58.863,6.695C58.868,6.694 58.873,6.694 58.878,6.694C60.696,6.694 62.191,8.19 62.191,10.008C62.191,10.889 61.84,11.735 61.216,12.356C56.621,16.951 50.487,4.077 36.567,10.699C35.902,11.01 35.475,11.68 35.475,12.414C35.475,12.743 35.561,13.066 35.723,13.351L38.11,17.478C38.624,18.366 39.772,18.682 40.668,18.182L40.727,18.149L40.681,18.182L41.739,17.588C42.918,16.856 44.033,16.023 45.07,15.101C45.288,14.913 45.614,14.913 45.833,15.101C45.962,15.202 46.038,15.358 46.039,15.522C46.042,15.682 45.976,15.836 45.858,15.944C44.766,16.913 43.591,17.785 42.346,18.549L42.313,18.549L41.254,19.139C40.807,19.393 40.301,19.525 39.787,19.523C38.708,19.523 37.707,18.949 37.161,18.018L34.906,14.118C30.572,17.179 27.941,23.077 29.354,30.56C29.405,30.816 29.631,31.004 29.893,31.006L32.465,31.006C32.74,31.006 32.975,30.799 33.009,30.526C33.244,28.652 34.855,27.232 36.744,27.232C38.632,27.232 40.243,28.652 40.479,30.526C40.515,30.8 40.751,31.007 41.027,31.006L43.531,31.006C43.806,31.006 44.041,30.799 44.075,30.526C44.318,28.657 45.928,27.244 47.812,27.244C49.696,27.244 51.306,28.657 51.549,30.526C51.583,30.799 51.818,31.006 52.093,31.006L54.568,31.006C54.865,31.006 55.111,30.764 55.116,30.467C55.175,26.98 56.115,22.975 58.796,20.969C68.083,14.021 65.642,8.065 63.492,5.902ZM54.02,16.412L52.249,15.522L52.249,15.518C52.249,14.907 52.751,14.405 53.362,14.405C53.972,14.405 54.475,14.907 54.475,15.518C54.475,15.872 54.305,16.206 54.02,16.416L54.02,16.412Z" style="fill:url(#_Linear-e063iec);"/></g></g><defs><linearGradient id="_Linear-e063iec" x1="0" y1="0" x2="1" y2="0" gradientUnits="userSpaceOnUse" gradientTransform="matrix(31.0143,0.00101428,-0.00101428,31.0143,33.3452,20.7947)"><stop offset="0" style="stop-color:rgb(26,171,201);stop-opacity:1"/><stop offset="1" style="stop-color:rgb(61,191,194);stop-opacity:1"/></linearGradient></defs></svg>