<svg width="100%" height="100%" viewBox="0 0 18 16" version="1.1" xmlns="http://www.w3.org/2000/svg" xmlns:xlink="http://www.w3.org/1999/xlink" xml:space="preserve" style="fill-rule:evenodd;clip-rule:evenodd;stroke-linecap:square;stroke-linejoin:round;stroke-miterlimit:1;"><g id="graphviz"><g transform="matrix(1.16674,-0.312628,0.454114,1.69478,-3.60776,-1.05183)"><g style="filter:url(#_Effect-yfr6z1h);"><rect x="3.201" y="3.556" width="7.73" height="6.289"/></g></g><g transform="matrix(1.15405,-0.309227,0.449355,1.67702,-3.44777,-1.00781)"><rect x="3.201" y="3.556" width="7.73" height="6.289" style="fill:url(#_Linear-21ge4y1);"/></g><g transform="matrix(1.04886,-0.281042,0.418009,1.56003,-2.49663,-0.422386)"><rect x="3.201" y="3.556" width="7.73" height="6.289" style="fill:none;stroke:rgb(11,199,250);stroke-width:0.06px;"/></g><path d="M3.962,3.82L6.579,13.593" style="fill:none;stroke:rgb(11,199,250);stroke-width:0.08px;"/><g transform="matrix(1,0,0,1,-1.2186,0.299346)"><path d="M3.962,3.82L6.579,13.593" style="fill:none;stroke:rgb(11,199,250);stroke-width:0.06px;"/></g><g transform="matrix(1,0,0,1,-0.822307,0.232759)"><path d="M3.962,3.82L6.579,13.593" style="fill:none;stroke:rgb(11,199,250);stroke-width:0.06px;"/></g><g transform="matrix(1,0,0,1,-0.413909,0.0661723)"><path d="M3.962,3.82L6.579,13.593" style="fill:none;stroke:rgb(11,199,250);stroke-width:0.06px;"/></g><g transform="matrix(0.999781,-0.000816561,-0.000816561,0.996951,3.25471,-0.87642)"><path d="M3.962,3.82L6.579,13.593" style="fill:none;stroke:rgb(11,199,250);stroke-width:0.08px;"/></g><g transform="matrix(0.998373,0.000643654,0.000643255,0.999986,4.8978,-1.33086)"><path d="M3.962,3.82L6.579,13.593" style="fill:none;stroke:rgb(11,199,250);stroke-width:0.08px;"/></g><path d="M3.962,3.82L6.579,13.593" style="fill:none;stroke:rgb(11,199,250);stroke-width:0.08px;"/><g transform="matrix(1,0,0,1,0.399945,-0.129428)"><path d="M3.962,3.82L6.579,13.593" style="fill:none;stroke:rgb(11,199,250);stroke-width:0.06px;"/></g><g transform="matrix(1,0,0,1,0.811894,-0.258707)"><path d="M3.962,3.82L6.579,13.593" style="fill:none;stroke:rgb(11,199,250);stroke-width:0.06px;"/></g><g transform="matrix(1,0,0,1,1.20733,-0.346757)"><path d="M3.962,3.82L6.579,13.593" style="fill:none;stroke:rgb(11,199,250);stroke-width:0.06px;"/></g><g transform="matrix(1,0,0,1,1.62426,-0.462151)"><path d="M3.962,3.82L6.579,13.593" style="fill:none;stroke:rgb(11,199,250);stroke-width:0.06px;"/></g><g transform="matrix(1,0,0,1,2.02927,-0.570232)"><path d="M3.962,3.82L6.579,13.593" style="fill:none;stroke:rgb(11,199,250);stroke-width:0.06px;"/></g><g transform="matrix(1,0,0,1,2.43685,-0.689097)"><path d="M3.962,3.82L6.579,13.593" style="fill:none;stroke:rgb(11,199,250);stroke-width:0.06px;"/></g><g transform="matrix(1,0,0,1,2.83891,-0.797073)"><path d="M3.962,3.82L6.579,13.593" style="fill:none;stroke:rgb(11,199,250);stroke-width:0.06px;"/></g><g transform="matrix(1,0,0,1,3.6493,-1.01604)"><path d="M3.962,3.82L6.579,13.593" style="fill:none;stroke:rgb(11,199,250);stroke-width:0.06px;"/></g><g transform="matrix(1,0,0,1,4.0533,-1.10306)"><path d="M3.962,3.82L6.579,13.593" style="fill:none;stroke:rgb(11,199,250);stroke-width:0.06px;"/></g><g transform="matrix(1,0,0,1,4.48077,-1.20285)"><path d="M3.962,3.82L6.579,13.593" style="fill:none;stroke:rgb(11,199,250);stroke-width:0.06px;"/></g><g transform="matrix(1,0,0,1,5.2915,-1.4432)"><path d="M3.962,3.82L6.579,13.593" style="fill:none;stroke:rgb(11,199,250);stroke-width:0.06px;"/></g><g transform="matrix(1,0,0,1,5.68776,-1.5657)"><path d="M3.962,3.82L6.579,13.593" style="fill:none;stroke:rgb(11,199,250);stroke-width:0.06px;"/></g><g transform="matrix(1,0,0,1,6.10649,-1.66286)"><path d="M3.962,3.82L6.579,13.593" style="fill:none;stroke:rgb(11,199,250);stroke-width:0.06px;"/></g><g transform="matrix(1,0,0,1,-0.00210668,-0.0126401)"><path d="M2.791,5.882L10.894,3.695" style="fill:none;stroke:rgb(11,199,250);stroke-width:0.06px;"/></g><g transform="matrix(1,0,0,1,0.453735,1.62138)"><path d="M2.791,5.882L10.894,3.695" style="fill:none;stroke:rgb(11,199,250);stroke-width:0.06px;"/></g><g transform="matrix(1,0,0,1,0.829268,3.2489)"><path d="M2.791,5.882L10.894,3.695" style="fill:none;stroke:rgb(11,199,250);stroke-width:0.06px;"/></g><g transform="matrix(0.995091,0.00132471,0.00132471,0.999643,1.35055,4.85833)"><path d="M2.791,5.882L10.894,3.695" style="fill:none;stroke:rgb(11,199,250);stroke-width:0.06px;"/></g><g transform="matrix(0.998172,0.000493446,0.000493446,0.999867,1.75931,6.49545)"><path d="M2.791,5.882L10.894,3.695" style="fill:none;stroke:rgb(11,199,250);stroke-width:0.06px;"/></g><g transform="matrix(0.998172,0.000493446,0.000493446,0.999867,2.09191,7.73009)"><path d="M2.791,5.882L10.894,3.695" style="fill:none;stroke:rgb(11,199,250);stroke-width:0.06px;"/></g><g transform="matrix(0.998172,0.000493446,0.000493446,0.999867,1.95976,7.31606)"><path d="M2.791,5.882L10.894,3.695" style="fill:none;stroke:rgb(11,199,250);stroke-width:0.06px;"/></g><g transform="matrix(0.998172,0.000493446,0.000493446,0.999867,1.83751,6.89887)"><path d="M2.791,5.882L10.894,3.695" style="fill:none;stroke:rgb(11,199,250);stroke-width:0.06px;"/></g><g transform="matrix(0.998172,0.000493446,0.000493446,0.999867,1.65123,6.07883)"><path d="M2.791,5.882L10.894,3.695" style="fill:none;stroke:rgb(11,199,250);stroke-width:0.06px;"/></g><g transform="matrix(0.998172,0.000493446,0.000493446,0.999867,1.52272,5.67664)"><path d="M2.791,5.882L10.894,3.695" style="fill:none;stroke:rgb(11,199,250);stroke-width:0.06px;"/></g><g transform="matrix(0.998172,0.000493446,0.000493446,0.999867,1.39844,5.27318)"><path d="M2.791,5.882L10.894,3.695" style="fill:none;stroke:rgb(11,199,250);stroke-width:0.06px;"/></g><g transform="matrix(0.998172,0.000493446,0.000493446,0.999867,1.18184,4.4725)"><path d="M2.791,5.882L10.894,3.695" style="fill:none;stroke:rgb(11,199,250);stroke-width:0.06px;"/></g><g transform="matrix(0.998172,0.000493446,0.000493446,0.999867,1.0707,4.05301)"><path d="M2.791,5.882L10.894,3.695" style="fill:none;stroke:rgb(11,199,250);stroke-width:0.06px;"/></g><g transform="matrix(0.998172,0.000493446,0.000493446,0.999867,0.952082,3.65784)"><path d="M2.791,5.882L10.894,3.695" style="fill:none;stroke:rgb(11,199,250);stroke-width:0.06px;"/></g><g transform="matrix(0.998172,0.000493446,0.000493446,0.999867,0.772757,2.82846)"><path d="M2.791,5.882L10.894,3.695" style="fill:none;stroke:rgb(11,199,250);stroke-width:0.06px;"/></g><g transform="matrix(0.998172,0.000493446,0.000493446,0.999867,0.669448,2.40685)"><path d="M2.791,5.882L10.894,3.695" style="fill:none;stroke:rgb(11,199,250);stroke-width:0.06px;"/></g><g transform="matrix(0.998172,0.000493446,0.000493446,0.999867,0.555342,2.01465)"><path d="M2.791,5.882L10.894,3.695" style="fill:none;stroke:rgb(11,199,250);stroke-width:0.06px;"/></g><g transform="matrix(0.998172,0.000493446,0.000493446,0.999867,0.32995,1.21275)"><path d="M2.791,5.882L10.894,3.695" style="fill:none;stroke:rgb(11,199,250);stroke-width:0.06px;"/></g><g transform="matrix(0.998172,0.000493446,0.000493446,0.999867,0.218642,0.799013)"><path d="M2.791,5.882L10.894,3.695" style="fill:none;stroke:rgb(11,199,250);stroke-width:0.06px;"/></g><g transform="matrix(0.998172,0.000493446,0.000493446,0.999867,0.0956403,0.394986)"><path d="M2.791,5.882L10.894,3.695" style="fill:none;stroke:rgb(11,199,250);stroke-width:0.06px;"/></g><g transform="matrix(0.998172,0.000493446,0.000493446,0.999867,-0.0862525,-0.429671)"><path d="M2.791,5.882L10.894,3.695" style="fill:none;stroke:rgb(11,199,250);stroke-width:0.06px;"/></g><g transform="matrix(0.998172,0.000493446,0.000493446,0.999867,-0.170997,-0.847043)"><path d="M2.791,5.882L10.894,3.695" style="fill:none;stroke:rgb(11,199,250);stroke-width:0.06px;"/></g><g transform="matrix(0.998172,0.000493446,0.000493446,0.999867,-0.282868,-1.26753)"><path d="M2.791,5.882L10.894,3.695" style="fill:none;stroke:rgb(11,199,250);stroke-width:0.06px;"/></g><g transform="matrix(1.10141,-0.295309,0.342036,1.27569,-2.29684,0.687422)"><path d="M5.403,9.598C5.595,9.658 5.761,9.743 5.89,9.843C6.092,10 6.205,10.195 6.205,10.405C6.205,10.614 6.092,10.809 5.89,10.966C5.621,11.175 5.19,11.315 4.702,11.315C4.213,11.315 3.782,11.175 3.514,10.966C3.312,10.809 3.198,10.614 3.198,10.405C3.198,10.195 3.312,10 3.514,9.843C3.745,9.663 4.099,9.534 4.505,9.502C4.508,9.175 4.539,8.078 4.784,7.182C5.088,6.07 5.732,5.32 5.732,5.32L5.74,5.311L5.492,5.257L6.037,4.98C5.941,4.934 5.855,4.882 5.781,4.824C5.579,4.668 5.465,4.472 5.465,4.263C5.465,4.054 5.579,3.858 5.781,3.701C6.049,3.492 6.481,3.352 6.969,3.352C7.457,3.352 7.889,3.492 8.157,3.701C8.359,3.858 8.473,4.054 8.473,4.263C8.473,4.472 8.359,4.668 8.157,4.824C8.074,4.889 7.974,4.948 7.863,4.997L8.419,5.243L8.159,5.314C8.35,5.583 8.907,6.405 9.086,7.072C9.348,8.046 9.414,9.246 9.425,9.509C9.815,9.546 10.153,9.672 10.377,9.847C10.579,10.003 10.693,10.199 10.693,10.408C10.693,10.617 10.579,10.813 10.377,10.97C10.109,11.179 9.677,11.319 9.189,11.319C8.701,11.319 8.269,11.179 8.001,10.97C7.799,10.813 7.685,10.617 7.685,10.408C7.685,10.199 7.799,10.003 8.001,9.847C8.147,9.733 8.342,9.639 8.569,9.578L8.37,9.492L8.352,9.502L8.332,9.475L7.96,9.315L8.163,9.259L7.354,8.216C7.228,8.237 7.095,8.248 6.957,8.248C6.805,8.248 6.658,8.235 6.52,8.21L5.774,9.275L6.007,9.339L5.61,9.509L5.607,9.514L5.603,9.512L5.403,9.598ZM4.87,9.5C5.005,9.509 5.135,9.529 5.256,9.557L5.315,8.934L5.472,9.096L6.162,8.112C6.009,8.055 5.876,7.983 5.769,7.899C5.567,7.743 5.453,7.547 5.453,7.338C5.453,7.129 5.567,6.933 5.769,6.776C6.022,6.579 6.42,6.444 6.873,6.429L6.535,5.964L6.788,6.016L6.78,5.166C6.578,5.151 6.389,5.112 6.222,5.054L6.216,5.618L6.056,5.473L6.026,5.508C6.026,5.508 5.425,6.212 5.139,7.255C4.902,8.12 4.873,9.18 4.87,9.5ZM7.676,5.068C7.515,5.119 7.336,5.154 7.145,5.167L7.154,5.995L7.371,5.931L7.078,6.43C7.516,6.451 7.899,6.585 8.145,6.776C8.347,6.933 8.461,7.129 8.461,7.338C8.461,7.547 8.347,7.743 8.145,7.899C8.031,7.988 7.887,8.065 7.722,8.123L8.477,9.096L8.654,8.912L8.711,9.544C8.822,9.522 8.938,9.507 9.059,9.501C9.046,9.213 8.98,8.073 8.73,7.144C8.564,6.525 8.054,5.768 7.861,5.497L7.721,5.64L7.692,5.267L7.688,5.262L7.691,5.261L7.676,5.068ZM4.702,9.81C4.315,9.81 3.97,9.912 3.758,10.077C3.639,10.17 3.563,10.281 3.563,10.405C3.563,10.528 3.639,10.639 3.758,10.732C3.971,10.897 4.315,11 4.702,11C5.088,11 5.433,10.897 5.645,10.732C5.764,10.639 5.84,10.528 5.84,10.405C5.84,10.281 5.764,10.17 5.645,10.077C5.433,9.912 5.088,9.81 4.702,9.81ZM6.969,3.668C6.583,3.668 6.238,3.77 6.025,3.935C5.907,4.028 5.831,4.139 5.831,4.263C5.831,4.386 5.907,4.497 6.025,4.59C6.238,4.755 6.583,4.858 6.969,4.858C7.356,4.858 7.7,4.755 7.913,4.59C8.032,4.497 8.107,4.386 8.107,4.263C8.107,4.139 8.032,4.028 7.913,3.935C7.7,3.77 7.356,3.668 6.969,3.668ZM9.189,9.813C8.803,9.813 8.458,9.916 8.245,10.081C8.127,10.173 8.051,10.285 8.051,10.408C8.051,10.531 8.127,10.643 8.245,10.735C8.458,10.901 8.803,11.003 9.189,11.003C9.576,11.003 9.92,10.901 10.133,10.735C10.252,10.643 10.327,10.531 10.327,10.408C10.327,10.285 10.252,10.173 10.133,10.081C9.92,9.916 9.576,9.813 9.189,9.813ZM6.957,6.743C6.571,6.743 6.226,6.845 6.013,7.01C5.894,7.103 5.819,7.214 5.819,7.338C5.819,7.461 5.894,7.573 6.013,7.665C6.226,7.83 6.57,7.933 6.957,7.933C7.344,7.933 7.688,7.83 7.901,7.665C8.02,7.573 8.095,7.461 8.095,7.338C8.095,7.214 8.02,7.103 7.901,7.01C7.688,6.845 7.344,6.743 6.957,6.743Z" style="fill:rgb(110,111,111);fill-opacity:0.9;"/></g><g><g transform="matrix(0.866732,0,0,1.57674,1.00357,-3.61658)"><ellipse cx="10.535" cy="6.974" rx="2.328" ry="1.273" style="fill:white;"/></g><g transform="matrix(0.866732,0,0,1.57674,1.00357,-3.61658)"><path d="M12.48,7.674C12.063,8.019 11.348,8.247 10.535,8.247C9.25,8.247 8.207,7.676 8.207,6.974C8.207,6.677 8.392,6.405 8.703,6.188C8.46,6.389 8.319,6.63 8.319,6.889C8.319,7.591 9.362,8.162 10.647,8.162C11.391,8.162 12.053,7.971 12.48,7.674Z" style="fill:rgb(217,231,230);"/></g><path d="M12.695,8.879L12.978,8.378L13.113,8.371L16.385,9.966C16.385,9.966 16.462,10.088 16.329,10.357C16.196,10.628 16.019,10.611 16.019,10.611L12.729,9.014L12.695,8.879Z" style="fill:url(#_Linear-jql5m2a);"/><path d="M12.117,7.719L12.141,7.982L13.018,8.403C13.018,8.403 12.956,8.603 12.909,8.693C12.861,8.784 12.735,8.945 12.735,8.945L11.938,8.535L11.663,8.696C11.663,8.696 11.875,8.401 11.95,8.238C12.025,8.078 12.117,7.719 12.117,7.719Z" style="fill:url(#_Linear-zjr6psh);"/><path d="M12.867,8.762L12.034,8.357L11.983,8.392L11.902,8.465L11.742,8.582C11.811,8.481 11.905,8.336 11.95,8.238C12.006,8.12 12.07,7.892 12.1,7.782L12.112,7.99L12.071,8.233L12.924,8.662C12.919,8.673 12.913,8.684 12.909,8.693C12.898,8.713 12.883,8.737 12.867,8.762Z" style="fill:rgb(18,16,11);"/><g transform="matrix(0.99883,-0.00423859,-0.00423859,0.984644,0.0345697,0.125245)"><path d="M9.785,5.455L10.815,9.23" style="fill:none;stroke:rgb(0,200,240);stroke-width:0.08px;"/></g><g transform="matrix(0.962724,-0.135048,-0.135048,0.510727,-0.433904,5.47872)"><path d="M9.785,5.455L10.8,9.232" style="fill:none;stroke:rgb(0,200,240);stroke-width:0.13px;"/></g><g transform="matrix(0.981867,-0.0656941,-0.0656941,0.761993,-0.722452,2.76665)"><path d="M9.785,5.455L10.821,9.244" style="fill:none;stroke:rgb(0,200,240);stroke-width:0.08px;"/></g><g transform="matrix(0.992451,-0.0273496,-0.0273496,0.900914,-0.639469,1.21532)"><path d="M9.785,5.455L10.802,9.265" style="fill:none;stroke:rgb(0,200,240);stroke-width:0.07px;"/></g><g transform="matrix(0.997341,-0.00896484,-0.00888201,0.970342,-0.372098,0.4172)"><path d="M9.785,5.455L10.802,9.265" style="fill:none;stroke:rgb(0,200,240);stroke-width:0.06px;"/></g><g transform="matrix(0.99494,-0.0179911,-0.017949,0.936255,0.617427,0.48418)"><path d="M9.785,5.455L10.802,9.265" style="fill:none;stroke:rgb(0,200,240);stroke-width:0.07px;"/></g><g transform="matrix(0.987989,-0.0441249,-0.0442004,0.837563,1.34287,1.37876)"><path d="M9.785,5.455L10.802,9.265" style="fill:none;stroke:rgb(0,200,240);stroke-width:0.07px;"/></g><g transform="matrix(0.973921,-0.0970114,-0.0973253,0.637841,2.32494,3.26518)"><path d="M9.785,5.455L10.802,9.265" style="fill:none;stroke:rgb(0,200,240);stroke-width:0.09px;"/></g><path d="M10.981,5.609L8.491,6.278" style="fill:none;stroke:rgb(0,200,240);stroke-width:0.06px;"/><g transform="matrix(1.26758,-0.0719258,-0.0719258,1.01933,-2.04899,1.02004)"><path d="M10.981,5.609L8.491,6.278" style="fill:none;stroke:rgb(0,200,240);stroke-width:0.06px;"/></g><g transform="matrix(1.40606,-0.109152,-0.109152,1.02934,-3.04035,1.79326)"><path d="M10.981,5.609L8.491,6.278" style="fill:none;stroke:rgb(0,200,240);stroke-width:0.06px;"/></g><g transform="matrix(1.46351,-0.124592,-0.124592,1.03349,-3.39635,2.37663)"><path d="M10.981,5.609L8.491,6.278" style="fill:none;stroke:rgb(0,200,240);stroke-width:0.07px;"/></g><g transform="matrix(1.45308,-0.12179,-0.12179,1.03274,-3.16908,2.78346)"><path d="M10.981,5.609L8.491,6.278" style="fill:none;stroke:rgb(0,200,240);stroke-width:0.05px;"/></g><g transform="matrix(1.32084,-0.0862422,-0.0862422,1.02318,-1.96595,2.96364)"><path d="M10.981,5.609L8.491,6.278" style="fill:none;stroke:rgb(0,200,240);stroke-width:0.06px;"/></g><g transform="matrix(1.11454,-0.0307885,-0.0307885,1.00828,-0.184336,2.96246)"><path d="M10.981,5.609L8.491,6.278" style="fill:none;stroke:rgb(0,200,240);stroke-width:0.06px;"/></g><g transform="matrix(0.679004,0.0862849,0.0862849,0.976806,3.56873,2.41955)"><path d="M10.938,5.593L8.583,6.28" style="fill:none;stroke:rgb(0,200,240);stroke-width:0.07px;"/></g><g transform="matrix(0.866732,0,0,1.57674,1.00357,-3.61658)"><path d="M10.535,5.701C11.821,5.701 12.864,6.271 12.864,6.974C12.864,7.676 11.821,8.247 10.535,8.247C9.25,8.247 8.207,7.676 8.207,6.974C8.207,6.271 9.25,5.701 10.535,5.701ZM10.547,5.742C9.311,5.742 8.308,6.288 8.308,6.961C8.308,7.634 9.311,8.181 10.547,8.181C11.783,8.181 12.787,7.634 12.787,6.961C12.787,6.288 11.783,5.742 10.547,5.742Z" style="fill:url(#_Linear-egnwpm4);"/></g><g transform="matrix(0.214762,0.536452,-0.536452,0.214762,11.0968,0.471268)"><g transform="matrix(0.903913,-0.166331,0.180974,0.983488,-0.385147,2.02232)"><path d="M7.501,5.255C7.605,5.255 7.696,5.302 7.746,5.395C7.794,5.482 7.805,5.595 7.805,5.691C7.805,5.789 7.793,5.895 7.752,5.986C7.704,6.089 7.616,6.153 7.5,6.153C7.4,6.153 7.315,6.104 7.266,6.016C7.215,5.926 7.202,5.811 7.202,5.71C7.202,5.625 7.211,5.535 7.24,5.454C7.283,5.337 7.372,5.255 7.501,5.255ZM7.5,6.053C7.559,6.053 7.603,6.026 7.636,5.977C7.683,5.907 7.687,5.766 7.687,5.695C7.687,5.616 7.679,5.526 7.65,5.45C7.625,5.385 7.577,5.354 7.508,5.354C7.441,5.354 7.395,5.386 7.366,5.445C7.328,5.523 7.321,5.633 7.321,5.714C7.321,5.782 7.326,5.863 7.35,5.929C7.375,6.001 7.423,6.053 7.5,6.053Z"/></g><g transform="matrix(0.971999,-0.234984,0.234984,0.971999,-1.25948,2.539)"><path d="M8.196,5.255C8.301,5.255 8.391,5.302 8.442,5.395C8.489,5.482 8.5,5.595 8.5,5.691C8.5,5.789 8.488,5.895 8.447,5.986C8.399,6.089 8.311,6.153 8.196,6.153C8.095,6.153 8.011,6.104 7.961,6.016C7.91,5.926 7.897,5.811 7.897,5.71C7.897,5.625 7.906,5.535 7.936,5.454C7.978,5.337 8.067,5.255 8.196,5.255ZM8.195,6.053C8.254,6.053 8.299,6.026 8.331,5.977C8.378,5.907 8.382,5.766 8.382,5.695C8.382,5.616 8.374,5.526 8.345,5.45C8.32,5.385 8.272,5.354 8.203,5.354C8.136,5.354 8.09,5.386 8.061,5.445C8.023,5.523 8.016,5.633 8.016,5.714C8.016,5.782 8.022,5.863 8.045,5.929C8.07,6.001 8.118,6.053 8.195,6.053Z"/></g><g transform="matrix(0.991171,-0.132589,0.132589,0.991171,-0.853118,1.53423)"><path d="M8.673,5.51L8.673,5.426C8.716,5.422 8.796,5.412 8.839,5.387C8.881,5.363 8.9,5.299 8.909,5.259L8.996,5.259C8.996,5.549 8.996,5.839 8.996,6.129L8.879,6.129C8.879,5.923 8.879,5.717 8.879,5.51L8.673,5.51Z"/></g><g transform="matrix(0.998086,-0.0618393,0.0618393,0.998086,-0.433917,0.799569)"><path d="M9.276,5.51L9.276,5.426C9.319,5.422 9.399,5.412 9.442,5.387C9.484,5.363 9.503,5.299 9.512,5.259L9.599,5.259C9.599,5.549 9.599,5.839 9.599,6.129L9.482,6.129C9.482,5.923 9.482,5.717 9.482,5.51L9.276,5.51Z"/></g><g transform="matrix(0.998505,-0.0546517,0.0546517,0.998505,-0.350025,0.675119)"><path d="M9.879,5.51L9.879,5.426C9.923,5.422 10.002,5.412 10.045,5.387C10.087,5.363 10.106,5.299 10.115,5.259L10.202,5.259C10.202,5.549 10.202,5.839 10.202,6.129L10.085,6.129C10.085,5.923 10.085,5.717 10.085,5.51L9.879,5.51Z"/></g><g transform="matrix(0.998919,-0.046487,0.046487,0.998919,-0.352393,0.573728)"><path d="M10.793,5.255C10.897,5.255 10.988,5.302 11.038,5.395C11.085,5.482 11.097,5.595 11.097,5.691C11.097,5.789 11.085,5.895 11.043,5.986C10.996,6.089 10.907,6.153 10.792,6.153C10.691,6.153 10.607,6.104 10.558,6.016C10.507,5.926 10.494,5.811 10.494,5.71C10.494,5.625 10.503,5.535 10.532,5.454C10.575,5.337 10.663,5.255 10.793,5.255ZM10.791,6.053C10.851,6.053 10.895,6.026 10.928,5.977C10.975,5.907 10.978,5.766 10.978,5.695C10.978,5.616 10.97,5.526 10.942,5.45C10.917,5.385 10.869,5.354 10.799,5.354C10.733,5.354 10.686,5.386 10.657,5.445C10.619,5.523 10.613,5.633 10.613,5.714C10.613,5.782 10.618,5.863 10.641,5.929C10.667,6.001 10.715,6.053 10.791,6.053Z"/></g><g transform="matrix(1,5.55112e-17,-5.55112e-17,1,-0.096278,0.0256022)"><path d="M11.269,5.51L11.269,5.426C11.313,5.422 11.392,5.412 11.435,5.387C11.477,5.363 11.496,5.299 11.506,5.259L11.592,5.259C11.592,5.549 11.592,5.839 11.592,6.129L11.475,6.129C11.475,5.923 11.475,5.717 11.475,5.51L11.269,5.51Z"/></g><path d="M11.872,5.51L11.872,5.426C11.916,5.422 11.995,5.412 12.038,5.387C12.08,5.363 12.099,5.299 12.109,5.259L12.195,5.259C12.195,5.549 12.195,5.839 12.195,6.129L12.078,6.129C12.078,5.923 12.078,5.717 12.078,5.51L11.872,5.51Z"/><g transform="matrix(1,5.55112e-17,-5.55112e-17,1,0.0359904,0.0149514)"><path d="M12.475,5.51L12.475,5.426C12.519,5.422 12.598,5.412 12.641,5.387C12.683,5.363 12.702,5.299 12.712,5.259L12.798,5.259C12.798,5.549 12.798,5.839 12.798,6.129L12.681,6.129C12.681,5.923 12.681,5.717 12.681,5.51L12.475,5.51Z"/></g><g transform="matrix(1,5.55112e-17,-5.55112e-17,1,0.0361588,0.00399772)"><path d="M13.389,5.255C13.494,5.255 13.584,5.302 13.634,5.395C13.682,5.482 13.693,5.595 13.693,5.691C13.693,5.789 13.681,5.895 13.64,5.986C13.592,6.089 13.504,6.153 13.388,6.153C13.288,6.153 13.204,6.104 13.154,6.016C13.103,5.926 13.09,5.811 13.09,5.71C13.09,5.625 13.099,5.535 13.128,5.454C13.171,5.337 13.26,5.255 13.389,5.255ZM13.388,6.053C13.447,6.053 13.491,6.026 13.524,5.977C13.571,5.907 13.575,5.766 13.575,5.695C13.575,5.616 13.567,5.526 13.538,5.45C13.513,5.385 13.465,5.354 13.396,5.354C13.329,5.354 13.283,5.386 13.254,5.445C13.216,5.523 13.209,5.633 13.209,5.714C13.209,5.782 13.214,5.863 13.238,5.929C13.263,6.001 13.311,6.053 13.388,6.053Z"/></g></g><g transform="matrix(0.214762,0.536452,-0.536452,0.214762,11.0968,0.471268)"><g transform="matrix(0.56943,-0.721438,0.78495,0.619559,0.0848225,9.66047)"><path d="M7.501,5.255C7.605,5.255 7.696,5.302 7.746,5.395C7.794,5.482 7.805,5.595 7.805,5.691C7.805,5.789 7.793,5.895 7.752,5.986C7.704,6.089 7.616,6.153 7.5,6.153C7.4,6.153 7.315,6.104 7.266,6.016C7.215,5.926 7.202,5.811 7.202,5.71C7.202,5.625 7.211,5.535 7.24,5.454C7.283,5.337 7.372,5.255 7.501,5.255ZM7.5,6.053C7.559,6.053 7.603,6.026 7.636,5.977C7.683,5.907 7.687,5.766 7.687,5.695C7.687,5.616 7.679,5.526 7.65,5.45C7.625,5.385 7.577,5.354 7.508,5.354C7.441,5.354 7.395,5.386 7.366,5.445C7.328,5.523 7.321,5.633 7.321,5.714C7.321,5.782 7.326,5.863 7.35,5.929C7.375,6.001 7.423,6.053 7.5,6.053Z"/></g><g transform="matrix(0.780096,-0.308264,0.367509,0.93002,0.895518,4.62579)"><path d="M8.196,5.255C8.301,5.255 8.391,5.302 8.442,5.395C8.489,5.482 8.5,5.595 8.5,5.691C8.5,5.789 8.488,5.895 8.447,5.986C8.399,6.089 8.311,6.153 8.196,6.153C8.095,6.153 8.011,6.104 7.961,6.016C7.91,5.926 7.897,5.811 7.897,5.71C7.897,5.625 7.906,5.535 7.936,5.454C7.978,5.337 8.067,5.255 8.196,5.255ZM8.195,6.053C8.254,6.053 8.299,6.026 8.331,5.977C8.378,5.907 8.382,5.766 8.382,5.695C8.382,5.616 8.374,5.526 8.345,5.45C8.32,5.385 8.272,5.354 8.203,5.354C8.136,5.354 8.09,5.386 8.061,5.445C8.023,5.523 8.016,5.633 8.016,5.714C8.016,5.782 8.022,5.863 8.045,5.929C8.07,6.001 8.118,6.053 8.195,6.053Z"/></g><g transform="matrix(0.82345,0.159705,-0.190398,0.981707,4.34865,0.373043)"><path d="M8.196,5.255C8.301,5.255 8.391,5.302 8.442,5.395C8.489,5.482 8.5,5.595 8.5,5.691C8.5,5.789 8.488,5.895 8.447,5.986C8.399,6.089 8.311,6.153 8.196,6.153C8.095,6.153 8.011,6.104 7.961,6.016C7.91,5.926 7.897,5.811 7.897,5.71C7.897,5.625 7.906,5.535 7.936,5.454C7.978,5.337 8.067,5.255 8.196,5.255ZM8.195,6.053C8.254,6.053 8.299,6.026 8.331,5.977C8.378,5.907 8.382,5.766 8.382,5.695C8.382,5.616 8.374,5.526 8.345,5.45C8.32,5.385 8.272,5.354 8.203,5.354C8.136,5.354 8.09,5.386 8.061,5.445C8.023,5.523 8.016,5.633 8.016,5.714C8.016,5.782 8.022,5.863 8.045,5.929C8.07,6.001 8.118,6.053 8.195,6.053Z"/></g><g transform="matrix(0.759757,0.355451,-0.423764,0.905773,6.87085,-0.600954)"><path d="M8.196,5.255C8.301,5.255 8.391,5.302 8.442,5.395C8.489,5.482 8.5,5.595 8.5,5.691C8.5,5.789 8.488,5.895 8.447,5.986C8.399,6.089 8.311,6.153 8.196,6.153C8.095,6.153 8.011,6.104 7.961,6.016C7.91,5.926 7.897,5.811 7.897,5.71C7.897,5.625 7.906,5.535 7.936,5.454C7.978,5.337 8.067,5.255 8.196,5.255ZM8.195,6.053C8.254,6.053 8.299,6.026 8.331,5.977C8.378,5.907 8.382,5.766 8.382,5.695C8.382,5.616 8.374,5.526 8.345,5.45C8.32,5.385 8.272,5.354 8.203,5.354C8.136,5.354 8.09,5.386 8.061,5.445C8.023,5.523 8.016,5.633 8.016,5.714C8.016,5.782 8.022,5.863 8.045,5.929C8.07,6.001 8.118,6.053 8.195,6.053Z"/></g><g transform="matrix(-0.447093,0.894488,-0.894488,-0.447093,17.5094,2.93634)"><path d="M8.673,5.51L8.673,5.426C8.716,5.422 8.796,5.412 8.839,5.387C8.881,5.363 8.9,5.299 8.909,5.259L8.996,5.259C8.996,5.549 8.996,5.839 8.996,6.129L8.879,6.129C8.879,5.923 8.879,5.717 8.879,5.51L8.673,5.51Z"/></g><g transform="matrix(-0.67254,-0.795563,0.712105,-0.601987,13.0699,18.4493)"><path d="M8.673,5.51L8.673,5.426C8.716,5.422 8.796,5.412 8.839,5.387C8.881,5.363 8.9,5.299 8.909,5.259L8.996,5.259C8.996,5.549 8.996,5.839 8.996,6.129L8.879,6.129C8.879,5.923 8.879,5.717 8.879,5.51L8.673,5.51Z"/></g><g transform="matrix(-0.426634,-0.950376,0.850677,-0.381878,10.3933,19.1695)"><path d="M8.673,5.51L8.673,5.426C8.716,5.422 8.796,5.412 8.839,5.387C8.881,5.363 8.9,5.299 8.909,5.259L8.996,5.259C8.996,5.549 8.996,5.839 8.996,6.129L8.879,6.129C8.879,5.923 8.879,5.717 8.879,5.51L8.673,5.51Z"/></g><g transform="matrix(-0.198808,-0.650908,0.626642,-0.191396,9.70728,15.9054)"><path d="M8.673,5.51L8.673,5.426C8.716,5.422 8.796,5.412 8.839,5.387C8.881,5.363 8.9,5.299 8.909,5.259L8.996,5.259C8.996,5.549 8.996,5.839 8.996,6.129L8.879,6.129C8.879,5.923 8.879,5.717 8.879,5.51L8.673,5.51Z"/></g><g transform="matrix(1,5.55112e-17,-5.55112e-17,1,0.0361588,0.00399772)"><path d="M13.389,5.255C13.494,5.255 13.584,5.302 13.634,5.395C13.682,5.482 13.693,5.595 13.693,5.691C13.693,5.789 13.681,5.895 13.64,5.986C13.592,6.089 13.504,6.153 13.388,6.153C13.288,6.153 13.204,6.104 13.154,6.016C13.103,5.926 13.09,5.811 13.09,5.71C13.09,5.625 13.099,5.535 13.128,5.454C13.171,5.337 13.26,5.255 13.389,5.255ZM13.388,6.053C13.447,6.053 13.491,6.026 13.524,5.977C13.571,5.907 13.575,5.766 13.575,5.695C13.575,5.616 13.567,5.526 13.538,5.45C13.513,5.385 13.465,5.354 13.396,5.354C13.329,5.354 13.283,5.386 13.254,5.445C13.216,5.523 13.209,5.633 13.209,5.714C13.209,5.782 13.214,5.863 13.238,5.929C13.263,6.001 13.311,6.053 13.388,6.053Z"/></g></g></g><path d="M3.105,5.437L3.294,5.354" style="fill:none;stroke:rgb(216,3,121);stroke-width:0.08px;stroke-linecap:butt;stroke-linejoin:miter;"/><g><g transform="matrix(1,0,0,1,0.001269,-0.0134591)"><path d="M2.728,5.73L2.733,5.878L2.65,5.881L2.627,5.205L2.702,5.179L2.945,5.514L3.028,5.467L3.048,5.545L3.068,5.54L2.994,5.582L3.096,5.722L3.029,5.771L2.921,5.622L2.728,5.73ZM2.872,5.554L2.715,5.338L2.725,5.636L2.872,5.554Z" style="fill:rgb(3,41,216);"/></g><g transform="matrix(1,0,0,1,1.53551,1.22317)"><path d="M2.728,5.73L2.733,5.878L2.65,5.881L2.627,5.205L2.702,5.179L2.945,5.514L3.028,5.467L3.048,5.545L3.068,5.54L2.994,5.582L3.096,5.722L3.029,5.771L2.921,5.622L2.728,5.73ZM2.872,5.554L2.715,5.338L2.725,5.636L2.872,5.554Z" style="fill:rgb(3,41,216);"/></g><g transform="matrix(1,0,0,1,2.30476,0.0459148)"><path d="M2.728,5.73L2.733,5.878L2.65,5.881L2.627,5.205L2.702,5.179L2.945,5.514L3.028,5.467L3.048,5.545L3.068,5.54L2.994,5.582L3.096,5.722L3.029,5.771L2.921,5.622L2.728,5.73ZM2.872,5.554L2.715,5.338L2.725,5.636L2.872,5.554Z" style="fill:rgb(3,41,216);"/></g><g><g transform="matrix(1,0,0,1,-0.00732561,-0.0149973)"><path d="M3.09,5.462L3.3,5.338" style="fill:none;stroke:rgb(216,3,121);stroke-width:0.08px;stroke-linecap:butt;stroke-linejoin:miter;"/></g><path d="M3.356,5.141L3.616,5.317L3.485,5.546" style="fill:none;stroke:rgb(216,3,121);stroke-width:0.08px;stroke-linecap:butt;stroke-linejoin:miter;"/></g><g transform="matrix(1,0,0,1,-0.00732561,-0.0149973)"><path d="M3.09,5.504L3.069,5.426L3.279,5.303L3.3,5.38L3.321,5.374L3.116,5.495C3.101,5.504 3.09,5.504 3.09,5.504ZM3.623,5.373L3.659,5.352L3.532,5.577C3.517,5.603 3.493,5.603 3.493,5.603L3.457,5.541L3.568,5.345L3.34,5.19L3.364,5.198C3.364,5.198 3.353,5.098 3.394,5.126L3.641,5.293C3.684,5.323 3.623,5.373 3.623,5.373Z" style="fill:rgb(3,41,216);"/></g><g transform="matrix(1,0,0,1,0.997379,-0.377682)"><path d="M3.09,5.504L3.069,5.426L3.279,5.303L3.3,5.38L3.321,5.374L3.116,5.495C3.101,5.504 3.09,5.504 3.09,5.504ZM3.623,5.373L3.659,5.352L3.532,5.577C3.517,5.603 3.493,5.603 3.493,5.603L3.457,5.541L3.568,5.345L3.34,5.19L3.364,5.198C3.364,5.198 3.353,5.098 3.394,5.126L3.641,5.293C3.684,5.323 3.623,5.373 3.623,5.373Z" style="fill:rgb(3,41,216);"/></g><g transform="matrix(1,0,0,1,1.19004,0.445113)"><path d="M3.09,5.504L3.069,5.426L3.279,5.303L3.3,5.38L3.321,5.374L3.116,5.495C3.101,5.504 3.09,5.504 3.09,5.504ZM3.623,5.373L3.659,5.352L3.532,5.577C3.517,5.603 3.493,5.603 3.493,5.603L3.457,5.541L3.568,5.345L3.34,5.19L3.364,5.198C3.364,5.198 3.353,5.098 3.394,5.126L3.641,5.293C3.684,5.323 3.623,5.373 3.623,5.373Z" style="fill:rgb(3,41,216);"/></g><g transform="matrix(1,0,0,1,0.219691,0.808893)"><path d="M3.09,5.504L3.069,5.426L3.279,5.303L3.3,5.38L3.321,5.374L3.116,5.495C3.101,5.504 3.09,5.504 3.09,5.504ZM3.623,5.373L3.659,5.352L3.532,5.577C3.517,5.603 3.493,5.603 3.493,5.603L3.457,5.541L3.568,5.345L3.34,5.19L3.364,5.198C3.364,5.198 3.353,5.098 3.394,5.126L3.641,5.293C3.684,5.323 3.623,5.373 3.623,5.373Z" style="fill:rgb(3,41,216);"/></g><g transform="matrix(1,0,0,1,0.452592,1.62786)"><path d="M3.09,5.504L3.069,5.426L3.279,5.303L3.3,5.38L3.321,5.374L3.116,5.495C3.101,5.504 3.09,5.504 3.09,5.504ZM3.623,5.373L3.659,5.352L3.532,5.577C3.517,5.603 3.493,5.603 3.493,5.603L3.457,5.541L3.568,5.345L3.34,5.19L3.364,5.198C3.364,5.198 3.353,5.098 3.394,5.126L3.641,5.293C3.684,5.323 3.623,5.373 3.623,5.373Z" style="fill:rgb(3,41,216);"/></g><path d="M3.854,4.847L3.892,4.819L3.805,5.066L3.987,5.033L3.994,5.115L4.033,5.088L3.902,5.463C3.89,5.497 3.859,5.5 3.859,5.5L3.822,5.476L3.541,4.882L3.579,4.906L3.57,4.824L3.844,4.764L3.854,4.847ZM3.854,5.348L3.931,5.127L3.763,5.157L3.854,5.348ZM3.718,5.061L3.789,4.861C3.742,4.871 3.682,4.884 3.638,4.893L3.718,5.061Z" style="fill:rgb(3,41,216);"/><g transform="matrix(1,0,0,1,-0.802625,1.1761)"><path d="M3.854,4.847L3.892,4.819L3.805,5.066L3.987,5.033L3.994,5.115L4.033,5.088L3.902,5.463C3.89,5.497 3.859,5.5 3.859,5.5L3.822,5.476L3.541,4.882L3.579,4.906L3.57,4.824L3.844,4.764L3.854,4.847ZM3.854,5.348L3.931,5.127L3.763,5.157L3.854,5.348ZM3.718,5.061L3.789,4.861C3.742,4.871 3.682,4.884 3.638,4.893L3.718,5.061Z" style="fill:rgb(3,41,216);"/></g><path d="M4.733,4.506C4.732,4.509 4.731,4.512 4.731,4.515C4.728,4.526 4.726,4.54 4.725,4.555C4.718,4.632 4.724,4.749 4.746,4.807C4.765,4.857 4.813,4.933 4.861,4.983C4.875,4.998 4.889,5.01 4.902,5.018C4.905,5.019 4.908,5.02 4.91,5.021C4.912,5.018 4.914,5.013 4.915,5.009C4.919,4.997 4.922,4.982 4.925,4.967C4.934,4.901 4.932,4.818 4.931,4.793C4.931,4.79 4.931,4.787 4.931,4.787C4.931,4.787 5.012,4.742 5.014,4.782C5.014,4.783 5.014,4.786 5.014,4.79C5.016,4.821 5.018,4.941 5,5.015C4.994,5.039 4.986,5.06 4.976,5.074C4.965,5.089 4.951,5.099 4.936,5.103C4.908,5.112 4.869,5.1 4.83,5.068C4.766,5.015 4.694,4.904 4.668,4.837C4.643,4.77 4.634,4.636 4.642,4.548C4.646,4.502 4.657,4.466 4.668,4.451C4.682,4.434 4.697,4.426 4.714,4.422C4.734,4.418 4.757,4.423 4.781,4.437C4.839,4.471 4.933,4.617 4.933,4.617L4.859,4.647C4.859,4.647 4.809,4.57 4.765,4.529C4.757,4.521 4.749,4.515 4.741,4.51C4.739,4.508 4.736,4.507 4.733,4.506Z" style="fill:rgb(3,41,216);"/><g transform="matrix(1,0,0,1,-1.51361,2.34413)"><path d="M4.733,4.506C4.732,4.509 4.731,4.512 4.731,4.515C4.728,4.526 4.726,4.54 4.725,4.555C4.718,4.632 4.724,4.749 4.746,4.807C4.765,4.857 4.813,4.933 4.861,4.983C4.875,4.998 4.889,5.01 4.902,5.018C4.905,5.019 4.908,5.02 4.91,5.021C4.912,5.018 4.914,5.013 4.915,5.009C4.919,4.997 4.922,4.982 4.925,4.967C4.934,4.901 4.932,4.818 4.931,4.793C4.931,4.79 4.931,4.787 4.931,4.787C4.931,4.787 5.012,4.742 5.014,4.782C5.014,4.783 5.014,4.786 5.014,4.79C5.016,4.821 5.018,4.941 5,5.015C4.994,5.039 4.986,5.06 4.976,5.074C4.965,5.089 4.951,5.099 4.936,5.103C4.908,5.112 4.869,5.1 4.83,5.068C4.766,5.015 4.694,4.904 4.668,4.837C4.643,4.77 4.634,4.636 4.642,4.548C4.646,4.502 4.657,4.466 4.668,4.451C4.682,4.434 4.697,4.426 4.714,4.422C4.734,4.418 4.757,4.423 4.781,4.437C4.839,4.471 4.933,4.617 4.933,4.617L4.859,4.647C4.859,4.647 4.809,4.57 4.765,4.529C4.757,4.521 4.749,4.515 4.741,4.51C4.739,4.508 4.736,4.507 4.733,4.506Z" style="fill:rgb(3,41,216);"/></g><path d="M3.839,5.735L3.823,5.654L4.018,5.578L4.033,5.658C4.033,5.658 4.034,5.555 4.066,5.591L4.145,5.677C4.158,5.692 4.157,5.706 4.15,5.718L4.158,5.71L4.122,6.224L4.043,6.238L3.801,5.711L3.839,5.735ZM4.074,5.722L4.022,5.666L3.895,5.716L4.05,6.055L4.074,5.722Z" style="fill:rgb(3,41,216);"/></g></g><defs><filter id="_Effect-yfr6z1h" filterUnits="userSpaceOnUse" x="2.7744" y="3.26271" width="8.58222" height="6.87564"><feGaussianBlur in="SourceGraphic" stdDeviation="0.0569573"/></filter><linearGradient id="_Linear-21ge4y1" x1="0" y1="0" x2="1" y2="0" gradientUnits="userSpaceOnUse" gradientTransform="matrix(-7.10563,1.10137,-1.60046,-4.88979,10.6931,6.67692)"><stop offset="0" style="stop-color:white;stop-opacity:1"/><stop offset="1" style="stop-color:rgb(201,203,204);stop-opacity:1"/></linearGradient><linearGradient id="_Linear-jql5m2a" x1="0" y1="0" x2="1" y2="0" gradientUnits="userSpaceOnUse" gradientTransform="matrix(-0.297589,0.627343,-0.627343,-0.297589,15.0081,9.30435)"><stop offset="0" style="stop-color:rgb(149,149,148);stop-opacity:1"/><stop offset="0.02" style="stop-color:rgb(120,118,118);stop-opacity:1"/><stop offset="0.04" style="stop-color:rgb(95,91,91);stop-opacity:1"/><stop offset="0.1" style="stop-color:rgb(85,81,81);stop-opacity:1"/><stop offset="0.3" style="stop-color:rgb(181,167,174);stop-opacity:1"/><stop offset="0.36" style="stop-color:rgb(110,101,105);stop-opacity:1"/><stop offset="0.43" style="stop-color:rgb(35,33,34);stop-opacity:1"/><stop offset="0.6" style="stop-color:black;stop-opacity:1"/><stop offset="0.8" style="stop-color:rgb(21,18,12);stop-opacity:1"/><stop offset="1" style="stop-color:rgb(85,71,48);stop-opacity:1"/></linearGradient><linearGradient id="_Linear-zjr6psh" x1="0" y1="0" x2="1" y2="0" gradientUnits="userSpaceOnUse" gradientTransform="matrix(0.230013,-0.509944,0.509944,0.230013,12.299,8.70788)"><stop offset="0" style="stop-color:rgb(196,184,175);stop-opacity:1"/><stop offset="0.2" style="stop-color:rgb(230,213,201);stop-opacity:1"/><stop offset="0.82" style="stop-color:white;stop-opacity:1"/><stop offset="1" style="stop-color:rgb(204,202,199);stop-opacity:1"/></linearGradient><linearGradient id="_Linear-egnwpm4" x1="0" y1="0" x2="1" y2="0" gradientUnits="userSpaceOnUse" gradientTransform="matrix(4.30363,0.684688,-1.24557,2.36569,8.30285,6.79629)"><stop offset="0" style="stop-color:rgb(65,69,69);stop-opacity:1"/><stop offset="0.26" style="stop-color:rgb(133,133,133);stop-opacity:1"/><stop offset="0.85" style="stop-color:rgb(133,133,133);stop-opacity:1"/><stop offset="1" style="stop-color:rgb(20,36,36);stop-opacity:1"/></linearGradient></defs></svg>