<svg width="100%" height="100%" viewBox="0 0 18 16" version="1.1" xmlns="http://www.w3.org/2000/svg" xmlns:xlink="http://www.w3.org/1999/xlink" xml:space="preserve" style="fill-rule:evenodd;clip-rule:evenodd;stroke-linejoin:round;stroke-miterlimit:2;"><g id="groovy" transform="matrix(1.10714,0,0,1.10714,-0.964286,-0.857143)"><g transform="matrix(0.969891,0,0,1.05485,0.93593,-0.085425)"><path d="M15.532,4.347L15.532,10.983C15.532,12.814 13.915,14.301 11.923,14.301L4.706,14.301C2.714,14.301 1.097,12.814 1.097,10.983L1.097,4.347C1.097,2.516 2.714,1.029 4.706,1.029L11.923,1.029C13.915,1.029 15.532,2.516 15.532,4.347Z" style="fill:white;"/></g><path d="M10.072,6.769C9.879,6.786 9.691,6.89 9.548,7.096C9.422,6.965 9.274,6.836 9.013,6.826C8.696,6.771 8.527,6.912 8.314,7.157C8.25,6.944 8.005,6.894 7.791,6.994C7.981,6.691 8.883,5.173 9.005,4.975C9.182,5.244 9.728,6.184 9.986,6.609L10.072,6.769Z" style="fill:rgb(118,168,184);"/><path d="M15.045,7.286C14.463,7.496 14.045,7.658 13.483,7.872C13.422,7.609 13.411,7.529 13.356,7.292C14.29,7.289 14.305,7.291 15.045,7.286Z" style="fill:rgb(117,165,180);"/><path d="M10.975,8.477C11.036,8.728 11.122,8.851 11.122,8.851C11.24,9.053 11.387,9.168 11.612,9.226C11.662,9.306 11.679,9.321 11.699,9.364C11.72,9.631 11.705,9.664 11.498,9.816C11.376,9.935 11.371,10.105 11.496,10.264C11.631,10.392 11.773,10.438 12.298,10.302C12.4,10.476 12.542,10.682 12.751,11.011C12.047,10.746 11.078,10.368 9,9.56C9,9.56 6.568,10.504 5.264,11.012C5.81,10.152 5.855,10.08 6.242,9.477C6.374,9.426 6.329,9.447 6.446,9.387C6.714,9.245 6.929,9.032 7.046,8.719C7.26,9.203 7.5,9.259 8,9.102C8.104,9.054 8.222,8.985 8.247,8.799C8.515,9.041 9.083,9.085 9.497,8.577C9.854,8.995 10.664,9.034 10.975,8.477Z" style="fill:rgb(118,167,183);"/><path d="M2.957,7.281C3.396,7.286 3.891,7.286 4.418,7.291C4.343,7.476 4.317,7.606 4.306,7.789C4.06,7.693 3.211,7.39 2.957,7.281Z" style="fill:rgb(117,168,184);"/><g id="path4019" transform="matrix(0.014,0,0,0.014,1.50445,6.8148)"><path d="M535.269,-164.843C535.269,-164.843 465.185,-48.709 431.886,7.763C425.458,10.172 424.744,9.495 417.691,16.401C400.629,-3.161 380.321,14.678 374.852,25.605C372.475,1.971 368.548,1.96 363.252,-3.343C366.311,-24.016 376.407,-57.707 353.178,-81.856C308.256,-112.159 256.279,-38.08 227.307,0.719L211.688,26.633C147.275,25.317 96.546,26.997 35.397,25.759C109.962,53.704 113.052,54.355 203.14,88.539C203.14,91.294 209.876,104.036 217.284,111.522C223.441,117.744 230.156,121.259 233.514,123.348C229.106,125.604 220.15,129.125 217.488,134.094C205.299,156.841 223.255,162.094 234.888,180.215C248.006,203.906 250.83,219.58 281.797,206.283C292.411,201.726 305.214,200.089 313.392,197.542C284.538,243.088 277.121,255.533 226.595,333.951L227.104,334.105C429.194,255.222 434.367,253.193 534.303,213.687C677.977,269.438 686.22,274.024 843.995,334.157C821.957,299.757 806.898,278.196 790.879,251.016C797.188,250.506 811.014,249.116 823.289,241.314C832.148,235.684 842.553,229.337 851.932,217.389C870.382,193.884 874.907,164.205 868.162,127.153C864.954,109.534 858.385,92.407 859.309,91.778C945.189,59.342 955.294,55.821 1035.4,25.605C939.141,27.015 934.494,26.069 844.097,26.273C842.625,9.034 833.958,0.169 807.363,1.027C797.418,2.656 791.163,6.054 786.503,19.589C771.637,-7.819 751.098,0.244 742.392,13.727C730.91,1.998 704.156,-1.95 690.701,6.632C680.784,1.991 669.259,1.972 659.156,14.036C651.839,7.929 649.589,6.206 633.565,-0.207C596.66,-62.601 565.966,-112.368 535.269,-164.843ZM535.778,-131.422C550.352,-109.156 600.422,-22.7 612.807,-3.343C598.764,-2.396 584.963,5.062 574.547,20.052C565.526,10.75 554.981,1.525 536.349,0.789C513.698,-3.104 501.62,6.945 486.376,24.422C481.848,9.246 464.298,5.658 449.032,12.802C462.64,-8.845 527.009,-117.29 535.778,-131.422ZM345.75,-35.016C343.657,24.744 301.252,77.963 270.858,58.511C247.893,39.819 277.063,-7.481 295.432,-24.167C294.069,-11.414 305.668,-3.449 296.399,7.866C277.832,30.531 285.138,46.881 293.143,49.411C314.51,56.162 334.964,-1.721 334.964,-42.317C334.964,-68.349 319.73,-67.867 289.734,-36.661C248.78,5.944 226.67,47.198 241.4,75.479C249.608,91.237 261.605,102.573 281.339,100.21C319.877,95.597 343.136,47.938 345.648,17.378C351.794,17.224 350.169,17.748 351.805,16.504C351.805,21.895 359.201,47.963 365.033,65.093C372.665,94.336 405.206,153.009 307.999,175.845C289.612,180.478 282.385,182.019 264.244,189.161C255.351,170.741 253.261,164.796 235.193,147C259.707,138.442 259.881,139.287 275.692,133.786C336.826,112.515 355.206,94.335 353.077,68.383C353.077,68.383 353.822,55.009 345.343,43.858C341.063,58.788 333.133,70.749 333.133,70.749C314.954,99.082 279.158,116.624 247.353,105.455C229.959,99.347 222.474,86.03 222.474,63.139C222.474,33.874 289.197,-50.821 321.939,-65.197C345.07,-72.08 346.063,-52.994 345.75,-35.016ZM616.674,19.178C627.495,19.379 639.314,24.699 647.302,33.317C672.052,60.018 669.352,92.359 654.12,112.705C635.998,136.909 590.28,126.172 579.482,92.344C574.465,76.626 583.426,37.689 599.273,24.679C604.058,20.752 610.181,19.056 616.674,19.178ZM528.655,21.903C530.255,21.941 531.889,22.182 533.54,22.622C554.479,23.888 558.929,35.629 562.743,45.966C572.357,72.015 569.951,96.423 550.177,116.407C520.557,146.34 486.044,133.114 486.172,92.755C486.784,64.054 504.661,21.325 528.655,21.903ZM606.498,23.497C590.53,35.442 588.461,66.108 603.14,77.484C608.911,82.872 612.118,86.625 628.681,88.127C640.054,89.16 658.006,77.624 658.902,66.172C659.307,60.994 658.375,52.316 645.877,38.253C635.409,26.474 621.777,23.735 618.353,25.759C607.331,32.272 619.237,37.451 623.542,41.75C630.309,48.507 631.932,51.462 628.783,53.473C622.519,57.471 615.557,56.9 613.265,55.838C608.908,53.818 594.29,45.593 606.498,23.497ZM763.099,23.599C770.056,34.437 772.064,36.781 779.838,63.807C789.878,98.709 802.624,112.274 813.875,105.918C844.713,88.497 820.002,44.387 809.144,23.651C816.102,23.552 814.724,23.94 821.049,23.856C826.058,43.482 824.657,39.992 838.042,99.388C854.058,170.458 856.453,189.381 816.012,221.297C797.429,235.964 770.055,236.736 746.564,235.437L720.057,231.529C738.323,219.548 742.759,208.328 742.647,184.997C795.894,207.321 824.267,190.503 835.6,163.093C841.057,149.894 839.164,132.478 833.921,101.804C834.25,126.799 833.709,131.406 830.411,143.76C823.794,168.545 807.602,175.467 796.577,157.9C792.334,151.14 782.193,128.691 779.075,104.529C775.957,80.368 773.568,46.376 758.215,32.186C759.894,28.845 761.632,25.083 763.099,23.599ZM711.153,24.011C721.901,26.867 734.976,32.538 742.01,45.694C751.726,63.866 758.16,73.539 757.63,105.988C757.065,140.631 743.446,149.924 734.455,151.216C722.842,152.884 702.709,152.645 690.751,84.631C686.79,62.1 679.557,40.66 671.978,33.626C675.742,29.082 676.039,29.651 678.846,25.142C682.664,29.317 685.961,36.374 691.26,57.534C699.693,91.205 707.393,98.155 722.296,100.056C745.578,103.026 754.733,67.53 735.575,42.058C731.37,36.467 720.374,29.272 714.594,32.244C714.929,42.062 719.321,38.978 719.37,45.477C718.273,53.203 717.155,54.585 714.664,58.82C708.748,56.495 705.875,55.576 700.71,46.686C694.183,33.784 698.425,21.674 711.153,24.011ZM519.599,27.199C508.644,34.916 494.875,60.516 506.931,83.449C512.884,91.97 519.304,98.949 533.54,95.943C543.712,93.795 561.486,81.782 563.964,64.733C566.089,50.119 544.957,21.906 533.183,28.484C519.554,36.098 527.867,41.562 536.287,49.771C543.986,57.276 538.458,61.801 533.082,64.013C522.32,68.441 516.291,64.131 513.596,55.581C510.9,47.03 513.227,39.748 519.599,27.199ZM400.138,29.872C402.479,37.039 404.352,46.584 409.245,55.838C410.397,56.795 414.724,55.888 420.439,49.308C424.038,45.163 428.127,39.397 435.295,30.026C439.659,33.999 440.039,36.954 441.248,39.127C444.258,44.542 450.607,44.114 452.593,43.549C459.604,36.61 460.717,32.108 465.364,31.518C465.795,40.492 466.23,46.08 454.628,59.694C447.833,67.668 437.41,67.859 433.769,66.841C428.75,65.438 425.496,62.345 417.581,58.311C406.825,59.961 409.675,71.429 411.586,81.083C416.623,106.535 432.466,116.682 446.284,109.208C451.092,106.608 449.992,106.624 459.258,102.833C457.707,118.986 456.777,122.115 459.665,140.161C437.126,152.706 418.781,150.538 413.774,119.08C409.973,92.72 402.891,60.727 396.475,54.244C390.417,48.122 387.928,46.12 387.928,46.12C387.928,46.12 395.517,36.047 400.138,29.872ZM103.725,33.266C135.097,33.657 170.471,33.664 208.126,33.986C202.719,47.223 200.864,56.492 200.088,69.566C182.509,62.761 121.911,41.067 103.725,33.266ZM967.17,33.677C925.632,48.648 895.722,60.234 855.646,75.53C851.262,56.757 850.46,51.027 846.539,34.088C913.232,33.893 914.358,33.995 967.17,33.677ZM676.455,118.72C680.816,136.633 686.967,145.411 686.967,145.411C695.384,159.891 705.905,168.11 721.981,172.252C725.519,177.923 726.766,179.041 728.167,182.091C729.699,201.146 728.594,203.513 713.794,214.356C705.106,222.863 704.735,235.046 713.697,246.388C723.333,255.522 733.458,258.817 770.985,249.062C778.24,261.529 788.38,276.263 803.293,299.759C753.064,280.831 683.797,253.809 535.371,196.051C535.371,196.051 361.687,263.483 268.569,299.81C307.515,238.376 310.728,233.201 338.424,190.19C347.799,186.538 344.64,188.037 352.975,183.763C372.104,173.577 387.453,158.389 395.814,136.048C411.142,170.614 428.264,174.586 463.99,163.35C471.361,159.956 479.827,155.003 481.644,141.755C500.787,158.993 541.311,162.18 570.884,125.867C596.382,155.707 654.276,158.547 676.455,118.72L676.455,118.72ZM766.305,154.712C766.305,154.712 768.008,160.093 769.001,161.756C764.769,161.897 760.098,161.808 760.098,161.808C762.217,160.065 763.924,157.938 766.305,154.712L766.305,154.712Z" style="fill-rule:nonzero;"/></g></g></svg>