<svg width="100%" height="100%" viewBox="0 0 18 16" version="1.1" xmlns="http://www.w3.org/2000/svg" xmlns:xlink="http://www.w3.org/1999/xlink" xml:space="preserve" style="fill-rule:evenodd;clip-rule:evenodd;stroke-miterlimit:10;"><g transform="matrix(0.0516467,0,0,0.0516467,2.47934,4.02682)"><g transform="matrix(20.7914,0,0,22.6127,-46.6132,-96.396)"><path d="M15.532,4.347L15.532,10.983C15.532,12.814 13.915,14.301 11.923,14.301L4.706,14.301C2.714,14.301 1.097,12.814 1.097,10.983L1.097,4.347C1.097,2.516 2.714,1.029 4.706,1.029L11.923,1.029C13.915,1.029 15.532,2.516 15.532,4.347Z" style="fill:rgb(207,70,71);"/></g><path d="M67.53,79.12C67.36,79.38 67.03,80.2 66.58,81.57C66.12,82.95 65.56,84.67 64.9,86.77C64.24,88.84 63.52,91.17 62.76,93.74L60.39,101.62C59.49,104.3 58.79,106.92 57.99,109.5L55.99,116.48L54.49,121.7L53.79,124.2C53.49,125.03 53.19,125.95 52.69,126.97C52.19,127.97 51.59,128.94 50.99,129.85C50.29,130.75 49.59,131.52 48.79,132.12C47.99,132.72 47.19,133.02 46.29,133.02C44.89,133.02 43.89,132.54 43.19,131.62C42.49,130.67 42.19,128.96 42.19,126.46L42.19,124.2C42.19,123.37 42.59,121.8 43.19,119.52C43.79,117.22 44.49,114.64 45.39,111.76C46.19,108.86 47.19,105.88 48.09,102.79L50.79,94.39C48.39,96.99 45.89,99.59 43.19,102.09C40.49,104.69 37.69,106.99 34.89,108.99C31.99,110.99 29.09,112.69 26.19,113.99C23.29,115.29 20.49,115.89 17.79,115.89C14.69,115.89 12.09,115.19 9.89,113.79C7.69,112.39 5.79,110.69 4.39,108.49C2.99,106.29 1.89,103.79 1.19,101.09C0.8,98.5 0.4,95.7 0.4,93L0.4,92C0.4,91.7 0.44,91.37 0.5,91.06C0.74,86.06 1.45,80.96 2.6,75.72C3.8,70.44 5.3,65.22 7.2,60.02C9.1,54.82 11.3,49.72 13.8,44.76C16.4,40 19.1,35.3 22,30.9C24.9,26.5 28.02,22.4 31.3,18.7C34.6,14.98 37.97,11.78 41.44,9.1C44.9,6.4 48.4,4.3 51.94,2.8C55.44,1.3 58.94,0.5 62.4,0.5C66.4,0.5 70.26,1.6 74,3.77C77.7,6 81.2,9.5 84.48,14.4C85.22,15.5 85.68,16.6 85.88,17.72C86.08,18.82 86.18,19.89 86.18,20.87C86.18,23.21 85.63,25.07 84.51,26.41C83.41,27.81 82.11,28.41 80.51,28.41C79.11,28.41 77.81,27.71 76.61,26.21C75.41,24.71 74.01,22.61 72.61,19.91C71.21,17.41 69.71,15.61 68.01,14.51C66.31,13.41 64.51,12.91 62.51,12.91C59.41,12.91 56.21,14.21 52.71,16.81C49.21,19.41 45.81,22.71 42.41,26.91C39.01,31.11 35.71,35.91 32.61,41.31C29.51,46.71 26.71,52.21 24.31,57.91C21.91,63.61 20.01,69.11 18.61,74.61C17.21,80.11 16.51,85.01 16.51,89.41C16.51,90.91 16.61,92.41 16.81,93.91C17.01,95.51 17.41,96.81 17.91,98.11C18.41,99.41 19.21,100.41 20.21,101.21C21.21,102.01 22.41,102.41 23.81,102.41C25.41,102.41 27.31,101.91 29.31,100.81C31.41,99.71 33.51,98.31 35.71,96.51C37.91,94.71 40.21,92.71 42.41,90.51C44.61,88.31 46.81,86.01 48.71,83.71C50.61,81.41 52.41,79.21 53.81,77.11C55.31,75.01 56.41,73.21 57.21,71.61L63,53C63.74,51.03 64.7,49.62 65.93,48.8C67.13,47.96 68.36,47.54 69.63,47.54C70.23,47.54 70.86,47.64 71.48,47.84C72.08,48.04 72.66,48.36 73.15,48.8C73.65,49.2 74.02,49.8 74.31,50.5C74.61,51.2 74.81,52 74.81,53C74.81,55.5 74.61,57.86 74.21,60.04C73.81,62.24 73.21,64.34 72.51,66.44C71.91,68.49 71.11,70.58 70.31,72.69C69.51,74.79 68.71,76.99 67.91,79.29L67.53,79.12ZM150.56,94.4C148.63,97 146.38,99.54 143.82,102C141.25,104.48 138.6,106.68 135.88,108.6C133.16,110.52 130.48,112.07 127.85,113.24C125.21,114.41 122.85,114.99 120.75,114.99C118.65,114.99 116.92,114.29 115.6,112.89C114.28,111.49 113.62,109.09 113.62,105.69C113.62,103.29 113.98,100.49 114.68,97.29C113.54,99.29 112.11,101.39 110.4,103.39C108.7,105.49 106.73,107.39 104.54,109.09C102.34,110.79 99.88,112.19 97.16,113.19C94.44,114.19 91.48,114.79 88.26,114.79C86.83,114.79 85.43,114.59 84.09,114.19C82.69,113.79 81.49,113.19 80.49,112.29C79.49,111.39 78.69,110.19 77.99,108.69C77.39,107.19 77.09,105.29 77.09,103.09L77.29,100.69C77.49,99.19 77.99,96.69 78.99,93.39C79.99,90.09 81.39,85.79 83.39,80.49C85.39,75.19 88.09,68.89 91.69,61.39C92.59,59.39 93.59,57.99 94.89,57.09C96.09,56.19 97.39,55.79 98.79,55.79C99.39,55.79 99.99,55.89 100.69,56.09C101.29,56.19 101.89,56.49 102.49,56.89C103.09,57.29 103.49,57.79 103.89,58.39C104.19,58.89 104.39,59.59 104.39,60.39C104.39,60.89 104.29,61.39 104.19,61.79C103.89,62.69 103.49,63.79 102.79,65.19L100.19,70.13C99.19,71.93 98.19,73.93 97.09,76.05C95.99,78.18 94.99,80.45 94.09,82.67C93.19,84.97 92.39,87.32 91.69,89.67C90.99,92.07 90.59,94.37 90.49,96.57C90.49,97.57 90.69,98.37 91.09,99.17C91.49,99.97 92.29,100.37 93.29,100.37C96.09,100.37 98.89,99.47 101.49,97.57C104.09,95.7 106.49,93.37 108.69,90.59C110.89,87.79 112.89,84.79 114.69,81.59C116.49,78.39 117.89,75.49 119.09,72.85C119.89,71.08 120.69,69.18 121.29,67.15C121.89,65.15 122.59,63.25 123.39,61.55C124.09,59.85 124.99,58.39 125.99,57.25C126.89,56.11 128.09,55.55 129.59,55.55C131.09,55.55 132.39,56.15 133.29,57.35C134.19,58.55 134.69,59.95 134.69,61.65C134.69,62.55 134.39,63.85 133.79,65.45C133.19,67.05 132.49,68.95 131.59,71.05L128.69,77.82C127.59,80.22 126.69,82.62 125.79,85.12C124.89,87.57 124.09,90.02 123.49,92.36C122.89,94.76 122.59,96.96 122.59,98.96C122.59,100.86 123.59,101.76 125.49,101.76C126.89,101.76 128.59,101.36 130.59,100.36C132.59,99.46 134.69,98.16 136.89,96.46C139.09,94.76 141.29,92.76 143.49,90.46C145.69,88.16 147.69,85.72 149.39,83.06L150.09,93.66L150.56,94.4Z" style="fill:white;fill-rule:nonzero;stroke:white;stroke-width:1px;"/><path d="M152.6,90.5C152.12,91.7 151.65,93.1 151.2,94.68C150.73,96.26 150.5,97.68 150.5,98.93C150.5,99.71 150.63,100.33 150.9,100.8C151.16,101.27 151.66,101.5 152.4,101.5C153.33,101.5 154.48,101.18 155.87,100.53C157.25,99.88 158.74,99.03 160.34,97.95C161.94,96.89 163.62,95.67 165.34,94.29C167.08,92.89 168.81,91.39 170.52,89.99C172.22,88.49 173.86,86.99 175.42,85.49C176.98,83.99 178.38,82.59 179.62,81.39C179.96,80.99 180.37,80.79 180.86,80.59C181.34,80.39 181.76,80.29 182.11,80.29C183.01,80.29 183.71,80.59 184.31,81.39C184.91,82.09 185.21,83.09 185.21,84.29C185.21,85.39 184.91,86.59 184.31,87.89C183.71,89.19 182.61,90.49 181.11,91.79C178.31,94.79 175.51,97.69 172.61,100.49C169.81,103.19 166.91,105.69 164.11,107.79C161.31,109.89 158.51,111.49 155.71,112.79C152.91,113.99 150.21,114.59 147.61,114.59C145.81,114.59 144.31,114.29 143.11,113.69C141.91,113.09 141.01,112.29 140.21,111.29C139.51,110.29 139.01,109.09 138.71,107.79C138.41,106.39 138.31,104.99 138.31,103.49C138.31,100.89 138.61,98.29 139.31,95.59C140.01,92.89 140.71,90.39 141.61,88.19C143.21,84.09 144.71,80.09 146.31,76.09L150.71,65.09L170.6,15C171.35,13 172.4,11.58 173.75,10.7C175.11,9.9 176.45,9.5 177.82,9.5C179.22,9.5 180.42,9.9 181.56,10.8C182.66,11.66 183.26,13.1 183.26,15.07C183.26,16 183.06,16.99 182.71,18.03C182.31,19.03 181.91,20.17 181.31,21.36C180.21,23.78 178.91,26.76 177.41,30.3L172.41,41.9C170.71,46.05 168.91,50.4 167.11,54.9L161.71,68.1C159.91,72.38 158.31,76.4 156.81,80.24L152.91,90.17L152.6,90.5Z" style="fill:white;fill-rule:nonzero;stroke:white;stroke-width:1px;"/><path d="M245.9,76.4C246.53,75.97 247.1,75.63 247.63,75.37C248.15,75.11 248.66,74.97 249.13,74.97C250.1,74.97 250.83,75.41 251.31,76.27C251.81,77.13 252.11,78.17 252.11,79.43C252.11,80.78 251.81,82.16 251.21,83.56C250.61,84.96 249.81,86.14 248.61,87.06C243.91,91.23 239.71,95.03 236.11,98.46C232.41,101.89 229.01,104.84 225.71,107.31C222.41,109.81 219.21,111.71 216.11,113.11C213.01,114.51 209.71,115.21 206.11,115.21C202.81,115.21 200.21,114.51 198.41,113.01C196.61,111.61 195.71,109.61 195.71,107.01L195.71,106.41C195.71,106.31 195.81,106.01 195.81,105.81C196.01,104.31 196.71,102.51 197.91,100.41C199.11,98.41 200.51,96.31 202.21,94.11C203.91,91.91 205.71,89.71 207.61,87.51C209.51,85.31 211.21,83.21 212.91,81.21C214.51,79.21 215.81,77.41 216.91,75.71C218.01,74.11 218.51,72.71 218.51,71.71C218.51,71.11 218.31,70.61 217.89,70.21C217.42,69.91 216.69,69.71 215.69,69.71C213.89,69.71 212.09,70.21 210.23,71.11C208.33,72.01 206.47,73.31 204.63,74.81C202.83,76.41 201.03,78.11 199.31,80.11C197.59,82.11 196.01,84.21 194.41,86.31C192.91,88.51 191.51,90.61 190.21,92.81C189.01,95.01 187.91,97.01 187.01,98.81L185.91,101.21L184.41,104.81L182.61,108.81L180.91,112.71L179.51,116.01C179.11,117.01 178.81,117.61 178.61,118.01C178.41,118.51 178.11,119.41 177.61,120.71L175.81,125.29L173.71,130.79L171.71,136.19L170.01,140.77C169.51,142.07 169.21,142.95 169.11,143.42C168.61,144.72 168.11,146.02 167.51,147.22C166.91,148.42 166.26,149.45 165.49,150.36C164.73,151.26 163.85,152.01 162.86,152.56C161.86,153.06 160.76,153.36 159.56,153.36C157.96,153.36 156.66,152.96 155.66,152.24C154.66,151.54 154.06,150.04 154.06,147.94C154.06,146.94 154.16,145.84 154.46,144.74C154.66,143.64 155.06,142.62 155.46,141.54C155.76,140.44 156.26,139.44 156.66,138.44C157.06,137.44 157.46,136.44 157.76,135.48C160.06,130.28 162.51,125.08 164.96,119.82C167.41,114.56 169.76,109.42 172.06,104.32C174.32,99.22 176.41,94.22 178.36,89.22C180.26,84.32 181.86,79.56 183.16,75.02L184.56,71.06C185.16,69.36 185.86,67.66 186.66,66.06C187.46,64.46 188.36,62.96 189.36,61.76C190.36,60.56 191.46,59.93 192.56,59.93C194.36,59.93 195.63,60.33 196.42,61.13C197.22,62.01 197.62,63.13 197.62,64.73C197.62,65.03 197.58,65.53 197.49,66.23C197.39,66.93 197.29,67.63 197.13,68.38L196.7,70.48C196.6,71.18 196.4,71.68 196.3,71.98C197.9,70.22 199.7,68.48 201.58,66.73C203.48,65 205.48,63.43 207.48,62.03C209.48,60.63 211.58,59.43 213.68,58.58C215.78,57.68 217.88,57.23 219.98,57.23C221.48,57.23 222.88,57.43 224.34,57.83C225.74,58.25 227.04,58.86 228.14,59.67C229.31,60.47 230.22,61.47 230.92,62.67C231.62,63.87 231.97,65.3 231.97,66.91C231.97,69.04 231.41,71.31 230.37,73.71C229.27,76.15 227.97,78.61 226.31,81.01C224.71,83.47 222.94,85.85 221.05,88.16C219.15,90.46 217.45,92.56 215.75,94.46L211.55,99.36C210.45,100.66 209.85,101.56 209.83,102.06C209.83,102.66 210.03,103.16 210.43,103.56C210.83,103.96 211.53,104.16 212.43,104.16C213.21,104.16 214.31,103.71 215.73,102.86C217.21,101.96 219.23,100.56 221.83,98.5C224.43,96.4 227.79,93.7 231.8,90.2C235.8,86.74 240.8,82.4 246.67,77.13L245.9,76.4Z" style="fill:white;fill-rule:nonzero;stroke:white;stroke-width:1px;"/></g></svg>