<svg width="100%" height="100%" viewBox="0 0 18 16" version="1.1" xmlns="http://www.w3.org/2000/svg" xmlns:xlink="http://www.w3.org/1999/xlink" xml:space="preserve" style="fill-rule:evenodd;clip-rule:evenodd;stroke-linecap:round;stroke-linejoin:round;stroke-miterlimit:1;"><g id="haml"><g transform="matrix(1.07381,0,0,1.16787,0.071922,-0.951721)"><path d="M15.532,4.347L15.532,10.983C15.532,12.814 13.915,14.301 11.923,14.301L4.706,14.301C2.714,14.301 1.097,12.814 1.097,10.983L1.097,4.347C1.097,2.516 2.714,1.029 4.706,1.029L11.923,1.029C13.915,1.029 15.532,2.516 15.532,4.347Z" style="fill:rgb(62,62,42);"/></g><path d="M4.677,2.119L7.398,7.611L5.986,13.673C5.986,13.673 6.131,14.187 7.14,14.387C8.148,14.587 8.843,14.409 8.843,14.409L9.629,8.036L14.602,3.625L12.995,2.761L8.83,6.268L6.258,1.608L4.677,2.119Z" style="fill:rgb(236,226,169);"/><path d="M9.932,7.846C9.932,7.846 9.793,8.157 10.299,7.797C10.803,7.439 11.933,6.523 12.46,6.15C13.023,5.75 14.088,4.843 14.54,4.486C14.715,4.348 14.503,4.273 14.503,4.273C14.503,4.273 12.935,5.387 12.328,5.839C11.721,6.291 9.932,7.846 9.932,7.846Z" style="fill:rgb(62,62,41);"/><g transform="matrix(0.8322,0.554475,-0.133418,0.200245,2.68631,-5.305)"><ellipse cx="14.307" cy="3.422" rx="0.856" ry="0.585" style="fill:none;stroke:rgb(62,62,41);stroke-width:0.29px;"/></g><path d="M13.67,4.704C13.867,4.841 14.171,4.962 14.27,4.872C14.369,4.781 14.177,4.499 14.05,4.412C13.922,4.326 12.903,3.585 12.736,3.491C12.57,3.397 12.41,3.303 12.317,3.395C12.224,3.488 12.353,3.785 12.489,3.876C12.626,3.968 13.472,4.568 13.67,4.704Z" style="fill:rgb(62,62,41);"/><path d="M8.853,6.599L9.249,6.4L13.538,2.959L13.399,2.755L9.233,6.209L8.853,6.599Z" style="fill:rgb(62,62,41);"/><path d="M6.947,1.894L9.168,6.275L9.328,6.124L7.116,1.496L6.947,1.894Z" style="fill:rgb(62,62,41);"/><path d="M5.246,2.051L7.704,7.505L6.119,13.624L6.196,13.65L8.008,7.468L7.996,7.265L7.856,7.129L5.389,2.109L5.246,2.051Z" style="fill:rgb(62,62,41);"/><g transform="matrix(0.979382,-0.181965,0.12942,0.696569,-0.221695,1.74025)"><ellipse cx="6.257" cy="1.722" rx="0.929" ry="0.205" style="fill:none;stroke:rgb(62,62,41);stroke-width:0.14px;"/></g><path d="M6.701,1.709C6.728,1.792 6.53,1.873 6.53,1.873C6.53,1.873 6.92,1.874 6.977,1.761C7.034,1.649 6.896,1.597 6.896,1.597C6.896,1.597 6.644,1.577 6.507,1.599C6.369,1.621 6.675,1.626 6.701,1.709Z" style="fill:rgb(62,62,41);"/><path d="M5.2,2.535L5.203,2.766L5.478,3.182L7.757,2.621L7.657,2.356L5.2,2.535Z" style="fill:rgb(62,62,41);"/><path d="M7.305,6.041L7.285,4.748L7.045,4.002L6.437,2.893" style="fill:none;stroke:rgb(62,62,41);stroke-width:0.12px;"/><path d="M6.741,4.851C6.741,4.851 6.889,4.56 6.637,4.212C6.385,3.864 6.144,3.729 6.144,3.729" style="fill:none;stroke:rgb(62,62,41);stroke-width:0.12px;"/><path d="M8.529,13.792C8.529,13.792 8.24,13.034 8.239,12.47C8.238,11.907 8.537,11.552 8.633,11.482C8.729,11.411 8.906,11.273 8.906,11.273" style="fill:none;stroke:rgb(62,62,41);stroke-width:0.12px;"/><path d="M9.043,11.729C8.739,11.729 8.627,12.106 8.609,12.429C8.591,12.753 8.728,12.932 8.878,12.93C9.029,12.928 9.218,12.696 9.259,12.313C9.3,11.931 9.249,11.73 9.043,11.729Z" style="fill:none;stroke:rgb(62,62,41);stroke-width:0.12px;"/><path d="M6.16,13.705C6.16,13.705 6.948,14.364 7.709,14.444C8.47,14.524 9.036,14.337 9.036,14.337L10.074,7.981L9.904,7.897L8.842,14.128C8.842,14.128 8.772,14.354 7.885,14.276C6.998,14.197 6.209,13.589 6.209,13.589L6.16,13.705Z" style="fill:rgb(62,62,41);"/><path d="M9.476,10.558L8.741,8.75L8.796,8.653L9.528,10.375L9.476,10.558Z" style="fill:rgb(84,83,57);"/><path d="M13.308,4.584L12.455,5.397L11.697,6.316" style="fill:none;stroke:rgb(95,93,65);stroke-width:0.12px;"/><path d="M12.368,6.157C12.368,6.157 12.273,6.779 12.315,7.007C12.357,7.234 12.56,7.604 13.094,7.72C13.629,7.836 14.062,8.104 14.458,8.38C14.853,8.656 14.934,8.902 14.959,9.141C14.985,9.38 14.471,9.953 14.471,9.953L14.455,10.179C14.455,10.179 15.211,9.673 15.224,9.202C15.237,8.731 14.811,8.146 14.541,7.959C14.27,7.773 13.568,7.493 13.266,7.339C12.964,7.186 12.726,7.08 12.731,6.731C12.736,6.382 12.928,5.752 12.928,5.752L12.368,6.157Z" style="fill:rgb(236,226,169);"/><path d="M9.822,9.229C9.822,9.229 10.303,9.792 11.118,10.043C11.932,10.294 12.498,10.331 12.498,10.331L12.496,10.202C12.496,10.202 11.539,9.93 10.92,9.509C10.301,9.088 9.912,8.669 9.912,8.669L9.822,9.229Z" style="fill:rgb(236,226,169);"/><path d="M12.696,9.642L12.87,9.645L13.024,9.737C13.024,9.737 13.352,9.905 13.815,9.834C14.279,9.762 14.33,9.355 14.33,9.355L14.468,9.327L14.496,10.343C14.496,10.343 14.502,10.503 14.312,10.721C14.122,10.939 13.714,11.193 13.327,11.243C12.94,11.294 12.461,11.105 12.29,10.968C12.119,10.831 12.237,10.698 12.365,10.293C12.493,9.888 12.696,9.642 12.696,9.642ZM12.777,9.867C12.777,9.867 12.558,10.067 12.461,10.341C12.365,10.615 12.301,10.632 12.33,10.757C12.358,10.883 12.782,11.043 13.126,11.014C13.469,10.984 13.783,10.824 13.998,10.62C14.213,10.415 14.291,10.309 14.291,10.309C14.291,10.309 14.088,10.315 14.084,10.193C14.08,10.07 14.364,9.962 14.364,9.962L14.363,9.652C14.363,9.652 14.043,10.057 13.748,10.094C13.453,10.131 13.333,10.079 13.144,10.02C12.955,9.962 12.839,9.833 12.839,9.833L12.777,9.867Z" style="fill:rgb(236,226,169);"/></g></svg>