<svg width="100%" height="100%" viewBox="0 0 18 16" version="1.1" xmlns="http://www.w3.org/2000/svg" xmlns:xlink="http://www.w3.org/1999/xlink" xml:space="preserve" style="fill-rule:evenodd;clip-rule:evenodd;stroke-linejoin:round;stroke-miterlimit:2;"><g id="handlebars" transform="matrix(1.31603,0,0,1.31603,-2.85276,-5.09708)"><g><path d="M8.082,8.836C8.082,8.836 8.082,12.783 8.102,13.25C8.123,13.717 8.659,14.054 9.03,14.036C9.402,14.019 9.898,13.564 9.9,13.292C9.902,13.02 9.877,8.795 9.877,8.795C9.877,8.795 11.828,9.894 12.957,9.827C14.087,9.76 14.509,9.293 14.775,8.942C15.041,8.592 15.237,7.67 14.927,7.154C14.618,6.638 14.312,6.288 13.612,6.267C12.912,6.246 12.501,6.885 12.501,6.885C12.501,6.885 11.421,5.912 10.569,5.869C9.717,5.827 9.004,6.394 9.004,6.394C9.004,6.394 8.263,5.852 7.48,5.88C6.508,5.915 5.493,6.907 5.493,6.907C5.493,6.907 5.174,6.249 4.29,6.272C3.406,6.295 2.881,7.186 2.931,7.978C2.981,8.769 3.543,9.658 4.757,9.781C5.971,9.904 6.604,9.555 6.991,9.355C7.379,9.156 8.082,8.836 8.082,8.836Z" style="fill:white;"/><path d="M8.082,8.836C8.082,8.836 8.082,12.783 8.102,13.25C8.123,13.717 8.659,14.054 9.03,14.036C9.402,14.019 9.898,13.564 9.9,13.292C9.902,13.02 9.877,8.795 9.877,8.795C9.877,8.795 11.828,9.894 12.957,9.827C14.087,9.76 14.509,9.293 14.775,8.942C15.041,8.592 15.237,7.67 14.927,7.154C14.618,6.638 14.312,6.288 13.612,6.267C12.912,6.246 12.501,6.885 12.501,6.885C12.501,6.885 11.421,5.912 10.569,5.869C9.717,5.827 9.004,6.394 9.004,6.394C9.004,6.394 8.263,5.852 7.48,5.88C6.508,5.915 5.493,6.907 5.493,6.907C5.493,6.907 5.174,6.249 4.29,6.272C3.406,6.295 2.881,7.186 2.931,7.978C2.981,8.769 3.543,9.658 4.757,9.781C5.971,9.904 6.604,9.555 6.991,9.355C7.379,9.156 8.082,8.836 8.082,8.836Z" style="fill:white;"/></g><g transform="matrix(0.825654,0,0,1.53388,1.52555,-4.41042)"><path d="M9.368,8.043L9.368,11.44C9.368,11.523 9.243,11.59 9.09,11.59L9.028,11.59C8.875,11.59 8.75,11.523 8.75,11.44L8.75,8.043C8.75,7.961 8.875,7.894 9.028,7.894L9.09,7.894C9.243,7.894 9.368,7.961 9.368,8.043Z" style="fill:rgb(162,156,152);"/></g><g transform="matrix(1.0444,0,0,1.05779,-0.434836,-0.224793)"><g style="filter:url(#_Effect1);"><ellipse cx="9.035" cy="10.393" rx="0.082" ry="1.843" style="fill:white;fill-opacity:0.8;"/></g></g><path d="M9.01,7.993L9.018,7.333C9.018,7.333 8.663,6.528 7.564,6.566C6.538,6.602 6.035,7.286 5.568,7.684C5.15,8.041 5.03,8.145 4.773,8.142C4.516,8.139 4.334,7.909 4.318,7.738C4.303,7.566 4.388,7.386 4.554,7.379C4.85,7.367 4.744,7.737 4.744,7.737C4.744,7.737 4.958,7.591 4.961,7.344C4.965,7.096 4.728,6.943 4.412,6.94C4.096,6.936 3.549,7.191 3.593,7.93C3.636,8.669 4.214,9.192 5.16,9.161C6.133,9.129 7.166,8.555 7.689,8.297C8.28,8.004 9.01,7.993 9.01,7.993Z" style="fill:url(#_Radial2);"/><g transform="matrix(-1,0,0,1,18.3764,0)"><g style="filter:url(#_Effect3);"><path d="M9.9,7.589C9.9,7.589 9.95,6.917 10.935,7.194C11.92,7.471 12.738,8.451 13.082,8.501C13.547,8.57 13.702,8.574 13.54,8.691C13.514,8.71 13.381,8.825 13.015,8.853C12.515,8.893 11.513,8.407 11.061,8.175C10.608,7.942 9.9,7.589 9.9,7.589Z" style="fill:rgb(90,78,66);"/></g></g><g transform="matrix(-1,0,0,1,18.0066,0)"><path d="M9.01,7.993L9.018,7.333C9.018,7.333 8.663,6.528 7.564,6.566C6.538,6.602 6.035,7.286 5.568,7.684C5.15,8.041 5.03,8.145 4.773,8.142C4.516,8.139 4.334,7.909 4.318,7.738C4.303,7.566 4.388,7.386 4.554,7.379C4.85,7.367 4.744,7.737 4.744,7.737C4.744,7.737 4.958,7.591 4.961,7.344C4.965,7.096 4.728,6.943 4.412,6.94C4.096,6.936 3.549,7.191 3.593,7.93C3.636,8.669 4.214,9.192 5.16,9.161C6.133,9.129 7.166,8.555 7.689,8.297C8.28,8.004 9.01,7.993 9.01,7.993Z" style="fill:url(#_Radial4);"/></g><g style="filter:url(#_Effect5);"><path d="M9.9,7.589C9.9,7.589 9.95,6.917 10.935,7.194C11.92,7.471 12.738,8.451 13.082,8.501C13.547,8.57 13.702,8.574 13.54,8.691C13.514,8.71 13.381,8.825 13.015,8.853C12.515,8.893 11.513,8.407 11.061,8.175C10.608,7.942 9.9,7.589 9.9,7.589Z" style="fill:rgb(90,78,66);"/></g></g><defs><filter id="_Effect1" filterUnits="userSpaceOnUse" x="8.41686" y="8.02036" width="1.23609" height="4.7443"><feGaussianBlur in="SourceGraphic" stdDeviation="0.0887726"/></filter><radialGradient id="_Radial2" cx="0" cy="0" r="1" gradientUnits="userSpaceOnUse" gradientTransform="matrix(-1.44983,0.782155,-0.782155,-1.44983,7.5176,7.45978)"><stop offset="0" style="stop-color:rgb(90,77,65);stop-opacity:1"/><stop offset="1" style="stop-color:rgb(50,34,20);stop-opacity:1"/></radialGradient><filter id="_Effect3" filterUnits="userSpaceOnUse" x="8.72065" y="5.94762" width="6.0609" height="4.08744"><feGaussianBlur in="SourceGraphic" stdDeviation="0.196569"/></filter><radialGradient id="_Radial4" cx="0" cy="0" r="1" gradientUnits="userSpaceOnUse" gradientTransform="matrix(-1.44983,0.782155,-0.782155,-1.44983,7.5176,7.45978)"><stop offset="0" style="stop-color:rgb(90,77,65);stop-opacity:1"/><stop offset="1" style="stop-color:rgb(50,34,20);stop-opacity:1"/></radialGradient><filter id="_Effect5" filterUnits="userSpaceOnUse" x="8.72065" y="5.94762" width="6.0609" height="4.08744"><feGaussianBlur in="SourceGraphic" stdDeviation="0.196569"/></filter></defs></svg>