<svg width="100%" height="100%" viewBox="0 0 18 16" version="1.1" xmlns="http://www.w3.org/2000/svg" xmlns:xlink="http://www.w3.org/1999/xlink" xml:space="preserve" style="fill-rule:evenodd;clip-rule:evenodd;stroke-linejoin:round;stroke-miterlimit:2;"><g id="haskell" transform="matrix(0.142637,0,0,0.142637,1.23726,2.20473)"><path d="M1.842,77.722L26.586,40.63L1.842,3.537L20.4,3.537L45.144,40.63L20.4,77.722L1.842,77.722Z" style="fill:rgb(69,58,98);fill-rule:nonzero;"/><path d="M26.586,77.722L51.33,40.63L26.586,3.537L45.144,3.537L94.63,77.722L76.074,77.722L60.61,54.54L45.143,77.722L26.586,77.722Z" style="fill:rgb(94,80,134);fill-rule:nonzero;"/><path d="M86.384,56.085L78.136,43.72L107.004,43.72L107.004,56.086L86.384,56.086L86.384,56.085ZM74.012,37.54L65.764,25.175L107.004,25.175L107.004,37.54L74.012,37.54Z" style="fill:rgb(143,78,139);fill-rule:nonzero;"/></g></svg>