<svg width="100%" height="100%" viewBox="0 0 18 16" version="1.1" xmlns="http://www.w3.org/2000/svg" xmlns:xlink="http://www.w3.org/1999/xlink" xml:space="preserve" style="fill-rule:evenodd;clip-rule:evenodd;stroke-linejoin:round;stroke-miterlimit:2;"><g id="heft" transform="matrix(0.210482,0,0,0.210482,-7.05969,6.36994)"><g transform="matrix(1,0,0,1,-296.688,-387.556)"><path d="M378.598,369.973C378.209,369.584 378.856,366.9 379.684,365.158C380.742,362.931 380.739,359.749 380.964,359.674C381.475,359.504 382.93,362.98 383.08,363.655C383.302,364.657 383.753,368.853 382.408,371.003L378.598,369.973Z" style="fill:rgb(117,112,111);fill-rule:nonzero;"/></g><g transform="matrix(1,0,0,1,-296.688,-387.556)"><path d="M373.716,368.729C368.654,368.999 365.772,368.28 359.885,371.261C361.564,371.036 369.295,371.746 370.961,372.51L373.716,368.729Z" style="fill:rgb(219,113,74);fill-rule:nonzero;"/></g><g transform="matrix(1,0,0,1,-296.688,-387.556)"><path d="M375.225,369.057C379.173,367.121 387.935,365.485 391.326,368.455C389.57,367.981 387.726,367.928 385.945,368.301C387.428,368.426 388.783,369.198 389.647,370.409C386.19,369.372 384.687,369.98 383.443,370.56C382.674,370.918 375.225,369.057 375.225,369.057Z" style="fill:rgb(219,113,74);fill-rule:nonzero;"/></g><g transform="matrix(1,0,0,1,-296.688,-387.556)"><path d="M407.633,392.677C407.117,391.764 406.506,390.908 405.809,390.124C405.197,389.661 403.617,388.536 401.947,387.12C399.538,384.973 397.3,382.641 395.253,380.147C393.95,378.531 394.38,376.976 393,375.426C392.562,374.934 391.064,374.458 389.653,373.452C389.236,373.155 389.119,372.766 388.687,372.444C386.828,370.984 384.868,369.656 382.822,368.469C381.623,368.084 380.344,368.012 379.109,368.262C378.715,368.234 378.454,368.197 378.341,368.062C377.878,365.556 377.662,363.011 377.695,360.464C377.191,360.35 376.745,360.792 376.435,361.205C374.864,363.445 373.689,365.938 372.96,368.575C371.506,369.848 367.377,372.237 365.129,375.696C361.298,382.084 357.932,388.74 355.058,395.612C353.775,399.076 350.82,418.901 349.394,426.954C349.254,427.749 364.827,430.933 364.827,430.933L395.21,430.933C394.665,428.217 393.875,425.52 392.027,423.506C391.23,422.636 390.268,421.936 389.396,421.142C385.543,417.635 383.615,412.499 382.385,407.437C381.644,404.389 381.099,401.28 380.352,398.236C382.507,398.049 384.649,397.728 386.765,397.275C388.711,397.22 390.652,397.494 392.507,398.084C394.395,398.663 396.004,399.028 397.191,399.464C397.69,399.648 398.263,401.703 399.48,402.44C400.77,403.22 401.947,402.247 403.342,402.118C404.311,402.028 404.672,401.066 405.101,400.83C405.947,400.583 406.677,400.043 407.161,399.307C407.95,398.123 407.226,396.797 407.161,395.574C407.139,395.158 407.8,393.059 407.633,392.677Z" style="fill:rgb(117,112,111);fill-rule:nonzero;"/></g><g transform="matrix(1,0,0,1,-296.688,-387.556)"><path d="M353.647,374.643C356.032,375.179 358.451,376.851 360.862,376.447C359.185,377.636 353.394,379.362 347.129,380.435C348.508,380.764 349.907,381.001 351.317,381.144C351.34,381.214 346.314,382.58 346.185,385.155C348.502,382.495 352.569,384.584 355,383.086C351.496,385.847 347.534,390.201 341.747,386.518C342.223,387.996 345.78,389.65 347.334,389.8C343.876,390.589 340.714,393.207 340.563,395.287C341.766,393.22 343.526,393.007 344.678,394.009C343.945,394.272 341.171,396.464 341.171,398.932C343.845,396.245 346.983,397.328 348.912,396.439C349.037,397.616 343.726,402.264 338.415,404.218C342.674,404.468 342.868,403.341 345.63,402.915C342.924,405.032 343.526,413.049 338.315,412.347C340.82,414.151 344.004,413.603 345.43,413.149C344.077,416.456 342.774,420.314 340.018,424.272C341.245,423.595 342.609,423.205 344.008,423.13C342.653,426.372 341.131,429.725 340.012,430.933L364.829,430.933C364.829,430.933 354.721,428.362 356.007,421.383C356.738,423.883 358.83,425.761 361.394,426.219C359.392,424.09 358.088,421.397 357.66,418.505C357.231,415.613 360.047,419.638 362.068,420.403C356.802,414.403 356.741,409.872 356.496,408.403C357.966,409 359.251,411.357 360.537,413.607C361.394,408.77 359.068,405.326 357.001,400.551C358.247,401.669 359.954,402.13 361.593,401.791C356.382,398.944 358.831,391.369 358.991,391.754C360.384,395.087 361.134,394.719 361.869,394.949C360.767,393.617 360.17,387.801 360.905,386.24C360.996,387.893 362.787,389.01 362.527,388.566C361.699,387.153 363.476,381.525 365.251,377.73C366.683,375.043 368.477,372.566 370.583,370.367C372.689,368.169 360.255,374.686 353.647,374.643Z" style="fill:rgb(219,113,74);fill-rule:nonzero;"/></g></g></svg>