<svg width="100%" height="100%" viewBox="0 0 18 16" version="1.1" xmlns="http://www.w3.org/2000/svg" xmlns:xlink="http://www.w3.org/1999/xlink" xml:space="preserve" style="fill-rule:evenodd;clip-rule:evenodd;stroke-linejoin:round;stroke-miterlimit:2;"><g id="helm-dark" transform="matrix(0.0428722,0,0,0.0428722,2.01462,-1.70072)"><path d="M11.679,189L31.464,189L31.464,215.789L55.368,215.789L55.368,189L75.154,189L75.154,264.25L55.368,264.25L55.368,235.555L31.464,235.555L31.464,264.25L11.679,264.25L11.679,189ZM97.852,264.25L97.852,189L144.655,189L144.655,205.354L117.638,205.354L117.638,217.595L141.542,217.595L141.542,234.25L117.638,234.25L117.638,248.096L144.655,248.096L144.655,264.25L97.852,264.25ZM166.35,264.25L166.35,189L186.135,189L186.135,244.384L213.253,244.384L213.253,264.25L166.35,264.25ZM243.886,189L274.619,216.893L305.252,189L314.191,189L314.191,264.25L294.305,264.25L294.305,225.622L274.619,243.581L254.833,225.722L254.833,264.25L234.947,264.25L234.947,189L243.886,189Z" style="fill:rgb(15,22,137);"/><g transform="matrix(1,0,0,-1,11.9581,455)"><g><g><g transform="matrix(0.819152,0.573576,-0.573576,0.819152,111.87,-51.7066)"><path d="M203.461,95.688C210.397,95.688 216.02,80.878 216.02,62.61C216.02,44.342 210.397,29.533 203.461,29.533C196.524,29.533 190.901,44.342 190.901,62.61C190.901,80.878 196.524,95.688 203.461,95.688Z" style="fill:rgb(15,22,137);"/></g><g transform="matrix(-0.819152,0.573576,0.573576,0.819152,58.0846,47.7048)"><path d="M30.142,95.688C37.079,95.688 42.702,80.878 42.702,62.61C42.702,44.342 37.079,29.533 30.142,29.533C23.206,29.533 17.583,44.342 17.583,62.61C17.583,80.878 23.206,95.688 30.142,95.688Z" style="fill:rgb(15,22,137);"/></g><g transform="matrix(-1,0,0,1,272.629,53.6708)"><path d="M116.733,66.275C123.669,66.275 129.292,51.466 129.292,33.198C129.292,14.93 123.669,0.121 116.733,0.121C109.797,0.121 104.174,14.93 104.174,33.198C104.174,51.466 109.797,66.275 116.733,66.275Z" style="fill:rgb(15,22,137);"/></g></g></g><path d="M254.025,158.867C231.211,127.436 194.324,107.032 152.711,107.032C111.098,107.032 74.212,127.436 51.397,158.867L77.478,158.867C96.604,139.224 123.243,127.032 152.711,127.032C182.18,127.032 208.819,139.224 227.944,158.867L254.025,158.867Z" style="fill:rgb(15,22,137);"/></g><g transform="matrix(1,0,0,1,17.0017,0.05149)"><g><g><g transform="matrix(0.819152,0.573576,-0.573576,0.819152,111.87,-54.166)"><path d="M203.461,95.688C210.397,95.688 216.02,80.878 216.02,62.61C216.02,44.342 210.397,29.533 203.461,29.533C196.524,29.533 190.901,44.342 190.901,62.61C190.901,80.878 196.524,95.688 203.461,95.688Z" style="fill:rgb(15,22,137);"/></g><g transform="matrix(-0.819152,0.573576,0.573576,0.819152,58.0846,45.2453)"><path d="M30.142,95.688C37.079,95.688 42.702,80.878 42.702,62.61C42.702,44.342 37.079,29.533 30.142,29.533C23.206,29.533 17.583,44.342 17.583,62.61C17.583,80.878 23.206,95.688 30.142,95.688Z" style="fill:rgb(15,22,137);"/></g><g transform="matrix(-1,0,0,1,272.629,51.2113)"><path d="M116.733,66.275C123.669,66.275 129.292,51.466 129.292,33.198C129.292,14.93 123.669,0.121 116.733,0.121C109.797,0.121 104.174,14.93 104.174,33.198C104.174,51.466 109.797,66.275 116.733,66.275Z" style="fill:rgb(15,22,137);"/></g></g></g><path d="M49.788,158.676C72.454,125.962 110.105,104.572 152.711,104.572C195.317,104.572 232.969,125.962 255.634,158.676L230.09,158.676C210.837,137.708 183.299,124.572 152.711,124.572C122.124,124.572 94.585,137.708 75.332,158.676L49.788,158.676Z" style="fill:rgb(15,22,137);"/></g></g></svg>