<svg width="100%" height="100%" viewBox="0 0 18 16" version="1.1" xmlns="http://www.w3.org/2000/svg" xmlns:xlink="http://www.w3.org/1999/xlink" xml:space="preserve" style="fill-rule:evenodd;clip-rule:evenodd;stroke-linejoin:round;stroke-miterlimit:2;"><g id="hex"><g transform="matrix(9.59329e-17,-1.5667,2.10784,1.29068e-16,-2.14013,17.7369)"><path d="M4.135,5.041L4.135,6.165L2.079,7.06L2.079,5.589L3.735,4.869L4.135,5.041Z" style="fill:rgb(98,58,147);"/></g><path d="M9.64,14.48L6.623,14.48L8.123,11.885L9.64,14.48Z" style="fill:rgb(103,60,151);"/><path d="M6.623,14.48L5.253,14.48L7.129,11.244L7.137,11.259L7.757,11.259L8.123,11.885L6.623,14.48Z" style="fill:rgb(114,69,155);"/><path d="M7.757,11.259L8.486,11.259L8.123,11.885L7.757,11.259Z" style="fill:rgb(110,68,155);"/><g transform="matrix(9.59329e-17,-1.5667,2.10784,1.29068e-16,-2.14013,17.7369)"><path d="M6.211,8.842L6.214,7.052L4.135,6.169L4.135,6.165L2.079,7.06L2.079,7.065L6.211,8.842Z" style="fill:rgb(103,135,197);"/></g><g transform="matrix(9.59329e-17,-1.5667,2.10784,1.29068e-16,-2.14013,17.7369)"><path d="M10.347,7.066L8.295,6.169L6.215,7.053L6.214,7.052L6.211,8.842L6.215,8.844L10.347,7.066Z" style="fill:rgb(122,188,66);"/></g><path d="M13.439,2.708L11.553,5.949L11.763,6.316L13.644,3.063L13.439,2.708Z" style="fill:url(#_Linear1);"/><path d="M6.277,1.52L12.751,1.52L12.754,1.526L11.39,3.846L10.854,4.741L7.137,4.741L7.12,4.771L5.756,2.408L6.277,1.52Z" style="fill:rgb(235,232,31);"/><path d="M2.682,10.045L1.983,8.837L2.473,8.002L3.959,8.002L2.682,10.045Z" style="fill:rgb(166,29,57);"/><path d="M5.276,8.002L7.129,11.244L5.253,14.48L5.249,14.48L2.682,10.045L3.959,8.002L5.276,8.002Z" style="fill:rgb(170,33,61);"/><path d="M7.12,4.771L6.24,6.31L4.831,3.983L5.756,2.408L7.12,4.771Z" style="fill:rgb(234,170,31);"/><path d="M5.636,7.367L5.274,8L5.276,8.002L2.473,8.002L4.194,5.069L5.636,7.367Z" style="fill:rgb(235,171,32);"/><path d="M6.24,6.31L5.636,7.367L4.194,5.069L4.831,3.983L6.24,6.31Z" style="fill:rgb(236,175,30);"/><g transform="matrix(9.59329e-17,-1.5667,2.10784,1.29068e-16,-2.14013,17.7369)"><path d="M5.681,1.956L6.214,1.727L6.214,2.189L5.681,1.956Z" style="fill:rgb(176,37,68);"/></g><g transform="matrix(9.59329e-17,-1.5667,2.10784,1.29068e-16,-2.14013,17.7369)"><path d="M6.214,1.727L6.215,1.726L8.614,2.758L8.086,3.005L6.214,2.189L6.214,1.727Z" style="fill:rgb(236,179,37);"/></g><g transform="matrix(9.59329e-17,-1.5667,2.10784,1.29068e-16,-2.14013,17.7369)"><path d="M10.347,3.504L10.351,3.506L10.351,3.993L9.784,3.746L10.347,3.504Z" style="fill:rgb(236,233,46);"/></g><g transform="matrix(9.59329e-17,-1.5667,2.10784,1.29068e-16,-2.14013,17.7369)"><path d="M8.614,2.758L9.322,3.063L8.779,3.307L8.086,3.005L8.614,2.758Z" style="fill:rgb(237,180,39);"/></g><g transform="matrix(9.59329e-17,-1.5667,2.10784,1.29068e-16,-2.14013,17.7369)"><path d="M9.322,3.063L10.347,3.504L9.784,3.746L8.779,3.307L9.322,3.063Z" style="fill:rgb(237,186,49);"/></g></g><defs><linearGradient id="_Linear1" x1="0" y1="0" x2="1" y2="0" gradientUnits="userSpaceOnUse" gradientTransform="matrix(-1.71878,3.03869,-3.03869,-1.71878,13.4356,3.00156)"><stop offset="0" style="stop-color:rgb(131,194,69);stop-opacity:1"/><stop offset="1" style="stop-color:rgb(105,176,69);stop-opacity:1"/></linearGradient></defs></svg>