<svg width="100%" height="100%" viewBox="0 0 18 16" version="1.1" xmlns="http://www.w3.org/2000/svg" xmlns:xlink="http://www.w3.org/1999/xlink" xml:space="preserve" style="fill-rule:evenodd;clip-rule:evenodd;stroke-linejoin:round;stroke-miterlimit:2;"><g id="hex"><g transform="matrix(9.59329e-17,-1.5667,2.10784,1.29068e-16,-2.14013,17.7369)"><path d="M4.135,6.165L2.079,7.06L2.079,3.507L4.144,4.397L4.135,4.401L4.135,6.165Z" style="fill:rgb(98,58,147);"/></g><path d="M9.64,14.48L5.253,14.48L7.129,11.244L7.137,11.259L7.757,11.259L9.64,14.48Z" style="fill:rgb(104,62,153);fill-opacity:0.1;"/><path d="M6.623,14.48L5.253,14.48L7.129,11.244L7.137,11.259L8.486,11.259L6.623,14.48Z" style="fill:rgb(120,76,168);fill-opacity:0.23;"/><g transform="matrix(9.59329e-17,-1.5667,2.10784,1.29068e-16,-2.14013,17.7369)"><path d="M6.211,8.842L6.214,7.052L4.135,6.169L4.135,6.165L2.079,7.06L2.079,7.065L6.211,8.842Z" style="fill:rgb(103,135,197);"/></g><g transform="matrix(9.59329e-17,-1.5667,2.10784,1.29068e-16,-2.14013,17.7369)"><path d="M10.347,7.066L8.295,6.169L6.215,7.053L6.214,7.052L6.211,8.842L6.215,8.844L10.347,7.066Z" style="fill:rgb(122,188,66);"/></g><path d="M13.439,2.708L11.553,5.949L11.763,6.316L13.644,3.063L13.439,2.708Z" style="fill:url(#_Linear1);"/><path d="M7.12,4.771L5.246,1.526L5.249,1.52L12.751,1.52L12.754,1.526L11.39,3.846L10.854,4.741L7.137,4.741L7.12,4.771Z" style="fill:rgb(235,232,31);"/><path d="M5.253,14.48L5.249,14.48L1.499,8.002L5.276,8.002L7.129,11.244L5.253,14.48Z" style="fill:rgb(170,32,61);"/><path d="M2.682,10.045L3.959,8.002L5.276,8.002L7.129,11.244L5.253,14.48L5.249,14.48L2.682,10.045Z" style="fill:rgb(170,32,61);fill-opacity:0.03;"/><path d="M1.499,8.002L1.498,8L5.246,1.526L7.12,4.771L5.274,8L5.276,8.002L1.499,8.002Z" style="fill:rgb(236,172,30);"/><path d="M6.24,6.31L5.274,8L5.276,8.002L1.499,8.002L1.498,8L4.316,3.132L6.24,6.31Z" style="fill:rgb(239,181,34);fill-opacity:0.15;"/><path d="M5.636,7.367L3.674,4.241L4.316,3.132L6.24,6.31L5.636,7.367Z" style="fill:rgb(240,184,36);fill-opacity:0.07;"/><g transform="matrix(9.59329e-17,-1.5667,2.10784,1.29068e-16,-2.14013,17.7369)"><path d="M5.681,1.956L6.215,1.726L10.351,3.506L10.351,3.993L5.681,1.956Z" style="fill:rgb(236,172,30);fill-opacity:0.09;"/></g></g><defs><linearGradient id="_Linear1" x1="0" y1="0" x2="1" y2="0" gradientUnits="userSpaceOnUse" gradientTransform="matrix(-1.71878,3.03869,-3.03869,-1.71878,13.4356,3.00156)"><stop offset="0" style="stop-color:rgb(131,194,69);stop-opacity:1"/><stop offset="1" style="stop-color:rgb(105,176,69);stop-opacity:1"/></linearGradient></defs></svg>