<svg width="100%" height="100%" viewBox="0 0 18 16" version="1.1" xmlns="http://www.w3.org/2000/svg" xmlns:xlink="http://www.w3.org/1999/xlink" xml:space="preserve" style="fill-rule:evenodd;clip-rule:evenodd;stroke-linejoin:round;stroke-miterlimit:2;"><g id="hugginface" transform="matrix(0.172244,0,0,0.172244,7.49233,6.66458)"><g transform="matrix(1,0,0,1,-38.7069,-35.8869)"><path d="M47.21,76.5C66.273,76.5 81.96,60.813 81.96,41.75C81.96,22.687 66.273,7 47.21,7C28.147,7 12.46,22.687 12.46,41.75C12.46,60.813 28.147,76.5 47.21,76.5Z" style="fill:rgb(255,210,30);fill-rule:nonzero;"/></g><g transform="matrix(1,0,0,1,-38.7069,-35.8869)"><path d="M81.96,41.75C81.96,22.687 66.273,7 47.21,7C28.147,7 12.46,22.687 12.46,41.75C12.46,60.813 28.147,76.5 47.21,76.5C66.273,76.5 81.96,60.813 81.96,41.75ZM8.46,41.75C8.46,20.492 25.952,3 47.21,3C68.468,3 85.96,20.492 85.96,41.75C85.96,63.008 68.468,80.5 47.21,80.5C25.952,80.5 8.46,63.008 8.46,41.75Z" style="fill:rgb(255,157,11);fill-rule:nonzero;"/></g><g transform="matrix(1,0,0,1,-38.7069,-35.8869)"><path d="M58.5,32.3C59.78,32.74 60.28,35.36 61.57,34.68C63.202,33.814 64.225,32.111 64.225,30.264C64.225,27.521 61.968,25.264 59.225,25.264C56.482,25.264 54.225,27.521 54.225,30.264C54.225,31.082 54.426,31.888 54.81,32.61C55.42,33.76 57.36,31.89 58.51,32.29L58.5,32.3ZM34.95,32.3C33.67,32.74 33.16,35.36 31.88,34.68C30.248,33.814 29.225,32.111 29.225,30.264C29.225,27.521 31.482,25.264 34.225,25.264C36.968,25.264 39.225,27.521 39.225,30.264C39.225,31.082 39.024,31.888 38.64,32.61C38.03,33.76 36.08,31.89 34.94,32.29L34.95,32.3Z" style="fill:rgb(58,59,69);fill-rule:nonzero;"/></g><g transform="matrix(1,0,0,1,-38.7069,-35.8869)"><path d="M46.96,56.29C56.79,56.29 59.96,47.53 59.96,43.03C59.96,40.69 58.39,41.43 55.87,42.67C53.54,43.82 50.41,45.41 46.97,45.41C39.78,45.41 33.97,38.53 33.97,43.03C33.97,47.53 37.13,56.29 46.97,56.29L46.96,56.29Z" style="fill:rgb(255,50,61);fill-rule:nonzero;"/></g><g transform="matrix(1,0,0,1,-38.7069,-35.8869)"><path d="M39.43,54C40.496,51.833 42.418,50.206 44.73,49.51C45.13,49.39 45.54,50.08 45.97,50.79C46.37,51.47 46.79,52.16 47.21,52.16C47.66,52.16 48.11,51.48 48.54,50.81C48.99,50.11 49.43,49.43 49.86,49.56C52.007,50.242 53.804,51.74 54.86,53.73C58.59,50.79 59.96,45.99 59.96,43.03C59.96,40.69 58.39,41.43 55.87,42.67L55.73,42.74C53.42,43.89 50.34,45.41 46.96,45.41C43.58,45.41 40.51,43.89 38.19,42.74C35.59,41.45 33.96,40.64 33.96,43.03C33.96,46.08 35.42,51.09 39.43,54Z" style="fill:rgb(58,59,69);"/></g><g transform="matrix(1,0,0,1,-38.7069,-35.8869)"><path d="M70.71,37C72.493,37 73.96,35.533 73.96,33.75C73.96,31.967 72.493,30.5 70.71,30.5C68.927,30.5 67.46,31.967 67.46,33.75C67.46,35.533 68.927,37 70.71,37ZM24.21,37C25.993,37 27.46,35.533 27.46,33.75C27.46,31.967 25.993,30.5 24.21,30.5C22.427,30.5 20.96,31.967 20.96,33.75C20.96,35.533 22.427,37 24.21,37ZM17.52,48C15.9,48 14.46,48.66 13.45,49.87C12.589,50.934 12.119,52.262 12.12,53.63C11.49,53.441 10.837,53.34 10.18,53.33C8.63,53.33 7.23,53.92 6.24,54.99C4.43,56.87 4.101,59.75 5.44,61.99C4.555,62.712 3.927,63.702 3.65,64.81C3.41,65.71 3.17,67.61 4.45,69.55C3.476,71.048 3.336,72.946 4.08,74.57C5.1,76.89 7.65,78.71 12.6,80.67C15.67,81.89 18.49,82.67 18.51,82.68C22.072,83.667 25.744,84.204 29.44,84.28C35.3,84.28 39.49,82.48 41.9,78.94C45.78,73.25 45.23,68.04 40.2,63.02C37.43,60.24 35.58,56.15 35.2,55.25C34.42,52.59 32.36,49.63 28.95,49.63C27.111,49.659 25.395,50.577 24.35,52.09C23.35,50.83 22.37,49.84 21.49,49.27C20.316,48.475 18.938,48.034 17.52,48ZM17.52,52C18.03,52 18.66,52.22 19.34,52.65C21.48,54.01 25.59,61.08 27.1,63.83C27.6,64.75 28.47,65.14 29.24,65.14C30.79,65.14 31.99,63.61 29.39,61.66C25.47,58.73 26.84,53.94 28.71,53.65C28.79,53.63 28.88,53.63 28.95,53.63C30.65,53.63 31.4,56.56 31.4,56.56C31.4,56.56 33.6,62.08 37.38,65.86C41.15,69.63 41.35,72.66 38.6,76.69C36.72,79.44 33.13,80.27 29.44,80.27C25.63,80.27 21.71,79.37 19.52,78.81C19.41,78.78 6.07,75.01 7.76,71.81C8.04,71.27 8.51,71.05 9.1,71.05C11.48,71.05 15.8,74.59 17.67,74.59C18.08,74.59 18.37,74.42 18.5,73.99C19.29,71.14 6.44,69.94 7.52,65.82C7.72,65.09 8.23,64.8 8.96,64.8C12.1,64.8 19.16,70.33 20.64,70.33C20.75,70.33 20.84,70.3 20.88,70.23C21.62,69.03 21.21,68.19 15.98,65.03C10.77,61.87 7.1,59.97 9.18,57.7C9.42,57.44 9.76,57.32 10.18,57.32C13.35,57.32 20.84,64.14 20.84,64.14C20.84,64.14 22.86,66.24 24.09,66.24C24.37,66.24 24.61,66.14 24.77,65.86C25.63,64.4 16.71,57.64 16.21,54.85C15.87,52.95 16.45,52 17.52,52Z" style="fill:rgb(255,157,11);fill-rule:nonzero;"/></g><g transform="matrix(1,0,0,1,-38.7069,-35.8869)"><path d="M38.6,76.69C41.35,72.65 41.15,69.62 37.38,65.85C33.6,62.08 31.4,56.55 31.4,56.55C31.4,56.55 30.58,53.35 28.71,53.65C26.84,53.95 25.47,58.73 29.39,61.66C33.3,64.59 28.61,66.58 27.1,63.83C25.6,61.08 21.48,54.01 19.34,52.65C17.21,51.3 15.71,52.05 16.21,54.85C16.71,57.64 25.64,64.4 24.77,65.85C23.9,67.32 20.84,64.14 20.84,64.14C20.84,64.14 11.27,55.43 9.18,57.7C7.1,59.97 10.77,61.87 15.98,65.03C21.21,68.19 21.62,69.03 20.88,70.23C20.13,71.43 8.6,61.7 7.52,65.83C6.44,69.94 19.29,71.13 18.5,73.98C17.7,76.83 9.44,68.6 7.76,71.8C6.06,75.01 19.41,78.78 19.52,78.81C23.82,79.93 34.77,82.3 38.6,76.69Z" style="fill:rgb(255,210,30);fill-rule:nonzero;"/></g><g transform="matrix(1,0,0,1,-38.7069,-35.8869)"><path d="M77.4,48C79.02,48 80.47,48.66 81.47,49.87C82.331,50.934 82.801,52.262 82.8,53.63C83.433,53.44 84.089,53.339 84.75,53.33C86.3,53.33 87.7,53.92 88.69,54.99C90.5,56.87 90.829,59.75 89.49,61.99C90.371,62.714 90.996,63.703 91.27,64.81C91.51,65.71 91.75,67.61 90.47,69.55C91.444,71.048 91.584,72.946 90.84,74.57C89.82,76.89 87.27,78.71 82.33,80.67C79.25,81.89 76.43,82.67 76.41,82.68C72.848,83.667 69.176,84.204 65.48,84.28C59.62,84.28 55.43,82.48 53.02,78.94C49.14,73.25 49.69,68.04 54.72,63.02C57.5,60.24 59.35,56.15 59.73,55.25C60.51,52.59 62.56,49.63 65.97,49.63C67.809,49.659 69.525,50.577 70.57,52.09C71.57,50.83 72.55,49.84 73.44,49.27C74.611,48.477 75.986,48.036 77.4,48ZM77.4,52C76.89,52 76.27,52.22 75.58,52.65C73.45,54.01 69.33,61.08 67.82,63.83C67.405,64.629 66.58,65.134 65.68,65.14C64.14,65.14 62.93,63.61 65.54,61.66C69.45,58.73 68.08,53.94 66.21,53.65C66.131,53.637 66.05,53.63 65.97,53.63C64.27,53.63 63.52,56.56 63.52,56.56C63.52,56.56 61.32,62.08 57.55,65.86C53.77,69.63 53.57,72.66 56.33,76.69C58.2,79.44 61.8,80.27 65.48,80.27C69.3,80.27 73.21,79.37 75.41,78.81C75.51,78.78 88.86,75.01 87.17,71.81C86.88,71.27 86.42,71.05 85.83,71.05C83.45,71.05 79.12,74.59 77.26,74.59C76.84,74.59 76.55,74.42 76.43,73.99C75.63,71.14 88.48,69.94 87.4,65.82C87.21,65.09 86.7,64.8 85.96,64.8C82.82,64.8 75.76,70.33 74.28,70.33C74.18,70.33 74.09,70.3 74.05,70.23C73.31,69.03 73.71,68.19 78.93,65.03C84.16,61.87 87.83,59.97 85.73,57.7C85.5,57.44 85.16,57.32 84.75,57.32C81.57,57.32 74.08,64.14 74.08,64.14C74.08,64.14 72.06,66.24 70.84,66.24C70.56,66.253 70.296,66.105 70.16,65.86C69.29,64.4 78.21,57.64 78.71,54.85C79.05,52.95 78.47,52 77.4,52Z" style="fill:rgb(255,157,11);fill-rule:nonzero;"/></g><g transform="matrix(1,0,0,1,-38.7069,-35.8869)"><path d="M56.33,76.69C53.58,72.65 53.77,69.62 57.55,65.85C61.32,62.08 63.52,56.55 63.52,56.55C63.52,56.55 64.34,53.35 66.22,53.65C68.08,53.95 69.45,58.73 65.54,61.66C61.62,64.59 66.32,66.58 67.82,63.83C69.33,61.08 73.45,54.01 75.58,52.65C77.71,51.3 79.22,52.05 78.71,54.85C78.21,57.64 69.29,64.4 70.16,65.85C71.02,67.32 74.08,64.14 74.08,64.14C74.08,64.14 83.66,55.43 85.74,57.7C87.82,59.97 84.16,61.87 78.94,65.03C73.71,68.19 73.31,69.03 74.04,70.23C74.79,71.43 86.32,61.7 87.4,65.83C88.48,69.94 75.64,71.13 76.43,73.98C77.23,76.83 85.48,68.6 87.17,71.8C88.86,75.01 75.52,78.78 75.41,78.81C71.1,79.93 60.15,82.3 56.33,76.69Z" style="fill:rgb(255,210,30);fill-rule:nonzero;"/></g></g></svg>