<svg width="100%" height="100%" viewBox="0 0 18 16" version="1.1" xmlns="http://www.w3.org/2000/svg" xmlns:xlink="http://www.w3.org/1999/xlink" xml:space="preserve" style="fill-rule:evenodd;clip-rule:evenodd;"><g id="hugo" transform="matrix(0.0388928,0,0,0.0388928,2.26008,0.329888)"><path d="M195.81,24.13L310.22,90.67C323.751,98.539 332.102,113.057 332.1,128.71L332.1,265.14C332.098,282.449 322.733,298.468 307.65,306.96L194.1,370.9C179.049,379.373 160.59,379.285 145.62,370.67L41.05,310.48C24.64,301.034 14.491,283.485 14.49,264.55L14.49,135.08C14.488,116.031 24.383,98.289 40.59,88.28L143.39,24.82C159.376,14.953 179.57,14.688 195.81,24.13Z" style="fill:rgb(255,64,136);stroke:rgb(201,23,126);stroke-width:27px;"/><path d="M93.91,299.92L93.91,92.7L137.26,92.7L137.26,168.18L209.18,168.18L209.18,92.7L252.66,92.7L252.66,299.92L209.18,299.92L209.18,209.31L137.26,209.31L137.26,299.92L93.91,299.92Z" style="fill:white;"/></g></svg>