<svg width="100%" height="100%" viewBox="0 0 18 16" version="1.1" xmlns="http://www.w3.org/2000/svg" xmlns:xlink="http://www.w3.org/1999/xlink" xml:space="preserve" style="fill-rule:evenodd;clip-rule:evenodd;stroke-linejoin:round;stroke-miterlimit:2;"><g id="isort"><g transform="matrix(1.01086,0,0,1.04103,-0.869965,-0.528132)"><rect x="2.938" y="1.468" width="13.652" height="13.448" style="fill:rgb(22,116,177);"/></g><g transform="matrix(1.09149,0,0,1.23961,-0.246747,-0.170221)"><path d="M3.602,9.401C3.03,8.593 2.697,7.63 2.697,6.595C2.697,3.753 5.21,1.445 8.305,1.445C10.276,1.445 12.01,2.38 13.01,3.793L12.21,5.033L10.101,4.547C9.615,4.169 8.993,3.941 8.314,3.941C6.765,3.941 5.508,5.127 5.508,6.588C5.508,7.027 5.622,7.441 5.823,7.806C5.441,7.799 5.036,7.793 4.791,7.795C4.225,7.8 3.991,8.024 3.882,8.472C3.825,8.702 3.705,9.085 3.602,9.401ZM13.546,4.76C13.783,5.33 13.913,5.949 13.913,6.595C13.913,9.438 11.4,11.746 8.305,11.746C6.794,11.746 5.421,11.195 4.412,10.301L4.889,8.747L6.761,8.792C7.206,9.072 7.74,9.235 8.314,9.235C9.863,9.235 11.12,8.049 11.12,6.588C11.12,6.282 11.065,5.988 10.963,5.714C11.324,5.791 11.74,5.879 11.919,5.918C12.382,6.017 12.716,6.102 12.954,5.721C13.111,5.469 13.375,5.04 13.546,4.76Z" style="fill:rgb(239,131,54);"/></g><g transform="matrix(1,0,0,1.00436,-0.0221099,-0.030047)"><rect x="8.322" y="6.894" width="0.936" height="3.482" style="fill:white;"/></g><ellipse cx="8.768" cy="5.975" rx="0.6" ry="0.633" style="fill:white;"/></g></svg>