<svg width="100%" height="100%" viewBox="0 0 18 16" version="1.1" xmlns="http://www.w3.org/2000/svg" xmlns:xlink="http://www.w3.org/1999/xlink" xml:space="preserve" style="fill-rule:evenodd;clip-rule:evenodd;stroke-linejoin:round;stroke-miterlimit:2;"><g id="istanbul"><g transform="matrix(1.11458,0,0,1.11739,-0.281883,-0.114279)"><rect x="2.037" y="0.974" width="12.581" height="12.57" style="fill:rgb(248,222,15);"/></g><path d="M2.614,6.406L2.521,6.383L2.523,6.322L2.613,6.314L2.621,6.198L2.907,4.466L3.001,4.457L3.307,6.182L3.318,6.294L3.403,6.315L3.392,6.39L3.3,6.406L2.614,6.406ZM15.206,6.491L15.219,8L15.501,8L15.498,8.283L15.317,8.513L15.297,12.098L15.482,12.213L15.477,12.32L15.314,12.404L15.345,12.591L15.489,13.613L15.578,14.498L2.298,14.502L2.502,12.407L2.407,12.342L2.399,12.207L2.513,12.121L2.527,8.475L2.395,8.299L2.397,8L2.588,8L2.618,6.491L3.291,6.491L3.298,8L3.5,8L3.508,8.305L3.395,8.482L3.409,12.135L3.508,12.201L3.51,12.333L3.386,12.399L3.517,13.583L3.701,13.596L3.705,12.413L4.111,12.407L4.098,9.978L4.009,9.89L4.014,9.704L4.119,9.564L4.116,8.493L4.028,8.493L4.027,8.409L4.111,8.407L4.108,8.306L4.402,7.09L4.484,7.105L4.707,8.303L4.71,8.405L4.797,8.413L4.804,8.502L4.7,8.501L4.7,9.583L4.796,9.704L4.794,9.897L4.706,9.981L4.705,11.606L5.508,11.602L5.505,11.406L5.701,11.401L5.703,10.703L5.602,10.69L5.601,10.606L5.702,10.602L5.709,9.908L6.197,9.9L6.29,9.897L6.289,9.808L6.503,9.799L6.515,9.625C6.515,9.625 6.811,9.101 7.42,8.656C7.968,8.255 8.9,8.201 8.9,8.201L8.912,7.912L9,7.906L9,7.403L9.097,7.397L9.101,7.909L9.2,7.907L9.201,8.201C9.201,8.201 10.062,8.215 10.691,8.621C11.361,9.053 11.698,9.697 11.698,9.697L11.705,9.797L11.899,9.799L11.903,9.899L12.392,9.9L12.393,10.597L12.499,10.595L12.503,10.701L12.396,10.701L12.4,11.4L12.7,11.394L12.706,11.597L13.191,11.596L13.189,9.891L12.999,9.802L13.006,9.71L13.19,9.612L13.198,8.5L13.114,8.499L13.115,8.411L13.206,8.396L13.213,8.299L13.412,7.197L13.493,7.197L13.69,8.291L13.694,8.397L13.796,8.411L13.798,8.498L13.694,8.497L13.712,9.56L13.893,9.7L13.893,9.811L13.709,9.911L13.715,12.394L14.184,12.403L14.185,13.614L14.325,13.608L14.434,12.62L14.492,12.414L14.316,12.325L14.313,12.208L14.5,12.099L14.503,8.514L14.309,8.271L14.308,8L14.581,8L14.596,6.491L15.206,6.491ZM11.699,10.699L11.604,10.699L11.604,11.408L11.699,11.408L11.699,10.699ZM6.835,11.392L6.7,11.392L6.7,14.298L6.835,14.298L6.835,11.392ZM9.996,10.599L10.297,10.593L10.299,10.104C10.299,10.104 10.295,9.923 10.143,9.925C9.992,9.926 10.002,10.111 10.002,10.111L9.996,10.599ZM9.24,10.599L9.542,10.593L9.544,10.104C9.544,10.104 9.54,9.923 9.388,9.925C9.236,9.926 9.246,10.111 9.246,10.111L9.24,10.599ZM9.465,13.893L9.775,13.887L9.777,13.409C9.777,13.409 9.773,13.232 9.617,13.234C9.461,13.235 9.471,13.416 9.471,13.416L9.465,13.893ZM6.506,10.699L6.411,10.699L6.411,11.408L6.506,11.408L6.506,10.699ZM12.09,13.097L12.003,13.097L12.003,13.399L12.09,13.399L12.09,13.097ZM10.373,10.599L10.675,10.593L10.676,10.104C10.676,10.104 10.672,9.923 10.521,9.925C10.369,9.926 10.379,10.111 10.379,10.111L10.373,10.599ZM6.104,12.26L6.006,12.26L6.006,12.494L6.104,12.494L6.104,12.26ZM10.648,13.893L10.958,13.887L10.959,13.409C10.959,13.409 10.955,13.232 10.8,13.234C10.644,13.235 10.654,13.416 10.654,13.416L10.648,13.893ZM9.618,10.599L9.92,10.593L9.921,10.104C9.921,10.104 9.917,9.923 9.766,9.925C9.614,9.926 9.624,10.111 9.624,10.111L9.618,10.599ZM8.874,13.893L9.184,13.887L9.185,13.409C9.185,13.409 9.181,13.232 9.026,13.234C8.87,13.235 8.88,13.416 8.88,13.416L8.874,13.893ZM8.283,13.893L8.593,13.887L8.594,13.409C8.594,13.409 8.59,13.232 8.434,13.234C8.279,13.235 8.289,13.416 8.289,13.416L8.283,13.893ZM7.1,13.893L7.41,13.887L7.412,13.409C7.412,13.409 7.407,13.232 7.252,13.234C7.096,13.235 7.106,13.416 7.106,13.416L7.1,13.893ZM11.427,11.392L11.292,11.392L11.292,14.298L11.427,14.298L11.427,11.392ZM12.089,10.008L11.798,10.008L11.798,10.299L12.089,10.299L12.089,10.008ZM11.128,10.599L11.43,10.593L11.432,10.104C11.432,10.104 11.428,9.923 11.276,9.925C11.124,9.926 11.134,10.111 11.134,10.111L11.128,10.599ZM6.597,10.599L6.899,10.593L6.901,10.104C6.901,10.104 6.897,9.923 6.745,9.925C6.593,9.926 6.603,10.111 6.603,10.111L6.597,10.599ZM8.485,10.599L8.787,10.593L8.789,10.104C8.789,10.104 8.785,9.923 8.633,9.925C8.481,9.926 8.491,10.111 8.491,10.111L8.485,10.599ZM10.057,13.893L10.366,13.887L10.368,13.409C10.368,13.409 10.364,13.232 10.208,13.234C10.053,13.235 10.063,13.416 10.063,13.416L10.057,13.893ZM6.198,10L5.898,10L5.898,10.281L6.198,10.281L6.198,10ZM7.352,10.599L7.654,10.593L7.656,10.104C7.656,10.104 7.652,9.923 7.5,9.925C7.348,9.926 7.358,10.111 7.358,10.111L7.352,10.599ZM9.457,12.872L9.767,12.866L9.769,12.388C9.769,12.388 9.764,12.211 9.609,12.213C9.453,12.214 9.463,12.395 9.463,12.395L9.457,12.872ZM7.73,10.599L8.032,10.593L8.033,10.104C8.033,10.104 8.029,9.923 7.878,9.925C7.726,9.926 7.736,10.111 7.736,10.111L7.73,10.599ZM6.096,13.097L6.01,13.097L6.01,13.399L6.096,13.399L6.096,13.097ZM7.691,13.893L8.001,13.887L8.003,13.409C8.003,13.409 7.999,13.232 7.843,13.234C7.687,13.235 7.698,13.416 7.698,13.416L7.691,13.893ZM6.082,11.135L6.082,11.107L6.054,11.107L6.054,11.135L5.999,11.135L5.999,11.579L6.109,11.579L6.109,11.135L6.082,11.135ZM11.704,9.914L11.5,9.914L11.5,10.602L11.704,10.602L11.704,9.914ZM6.395,10.601L6.495,10.581L6.495,9.912L6.307,9.912L6.303,10.404L6.392,10.412L6.395,10.601ZM8.79,12.872L9.297,12.863L9.299,12.15C9.299,12.15 9.293,11.886 9.038,11.888C8.783,11.89 8.8,12.161 8.8,12.161L8.79,12.872ZM8.863,10.599L9.165,10.593L9.166,10.104C9.166,10.104 9.162,9.923 9.01,9.925C8.859,9.926 8.869,10.111 8.869,10.111L8.863,10.599ZM8.292,12.872L8.601,12.866L8.603,12.388C8.603,12.388 8.599,12.211 8.443,12.213C8.287,12.214 8.298,12.395 8.298,12.395L8.292,12.872ZM10.751,10.599L11.052,10.593L11.054,10.104C11.054,10.104 11.05,9.923 10.898,9.925C10.747,9.926 10.757,10.111 10.757,10.111L10.751,10.599ZM6.975,10.599L7.277,10.593L7.278,10.104C7.278,10.104 7.274,9.923 7.123,9.925C6.971,9.926 6.981,10.111 6.981,10.111L6.975,10.599ZM8.108,10.599L8.409,10.593L8.411,10.104C8.411,10.104 8.407,9.923 8.255,9.925C8.104,9.926 8.114,10.111 8.114,10.111L8.108,10.599ZM12.103,11.135L11.993,11.135L11.993,11.579L12.103,11.579L12.103,11.135ZM12.098,12.26L11.999,12.26L11.999,12.494L12.098,12.494L12.098,12.26ZM14.597,6.406L14.597,6.397L14.5,6.392L14.509,6.294L14.598,6.292L14.614,6.051L14.894,4.445L14.954,4.447L15.204,6.051L15.204,6.295L15.314,6.301L15.309,6.397L15.206,6.403L15.206,6.406L14.597,6.406Z"/></g></svg>