<svg width="100%" height="100%" viewBox="0 0 18 16" version="1.1" xmlns="http://www.w3.org/2000/svg" xmlns:xlink="http://www.w3.org/1999/xlink" xml:space="preserve" style="fill-rule:evenodd;clip-rule:evenodd;stroke-linejoin:round;stroke-miterlimit:2;"><g transform="matrix(0.264127,0,0,-0.264127,1.49455,15.502)"><g id="jasmine"><g><path id="path36" d="M26.217,33.284L30.615,33.284L31.708,34.788L31.708,46.572L25.125,46.572L25.125,34.787L26.217,33.284" style="fill:rgb(138,65,130);fill-rule:nonzero;"/><path id="path38" d="M23.381,28.028L24.74,32.211L23.647,33.715L12.44,37.357L10.406,31.095L21.614,27.454L23.381,28.028" style="fill:rgb(138,65,130);fill-rule:nonzero;"/><path id="path40" d="M27.504,23.707L23.946,26.293L22.177,25.717L15.251,16.184L20.577,12.315L27.504,21.849L27.504,23.707" style="fill:rgb(138,65,130);fill-rule:nonzero;"/><path id="path42" d="M32.887,26.293L29.329,23.708L29.329,21.848L36.255,12.315L41.582,16.184L34.654,25.718L32.887,26.293" style="fill:rgb(138,65,130);fill-rule:nonzero;"/><path id="path44" d="M32.091,32.212L33.451,28.028L35.219,27.455L46.426,31.095L44.392,37.357L33.184,33.715L32.091,32.212" style="fill:rgb(138,65,130);fill-rule:nonzero;"/><path id="path46" d="M28.418,56.8C12.76,56.8 0.021,44.064 0.021,28.408C0.021,12.746 12.76,0.006 28.418,0.006C44.074,0.006 56.811,12.746 56.811,28.408C56.811,44.064 44.074,56.8 28.418,56.8ZM28.418,51.051C40.921,51.051 51.062,40.915 51.062,28.408C51.062,15.896 40.921,5.756 28.418,5.756C15.909,5.756 5.77,15.896 5.77,28.408C5.77,40.915 15.909,51.051 28.418,51.051Z" style="fill:rgb(138,65,130);fill-rule:nonzero;"/><path id="path48" d="M45.616,22.096L37.096,24.865L37.66,26.601L46.179,23.832L45.616,22.096" style="fill:rgb(138,65,130);fill-rule:nonzero;"/><path id="path50" d="M34.75,35.774L33.274,36.846L38.539,44.094L40.016,43.022L34.75,35.774" style="fill:rgb(138,65,130);fill-rule:nonzero;"/><path id="path52" d="M22.173,35.84L16.909,43.088L18.385,44.16L23.65,36.913L22.173,35.84" style="fill:rgb(138,65,130);fill-rule:nonzero;"/><path id="path54" d="M11.181,22.205L10.618,23.94L19.137,26.708L19.7,24.972L11.181,22.205" style="fill:rgb(138,65,130);fill-rule:nonzero;"/><rect id="path56" x="27.448" y="10.304" width="1.824" height="8.958" style="fill:rgb(138,65,130);fill-rule:nonzero;"/></g></g></g></svg>