<svg width="100%" height="100%" viewBox="0 0 18 16" version="1.1" xmlns="http://www.w3.org/2000/svg" xmlns:xlink="http://www.w3.org/1999/xlink" xml:space="preserve" style="fill-rule:evenodd;clip-rule:evenodd;stroke-linejoin:round;stroke-miterlimit:2;"><g id="java-dark" transform="matrix(0.00621111,0,0,0.00621111,3.26013,0.233395)"><path d="M596.633,1932.61C596.633,1932.61 501.272,1988.06 664.501,2006.83C862.254,2029.39 963.316,2026.16 1181.24,1984.91C1181.24,1984.91 1238.54,2020.83 1318.55,2051.95C830.029,2261.32 212.919,2039.82 596.633,1932.61M536.936,1659.39C536.936,1659.39 429.978,1738.56 593.331,1755.45C804.574,1777.25 971.395,1779.03 1260.07,1723.45C1260.07,1723.45 1299.99,1763.92 1362.78,1786.06C772.117,1958.78 114.234,1799.68 536.936,1659.39" style="fill:rgb(83,130,161);fill-rule:nonzero;"/><path d="M1040.19,1195.92C1160.56,1334.5 1008.56,1459.21 1008.56,1459.21C1008.56,1459.21 1314.2,1301.43 1173.84,1103.84C1042.74,919.595 942.197,828.035 1486.47,512.384C1486.47,512.384 632.146,725.751 1040.19,1195.91" style="fill:rgb(231,111,0);fill-rule:nonzero;"/><path d="M1686.3,2134.7C1686.3,2134.7 1756.87,2192.84 1608.58,2237.83C1326.6,2323.25 434.935,2349.05 187.233,2241.23C98.194,2202.5 265.173,2148.74 317.695,2137.46C372.471,2125.58 403.779,2127.8 403.779,2127.8C304.754,2058.03 -236.272,2264.77 128.967,2323.97C1125.01,2485.5 1944.66,2251.24 1686.3,2134.7M642.486,1376.3C642.486,1376.3 188.938,1484.03 481.879,1523.14C605.564,1539.7 852.132,1535.96 1081.81,1516.71C1269.51,1500.89 1457.98,1467.22 1457.98,1467.22C1457.98,1467.22 1391.8,1495.56 1343.92,1528.26C883.338,1649.39 -6.416,1593.04 249.733,1469.13C466.358,1364.42 642.493,1376.3 642.493,1376.3M1456.11,1831.08C1924.32,1587.79 1707.84,1353.99 1556.74,1385.49C1519.7,1393.19 1503.19,1399.87 1503.19,1399.87C1503.19,1399.87 1516.94,1378.34 1543.2,1369.02C1842.12,1263.92 2072.01,1678.97 1446.7,1843.35C1446.7,1843.35 1453.95,1836.88 1456.11,1831.08" style="fill:rgb(83,130,161);fill-rule:nonzero;"/><path d="M1173.84,2.681C1173.84,2.681 1433.14,262.074 927.905,660.925C522.767,980.882 835.52,1163.31 927.738,1371.74C691.25,1158.37 517.695,970.542 634.133,795.73C805.022,539.104 1278.45,414.689 1173.84,2.673" style="fill:rgb(231,111,0);fill-rule:nonzero;"/><path d="M688.497,2490.35C1137.91,2519.13 1828.04,2474.39 1844.38,2261.74C1844.38,2261.74 1812.96,2342.36 1472.96,2406.38C1089.38,2478.56 616.286,2470.14 335.686,2423.87C335.694,2423.87 393.129,2471.42 688.504,2490.35" style="fill:rgb(83,130,161);fill-rule:nonzero;"/></g></svg>