<svg width="100%" height="100%" viewBox="0 0 18 16" version="1.1" xmlns="http://www.w3.org/2000/svg" xmlns:xlink="http://www.w3.org/1999/xlink" xml:space="preserve" style="fill-rule:evenodd;clip-rule:evenodd;"><g id="jenkins" transform="matrix(0.060124,0,0,-0.060124,3.57579,15.5)"><path id="path22" d="M177.718,129.264C177.718,79.835 138.543,39.765 90.218,39.765C41.894,39.765 2.719,79.835 2.719,129.264C2.719,178.694 41.894,218.765 90.218,218.765C138.543,218.765 177.718,178.694 177.718,129.264" style="fill:rgb(211,56,51);"/><path id="path24" d="M6.284,107.098C6.284,107.098 -0.05,200.431 85.95,203.098L79.951,213.098L33.284,197.431L19.951,182.098L8.284,159.764L1.617,133.764L3.617,116.431" style="fill:rgb(239,61,58);fill-rule:nonzero;"/><path id="path26" d="M30.288,190.319C14.936,174.611 5.436,152.923 5.436,128.93C5.436,104.942 14.936,83.251 30.288,67.546C45.648,51.841 66.815,42.15 90.217,42.15C113.619,42.15 134.788,51.841 150.146,67.546C165.497,83.251 174.999,104.942 174.999,128.93C174.999,152.923 165.497,174.611 150.146,190.319C134.788,206.021 113.619,215.712 90.217,215.714C66.815,215.712 45.648,206.021 30.288,190.319ZM26.402,63.747C10.087,80.433 0,103.493 0,128.93C0,154.371 10.087,177.429 26.402,194.116C42.714,210.806 65.294,221.151 90.217,221.148C115.14,221.151 137.722,210.806 154.031,194.116C170.348,177.429 180.436,154.369 180.434,128.93C180.436,103.493 170.348,80.433 154.031,63.747C137.722,47.058 115.14,36.714 90.217,36.714C65.294,36.714 42.714,47.058 26.402,63.747" style="fill:rgb(35,31,32);fill-rule:nonzero;"/><path id="path28" d="M127.051,128.768L113.717,126.768L95.717,124.768L84.05,124.435L72.717,124.768L64.05,127.435L56.383,135.768L50.383,152.768L49.05,156.435L41.05,159.101L36.383,166.768L33.05,177.768L36.717,187.435L45.383,190.435L52.383,187.101L55.717,179.768L59.717,180.435L61.05,182.101L59.717,189.768L59.383,199.435L61.383,212.768L61.305,220.384L67.383,230.101L78.05,237.768L96.717,245.768L117.383,242.768L135.383,229.768L143.717,216.435L149.05,206.768L150.383,182.768L146.383,162.101L139.05,143.768L132.05,134.101" style="fill:rgb(240,214,183);"/><path id="path30" d="M115.717,71.102L68.05,69.102L68.05,61.102L72.05,33.102L70.05,30.768L36.717,42.102L34.383,46.102L31.05,83.768L23.384,106.435L21.717,111.768L48.383,130.101L56.717,133.435L64.05,124.435L70.383,118.768L77.717,116.435L81.05,115.435L85.05,98.102L88.05,94.435L95.717,97.102L90.383,86.768L119.383,73.102L115.717,71.102" style="fill:rgb(51,80,97);"/><path id="path32" d="M36.717,187.435L45.383,190.435L52.383,187.101L55.717,179.768L59.717,180.435L60.717,184.435L58.717,192.101L60.717,210.435L59.05,220.435L65.05,227.435L78.05,237.768L74.383,242.768L56.05,233.768L48.383,227.768L44.05,218.435L37.383,209.435L35.383,198.768L36.717,187.435" style="fill:rgb(109,107,109);"/><path id="path34" d="M50.383,218.768C50.383,218.768 55.383,231.101 75.383,237.101C95.383,243.101 76.383,241.435 76.383,241.435L54.717,233.101L46.383,224.768L42.717,218.101L50.383,218.768" style="fill:rgb(220,217,216);"/><path id="path36" d="M40.383,189.768C40.383,189.768 33.383,213.102 60.05,216.435L59.05,220.435L40.717,216.101L35.383,198.768L36.717,187.435L40.383,189.768" style="fill:rgb(220,217,216);"/><path id="path38" d="M51.05,158.768L55.414,162.997C55.414,162.997 57.384,162.768 57.717,160.435C58.05,158.101 59.05,137.101 73.383,125.767C74.69,124.733 62.717,127.435 62.717,127.435L52.05,144.101" style="fill:rgb(247,228,205);"/><path id="path40" d="M112.385,165.101C112.385,165.101 113.162,175.205 115.883,174.428C118.604,173.651 118.604,170.93 118.604,170.93C118.604,170.93 111.996,166.655 112.385,165.101" style="fill:rgb(247,228,205);"/><path id="path42" d="M140.05,202.101C140.05,202.101 134.556,200.941 134.05,196.101C133.544,191.26 140.05,195.101 141.05,195.434" style="fill:rgb(247,228,205);fill-rule:nonzero;"/><path id="path44" d="M99.717,201.767C99.717,201.767 92.383,200.767 92.383,196.101C92.383,191.434 100.717,191.767 103.05,193.767" style="fill:rgb(247,228,205);fill-rule:nonzero;"/><path id="path46" d="M54.383,180.101C54.383,180.101 41.716,187.768 40.383,180.434C39.05,173.101 36.049,167.767 42.383,160.101L38.05,161.434L34.05,171.767L32.717,181.767L40.383,189.768L49.05,189.101L54.05,185.101L54.383,180.101" style="fill:rgb(247,228,205);"/><path id="path48" d="M60.383,201.101C60.383,201.101 66.05,230.434 94.717,236.101C118.318,240.766 130.716,235.101 135.383,229.768C135.383,229.768 114.383,254.767 94.383,247.101C74.383,239.434 59.717,225.434 60.05,216.435C60.617,201.107 60.383,201.101 60.383,201.101" style="fill:rgb(247,228,205);"/><path id="path50" d="M137.717,226.435C137.717,226.435 128.051,226.768 127.717,218.101C127.717,218.101 127.716,216.768 128.383,215.435C128.383,215.435 136.051,224.102 140.717,219.435" style="fill:rgb(247,228,205);"/><path id="path52" d="M95.389,214.532C95.389,214.532 93.725,227.835 82.383,220.101C75.05,215.101 75.717,208.101 77.05,206.768C78.383,205.434 78.02,202.749 79.035,204.592C80.05,206.435 79.716,212.435 83.383,214.101C87.05,215.768 93.061,217.63 95.389,214.532" style="fill:rgb(247,228,205);"/><path id="path54" d="M64.05,124.435L32.717,110.435C32.717,110.435 45.717,58.768 39.05,42.768L34.383,44.434L34.05,64.101L25.384,101.434L21.717,111.768L54.383,133.767L64.05,124.435" style="fill:rgb(73,114,139);"/><path id="path56" d="M67.272,95.858L71.717,90.434L71.717,70.434L66.383,70.434C66.383,70.434 65.717,84.434 65.717,86.101C65.717,87.768 66.383,93.768 66.383,93.768" style="fill:rgb(73,114,139);"/><path id="path58" d="M67.383,67.434L52.383,66.768L56.717,63.768L67.383,62.101" style="fill:rgb(73,114,139);"/><path id="path60" d="M118.717,70.768L131.05,71.101L134.05,40.434L121.383,38.768L118.717,70.768" style="fill:rgb(51,80,97);"/><path id="path62" d="M122.05,70.768L140.717,71.768C140.717,71.768 148.383,91.101 148.383,92.101C148.383,93.101 155.05,120.101 155.05,120.101L140.05,135.767L137.05,138.434L129.05,130.434L129.05,99.434L122.05,70.768" style="fill:rgb(51,80,97);"/><path id="path64" d="M130.383,73.101L118.717,70.768L120.383,61.434C124.716,59.434 132.05,64.768 132.05,64.768" style="fill:rgb(73,114,139);"/><path id="path66" d="M130.717,131.434L154.05,114.101L154.717,122.101L137.05,138.434L130.717,131.434" style="fill:rgb(73,114,139);"/><path id="path68" d="M78.951,5.098L72.05,33.102L68.617,53.765L68.05,69.102L99.284,70.765L118.717,70.768L116.95,35.765L119.95,8.765L119.617,3.765L94.284,1.765L78.951,5.098" style="fill:white;"/><path id="path70" d="M114.383,71.101C114.383,71.101 112.717,36.434 117.717,11.768C117.717,11.768 107.717,5.434 93.05,3.768L121.05,4.768L124.383,6.768L120.383,61.434L119.383,73.102" style="fill:rgb(220,217,216);"/><path id="path72" d="M134.618,43.098L147.618,46.765L172.284,48.098L175.951,59.431L169.284,79.098L161.618,80.098L150.951,76.765L140.717,71.768L135.284,72.765L131.05,71.101" style="fill:white;"/><path id="path74" d="M134.383,49.768C134.383,49.768 143.049,53.767 144.383,53.434L140.717,71.768L145.05,73.434C145.05,73.434 148.05,56.101 148.05,54.101C148.05,54.101 166.716,53.101 168.383,53.101C168.383,53.101 172.383,60.768 171.383,68.768L175.05,58.101L175.383,52.101L170.05,44.101L164.05,42.768L154.05,43.101L150.717,47.434L139.05,45.768L135.383,44.434" style="fill:rgb(220,217,216);"/><path id="path76" d="M121.284,73.431L113.951,92.098L106.284,103.098C106.284,103.098 107.95,107.765 110.284,107.765L117.951,107.765L125.284,105.098L124.618,92.765L121.284,73.431" style="fill:white;fill-rule:nonzero;"/><path id="path78" d="M122.717,79.768C122.717,79.768 113.383,97.767 113.383,100.434C113.383,100.434 115.049,104.434 117.383,103.434C119.717,102.434 124.717,99.768 124.717,99.768L124.717,106.101L113.383,108.435L105.717,107.435L118.717,76.768L121.383,76.434" style="fill:rgb(220,217,216);"/><path id="path80" d="M81.951,123.764L72.717,124.768L64.05,127.435L64.05,124.435L68.284,119.765L81.618,113.765" style="fill:white;fill-rule:nonzero;"/><path id="path82" d="M67.051,122.765C67.051,122.765 77.385,118.431 80.718,119.431L81.05,115.435L71.718,117.431L66.051,121.431L67.051,122.765" style="fill:rgb(220,217,216);"/><path id="path84" d="M134.582,106.63C128.926,106.796 123.816,107.468 119.342,108.73C119.646,110.564 119.077,112.364 119.534,113.685C120.781,114.583 122.871,114.569 124.756,114.78C123.126,115.581 120.836,115.898 118.955,115.435C118.911,116.708 118.34,117.497 117.994,118.493C121.174,119.628 128.681,127.069 132.904,124.605C134.916,123.433 135.771,116.739 135.927,113.484C136.057,110.784 135.682,108.06 134.582,106.63" style="fill:rgb(211,56,51);"/><path id="path86" d="M134.582,106.63C128.926,106.796 123.816,107.468 119.342,108.73C119.646,110.564 119.077,112.364 119.534,113.685C120.781,114.583 122.871,114.569 124.756,114.78C123.126,115.581 120.836,115.898 118.955,115.435C118.911,116.708 118.34,117.497 117.994,118.493C121.174,119.628 128.681,127.069 132.904,124.605C134.916,123.433 135.771,116.739 135.927,113.484C136.057,110.784 135.682,108.06 134.582,106.63Z" style="fill:none;fill-rule:nonzero;stroke:rgb(211,56,51);stroke-width:2px;"/><path id="path88" d="M107.535,115.876C107.52,115.448 107.502,115.017 107.485,114.585C105.719,113.425 102.868,113.439 100.93,112.464C103.787,112.339 106.036,111.651 107.982,110.681C107.939,109.603 107.898,108.526 107.856,107.448C104.619,105.232 101.662,101.932 97.851,99.854C96.049,98.871 89.725,96.342 87.807,96.789C86.723,97.041 86.625,98.387 86.191,99.656C85.268,102.373 83.141,106.698 82.955,110.788C82.719,115.954 82.197,124.612 87.764,123.548C92.256,122.691 97.48,120.622 100.957,118.722C103.082,117.56 104.311,116.124 107.535,115.876" style="fill:rgb(211,56,51);"/><path id="path90" d="M107.535,115.876C107.52,115.448 107.502,115.017 107.485,114.585C105.719,113.425 102.868,113.439 100.93,112.464C103.787,112.339 106.036,111.651 107.982,110.681C107.939,109.603 107.898,108.526 107.856,107.448C104.619,105.232 101.662,101.932 97.851,99.854C96.049,98.871 89.725,96.342 87.807,96.789C86.723,97.041 86.625,98.387 86.191,99.656C85.268,102.373 83.141,106.698 82.955,110.788C82.719,115.954 82.197,124.612 87.764,123.548C92.256,122.691 97.48,120.622 100.957,118.722C103.082,117.56 104.311,116.124 107.535,115.876Z" style="fill:none;fill-rule:nonzero;stroke:rgb(211,56,51);stroke-width:2px;"/><path id="path92" d="M110.75,109.712C110.256,112.526 109.685,113.329 109.906,115.784C117.411,120.788 118.82,107.189 110.75,109.712" style="fill:rgb(211,56,51);"/><path id="path94" d="M110.75,109.712C110.256,112.526 109.685,113.329 109.906,115.784C117.411,120.788 118.82,107.189 110.75,109.712Z" style="fill:none;fill-rule:nonzero;stroke:rgb(211,56,51);stroke-width:2px;"/><path id="path96" d="M121.617,107.431C121.617,107.431 119.283,110.765 120.95,111.765C122.617,112.765 124.284,111.764 125.284,113.431C126.284,115.098 125.284,116.098 125.617,118.098C125.95,120.098 127.618,120.432 129.284,120.765C130.95,121.098 135.618,121.765 136.284,120.098L134.284,126.098L130.284,127.431L117.617,120.098L116.95,116.431L116.95,109.098" style="fill:rgb(239,61,58);"/><path id="path98" d="M86.617,96.431C86.217,101.633 85.793,106.828 85.322,112.025C84.616,119.785 87.186,118.431 93.912,118.431C94.94,118.431 100.238,117.206 100.617,116.431C102.435,112.718 97.577,113.543 102.711,110.743C107.045,108.38 114.701,112.178 112.95,117.431C111.97,118.599 107.844,117.795 106.365,118.562C103.761,119.912 101.157,121.262 98.553,122.612C95.24,124.331 87.582,126.837 84.05,124.435C75.099,118.348 84.614,103.139 87.807,96.789" style="fill:rgb(239,61,58);"/><path id="path100" d="M95.389,214.532C86.304,216.648 81.789,210.73 79.035,204.592C76.576,205.188 77.555,208.532 78.176,210.236C79.802,214.708 86.356,220.661 91.71,219.854C94.015,219.507 97.133,217.4 95.389,214.532" style="fill:rgb(35,31,32);"/><path id="path102" d="M139.655,204.186C139.798,204.18 139.943,204.175 140.086,204.169C142.139,199.904 143.916,195.386 146.506,191.621C144.771,187.58 133.368,184.004 133.544,191.26C136.01,192.338 140.267,191.48 142.453,192.857C141.189,196.326 139.365,199.279 139.655,204.186" style="fill:rgb(35,31,32);"/><path id="path104" d="M100.04,204.075C101.988,200.504 102.622,196.752 105.391,194.053C106.638,192.838 109.063,191.357 107.861,187.978C107.58,187.181 105.527,185.404 104.342,185.055C100.013,183.777 89.926,184.791 93.342,190.188C96.922,190.021 101.734,187.863 104.41,190.462C102.355,193.747 98.691,200.246 100.04,204.075" style="fill:rgb(35,31,32);"/><path id="path106" d="M138.03,167.781C131.512,163.594 124.244,159.041 113.564,160.097C111.282,162.081 110.412,166.496 112.629,169.412C113.783,167.428 113.058,163.779 116.274,163.23C122.334,162.193 129.387,166.937 133.746,168.595C136.449,173.152 133.513,174.828 131.078,177.761C126.093,183.77 119.406,191.218 119.649,200.214C121.664,201.675 121.838,197.984 122.127,197.312C124.73,191.22 131.281,183.429 136.062,178.215C137.236,176.931 139.169,175.699 139.384,174.85C140.004,172.381 137.771,169.423 138.03,167.781" style="fill:rgb(35,31,32);"/><path id="path108" d="M52.102,172.189C50.059,173.355 49.572,178.491 47.174,178.637C43.746,178.845 44.371,171.974 44.385,167.956C42.025,170.098 41.611,176.693 43.344,180.08C41.368,181.05 40.486,179.01 39.391,178.291C40.799,188.521 54.356,183.036 52.102,172.189" style="fill:rgb(35,31,32);"/><path id="path110" d="M142.18,163.521C139.146,157.746 134.854,151.386 125.951,151.201C125.77,153.066 125.631,155.904 125.961,157.027C132.767,157.681 136.969,161.145 142.18,163.521" style="fill:rgb(35,31,32);"/><path id="path112" d="M99.527,159.777C105.205,156.791 115.641,156.47 123.359,156.696C123.773,155.005 123.763,152.916 123.779,150.854C113.858,150.359 102.128,152.814 99.527,159.777" style="fill:rgb(35,31,32);"/><path id="path114" d="M98.447,154.209C102.374,144.35 115.87,145.485 127.251,145.757C126.75,144.477 125.664,142.965 124.314,142.418C120.667,140.934 110.608,139.808 105.545,142.497C102.334,144.204 100.271,148.061 98.512,150.322C97.662,151.414 93.432,154.203 98.447,154.209" style="fill:rgb(35,31,32);"/><path id="path116" d="M137.556,99.826C132.948,91.934 128.539,83.828 123.072,76.867C125.364,83.606 126.345,94.885 126.691,103.484C131.486,105.728 135.592,102.979 137.556,99.826" style="fill:rgb(129,176,196);"/><path id="path118" d="M162.352,71.461C157.193,70.428 153.568,65.414 148.535,65.736C151.301,69.635 156.148,71.279 162.352,71.461" style="fill:rgb(35,31,32);"/><path id="path120" d="M164.628,63.387C160.423,62.943 155.484,62.262 151.219,62.613C153.238,65.697 161.017,64.633 164.628,63.387" style="fill:rgb(35,31,32);"/><path id="path122" d="M166.085,56.426C161.359,56.324 155.485,56.418 150.993,56.795C153.65,59.649 163.02,57.854 166.085,56.426" style="fill:rgb(35,31,32);"/><path id="path124" d="M128.664,37.377C129.342,31.442 131.695,25.428 131.4,18.928C128.787,18.047 127.286,17.276 123.785,17.281C123.538,22.805 122.799,31.25 123.02,36.516C124.742,36.402 127.281,37.746 128.664,37.377" style="fill:rgb(220,217,216);"/><path id="path126" d="M121.045,124.849C118.672,123.3 116.651,121.366 114.372,119.712C109.318,119.462 106.56,120.062 102.847,122.964C102.908,123.197 103.281,123.093 103.295,123.379C108.705,120.968 115.582,124.361 121.045,124.849" style="fill:rgb(240,214,183);"/><path id="path128" d="M92.644,87.971C94.131,94.412 99.955,97.748 105.244,101.295C110.703,94.367 114.023,85.457 117.679,76.859C109.041,79.463 100.215,83.688 92.644,87.971" style="fill:rgb(129,176,196);"/><path id="path130" d="M123.02,36.516C122.799,31.25 123.538,22.805 123.785,17.281C127.286,17.276 128.787,18.047 131.4,18.928C131.695,25.428 129.342,31.442 128.664,37.377C127.281,37.746 124.742,36.402 123.02,36.516ZM68.506,66.465C70.815,45.242 74.158,27.401 80.291,8.608C93.902,4.475 110.311,4.115 122.342,7.844C120.133,18.451 121.098,31.365 119.807,42.684C118.834,51.192 119.33,59.752 117.996,68.432C103.418,71.465 82.813,69.141 68.506,66.465ZM121.443,68.299C121.32,59.184 121.851,50.193 122.547,41.067C126.047,41.592 128.422,41.943 131.674,42.656C130.618,51.442 130.748,61.328 128.597,69.1C126.111,69.076 123.922,69.129 121.443,68.299ZM139.198,69.768C137.537,70.149 135.603,69.783 134.016,69.752C134.762,62.322 136.572,54.123 137.209,46.324C139.706,46.246 141.04,47.424 143.094,47.82C143.204,54.666 142.496,64.098 139.198,69.768ZM166.082,45.205C171.287,46.469 174.56,52.844 173.104,59.391C172.127,63.791 170.387,72.076 168.525,74.891C167.149,76.973 163.418,79.699 160.439,77.791C155.593,74.688 147.056,73.787 143.522,70.031C145.294,64.131 145.844,56.027 146.575,48.551C152.629,48.174 160.078,50.217 165.113,48.049C161.598,46.91 157.037,46.901 154,45.242C156.482,44.043 162.293,44.285 166.082,45.205ZM117.679,76.859C114.023,85.457 110.703,94.367 105.244,101.295C99.955,97.748 94.131,94.412 92.644,87.971C100.215,83.688 109.041,79.463 117.679,76.859ZM126.691,103.484C126.345,94.885 125.364,83.606 123.072,76.867C128.539,83.828 132.948,91.934 137.556,99.826C135.592,102.979 131.486,105.728 126.691,103.484ZM116.475,107.114C114.404,107.337 112.646,104.733 109.953,105.859C109.336,105.177 108.775,104.438 108.146,103.772C114.094,96.604 116.797,86.434 121.391,78.01C123.856,86.102 123.572,94.967 124.115,103.799C120.728,103.584 118.849,106.862 116.475,107.114ZM109.906,115.784C109.685,113.329 110.256,112.526 110.75,109.712C118.82,107.189 117.411,120.788 109.906,115.784ZM100.957,118.722C97.48,120.622 92.256,122.691 87.765,123.548C82.197,124.613 82.719,115.954 82.955,110.788C83.141,106.698 85.268,102.373 86.191,99.656C86.625,98.387 86.723,97.041 87.807,96.789C89.725,96.342 96.049,98.871 97.851,99.854C101.662,101.932 104.619,105.232 107.856,107.448C107.898,108.526 107.939,109.603 107.982,110.681C106.036,111.651 103.787,112.339 100.93,112.464C102.868,113.439 105.719,113.425 107.485,114.585C107.502,115.017 107.52,115.448 107.535,115.876C104.311,116.124 103.082,117.56 100.957,118.722ZM67.743,124.755C64.857,121.825 75.838,117.831 79.334,117.616C79.315,119.47 80.391,121.218 80.174,122.548C76.022,123.277 70.565,122.796 67.743,124.755ZM103.295,123.379C103.281,123.093 102.908,123.197 102.847,122.964C106.56,120.062 109.318,119.462 114.372,119.712C116.651,121.366 118.672,123.3 121.045,124.849C115.582,124.361 108.705,120.968 103.295,123.379ZM135.927,113.484C135.771,116.739 134.916,123.433 132.904,124.605C128.681,127.07 121.174,119.628 117.994,118.493C118.34,117.497 118.911,116.708 118.955,115.435C120.836,115.898 123.126,115.581 124.756,114.78C122.871,114.569 120.781,114.583 119.534,113.685C119.077,112.364 119.646,110.564 119.342,108.73C123.816,107.468 128.926,106.796 134.582,106.63C135.682,108.06 136.057,110.784 135.927,113.484ZM62.885,121.921C61.979,122.567 55.848,130.544 55.008,130.213C43.914,125.838 33.541,118.273 24.272,111.118C33.109,92.154 36.677,68.92 37.307,46.526C47.432,41.791 56.324,34.965 70.063,34.252C68.473,45.5 67.022,55.535 66.119,66.125C62.667,67.58 57.715,66.059 54.484,66.576C54.457,70.469 59.418,68.281 59.831,70.899C60.143,72.879 57.102,73.029 58.092,76.147C60.617,75.229 61.943,73.201 64.637,72.44C67.098,77.824 64.602,87.35 64.957,91.85C65.024,92.695 65.379,96.531 67.272,95.858C68.947,95.262 67.176,85.656 67.359,81.397C67.527,77.473 66.886,73.676 68.475,71.213C81.75,73.02 95.24,74.188 109.604,74.582C106.444,75.938 102.69,77.221 98.574,79.541C96.343,80.799 89.31,83.416 88.666,85.535C87.639,88.912 91.361,90.711 91.998,93.606C85.297,89.951 83.99,97.109 82.404,102.18C80.968,106.773 80.15,110.204 79.798,112.853C74.025,115.605 67.854,118.392 62.885,121.921ZM130.064,129.248C139.307,133.73 140.973,112.497 137.35,105.657C137.91,103.617 139.836,102.836 140.622,101.002C135.464,91.762 129.735,83.137 124.472,74.006C128.387,76.443 133.979,74.442 138.586,76.266C140.27,76.932 141.489,80.787 142.764,83.871C146.271,92.356 149.953,103.053 151.591,111.15C151.961,112.995 152.969,117.015 152.743,118.657C152.34,121.597 148.351,123.777 146.322,125.595C142.584,128.953 140.23,131.908 136.331,135.048C134.75,132.714 131.357,131.146 130.064,129.248ZM41.746,211.216C37.342,206.37 38.264,197.29 38.797,190.83C46.758,195.838 57.324,190.434 57.225,181.916C61.025,182.017 58.645,186.663 57.957,189.656C55.71,199.432 61.742,210.053 58.231,218.993C51.412,218.476 45.811,215.691 41.746,211.216ZM73.26,239.342C63.289,236.516 50.511,229.271 46.413,220.314C49.586,220.775 51.788,222.375 54.918,222.573C56.101,222.65 57.65,222.077 59.01,222.415C61.719,223.087 64.005,229.161 66.049,231.421C68.041,233.628 70.436,234.571 72.074,236.583C73.127,237.091 74.684,237.056 74.743,238.637C74.287,239.125 73.807,239.497 73.26,239.342ZM125.163,236.684C114.814,242.523 97.297,246.915 86.288,241.427C77.406,236.998 65.398,229.67 61.305,220.384C65.129,211.423 60.172,203.212 59.856,194.114C59.688,189.273 62.135,185.047 62.322,179.777C61.014,177.618 57.016,177.352 54.248,177.5C53.316,182.162 51.686,187.402 46.885,187.928C40.092,188.671 35.125,183.049 34.816,177.174C34.451,170.265 40.123,158.814 48.162,159.609C51.268,159.916 52.031,163.029 55.414,162.997C57.248,159.338 52.585,158.189 52.106,155.572C51.981,154.896 52.492,152.254 52.79,151.015C54.25,144.982 57.505,137.174 60.709,132.581C64.775,126.755 72.765,125.877 81.359,125.306C82.895,128.613 88.55,128.341 92.234,127.476C87.818,129.225 83.713,133.465 80.311,137.218C76.402,141.524 72.443,146.143 72.243,151.771C79.629,141.525 85.731,132.577 99.16,128.07C109.322,124.662 121.19,129.632 128.998,135.115C132.238,137.394 134.172,141.01 136.475,144.32C145.092,156.715 149.113,174.407 148.229,191.555C147.865,198.627 147.881,205.675 145.508,210.433C143.028,215.408 134.64,219.859 129.73,215.359C128.82,220.197 133.813,223.189 139.678,221.448C135.496,226.845 131.107,233.33 125.163,236.684ZM144.444,77.117C152.531,81.137 167.641,87.938 172.711,77.102C174.582,73.108 176.777,66.356 177.746,62.233C179.115,56.416 176.262,44.19 170.283,42.238C165.002,40.514 158.84,40.619 152.479,41.897C151.73,42.52 150.896,43.606 150.313,44.738C145.771,44.914 141.518,44.494 137.93,42.627C138.27,39.268 135.998,38.729 133.868,38.037C132.289,31.776 137.027,23.6 135.893,17.891C135.084,13.824 130.08,13.195 126.402,12.434C126.282,10.174 126.563,8.287 126.814,6.375C125.973,3.276 122.201,1.512 118.627,1.08C106.868,-0.334 89.014,-0.969 77.703,3.098C74.547,10.84 72.06,20.256 69.432,29.096C58.4,27.918 49.478,33.856 41.068,37.746C38.155,39.096 34.127,39.84 33.039,42.158C31.984,44.402 32.416,48.703 32.154,52.766C31.488,63.143 30.918,73.152 28.178,83.777C26.947,88.545 24.803,92.752 23.307,97.346C21.924,101.604 19.508,106.866 18.878,111.112C17.943,117.405 23.869,117.755 27.658,120.482C33.516,124.699 38.113,127.031 44.457,130.837C46.336,131.964 52.002,134.817 52.646,136.131C53.928,138.736 50.447,142.409 49.517,144.451C48.045,147.68 47.277,150.423 47.066,153.609C41.745,154.45 37.711,157.617 35.274,161.188C31.243,167.098 28.448,178.032 31.935,186.349C32.209,187.004 33.573,188.292 33.774,189.298C34.171,191.279 33.027,193.913 32.956,196.02C32.59,206.83 34.785,216.144 42.062,219.404C45.017,231.173 55.591,235.086 65.553,240.935C69.277,243.121 73.382,244.518 77.621,246.078C92.829,251.675 116.163,250.621 128.785,241.075C134.137,237.027 142.692,228.48 145.752,222.292C153.834,205.955 153.26,178.652 147.607,158.779C146.847,156.111 145.745,152.189 144.206,148.984C143.133,146.746 139.798,142.268 140.203,140.292C140.62,138.249 147.807,132.792 149.348,131.306C152.123,128.629 157.395,125.076 157.822,121.698C158.281,118.103 156.238,113.185 155.203,109.716C151.743,98.139 148.367,87.438 144.444,77.117" style="fill:rgb(35,31,32);"/><path id="path132" d="M90.491,157.255C90.93,157.839 93.342,158.726 96.717,157.101C96.717,157.101 92.717,156.434 93.05,149.765L91.383,150.099C91.383,150.099 89.66,156.146 90.491,157.255" style="fill:rgb(247,228,205);"/><path id="path134" d="M119.717,99.934C119.717,98.922 118.896,98.101 117.883,98.101C116.871,98.101 116.05,98.922 116.05,99.934C116.05,100.946 116.871,101.768 117.883,101.768C118.896,101.768 119.717,100.946 119.717,99.934" style="fill:rgb(29,25,25);"/><path id="path136" d="M121.55,91.434C121.55,90.422 120.729,89.601 119.716,89.601C118.704,89.601 117.883,90.422 117.883,91.434C117.883,92.446 118.704,93.268 119.716,93.268C120.729,93.268 121.55,92.446 121.55,91.434" style="fill:rgb(29,25,25);"/></g></svg>