<svg width="100%" height="100%" viewBox="0 0 18 16" version="1.1" xmlns="http://www.w3.org/2000/svg" xmlns:xlink="http://www.w3.org/1999/xlink" xml:space="preserve" style="fill-rule:evenodd;clip-rule:evenodd;stroke-linejoin:round;stroke-miterlimit:2;"><g transform="matrix(0.4375,0,0,0.4375,9,8)"><g id="jest" transform="matrix(1,0,0,1,-16,-16)"><clipPath id="_clip1"><rect x="0" y="0" width="32" height="32"/></clipPath><g clip-path="url(#_clip1)"><path d="M29.667,15.76C29.667,13.875 28.391,12.224 26.563,11.745L30.547,0L10.807,0L14.803,11.787C13.031,12.303 11.812,13.922 11.807,15.766C11.807,17.157 12.5,18.391 13.558,19.151C13.137,19.75 12.651,20.303 12.115,20.807C11.131,21.746 9.974,22.49 8.714,23.006C7.599,22.255 7.121,20.927 7.553,19.746C12.084,18.334 11.084,11.657 6.345,11.637C4.053,11.641 2.194,13.496 2.194,15.788C2.194,16.919 2.651,17.955 3.397,18.699C3.329,18.824 3.266,18.96 3.198,19.095C2.579,20.376 1.875,21.819 1.605,23.439C1.069,26.684 1.949,29.288 4.074,30.762C5.219,31.57 6.594,32.007 8.001,32.002C10.433,32.002 12.908,30.778 15.298,29.59C17.006,28.751 18.766,27.871 20.495,27.445C21.136,27.289 21.803,27.196 22.506,27.09C23.933,26.887 25.407,26.674 26.73,25.903C28.261,25.028 29.329,23.518 29.641,21.783C29.87,20.46 29.641,19.127 29.048,17.955C29.449,17.314 29.668,16.57 29.668,15.762L29.667,15.76ZM27.86,15.76C27.86,17.047 26.812,18.093 25.527,18.093C23.318,18.088 22.35,15.302 24.083,13.926L24.088,13.917C24.167,13.86 24.251,13.802 24.328,13.749C24.328,13.749 24.344,13.749 24.344,13.74C24.38,13.719 24.416,13.693 24.453,13.672C24.464,13.672 24.469,13.667 24.478,13.667C24.515,13.646 24.562,13.631 24.609,13.61C24.656,13.589 24.702,13.574 24.74,13.553C24.749,13.553 24.755,13.548 24.765,13.548C24.802,13.537 24.844,13.517 24.88,13.512C24.885,13.512 24.907,13.501 24.917,13.501C24.964,13.49 25,13.48 25.046,13.474L25.051,13.474L25.192,13.443C25.201,13.443 25.217,13.443 25.228,13.432C25.264,13.432 25.301,13.421 25.343,13.421L25.384,13.421C25.431,13.421 25.477,13.416 25.535,13.416L25.655,13.416C25.692,13.416 25.723,13.416 25.759,13.421L25.775,13.421C25.848,13.432 25.926,13.442 25.999,13.464C27.082,13.693 27.859,14.651 27.859,15.76L27.86,15.76ZM13.391,1.855L27.964,1.855L24.62,11.719C24.479,11.746 24.344,11.792 24.203,11.839L20.683,4.662L17.151,11.793C17.016,11.75 16.864,11.72 16.714,11.694L13.391,1.855ZM20.016,14.953C19.844,14.098 19.407,13.317 18.765,12.729L20.682,8.86L22.619,12.812C22.04,13.385 21.624,14.12 21.458,14.953L20.016,14.953ZM15.375,13.489C15.416,13.478 15.459,13.469 15.506,13.464L15.531,13.464C15.568,13.453 15.604,13.453 15.64,13.443L15.677,13.443C15.713,13.443 15.745,13.432 15.781,13.432L16.14,13.432C16.177,13.432 16.208,13.443 16.235,13.443C16.255,13.443 16.26,13.443 16.282,13.454C16.318,13.465 16.345,13.465 16.381,13.47C16.392,13.47 16.402,13.47 16.422,13.479L16.547,13.506L16.558,13.506C16.594,13.517 16.637,13.527 16.673,13.547C16.678,13.547 16.689,13.552 16.709,13.552C16.736,13.563 16.772,13.573 16.804,13.588C16.808,13.588 16.819,13.599 16.829,13.599C16.865,13.62 16.902,13.631 16.938,13.646L16.949,13.646C16.99,13.662 17.032,13.683 17.069,13.714L17.08,13.714C17.116,13.73 17.152,13.755 17.189,13.777C17.198,13.777 17.198,13.788 17.209,13.788C17.246,13.804 17.272,13.835 17.308,13.851L17.319,13.862C17.428,13.945 17.532,14.038 17.638,14.133L17.642,14.138C18.059,14.575 18.289,15.153 18.283,15.751C18.184,18.762 13.715,18.762 13.616,15.751C13.611,14.684 14.34,13.751 15.376,13.491L15.375,13.489ZM6.255,13.421C7.542,13.421 8.588,14.473 8.588,15.76C8.588,17.047 7.541,18.093 6.255,18.093C4.97,18.093 3.922,17.046 3.922,15.76C3.922,14.474 4.97,13.421 6.255,13.421ZM27.807,21.459C27.594,22.656 26.855,23.698 25.798,24.303C24.787,24.886 23.542,25.074 22.241,25.255C21.506,25.35 20.772,25.479 20.053,25.646C18.126,26.121 16.272,27.042 14.474,27.933C12.178,29.074 10.011,30.146 8.001,30.146C6.97,30.151 5.965,29.834 5.126,29.23C3.089,27.823 3.189,25.183 3.433,23.735C3.652,22.38 4.272,21.115 4.865,19.902C4.908,19.829 4.933,19.761 4.97,19.689C5.173,19.761 5.386,19.818 5.61,19.856C5.255,21.819 6.255,23.851 8.203,24.851L8.552,25.032L8.932,24.897C10.552,24.318 12.057,23.386 13.38,22.137C14.115,21.454 14.76,20.684 15.307,19.845C15.522,19.881 15.735,19.892 15.948,19.892C17.833,19.887 19.479,18.616 19.959,16.788L21.516,16.788C21.989,18.616 23.64,19.892 25.527,19.892C26.298,19.892 27.011,19.679 27.62,19.319C27.86,20.012 27.937,20.736 27.807,21.46L27.807,21.459Z" style="fill:rgb(16,145,14);fill-rule:nonzero;"/></g></g><g id="jest1"></g></g></svg>