<svg width="100%" height="100%" viewBox="0 0 18 16" version="1.1" xmlns="http://www.w3.org/2000/svg" xmlns:xlink="http://www.w3.org/1999/xlink" xml:space="preserve" style="fill-rule:evenodd;clip-rule:evenodd;"><g id="jinja-dark" transform="matrix(0.167829,0,0,0.167829,-1.28756,-2.22265)"><path d="M105.457,18.676C105.457,18.676 88.212,26.918 74.173,28.738C60.134,30.557 33.36,32.378 28.046,31.093C22.731,29.809 18.916,28.309 18.916,28.309L20.021,32.057L16.61,35.052L17.214,36.122L18.618,36.228L22.928,36.762L23.533,38.689L25.938,38.906L27.143,42.971C27.143,42.971 32.255,43.4 33.759,43.4C35.263,43.4 38.272,43.188 38.272,43.188L38.371,44.792L39.477,45.003L39.477,46.824L37.067,48.968L37.672,49.074L37.672,49.82C37.672,49.82 32.255,50.252 30.049,49.931C27.843,49.61 27.441,49.608 27.441,49.608L27.242,49.82L27.143,50.783L27.644,50.783L27.842,54.96L38.976,54.531L38.173,68.981L38.073,70.796L28.646,70.262L28.547,66.409L30.649,66.409L30.853,64.911L32.757,64.482L33.06,64.058L25.938,62.343L20.522,63.947L21.425,64.699L22.328,64.699L22.427,65.985L24.331,66.091L24.331,69.838L22.228,70.373L22.63,71.225L23.131,71.548L23.131,74.438L24.435,74.438L24.435,87.814L22.328,88.136L22.63,91.99L23.93,92.206L23.731,100.982L29.449,101.088L28.244,92.418L36.868,92.206L36.268,96.912L35.465,100.231L44.189,100.337L44.288,91.778L50.304,91.243L50.006,96.7L49.803,99.908L54.92,99.908L54.717,91.132L55.421,91.243L55.62,87.067L54.817,87.067L54.519,85.352L54.018,80.43L54.216,74.761L55.317,74.761L55.317,71.336L53.914,71.442L54.117,67.402L55.747,67.241L55.823,65.929L56.749,65.793L57.699,65.072L51.986,63.897L46.32,65.153L46.873,66.061L47.473,66.01L48.172,65.985L48.3,67.639L49.878,67.563L49.907,71.144L43.111,70.988L43.338,67.16L43.56,63.68L43.56,59.105L43.763,54.289L57.373,53.593L73.568,52.66L73.719,55.736L73.143,63.12L72.892,69.995L66.928,69.889L66.9,65.072L69.107,64.991L69.206,63.629L70.109,63.493L70.062,63.226L70.964,63.176L71.465,62.505L64.722,60.926L58.002,62.369L58.479,63.201L59.23,63.145L59.23,63.524L60.157,63.524L60.157,65.047L62.137,65.072L62.113,69.298L60.109,69.298L60.081,70.262L60.785,70.343L60.709,74.009L62.189,74.09L62.014,88.621L60.057,89.019L60.081,89.715L60.761,89.715L60.761,93.437L61.886,93.437L61.588,98.521L61.21,102.959L68.332,103.146L68.105,99.293L67.581,96.085L67.477,93.301L73.521,93.195L73.346,97.502L73.317,102.052L76.729,102.319L81.365,102.132L82.821,101.704L82.017,99.268L81.819,95.439L81.441,92.711L87.206,92.499L86.956,95.843L86.932,101.088L89.238,101.3L91.521,101.25L92.622,100.902L91.97,95.924L91.748,92.176L92.726,92.07L92.749,88.726L93.024,88.671L92.976,87.95L91.847,87.95L91.62,85.488L91.521,74.811L92.371,74.786L92.371,71.281L92.726,71.336L92.726,70.64L91.469,70.529L91.497,66.464L93.6,66.277L93.477,64.911L94.403,64.83L94.351,64.563L95.58,63.947L89.337,62.691L82.996,63.977L83.397,64.724L84.376,64.643L84.428,64.966L85.255,64.966L85.302,66.57L87.357,66.545L87.532,70.479L80.264,70.423L79.414,64.512L78.733,61.38L78.185,55.761L78.511,52.473L93,51.374L93.047,46.476L93.775,46.29L93.728,45.543L93.175,45.22C93.175,45.22 85.252,46.395 82.745,46.663C82.039,46.738 82.092,46.733 81.517,46.794L81.441,45.886L78.445,44.318L78.483,42.492L79.513,42.462L79.588,39.95C79.588,39.95 85.728,39.547 88.01,39.012C90.291,38.477 93.524,37.942 93.524,37.942L95.056,33.797L98.089,32.914L98.34,32.218L105.206,30.317L105.986,29.676L103.377,23.977L103.628,22.691L104.956,21.995L105.91,19.079L105.457,18.676ZM72.467,40.404L72.429,42.477L73.984,42.542L73.885,44.509L70.837,46.506L70.647,47.081L71.876,47.092L71.867,47.576L62.552,48.03L62.614,46.653L63.039,45.967L63.068,45.528L63.077,44.58L63.342,43.949L63.441,43.44L63.441,43.077L63.843,41.473L72.467,40.404ZM52.988,42.169L52.761,43.561L53.489,44.418L53.441,45.916L54.117,46.96L53.942,48.191L54.443,48.912L44.94,49.286L44.916,48.968L46.017,48.832L46.069,48.428L43.664,47.122L43.536,45.034L44.689,44.978L44.789,42.729L52.988,42.169ZM67.051,74.277L72.817,74.65L72.618,82.412L73.369,88.777L67.254,88.565L67.051,74.277ZM28.443,74.599L37.672,75.078L36.868,80.43L36.868,84.929L37.521,87.44L28.495,87.869L28.443,74.599ZM87.509,74.65L87.509,87.924L81.644,88.353L81.441,81.343L80.789,74.811L87.509,74.65ZM43.087,74.947L49.907,74.973L49.977,87.279L43.612,87.39L43.286,83.4L43.262,79.441L43.087,74.947Z" style="fill:url(#_Radial-yi6y4kc);stroke:rgb(50,50,50);stroke-width:1px;"/></g><defs><radialGradient id="_Radial-yi6y4kc" cx="0" cy="0" r="1" gradientUnits="userSpaceOnUse" gradientTransform="matrix(44.6883,0,0,42.235,61.2978,60.911)"><stop offset="0" style="stop-color:rgb(87,87,87);stop-opacity:1"/><stop offset="1" style="stop-color:rgb(47,47,47);stop-opacity:1"/></radialGradient></defs></svg>