<svg width="100%" height="100%" viewBox="0 0 18 16" version="1.1" xmlns="http://www.w3.org/2000/svg" xmlns:xlink="http://www.w3.org/1999/xlink" xml:space="preserve" style="fill-rule:evenodd;clip-rule:evenodd;stroke-linejoin:round;stroke-miterlimit:2;"><g transform="matrix(0.09375,0,0,0.09375,9,8)"><g id="json" transform="matrix(1,0,0,1,-80,-80)"><clipPath id="_clip1"><rect x="0" y="0" width="160" height="160"/></clipPath><g clip-path="url(#_clip1)"><g><path d="M79.865,119.1C115.263,167.355 149.905,105.631 149.854,68.513C149.794,24.627 105.313,0.099 79.836,0.099C38.944,0.099 -0,33.895 -0,80.135C-0,131.531 44.64,160 79.836,160C71.871,158.853 45.33,153.166 44.973,92.033C44.733,50.686 58.461,34.167 79.778,41.434C80.255,41.611 103.292,50.699 103.292,80.385C103.292,109.945 79.865,119.1 79.865,119.1Z" style="fill:url(#_Linear2);"/><path d="M79.823,41.401C56.433,33.339 27.78,52.617 27.78,91.23C27.78,154.278 74.501,160 80.164,160C121.056,160 160,126.204 160,79.964C160,28.568 115.36,0.099 80.164,0.099C89.912,-1.251 132.705,10.649 132.705,69.136C132.705,107.277 100.752,128.041 79.97,119.169C79.493,118.992 56.456,109.905 56.456,80.218C56.456,50.658 79.823,41.4 79.823,41.4L79.823,41.401Z" style="fill:url(#_Linear3);"/></g></g></g><g id="json1"></g></g><defs><linearGradient id="_Linear2" x1="0" y1="0" x2="1" y2="0" gradientUnits="userSpaceOnUse" gradientTransform="matrix(112.719,112.723,-112.723,112.719,23.6627,23.663)"><stop offset="0" style="stop-color:black;stop-opacity:1"/><stop offset="1" style="stop-color:white;stop-opacity:1"/></linearGradient><linearGradient id="_Linear3" x1="0" y1="0" x2="1" y2="0" gradientUnits="userSpaceOnUse" gradientTransform="matrix(-112.719,-112.713,112.713,-112.719,136.382,136.386)"><stop offset="0" style="stop-color:black;stop-opacity:1"/><stop offset="1" style="stop-color:white;stop-opacity:1"/></linearGradient></defs></svg>