<svg width="100%" height="100%" viewBox="0 0 18 16" version="1.1" xmlns="http://www.w3.org/2000/svg" xmlns:xlink="http://www.w3.org/1999/xlink" xml:space="preserve" style="fill-rule:evenodd;clip-rule:evenodd;stroke-linejoin:round;stroke-miterlimit:2;"><g id="junit"><path d="M5.659,12.593L5.662,11.09C5.662,11.09 6.884,11.799 8.47,11.764C9.755,11.735 10.586,10.995 10.576,9.978C10.566,8.928 10.334,8.158 8.559,8C7.683,7.922 6.603,8.204 6.603,8.204L5.863,7.755L6.24,2.765L11.555,2.758L11.55,4.218L7.699,4.219C7.699,4.219 7.461,6.764 7.461,6.764C7.857,6.707 8.351,6.591 9,6.605C9.998,6.625 10.792,6.925 11.263,7.337C11.965,7.95 12.316,8.73 12.264,9.946C12.228,10.793 11.855,11.59 11.431,12.044C10.843,12.673 9.833,13.065 8.618,13.133C7.49,13.196 6.642,12.984 6.149,12.807C5.829,12.693 5.659,12.593 5.659,12.593Z" style="fill:white;"/><g transform="matrix(1.01356,0,0,1.09473,0.0271821,0.5)"><path d="M5.556,12.985C3.124,11.862 1.453,9.536 1.453,6.851C1.453,3.07 4.769,0 8.853,0C9.734,0 10.58,0.143 11.364,0.405L11.373,2.062L6.129,2.069L5.758,6.627L6.488,7.038C6.488,7.038 7.553,6.78 8.417,6.851C10.169,6.995 10.397,7.699 10.407,8.658C10.417,9.587 9.598,10.263 8.329,10.289C6.766,10.321 5.559,9.674 5.559,9.674L5.557,11.046L5.556,12.985Z" style="fill:rgb(220,82,74);"/></g><path d="M11.555,2.758L11.545,0.944C14.434,1.987 16.5,4.754 16.5,8C16.5,12.139 13.139,15.5 9,15.5C7.8,15.5 6.665,15.217 5.658,14.715L5.659,12.593C5.659,12.593 5.829,12.693 6.149,12.807C6.642,12.984 7.49,13.196 8.618,13.133C9.833,13.065 10.843,12.673 11.431,12.044C11.855,11.59 12.228,10.793 12.264,9.946C12.316,8.73 11.965,7.95 11.263,7.337C10.792,6.925 9.998,6.625 9,6.605C8.351,6.591 7.857,6.707 7.461,6.764C7.461,6.764 7.699,4.219 7.699,4.219L11.55,4.218L11.555,2.758Z" style="fill:rgb(37,161,98);"/></g></svg>