<svg width="100%" height="100%" viewBox="0 0 18 16" version="1.1" xmlns="http://www.w3.org/2000/svg" xmlns:xlink="http://www.w3.org/1999/xlink" xml:space="preserve" style="fill-rule:evenodd;clip-rule:evenodd;stroke-linejoin:round;stroke-miterlimit:2;"><g id="jupyter" transform="matrix(0.280029,0,0,0.280029,-455.098,-585.188)"><g id="g"><g id="path7_fill" transform="matrix(1,0,0,1,1669.3,2093.31)"><g id="path"><g id="path7-fill"><path id="path7_fill1" d="M5.894,2.844C5.919,3.432 5.771,4.014 5.468,4.516C5.165,5.019 4.722,5.42 4.193,5.669C3.664,5.917 3.074,6.002 2.498,5.912C1.922,5.822 1.385,5.562 0.955,5.164C0.525,4.766 0.222,4.249 0.084,3.678C-0.054,3.106 -0.021,2.506 0.179,1.954C0.379,1.401 0.737,0.921 1.208,0.574C1.678,0.226 2.241,0.028 2.823,0.003C3.604,-0.031 4.366,0.25 4.941,0.783C5.517,1.315 5.86,2.057 5.894,2.844Z" style="fill:rgb(118,118,119);fill-rule:nonzero;"/></g></g></g><g id="path8_fill" transform="matrix(1,0,0,1,1639.74,2123.98)"><g id="path1"><g id="path8-fill"><path id="path8_fill1" d="M18.265,7.134C10.415,7.134 3.559,4.258 0,0C1.325,3.82 3.796,7.131 7.069,9.473C10.342,11.815 14.256,13.073 18.269,13.073C22.282,13.073 26.196,11.815 29.469,9.473C32.742,7.131 35.213,3.82 36.538,0C32.971,4.258 26.115,7.134 18.265,7.134Z" style="fill:rgb(243,119,38);fill-rule:nonzero;"/></g></g></g><g id="path9_fill" transform="matrix(1,0,0,1,1639.73,2097.48)"><g id="path2"><g id="path9-fill"><path id="path9_fill1" d="M18.273,5.939C26.124,5.939 32.979,8.816 36.538,13.073C35.213,9.253 32.742,5.943 29.469,3.6C26.196,1.258 22.282,0 18.269,0C14.256,0 10.342,1.258 7.069,3.6C3.796,5.943 1.325,9.253 0,13.073C3.567,8.825 10.423,5.939 18.273,5.939Z" style="fill:rgb(243,119,38);fill-rule:nonzero;"/></g></g></g><g id="path10_fill" transform="matrix(1,0,0,1,1639.8,2135.81)"><g id="path3"><g id="path10-fill"><path id="path10_fill1" d="M7.428,3.583C7.46,4.324 7.274,5.058 6.892,5.692C6.51,6.326 5.951,6.832 5.284,7.145C4.617,7.458 3.874,7.564 3.147,7.451C2.42,7.337 1.743,7.009 1.202,6.507C0.66,6.005 0.279,5.353 0.105,4.632C-0.069,3.911 -0.026,3.155 0.227,2.459C0.48,1.762 0.932,1.157 1.526,0.72C2.12,0.283 2.829,0.033 3.564,0.003C4.547,-0.037 5.505,0.317 6.23,0.988C6.954,1.659 7.385,2.592 7.428,3.583Z" style="fill:rgb(152,151,152);fill-rule:nonzero;"/></g></g></g><g id="path11_fill" transform="matrix(1,0,0,1,1638.36,2098.06)"><g id="path4"><g id="path11-fill"><path id="path11_fill1" d="M2.275,4.396C1.844,4.415 1.417,4.304 1.048,4.078C0.679,3.852 0.385,3.521 0.203,3.127C0.021,2.732 -0.04,2.292 0.026,1.862C0.092,1.432 0.283,1.031 0.575,0.711C0.867,0.391 1.247,0.165 1.666,0.062C2.086,-0.041 2.526,-0.015 2.931,0.134C3.336,0.284 3.688,0.552 3.942,0.903C4.197,1.255 4.342,1.674 4.359,2.109C4.383,2.691 4.177,3.259 3.786,3.687C3.395,4.116 2.852,4.371 2.275,4.396Z" style="fill:rgb(111,112,112);fill-rule:nonzero;"/></g></g></g></g></g></svg>