<svg width="100%" height="100%" viewBox="0 0 18 16" version="1.1" xmlns="http://www.w3.org/2000/svg" xmlns:xlink="http://www.w3.org/1999/xlink" xml:space="preserve" style="fill-rule:evenodd;clip-rule:evenodd;stroke-linejoin:round;stroke-miterlimit:2;"><g id="kong" transform="matrix(0.334615,0,0,0.334615,20.566,5.21816)"><g transform="matrix(1,0,0,1,-56.9789,-11.6864)"><path d="M14.699,32.947L13.6,34.337L16.087,38.209L15.828,40L26.381,40L27.111,38.209L22.867,32.947L14.699,32.947Z" style="fill:url(#_Linear1);fill-rule:nonzero;"/></g><g transform="matrix(1,0,0,1,-56.9789,-11.6864)"><path d="M20.471,9.382L16.653,16.039L35.272,37.987L34.742,40L43.283,40L44.828,32.86L24.905,9.379L20.471,9.382Z" style="fill:url(#_Linear2);fill-rule:nonzero;"/></g><g transform="matrix(1,0,0,1,-56.9789,-11.6864)"><path d="M23.006,4.378L21.19,7.708L25.694,7.708L33.424,16.872L38.019,13.113L38.019,10.725L36.422,8.491L37.602,7.268L28.383,0L23.006,4.378Z" style="fill:url(#_Linear3);fill-rule:nonzero;"/></g><g transform="matrix(1,0,0,1,-56.9789,-11.6864)"><path d="M9.147,22.928L6.63,22.928L0,31.313L0,40L7.112,40L8.369,38.373L13.855,31.295L21.793,31.295L24.237,27.564L15.631,17.389L9.147,22.928Z" style="fill:url(#_Linear4);fill-rule:nonzero;"/></g></g><defs><linearGradient id="_Linear1" x1="0" y1="0" x2="1" y2="0" gradientUnits="userSpaceOnUse" gradientTransform="matrix(-29.4721,30.1255,-30.1255,-29.4721,32.8977,13.2258)"><stop offset="0" style="stop-color:rgb(17,160,107);stop-opacity:1"/><stop offset="1" style="stop-color:rgb(40,111,235);stop-opacity:1"/></linearGradient><linearGradient id="_Linear2" x1="0" y1="0" x2="1" y2="0" gradientUnits="userSpaceOnUse" gradientTransform="matrix(-29.4721,30.1255,-30.1255,-29.4721,32.8977,13.2258)"><stop offset="0" style="stop-color:rgb(17,160,107);stop-opacity:1"/><stop offset="1" style="stop-color:rgb(40,111,235);stop-opacity:1"/></linearGradient><linearGradient id="_Linear3" x1="0" y1="0" x2="1" y2="0" gradientUnits="userSpaceOnUse" gradientTransform="matrix(-29.4721,30.1255,-30.1255,-29.4721,32.8977,13.2258)"><stop offset="0" style="stop-color:rgb(17,160,107);stop-opacity:1"/><stop offset="1" style="stop-color:rgb(40,111,235);stop-opacity:1"/></linearGradient><linearGradient id="_Linear4" x1="0" y1="0" x2="1" y2="0" gradientUnits="userSpaceOnUse" gradientTransform="matrix(-29.4721,30.1255,-30.1255,-29.4721,32.8977,13.2258)"><stop offset="0" style="stop-color:rgb(17,160,107);stop-opacity:1"/><stop offset="1" style="stop-color:rgb(40,111,235);stop-opacity:1"/></linearGradient></defs></svg>