<svg width="100%" height="100%" viewBox="0 0 18 16" version="1.1" xmlns="http://www.w3.org/2000/svg" xmlns:xlink="http://www.w3.org/1999/xlink" xml:space="preserve" style="fill-rule:evenodd;clip-rule:evenodd;"><g id="g3365" transform="matrix(0.0761884,0,0,-0.0761884,-8.54259,-23.6351)"><g id="latex"><g id="g3363"><g id="g33651"><g id="g3367"><g id="g3369"><g id="g3371"><path id="path3373" d="M149.96,-340.67C151.857,-344.087 153.83,-347.03 155.888,-349.562L155.913,-349.587C155.92,-349.596 155.931,-349.603 155.938,-349.612C154.99,-349.473 154.013,-349.377 152.999,-349.387C150.995,-349.409 148.843,-349.753 146.523,-350.483C150.508,-353.82 153.901,-356.26 156.884,-358.155C156.811,-358.131 156.732,-358.104 156.66,-358.08L156.884,-358.205C152.263,-356.758 147.278,-356.581 141.442,-359.35C145.632,-361.973 149.149,-363.886 152.252,-365.328C152.161,-365.314 152.069,-365.291 151.978,-365.278L152.202,-365.403C147.367,-364.57 142.348,-365.038 136.884,-368.641C140.447,-370.228 143.542,-371.426 146.299,-372.352L146.324,-372.352L146.498,-372.451C141.887,-372.631 137.317,-374.066 132.849,-378.304C136.752,-379.273 140.094,-379.919 143.036,-380.347C142.954,-380.364 142.87,-380.379 142.787,-380.397C142.672,-380.395 142.553,-380.399 142.438,-380.397L142.563,-380.446C139.126,-381.227 135.774,-382.95 132.501,-386.25C135.153,-386.823 137.539,-387.268 139.724,-387.595C137.034,-388.895 134.48,-390.91 132.152,-393.996C135.208,-394.233 137.916,-394.335 140.347,-394.345C137.406,-395.706 134.634,-397.842 132.177,-401.294C136.542,-401.512 140.191,-401.503 143.335,-401.319C143.276,-401.343 143.22,-401.369 143.161,-401.393C142.97,-401.41 142.778,-401.423 142.588,-401.443L142.862,-401.543C139.593,-402.978 136.567,-405.304 133.97,-409.239C139.395,-409.318 143.692,-409.062 147.295,-408.616C147.185,-408.646 147.081,-408.685 146.971,-408.716C146.832,-408.724 146.685,-408.731 146.548,-408.741L146.722,-408.791C142.473,-410.057 138.548,-412.495 135.29,-417.433C139.672,-417.497 143.331,-417.331 146.473,-417.035C146.405,-417.072 146.342,-417.122 146.274,-417.159C142.52,-419.254 139.292,-422.4 137.158,-427.72C141.012,-426.99 144.242,-426.22 147.046,-425.404C147,-425.441 146.943,-425.466 146.897,-425.504L147.071,-425.479C144.185,-427.633 141.758,-430.651 140.122,-435.118C142.775,-434.531 145.146,-433.915 147.27,-433.299C145.363,-435.605 143.89,-438.483 143.061,-442.266C145.942,-441.205 148.441,-440.184 150.658,-439.177C150.631,-439.209 150.61,-439.245 150.583,-439.277C150.538,-439.313 150.478,-439.341 150.434,-439.377L150.508,-439.352C148.475,-441.788 146.924,-444.852 146.15,-448.916C150.206,-447.294 153.506,-445.737 156.287,-444.258C156.208,-444.335 156.111,-444.406 156.038,-444.483L156.112,-444.458C153.653,-447.155 151.816,-450.621 151.081,-455.392C155.869,-453.278 159.559,-451.313 162.588,-449.464C162.556,-449.497 162.52,-449.531 162.488,-449.563L162.688,-449.464C159.248,-452.41 156.609,-456.318 155.689,-462.291C162.142,-459.442 166.656,-456.862 170.16,-454.47C168.655,-457.513 167.86,-461.06 168.242,-465.504C174.479,-460.719 178.428,-456.861 181.368,-453.449C181.363,-453.498 181.372,-453.549 181.368,-453.598C181.19,-455.761 181.325,-458.106 181.966,-460.697C185.664,-454.344 189.362,-451.711 193.124,-449.539C188.418,-452.589 189.263,-455.06 189.263,-457.883C194.859,-451.99 202.642,-445.732 205.029,-441.818C201.838,-446.61 200.564,-451.161 199.724,-455.168C183.397,-463.802 173.433,-466.063 162.289,-469.514C166.612,-471.099 171.252,-472.64 169.338,-474.844L164.232,-479.95C167.497,-478.935 170.831,-477.472 173.721,-479.452C173.438,-482.13 170.06,-483.495 167.171,-485.056C172.258,-483.223 173.355,-483.654 174.693,-484.084C175.361,-487.293 173.04,-489.014 171.53,-491.133C184.343,-481.391 201.052,-473.699 212.826,-470.485C229.387,-464.908 250.755,-459.094 256.563,-444.955L262.366,-421.642C269.174,-414.273 275.436,-406.645 278.406,-397.358C297.364,-393.69 312.701,-395.005 328.693,-395.415C327.235,-395.172 279.875,-387.146 279.875,-387.146C266.031,-368.204 245.378,-381.087 238.579,-399.799C236.863,-404.522 227.07,-404.512 224.233,-399.774C213.015,-375.622 178.951,-350.081 149.96,-340.67L149.96,-340.67L149.96,-340.67Z" style="fill-rule:nonzero;"/></g><g id="g3375"><path id="path3377" d="M149.63,-339.31C151.54,-342.751 153.526,-345.688 155.6,-348.232C154.652,-348.094 153.675,-348.012 152.661,-348.023C150.657,-348.044 148.515,-348.377 146.194,-349.107C150.244,-352.498 153.666,-354.973 156.684,-356.88C152.021,-355.391 146.999,-355.178 141.1,-357.977C145.409,-360.674 149.026,-362.622 152.191,-364.078C147.257,-363.168 142.139,-363.583 136.554,-367.265C140.242,-368.908 143.431,-370.142 146.26,-371.08C141.616,-371.242 137.018,-372.677 132.518,-376.945C136.422,-377.913 139.766,-378.555 142.707,-378.983C139.107,-379.71 135.575,-381.437 132.152,-384.887C134.804,-385.46 137.192,-385.893 139.376,-386.22C136.687,-387.52 134.14,-389.535 131.813,-392.621C134.869,-392.858 137.572,-392.963 140.003,-392.973C137.062,-394.334 134.309,-396.485 131.852,-399.936C136.217,-400.154 139.863,-400.133 143.008,-399.949C139.551,-401.362 136.366,-403.75 133.642,-407.879C139.066,-407.958 143.362,-407.697 146.966,-407.252C142.493,-408.466 138.354,-410.907 134.948,-416.069C139.33,-416.133 142.987,-415.974 146.13,-415.677C142.288,-417.771 138.988,-420.946 136.816,-426.363C140.771,-425.614 144.085,-424.812 146.94,-423.973C143.967,-426.136 141.468,-429.175 139.794,-433.744C142.447,-433.157 144.802,-432.543 146.927,-431.928C145.019,-434.234 143.549,-437.12 142.72,-440.903C145.601,-439.841 148.094,-438.813 150.31,-437.807C148.204,-440.27 146.596,-443.39 145.803,-447.552C149.86,-445.93 153.159,-444.38 155.94,-442.901C153.391,-445.626 151.494,-449.132 150.741,-454.018C155.68,-451.838 159.469,-449.818 162.55,-447.918C159.012,-450.883 156.291,-454.826 155.352,-460.916C161.806,-458.067 166.309,-455.483 169.813,-453.091C168.308,-456.134 167.511,-459.698 167.893,-464.142C174.13,-459.357 178.081,-455.483 181.021,-452.072C180.823,-454.275 180.979,-456.671 181.635,-459.322C186.113,-451.629 190.562,-449.383 195.167,-446.816C187.832,-450.508 188.92,-453.288 188.92,-456.514C194.515,-450.621 202.318,-444.373 204.705,-440.459C201.514,-445.251 200.215,-449.789 199.375,-453.796C183.048,-462.43 173.107,-464.687 161.962,-468.139C166.285,-469.724 170.918,-471.277 169.003,-473.482L163.895,-478.576C167.16,-477.561 170.489,-476.113 173.379,-478.093C173.096,-480.771 169.711,-482.123 166.821,-483.684C171.908,-481.851 173.008,-482.274 174.346,-482.704C175.014,-485.913 172.695,-487.639 171.185,-489.758C183.998,-480.016 200.717,-472.319 212.491,-469.105C229.052,-463.528 250.406,-457.731 256.213,-443.593L262.039,-420.275C268.847,-412.907 275.11,-405.265 278.081,-395.978C297.039,-392.31 312.369,-393.635 328.361,-394.045C326.903,-393.802 279.531,-385.776 279.531,-385.776C265.687,-366.834 245.05,-379.709 238.251,-398.421C236.535,-403.144 226.745,-403.145 223.908,-398.408C212.69,-374.256 178.622,-348.721 149.631,-339.31L149.631,-339.31L149.63,-339.31Z" style="fill:rgb(0,128,128);fill-rule:nonzero;"/></g><g id="g3379"><path id="path3381" d="M261.48,-388.74L261.355,-388.939C260.864,-389.855 260.033,-390.479 258.865,-390.857C257.696,-391.235 256.199,-391.356 254.456,-391.281L253.36,-391.231L254.157,-392.003C254.562,-392.392 254.675,-392.703 254.68,-392.974C254.686,-393.246 254.569,-393.539 254.307,-393.871C253.782,-394.535 252.739,-395.256 251.766,-395.988L251.442,-396.212L251.667,-396.536C252.478,-397.781 252.85,-398.739 252.937,-399.475C253.024,-400.211 252.853,-400.738 252.513,-401.194C251.834,-402.104 250.344,-402.721 249.002,-403.485L248.753,-403.609L248.802,-403.908C248.918,-404.609 248.729,-405.181 248.23,-405.751C247.73,-406.322 246.889,-406.866 245.764,-407.346L245.465,-407.47L245.515,-407.794C245.739,-409.293 246.19,-410.598 247.134,-411.43C247.997,-412.192 249.303,-412.392 250.969,-412.053C251.26,-413.651 251.676,-415.105 252.638,-416.063C253.613,-417.034 255.157,-417.321 257.221,-416.785C257.685,-417.905 258.364,-418.702 259.139,-419.226C259.989,-419.801 261.101,-420.033 262.015,-420.317L262.557,-419.735C261.649,-419.453 260.31,-419.017 259.587,-418.529C258.865,-418.04 258.278,-417.371 257.869,-416.213L257.744,-415.814L257.345,-415.938C255.223,-416.591 254.046,-416.297 253.236,-415.49C252.426,-414.683 251.97,-413.225 251.692,-411.53L251.617,-411.082L251.169,-411.206C249.419,-411.663 248.386,-411.429 247.682,-410.808C247.023,-410.227 246.633,-409.198 246.411,-407.918C247.425,-407.45 248.294,-406.937 248.852,-406.3C249.398,-405.676 249.634,-404.907 249.599,-404.108C250.836,-403.428 252.327,-402.843 253.186,-401.692C253.635,-401.09 253.868,-400.298 253.759,-399.375C253.66,-398.536 253.248,-397.565 252.539,-396.411C253.41,-395.77 254.356,-395.127 254.954,-394.369C255.287,-393.948 255.538,-393.482 255.527,-392.949C255.521,-392.656 255.239,-392.388 255.079,-392.103C256.594,-392.122 257.975,-392.023 259.114,-391.654C260.314,-391.266 261.257,-390.559 261.879,-389.587C263.672,-389.596 265.529,-389.99 267.408,-390.235C269.338,-390.485 271.302,-390.553 273.161,-389.736L272.813,-388.964C271.167,-389.686 269.41,-389.657 267.532,-389.413C265.655,-389.169 263.698,-388.726 261.729,-388.74L261.48,-388.74L261.48,-388.74Z" style="fill:white;fill-rule:nonzero;"/></g><g id="g3383"><path id="path3385" d="M268.45,-388.43C268.45,-390.385 266.866,-391.969 264.911,-391.969C262.956,-391.969 261.372,-390.385 261.372,-388.43C261.372,-386.476 262.956,-384.891 264.911,-384.891C266.866,-384.891 268.45,-386.475 268.45,-388.43Z" style="fill:white;fill-rule:nonzero;stroke:white;stroke-width:0.84px;"/></g><g id="g3387"><path id="path3389" d="M279.02,-385.11C275.843,-389.243 275.044,-388.176 273.109,-388.869L272.786,-388.993L272.836,-389.342C273.58,-393.493 276.041,-394.813 277.961,-396.322L278.068,-395.986L278.579,-395.888C276.654,-394.376 274.548,-393.094 273.782,-389.566C275.191,-389.233 276.535,-389.659 279.536,-385.755L279.02,-385.11L279.02,-385.11Z" style="fill:white;fill-rule:nonzero;"/></g><g id="g3391"><path id="path3393" d="M156.68,-356.87C162.684,-360.593 172.565,-364.432 178.911,-368.442C182.402,-370.665 185.538,-372.88 187.977,-374.793C190.417,-376.707 192.22,-378.684 192.884,-379.326C193.547,-379.969 193.998,-379.665 193.556,-378.828C193.115,-377.991 190.942,-376.056 188.475,-374.121C186.009,-372.186 182.871,-369.981 179.359,-367.745C172.336,-363.272 164.092,-359.274 156.68,-356.87L156.68,-356.87Z" style="fill:white;fill-rule:nonzero;"/></g><g id="g3395"><path id="path3397" d="M155.6,-348.23C158.117,-348.811 161.831,-350.958 165.962,-353.254C170.093,-355.551 174.595,-358.377 178.714,-361.125C182.834,-363.873 186.01,-366.278 188.549,-368.215C190.96,-370.279 192.151,-371.615 192.612,-371.611C192.675,-371.624 192.738,-371.625 192.836,-371.611C192.935,-371.597 193.101,-371.521 193.185,-371.362C193.269,-371.202 193.236,-371.069 193.21,-370.988C193.183,-370.908 193.169,-370.865 193.135,-370.814C192.999,-370.609 192.791,-370.418 192.488,-370.141C191.881,-369.589 190.878,-368.776 189.598,-367.8C187.039,-365.847 183.321,-363.185 179.187,-360.428C175.054,-357.67 170.52,-354.82 166.36,-352.507C164.882,-351.959 157.63,-348.124 155.599,-348.23L155.599,-348.23L155.6,-348.23Z" style="fill:white;fill-rule:nonzero;"/></g><g id="g3399"><path id="path3401" d="M152.16,-364.08C159.866,-367.225 170.828,-370.92 178.145,-375.519C182.076,-378.016 185.501,-380.503 188.058,-382.543C189.337,-383.563 190.404,-384.48 191.196,-385.208C191.988,-385.936 192.435,-386.597 192.691,-386.777C193.227,-387.155 193.637,-386.904 193.388,-386.304C193.2,-385.851 192.58,-385.331 191.769,-384.585C190.958,-383.839 189.872,-382.925 188.581,-381.895C185.999,-379.835 182.552,-377.311 178.593,-374.797C170.675,-369.769 161.209,-365.348 152.16,-364.08L152.16,-364.08Z" style="fill:white;fill-rule:nonzero;"/></g><g id="g3403"><path id="path3405" d="M146.23,-371.07C152.236,-371.074 164.641,-376.571 169.87,-379.326C178.348,-383.847 186.058,-389.66 190.319,-393.722C190.791,-394.172 191.482,-393.775 190.942,-393.149C186.984,-388.563 178.81,-383.158 170.269,-378.603C161.728,-374.048 152.884,-371.063 146.23,-371.069L146.23,-371.07Z" style="fill:white;fill-rule:nonzero;"/></g><g id="g3407"><path id="path3409" d="M142.76,-378.98C151.789,-380.301 162.611,-383.945 170.496,-387.894C174.896,-390.128 178.82,-392.521 181.829,-394.644C184.838,-396.767 187.059,-399.156 187.607,-399.775C188.156,-400.393 188.809,-400.419 188.305,-399.326C187.801,-398.234 185.351,-396.097 182.302,-393.947C179.254,-391.796 175.305,-389.399 170.87,-387.147C162.001,-382.644 151.9,-379.101 142.76,-378.98L142.76,-378.98Z" style="fill:white;fill-rule:nonzero;"/></g><g id="g3411"><path id="path3413" d="M145.74,-385.7C143.497,-385.504 141.478,-385.964 139.421,-386.221C147.444,-385.47 158.661,-389.154 166.139,-392.599C174.948,-396.729 182.262,-402.399 185.766,-405.999C186.315,-406.563 186.703,-405.845 186.414,-405.476C183.151,-401.311 175.382,-395.997 166.488,-391.827C159.818,-388.7 152.469,-386.287 145.74,-385.7L145.74,-385.7Z" style="fill:white;fill-rule:nonzero;"/></g><g id="g3415"><path id="path3417" d="M140.04,-392.93C147.934,-393.515 158.504,-395.406 165.908,-398.804C173.354,-402.287 179.005,-406.803 181.848,-409.365C182.285,-409.759 183.059,-409.48 182.446,-408.767C179.851,-405.753 173.818,-401.583 166.281,-398.057C158.744,-394.532 149.589,-392.275 140.04,-392.93L140.04,-392.93Z" style="fill:white;fill-rule:nonzero;"/></g><g id="g3419"><path id="path3421" d="M147.13,-399.5C145.464,-399.444 144.683,-399.755 143.076,-399.929C148.434,-400.165 156.949,-401.59 161.651,-403.186C167.753,-405.303 172.77,-408.492 175.624,-410.982C176.175,-411.463 176.586,-410.818 176.222,-410.409C173.549,-407.41 168.117,-404.537 161.925,-402.389C157.281,-400.778 152.127,-399.669 147.13,-399.5L147.13,-399.5Z" style="fill:white;fill-rule:nonzero;"/></g><g id="g3423"><path id="path3425" d="M146.9,-407.27C158.354,-408.043 165.28,-410.061 170.589,-414.817C170.987,-415.173 171.615,-414.683 171.187,-414.219C165.739,-408.316 155.012,-406.672 146.9,-407.27L146.9,-407.27Z" style="fill:white;fill-rule:nonzero;"/></g><g id="g3427"><path id="path3429" d="M155.72,-414.15C152.248,-413.871 149.342,-414.629 146.178,-415.683C155.439,-414.207 159.289,-414.915 166.305,-418.21C167.105,-418.585 167.058,-417.701 166.704,-417.487C162.976,-415.247 159.192,-414.429 155.72,-414.15L155.72,-414.15Z" style="fill:white;fill-rule:nonzero;"/></g><g id="g3431"><path id="path3433" d="M155.39,-420.6C152.107,-420.891 149.319,-422.018 147.021,-423.888C156.192,-420.353 158.726,-421.056 165.74,-423.045C166.663,-423.306 166.376,-422.418 166.014,-422.273C161.814,-420.589 158.673,-420.309 155.39,-420.6L155.39,-420.6Z" style="fill:white;fill-rule:nonzero;"/></g><g id="g3435"><path id="path3437" d="M173.56,-426.28C168.667,-425.751 163.155,-426.344 158.317,-427.226C153.479,-428.109 149.319,-429.901 146.97,-431.811C155.014,-428.414 156.479,-428.421 158.467,-428.048C163.233,-427.179 167.957,-426.84 173.511,-427.102C174.015,-427.126 173.989,-426.326 173.561,-426.28L173.56,-426.28Z" style="fill:white;fill-rule:nonzero;"/></g><g id="g3439"><path id="path3441" d="M176.4,-430.24C171.098,-430.04 165.621,-431.352 160.883,-432.706C156.145,-434.06 152.629,-435.907 150.31,-437.794C155.002,-435.537 159.368,-434.009 161.107,-433.503C165.778,-432.168 170.491,-431.012 176.45,-431.087C176.913,-431.093 177.212,-430.271 176.4,-430.24L176.4,-430.24Z" style="fill:white;fill-rule:nonzero;"/></g><g id="g3443"><path id="path3445" d="M180.73,-433.5C175.736,-434.237 170.5,-435.712 165.935,-437.261C161.371,-438.81 158.121,-440.649 156.002,-442.851C161.431,-439.734 164.417,-438.641 166.184,-438.033C170.692,-436.503 174.902,-435.439 180.879,-434.322C181.596,-434.188 181.02,-433.457 180.729,-433.5L180.73,-433.5Z" style="fill:white;fill-rule:nonzero;"/></g><g id="g3447"><path id="path3449" d="M183.27,-437.66C173.255,-439.255 166.765,-443.576 162.64,-447.861C169.033,-443.045 173.48,-440.456 183.444,-438.482C184.075,-438.357 183.884,-437.562 183.27,-437.66L183.27,-437.66Z" style="fill:white;fill-rule:nonzero;"/></g><g id="g3451"><path id="path3453" d="M188.15,-441.32C178.077,-442.872 172.268,-448.995 169.849,-453.037C176.222,-446.671 181.182,-443.206 188.324,-442.142C189.047,-442.034 188.862,-441.21 188.15,-441.32L188.15,-441.32Z" style="fill:white;fill-rule:nonzero;"/></g><g id="g3455"><path id="path3457" d="M191.19,-444.51C189.619,-444.706 187.481,-445.819 185.461,-447.1C183.442,-448.382 181.918,-449.941 181.009,-451.95C183.442,-449.439 184.416,-448.76 185.91,-447.798C187.849,-446.567 189.803,-445.792 191.389,-445.332C192.133,-445.116 191.571,-444.462 191.19,-444.51L191.19,-444.51Z" style="fill:white;fill-rule:nonzero;"/></g><g id="g3459"><path id="path3461" d="M268.45,-388.43C268.45,-390.385 266.866,-391.969 264.911,-391.969C262.956,-391.969 261.372,-390.385 261.372,-388.43C261.372,-386.476 262.956,-384.891 264.911,-384.891C266.866,-384.891 268.45,-386.475 268.45,-388.43Z" style="fill:white;fill-rule:nonzero;stroke:white;stroke-width:0.84px;"/></g><g id="g3463"><path id="path3465" d="M268.45,-388.43C268.45,-390.385 266.866,-391.969 264.911,-391.969C262.956,-391.969 261.372,-390.385 261.372,-388.43C261.372,-386.476 262.956,-384.891 264.911,-384.891C266.866,-384.891 268.45,-386.475 268.45,-388.43Z" style="fill:rgb(55,200,113);fill-rule:nonzero;stroke:white;stroke-width:0.84px;"/></g></g></g></g></g></g></g></svg>