<svg width="100%" height="100%" viewBox="0 0 18 16" version="1.1" xmlns="http://www.w3.org/2000/svg" xmlns:xlink="http://www.w3.org/1999/xlink" xml:space="preserve" style="fill-rule:evenodd;clip-rule:evenodd;stroke-linecap:round;stroke-linejoin:round;"><g id="lean-dark" transform="matrix(0.0336134,0,0,0.0336134,0.831933,5.15966)"><path d="M206.333,5.679L105.667,5.679M206.333,5.679L243.25,84.5M206.333,5.679L206.333,84.5M243.25,84.5L317.549,84.5M243.25,84.5L279.667,163.321L280.889,163.318L317.549,84.5M206.333,84.5L206.333,163.321L5,163.321L5,5M206.333,84.5L105.667,84.5M317.549,84.5L353,5.679M353,5.679L353,164M353,5.679L353.667,5.679L480.333,163.454L481,163.454L481,5" style="fill:none;fill-rule:nonzero;stroke:rgb(56,110,224);stroke-width:14.87px;"/></g></svg>