<svg width="100%" height="100%" viewBox="0 0 18 16" version="1.1" xmlns="http://www.w3.org/2000/svg" xmlns:xlink="http://www.w3.org/1999/xlink" xml:space="preserve" style="fill-rule:evenodd;clip-rule:evenodd;stroke-linejoin:round;stroke-miterlimit:2;"><g id="less" transform="matrix(1,0,0,1,0.098317,0.0988297)"><g><g transform="matrix(1.03475,0,0,0.913729,-0.581732,0.470547)"><path d="M3.245,5.075L3.245,4.179L15.085,4.177L15.085,5.075C15.085,5.075 15.529,5.031 15.661,5.251C15.793,5.47 15.75,5.949 15.75,5.949L15.75,7.093C15.75,7.093 15.779,7.553 16.038,7.795C16.261,8.005 16.561,8.119 16.561,8.119C16.561,8.119 16.272,8.196 16.112,8.336C15.951,8.476 15.75,8.702 15.75,9.136L15.75,10.458C15.75,10.458 15.78,10.84 15.633,10.998C15.458,11.185 15.085,11.156 15.085,11.156L15.085,12.031L15.16,12.031L15.16,12.088L3.034,12.088L3.034,12.027L3.245,12.031L3.245,11.156C3.245,11.156 2.872,11.185 2.697,10.998C2.55,10.84 2.58,10.458 2.58,10.458L2.58,9.136C2.58,8.702 2.378,8.476 2.218,8.336C2.058,8.196 1.768,8.119 1.768,8.119C1.768,8.119 2.069,8.005 2.292,7.795C2.551,7.553 2.58,7.093 2.58,7.093L2.58,5.949C2.58,5.949 2.537,5.47 2.669,5.251C2.801,5.031 3.245,5.075 3.245,5.075Z" style="fill:url(#_Linear-gwwrxfb);"/></g><path d="M15.027,4.289L15.027,5.107C15.027,5.107 15.487,5.067 15.623,5.268C15.76,5.469 15.715,5.906 15.715,5.906L15.715,6.952C15.715,6.952 15.746,7.372 16.013,7.593C16.245,7.785 16.555,7.889 16.555,7.889C16.555,7.889 16.256,7.96 16.09,8.088C15.924,8.216 15.715,8.422 15.715,8.818L15.715,10.026C15.715,10.026 15.747,10.375 15.594,10.52C15.414,10.691 15.027,10.664 15.027,10.664L15.027,11.464C15.027,11.464 15.942,11.502 16.342,11.229C16.588,11.061 16.739,10.781 16.739,10.477C16.739,10.173 16.739,9.04 16.739,9.04C16.739,9.04 16.74,8.617 16.972,8.445C17.189,8.284 17.64,8.304 17.64,8.304L17.64,7.464C17.64,7.464 17.232,7.485 16.996,7.329C16.697,7.13 16.739,6.638 16.739,6.638C16.739,6.638 16.734,5.739 16.739,5.371C16.743,5.071 16.721,4.832 16.335,4.536C15.956,4.244 15.027,4.289 15.027,4.289Z" style="fill:white;"/><path d="M15.027,4.289L15.027,5.107C15.027,5.107 15.487,5.067 15.623,5.268C15.76,5.469 15.715,5.906 15.715,5.906L15.715,6.952C15.715,6.952 15.746,7.372 16.013,7.593C16.245,7.785 16.555,7.889 16.555,7.889C16.555,7.889 16.256,7.96 16.09,8.088C15.924,8.216 15.715,8.422 15.715,8.818L15.715,10.026C15.715,10.026 15.747,10.375 15.594,10.52C15.414,10.691 15.027,10.664 15.027,10.664L15.027,11.464C15.027,11.464 15.942,11.502 16.342,11.229C16.588,11.061 16.739,10.781 16.739,10.477C16.739,10.173 16.739,9.04 16.739,9.04C16.739,9.04 16.74,8.617 16.972,8.445C17.189,8.284 17.64,8.304 17.64,8.304L17.64,7.464C17.64,7.464 17.232,7.485 16.996,7.329C16.697,7.13 16.739,6.638 16.739,6.638C16.739,6.638 16.734,5.739 16.739,5.371C16.743,5.071 16.721,4.832 16.335,4.536C15.956,4.244 15.027,4.289 15.027,4.289Z" style="fill:white;"/><path d="M2.776,4.287L3.79,4.287L3.79,8.566C3.79,8.566 3.768,9.053 3.949,9.238C4.105,9.398 4.341,9.394 4.466,9.396C4.592,9.398 4.922,9.359 4.922,9.359L4.954,10.076C4.954,10.076 4.557,10.185 4.24,10.185C3.922,10.185 3.419,10.111 3.152,9.824C2.885,9.536 2.776,9.008 2.776,8.778L2.776,4.287Z" style="fill:white;"/><path d="M8.545,8.206L5.768,8.206C5.768,8.206 5.701,9.43 6.929,9.431C7.759,9.432 8.241,9.068 8.241,9.068L8.389,9.807C8.389,9.807 7.903,10.187 6.868,10.185C5.042,10.182 4.738,8.793 4.739,8C4.74,7.081 5.155,5.784 6.653,5.787C8.915,5.79 8.545,8.206 8.545,8.206ZM5.768,7.592L7.606,7.592C7.606,7.592 7.656,6.534 6.73,6.534C5.769,6.534 5.768,7.592 5.768,7.592Z" style="fill:white;"/><path d="M11.723,6.115C11.723,6.115 11.321,5.794 10.338,5.787C9.188,5.778 8.721,6.333 8.722,6.973C8.724,7.599 9.08,7.947 9.736,8.206C10.378,8.459 10.896,8.586 10.886,8.959C10.877,9.332 10.596,9.468 10.194,9.469C9.523,9.472 8.843,9.1 8.843,9.1L8.722,9.868C8.722,9.868 9.129,10.19 10.188,10.185C11.273,10.18 11.869,9.77 11.858,8.888C11.848,8.006 11.244,7.798 10.724,7.592C10.204,7.386 9.694,7.319 9.695,6.909C9.695,6.559 10.028,6.534 10.338,6.534C11.146,6.535 11.477,6.804 11.477,6.804L11.723,6.115Z" style="fill:white;"/><g transform="matrix(1,0,0,1,3.27959,-9.99201e-16)"><path d="M11.723,6.115C11.723,6.115 11.321,5.794 10.338,5.787C9.188,5.778 8.721,6.333 8.722,6.973C8.724,7.599 9.08,7.947 9.736,8.206C10.378,8.459 10.896,8.586 10.886,8.959C10.877,9.332 10.596,9.468 10.194,9.469C9.523,9.472 8.843,9.1 8.843,9.1L8.722,9.868C8.722,9.868 9.129,10.19 10.188,10.185C11.273,10.18 11.869,9.77 11.858,8.888C11.848,8.006 11.244,7.798 10.724,7.592C10.204,7.386 9.694,7.319 9.695,6.909C9.695,6.559 10.028,6.534 10.338,6.534C11.146,6.535 11.477,6.804 11.477,6.804L11.723,6.115Z" style="fill:white;"/></g><g transform="matrix(-1,0,0,1,17.8034,-8.88178e-16)"><path d="M15.027,4.289L15.027,5.107C15.027,5.107 15.487,5.067 15.623,5.268C15.76,5.469 15.715,5.906 15.715,5.906L15.715,6.952C15.715,6.952 15.746,7.372 16.013,7.593C16.245,7.785 16.555,7.889 16.555,7.889C16.555,7.889 16.256,7.96 16.09,8.088C15.924,8.216 15.715,8.422 15.715,8.818L15.715,10.026C15.715,10.026 15.747,10.375 15.594,10.52C15.414,10.691 15.027,10.664 15.027,10.664L15.027,11.464C15.027,11.464 15.942,11.502 16.342,11.229C16.588,11.061 16.739,10.781 16.739,10.477C16.739,10.173 16.739,9.04 16.739,9.04C16.739,9.04 16.74,8.617 16.972,8.445C17.189,8.284 17.64,8.304 17.64,8.304L17.64,7.464C17.64,7.464 17.232,7.485 16.996,7.329C16.697,7.13 16.739,6.638 16.739,6.638C16.739,6.638 16.734,5.739 16.739,5.371C16.743,5.071 16.721,4.832 16.335,4.536C15.956,4.244 15.027,4.289 15.027,4.289Z" style="fill:white;"/></g></g><g transform="matrix(-1,0,0,1,17.8034,-8.88178e-16)"><path d="M15.027,4.289L15.027,5.107C15.027,5.107 15.487,5.067 15.623,5.268C15.76,5.469 15.715,5.906 15.715,5.906L15.715,6.952C15.715,6.952 15.746,7.372 16.013,7.593C16.245,7.785 16.555,7.889 16.555,7.889C16.555,7.889 16.256,7.96 16.09,8.088C15.924,8.216 15.715,8.422 15.715,8.818L15.715,10.026C15.715,10.026 15.747,10.375 15.594,10.52C15.414,10.691 15.027,10.664 15.027,10.664L15.027,11.464C15.027,11.464 15.942,11.502 16.342,11.229C16.588,11.061 16.739,10.781 16.739,10.477C16.739,10.173 16.739,9.04 16.739,9.04C16.739,9.04 16.74,8.617 16.972,8.445C17.189,8.284 17.64,8.304 17.64,8.304L17.64,7.464C17.64,7.464 17.232,7.485 16.996,7.329C16.697,7.13 16.739,6.638 16.739,6.638C16.739,6.638 16.734,5.739 16.739,5.371C16.743,5.071 16.721,4.832 16.335,4.536C15.956,4.244 15.027,4.289 15.027,4.289Z" style="fill:white;"/></g></g><defs><linearGradient id="_Linear-gwwrxfb" x1="0" y1="0" x2="1" y2="0" gradientUnits="userSpaceOnUse" gradientTransform="matrix(1.83304e-15,-7.32792,6.47086,2.07583e-15,8.99165,11.8053)"><stop offset="0" style="stop-color:rgb(22,45,77);stop-opacity:1"/><stop offset="0.51" style="stop-color:rgb(34,69,114);stop-opacity:1"/><stop offset="1" style="stop-color:rgb(38,77,127);stop-opacity:1"/></linearGradient></defs></svg>