<svg width="100%" height="100%" viewBox="0 0 18 16" version="1.1" xmlns="http://www.w3.org/2000/svg" xmlns:xlink="http://www.w3.org/1999/xlink" xml:space="preserve" style="fill-rule:evenodd;clip-rule:evenodd;stroke-linecap:round;stroke-linejoin:round;stroke-miterlimit:1.5;"><g id="license-dark" transform="matrix(1,0,0,1,-0.00442649,-0.0106164)"><g transform="matrix(1,0,0,1,0.140528,0)"><path d="M8.151,2.931L7.103,2.931C7,2.931 6.897,2.956 6.806,3.006L5.118,3.919C5.118,3.919 2.742,3.919 2.742,3.919C2.397,3.919 2.117,4.199 2.117,4.544C2.117,4.889 2.397,5.169 2.742,5.169L5.277,5.169C5.38,5.169 5.483,5.143 5.574,5.094L7.262,4.181L8.151,4.18L8.151,13.688L5.569,13.688C5.224,13.688 4.944,13.968 4.944,14.313C4.944,14.658 5.224,14.938 5.569,14.938L8.67,14.938C8.704,14.944 8.74,14.947 8.776,14.947C8.812,14.947 8.847,14.944 8.882,14.938L11.982,14.938C12.327,14.938 12.607,14.658 12.607,14.313C12.607,13.968 12.327,13.688 11.982,13.688L9.401,13.688L9.401,4.18L10.29,4.181C10.29,4.181 11.978,5.094 11.978,5.094C12.069,5.143 12.171,5.169 12.275,5.169L14.809,5.169C15.154,5.169 15.434,4.889 15.434,4.544C15.434,4.199 15.154,3.919 14.809,3.919L12.433,3.919C12.433,3.919 10.745,3.006 10.745,3.006C10.654,2.956 10.552,2.931 10.448,2.931L9.401,2.931L9.401,1.7C9.401,1.355 9.121,1.075 8.776,1.075C8.431,1.075 8.151,1.355 8.151,1.7L8.151,2.931Z" style="fill:rgb(93,108,121);"/></g><path d="M1.845,10.077C1.845,10.077 1.978,10.177 2.179,10.329C3.33,11.196 4.927,11.156 6.033,10.232C6.148,10.136 6.219,10.077 6.219,10.077" style="fill:none;stroke:rgb(93,108,121);stroke-width:1.25px;"/><path d="M6.21,10L3.947,5.056L1.889,9.971" style="fill:none;stroke:rgb(93,108,121);stroke-width:1.25px;"/><g transform="matrix(1,0,0,1,9.94447,0)"><path d="M1.845,10.077C1.845,10.077 1.978,10.177 2.179,10.329C3.33,11.196 4.927,11.156 6.033,10.232C6.148,10.136 6.219,10.077 6.219,10.077" style="fill:none;stroke:rgb(93,108,121);stroke-width:1.25px;"/></g><g transform="matrix(1,0,0,1,9.94447,0)"><path d="M6.21,10L3.947,5.056L1.889,9.971" style="fill:none;stroke:rgb(93,108,121);stroke-width:1.25px;"/></g></g></svg>