<svg width="100%" height="100%" viewBox="0 0 18 16" version="1.1" xmlns="http://www.w3.org/2000/svg" xmlns:xlink="http://www.w3.org/1999/xlink" xml:space="preserve" style="fill-rule:evenodd;clip-rule:evenodd;stroke-linecap:round;stroke-linejoin:round;stroke-miterlimit:1;"><g id="liquid" transform="matrix(1,0,0,1,0.0412216,-0.00821787)"><path d="M9.866,2.025C9.328,1.072 8.513,1.228 8.036,2.205C7.767,2.754 7.089,4.14 6.444,5.457C5.842,6.688 4.657,8.462 4.669,10.454C4.682,12.725 6.25,14.589 8.923,14.63C11.749,14.673 13.168,12.403 13.245,10.381C13.286,9.304 13.01,8.699 12.309,7.211C11.352,5.18 10.117,2.469 9.866,2.025Z" style="fill:none;stroke:rgb(174,176,179);stroke-width:0.83px;"/><path d="M8.63,4.57C8.63,4.57 6.18,9.024 6.206,10.321C6.265,13.27 8.787,13.286 8.787,13.286" style="fill:none;stroke:rgb(174,176,179);stroke-width:1.04px;"/></g></svg>