<svg width="100%" height="100%" viewBox="0 0 18 16" version="1.1" xmlns="http://www.w3.org/2000/svg" xmlns:xlink="http://www.w3.org/1999/xlink" xml:space="preserve" style="fill-rule:evenodd;clip-rule:evenodd;stroke-linecap:round;stroke-linejoin:round;stroke-miterlimit:1;"><g id="log-light" transform="matrix(-1.29053,0,0,1.29053,20.4191,-2.3359)"><g><g transform="matrix(1.24257,0,0,1.03207,-3.26382,-0.260925)"><path d="M6.262,6.248C5.482,6.248 5.072,5.284 5.059,4.323C5.049,3.52 5.923,2.394 6.611,2.394C6.627,2.394 6.786,2.382 6.851,2.382C6.864,2.382 12.641,2.399 12.674,2.399C13.644,2.399 14.432,3.347 14.431,4.514C14.431,5.077 14.216,5.681 14.199,5.713L12.057,10.129C11.807,10.645 11.777,11.256 11.777,11.538C11.777,12.123 12.179,12.594 12.671,12.594C13.162,12.594 13.564,12.123 13.564,11.538C13.564,11.077 13.382,10.825 13.156,10.59C13.034,10.464 12.959,10.08 13.079,9.901C13.181,9.748 13.434,9.726 13.565,9.804C13.81,9.948 14.436,10.498 14.436,11.538C14.436,12.698 13.646,13.644 12.671,13.644C12.609,13.644 6.865,13.626 6.847,13.626C5.872,13.626 5.082,12.681 5.082,11.52C5.082,11.257 5.234,10.253 5.451,9.798C5.458,9.781 6.668,7.399 7.253,6.248L6.262,6.248ZM11.101,3.444C10.304,3.441 9.395,3.437 8.852,3.435L8.852,3.428L8.015,3.428C8.018,3.434 8.02,3.439 8.022,3.445C8.022,3.445 6.624,3.443 6.611,3.443C6.327,3.45 5.928,3.858 5.928,4.319C5.928,5.038 6.115,5.199 6.51,5.199L8.02,5.199L11.068,5.2C10.966,4.947 10.908,4.662 10.908,4.361C10.908,4.029 10.978,3.716 11.101,3.444ZM12.374,5.741C12.374,5.979 12.175,6.251 11.942,6.25C11.225,6.25 8.108,6.249 8.108,6.249L6.234,10.112C5.984,10.627 5.954,11.238 5.954,11.52C5.954,12.105 6.356,12.577 6.847,12.577L8.374,12.578L11.138,12.582C10.99,12.274 10.905,11.918 10.905,11.538C10.905,11.274 11.057,10.271 11.274,9.815C11.283,9.793 13.385,5.657 13.385,5.657C13.517,5.404 13.559,5.1 13.559,4.514C13.559,3.933 13.261,3.456 12.691,3.449C12.175,3.444 11.784,3.799 11.78,4.361C11.775,4.978 11.932,5.099 12.032,5.197C12.2,5.363 12.374,5.464 12.374,5.741Z" style="fill:white;fill-opacity:0.6;"/></g><path d="M7.183,8.191L10.089,8.187" style="fill:none;stroke:white;stroke-opacity:0.6;stroke-width:0.84px;"/><g transform="matrix(1,0,0,1,-1.25966,2.19542)"><path d="M7.183,8.191L10.089,8.187" style="fill:none;stroke:white;stroke-opacity:0.6;stroke-width:0.84px;"/></g></g></g></svg>