<svg width="100%" height="100%" viewBox="0 0 18 16" version="1.1" xmlns="http://www.w3.org/2000/svg" xmlns:xlink="http://www.w3.org/1999/xlink" xml:space="preserve" style="fill-rule:evenodd;clip-rule:evenodd;stroke-linejoin:round;stroke-miterlimit:2;"><g transform="matrix(0.625,0,0,0.625,9,8)"><g id="file-log" transform="matrix(1,0,0,1,-12,-12)"><path d="M18,7C16.9,7 16,7.9 16,9L16,15C16,16.1 16.9,17 18,17L20,17C21.1,17 22,16.1 22,15L22,11L20,11L20,15L18,15L18,9L22,9L22,7L18,7M2,7L2,17L8,17L8,15L4,15L4,7L2,7M11,7C9.9,7 9,7.9 9,9L9,15C9,16.1 9.9,17 11,17L13,17C14.1,17 15,16.1 15,15L15,9C15,7.9 14.1,7 13,7L11,7M11,9L13,9L13,15L11,15L11,9Z" style="fill:rgb(114,134,149);fill-rule:nonzero;"/></g><g id="file-log1"></g></g></svg>