<svg width="100%" height="100%" viewBox="0 0 18 16" version="1.1" xmlns="http://www.w3.org/2000/svg" xmlns:xlink="http://www.w3.org/1999/xlink" xml:space="preserve" style="fill-rule:evenodd;clip-rule:evenodd;stroke-miterlimit:10;"><g id="lua" transform="matrix(0.0158395,0,0,0.0158395,9,8)"><g transform="matrix(1,0,0,1,-473.5,-473.5)"><clipPath id="_clip1"><rect x="0" y="0" width="947" height="947"/></clipPath><g clip-path="url(#_clip1)"><g><path d="M835.5,473.6C835.5,273.8 673.3,111.6 473.5,111.6C273.7,111.6 111.5,273.8 111.5,473.6C111.5,673.4 273.7,835.6 473.5,835.6C673.3,835.6 835.5,673.4 835.5,473.6" style="fill:rgb(0,0,128);fill-rule:nonzero;"/><path d="M729.5,323.6C729.5,265.1 682,217.6 623.5,217.6C565,217.6 517.5,265.1 517.5,323.6C517.5,382.1 565,429.6 623.5,429.6C682,429.6 729.5,382.1 729.5,323.6" style="fill:white;fill-rule:nonzero;"/><path d="M941.5,111.5C941.5,53 894,5.5 835.5,5.5C777,5.5 729.5,53 729.5,111.5C729.5,170 777,217.5 835.5,217.5C894,217.5 941.5,170.1 941.5,111.5" style="fill:rgb(0,0,128);fill-rule:nonzero;"/><g><path d="M258.1,627.8L375.4,627.8L375.4,654.5L227.8,654.5L227.8,417L258.1,417L258.1,627.8Z" style="fill:white;fill-rule:nonzero;"/><path d="M515.5,654.5L515.5,630.7C499.5,653.2 483.6,662 458.5,662C425.3,662 404.1,643.8 404.1,615.4L404.1,483.8L431.1,483.8L431.1,604.7C431.1,625.2 444.8,638.3 466.3,638.3C494.6,638.3 512.9,615.5 512.9,580.6L512.9,483.8L539.9,483.8L539.9,654.5L515.5,654.5Z" style="fill:white;fill-rule:nonzero;"/><path d="M738.4,659.1C729.6,661.4 725.4,662 719.8,662C702.2,662 693.7,654.2 691.8,636.9C672.6,654.5 655.3,662 633.8,662C599.3,662 577.8,642.5 577.8,611.5C577.8,589.3 587.9,574 607.8,565.9C618.2,561.7 624.1,560.4 662.5,555.5C684,552.9 690.8,548 690.8,536.6L690.8,529.4C690.8,513.1 677.1,504 652.7,504C627.3,504 614.9,513.4 612.6,534.3L585.2,534.3C585.9,517.4 589.1,507.6 596.9,498.8C608.3,486.1 628.8,478.9 653.6,478.9C695.6,478.9 717.8,495.2 717.8,525.5L717.8,625.9C717.8,634.4 723,639.3 732.5,639.3C734.1,639.3 735.4,639.3 738.4,638.6L738.4,659.1ZM690.8,570.1C681.7,574.3 675.8,575.6 647.1,579.5C618.1,583.7 606,592.9 606,610.8C606,628.1 618.4,638.2 639.6,638.2C655.6,638.2 668.9,633 680,622.9C688.1,615.4 690.8,609.9 690.8,600.7L690.8,570.1Z" style="fill:white;fill-rule:nonzero;"/></g><path d="M890.6,261C924.1,326.8 941.6,399.6 941.6,473.5C941.6,731.9 731.9,941.6 473.5,941.6C215.1,941.6 5.4,731.9 5.4,473.5C5.4,215.1 215.1,5.4 473.5,5.4C556.6,5.4 638.1,27.5 709.7,69.3" style="fill:none;fill-rule:nonzero;stroke:rgb(128,128,128);stroke-width:10.86px;stroke-dasharray:40.85,40.85;"/></g></g></g></g></svg>