<svg width="100%" height="100%" viewBox="0 0 18 16" version="1.1" xmlns="http://www.w3.org/2000/svg" xmlns:xlink="http://www.w3.org/1999/xlink" xml:space="preserve" style="fill-rule:evenodd;clip-rule:evenodd;stroke-linejoin:round;stroke-miterlimit:2;"><g id="lunaria" transform="matrix(0.0226757,0,0,0.0226757,1.48866,0.488662)"><circle cx="331.25" cy="331.25" r="330.75" style="fill:rgb(201,146,251);"/><path d="M477.469,34.494C440.971,20.292 401.271,12.5 359.75,12.5C180.396,12.5 35,157.896 35,337.25C35,511.852 172.792,654.27 345.565,661.696C340.819,661.898 336.046,662 331.25,662C148.582,662 0.5,513.918 0.5,331.25C0.5,148.582 148.582,0.5 331.25,0.5C383.744,0.5 433.381,12.729 477.469,34.494Z" style="fill:rgb(224,190,255);fill-rule:nonzero;"/><path d="M254,611C446.195,611 602,455.195 602,262.999C602,198.79 584.61,138.643 554.283,87.009C620.477,147.49 662,234.52 662,331.249C662,513.918 513.919,661.999 331.25,661.999C249.254,661.999 174.227,632.162 116.434,582.752C158.629,600.93 205.138,611 254,611Z" style="fill:rgb(106,47,158);fill-rule:nonzero;"/><path d="M254,611C446.195,611 602,455.195 602,262.999C602,198.79 584.61,138.643 554.283,87.009C620.477,147.49 662,234.52 662,331.249C662,513.918 513.919,661.999 331.25,661.999C249.254,661.999 174.227,632.162 116.434,582.752C158.629,600.93 205.138,611 254,611Z" style="fill:rgb(106,47,158);fill-rule:nonzero;"/><path d="M254,611C446.195,611 602,455.195 602,262.999C602,198.79 584.61,138.643 554.283,87.009C620.477,147.49 662,234.52 662,331.249C662,513.918 513.919,661.999 331.25,661.999C249.254,661.999 174.227,632.162 116.434,582.752C158.629,600.93 205.138,611 254,611Z" style="fill:rgb(165,81,242);fill-rule:nonzero;"/><path d="M335.18,418.025C352.565,447.125 393.725,448.25 414.335,422.195C417.545,418.13 420.785,409.895 425.75,407.03C436.985,400.52 447.185,413.375 443.345,423.845C423.5,477.83 343.205,483.185 314.93,433.865C310.13,425.495 307.73,410.855 320.39,408.2C328.175,406.565 331.205,411.38 335.18,418.025Z" style="fill:rgb(32,16,63);fill-rule:nonzero;"/><path d="M564.5,287C564.5,329.25 530.25,363.5 488,363.5C445.75,363.5 411.5,329.25 411.5,287C411.5,244.75 445.75,210.5 488,210.5C530.25,210.5 564.5,244.75 564.5,287Z" style="fill:rgb(32,16,63);fill-rule:nonzero;"/><path d="M514.04,309.434C529.784,315.289 547.231,307.443 553.007,291.91C558.784,276.377 550.704,259.038 534.96,253.182C519.216,247.327 501.77,255.173 495.993,270.706C490.216,286.24 498.296,303.579 514.04,309.434Z" style="fill:rgb(252,252,254);fill-rule:nonzero;"/><path d="M303.5,302C303.5,344.25 269.25,378.5 227,378.5C184.75,378.5 150.5,344.25 150.5,302C150.5,259.75 184.75,225.5 227,225.5C269.25,225.5 303.5,259.75 303.5,302Z" style="fill:rgb(32,16,63);fill-rule:nonzero;"/><path d="M253.04,324.434C268.784,330.289 286.231,322.443 292.007,306.91C297.784,291.377 289.704,274.038 273.96,268.182C258.216,262.327 240.77,270.173 234.993,285.706C229.216,301.24 237.296,318.579 253.04,324.434Z" style="fill:rgb(252,252,254);fill-rule:nonzero;"/><circle cx="582.5" cy="476" r="16.5" style="fill:rgb(201,146,251);"/><circle cx="492.5" cy="528.5" r="34.5" style="fill:rgb(32,16,63);"/><circle cx="413.75" cy="590.75" r="11.25" style="fill:rgb(32,16,63);"/><circle cx="276.5" cy="549.5" r="18" style="fill:rgb(32,16,63);"/><circle cx="189.5" cy="459.5" r="45" style="fill:rgb(32,16,63);"/><circle cx="89" cy="401" r="10.5" style="fill:rgb(32,16,63);"/><circle cx="107" cy="270.5" r="10.5" style="fill:rgb(32,16,63);"/><circle cx="284.75" cy="130.25" r="32.25" style="fill:rgb(32,16,63);"/><circle cx="396.5" cy="177.5" r="18" style="fill:rgb(32,16,63);"/><circle cx="396.5" cy="105.5" r="7.5" style="fill:rgb(32,16,63);"/></g></svg>