<svg width="100%" height="100%" viewBox="0 0 18 16" version="1.1" xmlns="http://www.w3.org/2000/svg" xmlns:xlink="http://www.w3.org/1999/xlink" xml:space="preserve" style="fill-rule:evenodd;clip-rule:evenodd;stroke-linejoin:round;stroke-miterlimit:2;"><g id="makefile"><g transform="matrix(1.07381,0,0,1.16787,0.071922,-0.951721)"><path d="M15.532,3.683L15.532,11.647C15.532,13.112 14.238,14.301 12.645,14.301L3.984,14.301C2.391,14.301 1.097,13.112 1.097,11.647L1.097,3.683C1.097,2.218 2.391,1.029 3.984,1.029L12.645,1.029C14.238,1.029 15.532,2.218 15.532,3.683Z" style="fill:white;"/></g><g id="makefile1" transform="matrix(0.0190058,0,0,0.0190058,9,8)"><g transform="matrix(1,0,0,1,-350,-342)"><g transform="matrix(0.1,0,0,-0.1,0,684)"><path d="M1425,6829C1222,6808 1032,6753 845,6661C501,6492 311,6302 150,5968C83,5828 59,5758 28,5615C9,5528 6,5485 6,5285C6,4992 27,4827 87,4635C152,4428 315,4174 505,3985C674,3815 861,3720 1110,3674C1162,3664 1211,3652 1218,3647C1226,3641 1230,3610 1230,3556C1230,3463 1214,3420 1155,3350C1108,3295 1095,3262 1086,3186C1077,3108 1054,3073 972,3015C868,2941 820,2858 820,2750C820,2660 875,2637 972,2686C1027,2714 1075,2718 1181,2705C1259,2696 1292,2709 1336,2767C1375,2819 1399,2837 1441,2848L1477,2857L1472,2605C1464,2197 1496,1997 1612,1720C1753,1387 1988,1103 2371,805C2422,765 2400,792 2263,935C1978,1235 1878,1365 1770,1580C1693,1734 1630,1939 1593,2155C1578,2247 1575,2314 1577,2567C1578,2757 1582,2876 1589,2888C1596,2901 1615,2911 1642,2915C1723,2929 1835,2970 1914,3015C1958,3040 1997,3057 2000,3053C2016,3035 2050,2768 2050,2668C2050,2539 2058,2514 2102,2502C2143,2492 2155,2461 2170,2319C2176,2262 2185,2199 2191,2178C2200,2142 2201,2142 2263,2135C2350,2125 2366,2112 2375,2048C2385,1977 2410,1950 2467,1950C2555,1950 2574,1915 2515,1863C2482,1833 2480,1828 2480,1768C2480,1722 2487,1691 2505,1653C2532,1593 2570,1566 2636,1556C2707,1547 2720,1536 2720,1485C2720,1434 2736,1420 2794,1420C2838,1420 2907,1394 2914,1373C2922,1354 2906,1325 2858,1270C2800,1204 2786,1165 2801,1116C2821,1056 2901,977 3038,882C3169,791 3200,761 3200,726C3200,698 3148,649 3087,620C3018,588 2990,518 3021,457C3041,420 3099,352 3132,329L3163,306L3136,351C3088,429 3077,457 3084,483C3092,517 3116,540 3144,540C3189,540 3274,593 3297,635C3331,696 3326,733 3270,848C3243,904 3223,950 3227,950C3230,950 3256,930 3285,906C3320,876 3350,837 3375,789C3397,747 3436,694 3470,661L3527,604L3469,516C3371,368 3372,288 3474,192C3504,163 3531,140 3533,140C3536,140 3522,171 3503,209C3464,284 3464,307 3501,354C3512,368 3534,387 3550,395L3577,409L3573,366C3566,306 3587,271 3694,165C3821,38 3903,-5 4000,2L4045,5L3988,32C3943,53 3927,67 3910,100C3898,123 3891,144 3894,147C3896,150 3914,140 3932,126C4009,68 4117,36 4310,16L4365,10L4288,51C4246,73 4204,103 4195,117C4177,144 4158,200 4167,200C4170,200 4210,176 4255,146C4356,80 4409,61 4509,53C4595,47 4674,59 4740,89L4785,109L4710,104C4669,101 4618,102 4597,107L4559,115L4622,157C4699,208 4800,306 4846,374C4865,402 4880,428 4880,432C4880,436 4859,423 4833,403C4788,369 4662,305 4654,312C4653,314 4667,335 4686,359C4704,383 4720,406 4720,411C4720,415 4723,425 4726,434C4731,448 4728,448 4700,439C4648,420 4567,433 4519,466C4465,503 4393,594 4378,642C4364,689 4369,695 4482,771C4621,865 4653,912 4654,1020C4654,1075 4648,1098 4612,1176C4589,1226 4570,1273 4570,1281C4570,1297 4621,1385 4649,1417C4673,1445 4725,1458 4866,1470C4928,1475 4989,1484 5003,1489C5064,1512 5105,1645 5096,1787C5092,1838 5087,1886 5084,1894C5080,1904 5099,1916 5151,1936C5202,1956 5241,1981 5279,2016C5332,2065 5334,2068 5338,2128C5342,2183 5340,2194 5316,2224C5302,2243 5270,2273 5245,2291C5221,2308 5189,2340 5176,2361L5151,2399L5218,2446C5255,2473 5326,2535 5377,2585C5463,2670 5469,2679 5490,2749C5510,2813 5512,2837 5507,2929C5498,3079 5472,3159 5417,3204C5348,3260 5317,3270 5256,3254C5228,3246 5178,3237 5145,3234C5089,3228 5082,3230 5052,3255C5016,3285 5003,3323 4990,3439C4985,3482 4972,3542 4961,3574C4947,3615 4945,3630 4954,3630C4961,3630 5022,3594 5089,3550C5243,3449 5293,3424 5374,3405C5409,3397 5478,3371 5526,3348L5614,3305L5784,3301C5894,3299 5972,3302 6007,3310C6095,3329 6160,3401 6160,3478C6160,3521 6132,3540 6072,3540C6020,3540 6001,3550 5978,3593C5966,3615 5939,3742 5945,3748C5946,3750 5998,3764 6059,3780C6376,3863 6573,4026 6786,4380C6956,4662 7011,4894 6997,5265C6981,5673 6899,5941 6714,6191C6501,6479 6270,6642 5934,6739C5745,6794 5408,6808 5217,6769C5082,6742 5013,6711 4845,6605C4705,6516 4629,6480 4587,6480C4567,6481 4530,6493 4478,6515C4455,6524 4455,6502 4478,6435C4504,6361 4546,6314 4620,6277L4685,6245L4895,6245C5072,6246 5122,6249 5215,6268C5411,6308 5543,6293 5726,6210C5936,6115 6121,5899 6198,5660C6230,5562 6240,5488 6240,5361C6240,5135 6192,4975 6093,4869C5998,4768 5914,4751 5796,4809C5691,4861 5607,4948 5412,5210C5080,5656 4967,5772 4775,5866C4624,5940 4539,5960 4380,5960C4233,5960 4183,5948 4064,5885C3970,5836 3895,5782 3803,5699C3767,5667 3734,5640 3728,5640C3716,5640 3684,5661 3545,5765C3333,5924 3199,5970 2956,5970C2646,5970 2454,5893 2245,5685C2196,5636 2043,5469 1906,5315C1530,4892 1460,4826 1337,4770C1207,4711 1053,4777 945,4940C866,5059 857,5097 856,5310C855,5504 857,5517 910,5650C945,5739 1038,5903 1090,5967C1243,6156 1596,6312 1875,6313C1947,6314 2014,6306 2115,6286C2226,6263 2282,6258 2385,6258C2709,6258 2854,6338 2877,6528L2883,6579L2824,6555C2784,6538 2745,6530 2705,6530C2633,6530 2584,6551 2392,6668C2250,6754 2185,6783 2081,6805C1929,6836 1608,6848 1425,6829ZM2020,6750C2127,6731 2227,6693 2339,6627C2397,6594 2483,6545 2530,6521C2610,6478 2619,6476 2695,6476C2740,6476 2785,6481 2798,6488C2854,6520 2785,6420 2726,6385C2640,6335 2589,6325 2410,6326C2276,6326 2226,6331 2145,6349C1945,6394 1767,6387 1545,6324C1366,6274 1178,6160 1069,6035C964,5916 841,5677 806,5522C785,5428 784,5168 805,5087C831,4986 887,4891 964,4814C1060,4718 1126,4687 1231,4688C1319,4690 1366,4704 1447,4751C1538,4806 1599,4868 1920,5235C2260,5624 2356,5723 2462,5793C2598,5882 2712,5911 2940,5913C3074,5914 3106,5911 3178,5891C3340,5845 3481,5758 3632,5609L3710,5532L3769,5537C3849,5545 3869,5538 3929,5484C4001,5419 4020,5378 4020,5286C4020,5194 4031,5169 4081,5141C4102,5129 4126,5110 4134,5099C4146,5081 4148,5081 4154,5096C4158,5107 4147,5124 4118,5151L4075,5190L4075,5298C4075,5388 4071,5411 4053,5445C4027,5494 3972,5547 3905,5590C3863,5616 3860,5620 3885,5614C4003,5587 4216,5460 4286,5373C4331,5318 4358,5234 4347,5188C4335,5140 4277,5070 4204,5015C4082,4923 4068,4850 4159,4784C4186,4765 4210,4741 4213,4729C4222,4697 4200,4651 4169,4635C4127,4613 4113,4617 4138,4643C4152,4658 4160,4679 4160,4701C4160,4765 4078,4829 3935,4875C3783,4925 3711,4984 3686,5083C3653,5207 3649,5356 3676,5455C3680,5470 3675,5468 3656,5446L3631,5416L3535,5506C3368,5661 3286,5708 3137,5731C2969,5757 2781,5726 2615,5643C2429,5550 2294,5435 2087,5195C1773,4831 1688,4756 1445,4625C1385,4593 1332,4554 1285,4509L1215,4441L1160,4506C1108,4567 1103,4571 1070,4566C1051,4563 1010,4558 979,4555L923,4549L910,4622C890,4738 891,4736 804,4756L727,4774L733,4846C737,4885 742,4942 746,4972L752,5026L696,5060C665,5079 640,5098 640,5104C640,5109 659,5145 681,5184L722,5255L677,5340L631,5425L691,5521L750,5618L728,5710L705,5803L750,5839C845,5917 839,5907 850,6009C855,6061 864,6107 871,6111C878,6115 920,6131 966,6146L1049,6174L1086,6262L1124,6350L1338,6350L1387,6411L1437,6471L1587,6474L1736,6477L1785,6510C1839,6547 1823,6549 1927,6489L1969,6465L2125,6541L2269,6491C2348,6463 2415,6442 2417,6444C2419,6446 2379,6481 2327,6522L2233,6597L2144,6609C2095,6615 2011,6630 1957,6642L1859,6664L1748,6631L1638,6599L1540,6621L1443,6643L1348,6592L1254,6541L1154,6546L1055,6552L1010,6474C959,6387 970,6393 818,6375L761,6369L709,6281C661,6198 653,6191 594,6162C559,6144 530,6126 530,6120C530,6114 523,6064 515,6007L500,5905L444,5854L389,5803L439,5605L388,5545C359,5512 330,5477 322,5468C310,5453 315,5442 369,5371L430,5292L300,5188L367,5133C478,5043 477,5060 380,4971L295,4892L385,4865C435,4851 481,4837 488,4834C497,4832 480,4802 436,4745C400,4699 374,4659 378,4656C382,4654 413,4648 447,4645C480,4641 513,4634 519,4630C527,4625 515,4596 480,4536C453,4488 430,4447 430,4445C430,4442 471,4439 520,4438L610,4435L518,4297L576,4304C609,4308 654,4313 678,4317C704,4320 720,4318 720,4312C720,4306 711,4264 700,4218C689,4172 680,4131 680,4127C680,4122 714,4146 755,4180C804,4220 832,4237 834,4228C837,4221 848,4168 861,4110C873,4052 884,4004 885,4002C887,4000 910,4035 936,4079C963,4124 987,4160 990,4160C993,4160 1004,4130 1014,4093C1023,4055 1036,4008 1041,3987L1051,3949L1113,4026L1175,4104L1180,3995L1185,3887L1249,3978C1284,4029 1315,4069 1317,4067C1319,4065 1304,3988 1283,3896C1251,3753 1243,3730 1227,3730C1191,3730 1014,3770 945,3793C767,3854 647,3933 504,4083C280,4318 144,4583 87,4895C68,4998 65,5051 65,5275C65,5527 66,5538 93,5641C194,6030 421,6333 770,6546C976,6671 1137,6726 1405,6764C1465,6772 1957,6762 2020,6750ZM5803,6710C5999,6677 6149,6619 6287,6523C6405,6441 6611,6231 6691,6111C6877,5833 6933,5625 6933,5225C6932,4880 6905,4747 6789,4520C6585,4119 6347,3904 6042,3844C6000,3836 5955,3827 5944,3825C5926,3821 5918,3830 5897,3878C5876,3925 5824,4148 5833,4156C5834,4157 5862,4116 5894,4064C5926,4012 5955,3970 5958,3970C5961,3970 5960,4017 5956,4075C5952,4133 5952,4180 5954,4180C5957,4180 5981,4152 6007,4117C6033,4082 6059,4053 6065,4051C6070,4050 6080,4075 6087,4107C6095,4139 6105,4183 6111,4205L6122,4244L6168,4160L6214,4075L6237,4189C6250,4252 6261,4305 6263,4306C6264,4308 6293,4285 6327,4255C6361,4225 6390,4200 6393,4200C6395,4200 6388,4240 6377,4290C6366,4339 6359,4382 6361,4384C6363,4386 6396,4383 6433,4378C6534,4364 6536,4366 6496,4430C6476,4460 6460,4488 6460,4493C6460,4497 6494,4500 6535,4500C6576,4500 6610,4503 6610,4508C6610,4512 6590,4552 6566,4597C6538,4651 6527,4681 6535,4684C6542,4686 6573,4691 6604,4695C6671,4704 6671,4703 6605,4794C6580,4829 6560,4862 6560,4868C6560,4873 6596,4888 6640,4901C6684,4913 6720,4928 6720,4933C6720,4938 6689,4974 6651,5014L6581,5085L6651,5144C6689,5177 6720,5207 6720,5211C6720,5215 6698,5238 6670,5261C6643,5284 6620,5307 6620,5312C6620,5317 6642,5353 6670,5392C6700,5435 6717,5467 6712,5474C6707,5480 6682,5511 6657,5543C6631,5576 6610,5609 6610,5618C6611,5628 6619,5671 6630,5715L6649,5795L6551,5895L6538,6000L6525,6104L6469,6137C6421,6166 6407,6181 6367,6254L6320,6338L6253,6345C6146,6355 6148,6355 6105,6436L6065,6512L5979,6505L5893,6499L5810,6548L5726,6597L5656,6579C5562,6554 5548,6555 5447,6589L5361,6618L5290,6600C5250,6590 5186,6576 5146,6570C5107,6564 5065,6557 5053,6554C5034,6550 4849,6400 4863,6400C4866,6400 4927,6423 5000,6450L5131,6501L5199,6464L5266,6427L5325,6464L5383,6502L5429,6469C5475,6437 5476,6437 5604,6435L5733,6433L5815,6321L6005,6315L6038,6234L6072,6152L6155,6120L6237,6088L6244,6028C6247,5994 6250,5953 6250,5935C6250,5908 6259,5895 6309,5854C6342,5827 6369,5798 6369,5790C6369,5782 6361,5741 6351,5699L6333,5622L6382,5536C6408,5489 6430,5444 6430,5435C6430,5427 6414,5387 6394,5347L6357,5273L6394,5208C6414,5172 6430,5139 6430,5134C6430,5129 6407,5109 6379,5091C6340,5064 6330,5051 6334,5036C6336,5024 6342,4971 6345,4918C6351,4840 6350,4819 6339,4816C6331,4813 6300,4804 6269,4796C6215,4781 6212,4778 6205,4743C6202,4722 6194,4683 6188,4656L6178,4608L6100,4614L6022,4621L5978,4566C5955,4536 5931,4511 5927,4511C5923,4510 5895,4536 5866,4568C5824,4613 5790,4636 5708,4677C5551,4755 5421,4885 5185,5199C5006,5438 4906,5531 4715,5638C4562,5723 4424,5755 4309,5731C4249,5719 4110,5669 4110,5659C4110,5656 4146,5630 4189,5602C4287,5538 4400,5430 4430,5370C4448,5336 4454,5308 4454,5255C4455,5179 4442,5146 4389,5085L4358,5050L4453,5050C4505,5050 4561,5047 4578,5044C4611,5037 4609,5041 4651,4850C4661,4802 4671,4787 4732,4727C4814,4646 4838,4599 4846,4498C4854,4412 4843,4371 4800,4311L4770,4270L4687,4271C4622,4271 4586,4266 4528,4246C4487,4232 4450,4220 4445,4220C4441,4220 4440,4246 4443,4277C4448,4321 4454,4338 4474,4354C4488,4366 4507,4395 4515,4420C4534,4474 4542,4480 4606,4480C4642,4480 4665,4474 4683,4460C4716,4434 4724,4435 4705,4463C4684,4496 4648,4510 4590,4510C4562,4510 4540,4515 4540,4520C4540,4541 4569,4586 4604,4619C4656,4669 4653,4718 4596,4739C4562,4753 4505,4739 4467,4710C4433,4683 4384,4584 4369,4512C4355,4441 4362,4233 4382,4170C4390,4145 4436,4071 4485,4005C4641,3794 4719,3669 4806,3492C4882,3336 4898,3311 4959,3251C5002,3207 5043,3177 5073,3165C5116,3149 5123,3149 5187,3164C5300,3192 5303,3192 5349,3168C5421,3131 5435,3092 5435,2935C5435,2818 5432,2800 5410,2755C5397,2728 5353,2673 5314,2633C5205,2524 5082,2449 4895,2379L4795,2341L4845,2341C4890,2340 4979,2351 5052,2366C5074,2370 5083,2365 5110,2326C5127,2301 5165,2265 5194,2246C5281,2191 5291,2121 5220,2072C5165,2035 5117,2029 4886,2026C4673,2024 4661,2023 4540,1992C4391,1953 4256,1930 4179,1930C4095,1930 3942,1959 3882,1985C3795,2024 3688,2150 3576,2341L3549,2388L3565,2466C3582,2548 3619,2641 3647,2672C3656,2682 3658,2690 3652,2690C3626,2690 3572,2607 3550,2532C3538,2490 3525,2452 3521,2448C3518,2444 3495,2478 3470,2522C3445,2567 3407,2624 3384,2648C3345,2692 3341,2694 3279,2697L3215,2700L3260,2684C3333,2658 3363,2619 3461,2426C3694,1966 3812,1866 4140,1853C4255,1848 4276,1850 4405,1880C4575,1919 4707,1927 4882,1910L5009,1898L5019,1848C5025,1821 5030,1777 5030,1749C5030,1682 5001,1571 4981,1561C4972,1556 4881,1552 4780,1552C4486,1552 3973,1474 3907,1419L3885,1401L3925,1400C3988,1399 4036,1385 4086,1351C4147,1311 4180,1312 4266,1355C4312,1378 4348,1390 4375,1389C4427,1388 4496,1367 4493,1352C4491,1346 4489,1317 4488,1287C4486,1238 4490,1226 4530,1166C4565,1112 4574,1087 4578,1042C4584,972 4568,943 4486,871L4425,818L4422,846C4416,903 4410,904 4379,856C4345,806 4250,730 4264,766C4312,882 4321,957 4298,1035L4286,1075L4280,1010C4268,887 4207,813 4048,730C3846,624 3802,545 3870,410C3887,377 3896,350 3890,350C3884,350 3855,374 3826,403C3761,466 3740,524 3740,642L3740,719L3687,744C3618,777 3532,842 3498,886C3464,931 3445,1016 3458,1063C3464,1082 3479,1115 3494,1136C3508,1157 3518,1176 3516,1178C3514,1180 3497,1174 3480,1165C3435,1142 3365,1142 3339,1166C3320,1183 3319,1191 3325,1295L3332,1405L3283,1353C3257,1324 3213,1290 3185,1277C3088,1229 3073,1191 3094,1047L3102,989L3057,1020C2996,1061 2950,1115 2950,1146C2950,1159 2964,1198 2981,1232C3021,1311 3030,1392 3005,1441C2952,1542 2894,1587 2787,1607C2649,1632 2580,1684 2580,1762C2580,1780 2588,1807 2598,1821C2651,1901 2660,1917 2660,1941C2660,1989 2626,2018 2562,2026C2482,2035 2474,2042 2467,2095C2461,2155 2415,2214 2374,2218C2291,2225 2279,2231 2264,2265C2255,2286 2250,2335 2250,2392C2250,2513 2245,2527 2199,2550C2144,2579 2138,2595 2146,2712C2151,2791 2149,2829 2136,2876C2126,2914 2120,2978 2120,3043L2120,3147L2209,3223C2300,3300 2350,3359 2436,3489C2476,3549 2486,3559 2492,3544C2496,3533 2513,3488 2530,3443C2559,3366 2600,3296 2663,3219C2685,3191 2681,3205 2640,3292C2556,3468 2542,3591 2580,3815C2592,3881 2603,3996 2605,4070C2610,4214 2605,4210 2575,4045C2510,3690 2307,3375 2016,3176C1887,3088 1783,3044 1590,2999C1438,2962 1380,2937 1312,2877C1232,2806 1205,2795 1149,2809C1093,2824 1047,2814 956,2768L897,2738L902,2790C907,2835 913,2848 956,2891C983,2919 1030,2957 1061,2976C1123,3013 1131,3027 1155,3134C1175,3224 1200,3276 1245,3325C1295,3379 1300,3396 1300,3513C1300,3625 1321,3714 1395,3920C1547,4344 1703,4589 1905,4722C2101,4851 2209,4898 2350,4912C2411,4918 2504,4937 2572,4957C2803,5024 2886,5033 3026,5004C3134,4981 3238,4997 3351,5051C3435,5092 3508,5115 3576,5123L3617,5128L3634,5067C3651,5008 3678,4958 3710,4932C3759,4890 3836,4849 3901,4829C4052,4784 4120,4742 4120,4695C4120,4665 4090,4640 4045,4633C4007,4627 4007,4627 4028,4609C4078,4569 4186,4578 4232,4627C4248,4644 4255,4666 4258,4708L4262,4767L4211,4803C4157,4842 4141,4875 4159,4909C4165,4920 4207,4960 4253,4998C4424,5141 4453,5200 4415,5328C4379,5447 4151,5626 3958,5686L3901,5703L3976,5762C4068,5834 4158,5884 4230,5901C4312,5920 4498,5915 4595,5891C4761,5848 4907,5751 5050,5588C5095,5537 5217,5383 5320,5245C5635,4827 5776,4706 5928,4724C6085,4743 6197,4860 6261,5075C6288,5164 6297,5378 6281,5505C6259,5669 6192,5842 6103,5967C6016,6090 5840,6228 5700,6284C5542,6347 5387,6358 5185,6320C5115,6306 5013,6297 4904,6293C4758,6288 4726,6290 4680,6305C4629,6322 4559,6375 4540,6410C4532,6425 4537,6427 4583,6427C4650,6428 4689,6446 4883,6563C5052,6666 5164,6711 5298,6730C5396,6743 5672,6733 5803,6710ZM4895,4964C5041,4934 5155,4869 5254,4762C5308,4703 5456,4497 5485,4439C5498,4414 5521,4351 5536,4299C5550,4247 5576,4178 5592,4145C5632,4065 5740,3910 5811,3830C5876,3756 5885,3737 5895,3654C5909,3536 5963,3470 6049,3470C6097,3470 6099,3462 6065,3421C6020,3368 5973,3358 5794,3362C5636,3365 5635,3366 5570,3399C5535,3417 5468,3443 5422,3457C5306,3490 5242,3520 5147,3586C5103,3616 5033,3660 4994,3681L4921,3721L4891,3813L4860,3904L4924,3970L4895,3970C4878,3970 4834,3955 4795,3936C4757,3917 4706,3899 4683,3895C4644,3889 4640,3890 4625,3919L4609,3950L4660,3950C4755,3950 4798,3996 4788,4085C4783,4124 4785,4130 4801,4130C4811,4130 4837,4112 4860,4089C4910,4038 4926,4042 4923,4104C4919,4166 4899,4203 4853,4231C4832,4243 4813,4255 4811,4257C4809,4258 4825,4279 4848,4304C4882,4340 4889,4357 4895,4404C4905,4478 4893,4584 4870,4637C4860,4660 4822,4710 4786,4748C4715,4825 4689,4883 4709,4927C4722,4955 4779,4992 4800,4986C4808,4983 4851,4974 4895,4964ZM4855,3758C4871,3701 4894,3624 4907,3586C4921,3543 4930,3493 4930,3456L4930,3395L4872,3505C4840,3566 4786,3659 4752,3712C4718,3766 4690,3812 4690,3815C4690,3818 4700,3820 4713,3820C4725,3820 4751,3828 4770,3839C4789,3849 4810,3858 4816,3859C4822,3859 4839,3814 4855,3758Z" style="fill-rule:nonzero;"/><path d="M3043,4873C3008,4829 2957,4800 2917,4800C2892,4800 2866,4782 2858,4758C2855,4751 2827,4746 2782,4744C2732,4742 2703,4736 2687,4724C2651,4697 2583,4599 2576,4563C2571,4541 2558,4525 2534,4511C2514,4499 2493,4475 2484,4453C2447,4366 2434,4347 2386,4313C2308,4257 2309,4255 2389,4295C2430,4315 2489,4356 2519,4385C2550,4414 2594,4447 2618,4459C2651,4476 2660,4486 2660,4506C2660,4537 2704,4625 2735,4656C2750,4671 2771,4680 2791,4680C2819,4680 2822,4677 2816,4658C2813,4645 2810,4598 2810,4553C2810,4479 2807,4469 2783,4439L2756,4407L2781,4415C2960,4467 3088,4660 3078,4858L3075,4914L3043,4873Z" style="fill-rule:nonzero;"/><path d="M3525,4763C3534,4716 3544,4703 3588,4684C3608,4676 3630,4661 3637,4650C3647,4636 3663,4630 3691,4630L3731,4630L3785,4518C3814,4456 3843,4381 3849,4353C3855,4321 3881,4265 3915,4210C3980,4106 3998,4089 3971,4157C3961,4183 3944,4241 3935,4285C3915,4375 3901,4407 3870,4433C3843,4456 3792,4565 3755,4680C3722,4781 3717,4789 3692,4767C3666,4744 3634,4746 3571,4775L3518,4800L3525,4763Z" style="fill-rule:nonzero;"/><path d="M3290,4504C3223,4490 3104,4436 3060,4400C3035,4380 3036,4380 3090,4401C3223,4453 3259,4462 3351,4467C3439,4472 3449,4471 3468,4452C3505,4415 3526,4281 3498,4263C3491,4259 3440,4255 3385,4254C3296,4253 3165,4235 3060,4209C3040,4204 3014,4191 3001,4179C2981,4160 2978,4150 2982,4099C2987,4024 3020,3975 3100,3921C3178,3870 3271,3840 3381,3833C3534,3823 3613,3868 3634,3980L3641,4015L3622,3974C3611,3951 3586,3920 3565,3905C3533,3880 3517,3876 3443,3872C3281,3863 3152,3914 3083,4013C3056,4052 3056,4052 3075,4067C3109,4093 3158,4110 3196,4110C3229,4110 3232,4108 3226,4087C3217,4051 3237,3997 3269,3966C3329,3909 3448,3924 3492,3994C3516,4033 3510,4103 3478,4137C3466,4150 3459,4162 3461,4165C3464,4167 3497,4170 3535,4171C3596,4172 3606,4170 3623,4149L3643,4125L3636,4155C3632,4172 3618,4201 3606,4220C3593,4239 3580,4278 3576,4305C3565,4386 3540,4448 3505,4485C3475,4518 3468,4520 3414,4519C3381,4519 3326,4512 3290,4504Z" style="fill-rule:nonzero;"/><path d="M3878,3379C3817,3365 3717,3315 3686,3284C3643,3240 3619,3185 3613,3112C3606,3023 3635,2944 3698,2880C3724,2853 3739,2843 3735,2855C3731,2866 3725,2897 3722,2925C3717,2970 3718,2974 3733,2961C3760,2939 3778,2955 3785,3007C3794,3075 3805,3097 3842,3120C3883,3145 3925,3145 3973,3121C3993,3111 4010,3106 4010,3110C4010,3127 3964,3173 3934,3186C3861,3217 3783,3197 3732,3134C3715,3113 3698,3099 3694,3103C3681,3115 3701,3177 3730,3217C3784,3290 3905,3328 4047,3316C4144,3307 4170,3297 4270,3230C4317,3198 4391,3153 4434,3129C4478,3106 4550,3058 4594,3025C4714,2934 4753,2916 4811,2930L4845,2937L4803,2945C4755,2953 4734,2967 4624,3063C4580,3101 4505,3157 4455,3187C4406,3218 4337,3263 4302,3288C4225,3343 4167,3365 4066,3379C3977,3392 3930,3392 3878,3379Z" style="fill-rule:nonzero;"/><path d="M3975,3005C3953,2997 3934,2990 3933,2990C3932,2990 3926,2974 3920,2955C3904,2906 3915,2866 3956,2830C3993,2798 4051,2789 4090,2810C4113,2822 4124,2865 4110,2890C4101,2907 4102,2910 4120,2910C4178,2910 4299,2810 4342,2727C4354,2704 4374,2656 4387,2620L4410,2555L4404,2629C4383,2891 4172,3076 3975,3005Z" style="fill-rule:nonzero;"/></g></g></g></g></svg>