<svg width="100%" height="100%" viewBox="0 0 18 16" version="1.1" xmlns="http://www.w3.org/2000/svg" xmlns:xlink="http://www.w3.org/1999/xlink" xml:space="preserve" style="fill-rule:evenodd;clip-rule:evenodd;stroke-linejoin:round;stroke-miterlimit:2;"><g id="markdown" transform="matrix(1,0,0,1,1.5,0.5)"><g transform="matrix(1.62469,0,0,1.44846,-2.81323,-1.05962)"><path d="M10.964,2.803L10.964,9.016C10.964,10.159 10.137,11.087 9.118,11.087L3.578,11.087C2.559,11.087 1.732,10.159 1.732,9.016L1.732,2.803C1.732,1.66 2.559,0.732 3.578,0.732L9.118,0.732C10.137,0.732 10.964,1.66 10.964,2.803Z" style="fill:white;"/></g><g transform="matrix(0.0344381,0,0,0.0344381,-1.29894,-1.28172)"><path d="M410,366L102,366C88,366 76,354 76,340L76,170C76,156 88,144 102,144L409,144C423,144 435,156 435,170L435,340C435,354 424,366 410,366ZM102,162C98,162 93,166 93,171L93,341C93,346 97,350 102,350L409,350C414,350 418,346 418,341L418,170C418,165 414,161 409,161C410,161 102,161 102,161L102,162ZM128,315L128,196L162,196L196,239L230,196L265,196L265,314L231,314L231,246L197,289L163,246L163,314L128,315ZM344,315L292,258L326,258L326,197L360,197L360,257L394,257L344,315Z" style="fill-rule:nonzero;"/></g></g></svg>