<svg width="100%" height="100%" viewBox="0 0 18 16" version="1.1" xmlns="http://www.w3.org/2000/svg" xmlns:xlink="http://www.w3.org/1999/xlink" xml:space="preserve" style="fill-rule:evenodd;clip-rule:evenodd;stroke-linejoin:round;stroke-miterlimit:2;"><g transform="matrix(0.0473538,0,0,0.0473538,-3.09889,-4.07521)"><path d="M410,366L102,366C88,366 76,354 76,340L76,170C76,156 88,144 102,144L409,144C423,144 435,156 435,170L435,340C435,354 424,366 410,366ZM102,162C98,162 93,166 93,171L93,341C93,346 97,350 102,350L409,350C414,350 418,346 418,341L418,170C418,165 414,161 409,161C410,161 102,161 102,161L102,162ZM128,315L128,196L162,196L196,239L230,196L265,196L265,314L231,314L231,246L197,289L163,246L163,314L128,315ZM344,315L292,258L326,258L326,197L360,197L360,257L394,257L344,315Z" style="fill-rule:nonzero;"/></g></svg>