<svg width="100%" height="100%" viewBox="0 0 18 16" version="1.1" xmlns="http://www.w3.org/2000/svg" xmlns:xlink="http://www.w3.org/1999/xlink" xml:space="preserve" style="fill-rule:evenodd;clip-rule:evenodd;stroke-linejoin:round;stroke-miterlimit:2;"><g id="maven"><g transform="matrix(1.07381,0,0,1.16787,0.071922,-0.951721)"><path d="M15.532,4.347L15.532,10.983C15.532,12.814 13.915,14.301 11.923,14.301L4.706,14.301C2.714,14.301 1.097,12.814 1.097,10.983L1.097,4.347C1.097,2.516 2.714,1.029 4.706,1.029L11.923,1.029C13.915,1.029 15.532,2.516 15.532,4.347Z" style="fill:white;"/></g><g id="g7248" transform="matrix(0.00404782,-0.00297088,0.00297088,0.00404782,7.32631,7.6474)"><path id="path7258" d="M267.1,19.6C258.7,24.6 244.7,38.6 228.1,58.9L243.4,87.8C254.1,72.4 265.1,58.6 276.1,46.8C276.9,45.9 277.4,45.4 277.4,45.4C277,45.9 276.5,46.3 276.1,46.8C272.5,50.7 261.7,63.3 245.4,88.4C261.1,87.6 285.2,84.4 304.9,81C310.8,48.2 299.2,33.2 299.2,33.2C299.2,33.2 284.4,9.3 267.1,19.6Z" style="fill:url(#_Linear1);fill-rule:nonzero;"/><path id="path7260" d="M241.1,184.4C241.2,184.4 241.3,184.4 241.4,184.3L239.2,184.5C239.1,184.6 238.9,184.6 238.8,184.7C239.6,184.6 240.4,184.5 241.1,184.4Z" style="fill:none;fill-rule:nonzero;"/><path id="path7262" d="M225.5,236.1C224.3,236.4 223,236.6 221.7,236.8C223,236.6 224.3,236.4 225.5,236.1Z" style="fill:none;fill-rule:nonzero;"/><path id="path7264" d="M119.3,352.2C119.5,351.8 119.6,351.3 119.8,350.9C123.2,342 126.5,333.4 129.8,324.9C133.5,315.5 137.2,306.3 140.8,297.4C144.6,288.1 148.4,279 152.1,270.3C156,261.1 159.8,252.3 163.6,243.8C166.7,236.9 169.7,230.2 172.7,223.7C173.7,221.5 174.7,219.4 175.7,217.3C177.7,213.1 179.6,209 181.5,205C183.3,201.3 185,197.7 186.7,194.1C187.3,192.9 187.9,191.7 188.4,190.6C188.5,190.4 188.6,190.2 188.7,190L186.8,190.2L185.3,187.3C185.2,187.6 185,187.9 184.9,188.2C182.2,193.5 179.5,198.9 176.9,204.4C175.4,207.5 173.9,210.7 172.3,213.9C168.1,222.7 164,231.5 160,240.5C155.9,249.5 151.9,258.6 148,267.6C144.1,276.5 140.4,285.4 136.7,294.3C133,303.2 129.4,312 125.9,320.8C122.2,330 118.6,339.1 115.2,348.1C114.4,350.1 113.6,352.2 112.9,354.2C110.1,361.5 107.4,368.6 104.8,375.7L107.2,380.4L109.3,380.2C109.4,380 109.5,379.8 109.5,379.6C112.6,370.1 116,361 119.3,352.2Z" style="fill:none;fill-rule:nonzero;"/><path id="path7266" d="M220.7,236.9L220.7,236.9Z" style="fill:none;fill-rule:nonzero;"/><path id="path7268" d="M215.6,262.2C213.6,262.6 211.6,262.9 209.6,263.2C210.6,263.1 211.7,262.9 212.7,262.7C213.7,262.6 214.7,262.4 215.6,262.2Z" style="fill:rgb(190,32,46);fill-rule:nonzero;"/><path id="path7270" d="M215.6,262.2C213.6,262.6 211.6,262.9 209.6,263.2C210.6,263.1 211.7,262.9 212.7,262.7C213.7,262.6 214.7,262.4 215.6,262.2Z" style="fill:rgb(190,32,46);fill-opacity:0.35;fill-rule:nonzero;"/><path id="path7272" d="M220.8,236.9C220.7,236.9 220.7,236.9 220.8,236.9C221.1,236.9 221.4,236.8 221.7,236.8C223,236.6 224.3,236.4 225.5,236.1C224,236.4 222.4,236.6 220.8,236.9Z" style="fill:rgb(190,32,46);fill-rule:nonzero;"/><path id="path7274" d="M220.8,236.9C220.7,236.9 220.7,236.9 220.8,236.9C221.1,236.9 221.4,236.8 221.7,236.8C223,236.6 224.3,236.4 225.5,236.1C224,236.4 222.4,236.6 220.8,236.9Z" style="fill:rgb(190,32,46);fill-opacity:0.35;fill-rule:nonzero;"/><path id="path7286" d="M198.2,162.4C202.9,153.7 207.6,145.2 212.3,136.9C217.2,128.3 222.2,120 227.3,111.9C227.6,111.4 227.9,110.9 228.2,110.5C233.2,102.6 238.2,95 243.3,87.7L228,58.9C226.9,60.3 225.7,61.7 224.5,63.2C220.1,68.7 215.5,74.6 210.8,80.9C205.5,88 200.1,95.5 194.5,103.4C189.4,110.7 184.2,118.4 179,126.3C174.6,133.1 170.2,140 165.8,147.1C165.6,147.4 165.5,147.6 165.3,147.9L185.2,187.2C189.6,178.9 193.9,170.6 198.2,162.4Z" style="fill:url(#_Linear2);fill-rule:nonzero;"/><path id="path7298" d="M107.5,384.1C104.9,391.3 102.2,398.7 99.6,406.3C99.6,406.4 99.5,406.5 99.5,406.6C99.1,407.7 98.7,408.7 98.4,409.8C96.6,414.9 95.1,419.5 91.5,429.9C97.4,432.6 102.1,439.6 106.5,447.6C106,439.3 102.6,431.5 96.1,425.5C125,426.8 150,419.5 162.8,398.3C163.9,396.4 165,394.4 166,392.3C160.1,399.7 152.9,402.9 139.2,402.1L139.1,402.1L139.2,402.1C159.3,393.1 169.4,384.4 178.3,370.1C180.4,366.7 182.5,363 184.6,358.9C167,377 146.6,382.1 125.1,378.2L109,380C108.5,381.4 108,382.7 107.5,384.1Z" style="fill:url(#_Linear3);fill-rule:nonzero;"/><path id="path7310" d="M115,348C118.5,339 122.1,329.9 125.7,320.7C129.2,311.9 132.8,303.1 136.5,294.2C140.2,285.3 144,276.4 147.8,267.5C151.7,258.4 155.7,249.4 159.8,240.4C163.8,231.5 168,222.6 172.1,213.8C173.6,210.6 175.1,207.5 176.7,204.3C179.3,198.9 182,193.5 184.7,188.1C184.8,187.8 185,187.5 185.1,187.2L165.4,148C165.1,148.5 164.8,149.1 164.4,149.6C159.8,157.2 155.1,164.9 150.6,172.8C146,180.8 141.5,188.9 137.1,197.2C133.4,204.2 129.8,211.2 126.2,218.3C125.5,219.7 124.8,221.2 124.1,222.6C119.8,231.5 115.8,240.2 112.3,248.5C108.3,257.9 104.8,266.9 101.7,275.4C99.7,281 97.8,286.4 96.1,291.6C94.7,296 93.4,300.5 92.1,304.9C89.1,315.3 86.6,325.7 84.5,336.1L104.5,375.6C107.1,368.5 109.9,361.4 112.6,354.1C113.4,352.1 114.2,350.1 115,348Z" style="fill:url(#_Linear4);fill-rule:nonzero;"/><path id="path7322" d="M84.2,337.5C81.7,350.1 79.9,362.7 79,375.3C79,375.7 78.9,376.2 78.9,376.6C72.7,366.6 55.9,356.8 56,356.9C68,374.3 77.1,391.5 78.4,408.4C72,409.7 63.2,407.8 53.1,404.1C63.7,413.8 71.6,416.5 74.7,417.2C65,417.8 54.9,424.5 44.7,432.2C59.6,426.1 71.7,423.7 80.3,425.7C66.6,464.4 52.9,507.2 39.2,552.6C43.4,551.4 45.9,548.5 47.3,544.7C49.7,536.5 66,482.5 91.4,411.6C92.1,409.6 92.9,407.6 93.6,405.5C93.8,404.9 94,404.4 94.2,403.8C96.9,396.4 99.7,388.8 102.6,381C103.3,379.2 103.9,377.5 104.6,375.7L104.6,375.6L84.6,336.1C84.4,336.6 84.3,337 84.2,337.5Z" style="fill:url(#_Linear5);fill-rule:nonzero;"/><path id="path7334" d="M188.4,190.6C187.8,191.8 187.3,192.9 186.7,194.1C185,197.7 183.2,201.3 181.5,205C179.6,209 177.7,213.1 175.7,217.3C174.7,219.4 173.7,221.5 172.7,223.7C169.7,230.2 166.7,236.9 163.6,243.8C159.8,252.3 156,261.1 152.1,270.3C148.4,279 144.6,288.1 140.8,297.4C137.2,306.3 133.5,315.4 129.8,324.9C126.5,333.3 123.2,342 119.8,350.9C119.6,351.3 119.5,351.8 119.3,352.2C116,361 112.6,370.1 109.2,379.4C109.1,379.6 109,379.8 109,380L125.1,378.2C124.8,378.1 124.5,378.1 124.1,378C143.4,375.6 169,361.2 185.5,343.4C193.1,335.2 200,325.6 206.4,314.3C211.2,305.9 215.6,296.6 219.9,286.2C223.6,277.2 227.2,267.4 230.6,256.8C226.2,259.1 221.1,260.8 215.5,262C214.5,262.2 213.5,262.4 212.5,262.6C211.5,262.8 210.5,262.9 209.4,263.1C227.4,256.2 238.7,242.9 246.9,226.5C242.2,229.7 234.5,233.9 225.3,236C224.1,236.3 222.8,236.5 221.5,236.7C221.2,236.7 220.9,236.8 220.5,236.8C226.7,234.2 232,231.3 236.6,227.8C237.6,227.1 238.5,226.3 239.4,225.5C240.8,224.3 242.1,223 243.4,221.7C244.2,220.8 245,220 245.8,219.1C247.6,217 249.3,214.7 250.8,212.2C251.3,211.4 251.8,210.7 252.2,209.9C252.8,208.7 253.4,207.6 253.9,206.5C256.4,201.5 258.4,197 260,193C260.8,191 261.5,189.2 262.1,187.5C262.3,186.8 262.6,186.2 262.8,185.5C263.4,183.6 264,181.9 264.4,180.4C265,178.2 265.4,176.4 265.6,175.1C265,175.6 264.3,176.1 263.5,176.5C258.1,179.7 248.8,182.7 241.3,184.1L256.1,182.5L241.3,184.1C241.2,184.1 241.1,184.1 241,184.2C240.3,184.3 239.5,184.4 238.7,184.6C238.8,184.5 239,184.5 239.1,184.4L188.5,189.9C188.6,190.3 188.5,190.5 188.4,190.6Z" style="fill:url(#_Linear6);fill-rule:nonzero;"/><path id="path7346" d="M245.4,88.4C240.9,95.3 236,103.2 230.7,112C230.4,112.5 230.1,112.9 229.9,113.4C225.3,121.1 220.5,129.5 215.4,138.8C211,146.8 206.4,155.3 201.6,164.6C197.4,172.6 193.2,181.1 188.7,190.1L239.3,184.6C254,177.8 260.6,171.7 267,162.8C268.7,160.4 270.4,157.8 272.1,155.1C277.3,147 282.4,138.1 286.9,129.2C291.3,120.6 295.2,112.1 298.1,104.5C300,99.6 301.5,95.1 302.6,91.1C303.5,87.6 304.2,84.3 304.8,81.1C285.2,84.4 261.1,87.6 245.4,88.4Z" style="fill:url(#_Linear7);fill-rule:nonzero;"/><path id="path7348" d="M212.7,262.8C211.7,263 210.7,263.1 209.6,263.3C210.6,263.1 211.6,262.9 212.7,262.8Z" style="fill:rgb(190,32,46);fill-rule:nonzero;"/><path id="path7350" d="M212.7,262.8C211.7,263 210.7,263.1 209.6,263.3C210.6,263.1 211.6,262.9 212.7,262.8Z" style="fill:rgb(190,32,46);fill-opacity:0.35;fill-rule:nonzero;"/><path id="path7362" d="M212.7,262.8C211.7,263 210.7,263.1 209.6,263.3C210.6,263.1 211.6,262.9 212.7,262.8Z" style="fill:url(#_Linear8);fill-rule:nonzero;"/><path id="path7364" d="M220.7,236.9C221,236.9 221.3,236.8 221.7,236.8C221.4,236.8 221.1,236.9 220.7,236.9Z" style="fill:rgb(190,32,46);fill-rule:nonzero;"/><path id="path7366" d="M220.7,236.9C221,236.9 221.3,236.8 221.7,236.8C221.4,236.8 221.1,236.9 220.7,236.9Z" style="fill:rgb(190,32,46);fill-opacity:0.35;fill-rule:nonzero;"/><path id="path7378" d="M220.7,236.9C221,236.9 221.3,236.8 221.7,236.8C221.4,236.8 221.1,236.9 220.7,236.9Z" style="fill:url(#_Linear9);fill-rule:nonzero;"/><path id="path7380" d="M220.8,236.9L220.8,236.9Z" style="fill:rgb(190,32,46);fill-rule:nonzero;"/><path id="path7382" d="M220.8,236.9L220.8,236.9Z" style="fill:rgb(190,32,46);fill-opacity:0.35;fill-rule:nonzero;"/><path id="path7394" d="M220.8,236.9L220.8,236.9Z" style="fill:url(#_Linear10);fill-rule:nonzero;"/></g><g id="text5492" transform="matrix(0.0423353,0,0,0.0423353,1.70684,6.10773)"><path id="path4317" d="M23.541,2.717L39.841,2.717C40.975,2.717 41.775,2.95 42.241,3.417C42.641,3.75 42.875,4.25 42.941,4.917C43.008,5.517 43.108,6.117 43.241,6.717C43.375,7.783 43.508,8.883 43.641,10.017C43.841,11.083 44.008,12.183 44.141,13.317C44.875,17.517 45.475,21.783 45.941,26.117C46.475,30.45 47.108,34.75 47.841,39.017C48.108,40.35 48.308,41.717 48.441,43.117C48.575,44.517 48.775,45.883 49.041,47.217C49.108,47.55 49.175,47.883 49.241,48.217C49.308,48.55 49.475,48.817 49.741,49.017C49.875,49.083 49.975,49.15 50.041,49.217C50.175,49.283 50.341,49.25 50.541,49.117C51.075,48.983 51.508,48.583 51.841,47.917C52.175,47.25 52.508,46.65 52.841,46.117C53.641,44.583 54.408,43.083 55.141,41.617C55.875,40.083 56.675,38.55 57.541,37.017C59.675,32.95 61.808,28.883 63.941,24.817C66.141,20.683 68.308,16.55 70.441,12.417C70.975,11.35 71.508,10.317 72.041,9.317C72.641,8.25 73.208,7.183 73.741,6.117C74.008,5.583 74.308,5.05 74.641,4.517C74.975,3.983 75.441,3.55 76.041,3.217C76.508,2.883 77.041,2.717 77.641,2.717L94.841,2.717C95.508,2.717 95.975,2.85 96.241,3.117C96.908,3.517 97.108,4.283 96.841,5.417C96.641,6.483 96.441,7.583 96.241,8.717L93.241,23.717L85.741,60.917L84.041,69.617C83.908,70.35 83.741,71.083 83.541,71.817C83.341,72.483 83.008,72.983 82.541,73.317C82.075,73.65 81.541,73.85 80.941,73.917L71.441,73.917C70.975,73.783 70.541,73.683 70.141,73.617C69.808,73.55 69.541,73.317 69.341,72.917C69.141,72.583 69.075,72.15 69.141,71.617C69.275,71.083 69.408,70.517 69.541,69.917L70.541,64.817L75.741,39.117C75.875,38.183 76.008,37.317 76.141,36.517C76.341,35.65 76.508,34.783 76.641,33.917C76.775,33.383 76.908,32.85 77.041,32.317C77.175,31.717 77.241,31.15 77.241,30.617C77.175,30.15 77.175,29.65 77.241,29.117C77.375,28.583 77.275,28.25 76.941,28.117C76.741,28.05 76.575,28.083 76.441,28.217C76.308,28.35 76.208,28.45 76.141,28.517C75.808,28.783 75.508,29.117 75.241,29.517C75.041,29.85 74.841,30.183 74.641,30.517C74.041,31.517 73.441,32.55 72.841,33.617C72.308,34.683 71.708,35.75 71.041,36.817C70.841,37.217 70.641,37.617 70.441,38.017C70.308,38.417 70.108,38.817 69.841,39.217C69.308,40.083 68.808,40.95 68.341,41.817C67.941,42.683 67.475,43.55 66.941,44.417C66.808,44.617 66.708,44.85 66.641,45.117C66.575,45.317 66.475,45.517 66.341,45.717C65.941,46.317 65.575,46.95 65.241,47.617C64.975,48.283 64.608,48.95 64.141,49.617C63.741,50.217 63.375,50.85 63.041,51.517C62.775,52.183 62.441,52.85 62.041,53.517C60.841,55.45 59.741,57.417 58.741,59.417C57.741,61.35 56.708,63.283 55.641,65.217C55.441,65.417 55.308,65.617 55.241,65.817C55.241,66.017 55.141,66.217 54.941,66.417C54.475,67.15 54.041,67.917 53.641,68.717C53.308,69.45 52.908,70.183 52.441,70.917C52.175,71.383 51.908,71.817 51.641,72.217C51.375,72.617 51.075,72.95 50.741,73.217C50.341,73.483 49.975,73.65 49.641,73.717C49.308,73.717 48.875,73.783 48.341,73.917L46.041,73.917C45.575,73.917 45.008,73.95 44.341,74.017L42.441,74.017C41.841,74.017 41.275,73.983 40.741,73.917C40.208,73.85 39.841,73.717 39.641,73.517C39.175,73.183 38.875,72.817 38.741,72.417C38.675,71.95 38.541,71.417 38.341,70.817C38.208,70.017 38.108,69.217 38.041,68.417C37.975,67.55 37.841,66.717 37.641,65.917L37.541,65.017C37.341,64.217 37.208,63.383 37.141,62.517C37.075,61.583 36.941,60.717 36.741,59.917L36.741,59.417C36.741,59.217 36.708,59.017 36.641,58.817C36.441,58.217 36.308,57.583 36.241,56.917C36.175,56.25 36.075,55.583 35.941,54.917L35.941,54.417C35.941,54.217 35.908,54.05 35.841,53.917C35.708,53.25 35.608,52.583 35.541,51.917C35.541,51.25 35.441,50.583 35.241,49.917C34.975,48.583 34.741,47.183 34.541,45.717C34.408,44.25 34.208,42.817 33.941,41.417C33.675,39.75 33.441,38.05 33.241,36.317C33.108,34.583 32.808,32.917 32.341,31.317C32.208,30.383 32.008,29.617 31.741,29.017C31.608,28.883 31.475,28.783 31.341,28.717C31.275,28.583 31.141,28.583 30.941,28.717C30.541,28.917 30.275,29.25 30.141,29.717C30.075,30.183 29.941,30.65 29.741,31.117C29.475,31.583 29.308,32.083 29.241,32.617C29.175,33.083 29.108,33.583 29.041,34.117C28.908,34.85 28.741,35.583 28.541,36.317C28.408,37.05 28.241,37.783 28.041,38.517L22.741,65.117L21.741,70.017C21.608,70.55 21.475,71.083 21.341,71.617C21.275,72.15 21.075,72.583 20.741,72.917C20.408,73.383 19.841,73.683 19.041,73.817C18.575,73.95 18.075,74.017 17.541,74.017C17.008,73.95 16.475,73.917 15.941,73.917L8.741,73.917C8.141,73.85 7.675,73.65 7.341,73.317C7.008,72.983 6.875,72.483 6.941,71.817C7.075,71.083 7.208,70.35 7.341,69.617L9.041,60.817L16.541,23.617L19.341,9.617C19.408,9.217 19.475,8.75 19.541,8.217C19.675,7.617 19.808,7.05 19.941,6.517C20.075,5.983 20.208,5.483 20.341,5.017C20.541,4.483 20.708,4.083 20.841,3.817C21.241,3.35 21.841,3.017 22.641,2.817C22.841,2.75 22.975,2.75 23.041,2.817C23.175,2.817 23.341,2.783 23.541,2.717Z" style="fill-rule:nonzero;"/><path id="path4319" d="M143.066,70.017C143.066,70.75 143,71.483 142.866,72.217C142.733,72.95 142.3,73.45 141.566,73.717C141.1,73.917 140.6,74.017 140.066,74.017L131.266,74.017C130.733,73.95 130.333,73.783 130.066,73.517C129.666,73.25 129.4,72.883 129.266,72.417C129.133,71.883 128.9,71.45 128.566,71.117C128.433,70.983 128.266,70.883 128.066,70.817C127.933,70.683 127.7,70.65 127.366,70.717C126.966,70.85 126.6,71.017 126.266,71.217C125.933,71.417 125.6,71.583 125.266,71.717C124.866,71.983 124.433,72.217 123.966,72.417C123.566,72.617 123.133,72.817 122.666,73.017C121.733,73.417 120.766,73.75 119.766,74.017C118.766,74.217 117.766,74.45 116.766,74.717C116.233,74.85 115.733,74.917 115.266,74.917C114.866,74.983 114.433,75.05 113.966,75.117L113.366,75.117C113.166,75.183 112.966,75.217 112.766,75.217L111.666,75.217C110.933,75.35 110.266,75.35 109.666,75.217L108.766,75.217C108.3,75.083 107.833,75.017 107.366,75.017C106.966,75.083 106.566,75.05 106.166,74.917C105.566,74.783 104.966,74.65 104.366,74.517C103.766,74.45 103.233,74.283 102.766,74.017C100.966,73.283 99.5,72.35 98.366,71.217C97.233,70.017 96.466,68.45 96.066,66.517C95.933,66.05 95.833,65.55 95.766,65.017C95.766,64.483 95.733,63.917 95.666,63.317C95.6,62.983 95.6,62.65 95.666,62.317C95.8,61.983 95.866,61.65 95.866,61.317C95.866,61.117 95.9,60.717 95.966,60.117C96.1,59.45 96.233,58.983 96.366,58.717C96.633,58.05 96.8,57.483 96.866,57.017C97.2,56.283 97.533,55.55 97.866,54.817C98.266,54.017 98.7,53.317 99.166,52.717C100.633,50.783 102.2,49.317 103.866,48.317C105.533,47.317 107.6,46.45 110.066,45.717C111,45.383 111.933,45.15 112.866,45.017C113.8,44.883 114.766,44.717 115.766,44.517C116.3,44.383 116.866,44.317 117.466,44.317C118.133,44.25 118.766,44.15 119.366,44.017C119.833,43.883 120.3,43.85 120.766,43.917C121.233,43.917 121.766,43.85 122.366,43.717C122.833,43.583 123.3,43.517 123.766,43.517C124.233,43.517 124.733,43.45 125.266,43.317C126.733,42.983 128.066,42.717 129.266,42.517C130.533,42.25 131.733,41.65 132.866,40.717C133.533,40.117 134.066,39.45 134.466,38.717C134.533,38.517 134.566,38.35 134.566,38.217C134.566,38.083 134.6,37.95 134.666,37.817C134.8,37.683 134.866,37.483 134.866,37.217C134.933,36.95 135,36.75 135.066,36.617L135.066,35.117C134.8,33.117 133.666,31.75 131.666,31.017C131.133,30.817 130.433,30.683 129.566,30.617C128.766,30.483 127.933,30.45 127.066,30.517C126.2,30.517 125.333,30.583 124.466,30.717C123.666,30.85 122.966,31.017 122.366,31.217C121.9,31.35 121.466,31.55 121.066,31.817C120.666,32.017 120.266,32.25 119.866,32.517C119.466,32.783 119.033,33.15 118.566,33.617C118.1,34.083 117.766,34.517 117.566,34.917C117.1,35.583 116.7,36.217 116.366,36.817C116.033,37.417 115.466,37.817 114.666,38.017C114.133,38.15 113.566,38.217 112.966,38.217L107.366,38.217C107.033,38.217 106.666,38.25 106.266,38.317C105.933,38.317 105.666,38.283 105.466,38.217L104.566,38.217C104.433,38.15 104.266,38.117 104.066,38.117C103.866,38.117 103.7,38.05 103.566,37.917C103.1,37.783 102.833,37.35 102.766,36.617C102.766,36.283 102.833,35.95 102.966,35.617C103.1,35.283 103.233,34.983 103.366,34.717C103.7,33.983 104.033,33.317 104.366,32.717C104.766,32.05 105.166,31.45 105.566,30.917C105.833,30.583 106.9,29.25 107.166,28.917C107.833,28.183 108.633,27.483 109.566,26.817C109.766,26.75 110,26.583 110.266,26.317C110.666,26.05 111,25.817 111.266,25.617C111.6,25.417 111.966,25.217 112.366,25.017C113.633,24.283 114.933,23.717 116.266,23.317C117.666,22.85 119.066,22.417 120.466,22.017C121.333,21.817 122.2,21.683 123.066,21.617C123.933,21.55 124.833,21.417 125.766,21.217C126.033,21.15 126.433,21.15 126.966,21.217C127.5,21.283 127.866,21.25 128.066,21.117C130.8,21.05 133.366,21.15 135.766,21.417C138.233,21.683 140.4,22.183 142.266,22.917C144.2,23.65 145.766,24.65 146.966,25.917C148.233,27.117 149.066,28.683 149.466,30.617C149.666,31.75 149.666,33.05 149.466,34.517C149.266,35.983 149,37.483 148.666,39.017L144.166,61.317C143.966,62.583 143.733,63.883 143.466,65.217C143.2,66.483 143.1,67.65 143.166,68.717C143.166,68.917 143.133,69.15 143.066,69.417L143.066,70.017ZM131.466,54.617C131.6,54.283 131.7,53.917 131.766,53.517C131.833,53.05 131.866,52.65 131.866,52.317C131.866,51.917 131.9,51.55 131.966,51.217C132.033,50.883 131.933,50.617 131.666,50.417C131.4,50.15 130.933,50.017 130.266,50.017C130,50.083 129.766,50.15 129.566,50.217C129.366,50.217 129.1,50.25 128.766,50.317C128.3,50.45 127.8,50.55 127.266,50.617C126.733,50.683 126.166,50.783 125.566,50.917C125.366,50.983 125.066,51.017 124.666,51.017C123.733,51.217 122.833,51.35 121.966,51.417C121.1,51.483 120.233,51.65 119.366,51.917C118.833,52.05 118.3,52.183 117.766,52.317C117.3,52.383 116.833,52.517 116.366,52.717C114.833,53.317 113.466,54.217 112.266,55.417C111.066,56.617 110.366,58.283 110.166,60.417C110.1,61.55 110.3,62.483 110.766,63.217C111.033,63.95 111.6,64.55 112.466,65.017C113.333,65.417 114.3,65.717 115.366,65.917C116.433,66.117 117.566,66.183 118.766,66.117C120.033,65.983 121.233,65.75 122.366,65.417C124.233,64.883 125.766,64.05 126.966,62.917C128.233,61.717 129.3,60.25 130.166,58.517C130.366,58.05 130.533,57.583 130.666,57.117C130.8,56.583 131,56.05 131.266,55.517L131.466,54.617Z" style="fill-rule:nonzero;"/><path id="path4321" d="M161.288,22.417L168.588,22.417C169.322,22.417 170.022,22.45 170.688,22.517C171.355,22.517 171.888,22.65 172.288,22.917C172.955,23.383 173.288,24.25 173.288,25.517C173.355,26.717 173.488,27.783 173.688,28.717C173.955,30.917 174.188,33.183 174.388,35.517C174.588,37.783 174.822,40.05 175.088,42.317C175.355,43.917 175.555,45.55 175.688,47.217C175.822,48.883 176.022,50.483 176.288,52.017C176.355,52.617 176.422,53.25 176.488,53.917C176.622,54.583 177.055,54.917 177.788,54.917C177.988,54.783 178.122,54.717 178.188,54.717C178.255,54.65 178.355,54.55 178.488,54.417C178.755,54.083 178.988,53.75 179.188,53.417C179.388,53.083 179.588,52.717 179.788,52.317C180.322,51.583 180.722,50.817 180.988,50.017C181.322,49.217 181.722,48.45 182.188,47.717C183.655,44.917 185.088,42.117 186.488,39.317C187.888,36.45 189.322,33.617 190.788,30.817C191.322,30.017 191.755,29.217 192.088,28.417C192.488,27.55 192.888,26.75 193.288,26.017C193.555,25.483 193.822,24.95 194.088,24.417C194.422,23.883 194.822,23.45 195.288,23.117C195.488,22.983 195.955,22.783 196.688,22.517C197.088,22.383 197.522,22.35 197.988,22.417L204.188,22.417C204.922,22.417 205.588,22.45 206.188,22.517C206.855,22.517 207.322,22.683 207.588,23.017C207.922,23.35 207.955,23.85 207.688,24.517C207.488,25.117 207.288,25.617 207.088,26.017C206.555,26.95 206.022,27.95 205.488,29.017C204.955,30.017 204.422,30.983 203.888,31.917C203.622,32.383 203.388,32.85 203.188,33.317C202.988,33.717 202.788,34.117 202.588,34.517C202.122,35.25 201.688,35.983 201.288,36.717C200.888,37.45 200.488,38.183 200.088,38.917C200.022,39.117 199.922,39.35 199.788,39.617C199.722,39.817 199.622,40.017 199.488,40.217C198.888,41.217 198.322,42.25 197.788,43.317C197.255,44.317 196.722,45.317 196.188,46.317C195.055,48.317 193.955,50.383 192.888,52.517C191.822,54.583 190.688,56.617 189.488,58.617C188.955,59.55 188.455,60.483 187.988,61.417C187.588,62.283 187.122,63.183 186.588,64.117C186.388,64.45 186.222,64.75 186.088,65.017C185.955,65.217 185.788,65.483 185.588,65.817C185.188,66.55 184.788,67.317 184.388,68.117C184.055,68.85 183.655,69.583 183.188,70.317C182.722,71.05 182.288,71.75 181.888,72.417C181.488,73.017 180.922,73.45 180.188,73.717C179.588,73.917 178.988,74.017 178.388,74.017C177.788,73.95 177.188,73.917 176.588,73.917L167.888,73.917C167.222,73.917 166.655,73.783 166.188,73.517C165.788,73.183 165.522,72.783 165.388,72.317C165.322,71.783 165.255,71.217 165.188,70.617C164.988,69.817 164.822,68.983 164.688,68.117C164.622,67.25 164.522,66.417 164.388,65.617C164.322,65.35 164.288,65.117 164.288,64.917C164.288,64.65 164.255,64.35 164.188,64.017C163.988,63.217 163.855,62.383 163.788,61.517C163.722,60.65 163.588,59.783 163.388,58.917C163.322,58.583 163.288,58.283 163.288,58.017C163.288,57.683 163.255,57.35 163.188,57.017C163.055,56.417 162.955,55.817 162.888,55.217C162.822,54.55 162.722,53.917 162.588,53.317C162.522,53.117 162.488,52.917 162.488,52.717C162.555,52.45 162.555,52.217 162.488,52.017C162.355,51.417 162.255,50.817 162.188,50.217C162.122,49.617 162.022,48.983 161.888,48.317C161.622,46.783 161.388,45.217 161.188,43.617C160.988,41.95 160.788,40.317 160.588,38.717C160.188,36.917 159.888,35.117 159.688,33.317C159.555,31.45 159.322,29.617 158.988,27.817L158.688,25.117C158.622,24.917 158.588,24.683 158.588,24.417C158.655,24.083 158.788,23.783 158.988,23.517C159.255,23.05 159.788,22.717 160.588,22.517C160.922,22.517 161.155,22.483 161.288,22.417Z" style="fill:none;fill-rule:nonzero;"/><path id="path4323" d="M259.041,47.717C259.041,48.25 258.908,48.85 258.641,49.517C258.375,50.183 258.041,50.617 257.641,50.817C257.308,51.083 256.808,51.283 256.141,51.417C255.475,51.483 254.741,51.55 253.941,51.617L251.641,51.617C250.908,51.55 250.241,51.517 249.641,51.517L223.841,51.517C223.441,51.517 223.075,51.583 222.741,51.717C222.141,51.983 221.741,52.25 221.541,52.517C221.408,52.65 221.208,52.917 220.941,53.317C220.741,53.65 220.641,53.983 220.641,54.317C220.708,54.717 220.708,55.117 220.641,55.517C220.641,55.85 220.675,56.217 220.741,56.617C220.941,58.217 221.308,59.55 221.841,60.617C222.441,61.617 223.308,62.517 224.441,63.317C224.908,63.65 225.408,63.883 225.941,64.017C226.541,64.083 227.108,64.217 227.641,64.417C228.175,64.55 228.875,64.65 229.741,64.717C230.675,64.783 231.508,64.75 232.241,64.617L233.141,64.617C233.808,64.483 234.441,64.35 235.041,64.217C235.641,64.017 236.241,63.817 236.841,63.617C237.575,63.283 238.408,62.85 239.341,62.317C240.275,61.783 241.008,61.25 241.541,60.717C241.941,60.25 242.375,59.817 242.841,59.417C243.308,58.95 243.808,58.617 244.341,58.417C245.075,58.083 245.941,57.95 246.941,58.017L251.041,58.017C251.508,57.95 251.908,57.983 252.241,58.117L253.241,58.117C253.841,58.25 254.275,58.417 254.541,58.617C254.741,58.75 254.808,59.05 254.741,59.517C254.741,59.983 254.641,60.383 254.441,60.717C253.908,61.65 253.341,62.483 252.741,63.217C252.208,63.95 251.608,64.683 250.941,65.417C249.075,67.617 247.075,69.383 244.941,70.717C242.808,72.05 240.241,73.183 237.241,74.117C236.441,74.383 235.675,74.55 234.941,74.617C234.208,74.683 233.408,74.817 232.541,75.017C232.275,75.083 231.975,75.083 231.641,75.017C231.375,75.017 231.108,75.05 230.841,75.117L229.741,75.117C229.341,75.25 228.941,75.283 228.541,75.217C228.141,75.217 227.775,75.183 227.441,75.117C226.908,75.05 226.441,75.05 226.041,75.117C225.641,75.183 225.208,75.15 224.741,75.017C224.408,74.883 224.041,74.817 223.641,74.817C223.241,74.817 222.908,74.75 222.641,74.617C221.908,74.483 221.175,74.317 220.441,74.117C219.775,73.983 219.175,73.75 218.641,73.417C217.975,73.15 217.341,72.917 216.741,72.717C216.141,72.45 215.608,72.15 215.141,71.817C213.275,70.483 211.675,68.95 210.341,67.217C209.075,65.417 208.141,63.35 207.541,61.017C207.341,60.283 207.208,59.55 207.141,58.817C207.141,58.017 207.041,57.217 206.841,56.417L206.841,55.717C206.908,55.45 206.941,55.183 206.941,54.917C206.875,54.117 206.875,53.25 206.941,52.317C207.075,51.383 207.208,50.45 207.341,49.517C207.408,49.183 207.441,48.817 207.441,48.417C207.508,48.017 207.608,47.65 207.741,47.317L208.041,46.117L208.841,43.717C209.308,42.583 209.741,41.483 210.141,40.417C210.541,39.35 211.041,38.35 211.641,37.417C215.908,30.483 221.775,25.583 229.241,22.717C230.241,22.317 231.241,22.05 232.241,21.917C233.241,21.717 234.308,21.483 235.441,21.217C235.975,21.15 236.475,21.117 236.941,21.117C237.408,21.117 237.908,21.083 238.441,21.017C241.841,20.95 244.675,21.35 246.941,22.217C249.208,23.017 251.175,24.083 252.841,25.417C253.375,25.817 253.875,26.283 254.341,26.817C254.875,27.283 255.308,27.783 255.641,28.317C255.775,28.65 256.008,28.917 256.341,29.117C256.741,29.85 257.075,30.617 257.341,31.417C257.675,32.15 258.041,32.917 258.441,33.717C258.641,34.317 258.775,34.95 258.841,35.617C258.975,36.217 259.108,36.883 259.241,37.617C259.375,38.483 259.441,39.383 259.441,40.317C259.508,41.25 259.575,42.183 259.641,43.117C259.641,43.65 259.541,44.25 259.341,44.917C259.208,45.517 259.175,46.083 259.241,46.617L259.041,47.717ZM245.141,41.817C245.741,41.15 245.941,40.35 245.741,39.417C245.608,38.417 245.508,37.683 245.441,37.217C244.841,35.417 243.875,34.05 242.541,33.117C241.208,32.117 239.175,31.583 236.441,31.517C236.241,31.65 236.008,31.683 235.741,31.617C235.475,31.55 235.241,31.55 235.041,31.617C234.641,31.75 234.241,31.85 233.841,31.917C233.441,31.917 233.075,31.983 232.741,32.117C229.608,33.05 227.075,34.883 225.141,37.617C224.941,37.883 224.708,38.25 224.441,38.717C224.175,39.117 223.975,39.55 223.841,40.017C223.708,40.417 223.641,40.817 223.641,41.217C223.641,41.617 223.808,41.95 224.141,42.217C224.608,42.55 225.308,42.717 226.241,42.717L242.941,42.717C244.008,42.65 244.741,42.35 245.141,41.817Z" style="fill-rule:nonzero;"/><path id="path4325" d="M302.163,21.117C306.163,20.983 309.363,21.55 311.763,22.817C314.23,24.083 315.963,25.95 316.963,28.417C317.297,29.15 317.497,29.95 317.563,30.817C317.697,31.617 317.797,32.45 317.863,33.317C317.93,33.85 317.93,34.35 317.863,34.817C317.797,35.283 317.797,35.75 317.863,36.217C317.73,36.617 317.697,36.883 317.763,37.017C317.697,37.95 317.563,38.917 317.363,39.917C317.163,40.917 316.963,41.883 316.763,42.817L315.063,51.717L311.763,67.917C311.497,69.183 311.23,70.417 310.963,71.617C310.697,72.75 310.063,73.483 309.063,73.817C308.663,73.95 308.197,74.017 307.663,74.017L300.663,74.017C299.863,74.017 299.163,73.983 298.563,73.917C297.963,73.783 297.53,73.483 297.263,73.017C297.063,72.617 296.997,72.117 297.063,71.517C297.197,70.85 297.33,70.15 297.463,69.417L298.863,62.417L301.863,47.517C302.33,45.05 302.663,42.783 302.863,40.717C303.13,38.583 302.897,36.783 302.163,35.317C301.497,33.983 300.33,33.05 298.663,32.517C298.33,32.383 297.963,32.317 297.563,32.317C297.23,32.317 296.897,32.25 296.563,32.117C296.23,32.05 295.797,32.05 295.263,32.117C294.797,32.117 294.43,32.15 294.163,32.217C293.83,32.283 293.563,32.317 293.363,32.317C293.163,32.317 292.963,32.35 292.763,32.417C291.163,32.817 289.83,33.35 288.763,34.017C286.297,35.55 284.563,37.783 283.563,40.717C282.63,43.65 281.797,46.95 281.063,50.617L278.563,63.117L277.363,69.217C277.23,69.817 277.097,70.417 276.963,71.017C276.83,71.617 276.63,72.117 276.363,72.517C275.897,73.25 275.263,73.683 274.463,73.817C273.73,73.95 272.83,74.017 271.763,74.017L266.763,74.017C266.03,74.017 265.297,73.983 264.563,73.917C263.83,73.85 263.363,73.617 263.163,73.217C262.763,72.617 262.697,71.75 262.963,70.617C263.23,69.483 263.463,68.417 263.663,67.417L266.363,53.817L270.763,31.817L271.863,26.717C271.997,25.983 272.13,25.317 272.263,24.717C272.397,24.117 272.697,23.617 273.163,23.217C273.297,23.017 273.53,22.883 273.863,22.817C274.197,22.683 274.53,22.583 274.863,22.517L275.363,22.517C275.697,22.45 276.03,22.417 276.363,22.417L281.663,22.417C282.197,22.417 282.697,22.45 283.163,22.517C283.697,22.517 284.163,22.583 284.563,22.717C284.963,22.917 285.197,23.217 285.263,23.617C285.397,24.017 285.463,24.483 285.463,25.017C285.463,25.283 285.43,25.517 285.363,25.717C285.297,25.917 285.297,26.117 285.363,26.317C285.43,26.65 285.497,26.85 285.563,26.917C285.697,26.983 285.863,27.083 286.063,27.217C286.73,27.283 287.363,27.05 287.963,26.517C288.563,25.917 289.163,25.45 289.763,25.117C291.83,23.783 294.03,22.717 296.363,21.917C297.03,21.717 297.663,21.583 298.263,21.517C298.93,21.45 299.663,21.35 300.463,21.217C300.663,21.15 300.963,21.15 301.363,21.217C301.763,21.217 302.03,21.183 302.163,21.117Z" style="fill-rule:nonzero;"/></g><g id="text9112" transform="matrix(0.0423353,0,0,0.0423353,1.70684,6.10773)"><path id="path4328" d="M326.925,21.038C326.991,21.091 327.025,21.205 327.025,21.378C327.025,21.551 326.991,21.711 326.925,21.858L326.905,22.018C326.851,22.138 326.791,22.238 326.725,22.318C326.671,22.385 326.585,22.438 326.465,22.478C326.345,22.505 326.178,22.518 325.965,22.518C325.751,22.505 325.571,22.498 325.425,22.498L325.125,22.498C325.058,22.525 324.998,22.531 324.945,22.518C324.891,22.505 324.838,22.511 324.785,22.538C324.638,22.591 324.511,22.718 324.405,22.918C324.365,22.985 324.338,23.065 324.325,23.158C324.311,23.251 324.298,23.345 324.285,23.438L323.325,28.158C323.311,28.225 323.305,28.285 323.305,28.338C323.305,28.391 323.291,28.445 323.265,28.498L323.225,28.658C323.211,28.698 323.198,28.738 323.185,28.778C323.185,28.818 323.165,28.851 323.125,28.878C323.071,28.985 322.985,29.058 322.865,29.098C322.798,29.125 322.718,29.138 322.625,29.138L321.725,29.138C321.498,29.138 321.345,29.085 321.265,28.978C321.225,28.898 321.211,28.805 321.225,28.698C321.251,28.591 321.278,28.471 321.305,28.338L322.245,23.618C322.258,23.551 322.271,23.485 322.285,23.418C322.311,23.351 322.318,23.291 322.305,23.238L322.345,22.958C322.358,22.745 322.291,22.611 322.145,22.558C322.025,22.491 321.845,22.465 321.605,22.478C321.378,22.491 321.178,22.498 321.005,22.498C320.938,22.498 320.871,22.505 320.805,22.518C320.751,22.518 320.705,22.511 320.665,22.498C320.611,22.471 320.565,22.465 320.525,22.478C320.485,22.478 320.445,22.471 320.405,22.458C320.271,22.391 320.211,22.285 320.225,22.138C320.238,21.991 320.265,21.818 320.305,21.618C320.318,21.538 320.331,21.465 320.345,21.398C320.371,21.331 320.405,21.265 320.445,21.198C320.485,21.131 320.538,21.085 320.605,21.058C320.671,21.018 320.738,20.985 320.805,20.958C320.845,20.945 320.871,20.945 320.885,20.958C320.911,20.958 320.945,20.951 320.985,20.938L326.325,20.938C326.445,20.938 326.558,20.945 326.665,20.958C326.771,20.958 326.858,20.985 326.925,21.038ZM337.565,21.078C337.618,21.171 337.631,21.278 337.605,21.398C337.591,21.518 337.571,21.651 337.545,21.798L336.245,28.298C336.218,28.445 336.185,28.578 336.145,28.698C336.118,28.805 336.071,28.898 336.005,28.978C335.911,29.085 335.765,29.138 335.565,29.138L335.005,29.138C334.925,29.138 334.838,29.145 334.745,29.158C334.665,29.158 334.598,29.145 334.545,29.118C334.425,29.078 334.351,29.018 334.325,28.938C334.311,28.858 334.305,28.758 334.305,28.638L334.365,28.298C334.365,28.258 334.371,28.211 334.385,28.158C334.398,28.091 334.411,28.031 334.425,27.978L334.945,25.438C334.971,25.278 334.998,25.118 335.025,24.958C335.065,24.798 335.085,24.651 335.085,24.518C335.071,24.451 335.065,24.398 335.065,24.358C335.065,24.305 335.045,24.265 335.005,24.238C334.991,24.225 334.971,24.218 334.945,24.218C334.905,24.245 334.858,24.271 334.805,24.298C334.671,24.458 334.551,24.638 334.445,24.838C334.338,25.038 334.225,25.231 334.105,25.418C333.865,25.831 333.631,26.251 333.405,26.678C333.178,27.091 332.945,27.498 332.705,27.898C332.598,28.085 332.485,28.298 332.365,28.538C332.245,28.765 332.105,28.931 331.945,29.038C331.865,29.091 331.771,29.125 331.665,29.138L331.025,29.138C330.958,29.111 330.898,29.091 330.845,29.078C330.791,29.051 330.745,29.018 330.705,28.978C330.665,28.938 330.638,28.885 330.625,28.818C330.611,28.751 330.598,28.685 330.585,28.618C330.545,28.498 330.518,28.378 330.505,28.258C330.491,28.125 330.471,27.991 330.445,27.858C330.365,27.471 330.298,27.078 330.245,26.678C330.191,26.265 330.125,25.865 330.045,25.478C330.005,25.251 329.965,25.025 329.925,24.798C329.898,24.571 329.825,24.378 329.705,24.218C329.678,24.218 329.658,24.225 329.645,24.238L329.605,24.238C329.538,24.291 329.491,24.351 329.465,24.418C329.425,24.485 329.398,24.551 329.385,24.618C329.385,24.671 329.371,24.731 329.345,24.798L329.285,25.138C329.258,25.191 329.238,25.245 329.225,25.298C329.211,25.351 329.205,25.398 329.205,25.438L328.725,27.758C328.698,27.931 328.658,28.145 328.605,28.398C328.565,28.638 328.505,28.811 328.425,28.918C328.385,28.945 328.345,28.978 328.305,29.018C328.278,29.045 328.245,29.065 328.205,29.078C328.138,29.105 328.058,29.125 327.965,29.138L327.165,29.138C326.991,29.138 326.858,29.098 326.765,29.018C326.698,28.965 326.665,28.878 326.665,28.758C326.678,28.638 326.698,28.505 326.725,28.358L328.045,21.758C328.071,21.638 328.098,21.525 328.125,21.418C328.165,21.298 328.211,21.205 328.265,21.138C328.331,21.045 328.438,20.985 328.585,20.958C328.625,20.945 328.651,20.945 328.665,20.958C328.691,20.958 328.725,20.951 328.765,20.938L330.505,20.938C330.638,20.938 330.738,20.971 330.805,21.038C330.911,21.118 330.971,21.245 330.985,21.418C331.011,21.591 331.045,21.751 331.085,21.898C331.151,22.271 331.218,22.651 331.285,23.038C331.351,23.411 331.418,23.791 331.485,24.178C331.538,24.378 331.578,24.585 331.605,24.798C331.645,25.011 331.685,25.218 331.725,25.418C331.751,25.498 331.771,25.585 331.785,25.678C331.811,25.758 331.865,25.811 331.945,25.838C332.011,25.865 332.071,25.851 332.125,25.798C332.191,25.745 332.238,25.698 332.265,25.658C332.398,25.511 332.505,25.358 332.585,25.198C332.678,25.025 332.771,24.858 332.865,24.698C333.145,24.258 333.405,23.811 333.645,23.358C333.898,22.891 334.165,22.438 334.445,21.998C334.551,21.811 334.658,21.618 334.765,21.418C334.885,21.205 335.045,21.058 335.245,20.978C335.338,20.951 335.431,20.938 335.525,20.938L336.965,20.938C337.045,20.925 337.118,20.925 337.185,20.938L337.285,20.938C337.338,20.965 337.391,20.985 337.445,20.998C337.511,21.011 337.551,21.038 337.565,21.078Z" style="fill-rule:nonzero;"/></g><g id="g4701" transform="matrix(0.00561898,0.000824466,-0.000824466,0.00561898,8.9122,6.63989)"><path id="path4710" d="M267.1,19.6C258.7,24.6 244.7,38.6 228.1,58.9L243.4,87.8C254.1,72.4 265.1,58.6 276.1,46.8C276.9,45.9 277.4,45.4 277.4,45.4C277,45.9 276.5,46.3 276.1,46.8C272.5,50.7 261.7,63.3 245.4,88.4C261.1,87.6 285.2,84.4 304.9,81C310.8,48.2 299.2,33.2 299.2,33.2C299.2,33.2 284.4,9.3 267.1,19.6Z" style="fill:url(#_Linear11);fill-rule:nonzero;"/><path id="path4712" d="M241.1,184.4C241.2,184.4 241.3,184.4 241.4,184.3L239.2,184.5C239.1,184.6 238.9,184.6 238.8,184.7C239.6,184.6 240.4,184.5 241.1,184.4Z" style="fill:none;fill-rule:nonzero;"/><path id="path4714" d="M225.5,236.1C224.3,236.4 223,236.6 221.7,236.8C223,236.6 224.3,236.4 225.5,236.1Z" style="fill:none;fill-rule:nonzero;"/><path id="path4716" d="M119.3,352.2C119.5,351.8 119.6,351.3 119.8,350.9C123.2,342 126.5,333.4 129.8,324.9C133.5,315.5 137.2,306.3 140.8,297.4C144.6,288.1 148.4,279 152.1,270.3C156,261.1 159.8,252.3 163.6,243.8C166.7,236.9 169.7,230.2 172.7,223.7C173.7,221.5 174.7,219.4 175.7,217.3C177.7,213.1 179.6,209 181.5,205C183.3,201.3 185,197.7 186.7,194.1C187.3,192.9 187.9,191.7 188.4,190.6C188.5,190.4 188.6,190.2 188.7,190L186.8,190.2L185.3,187.3C185.2,187.6 185,187.9 184.9,188.2C182.2,193.5 179.5,198.9 176.9,204.4C175.4,207.5 173.9,210.7 172.3,213.9C168.1,222.7 164,231.5 160,240.5C155.9,249.5 151.9,258.6 148,267.6C144.1,276.5 140.4,285.4 136.7,294.3C133,303.2 129.4,312 125.9,320.8C122.2,330 118.6,339.1 115.2,348.1C114.4,350.1 113.6,352.2 112.9,354.2C110.1,361.5 107.4,368.6 104.8,375.7L107.2,380.4L109.3,380.2C109.4,380 109.5,379.8 109.5,379.6C112.6,370.1 116,361 119.3,352.2Z" style="fill:none;fill-rule:nonzero;"/><path id="path4718" d="M220.7,236.9L220.7,236.9Z" style="fill:none;fill-rule:nonzero;"/><path id="path4720" d="M215.6,262.2C213.6,262.6 211.6,262.9 209.6,263.2C210.6,263.1 211.7,262.9 212.7,262.7C213.7,262.6 214.7,262.4 215.6,262.2Z" style="fill:rgb(190,32,46);fill-rule:nonzero;"/><path id="path4722" d="M215.6,262.2C213.6,262.6 211.6,262.9 209.6,263.2C210.6,263.1 211.7,262.9 212.7,262.7C213.7,262.6 214.7,262.4 215.6,262.2Z" style="fill:rgb(190,32,46);fill-opacity:0.35;fill-rule:nonzero;"/><path id="path4724" d="M220.8,236.9C220.7,236.9 220.7,236.9 220.8,236.9C221.1,236.9 221.4,236.8 221.7,236.8C223,236.6 224.3,236.4 225.5,236.1C224,236.4 222.4,236.6 220.8,236.9Z" style="fill:rgb(190,32,46);fill-rule:nonzero;"/><path id="path4726" d="M220.8,236.9C220.7,236.9 220.7,236.9 220.8,236.9C221.1,236.9 221.4,236.8 221.7,236.8C223,236.6 224.3,236.4 225.5,236.1C224,236.4 222.4,236.6 220.8,236.9Z" style="fill:rgb(190,32,46);fill-opacity:0.35;fill-rule:nonzero;"/><path id="path4737" d="M198.2,162.4C202.9,153.7 207.6,145.2 212.3,136.9C217.2,128.3 222.2,120 227.3,111.9C227.6,111.4 227.9,110.9 228.2,110.5C233.2,102.6 238.2,95 243.3,87.7L228,58.9C226.9,60.3 225.7,61.7 224.5,63.2C220.1,68.7 215.5,74.6 210.8,80.9C205.5,88 200.1,95.5 194.5,103.4C189.4,110.7 184.2,118.4 179,126.3C174.6,133.1 170.2,140 165.8,147.1C165.6,147.4 165.5,147.6 165.3,147.9L185.2,187.2C189.6,178.9 193.9,170.6 198.2,162.4Z" style="fill:url(#_Linear12);fill-rule:nonzero;"/><path id="path4748" d="M107.5,384.1C104.9,391.3 102.2,398.7 99.6,406.3C99.6,406.4 99.5,406.5 99.5,406.6C99.1,407.7 98.7,408.7 98.4,409.8C96.6,414.9 95.1,419.5 91.5,429.9C97.4,432.6 102.1,439.6 106.5,447.6C106,439.3 102.6,431.5 96.1,425.5C125,426.8 150,419.5 162.8,398.3C163.9,396.4 165,394.4 166,392.3C160.1,399.7 152.9,402.9 139.2,402.1L139.1,402.1L139.2,402.1C159.3,393.1 169.4,384.4 178.3,370.1C180.4,366.7 182.5,363 184.6,358.9C167,377 146.6,382.1 125.1,378.2L109,380C108.5,381.4 108,382.7 107.5,384.1Z" style="fill:url(#_Linear13);fill-rule:nonzero;"/><path id="path4759" d="M115,348C118.5,339 122.1,329.9 125.7,320.7C129.2,311.9 132.8,303.1 136.5,294.2C140.2,285.3 144,276.4 147.8,267.5C151.7,258.4 155.7,249.4 159.8,240.4C163.8,231.5 168,222.6 172.1,213.8C173.6,210.6 175.1,207.5 176.7,204.3C179.3,198.9 182,193.5 184.7,188.1C184.8,187.8 185,187.5 185.1,187.2L165.4,148C165.1,148.5 164.8,149.1 164.4,149.6C159.8,157.2 155.1,164.9 150.6,172.8C146,180.8 141.5,188.9 137.1,197.2C133.4,204.2 129.8,211.2 126.2,218.3C125.5,219.7 124.8,221.2 124.1,222.6C119.8,231.5 115.8,240.2 112.3,248.5C108.3,257.9 104.8,266.9 101.7,275.4C99.7,281 97.8,286.4 96.1,291.6C94.7,296 93.4,300.5 92.1,304.9C89.1,315.3 86.6,325.7 84.5,336.1L104.5,375.6C107.1,368.5 109.9,361.4 112.6,354.1C113.4,352.1 114.2,350.1 115,348Z" style="fill:url(#_Linear14);fill-rule:nonzero;"/><path id="path4770" d="M84.2,337.5C81.7,350.1 79.9,362.7 79,375.3C79,375.7 78.9,376.2 78.9,376.6C72.7,366.6 55.9,356.8 56,356.9C68,374.3 77.1,391.5 78.4,408.4C72,409.7 63.2,407.8 53.1,404.1C63.7,413.8 71.6,416.5 74.7,417.2C65,417.8 54.9,424.5 44.7,432.2C59.6,426.1 71.7,423.7 80.3,425.7C66.6,464.4 52.9,507.2 39.2,552.6C43.4,551.4 45.9,548.5 47.3,544.7C49.7,536.5 66,482.5 91.4,411.6C92.1,409.6 92.9,407.6 93.6,405.5C93.8,404.9 94,404.4 94.2,403.8C96.9,396.4 99.7,388.8 102.6,381C103.3,379.2 103.9,377.5 104.6,375.7L104.6,375.6L84.6,336.1C84.4,336.6 84.3,337 84.2,337.5Z" style="fill:url(#_Linear15);fill-rule:nonzero;"/><path id="path4781" d="M188.4,190.6C187.8,191.8 187.3,192.9 186.7,194.1C185,197.7 183.2,201.3 181.5,205C179.6,209 177.7,213.1 175.7,217.3C174.7,219.4 173.7,221.5 172.7,223.7C169.7,230.2 166.7,236.9 163.6,243.8C159.8,252.3 156,261.1 152.1,270.3C148.4,279 144.6,288.1 140.8,297.4C137.2,306.3 133.5,315.4 129.8,324.9C126.5,333.3 123.2,342 119.8,350.9C119.6,351.3 119.5,351.8 119.3,352.2C116,361 112.6,370.1 109.2,379.4C109.1,379.6 109,379.8 109,380L125.1,378.2C124.8,378.1 124.5,378.1 124.1,378C143.4,375.6 169,361.2 185.5,343.4C193.1,335.2 200,325.6 206.4,314.3C211.2,305.9 215.6,296.6 219.9,286.2C223.6,277.2 227.2,267.4 230.6,256.8C226.2,259.1 221.1,260.8 215.5,262C214.5,262.2 213.5,262.4 212.5,262.6C211.5,262.8 210.5,262.9 209.4,263.1C227.4,256.2 238.7,242.9 246.9,226.5C242.2,229.7 234.5,233.9 225.3,236C224.1,236.3 222.8,236.5 221.5,236.7C221.2,236.7 220.9,236.8 220.5,236.8C226.7,234.2 232,231.3 236.6,227.8C237.6,227.1 238.5,226.3 239.4,225.5C240.8,224.3 242.1,223 243.4,221.7C244.2,220.8 245,220 245.8,219.1C247.6,217 249.3,214.7 250.8,212.2C251.3,211.4 251.8,210.7 252.2,209.9C252.8,208.7 253.4,207.6 253.9,206.5C256.4,201.5 258.4,197 260,193C260.8,191 261.5,189.2 262.1,187.5C262.3,186.8 262.6,186.2 262.8,185.5C263.4,183.6 264,181.9 264.4,180.4C265,178.2 265.4,176.4 265.6,175.1C265,175.6 264.3,176.1 263.5,176.5C258.1,179.7 248.8,182.7 241.3,184.1L256.1,182.5L241.3,184.1C241.2,184.1 241.1,184.1 241,184.2C240.3,184.3 239.5,184.4 238.7,184.6C238.8,184.5 239,184.5 239.1,184.4L188.5,189.9C188.6,190.3 188.5,190.5 188.4,190.6Z" style="fill:url(#_Linear16);fill-rule:nonzero;"/><path id="path4792" d="M245.4,88.4C240.9,95.3 236,103.2 230.7,112C230.4,112.5 230.1,112.9 229.9,113.4C225.3,121.1 220.5,129.5 215.4,138.8C211,146.8 206.4,155.3 201.6,164.6C197.4,172.6 193.2,181.1 188.7,190.1L239.3,184.6C254,177.8 260.6,171.7 267,162.8C268.7,160.4 270.4,157.8 272.1,155.1C277.3,147 282.4,138.1 286.9,129.2C291.3,120.6 295.2,112.1 298.1,104.5C300,99.6 301.5,95.1 302.6,91.1C303.5,87.6 304.2,84.3 304.8,81.1C285.2,84.4 261.1,87.6 245.4,88.4Z" style="fill:url(#_Linear17);fill-rule:nonzero;"/><path id="path4794" d="M212.7,262.8C211.7,263 210.7,263.1 209.6,263.3C210.6,263.1 211.6,262.9 212.7,262.8Z" style="fill:rgb(190,32,46);fill-rule:nonzero;"/><path id="path4796" d="M212.7,262.8C211.7,263 210.7,263.1 209.6,263.3C210.6,263.1 211.6,262.9 212.7,262.8Z" style="fill:rgb(190,32,46);fill-opacity:0.35;fill-rule:nonzero;"/><path id="path4807" d="M212.7,262.8C211.7,263 210.7,263.1 209.6,263.3C210.6,263.1 211.6,262.9 212.7,262.8Z" style="fill:url(#_Linear18);fill-rule:nonzero;"/><path id="path4809" d="M220.7,236.9C221,236.9 221.3,236.8 221.7,236.8C221.4,236.8 221.1,236.9 220.7,236.9Z" style="fill:rgb(190,32,46);fill-rule:nonzero;"/><path id="path4811" d="M220.7,236.9C221,236.9 221.3,236.8 221.7,236.8C221.4,236.8 221.1,236.9 220.7,236.9Z" style="fill:rgb(190,32,46);fill-opacity:0.35;fill-rule:nonzero;"/><path id="path4822" d="M220.7,236.9C221,236.9 221.3,236.8 221.7,236.8C221.4,236.8 221.1,236.9 220.7,236.9Z" style="fill:url(#_Linear19);fill-rule:nonzero;"/><path id="path4824" d="M220.8,236.9L220.8,236.9Z" style="fill:rgb(190,32,46);fill-rule:nonzero;"/><path id="path4826" d="M220.8,236.9L220.8,236.9Z" style="fill:rgb(190,32,46);fill-opacity:0.35;fill-rule:nonzero;"/><path id="path4837" d="M220.8,236.9L220.8,236.9Z" style="fill:url(#_Linear20);fill-rule:nonzero;"/></g></g><defs><linearGradient id="_Linear1" x1="0" y1="0" x2="1" y2="0" gradientUnits="userSpaceOnUse" gradientTransform="matrix(112.132,-31.1761,31.1761,112.132,241.153,62.3888)"><stop offset="0" style="stop-color:rgb(246,153,35);stop-opacity:1"/><stop offset="0.31" style="stop-color:rgb(247,154,35);stop-opacity:1"/><stop offset="0.84" style="stop-color:rgb(233,120,38);stop-opacity:1"/><stop offset="1" style="stop-color:rgb(233,120,38);stop-opacity:1"/></linearGradient><linearGradient id="_Linear2" x1="0" y1="0" x2="1" y2="0" gradientUnits="userSpaceOnUse" gradientTransform="matrix(228.069,-489.112,489.112,228.069,-4.2842,565.648)"><stop offset="0" style="stop-color:rgb(158,32,100);stop-opacity:1"/><stop offset="0.32" style="stop-color:rgb(158,32,100);stop-opacity:1"/><stop offset="0.63" style="stop-color:rgb(201,32,55);stop-opacity:1"/><stop offset="0.75" style="stop-color:rgb(205,35,53);stop-opacity:1"/><stop offset="1" style="stop-color:rgb(233,120,38);stop-opacity:1"/></linearGradient><linearGradient id="_Linear3" x1="0" y1="0" x2="1" y2="0" gradientUnits="userSpaceOnUse" gradientTransform="matrix(135.907,-291.464,291.464,135.907,72.304,529.48)"><stop offset="0" style="stop-color:rgb(40,38,98);stop-opacity:1"/><stop offset="0.1" style="stop-color:rgb(102,46,141);stop-opacity:1"/><stop offset="0.79" style="stop-color:rgb(159,32,100);stop-opacity:1"/><stop offset="0.95" style="stop-color:rgb(205,32,50);stop-opacity:1"/><stop offset="1" style="stop-color:rgb(205,32,50);stop-opacity:1"/></linearGradient><linearGradient id="_Linear4" x1="0" y1="0" x2="1" y2="0" gradientUnits="userSpaceOnUse" gradientTransform="matrix(228.069,-489.113,489.113,228.069,3.96729,536.052)"><stop offset="0" style="stop-color:rgb(158,32,100);stop-opacity:1"/><stop offset="0.32" style="stop-color:rgb(158,32,100);stop-opacity:1"/><stop offset="0.63" style="stop-color:rgb(201,32,55);stop-opacity:1"/><stop offset="0.75" style="stop-color:rgb(205,35,53);stop-opacity:1"/><stop offset="1" style="stop-color:rgb(233,120,38);stop-opacity:1"/></linearGradient><linearGradient id="_Linear5" x1="0" y1="0" x2="1" y2="0" gradientUnits="userSpaceOnUse" gradientTransform="matrix(119.857,-257.043,257.043,119.857,27.2184,503.465)"><stop offset="0" style="stop-color:rgb(40,38,98);stop-opacity:1"/><stop offset="0.1" style="stop-color:rgb(102,46,141);stop-opacity:1"/><stop offset="0.79" style="stop-color:rgb(159,32,100);stop-opacity:1"/><stop offset="0.95" style="stop-color:rgb(205,32,50);stop-opacity:1"/><stop offset="1" style="stop-color:rgb(205,32,50);stop-opacity:1"/></linearGradient><linearGradient id="_Linear6" x1="0" y1="0" x2="1" y2="0" gradientUnits="userSpaceOnUse" gradientTransform="matrix(228.069,-489.113,489.113,228.069,54.5888,559.656)"><stop offset="0" style="stop-color:rgb(158,32,100);stop-opacity:1"/><stop offset="0.32" style="stop-color:rgb(158,32,100);stop-opacity:1"/><stop offset="0.63" style="stop-color:rgb(201,32,55);stop-opacity:1"/><stop offset="0.75" style="stop-color:rgb(205,35,53);stop-opacity:1"/><stop offset="1" style="stop-color:rgb(233,120,38);stop-opacity:1"/></linearGradient><linearGradient id="_Linear7" x1="0" y1="0" x2="1" y2="0" gradientUnits="userSpaceOnUse" gradientTransform="matrix(228.069,-489.113,489.113,228.069,37.9275,588.825)"><stop offset="0" style="stop-color:rgb(158,32,100);stop-opacity:1"/><stop offset="0.32" style="stop-color:rgb(158,32,100);stop-opacity:1"/><stop offset="0.63" style="stop-color:rgb(201,32,55);stop-opacity:1"/><stop offset="0.75" style="stop-color:rgb(205,35,53);stop-opacity:1"/><stop offset="1" style="stop-color:rgb(233,120,38);stop-opacity:1"/></linearGradient><linearGradient id="_Linear8" x1="0" y1="0" x2="1" y2="0" gradientUnits="userSpaceOnUse" gradientTransform="matrix(228.069,-489.113,489.113,228.069,69.6445,566.677)"><stop offset="0" style="stop-color:rgb(158,32,100);stop-opacity:1"/><stop offset="0.32" style="stop-color:rgb(158,32,100);stop-opacity:1"/><stop offset="0.63" style="stop-color:rgb(201,32,55);stop-opacity:1"/><stop offset="0.75" style="stop-color:rgb(205,35,53);stop-opacity:1"/><stop offset="1" style="stop-color:rgb(233,120,38);stop-opacity:1"/></linearGradient><linearGradient id="_Linear9" x1="0" y1="0" x2="1" y2="0" gradientUnits="userSpaceOnUse" gradientTransform="matrix(228.069,-489.113,489.113,228.069,67.9218,565.873)"><stop offset="0" style="stop-color:rgb(158,32,100);stop-opacity:1"/><stop offset="0.32" style="stop-color:rgb(158,32,100);stop-opacity:1"/><stop offset="0.63" style="stop-color:rgb(201,32,55);stop-opacity:1"/><stop offset="0.75" style="stop-color:rgb(205,35,53);stop-opacity:1"/><stop offset="1" style="stop-color:rgb(233,120,38);stop-opacity:1"/></linearGradient><linearGradient id="_Linear10" x1="0" y1="0" x2="1" y2="0" gradientUnits="userSpaceOnUse" gradientTransform="matrix(50.4107,-108.11,108.11,50.4107,195.702,290.936)"><stop offset="0" style="stop-color:rgb(158,32,100);stop-opacity:1"/><stop offset="0.32" style="stop-color:rgb(158,32,100);stop-opacity:1"/><stop offset="0.63" style="stop-color:rgb(201,32,55);stop-opacity:1"/><stop offset="0.75" style="stop-color:rgb(205,35,53);stop-opacity:1"/><stop offset="1" style="stop-color:rgb(233,120,38);stop-opacity:1"/></linearGradient><linearGradient id="_Linear11" x1="0" y1="0" x2="1" y2="0" gradientUnits="userSpaceOnUse" gradientTransform="matrix(112.132,-31.1761,31.1761,112.132,241.153,62.3888)"><stop offset="0" style="stop-color:rgb(246,153,35);stop-opacity:1"/><stop offset="0.31" style="stop-color:rgb(247,154,35);stop-opacity:1"/><stop offset="0.84" style="stop-color:rgb(233,120,38);stop-opacity:1"/><stop offset="1" style="stop-color:rgb(233,120,38);stop-opacity:1"/></linearGradient><linearGradient id="_Linear12" x1="0" y1="0" x2="1" y2="0" gradientUnits="userSpaceOnUse" gradientTransform="matrix(228.069,-489.112,489.112,228.069,-4.2842,565.648)"><stop offset="0" style="stop-color:rgb(158,32,100);stop-opacity:1"/><stop offset="0.32" style="stop-color:rgb(158,32,100);stop-opacity:1"/><stop offset="0.63" style="stop-color:rgb(201,32,55);stop-opacity:1"/><stop offset="0.75" style="stop-color:rgb(205,35,53);stop-opacity:1"/><stop offset="1" style="stop-color:rgb(233,120,38);stop-opacity:1"/></linearGradient><linearGradient id="_Linear13" x1="0" y1="0" x2="1" y2="0" gradientUnits="userSpaceOnUse" gradientTransform="matrix(135.907,-291.464,291.464,135.907,72.304,529.48)"><stop offset="0" style="stop-color:rgb(40,38,98);stop-opacity:1"/><stop offset="0.1" style="stop-color:rgb(102,46,141);stop-opacity:1"/><stop offset="0.79" style="stop-color:rgb(159,32,100);stop-opacity:1"/><stop offset="0.95" style="stop-color:rgb(205,32,50);stop-opacity:1"/><stop offset="1" style="stop-color:rgb(205,32,50);stop-opacity:1"/></linearGradient><linearGradient id="_Linear14" x1="0" y1="0" x2="1" y2="0" gradientUnits="userSpaceOnUse" gradientTransform="matrix(228.069,-489.113,489.113,228.069,3.96729,536.052)"><stop offset="0" style="stop-color:rgb(158,32,100);stop-opacity:1"/><stop offset="0.32" style="stop-color:rgb(158,32,100);stop-opacity:1"/><stop offset="0.63" style="stop-color:rgb(201,32,55);stop-opacity:1"/><stop offset="0.75" style="stop-color:rgb(205,35,53);stop-opacity:1"/><stop offset="1" style="stop-color:rgb(233,120,38);stop-opacity:1"/></linearGradient><linearGradient id="_Linear15" x1="0" y1="0" x2="1" y2="0" gradientUnits="userSpaceOnUse" gradientTransform="matrix(119.857,-257.043,257.043,119.857,27.2184,503.465)"><stop offset="0" style="stop-color:rgb(40,38,98);stop-opacity:1"/><stop offset="0.1" style="stop-color:rgb(102,46,141);stop-opacity:1"/><stop offset="0.79" style="stop-color:rgb(159,32,100);stop-opacity:1"/><stop offset="0.95" style="stop-color:rgb(205,32,50);stop-opacity:1"/><stop offset="1" style="stop-color:rgb(205,32,50);stop-opacity:1"/></linearGradient><linearGradient id="_Linear16" x1="0" y1="0" x2="1" y2="0" gradientUnits="userSpaceOnUse" gradientTransform="matrix(228.069,-489.113,489.113,228.069,54.5888,559.656)"><stop offset="0" style="stop-color:rgb(158,32,100);stop-opacity:1"/><stop offset="0.32" style="stop-color:rgb(158,32,100);stop-opacity:1"/><stop offset="0.63" style="stop-color:rgb(201,32,55);stop-opacity:1"/><stop offset="0.75" style="stop-color:rgb(205,35,53);stop-opacity:1"/><stop offset="1" style="stop-color:rgb(233,120,38);stop-opacity:1"/></linearGradient><linearGradient id="_Linear17" x1="0" y1="0" x2="1" y2="0" gradientUnits="userSpaceOnUse" gradientTransform="matrix(228.069,-489.113,489.113,228.069,37.9275,588.825)"><stop offset="0" style="stop-color:rgb(158,32,100);stop-opacity:1"/><stop offset="0.32" style="stop-color:rgb(158,32,100);stop-opacity:1"/><stop offset="0.63" style="stop-color:rgb(201,32,55);stop-opacity:1"/><stop offset="0.75" style="stop-color:rgb(205,35,53);stop-opacity:1"/><stop offset="1" style="stop-color:rgb(233,120,38);stop-opacity:1"/></linearGradient><linearGradient id="_Linear18" x1="0" y1="0" x2="1" y2="0" gradientUnits="userSpaceOnUse" gradientTransform="matrix(228.069,-489.113,489.113,228.069,69.6445,566.677)"><stop offset="0" style="stop-color:rgb(158,32,100);stop-opacity:1"/><stop offset="0.32" style="stop-color:rgb(158,32,100);stop-opacity:1"/><stop offset="0.63" style="stop-color:rgb(201,32,55);stop-opacity:1"/><stop offset="0.75" style="stop-color:rgb(205,35,53);stop-opacity:1"/><stop offset="1" style="stop-color:rgb(233,120,38);stop-opacity:1"/></linearGradient><linearGradient id="_Linear19" x1="0" y1="0" x2="1" y2="0" gradientUnits="userSpaceOnUse" gradientTransform="matrix(228.069,-489.113,489.113,228.069,67.9218,565.873)"><stop offset="0" style="stop-color:rgb(158,32,100);stop-opacity:1"/><stop offset="0.32" style="stop-color:rgb(158,32,100);stop-opacity:1"/><stop offset="0.63" style="stop-color:rgb(201,32,55);stop-opacity:1"/><stop offset="0.75" style="stop-color:rgb(205,35,53);stop-opacity:1"/><stop offset="1" style="stop-color:rgb(233,120,38);stop-opacity:1"/></linearGradient><linearGradient id="_Linear20" x1="0" y1="0" x2="1" y2="0" gradientUnits="userSpaceOnUse" gradientTransform="matrix(50.4107,-108.11,108.11,50.4107,195.702,290.936)"><stop offset="0" style="stop-color:rgb(158,32,100);stop-opacity:1"/><stop offset="0.32" style="stop-color:rgb(158,32,100);stop-opacity:1"/><stop offset="0.63" style="stop-color:rgb(201,32,55);stop-opacity:1"/><stop offset="0.75" style="stop-color:rgb(205,35,53);stop-opacity:1"/><stop offset="1" style="stop-color:rgb(233,120,38);stop-opacity:1"/></linearGradient></defs></svg>