<svg width="100%" height="100%" viewBox="0 0 18 16" version="1.1" xmlns="http://www.w3.org/2000/svg" xmlns:xlink="http://www.w3.org/1999/xlink" xml:space="preserve" style="fill-rule:evenodd;clip-rule:evenodd;stroke-linejoin:round;stroke-miterlimit:2;"><g id="mdbook"><g transform="matrix(1.07381,0,0,1.16787,0.071922,-0.951721)"><path d="M15.532,3.683L15.532,11.647C15.532,13.112 14.238,14.301 12.645,14.301L3.984,14.301C2.391,14.301 1.097,13.112 1.097,11.647L1.097,3.683C1.097,2.218 2.391,1.029 3.984,1.029L12.645,1.029C14.238,1.029 15.532,2.218 15.532,3.683Z" style="fill:white;"/></g><g transform="matrix(0.0700936,0,0,0.0700936,1.99928,1.53737)"><path d="M189.5,36.8C189.7,39.6 189.5,41.9 188.9,43.6L153,162C152.4,164.1 151,165.7 148.8,167C146.6,168.2 144.4,168.9 142.1,168.9L31.4,168.9C21.8,168.9 16.1,166.1 14.1,160.5C13.3,158.3 13.3,156.6 14.2,155.3C15.1,154.1 16.6,153.5 18.8,153.5L123,153.5C130.4,153.5 135.6,152.1 138.4,149.4C141.2,146.7 144.1,140.5 147,131L179.9,22.4C181.7,16.5 180.9,11.3 177.7,6.8C174.5,2.3 169.9,0 164,0L72.7,0C71.7,0 69.6,0.4 66.6,1.1L66.7,0.7C64.5,0.2 62.6,0 61,0.1C59.4,0.2 58,0.6 56.7,1.5C55.4,2.4 54.3,3.3 53.5,4.3C52.7,5.3 52,6.5 51.2,8.1C50.4,9.7 49.8,11.1 49.3,12.4C48.8,13.7 48.2,15.1 47.5,16.6C46.8,18.1 46.2,19.3 45.5,20.3C45,20.9 44.3,21.8 43.5,22.8C42.7,23.8 41.9,24.8 41.3,25.6C40.7,26.4 40.4,27.1 40.2,27.8C40,28.5 40.1,29.6 40.4,31C40.7,32.4 40.8,33.4 40.8,34.1C40.5,37.1 39.4,41 37.5,45.7C35.6,50.4 33.9,53.8 32.4,55.8C32.1,56.2 31.2,57.1 29.8,58.5C28.4,59.9 27.5,61.1 27.2,62.2C26.9,62.6 26.9,63.7 27.1,65.6C27.4,67.4 27.5,68.7 27.4,69.4C27.1,72.1 26.1,75.7 24.4,80.2C22.7,84.7 21,88.4 19.4,91.2C19.2,91.7 18.5,92.6 17.4,94C16.3,95.4 15.6,96.5 15.4,97.4C15.2,98 15.3,99.2 15.5,100.8C15.7,102.4 15.7,103.6 15.4,104.4C14.8,107.4 13.6,111.1 11.8,115.4C10,119.7 8.2,123.3 6.4,126.4C5.9,127.2 5.3,128.1 4.4,129.2C3.6,130.3 2.9,131.2 2.4,132C1.9,132.8 1.6,133.6 1.4,134.5C1.3,135 1.4,135.8 1.8,136.8C2.1,137.9 2.2,138.7 2.2,139.4C2.1,140.5 2,142 1.7,143.8C1.5,145.6 1.3,146.7 1.3,147C-0.5,151.8 -0.4,156.9 1.5,162.2C3.7,168.4 7.7,173.7 13.4,178C19.1,182.3 25.1,184.4 31.2,184.4L141.9,184.4C147.1,184.4 152,182.7 156.6,179.2C161.2,175.7 164.3,171.4 165.8,166.3L198.8,57.7C200.6,51.9 199.8,46.8 196.6,42.2C194.9,39.7 192.6,38 189.5,36.8ZM59.6,122.8L73.8,80L84.6,80C88.4,80 113.4,78.3 110,97.5C106.6,116.7 91.2,122.7 73.2,122.9C55.2,123.1 59.6,122.8 59.6,122.8ZM78.6,116.8C83.3,116.7 97.5,113.9 100.7,99.7C103.9,85.5 89.2,86.3 89.2,86.3L80.3,86.3L70.1,116.8C70.2,116.9 74,116.9 78.6,116.8ZM75.3,68.7L89,26.2L98.8,26.2L99.6,60.2L123.2,26.2L133.1,26.2L119.5,68.7L112.4,68.7L124.9,33.3L100.4,68.7L93.6,68.7L92.8,33.7L82,68.7L75.3,68.7Z" style="fill-rule:nonzero;"/></g></g></svg>