<svg width="100%" height="100%" viewBox="0 0 18 16" version="1.1" xmlns="http://www.w3.org/2000/svg" xmlns:xlink="http://www.w3.org/1999/xlink" xml:space="preserve" style="fill-rule:evenodd;clip-rule:evenodd;stroke-linejoin:round;stroke-miterlimit:2;"><g id="mdsvex" transform="matrix(1.05946,0,0,1.05946,0.0309998,-1.02502)"><g><path d="M7.869,2.183C11.504,1.121 14.471,3.304 15.654,6.419C16.93,9.781 15.807,13.675 12.064,14.849C10.013,15.492 6.845,15.022 5.038,13.35C4.252,12.622 3.871,11.734 3.706,10.498C3.08,5.823 5.847,2.774 7.869,2.183Z" style="fill:url(#_Radial-kcwt20l);"/><path d="M13.246,4.506C12.391,5.251 12.855,6.802 13.076,7.382C13.298,7.963 13.963,8.73 14.518,9.037C15.073,9.345 15.273,9.862 15.422,9.808C15.529,9.77 15.523,9.161 15.4,8.185C15.353,7.809 15.221,7.164 15.169,6.715C14.985,5.136 13.797,4.026 13.246,4.506Z" style="fill:rgb(223,211,40);"/><path d="M13.246,4.506C12.391,5.251 12.855,6.802 13.076,7.382C13.298,7.963 13.963,8.73 14.518,9.037C15.073,9.345 15.273,9.862 15.422,9.808C15.529,9.77 15.523,9.161 15.4,8.185C15.353,7.809 15.221,7.164 15.169,6.715C14.985,5.136 13.797,4.026 13.246,4.506Z" style="fill:rgb(223,211,40);"/><path d="M4.99,12.271C5.151,12.453 5.323,12.649 5.405,12.747C5.583,12.961 5.874,13.239 5.606,13.347C5.337,13.454 4.216,13.535 3.162,13.412C2.477,13.331 1.119,13.077 0.921,12.913C0.899,12.894 0.876,12.867 0.853,12.834C1.183,12.89 3.304,12.675 4.327,12.479C4.589,12.429 4.883,12.352 4.99,12.271Z" style="fill:rgb(140,95,12);"/><path d="M4.99,12.271C5.151,12.453 5.323,12.649 5.405,12.747C5.583,12.961 5.874,13.239 5.606,13.347C5.337,13.454 4.216,13.535 3.162,13.412C2.477,13.331 1.119,13.077 0.921,12.913C0.899,12.894 0.876,12.867 0.853,12.834C1.183,12.89 3.304,12.675 4.327,12.479C4.589,12.429 4.883,12.352 4.99,12.271Z" style="fill:rgb(140,95,12);"/><path d="M0.853,12.834C0.834,12.831 0.821,12.827 0.814,12.822C0.779,12.793 0.768,12.75 0.774,12.695C0.801,12.485 1.106,12.112 1.417,11.798C1.574,11.64 1.733,11.497 1.858,11.398C2.297,11.049 3.431,10.168 3.577,10.08C3.756,9.971 3.881,9.965 3.916,10.073C3.99,10.299 4.057,10.644 4.294,11.103C4.531,11.562 4.799,11.922 5.018,12.177C5.045,12.208 5.031,12.24 4.99,12.271C4.883,12.352 4.589,12.429 4.327,12.479C3.304,12.675 1.183,12.89 0.853,12.834Z" style="fill:rgb(216,181,37);"/><path d="M0.853,12.834C0.834,12.831 0.821,12.827 0.814,12.822C0.779,12.793 0.768,12.75 0.774,12.695C0.801,12.485 1.106,12.112 1.417,11.798C1.574,11.64 1.733,11.497 1.858,11.398C2.297,11.049 3.431,10.168 3.577,10.08C3.756,9.971 3.881,9.965 3.916,10.073C3.99,10.299 4.057,10.644 4.294,11.103C4.531,11.562 4.799,11.922 5.018,12.177C5.045,12.208 5.031,12.24 4.99,12.271C4.883,12.352 4.589,12.429 4.327,12.479C3.304,12.675 1.183,12.89 0.853,12.834Z" style="fill:rgb(216,181,37);"/><path d="M6.367,14.262C6.386,14.084 6.397,13.882 6.387,13.668C6.353,12.942 5.927,12.359 5.508,11.113C5.088,9.868 4.742,8.702 5.405,7.488C5.841,6.691 6.808,5.979 7.888,5.917C9.449,5.828 10.877,6.8 11.455,8.19C12.034,9.579 12.048,12.193 11.141,13.611C10.734,14.248 10.056,14.818 9.492,15.104C8.426,15.028 7.323,14.749 6.367,14.262Z" style="fill:url(#_Linear-cvq3edb);"/><path d="M6.367,14.262C6.386,14.084 6.397,13.882 6.387,13.668C6.353,12.942 5.927,12.359 5.508,11.113C5.088,9.868 4.742,8.702 5.405,7.488C5.841,6.691 6.808,5.979 7.888,5.917C9.449,5.828 10.877,6.8 11.455,8.19C12.034,9.579 12.048,12.193 11.141,13.611C10.734,14.248 10.056,14.818 9.492,15.104C8.426,15.028 7.323,14.749 6.367,14.262Z" style="fill:url(#_Linear-x42r4ne);"/></g><g transform="matrix(1.33517,0,0,1.0287,-2.64337,-0.172476)"><ellipse cx="7.637" cy="8.825" rx="0.614" ry="1.261"/></g><g transform="matrix(1.20845,0,0,1.19443,-1.64179,-1.83525)"><g style="filter:url(#_Effect-vzexjrb);"><ellipse cx="7.611" cy="9.084" rx="0.486" ry="0.609" style="fill:rgb(59,61,59);"/></g></g><g transform="matrix(1.05187,0,0,0.903133,-0.419678,0.855218)"><ellipse cx="7.563" cy="8.414" rx="0.306" ry="0.414" style="fill:url(#_Radial-xwvz3a0);"/></g></g><defs><radialGradient id="_Radial-kcwt20l" cx="0" cy="0" r="1" gradientUnits="userSpaceOnUse" gradientTransform="matrix(4.12727,5.04277,-5.04277,4.12727,9.47353,7.30738)"><stop offset="0" style="stop-color:rgb(112,118,120);stop-opacity:1"/><stop offset="0.53" style="stop-color:rgb(87,91,93);stop-opacity:1"/><stop offset="1" style="stop-color:black;stop-opacity:1"/></radialGradient><linearGradient id="_Linear-cvq3edb" x1="0" y1="0" x2="1" y2="0" gradientUnits="userSpaceOnUse" gradientTransform="matrix(-0.617944,6.42424,-6.42424,-0.617944,9.30427,8.39912)"><stop offset="0" style="stop-color:rgb(250,251,252);stop-opacity:1"/><stop offset="0.6" style="stop-color:rgb(209,210,211);stop-opacity:1"/><stop offset="0.81" style="stop-color:rgb(113,115,115);stop-opacity:1"/><stop offset="1" style="stop-color:rgb(13,17,16);stop-opacity:1"/></linearGradient><linearGradient id="_Linear-x42r4ne" x1="0" y1="0" x2="1" y2="0" gradientUnits="userSpaceOnUse" gradientTransform="matrix(-0.617944,6.42424,-6.42424,-0.617944,9.30427,8.39912)"><stop offset="0" style="stop-color:rgb(250,251,252);stop-opacity:1"/><stop offset="0.6" style="stop-color:rgb(209,210,211);stop-opacity:1"/><stop offset="0.81" style="stop-color:rgb(113,115,115);stop-opacity:1"/><stop offset="1" style="stop-color:rgb(13,17,16);stop-opacity:1"/></linearGradient><filter id="_Effect-vzexjrb" filterUnits="userSpaceOnUse" x="6.27269" y="7.61219" width="2.67703" height="2.94332"><feGaussianBlur in="SourceGraphic" stdDeviation="0.142955"/></filter><radialGradient id="_Radial-xwvz3a0" cx="0" cy="0" r="1" gradientUnits="userSpaceOnUse" gradientTransform="matrix(0.0166258,0.605677,-0.520033,0.0193638,7.54995,8.12222)"><stop offset="0" style="stop-color:rgb(233,234,235);stop-opacity:1"/><stop offset="1" style="stop-color:rgb(91,97,100);stop-opacity:1"/></radialGradient></defs></svg>