<svg width="100%" height="100%" viewBox="0 0 18 16" version="1.1" xmlns="http://www.w3.org/2000/svg" xmlns:xlink="http://www.w3.org/1999/xlink" xml:space="preserve" style="fill-rule:evenodd;clip-rule:evenodd;stroke-linejoin:round;stroke-miterlimit:2;"><g id="mergify" transform="matrix(0.0071736,0,0,-0.0071736,1.46772,15.5356)"><path d="M898,2090C669,2053 473,1954 310,1790C169,1650 76,1485 27,1291C-3,1168 -3,932 27,809C76,615 169,450 310,310C450,169 615,76 809,27C932,-3 1168,-3 1291,27C1485,76 1650,169 1790,310C1931,450 2024,615 2073,809C2103,932 2103,1168 2073,1291C2024,1485 1931,1650 1790,1790C1651,1930 1484,2025 1296,2071C1203,2094 987,2104 898,2090M738,1496C753,1488 773,1473 783,1462C800,1443 804,1443 848,1457C905,1475 980,1468 1025,1441C1058,1422 1059,1422 1121,1441C1293,1495 1415,1465 1473,1357C1493,1318 1495,1300 1498,1101L1501,888L1535,854C1595,794 1602,718 1553,652C1464,532 1280,593 1280,744C1280,795 1307,853 1336,864C1349,869 1351,898 1348,1076L1345,1282L1317,1306C1285,1333 1233,1337 1165,1317L1126,1305L1129,1090C1132,881 1132,876 1155,858C1213,813 1222,708 1173,649C1079,537 900,595 900,737C900,790 911,820 944,850L970,875L970,1083C970,1277 969,1291 950,1310C930,1330 887,1336 844,1324C833,1321 815,1303 805,1284C795,1264 778,1244 768,1239C752,1230 750,1213 750,1049C750,900 752,868 765,864C793,853 820,795 820,744C820,593 636,532 547,652C498,718 505,794 565,855L600,889L600,1211L565,1245C488,1322 501,1435 594,1491C631,1513 700,1516 738,1496" style="fill:rgb(83,169,219);fill-rule:nonzero;"/><path id="path1" d="M610,1414.5C551,1355.5 584,1262.5 664,1262.5C712,1262.5 729,1270.5 745,1303.5C778,1365.5 747,1428.5 678,1439.5C646,1444.5 637,1440.5 610,1414.5" style="fill:rgb(83,169,219);fill-rule:nonzero;"/><path id="path11" d="M605,805C569,769 571,717 610,678C637,652 646,648 678,653C721,660 760,699 760,736C760,768 735,816 715,824C678,838 629,830 605,805" style="fill:rgb(83,169,219);fill-rule:nonzero;"/><path id="path12" d="M986,799C937,741 966,665 1042,653C1074,648 1083,652 1110,678C1171,739 1136,830 1051,830C1019,830 1007,824 986,799" style="fill:rgb(83,169,219);fill-rule:nonzero;"/><path id="path13" d="M1382,823C1364,816 1340,766 1340,736C1340,699 1379,660 1422,653C1454,648 1463,652 1490,678C1550,739 1516,831 1433,829C1412,829 1389,826 1382,823" style="fill:rgb(83,169,219);fill-rule:nonzero;"/></g></svg>