<svg width="100%" height="100%" viewBox="0 0 18 16" version="1.1" xmlns="http://www.w3.org/2000/svg" xmlns:xlink="http://www.w3.org/1999/xlink" xml:space="preserve" style="fill-rule:evenodd;clip-rule:evenodd;stroke-linejoin:round;stroke-miterlimit:2;"><g id="mermaid"><g transform="matrix(1.03917,0,0,1.1302,0.359925,-0.662955)"><path d="M15.532,3.285L15.532,12.045C15.532,13.29 14.432,14.301 13.078,14.301L3.551,14.301C2.197,14.301 1.097,13.29 1.097,12.045L1.097,3.285C1.097,2.04 2.197,1.029 3.551,1.029L13.078,1.029C14.432,1.029 15.532,2.04 15.532,3.285Z" style="fill:rgb(255,54,112);"/></g><g transform="matrix(0.0307604,0,0,0.0307604,1.46121,0.461251)"><path d="M407.48,111.18C335.587,108.103 269.573,152.338 245.08,220C220.587,152.338 154.573,108.103 82.68,111.18C80.285,168.229 107.577,222.632 154.74,254.82C178.908,271.419 193.35,298.951 193.27,328.27L193.27,379.13L296.9,379.13L296.9,328.27C296.816,298.953 311.255,271.42 335.42,254.82C382.596,222.644 409.892,168.233 407.48,111.18Z" style="fill:white;fill-rule:nonzero;"/></g></g></svg>