<svg width="100%" height="100%" viewBox="0 0 18 16" version="1.1" xmlns="http://www.w3.org/2000/svg" xmlns:xlink="http://www.w3.org/1999/xlink" xml:space="preserve" style="fill-rule:evenodd;clip-rule:evenodd;stroke-linejoin:round;stroke-miterlimit:2;"><g id="meson"><g id="path817-6-2-9-7-9-93-9-8-1-2" transform="matrix(0.403425,0,0,0.403425,1.5,0.579567)"><path d="M18.738,0C7.217,6.506 0.066,18.695 0,31.934C12.055,38.506 26.208,38.281 37.178,32.002C37.179,31.97 37.181,31.94 37.182,31.908C37.167,18.74 30.139,6.577 18.74,0L18.738,0Z" style="fill:white;fill-rule:nonzero;"/></g><g id="path817-6-2-9-7-9-93-9-8-1-21" transform="matrix(0.363083,0,0,0.363083,2.25,1.32161)"><path d="M18.738,0C7.217,6.506 0.066,18.695 0,31.934C12.055,38.506 26.208,38.281 37.178,32.002C37.179,31.97 37.181,31.94 37.182,31.908C37.167,18.74 30.139,6.577 18.74,0L18.738,0ZM24.943,14.096C26.652,15.257 26.398,18.051 26.123,19.965C25.773,22.073 23.753,25.539 21.127,27.801C21.467,28.288 21.663,28.887 21.66,29.527C20.033,30.35 18.42,29.422 16.467,27.75C14.514,26.078 12.408,22.727 11.709,19.283C11.089,19.349 10.455,19.211 9.91,18.867C10.052,16.936 12.102,15.788 13.918,15.111C15.734,14.434 20.414,14.206 23.713,15.379C23.97,14.839 24.396,14.385 24.943,14.098L24.943,14.096Z" style="fill:rgb(57,32,124);fill-rule:nonzero;"/></g></g></svg>