<svg width="100%" height="100%" viewBox="0 0 18 16" version="1.1" xmlns="http://www.w3.org/2000/svg" xmlns:xlink="http://www.w3.org/1999/xlink" xml:space="preserve" style="fill-rule:evenodd;clip-rule:evenodd;stroke-linejoin:round;stroke-miterlimit:2;"><g id="mkdocs-dark" transform="matrix(1.23967,0,0,1.23967,-2.16657,-1.75841)"><g transform="matrix(0.939731,0,0,2.11297,2.24369,-1.98593)"><path d="M10.847,7.529L3.159,7.529C2.507,7.529 1.978,7.293 1.978,7.003L1.978,2.327C1.978,2.037 2.507,1.802 3.159,1.802L10.847,1.802C11.25,1.802 11.577,1.947 11.577,2.126L11.577,7.204C11.577,7.383 11.25,7.529 10.847,7.529Z"/></g><g transform="matrix(1.35228,0,0,1.83361,-1.74217,-1.48251)"><path d="M11.577,2.193L11.577,7.137C11.577,7.353 11.339,7.529 11.046,7.529L5.476,7.529C5.183,7.529 4.945,7.353 4.945,7.137L4.945,2.193C4.945,1.977 5.183,1.802 5.476,1.802L11.046,1.802C11.339,1.802 11.577,1.977 11.577,2.193Z"/></g><g transform="matrix(1.25249,0,0,1.27916,-1.52703,-0.767492)"><path d="M11.7,2.702L11.7,9.587C11.7,9.648 11.649,9.698 11.586,9.698L6.118,9.698C6.055,9.698 6.004,9.648 6.004,9.587L6.004,2.702C6.004,2.64 6.055,2.59 6.118,2.59L11.586,2.59C11.649,2.59 11.7,2.64 11.7,2.702Z" style="fill:white;"/></g><g transform="matrix(1,0,0,1.01679,0,-0.0673241)"><rect x="7.735" y="4.011" width="3.648" height="2.004"/></g><path d="M5.217,10.909L5.218,11.503C5.218,11.503 5.032,11.499 4.956,11.542C4.79,11.636 4.316,12.274 4.316,12.274L4.31,11.586C4.31,11.586 4.702,11.049 4.905,10.953C4.992,10.912 5.217,10.909 5.217,10.909Z" style="fill:white;"/><g transform="matrix(1.62744,0,0,0.95053,-3.10946,0.600666)"><path d="M9.638,12.84C9.635,13.059 9.53,13.234 9.402,13.234L5.175,13.234C5.045,13.234 4.939,13.053 4.939,12.83C4.939,12.606 5.045,12.425 5.175,12.425L9.638,12.425L9.638,12.83C9.638,12.833 9.638,12.837 9.638,12.84Z" style="fill:white;"/></g></g></svg>