<svg width="100%" height="100%" viewBox="0 0 18 16" version="1.1" xmlns="http://www.w3.org/2000/svg" xmlns:xlink="http://www.w3.org/1999/xlink" xml:space="preserve" style="fill-rule:evenodd;clip-rule:evenodd;stroke-linejoin:round;stroke-miterlimit:2;"><g id="mocha-dark" transform="matrix(0.450581,0,0,0.450581,-32.9942,-25.1177)"><g id="XMLID_223_"><g id="XMLID_295_"><path id="path8" d="M103.6,69.6C103.6,69.1 103.2,68.6 102.6,68.6L83.8,68.6C83.3,68.6 82.8,69 82.8,69.6C82.8,73 83.3,84.7 88.3,90.4C88.5,90.6 88.7,90.7 89,90.7L97.4,90.7C97.7,90.7 97.9,90.6 98.1,90.4C103.1,84.8 103.6,73.1 103.6,69.6ZM96.2,87.8L90.3,87.8C90,87.8 89.8,87.7 89.6,87.5C86.2,83.5 85.8,75.5 85.7,72.7C85.7,72.2 86.1,71.7 86.7,71.7L99.9,71.7C100.4,71.7 100.9,72.1 100.9,72.7C100.9,75.5 100.4,83.4 97,87.5C96.7,87.7 96.5,87.8 96.2,87.8Z" style="fill:rgb(141,103,72);fill-rule:nonzero;"/></g></g><path id="XMLID_225_" d="M95.1,66.6C95.1,66.6 98.7,64.5 96.5,60.7C95.2,58.7 94.6,57 95.1,56.3C93.8,57.9 91.6,59.6 94,63.2C94.8,64.1 95.2,66 95.1,66.6Z" style="fill:rgb(141,103,72);fill-rule:nonzero;"/><path id="XMLID_224_" d="M91.1,66.9C91.1,66.9 93.5,65.5 92,62.9C91.1,61.6 90.7,60.4 91.1,60C90.2,61.1 88.8,62.2 90.4,64.7C90.9,65.2 91.1,66.5 91.1,66.9Z" style="fill:rgb(141,103,72);fill-rule:nonzero;"/><path id="XMLID_227_" d="M99.3,78.5C98.9,81.2 98.1,84.3 96.4,86.3C96.2,86.5 96,86.6 95.8,86.6L90.8,86.6C90.6,86.6 90.3,86.5 90.2,86.3C89,84.8 88.2,82.8 87.7,80.7C87.7,80.7 93.5,81.5 96.8,80.3C99.2,79.4 99.3,78.5 99.3,78.5Z" style="fill:rgb(141,103,72);fill-rule:nonzero;"/></g></svg>