<svg width="100%" height="100%" viewBox="0 0 18 16" version="1.1" xmlns="http://www.w3.org/2000/svg" xmlns:xlink="http://www.w3.org/1999/xlink" xml:space="preserve" style="fill-rule:evenodd;clip-rule:evenodd;stroke-linejoin:round;stroke-miterlimit:2;"><g id="modernweb" transform="matrix(0.0365793,0,0,0.0365793,1.45856,0.480042)"><g><path d="M224.26,216.546C167.651,314.596 113.537,389.334 103.394,383.478C93.251,377.622 130.919,293.389 187.528,195.339C244.137,97.289 298.252,22.551 308.395,28.407C318.538,34.263 280.87,118.496 224.26,216.546Z" style="fill:url(#_Linear-61hnq2j);fill-rule:nonzero;"/></g><g><path d="M168.388,67.113C168.388,67.113 112.371,110.086 93.195,296.294C86.665,339.554 89.301,375.264 103.34,383.37C42.481,348.233 61.023,220.175 103.437,146.713C115.828,125.252 131.045,104.911 147.851,87.026C154.474,79.979 161.343,73.312 168.384,67.11" style="fill:url(#_Linear-m3so2sy);fill-rule:nonzero;"/><path d="M168.388,67.113C168.388,67.113 112.371,110.086 93.195,296.294C99.608,253.81 114.859,204.045 136.829,165.991C184.706,83.068 279.401,11.591 308.341,28.3C268.727,5.429 214.832,26.19 168.385,67.11" style="fill:url(#_Linear-nt8jc6u);fill-rule:nonzero;"/></g><g><path d="M344.658,168.607C344.658,168.607 335.45,238.606 183.777,348.316C149.577,375.601 117.334,391.174 103.295,383.068C164.154,418.205 265.784,338.118 308.198,264.655C320.589,243.194 330.596,219.845 337.681,196.348C340.473,187.089 342.811,177.807 344.663,168.608" style="fill:url(#_Linear-vk8ybqf);fill-rule:nonzero;"/><path d="M344.658,168.607C344.658,168.607 335.45,238.606 183.777,348.316C217.363,321.521 252.835,283.43 274.805,245.376C322.681,162.452 337.234,44.706 308.294,27.998C347.908,50.869 356.876,107.924 344.662,168.608" style="fill:url(#_Linear-zxhiuqx);fill-rule:nonzero;"/></g><g><path d="M27.152,230.307C13.031,109.538 122.464,18.433 122.464,18.433L122.463,18.431C120.776,19.184 119.098,19.96 117.43,20.759C81.438,38 50.093,65.908 28.632,103.079C-27.977,201.129 5.617,326.505 103.667,383.114C48.869,351.476 23.53,293.573 27.147,230.306" style="fill:url(#_Linear-mx2ev4d);fill-rule:nonzero;"/><path d="M27.152,230.307C13.031,109.538 122.464,18.433 122.464,18.433L122.463,18.431C180.409,-7.429 249.512,-6.109 308.668,28.044C222.913,-21.467 117.521,23.666 60.912,121.716C41.951,154.557 30.868,189.17 27.735,222.543C27.491,225.139 27.296,227.728 27.148,230.307" style="fill:url(#_Linear-48h7qb7);fill-rule:nonzero;"/></g><g><path d="M274.26,372.975C385.91,324.82 410.093,184.496 410.093,184.496L410.095,184.496C410.286,186.334 410.453,188.175 410.595,190.018C413.66,229.809 405.163,270.908 383.702,308.08C327.093,406.13 201.717,439.724 103.667,383.115C158.465,414.753 221.281,407.745 274.262,372.979" style="fill:url(#_Linear-5bhmdgn);fill-rule:nonzero;"/><path d="M274.26,372.975C385.91,324.82 410.093,184.496 410.093,184.496L410.095,184.496C403.517,121.383 367.823,62.198 308.667,28.045C394.422,77.556 408.032,191.394 351.423,289.444C332.462,322.285 308.028,349.19 280.693,368.59C278.567,370.099 276.423,371.563 274.262,372.98" style="fill:url(#_Linear-t1wofuo);fill-rule:nonzero;"/></g></g><defs><linearGradient id="_Linear-61hnq2j" x1="0" y1="0" x2="1" y2="0" gradientUnits="userSpaceOnUse" gradientTransform="matrix(-202.95,351.51,-351.51,-202.95,309.391,26.6911)"><stop offset="0" style="stop-color:rgb(132,207,243);stop-opacity:1"/><stop offset="0" style="stop-color:rgb(169,224,249);stop-opacity:1"/><stop offset="0.53" style="stop-color:rgb(102,140,193);stop-opacity:1"/><stop offset="1" style="stop-color:rgb(44,85,156);stop-opacity:1"/></linearGradient><linearGradient id="_Linear-m3so2sy" x1="0" y1="0" x2="1" y2="0" gradientUnits="userSpaceOnUse" gradientTransform="matrix(-56.0295,317.845,-317.845,-56.0295,135.231,61.2755)"><stop offset="0" style="stop-color:rgb(132,207,243);stop-opacity:1"/><stop offset="0" style="stop-color:rgb(169,224,249);stop-opacity:1"/><stop offset="0.53" style="stop-color:rgb(102,140,193);stop-opacity:1"/><stop offset="1" style="stop-color:rgb(44,85,156);stop-opacity:1"/></linearGradient><linearGradient id="_Linear-nt8jc6u" x1="0" y1="0" x2="1" y2="0" gradientUnits="userSpaceOnUse" gradientTransform="matrix(-53.0297,300.827,-300.827,-53.0297,226.47,9.62043)"><stop offset="0" style="stop-color:rgb(132,207,243);stop-opacity:1"/><stop offset="0" style="stop-color:rgb(169,224,249);stop-opacity:1"/><stop offset="0.53" style="stop-color:rgb(102,140,193);stop-opacity:1"/><stop offset="1" style="stop-color:rgb(44,85,156);stop-opacity:1"/></linearGradient><linearGradient id="_Linear-vk8ybqf" x1="0" y1="0" x2="1" y2="0" gradientUnits="userSpaceOnUse" gradientTransform="matrix(-342.37,257.124,-257.124,-342.37,451.664,136.822)"><stop offset="0" style="stop-color:rgb(132,207,243);stop-opacity:1"/><stop offset="0" style="stop-color:rgb(169,224,249);stop-opacity:1"/><stop offset="1" style="stop-color:rgb(44,85,156);stop-opacity:1"/></linearGradient><linearGradient id="_Linear-zxhiuqx" x1="0" y1="0" x2="1" y2="0" gradientUnits="userSpaceOnUse" gradientTransform="matrix(-348.117,564.968,-564.968,-348.117,359.895,49.2548)"><stop offset="0" style="stop-color:rgb(132,207,243);stop-opacity:1"/><stop offset="0" style="stop-color:rgb(169,224,249);stop-opacity:1"/><stop offset="0.53" style="stop-color:rgb(102,140,193);stop-opacity:1"/><stop offset="1" style="stop-color:rgb(44,85,156);stop-opacity:1"/></linearGradient><linearGradient id="_Linear-mx2ev4d" x1="0" y1="0" x2="1" y2="0" gradientUnits="userSpaceOnUse" gradientTransform="matrix(-162.612,281.643,-281.643,-162.612,177.51,50.2281)"><stop offset="0" style="stop-color:rgb(132,207,243);stop-opacity:1"/><stop offset="0" style="stop-color:rgb(169,224,249);stop-opacity:1"/><stop offset="0.53" style="stop-color:rgb(102,140,193);stop-opacity:1"/><stop offset="1" style="stop-color:rgb(44,85,156);stop-opacity:1"/></linearGradient><linearGradient id="_Linear-48h7qb7" x1="0" y1="0" x2="1" y2="0" gradientUnits="userSpaceOnUse" gradientTransform="matrix(-157.962,273.591,-273.591,-157.962,229.7,-17.5296)"><stop offset="0" style="stop-color:rgb(132,207,243);stop-opacity:1"/><stop offset="0" style="stop-color:rgb(169,224,249);stop-opacity:1"/><stop offset="0.53" style="stop-color:rgb(102,140,193);stop-opacity:1"/><stop offset="1" style="stop-color:rgb(44,85,156);stop-opacity:1"/></linearGradient><linearGradient id="_Linear-5bhmdgn" x1="0" y1="0" x2="1" y2="0" gradientUnits="userSpaceOnUse" gradientTransform="matrix(-269.689,467.101,-467.101,-269.689,434.859,14.3591)"><stop offset="0" style="stop-color:rgb(132,207,243);stop-opacity:1"/><stop offset="0" style="stop-color:rgb(169,224,249);stop-opacity:1"/><stop offset="0.53" style="stop-color:rgb(102,140,193);stop-opacity:1"/><stop offset="1" style="stop-color:rgb(44,85,156);stop-opacity:1"/></linearGradient><linearGradient id="_Linear-t1wofuo" x1="0" y1="0" x2="1" y2="0" gradientUnits="userSpaceOnUse" gradientTransform="matrix(-330.804,572.953,-572.953,-330.804,413.229,29.1858)"><stop offset="0" style="stop-color:rgb(132,207,243);stop-opacity:1"/><stop offset="0" style="stop-color:rgb(169,224,249);stop-opacity:1"/><stop offset="0.53" style="stop-color:rgb(102,140,193);stop-opacity:1"/><stop offset="1" style="stop-color:rgb(44,85,156);stop-opacity:1"/></linearGradient></defs></svg>