<svg width="100%" height="100%" viewBox="0 0 18 16" version="1.1" xmlns="http://www.w3.org/2000/svg" xmlns:xlink="http://www.w3.org/1999/xlink" xml:space="preserve" style="fill-rule:evenodd;clip-rule:evenodd;stroke-linejoin:round;stroke-miterlimit:2;"><g id="mysql-dark" transform="matrix(0.00315422,0,0,0.00315422,0.648305,2.24724)"><g transform="matrix(29.2458,0,0,29.2458,-46.9442,-11.1695)"><path d="M75.146,82.904C72.249,98.657 68.431,110.117 63.69,117.237C59.996,122.741 55.949,125.492 51.543,125.492C50.368,125.492 48.921,125.138 47.2,124.433L47.2,120.635C48.04,120.758 49.025,120.824 50.157,120.824C52.213,120.824 53.869,120.254 55.131,119.117C56.64,117.732 57.396,116.175 57.396,114.45C57.396,113.271 56.807,110.852 55.633,107.193L47.829,82.896L54.815,82.896L60.415,101.069C61.673,105.194 62.198,108.075 61.988,109.717C65.051,101.512 67.192,92.573 68.408,82.909L75.143,82.909M44.307,114.328L37.197,114.328C36.947,102.295 36.253,90.979 35.121,80.375L35.058,80.375L24.231,114.328L18.816,114.328L8.055,80.375L7.992,80.375C7.193,90.556 6.691,101.869 6.482,114.328L-0.003,114.328C0.416,99.181 1.465,84.987 3.142,71.735L11.955,71.735L22.214,103.027L22.277,103.027L32.6,71.735L41.032,71.735C42.879,87.257 43.969,101.456 44.303,114.328" style="fill:rgb(0,117,143);fill-rule:nonzero;"/></g><g transform="matrix(29.2458,0,0,29.2458,-46.9442,-11.1695)"><path d="M169.809,114.323L149.607,114.323L149.607,71.73L156.405,71.73L156.405,109.078L169.809,109.078L169.809,114.318M119.006,105.797C117.285,103.02 116.424,98.566 116.424,92.421C116.424,81.695 119.677,76.329 126.179,76.329C129.58,76.329 132.075,77.612 133.669,80.178C135.388,82.955 136.249,87.374 136.249,93.432C136.249,104.244 132.995,109.654 126.493,109.654C123.096,109.654 120.597,108.371 119.006,105.802M144.306,115.35L136.497,111.488C137.192,110.916 137.852,110.299 138.45,109.585C141.767,105.678 143.424,99.893 143.424,92.234C143.424,78.141 137.905,71.092 126.871,71.092C121.458,71.092 117.24,72.879 114.219,76.458C110.903,80.37 109.245,86.135 109.245,93.749C109.245,101.236 110.713,106.73 113.649,110.219C116.325,113.373 120.371,114.952 125.791,114.952C127.812,114.952 129.668,114.702 131.353,114.203L141.521,120.137L144.293,115.349M106.286,102.515C106.286,106.128 104.962,109.093 102.323,111.413C99.683,113.724 96.133,114.882 91.691,114.882C87.536,114.882 83.509,113.549 79.607,110.904L81.432,107.245C84.79,108.928 87.828,109.768 90.554,109.768C93.113,109.768 95.115,109.197 96.564,108.069C98.01,106.933 98.876,105.348 98.876,103.339C98.876,100.809 97.117,98.649 93.89,96.834C90.91,95.195 84.955,91.772 84.955,91.772C81.73,89.412 80.111,86.879 80.111,82.708C80.111,79.257 81.317,76.468 83.727,74.347C86.142,72.22 89.258,71.157 93.074,71.157C97.019,71.157 100.604,72.212 103.835,74.316L102.194,77.973C99.43,76.798 96.706,76.208 94.018,76.208C91.837,76.208 90.156,76.733 88.986,77.789C87.808,78.836 87.079,80.183 87.079,81.825C87.079,84.348 88.877,86.536 92.195,88.385C95.213,90.026 101.314,93.516 101.314,93.516C104.634,95.872 106.288,98.384 106.288,102.522" style="fill:rgb(242,145,17);fill-rule:nonzero;"/></g><g transform="matrix(29.2458,0,0,29.2458,-46.9442,-11.1695)"><path d="M174.649,114.323L175.775,114.323L175.775,109.991L177.249,109.991L177.249,109.105L173.116,109.105L173.116,109.991L174.648,109.991L174.649,114.323ZM183.22,114.323L184.282,114.323L184.282,109.104L182.685,109.104L181.386,112.661L179.971,109.104L178.432,109.104L178.432,114.323L179.437,114.323L179.437,110.35L179.494,110.35L180.976,114.323L181.741,114.323L183.221,110.35L183.221,114.323" style="fill:rgb(242,145,17);fill-rule:nonzero;"/></g><g transform="matrix(29.2458,0,0,29.2458,-46.9442,-11.1695)"><path d="M113.305,0C111.509,-0.027 109.942,0.652 109.134,2.64C107.748,5.987 111.188,9.279 112.37,10.979C113.242,12.161 114.372,13.502 114.985,14.838C115.345,15.713 115.448,16.642 115.809,17.567C116.63,19.831 117.398,22.353 118.477,24.467C119.04,25.547 119.655,26.681 120.374,27.654C120.788,28.224 121.505,28.478 121.659,29.407C120.943,30.435 120.887,31.979 120.477,33.268C118.63,39.083 119.347,46.29 121.966,50.562C122.786,51.848 124.738,54.679 127.358,53.597C129.668,52.672 129.155,49.738 129.822,47.166C129.975,46.544 129.872,46.136 130.18,45.725L130.18,45.829C130.898,47.268 131.619,48.654 132.286,50.101C133.879,52.62 136.649,55.245 138.96,56.993C140.188,57.923 141.165,59.516 142.705,60.084L142.705,59.928L142.604,59.928C142.294,59.466 141.833,59.259 141.422,58.901C140.499,57.974 139.475,56.841 138.754,55.812C136.599,52.931 134.697,49.739 133.007,46.445C132.184,44.845 131.466,43.097 130.798,41.504C130.491,40.889 130.491,39.96 129.977,39.652C129.205,40.783 128.078,41.762 127.514,43.146C126.538,45.362 126.436,48.089 126.074,50.92C125.87,50.973 125.973,50.92 125.87,51.023C124.23,50.611 123.665,48.913 123.048,47.475C121.508,43.816 121.249,37.948 122.586,33.729C122.943,32.65 124.488,29.254 123.869,28.223C123.559,27.241 122.533,26.68 121.969,25.905C121.303,24.927 120.581,23.694 120.124,22.611C118.891,19.73 118.271,16.537 116.941,13.656C116.325,12.316 115.244,10.927 114.374,9.693C113.397,8.303 112.321,7.326 111.549,5.68C111.295,5.113 110.935,4.185 111.344,3.569C111.445,3.157 111.654,3.002 112.065,2.899C112.728,2.332 114.629,3.052 115.295,3.361C117.196,4.13 118.787,4.854 120.376,5.932C121.095,6.448 121.865,7.427 122.788,7.686L123.868,7.686C125.51,8.044 127.36,7.786 128.9,8.251C131.619,9.125 134.082,10.412 136.292,11.801C143.014,16.073 148.558,22.149 152.303,29.403C152.92,30.586 153.179,31.667 153.743,32.9C154.821,35.427 156.158,38 157.235,40.468C158.312,42.888 159.34,45.356 160.881,47.365C161.649,48.444 164.73,49.011 166.116,49.577C167.14,50.039 168.733,50.451 169.658,51.016C171.403,52.095 173.144,53.333 174.789,54.518C175.608,55.136 178.174,56.421 178.329,57.452L178.33,57.453C174.222,57.35 171.04,57.761 168.372,58.895C167.602,59.203 166.371,59.203 166.266,60.181C166.679,60.592 166.729,61.261 167.091,61.829C167.705,62.859 168.781,64.246 169.759,64.969C170.837,65.793 171.915,66.613 173.045,67.334C175.046,68.574 177.305,69.292 179.253,70.526C180.386,71.246 181.512,72.172 182.643,72.946C183.206,73.357 183.562,74.028 184.284,74.282L184.284,74.125C183.922,73.664 183.822,72.995 183.464,72.477C182.952,71.967 182.437,71.501 181.923,70.988C180.433,68.981 178.583,67.233 176.587,65.791C174.943,64.656 171.347,63.11 170.683,61.213C170.683,61.213 170.628,61.158 170.578,61.108C171.708,61.003 173.045,60.591 174.123,60.279C175.866,59.817 177.457,59.921 179.254,59.459C180.076,59.252 180.898,58.993 181.723,58.74L181.723,58.274C180.794,57.35 180.13,56.112 179.156,55.238C176.541,52.975 173.662,50.764 170.685,48.906C169.092,47.877 167.039,47.211 165.344,46.335C164.731,46.025 163.705,45.873 163.344,45.355C162.42,44.223 161.904,42.733 161.238,41.392C159.751,38.565 158.312,35.425 157.03,32.435C156.106,30.43 155.541,28.424 154.412,26.57C149.122,17.818 143.375,12.52 134.547,7.32C132.648,6.238 130.389,5.776 127.979,5.21C126.694,5.156 125.413,5.055 124.128,5.005C123.306,4.643 122.482,3.664 121.765,3.201C119.936,2.043 116.302,0.041 113.31,-0.005L113.305,0ZM125.969,12.722C125.098,12.722 124.484,12.828 123.864,12.981L123.864,13.084L123.964,13.084C124.378,13.905 125.098,14.476 125.607,15.196C126.021,16.019 126.38,16.84 126.79,17.664C126.841,17.614 126.89,17.56 126.89,17.56C127.614,17.048 127.973,16.225 127.973,14.989C127.662,14.626 127.614,14.268 127.355,13.906C127.048,13.393 126.38,13.135 125.969,12.723L125.969,12.722Z" style="fill:rgb(0,117,143);fill-rule:nonzero;"/></g></g></svg>