<svg width="100%" height="100%" viewBox="0 0 18 16" version="1.1" xmlns="http://www.w3.org/2000/svg" xmlns:xlink="http://www.w3.org/1999/xlink" xml:space="preserve" style="fill-rule:evenodd;clip-rule:evenodd;stroke-linejoin:round;stroke-miterlimit:2;"><g id="nant-light" transform="matrix(1.99397,0,0,1.99397,-2.08568,-7.7981)"><g transform="matrix(1,0,0,1,0.0247242,0.0605067)"><g transform="matrix(1.15618,0,0,1.19074,-0.301876,-1.77553)"><path d="M1.688,8.932C1.501,8.916 1.383,8.754 1.383,8.557C1.383,8.33 1.56,8.171 1.786,8.171C2.013,8.171 2.184,8.299 2.184,8.526C2.184,8.538 2.154,8.785 2.184,8.865C2.205,8.922 2.279,9.005 2.334,9.029C2.389,9.054 2.506,9.047 2.555,9.047C2.691,9.047 2.967,9.205 2.967,9.432C2.967,9.659 2.783,9.829 2.556,9.829C2.329,9.829 2.157,9.61 2.172,9.386C2.177,9.306 2.156,9.18 2.133,9.138C2.104,9.083 2.047,9.032 2.001,9.004C1.894,8.94 1.838,8.945 1.688,8.932Z" style="fill:rgb(213,213,213);"/></g><g transform="matrix(1.15618,0,0,1.19074,0.839516,-1.77553)"><path d="M1.688,8.932C1.501,8.916 1.383,8.754 1.383,8.557C1.383,8.33 1.56,8.171 1.786,8.171C2.013,8.171 2.184,8.299 2.184,8.526C2.184,8.538 2.154,8.785 2.184,8.865C2.205,8.922 2.279,9.005 2.334,9.029C2.389,9.054 2.506,9.047 2.555,9.047C2.691,9.047 2.967,9.205 2.967,9.432C2.967,9.659 2.783,9.829 2.556,9.829C2.329,9.829 2.157,9.61 2.172,9.386C2.177,9.306 2.156,9.18 2.133,9.138C2.104,9.083 2.047,9.032 2.001,9.004C1.894,8.94 1.838,8.945 1.688,8.932Z" style="fill:rgb(213,213,213);"/></g><g transform="matrix(1.15618,0,0,1.19074,1.98453,-1.77553)"><path d="M1.688,8.932C1.501,8.916 1.383,8.754 1.383,8.557C1.383,8.33 1.56,8.171 1.786,8.171C2.013,8.171 2.184,8.299 2.184,8.526C2.184,8.538 2.154,8.785 2.184,8.865C2.205,8.922 2.279,9.005 2.334,9.029C2.389,9.054 2.506,9.047 2.555,9.047C2.691,9.047 2.967,9.205 2.967,9.432C2.967,9.659 2.783,9.829 2.556,9.829C2.329,9.829 2.157,9.61 2.172,9.386C2.177,9.306 2.156,9.18 2.133,9.138C2.104,9.083 2.047,9.032 2.001,9.004C1.894,8.94 1.838,8.945 1.688,8.932Z" style="fill:rgb(213,213,213);"/></g><g transform="matrix(-1.15618,0,0,1.19074,5.87778,-3.9003)"><path d="M1.688,8.932C1.501,8.916 1.383,8.754 1.383,8.557C1.383,8.33 1.56,8.171 1.786,8.171C2.013,8.171 2.184,8.299 2.184,8.526C2.184,8.538 2.154,8.785 2.184,8.865C2.205,8.922 2.279,9.005 2.334,9.029C2.389,9.054 2.506,9.047 2.555,9.047C2.691,9.047 2.967,9.205 2.967,9.432C2.967,9.659 2.783,9.829 2.556,9.829C2.329,9.829 2.157,9.61 2.172,9.386C2.177,9.306 2.156,9.18 2.133,9.138C2.104,9.083 2.047,9.032 2.001,9.004C1.894,8.94 1.838,8.945 1.688,8.932Z" style="fill:rgb(213,213,213);"/></g><g transform="matrix(1.15618,0,0,1.19074,1.9482,-4.96424)"><path d="M1.688,8.932C1.501,8.916 1.383,8.754 1.383,8.557C1.383,8.33 1.56,8.171 1.786,8.171C2.013,8.171 2.184,8.299 2.184,8.526C2.184,8.538 2.154,8.785 2.184,8.865C2.205,8.922 2.279,9.005 2.334,9.029C2.389,9.054 2.506,9.047 2.555,9.047C2.691,9.047 2.967,9.205 2.967,9.432C2.967,9.659 2.783,9.829 2.556,9.829C2.329,9.829 2.157,9.61 2.172,9.386C2.177,9.306 2.156,9.18 2.133,9.138C2.104,9.083 2.047,9.032 2.001,9.004C1.894,8.94 1.838,8.945 1.688,8.932Z" style="fill:rgb(213,213,213);"/></g><g transform="matrix(1.15618,0,0,1.19074,3.03844,-4.96424)"><path d="M1.688,8.932C1.501,8.916 1.383,8.754 1.383,8.557C1.383,8.33 1.56,8.171 1.786,8.171C2.013,8.171 2.184,8.299 2.184,8.526C2.184,8.538 2.154,8.785 2.184,8.865C2.205,8.922 2.279,9.005 2.334,9.029C2.389,9.054 2.506,9.047 2.555,9.047C2.691,9.047 2.967,9.205 2.967,9.432C2.967,9.659 2.783,9.829 2.556,9.829C2.329,9.829 2.157,9.61 2.172,9.386C2.177,9.306 2.156,9.18 2.133,9.138C2.104,9.083 2.047,9.032 2.001,9.004C1.894,8.94 1.838,8.945 1.688,8.932Z" style="fill:rgb(213,213,213);"/></g><g transform="matrix(-1.15618,0,0,1.19074,8.08854,-2.80923)"><path d="M1.688,8.932C1.501,8.916 1.383,8.754 1.383,8.557C1.383,8.33 1.56,8.171 1.786,8.171C2.013,8.171 2.184,8.299 2.184,8.526C2.184,8.538 2.154,8.785 2.184,8.865C2.205,8.922 2.279,9.005 2.334,9.029C2.389,9.054 2.506,9.047 2.555,9.047C2.691,9.047 2.967,9.205 2.967,9.432C2.967,9.659 2.783,9.829 2.556,9.829C2.329,9.829 2.157,9.61 2.172,9.386C2.177,9.306 2.156,9.18 2.133,9.138C2.104,9.083 2.047,9.032 2.001,9.004C1.894,8.94 1.838,8.945 1.688,8.932Z" style="fill:rgb(213,213,213);"/></g><g transform="matrix(-1.15618,0,0,1.19074,9.19852,-2.80923)"><path d="M1.688,8.932C1.501,8.916 1.383,8.754 1.383,8.557C1.383,8.33 1.56,8.171 1.786,8.171C2.013,8.171 2.184,8.299 2.184,8.526C2.184,8.538 2.154,8.785 2.184,8.865C2.205,8.922 2.279,9.005 2.334,9.029C2.389,9.054 2.506,9.047 2.555,9.047C2.691,9.047 2.967,9.205 2.967,9.432C2.967,9.659 2.783,9.829 2.556,9.829C2.329,9.829 2.157,9.61 2.172,9.386C2.177,9.306 2.156,9.18 2.133,9.138C2.104,9.083 2.047,9.032 2.001,9.004C1.894,8.94 1.838,8.945 1.688,8.932Z" style="fill:rgb(213,213,213);"/></g><g transform="matrix(-1.15618,0,0,1.19074,10.3263,-2.80923)"><path d="M1.688,8.932C1.501,8.916 1.383,8.754 1.383,8.557C1.383,8.33 1.56,8.171 1.786,8.171C2.013,8.171 2.184,8.299 2.184,8.526C2.184,8.538 2.154,8.785 2.184,8.865C2.205,8.922 2.279,9.005 2.334,9.029C2.389,9.054 2.506,9.047 2.555,9.047C2.691,9.047 2.967,9.205 2.967,9.432C2.967,9.659 2.783,9.829 2.556,9.829C2.329,9.829 2.157,9.61 2.172,9.386C2.177,9.306 2.156,9.18 2.133,9.138C2.104,9.083 2.047,9.032 2.001,9.004C1.894,8.94 1.838,8.945 1.688,8.932Z" style="fill:rgb(213,213,213);"/></g><g transform="matrix(1.15618,0,0,1.19074,6.3676,-1.71871)"><path d="M1.688,8.932C1.501,8.916 1.383,8.754 1.383,8.557C1.383,8.33 1.56,8.171 1.786,8.171C2.013,8.171 2.184,8.299 2.184,8.526C2.184,8.538 2.154,8.785 2.184,8.865C2.205,8.922 2.279,9.005 2.334,9.029C2.389,9.054 2.506,9.047 2.555,9.047C2.691,9.047 2.967,9.205 2.967,9.432C2.967,9.659 2.783,9.829 2.556,9.829C2.329,9.829 2.157,9.61 2.172,9.386C2.177,9.306 2.156,9.18 2.133,9.138C2.104,9.083 2.047,9.032 2.001,9.004C1.894,8.94 1.838,8.945 1.688,8.932Z" style="fill:rgb(213,213,213);"/></g><g transform="matrix(-1.15618,0,0,1.19074,9.19507,-0.682732)"><path d="M1.688,8.932C1.501,8.916 1.383,8.754 1.383,8.557C1.383,8.33 1.56,8.171 1.786,8.171C2.013,8.171 2.184,8.299 2.184,8.526C2.184,8.538 2.154,8.785 2.184,8.865C2.205,8.922 2.279,9.005 2.334,9.029C2.389,9.054 2.506,9.047 2.555,9.047C2.691,9.047 2.967,9.205 2.967,9.432C2.967,9.659 2.783,9.829 2.556,9.829C2.329,9.829 2.157,9.61 2.172,9.386C2.177,9.306 2.156,9.18 2.133,9.138C2.104,9.083 2.047,9.032 2.001,9.004C1.894,8.94 1.838,8.945 1.688,8.932Z" style="fill:rgb(213,213,213);"/></g><g transform="matrix(-1.15618,0,0,1.19074,8.06986,-0.682732)"><path d="M1.688,8.932C1.501,8.916 1.383,8.754 1.383,8.557C1.383,8.33 1.56,8.171 1.786,8.171C2.013,8.171 2.184,8.299 2.184,8.526C2.184,8.538 2.154,8.785 2.184,8.865C2.205,8.922 2.279,9.005 2.334,9.029C2.389,9.054 2.506,9.047 2.555,9.047C2.691,9.047 2.967,9.205 2.967,9.432C2.967,9.659 2.783,9.829 2.556,9.829C2.329,9.829 2.157,9.61 2.172,9.386C2.177,9.306 2.156,9.18 2.133,9.138C2.104,9.083 2.047,9.032 2.001,9.004C1.894,8.94 1.838,8.945 1.688,8.932Z" style="fill:rgb(213,213,213);"/></g></g><g transform="matrix(1.15618,0,0,1.19074,-0.301876,-1.77553)"><path d="M1.688,8.932C1.501,8.916 1.383,8.754 1.383,8.557C1.383,8.33 1.56,8.171 1.786,8.171C2.013,8.171 2.184,8.299 2.184,8.526C2.184,8.538 2.154,8.785 2.184,8.865C2.205,8.922 2.279,9.005 2.334,9.029C2.389,9.054 2.506,9.047 2.555,9.047C2.691,9.047 2.967,9.205 2.967,9.432C2.967,9.659 2.783,9.829 2.556,9.829C2.329,9.829 2.157,9.61 2.172,9.386C2.177,9.306 2.156,9.18 2.133,9.138C2.104,9.083 2.047,9.032 2.001,9.004C1.894,8.94 1.838,8.945 1.688,8.932Z" style="fill:white;"/></g><g transform="matrix(1.15618,0,0,1.19074,0.839516,-1.77553)"><path d="M1.688,8.932C1.501,8.916 1.383,8.754 1.383,8.557C1.383,8.33 1.56,8.171 1.786,8.171C2.013,8.171 2.184,8.299 2.184,8.526C2.184,8.538 2.154,8.785 2.184,8.865C2.205,8.922 2.279,9.005 2.334,9.029C2.389,9.054 2.506,9.047 2.555,9.047C2.691,9.047 2.967,9.205 2.967,9.432C2.967,9.659 2.783,9.829 2.556,9.829C2.329,9.829 2.157,9.61 2.172,9.386C2.177,9.306 2.156,9.18 2.133,9.138C2.104,9.083 2.047,9.032 2.001,9.004C1.894,8.94 1.838,8.945 1.688,8.932Z" style="fill:white;"/></g><g transform="matrix(1.15618,0,0,1.19074,1.98453,-1.77553)"><path d="M1.688,8.932C1.501,8.916 1.383,8.754 1.383,8.557C1.383,8.33 1.56,8.171 1.786,8.171C2.013,8.171 2.184,8.299 2.184,8.526C2.184,8.538 2.154,8.785 2.184,8.865C2.205,8.922 2.279,9.005 2.334,9.029C2.389,9.054 2.506,9.047 2.555,9.047C2.691,9.047 2.967,9.205 2.967,9.432C2.967,9.659 2.783,9.829 2.556,9.829C2.329,9.829 2.157,9.61 2.172,9.386C2.177,9.306 2.156,9.18 2.133,9.138C2.104,9.083 2.047,9.032 2.001,9.004C1.894,8.94 1.838,8.945 1.688,8.932Z" style="fill:white;"/></g><g transform="matrix(-1.15618,0,0,1.19074,5.87778,-3.9003)"><path d="M1.688,8.932C1.501,8.916 1.383,8.754 1.383,8.557C1.383,8.33 1.56,8.171 1.786,8.171C2.013,8.171 2.184,8.299 2.184,8.526C2.184,8.538 2.154,8.785 2.184,8.865C2.205,8.922 2.279,9.005 2.334,9.029C2.389,9.054 2.506,9.047 2.555,9.047C2.691,9.047 2.967,9.205 2.967,9.432C2.967,9.659 2.783,9.829 2.556,9.829C2.329,9.829 2.157,9.61 2.172,9.386C2.177,9.306 2.156,9.18 2.133,9.138C2.104,9.083 2.047,9.032 2.001,9.004C1.894,8.94 1.838,8.945 1.688,8.932Z" style="fill:white;"/></g><g transform="matrix(1.15618,0,0,1.19074,1.9482,-4.96424)"><path d="M1.688,8.932C1.501,8.916 1.383,8.754 1.383,8.557C1.383,8.33 1.56,8.171 1.786,8.171C2.013,8.171 2.184,8.299 2.184,8.526C2.184,8.538 2.154,8.785 2.184,8.865C2.205,8.922 2.279,9.005 2.334,9.029C2.389,9.054 2.506,9.047 2.555,9.047C2.691,9.047 2.967,9.205 2.967,9.432C2.967,9.659 2.783,9.829 2.556,9.829C2.329,9.829 2.157,9.61 2.172,9.386C2.177,9.306 2.156,9.18 2.133,9.138C2.104,9.083 2.047,9.032 2.001,9.004C1.894,8.94 1.838,8.945 1.688,8.932Z" style="fill:white;"/></g><g transform="matrix(1.15618,0,0,1.19074,3.03844,-4.96424)"><path d="M1.688,8.932C1.501,8.916 1.383,8.754 1.383,8.557C1.383,8.33 1.56,8.171 1.786,8.171C2.013,8.171 2.184,8.299 2.184,8.526C2.184,8.538 2.154,8.785 2.184,8.865C2.205,8.922 2.279,9.005 2.334,9.029C2.389,9.054 2.506,9.047 2.555,9.047C2.691,9.047 2.967,9.205 2.967,9.432C2.967,9.659 2.783,9.829 2.556,9.829C2.329,9.829 2.157,9.61 2.172,9.386C2.177,9.306 2.156,9.18 2.133,9.138C2.104,9.083 2.047,9.032 2.001,9.004C1.894,8.94 1.838,8.945 1.688,8.932Z" style="fill:white;"/></g><g transform="matrix(-1.15618,0,0,1.19074,8.08854,-2.80923)"><path d="M1.688,8.932C1.501,8.916 1.383,8.754 1.383,8.557C1.383,8.33 1.56,8.171 1.786,8.171C2.013,8.171 2.184,8.299 2.184,8.526C2.184,8.538 2.154,8.785 2.184,8.865C2.205,8.922 2.279,9.005 2.334,9.029C2.389,9.054 2.506,9.047 2.555,9.047C2.691,9.047 2.967,9.205 2.967,9.432C2.967,9.659 2.783,9.829 2.556,9.829C2.329,9.829 2.157,9.61 2.172,9.386C2.177,9.306 2.156,9.18 2.133,9.138C2.104,9.083 2.047,9.032 2.001,9.004C1.894,8.94 1.838,8.945 1.688,8.932Z" style="fill:white;"/></g><g transform="matrix(-1.15618,0,0,1.19074,9.19852,-2.80923)"><path d="M1.688,8.932C1.501,8.916 1.383,8.754 1.383,8.557C1.383,8.33 1.56,8.171 1.786,8.171C2.013,8.171 2.184,8.299 2.184,8.526C2.184,8.538 2.154,8.785 2.184,8.865C2.205,8.922 2.279,9.005 2.334,9.029C2.389,9.054 2.506,9.047 2.555,9.047C2.691,9.047 2.967,9.205 2.967,9.432C2.967,9.659 2.783,9.829 2.556,9.829C2.329,9.829 2.157,9.61 2.172,9.386C2.177,9.306 2.156,9.18 2.133,9.138C2.104,9.083 2.047,9.032 2.001,9.004C1.894,8.94 1.838,8.945 1.688,8.932Z" style="fill:white;"/></g><g transform="matrix(-1.15618,0,0,1.19074,10.3263,-2.80923)"><path d="M1.688,8.932C1.501,8.916 1.383,8.754 1.383,8.557C1.383,8.33 1.56,8.171 1.786,8.171C2.013,8.171 2.184,8.299 2.184,8.526C2.184,8.538 2.154,8.785 2.184,8.865C2.205,8.922 2.279,9.005 2.334,9.029C2.389,9.054 2.506,9.047 2.555,9.047C2.691,9.047 2.967,9.205 2.967,9.432C2.967,9.659 2.783,9.829 2.556,9.829C2.329,9.829 2.157,9.61 2.172,9.386C2.177,9.306 2.156,9.18 2.133,9.138C2.104,9.083 2.047,9.032 2.001,9.004C1.894,8.94 1.838,8.945 1.688,8.932Z" style="fill:white;"/></g><g transform="matrix(1.15618,0,0,1.19074,6.3676,-1.71871)"><path d="M1.688,8.932C1.501,8.916 1.383,8.754 1.383,8.557C1.383,8.33 1.56,8.171 1.786,8.171C2.013,8.171 2.184,8.299 2.184,8.526C2.184,8.538 2.154,8.785 2.184,8.865C2.205,8.922 2.279,9.005 2.334,9.029C2.389,9.054 2.506,9.047 2.555,9.047C2.691,9.047 2.967,9.205 2.967,9.432C2.967,9.659 2.783,9.829 2.556,9.829C2.329,9.829 2.157,9.61 2.172,9.386C2.177,9.306 2.156,9.18 2.133,9.138C2.104,9.083 2.047,9.032 2.001,9.004C1.894,8.94 1.838,8.945 1.688,8.932Z" style="fill:white;"/></g><g transform="matrix(-1.15618,0,0,1.19074,9.19507,-0.682732)"><path d="M1.688,8.932C1.501,8.916 1.383,8.754 1.383,8.557C1.383,8.33 1.56,8.171 1.786,8.171C2.013,8.171 2.184,8.299 2.184,8.526C2.184,8.538 2.154,8.785 2.184,8.865C2.205,8.922 2.279,9.005 2.334,9.029C2.389,9.054 2.506,9.047 2.555,9.047C2.691,9.047 2.967,9.205 2.967,9.432C2.967,9.659 2.783,9.829 2.556,9.829C2.329,9.829 2.157,9.61 2.172,9.386C2.177,9.306 2.156,9.18 2.133,9.138C2.104,9.083 2.047,9.032 2.001,9.004C1.894,8.94 1.838,8.945 1.688,8.932Z" style="fill:white;"/></g><g transform="matrix(-1.15618,0,0,1.19074,8.06986,-0.682732)"><path d="M1.688,8.932C1.501,8.916 1.383,8.754 1.383,8.557C1.383,8.33 1.56,8.171 1.786,8.171C2.013,8.171 2.184,8.299 2.184,8.526C2.184,8.538 2.154,8.785 2.184,8.865C2.205,8.922 2.279,9.005 2.334,9.029C2.389,9.054 2.506,9.047 2.555,9.047C2.691,9.047 2.967,9.205 2.967,9.432C2.967,9.659 2.783,9.829 2.556,9.829C2.329,9.829 2.157,9.61 2.172,9.386C2.177,9.306 2.156,9.18 2.133,9.138C2.104,9.083 2.047,9.032 2.001,9.004C1.894,8.94 1.838,8.945 1.688,8.932Z" style="fill:white;"/></g></g></svg>