<svg width="100%" height="100%" viewBox="0 0 18 16" version="1.1" xmlns="http://www.w3.org/2000/svg" xmlns:xlink="http://www.w3.org/1999/xlink" xml:space="preserve" style="fill-rule:evenodd;clip-rule:evenodd;stroke-linejoin:round;stroke-miterlimit:2;"><g id="nant" transform="matrix(1.06077,0,0,1.06077,-0.375559,-0.404446)"><g transform="matrix(1,0,0,1,0.0247242,0.0605067)"><g transform="matrix(1.15618,0,0,1.19074,-0.301876,-1.77553)"><path d="M1.688,8.932C1.501,8.916 1.383,8.754 1.383,8.557C1.383,8.33 1.56,8.171 1.786,8.171C2.013,8.171 2.184,8.299 2.184,8.526C2.184,8.538 2.154,8.785 2.184,8.865C2.205,8.922 2.279,9.005 2.334,9.029C2.389,9.054 2.506,9.047 2.555,9.047C2.691,9.047 2.967,9.205 2.967,9.432C2.967,9.659 2.783,9.829 2.556,9.829C2.329,9.829 2.157,9.61 2.172,9.386C2.177,9.306 2.156,9.18 2.133,9.138C2.104,9.083 2.047,9.032 2.001,9.004C1.894,8.94 1.838,8.945 1.688,8.932Z" style="fill:rgb(213,213,213);"/></g><g transform="matrix(1.15618,0,0,1.19074,0.839516,-1.77553)"><path d="M1.688,8.932C1.501,8.916 1.383,8.754 1.383,8.557C1.383,8.33 1.56,8.171 1.786,8.171C2.013,8.171 2.184,8.299 2.184,8.526C2.184,8.538 2.154,8.785 2.184,8.865C2.205,8.922 2.279,9.005 2.334,9.029C2.389,9.054 2.506,9.047 2.555,9.047C2.691,9.047 2.967,9.205 2.967,9.432C2.967,9.659 2.783,9.829 2.556,9.829C2.329,9.829 2.157,9.61 2.172,9.386C2.177,9.306 2.156,9.18 2.133,9.138C2.104,9.083 2.047,9.032 2.001,9.004C1.894,8.94 1.838,8.945 1.688,8.932Z" style="fill:rgb(213,213,213);"/></g><g transform="matrix(1.15618,0,0,1.19074,1.98453,-1.77553)"><path d="M1.688,8.932C1.501,8.916 1.383,8.754 1.383,8.557C1.383,8.33 1.56,8.171 1.786,8.171C2.013,8.171 2.184,8.299 2.184,8.526C2.184,8.538 2.154,8.785 2.184,8.865C2.205,8.922 2.279,9.005 2.334,9.029C2.389,9.054 2.506,9.047 2.555,9.047C2.691,9.047 2.967,9.205 2.967,9.432C2.967,9.659 2.783,9.829 2.556,9.829C2.329,9.829 2.157,9.61 2.172,9.386C2.177,9.306 2.156,9.18 2.133,9.138C2.104,9.083 2.047,9.032 2.001,9.004C1.894,8.94 1.838,8.945 1.688,8.932Z" style="fill:rgb(213,213,213);"/></g><g transform="matrix(-1.15618,0,0,1.19074,5.87778,-3.9003)"><path d="M1.688,8.932C1.501,8.916 1.383,8.754 1.383,8.557C1.383,8.33 1.56,8.171 1.786,8.171C2.013,8.171 2.184,8.299 2.184,8.526C2.184,8.538 2.154,8.785 2.184,8.865C2.205,8.922 2.279,9.005 2.334,9.029C2.389,9.054 2.506,9.047 2.555,9.047C2.691,9.047 2.967,9.205 2.967,9.432C2.967,9.659 2.783,9.829 2.556,9.829C2.329,9.829 2.157,9.61 2.172,9.386C2.177,9.306 2.156,9.18 2.133,9.138C2.104,9.083 2.047,9.032 2.001,9.004C1.894,8.94 1.838,8.945 1.688,8.932Z" style="fill:rgb(213,213,213);"/></g><g transform="matrix(1.15618,0,0,1.19074,1.9482,-4.96424)"><path d="M1.688,8.932C1.501,8.916 1.383,8.754 1.383,8.557C1.383,8.33 1.56,8.171 1.786,8.171C2.013,8.171 2.184,8.299 2.184,8.526C2.184,8.538 2.154,8.785 2.184,8.865C2.205,8.922 2.279,9.005 2.334,9.029C2.389,9.054 2.506,9.047 2.555,9.047C2.691,9.047 2.967,9.205 2.967,9.432C2.967,9.659 2.783,9.829 2.556,9.829C2.329,9.829 2.157,9.61 2.172,9.386C2.177,9.306 2.156,9.18 2.133,9.138C2.104,9.083 2.047,9.032 2.001,9.004C1.894,8.94 1.838,8.945 1.688,8.932Z" style="fill:rgb(213,213,213);"/></g><g transform="matrix(1.15618,0,0,1.19074,3.03844,-4.96424)"><path d="M1.688,8.932C1.501,8.916 1.383,8.754 1.383,8.557C1.383,8.33 1.56,8.171 1.786,8.171C2.013,8.171 2.184,8.299 2.184,8.526C2.184,8.538 2.154,8.785 2.184,8.865C2.205,8.922 2.279,9.005 2.334,9.029C2.389,9.054 2.506,9.047 2.555,9.047C2.691,9.047 2.967,9.205 2.967,9.432C2.967,9.659 2.783,9.829 2.556,9.829C2.329,9.829 2.157,9.61 2.172,9.386C2.177,9.306 2.156,9.18 2.133,9.138C2.104,9.083 2.047,9.032 2.001,9.004C1.894,8.94 1.838,8.945 1.688,8.932Z" style="fill:rgb(213,213,213);"/></g><g transform="matrix(-1.15618,0,0,1.19074,8.08854,-2.80923)"><path d="M1.688,8.932C1.501,8.916 1.383,8.754 1.383,8.557C1.383,8.33 1.56,8.171 1.786,8.171C2.013,8.171 2.184,8.299 2.184,8.526C2.184,8.538 2.154,8.785 2.184,8.865C2.205,8.922 2.279,9.005 2.334,9.029C2.389,9.054 2.506,9.047 2.555,9.047C2.691,9.047 2.967,9.205 2.967,9.432C2.967,9.659 2.783,9.829 2.556,9.829C2.329,9.829 2.157,9.61 2.172,9.386C2.177,9.306 2.156,9.18 2.133,9.138C2.104,9.083 2.047,9.032 2.001,9.004C1.894,8.94 1.838,8.945 1.688,8.932Z" style="fill:rgb(213,213,213);"/></g><g transform="matrix(-1.15618,0,0,1.19074,9.19852,-2.80923)"><path d="M1.688,8.932C1.501,8.916 1.383,8.754 1.383,8.557C1.383,8.33 1.56,8.171 1.786,8.171C2.013,8.171 2.184,8.299 2.184,8.526C2.184,8.538 2.154,8.785 2.184,8.865C2.205,8.922 2.279,9.005 2.334,9.029C2.389,9.054 2.506,9.047 2.555,9.047C2.691,9.047 2.967,9.205 2.967,9.432C2.967,9.659 2.783,9.829 2.556,9.829C2.329,9.829 2.157,9.61 2.172,9.386C2.177,9.306 2.156,9.18 2.133,9.138C2.104,9.083 2.047,9.032 2.001,9.004C1.894,8.94 1.838,8.945 1.688,8.932Z" style="fill:rgb(213,213,213);"/></g><g transform="matrix(-1.15618,0,0,1.19074,10.3263,-2.80923)"><path d="M1.688,8.932C1.501,8.916 1.383,8.754 1.383,8.557C1.383,8.33 1.56,8.171 1.786,8.171C2.013,8.171 2.184,8.299 2.184,8.526C2.184,8.538 2.154,8.785 2.184,8.865C2.205,8.922 2.279,9.005 2.334,9.029C2.389,9.054 2.506,9.047 2.555,9.047C2.691,9.047 2.967,9.205 2.967,9.432C2.967,9.659 2.783,9.829 2.556,9.829C2.329,9.829 2.157,9.61 2.172,9.386C2.177,9.306 2.156,9.18 2.133,9.138C2.104,9.083 2.047,9.032 2.001,9.004C1.894,8.94 1.838,8.945 1.688,8.932Z" style="fill:rgb(213,213,213);"/></g><g transform="matrix(1.15618,0,0,1.19074,6.3676,-1.71871)"><path d="M1.688,8.932C1.501,8.916 1.383,8.754 1.383,8.557C1.383,8.33 1.56,8.171 1.786,8.171C2.013,8.171 2.184,8.299 2.184,8.526C2.184,8.538 2.154,8.785 2.184,8.865C2.205,8.922 2.279,9.005 2.334,9.029C2.389,9.054 2.506,9.047 2.555,9.047C2.691,9.047 2.967,9.205 2.967,9.432C2.967,9.659 2.783,9.829 2.556,9.829C2.329,9.829 2.157,9.61 2.172,9.386C2.177,9.306 2.156,9.18 2.133,9.138C2.104,9.083 2.047,9.032 2.001,9.004C1.894,8.94 1.838,8.945 1.688,8.932Z" style="fill:rgb(213,213,213);"/></g><g transform="matrix(-1.15618,0,0,1.19074,9.19507,-0.682732)"><path d="M1.688,8.932C1.501,8.916 1.383,8.754 1.383,8.557C1.383,8.33 1.56,8.171 1.786,8.171C2.013,8.171 2.184,8.299 2.184,8.526C2.184,8.538 2.154,8.785 2.184,8.865C2.205,8.922 2.279,9.005 2.334,9.029C2.389,9.054 2.506,9.047 2.555,9.047C2.691,9.047 2.967,9.205 2.967,9.432C2.967,9.659 2.783,9.829 2.556,9.829C2.329,9.829 2.157,9.61 2.172,9.386C2.177,9.306 2.156,9.18 2.133,9.138C2.104,9.083 2.047,9.032 2.001,9.004C1.894,8.94 1.838,8.945 1.688,8.932Z" style="fill:rgb(213,213,213);"/></g><g transform="matrix(-1.15618,0,0,1.19074,8.06986,-0.682732)"><path d="M1.688,8.932C1.501,8.916 1.383,8.754 1.383,8.557C1.383,8.33 1.56,8.171 1.786,8.171C2.013,8.171 2.184,8.299 2.184,8.526C2.184,8.538 2.154,8.785 2.184,8.865C2.205,8.922 2.279,9.005 2.334,9.029C2.389,9.054 2.506,9.047 2.555,9.047C2.691,9.047 2.967,9.205 2.967,9.432C2.967,9.659 2.783,9.829 2.556,9.829C2.329,9.829 2.157,9.61 2.172,9.386C2.177,9.306 2.156,9.18 2.133,9.138C2.104,9.083 2.047,9.032 2.001,9.004C1.894,8.94 1.838,8.945 1.688,8.932Z" style="fill:rgb(213,213,213);"/></g></g><g transform="matrix(1.15618,0,0,1.19074,-0.301876,-1.77553)"><path d="M1.688,8.932C1.501,8.916 1.383,8.754 1.383,8.557C1.383,8.33 1.56,8.171 1.786,8.171C2.013,8.171 2.184,8.299 2.184,8.526C2.184,8.538 2.154,8.785 2.184,8.865C2.205,8.922 2.279,9.005 2.334,9.029C2.389,9.054 2.506,9.047 2.555,9.047C2.691,9.047 2.967,9.205 2.967,9.432C2.967,9.659 2.783,9.829 2.556,9.829C2.329,9.829 2.157,9.61 2.172,9.386C2.177,9.306 2.156,9.18 2.133,9.138C2.104,9.083 2.047,9.032 2.001,9.004C1.894,8.94 1.838,8.945 1.688,8.932Z" style="fill:rgb(86,88,85);"/></g><g transform="matrix(1.15618,0,0,1.19074,0.839516,-1.77553)"><path d="M1.688,8.932C1.501,8.916 1.383,8.754 1.383,8.557C1.383,8.33 1.56,8.171 1.786,8.171C2.013,8.171 2.184,8.299 2.184,8.526C2.184,8.538 2.154,8.785 2.184,8.865C2.205,8.922 2.279,9.005 2.334,9.029C2.389,9.054 2.506,9.047 2.555,9.047C2.691,9.047 2.967,9.205 2.967,9.432C2.967,9.659 2.783,9.829 2.556,9.829C2.329,9.829 2.157,9.61 2.172,9.386C2.177,9.306 2.156,9.18 2.133,9.138C2.104,9.083 2.047,9.032 2.001,9.004C1.894,8.94 1.838,8.945 1.688,8.932Z" style="fill:rgb(100,102,99);"/></g><g transform="matrix(1.15618,0,0,1.19074,1.98453,-1.77553)"><path d="M1.688,8.932C1.501,8.916 1.383,8.754 1.383,8.557C1.383,8.33 1.56,8.171 1.786,8.171C2.013,8.171 2.184,8.299 2.184,8.526C2.184,8.538 2.154,8.785 2.184,8.865C2.205,8.922 2.279,9.005 2.334,9.029C2.389,9.054 2.506,9.047 2.555,9.047C2.691,9.047 2.967,9.205 2.967,9.432C2.967,9.659 2.783,9.829 2.556,9.829C2.329,9.829 2.157,9.61 2.172,9.386C2.177,9.306 2.156,9.18 2.133,9.138C2.104,9.083 2.047,9.032 2.001,9.004C1.894,8.94 1.838,8.945 1.688,8.932Z" style="fill:rgb(128,129,127);"/></g><g transform="matrix(-1.15618,0,0,1.19074,5.87778,-3.9003)"><path d="M1.688,8.932C1.501,8.916 1.383,8.754 1.383,8.557C1.383,8.33 1.56,8.171 1.786,8.171C2.013,8.171 2.184,8.299 2.184,8.526C2.184,8.538 2.154,8.785 2.184,8.865C2.205,8.922 2.279,9.005 2.334,9.029C2.389,9.054 2.506,9.047 2.555,9.047C2.691,9.047 2.967,9.205 2.967,9.432C2.967,9.659 2.783,9.829 2.556,9.829C2.329,9.829 2.157,9.61 2.172,9.386C2.177,9.306 2.156,9.18 2.133,9.138C2.104,9.083 2.047,9.032 2.001,9.004C1.894,8.94 1.838,8.945 1.688,8.932Z" style="fill:rgb(100,102,99);"/></g><g transform="matrix(1.15618,0,0,1.19074,1.9482,-4.96424)"><path d="M1.688,8.932C1.501,8.916 1.383,8.754 1.383,8.557C1.383,8.33 1.56,8.171 1.786,8.171C2.013,8.171 2.184,8.299 2.184,8.526C2.184,8.538 2.154,8.785 2.184,8.865C2.205,8.922 2.279,9.005 2.334,9.029C2.389,9.054 2.506,9.047 2.555,9.047C2.691,9.047 2.967,9.205 2.967,9.432C2.967,9.659 2.783,9.829 2.556,9.829C2.329,9.829 2.157,9.61 2.172,9.386C2.177,9.306 2.156,9.18 2.133,9.138C2.104,9.083 2.047,9.032 2.001,9.004C1.894,8.94 1.838,8.945 1.688,8.932Z" style="fill:rgb(128,129,127);"/></g><g transform="matrix(1.15618,0,0,1.19074,3.03844,-4.96424)"><path d="M1.688,8.932C1.501,8.916 1.383,8.754 1.383,8.557C1.383,8.33 1.56,8.171 1.786,8.171C2.013,8.171 2.184,8.299 2.184,8.526C2.184,8.538 2.154,8.785 2.184,8.865C2.205,8.922 2.279,9.005 2.334,9.029C2.389,9.054 2.506,9.047 2.555,9.047C2.691,9.047 2.967,9.205 2.967,9.432C2.967,9.659 2.783,9.829 2.556,9.829C2.329,9.829 2.157,9.61 2.172,9.386C2.177,9.306 2.156,9.18 2.133,9.138C2.104,9.083 2.047,9.032 2.001,9.004C1.894,8.94 1.838,8.945 1.688,8.932Z" style="fill:rgb(160,160,160);"/></g><g transform="matrix(-1.15618,0,0,1.19074,8.08854,-2.80923)"><path d="M1.688,8.932C1.501,8.916 1.383,8.754 1.383,8.557C1.383,8.33 1.56,8.171 1.786,8.171C2.013,8.171 2.184,8.299 2.184,8.526C2.184,8.538 2.154,8.785 2.184,8.865C2.205,8.922 2.279,9.005 2.334,9.029C2.389,9.054 2.506,9.047 2.555,9.047C2.691,9.047 2.967,9.205 2.967,9.432C2.967,9.659 2.783,9.829 2.556,9.829C2.329,9.829 2.157,9.61 2.172,9.386C2.177,9.306 2.156,9.18 2.133,9.138C2.104,9.083 2.047,9.032 2.001,9.004C1.894,8.94 1.838,8.945 1.688,8.932Z" style="fill:rgb(160,160,160);"/></g><g transform="matrix(-1.15618,0,0,1.19074,9.19852,-2.80923)"><path d="M1.688,8.932C1.501,8.916 1.383,8.754 1.383,8.557C1.383,8.33 1.56,8.171 1.786,8.171C2.013,8.171 2.184,8.299 2.184,8.526C2.184,8.538 2.154,8.785 2.184,8.865C2.205,8.922 2.279,9.005 2.334,9.029C2.389,9.054 2.506,9.047 2.555,9.047C2.691,9.047 2.967,9.205 2.967,9.432C2.967,9.659 2.783,9.829 2.556,9.829C2.329,9.829 2.157,9.61 2.172,9.386C2.177,9.306 2.156,9.18 2.133,9.138C2.104,9.083 2.047,9.032 2.001,9.004C1.894,8.94 1.838,8.945 1.688,8.932Z" style="fill:rgb(190,190,190);"/></g><g transform="matrix(-1.15618,0,0,1.19074,10.3263,-2.80923)"><path d="M1.688,8.932C1.501,8.916 1.383,8.754 1.383,8.557C1.383,8.33 1.56,8.171 1.786,8.171C2.013,8.171 2.184,8.299 2.184,8.526C2.184,8.538 2.154,8.785 2.184,8.865C2.205,8.922 2.279,9.005 2.334,9.029C2.389,9.054 2.506,9.047 2.555,9.047C2.691,9.047 2.967,9.205 2.967,9.432C2.967,9.659 2.783,9.829 2.556,9.829C2.329,9.829 2.157,9.61 2.172,9.386C2.177,9.306 2.156,9.18 2.133,9.138C2.104,9.083 2.047,9.032 2.001,9.004C1.894,8.94 1.838,8.945 1.688,8.932Z" style="fill:rgb(220,220,220);"/></g><g transform="matrix(1.15618,0,0,1.19074,6.3676,-1.71871)"><path d="M1.688,8.932C1.501,8.916 1.383,8.754 1.383,8.557C1.383,8.33 1.56,8.171 1.786,8.171C2.013,8.171 2.184,8.299 2.184,8.526C2.184,8.538 2.154,8.785 2.184,8.865C2.205,8.922 2.279,9.005 2.334,9.029C2.389,9.054 2.506,9.047 2.555,9.047C2.691,9.047 2.967,9.205 2.967,9.432C2.967,9.659 2.783,9.829 2.556,9.829C2.329,9.829 2.157,9.61 2.172,9.386C2.177,9.306 2.156,9.18 2.133,9.138C2.104,9.083 2.047,9.032 2.001,9.004C1.894,8.94 1.838,8.945 1.688,8.932Z" style="fill:rgb(234,234,234);"/></g><g transform="matrix(-1.15618,0,0,1.19074,9.19507,-0.682732)"><path d="M1.688,8.932C1.501,8.916 1.383,8.754 1.383,8.557C1.383,8.33 1.56,8.171 1.786,8.171C2.013,8.171 2.184,8.299 2.184,8.526C2.184,8.538 2.154,8.785 2.184,8.865C2.205,8.922 2.279,9.005 2.334,9.029C2.389,9.054 2.506,9.047 2.555,9.047C2.691,9.047 2.967,9.205 2.967,9.432C2.967,9.659 2.783,9.829 2.556,9.829C2.329,9.829 2.157,9.61 2.172,9.386C2.177,9.306 2.156,9.18 2.133,9.138C2.104,9.083 2.047,9.032 2.001,9.004C1.894,8.94 1.838,8.945 1.688,8.932Z" style="fill:rgb(220,220,220);"/></g><g transform="matrix(-1.15618,0,0,1.19074,8.06986,-0.682732)"><path d="M1.688,8.932C1.501,8.916 1.383,8.754 1.383,8.557C1.383,8.33 1.56,8.171 1.786,8.171C2.013,8.171 2.184,8.299 2.184,8.526C2.184,8.538 2.154,8.785 2.184,8.865C2.205,8.922 2.279,9.005 2.334,9.029C2.389,9.054 2.506,9.047 2.555,9.047C2.691,9.047 2.967,9.205 2.967,9.432C2.967,9.659 2.783,9.829 2.556,9.829C2.329,9.829 2.157,9.61 2.172,9.386C2.177,9.306 2.156,9.18 2.133,9.138C2.104,9.083 2.047,9.032 2.001,9.004C1.894,8.94 1.838,8.945 1.688,8.932Z" style="fill:rgb(190,190,190);"/></g><g transform="matrix(1,0,0,1,0.0431546,0.0431546)"><path d="M7.714,9.196L7.722,7.621L8.562,7.611L9.375,8.588L9.385,7.617L9.966,7.619L9.931,9.19L9.101,9.183L8.304,8.209L8.283,9.182L7.714,9.196Z" style="fill:rgb(45,60,0);"/><path d="M10.183,8.082C10.183,8.082 10.145,7.647 10.579,7.61C10.779,7.593 11.008,7.588 11.19,7.59C11.408,7.592 11.63,7.599 11.776,7.616C12.043,7.646 12.225,7.959 12.221,8.103C12.217,8.248 12.216,9.186 12.216,9.186L11.666,9.182L11.663,9.038C11.663,9.038 11.424,9.209 11.274,9.236C11.204,9.248 11.08,9.264 10.956,9.268C10.805,9.272 10.654,9.26 10.588,9.253C10.44,9.237 10.12,9.108 10.115,8.698C10.109,8.288 10.476,8.21 11.002,8.219C11.529,8.227 11.613,8.312 11.613,8.312C11.613,8.312 11.651,8.135 11.563,8.028C11.506,7.959 11.373,7.945 11.171,7.941C10.714,7.932 10.737,8.088 10.737,8.088L10.183,8.082ZM11.15,8.526C11.032,8.526 10.9,8.526 10.817,8.552C10.716,8.582 10.676,8.644 10.676,8.695C10.676,8.745 10.709,8.804 10.808,8.834C10.891,8.86 11.031,8.863 11.15,8.863C11.291,8.863 11.44,8.847 11.527,8.812C11.601,8.783 11.624,8.738 11.624,8.695C11.624,8.656 11.619,8.601 11.556,8.573C11.469,8.533 11.302,8.526 11.15,8.526Z" style="fill:rgb(45,60,0);"/><path d="M12.385,7.62L12.386,9.193L12.983,9.197C12.983,9.197 13.003,8.419 13.005,8.318C13.008,8.211 13.138,8.049 13.49,8.058C13.848,8.067 13.931,8.247 13.935,8.311C13.937,8.353 13.918,9.204 13.918,9.204L14.504,9.202C14.504,9.202 14.502,8.285 14.507,8.122C14.511,7.958 14.27,7.603 13.611,7.602C13.379,7.601 13.273,7.641 13.179,7.678C13.007,7.746 12.975,7.832 12.975,7.832L12.976,7.626L12.385,7.62Z" style="fill:rgb(45,60,0);"/><path d="M14.564,7.646L14.566,8.065L14.747,8.065C14.747,8.065 14.751,8.576 14.753,8.78C14.754,8.984 14.945,9.267 15.526,9.258C16.108,9.25 16.332,8.933 16.334,8.774C16.336,8.615 16.337,8.536 16.337,8.536L15.812,8.537C15.812,8.537 15.823,8.709 15.768,8.748C15.721,8.78 15.671,8.815 15.565,8.817C15.456,8.819 15.401,8.793 15.37,8.759C15.332,8.717 15.334,8.663 15.334,8.663L15.342,8.066L16.229,8.066L16.235,7.632L15.341,7.636L15.344,7.385L14.753,7.384L14.753,7.641L14.564,7.646Z" style="fill:rgb(45,60,0);"/></g><path d="M7.714,9.196L7.722,7.621L8.562,7.611L9.375,8.588L9.385,7.617L9.966,7.619L9.931,9.19L9.101,9.183L8.304,8.209L8.283,9.182L7.714,9.196Z" style="fill:rgb(153,204,0);"/><path d="M10.183,8.082C10.183,8.082 10.145,7.647 10.579,7.61C10.779,7.593 11.008,7.588 11.19,7.59C11.408,7.592 11.63,7.599 11.776,7.616C12.043,7.646 12.225,7.959 12.221,8.103C12.217,8.248 12.216,9.186 12.216,9.186L11.666,9.182L11.663,9.038C11.663,9.038 11.424,9.209 11.274,9.236C11.204,9.248 11.08,9.264 10.956,9.268C10.805,9.272 10.654,9.26 10.588,9.253C10.44,9.237 10.12,9.108 10.115,8.698C10.109,8.288 10.476,8.21 11.002,8.219C11.529,8.227 11.613,8.312 11.613,8.312C11.613,8.312 11.651,8.135 11.563,8.028C11.506,7.959 11.373,7.945 11.171,7.941C10.714,7.932 10.737,8.088 10.737,8.088L10.183,8.082ZM11.15,8.526C11.032,8.526 10.9,8.526 10.817,8.552C10.716,8.582 10.676,8.644 10.676,8.695C10.676,8.745 10.709,8.804 10.808,8.834C10.891,8.86 11.031,8.863 11.15,8.863C11.291,8.863 11.44,8.847 11.527,8.812C11.601,8.783 11.624,8.738 11.624,8.695C11.624,8.656 11.619,8.601 11.556,8.573C11.469,8.533 11.302,8.526 11.15,8.526Z" style="fill:rgb(255,153,0);"/><path d="M12.385,7.62L12.386,9.193L12.983,9.197C12.983,9.197 13.003,8.419 13.005,8.318C13.008,8.211 13.138,8.049 13.49,8.058C13.848,8.067 13.931,8.247 13.935,8.311C13.937,8.353 13.918,9.204 13.918,9.204L14.504,9.202C14.504,9.202 14.502,8.285 14.507,8.122C14.511,7.958 14.27,7.603 13.611,7.602C13.379,7.601 13.273,7.641 13.179,7.678C13.007,7.746 12.975,7.832 12.975,7.832L12.976,7.626L12.385,7.62Z" style="fill:rgb(255,153,0);"/><path d="M14.564,7.646L14.566,8.065L14.747,8.065C14.747,8.065 14.751,8.576 14.753,8.78C14.754,8.984 14.945,9.267 15.526,9.258C16.108,9.25 16.332,8.933 16.334,8.774C16.336,8.615 16.337,8.536 16.337,8.536L15.812,8.537C15.812,8.537 15.823,8.709 15.768,8.748C15.721,8.78 15.671,8.815 15.565,8.817C15.456,8.819 15.401,8.793 15.37,8.759C15.332,8.717 15.334,8.663 15.334,8.663L15.342,8.066L16.229,8.066L16.235,7.632L15.341,7.636L15.344,7.385L14.753,7.384L14.753,7.641L14.564,7.646Z" style="fill:rgb(255,153,0);"/></g></svg>