<svg width="100%" height="100%" viewBox="0 0 18 16" version="1.1" xmlns="http://www.w3.org/2000/svg" xmlns:xlink="http://www.w3.org/1999/xlink" xml:space="preserve" style="fill-rule:evenodd;clip-rule:evenodd;stroke-linejoin:round;stroke-miterlimit:2;"><g id="nats" transform="matrix(1,0,0,1,-0.00264248,5.32907e-15)"><path d="M9,12.853L8.023,11.948L2.325,11.948L2.325,6.412L9,6.412L9,12.853Z" style="fill:rgb(55,91,147);"/><rect x="2.325" y="1" width="6.675" height="5.412" style="fill:rgb(39,170,226);"/><g transform="matrix(1,0,0,0.923447,0,0.0352101)"><rect x="9" y="1.045" width="6.68" height="5.86" style="fill:rgb(52,166,117);"/></g><path d="M15.68,6.412L15.68,11.948L11.343,11.948L11.317,15L9,12.853L9,6.412L15.68,6.412Z" style="fill:rgb(141,199,63);"/><path d="M6.028,4.933L10.919,9.457L13.413,9.457L13.413,3.483L11.784,3.483L11.784,8L6.931,3.483L4.315,3.483L4.315,9.457L6.028,9.457L6.028,4.933Z" style="fill:rgb(254,255,255);"/></g></svg>