<svg width="100%" height="100%" viewBox="0 0 18 16" version="1.1" xmlns="http://www.w3.org/2000/svg" xmlns:xlink="http://www.w3.org/1999/xlink" xml:space="preserve" style="fill-rule:evenodd;clip-rule:evenodd;stroke-linejoin:round;stroke-miterlimit:2;"><g id="nest" transform="matrix(0.0158611,0,0,0.0158611,1.13994,-2.20733)"><path d="M579.547,172.545C572.708,172.545 566.358,174.01 560.497,175.964C572.953,184.268 579.791,195.258 583.21,207.714C583.455,209.424 583.943,210.645 584.188,212.355C584.433,213.82 584.676,215.285 584.676,216.751C585.653,238.243 579.058,240.93 574.418,253.63C567.335,269.993 569.289,287.578 577.837,301.743C578.57,303.453 579.547,305.407 580.768,307.116C571.487,245.326 623.02,236.045 632.545,216.751C633.278,199.899 619.357,188.664 608.366,180.849C597.864,174.499 588.339,172.545 579.547,172.545ZM657.213,186.466C656.235,192.083 656.968,190.618 656.724,193.549C656.48,195.503 656.48,197.945 656.236,199.899C655.748,201.853 655.259,203.806 654.527,205.76C654.039,207.714 653.306,209.668 652.573,211.622C651.596,213.576 650.863,215.285 649.886,217.239C649.154,218.216 648.665,219.193 647.932,220.17C647.444,220.903 646.955,221.635 646.467,222.368C645.246,224.078 644.025,225.787 642.804,227.253C641.338,228.718 640.117,230.428 638.407,231.649L638.407,231.893C636.942,233.115 635.477,234.58 633.767,235.801C628.638,239.709 622.777,242.64 617.404,246.303C615.694,247.524 613.984,248.501 612.519,249.967C610.809,251.188 609.344,252.409 607.879,253.874C606.169,255.34 604.948,256.805 603.482,258.515C602.261,259.98 600.796,261.69 599.819,263.399C598.598,265.109 597.377,266.819 596.4,268.528C595.422,270.482 594.69,272.192 593.713,274.145C592.98,276.099 592.248,277.809 591.759,279.763C591.027,281.961 590.538,283.915 590.05,285.869C589.805,286.846 589.805,288.067 589.562,289.044C589.317,290.021 589.317,290.997 589.073,291.974C589.073,293.928 588.829,296.126 588.829,298.08C588.829,299.546 588.829,301.011 589.073,302.476C589.073,304.43 589.318,306.384 589.806,308.582C590.051,310.536 590.539,312.49 591.027,314.444C591.76,316.397 592.249,318.351 592.981,320.305C593.469,321.526 594.202,322.748 594.691,323.724L538.518,301.988C528.992,299.301 519.712,296.859 510.187,294.661C505.058,293.44 499.929,292.219 494.8,290.997C480.146,288.067 465.248,285.869 450.35,284.403C449.862,284.403 449.617,284.159 449.129,284.159C434.475,282.693 420.065,281.961 405.411,281.961C394.665,281.961 383.919,282.449 373.417,283.182C358.519,284.159 343.621,286.113 328.723,288.555C325.059,289.043 321.396,289.776 317.732,290.509C310.161,291.974 302.834,293.684 295.751,295.393C292.088,296.371 288.424,297.347 284.761,298.324C281.098,299.789 277.678,301.499 274.259,302.964C271.572,304.186 268.886,305.407 266.199,306.628C265.711,306.873 265.222,306.873 264.978,307.116C262.536,308.337 260.338,309.314 258.14,310.535C257.407,310.78 256.919,311.023 256.43,311.268C253.744,312.489 251.057,313.955 248.859,315.176C247.149,315.908 245.44,316.885 243.974,317.618C243.242,318.106 242.265,318.595 241.776,318.839C239.578,320.06 237.38,321.281 235.426,322.503C233.228,323.724 231.274,324.945 229.565,326.166C227.855,327.387 226.145,328.364 224.68,329.585C224.435,329.83 224.192,329.83 223.947,330.073C222.482,331.051 220.772,332.271 219.307,333.493C219.307,333.493 219.062,333.737 218.819,333.981C217.598,334.958 216.377,335.935 215.155,336.911C214.667,337.156 214.178,337.644 213.69,337.889C212.469,338.866 211.248,340.087 210.027,341.064C209.782,341.552 209.294,341.797 209.049,342.041C207.584,343.507 206.118,344.728 204.653,346.193C204.408,346.193 204.408,346.438 204.165,346.681C202.7,347.902 201.234,349.368 199.769,350.833C199.524,351.078 199.524,351.321 199.281,351.321C198.06,352.542 196.838,353.764 195.617,355.229C195.129,355.717 194.396,356.206 193.908,356.694C192.687,358.16 191.221,359.625 189.756,361.09C189.511,361.579 189.023,361.823 188.778,362.312C186.825,364.266 185.115,366.219 183.161,368.173C182.916,368.418 182.673,368.661 182.428,368.906C178.521,373.058 174.369,377.21 169.973,380.873C165.576,384.781 160.936,388.444 156.296,391.619C151.411,395.039 146.771,397.969 141.642,400.9C136.757,403.587 131.628,406.029 126.255,408.227C121.126,410.425 115.753,412.379 110.38,414.089C100.122,416.287 89.62,420.439 80.584,421.171C78.63,421.171 76.432,421.659 74.478,421.904C72.28,422.392 70.326,422.881 68.372,423.369C66.418,424.102 64.465,424.835 62.511,425.567C60.557,426.3 58.603,427.277 56.649,428.254C54.94,429.475 52.986,430.452 51.276,431.673C49.567,432.894 47.857,434.36 46.391,435.825C44.682,437.046 42.972,438.756 41.507,440.221C40.041,441.931 38.576,443.396 37.355,445.106C36.134,447.06 34.668,448.77 33.691,450.723C32.47,452.433 31.249,454.387 30.272,456.341C29.295,458.539 28.318,460.493 27.586,462.691C26.853,464.645 26.12,466.843 25.388,469.041C24.899,470.995 24.41,472.948 24.166,474.902C24.166,475.147 23.922,475.39 23.922,475.635C23.434,477.833 23.434,480.764 23.189,482.229C22.944,483.939 22.701,485.404 22.701,487.114C22.701,488.091 22.701,489.312 22.946,490.289C23.19,491.999 23.434,493.464 23.923,494.929C24.411,496.395 24.9,497.86 25.632,499.325L25.632,499.57C26.365,501.036 27.342,502.501 28.319,503.966C29.296,505.432 30.273,506.897 31.494,508.362C32.715,509.584 34.181,511.049 35.646,512.27C37.111,513.736 38.577,514.957 40.286,516.178C46.148,521.307 47.613,523.016 55.185,526.924C56.406,527.657 57.627,528.145 59.092,528.878C59.337,528.878 59.58,529.122 59.825,529.122C59.825,529.61 59.825,529.855 60.07,530.344C60.314,532.298 60.802,534.251 61.291,536.205C61.779,538.403 62.512,540.357 63.245,542.067C63.977,543.532 64.466,544.998 65.199,546.463C65.443,546.951 65.687,547.44 65.931,547.684C66.909,549.638 67.885,551.348 68.862,553.057C70.083,554.767 71.304,556.476 72.525,558.186C73.747,559.651 75.212,561.361 76.677,562.826C78.143,564.292 79.608,565.513 81.318,566.978C81.318,566.978 81.562,567.223 81.806,567.223C83.271,568.444 84.737,569.666 86.202,570.642C87.912,571.864 89.621,572.84 91.575,573.817C93.285,574.795 95.239,575.771 97.192,576.504C98.658,577.237 100.367,577.725 102.077,578.214C102.322,578.459 102.565,578.459 103.054,578.702C104.032,578.947 105.252,579.19 106.229,579.434C105.497,592.623 105.252,605.079 107.207,609.475C109.405,614.36 120.151,599.461 130.897,582.365C129.432,599.217 128.455,619 130.897,624.862C133.584,630.967 148.238,611.917 160.938,590.913C334.098,550.86 492.116,670.533 508.723,839.541C505.548,813.164 473.065,798.51 458.167,802.174C450.84,820.247 438.385,843.449 418.358,857.858C420.067,841.739 419.335,825.131 415.915,809.012C410.542,831.481 400.04,852.485 385.631,870.558C362.429,872.268 339.227,861.033 327.015,844.181C326.038,843.449 325.794,841.983 325.061,841.006C324.328,839.297 323.596,837.587 323.107,835.877C322.375,834.168 321.886,832.458 321.642,830.749C321.397,829.039 321.397,827.329 321.397,825.376L321.397,821.712C321.642,820.002 322.13,818.293 322.618,816.583C323.106,814.874 323.596,813.164 324.328,811.454C325.305,809.745 326.038,808.035 327.259,806.326C331.411,794.602 331.411,785.077 323.84,779.46C322.374,778.483 320.909,777.75 319.199,777.018C318.222,776.773 317.001,776.285 316.024,776.04C315.291,775.796 314.803,775.552 314.07,775.308C312.361,774.82 310.651,774.33 308.941,774.087C307.232,773.598 305.522,773.354 303.813,773.354C302.103,773.109 300.149,772.866 298.439,772.866C297.218,772.866 295.997,773.11 294.776,773.11C292.822,773.11 291.112,773.355 289.403,773.843C287.693,774.088 285.984,774.331 284.274,774.82C282.564,775.308 280.855,775.798 279.145,776.53C277.436,777.263 275.97,777.995 274.26,778.728C272.795,779.461 271.33,780.438 269.62,781.17C212.714,818.293 246.662,905.24 285.495,930.396C270.841,933.082 255.943,936.257 251.791,939.432C251.547,939.677 251.303,939.92 251.303,939.92C261.805,946.27 272.796,951.643 284.274,956.284C299.905,961.413 316.513,966.053 323.84,968.007L323.84,968.252C344.111,972.404 364.627,973.869 385.386,972.648C493.581,965.077 582.237,882.77 598.356,774.332C598.844,776.53 599.334,778.484 599.822,780.682C600.554,785.078 601.531,789.718 602.02,794.359L602.02,794.604C602.508,796.802 602.752,799 602.997,800.954L602.997,801.931C603.242,804.129 603.485,806.327 603.485,808.281C603.73,810.967 603.973,813.654 603.973,816.341L603.973,820.248C603.973,821.47 604.218,822.935 604.218,824.156C604.218,825.621 603.973,827.087 603.973,828.552L603.973,831.971C603.973,833.681 603.728,835.146 603.728,836.856C603.728,837.833 603.728,838.81 603.484,840.031C603.484,841.741 603.239,843.45 603.239,845.404C602.994,846.137 602.994,846.87 602.994,847.602C602.75,849.556 602.506,851.266 602.261,853.22C602.261,853.952 602.261,854.685 602.017,855.418C601.772,857.86 601.284,860.058 601.04,862.5L601.04,862.99C600.552,865.188 600.062,867.63 599.574,869.828L599.574,870.561C599.086,872.759 598.597,874.957 598.109,877.155C598.109,877.4 597.864,877.888 597.864,878.132C597.376,880.331 596.887,882.529 596.155,884.727L596.155,885.459C595.422,887.902 594.689,890.1 594.201,892.298C593.956,892.542 593.956,892.786 593.956,892.786C593.224,895.228 592.491,897.671 591.758,900.113C590.781,902.555 590.049,904.753 589.072,907.196C588.095,909.638 587.362,912.08 586.385,914.278C585.408,916.721 584.431,918.919 583.454,921.361L583.21,921.361C582.232,923.559 581.256,926.002 580.034,928.2C579.79,928.932 579.546,929.421 579.302,929.909C579.057,930.154 579.057,930.397 578.814,930.642C562.939,962.636 539.492,990.723 510.185,1012.7C508.231,1013.93 506.277,1015.39 504.323,1016.86C503.835,1017.34 503.102,1017.59 502.613,1018.08C500.904,1019.3 499.194,1020.52 497.24,1021.74L497.973,1023.21L498.218,1023.21C501.637,1022.72 505.056,1022.23 508.475,1021.74L508.72,1021.74C515.07,1020.76 521.42,1019.54 527.77,1018.32C529.48,1018.08 531.434,1017.59 533.143,1017.1C534.364,1016.86 535.341,1016.61 536.562,1016.37C538.272,1016.12 539.982,1015.63 541.691,1015.39C543.157,1014.9 544.622,1014.66 546.087,1014.17C570.511,1008.31 594.201,1000.25 616.914,990.722C578.082,1043.72 526.06,1086.46 465.247,1114.55C493.333,1112.59 521.42,1107.95 548.53,1100.14C646.955,1071.07 729.749,1004.89 779.328,915.743C769.315,972.161 746.846,1025.89 713.63,1072.78C737.321,1057.15 759.057,1039.08 778.84,1018.57C833.548,961.415 869.45,888.878 881.661,810.968C889.965,849.557 892.408,889.366 888.744,928.688C1065.08,682.746 903.398,427.769 835.746,360.605C835.501,360.117 835.258,359.872 835.258,359.384C835.013,359.629 835.013,359.629 835.013,359.872C835.013,359.628 835.013,359.628 834.768,359.384C834.768,362.315 834.524,365.246 834.28,368.176C833.548,373.794 832.815,379.167 831.838,384.54C830.617,389.913 829.151,395.286 827.686,400.659C825.976,405.788 824.023,411.161 821.824,416.29C819.626,421.174 817.184,426.303 814.498,431.188C811.811,435.828 808.88,440.713 805.705,445.109C802.53,449.75 799.111,454.146 795.692,458.298C792.028,462.694 788.121,466.602 784.213,470.509C781.771,472.707 779.572,474.661 777.13,476.615C775.176,478.325 773.467,479.79 771.513,481.5C767.117,484.919 762.72,488.094 757.836,491.025C753.195,493.955 748.311,496.886 743.426,499.329C738.297,501.771 733.168,503.969 728.04,506.167C722.911,508.121 717.538,509.831 712.164,511.296C706.791,512.761 701.174,513.983 695.801,514.959C690.184,515.937 684.566,516.425 679.193,516.913C675.286,517.158 671.378,517.401 667.47,517.401C661.853,517.401 656.236,516.913 650.862,516.424C645.245,515.936 639.628,515.203 634.255,513.982C628.637,513.004 623.264,511.539 617.891,509.83L617.647,509.83C623.02,509.342 628.393,508.852 633.766,507.876C639.383,506.899 644.756,505.678 650.129,504.212C655.503,502.747 660.876,501.037 666.004,499.084C671.378,497.13 676.506,494.687 681.391,492.245C686.52,489.803 691.16,487.116 696.045,484.185C700.685,481.01 705.326,477.835 709.722,474.416C714.118,470.997 718.27,467.334 722.178,463.426C726.33,459.762 729.993,455.61 733.657,451.458C737.32,447.062 740.739,442.666 743.914,438.27C744.402,437.537 744.892,436.56 745.38,435.828C747.822,431.92 750.264,428.012 752.462,424.104C755.149,419.22 757.591,414.335 759.789,409.206C761.987,404.078 763.941,398.949 765.651,393.576C767.36,388.447 768.582,383.074 769.803,377.701C770.78,372.083 771.757,366.71 772.245,361.337C772.733,355.72 773.222,350.102 773.222,344.729C773.222,340.822 772.978,336.914 772.734,333.006C772.246,327.389 771.513,322.016 770.781,316.643C769.803,311.025 768.582,305.652 767.117,300.279C765.408,295.15 763.698,289.777 761.744,284.648C759.79,279.52 757.348,274.391 754.905,269.506C752.219,264.621 749.532,259.737 746.602,255.096C743.427,250.456 740.252,246.06 736.832,241.664C733.169,237.512 729.505,233.36 725.598,229.208C723.644,227.254 721.446,225.056 719.248,223.102C708.257,214.554 696.778,206.494 685.3,199.167C683.59,198.19 682.125,197.458 680.415,196.725C672.355,191.596 664.784,188.91 657.213,186.467L657.213,186.466Z" style="fill:rgb(224,35,78);"/></g></svg>