<svg width="100%" height="100%" viewBox="0 0 18 16" version="1.1" xmlns="http://www.w3.org/2000/svg" xmlns:xlink="http://www.w3.org/1999/xlink" xml:space="preserve" style="fill-rule:evenodd;clip-rule:evenodd;stroke-linejoin:round;stroke-miterlimit:2;"><g id="nextjs"><g transform="matrix(1.13867,0,0,1.28225,0.634063,-0.512122)"><ellipse cx="7.347" cy="6.638" rx="6.148" ry="5.459"/><path d="M7.347,1.179C10.74,1.179 13.495,3.625 13.495,6.638C13.495,9.651 10.74,12.098 7.347,12.098C3.954,12.098 1.2,9.651 1.2,6.638C1.2,3.625 3.954,1.179 7.347,1.179ZM7.347,1.309C4.035,1.309 1.346,3.697 1.346,6.638C1.346,9.58 4.035,11.968 7.347,11.968C10.659,11.968 13.348,9.58 13.348,6.638C13.348,3.697 10.659,1.309 7.347,1.309Z" style="fill:rgb(68,68,68);"/></g><g transform="matrix(0.989796,0,0,0.967716,0.125409,0.171304)"><rect x="10.936" y="5.208" width="0.931" height="4.584" style="fill:url(#_Linear-4nfnpom);"/></g><g transform="matrix(1.23179,0,0,1.31509,-1.4381,-3.37348)"><path d="M6.96,7.445L6.96,10.773L6.203,10.773L6.203,6.528L6.918,6.528L6.96,6.528L7.158,6.528L12.128,12.525L11.543,12.946L6.96,7.445Z" style="fill:url(#_Linear-98su8y6);"/></g></g><defs><linearGradient id="_Linear-4nfnpom" x1="0" y1="0" x2="1" y2="0" gradientUnits="userSpaceOnUse" gradientTransform="matrix(0.0376092,4.21005,-4.11613,0.0384673,11.4087,5.28338)"><stop offset="0" style="stop-color:rgb(248,248,248);stop-opacity:1"/><stop offset="0.35" style="stop-color:rgb(154,154,154);stop-opacity:1"/><stop offset="1" style="stop-color:black;stop-opacity:1"/></linearGradient><linearGradient id="_Linear-98su8y6" x1="0" y1="0" x2="1" y2="0" gradientUnits="userSpaceOnUse" gradientTransform="matrix(2.12404,2.48276,-2.65065,1.98949,9.7351,10.2051)"><stop offset="0" style="stop-color:white;stop-opacity:1"/><stop offset="1" style="stop-color:rgb(10,10,10);stop-opacity:1"/></linearGradient></defs></svg>