<svg width="100%" height="100%" viewBox="0 0 18 16" version="1.1" xmlns="http://www.w3.org/2000/svg" xmlns:xlink="http://www.w3.org/1999/xlink" xml:space="preserve" style="fill-rule:evenodd;clip-rule:evenodd;stroke-linejoin:round;stroke-miterlimit:2;"><g id="nim" transform="matrix(0.210674,0,0,0.210674,-110.551,-97.3504)"><path id="path3054" d="M567.753,477.29C567.753,477.29 565.025,479.446 562.244,481.587C559.382,481.497 553.771,482.137 550.73,483.243C547.929,481.468 545.468,479.509 545.468,479.509C545.468,479.509 543.365,483.127 542.042,485.251C540.081,486.294 538.111,487.467 536.356,489.02C534.314,488.209 531.948,487.221 531.871,487.188C534.574,492.641 536.392,498.102 541.336,501.384C549.207,488.952 585.784,490.098 593.817,501.313C599.009,498.605 601.029,492.779 603.071,487.399C602.847,487.473 600.068,488.403 598.267,489.09C597.192,487.92 594.658,486.12 593.217,485.251C591.851,482.749 589.862,479.368 589.862,479.368C589.862,479.368 587.506,481.12 584.776,483.032C581.088,482.351 576.626,481.524 572.874,481.728C570.32,479.629 567.753,477.29 567.753,477.29L567.753,477.29Z" style="fill:rgb(243,212,0);fill-rule:nonzero;"/><path id="path3051" d="M534.666,498.777C534.666,498.777 538.498,508.055 541.159,514.502C552.436,529.38 581.233,530.415 593.787,514.79C596.758,508.095 600.766,498.687 600.766,498.687C597.545,503.458 592.303,506.752 589.075,508.526C586.781,509.782 581.489,510.542 581.489,510.542L567.593,503.341L553.617,510.398C553.617,510.398 548.395,509.559 546.031,508.454C541.259,505.906 538.049,502.897 534.666,498.777Z" style="fill:rgb(255,233,83);fill-rule:nonzero;"/></g></svg>