<svg width="100%" height="100%" viewBox="0 0 18 16" version="1.1" xmlns="http://www.w3.org/2000/svg" xmlns:xlink="http://www.w3.org/1999/xlink" xml:space="preserve" style="fill-rule:evenodd;clip-rule:evenodd;stroke-linejoin:round;stroke-miterlimit:2;"><g id="nitro" transform="matrix(0.374987,0,0,0.374987,1.5,0.500071)"><path d="M35.217,7.02C28.048,-1.383 15.424,-2.384 7.021,4.785C-1.383,11.954 -2.383,24.577 4.785,32.981C11.954,41.384 24.578,42.385 32.981,35.216C41.385,28.047 42.385,15.424 35.217,7.02ZM25.253,17.517C26.023,17.517 26.516,18.353 26.129,19.019L26.017,19.211L18.47,31.629C18.329,31.86 18.079,32.001 17.809,32.001L17.088,32.001C16.595,32.001 16.234,31.535 16.357,31.057L18.405,23.138C18.569,22.505 18.091,21.888 17.437,21.888L14.291,21.888C13.637,21.888 13.16,21.271 13.323,20.638L16.414,8.683C16.526,8.281 16.89,7.997 17.308,8.002C17.359,8.003 17.405,8.004 17.443,8.005L20.611,8.005C21.217,8.004 21.684,8.539 21.602,9.139L21.583,9.282L20.375,16.349C20.27,16.96 20.741,17.517 21.36,17.517L25.253,17.517Z" style="fill:url(#_Radial-vb90ayd);"/></g><defs><radialGradient id="_Radial-vb90ayd" cx="0" cy="0" r="1" gradientUnits="userSpaceOnUse" gradientTransform="matrix(39.0007,0,0,397.71,4.00069,20.0004)"><stop offset="0" style="stop-color:rgb(49,178,243);stop-opacity:1"/><stop offset="0.47" style="stop-color:rgb(242,124,236);stop-opacity:1"/><stop offset="1" style="stop-color:rgb(253,102,65);stop-opacity:1"/></radialGradient></defs></svg>