<svg width="100%" height="100%" viewBox="0 0 18 16" version="1.1" xmlns="http://www.w3.org/2000/svg" xmlns:xlink="http://www.w3.org/1999/xlink" xml:space="preserve" style="fill-rule:evenodd;clip-rule:evenodd;stroke-linejoin:round;stroke-miterlimit:2;"><g id="nix" transform="matrix(0.0271093,0,0,0.0271093,1.55313,1.43185)"><g id="path3336-6" transform="matrix(1,0,0,1,-132.582,958.04)"><path d="M309.549,-710.388L431.746,-498.713L375.589,-498.186L342.965,-555.056L310.109,-498.49L282.206,-498.501L267.916,-523.191L314.726,-603.681L281.496,-661.507L309.549,-710.388Z" style="fill:url(#_Linear1);"/></g><g id="use3439-6" transform="matrix(0.5,0.866025,-0.866025,0.5,-548.916,247.577)"><path d="M309.549,-710.388L431.746,-498.713L375.589,-498.186L342.965,-555.056L310.109,-498.49L282.206,-498.501L267.916,-523.191L314.726,-603.681L281.496,-661.507L309.549,-710.388Z" style="fill:url(#_Linear2);"/></g><g id="use3445-0" transform="matrix(0.5,-0.866025,0.866025,0.5,690.888,952.933)"><path d="M309.549,-710.388L431.746,-498.713L375.589,-498.186L342.965,-555.056L310.109,-498.49L282.206,-498.501L267.916,-523.191L314.726,-603.681L281.496,-661.507L309.549,-710.388Z" style="fill:url(#_Linear3);"/></g><g id="use3449-5" transform="matrix(-1,-7.65714e-16,7.65714e-16,-1,682.256,-473.472)"><path d="M309.549,-710.388L431.746,-498.713L375.589,-498.186L342.965,-555.056L310.109,-498.49L282.206,-498.501L267.916,-523.191L314.726,-603.681L281.496,-661.507L309.549,-710.388Z" style="fill:url(#_Linear4);"/></g><g id="path4260-0" transform="matrix(1,0,0,1,-132.582,958.04)"><path d="M309.549,-710.388L431.746,-498.713L375.589,-498.186L342.965,-555.056L310.109,-498.49L282.206,-498.501L267.916,-523.191L314.726,-603.681L281.496,-661.507L309.549,-710.388Z" style="fill:url(#_Linear5);"/></g><g id="use4354-5" transform="matrix(-0.5,0.866025,-0.866025,-0.5,-141.719,-468.853)"><path d="M309.549,-710.388L431.746,-498.713L375.589,-498.186L342.965,-555.056L310.109,-498.49L282.206,-498.501L267.916,-523.191L314.726,-603.681L281.496,-661.507L309.549,-710.388Z" style="fill:url(#_Linear6);"/></g><g id="use4362-2" transform="matrix(-0.5,-0.866025,0.866025,-0.5,1098.31,236.957)"><path d="M309.549,-710.388L431.746,-498.713L375.589,-498.186L342.965,-555.056L310.109,-498.49L282.206,-498.501L267.916,-523.191L314.726,-603.681L281.496,-661.507L309.549,-710.388Z" style="fill:url(#_Linear7);"/></g></g><defs><linearGradient id="_Linear1" x1="0" y1="0" x2="1" y2="0" gradientUnits="userSpaceOnUse" gradientTransform="matrix(89.49,154.777,-154.777,89.49,271.247,-703.74)"><stop offset="0" style="stop-color:rgb(105,154,215);stop-opacity:1"/><stop offset="0.24" style="stop-color:rgb(126,177,221);stop-opacity:1"/><stop offset="1" style="stop-color:rgb(126,186,228);stop-opacity:1"/></linearGradient><linearGradient id="_Linear2" x1="0" y1="0" x2="1" y2="0" gradientUnits="userSpaceOnUse" gradientTransform="matrix(89.49,154.777,-154.777,89.49,271.247,-703.74)"><stop offset="0" style="stop-color:rgb(105,154,215);stop-opacity:1"/><stop offset="0.24" style="stop-color:rgb(126,177,221);stop-opacity:1"/><stop offset="1" style="stop-color:rgb(126,186,228);stop-opacity:1"/></linearGradient><linearGradient id="_Linear3" x1="0" y1="0" x2="1" y2="0" gradientUnits="userSpaceOnUse" gradientTransform="matrix(89.49,154.777,-154.777,89.49,271.247,-703.74)"><stop offset="0" style="stop-color:rgb(105,154,215);stop-opacity:1"/><stop offset="0.24" style="stop-color:rgb(126,177,221);stop-opacity:1"/><stop offset="1" style="stop-color:rgb(126,186,228);stop-opacity:1"/></linearGradient><linearGradient id="_Linear4" x1="0" y1="0" x2="1" y2="0" gradientUnits="userSpaceOnUse" gradientTransform="matrix(89.49,154.777,-154.777,89.49,271.247,-703.74)"><stop offset="0" style="stop-color:rgb(105,154,215);stop-opacity:1"/><stop offset="0.24" style="stop-color:rgb(126,177,221);stop-opacity:1"/><stop offset="1" style="stop-color:rgb(126,186,228);stop-opacity:1"/></linearGradient><linearGradient id="_Linear5" x1="0" y1="0" x2="1" y2="0" gradientUnits="userSpaceOnUse" gradientTransform="matrix(87.902,155.378,-155.378,87.902,280.497,-709.004)"><stop offset="0" style="stop-color:rgb(65,94,154);stop-opacity:1"/><stop offset="0.23" style="stop-color:rgb(74,107,175);stop-opacity:1"/><stop offset="1" style="stop-color:rgb(82,119,195);stop-opacity:1"/></linearGradient><linearGradient id="_Linear6" x1="0" y1="0" x2="1" y2="0" gradientUnits="userSpaceOnUse" gradientTransform="matrix(87.902,155.378,-155.378,87.902,280.497,-709.004)"><stop offset="0" style="stop-color:rgb(65,94,154);stop-opacity:1"/><stop offset="0.23" style="stop-color:rgb(74,107,175);stop-opacity:1"/><stop offset="1" style="stop-color:rgb(82,119,195);stop-opacity:1"/></linearGradient><linearGradient id="_Linear7" x1="0" y1="0" x2="1" y2="0" gradientUnits="userSpaceOnUse" gradientTransform="matrix(87.902,155.378,-155.378,87.902,280.497,-709.004)"><stop offset="0" style="stop-color:rgb(65,94,154);stop-opacity:1"/><stop offset="0.23" style="stop-color:rgb(74,107,175);stop-opacity:1"/><stop offset="1" style="stop-color:rgb(82,119,195);stop-opacity:1"/></linearGradient></defs></svg>