<svg width="100%" height="100%" viewBox="0 0 18 16" version="1.1" xmlns="http://www.w3.org/2000/svg" xmlns:xlink="http://www.w3.org/1999/xlink" xml:space="preserve" style="fill-rule:evenodd;clip-rule:evenodd;stroke-linejoin:round;stroke-miterlimit:2;"><g id="nodejs" transform="matrix(0.0281456,0,0,0.0281456,8.74669,0.76914)"><g transform="matrix(1,0,0,1,-247.287,0)"><path d="M267.614,11.397C260.217,7.236 251.433,7.236 244.036,11.397L49.407,123.736C42.01,127.897 37.849,135.756 37.849,144.078L37.849,369.219C37.849,377.54 42.472,385.4 49.407,389.56L244.036,501.9C251.433,506.06 260.217,506.06 267.614,501.9L462.243,389.56C469.64,385.4 473.8,377.54 473.8,369.219L473.8,144.078C473.8,135.756 469.177,127.897 462.243,123.736L267.614,11.397Z" style="fill:url(#_Linear-5oj16uh);fill-rule:nonzero;"/></g><g transform="matrix(1,0,0,1,-247.287,0)"><path d="M462.705,123.736L267.151,11.397C265.302,10.472 262.991,9.548 261.141,9.085L42.01,384.475C43.859,386.786 46.171,388.636 48.482,390.023L244.036,502.362C249.584,505.598 256.056,506.523 262.066,504.674L467.791,128.359C466.404,126.51 464.554,125.123 462.705,123.736Z" style="fill:url(#_Linear-6ohqi7k);fill-rule:nonzero;"/></g><g transform="matrix(1,0,0,1,-247.287,-36.9842)"><g><path d="M463.167,426.544C468.715,423.308 472.876,417.761 474.725,411.751L260.217,45.607C254.669,44.683 248.659,45.145 243.574,48.381L49.407,160.258L258.83,542.12C261.604,541.658 264.84,540.733 267.614,539.346L463.167,426.544Z" style="fill:url(#_Linear-ap9sk47);"/></g></g></g><defs><linearGradient id="_Linear-5oj16uh" x1="0" y1="0" x2="1" y2="0" gradientUnits="userSpaceOnUse" gradientTransform="matrix(-175.975,358.989,-358.989,-175.975,335.118,95.1411)"><stop offset="0" style="stop-color:rgb(65,135,63);stop-opacity:1"/><stop offset="0.33" style="stop-color:rgb(65,139,61);stop-opacity:1"/><stop offset="0.64" style="stop-color:rgb(65,150,55);stop-opacity:1"/><stop offset="0.93" style="stop-color:rgb(63,169,45);stop-opacity:1"/><stop offset="1" style="stop-color:rgb(63,174,42);stop-opacity:1"/></linearGradient><linearGradient id="_Linear-6ohqi7k" x1="0" y1="0" x2="1" y2="0" gradientUnits="userSpaceOnUse" gradientTransform="matrix(493.772,-364.826,364.826,493.772,226.273,283.015)"><stop offset="0" style="stop-color:rgb(65,135,63);stop-opacity:1"/><stop offset="0.14" style="stop-color:rgb(65,135,63);stop-opacity:1"/><stop offset="0.4" style="stop-color:rgb(84,160,68);stop-opacity:1"/><stop offset="0.71" style="stop-color:rgb(102,184,72);stop-opacity:1"/><stop offset="0.91" style="stop-color:rgb(108,192,74);stop-opacity:1"/><stop offset="1" style="stop-color:rgb(108,192,74);stop-opacity:1"/></linearGradient><linearGradient id="_Linear-ap9sk47" x1="0" y1="0" x2="1" y2="0" gradientUnits="userSpaceOnUse" gradientTransform="matrix(450.361,0,0,450.361,30.7404,293.639)"><stop offset="0" style="stop-color:rgb(108,192,74);stop-opacity:1"/><stop offset="0.09" style="stop-color:rgb(108,192,74);stop-opacity:1"/><stop offset="0.29" style="stop-color:rgb(102,184,72);stop-opacity:1"/><stop offset="0.6" style="stop-color:rgb(84,160,68);stop-opacity:1"/><stop offset="0.86" style="stop-color:rgb(65,135,63);stop-opacity:1"/><stop offset="1" style="stop-color:rgb(65,135,63);stop-opacity:1"/></linearGradient></defs></svg>