<svg width="100%" height="100%" viewBox="0 0 18 16" version="1.1" xmlns="http://www.w3.org/2000/svg" xmlns:xlink="http://www.w3.org/1999/xlink" xml:space="preserve" style="fill-rule:evenodd;clip-rule:evenodd;stroke-linejoin:round;stroke-miterlimit:2;"><g transform="matrix(0.550863,0,0,0.550863,9,8)"><g id="npm" transform="matrix(1,0,0,1,-13.615,-13.615)"><path d="M27.23,2C27.23,0.896 26.334,0 25.23,0L2,0C0.896,0 0,0.896 0,2L0,25.23C0,26.334 0.896,27.23 2,27.23L25.23,27.23C26.334,27.23 27.23,26.334 27.23,25.23L27.23,2Z" style="fill:rgb(205,0,0);"/><path d="M5.8,21.75L13.66,21.75L13.67,9.98L17.59,9.98L17.58,21.76L21.51,21.76L21.52,6.06L5.82,6.04L5.8,21.75Z" style="fill:white;fill-rule:nonzero;"/></g><g id="npm1"></g></g></svg>