<svg width="100%" height="100%" viewBox="0 0 18 16" version="1.1" xmlns="http://www.w3.org/2000/svg" xmlns:xlink="http://www.w3.org/1999/xlink" xml:space="preserve" style="fill-rule:evenodd;clip-rule:evenodd;stroke-linejoin:round;stroke-miterlimit:2;"><g id="nsis" transform="matrix(0.0141602,0,0,0.0141602,8.96606,7.87818)"><g transform="matrix(1,0,0,1,-509.601,-503.398)"><path d="M948.256,941.932L948.256,489.416L788.275,649.4L722.009,715.669L948.256,941.932Z" style="fill:rgb(0,87,123);fill-rule:nonzero;"/></g><g transform="matrix(1,0,0,1,-509.601,-503.398)"><path d="M722.009,241.537L810.48,330.02L948.256,467.803L948.256,15.288L722.009,241.537Z" style="fill:rgb(1,176,240);fill-rule:nonzero;"/></g><g transform="matrix(1,0,0,1,-509.601,-503.398)"><path d="M15.288,8.964L241.544,235.206L467.789,8.964L15.288,8.964Z" style="fill:rgb(79,201,245);fill-rule:nonzero;"/></g><g transform="matrix(1,0,0,1,-509.601,-503.398)"><path d="M478.605,472.277L704.872,246.017L252.362,246.017L478.605,472.277Z" style="fill:rgb(1,176,240);fill-rule:nonzero;"/></g><g transform="matrix(1,0,0,1,-509.601,-503.398)"><path d="M478.608,10.817L252.351,237.061L704.876,237.061L478.608,10.817ZM252.347,237.063L478.597,10.815L252.347,237.063Z" style="fill:rgb(39,188,243);fill-rule:nonzero;"/></g><g transform="matrix(1,0,0,1,-509.601,-503.398)"><path d="M489.408,483.086L715.68,709.342L781.945,643.069L941.922,483.086L489.408,483.086ZM715.68,709.342L781.948,643.071L715.68,709.342Z" style="fill:rgb(0,121,170);fill-rule:nonzero;"/></g><g transform="matrix(1,0,0,1,-509.601,-503.398)"><path d="M489.412,474.129L941.914,474.129L792.358,324.559L715.684,247.874L489.412,474.129Z" style="fill:rgb(0,150,211);fill-rule:nonzero;"/></g><g transform="matrix(1,0,0,1,-509.601,-503.398)"><path d="M941.922,474.129L792.358,324.559L941.914,474.129L941.922,474.129Z" style="fill:rgb(0,150,211);fill-rule:nonzero;"/></g><g transform="matrix(1,0,0,1,-509.601,-503.398)"><path d="M75.745,82.084L75.745,534.605L301.988,308.341L75.745,82.084Z" style="fill:rgb(121,32,27);fill-rule:nonzero;"/></g><g transform="matrix(1,0,0,1,-509.601,-503.398)"><path d="M301.988,782.484L235.72,716.216L75.745,556.222L75.745,1008.72L301.988,782.484Z" style="fill:rgb(240,69,63);fill-rule:nonzero;"/></g><g transform="matrix(1,0,0,1,-509.601,-503.398)"><path d="M556.206,1015.05L1008.72,1015.05L782.458,788.816L556.206,1015.05Z" style="fill:rgb(244,127,125);fill-rule:nonzero;"/></g><g transform="matrix(1,0,0,1,-509.601,-503.398)"><path d="M319.134,778.011L771.65,778.011L545.397,551.744L319.134,778.011Z" style="fill:rgb(240,69,63);fill-rule:nonzero;"/></g><g transform="matrix(1,0,0,1,-509.601,-503.398)"><path d="M545.391,1013.19L771.644,786.963L319.126,786.963L545.391,1013.19Z" style="fill:rgb(242,98,93);fill-rule:nonzero;"/></g><g transform="matrix(1,0,0,1,-509.601,-503.398)"><path d="M82.073,540.94L534.584,540.94L308.325,314.674L82.073,540.94Z" style="fill:rgb(164,45,38);fill-rule:nonzero;"/></g><g transform="matrix(1,0,0,1,-509.601,-503.398)"><path d="M82.073,549.891L308.319,776.155L534.584,549.891L82.073,549.891ZM308.284,776.138L82.032,549.889L308.284,776.138Z" style="fill:rgb(204,56,47);fill-rule:nonzero;"/></g><g transform="matrix(1,0,0,1,-509.601,-503.398)"><path d="M1022.69,1016.36L957.208,950.883L957.208,4.478C957.207,2.022 955.186,0.002 952.73,0.002C951.544,0.002 950.404,0.473 949.565,1.312L715.68,235.204L481.769,1.315L481.702,1.315C480.886,0.515 479.798,0.01 478.606,0.01L4.739,0.01C3.462,-0.072 2.21,0.405 1.311,1.315C0.469,2.153 -0.003,3.293 -0,4.481C-0,5.628 0.436,6.773 1.311,7.647L66.791,73.127L66.791,1019.52C66.794,1021.98 68.813,1024 71.268,1024C72.455,1024 73.595,1023.53 74.434,1022.69L308.319,788.816L542.225,1022.69L542.292,1022.69C543.111,1023.49 544.204,1024 545.396,1024L1019.52,1024C1021.98,1024 1024,1021.98 1024,1019.52C1024,1018.34 1023.53,1017.2 1022.69,1016.36ZM556.206,1015.05L782.458,788.817L1008.72,1015.05L556.206,1015.05ZM301.988,782.484L75.745,1008.72L75.745,556.222L235.72,716.216L301.988,782.484ZM722.009,241.537L948.256,15.288L948.256,467.803L810.482,330.018L722.009,241.537ZM941.914,474.129L489.408,474.129L715.68,247.87L715.684,247.874L792.36,324.56L941.922,474.133L941.914,474.133L941.914,474.129ZM478.605,472.277L252.362,246.017L704.872,246.017L478.605,472.277ZM308.325,314.674L534.584,540.94L82.073,540.94L308.325,314.674ZM489.408,483.086L941.922,483.086L781.945,643.069L715.677,709.34L489.408,483.086ZM545.397,551.744L771.65,778.011L319.134,778.011L545.397,551.744ZM534.584,549.891L308.319,776.155L82.072,549.89L534.584,549.891ZM948.256,941.932L722.009,715.669L788.278,649.398L948.255,489.417L948.256,941.932ZM252.351,237.061L478.602,10.811L478.608,10.817L704.876,237.061L252.351,237.061ZM75.745,82.084L301.99,308.341L75.745,534.605L75.745,82.084ZM771.644,786.963L545.391,1013.19L319.126,786.965L771.644,786.963ZM15.288,8.964L467.789,8.964L241.544,235.206L15.288,8.964Z" style="fill:white;fill-rule:nonzero;"/></g></g></svg>