<svg width="100%" height="100%" viewBox="0 0 18 16" version="1.1" xmlns="http://www.w3.org/2000/svg" xmlns:xlink="http://www.w3.org/1999/xlink" xml:space="preserve" style="fill-rule:evenodd;clip-rule:evenodd;stroke-linejoin:round;stroke-miterlimit:2;"><g id="nuget"><g id="Fill-12" transform="matrix(0.029494,0,0,0.029494,1.5,0.604944)"><path d="M374.425,454.857C327.676,454.857 289.773,416.95 289.773,370.196C289.773,323.464 327.676,285.536 374.425,285.536C421.174,285.536 459.077,323.464 459.077,370.196C459.077,416.95 421.174,454.857 374.425,454.857M205.565,260.815C176.339,260.815 152.657,237.11 152.657,207.902C152.657,178.673 176.339,154.989 205.565,154.989C234.791,154.989 258.473,178.673 258.473,207.902C258.473,237.11 234.791,260.815 205.565,260.815M378.171,95.642L236.886,95.642C164.89,95.642 106.48,154.058 106.48,226.083L106.48,367.36C106.48,439.406 164.89,497.78 236.886,497.78L378.171,497.78C450.21,497.78 508.577,439.406 508.577,367.36L508.577,226.083C508.577,154.058 450.21,95.642 378.171,95.642" style="fill:rgb(0,72,128);"/></g><g id="Fill-14" transform="matrix(0.029494,0,0,0.029494,1.5,0.604944)"><path d="M84.652,46.012C84.652,69.399 65.69,88.342 42.326,88.342C18.941,88.342 0,69.399 0,46.012C0,22.645 18.941,3.681 42.326,3.681C65.69,3.681 84.652,22.645 84.652,46.012" style="fill:rgb(0,72,128);"/></g></g></svg>