<svg width="100%" height="100%" viewBox="0 0 18 16" version="1.1" xmlns="http://www.w3.org/2000/svg" xmlns:xlink="http://www.w3.org/1999/xlink" xml:space="preserve" style="fill-rule:evenodd;clip-rule:evenodd;stroke-linejoin:round;stroke-miterlimit:2;"><g id="numpy" transform="matrix(0.177721,0,0,0.177721,-0.321308,6.57823)"><g transform="matrix(1,0,0,-1,0,197.096)"><path d="M46.918,212.477L33.759,219.119L19.312,211.91L32.83,205.123L46.918,212.477Z" style="fill:rgb(77,171,207);fill-rule:nonzero;"/></g><g transform="matrix(1,0,0,-1,0,197.096)"><path d="M52.954,209.432L66.752,202.464L52.437,195.277L38.898,202.074L52.954,209.432Z" style="fill:rgb(77,171,207);fill-rule:nonzero;"/></g><g transform="matrix(1,0,0,-1,0,197.096)"><path d="M71.384,219.02L85.561,211.91L72.88,205.544L59.054,212.519L71.384,219.02Z" style="fill:rgb(77,171,207);fill-rule:nonzero;"/></g><g transform="matrix(1,0,0,-1,0,197.096)"><path d="M65.281,222.082L52.518,228.483L39.894,222.181L53.046,215.55L65.281,222.082Z" style="fill:rgb(77,171,207);fill-rule:nonzero;"/></g><g transform="matrix(1,0,0,-1,0,197.096)"><path d="M55.304,167.125L55.304,149.708L70.764,157.424L70.75,174.848L55.304,167.125Z" style="fill:rgb(77,171,207);fill-rule:nonzero;"/></g><g transform="matrix(1,0,0,-1,0,197.096)"><path d="M70.743,180.929L70.725,198.169L55.304,190.502L55.304,173.256L70.743,180.929Z" style="fill:rgb(77,171,207);fill-rule:nonzero;"/></g><g transform="matrix(1,0,0,-1,0,197.096)"><path d="M89.304,184.158L89.304,166.674L76.116,160.096L76.105,177.499L89.304,184.158Z" style="fill:rgb(77,171,207);fill-rule:nonzero;"/></g><g transform="matrix(1,0,0,-1,0,197.096)"><path d="M89.304,190.272L89.304,207.405L76.091,200.838L76.102,183.563L89.304,190.272Z" style="fill:rgb(77,171,207);fill-rule:nonzero;"/></g><g transform="matrix(1,0,0,-1,0,197.096)"><path d="M49.846,190.502L39.433,195.741L39.433,173.114C39.433,173.114 26.695,200.214 25.518,202.649C25.366,202.964 24.742,203.308 24.582,203.393C22.286,204.591 15.594,207.979 15.594,207.979L15.594,167.989L24.852,163.027L24.852,183.939C24.852,183.939 37.452,159.724 37.583,159.458C37.714,159.193 38.972,156.644 40.326,155.748C42.123,154.553 49.839,149.914 49.839,149.914L49.846,190.502Z" style="fill:rgb(77,119,207);fill-rule:nonzero;"/></g></g></svg>