<svg width="100%" height="100%" viewBox="0 0 18 16" version="1.1" xmlns="http://www.w3.org/2000/svg" xmlns:xlink="http://www.w3.org/1999/xlink" xml:space="preserve" style="fill-rule:evenodd;clip-rule:evenodd;stroke-linejoin:round;stroke-miterlimit:2;"><g id="nunjucks"><g transform="matrix(2.13713,0,0,1.77528,-1.70569,-0.387642)"><rect x="1.5" y="0.5" width="7.019" height="8.449" style="fill:rgb(28,73,19);"/></g><path d="M3.434,2.353L3.434,13.182L5.283,13.182L5.283,8.468L6.648,13.182L8.519,13.182L8.516,2.353L6.648,2.353L6.648,6.769L5.283,2.353L3.434,2.353Z" style="fill:rgb(254,255,252);"/><path d="M9.445,9.767L11.315,9.337L11.315,11.315L12.675,11.315L12.675,4.916L14.558,4.907C14.558,4.907 14.565,10.675 14.558,12.063C14.555,12.588 14.113,13.186 13.426,13.182C12.249,13.176 11.272,13.182 10.567,13.182C10.129,13.182 9.445,12.893 9.445,11.975L9.445,9.767Z" style="fill:rgb(254,255,252);"/></g></svg>