<svg width="100%" height="100%" viewBox="0 0 18 16" version="1.1" xmlns="http://www.w3.org/2000/svg" xmlns:xlink="http://www.w3.org/1999/xlink" xml:space="preserve" style="fill-rule:evenodd;clip-rule:evenodd;stroke-linejoin:round;stroke-miterlimit:2;"><g id="nushell" transform="matrix(1.07273,0,0,1.07273,-0.65078,-0.570758)"><g transform="matrix(1.03104,0,0,1.16708,-0.0622367,-0.242674)"><rect x="2.005" y="1.064" width="13.562" height="11.98"/></g><path d="M2.918,6.148L2.93,10.099L3.53,10.088C3.53,10.088 3.521,7.563 3.521,7.324C3.52,7.084 4.013,6.58 4.645,6.565C5.277,6.55 5.286,7.111 5.303,7.266C5.319,7.42 5.336,10.106 5.336,10.106L5.943,10.098C5.943,10.098 5.942,7.765 5.942,7.124C5.941,6.478 5.555,6.067 4.822,6.068C4.07,6.068 3.455,6.719 3.455,6.719L3.461,6.137L2.918,6.148Z" style="fill:rgb(78,154,6);"/><g transform="matrix(-1,0,0,-1,13.4142,16.3056)"><path d="M2.918,6.148L2.93,10.099L3.53,10.088C3.53,10.088 3.521,7.563 3.521,7.324C3.52,7.084 4.013,6.58 4.645,6.565C5.277,6.55 5.286,7.111 5.303,7.266C5.319,7.42 5.336,10.106 5.336,10.106L5.943,10.098C5.943,10.098 5.942,7.765 5.942,7.124C5.941,6.478 5.555,6.067 4.822,6.068C4.07,6.068 3.455,6.719 3.455,6.719L3.461,6.137L2.918,6.148Z" style="fill:rgb(78,154,6);"/></g><path d="M11.929,6.097L14.594,7.758L11.944,9.446L12.278,9.898L15.167,8.069L15.18,7.444L12.268,5.618L11.929,6.097Z" style="fill:white;"/></g></svg>