<svg width="100%" height="100%" viewBox="0 0 18 16" version="1.1" xmlns="http://www.w3.org/2000/svg" xmlns:xlink="http://www.w3.org/1999/xlink" xml:space="preserve" style="fill-rule:evenodd;clip-rule:evenodd;stroke-linejoin:round;stroke-miterlimit:2;"><g id="nuxt" transform="matrix(0.05,0,0,0.05,1.5,3)"><path d="M168,200L279,200C282.542,200 285.932,198.756 289,197C292.068,195.244 295.23,193.041 297,190C298.77,186.959 300.002,183.51 300,179.999C299.998,176.488 298.773,173.04 297,170.001L222,41C220.23,37.96 218.067,35.755 215,34C211.933,32.245 207.542,31 204,31C200.458,31 197.067,32.245 194,34C190.933,35.755 188.77,37.96 187,41L168,74L130,9.998C128.228,6.958 126.068,3.755 123,2C119.932,0.245 116.542,0 113,0C109.458,0 106.068,0.245 103,2C99.932,3.755 96.772,6.958 95,9.998L2,170.001C0.227,173.04 0.002,176.488 0,179.999C-0.002,183.51 0.23,186.959 2,190C3.77,193.04 6.932,195.244 10,197C13.068,198.756 16.458,200 20,200L90,200C117.737,200 137.925,187.558 152,164L186,105L204,74L259,168L186,168L168,200ZM89,168L40,168L113,42L150,105L125.491,147.725C116.144,163.01 105.488,168 89,168Z" style="fill:rgb(0,220,130);fill-rule:nonzero;"/></g></svg>