<svg width="100%" height="100%" viewBox="0 0 18 16" version="1.1" xmlns="http://www.w3.org/2000/svg" xmlns:xlink="http://www.w3.org/1999/xlink" xml:space="preserve" style="fill-rule:evenodd;clip-rule:evenodd;stroke-linejoin:round;stroke-miterlimit:2;"><g id="nx-dark" transform="matrix(0.666667,0,0,0.666667,1,-1.05471e-15)"><path d="M12,14.1L8.9,19.1L3.7,10.6L3.7,19.5L0,19.5L0,4.5L3.7,4.5L8.9,13.4L8.9,9.4L11.9,14.1L12,14.1ZM12.6,8.4L12.6,4.5L8.9,4.5L8.9,8.4L12.6,8.4ZM18.2,12.5C17.322,12.445 16.506,12.975 16.2,13.8C16.736,13.037 17.738,12.744 18.6,13.1C19,13.3 19.6,13.5 19.9,13.4C19.512,12.843 18.878,12.508 18.2,12.5ZM21.6,13.5C21.2,13.5 20.8,13.3 20.5,12.9L20.3,12.6C20.172,12.37 20.003,12.167 19.8,12C19.442,11.776 19.022,11.671 18.6,11.7C17.605,11.697 16.698,12.288 16.3,13.2C16.729,12.582 17.436,12.212 18.189,12.212C19.105,12.212 19.937,12.759 20.3,13.6C20.501,13.885 20.868,14.008 21.2,13.9C21.7,13.9 21.6,14.3 22.4,14.4L22.4,14.3C22.4,13.9 22.1,13.8 21.6,13.6L21.6,13.5ZM23.6,14.8C23.834,14.69 23.988,14.458 24,14.2C24,11.2 21.6,8.7 18.6,8.7C16.795,8.697 15.103,9.599 14.1,11.1L12.6,8.7L8.9,8.7L12.4,14.1L9,19.5L12.6,19.5L14,17L15.6,19.4L19.1,19.4L16,14.4C15.978,14.301 15.978,14.199 16,14.1C15.999,12.656 17.157,11.453 18.6,11.4C20.1,11.4 20.3,12.3 20.6,12.7C21.3,13.5 22.6,13.2 22.6,14.2C22.617,14.572 22.927,14.868 23.299,14.868C23.403,14.868 23.506,14.845 23.6,14.8ZM24,15C23.8,15.3 23.4,15.3 23.2,15.6C23.1,15.9 23.3,16 23.3,16C23.3,16 23.7,16.2 23.9,15.7L23.9,15L24,15Z" style="fill-rule:nonzero;"/></g></svg>