<svg width="100%" height="100%" viewBox="0 0 18 16" version="1.1" xmlns="http://www.w3.org/2000/svg" xmlns:xlink="http://www.w3.org/1999/xlink" xml:space="preserve" style="fill-rule:evenodd;clip-rule:evenodd;stroke-linejoin:round;stroke-miterlimit:2;"><g id="ocampro" transform="matrix(0.0258204,0,0,0.0258204,32.7395,7.80007)"><g transform="matrix(1,0,0,1,-1134.96,-284.006)"><path d="M316.8,522C317,521.9 317.3,521.7 317.5,521.6L411.8,467.2C415.8,464.9 418.2,460.7 418.2,456.1L418.2,127.4C418.2,122.8 415.8,118.6 411.8,116.3L247.1,21.3C227.7,10.1 203.8,10.1 184.3,21.3L114.8,61.3C114.6,61.4 114.4,61.5 114.2,61.6L19.3,116.4C15.3,118.7 12.9,122.9 12.9,127.5L12.9,456C12.9,460.6 15.4,464.8 19.3,467.1L113.6,521.5C113.8,521.7 114.1,521.8 114.3,521.9L184.1,562.2C203.5,573.4 227.5,573.4 246.9,562.2L316.7,521.9L316.8,522Z" style="fill:white;fill-rule:nonzero;"/></g><g transform="matrix(1,0,0,1,-1134.96,-284.006)"><path d="M323.18,531.734C323.015,531.829 322.849,531.916 322.698,531.996L321.996,532.392C321.671,532.555 321.34,532.701 321.003,532.832L252.709,572.262C229.72,585.534 201.28,585.534 178.291,572.262L109.099,532.301C109.195,532.349 109.305,532.391 109.417,532.441L105.384,529.716L107.794,531.564L13.494,477.164L13.398,477.108C5.99,472.739 1.281,464.738 1.281,456L1.281,127.5C1.281,118.722 5.876,110.716 13.49,106.338L108.39,51.538C108.591,51.422 108.796,51.312 109.004,51.208L109.3,51.06L178.509,11.227C201.609,-2.041 229.927,-2.03 252.905,11.235L417.592,106.228C425.224,110.616 429.819,118.622 429.819,127.4L429.819,456.1C429.819,464.878 425.224,472.884 417.606,477.264L323.306,531.664C323.264,531.688 323.222,531.71 323.18,531.734ZM315.28,533.52C313.253,533.253 311.371,532.461 309.794,531.269C311.933,532.915 313.978,533.398 315.28,533.52ZM308.487,530.118C310.582,532.21 313.452,533.481 316.576,533.525L308.487,530.118C307.049,528.647 305.991,526.783 305.492,524.669C304.296,519.604 306.617,514.388 311.12,511.866C311.285,511.772 311.451,511.685 311.602,511.604L311.697,511.54L312.299,511.199L406.008,457.128C406.376,456.916 406.581,456.522 406.581,456.1L406.581,127.4C406.581,126.978 406.376,126.584 406.008,126.372L241.291,31.362C225.474,22.231 205.987,22.243 190.088,31.375L120.596,71.37C120.399,71.483 120.199,71.591 119.996,71.692L119.708,71.836L25.092,126.472C24.724,126.684 24.519,127.078 24.519,127.5L24.519,456C24.519,456.46 24.807,456.856 25.195,457.087L119.4,511.448L119.496,511.508C119.704,511.611 119.904,511.728 120.101,511.851L189.911,552.139C205.721,561.265 225.279,561.265 241.091,552.138L310.891,511.838C306.336,514.467 304.116,519.828 305.477,524.907C306.02,526.932 307.078,528.711 308.487,530.118Z" style="fill:rgb(25,46,81);"/></g><g transform="matrix(1,0,0,1,-1134.96,-284.006)"><path d="M310.4,291.4L215.6,346.2L215.6,262.9C215.6,248.4 225.7,230.8 238.3,223.6L306.7,184.1C308.8,182.9 310.4,183.9 310.4,186.2L310.4,291.4Z" style="fill:white;fill-rule:nonzero;"/></g><g transform="matrix(1,0,0,1,-1134.96,-284.006)"><path d="M311.757,293.747L216.957,348.547C216.118,349.032 215.084,349.032 214.245,348.548C213.406,348.064 212.889,347.169 212.889,346.2L212.889,262.9C212.889,247.531 223.599,228.878 236.944,221.252L305.355,181.746C306.274,181.221 307.148,180.966 307.927,180.898L309.34,180.975L310.706,181.497L311.826,182.426L312.581,183.602C312.906,184.309 313.111,185.18 313.111,186.2L313.111,291.4C313.111,292.368 312.595,293.263 311.757,293.747ZM307.689,186.66L239.65,225.951C227.806,232.719 218.311,249.269 218.311,262.9L218.311,341.502L307.689,289.835L307.689,186.66Z" style="fill:rgb(25,46,80);"/></g><g transform="matrix(1,0,0,1,-1134.96,-284.006)"><path d="M310.4,402.7L216.9,456.7C216.1,457.1 215.5,456.7 215.5,455.9L215.5,348L310.3,293.2L310.3,402.7L310.4,402.7Z" style="fill:rgb(25,46,80);fill-rule:nonzero;"/></g><g transform="matrix(1,0,0,1,-1134.96,-284.006)"><path d="M310.4,182.3L240.6,142C225.1,133.1 206.1,133.1 190.6,142L145.8,167.9C130.3,176.8 120.8,193.3 120.8,211.2L120.8,401L215,455.4C215.3,455.6 215.6,455.4 215.6,455.1L215.6,266C215.6,248.1 225.1,231.6 240.6,222.7L310.4,182.3Z" style="fill:white;fill-rule:nonzero;"/></g><g transform="matrix(1,0,0,1,-1134.96,-284.006)"><path d="M213.648,457.741L213.495,457.658L119.444,403.348C118.606,402.863 118.089,401.968 118.089,401L118.089,211.2C118.089,192.327 128.108,174.933 144.443,165.553L189.247,139.651C205.584,130.27 225.616,130.27 241.953,139.651L311.756,179.952C312.594,180.436 313.111,181.331 313.111,182.299C313.112,183.267 312.596,184.161 311.758,184.646L241.954,225.049C227.296,233.465 218.311,249.073 218.311,266L218.311,455.1L218.21,455.89L217.906,456.64L217.406,457.296L216.729,457.807L215.915,458.117L215.04,458.185L214.206,458.012L213.648,457.741ZM212.889,451.051L212.889,266C212.889,247.127 222.908,229.733 239.242,220.354L304.983,182.303L239.249,144.35C224.586,135.932 206.614,135.932 191.951,144.35L147.15,170.251C132.492,178.667 123.511,194.273 123.511,211.2L123.511,399.435L212.889,451.051Z" style="fill:rgb(25,46,80);"/></g><g transform="matrix(1,0,0,1,-1134.96,-284.006)"><path d="M410.3,243.1L310.5,185.5L310.5,403.1L410.2,460.7L410.2,243.1L410.3,243.1Z" style="fill:rgb(25,46,80);fill-rule:nonzero;"/></g><g transform="matrix(1,0,0,1,-1134.96,-284.006)"><rect x="306.4" y="291.1" width="13.2" height="110" style="fill:rgb(25,46,80);"/></g><g transform="matrix(1,0,0,1,-1134.96,-284.006)"><path d="M316.4,182.2L410.3,234L410.3,251.2L306.7,184L316.4,182.2Z" style="fill:rgb(25,46,80);fill-rule:nonzero;"/></g></g></svg>