<svg width="100%" height="100%" viewBox="0 0 18 16" version="1.1" xmlns="http://www.w3.org/2000/svg" xmlns:xlink="http://www.w3.org/1999/xlink" xml:space="preserve" style="fill-rule:evenodd;clip-rule:evenodd;stroke-linejoin:round;stroke-miterlimit:2;"><g id="ocaml" transform="matrix(0.090606,0,0,0.090606,1.5,1.46381)"><path d="M86.085,127C85.876,125.576 86.282,124.159 85.853,122.823C85.486,121.657 84.644,121.55 84.091,120.602C82.634,118.115 81.128,114.893 80.989,111.848C80.862,109.113 79.856,106.642 79.719,103.931C79.653,102.623 79.807,101.274 79.76,99.979C79.735,99.349 79.699,98.803 79.574,98.119C79.543,97.95 79.431,97.254 79.379,96.975L79.719,96.127C79.569,95.836 82.621,95.933 83.531,95.939C85.076,95.958 86.529,96.038 88.07,96.112C91.218,96.268 94.086,96.229 97.152,95.756C103.984,94.701 107.125,91.911 108.732,90.751C115.005,86.228 117.878,78.833 117.878,78.833C118.913,76.523 118.909,72.402 121.128,70.557C123.743,68.378 128.134,68.535 131.136,67.198C132.892,66.421 134.159,65.993 135.954,66.365C137.286,66.643 139.684,68.186 140.235,66.02C139.79,65.733 139.616,65.208 139.378,64.917C141.853,64.672 139.425,58.931 138.446,57.784C136.934,56.014 134.411,55.203 131.727,54.491C128.539,53.646 125.647,52.671 122.645,53.26C117.403,54.286 117.795,51.286 114.706,51.286C110.999,51.286 104.403,51.468 103.263,55.072C102.732,56.755 102.185,56.825 101.265,58.116C100.478,59.222 101.402,60.198 101.007,61.46C100.599,62.757 100,67.325 99.375,68.919C98.318,71.616 97.058,74.984 94.732,74.984C91.471,75.374 88.908,75.499 86.263,74.539C84.671,73.961 82.003,73.056 80.683,72.5C74.595,69.937 73.595,67.133 73.595,67.133C72.942,66.053 71.221,64.312 70.577,62.04C69.869,59.538 68.674,57.451 68.19,56.149C67.689,54.8 66.491,52.639 65.55,50.303C64.345,47.312 62.65,45.08 61.409,43.972C59.513,42.282 57.763,39.666 53.914,40.426C53.226,40.562 50.726,40.675 48.81,42.282C47.511,43.372 47.101,45.621 45.898,47.518C45.203,48.614 43.981,51.758 42.86,54.381C42.083,56.199 41.721,57.562 40.881,58.231C40.224,58.755 39.41,59.432 38.425,59.063C37.814,58.834 37.161,58.446 36.502,57.931C35.612,57.236 33.589,53.793 32.346,51.25C31.269,49.045 28.97,45.748 27.64,43.963C25.726,41.395 24.604,40.744 21.776,40.744C15.709,40.744 15.25,44.141 12.581,49.081C11.409,51.251 10.982,54.695 8.629,57.394C7.284,58.938 2.992,65.287 0.008,66.366L0.008,66.335L0,66.366L0,111.623L0.008,111.686L0.008,111.402C0.201,110.812 0.406,110.246 0.639,109.74C1.793,107.281 4.471,104.999 5.959,102.474C6.768,101.098 7.691,99.75 8.227,98.306C8.688,97.062 8.915,95.207 9.581,94.128C10.397,92.805 11.675,92.355 12.987,92.141C15.042,91.802 16.788,95.095 19.417,96.307C20.538,96.822 25.698,98.649 27.247,99.024C29.798,99.634 32.628,100.143 35.218,100.666C36.605,100.946 37.931,101.109 39.359,101.254C40.64,101.382 45.439,101.541 45.736,101.888C43.297,103.132 41.867,106.624 40.951,109.095C39.996,111.67 39.33,114.536 38.176,117.055C36.897,119.838 34.215,120.996 34.535,124.239C34.658,125.533 34.894,126.89 34.678,128.314C34.448,129.813 33.842,130.983 33.401,132.451C32.835,134.366 32.161,140.551 31.288,142.369L36.625,141.7L36.634,141.697C37.217,140.311 37.754,134.46 37.943,133.903C38.941,130.969 40.265,128.555 42.302,126.286C44.288,124.075 44.185,121.225 45.345,118.649C46.601,115.849 48.29,113.61 49.884,110.978C52.765,106.219 54.665,100.211 60.79,98.989C61.444,98.854 65.194,101.558 66.858,103.166C68.764,104.998 70.846,107.12 72.098,109.646C74.522,114.542 76.578,121.634 77.356,125.545C77.803,127.791 78.159,127.925 79.678,129.704C80.377,130.519 81.772,133.066 82.231,134.044C82.713,135.088 83.446,137.464 84.03,138.677C84.374,139.399 85.266,141.617 85.915,143.533L90.902,143.377C90.92,143.419 91.011,143.365 91.032,143.404C91.034,143.404 91.037,143.403 91.039,143.402C91.018,143.364 90.999,143.32 90.981,143.279C88.496,138.292 86.906,132.522 86.085,127Z" style="fill:white;fill-rule:nonzero;"/><path d="M82.919,97.901L82.942,97.84C82.908,97.686 82.896,97.651 82.919,97.901Z" style="fill:rgb(72,68,68);fill-rule:nonzero;"/><g><g><path d="M82.919,97.901L82.942,97.84C82.908,97.686 82.896,97.651 82.919,97.901Z" style="fill:url(#_Linear1);fill-rule:nonzero;"/><g><path d="M84.031,138.674C83.447,137.461 82.715,135.085 82.232,134.041C81.773,133.063 80.378,130.517 79.679,129.701C78.159,127.922 77.804,127.788 77.357,125.542C76.58,121.631 74.523,114.538 72.099,109.643C70.847,107.117 68.765,104.995 66.859,103.163C65.195,101.556 61.445,98.851 60.791,98.986C54.666,100.209 52.766,106.216 49.885,110.975C48.291,113.607 46.602,115.846 45.346,118.646C44.186,121.221 44.289,124.072 42.303,126.283C40.266,128.553 38.942,130.967 37.944,133.9C37.755,134.457 37.218,140.308 36.635,141.694C36.635,141.695 36.634,141.696 36.634,141.697L45.738,141.056C54.22,141.634 51.771,144.885 65.011,144.177L85.917,143.53C85.267,141.614 84.375,139.396 84.031,138.674Z" style="fill:url(#_Linear2);fill-rule:nonzero;"/></g><g><g><path d="M144.695,0L20.865,0C9.347,0 0.01,9.339 0.01,20.857L0.01,66.364C2.994,65.285 7.286,58.936 8.631,57.392C10.984,54.692 11.411,51.248 12.583,49.079C15.252,44.139 15.711,40.742 21.778,40.742C24.606,40.742 25.729,41.394 27.642,43.961C28.973,45.746 31.272,49.044 32.348,51.248C33.59,53.792 35.614,57.234 36.504,57.929C37.163,58.445 37.816,58.832 38.427,59.061C39.411,59.43 40.225,58.753 40.883,58.229C41.723,57.56 42.085,56.197 42.862,54.379C43.984,51.756 45.205,48.613 45.9,47.516C47.103,45.62 47.513,43.37 48.812,42.28C50.728,40.673 53.228,40.56 53.916,40.424C57.765,39.664 59.515,42.28 61.411,43.97C62.652,45.078 64.348,47.31 65.552,50.301C66.493,52.637 67.691,54.798 68.192,56.147C68.676,57.449 69.871,59.536 70.579,62.038C71.222,64.31 72.943,66.051 73.597,67.131C73.597,67.131 74.598,69.935 80.685,72.498C82.005,73.054 84.673,73.958 86.265,74.537C88.91,75.498 91.472,75.373 94.734,74.982C97.06,74.982 98.32,71.614 99.377,68.917C100.002,67.323 100.601,62.755 101.009,61.458C101.404,60.196 100.48,59.22 101.267,58.114C102.187,56.823 102.734,56.753 103.265,55.07C104.406,51.466 111.001,51.284 114.708,51.284C117.798,51.284 117.405,54.284 122.647,53.258C125.649,52.669 128.542,53.645 131.729,54.489C134.413,55.201 136.936,56.012 138.448,57.782C139.427,58.928 141.854,64.67 139.38,64.915C139.618,65.206 139.792,65.731 140.237,66.018C139.686,68.184 137.288,66.641 135.956,66.363C134.161,65.991 132.894,66.419 131.138,67.196C128.136,68.533 123.745,68.377 121.13,70.555C118.911,72.401 118.915,76.522 117.88,78.831C117.88,78.831 115.007,86.225 108.734,90.749C107.127,91.909 103.986,94.699 97.154,95.754C94.088,96.228 91.22,96.267 88.072,96.11C86.531,96.036 85.078,95.957 83.533,95.937C82.623,95.93 79.57,95.833 79.721,96.125L79.381,96.973C79.434,97.252 79.545,97.949 79.576,98.117C79.701,98.802 79.736,99.348 79.762,99.977C79.809,101.272 79.655,102.622 79.721,103.929C79.858,106.64 80.864,109.111 80.991,111.846C81.13,114.891 82.636,118.113 84.093,120.6C84.646,121.547 85.488,121.655 85.855,122.821C86.285,124.157 85.878,125.574 86.087,126.998C86.907,132.519 88.497,138.29 90.983,143.273C91,143.314 91.02,143.359 91.041,143.396C91.041,143.396 91.041,143.397 91.042,143.398C94.112,142.882 97.188,141.778 101.177,141.188C108.491,140.103 118.663,140.662 125.197,140.05C141.73,138.496 150.703,146.831 165.552,143.415L165.552,20.858C165.55,9.339 156.216,0 144.695,0ZM82.919,97.901C82.896,97.651 82.907,97.686 82.942,97.84L82.919,97.901Z" style="fill:url(#_Linear3);fill-rule:nonzero;"/></g></g><g><path d="M38.175,117.053C39.329,114.535 39.995,111.668 40.95,109.093C41.866,106.622 43.296,103.13 45.735,101.886C45.438,101.539 40.639,101.38 39.358,101.252C37.93,101.107 36.604,100.944 35.217,100.664C32.627,100.141 29.797,99.633 27.246,99.022C25.697,98.647 20.537,96.82 19.416,96.305C16.787,95.093 15.041,91.8 12.986,92.139C11.674,92.353 10.396,92.803 9.58,94.126C8.914,95.205 8.687,97.059 8.226,98.304C7.691,99.748 6.767,101.096 5.958,102.472C4.47,104.996 1.792,107.279 0.638,109.738C0.406,110.244 0.2,110.81 0.007,111.4L0.007,139.513C1.353,139.743 2.761,140.026 4.337,140.447C15.968,143.551 18.806,143.813 30.214,142.509L31.284,142.367L31.284,142.366C32.157,140.548 32.831,134.363 33.397,132.448C33.838,130.98 34.444,129.81 34.674,128.311C34.891,126.887 34.654,125.53 34.531,124.236C34.214,120.994 36.896,119.836 38.175,117.053Z" style="fill:url(#_Linear4);fill-rule:nonzero;"/></g></g></g></g><defs><linearGradient id="_Linear1" x1="0" y1="0" x2="1" y2="0" gradientUnits="userSpaceOnUse" gradientTransform="matrix(1.11504e-17,0.1821,-0.1821,1.11504e-17,82.9246,97.7184)"><stop offset="0" style="stop-color:rgb(242,145,0);stop-opacity:1"/><stop offset="1" style="stop-color:rgb(236,103,15);stop-opacity:1"/></linearGradient><linearGradient id="_Linear2" x1="0" y1="0" x2="1" y2="0" gradientUnits="userSpaceOnUse" gradientTransform="matrix(2.77359e-15,45.2962,-45.2962,2.77359e-15,61.2755,98.981)"><stop offset="0" style="stop-color:rgb(242,145,0);stop-opacity:1"/><stop offset="1" style="stop-color:rgb(236,103,15);stop-opacity:1"/></linearGradient><linearGradient id="_Linear3" x1="0" y1="0" x2="1" y2="0" gradientUnits="userSpaceOnUse" gradientTransform="matrix(8.83245e-15,144.245,-144.245,8.83245e-15,82.7809,-0.0002)"><stop offset="0" style="stop-color:rgb(242,145,0);stop-opacity:1"/><stop offset="1" style="stop-color:rgb(236,103,15);stop-opacity:1"/></linearGradient><linearGradient id="_Linear4" x1="0" y1="0" x2="1" y2="0" gradientUnits="userSpaceOnUse" gradientTransform="matrix(3.13107e-15,51.1343,-51.1343,3.13107e-15,22.871,92.1144)"><stop offset="0" style="stop-color:rgb(242,145,0);stop-opacity:1"/><stop offset="1" style="stop-color:rgb(236,103,15);stop-opacity:1"/></linearGradient></defs></svg>