<svg width="100%" height="100%" viewBox="0 0 18 16" version="1.1" xmlns="http://www.w3.org/2000/svg" xmlns:xlink="http://www.w3.org/1999/xlink" xml:space="preserve" style="fill-rule:evenodd;clip-rule:evenodd;stroke-linejoin:round;stroke-miterlimit:2;"><g id="onnx-light" transform="matrix(0.292398,0,0,0.292398,29.0565,5.73302)"><g transform="matrix(1,0,0,1,-95.0969,-17.9969)"><path d="M50.8,24.2L50.5,24.2L41.6,8C41.8,7.7 41.8,7.4 41.8,7C41.8,5.8 40.8,4.9 39.7,4.9C39.1,4.9 38.5,5.2 38.2,5.6L20.6,2C20.5,0.9 19.6,0.1 18.5,0.1C17.3,0.1 16.4,1.1 16.4,2.2C16.4,2.6 16.5,2.9 16.6,3.2L2.9,22.9C2.7,22.9 2.5,22.8 2.3,22.8C1.1,22.8 0.2,23.8 0.2,24.9C0.2,26.1 1.2,27 2.3,27L2.4,27L9.8,45.3C9.7,45.6 9.6,45.9 9.6,46.2C9.6,47.4 10.6,48.3 11.7,48.3C12.3,48.3 12.9,48 13.2,47.6L35.4,49.8C35.6,50.7 36.5,51.4 37.5,51.4C38.7,51.4 39.6,50.4 39.6,49.3C39.6,48.8 39.4,48.3 39.1,47.9L50.3,28.4L50.7,28.4C51.9,28.4 52.8,27.4 52.8,26.3C52.9,25.2 52,24.2 50.8,24.2ZM38,8.3C38.3,8.6 38.6,8.9 39,9L35.6,34.4C35.4,34.4 35.2,34.5 35,34.6L16.5,18.6C16.5,18.4 16.6,18.2 16.6,18L16.6,17.6L38,8.3ZM48.7,27L37.3,34.8C37.2,34.7 37.1,34.7 37,34.6L40.5,9L49.2,25C48.9,25.4 48.7,25.9 48.7,26.4C48.6,26.6 48.7,26.8 48.7,27ZM14.2,15.9C13.2,16.1 12.4,16.9 12.4,18L12.4,18.1L4.8,22.6L16.6,5.7L14.2,15.9ZM15,20.1C15.3,20 15.6,19.9 15.8,19.8L34.1,35.7C34,35.9 34,36.2 34,36.5L34,36.6L13.5,45C13.2,44.6 12.7,44.2 12.2,44.1L15,20.1ZM34.5,37.9C34.8,38.2 35.2,38.4 35.6,38.5L36.6,47.4C36.2,47.6 35.8,48 35.6,48.4L14.1,46.3L34.5,37.9ZM37.1,38.4C37.8,38.1 38.3,37.3 38.3,36.5C38.3,36.3 38.3,36.1 38.2,36L48.6,28.9L38.1,47.1L37.1,38.4ZM37.6,6.9L15.9,16.4C15.8,16.3 15.7,16.3 15.7,16.2L18.5,4.4L18.6,4.4C19.4,4.4 20,4 20.4,3.4L37.6,6.9ZM4.5,24.9L4.5,24.5L13.1,19.4C13.3,19.6 13.5,19.7 13.7,19.8L10.9,43.8L3.9,26.5C4.2,26.1 4.5,25.6 4.5,24.9Z" style="fill:white;fill-rule:nonzero;"/></g><g transform="matrix(1,0,0,1,-95.0969,-17.9969)"><path d="M40.5,9L49.2,25C48.9,25.4 48.7,25.9 48.7,26.4C48.7,26.6 48.7,26.8 48.8,27L37.4,34.8C37.3,34.7 37.2,34.7 37.1,34.6L40.5,9" style="fill:rgb(84,85,84);fill-rule:nonzero;"/></g><g transform="matrix(1,0,0,1,-95.0969,-17.9969)"><path d="M37.1,38.4C37.8,38.1 38.3,37.3 38.3,36.5C38.3,36.3 38.3,36.1 38.2,36L48.6,28.9L38.1,47.1L37.1,38.4Z" style="fill:rgb(62,62,61);fill-rule:nonzero;"/></g><g transform="matrix(1,0,0,1,-95.0969,-17.9969)"><path d="M34.5,37.9C34.8,38.2 35.2,38.4 35.6,38.5L36.6,47.4C36.2,47.6 35.8,48 35.6,48.4L14.1,46.3L34.5,37.9Z" style="fill:rgb(77,76,77);fill-rule:nonzero;"/></g><g transform="matrix(1,0,0,1,-95.0969,-17.9969)"><path d="M15,20.1C15.3,20 15.6,19.9 15.8,19.8L34.1,35.7C34,35.9 34,36.2 34,36.5L34,36.6L13.5,45C13.2,44.6 12.7,44.2 12.2,44.1L15,20.1Z" style="fill:rgb(93,93,93);fill-rule:nonzero;"/></g><g transform="matrix(1,0,0,1,-95.0969,-17.9969)"><path d="M4.5,24.9L4.5,24.5L13.1,19.4C13.3,19.6 13.5,19.7 13.7,19.8L10.9,43.8L3.9,26.5C4.2,26.1 4.5,25.6 4.5,24.9Z" style="fill:rgb(77,76,77);fill-rule:nonzero;"/></g><g transform="matrix(1,0,0,1,-95.0969,-17.9969)"><path d="M14.2,15.9C13.2,16.1 12.4,16.9 12.4,18L12.4,18.1L4.8,22.6L16.6,5.7L14.2,15.9Z" style="fill:rgb(62,62,61);fill-rule:nonzero;"/></g><g transform="matrix(1,0,0,1,-95.0969,-17.9969)"><path d="M37.6,6.9L15.9,16.4C15.8,16.3 15.7,16.3 15.7,16.2L18.5,4.4L18.6,4.4C19.4,4.4 20,4 20.4,3.4L37.6,6.9Z" style="fill:rgb(84,85,84);fill-rule:nonzero;"/></g><g transform="matrix(1,0,0,1,-95.0969,-17.9969)"><path d="M38,8.3C38.3,8.6 38.6,8.9 39,9L35.6,34.4C35.4,34.4 35.2,34.5 35,34.6L16.5,18.6C16.5,18.4 16.6,18.2 16.6,18L16.6,17.6L38,8.3Z" style="fill:rgb(113,114,114);fill-rule:nonzero;"/></g></g></svg>