<svg width="100%" height="100%" viewBox="0 0 18 16" version="1.1" xmlns="http://www.w3.org/2000/svg" xmlns:xlink="http://www.w3.org/1999/xlink" xml:space="preserve" style="fill-rule:evenodd;clip-rule:evenodd;stroke-linejoin:round;stroke-miterlimit:2;"><g id="opa" transform="matrix(0.223605,0,0,0.223605,8.34713,6.44323)"><g transform="matrix(3.405,0,0,3.68709,-22.7101,-15.2308)"><ellipse cx="7.527" cy="6.019" rx="9.851" ry="9.097" style="fill:white;"/></g><g transform="matrix(1,0,0,1,-25.0803,-21.0379)"><path d="M52.5,16.917C52.5,12.25 43.75,1.75 43.167,1.167C45.265,10.611 45.004,9.201 45.355,12.217C45.448,13.012 45.487,13.837 45.169,14.572C43.712,17.937 38.499,19.832 38.499,19.832L46.665,26.832C46.665,26.832 52.5,21 52.5,16.918L52.5,16.917ZM3.5,16.917C3.5,12.25 12.25,1.75 12.833,1.167C10.735,10.611 10.995,9.201 10.645,12.217C10.552,13.012 10.513,13.837 10.831,14.572C12.288,17.937 17.501,19.832 17.501,19.832L9.335,26.832C9.335,26.832 3.5,21 3.5,16.918L3.5,16.917Z" style="fill:rgb(191,191,191);fill-rule:nonzero;"/></g><g transform="matrix(1,0,0,1,-25.0803,-21.0379)"><path d="M28,12.25C37.144,12.25 43.784,18.677 46.667,26.833L46.667,40.833C46.667,40.833 40.833,43.167 37.333,45.5C33.833,47.833 28.583,54.833 28.583,54.833L28,54.833L28,12.25Z" style="fill:rgb(86,99,102);fill-rule:nonzero;"/></g><g transform="matrix(1,0,0,1,-25.0803,-21.0379)"><path d="M28,12.25C18.856,12.25 12.216,18.677 9.333,26.833L9.333,40.833C9.333,40.833 15.167,43.167 18.667,45.5C22.167,47.833 27.417,54.833 27.417,54.833L28,54.833L28,12.25Z" style="fill:rgb(125,145,153);fill-rule:nonzero;"/></g><g transform="matrix(1,0,0,1,-25.0803,-21.0379)"><circle cx="28" cy="26.833" r="2.333" style="fill:white;"/></g></g></svg>