<svg width="100%" height="100%" viewBox="0 0 18 16" version="1.1" xmlns="http://www.w3.org/2000/svg" xmlns:xlink="http://www.w3.org/1999/xlink" xml:space="preserve" style="fill-rule:evenodd;clip-rule:evenodd;stroke-linejoin:round;stroke-miterlimit:2;"><g id="opam"><g transform="matrix(1.02615,0,0,1.16236,-0.168178,-2.24074)"><path d="M12.758,13.704C12.172,13.924 12.005,13.925 11.106,13.925L3.07,13.925C2.39,13.925 1.839,13.438 1.839,12.838L1.839,5.953C1.839,5.463 2.569,4.757 2.936,4.614C3.756,4.295 5.784,3.504 6.16,3.36C6.333,3.294 6.632,3.209 6.834,3.209L15.49,3.209C15.916,3.209 16.196,3.421 16.196,3.849C16.196,11.762 16.196,11.665 16.196,11.665C16.196,12.229 15.943,12.503 15.377,12.718C15.377,12.718 13.452,13.444 12.758,13.704Z" style="fill:white;"/></g><g transform="matrix(1.02615,0,0,1.16236,-0.168178,-2.24074)"><path d="M16.196,4.31L16.196,11.665C16.196,12.229 15.943,12.503 15.377,12.718C15.377,12.718 13.653,13.368 12.88,13.658C12.582,13.626 12.524,13.288 12.524,13.027C12.524,12.72 12.478,6.037 12.49,5.566C12.502,5.095 12.799,4.771 12.986,4.691C13.174,4.611 15.277,3.796 15.549,3.694C15.82,3.593 15.929,3.661 16.037,3.746C16.089,3.787 16.149,4.05 16.196,4.31Z" style="fill:rgb(246,144,30);"/></g><path d="M4.23,2.544C4.23,2.544 2.988,3.094 2.857,3.168C2.725,3.242 2.701,3.372 2.974,3.375C3.247,3.378 10.323,3.371 10.954,3.367C11.585,3.364 12.303,3.308 12.746,3.114C13.189,2.921 14.02,2.539 14.02,2.539L4.23,2.544Z" style="fill:rgb(245,142,30);"/><path d="M4.678,2.37C4.678,2.37 5.184,2.133 5.818,1.84C6.348,1.596 6.841,1.537 7.389,1.536C8.723,1.533 15.018,1.516 15.52,1.519C16.022,1.522 16.105,1.611 15.889,1.714C15.673,1.818 14.478,2.369 14.478,2.369L4.678,2.37Z" style="fill:rgb(245,129,30);"/><path d="M1.719,11.992C1.719,11.992 2.036,12.043 2.443,12.191C2.85,12.339 3.201,12.488 3.417,12.486C3.633,12.484 3.723,12.483 3.723,12.483C3.723,12.483 3.84,12.16 3.863,12.082C3.886,12.003 3.949,11.883 3.948,11.792C3.946,11.7 3.924,11.66 3.921,11.569C3.917,11.477 4.018,11.375 4.049,11.328C4.08,11.28 4.197,11.171 4.213,11.079C4.229,10.988 4.282,10.781 4.362,10.569C4.442,10.357 4.644,10.15 4.644,10.15C4.644,10.15 4,10.159 3.334,9.958C3.134,9.898 2.994,9.864 2.906,9.802C2.713,9.665 2.749,9.544 2.536,9.54C2.399,9.537 2.335,9.575 2.298,9.754C2.26,9.932 2.213,10.087 2.015,10.328C1.817,10.57 1.707,10.702 1.707,10.702L1.719,11.992Z" style="fill:url(#_Linear-29povif);"/><path d="M4.039,12.44C4.039,12.44 4.099,12.33 4.129,12.231C4.159,12.132 4.178,12.067 4.178,12.067C4.178,12.067 4.293,11.875 4.377,11.786C4.462,11.698 4.523,11.617 4.531,11.537C4.539,11.457 4.571,11.322 4.617,11.22C4.664,11.117 5.106,10.398 5.215,10.251C5.324,10.104 5.525,9.958 5.587,9.959C5.648,9.96 5.855,10.107 5.98,10.221C6.105,10.335 6.311,10.55 6.419,10.843C6.527,11.136 6.65,11.468 6.664,11.593C6.678,11.718 6.66,11.783 6.713,11.833C6.766,11.883 6.873,11.952 6.951,12.132C7.029,12.311 7.139,12.571 7.178,12.655C7.218,12.739 7.229,12.859 7.229,12.859C7.229,12.859 6.994,12.829 6.607,12.546C6.22,12.263 5.891,12.039 5.401,12.012C5.098,11.996 4.812,12.174 4.502,12.306C4.191,12.437 4.039,12.44 4.039,12.44Z" style="fill:url(#_Linear-q7fkf9j);"/><path d="M7.556,12.831C7.556,12.831 7.43,12.529 7.369,12.363C7.308,12.198 7.306,12.067 7.291,12.016C7.277,11.965 7.23,11.913 7.232,11.813C7.234,11.712 7.278,11.568 7.239,11.509C7.2,11.451 7.109,11.356 7.032,11.199C6.954,11.043 6.922,10.901 6.91,10.762C6.897,10.623 6.819,10.407 6.811,10.25C6.803,10.093 6.828,9.767 6.828,9.767C6.828,9.767 7.231,9.822 7.585,9.803C7.94,9.783 8.438,9.733 8.81,9.494C9.182,9.256 9.155,9.196 9.341,9.012C9.527,8.827 9.688,8.781 9.745,8.61C9.803,8.44 9.815,8.451 9.832,8.352C9.849,8.253 9.932,8.175 10.058,8.114C10.185,8.053 10.412,7.973 10.506,7.939C10.6,7.904 10.591,7.851 10.751,7.85C10.911,7.849 10.908,7.881 10.928,7.899C10.948,7.918 11,7.918 11.051,7.917C11.101,7.916 11.134,7.907 11.134,7.878C11.134,7.807 11.09,7.86 11.09,7.789C11.09,7.759 11.158,7.798 11.145,7.704C11.131,7.61 11.12,7.373 10.961,7.276C10.802,7.179 10.67,7.134 10.456,7.115C10.242,7.095 9.926,7.037 9.791,6.998C9.656,6.96 9.607,6.93 9.405,6.944C9.202,6.958 9.134,7.022 9.083,7.152C9.033,7.283 8.975,7.263 8.94,7.382C8.905,7.5 8.779,7.95 8.548,8.243C8.317,8.535 8.24,8.623 7.993,8.628C7.747,8.633 7.479,8.525 7.218,8.323C6.958,8.121 6.696,7.858 6.47,7.643C6.244,7.429 6.106,7.268 5.98,7.179C5.854,7.09 5.728,7.046 5.633,6.933C5.538,6.821 5.534,6.691 5.284,6.459C5.2,6.382 5.111,6.372 5.044,6.339C4.912,6.272 4.82,6.232 4.708,6.23C4.538,6.227 4.47,6.348 4.427,6.429C4.384,6.51 4.282,6.863 4.108,6.865C3.933,6.868 3.843,6.872 3.781,6.87C3.718,6.868 3.496,6.794 3.349,6.679C3.201,6.563 3.126,6.493 2.998,6.488C2.871,6.484 2.728,6.612 2.589,6.866C2.451,7.12 2.28,7.329 2.142,7.376C2.004,7.423 1.988,7.424 1.897,7.459C1.805,7.494 1.741,7.466 1.741,7.466C1.741,7.466 1.743,5.254 1.733,4.843C1.722,4.433 2.008,4.071 2.212,3.914C2.416,3.757 2.578,3.63 3.233,3.63C3.887,3.631 10.435,3.639 11.079,3.634C11.724,3.63 12.349,4.2 12.345,4.816C12.34,5.432 12.354,12.834 12.354,12.834C12.354,12.834 12.236,12.92 11.822,12.913C11.409,12.906 10.74,12.601 10.018,12.593C9.638,12.589 8.981,12.613 8.439,12.677C7.951,12.734 7.556,12.831 7.556,12.831Z" style="fill:url(#_Linear-b57cprp);"/></g><defs><linearGradient id="_Linear-29povif" x1="0" y1="0" x2="1" y2="0" gradientUnits="userSpaceOnUse" gradientTransform="matrix(-0.324193,1.93539,-1.93539,-0.324193,3.35877,10.1659)"><stop offset="0" style="stop-color:rgb(245,138,31);stop-opacity:1"/><stop offset="1" style="stop-color:rgb(243,119,32);stop-opacity:1"/></linearGradient><linearGradient id="_Linear-q7fkf9j" x1="0" y1="0" x2="1" y2="0" gradientUnits="userSpaceOnUse" gradientTransform="matrix(-0.0608224,1.99555,-1.99555,-0.0608224,5.59273,10.3449)"><stop offset="0" style="stop-color:rgb(246,142,30);stop-opacity:1"/><stop offset="1" style="stop-color:rgb(242,118,32);stop-opacity:1"/></linearGradient><linearGradient id="_Linear-b57cprp" x1="0" y1="0" x2="1" y2="0" gradientUnits="userSpaceOnUse" gradientTransform="matrix(0.151791,8.45572,-8.45572,0.151791,8.12107,4.05496)"><stop offset="0" style="stop-color:rgb(245,143,30);stop-opacity:1"/><stop offset="1" style="stop-color:rgb(241,112,33);stop-opacity:1"/></linearGradient></defs></svg>