<svg width="100%" height="100%" viewBox="0 0 18 16" version="1.1" xmlns="http://www.w3.org/2000/svg" xmlns:xlink="http://www.w3.org/1999/xlink" xml:space="preserve" style="fill-rule:evenodd;clip-rule:evenodd;stroke-linejoin:round;stroke-miterlimit:2;"><g id="openai-dark" transform="matrix(0.900982,0,0,0.900982,-0.0113875,-1.00982)"><path d="M11.248,18.25C10.698,18.25 10.175,18.145 9.68,17.937C9.185,17.728 8.745,17.436 8.36,17.062C7.942,17.205 7.507,17.277 7.056,17.277C6.319,17.277 5.637,17.095 5.01,16.732C4.383,16.369 3.877,15.874 3.492,15.247C3.118,14.62 2.931,13.922 2.931,13.152C2.931,12.833 2.975,12.486 3.063,12.112C2.623,11.705 2.282,11.238 2.04,10.71C1.798,10.171 1.677,9.61 1.677,9.027C1.677,8.432 1.804,7.861 2.057,7.311C2.31,6.761 2.662,6.287 3.113,5.892C3.575,5.485 4.108,5.204 4.713,5.05C4.834,4.423 5.087,3.862 5.472,3.367C5.868,2.861 6.352,2.465 6.924,2.179C7.496,1.893 8.107,1.75 8.756,1.75C9.306,1.75 9.828,1.855 10.323,2.064C10.819,2.273 11.259,2.564 11.644,2.938C12.062,2.795 12.496,2.724 12.947,2.724C13.684,2.724 14.366,2.905 14.993,3.268C15.62,3.631 16.121,4.126 16.495,4.753C16.88,5.38 17.072,6.079 17.072,6.848C17.072,7.168 17.028,7.514 16.94,7.888C17.38,8.295 17.721,8.768 17.963,9.307C18.205,9.835 18.326,10.391 18.326,10.974C18.326,11.568 18.2,12.14 17.947,12.69C17.694,13.24 17.336,13.718 16.874,14.125C16.423,14.521 15.895,14.796 15.29,14.95C15.169,15.577 14.911,16.138 14.515,16.633C14.13,17.139 13.651,17.535 13.079,17.821C12.507,18.107 11.897,18.25 11.248,18.25ZM7.172,16.188C7.722,16.188 8.2,16.072 8.607,15.841L11.71,14.059C11.82,13.982 11.875,13.878 11.875,13.746L11.875,12.326L7.881,14.62C7.639,14.763 7.397,14.763 7.155,14.62L4.037,12.822C4.037,12.855 4.031,12.893 4.02,12.937L4.02,13.135C4.02,13.696 4.152,14.213 4.416,14.686C4.691,15.148 5.071,15.511 5.555,15.775C6.039,16.05 6.578,16.188 7.172,16.188ZM7.337,13.498C7.403,13.531 7.463,13.548 7.518,13.548C7.573,13.548 7.628,13.531 7.683,13.498L8.921,12.789L4.944,10.479C4.702,10.336 4.581,10.121 4.581,9.835L4.581,6.255C4.031,6.497 3.591,6.871 3.261,7.377C2.931,7.872 2.766,8.422 2.766,9.027C2.766,9.566 2.904,10.083 3.179,10.578C3.454,11.073 3.811,11.447 4.251,11.7L7.337,13.498ZM11.248,17.161C11.831,17.161 12.359,17.029 12.832,16.765C13.305,16.501 13.679,16.138 13.954,15.676C14.229,15.214 14.366,14.697 14.366,14.125L14.366,10.561C14.366,10.429 14.311,10.33 14.201,10.264L12.947,9.538L12.947,14.142C12.947,14.428 12.826,14.642 12.584,14.785L9.465,16.584C10.005,16.969 10.599,17.161 11.248,17.161ZM11.875,11.122L11.875,8.878L10.01,7.822L8.129,8.878L8.129,11.122L10.01,12.178L11.875,11.122ZM7.056,5.859C7.056,5.573 7.177,5.358 7.419,5.215L10.538,3.417C9.999,3.032 9.405,2.839 8.756,2.839C8.173,2.839 7.645,2.971 7.172,3.235C6.699,3.499 6.325,3.862 6.05,4.324C5.786,4.786 5.654,5.303 5.654,5.875L5.654,9.423C5.654,9.555 5.709,9.659 5.819,9.736L7.056,10.462L7.056,5.859ZM15.439,13.746C15.989,13.504 16.423,13.13 16.742,12.624C17.072,12.118 17.237,11.568 17.237,10.974C17.237,10.435 17.1,9.918 16.825,9.423C16.549,8.928 16.192,8.554 15.752,8.301L12.666,6.519C12.601,6.475 12.54,6.458 12.485,6.469C12.43,6.469 12.375,6.486 12.32,6.519L11.083,7.212L15.076,9.538C15.197,9.604 15.285,9.692 15.339,9.802C15.406,9.901 15.439,10.022 15.439,10.165L15.439,13.746ZM12.122,5.364C12.364,5.21 12.606,5.21 12.848,5.364L15.983,7.195L15.983,6.898C15.983,6.37 15.851,5.87 15.587,5.396C15.334,4.912 14.966,4.528 14.482,4.242C14.009,3.955 13.459,3.813 12.832,3.813C12.282,3.813 11.803,3.928 11.396,4.159L8.294,5.941C8.184,6.018 8.129,6.122 8.129,6.255L8.129,7.674L12.122,5.364Z" style="fill:rgb(19,19,19);fill-rule:nonzero;"/></g></svg>