<svg width="100%" height="100%" viewBox="0 0 18 16" version="1.1" xmlns="http://www.w3.org/2000/svg" xmlns:xlink="http://www.w3.org/1999/xlink" xml:space="preserve" style="fill-rule:evenodd;clip-rule:evenodd;stroke-linejoin:round;stroke-miterlimit:2;"><g id="openfga" transform="matrix(0.0541941,0,0,0.0541941,32.5064,7.47733)"><g transform="matrix(1,0,0,1,-572.142,-129.493)"><path d="M221.106,0.746L55.69,0.746C24.937,0.746 0.006,25.676 0.006,56.43L0.006,221.846C0.006,252.599 24.937,277.529 55.69,277.529L221.106,277.529C251.859,277.529 276.789,252.599 276.789,221.846L276.789,56.43C276.789,25.676 251.859,0.746 221.106,0.746Z" style="fill-rule:nonzero;"/></g><g transform="matrix(1,0,0,1,-572.142,-129.493)"><path d="M164.514,69.454C164.517,72.888 165.887,76.181 168.324,78.609C170.76,81.037 174.063,82.403 177.508,82.406C180.954,82.403 184.257,81.037 186.693,78.609C189.129,76.181 190.499,72.888 190.503,69.454C190.499,66.02 189.129,62.728 186.693,60.3C184.257,57.872 180.954,56.506 177.508,56.503C174.063,56.506 170.76,57.872 168.324,60.3C165.887,62.728 164.517,66.02 164.514,69.454Z" style="fill:white;fill-rule:nonzero;"/></g><g transform="matrix(1,0,0,1,-572.142,-129.493)"><path d="M86.293,208.74C86.296,212.173 87.666,215.466 90.103,217.894C92.539,220.322 95.842,221.688 99.287,221.691C102.733,221.688 106.036,220.322 108.472,217.894C110.908,215.466 112.278,212.173 112.282,208.74C112.278,205.306 110.908,202.013 108.472,199.585C106.036,197.157 102.733,195.791 99.287,195.788C95.842,195.791 92.539,197.157 90.103,199.585C87.666,202.013 86.296,205.306 86.293,208.74Z" style="fill:white;fill-rule:nonzero;"/></g><g transform="matrix(1,0,0,1,-572.142,-129.493)"><path d="M163.555,139.097C163.558,142.531 164.928,145.823 167.364,148.251C169.801,150.679 173.104,152.045 176.549,152.048C179.994,152.045 183.298,150.679 185.734,148.251C188.17,145.823 189.54,142.531 189.543,139.097C189.54,135.663 188.17,132.371 185.734,129.943C183.298,127.514 179.994,126.149 176.549,126.146C173.104,126.149 169.801,127.514 167.364,129.943C164.928,132.371 163.558,135.663 163.555,139.097Z" style="fill:white;fill-rule:nonzero;"/></g><g transform="matrix(1,0,0,1,-572.142,-129.493)"><path d="M46.191,139.097C46.195,142.531 47.565,145.823 50.001,148.251C52.437,150.679 55.74,152.045 59.186,152.048C62.631,152.045 65.934,150.679 68.371,148.251C70.807,145.823 72.177,142.531 72.18,139.097C72.177,135.663 70.807,132.371 68.371,129.943C65.934,127.514 62.631,126.149 59.186,126.146C55.74,126.149 52.437,127.514 50.001,129.943C47.565,132.371 46.195,135.663 46.191,139.097Z" style="fill:white;fill-rule:nonzero;"/></g><g transform="matrix(1,0,0,1,-572.142,-129.493)"><path d="M110.1,76.727C110.637,75.88 111.373,75.177 112.245,74.679C113.117,74.182 114.099,73.905 115.103,73.872L122.719,73.872C123.724,73.902 124.706,74.179 125.578,74.676C126.451,75.174 127.187,75.878 127.722,76.727C128.914,78.464 130.513,79.885 132.381,80.867C134.249,81.848 136.329,82.361 138.44,82.361C140.373,82.364 142.281,81.936 144.025,81.108C145.77,80.279 147.306,79.072 148.521,77.574C149.752,76.062 150.626,74.293 151.078,72.399C151.531,70.504 151.55,68.533 151.134,66.63C150.608,64.15 149.359,61.881 147.543,60.107C145.727,58.333 143.426,57.133 140.929,56.657C138.376,56.166 135.734,56.447 133.342,57.465C130.951,58.482 128.92,60.189 127.509,62.367C126.949,63.164 126.198,63.809 125.325,64.244C124.451,64.679 123.483,64.891 122.507,64.86L115.24,64.86C114.265,64.885 113.299,64.671 112.426,64.237C111.554,63.802 110.802,63.16 110.238,62.367C108.813,60.213 106.777,58.531 104.389,57.537C102.001,56.542 99.369,56.279 96.831,56.782C94.335,57.261 92.035,58.462 90.22,60.235C88.405,62.009 87.155,64.276 86.625,66.754C86.216,68.658 86.239,70.628 86.691,72.521C87.143,74.415 88.014,76.183 89.239,77.699C90.458,79.196 91.996,80.402 93.742,81.23C95.488,82.058 97.398,82.487 99.332,82.486C101.463,82.48 103.56,81.952 105.438,80.948C107.316,79.944 108.918,78.494 110.1,76.727Z" style="fill:url(#_Linear-zlvblfr);fill-rule:nonzero;"/></g><g transform="matrix(1,0,0,1,-572.142,-129.493)"><path d="M129.656,111.628C130.193,110.782 130.929,110.079 131.801,109.581C132.673,109.083 133.654,108.806 134.659,108.774L142.275,108.774C143.28,108.804 144.262,109.08 145.134,109.578C146.007,110.076 146.743,110.78 147.278,111.628C148.47,113.365 150.069,114.787 151.937,115.768C153.805,116.75 155.885,117.263 157.996,117.263C159.928,117.266 161.837,116.838 163.581,116.01C165.326,115.181 166.862,113.974 168.077,112.476C169.308,110.964 170.182,109.195 170.634,107.3C171.087,105.406 171.106,103.434 170.69,101.531C170.164,99.052 168.915,96.783 167.099,95.009C165.283,93.235 162.982,92.035 160.485,91.559C157.932,91.068 155.29,91.349 152.898,92.367C150.507,93.384 148.476,95.091 147.065,97.268C146.505,98.065 145.754,98.711 144.881,99.146C144.007,99.581 143.039,99.793 142.063,99.761L134.796,99.761C133.821,99.787 132.855,99.573 131.982,99.138C131.11,98.704 130.358,98.061 129.794,97.268C128.369,95.115 126.333,93.433 123.945,92.439C121.557,91.444 118.925,91.181 116.387,91.684C113.891,92.162 111.591,93.364 109.776,95.137C107.961,96.911 106.711,99.178 106.181,101.656C105.772,103.559 105.795,105.529 106.247,107.423C106.699,109.316 107.57,111.085 108.795,112.601C110.014,114.097 111.552,115.304 113.298,116.132C115.044,116.96 116.954,117.389 118.888,117.387C121.019,117.382 123.116,116.854 124.994,115.85C126.872,114.845 128.473,113.396 129.656,111.628Z" style="fill:url(#_Linear-h5txetg);fill-rule:nonzero;"/></g><g transform="matrix(1,0,0,1,-572.142,-129.493)"><path d="M92.649,179.224C91.777,179.722 91.04,180.424 90.504,181.271C89.321,183.038 87.72,184.488 85.842,185.493C83.964,186.497 81.867,187.025 79.735,187.03C77.802,187.032 75.892,186.603 74.146,185.775C72.399,184.947 70.861,183.74 69.642,182.244C68.417,180.728 67.546,178.959 67.094,177.066C66.642,175.172 66.62,173.202 67.028,171.299C67.558,168.821 68.808,166.554 70.624,164.78C72.439,163.006 74.738,161.805 77.234,161.327C79.772,160.824 82.404,161.087 84.792,162.081C87.18,163.076 89.216,164.758 90.641,166.911C91.205,167.704 91.957,168.346 92.83,168.781C93.702,169.216 94.669,169.43 95.644,169.404L102.91,169.404C103.886,169.436 104.855,169.224 105.728,168.789C106.601,168.354 107.352,167.708 107.913,166.911C109.323,164.734 111.354,163.027 113.746,162.009C116.137,160.992 118.779,160.711 121.332,161.202C123.83,161.678 126.131,162.878 127.946,164.652C128.723,165.411 129.396,166.26 129.953,167.178C130.49,167.849 131.168,168.396 131.94,168.781C132.813,169.216 133.779,169.43 134.754,169.404L142.021,169.404C142.997,169.436 143.965,169.224 144.839,168.789C145.712,168.354 146.463,167.708 147.023,166.911C148.434,164.734 150.465,163.027 152.856,162.009C155.248,160.992 157.89,160.711 160.443,161.202C162.94,161.678 165.241,162.878 167.057,164.652C168.873,166.426 170.122,168.695 170.648,171.174C171.064,173.077 171.045,175.049 170.592,176.943C170.14,178.838 169.266,180.607 168.035,182.119C166.82,183.617 165.284,184.824 163.539,185.652C161.795,186.481 159.887,186.909 157.954,186.906C155.843,186.906 153.763,186.393 151.895,185.411C150.027,184.429 148.428,183.008 147.236,181.271C146.701,180.423 145.965,179.719 145.092,179.221C144.22,178.723 143.238,178.447 142.233,178.417L134.617,178.417C133.613,178.449 132.631,178.726 131.759,179.224C130.887,179.722 130.151,180.424 129.614,181.271C128.432,183.038 126.83,184.488 124.952,185.493C123.074,186.497 120.977,187.025 118.846,187.03C116.912,187.032 115.002,186.603 113.256,185.775C111.51,184.947 109.972,183.74 108.753,182.244C108.319,181.707 107.93,181.139 107.588,180.544C107.134,180.017 106.591,179.569 105.982,179.221C105.109,178.723 104.127,178.447 103.123,178.417L95.506,178.417C94.502,178.449 93.521,178.726 92.649,179.224Z" style="fill:url(#_Linear-bmxcsi1);fill-rule:nonzero;"/></g><g transform="matrix(1,0,0,1,-572.142,-129.493)"><path d="M151.356,214.046C150.484,214.543 149.747,215.246 149.211,216.093C148.028,217.86 146.427,219.31 144.549,220.314C142.671,221.319 140.574,221.847 138.443,221.852C136.509,221.854 134.599,221.425 132.853,220.597C131.107,219.768 129.568,218.562 128.35,217.065C127.124,215.55 126.254,213.781 125.801,211.887C125.349,209.994 125.327,208.024 125.736,206.121C126.265,203.643 127.516,201.375 129.331,199.602C131.146,197.828 133.445,196.627 135.941,196.149C138.48,195.646 141.111,195.908 143.499,196.903C145.887,197.898 147.924,199.579 149.348,201.733C149.913,202.526 150.664,203.168 151.537,203.603C152.409,204.038 153.376,204.252 154.351,204.226L161.617,204.226C162.593,204.257 163.562,204.046 164.435,203.611C165.309,203.175 166.06,202.53 166.62,201.733C168.03,199.556 170.062,197.848 172.453,196.831C174.844,195.814 177.487,195.533 180.04,196.024C182.537,196.499 184.838,197.699 186.654,199.474C188.469,201.248 189.719,203.517 190.245,205.996C190.66,207.899 190.641,209.871 190.189,211.765C189.736,213.66 188.862,215.428 187.631,216.941C186.417,218.438 184.88,219.646 183.136,220.474C181.392,221.303 179.483,221.731 177.551,221.727C175.439,221.728 173.359,221.215 171.492,220.233C169.624,219.251 168.025,217.83 166.833,216.093C166.298,215.245 165.562,214.541 164.689,214.043C163.817,213.545 162.835,213.269 161.83,213.238L154.213,213.238C153.209,213.271 152.228,213.548 151.356,214.046Z" style="fill:url(#_Linear-8i6uyha);fill-rule:nonzero;"/></g><g transform="matrix(1,0,0,1,-572.142,-129.493)"><path d="M204.615,139.097C204.618,142.53 205.988,145.823 208.424,148.251C210.86,150.679 214.164,152.045 217.609,152.048C221.054,152.045 224.358,150.679 226.794,148.251C229.23,145.823 230.6,142.53 230.603,139.097C230.6,135.663 229.23,132.37 226.794,129.942C224.358,127.514 221.054,126.148 217.609,126.145C214.164,126.148 210.86,127.514 208.424,129.942C205.988,132.37 204.618,135.663 204.615,139.097Z" style="fill:url(#_Linear-d8qx50v);fill-rule:nonzero;"/></g><g transform="matrix(1,0,0,1,-572.142,-129.493)"><path d="M89.143,148.251C86.707,145.823 85.337,142.53 85.334,139.097C85.337,135.663 86.707,132.37 89.143,129.942C91.58,127.514 94.883,126.148 98.328,126.145C101.773,126.148 105.077,127.514 107.513,129.942C109.949,132.37 111.319,135.663 111.323,139.097C111.319,142.53 109.949,145.823 107.513,148.251C105.077,150.679 101.773,152.045 98.328,152.048C94.883,152.045 91.58,150.679 89.143,148.251Z" style="fill:url(#_Linear-ti3hkac);fill-rule:nonzero;"/></g><g transform="matrix(1,0,0,1,-572.142,-129.493)"><path d="M184.028,104.275C184.031,107.709 185.401,111.001 187.837,113.429C190.274,115.857 193.577,117.223 197.022,117.226C200.468,117.223 203.771,115.857 206.207,113.429C208.643,111.001 210.013,107.709 210.017,104.275C210.013,100.841 208.643,97.548 206.207,95.12C203.771,92.692 200.468,91.327 197.022,91.323C193.577,91.327 190.274,92.692 187.837,95.12C185.401,97.548 184.031,100.841 184.028,104.275Z" style="fill:white;fill-rule:nonzero;"/></g><g transform="matrix(1,0,0,1,-572.142,-129.493)"><path d="M66.778,104.275C66.781,107.709 68.152,111.001 70.588,113.429C73.024,115.857 76.327,117.223 79.772,117.226C83.218,117.223 86.521,115.857 88.957,113.429C91.393,111.001 92.763,107.709 92.767,104.275C92.763,100.841 91.393,97.548 88.957,95.12C86.521,92.692 83.218,91.327 79.772,91.323C76.327,91.327 73.024,92.692 70.588,95.12C68.152,97.548 66.781,100.841 66.778,104.275Z" style="fill:white;fill-rule:nonzero;"/></g><g transform="matrix(1,0,0,1,-572.142,-129.493)"><path d="M184.028,173.918C184.031,177.352 185.401,180.644 187.837,183.073C190.274,185.501 193.577,186.866 197.022,186.87C200.468,186.866 203.771,185.501 206.207,183.073C208.643,180.644 210.013,177.352 210.017,173.918C210.013,170.484 208.643,167.192 206.207,164.764C203.771,162.336 200.468,160.97 197.022,160.967C193.577,160.97 190.274,162.336 187.837,164.764C185.401,167.192 184.031,170.484 184.028,173.918Z" style="fill:white;fill-rule:nonzero;"/></g></g><defs><linearGradient id="_Linear-zlvblfr" x1="0" y1="0" x2="1" y2="0" gradientUnits="userSpaceOnUse" gradientTransform="matrix(134.11,182.027,-182.027,134.11,66.7376,49.0992)"><stop offset="0" style="stop-color:rgb(0,250,255);stop-opacity:1"/><stop offset="1" style="stop-color:rgb(139,255,149);stop-opacity:1"/></linearGradient><linearGradient id="_Linear-h5txetg" x1="0" y1="0" x2="1" y2="0" gradientUnits="userSpaceOnUse" gradientTransform="matrix(134.11,182.027,-182.027,134.11,66.7376,49.0992)"><stop offset="0" style="stop-color:rgb(0,250,255);stop-opacity:1"/><stop offset="1" style="stop-color:rgb(139,255,149);stop-opacity:1"/></linearGradient><linearGradient id="_Linear-bmxcsi1" x1="0" y1="0" x2="1" y2="0" gradientUnits="userSpaceOnUse" gradientTransform="matrix(134.11,182.027,-182.027,134.11,66.7376,49.0992)"><stop offset="0" style="stop-color:rgb(0,250,255);stop-opacity:1"/><stop offset="1" style="stop-color:rgb(139,255,149);stop-opacity:1"/></linearGradient><linearGradient id="_Linear-8i6uyha" x1="0" y1="0" x2="1" y2="0" gradientUnits="userSpaceOnUse" gradientTransform="matrix(134.11,182.027,-182.027,134.11,66.7376,49.0992)"><stop offset="0" style="stop-color:rgb(0,250,255);stop-opacity:1"/><stop offset="1" style="stop-color:rgb(139,255,149);stop-opacity:1"/></linearGradient><linearGradient id="_Linear-d8qx50v" x1="0" y1="0" x2="1" y2="0" gradientUnits="userSpaceOnUse" gradientTransform="matrix(134.11,182.027,-182.027,134.11,66.7376,49.0992)"><stop offset="0" style="stop-color:rgb(0,250,255);stop-opacity:1"/><stop offset="1" style="stop-color:rgb(139,255,149);stop-opacity:1"/></linearGradient><linearGradient id="_Linear-ti3hkac" x1="0" y1="0" x2="1" y2="0" gradientUnits="userSpaceOnUse" gradientTransform="matrix(134.11,182.027,-182.027,134.11,66.7376,49.0992)"><stop offset="0" style="stop-color:rgb(0,250,255);stop-opacity:1"/><stop offset="1" style="stop-color:rgb(139,255,149);stop-opacity:1"/></linearGradient></defs></svg>