<svg width="100%" height="100%" viewBox="0 0 18 16" version="1.1" xmlns="http://www.w3.org/2000/svg" xmlns:xlink="http://www.w3.org/1999/xlink" xml:space="preserve" style="fill-rule:evenodd;clip-rule:evenodd;stroke-linejoin:round;stroke-miterlimit:2;"><g id="opengl" transform="matrix(0.014733,0,0,0.014733,9,8)"><g transform="matrix(1,0,0,1,-543,-225)"><clipPath id="_clip-ej8cmhe"><rect x="0" y="0" width="1086" height="450"/></clipPath><g clip-path="url(#_clip-ej8cmhe)"><g transform="matrix(0.996,0,0,1,-53.6,-25)"><path d="M182,212C185.85,200.2 191.63,189.8 199.3,180.7C207,171.63 216.6,164.4 228.1,159C239.6,153.6 252.9,150.89 268.1,150.89C283.3,150.89 296.7,153.6 308.1,159C319.6,164.4 329.2,171.6 336.9,180.7C344.6,189.8 350.4,200.2 354.2,212C358.05,223.8 359.98,236 359.98,248.7C359.98,261.4 358.05,273.7 354.2,285.5C350.35,297.3 344.57,307.7 336.9,316.8C329.2,325.87 319.6,333.1 308.1,338.4C296.6,343.71 283.3,346.38 268.1,346.38C252.9,346.38 239.5,343.72 228.1,338.4C216.6,333.08 207,325.9 199.3,316.8C191.6,307.73 185.8,297.3 182,285.5C178.15,273.7 176.22,261.5 176.22,248.7C176.22,235.9 178.15,223.7 182,212ZM205.4,276.7C207.91,285.86 211.86,294.1 217.2,301.4C222.58,308.73 229.5,314.6 237.9,319.1C246.33,323.55 256.4,325.77 268,325.77C279.7,325.77 289.7,323.55 298.1,319.1C306.53,314.65 313.4,308.8 318.8,301.4C324.18,294.07 328.12,285.8 330.6,276.7C333.11,267.53 334.37,258.2 334.37,248.8C334.37,239.4 333.11,230.1 330.6,220.9C328.09,211.7 324.14,203.5 318.8,196.2C313.42,188.87 306.5,183 298.1,178.5C289.67,174.05 279.6,171.82 268,171.82C256.3,171.82 246.3,174.05 237.9,178.5C229.47,182.95 222.6,188.8 217.2,196.2C211.82,203.54 207.87,211.8 205.4,220.9C202.89,230.06 201.64,239.4 201.64,248.8C201.64,258.2 202.89,267.5 205.4,276.7Z" style="fill:rgb(85,134,164);fill-rule:nonzero;"/><path d="M398,223L398,239.1L398.404,239.1C401.704,232.49 406.884,227.7 413.904,224.7C420.974,221.7 428.704,220.2 437.204,220.2C446.624,220.2 454.804,221.89 461.804,225.27C468.794,228.65 474.604,233.21 479.204,238.97C483.834,244.73 487.324,251.37 489.704,258.87C492.064,266.39 493.244,274.37 493.244,282.77C493.244,291.21 492.104,299.17 489.824,306.77C487.544,314.29 484.094,320.87 479.424,326.47C474.794,332.07 469.024,336.47 462.024,339.67C455.024,342.89 446.924,344.51 437.624,344.51C434.634,344.51 431.304,344.203 427.624,343.591C423.934,342.97 420.284,341.981 416.624,340.591C413.014,339.211 409.594,337.321 406.324,334.941C403.104,332.561 400.394,329.601 398.204,326.061L397.8,326.061L397.8,387.561L377.6,387.561L377.6,222.561L398,223ZM469.7,265.3C468.21,260.01 465.94,255.3 462.89,251.1C459.83,246.96 455.91,243.66 451.09,241.2C446.31,238.74 440.69,237.52 434.29,237.52C427.55,237.52 421.79,238.83 417.09,241.44C412.39,244.05 408.55,247.46 405.59,251.64C402.61,255.86 400.46,260.66 399.13,266.04C397.8,271.41 397.13,276.84 397.13,282.34C397.13,288.18 397.83,293.84 399.25,299.24C400.66,304.69 402.89,309.44 405.95,313.64C409,317.78 412.96,321.12 417.85,323.64C422.71,326.17 428.55,327.44 435.45,327.44C442.34,327.44 448.05,326.14 452.75,323.53C457.45,320.92 461.1,317.47 463.95,313.13C466.77,308.84 468.8,303.93 470.06,298.43C471.31,292.9 471.94,287.23 471.94,281.43C471.938,275.91 471.193,270.53 469.7,265.23L469.7,265.3Z" style="fill:rgb(85,134,164);fill-rule:nonzero;"/><path d="M596,335C586.87,341.75 575.4,345.1 561.5,345.1C551.74,345.1 543.3,343.57 536.1,340.5C528.94,337.43 522.9,333.13 518,327.6C513.12,322.07 509.46,315.5 507,307.8C504.56,300.12 503.19,291.8 502.87,282.7C502.87,273.64 504.28,265.4 507.12,257.8C509.95,250.28 513.93,243.8 519.02,238.2C524.14,232.67 530.22,228.38 537.22,225.3C544.23,222.23 551.92,220.69 560.22,220.69C571.12,220.69 580.12,222.89 587.32,227.27C594.49,231.65 600.22,237.23 604.62,243.97C608.95,250.74 611.95,258.17 613.6,266.07C615.25,274.07 615.92,281.67 615.61,288.87L524.31,288.87C524.152,294.08 524.777,299.07 526.19,303.67C527.603,308.27 529.88,312.48 533.02,316.07C536.16,319.67 540.17,322.54 545.02,324.69C549.89,326.84 555.62,327.91 562.22,327.91C570.7,327.91 577.62,325.99 583.02,322.15C588.44,318.31 592.01,312.47 593.72,304.65L613.52,304.65C610.84,317.95 604.94,328.05 595.82,334.75L596,335ZM591.11,258.6C589.31,254.47 586.88,250.9 583.82,247.9C580.76,244.92 577.15,242.54 573.02,240.78C568.86,239.02 564.27,238.13 559.22,238.13C554.04,238.13 549.37,239.012 545.22,240.78C541.06,242.54 537.49,244.96 534.52,248.02C531.54,251.08 529.19,254.65 527.46,258.72C525.73,262.78 524.71,267.11 524.4,271.72L594.3,271.72C593.983,267.12 592.92,262.76 591.12,258.62L591.11,258.6Z" style="fill:rgb(85,134,164);fill-rule:nonzero;"/><path d="M648,223L648,241.9L648.379,241.9C656.749,227.5 669.979,220.2 688.179,220.2C696.239,220.2 702.979,221.28 708.279,223.43C713.649,225.58 717.999,228.58 721.279,232.42C724.599,236.26 726.929,240.83 728.269,246.12C729.609,251.42 730.279,257.32 730.279,263.72L730.279,342.12L710.079,342.12L710.079,261.52C710.079,254.15 707.869,248.32 703.459,244.02C699.039,239.72 692.959,237.57 685.259,237.57C679.109,237.57 673.759,238.496 669.259,240.34C664.769,242.18 661.019,244.79 658.059,248.17C655.069,251.55 652.819,255.5 651.329,260.07C649.829,264.6 649.079,269.56 649.079,274.97L649.079,342.27L628.879,342.27L628.879,223.27L648,223Z" style="fill:rgb(85,134,164);fill-rule:nonzero;"/><path d="M870,341C860.88,344.76 851.7,346.64 842.4,346.64C827.7,346.64 814.5,344.14 802.8,339.16C791.1,334.17 781.2,327.26 773.2,318.56C765.15,309.81 759,299.56 754.7,287.66C750.41,275.86 748.26,263.06 748.26,249.46C748.26,235.46 750.4,222.46 754.68,210.46C758.96,198.46 765.08,187.96 773.18,179.06C781.21,170.13 791.08,163.16 802.78,158.06C814.48,152.98 827.68,150.44 842.38,150.44C852.21,150.44 861.78,151.89 870.98,154.78C880.19,157.68 888.48,161.93 895.88,167.58C903.3,173.19 909.38,180.08 914.28,188.38C919.11,196.61 922.06,206.08 923.14,216.68L882.94,216.68C880.43,206.18 875.6,198.38 868.44,193.08C861.28,187.84 852.64,185.22 842.44,185.22C832.96,185.22 824.94,187.01 818.34,190.6C811.74,194.19 806.34,199.01 802.24,205C798.12,211.04 795.13,217.9 793.26,225.6C791.38,233.3 790.44,241.3 790.44,249.5C790.44,257.38 791.379,265 793.26,272.5C795.14,279.94 798.14,286.6 802.26,292.6C806.38,298.55 811.75,303.3 818.36,306.9C824.98,310.49 833.06,312.28 842.56,312.28C856.56,312.28 867.26,308.84 874.96,301.98C882.57,295.1 886.96,285.08 888.26,272.08L845.86,272.08L845.86,241.28L926.26,241.28L926.26,342.28L899.56,342.28L895.28,321.08C887.77,330.52 879.48,337.08 870.28,340.88L870,341Z" style="fill:rgb(85,134,164);fill-rule:nonzero;"/><path d="M995,156L995,308L1088.4,308L1088.4,342.7L953.4,342.7L953.4,155.7L995,156Z" style="fill:rgb(85,134,164);fill-rule:nonzero;"/><path d="M796,366C731.7,404.2 635,426 528,426C334,426 178,347.2 178,250C178,152.8 335,74 528,74C636,74 732,96.1 797,134.6C726.8,70.2 601,24.6 457,24.6C237,24.565 58,125.6 58,249.6C57.981,373.6 237,474.6 457,474.6C600,474.624 726,429.5 796,365.6L796,366Z" style="fill:rgb(85,134,164);fill-rule:nonzero;"/></g><g transform="matrix(1,0,0,1,-60,-25)"><path d="M1144,325C1144,328.14 1143.21,331.07 1141.64,333.78C1140.07,336.49 1137.93,338.63 1135.22,340.19C1132.51,341.75 1129.58,342.53 1126.44,342.53C1123.31,342.53 1120.4,341.749 1117.68,340.19C1114.97,338.63 1112.83,336.49 1111.26,333.78C1109.69,331.07 1108.9,328.14 1108.9,325C1108.9,321.87 1109.68,318.95 1111.26,316.23C1112.83,313.51 1114.97,311.37 1117.68,309.81C1120.39,308.25 1123.31,307.47 1126.44,307.47C1129.58,307.47 1132.51,308.251 1135.22,309.81C1137.93,311.37 1140.07,313.51 1141.64,316.23C1143.21,318.95 1144,321.87 1144,325ZM1140.6,325C1140.6,321.09 1139.22,317.76 1136.45,315C1133.68,312.23 1130.35,310.85 1126.45,310.85C1122.54,310.85 1119.21,312.23 1116.45,315C1113.68,317.77 1112.3,321.1 1112.3,325C1112.3,328.9 1113.68,332.24 1116.45,335C1119.22,337.77 1122.55,339.15 1126.45,339.15C1130.36,339.15 1133.69,337.77 1136.45,335C1139.21,332.23 1140.6,328.9 1140.6,325ZM1118.5,315.62L1126.89,315.62C1129.26,315.62 1130.99,316.098 1132.05,317.06C1133.11,318.017 1133.65,319.3 1133.65,320.91C1133.65,322.17 1133.24,323.25 1132.43,324.17C1131.62,325.089 1130.34,325.76 1128.59,326.17C1129.31,326.446 1129.84,326.737 1130.18,327.043C1130.65,327.473 1131.15,328.103 1131.67,328.953C1131.7,329.014 1132.71,330.823 1134.7,334.373L1129.18,334.373C1127.39,330.803 1126.18,328.673 1125.57,327.973C1124.96,327.277 1124.34,326.923 1123.73,326.923C1123.59,326.923 1123.4,326.946 1123.16,326.992L1123.16,334.372L1118.49,334.372L1118.5,315.62ZM1123.17,323.57L1125.19,323.57C1126.54,323.57 1127.49,323.352 1128.04,322.916C1128.59,322.478 1128.87,321.916 1128.87,321.226C1128.87,320.537 1128.6,319.976 1128.07,319.536C1127.55,319.099 1126.64,318.882 1125.37,318.882L1123.16,318.882L1123.17,323.57Z" style="fill:rgb(85,134,164);fill-rule:nonzero;"/></g></g></g></g></svg>