<svg width="100%" height="100%" viewBox="0 0 18 16" version="1.1" xmlns="http://www.w3.org/2000/svg" xmlns:xlink="http://www.w3.org/1999/xlink" xml:space="preserve" style="fill-rule:evenodd;clip-rule:evenodd;stroke-linejoin:round;stroke-miterlimit:2;"><g id="openwrt-dark" transform="matrix(3.96476,0,0,3.96476,-17.7275,-25.2855)"><g transform="matrix(0.451185,0,0,0.436331,3.62116,4.87918)"><path d="M5.429,7.34C5.798,6.947 6.315,6.702 6.886,6.702C7.488,6.702 8.029,6.974 8.401,7.404L7.736,8.068C7.532,7.817 7.227,7.657 6.886,7.657C6.575,7.657 6.295,7.79 6.093,8.003L5.429,7.34Z" style="fill:rgb(67,176,232);"/></g><g transform="matrix(1.62427,0,0,1.57079,-4.45658,-5.10786)"><path d="M5.906,7.822C6.154,7.557 6.501,7.392 6.886,7.392C7.279,7.392 7.633,7.564 7.883,7.84L7.698,8.024C7.496,7.799 7.207,7.657 6.886,7.657C6.574,7.657 6.292,7.791 6.09,8.006L5.906,7.822Z" style="fill:rgb(67,176,232);"/></g><g transform="matrix(1.03773,0,0,1.00356,-0.41771,-0.114337)"><path d="M8.079,7.847C8.277,8.111 8.396,8.443 8.396,8.803C8.396,9.665 7.719,10.364 6.886,10.364C6.053,10.364 5.376,9.665 5.376,8.803C5.376,8.429 5.504,8.086 5.716,7.817L6.006,8.107C5.863,8.3 5.778,8.541 5.778,8.803C5.778,9.436 6.274,9.949 6.886,9.949C7.498,9.949 7.994,9.436 7.994,8.803C7.994,8.555 7.918,8.325 7.788,8.138L8.079,7.847Z" style="fill:rgb(7,35,66);"/></g><g transform="matrix(1.03773,0,0,1.00356,-0.41771,-0.114337)"><path d="M5.802,7.717C6.077,7.424 6.461,7.242 6.886,7.242C7.324,7.242 7.719,7.436 7.995,7.745L7.706,8.033C7.504,7.803 7.211,7.657 6.886,7.657C6.574,7.657 6.292,7.791 6.091,8.005L5.802,7.717Z" style="fill:rgb(67,176,232);"/></g><g transform="matrix(1.28144,0,0,1.45923,-1.88439,-4.00412)"><ellipse cx="6.721" cy="8.72" rx="0.234" ry="0.206" style="fill:rgb(67,176,232);"/></g></g></svg>