<svg width="100%" height="100%" viewBox="0 0 18 16" version="1.1" xmlns="http://www.w3.org/2000/svg" xmlns:xlink="http://www.w3.org/1999/xlink" xml:space="preserve" style="fill-rule:evenodd;clip-rule:evenodd;stroke-linejoin:round;stroke-miterlimit:2;"><g id="oxc" transform="matrix(0.0700935,0,0,0.0700935,8.42446,7.34502)"><g transform="matrix(1,0,0,1,-111.256,-105.256)"><path d="M133,27C133,34.18 127.18,40 120,40L120,48C131.598,48 141,38.598 141,27L133,27ZM120,14C127.18,14 133,19.82 133,27L141,27C141,15.402 131.598,6 120,6L120,14ZM107,27C107,19.82 112.82,14 120,14L120,6C108.402,6 99,15.402 99,27L107,27ZM120,40C112.82,40 107,34.18 107,27L99,27C99,38.598 108.402,48 120,48L120,40ZM126,27C126,30.292 123.292,33 120,33L120,41C127.732,41 134,34.732 134,27L126,27ZM120,21C123.292,21 126,23.708 126,27L134,27C134,19.268 127.732,13 120,13L120,21ZM114,27C114,23.708 116.708,21 120,21L120,13C112.268,13 106,19.268 106,27L114,27ZM120,33C116.708,33 114,30.292 114,27L106,27C106,34.732 112.268,41 120,41L120,33Z" style="fill:rgb(43,60,90);fill-rule:nonzero;"/></g><g transform="matrix(1,0,0,1,-111.256,-105.256)"><path d="M120,44C129.389,44 137,36.389 137,27C137,17.611 129.389,10 120,10C110.611,10 103,17.611 103,27C103,36.389 110.611,44 120,44ZM120,37C125.523,37 130,32.523 130,27C130,21.477 125.523,17 120,17C114.477,17 110,21.477 110,27C110,32.523 114.477,37 120,37Z" style="fill:rgb(255,145,92);"/></g><g transform="matrix(1,0,0,1,-111.256,-105.256)"><clipPath id="_clip-vd4hytf"><path d="M220,120C220,175.192 175.192,220 120,220C64.808,220 20,175.192 20,120C20,64.808 64.808,20 120,20C175.192,20 220,64.808 220,120Z"/></clipPath><g clip-path="url(#_clip-vd4hytf)"><path d="M220,120C220,175.192 175.192,220 120,220C64.808,220 20,175.192 20,120C20,64.808 64.808,20 120,20C175.192,20 220,64.808 220,120Z" style="fill:rgb(145,237,233);"/><rect x="20" y="20" width="200" height="200" style="fill:rgb(145,237,233);fill-rule:nonzero;"/><path d="M229,223L13,223L13,179.5C13,179.5 32.176,163.698 41.5,163C53.344,162.114 56.277,166.594 68,168.5C80.326,170.504 88.245,157.602 100.5,160C112.993,162.444 129.172,171.859 139.5,171.5C161.343,170.741 160.054,166.627 178,170.5C185.627,172.146 193.768,156.084 206.5,158.5C212.949,159.724 229,161 229,161L229,223Z" style="fill:rgb(72,172,186);fill-rule:nonzero;"/><path d="M127.017,42.489L125.364,38.846L122.927,39.952L123.019,42.627L127.017,42.489ZM112.983,42.489L116.981,42.627L117.073,39.952L114.636,38.846L112.983,42.489ZM112.552,55L112.552,59L116.416,59L116.549,55.138L112.552,55ZM112.5,55L112.5,51L112.349,51L112.199,51.011L112.5,55ZM88.774,56.79L88.474,52.802L88.774,56.791L88.774,56.79ZM88.77,69.213L88.463,73.201L88.77,69.213ZM112,71L115.999,71.106L116.099,67.304L112.307,67.012L112,71ZM110.896,112.769L114.895,112.875L110.896,112.769ZM96.186,143.543L97.044,147.45L96.185,143.543L96.186,143.543ZM70.629,125.583L69.036,121.914L64.896,123.711L67.178,127.605L70.629,125.583ZM77.266,123.14L76.097,119.315L77.266,123.14ZM77.692,120.17L79.898,116.833L79.898,116.832L77.692,120.17ZM59.038,99.108L55.424,100.822L59.038,99.108ZM56.287,99.022L59.895,100.749L56.287,99.022ZM52.768,108.028L48.944,106.855L52.768,108.028ZM50.695,135.659L46.74,136.255L50.695,135.659ZM50.788,136.256L46.838,136.891L50.788,136.256ZM53.347,137.038L56.127,139.913L53.347,137.038ZM58.583,132.572L62.395,131.361L60.688,125.984L56.179,129.375L58.583,132.572ZM181.424,132.548L183.833,129.355L179.321,125.951L177.612,131.338L181.424,132.548ZM186.655,137.026L183.869,139.895L183.869,139.896L186.655,137.026ZM189.217,136.245L185.267,135.614L189.217,136.245ZM189.267,135.929L193.22,136.54L189.267,135.929ZM189.308,135.659L185.352,135.066L189.308,135.659ZM187.244,108.028L183.419,109.196L187.244,108.028ZM183.749,99.038L180.138,100.757L183.749,99.038ZM180.996,99.123L177.379,97.414L180.996,99.124L180.996,99.123ZM162.43,120.172L160.217,116.839L162.43,120.172ZM162.857,123.14L161.684,126.964L162.857,123.14ZM169.39,125.551L172.842,127.571L175.119,123.679L170.984,121.882L169.39,125.551ZM143.816,143.544L142.958,147.451L143.816,143.544ZM129.104,112.769L125.105,112.874L129.104,112.769ZM128,71L127.693,67.012L123.901,67.303L124.001,71.106L128,71ZM151.23,69.213L151.537,73.201L151.23,69.213ZM151.226,56.791L151.527,52.802L151.226,56.791ZM127.5,55L127.801,51.011L127.651,51L127.5,51L127.5,55ZM127.448,55L123.451,55.138L123.584,59L127.448,59L127.448,55ZM128.67,46.131C135.934,42.835 141,35.513 141,27L133,27C133,32.26 129.875,36.8 125.364,38.846L128.67,46.131ZM141,27C141,15.402 131.598,6 120,6L120,14C127.18,14 133,19.82 133,27L141,27ZM120,6C108.402,6 99,15.402 99,27L107,27C107,19.82 112.82,14 120,14L120,6ZM99,27C99,35.513 104.066,42.835 111.33,46.131L114.636,38.846C110.125,36.8 107,32.26 107,27L99,27ZM108.986,42.351L108.554,54.862L116.549,55.138L116.981,42.627L108.986,42.351ZM112.552,51L112.5,51L112.5,59L112.552,59L112.552,51ZM112.199,51.011L88.473,52.802L89.075,60.779L112.801,58.989L112.199,51.011ZM88.473,52.802C84.842,53.076 82,56.14 82,59.782L90,59.782C90,60.302 89.594,60.74 89.075,60.779L88.473,52.802ZM82,59.782L82,66.222L90,66.222L90,59.782L82,59.782ZM82,66.222C82,69.86 84.836,72.923 88.463,73.202L89.077,65.225C89.595,65.265 90,65.702 90,66.222L82,66.222ZM88.463,73.202L111.693,74.988L112.307,67.012L89.077,65.225L88.463,73.201L88.463,73.202ZM108.001,70.894L106.897,112.663L114.895,112.875L115.999,71.105L108.001,70.895L108.001,70.894ZM106.897,112.663C106.733,118.892 106.141,125.366 104.276,130.507C102.446,135.553 99.658,138.685 95.327,139.637L97.044,147.45C105.035,145.695 109.436,139.745 111.797,133.234C114.124,126.818 114.726,119.259 114.895,112.875L106.897,112.663ZM95.327,139.637C94.234,139.878 93.119,139.999 92,140L92,148C93.714,148 95.404,147.81 97.044,147.45L95.327,139.637ZM92,140C89.837,140 86.81,138.574 83.302,135.345C79.922,132.235 76.662,127.967 74.08,123.561L67.178,127.605C70.058,132.523 73.79,137.464 77.884,141.231C81.85,144.88 86.777,148 92,148L92,140ZM72.222,129.252C74.248,128.373 76.322,127.61 78.434,126.966L76.097,119.315C73.696,120.047 71.339,120.915 69.036,121.914L72.222,129.252ZM78.434,126.966C82.985,125.576 83.837,119.436 79.898,116.833L75.487,123.507C74.727,123.011 74.315,122.12 74.431,121.219C74.573,120.318 75.223,119.576 76.097,119.315L78.434,126.966ZM79.898,116.832C72.272,111.792 66.295,105.075 62.652,97.394L55.424,100.822C59.744,109.932 66.749,117.732 75.487,123.507L79.897,116.832L79.898,116.832ZM62.652,97.394C60.859,93.612 54.878,92.7 52.678,97.295L59.895,100.749C59.455,101.658 58.519,102.226 57.51,102.197C56.615,102.161 55.81,101.631 55.424,100.822L62.652,97.394ZM52.678,97.295C51.198,100.385 49.95,103.58 48.944,106.855L56.592,109.201C57.482,106.306 58.586,103.481 59.895,100.749L52.678,97.295ZM48.944,106.855C46.009,116.425 45.257,126.418 46.74,136.255L54.65,135.063C53.348,126.42 54.005,117.635 56.592,109.201L48.944,106.855ZM46.74,136.255L46.839,136.891L54.737,135.622C54.707,135.436 54.678,135.249 54.65,135.063L46.74,136.255ZM46.839,136.891C47.602,141.644 53.193,142.752 56.128,139.913L50.566,134.163C51.199,133.554 52.113,133.332 52.954,133.583C53.886,133.868 54.578,134.66 54.737,135.622L46.839,136.891ZM56.128,139.913C57.661,138.432 59.284,137.048 60.988,135.768L56.179,129.375C54.211,130.853 52.336,132.452 50.566,134.163L56.128,139.913ZM54.771,133.783C60.131,150.658 71.734,163.193 84.174,171.473C96.537,179.702 110.14,184 120,184L120,176C112.079,176 99.994,172.393 88.606,164.813C77.294,157.283 67.079,146.104 62.396,131.361L54.771,133.783ZM120,184C129.863,184 143.469,179.7 155.836,171.467C168.278,163.182 179.881,150.641 185.237,133.757L177.612,131.338C172.933,146.089 162.717,157.274 151.402,164.807C140.012,172.391 127.923,176 120,176L120,184ZM179.015,135.741C180.717,137.024 182.338,138.411 183.869,139.895L189.442,134.156C187.674,132.441 185.801,130.837 183.833,129.355L179.015,135.741ZM183.869,139.896C186.803,142.744 192.407,141.639 193.167,136.876L185.267,135.614C185.425,134.651 186.119,133.858 187.052,133.572C187.895,133.322 188.81,133.546 189.442,134.156L183.869,139.896ZM193.167,136.876L193.22,136.54L185.314,135.319C185.299,135.417 185.283,135.516 185.267,135.614L193.167,136.876ZM193.22,136.54L193.264,136.252L185.352,135.066L185.314,135.319L193.22,136.54ZM193.264,136.252C194.739,126.419 193.991,116.428 191.07,106.86L183.419,109.196C185.995,117.633 186.649,126.42 185.352,135.066L193.264,136.252ZM191.07,106.86C190.071,103.592 188.831,100.403 187.361,97.319L180.138,100.757C181.438,103.485 182.535,106.306 183.419,109.196L191.07,106.86ZM187.361,97.319C185.166,92.709 179.17,93.624 177.379,97.414L184.612,100.832C184.227,101.642 183.421,102.174 182.524,102.21C181.514,102.239 180.576,101.668 180.138,100.757L187.361,97.319ZM177.379,97.414C173.751,105.092 167.803,111.804 160.217,116.839L164.642,123.504C173.34,117.731 180.31,109.935 184.612,100.832L177.379,97.414ZM160.217,116.839C156.29,119.446 157.143,125.571 161.684,126.964L164.03,119.316C164.903,119.578 165.551,120.319 165.694,121.219C165.81,122.118 165.4,123.007 164.642,123.504L160.217,116.839ZM161.684,126.964C163.762,127.601 165.802,128.354 167.796,129.219L170.984,121.882C168.716,120.897 166.394,120.04 164.03,119.316L161.684,126.964ZM165.937,123.531C163.357,127.942 160.094,132.218 156.71,135.334C153.197,138.57 150.166,140 148,140L148,148C153.229,148 158.162,144.873 162.13,141.218C166.228,137.444 169.962,132.495 172.842,127.571L165.937,123.531ZM148,140C146.877,140 145.762,139.876 144.674,139.637L142.958,147.451C144.597,147.811 146.286,148 148,148L148,140ZM144.674,139.637C140.343,138.686 137.554,135.554 135.724,130.507C133.859,125.366 133.267,118.891 133.103,112.663L125.105,112.874C125.274,119.259 125.876,126.818 128.203,133.235C130.565,139.746 134.966,145.695 142.958,147.451L144.674,139.637ZM133.103,112.663L131.999,70.894L124.001,71.106L125.105,112.874L133.103,112.663ZM128.307,74.988L151.537,73.201L150.923,65.225L127.693,67.012L128.307,74.988ZM151.537,73.201C155.164,72.922 158,69.859 158,66.221L150,66.221C150.001,65.702 150.405,65.265 150.923,65.225L151.537,73.201ZM158,66.222L158,59.782L150,59.782L150,66.222L158,66.222ZM158,59.782C158,56.14 155.158,53.076 151.527,52.802L150.925,60.779C150.406,60.74 150,60.302 150,59.782L158,59.782ZM151.527,52.802L127.801,51.012L127.199,58.989L150.925,60.779L151.527,52.802ZM127.5,51L127.448,51L127.448,59L127.5,59L127.5,51ZM131.446,54.862L131.014,42.351L123.019,42.627L123.451,55.137L131.446,54.862ZM120,41C127.732,41 134,34.732 134,27L126,27C126,30.292 123.292,33 120,33L120,41ZM106,27C106,34.732 112.268,41 120,41L120,33C116.708,33 114,30.292 114,27L106,27ZM120,13C112.268,13 106,19.268 106,27L114,27C114,23.708 116.708,21 120,21L120,13ZM134,27C134,19.268 127.732,13 120,13L120,21C123.292,21 126,23.708 126,27L134,27Z" style="fill:rgb(43,60,90);fill-rule:nonzero;"/><path d="M127.017,42.489C132.905,39.817 137,33.887 137,27C137,17.611 129.389,10 120,10C110.611,10 103,17.611 103,27C103,33.887 107.095,39.817 112.983,42.489L112.552,55L112.5,55L88.774,56.79C87.217,56.908 85.999,58.222 86,59.783L86,66.223C86,67.782 87.216,69.094 88.77,69.214L112,71L110.896,112.769C110.563,125.381 108.508,140.836 96.186,143.543C94.821,143.843 93.419,144 92,144C84.614,144 76.09,134.907 70.63,125.583C72.794,124.644 75.01,123.829 77.266,123.14C78.563,122.744 78.824,120.918 77.692,120.17C69.51,114.762 63.02,107.504 59.038,99.108C58.491,97.954 56.838,97.87 56.287,99.022C54.892,101.933 53.716,104.943 52.768,108.028C50.007,117.03 49.303,126.419 50.695,135.659L50.788,136.256C50.981,137.459 52.471,137.885 53.347,137.038C54.998,135.442 56.747,133.951 58.583,132.572C68.627,164.191 102.218,180 120,180C137.786,180 171.39,164.183 181.424,132.548C183.259,133.931 185.006,135.426 186.655,137.026C187.531,137.876 189.025,137.45 189.217,136.245L189.267,135.929L189.308,135.659C190.694,126.419 189.993,117.03 187.244,108.028C186.303,104.949 185.134,101.944 183.749,99.038C183.199,97.882 181.542,97.966 180.996,99.123C177.03,107.514 170.571,114.767 162.43,120.172C161.301,120.921 161.562,122.743 162.857,123.14C165.078,123.821 167.259,124.626 169.39,125.551C163.929,134.886 155.395,144 148,144C146.582,144 145.18,143.843 143.816,143.544C131.492,140.837 129.437,125.381 129.104,112.769L128,71L151.23,69.213C152.784,69.093 154,67.781 154,66.222L154,59.782C154,58.222 152.782,56.909 151.226,56.791L127.5,55L127.448,55L127.017,42.489ZM130,27C130,32.523 125.523,37 120,37C114.477,37 110,32.523 110,27C110,21.477 114.477,17 120,17C125.523,17 130,21.477 130,27Z" style="fill:rgb(255,145,92);"/><path d="M86,67.148C86,68.187 86.811,69.062 87.847,69.142L112,71L118.634,64.366C118.784,64.216 118.869,64.012 118.869,63.8C118.869,63.361 118.508,63 118.069,63L86,63L86,67.148Z" style="fill:rgb(138,56,15);fill-rule:nonzero;"/><path d="M182.124,98.814C182.514,98.229 183.388,98.282 183.691,98.915C185.102,101.86 186.289,104.906 187.244,108.028C189.993,117.03 190.694,126.419 189.308,135.659C189.279,135.854 189.249,136.05 189.217,136.245C189.025,137.45 187.531,137.876 186.655,137.026C183.315,133.795 179.59,130.987 175.564,128.665C174.882,128.27 174.604,127.415 174.922,126.694C178.29,119.111 180.771,110.022 181.975,99.224C181.992,99.078 182.043,98.937 182.124,98.814Z" style="fill:rgb(138,56,15);"/><path d="M127,42L127.5,55L121.682,60.43C121.043,61.026 120,60.573 120,59.699L120,42L127,42ZM184,120C180,160 140,180 120,180L120,64.5C120,63.677 120.677,63 121.5,63L154,63L154,66.285C154,67.818 152.825,69.117 151.299,69.27L128,71L129.104,112.769C129.437,125.381 131.473,140.871 143.802,143.554C145.147,143.847 146.531,144 147.933,144C146.548,144.066 145.172,144.554 144.281,145.616C139.414,151.414 133.886,157.261 125.707,159.901C147.207,160.901 176.817,146.274 182,99L184,120Z" style="fill:rgb(138,56,15);fill-rule:nonzero;"/><path d="M121.998,39.898C120.899,40.01 120,40.895 120,42C120,43.105 120.898,44.012 121.995,43.883C125.787,43.434 129.32,41.721 132.021,39.021C135.188,35.853 136.979,31.559 137,27.08C137,27.08 137,27.079 137,27.079C137,27.035 136.964,26.999 136.92,26.999C136.92,26.999 136.919,26.999 136.919,26.999C136.879,26.999 136.845,27.029 136.84,27.068C135.787,33.798 129.674,39.104 121.998,39.897L121.998,39.898Z" style="fill:rgb(138,56,15);"/><path d="M222,223L10,223L10,183C10,183 29.676,172.198 39,171.5C50.844,170.614 53.277,179.43 65,181.336C77.326,183.34 81.745,171.102 94,173.5C106.493,175.944 116.672,187.859 127,187.5C148.843,186.741 150.054,176.127 168,180C175.627,181.646 177.5,185.5 195.5,181.336C213.5,177.172 222,183 222,183L222,223Z" style="fill:rgb(43,60,90);fill-rule:nonzero;"/></g></g></g></svg>