<svg width="100%" height="100%" viewBox="0 0 18 16" version="1.1" xmlns="http://www.w3.org/2000/svg" xmlns:xlink="http://www.w3.org/1999/xlink" xml:space="preserve" style="fill-rule:evenodd;clip-rule:evenodd;stroke-linejoin:round;stroke-miterlimit:2;"><g id="paket"><g transform="matrix(1.06153,0,0,1.09038,-0.0922943,-0.0451906)"><ellipse cx="8.565" cy="7.378" rx="7.065" ry="6.878" style="fill:rgb(237,237,237);"/></g><g transform="matrix(1.23574,0,0,1.23574,-2.12225,-1.8873)"><path d="M4.552,5.77L4.554,10.221L9,12.463L9,8L4.552,5.77" style="fill:rgb(219,181,81);"/><path d="M6.539,9.27L6.538,10.44L8.181,11.275L8.183,10.111L6.539,9.27" style="fill:rgb(242,242,242);"/><path d="M6.776,9.875L6.775,9.702L7.946,10.283L7.946,10.461L6.776,9.875Z" style="fill:rgb(219,181,81);"/><g transform="matrix(0.910837,-0.0410031,-0.0410031,0.981144,0.966244,0.81994)"><path d="M6.821,9.871L6.815,9.697L7.995,10.28L8.004,10.46L6.821,9.871Z" style="fill:rgb(219,181,81);"/></g><path d="M9,8L13.451,5.772L13.453,10.229L9,12.463L9,8" style="fill:rgb(231,191,85);"/><path d="M10.869,7.064L10.875,8.468L11.23,8.466L11.229,8.354L11.344,8.353L11.346,8.234L11.463,8.235L11.462,8.118L11.579,8.119L11.578,8.235L11.699,8.234L11.699,6.652L10.869,7.064Z" style="fill:rgb(241,217,153);"/><path d="M4.552,5.77L9,3.549L13.451,5.772L9,8L4.552,5.77Z" style="fill:rgb(239,199,94);"/><path d="M10.869,7.064L6.427,4.834L7.19,4.453L11.697,6.65L10.869,7.064Z" style="fill:rgb(247,227,175);"/></g></g></svg>