<svg width="100%" height="100%" viewBox="0 0 18 16" version="1.1" xmlns="http://www.w3.org/2000/svg" xmlns:xlink="http://www.w3.org/1999/xlink" xml:space="preserve" style="fill-rule:evenodd;clip-rule:evenodd;stroke-linejoin:round;stroke-miterlimit:2;"><g id="parquet-dark" transform="matrix(0.618081,0,0,0.618081,-0.901126,-1.86478)"><path d="M15.902,5.215C15.902,5.234 15.875,5.246 15.84,5.246C15.805,5.246 15.777,5.262 15.777,5.281C15.777,5.297 15.754,5.313 15.727,5.313C15.695,5.313 15.645,5.348 15.609,5.391C15.574,5.438 15.535,5.465 15.52,5.457C15.504,5.445 15.484,5.453 15.473,5.473C15.461,5.488 15.426,5.504 15.391,5.504C15.355,5.504 15.328,5.52 15.328,5.535C15.328,5.555 15.301,5.566 15.266,5.566C15.23,5.566 15.199,5.582 15.199,5.602C15.199,5.617 15.172,5.633 15.137,5.633C15.102,5.633 15.07,5.645 15.07,5.664C15.07,5.68 15.043,5.695 15.008,5.695C14.973,5.695 14.945,5.711 14.945,5.727C14.945,5.746 14.922,5.762 14.895,5.762C14.863,5.762 14.813,5.797 14.781,5.84C14.742,5.883 14.699,5.91 14.672,5.898C14.645,5.891 14.625,5.898 14.625,5.918C14.625,5.938 14.594,5.953 14.559,5.953C14.523,5.953 14.496,5.965 14.496,5.984C14.496,6 14.469,6.016 14.434,6.016C14.398,6.016 14.367,6.031 14.367,6.047C14.367,6.066 14.34,6.078 14.305,6.078C14.27,6.078 14.238,6.094 14.238,6.113C14.238,6.129 14.211,6.145 14.176,6.145C14.141,6.145 14.09,6.18 14.063,6.223C14.031,6.266 13.992,6.293 13.965,6.281C13.941,6.273 13.922,6.281 13.922,6.301C13.922,6.32 13.891,6.336 13.855,6.336C13.82,6.336 13.793,6.352 13.793,6.367C13.793,6.387 13.762,6.398 13.727,6.398C13.691,6.398 13.664,6.414 13.664,6.434C13.664,6.449 13.637,6.465 13.602,6.465C13.566,6.465 13.535,6.477 13.535,6.496C13.535,6.512 13.512,6.527 13.48,6.527C13.449,6.527 13.398,6.563 13.363,6.605C13.332,6.648 13.289,6.676 13.266,6.668C13.242,6.66 13.215,6.676 13.207,6.703C13.195,6.73 13.164,6.742 13.137,6.73C13.109,6.723 13.09,6.73 13.09,6.75C13.09,6.77 13.059,6.785 13.023,6.785C12.988,6.785 12.961,6.797 12.961,6.816C12.961,6.832 12.93,6.848 12.895,6.848C12.859,6.848 12.832,6.863 12.832,6.879C12.832,6.898 12.805,6.91 12.777,6.91C12.746,6.91 12.691,6.945 12.66,6.988C12.629,7.031 12.582,7.063 12.563,7.051C12.539,7.043 12.512,7.059 12.5,7.086C12.492,7.113 12.461,7.129 12.438,7.117C12.414,7.109 12.383,7.121 12.375,7.148C12.363,7.176 12.336,7.191 12.309,7.18C12.285,7.172 12.254,7.188 12.246,7.215C12.234,7.242 12.207,7.254 12.18,7.246C12.156,7.234 12.129,7.25 12.117,7.277C12.105,7.305 12.078,7.32 12.051,7.309C12.023,7.297 12,7.305 12,7.324C12,7.344 11.973,7.359 11.938,7.359C11.902,7.359 11.871,7.375 11.871,7.391C11.871,7.41 11.844,7.426 11.809,7.426C11.777,7.426 11.738,7.438 11.727,7.457C11.719,7.473 11.684,7.488 11.652,7.488C11.621,7.488 11.578,7.523 11.559,7.566C11.535,7.613 11.504,7.641 11.477,7.629C11.453,7.621 11.422,7.633 11.414,7.66C11.402,7.691 11.375,7.703 11.344,7.691C11.316,7.684 11.297,7.688 11.297,7.707C11.297,7.727 11.273,7.742 11.246,7.742C11.215,7.742 11.164,7.781 11.133,7.824C11.098,7.867 11.051,7.895 11.027,7.883C11.004,7.875 10.977,7.891 10.965,7.918C10.953,7.945 10.926,7.961 10.902,7.949C10.875,7.941 10.848,7.953 10.836,7.98C10.828,8.008 10.797,8.023 10.773,8.012C10.75,8.004 10.719,8.02 10.707,8.047C10.699,8.078 10.672,8.09 10.652,8.078C10.633,8.066 10.605,8.074 10.59,8.098C10.574,8.125 10.535,8.145 10.504,8.145C10.473,8.145 10.434,8.176 10.414,8.219C10.395,8.266 10.363,8.285 10.332,8.277C10.301,8.27 10.27,8.281 10.258,8.309C10.25,8.332 10.223,8.344 10.199,8.332C10.172,8.324 10.145,8.34 10.133,8.367C10.121,8.395 10.094,8.406 10.07,8.398C10.043,8.387 10.016,8.402 10.004,8.43C9.996,8.457 9.965,8.473 9.941,8.461C9.918,8.453 9.887,8.465 9.879,8.492C9.867,8.52 9.836,8.535 9.813,8.523C9.789,8.516 9.758,8.523 9.746,8.543C9.734,8.563 9.699,8.574 9.668,8.574C9.637,8.574 9.594,8.613 9.574,8.66C9.551,8.711 9.516,8.734 9.488,8.727C9.465,8.715 9.438,8.727 9.43,8.754C9.418,8.777 9.391,8.793 9.367,8.781C9.34,8.773 9.313,8.789 9.301,8.816C9.289,8.848 9.258,8.863 9.234,8.852C9.211,8.844 9.18,8.855 9.172,8.883C9.164,8.906 9.133,8.918 9.109,8.91C9.086,8.898 9.055,8.914 9.043,8.945C9.035,8.973 9.008,8.988 8.992,8.977C8.973,8.965 8.926,8.992 8.891,9.039C8.855,9.086 8.805,9.117 8.781,9.109C8.762,9.098 8.734,9.113 8.723,9.141C8.711,9.168 8.684,9.184 8.66,9.172C8.633,9.164 8.605,9.18 8.594,9.207C8.586,9.234 8.555,9.246 8.531,9.238C8.504,9.227 8.477,9.242 8.469,9.266C8.457,9.289 8.43,9.305 8.406,9.293C8.379,9.285 8.352,9.297 8.344,9.324C8.332,9.352 8.301,9.363 8.258,9.355C8.219,9.344 8.191,9.352 8.191,9.371C8.191,9.391 8.164,9.406 8.133,9.406C8.102,9.406 8.059,9.445 8.035,9.492C8.012,9.543 7.98,9.566 7.953,9.559C7.93,9.547 7.902,9.563 7.891,9.59C7.879,9.617 7.852,9.633 7.828,9.621C7.801,9.613 7.773,9.625 7.762,9.652C7.754,9.68 7.723,9.695 7.699,9.684C7.672,9.676 7.645,9.691 7.633,9.719C7.625,9.746 7.594,9.758 7.566,9.746C7.539,9.738 7.512,9.75 7.5,9.773C7.492,9.797 7.457,9.809 7.422,9.801C7.379,9.789 7.359,9.801 7.359,9.832C7.359,9.867 7.34,9.875 7.297,9.867C7.262,9.855 7.23,9.863 7.23,9.883C7.23,9.902 7.207,9.922 7.172,9.922C7.141,9.922 7.098,9.957 7.078,10.004C7.055,10.055 7.02,10.078 6.992,10.07C6.969,10.059 6.941,10.074 6.93,10.102C6.918,10.129 6.891,10.145 6.863,10.133C6.836,10.121 6.805,10.133 6.797,10.16C6.781,10.191 6.758,10.195 6.699,10.176C6.648,10.156 6.629,10.156 6.641,10.176C6.684,10.246 6.594,10.336 6.5,10.316C6.43,10.301 6.406,10.313 6.375,10.383C6.352,10.438 6.316,10.465 6.289,10.453C6.266,10.445 6.238,10.457 6.227,10.484C6.215,10.512 6.188,10.527 6.164,10.516C6.137,10.508 6.109,10.523 6.098,10.551C6.086,10.578 6.059,10.59 6.031,10.578C6.004,10.57 5.973,10.582 5.965,10.605C5.953,10.629 5.922,10.641 5.887,10.633C5.844,10.621 5.824,10.633 5.824,10.668C5.824,10.699 5.805,10.711 5.777,10.699C5.75,10.691 5.719,10.703 5.711,10.73C5.699,10.758 5.668,10.77 5.633,10.762C5.598,10.754 5.57,10.77 5.563,10.809C5.543,10.871 5.355,10.988 5.313,10.961C5.297,10.953 5.277,10.969 5.266,10.996C5.258,11.023 5.227,11.039 5.203,11.031C5.176,11.02 5.148,11.035 5.137,11.063C5.129,11.09 5.098,11.102 5.07,11.094C5.043,11.082 5.012,11.094 5.004,11.121C4.992,11.152 4.961,11.164 4.926,11.152C4.883,11.137 4.863,11.148 4.863,11.18C4.863,11.207 4.844,11.219 4.809,11.211C4.773,11.203 4.742,11.223 4.719,11.27C4.703,11.313 4.668,11.344 4.641,11.344C4.613,11.344 4.574,11.363 4.559,11.391C4.539,11.414 4.508,11.426 4.488,11.414C4.469,11.402 4.445,11.414 4.434,11.445C4.426,11.473 4.395,11.488 4.371,11.477C4.344,11.469 4.316,11.48 4.309,11.508C4.293,11.539 4.266,11.551 4.223,11.535C4.18,11.523 4.16,11.531 4.16,11.563C4.16,11.594 4.137,11.605 4.102,11.594C4.059,11.582 4.035,11.598 4.023,11.641C4.008,11.703 3.84,11.809 3.754,11.809C3.73,11.809 3.711,11.824 3.711,11.844C3.711,11.863 3.691,11.871 3.668,11.863C3.641,11.852 3.613,11.867 3.602,11.895C3.59,11.922 3.563,11.934 3.535,11.926C3.508,11.914 3.477,11.926 3.469,11.953C3.457,11.984 3.426,11.996 3.387,11.984C3.344,11.969 3.328,11.98 3.328,12.016C3.328,12.051 3.313,12.063 3.277,12.051C3.25,12.043 3.223,12.055 3.211,12.082C3.199,12.113 3.172,12.121 3.133,12.109C3.09,12.098 3.07,12.105 3.07,12.145C3.07,12.18 3.055,12.191 3.012,12.176C2.969,12.164 2.945,12.176 2.938,12.219C2.922,12.277 2.75,12.383 2.668,12.383C2.645,12.383 2.625,12.398 2.625,12.414C2.625,12.434 2.594,12.449 2.559,12.449C2.523,12.449 2.496,12.465 2.496,12.48C2.496,12.5 2.473,12.508 2.441,12.5C2.359,12.473 2.219,12.688 2.273,12.754C2.293,12.777 2.305,12.82 2.293,12.848C2.281,12.875 2.285,12.895 2.301,12.895C2.316,12.895 2.559,13.125 2.844,13.406C3.328,13.895 3.52,14.031 3.52,13.887C3.52,13.871 3.547,13.855 3.586,13.855C3.621,13.855 3.648,13.84 3.648,13.82C3.648,13.801 3.676,13.793 3.715,13.801C3.762,13.813 3.789,13.797 3.816,13.742C3.836,13.699 3.875,13.664 3.906,13.664C3.938,13.664 3.973,13.648 3.984,13.629C3.996,13.609 4.023,13.602 4.047,13.609C4.07,13.621 4.105,13.594 4.129,13.551C4.152,13.508 4.195,13.473 4.23,13.473C4.262,13.473 4.289,13.457 4.289,13.441C4.289,13.422 4.316,13.406 4.352,13.406C4.387,13.406 4.414,13.395 4.414,13.375C4.414,13.359 4.445,13.344 4.477,13.344C4.512,13.344 4.551,13.328 4.563,13.309C4.574,13.293 4.602,13.285 4.629,13.293C4.656,13.305 4.688,13.281 4.711,13.23C4.73,13.188 4.773,13.152 4.805,13.152C4.836,13.152 4.883,13.125 4.902,13.09C4.926,13.055 4.969,13.023 5,13.023C5.031,13.023 5.055,13.008 5.055,12.992C5.055,12.973 5.074,12.961 5.098,12.961C5.168,12.961 5.348,12.859 5.367,12.813C5.375,12.789 5.41,12.77 5.445,12.77C5.477,12.77 5.504,12.754 5.504,12.734C5.504,12.719 5.531,12.703 5.566,12.703C5.602,12.703 5.648,12.676 5.672,12.641C5.695,12.605 5.738,12.574 5.77,12.574C5.797,12.574 5.824,12.563 5.824,12.543C5.824,12.527 5.852,12.512 5.887,12.512C5.922,12.512 5.953,12.496 5.953,12.48C5.953,12.461 5.98,12.449 6.016,12.449C6.047,12.449 6.086,12.434 6.098,12.414C6.109,12.395 6.141,12.387 6.164,12.398C6.191,12.406 6.223,12.383 6.246,12.336C6.266,12.293 6.309,12.258 6.34,12.258C6.371,12.258 6.406,12.242 6.418,12.223C6.43,12.203 6.461,12.195 6.484,12.207C6.508,12.215 6.539,12.199 6.551,12.172C6.559,12.145 6.59,12.133 6.613,12.141C6.637,12.152 6.676,12.121 6.703,12.063C6.734,12.008 6.77,11.977 6.797,11.988C6.82,11.996 6.848,11.98 6.859,11.953C6.871,11.926 6.898,11.914 6.926,11.926C6.953,11.934 6.977,11.926 6.977,11.906C6.977,11.887 7.012,11.871 7.055,11.871C7.105,11.871 7.141,11.848 7.152,11.809C7.164,11.773 7.199,11.742 7.234,11.742C7.27,11.742 7.297,11.73 7.297,11.711C7.297,11.695 7.328,11.68 7.371,11.68C7.418,11.68 7.457,11.652 7.48,11.602C7.504,11.547 7.535,11.527 7.566,11.539C7.594,11.551 7.617,11.543 7.617,11.523C7.617,11.504 7.645,11.488 7.68,11.488C7.711,11.488 7.75,11.473 7.762,11.457C7.77,11.438 7.805,11.426 7.836,11.426C7.867,11.426 7.91,11.387 7.93,11.344C7.953,11.297 7.98,11.27 8,11.277C8.016,11.289 8.078,11.27 8.145,11.234C8.207,11.195 8.277,11.168 8.301,11.168C8.324,11.168 8.352,11.148 8.363,11.125C8.379,11.082 8.688,10.91 8.75,10.91C8.77,10.91 8.801,10.883 8.824,10.848C8.848,10.813 8.895,10.785 8.93,10.785C8.965,10.785 8.992,10.77 8.992,10.754C8.992,10.734 9.02,10.719 9.055,10.719C9.09,10.719 9.121,10.707 9.121,10.688C9.121,10.672 9.145,10.656 9.18,10.656C9.211,10.656 9.254,10.621 9.273,10.578C9.297,10.527 9.328,10.504 9.355,10.516C9.383,10.523 9.41,10.516 9.422,10.5C9.434,10.48 9.473,10.465 9.508,10.465C9.539,10.465 9.566,10.449 9.566,10.434C9.566,10.414 9.598,10.398 9.633,10.398C9.668,10.398 9.695,10.387 9.695,10.367C9.695,10.352 9.723,10.336 9.754,10.336C9.789,10.336 9.828,10.301 9.852,10.258C9.871,10.207 9.902,10.184 9.934,10.195C9.957,10.203 9.988,10.195 10,10.18C10.012,10.16 10.047,10.145 10.082,10.145C10.117,10.145 10.145,10.129 10.145,10.113C10.145,10.094 10.172,10.078 10.203,10.078C10.234,10.078 10.277,10.043 10.301,9.996C10.32,9.953 10.355,9.922 10.375,9.93C10.398,9.938 10.465,9.914 10.52,9.883C10.578,9.852 10.645,9.824 10.664,9.824C10.688,9.824 10.723,9.797 10.746,9.762C10.766,9.727 10.813,9.695 10.848,9.695C10.883,9.695 10.91,9.68 10.91,9.664C10.91,9.645 10.938,9.633 10.969,9.633C11.004,9.633 11.047,9.598 11.07,9.555C11.094,9.512 11.129,9.484 11.152,9.492C11.176,9.5 11.203,9.492 11.215,9.473C11.227,9.457 11.262,9.441 11.293,9.441C11.324,9.441 11.367,9.406 11.391,9.363C11.414,9.32 11.449,9.293 11.473,9.301C11.496,9.309 11.523,9.301 11.535,9.281C11.547,9.262 11.582,9.246 11.617,9.246C11.652,9.246 11.68,9.234 11.68,9.215C11.68,9.199 11.707,9.184 11.738,9.184C11.77,9.184 11.816,9.148 11.836,9.102C11.859,9.047 11.891,9.023 11.918,9.035C11.945,9.047 11.973,9.039 11.984,9.023C11.996,9.004 12.027,8.992 12.059,8.992C12.09,8.992 12.129,8.965 12.152,8.93C12.176,8.895 12.223,8.863 12.258,8.863C12.293,8.863 12.32,8.848 12.32,8.832C12.32,8.813 12.348,8.801 12.383,8.801C12.418,8.801 12.449,8.785 12.449,8.77C12.449,8.75 12.473,8.734 12.508,8.734C12.539,8.734 12.586,8.699 12.609,8.656C12.633,8.609 12.668,8.582 12.691,8.59C12.715,8.598 12.75,8.582 12.77,8.559C12.789,8.535 12.82,8.52 12.832,8.527C12.848,8.539 12.867,8.531 12.879,8.512C12.891,8.496 12.93,8.48 12.961,8.48C12.996,8.48 13.023,8.465 13.023,8.449C13.023,8.43 13.051,8.414 13.082,8.414C13.113,8.414 13.16,8.379 13.184,8.336C13.215,8.281 13.246,8.262 13.285,8.273C13.316,8.285 13.344,8.277 13.344,8.258C13.344,8.238 13.371,8.223 13.398,8.223C13.43,8.223 13.473,8.195 13.496,8.16C13.52,8.125 13.566,8.098 13.602,8.098C13.637,8.098 13.664,8.082 13.664,8.063C13.664,8.047 13.691,8.031 13.727,8.031C13.762,8.031 13.793,8.02 13.793,8C13.793,7.98 13.82,7.969 13.855,7.969C13.891,7.969 13.922,7.953 13.922,7.938C13.922,7.918 13.941,7.902 13.973,7.902C14,7.902 14.051,7.867 14.086,7.824C14.121,7.781 14.164,7.75 14.18,7.762C14.195,7.773 14.238,7.746 14.273,7.699C14.313,7.652 14.359,7.625 14.387,7.637C14.41,7.648 14.434,7.641 14.434,7.621C14.434,7.602 14.461,7.586 14.496,7.586C14.531,7.586 14.559,7.57 14.559,7.551C14.559,7.535 14.586,7.52 14.617,7.52C14.652,7.52 14.695,7.484 14.719,7.441C14.75,7.383 14.781,7.363 14.82,7.379C14.855,7.387 14.879,7.383 14.879,7.363C14.879,7.344 14.91,7.328 14.945,7.328C14.98,7.328 15.008,7.313 15.008,7.297C15.008,7.277 15.035,7.266 15.066,7.266C15.098,7.266 15.145,7.227 15.168,7.184C15.195,7.129 15.23,7.109 15.266,7.121C15.297,7.129 15.328,7.117 15.34,7.09C15.348,7.063 15.379,7.051 15.402,7.059C15.426,7.066 15.457,7.055 15.465,7.027C15.477,6.996 15.508,6.984 15.535,6.996C15.563,7.008 15.586,7 15.586,6.98C15.586,6.961 15.609,6.945 15.641,6.945C15.676,6.945 15.723,6.906 15.746,6.863C15.77,6.816 15.805,6.789 15.828,6.797C15.848,6.805 15.883,6.793 15.902,6.77C15.926,6.742 15.961,6.73 15.984,6.742C16.012,6.75 16.031,6.742 16.031,6.723C16.031,6.703 16.055,6.688 16.082,6.688C16.113,6.688 16.164,6.652 16.195,6.609C16.23,6.563 16.277,6.539 16.305,6.551C16.332,6.559 16.352,6.551 16.352,6.531C16.352,6.512 16.379,6.496 16.414,6.496C16.445,6.496 16.48,6.477 16.492,6.449C16.5,6.422 16.531,6.41 16.559,6.422C16.586,6.43 16.609,6.422 16.609,6.402C16.609,6.383 16.633,6.367 16.664,6.367C16.695,6.367 16.746,6.332 16.777,6.289C16.813,6.246 16.859,6.219 16.883,6.23C16.906,6.238 16.93,6.23 16.93,6.211C16.93,6.191 16.953,6.176 16.984,6.176C17.016,6.176 17.066,6.141 17.098,6.098C17.133,6.055 17.176,6.027 17.195,6.035C17.238,6.051 17.355,5.875 17.32,5.844C17.313,5.832 17.273,5.824 17.242,5.824C17.211,5.824 17.184,5.809 17.184,5.793C17.184,5.773 17.156,5.762 17.121,5.762C17.086,5.762 17.055,5.746 17.055,5.727C17.055,5.711 17.027,5.695 16.992,5.695C16.957,5.695 16.93,5.68 16.93,5.664C16.93,5.645 16.898,5.633 16.863,5.633C16.828,5.633 16.801,5.617 16.801,5.598C16.801,5.578 16.777,5.57 16.75,5.578C16.723,5.59 16.695,5.578 16.684,5.551C16.672,5.523 16.641,5.504 16.613,5.504C16.582,5.504 16.539,5.477 16.512,5.441C16.488,5.406 16.441,5.375 16.41,5.375C16.379,5.375 16.352,5.363 16.352,5.344C16.352,5.328 16.324,5.313 16.289,5.313C16.254,5.313 16.223,5.297 16.223,5.281C16.223,5.262 16.195,5.246 16.16,5.246C16.125,5.246 16.098,5.234 16.098,5.215C16.098,5.199 16.055,5.184 16,5.184C15.945,5.184 15.902,5.199 15.902,5.215M17.887,6.223C17.887,6.25 17.863,6.273 17.828,6.273C17.797,6.273 17.75,6.309 17.727,6.352C17.699,6.41 17.668,6.426 17.625,6.414C17.594,6.402 17.566,6.41 17.566,6.43C17.566,6.449 17.539,6.465 17.504,6.465C17.469,6.465 17.441,6.477 17.441,6.496C17.441,6.512 17.418,6.527 17.387,6.527C17.359,6.527 17.309,6.563 17.277,6.605C17.238,6.652 17.195,6.676 17.168,6.668C17.141,6.656 17.121,6.664 17.121,6.684C17.121,6.703 17.09,6.719 17.055,6.719C17.02,6.719 16.992,6.734 16.992,6.754C16.992,6.77 16.965,6.785 16.938,6.785C16.906,6.785 16.863,6.813 16.84,6.848C16.816,6.883 16.773,6.91 16.742,6.91C16.711,6.91 16.664,6.949 16.641,6.992C16.609,7.047 16.578,7.066 16.543,7.055C16.512,7.047 16.48,7.059 16.469,7.086C16.457,7.113 16.43,7.125 16.402,7.117C16.375,7.105 16.352,7.113 16.352,7.133C16.352,7.152 16.324,7.168 16.289,7.168C16.254,7.168 16.223,7.184 16.223,7.199C16.223,7.219 16.195,7.23 16.16,7.23C16.125,7.23 16.098,7.246 16.098,7.266C16.098,7.281 16.07,7.297 16.039,7.297C16.008,7.297 15.961,7.324 15.938,7.359C15.91,7.395 15.867,7.426 15.84,7.426C15.809,7.426 15.766,7.461 15.742,7.504C15.715,7.563 15.684,7.578 15.641,7.566C15.609,7.555 15.586,7.563 15.586,7.582C15.586,7.602 15.555,7.617 15.52,7.617C15.484,7.617 15.457,7.629 15.457,7.648C15.457,7.664 15.43,7.68 15.398,7.68C15.367,7.68 15.32,7.707 15.297,7.742C15.27,7.777 15.227,7.809 15.199,7.809C15.172,7.809 15.129,7.844 15.105,7.887C15.074,7.941 15.043,7.965 15.008,7.953C14.973,7.941 14.945,7.953 14.934,7.984C14.922,8.012 14.895,8.023 14.863,8.012C14.84,8 14.816,8.008 14.816,8.027C14.816,8.047 14.789,8.063 14.758,8.063C14.727,8.063 14.68,8.102 14.656,8.145C14.625,8.199 14.594,8.219 14.555,8.207C14.523,8.195 14.496,8.203 14.496,8.223C14.496,8.242 14.469,8.258 14.438,8.258C14.406,8.258 14.359,8.293 14.336,8.336C14.309,8.387 14.273,8.41 14.238,8.398C14.207,8.391 14.172,8.41 14.145,8.465C14.121,8.508 14.074,8.543 14.043,8.543C14.012,8.543 13.98,8.559 13.969,8.574C13.957,8.59 13.93,8.598 13.902,8.586C13.879,8.578 13.855,8.586 13.855,8.605C13.855,8.625 13.832,8.641 13.801,8.641C13.77,8.641 13.719,8.676 13.684,8.719C13.652,8.762 13.605,8.789 13.582,8.777C13.555,8.77 13.535,8.781 13.535,8.816C13.535,8.855 13.52,8.867 13.473,8.855C13.438,8.848 13.406,8.859 13.395,8.883C13.387,8.906 13.359,8.918 13.336,8.91C13.309,8.902 13.273,8.93 13.246,8.977C13.219,9.031 13.184,9.055 13.148,9.047C13.117,9.039 13.086,9.051 13.074,9.074C13.066,9.098 13.035,9.109 13.008,9.102C12.98,9.09 12.961,9.098 12.961,9.117C12.961,9.137 12.938,9.152 12.91,9.152C12.879,9.152 12.828,9.188 12.797,9.23C12.758,9.277 12.715,9.301 12.688,9.293C12.66,9.281 12.641,9.289 12.641,9.309C12.641,9.328 12.613,9.344 12.578,9.344C12.543,9.344 12.492,9.379 12.461,9.422C12.434,9.469 12.391,9.492 12.367,9.484C12.281,9.449 12.316,9.574 12.434,9.699C12.492,9.77 12.543,9.844 12.543,9.867C12.543,9.898 12.566,9.906 12.609,9.898C12.656,9.887 12.691,9.902 12.723,9.949C12.75,9.984 12.797,10.016 12.824,10.016C12.855,10.016 12.898,10.043 12.922,10.078C12.941,10.113 12.984,10.145 13.016,10.145C13.047,10.145 13.094,10.172 13.121,10.207C13.145,10.242 13.188,10.273 13.215,10.273C13.242,10.273 13.285,10.301 13.313,10.336C13.336,10.371 13.379,10.398 13.406,10.398C13.434,10.398 13.48,10.43 13.504,10.465C13.531,10.5 13.574,10.527 13.605,10.527C13.637,10.527 13.664,10.543 13.664,10.559C13.664,10.578 13.707,10.594 13.762,10.594C13.813,10.594 13.855,10.578 13.855,10.559C13.855,10.543 13.883,10.527 13.918,10.527C13.953,10.527 14,10.5 14.023,10.465C14.047,10.43 14.09,10.398 14.121,10.398C14.152,10.398 14.176,10.387 14.176,10.367C14.176,10.352 14.203,10.336 14.23,10.336C14.262,10.336 14.305,10.309 14.328,10.273C14.352,10.238 14.395,10.207 14.426,10.207C14.457,10.207 14.504,10.18 14.527,10.145C14.555,10.109 14.598,10.078 14.625,10.078C14.652,10.078 14.695,10.043 14.719,10C14.75,9.945 14.781,9.926 14.82,9.938C14.855,9.949 14.879,9.941 14.879,9.922C14.879,9.902 14.91,9.887 14.945,9.887C14.98,9.887 15.008,9.875 15.008,9.855C15.008,9.84 15.035,9.824 15.07,9.824C15.102,9.824 15.164,9.781 15.203,9.727C15.246,9.676 15.305,9.633 15.336,9.633C15.367,9.633 15.391,9.617 15.391,9.598C15.391,9.578 15.422,9.566 15.457,9.578C15.492,9.586 15.52,9.582 15.52,9.566C15.52,9.516 15.625,9.41 15.656,9.43C15.672,9.438 15.711,9.406 15.746,9.363C15.785,9.316 15.828,9.289 15.844,9.297C15.859,9.309 15.902,9.281 15.938,9.234C15.977,9.188 16.023,9.164 16.051,9.172C16.074,9.184 16.098,9.176 16.098,9.156C16.098,9.137 16.125,9.121 16.16,9.121C16.195,9.121 16.242,9.09 16.262,9.055C16.285,9.02 16.336,8.992 16.375,8.992C16.414,8.992 16.453,8.965 16.465,8.93C16.477,8.895 16.512,8.863 16.547,8.863C16.578,8.863 16.629,8.828 16.66,8.785C16.688,8.742 16.723,8.711 16.742,8.723C16.758,8.734 16.801,8.703 16.836,8.66C16.871,8.613 16.918,8.586 16.945,8.598C16.973,8.605 16.992,8.598 16.992,8.578C16.992,8.559 17.02,8.543 17.055,8.543C17.09,8.543 17.121,8.531 17.121,8.512C17.121,8.465 17.246,8.473 17.25,8.52C17.254,8.543 17.266,8.512 17.285,8.457C17.301,8.395 17.336,8.352 17.367,8.352C17.395,8.352 17.461,8.301 17.512,8.242C17.566,8.176 17.625,8.141 17.652,8.148C17.676,8.16 17.695,8.152 17.695,8.133C17.695,8.113 17.719,8.098 17.746,8.098C17.777,8.098 17.828,8.063 17.859,8.016C17.895,7.973 17.941,7.945 17.965,7.957C17.988,7.965 18.016,7.949 18.027,7.926C18.035,7.895 18.07,7.883 18.105,7.895C18.152,7.906 18.176,7.891 18.191,7.844C18.203,7.805 18.238,7.777 18.266,7.777C18.297,7.777 18.344,7.746 18.367,7.711C18.395,7.676 18.434,7.648 18.457,7.648C18.484,7.648 18.531,7.613 18.566,7.57C18.602,7.523 18.645,7.5 18.672,7.508C18.699,7.52 18.719,7.512 18.719,7.492C18.719,7.473 18.754,7.457 18.793,7.453C18.836,7.453 18.887,7.414 18.93,7.352C18.965,7.293 19.02,7.25 19.047,7.258C19.074,7.262 19.105,7.242 19.113,7.219C19.125,7.191 19.152,7.176 19.176,7.184C19.199,7.191 19.25,7.152 19.289,7.102C19.371,7 19.336,6.91 19.219,6.91C19.191,6.91 19.168,6.895 19.168,6.875C19.168,6.855 19.145,6.852 19.117,6.859C19.09,6.871 19.063,6.859 19.051,6.832C19.043,6.805 19.008,6.785 18.973,6.785C18.938,6.785 18.91,6.77 18.91,6.75C18.91,6.73 18.891,6.723 18.863,6.73C18.836,6.742 18.805,6.73 18.793,6.703C18.785,6.676 18.754,6.66 18.73,6.668C18.703,6.68 18.672,6.656 18.648,6.605C18.625,6.555 18.586,6.527 18.539,6.527C18.496,6.527 18.465,6.508 18.465,6.484C18.465,6.453 18.441,6.445 18.398,6.453C18.363,6.465 18.336,6.457 18.336,6.434C18.336,6.41 18.316,6.402 18.285,6.41C18.258,6.422 18.23,6.41 18.219,6.383C18.207,6.355 18.18,6.34 18.156,6.348C18.129,6.359 18.102,6.344 18.09,6.316C18.082,6.289 18.051,6.277 18.023,6.285C17.996,6.297 17.973,6.281 17.961,6.238C17.941,6.164 17.887,6.152 17.887,6.223M19.938,7.391C19.938,7.41 19.91,7.426 19.879,7.426C19.844,7.426 19.801,7.457 19.777,7.5C19.754,7.547 19.719,7.57 19.684,7.563C19.648,7.551 19.613,7.578 19.59,7.633C19.563,7.691 19.535,7.711 19.492,7.699C19.453,7.684 19.422,7.703 19.391,7.762C19.363,7.816 19.332,7.836 19.289,7.82C19.258,7.813 19.23,7.82 19.23,7.836C19.23,7.855 19.207,7.871 19.176,7.871C19.145,7.871 19.098,7.902 19.07,7.938C19.047,7.973 19.004,8 18.977,8C18.949,8 18.91,8.027 18.887,8.063C18.867,8.098 18.82,8.129 18.789,8.129C18.758,8.129 18.711,8.164 18.688,8.207C18.66,8.262 18.625,8.281 18.59,8.273C18.555,8.262 18.527,8.281 18.5,8.336C18.473,8.395 18.445,8.414 18.406,8.402C18.363,8.391 18.336,8.406 18.305,8.465C18.277,8.516 18.242,8.539 18.207,8.527C18.172,8.516 18.141,8.539 18.117,8.594C18.094,8.648 18.063,8.672 18.031,8.66C18.008,8.652 17.961,8.676 17.922,8.723C17.887,8.77 17.848,8.797 17.832,8.789C17.734,8.727 17.707,8.891 17.801,8.988C17.852,9.047 17.887,9.109 17.875,9.137C17.859,9.176 17.871,9.176 17.926,9.145C17.98,9.113 17.996,9.113 18.008,9.145C18.016,9.164 18.051,9.184 18.082,9.184C18.117,9.184 18.145,9.199 18.145,9.215C18.145,9.234 18.172,9.246 18.207,9.246C18.242,9.246 18.289,9.277 18.313,9.313C18.332,9.348 18.375,9.375 18.406,9.375C18.438,9.375 18.48,9.406 18.504,9.441C18.527,9.477 18.57,9.504 18.602,9.504C18.629,9.504 18.656,9.52 18.656,9.535C18.656,9.555 18.68,9.566 18.707,9.566C18.762,9.566 18.848,9.641 18.848,9.691C18.848,9.707 18.875,9.715 18.91,9.707C18.949,9.695 18.977,9.703 18.977,9.723C18.977,9.742 19.004,9.762 19.039,9.762C19.07,9.762 19.109,9.773 19.117,9.789C19.129,9.809 19.16,9.813 19.184,9.805C19.211,9.793 19.238,9.809 19.25,9.836C19.277,9.902 19.348,9.902 19.371,9.84C19.383,9.813 19.406,9.801 19.43,9.809C19.453,9.816 19.5,9.789 19.531,9.746C19.563,9.703 19.609,9.676 19.633,9.684C19.656,9.695 19.699,9.664 19.727,9.621C19.758,9.574 19.801,9.547 19.82,9.555C19.844,9.563 19.902,9.52 19.949,9.457C20,9.391 20.051,9.352 20.078,9.363C20.105,9.375 20.141,9.352 20.164,9.316C20.188,9.277 20.234,9.246 20.273,9.246C20.309,9.246 20.367,9.203 20.41,9.137C20.453,9.078 20.504,9.035 20.527,9.043C20.547,9.051 20.605,9.008 20.656,8.945C20.707,8.887 20.758,8.844 20.773,8.852C20.789,8.863 20.824,8.852 20.848,8.832C20.875,8.809 20.914,8.801 20.941,8.809C20.969,8.82 20.992,8.801 21.004,8.75C21.02,8.695 21.047,8.672 21.105,8.672C21.148,8.672 21.184,8.66 21.184,8.645C21.184,8.586 21.32,8.465 21.375,8.473C21.41,8.48 21.441,8.457 21.453,8.422C21.465,8.387 21.5,8.336 21.535,8.305C21.605,8.242 21.563,8.121 21.484,8.152C21.461,8.16 21.434,8.145 21.422,8.117C21.41,8.09 21.383,8.074 21.359,8.086C21.332,8.094 21.305,8.082 21.293,8.055C21.281,8.027 21.254,8.012 21.23,8.02C21.203,8.031 21.172,8.004 21.148,7.957C21.121,7.898 21.086,7.871 21.035,7.871C20.992,7.871 20.961,7.855 20.961,7.836C20.961,7.816 20.938,7.809 20.91,7.82C20.883,7.832 20.855,7.816 20.844,7.789C20.832,7.762 20.805,7.75 20.777,7.758C20.754,7.766 20.727,7.754 20.715,7.727C20.703,7.699 20.676,7.684 20.656,7.691C20.633,7.699 20.59,7.672 20.563,7.629C20.535,7.586 20.48,7.551 20.449,7.551C20.414,7.551 20.383,7.539 20.383,7.52C20.383,7.504 20.355,7.488 20.32,7.488C20.285,7.488 20.258,7.473 20.258,7.457C20.258,7.438 20.227,7.426 20.191,7.426C20.156,7.426 20.129,7.41 20.129,7.391C20.129,7.375 20.086,7.359 20.031,7.359C19.98,7.359 19.938,7.375 19.938,7.391M22.156,8.73C22.129,8.77 22.09,8.797 22.063,8.789C22.039,8.781 22.012,8.793 22.004,8.82C21.992,8.848 21.961,8.863 21.93,8.852C21.887,8.84 21.84,8.879 21.766,8.98C21.688,9.082 21.645,9.117 21.602,9.105C21.563,9.094 21.535,9.113 21.508,9.172C21.484,9.227 21.453,9.246 21.422,9.234C21.367,9.215 21.332,9.242 21.219,9.402C21.176,9.465 21.125,9.5 21.102,9.492C21.074,9.48 21.035,9.508 21.004,9.555C20.969,9.605 20.934,9.629 20.898,9.617C20.859,9.605 20.832,9.625 20.805,9.684C20.777,9.738 20.75,9.762 20.719,9.746C20.664,9.727 20.605,9.77 20.547,9.883C20.52,9.93 20.488,9.949 20.453,9.938C20.41,9.926 20.383,9.945 20.355,10C20.332,10.059 20.301,10.078 20.266,10.066C20.227,10.055 20.188,10.082 20.133,10.164C20.086,10.242 20.043,10.27 20.008,10.258C19.969,10.246 19.93,10.277 19.879,10.352C19.836,10.418 19.781,10.465 19.746,10.465C19.711,10.465 19.668,10.492 19.648,10.531C19.625,10.57 19.594,10.59 19.555,10.578C19.516,10.566 19.484,10.586 19.457,10.641C19.43,10.691 19.395,10.715 19.359,10.703C19.324,10.691 19.293,10.715 19.27,10.77C19.242,10.832 19.215,10.848 19.168,10.832C19.133,10.82 19.105,10.824 19.105,10.836C19.105,10.895 18.949,11.039 18.906,11.023C18.879,11.012 18.844,11.039 18.816,11.09C18.789,11.137 18.754,11.164 18.727,11.152C18.684,11.137 18.527,11.281 18.527,11.34C18.527,11.352 18.504,11.355 18.473,11.348C18.434,11.336 18.395,11.363 18.344,11.441C18.293,11.52 18.254,11.551 18.215,11.539C18.176,11.527 18.137,11.559 18.086,11.637C18.035,11.715 17.992,11.746 17.953,11.734C17.914,11.727 17.879,11.746 17.855,11.797C17.828,11.844 17.793,11.867 17.762,11.855C17.73,11.848 17.684,11.883 17.637,11.953C17.594,12.016 17.535,12.063 17.508,12.063C17.477,12.063 17.434,12.094 17.406,12.129C17.383,12.164 17.34,12.191 17.316,12.191C17.293,12.191 17.234,12.238 17.184,12.293C17.137,12.348 17.078,12.387 17.051,12.379C17.027,12.367 16.977,12.41 16.934,12.473C16.883,12.547 16.84,12.578 16.801,12.566C16.762,12.559 16.727,12.578 16.703,12.629C16.68,12.672 16.637,12.703 16.609,12.695C16.582,12.691 16.527,12.734 16.484,12.793C16.434,12.867 16.391,12.898 16.352,12.887C16.316,12.879 16.281,12.898 16.254,12.949C16.227,13 16.195,13.02 16.156,13.008C16.121,12.996 16.098,13 16.098,13.016C16.098,13.07 15.938,13.223 15.895,13.207C15.867,13.195 15.832,13.223 15.805,13.27C15.781,13.313 15.746,13.34 15.719,13.328C15.695,13.32 15.645,13.348 15.613,13.391C15.578,13.434 15.531,13.461 15.512,13.457C15.488,13.449 15.438,13.492 15.391,13.555C15.344,13.621 15.293,13.66 15.258,13.652C15.227,13.645 15.191,13.672 15.164,13.719C15.137,13.77 15.102,13.789 15.066,13.781C15.035,13.773 15.008,13.777 15.008,13.785C15.008,13.84 14.844,13.988 14.805,13.973C14.777,13.965 14.742,13.988 14.719,14.035C14.688,14.09 14.656,14.109 14.617,14.102C14.586,14.094 14.559,14.094 14.559,14.105C14.559,14.148 14.406,14.305 14.367,14.305C14.348,14.305 14.301,14.336 14.27,14.371C14.238,14.41 14.191,14.434 14.168,14.422C14.145,14.414 14.09,14.457 14.047,14.516C14,14.582 13.949,14.621 13.914,14.613C13.883,14.605 13.848,14.633 13.82,14.68C13.789,14.738 13.762,14.75 13.707,14.738C13.656,14.727 13.633,14.734 13.633,14.758C13.629,14.836 13.508,14.949 13.449,14.93C13.406,14.918 13.375,14.941 13.328,15.027C13.285,15.105 13.25,15.137 13.215,15.125C13.18,15.117 13.145,15.141 13.117,15.188C13.094,15.23 13.055,15.266 13.023,15.266C12.859,15.266 12.801,15.461 12.93,15.594C12.98,15.648 13.023,15.707 13.023,15.719C13.023,15.73 13.047,15.734 13.074,15.723C13.121,15.707 13.25,15.824 13.363,15.988C13.391,16.031 13.434,16.051 13.457,16.043C13.5,16.027 13.789,16.301 13.793,16.359C13.793,16.371 13.813,16.375 13.84,16.363C13.883,16.348 14.238,16.684 14.238,16.742C14.238,16.754 14.262,16.758 14.289,16.746C14.316,16.738 14.367,16.77 14.418,16.828C14.52,16.949 14.727,16.973 14.789,16.863C14.82,16.82 14.852,16.809 14.906,16.82C14.953,16.832 14.977,16.828 14.965,16.813C14.934,16.754 15.094,16.602 15.164,16.621C15.207,16.637 15.234,16.625 15.246,16.586C15.281,16.488 15.422,16.344 15.473,16.363C15.496,16.371 15.52,16.367 15.527,16.355C15.559,16.277 15.793,16.031 15.84,16.031C15.871,16.031 15.934,15.988 15.977,15.934C16.031,15.867 16.078,15.84 16.109,15.852C16.137,15.863 16.16,15.859 16.16,15.848C16.164,15.801 16.379,15.586 16.426,15.586C16.453,15.586 16.496,15.555 16.523,15.516C16.555,15.473 16.59,15.457 16.621,15.465C16.656,15.48 16.703,15.441 16.777,15.344C16.848,15.246 16.898,15.203 16.938,15.215C16.969,15.223 17.008,15.199 17.031,15.156C17.086,15.051 17.148,15 17.199,15.02C17.223,15.027 17.266,15.004 17.289,14.965C17.391,14.816 17.473,14.746 17.52,14.762C17.547,14.773 17.566,14.773 17.57,14.758C17.57,14.719 17.785,14.496 17.82,14.496C17.836,14.496 17.867,14.52 17.891,14.551C17.922,14.602 17.922,14.602 17.91,14.555C17.895,14.504 17.957,14.395 18.07,14.277C18.094,14.254 18.137,14.242 18.16,14.25C18.188,14.262 18.207,14.258 18.207,14.246C18.207,14.199 18.426,13.984 18.473,13.984C18.496,13.984 18.555,13.938 18.602,13.883C18.652,13.824 18.703,13.789 18.73,13.801C18.762,13.813 18.805,13.781 18.852,13.707C18.902,13.637 18.945,13.602 18.98,13.613C19.016,13.621 19.063,13.586 19.109,13.516C19.156,13.449 19.211,13.41 19.258,13.41C19.297,13.406 19.328,13.398 19.328,13.383C19.328,13.336 19.516,13.152 19.563,13.152C19.59,13.152 19.648,13.105 19.695,13.055C19.738,13 19.797,12.961 19.82,12.969C19.844,12.98 19.91,12.926 19.969,12.844C20.039,12.754 20.098,12.707 20.133,12.715C20.164,12.723 20.215,12.695 20.246,12.648C20.363,12.488 20.41,12.449 20.469,12.445C20.5,12.445 20.57,12.387 20.625,12.32C20.68,12.246 20.742,12.199 20.77,12.203C20.797,12.211 20.855,12.168 20.898,12.105C20.949,12.039 20.996,12.004 21.031,12.012C21.066,12.02 21.102,12 21.125,11.957C21.18,11.859 21.234,11.809 21.297,11.809C21.355,11.809 21.383,11.785 21.531,11.594C21.598,11.504 21.652,11.465 21.684,11.477C21.711,11.488 21.75,11.469 21.781,11.426C21.809,11.387 21.848,11.363 21.871,11.371C21.895,11.379 21.949,11.34 21.992,11.285C22.168,11.066 22.215,11.023 22.273,11.035C22.309,11.039 22.336,11.031 22.336,11.02C22.336,10.961 22.539,10.77 22.586,10.777C22.617,10.781 22.668,10.742 22.703,10.688C22.738,10.637 22.797,10.594 22.832,10.594C22.867,10.594 22.926,10.551 22.961,10.496C22.996,10.441 23.051,10.398 23.09,10.398C23.125,10.398 23.18,10.355 23.215,10.305C23.25,10.25 23.309,10.207 23.344,10.207C23.379,10.207 23.43,10.176 23.457,10.141C23.578,9.965 23.621,9.926 23.672,9.938C23.707,9.949 23.75,9.914 23.793,9.848C23.84,9.777 23.879,9.746 23.926,9.754C23.996,9.762 24.031,9.707 24.051,9.555C24.063,9.48 24.055,9.469 24.004,9.48C23.965,9.488 23.934,9.477 23.922,9.453C23.914,9.43 23.883,9.418 23.859,9.43C23.828,9.438 23.801,9.426 23.789,9.398C23.777,9.371 23.75,9.355 23.727,9.367C23.699,9.375 23.672,9.359 23.66,9.332C23.652,9.305 23.621,9.293 23.598,9.301C23.57,9.313 23.539,9.285 23.516,9.23C23.48,9.16 23.461,9.148 23.387,9.164C23.32,9.176 23.289,9.164 23.25,9.102C23.215,9.051 23.176,9.027 23.148,9.035C23.121,9.047 23.094,9.035 23.086,9.008C23.074,8.984 23.047,8.973 23.023,8.98C22.996,8.992 22.969,8.977 22.957,8.949C22.945,8.922 22.918,8.906 22.895,8.918C22.867,8.926 22.836,8.902 22.809,8.848C22.777,8.777 22.758,8.766 22.68,8.781C22.617,8.793 22.586,8.785 22.57,8.75C22.563,8.727 22.539,8.715 22.52,8.727C22.5,8.738 22.469,8.727 22.449,8.699C22.395,8.625 22.211,8.645 22.156,8.73M16.98,9.328C16.969,9.355 16.941,9.367 16.918,9.359C16.895,9.348 16.855,9.375 16.832,9.422C16.805,9.477 16.77,9.5 16.734,9.488C16.703,9.477 16.668,9.5 16.641,9.551C16.609,9.609 16.578,9.629 16.539,9.613C16.508,9.605 16.48,9.609 16.48,9.629C16.48,9.648 16.453,9.664 16.422,9.664C16.391,9.664 16.344,9.691 16.32,9.727C16.293,9.762 16.25,9.793 16.223,9.793C16.195,9.793 16.152,9.828 16.129,9.871C16.102,9.926 16.066,9.945 16.031,9.938C15.996,9.926 15.965,9.949 15.938,10C15.906,10.055 15.875,10.074 15.84,10.063C15.805,10.055 15.777,10.066 15.766,10.094C15.754,10.121 15.727,10.137 15.699,10.125C15.676,10.117 15.633,10.141 15.602,10.18C15.574,10.223 15.527,10.254 15.496,10.254C15.465,10.254 15.426,10.289 15.41,10.328C15.391,10.371 15.359,10.395 15.324,10.383C15.293,10.375 15.258,10.398 15.23,10.449C15.203,10.5 15.172,10.523 15.137,10.512C15.102,10.5 15.066,10.523 15.039,10.574C15.012,10.629 14.98,10.652 14.941,10.641C14.91,10.629 14.879,10.641 14.867,10.672C14.859,10.695 14.832,10.711 14.809,10.703C14.781,10.691 14.746,10.723 14.719,10.766C14.691,10.82 14.66,10.844 14.625,10.832C14.59,10.82 14.555,10.844 14.527,10.895C14.5,10.949 14.465,10.973 14.434,10.961C14.398,10.949 14.363,10.973 14.336,11.023C14.309,11.074 14.273,11.098 14.246,11.09C14.223,11.078 14.172,11.105 14.137,11.152C14.102,11.195 14.063,11.223 14.043,11.215C14.027,11.203 13.984,11.23 13.949,11.277C13.914,11.32 13.867,11.352 13.844,11.34C13.824,11.332 13.785,11.363 13.758,11.41C13.73,11.461 13.695,11.488 13.66,11.477C13.629,11.469 13.59,11.492 13.566,11.539C13.539,11.59 13.504,11.609 13.473,11.602C13.438,11.59 13.402,11.613 13.375,11.664C13.348,11.719 13.313,11.742 13.277,11.734C13.242,11.727 13.207,11.75 13.18,11.797C13.152,11.848 13.117,11.871 13.082,11.863C13.055,11.855 13.02,11.867 13.012,11.891C13.004,11.914 12.977,11.926 12.953,11.918C12.926,11.91 12.891,11.938 12.863,11.984C12.836,12.039 12.801,12.063 12.766,12.055C12.73,12.047 12.695,12.07 12.668,12.117C12.648,12.156 12.605,12.191 12.578,12.191C12.551,12.191 12.504,12.223 12.48,12.258C12.453,12.293 12.41,12.32 12.379,12.32C12.344,12.32 12.32,12.336 12.32,12.355C12.32,12.375 12.293,12.383 12.262,12.375C12.227,12.367 12.18,12.398 12.125,12.469C12.078,12.535 12.027,12.57 11.996,12.563C11.965,12.559 11.926,12.582 11.902,12.629C11.879,12.668 11.836,12.703 11.805,12.703C11.773,12.703 11.738,12.719 11.727,12.738C11.715,12.758 11.688,12.766 11.664,12.758C11.641,12.746 11.598,12.777 11.566,12.82C11.539,12.863 11.496,12.895 11.473,12.887C11.449,12.875 11.414,12.906 11.391,12.949C11.363,13 11.328,13.023 11.293,13.016C11.258,13.004 11.223,13.027 11.195,13.078C11.172,13.125 11.133,13.152 11.102,13.141C11.066,13.133 11.031,13.156 11.004,13.207C10.98,13.254 10.941,13.277 10.91,13.27C10.875,13.262 10.84,13.285 10.813,13.332C10.785,13.383 10.75,13.406 10.719,13.398C10.684,13.391 10.648,13.414 10.621,13.461C10.598,13.5 10.555,13.535 10.523,13.535C10.492,13.535 10.457,13.551 10.445,13.57C10.434,13.59 10.41,13.598 10.391,13.59C10.371,13.586 10.324,13.613 10.293,13.656C10.258,13.699 10.215,13.727 10.191,13.715C10.172,13.707 10.133,13.738 10.109,13.781C10.086,13.824 10.047,13.855 10.02,13.848C9.992,13.844 9.941,13.871 9.906,13.914C9.875,13.953 9.832,13.98 9.809,13.973C9.785,13.965 9.75,13.992 9.727,14.035C9.703,14.078 9.66,14.113 9.625,14.113C9.594,14.113 9.551,14.141 9.527,14.176C9.508,14.211 9.465,14.238 9.434,14.238C9.402,14.238 9.375,14.254 9.375,14.273C9.375,14.289 9.348,14.305 9.313,14.305C9.281,14.305 9.23,14.336 9.203,14.371C9.176,14.41 9.137,14.434 9.109,14.422C9.082,14.41 9.055,14.426 9.043,14.453C9.031,14.48 9.004,14.496 8.977,14.484C8.941,14.473 8.914,14.492 8.891,14.547C8.863,14.602 8.832,14.625 8.797,14.613C8.762,14.605 8.719,14.629 8.688,14.68C8.656,14.727 8.617,14.75 8.59,14.738C8.559,14.727 8.527,14.75 8.504,14.805C8.48,14.855 8.449,14.879 8.41,14.871C8.383,14.863 8.348,14.875 8.34,14.902C8.328,14.93 8.297,14.941 8.262,14.93C8.223,14.918 8.191,14.941 8.145,15.027C8.102,15.109 8.066,15.137 8.023,15.125C7.988,15.117 7.957,15.129 7.945,15.156C7.938,15.184 7.906,15.195 7.883,15.188C7.855,15.176 7.824,15.199 7.801,15.25C7.781,15.293 7.738,15.328 7.707,15.328C7.676,15.328 7.629,15.355 7.609,15.391C7.586,15.426 7.543,15.457 7.512,15.457C7.48,15.457 7.438,15.484 7.418,15.52C7.395,15.555 7.352,15.586 7.32,15.586C7.293,15.586 7.258,15.598 7.246,15.617C7.234,15.637 7.203,15.645 7.172,15.633C7.129,15.621 7.098,15.645 7.055,15.727C7.02,15.789 6.969,15.84 6.938,15.84C6.906,15.84 6.863,15.867 6.84,15.902C6.82,15.938 6.777,15.969 6.746,15.969C6.715,15.969 6.684,15.98 6.672,16C6.66,16.02 6.629,16.031 6.598,16.031C6.566,16.031 6.527,16.063 6.504,16.098C6.48,16.133 6.438,16.16 6.406,16.16C6.375,16.16 6.332,16.188 6.313,16.223C6.289,16.258 6.242,16.289 6.207,16.289C6.172,16.289 6.145,16.305 6.145,16.324C6.145,16.344 6.125,16.352 6.102,16.344C6.043,16.32 5.965,16.414 5.965,16.512C5.965,16.574 6.113,16.738 6.645,17.258C7.262,17.867 7.32,17.934 7.297,18.004C7.273,18.063 7.277,18.074 7.313,18.059C7.34,18.051 7.359,18.055 7.359,18.07C7.359,18.148 7.637,18.094 7.699,18C7.734,17.945 7.781,17.902 7.809,17.902C7.836,17.902 7.883,17.871 7.914,17.832C7.949,17.789 7.996,17.762 8.016,17.773C8.039,17.781 8.082,17.75 8.113,17.707C8.141,17.664 8.184,17.633 8.207,17.645C8.23,17.652 8.277,17.625 8.309,17.582C8.34,17.539 8.387,17.512 8.414,17.52C8.445,17.527 8.492,17.492 8.539,17.422C8.582,17.352 8.629,17.313 8.656,17.324C8.68,17.332 8.723,17.305 8.75,17.262C8.785,17.211 8.824,17.188 8.859,17.199C8.895,17.211 8.934,17.18 8.984,17.102C9.031,17.031 9.078,16.992 9.105,17.004C9.129,17.012 9.172,16.984 9.199,16.941C9.23,16.891 9.273,16.867 9.297,16.875C9.324,16.887 9.367,16.859 9.395,16.816C9.426,16.773 9.473,16.734 9.5,16.734C9.527,16.734 9.57,16.707 9.594,16.672C9.617,16.637 9.652,16.609 9.676,16.613C9.699,16.621 9.758,16.578 9.805,16.52C9.855,16.461 9.922,16.414 9.953,16.414C9.988,16.414 10.016,16.402 10.016,16.383C10.016,16.363 10.043,16.355 10.07,16.363C10.113,16.379 10.148,16.348 10.203,16.27C10.254,16.188 10.293,16.16 10.336,16.168C10.375,16.18 10.406,16.16 10.434,16.109C10.461,16.063 10.496,16.039 10.527,16.047C10.559,16.059 10.602,16.023 10.648,15.953C10.688,15.891 10.746,15.84 10.777,15.84C10.809,15.84 10.852,15.809 10.875,15.773C10.898,15.734 10.938,15.715 10.969,15.727C11.008,15.738 11.047,15.707 11.098,15.633C11.137,15.57 11.195,15.52 11.223,15.52C11.254,15.52 11.297,15.492 11.32,15.457C11.371,15.379 11.402,15.375 11.473,15.445C11.523,15.496 11.527,15.496 11.508,15.438C11.484,15.359 11.559,15.258 11.621,15.281C11.652,15.293 11.684,15.27 11.707,15.219C11.727,15.172 11.766,15.137 11.797,15.137C11.824,15.137 11.875,15.105 11.906,15.066C11.941,15.027 11.988,15.008 12.016,15.02C12.043,15.031 12.063,15.027 12.063,15.016C12.063,14.957 12.227,14.809 12.27,14.828C12.297,14.836 12.32,14.832 12.32,14.813C12.32,14.762 12.414,14.68 12.457,14.695C12.477,14.703 12.527,14.66 12.57,14.602C12.609,14.543 12.668,14.496 12.699,14.496C12.727,14.496 12.77,14.469 12.793,14.434C12.816,14.398 12.859,14.367 12.895,14.367C12.93,14.367 12.977,14.336 13.004,14.301C13.035,14.258 13.07,14.238 13.102,14.25C13.129,14.262 13.152,14.254 13.152,14.238C13.152,14.18 13.246,14.105 13.297,14.125C13.324,14.133 13.344,14.129 13.344,14.109C13.344,14.059 13.43,13.984 13.484,13.984C13.512,13.984 13.563,13.941 13.602,13.887C13.648,13.816 13.691,13.793 13.73,13.801C13.766,13.813 13.793,13.805 13.793,13.785C13.793,13.742 13.875,13.664 13.926,13.664C13.949,13.664 13.988,13.637 14.008,13.602C14.031,13.566 14.07,13.535 14.102,13.535C14.129,13.535 14.18,13.504 14.211,13.469C14.242,13.434 14.289,13.406 14.309,13.414C14.332,13.422 14.387,13.383 14.426,13.324C14.465,13.266 14.52,13.215 14.551,13.215C14.578,13.215 14.625,13.188 14.66,13.148C14.691,13.113 14.734,13.09 14.758,13.098C14.781,13.105 14.832,13.063 14.875,13.004C14.914,12.945 14.973,12.895 15,12.895C15.031,12.895 15.074,12.867 15.098,12.828C15.121,12.793 15.164,12.77 15.195,12.773C15.227,12.781 15.277,12.746 15.32,12.68C15.363,12.621 15.422,12.574 15.457,12.574C15.492,12.574 15.52,12.559 15.52,12.539C15.52,12.52 15.547,12.512 15.586,12.52C15.621,12.531 15.648,12.527 15.648,12.516C15.648,12.477 15.801,12.32 15.84,12.32C15.859,12.32 15.918,12.277 15.969,12.223C16.016,12.172 16.078,12.129 16.102,12.129C16.125,12.129 16.168,12.098 16.191,12.063C16.219,12.027 16.266,12 16.297,12C16.328,12 16.352,11.984 16.352,11.965C16.352,11.945 16.379,11.938 16.418,11.945C16.461,11.957 16.492,11.941 16.516,11.895C16.566,11.801 16.629,11.742 16.676,11.742C16.695,11.742 16.738,11.715 16.77,11.676C16.805,11.641 16.848,11.617 16.871,11.625C16.895,11.633 16.945,11.59 16.984,11.531C17.023,11.473 17.082,11.426 17.113,11.426C17.145,11.426 17.188,11.395 17.207,11.359C17.23,11.324 17.277,11.297 17.309,11.297C17.344,11.297 17.395,11.266 17.422,11.227C17.449,11.188 17.488,11.168 17.516,11.18C17.547,11.191 17.586,11.16 17.629,11.086C17.668,11.02 17.719,10.977 17.758,10.977C17.793,10.977 17.852,10.934 17.887,10.879C17.926,10.828 17.984,10.785 18.02,10.785C18.051,10.785 18.078,10.77 18.078,10.75C18.078,10.727 18.109,10.719 18.145,10.73C18.195,10.742 18.223,10.727 18.246,10.668C18.27,10.625 18.309,10.594 18.348,10.594C18.387,10.594 18.441,10.551 18.48,10.496C18.52,10.438 18.57,10.398 18.617,10.398C18.707,10.398 18.707,10.367 18.609,10.254C18.563,10.203 18.527,10.148 18.527,10.137C18.527,10.125 18.508,10.121 18.484,10.133C18.461,10.141 18.41,10.109 18.375,10.063C18.336,10.016 18.293,9.988 18.277,9.996C18.262,10.008 18.223,9.98 18.195,9.938C18.164,9.891 18.113,9.855 18.078,9.855C18.043,9.855 18.016,9.84 18.016,9.82C18.016,9.801 17.996,9.793 17.969,9.801C17.945,9.813 17.902,9.785 17.871,9.738C17.84,9.691 17.801,9.668 17.773,9.676C17.746,9.688 17.719,9.676 17.707,9.652C17.699,9.625 17.668,9.613 17.637,9.621C17.602,9.633 17.566,9.605 17.535,9.555C17.512,9.504 17.473,9.477 17.449,9.484C17.426,9.496 17.398,9.484 17.391,9.457C17.379,9.434 17.344,9.422 17.309,9.43C17.277,9.441 17.246,9.43 17.246,9.41C17.246,9.391 17.219,9.375 17.184,9.375C17.148,9.375 17.121,9.355 17.121,9.328C17.121,9.266 17.004,9.266 16.98,9.328M11.477,10.031C11.465,10.059 11.438,10.07 11.414,10.063C11.387,10.051 11.359,10.066 11.352,10.09C11.34,10.117 11.309,10.133 11.273,10.125C11.234,10.113 11.207,10.133 11.184,10.184C11.164,10.223 11.129,10.254 11.098,10.254C11.07,10.25 11.027,10.281 11.004,10.324C10.973,10.387 10.945,10.398 10.887,10.383C10.828,10.371 10.797,10.387 10.746,10.449C10.711,10.496 10.66,10.523 10.641,10.516C10.617,10.508 10.59,10.52 10.578,10.547C10.57,10.57 10.543,10.582 10.52,10.574C10.492,10.563 10.449,10.594 10.418,10.641C10.387,10.688 10.344,10.719 10.32,10.707C10.297,10.699 10.27,10.711 10.262,10.738C10.25,10.762 10.223,10.773 10.199,10.766C10.172,10.758 10.145,10.77 10.133,10.797C10.125,10.824 10.09,10.836 10.055,10.828C10.016,10.816 9.984,10.836 9.957,10.898C9.934,10.949 9.902,10.977 9.875,10.965C9.848,10.957 9.82,10.969 9.813,10.992C9.805,11.016 9.77,11.027 9.738,11.02C9.699,11.012 9.668,11.031 9.648,11.078C9.629,11.117 9.594,11.152 9.566,11.152C9.543,11.152 9.508,11.168 9.496,11.191C9.48,11.211 9.449,11.223 9.426,11.211C9.398,11.203 9.359,11.23 9.324,11.277C9.297,11.324 9.254,11.355 9.23,11.348C9.207,11.34 9.18,11.352 9.172,11.379C9.164,11.402 9.133,11.414 9.109,11.406C9.086,11.395 9.043,11.426 9.012,11.473C8.98,11.52 8.938,11.551 8.914,11.539C8.887,11.531 8.863,11.543 8.852,11.566C8.844,11.59 8.809,11.605 8.777,11.598C8.738,11.586 8.711,11.605 8.688,11.656C8.672,11.695 8.633,11.727 8.609,11.727C8.582,11.727 8.547,11.746 8.535,11.766C8.523,11.789 8.492,11.797 8.469,11.789C8.445,11.781 8.406,11.813 8.383,11.855C8.355,11.91 8.32,11.934 8.285,11.926C8.254,11.918 8.219,11.934 8.211,11.957C8.199,11.984 8.172,12 8.145,11.988C8.121,11.98 8.094,11.996 8.082,12.02C8.07,12.051 8.043,12.063 8.016,12.051C7.984,12.039 7.953,12.063 7.93,12.113C7.902,12.168 7.871,12.191 7.836,12.184C7.805,12.172 7.773,12.188 7.762,12.215C7.75,12.242 7.723,12.254 7.699,12.246C7.672,12.234 7.645,12.25 7.637,12.277C7.625,12.305 7.594,12.316 7.559,12.305C7.52,12.293 7.492,12.313 7.473,12.359C7.453,12.398 7.418,12.434 7.391,12.434C7.367,12.434 7.332,12.449 7.316,12.473C7.305,12.496 7.266,12.508 7.238,12.496C7.203,12.484 7.172,12.504 7.152,12.551C7.133,12.59 7.094,12.625 7.063,12.625C7.031,12.625 6.992,12.645 6.98,12.664C6.965,12.688 6.93,12.695 6.902,12.688C6.867,12.672 6.848,12.68 6.848,12.711C6.848,12.797 6.766,12.84 6.688,12.801C6.637,12.773 6.621,12.773 6.637,12.797C6.676,12.855 6.625,12.961 6.559,12.961C6.527,12.961 6.492,12.977 6.48,12.992C6.469,13.012 6.441,13.023 6.422,13.016C6.402,13.008 6.367,13.023 6.348,13.051C6.32,13.086 6.301,13.09 6.246,13.059C6.188,13.027 6.18,13.031 6.195,13.07C6.219,13.133 6.148,13.223 6.094,13.203C6.07,13.195 6.047,13.211 6.035,13.234C6.023,13.266 5.992,13.277 5.961,13.266C5.922,13.254 5.895,13.27 5.871,13.32C5.855,13.359 5.82,13.391 5.793,13.391C5.766,13.391 5.727,13.414 5.707,13.438C5.691,13.461 5.656,13.473 5.637,13.461C5.617,13.449 5.59,13.465 5.57,13.5C5.535,13.566 5.367,13.664 5.293,13.664C5.266,13.664 5.246,13.68 5.246,13.699C5.246,13.719 5.227,13.727 5.199,13.715C5.172,13.703 5.141,13.719 5.129,13.746C5.121,13.773 5.094,13.789 5.07,13.781C5.047,13.77 5.004,13.801 4.977,13.844C4.945,13.895 4.906,13.918 4.875,13.906C4.852,13.898 4.82,13.91 4.813,13.938C4.801,13.965 4.77,13.98 4.734,13.969C4.699,13.957 4.676,13.969 4.664,14.008C4.645,14.082 4.207,14.309 4.141,14.281C4.113,14.273 4.098,14.285 4.098,14.316C4.098,14.344 4.066,14.387 4.031,14.406C3.934,14.469 3.949,14.504 4.223,14.77C4.406,14.945 4.48,15.043 4.48,15.098C4.48,15.156 4.492,15.172 4.535,15.152C4.633,15.117 5.027,15.539 4.988,15.641C4.973,15.684 4.965,15.727 4.977,15.738C4.984,15.746 4.992,15.738 4.992,15.719C4.992,15.695 5.008,15.68 5.027,15.68C5.047,15.68 5.055,15.699 5.047,15.727C5.031,15.758 5.043,15.766 5.078,15.754C5.117,15.738 5.121,15.75 5.105,15.813C5.09,15.871 5.09,15.879 5.117,15.84C5.145,15.801 5.156,15.801 5.18,15.836C5.195,15.863 5.227,15.871 5.25,15.855C5.273,15.84 5.305,15.852 5.332,15.891C5.371,15.941 5.375,15.941 5.375,15.895C5.375,15.863 5.402,15.84 5.438,15.84C5.473,15.84 5.523,15.809 5.547,15.773C5.574,15.73 5.617,15.711 5.645,15.723C5.668,15.73 5.699,15.719 5.711,15.691C5.719,15.664 5.75,15.648 5.777,15.66C5.809,15.672 5.84,15.652 5.863,15.598C5.891,15.539 5.918,15.52 5.961,15.531C6,15.543 6.031,15.523 6.055,15.469C6.074,15.426 6.117,15.391 6.148,15.391C6.18,15.391 6.215,15.379 6.227,15.359C6.234,15.34 6.27,15.332 6.301,15.344C6.34,15.355 6.367,15.336 6.395,15.277C6.422,15.223 6.449,15.199 6.48,15.211C6.508,15.223 6.539,15.211 6.551,15.184C6.559,15.156 6.59,15.141 6.621,15.152C6.652,15.16 6.684,15.141 6.703,15.098C6.727,15.047 6.762,15.027 6.809,15.031C6.855,15.035 6.879,15.023 6.879,14.992C6.879,14.965 6.895,14.945 6.91,14.945C6.926,14.945 6.949,14.914 6.961,14.879C6.973,14.844 7.008,14.816 7.043,14.816C7.074,14.816 7.121,14.789 7.145,14.754C7.164,14.719 7.207,14.688 7.238,14.688C7.27,14.688 7.301,14.672 7.313,14.652C7.324,14.637 7.355,14.629 7.375,14.637C7.398,14.645 7.441,14.617 7.473,14.57C7.504,14.527 7.543,14.5 7.57,14.508C7.594,14.52 7.629,14.5 7.648,14.469C7.676,14.418 7.684,14.422 7.727,14.477C7.773,14.539 7.777,14.539 7.777,14.457C7.777,14.367 7.852,14.285 7.902,14.32C7.922,14.332 7.953,14.305 7.973,14.258C7.992,14.211 8.035,14.176 8.066,14.176C8.098,14.176 8.133,14.16 8.145,14.141C8.156,14.121 8.184,14.113 8.207,14.125C8.23,14.133 8.273,14.105 8.301,14.063C8.332,14.02 8.383,13.984 8.414,13.984C8.449,13.984 8.484,13.957 8.496,13.922C8.508,13.887 8.543,13.855 8.578,13.855C8.609,13.855 8.645,13.84 8.656,13.824C8.668,13.805 8.703,13.797 8.734,13.809C8.773,13.82 8.801,13.801 8.828,13.742C8.852,13.688 8.883,13.664 8.914,13.676C8.941,13.688 8.969,13.672 8.98,13.645C8.992,13.617 9.02,13.605 9.043,13.613C9.066,13.621 9.105,13.594 9.133,13.551C9.164,13.508 9.215,13.473 9.246,13.473C9.281,13.473 9.316,13.441 9.328,13.406C9.34,13.371 9.375,13.344 9.41,13.344C9.441,13.344 9.477,13.328 9.488,13.313C9.5,13.293 9.531,13.281 9.563,13.281C9.594,13.281 9.633,13.25 9.656,13.215C9.68,13.18 9.723,13.152 9.754,13.152C9.785,13.152 9.828,13.125 9.848,13.09C9.871,13.055 9.918,13.023 9.953,13.023C9.988,13.023 10.016,13.008 10.016,12.988C10.016,12.973 10.043,12.965 10.074,12.973C10.109,12.984 10.141,12.969 10.16,12.922C10.18,12.879 10.219,12.844 10.254,12.836C10.289,12.828 10.34,12.797 10.363,12.762C10.387,12.727 10.426,12.707 10.449,12.715C10.473,12.727 10.516,12.695 10.543,12.652C10.57,12.609 10.617,12.574 10.648,12.574C10.68,12.574 10.723,12.547 10.746,12.512C10.766,12.477 10.809,12.449 10.84,12.449C10.871,12.449 10.914,12.418 10.938,12.383C10.957,12.348 11,12.32 11.031,12.32C11.063,12.32 11.105,12.293 11.129,12.258C11.152,12.223 11.195,12.191 11.23,12.191C11.266,12.191 11.297,12.176 11.297,12.16C11.297,12.141 11.32,12.129 11.352,12.129C11.383,12.129 11.426,12.098 11.449,12.063C11.469,12.027 11.516,12 11.551,12C11.586,12 11.617,11.984 11.617,11.965C11.617,11.945 11.641,11.938 11.672,11.941C11.703,11.949 11.742,11.926 11.762,11.891C11.777,11.852 11.824,11.82 11.859,11.813C11.898,11.809 11.941,11.77 11.961,11.73C11.988,11.672 12.016,11.656 12.063,11.672C12.098,11.68 12.129,11.672 12.129,11.652C12.129,11.633 12.152,11.617 12.184,11.617C12.215,11.617 12.258,11.586 12.281,11.551C12.301,11.516 12.348,11.488 12.383,11.488C12.418,11.488 12.449,11.473 12.449,11.453C12.449,11.434 12.473,11.426 12.504,11.43C12.535,11.438 12.574,11.414 12.594,11.379C12.609,11.34 12.652,11.309 12.688,11.301C12.723,11.293 12.777,11.258 12.805,11.223C12.84,11.188 12.883,11.168 12.91,11.18C12.945,11.191 12.961,11.176 12.961,11.125C12.961,11.086 12.977,11.035 12.996,11.016C13.043,10.969 12.965,10.883 12.891,10.902C12.855,10.914 12.813,10.879 12.762,10.805C12.715,10.73 12.672,10.695 12.637,10.707C12.605,10.715 12.57,10.691 12.543,10.641C12.516,10.586 12.48,10.566 12.449,10.574C12.414,10.586 12.379,10.563 12.352,10.512C12.324,10.461 12.289,10.438 12.258,10.449C12.223,10.457 12.188,10.438 12.16,10.383C12.129,10.328 12.098,10.309 12.059,10.32C12.02,10.336 11.98,10.309 11.93,10.227C11.891,10.164 11.84,10.117 11.816,10.125C11.77,10.145 11.586,10.055 11.586,10.016C11.586,9.965 11.496,9.98 11.477,10.031M24.688,10.09C24.645,10.152 24.598,10.191 24.559,10.188C24.52,10.184 24.461,10.23 24.398,10.316C24.344,10.387 24.281,10.449 24.254,10.449C24.227,10.449 24.148,10.512 24.082,10.586C24.016,10.66 23.941,10.719 23.922,10.711C23.902,10.707 23.832,10.766 23.762,10.84C23.695,10.914 23.621,10.973 23.602,10.969C23.582,10.965 23.523,11.008 23.469,11.066C23.383,11.164 23.363,11.172 23.297,11.137C23.25,11.109 23.23,11.109 23.246,11.133C23.285,11.195 23.012,11.492 22.941,11.473C22.906,11.461 22.879,11.465 22.879,11.477C22.879,11.57 22.664,11.75 22.598,11.715C22.543,11.688 22.531,11.688 22.547,11.719C22.57,11.781 22.371,12.004 22.309,11.988C22.273,11.977 22.234,12.008 22.191,12.074C22.145,12.145 22.102,12.172 22.055,12.168C22.016,12.164 21.984,12.172 21.984,12.184C21.984,12.242 21.766,12.457 21.73,12.434C21.707,12.422 21.668,12.438 21.637,12.477C21.297,12.883 21.32,12.867 21.227,12.777C21.176,12.723 21.172,12.723 21.195,12.777C21.223,12.855 21.035,13.094 20.961,13.074C20.93,13.063 20.871,13.109 20.805,13.203C20.734,13.293 20.676,13.34 20.648,13.328C20.598,13.309 20.563,13.344 20.453,13.496C20.402,13.566 20.359,13.598 20.324,13.586C20.289,13.574 20.246,13.605 20.199,13.684C20.148,13.762 20.109,13.793 20.074,13.777C20.023,13.758 20,13.781 19.828,13.996C19.777,14.059 19.715,14.113 19.688,14.113C19.66,14.113 19.613,14.141 19.582,14.18C19.551,14.215 19.508,14.238 19.488,14.227C19.434,14.191 19.297,14.375 19.297,14.488C19.297,14.578 19.305,14.594 19.352,14.578C19.387,14.566 19.426,14.586 19.457,14.625C19.48,14.66 19.527,14.688 19.559,14.688C19.59,14.688 19.633,14.719 19.656,14.754C19.676,14.789 19.719,14.816 19.75,14.816C19.781,14.816 19.84,14.867 19.879,14.926C19.93,15.004 19.969,15.035 20.008,15.023C20.039,15.012 20.078,15.031 20.102,15.07C20.125,15.105 20.168,15.137 20.199,15.137C20.23,15.137 20.277,15.172 20.305,15.215C20.332,15.258 20.375,15.285 20.402,15.273C20.426,15.266 20.461,15.289 20.484,15.324C20.508,15.363 20.551,15.391 20.578,15.391C20.66,15.391 20.773,15.547 20.75,15.625C20.73,15.688 20.73,15.691 20.781,15.637C20.855,15.566 20.887,15.57 20.945,15.66C20.973,15.703 21.016,15.734 21.039,15.723C21.063,15.715 21.102,15.738 21.129,15.777C21.203,15.883 21.477,15.887 21.555,15.781C21.73,15.551 22.078,15.195 22.121,15.207C22.156,15.215 22.371,15.008 22.598,14.746C22.625,14.711 22.672,14.688 22.695,14.695C22.742,14.703 22.781,14.668 23.078,14.34C23.16,14.25 23.254,14.176 23.281,14.176C23.313,14.176 23.359,14.148 23.387,14.117C23.602,13.871 23.691,13.789 23.727,13.805C23.762,13.816 24.121,13.453 24.156,13.371C24.16,13.355 24.195,13.344 24.23,13.344C24.266,13.344 24.367,13.266 24.473,13.152C24.57,13.047 24.676,12.961 24.711,12.961C24.758,12.961 24.766,12.945 24.754,12.895C24.734,12.844 24.746,12.832 24.801,12.832C24.844,12.832 24.957,12.742 25.113,12.574C25.285,12.395 25.375,12.32 25.414,12.332C25.445,12.34 25.473,12.336 25.473,12.324C25.473,12.313 25.539,12.23 25.621,12.145C25.703,12.055 25.816,11.922 25.879,11.852C25.945,11.77 26.008,11.723 26.035,11.734C26.063,11.742 26.137,11.688 26.227,11.586C26.309,11.496 26.395,11.426 26.422,11.426C26.504,11.426 26.75,11.148 26.738,11.066C26.723,10.934 26.684,10.875 26.621,10.898C26.578,10.91 26.559,10.902 26.559,10.863C26.559,10.828 26.543,10.816 26.5,10.832C26.461,10.844 26.434,10.832 26.422,10.801C26.41,10.773 26.383,10.762 26.355,10.77C26.332,10.781 26.305,10.766 26.293,10.738C26.281,10.711 26.254,10.695 26.23,10.707C26.203,10.715 26.176,10.703 26.164,10.676C26.156,10.648 26.125,10.633 26.102,10.641C26.078,10.652 26.047,10.637 26.039,10.609C26.027,10.582 25.996,10.57 25.969,10.578C25.941,10.59 25.914,10.578 25.902,10.551C25.891,10.523 25.863,10.508 25.836,10.516C25.813,10.527 25.785,10.512 25.773,10.484C25.762,10.457 25.734,10.445 25.711,10.453C25.664,10.469 25.586,10.352 25.613,10.309C25.621,10.293 25.594,10.289 25.551,10.297C25.5,10.305 25.473,10.297 25.473,10.273C25.473,10.25 25.445,10.238 25.41,10.25C25.371,10.258 25.34,10.246 25.328,10.219C25.32,10.191 25.293,10.176 25.266,10.188C25.242,10.195 25.215,10.184 25.203,10.16C25.195,10.133 25.164,10.121 25.137,10.133C25.109,10.145 25.082,10.129 25.07,10.102C25.059,10.074 25.031,10.059 25.004,10.07C24.98,10.078 24.953,10.066 24.941,10.039C24.91,9.953 24.758,9.98 24.688,10.09M27.488,11.602C27.41,11.699 27.359,11.738 27.316,11.73C27.25,11.715 27.258,11.707 26.992,12.016C26.691,12.363 26.594,12.457 26.539,12.434C26.512,12.426 26.473,12.434 26.453,12.457C26.434,12.48 26.285,12.641 26.129,12.816C25.969,12.992 25.82,13.156 25.801,13.18C25.777,13.203 25.734,13.211 25.695,13.199C25.66,13.188 25.633,13.191 25.633,13.211C25.633,13.27 25.172,13.73 25.129,13.715C25.059,13.688 24.859,13.914 24.883,13.992C24.898,14.047 24.891,14.055 24.828,14.039C24.766,14.023 24.734,14.039 24.688,14.105C24.633,14.176 24.508,14.32 24.266,14.586C24.242,14.609 24.207,14.621 24.184,14.617C24.16,14.613 24.082,14.668 24.012,14.738C23.945,14.813 23.805,14.961 23.699,15.066C23.598,15.176 23.496,15.262 23.477,15.258C23.438,15.25 23.207,15.469 22.906,15.805C22.828,15.895 22.738,15.969 22.707,15.969C22.664,15.969 22.398,16.227 22.176,16.48C22.133,16.527 22.094,16.543 22.051,16.527C22.012,16.516 21.984,16.52 21.984,16.535C21.98,16.602 21.16,17.441 21.094,17.441C21.047,17.441 20.547,17.941 20.543,17.992C20.543,18.004 20.516,18.016 20.477,18.016C20.434,18.016 20.301,18.133 20.105,18.336C19.938,18.512 19.777,18.656 19.75,18.656C19.723,18.656 19.535,18.828 19.336,19.039C19.133,19.25 18.945,19.426 18.918,19.426C18.871,19.426 18.207,20.086 18.207,20.137C18.207,20.148 18.188,20.148 18.16,20.141C18.129,20.129 17.977,20.262 17.707,20.539C17.484,20.77 17.277,20.961 17.25,20.961C17.223,20.961 17.066,21.105 16.902,21.281C16.738,21.457 16.578,21.602 16.547,21.602C16.52,21.602 16.414,21.691 16.313,21.801C15.922,22.23 15.875,22.277 15.84,22.254C15.816,22.242 15.734,22.305 15.641,22.406C15.219,22.859 15.035,23.035 15,23.023C14.977,23.016 14.875,23.102 14.77,23.219C14.438,23.59 14.406,23.617 14.363,23.602C14.336,23.59 14.215,23.695 14.07,23.855C13.918,24.016 13.801,24.117 13.773,24.105C13.707,24.082 13.633,24.172 13.652,24.25C13.664,24.301 13.656,24.32 13.625,24.32C13.598,24.32 13.797,24.539 14.066,24.809C14.363,25.098 14.555,25.313 14.543,25.336C14.523,25.395 14.613,25.484 14.668,25.461C14.727,25.441 15.023,25.742 14.992,25.789C14.98,25.813 15.031,25.883 15.121,25.961C15.207,26.035 15.422,26.242 15.605,26.426C15.828,26.648 15.957,26.75 16.008,26.75C16.098,26.75 16.836,26.035 16.813,25.973C16.801,25.938 17.922,24.809 18.445,24.328C18.551,24.234 18.621,24.148 18.609,24.129C18.574,24.074 18.684,23.973 18.754,23.992C18.813,24.008 18.816,23.996 18.797,23.922C18.777,23.844 18.781,23.84 18.863,23.859C18.941,23.879 18.949,23.875 18.93,23.816C18.914,23.766 19.145,23.52 20.23,22.449C20.957,21.73 21.551,21.121 21.551,21.094C21.551,21.063 21.574,21.043 21.609,21.043C21.699,21.051 21.82,20.91 21.801,20.828C21.785,20.77 21.793,20.762 21.855,20.777C21.938,20.797 22.035,20.727 22,20.668C21.961,20.609 22.273,20.316 22.348,20.34C22.398,20.355 22.406,20.348 22.391,20.293C22.371,20.215 25.066,17.523 25.141,17.551C25.164,17.559 25.176,17.547 25.164,17.523C25.145,17.473 25.234,17.395 25.277,17.422C25.297,17.434 25.305,17.426 25.293,17.398C25.273,17.344 25.359,17.266 25.406,17.293C25.426,17.309 25.43,17.293 25.418,17.262C25.402,17.219 25.41,17.211 25.453,17.227C25.488,17.238 25.5,17.234 25.488,17.215C25.477,17.195 25.496,17.152 25.535,17.121C25.574,17.086 25.602,17.039 25.59,17.012C25.57,16.957 25.93,16.594 25.988,16.613C26.047,16.633 26.113,16.563 26.113,16.488C26.113,16.449 26.578,15.969 27.359,15.199C28.07,14.496 28.609,13.945 28.609,13.914C28.609,13.883 28.629,13.855 28.656,13.855C28.738,13.855 28.895,13.727 28.871,13.672C28.859,13.641 29.012,13.469 29.313,13.168L29.766,12.711L29.691,12.598C29.637,12.516 29.598,12.488 29.559,12.5C29.523,12.512 29.504,12.5 29.504,12.465C29.504,12.426 29.484,12.418 29.441,12.434C29.402,12.445 29.375,12.438 29.375,12.418C29.375,12.398 29.348,12.383 29.313,12.383C29.277,12.383 29.246,12.371 29.246,12.352C29.246,12.336 29.223,12.32 29.188,12.32C29.156,12.32 29.113,12.285 29.09,12.238C29.066,12.195 29.02,12.16 28.988,12.16C28.953,12.16 28.93,12.145 28.93,12.125C28.93,12.105 28.902,12.102 28.863,12.113C28.816,12.125 28.801,12.117 28.801,12.078C28.801,12.043 28.781,12.035 28.734,12.047C28.691,12.063 28.672,12.055 28.672,12.02C28.672,11.988 28.645,11.969 28.609,11.969C28.574,11.969 28.543,11.953 28.543,11.934C28.543,11.914 28.516,11.91 28.48,11.922C28.434,11.934 28.414,11.926 28.414,11.887C28.414,11.852 28.398,11.84 28.355,11.855C28.316,11.867 28.289,11.855 28.277,11.824C28.266,11.801 28.238,11.785 28.215,11.793C28.191,11.805 28.152,11.773 28.129,11.727C28.098,11.672 28.063,11.648 28.027,11.66C27.992,11.668 27.969,11.656 27.969,11.629C27.969,11.605 27.938,11.586 27.902,11.586C27.867,11.586 27.84,11.57 27.84,11.551C27.84,11.531 27.813,11.523 27.781,11.535C27.742,11.547 27.711,11.535 27.699,11.504C27.668,11.422 27.605,11.453 27.488,11.602M18.527,15.02C18.527,15.074 18.395,15.199 18.332,15.199C18.309,15.199 18.27,15.23 18.246,15.266C18.219,15.313 18.184,15.328 18.141,15.316C18.109,15.309 18.078,15.313 18.078,15.324C18.078,15.391 17.797,15.656 17.75,15.637C17.719,15.629 17.695,15.629 17.695,15.641C17.695,15.695 17.43,15.969 17.379,15.969C17.348,15.969 17.277,16.027 17.219,16.098C17.164,16.168 17.09,16.223 17.059,16.223C17.027,16.223 16.957,16.281 16.898,16.355C16.824,16.445 16.773,16.48 16.73,16.469C16.699,16.461 16.672,16.465 16.672,16.477C16.672,16.527 16.453,16.742 16.414,16.73C16.387,16.719 16.336,16.762 16.293,16.824C16.242,16.902 16.199,16.93 16.16,16.918C16.125,16.91 16.094,16.914 16.09,16.926C16.063,16.996 15.824,17.246 15.785,17.246C15.758,17.246 15.695,17.293 15.645,17.348C15.59,17.406 15.531,17.441 15.504,17.43C15.477,17.418 15.457,17.422 15.457,17.434C15.457,17.492 15.176,17.77 15.133,17.754C15.105,17.746 15.059,17.781 15.016,17.844C14.977,17.902 14.914,17.953 14.883,17.953C14.848,17.953 14.762,18.023 14.684,18.113C14.609,18.199 14.523,18.273 14.496,18.273C14.465,18.273 14.395,18.328 14.336,18.398C14.277,18.469 14.207,18.527 14.176,18.527C14.145,18.527 14.074,18.586 14.016,18.656C13.957,18.727 13.887,18.785 13.859,18.785C13.828,18.785 13.742,18.855 13.664,18.945C13.586,19.031 13.5,19.105 13.473,19.105C13.445,19.105 13.375,19.164 13.313,19.234C13.254,19.301 13.18,19.359 13.148,19.359C13.121,19.359 13.051,19.418 12.992,19.488C12.926,19.57 12.859,19.617 12.816,19.617C12.773,19.617 12.738,19.629 12.73,19.645C12.699,19.73 12.473,19.961 12.434,19.949C12.406,19.938 12.367,19.961 12.348,19.996C12.324,20.035 12.273,20.063 12.23,20.063C12.191,20.063 12.16,20.074 12.16,20.09C12.16,20.16 11.836,20.473 11.777,20.457C11.742,20.449 11.711,20.453 11.711,20.473C11.711,20.531 11.59,20.641 11.523,20.641C11.488,20.641 11.457,20.652 11.457,20.664C11.453,20.723 11.266,20.895 11.203,20.895C11.168,20.895 11.137,20.906 11.137,20.922C11.137,20.98 10.938,21.18 10.898,21.164C10.848,21.145 10.688,21.293 10.688,21.359C10.688,21.383 10.711,21.41 10.738,21.422C10.77,21.434 10.781,21.461 10.77,21.492C10.746,21.551 10.832,21.645 10.891,21.621C10.965,21.594 11.625,22.277 11.598,22.352C11.578,22.398 11.586,22.406 11.641,22.395C11.719,22.371 11.957,22.594 11.922,22.652C11.91,22.672 11.957,22.734 12.023,22.789C12.09,22.844 12.277,23.027 12.438,23.191C12.773,23.535 12.758,23.531 12.93,23.344C13.004,23.266 13.078,23.207 13.094,23.219C13.109,23.23 13.164,23.188 13.219,23.129C13.551,22.77 13.836,22.5 13.859,22.516C13.875,22.523 13.934,22.484 13.988,22.426C14.379,22.004 14.469,21.918 14.496,21.938C14.527,21.957 14.594,21.898 14.813,21.648C14.867,21.586 14.926,21.543 14.945,21.555C14.977,21.574 15.023,21.531 15.289,21.234C15.363,21.152 15.438,21.094 15.457,21.105C15.488,21.125 15.535,21.082 15.797,20.789C15.887,20.688 15.945,20.648 15.988,20.66C16.031,20.668 16.07,20.641 16.121,20.57C16.277,20.34 16.438,20.195 16.508,20.215C16.547,20.223 16.574,20.215 16.574,20.199C16.574,20.168 16.664,20.063 17,19.703C17.047,19.652 17.109,19.617 17.133,19.625C17.16,19.637 17.227,19.586 17.297,19.5C17.52,19.234 17.598,19.16 17.645,19.18C17.676,19.191 17.727,19.156 17.777,19.094C18.035,18.789 18.18,18.652 18.23,18.668C18.27,18.68 18.309,18.656 18.352,18.598C18.5,18.391 18.625,18.27 18.68,18.285C18.719,18.297 18.758,18.27 18.801,18.211C18.93,18.027 19.207,17.758 19.25,17.773C19.273,17.781 19.313,17.762 19.336,17.73C19.48,17.527 19.648,17.371 19.711,17.391C19.746,17.402 19.777,17.398 19.777,17.383C19.777,17.305 20.297,16.797 20.355,16.816C20.395,16.828 20.414,16.82 20.414,16.789C20.414,16.766 20.473,16.691 20.539,16.633L20.664,16.52L20.594,16.461C20.555,16.426 20.504,16.367 20.484,16.332C20.461,16.289 20.426,16.266 20.391,16.277C20.355,16.285 20.313,16.254 20.262,16.18C20.215,16.109 20.168,16.074 20.133,16.086C20.098,16.094 20.055,16.059 20.008,15.984C19.961,15.91 19.922,15.879 19.887,15.891C19.836,15.91 19.715,15.793 19.715,15.719C19.711,15.691 19.688,15.684 19.637,15.699C19.582,15.711 19.555,15.699 19.527,15.633C19.5,15.578 19.473,15.559 19.438,15.574C19.406,15.586 19.371,15.566 19.34,15.523C19.313,15.488 19.27,15.457 19.238,15.457C19.207,15.457 19.152,15.406 19.109,15.348C19.059,15.27 19.02,15.242 18.973,15.254C18.941,15.266 18.91,15.254 18.91,15.234C18.91,15.215 18.887,15.199 18.855,15.199C18.824,15.199 18.766,15.148 18.719,15.09C18.641,14.977 18.527,14.938 18.527,15.02M11.938,16.047C11.938,16.074 11.91,16.098 11.875,16.098C11.84,16.098 11.777,16.141 11.73,16.195C11.684,16.25 11.629,16.285 11.602,16.277C11.578,16.27 11.543,16.297 11.516,16.34C11.488,16.395 11.457,16.414 11.418,16.406C11.379,16.395 11.348,16.414 11.324,16.457C11.27,16.555 11.211,16.609 11.156,16.609C11.129,16.609 11.086,16.641 11.059,16.676C11.031,16.719 10.992,16.738 10.961,16.727C10.926,16.711 10.898,16.73 10.875,16.785C10.852,16.832 10.813,16.863 10.77,16.863C10.73,16.863 10.676,16.906 10.641,16.961C10.605,17.012 10.547,17.055 10.512,17.055C10.477,17.055 10.418,17.098 10.383,17.152C10.348,17.203 10.297,17.246 10.266,17.246C10.234,17.246 10.191,17.277 10.164,17.316C10.133,17.363 10.098,17.375 10.051,17.359C10.004,17.344 9.984,17.355 9.984,17.391C9.984,17.418 9.969,17.441 9.953,17.441C9.938,17.441 9.914,17.469 9.902,17.508C9.891,17.551 9.863,17.57 9.824,17.559C9.781,17.547 9.742,17.574 9.691,17.652C9.648,17.711 9.59,17.758 9.559,17.758C9.531,17.762 9.488,17.789 9.465,17.824C9.441,17.859 9.398,17.887 9.371,17.887C9.34,17.887 9.293,17.918 9.27,17.957C9.242,17.996 9.199,18.016 9.172,18.008C9.141,17.996 9.098,18.027 9.051,18.098C9.004,18.168 8.949,18.207 8.902,18.207C8.863,18.207 8.832,18.219 8.832,18.234C8.832,18.289 8.699,18.414 8.652,18.406C8.629,18.402 8.609,18.414 8.609,18.43C8.609,18.449 8.574,18.465 8.535,18.465C8.496,18.465 8.445,18.492 8.422,18.531C8.395,18.574 8.363,18.59 8.32,18.574C8.281,18.563 8.258,18.57 8.258,18.594C8.258,18.613 8.227,18.66 8.188,18.691L8.117,18.75L8.203,18.816C8.25,18.855 8.277,18.902 8.266,18.93C8.246,18.988 8.332,19.078 8.391,19.055C8.445,19.035 8.805,19.375 8.793,19.434C8.789,19.457 9.035,19.727 9.344,20.031C9.941,20.629 10.027,20.684 10.113,20.523C10.137,20.48 10.176,20.453 10.207,20.461C10.238,20.469 10.301,20.422 10.367,20.34C10.43,20.262 10.496,20.207 10.52,20.215C10.559,20.23 10.781,20.012 10.785,19.957C10.785,19.945 10.809,19.938 10.84,19.949C10.879,19.957 10.938,19.91 11.035,19.789C11.129,19.668 11.191,19.617 11.227,19.629C11.262,19.641 11.305,19.609 11.352,19.535C11.41,19.449 11.441,19.426 11.488,19.441C11.523,19.453 11.551,19.449 11.551,19.434C11.551,19.375 11.766,19.164 11.809,19.184C11.84,19.191 11.883,19.16 11.93,19.086C11.98,19.008 12.02,18.977 12.055,18.988C12.102,19.008 12.254,18.867 12.258,18.809C12.258,18.793 12.297,18.793 12.344,18.805C12.391,18.816 12.422,18.813 12.41,18.801C12.398,18.789 12.406,18.758 12.426,18.738C12.445,18.715 12.492,18.66 12.527,18.613C12.57,18.559 12.609,18.535 12.648,18.547C12.68,18.555 12.703,18.551 12.703,18.539C12.703,18.477 12.859,18.336 12.906,18.355C12.938,18.367 12.961,18.363 12.961,18.348C12.961,18.281 13.113,18.145 13.164,18.164C13.191,18.176 13.215,18.168 13.215,18.152C13.215,18.098 13.434,17.887 13.477,17.902C13.516,17.914 13.793,17.605 13.793,17.551C13.793,17.504 13.52,17.246 13.469,17.246C13.418,17.246 13.09,16.914 13.09,16.863C13.09,16.848 13.063,16.844 13.031,16.852C12.992,16.863 12.938,16.828 12.867,16.738C12.809,16.668 12.734,16.609 12.703,16.609C12.656,16.609 12.355,16.301 12.324,16.223C12.32,16.207 12.293,16.203 12.27,16.215C12.215,16.234 12.063,16.109 12.063,16.043C12.063,16.02 12.035,16 12,16C11.965,16 11.938,16.02 11.938,16.047M9.688,20.523C9.77,20.602 9.844,20.664 9.852,20.656C9.863,20.645 9.605,20.406 9.563,20.391C9.547,20.383 9.602,20.441 9.688,20.523" style="fill:rgb(86,164,237);"/></g></svg>