<svg width="100%" height="100%" viewBox="0 0 18 16" version="1.1" xmlns="http://www.w3.org/2000/svg" xmlns:xlink="http://www.w3.org/1999/xlink" xml:space="preserve" style="fill-rule:evenodd;clip-rule:evenodd;stroke-linejoin:round;stroke-miterlimit:2;"><g id="pascal"><g transform="matrix(1.03161,0,0,1.62268,0.381243,-0.627045)"><ellipse cx="8.355" cy="5.317" rx="7.27" ry="4.566"/></g><g transform="matrix(1.03161,0,0,1.62268,0.381243,-0.627045)"><path d="M1.757,7.236C1.325,6.652 1.084,6.002 1.084,5.317C1.084,4.63 1.326,3.978 1.76,3.394C1.828,3.302 1.9,3.212 1.977,3.124C3.213,1.71 5.607,0.751 8.355,0.751C11.102,0.751 13.496,1.71 14.732,3.124C14.809,3.212 14.882,3.302 14.95,3.394C15.383,3.978 15.625,4.63 15.625,5.317C15.625,6.002 15.384,6.652 14.952,7.236C14.882,7.33 14.807,7.423 14.728,7.514C13.49,8.925 11.099,9.882 8.355,9.882C5.61,9.882 3.219,8.925 1.982,7.514C1.902,7.423 1.827,7.33 1.757,7.236ZM2.244,3.394C1.781,3.972 1.521,4.625 1.521,5.317C1.521,6.006 1.78,6.658 2.241,7.236L14.468,7.236C14.929,6.658 15.189,6.006 15.189,5.317C15.189,4.625 14.928,3.972 14.465,3.394L2.244,3.394ZM14.229,3.124C13.037,1.867 10.851,1.025 8.355,1.025C5.858,1.025 3.672,1.867 2.48,3.124L14.229,3.124ZM14.225,7.514L2.485,7.514C3.678,8.768 5.861,9.608 8.355,9.608C10.848,9.608 13.031,8.768 14.225,7.514Z"/></g><g transform="matrix(0.969716,0,0,1.52532,0.898368,-0.109422)"><path d="M2.105,2.984C3.374,1.647 5.699,0.751 8.355,0.751C11.011,0.751 13.336,1.647 14.604,2.984L2.105,2.984Z" style="fill:rgb(0,0,255);"/></g><g transform="matrix(0.969716,0,0,1.52532,0.898368,-0.109422)"><path d="M14.599,7.654C13.33,8.988 11.007,9.882 8.355,9.882C5.702,9.882 3.38,8.988 2.11,7.654L14.599,7.654Z" style="fill:rgb(0,0,255);"/></g><g transform="matrix(1,0,0,0.708235,0,1.59289)"><path d="M15.304,4.641C15.781,5.967 16.05,7.463 16.05,9.047C16.05,10.627 15.782,12.12 15.307,13.443L2.693,13.443C2.218,12.12 1.95,10.627 1.95,9.047C1.95,7.463 2.219,5.967 2.696,4.641L15.304,4.641Z" style="fill:rgb(255,255,0);"/></g><g transform="matrix(0.924037,0,0,1,1.90608,1.85687)"><g transform="matrix(0.833333,0,0,0.833333,11.7645,4.00978)"></g><text x="1.263px" y="4.01px" style="font-family:'CourierNewPS-BoldMT', 'Courier New', monospace;font-weight:700;font-size:0.833px;fill:rgb(212,212,0);">program Sublime Text;</text></g><g transform="matrix(0.924037,0,0,1,1.79975,3.67492)"><g transform="matrix(0.833333,0,0,0.833333,3.76319,4.00978)"></g><text x="1.263px" y="4.01px" style="font-family:'CourierNewPS-BoldMT', 'Courier New', monospace;font-weight:700;font-size:0.833px;fill:rgb(212,212,0);">begin</text></g><g transform="matrix(0.924037,0,0,1,2.79915,4.73034)"><g transform="matrix(0.833333,0,0,0.833333,7.76384,4.00978)"></g><text x="1.263px" y="4.01px" style="font-family:'CourierNewPS-BoldMT', 'Courier New', monospace;font-weight:700;font-size:0.833px;fill:rgb(212,212,0);">if x &gt; y then</text></g><g transform="matrix(0.924037,0,0,1,3.67918,5.60285)"><g transform="matrix(0.833333,0,0,0.833333,8.26392,4.00978)"></g><text x="1.263px" y="4.01px" style="font-family:'CourierNewPS-BoldMT', 'Courier New', monospace;font-weight:700;font-size:0.833px;fill:rgb(212,212,0);">result := true</text></g><g transform="matrix(0.924037,0,0,1,1.8789,6.58732)"><g transform="matrix(0.833333,0,0,0.833333,3.26311,4.00978)"></g><text x="1.263px" y="4.01px" style="font-family:'CourierNewPS-BoldMT', 'Courier New', monospace;font-weight:700;font-size:0.833px;fill:rgb(212,212,0);">end;</text></g><path d="M3.071,6.834L4.1,6.834C4.1,6.834 4.62,6.898 4.65,7.514C4.679,8.131 4.273,8.261 4.077,8.262L3.453,8.265L3.449,9.171L3.071,9.171L3.071,6.834ZM3.452,7.949L3.981,7.949C3.981,7.949 4.293,7.93 4.286,7.561C4.278,7.191 3.957,7.204 3.957,7.204L3.449,7.213L3.452,7.949Z"/><path d="M6.302,8.189C6.302,8.189 6.369,7.73 5.959,7.734C5.548,7.739 5.485,7.89 5.485,7.89L5.279,7.682C5.279,7.682 5.509,7.433 5.992,7.438C6.475,7.443 6.679,7.872 6.676,8.095L6.665,9.23L6.304,9.236L6.296,9.087C6.296,9.087 6.128,9.239 5.826,9.236C5.523,9.233 5.176,9.11 5.176,8.681C5.176,8.251 5.603,8.108 5.889,8.113C6.174,8.117 6.302,8.189 6.302,8.189ZM6.305,8.52C6.305,8.52 6.195,8.412 5.905,8.408C5.644,8.406 5.549,8.564 5.548,8.681C5.546,8.835 5.633,8.935 5.893,8.937C6.242,8.941 6.305,8.762 6.305,8.762L6.305,8.52Z"/><path d="M8.461,7.878L8.665,7.696C8.665,7.696 8.472,7.433 8.074,7.438C7.609,7.443 7.427,7.669 7.43,7.922C7.433,8.218 7.532,8.334 7.97,8.473C8.279,8.572 8.347,8.666 8.352,8.756C8.358,8.851 8.267,8.933 8.074,8.944C7.899,8.954 7.593,8.732 7.593,8.732L7.376,8.973C7.376,8.973 7.542,9.242 8.033,9.236C8.525,9.229 8.71,9.094 8.705,8.766C8.701,8.456 8.604,8.344 8.223,8.211C7.847,8.079 7.767,8.005 7.77,7.914C7.774,7.786 7.91,7.729 8.08,7.729C8.293,7.73 8.461,7.878 8.461,7.878Z"/><path d="M10.546,7.958L10.884,7.876C10.884,7.876 10.757,7.437 10.211,7.438C9.615,7.439 9.384,7.903 9.392,8.29C9.4,8.677 9.514,9.238 10.209,9.236C10.842,9.233 10.891,8.743 10.891,8.743L10.543,8.663C10.543,8.663 10.456,8.925 10.21,8.921C9.964,8.917 9.742,8.654 9.759,8.308C9.776,7.961 9.947,7.81 10.223,7.81C10.499,7.81 10.546,7.958 10.546,7.958Z"/><path d="M13.655,9.236L15.07,9.236L15.073,8.867L14.556,8.863L14.554,6.76L13.625,6.76L13.734,7.06L14.175,7.068L14.176,8.869L13.657,8.865L13.655,9.236Z"/><g transform="matrix(1,0,0,1,6.33161,7.95669e-05)"><path d="M6.302,8.189C6.302,8.189 6.369,7.73 5.959,7.734C5.548,7.739 5.485,7.89 5.485,7.89L5.279,7.682C5.279,7.682 5.509,7.433 5.992,7.438C6.475,7.443 6.679,7.872 6.676,8.095L6.665,9.23L6.304,9.236L6.296,9.087C6.296,9.087 6.128,9.239 5.826,9.236C5.523,9.233 5.176,9.11 5.176,8.681C5.176,8.251 5.603,8.108 5.889,8.113C6.174,8.117 6.302,8.189 6.302,8.189ZM6.305,8.52C6.305,8.52 6.195,8.412 5.905,8.408C5.644,8.406 5.549,8.564 5.548,8.681C5.546,8.835 5.633,8.935 5.893,8.937C6.242,8.941 6.305,8.762 6.305,8.762L6.305,8.52Z"/></g></g></svg>