<svg width="100%" height="100%" viewBox="0 0 18 16" version="1.1" xmlns="http://www.w3.org/2000/svg" xmlns:xlink="http://www.w3.org/1999/xlink" xml:space="preserve" style="fill-rule:evenodd;clip-rule:evenodd;stroke-linejoin:round;stroke-miterlimit:2;"><g id="pdm" transform="matrix(0.0390086,0,0,0.0390086,2.24333,0.5)"><path d="M250.21,82.908L301.42,112.473C304.514,114.259 306.42,117.561 306.42,121.133L306.42,263.397C306.42,266.97 304.514,270.271 301.42,272.058L270.319,290.014L265.87,287.445L250.21,278.404L250.21,82.908ZM61.267,215.506L230.318,313.107L178.21,343.191C175.116,344.977 171.304,344.977 168.21,343.191L45,272.058C41.906,270.271 40,266.97 40,263.397L40,227.784L41.21,227.086L61.267,215.506ZM101.267,192.412L210.21,129.514L210.21,255.31L101.267,192.412ZM210.21,83.326L40,181.596L40,121.133C40,117.561 41.906,114.259 45,112.473L168.21,41.34C171.304,39.553 175.116,39.553 178.21,41.34L210.21,59.814L210.21,83.326ZM148.211,6.698C163.68,-2.233 182.74,-2.233 198.209,6.698L321.419,77.832C336.89,86.763 346.42,103.27 346.42,121.133L346.42,263.397C346.42,281.261 336.89,297.767 321.419,306.699L198.209,377.832C182.74,386.764 163.68,386.764 148.211,377.832L25.001,306.699C9.53,297.767 0,281.261 0,263.397L0,121.133C0,103.27 9.53,86.763 25.001,77.832L148.211,6.698Z" style="fill:rgb(172,117,215);"/></g></svg>