<svg width="100%" height="100%" viewBox="0 0 18 16" version="1.1" xmlns="http://www.w3.org/2000/svg" xmlns:xlink="http://www.w3.org/1999/xlink" xml:space="preserve" style="fill-rule:evenodd;clip-rule:evenodd;stroke-linejoin:round;stroke-miterlimit:2;"><g id="perl-dark" transform="matrix(-0.234417,0,0,0.234417,16.5372,0.493593)"><path d="M61.284,31.54C61.284,31.54 60.284,30.326 60.124,28.792C59.964,27.258 60.696,27.792 60.696,27.792C60.696,27.792 60.41,25.756 58.98,24.006C57.55,22.256 56.016,20.186 55.34,17.434C54.664,14.682 53.412,13.078 52.554,11.97C51.696,10.862 51.34,8.684 50.838,7.898C50.336,7.112 50.264,2.772 46.66,0.8C43.056,-1.172 36.48,1.094 34.552,2.452C32.624,3.81 30.872,7.738 28.552,9.346C26.232,10.954 24.338,10.986 22.48,14.166C20.622,17.346 20.23,19.166 20.32,21.022C20.32,21.022 18.98,21.182 18.82,20.434C18.66,19.686 19.196,17.166 19.57,16.414C19.57,16.414 19.946,16.734 19.89,17.058C19.89,17.058 21.016,14.754 20.318,13.362C20.318,13.362 20.694,13.442 20.878,13.63C20.878,13.63 21.334,11.46 21.334,10.042C21.334,8.624 20.798,7.522 19.86,6.882C19.86,6.882 20.56,5.972 19.78,4.982C19.78,4.982 19.432,4.186 18.52,3.242C17.608,2.298 16.92,1.744 16,1.772C16,1.772 16.16,1.424 16.32,1.212C16.32,1.212 15.54,1.304 15.274,1.66C15.274,1.66 14.846,1.4 14.766,0.784C14.766,0.784 14.016,0.998 13.934,1.534C13.934,1.534 12.282,0.974 11.578,2.766C11.578,2.766 11.846,2.872 11.926,3.06C11.926,3.06 11.686,3.596 10.64,3.676C9.594,3.756 6.594,3.676 5.686,3.996C4.778,4.316 4.4,4.64 4.4,5.016C4.4,5.016 3.944,5.23 3.73,6.222C3.73,6.222 3.018,6.57 3.018,7.186C3.018,7.802 3.41,7.626 3.41,7.626C3.41,7.626 2.982,8.85 4.482,8.93C4.482,8.93 4.722,9.546 6.01,9.546C7.298,9.546 8.23,9.76 8.77,10.566C8.77,10.566 8.342,12.174 6.654,13.646C6.903,13.679 7.154,13.688 7.404,13.674C7.654,13.66 5.93,14.906 5.556,16.7C5.556,16.7 6.066,16.192 6.36,16.22C6.36,16.22 4.512,21.336 7.084,26.4C7.084,26.4 7.324,25.892 7.432,25.84C7.432,25.84 7.326,27.556 8.372,28.894C8.372,28.894 8.452,28.144 8.852,27.874C8.852,27.874 10.458,30.794 12.106,32.106C13.754,33.418 16.272,34.034 16.834,35.374C16.834,35.374 17.718,34.386 17.718,33.742C17.718,33.742 17.958,34.356 17.878,34.998C17.878,34.998 18.87,34.518 19.19,34.25C19.51,33.982 20.906,33.018 21.09,34.57C21.274,36.122 19.716,39.23 21.144,43.09C21.144,43.09 20.644,43.79 20.644,44.726C20.644,45.662 21.358,46.126 21.358,46.554C21.358,46.982 21.038,47.77 21.038,48.59C21.038,49.41 21.788,50.724 21.11,53.656C20.432,56.588 20.146,57.376 19.75,57.876C19.354,58.376 17.822,59.236 18.11,60.662C18.11,60.662 14.504,61.126 14.538,62.376C14.572,63.626 16.398,64.016 18.574,64.016C20.75,64.016 21.322,63.556 21.374,62.768C21.426,61.98 20.874,61.838 21.374,61.376C21.874,60.914 22.414,60.376 22.34,58.412C22.266,56.448 23.232,54.626 23.232,54.626C23.232,54.626 23.052,52.946 23.626,51.912C24.2,50.878 25.732,48.84 24.698,45.732C24.698,45.732 24.982,45.84 25.338,45.872C25.338,45.872 24.73,44.158 25.838,42.086C26.946,40.014 27.518,35.8 27.518,35.8C27.518,35.8 30.054,36.016 31.158,35.8C31.158,35.8 28.73,40.89 28.978,44.72C28.978,44.72 28.37,45.334 28.37,46.012C28.37,46.69 28.73,47.546 29.334,48.152C29.938,48.758 31.942,49.972 33.048,51.292C34.154,52.612 34.908,54.076 35.228,54.472C35.228,54.472 34.194,55.152 34.478,56.222C34.478,56.222 33.442,56.542 33.55,57.436C33.55,57.436 32.05,57.472 31.264,58.152C30.478,58.832 30.084,59.724 30.8,60.008C31.516,60.292 34.16,60.294 35.05,60.294C35.94,60.294 36.978,59.614 37.05,59.154C37.122,58.694 36.73,57.546 36.73,57.546C36.73,57.546 37.266,57.618 37.48,56.974C37.48,56.974 38.48,60.688 40.016,60.58C40.016,60.58 40.23,60.546 40.266,60.224C40.266,60.224 40.98,60.404 41.338,60.044C41.696,59.684 42.552,54.652 39.518,54.578C39.518,54.578 39.732,54.078 39.158,53.722C38.584,53.366 44.158,46.33 44.798,45.722C44.798,45.722 44.012,39.438 45.584,36.402L48.44,31.294C48.44,31.294 48.76,38.044 51.832,43.222C51.763,43.837 51.915,44.458 52.26,44.972C52.12,45.936 51.726,46.436 51.726,47.652C51.726,48.868 52.618,52.08 51.76,55.58C51.588,56.28 49.868,58.366 50.476,60.08C50.476,60.08 49.048,60.9 49.048,61.974C49.048,63.048 49.688,63.26 50.156,63.26C50.624,63.26 50.87,62.796 51.12,62.796C51.37,62.796 51.728,63.476 52.87,63.476C54.012,63.476 55.01,62.548 55.01,62.012C55.01,61.476 54.082,60.584 54.082,60.584C54.082,60.584 54.69,60.012 54.69,59.3C54.69,58.588 53.726,57.408 53.726,55.908C53.726,54.408 54.038,51.496 54.618,50.228C55.778,47.692 55.654,45.674 54.978,45.14C54.978,45.14 55.334,43.516 55.334,41.8C55.334,40.084 54.014,35.496 55.12,30.872C55.12,30.872 56.44,28.944 56.728,25.908C56.728,25.908 59.12,30.768 57.334,34.158C55.548,37.548 55.906,37.518 55.87,38.55C55.834,39.582 56.37,41.016 56.37,41.016L58,39.36C58,39.36 57.98,38.22 58.766,37.396C59.552,36.572 60.126,34.344 59.766,33.728L60.338,34.148C60.338,34.148 60.624,33.076 60.088,31.508C60.088,31.508 60.662,31.222 61.288,31.542L61.284,31.54ZM39.84,47.61L37.09,52.038C37.09,52.038 34.946,50.824 34.27,49.466C33.594,48.108 33.02,47.252 32.734,47.038C32.734,47.038 33.608,45.858 33.822,44.61C33.822,44.61 34.206,44.64 34.422,45.41C35.722,43.778 36.568,42.01 36.806,40.15C36.806,40.15 37.126,40.47 37.414,40.578C37.414,40.578 37.448,39.292 37.914,38.364C38.38,37.436 39.378,36.256 39.522,34.47L40.162,34.47C40.162,34.47 39.626,38.47 40.162,41.898C40.698,45.326 40.518,46.538 39.842,47.612L39.84,47.61Z" style="fill:rgb(24,58,88);fill-rule:nonzero;"/></g></svg>