<svg width="100%" height="100%" viewBox="0 0 18 16" version="1.1" xmlns="http://www.w3.org/2000/svg" xmlns:xlink="http://www.w3.org/1999/xlink" xml:space="preserve" style="fill-rule:evenodd;clip-rule:evenodd;stroke-linejoin:round;stroke-miterlimit:2;"><g id="phoenix" transform="matrix(1.47191,0,0,1.47191,-3.58345,-3.78006)"><path d="M3.454,5.079C3.454,5.079 4.16,4.511 5.552,4.51C6.943,4.509 7.781,5.977 8.223,6.4C8.429,6.597 8.792,6.97 9.161,7.137C9.583,7.328 10.002,7.321 10.002,7.321C10.002,7.321 9.707,7.518 9.211,7.554C8.594,7.6 8.261,6.855 7.8,6.89C7.396,6.919 7.189,7.38 7.761,8C8.333,8.62 9.054,8.88 9.604,8.843C10.154,8.805 10.45,8.652 10.45,8.652C10.45,8.652 9.827,9.374 9,9.399C8.173,9.424 7.564,8.513 7.292,8.183C7.02,7.854 6.606,7.588 6.233,7.803C5.934,7.974 6.035,8.597 6.381,8.905C6.532,9.04 6.663,9.169 6.813,9.24C7.007,9.332 7.202,9.346 7.202,9.346C7.202,9.346 6.664,9.467 6.028,9.191C5.392,8.914 4.811,8.161 4.766,7.514C4.72,6.868 4.752,5.96 4.433,5.521C4.045,4.986 3.454,5.079 3.454,5.079ZM4.654,4.882C4.654,4.882 4.702,5.134 4.964,5.069C5.194,5.012 5.224,4.807 5.224,4.807L4.654,4.882Z" style="fill:rgb(240,84,35);"/><path d="M7.753,5.429C7.753,5.429 8.053,5.834 8.661,6.109C8.922,6.228 9.3,6.309 9.562,6.308C9.908,6.305 10.107,6.194 10.107,6.194C10.107,6.194 9.779,6.233 9.478,6.132C9.279,6.066 9.103,5.882 8.831,5.704C8.351,5.39 7.753,5.429 7.753,5.429Z" style="fill:rgb(240,84,35);"/><path d="M8.274,6.144C8.274,6.144 9.004,7.108 10.356,7.1C11.097,7.095 11.081,6.874 11.496,6.872C11.99,6.87 12.203,7.345 12.203,7.345C12.203,7.345 12.242,7.057 12.044,6.788C11.847,6.519 11.571,6.377 11.229,6.404C10.752,6.442 10.272,6.684 9.793,6.683C9.623,6.682 9.302,6.64 9.061,6.551C8.627,6.392 8.274,6.144 8.274,6.144Z" style="fill:rgb(240,84,35);"/><path d="M8.922,8.327C8.922,8.327 9.026,8.492 9.599,8.467C10.171,8.442 10.496,8.335 10.767,8.161C11.039,7.986 11.242,7.901 11.461,7.906C11.68,7.911 11.995,8 11.995,8C11.995,8 11.733,7.731 11.155,7.749C10.577,7.767 10.478,7.824 10.146,8.031C9.813,8.238 9.604,8.355 9.374,8.376C9.144,8.396 8.922,8.327 8.922,8.327Z" style="fill:rgb(240,84,35);"/><path d="M9.965,9.451C9.965,9.451 10.929,9.498 11.361,9.067C11.794,8.636 11.981,8.37 12.172,8.373C12.363,8.376 12.54,8.431 12.54,8.431C12.54,8.431 12.336,8.221 11.931,8.236C11.526,8.252 11.212,8.35 10.971,8.593C10.731,8.836 10.398,9.189 10.306,9.266C10.214,9.343 9.965,9.451 9.965,9.451Z" style="fill:rgb(240,84,35);"/><path d="M12.096,8.778C12.096,8.778 12.377,8.816 12.483,8.923C12.588,9.03 12.679,9.118 12.788,9.226C12.897,9.333 13.013,9.372 13.223,9.37C13.433,9.368 13.644,9.271 13.644,9.271C13.644,9.271 13.473,9.29 13.216,9.021C12.958,8.751 12.84,8.655 12.545,8.658C12.348,8.66 12.096,8.778 12.096,8.778Z" style="fill:rgb(240,84,35);"/><g transform="matrix(0.556901,0,0,0.556901,5.27991,4.04745)"><path d="M11.763,9.825L11.763,9.329L11.586,9.329L11.586,9.228L12.06,9.228L12.06,9.329L11.883,9.329L11.883,9.825L11.763,9.825Z" style="fill:rgb(240,84,35);fill-rule:nonzero;"/><path d="M12.136,9.825L12.136,9.228L12.316,9.228L12.424,9.635L12.531,9.228L12.712,9.228L12.712,9.825L12.6,9.825L12.6,9.355L12.482,9.825L12.366,9.825L12.248,9.355L12.248,9.825L12.136,9.825Z" style="fill:rgb(240,84,35);fill-rule:nonzero;"/></g><path d="M5.545,9.211C5.545,9.211 6.243,9.991 6.599,10.187C7.029,10.423 7.342,10.512 7.775,10.506C8.207,10.5 8.322,10.441 8.811,10.431C9.537,10.416 9.671,10.601 9.671,10.601C9.671,10.601 9.535,10.217 9,10.163C8.657,10.128 7.69,10.168 7.787,9.822C7.854,9.586 8.183,9.555 8.183,9.555C8.183,9.555 7.918,9.462 7.644,9.531C7.488,9.57 7.392,9.73 6.913,9.737C6.728,9.74 6.434,9.679 6.202,9.582C5.832,9.428 5.545,9.211 5.545,9.211Z" style="fill:rgb(240,84,35);"/><path d="M8.88,10.679C8.88,10.679 9.122,10.712 9.332,10.907C9.541,11.102 9.786,11.344 9.922,11.401C10.058,11.458 10.255,11.496 10.255,11.496C10.255,11.496 10.072,11.274 9.864,11.021C9.495,10.571 8.88,10.679 8.88,10.679Z" style="fill:rgb(240,84,35);"/></g></svg>