<svg width="100%" height="100%" viewBox="0 0 18 16" version="1.1" xmlns="http://www.w3.org/2000/svg" xmlns:xlink="http://www.w3.org/1999/xlink" xml:space="preserve" style="fill-rule:evenodd;clip-rule:evenodd;"><g id="php-1" transform="matrix(0.0426936,0,0,0.0423463,1.5,-1.50806)"><g id="g14" transform="matrix(0.133333,0,0,-0.133333,0,462.547)"><g id="g16"><clipPath id="_clip-gr22crr"><path d="M366.672,2445.95C366.672,2445.95 494.391,2587.32 582.848,2645.91C611.031,2664.56 820.645,2774.86 955.25,2395.24C1028.89,2187.39 1030.12,2032.56 862.734,1966.53C762.5,1926.98 798.324,1852.94 798.324,1852.94"/></clipPath><g clip-path="url(#_clip-gr22crr)"><path id="path28" d="M366.672,2445.95C366.672,2445.95 494.391,2587.32 582.848,2645.91C611.031,2664.56 820.645,2774.86 955.25,2395.24C1028.89,2187.39 1030.12,2032.56 862.734,1966.53C762.5,1926.98 798.324,1852.94 798.324,1852.94" style="fill:url(#_Linear-clsf9x9);fill-rule:nonzero;"/></g></g></g><path id="path30" d="M76.082,107.463C64.118,115.387 47.415,133.812 46.71,134.591C45.666,135.749 45.789,137.511 46.991,138.519C48.191,139.525 50.014,139.409 51.059,138.249C51.229,138.061 67.991,119.571 79.347,112.052C79.687,111.823 87.972,106.463 98.061,109.688C108.672,113.081 117.864,124.976 124.635,144.081C135.416,174.501 132.219,190.561 113.942,197.765C108.669,199.851 105.197,202.864 103.627,206.74C101.555,211.852 103.737,216.469 103.832,216.667C104.498,218.052 106.192,218.64 107.631,218.005C109.073,217.377 109.713,215.733 109.07,214.337C109.059,214.311 107.827,211.572 109.028,208.703C110.016,206.335 112.403,204.384 116.125,202.92C143.697,192.039 138.072,164.797 130.092,142.277C122.607,121.167 112.443,108.428 99.879,104.407C87.32,100.389 77.192,106.731 76.082,107.463" style="fill:rgb(54,50,84);fill-rule:nonzero;"/><g id="g32" transform="matrix(0.133333,0,0,-0.133333,0,462.547)"><g id="g34"><clipPath id="_clip-v74w5gj"><path d="M2084.18,2364.09L2352.42,2364.09C2374.93,2364.09 2393.16,2349.16 2393.16,2330.8C2393.16,2312.43 2374.93,2297.53 2352.42,2297.53L2141.88,2297.53L2084.18,2364.09Z"/></clipPath><g clip-path="url(#_clip-v74w5gj)"><path id="path46" d="M2084.18,2364.09L2352.42,2364.09C2374.93,2364.09 2393.16,2349.16 2393.16,2330.8C2393.16,2312.43 2374.93,2297.53 2352.42,2297.53L2141.88,2297.53L2084.18,2364.09" style="fill:url(#_Linear-phynqls);fill-rule:nonzero;"/></g></g></g><path id="path48" d="M313.656,150.116C315.157,150.116 316.201,150.991 316.201,151.773C316.201,152.555 315.157,153.429 313.656,153.429L286.932,153.429C286.357,152.771 285.497,151.769 284.063,150.116L313.656,150.116ZM271.721,144.553L284.236,158.993L313.656,158.993C318.244,158.993 321.972,155.755 321.972,151.773C321.972,147.791 318.244,144.553 313.656,144.553L271.721,144.553" style="fill:rgb(54,50,84);fill-rule:nonzero;"/><path id="path50" d="M324.724,137.017C329.641,134.675 335.388,135.248 337.573,138.296C339.748,141.352 337.528,145.716 332.612,148.068C327.704,150.408 314.837,153.239 312.656,150.179C310.472,147.131 319.815,139.359 324.724,137.017" style="fill:rgb(139,157,215);fill-rule:nonzero;"/><path id="path52" d="M325.999,139.511C329.813,137.695 334.001,138.207 335.196,139.877C335.528,140.345 335.605,140.883 335.432,141.525C335.124,142.685 333.883,144.357 331.329,145.577C326.588,147.836 318.168,149.161 315.567,148.521C316.527,146.365 321.793,141.519 325.999,139.511ZM323.447,134.525C319.335,136.481 310.972,142.717 309.649,147.647L310.284,151.757C314.235,157.307 330.173,152.335 333.889,150.56C337.591,148.793 340.188,146.009 341.017,142.921C341.611,140.72 341.231,138.519 339.947,136.72C336.935,132.512 329.692,131.549 323.447,134.525" style="fill:rgb(54,50,84);fill-rule:nonzero;"/><path id="path54" d="M333.46,155.025C338.732,156.785 341.668,160.861 340.041,164.133C338.4,167.409 332.807,168.625 327.539,166.86C322.279,165.104 311.699,158.483 313.332,155.215C314.972,151.932 328.2,153.265 333.46,155.025" style="fill:rgb(139,157,215);fill-rule:nonzero;"/><path id="path56" d="M334.408,152.4L334.403,152.4L334.408,152.4ZM332.515,157.652L332.518,157.652C335.35,158.603 336.9,160.183 337.403,161.348C337.786,162.239 337.527,162.761 337.439,162.932C336.572,164.668 332.552,165.593 328.484,164.232C323.835,162.681 317.584,158.312 316.407,156.301C318.588,155.571 327.428,155.949 332.515,157.652L332.515,157.652ZM310.735,154.008L310.738,158.044C312.768,162.761 322.139,168.003 326.596,169.492C333.3,171.739 340.351,169.916 342.638,165.349C343.124,164.364 343.367,163.307 343.367,162.235C343.367,161.224 343.154,160.203 342.724,159.203C341.432,156.209 338.4,153.733 334.403,152.4C330.415,151.063 313.748,147.972 310.735,154.008" style="fill:rgb(54,50,84);fill-rule:nonzero;"/><path id="path58" d="M334.231,144.941C342.053,144.891 348.425,147.709 348.455,151.244C348.493,154.777 342.188,157.681 334.361,157.732C326.551,157.785 308.849,155.048 308.813,151.517C308.777,147.979 326.419,145 334.231,144.941" style="fill:rgb(139,157,215);fill-rule:nonzero;"/><path id="path60" d="M345.571,151.271C345.571,151.405 345.445,151.668 345.095,152.012C343.681,153.403 339.708,154.915 334.344,154.949C327.636,154.995 317.025,153.175 312.943,151.485C316.996,149.733 327.555,147.769 334.253,147.724L334.25,147.724C341.658,147.675 345.564,150.336 345.57,151.271L345.571,151.271ZM334.213,142.157L334.209,142.157C328.527,142.199 311.651,144.2 307.321,148.443L305.931,151.545C306.011,159.724 334.099,160.516 334.383,160.516C340.677,160.472 346.36,158.711 349.211,155.915C350.624,154.529 351.359,152.908 351.34,151.216C351.296,145.908 344.092,142.096 334.213,142.157" style="fill:rgb(54,50,84);fill-rule:nonzero;"/><g id="g62" transform="matrix(0.133333,0,0,-0.133333,0,462.547)"><g id="g64"><clipPath id="_clip-l7y2qea"><path d="M1150.12,1702.08L1150.12,1166.26C1150.12,1034.14 1019.02,986.789 857.336,986.789C695.625,986.789 564.59,1034.14 564.59,1166.26L564.59,1708.4"/></clipPath><g clip-path="url(#_clip-l7y2qea)"><path id="path76" d="M1150.12,1702.08L1150.12,1166.26C1150.12,1034.14 1019.02,986.789 857.336,986.789C695.625,986.789 564.59,1034.14 564.59,1166.26L564.59,1708.4" style="fill:url(#_Linear-joyi5dq);fill-rule:nonzero;"/></g></g></g><path id="path78" d="M72.395,234.76L72.395,307.045C72.395,324.273 87.277,333.758 114.311,333.758C141.345,333.758 156.233,324.273 156.233,307.045L156.233,235.603C156.233,234.065 154.941,232.819 153.349,232.819C151.756,232.819 150.465,234.065 150.465,235.603L150.465,307.045C150.465,324.525 130.808,328.192 114.311,328.192C97.821,328.192 78.164,324.525 78.164,307.045L78.164,234.76C78.164,233.225 76.871,231.979 75.279,231.979C73.687,231.979 72.395,233.225 72.395,234.76" style="fill:rgb(54,50,84);fill-rule:nonzero;"/><path id="path80" d="M92.386,306.96C92.386,314.087 88.255,319.88 83.157,319.88C78.058,319.88 73.925,314.087 73.925,306.96C73.925,299.82 78.058,283.7 83.157,283.7C88.255,283.7 92.386,299.82 92.386,306.96" style="fill:rgb(139,157,215);fill-rule:nonzero;"/><path id="path82" d="M74.888,306.96C74.888,299.196 79.266,284.627 83.157,284.627C87.046,284.627 91.425,299.196 91.425,306.96C91.425,313.576 87.718,318.955 83.157,318.955C78.598,318.955 74.888,313.576 74.888,306.96ZM72.963,306.96C72.963,314.596 77.534,320.811 83.157,320.811C88.777,320.811 93.346,314.596 93.346,306.96C93.346,299.985 89.287,282.769 83.157,282.769C77.028,282.769 72.963,299.985 72.963,306.96" style="fill:rgb(54,50,84);fill-rule:nonzero;"/><path id="path84" d="M76.412,308.248C76.412,301.383 81.408,289.023 85.055,289.023C85.404,289.023 85.746,289.197 86.076,289.463C85.165,287.287 84.12,285.847 83.014,285.847C79.365,285.847 76.412,301.385 76.412,308.248" style="fill:rgb(166,189,230);fill-rule:nonzero;"/><path id="path86" d="M96.74,313.824C96.74,319.331 93.455,323.796 89.401,323.796C85.342,323.796 82.053,319.331 82.053,313.824C82.053,308.301 85.342,295.864 89.401,295.864C93.455,295.864 96.74,308.301 96.74,313.824" style="fill:rgb(139,157,215);fill-rule:nonzero;"/><path id="path88" d="M83.014,313.824C83.014,308.052 86.464,296.793 89.401,296.793C92.338,296.793 95.777,308.052 95.777,313.824C95.777,318.809 92.915,322.868 89.401,322.868C85.877,322.868 83.014,318.809 83.014,313.824ZM81.092,313.824C81.092,319.832 84.819,324.724 89.401,324.724C93.975,324.724 97.701,319.832 97.701,313.824C97.701,309.123 94.756,294.936 89.401,294.936C84.037,294.936 81.092,309.123 81.092,313.824" style="fill:rgb(54,50,84);fill-rule:nonzero;"/><path id="path90" d="M85.141,310.544C84.771,306.62 88.214,300.107 90.895,299.631C91.146,299.597 91.405,299.657 91.661,299.765C90.875,298.637 89.986,297.739 89.224,298.091C86.569,299.359 84.771,306.633 85.141,310.544" style="fill:rgb(166,189,230);fill-rule:nonzero;"/><g id="g92" transform="matrix(0.133333,0,0,-0.133333,0,462.547)"><g id="g94"><clipPath id="_clip-e08an0y"><path d="M2045.81,1695.54L2045.81,1159.73C2045.81,1027.59 1914.72,980.262 1753.03,980.262C1591.33,980.262 1460.24,1027.59 1460.24,1159.73L1460.24,1701.86"/></clipPath><g clip-path="url(#_clip-e08an0y)"><path id="path106" d="M2045.81,1695.54L2045.81,1159.73C2045.81,1027.59 1914.72,980.262 1753.03,980.262C1591.33,980.262 1460.24,1027.59 1460.24,1159.73L1460.24,1701.86" style="fill:url(#_Linear-2gammj9);fill-rule:nonzero;"/></g></g></g><path id="path108" d="M191.813,235.632L191.813,307.916C191.813,325.14 206.703,334.628 233.737,334.628C245.905,334.628 255.663,332.707 262.741,328.92C271.191,324.397 275.659,317.136 275.659,307.916L275.659,236.475C275.659,234.939 274.367,233.693 272.775,233.693C271.183,233.693 269.893,234.939 269.893,236.475L269.893,307.916C269.893,315.195 266.636,320.472 259.94,324.057C253.815,327.331 244.756,329.063 233.737,329.063C217.244,329.063 197.585,325.391 197.585,307.916L197.585,235.632C197.585,234.093 196.291,232.848 194.699,232.848C193.107,232.848 191.813,234.093 191.813,235.632" style="fill:rgb(54,50,84);fill-rule:nonzero;"/><path id="path110" d="M211.811,307.829C211.811,314.956 207.681,320.759 202.584,320.759C197.477,320.759 193.349,314.956 193.349,307.829C193.349,300.693 197.477,284.572 202.584,284.572C207.681,284.572 211.811,300.693 211.811,307.829" style="fill:rgb(116,131,202);fill-rule:nonzero;"/><path id="path112" d="M194.308,307.829C194.308,304.185 195.403,298.421 196.967,293.816C198.707,288.687 200.86,285.499 202.584,285.499C206.471,285.499 210.851,300.067 210.851,307.829C210.851,314.448 207.143,319.829 202.584,319.829C198.02,319.829 194.308,314.448 194.308,307.829ZM195.139,293.239C193.517,298.008 192.385,304.011 192.385,307.829C192.385,315.468 196.96,321.685 202.584,321.685C208.203,321.685 212.772,315.468 212.772,307.829C212.772,300.855 208.712,283.645 202.584,283.645C199.12,283.645 196.624,288.859 195.139,293.239" style="fill:rgb(54,50,84);fill-rule:nonzero;"/><path id="path114" d="M195.841,309.127C195.841,302.259 200.833,289.891 204.48,289.891C204.831,289.891 205.172,290.071 205.503,290.332C204.588,288.16 203.547,286.717 202.441,286.717C198.789,286.717 195.841,302.259 195.841,309.127" style="fill:rgb(131,154,214);fill-rule:nonzero;"/><path id="path116" d="M216.167,314.692C216.167,320.207 212.884,324.661 208.825,324.661C204.771,324.661 201.483,320.207 201.483,314.692C201.483,309.171 204.771,296.735 208.825,296.735C212.884,296.735 216.167,309.171 216.167,314.692" style="fill:rgb(116,131,202);fill-rule:nonzero;"/><path id="path118" d="M202.445,314.692C202.445,308.92 205.888,297.664 208.825,297.664C211.759,297.664 215.204,308.92 215.204,314.692C215.204,319.679 212.341,323.739 208.825,323.739C205.305,323.739 202.445,319.679 202.445,314.692ZM200.523,314.692C200.523,320.707 204.247,325.592 208.825,325.592C213.404,325.592 217.128,320.707 217.128,314.692C217.128,309.992 214.181,295.808 208.825,295.808C203.465,295.808 200.523,309.992 200.523,314.692" style="fill:rgb(54,50,84);fill-rule:nonzero;"/><path id="path120" d="M204.569,311.415C204.195,307.495 207.639,300.983 210.321,300.504C210.575,300.469 210.833,300.527 211.087,300.636C210.301,299.508 209.412,298.608 208.649,298.961C205.993,300.229 204.195,307.503 204.569,311.415" style="fill:rgb(131,154,214);fill-rule:nonzero;"/><g id="g122" transform="matrix(0.133333,0,0,-0.133333,0,462.547)"><g id="g124"><clipPath id="_clip-x2de9cf"><path d="M903.801,2433.88C1017.83,2248.48 1005.68,2091.86 853.746,2009.76C762.781,1960.58 812.859,1895.72 812.859,1895.72"/></clipPath><g clip-path="url(#_clip-x2de9cf)"><path id="path136" d="M903.801,2433.88C1017.83,2248.48 1005.68,2091.86 853.746,2009.76C762.781,1960.58 812.859,1895.72 812.859,1895.72" style="fill:url(#_Linear-8vsvdft);fill-rule:nonzero;"/></g></g></g><path id="path138" d="M119.036,135.635C117.664,136.42 117.209,138.128 118.025,139.449C126.489,153.203 129.518,165.659 126.789,175.463C124.849,182.432 120.01,188.047 112.425,192.152C107.631,194.741 104.771,198.008 103.92,201.856C102.763,207.085 105.934,211.271 106.07,211.445C107.016,212.671 108.801,212.919 110.081,212.019C111.357,211.117 111.636,209.38 110.711,208.14C110.697,208.116 108.939,205.709 109.573,202.965C110.081,200.771 111.989,198.767 115.242,197.007C124.241,192.14 130.003,185.381 132.362,176.904C135.501,165.617 132.264,151.683 122.986,136.608C122.175,135.285 120.402,134.852 119.036,135.635" style="fill:rgb(8,6,4);fill-rule:nonzero;"/><g id="g140" transform="matrix(0.133333,0,0,-0.133333,0,462.547)"><g id="g142"><clipPath id="_clip-y1hiadm"><path d="M1569.91,2565.32C1569.91,2565.32 1380.59,2567.55 688.867,2544.63C-2.816,2521.72 22.711,2273.69 21.637,1917.49L21.637,1060.73C21.637,988.262 84.43,959.031 161.91,959.031C239.379,959.031 302.266,988.262 302.266,1060.73C302.266,1060.73 320.129,1305.54 335.551,1454.46C370.051,1995.47 1023.13,1365.5 1497.88,1394.9C1929.29,1421.64 2269.03,1570.55 2269.03,1924.44C2269.03,2278.41 2046.38,2565.32 1569.91,2565.32Z"/></clipPath><g clip-path="url(#_clip-y1hiadm)"><path id="path154" d="M1569.91,2565.32C1569.91,2565.32 1380.59,2567.55 688.867,2544.63C-2.816,2521.72 22.711,2273.69 21.637,1917.49L21.637,1060.73C21.637,988.262 84.43,959.031 161.91,959.031C239.379,959.031 302.266,988.262 302.266,1060.73C302.266,1060.73 320.129,1305.54 335.551,1454.46C370.051,1995.47 1023.13,1365.5 1497.88,1394.9C1929.29,1421.64 2269.03,1570.55 2269.03,1924.44C2269.03,2278.41 2046.38,2565.32 1569.91,2565.32" style="fill:url(#_Linear-jjqg6q1);fill-rule:nonzero;"/></g></g></g><path id="path156" d="M5.769,321.116L5.769,206.881C5.769,206.892 5.776,201.848 5.776,201.848C5.792,157.917 5.804,128.895 91.946,126.041C182.98,123.028 209.032,123.281 209.287,123.283L209.321,123.283C238.325,123.283 261.96,131.643 277.669,147.456C292.052,161.928 299.653,182.156 299.653,205.955C299.653,256.885 245.207,270.952 199.533,273.784C175.495,275.269 147.14,263.384 122.123,252.895C94.08,241.14 69.863,230.989 54.952,239.801C47.077,244.455 42.796,253.825 41.864,268.448C39.837,288.008 37.447,320.589 37.425,320.921C37.418,330.492 27.5,331.895 21.588,331.895C15.682,331.895 5.769,330.492 5.769,321.116L5.769,321.116ZM91.752,120.484C0.036,123.52 0.021,156.373 0.007,201.844L0,206.873L0,321.116C0,331.348 8.071,337.464 21.588,337.464C35.117,337.464 43.187,331.348 43.187,321.116C43.204,320.981 45.582,288.479 47.611,268.893C48.429,256.111 51.814,248.184 57.965,244.545C70.32,237.248 94.359,247.327 119.823,258C145.44,268.739 174.472,280.912 199.903,279.336C267.948,275.116 305.421,249.056 305.421,205.955C305.421,180.696 297.264,159.137 281.835,143.604C265.012,126.672 239.936,117.72 209.321,117.72L209.356,117.72C209.104,117.717 182.988,117.455 91.752,120.484" style="fill:rgb(54,50,84);fill-rule:nonzero;"/><g id="g158" transform="matrix(0.133333,0,0,-0.133333,0,462.547)"><g id="g160"><clipPath id="_clip-oaer6ad"><path d="M40.508,1894C41.246,1813.54 29.93,1110.76 74.316,1068.56C60.371,1099.68 90.879,1780.53 90.488,1823.32L90.078,1848.36L90.078,1883.73C72.969,1890.05 56.363,1897.82 40.332,1906.71L40.508,1894Z"/></clipPath><g clip-path="url(#_clip-oaer6ad)"><path id="path172" d="M40.508,1894C41.246,1813.54 29.93,1110.76 74.316,1068.56C60.371,1099.68 90.879,1780.53 90.488,1823.32L90.078,1848.36L90.078,1883.73C72.969,1890.05 56.363,1897.82 40.332,1906.71L40.508,1894" style="fill:url(#_Linear-m705bmy);fill-rule:nonzero;"/></g></g></g><g id="g174" transform="matrix(0.133333,0,0,-0.133333,0,462.547)"><g id="g176"><clipPath id="_clip-dpjpw4y"><path d="M1569.65,2541.75C1569.65,2541.75 1384.44,2543.93 707.645,2521.51C30.879,2499.09 41.266,2249.73 41.266,1914.49L41.406,1902.09C57.07,1893.2 73.305,1885.43 89.965,1879.1C90.121,2196.37 103.613,2429.16 756.371,2450.78C1433.14,2473.2 1618.41,2471.02 1618.41,2471.02C1877.23,2471.02 2055.41,2383.64 2166.35,2247.31C2064.21,2423.73 1870.83,2541.75 1569.65,2541.75Z"/></clipPath><g clip-path="url(#_clip-dpjpw4y)"><path id="path188" d="M1569.65,2541.75C1569.65,2541.75 1384.44,2543.93 707.645,2521.51C30.879,2499.09 41.266,2249.73 41.266,1914.49L41.406,1902.09C57.07,1893.2 73.305,1885.43 89.965,1879.1C90.121,2196.37 103.613,2429.16 756.371,2450.78C1433.14,2473.2 1618.41,2471.02 1618.41,2471.02C1877.23,2471.02 2055.41,2383.64 2166.35,2247.31C2064.21,2423.73 1870.83,2541.75 1569.65,2541.75" style="fill:url(#_Linear-3sqjrt4);fill-rule:nonzero;"/></g></g></g><g id="g190" transform="matrix(0.133333,0,0,-0.133333,0,462.547)"><g id="g192"><clipPath id="_clip-1e18fxl"><path d="M1333.93,1456.26L1333.93,1074.68C1333.93,942.559 1202.8,895.109 1041.11,895.109C879.414,895.109 748.355,942.559 748.355,1074.68L748.355,1655.47"/></clipPath><g clip-path="url(#_clip-1e18fxl)"><path id="path204" d="M1333.93,1456.26L1333.93,1074.68C1333.93,942.559 1202.8,895.109 1041.11,895.109C879.414,895.109 748.355,942.559 748.355,1074.68L748.355,1655.47" style="fill:url(#_Linear-o36qy24);fill-rule:nonzero;"/></g></g></g><path id="path206" d="M96.896,241.817L96.896,319.256C96.896,336.489 111.787,345.978 138.815,345.978C165.851,345.978 180.743,336.489 180.743,319.256L180.743,268.379C180.743,266.843 179.448,265.596 177.857,265.596C176.267,265.596 174.973,266.843 174.973,268.379L174.973,319.256C174.973,336.745 155.312,340.415 138.815,340.415C122.325,340.415 102.665,336.745 102.665,319.256L102.665,241.817C102.665,240.281 101.373,239.036 99.781,239.036C98.188,239.036 96.896,240.281 96.896,241.817" style="fill:rgb(54,50,84);fill-rule:nonzero;"/><path id="path208" d="M124.337,324.191C124.337,330.817 118.825,336.192 112.019,336.192C105.213,336.192 99.699,330.817 99.699,324.191C99.699,317.556 105.213,302.58 112.019,302.58C118.825,302.58 124.337,317.556 124.337,324.191" style="fill:rgb(139,157,215);fill-rule:nonzero;"/><path id="path210" d="M100.661,324.191C100.661,317.731 106.153,303.504 112.019,303.504C117.885,303.504 123.377,317.731 123.377,324.191C123.377,330.3 118.285,335.265 112.019,335.265C105.76,335.265 100.661,330.3 100.661,324.191ZM98.736,324.191C98.736,331.319 104.695,337.12 112.019,337.12C119.344,337.12 125.301,331.319 125.301,324.191C125.301,317.469 119.696,301.647 112.019,301.647C104.348,301.647 98.736,317.469 98.736,324.191" style="fill:rgb(54,50,84);fill-rule:nonzero;"/><path id="path212" d="M101.803,324.984C101.803,319.049 108.7,308.388 113.746,308.388C114.227,308.388 114.694,308.54 115.16,308.772C113.889,306.897 112.454,305.649 110.93,305.649C105.881,305.649 101.803,319.057 101.803,324.984" style="fill:rgb(166,189,230);fill-rule:nonzero;"/><path id="path214" d="M134.373,325.129C134.373,333.87 128.664,340.982 121.62,340.982C114.566,340.982 108.857,333.87 108.857,325.129C108.857,316.377 114.566,296.613 121.62,296.613C128.664,296.613 134.373,316.377 134.373,325.129" style="fill:rgb(139,157,215);fill-rule:nonzero;"/><path id="path216" d="M109.817,325.129C109.817,316.509 115.527,297.539 121.62,297.539C127.713,297.539 133.413,316.509 133.413,325.129C133.413,333.356 128.124,340.052 121.62,340.052C115.115,340.052 109.817,333.356 109.817,325.129ZM107.895,325.129C107.895,334.38 114.053,341.909 121.62,341.909C129.184,341.909 135.336,334.38 135.336,325.129C135.336,316.344 129.544,295.688 121.62,295.688C113.694,295.688 107.895,316.344 107.895,325.129" style="fill:rgb(54,50,84);fill-rule:nonzero;"/><path id="path218" d="M112.296,326.715C112.296,318.287 119.201,303.14 124.241,303.14C124.721,303.14 125.195,303.359 125.654,303.681C124.391,301.007 122.947,299.244 121.425,299.244C116.375,299.244 112.296,318.299 112.296,326.715" style="fill:rgb(166,189,230);fill-rule:nonzero;"/><path id="path220" d="M141.068,329.836C141.068,336.024 136.959,341.039 131.887,341.039C126.818,341.039 122.708,336.024 122.708,329.836C122.708,323.619 126.818,309.635 131.887,309.635C136.959,309.635 141.068,323.619 141.068,329.836" style="fill:rgb(139,157,215);fill-rule:nonzero;"/><path id="path222" d="M123.67,329.836C123.67,323.135 128.029,310.561 131.887,310.561C135.756,310.561 140.107,323.135 140.107,329.836C140.107,335.505 136.423,340.109 131.887,340.109C127.357,340.109 123.67,335.505 123.67,329.836ZM121.746,329.836C121.746,336.525 126.299,341.966 131.887,341.966C137.485,341.966 142.028,336.525 142.028,329.836C142.028,323.744 137.988,308.708 131.887,308.708C125.79,308.708 121.746,323.744 121.746,329.836" style="fill:rgb(54,50,84);fill-rule:nonzero;"/><path id="path224" d="M126.569,326.141C126.104,321.723 130.407,314.397 133.759,313.868C134.075,313.817 134.396,313.892 134.72,314.013C133.736,312.74 132.624,311.731 131.671,312.132C128.349,313.559 126.104,321.737 126.569,326.141" style="fill:rgb(166,189,230);fill-rule:nonzero;"/><g id="g226" transform="matrix(0.133333,0,0,-0.133333,0,462.547)"><g id="g228"><clipPath id="_clip-hsvkw9i"><path d="M2229.92,1718.48L2229.92,1089.6C2229.92,957.488 2098.8,910.07 1937.11,910.07C1775.4,910.07 1644.36,957.488 1644.36,1089.6L1644.36,1450.93"/></clipPath><g clip-path="url(#_clip-hsvkw9i)"><path id="path240" d="M2229.92,1718.48L2229.92,1089.6C2229.92,957.488 2098.8,910.07 1937.11,910.07C1775.4,910.07 1644.36,957.488 1644.36,1089.6L1644.36,1450.93" style="fill:url(#_Linear-ef2wmfq);fill-rule:nonzero;"/></g></g></g><path id="path242" d="M294.435,233.416L294.435,317.267C294.435,334.753 274.773,338.421 258.281,338.421C241.793,338.421 222.133,334.753 222.133,317.267L222.133,269.089C222.133,267.553 220.841,266.305 219.248,266.305C217.656,266.305 216.364,267.553 216.364,269.089L216.364,317.267C216.364,334.497 231.251,343.989 258.281,343.989C285.315,343.989 300.204,334.497 300.204,317.267L300.204,233.416C300.204,231.879 298.915,230.636 297.323,230.636C295.728,230.636 294.435,231.879 294.435,233.416" style="fill:rgb(54,50,84);fill-rule:nonzero;"/><path id="path244" d="M243.805,322.2C243.805,328.823 238.291,334.196 231.485,334.196C224.68,334.196 219.167,328.823 219.167,322.2C219.167,315.565 224.68,300.587 231.485,300.587C238.291,300.587 243.805,315.565 243.805,322.2" style="fill:rgb(139,157,215);fill-rule:nonzero;"/><path id="path246" d="M220.129,322.2C220.129,315.737 225.619,301.517 231.485,301.517C237.355,301.517 242.845,315.737 242.845,322.2C242.845,328.304 237.748,333.273 231.485,333.273C225.224,333.273 220.129,328.304 220.129,322.2ZM218.205,322.2C218.205,329.328 224.161,335.128 231.485,335.128C238.809,335.128 244.767,329.328 244.767,322.2C244.767,315.477 239.16,299.66 231.485,299.66C223.813,299.66 218.205,315.477 218.205,322.2" style="fill:rgb(54,50,84);fill-rule:nonzero;"/><path id="path248" d="M221.269,322.989C221.269,317.057 228.165,306.397 233.213,306.397C233.695,306.397 234.16,306.548 234.627,306.777C233.357,304.903 231.923,303.656 230.397,303.656C225.349,303.656 221.269,317.065 221.269,322.989" style="fill:rgb(166,189,230);fill-rule:nonzero;"/><path id="path250" d="M253.843,323.135C253.843,331.88 248.135,338.99 241.085,338.99C234.031,338.99 228.323,331.88 228.323,323.135C228.323,314.383 234.031,294.624 241.085,294.624C248.135,294.624 253.843,314.383 253.843,323.135" style="fill:rgb(139,157,215);fill-rule:nonzero;"/><path id="path252" d="M229.284,323.135C229.284,314.515 234.989,295.549 241.085,295.549C247.18,295.549 252.88,314.515 252.88,323.135C252.88,331.364 247.588,338.063 241.085,338.063C234.576,338.063 229.284,331.364 229.284,323.135ZM227.361,323.135C227.361,332.388 233.517,339.915 241.085,339.915C248.649,339.915 254.803,332.388 254.803,323.135C254.803,314.353 249.012,293.692 241.085,293.692C233.155,293.692 227.361,314.353 227.361,323.135" style="fill:rgb(54,50,84);fill-rule:nonzero;"/><path id="path254" d="M231.764,324.724C231.764,316.297 238.668,301.151 243.707,301.151C244.189,301.151 244.661,301.368 245.121,301.689C243.86,299.015 242.417,297.256 240.891,297.256C235.843,297.256 231.764,316.304 231.764,324.724" style="fill:rgb(166,189,230);fill-rule:nonzero;"/><path id="path256" d="M260.533,327.843C260.533,334.033 256.425,339.048 251.356,339.048C246.287,339.048 242.176,334.033 242.176,327.843C242.176,321.628 246.287,307.64 251.356,307.64C256.425,307.64 260.533,321.628 260.533,327.843" style="fill:rgb(139,157,215);fill-rule:nonzero;"/><path id="path258" d="M243.136,327.843C243.136,321.143 247.491,308.572 251.356,308.572C255.22,308.572 259.575,321.143 259.575,327.843C259.575,333.511 255.884,338.12 251.356,338.12C246.825,338.12 243.136,333.511 243.136,327.843ZM241.213,327.843C241.213,334.535 245.761,339.973 251.356,339.973C256.948,339.973 261.495,334.535 261.495,327.843C261.495,321.753 257.455,306.715 251.356,306.715C245.255,306.715 241.213,321.753 241.213,327.843" style="fill:rgb(54,50,84);fill-rule:nonzero;"/><path id="path260" d="M246.037,324.151C245.573,319.731 249.875,312.408 253.227,311.877C253.541,311.828 253.864,311.897 254.188,312.023C253.201,310.747 252.092,309.744 251.139,310.137C247.816,311.564 245.573,319.745 246.037,324.151" style="fill:rgb(166,189,230);fill-rule:nonzero;"/><path id="path262" d="M27.342,160.295C26.323,161.679 26.683,163.581 28.151,164.549C29.614,165.516 31.63,165.171 32.647,163.791C38.448,155.909 51.494,153.737 57.697,155.976C58.933,156.424 60.495,156.229 61.178,155.532C61.86,154.844 61.414,153.919 60.175,153.472C51.682,150.403 35.022,149.847 27.342,160.295" style="fill:rgb(54,50,84);fill-rule:nonzero;"/><path id="path264" d="M52.482,194.939C47.125,196.068 42.403,193.071 41.938,188.247C41.475,183.415 45.446,178.587 50.804,177.447C56.167,176.313 60.888,179.303 61.356,184.137C61.816,188.968 57.846,193.795 52.482,194.939ZM63.559,183.493C63.022,177.864 57.445,174.4 51.089,175.737C44.74,177.081 40.024,182.719 40.557,188.34C41.092,193.959 46.671,197.432 53.02,196.1C59.376,194.752 64.094,189.116 63.559,183.493" style="fill:rgb(54,50,84);fill-rule:nonzero;"/><path id="path266" d="M61.017,184.527C61.424,188.773 57.951,193.027 53.26,194.019C48.55,195.021 44.42,192.379 44.001,188.132C43.597,183.885 47.071,179.636 51.764,178.643C56.469,177.643 60.61,180.276 61.017,184.527" style="fill:rgb(252,252,252);fill-rule:nonzero;"/><path id="path268" d="M60.33,184.569C59.059,181.333 55.686,179.457 52.825,180.359C51.292,180.833 50.241,182.019 49.752,183.5L53.751,185.479L50.077,188.131C51.438,191.183 54.658,192.935 57.437,192.064C60.31,191.152 61.599,187.804 60.33,184.569" style="fill:rgb(54,50,84);fill-rule:nonzero;"/><path id="path270" d="M57.385,183.183C58.097,183.08 58.935,183.941 59.24,185.137C59.547,186.319 59.217,187.369 58.489,187.481C57.769,187.589 56.933,186.721 56.625,185.529C56.325,184.349 56.663,183.301 57.385,183.183" style="fill:white;fill-rule:nonzero;"/><path id="path272" d="M45.752,178.305C40.738,182.175 39.153,187.795 42.541,190.98C42.247,190.855 42.886,191.673 42.616,191.521C37.282,188.564 36.391,179.783 41.301,174.616C45.516,170.176 58.165,166.884 58.071,168.596C57.549,170.56 53.846,173.053 49.248,175.763C47.768,176.604 46.701,177.575 45.752,178.305" style="fill:rgb(54,50,84);fill-rule:nonzero;"/><path id="path274" d="M128.138,232.844C127.88,234.161 128.771,235.243 130.115,235.243L137.84,235.243C139.187,235.243 140.495,234.161 140.755,232.844L142.812,222.241C143.071,220.921 144.376,219.843 145.724,219.843L154.084,219.843C158.852,219.843 162.775,219.341 165.851,218.337C168.933,217.339 171.728,215.656 174.252,213.297C176.361,211.356 178.076,209.213 179.383,206.865C180.689,204.525 181.623,201.939 182.169,199.109C183.505,192.245 182.191,187.139 179.153,183.06C175.339,177.953 165.604,177.683 165.604,177.683C164.273,177.483 162.087,177.312 160.741,177.312L141.372,177.312C140.028,177.312 138.72,178.395 138.46,179.716L128.138,232.844ZM158.405,186.455C163.201,186.455 166.392,187.341 167.991,189.111C169.585,190.88 169.968,193.92 169.135,198.223C168.259,202.707 166.579,205.911 164.091,207.827C161.603,209.741 155.16,210.435 155.16,210.435C153.82,210.581 151.625,210.7 150.283,210.7L147.501,210.7C146.157,210.7 145.263,209.619 145.521,208.3L149.3,188.857C149.556,187.537 150.867,186.455 152.209,186.455L158.405,186.455" style="fill:rgb(54,50,84);fill-rule:nonzero;"/><path id="path276" d="M128.138,232.844C127.88,234.161 128.771,235.243 130.115,235.243L137.84,235.243C139.187,235.243 140.495,234.161 140.755,232.844L142.812,222.241C143.071,220.921 144.376,219.843 145.724,219.843L154.084,219.843C158.852,219.843 162.775,219.341 165.851,218.337C168.933,217.339 171.728,215.656 174.252,213.297C176.361,211.356 178.076,209.213 179.383,206.865C180.689,204.525 181.623,201.939 182.169,199.109C183.505,192.245 182.191,187.139 179.153,183.06C175.339,177.953 165.604,177.683 165.604,177.683C164.273,177.483 162.087,177.312 160.741,177.312L141.372,177.312C140.028,177.312 138.72,178.395 138.46,179.716L128.138,232.844ZM158.405,186.455C163.201,186.455 166.392,187.341 167.991,189.111C169.585,190.88 169.968,193.92 169.135,198.223C168.259,202.707 166.579,205.911 164.091,207.827C161.603,209.741 155.16,210.435 155.16,210.435C153.82,210.581 151.625,210.7 150.283,210.7L147.501,210.7C146.157,210.7 145.263,209.619 145.521,208.3L149.3,188.857C149.556,187.537 150.867,186.455 152.209,186.455L158.405,186.455Z" style="fill:none;fill-rule:nonzero;stroke:white;stroke-width:5.33px;"/><path id="path278" d="M194.339,164.313C194.595,162.996 195.903,161.916 197.247,161.916L204.875,161.916C206.221,161.916 207.111,162.996 206.852,164.313L204.793,174.916C204.536,176.237 205.432,177.312 206.773,177.312L213.031,177.312C214.375,177.312 216.571,177.428 217.907,177.565C217.907,177.565 227.032,177.672 229.993,180.987C232.405,183.685 233.453,187.403 232.388,192.884L227.62,217.443C227.365,218.763 226.053,219.843 224.708,219.843L216.884,219.843C215.539,219.843 214.647,218.763 214.904,217.443L218.955,196.609C219.211,195.291 219.499,193.113 219.597,191.769C219.597,191.769 219.777,189.304 218.792,188.247C217.811,187.185 215.715,186.657 212.512,186.657L204.955,186.657C203.608,186.657 202.304,187.735 202.043,189.055L196.532,217.443C196.275,218.763 194.967,219.843 193.621,219.843L185.992,219.843C184.647,219.843 183.757,218.763 184.013,217.443L194.339,164.313" style="fill:rgb(54,50,84);fill-rule:nonzero;"/><path id="path280" d="M194.339,164.313C194.595,162.996 195.903,161.916 197.247,161.916L204.875,161.916C206.221,161.916 207.111,162.996 206.852,164.313L204.793,174.916C204.536,176.237 205.432,177.312 206.773,177.312L213.031,177.312C214.375,177.312 216.571,177.428 217.907,177.565C217.907,177.565 227.032,177.672 229.993,180.987C232.405,183.685 233.453,187.403 232.388,192.884L227.62,217.443C227.365,218.763 226.053,219.843 224.708,219.843L216.884,219.843C215.539,219.843 214.647,218.763 214.904,217.443L218.955,196.609C219.211,195.291 219.499,193.113 219.597,191.769C219.597,191.769 219.777,189.304 218.792,188.247C217.811,187.185 215.715,186.657 212.512,186.657L204.955,186.657C203.608,186.657 202.304,187.735 202.043,189.055L196.532,217.443C196.275,218.763 194.967,219.843 193.621,219.843L185.992,219.843C184.647,219.843 183.757,218.763 184.013,217.443L194.339,164.313Z" style="fill:none;fill-rule:nonzero;stroke:white;stroke-width:5.33px;"/><path id="path282" d="M233.031,232.844C232.772,234.161 233.664,235.243 235.011,235.243L242.735,235.243C244.076,235.243 245.391,234.161 245.645,232.844L247.704,222.241C247.961,220.921 249.272,219.843 250.613,219.843L258.977,219.843C263.744,219.843 267.664,219.341 270.748,218.337C273.821,217.339 276.621,215.656 279.141,213.297C281.257,211.356 282.964,209.213 284.275,206.865C285.583,204.525 286.512,201.939 287.063,199.109C288.397,192.245 287.189,187.06 284.044,183.06C280.141,178.095 270.493,177.683 270.493,177.683C269.163,177.483 266.975,177.312 265.631,177.312L246.261,177.312C244.919,177.312 243.607,178.395 243.352,179.716L233.031,232.844ZM263.301,186.455C268.092,186.455 271.285,187.341 272.887,189.111C274.477,190.88 274.859,193.92 274.024,198.223C273.149,202.707 271.476,205.911 268.984,207.827C266.492,209.741 260.049,210.435 260.049,210.435C258.715,210.581 256.521,210.7 255.173,210.7L252.389,210.7C251.043,210.7 250.157,209.619 250.412,208.3L254.188,188.857C254.447,187.537 255.756,186.455 257.1,186.455L263.301,186.455" style="fill:rgb(54,50,84);fill-rule:nonzero;"/><path id="path284" d="M233.031,232.844C232.772,234.161 233.664,235.243 235.011,235.243L242.735,235.243C244.076,235.243 245.391,234.161 245.645,232.844L247.704,222.241C247.961,220.921 249.272,219.843 250.613,219.843L258.977,219.843C263.744,219.843 267.664,219.341 270.748,218.337C273.821,217.339 276.621,215.656 279.141,213.297C281.257,211.356 282.964,209.213 284.275,206.865C285.583,204.525 286.512,201.939 287.063,199.109C288.397,192.245 287.189,187.06 284.044,183.06C280.141,178.095 270.493,177.683 270.493,177.683C269.163,177.483 266.975,177.312 265.631,177.312L246.261,177.312C244.919,177.312 243.607,178.395 243.352,179.716L233.031,232.844ZM263.301,186.455C268.092,186.455 271.285,187.341 272.887,189.111C274.477,190.88 274.859,193.92 274.024,198.223C273.149,202.707 271.476,205.911 268.984,207.827C266.492,209.741 260.049,210.435 260.049,210.435C258.715,210.581 256.521,210.7 255.173,210.7L252.389,210.7C251.043,210.7 250.157,209.619 250.412,208.3L254.188,188.857C254.447,187.537 255.756,186.455 257.1,186.455L263.301,186.455Z" style="fill:none;fill-rule:nonzero;stroke:white;stroke-width:5.33px;"/><path id="path286" d="M128.138,232.844C127.88,234.161 128.771,235.243 130.115,235.243L137.84,235.243C139.187,235.243 140.495,234.161 140.755,232.844L142.812,222.241C143.071,220.921 144.376,219.843 145.724,219.843L154.084,219.843C158.852,219.843 162.775,219.341 165.851,218.337C168.933,217.339 171.728,215.656 174.252,213.297C176.361,211.356 178.076,209.213 179.383,206.865C180.689,204.525 181.623,201.939 182.169,199.109C183.505,192.245 182.191,187.139 179.153,183.06C175.339,177.953 165.604,177.683 165.604,177.683C164.273,177.483 162.087,177.312 160.741,177.312L141.372,177.312C140.028,177.312 138.72,178.395 138.46,179.716L128.138,232.844ZM158.405,186.455C163.201,186.455 166.392,187.341 167.991,189.111C169.585,190.88 169.968,193.92 169.135,198.223C168.259,202.707 166.579,205.911 164.091,207.827C161.603,209.741 155.16,210.435 155.16,210.435C153.82,210.581 151.625,210.7 150.283,210.7L147.501,210.7C146.157,210.7 145.263,209.619 145.521,208.3L149.3,188.857C149.556,187.537 150.867,186.455 152.209,186.455L158.405,186.455" style="fill:rgb(54,50,84);fill-rule:nonzero;"/><path id="path288" d="M194.339,164.313C194.595,162.996 195.903,161.916 197.247,161.916L204.875,161.916C206.221,161.916 207.111,162.996 206.852,164.313L204.793,174.916C204.536,176.237 205.432,177.312 206.773,177.312L213.031,177.312C214.375,177.312 216.571,177.428 217.907,177.565C217.907,177.565 227.032,177.672 229.993,180.987C232.405,183.685 233.453,187.403 232.388,192.884L227.62,217.443C227.365,218.763 226.053,219.843 224.708,219.843L216.884,219.843C215.539,219.843 214.647,218.763 214.904,217.443L218.955,196.609C219.211,195.291 219.499,193.113 219.597,191.769C219.597,191.769 219.777,189.304 218.792,188.247C217.811,187.185 215.715,186.657 212.512,186.657L204.955,186.657C203.608,186.657 202.304,187.735 202.043,189.055L196.532,217.443C196.275,218.763 194.967,219.843 193.621,219.843L185.992,219.843C184.647,219.843 183.757,218.763 184.013,217.443L194.339,164.313" style="fill:rgb(54,50,84);fill-rule:nonzero;"/><path id="path290" d="M233.031,232.844C232.772,234.161 233.664,235.243 235.011,235.243L242.735,235.243C244.076,235.243 245.391,234.161 245.645,232.844L247.704,222.241C247.961,220.921 249.272,219.843 250.613,219.843L258.977,219.843C263.744,219.843 267.664,219.341 270.748,218.337C273.821,217.339 276.621,215.656 279.141,213.297C281.257,211.356 282.964,209.213 284.275,206.865C285.583,204.525 286.512,201.939 287.063,199.109C288.397,192.245 287.189,187.06 284.044,183.06C280.141,178.095 270.493,177.683 270.493,177.683C269.163,177.483 266.975,177.312 265.631,177.312L246.261,177.312C244.919,177.312 243.607,178.395 243.352,179.716L233.031,232.844ZM263.301,186.455C268.092,186.455 271.285,187.341 272.887,189.111C274.477,190.88 274.859,193.92 274.024,198.223C273.149,202.707 271.476,205.911 268.984,207.827C266.492,209.741 260.049,210.435 260.049,210.435C258.715,210.581 256.521,210.7 255.173,210.7L252.389,210.7C251.043,210.7 250.157,209.619 250.412,208.3L254.188,188.857C254.447,187.537 255.756,186.455 257.1,186.455L263.301,186.455" style="fill:rgb(54,50,84);fill-rule:nonzero;"/><g id="g292" transform="matrix(0.133333,0,0,-0.133333,0,462.547)"><g id="g294"><clipPath id="_clip-qp54m5i"><path d="M571.879,2500.55C571.879,2500.55 743.406,2618.48 851.746,2658.9C886.277,2671.79 1135.42,2737.61 1175.81,2307.41C1197.89,2071.86 1158.13,1909.17 964.98,1879.7C849.391,1862.04 867.289,1775.89 867.289,1775.89"/></clipPath><g clip-path="url(#_clip-qp54m5i)"><path id="path306" d="M571.879,2500.55C571.879,2500.55 743.406,2618.48 851.746,2658.9C886.277,2671.79 1135.42,2737.61 1175.81,2307.41C1197.89,2071.86 1158.13,1909.17 964.98,1879.7C849.391,1862.04 867.289,1775.89 867.289,1775.89" style="fill:url(#_Linear-f1zf47n);fill-rule:nonzero;"/></g></g></g><path id="path308" d="M112.522,105.432C97.909,110.887 75.523,126.223 74.575,126.875C73.28,127.765 72.977,129.504 73.903,130.753C74.826,132.004 76.63,132.295 77.925,131.403C78.151,131.252 100.668,115.823 114.602,110.62C115.037,110.46 125.292,106.748 135.135,112.643C145.381,118.783 151.869,133.476 153.907,155.144C157.151,189.773 149.467,205.928 128.215,209.175C122.19,210.092 117.804,212.404 115.175,216.053C111.722,220.831 112.763,226.088 112.811,226.311C113.125,227.805 114.625,228.769 116.18,228.483C117.736,228.197 118.757,226.74 118.472,225.237C118.465,225.211 117.891,221.973 119.951,219.173C121.658,216.855 124.74,215.337 129.116,214.667C160.712,209.845 162.033,180.055 159.653,154.641C157.415,130.829 150.185,115.108 138.18,107.917C126.127,100.697 113.882,104.925 112.522,105.432" style="fill:rgb(54,50,84);fill-rule:nonzero;"/><g id="g310" transform="matrix(0.133333,0,0,-0.133333,0,462.547)"><g id="g312"><clipPath id="_clip-ny3vka1"><path d="M747.344,2531.75C941.555,2653.2 1049.37,2591.1 1049.37,2591.1C964.926,2668.31 869.934,2642.72 848.926,2634.84C740.957,2594.42 532.441,2445.04 532.441,2445.04C532.441,2445.04 504.246,2395.03 560.43,2405.88C560.43,2405.88 682.641,2491.26 747.344,2531.75Z"/></clipPath><g clip-path="url(#_clip-ny3vka1)"><path id="path324" d="M747.344,2531.75C941.555,2653.2 1049.37,2591.1 1049.37,2591.1C964.926,2668.31 869.934,2642.72 848.926,2634.84C740.957,2594.42 532.441,2445.04 532.441,2445.04C532.441,2445.04 504.246,2395.03 560.43,2405.88C560.43,2405.88 682.641,2491.26 747.344,2531.75" style="fill:url(#_Linear-djlj8c9);fill-rule:nonzero;"/></g></g></g><path id="path326" d="M90.302,201.395C90.077,214.541 85.724,226.513 78.935,232.62C75.855,235.395 72.419,236.768 68.99,236.6C67.932,236.543 67.03,237.328 66.969,238.351C66.919,239.377 67.732,240.247 68.794,240.3C73.286,240.527 77.698,238.809 81.56,235.333C89.085,228.56 93.907,215.579 94.146,201.449C94.167,200.431 93.322,199.584 92.259,199.568C91.195,199.553 90.321,200.371 90.302,201.395" style="fill:rgb(54,50,84);fill-rule:nonzero;"/><path id="path328" d="M98.631,192.007C97.183,195.328 94.652,197.444 91.681,197.797C88.784,198.139 85.842,196.784 83.806,194.169C83.172,193.352 81.963,193.184 81.114,193.8C80.266,194.413 80.092,195.576 80.731,196.393C83.604,200.088 87.875,201.988 92.153,201.481C96.529,200.953 100.179,198.024 102.179,193.441C102.589,192.496 102.125,191.417 101.149,191.016C100.168,190.62 99.046,191.064 98.631,192.007" style="fill:rgb(54,50,84);fill-rule:nonzero;"/></g><defs><linearGradient id="_Linear-clsf9x9" x1="0" y1="0" x2="1" y2="-0.00784588" gradientUnits="userSpaceOnUse" gradientTransform="matrix(870.829,-648.982,648.982,870.829,1062.31,2048.82)"><stop offset="0" style="stop-color:rgb(140,155,214);stop-opacity:1"/><stop offset="1" style="stop-color:rgb(80,94,155);stop-opacity:1"/></linearGradient><linearGradient id="_Linear-phynqls" x1="0" y1="0" x2="1" y2="-0.00784588" gradientUnits="userSpaceOnUse" gradientTransform="matrix(878.069,-654.378,654.378,878.069,1631.85,2795.24)"><stop offset="0" style="stop-color:rgb(128,143,208);stop-opacity:1"/><stop offset="1" style="stop-color:rgb(80,94,155);stop-opacity:1"/></linearGradient><linearGradient id="_Linear-joyi5dq" x1="0" y1="0" x2="1" y2="-0.00784588" gradientUnits="userSpaceOnUse" gradientTransform="matrix(867.01,-646.136,646.136,867.01,668.276,1535.96)"><stop offset="0" style="stop-color:rgb(140,155,214);stop-opacity:1"/><stop offset="1" style="stop-color:rgb(80,94,155);stop-opacity:1"/></linearGradient><linearGradient id="_Linear-2gammj9" x1="0" y1="0" x2="1" y2="-0.00784588" gradientUnits="userSpaceOnUse" gradientTransform="matrix(867.001,-646.13,646.13,867.001,994.502,1953.79)"><stop offset="0" style="stop-color:rgb(140,155,214);stop-opacity:1"/><stop offset="1" style="stop-color:rgb(80,94,155);stop-opacity:1"/></linearGradient><linearGradient id="_Linear-8vsvdft" x1="0" y1="0" x2="1" y2="-0.00784588" gradientUnits="userSpaceOnUse" gradientTransform="matrix(841.599,-627.199,627.199,841.599,1039.39,2029.86)"><stop offset="0" style="stop-color:rgb(128,143,208);stop-opacity:1"/><stop offset="1" style="stop-color:rgb(80,94,155);stop-opacity:1"/></linearGradient><linearGradient id="_Linear-jjqg6q1" x1="0" y1="0" x2="1" y2="-0.00784588" gradientUnits="userSpaceOnUse" gradientTransform="matrix(875.231,-652.263,652.263,875.231,894.629,1822.24)"><stop offset="0" style="stop-color:rgb(140,155,214);stop-opacity:1"/><stop offset="1" style="stop-color:rgb(80,94,155);stop-opacity:1"/></linearGradient><linearGradient id="_Linear-m705bmy" x1="0" y1="0" x2="1" y2="-0.00759892" gradientUnits="userSpaceOnUse" gradientTransform="matrix(579.497,-844.587,844.587,579.497,-304.165,2038.99)"><stop offset="0" style="stop-color:rgb(250,250,253);stop-opacity:1"/><stop offset="1" style="stop-color:rgb(136,146,210);stop-opacity:1"/></linearGradient><linearGradient id="_Linear-3sqjrt4" x1="0" y1="0" x2="1" y2="-0.00759892" gradientUnits="userSpaceOnUse" gradientTransform="matrix(675.246,-984.137,984.137,675.246,649.966,2737.72)"><stop offset="0" style="stop-color:rgb(250,250,253);stop-opacity:1"/><stop offset="1" style="stop-color:rgb(136,146,210);stop-opacity:1"/></linearGradient><linearGradient id="_Linear-o36qy24" x1="0" y1="0" x2="1" y2="-0.00784588" gradientUnits="userSpaceOnUse" gradientTransform="matrix(866.559,-645.8,645.8,866.559,654.526,1514.45)"><stop offset="0" style="stop-color:rgb(140,155,214);stop-opacity:1"/><stop offset="1" style="stop-color:rgb(80,94,155);stop-opacity:1"/></linearGradient><linearGradient id="_Linear-ef2wmfq" x1="0" y1="0" x2="1" y2="-0.00784588" gradientUnits="userSpaceOnUse" gradientTransform="matrix(869.571,-648.045,648.045,869.571,1046.59,2028.58)"><stop offset="0" style="stop-color:rgb(140,155,214);stop-opacity:1"/><stop offset="1" style="stop-color:rgb(80,94,155);stop-opacity:1"/></linearGradient><linearGradient id="_Linear-f1zf47n" x1="0" y1="0" x2="1" y2="-0.00784588" gradientUnits="userSpaceOnUse" gradientTransform="matrix(868.236,-647.05,647.05,868.236,1098.5,2096.02)"><stop offset="0" style="stop-color:rgb(140,155,214);stop-opacity:1"/><stop offset="1" style="stop-color:rgb(80,94,155);stop-opacity:1"/></linearGradient><linearGradient id="_Linear-djlj8c9" x1="0" y1="0" x2="1" y2="-0.00759891" gradientUnits="userSpaceOnUse" gradientTransform="matrix(690.106,-1005.8,1005.8,690.106,633.604,2727.32)"><stop offset="0" style="stop-color:rgb(250,250,253);stop-opacity:1"/><stop offset="1" style="stop-color:rgb(136,146,210);stop-opacity:1"/></linearGradient></defs></svg>