<svg width="100%" height="100%" viewBox="0 0 18 16" version="1.1" xmlns="http://www.w3.org/2000/svg" xmlns:xlink="http://www.w3.org/1999/xlink" xml:space="preserve" style="fill-rule:evenodd;clip-rule:evenodd;stroke-linejoin:round;stroke-miterlimit:2;"><g id="phpcsfixer" transform="matrix(1.13392,0,0,1.13392,-1.50678,-1.06605)"><g><path d="M5.421,12.435C5.384,12.511 5.344,12.61 5.336,12.69C5.321,12.848 5.45,12.867 5.534,12.874C5.607,12.881 6.086,13.019 6.086,13.019C6.086,13.019 5.883,13.023 5.691,12.986L5.351,12.92C5.351,12.92 5.435,13.05 5.5,13.078C5.564,13.105 5.824,13.124 5.922,13.131L6.182,13.15C6.182,13.15 5.959,13.183 5.816,13.181C5.674,13.18 5.485,13.139 5.485,13.139L5.467,13.16C5.467,13.16 5.576,13.282 5.674,13.288L5.937,13.306L5.891,13.337L6.379,13.341L6.352,13.372C6.352,13.372 6.015,13.401 5.938,13.399L5.752,13.395C5.752,13.395 5.87,13.445 6.137,13.433C6.403,13.422 6.48,13.386 6.48,13.386L6.792,13.387L6.789,13.42L6.331,13.534L6.243,13.577L6.29,13.59L6.374,13.584C6.374,13.584 6.445,13.539 6.568,13.522C6.691,13.504 6.78,13.525 6.78,13.525C6.78,13.525 6.622,13.564 6.546,13.593C6.47,13.621 6.409,13.684 6.409,13.684L6.438,13.701C6.438,13.701 6.484,13.682 6.637,13.623C6.79,13.565 6.868,13.56 6.942,13.574L7.109,13.606L7.167,13.589C7.167,13.589 7.252,13.448 7.498,13.406C7.503,13.405 7.508,13.404 7.514,13.403L7.481,13.376C7.481,13.376 7.595,13.362 7.726,13.374C7.825,13.383 7.877,13.397 7.93,13.413L7.995,13.432L7.996,13.428C7.982,13.415 7.949,13.386 7.902,13.366C7.868,13.359 7.825,13.352 7.773,13.346C7.758,13.344 7.743,13.343 7.73,13.342C7.691,13.341 7.653,13.34 7.62,13.34C7.566,13.343 7.54,13.351 7.54,13.351C7.54,13.351 7.55,13.347 7.566,13.34C7.542,13.339 7.527,13.339 7.527,13.339L7.449,13.293L7.442,13.294L7.442,13.289L7.441,13.288L7.436,13.219C7.436,13.219 7.469,13.219 7.518,13.217C7.608,13.209 7.76,13.194 7.871,13.173C8.071,13.119 8.171,13.02 8.19,12.999L8.19,12.997C8.173,13.005 8.1,13.042 8.013,13.074C7.971,13.093 7.921,13.112 7.87,13.123C7.74,13.15 7.624,13.131 7.624,13.131L7.628,13.12C7.604,13.106 7.607,13.086 7.607,13.086C7.607,13.086 7.677,13.081 7.775,13.063C7.859,13.041 7.968,13.01 8.066,12.976C8.076,12.973 8.086,12.969 8.096,12.965C8.224,12.894 8.296,12.785 8.312,12.76L8.312,12.757C8.294,12.773 8.199,12.848 8.091,12.898C8.004,12.938 7.905,12.946 7.844,12.962C7.774,12.979 7.731,12.98 7.704,12.975C7.682,12.978 7.67,12.979 7.67,12.979L7.681,12.968C7.669,12.963 7.666,12.958 7.666,12.958L8.062,12.734C8.175,12.671 8.315,12.554 8.415,12.466L8.4,12.296C8.323,12.373 8.21,12.481 8.106,12.559C7.928,12.693 7.855,12.723 7.78,12.745C7.767,12.751 7.756,12.755 7.745,12.758C7.689,12.775 7.688,12.753 7.688,12.753L7.687,12.734C7.685,12.732 7.684,12.73 7.684,12.73L7.687,12.729L7.686,12.718C7.686,12.718 7.847,12.633 8.001,12.535C8.116,12.453 8.28,12.325 8.383,12.244C8.399,12.229 8.407,12.221 8.407,12.221L8.418,12.205L8.102,12.405L8.455,12.103L8.459,12.059L8.422,11.998L8.425,11.876L8.514,11.753L8.533,11.713L8.525,11.655L8.49,11.617L8.49,11.613C8.425,11.697 8.344,11.797 8.304,11.827C8.232,11.882 8.039,12.025 7.746,12.135C7.453,12.245 7.357,12.217 7.357,12.217L7.709,11.99C7.903,11.865 8.206,11.619 8.206,11.619L8.225,11.563C8.225,11.563 8.092,11.672 7.815,11.805C7.537,11.939 7.295,12.026 7.295,12.026L7.509,11.733L7.484,11.697L7.184,11.891L6.915,11.87L7.103,12.073L6.507,12.052C6.507,12.052 6.639,12.128 6.839,12.168C7.04,12.208 7.176,12.232 7.176,12.232L7.179,12.435C7.179,12.435 6.857,12.403 6.42,12.265C6.201,12.196 5.89,12.081 5.634,11.982C5.55,12.091 5.447,12.172 5.447,12.172L5.482,12.2L5.842,12.349L5.813,12.372L5.539,12.295L5.525,12.299C5.647,12.351 5.772,12.402 5.863,12.433C6.114,12.518 6.37,12.581 6.37,12.581C6.37,12.581 6.226,12.611 5.89,12.547C5.705,12.511 5.535,12.467 5.421,12.435Z" style="fill:rgb(94,85,78);"/><path d="M8.489,11.245L8.486,11.185L8.449,11.137C8.449,11.137 8.437,11.066 8.363,10.851C8.289,10.636 8.219,10.545 8.219,10.545L7.999,10.758L7.947,10.757L7.955,10.711L8.127,10.438L8.131,10.25L7.612,10.558C7.612,10.558 7.56,10.579 7.548,10.566C7.537,10.553 7.585,10.507 7.585,10.507L8.1,10.14L8.105,10.083C8.105,10.083 7.946,9.808 7.794,9.534L7.139,9.913L7.106,9.964C7.106,9.964 7.228,9.992 7.406,9.922C7.583,9.853 7.676,9.784 7.676,9.784L7.698,9.801C7.698,9.801 7.623,9.891 7.532,9.933C7.44,9.974 7.127,10.097 6.984,10.12C6.841,10.142 6.767,10.136 6.564,10.11C6.361,10.084 6.239,10.028 6.239,10.028L6.261,10.021C6.261,10.021 6.505,10.065 6.686,10.068C6.867,10.071 6.894,10.044 6.894,10.044L6.883,10.013L6.633,9.981C6.468,9.96 6.314,9.916 6.121,9.842C6.039,9.811 5.913,9.749 5.796,9.688L5.792,9.732L5.926,9.843L5.93,9.872L5.89,9.873L5.747,9.779C5.747,9.779 5.656,9.945 5.655,10.109C5.654,10.273 5.727,10.338 5.791,10.394C5.856,10.451 6.337,10.647 6.337,10.647L6.428,10.7L6.357,10.707C6.357,10.707 6.108,10.635 5.935,10.566L5.619,10.44L5.613,10.696C5.613,10.696 5.771,10.769 5.824,10.794L5.97,10.86L5.911,10.875L5.862,10.86L5.635,10.783L5.6,10.79C5.6,10.79 5.726,11.016 5.745,11.176C5.764,11.336 5.684,11.418 5.684,11.454C5.684,11.49 5.811,11.573 6.136,11.69C6.461,11.807 6.7,11.867 6.7,11.867L6.678,11.907C6.678,11.907 6.552,11.898 6.238,11.818L5.816,11.711L5.784,11.732C5.784,11.732 5.751,11.81 5.665,11.94C5.655,11.954 5.645,11.969 5.634,11.982C5.89,12.081 6.201,12.196 6.42,12.265C6.857,12.403 7.179,12.435 7.179,12.435L7.176,12.232C7.176,12.232 7.04,12.208 6.839,12.168C6.639,12.128 6.507,12.052 6.507,12.052L7.103,12.073L6.915,11.87L7.184,11.891L7.484,11.697L7.509,11.733L7.295,12.026C7.295,12.026 7.537,11.939 7.815,11.805C8.092,11.672 8.225,11.563 8.225,11.563L8.206,11.619C8.206,11.619 7.903,11.865 7.709,11.99L7.357,12.217C7.357,12.217 7.453,12.245 7.746,12.135C8.039,12.025 8.232,11.882 8.304,11.827C8.344,11.797 8.425,11.697 8.49,11.613L8.476,11.379L8.469,11.381L8.403,11.459L8.269,11.559L8.211,11.557L8.383,11.386C8.417,11.352 8.455,11.298 8.489,11.245Z" style="fill:url(#_Linear-fwqh29y);"/><path d="M7.109,13.606L7.167,13.589C7.167,13.589 7.252,13.448 7.498,13.406C7.503,13.405 7.508,13.404 7.514,13.403L7.481,13.376C7.481,13.376 7.595,13.362 7.726,13.374C7.825,13.383 7.877,13.397 7.93,13.413L7.995,13.432L7.996,13.428C7.982,13.415 7.949,13.386 7.902,13.366C7.868,13.359 7.825,13.352 7.773,13.346C7.758,13.344 7.743,13.343 7.73,13.342C7.691,13.341 7.653,13.34 7.62,13.34C7.566,13.343 7.54,13.351 7.54,13.351C7.54,13.351 7.55,13.347 7.566,13.34C7.542,13.339 7.527,13.339 7.527,13.339L7.449,13.293L7.442,13.294L7.442,13.289L7.441,13.288L7.436,13.219C7.436,13.219 7.469,13.219 7.518,13.217C7.608,13.209 7.76,13.194 7.871,13.173C8.071,13.119 8.171,13.02 8.19,12.999L8.19,12.997C8.173,13.005 8.1,13.042 8.013,13.074C7.971,13.093 7.921,13.112 7.87,13.123C7.74,13.15 7.624,13.131 7.624,13.131L7.628,13.12C7.604,13.106 7.607,13.086 7.607,13.086C7.607,13.086 7.677,13.081 7.775,13.063C7.859,13.041 7.968,13.01 8.066,12.976C8.076,12.973 8.086,12.969 8.096,12.965C8.224,12.894 8.296,12.785 8.312,12.76L8.312,12.757C8.294,12.773 8.199,12.848 8.091,12.898C8.004,12.938 7.905,12.946 7.844,12.962C7.774,12.979 7.731,12.98 7.704,12.975C7.682,12.978 7.67,12.979 7.67,12.979L7.681,12.968C7.669,12.963 7.666,12.958 7.666,12.958L8.062,12.734C8.175,12.671 8.315,12.554 8.415,12.466L8.4,12.296C8.323,12.373 8.21,12.481 8.106,12.559C7.928,12.693 7.855,12.723 7.78,12.745C7.767,12.751 7.756,12.755 7.745,12.758C7.689,12.775 7.688,12.753 7.688,12.753L7.687,12.734C7.685,12.732 7.684,12.73 7.684,12.73L7.687,12.729L7.686,12.718C7.686,12.718 7.847,12.633 8.001,12.535C8.116,12.453 8.28,12.325 8.383,12.244C8.399,12.229 8.407,12.221 8.407,12.221L8.418,12.205L8.102,12.405L8.455,12.103L8.459,12.059L8.422,11.998L8.425,11.876L8.514,11.753L8.533,11.713L8.525,11.655L8.49,11.617L8.49,11.613C8.425,11.697 8.344,11.797 8.304,11.827C8.232,11.882 8.039,12.025 7.746,12.135C7.453,12.245 7.357,12.217 7.357,12.217L7.709,11.99C7.903,11.865 8.206,11.619 8.206,11.619L8.225,11.563C8.225,11.563 8.092,11.672 7.815,11.805C7.537,11.939 7.295,12.026 7.295,12.026L7.509,11.733L7.484,11.697L7.22,11.868C7.228,12.104 7.239,12.489 7.228,12.742C7.219,12.965 7.158,13.334 7.109,13.606Z" style="fill:rgb(183,156,136);"/><path d="M7.22,11.868L7.184,11.891L6.915,11.87L7.103,12.073L6.507,12.052C6.507,12.052 6.639,12.128 6.839,12.168C7.04,12.208 7.176,12.232 7.176,12.232L7.179,12.435C7.179,12.435 6.857,12.403 6.42,12.265C6.201,12.196 5.89,12.081 5.634,11.982C5.55,12.091 5.447,12.172 5.447,12.172L5.482,12.2L5.842,12.349L5.813,12.372L5.539,12.295L5.525,12.299C5.647,12.351 5.772,12.402 5.863,12.433C6.114,12.518 6.37,12.581 6.37,12.581C6.37,12.581 6.226,12.611 5.89,12.547C5.705,12.511 5.535,12.467 5.421,12.435C5.384,12.511 5.344,12.61 5.336,12.69C5.321,12.848 5.45,12.867 5.534,12.874C5.607,12.881 6.086,13.019 6.086,13.019C6.086,13.019 5.883,13.023 5.691,12.986L5.351,12.92C5.351,12.92 5.435,13.05 5.5,13.078C5.564,13.105 5.824,13.124 5.922,13.131L6.182,13.15C6.182,13.15 5.959,13.183 5.816,13.181C5.674,13.18 5.485,13.139 5.485,13.139L5.467,13.16C5.467,13.16 5.576,13.282 5.674,13.288L5.937,13.306L5.891,13.337L6.379,13.341L6.352,13.372C6.352,13.372 6.015,13.401 5.938,13.399L5.752,13.395C5.752,13.395 5.87,13.445 6.137,13.433C6.403,13.422 6.48,13.386 6.48,13.386L6.792,13.387L6.789,13.42L6.331,13.534L6.243,13.577L6.29,13.59L6.374,13.584C6.374,13.584 6.445,13.539 6.568,13.522C6.691,13.504 6.78,13.525 6.78,13.525C6.78,13.525 6.622,13.564 6.546,13.593C6.47,13.621 6.409,13.684 6.409,13.684L6.438,13.701C6.438,13.701 6.484,13.682 6.637,13.623C6.79,13.565 6.868,13.56 6.942,13.574L7.109,13.606C7.158,13.334 7.219,12.965 7.228,12.742C7.239,12.489 7.228,12.104 7.22,11.868Z" style="fill:rgb(233,206,185);"/><path d="M6.926,10.128C6.944,10.126 6.963,10.123 6.984,10.12C7.127,10.097 7.44,9.974 7.532,9.933C7.623,9.891 7.698,9.801 7.698,9.801L7.676,9.784C7.676,9.784 7.583,9.853 7.406,9.922C7.228,9.992 7.106,9.964 7.106,9.964L7.139,9.913L7.794,9.534L7.781,9.511C7.732,9.423 7.676,9.34 7.621,9.268L7.211,9.558L7.185,9.532L7.217,9.477L7.568,9.2C7.481,9.092 7.407,9.019 7.394,9.006L7.198,9.215C7.198,9.215 7.126,9.248 7.101,9.234C7.092,9.23 7.094,9.219 7.101,9.207C7.098,9.192 7.104,9.176 7.104,9.176L7.256,9.023C7.256,9.023 7.28,8.988 7.251,8.931C7.223,8.873 7.193,8.873 7.193,8.873L7.061,9.013C7.061,9.013 7.029,9.024 7.02,8.995C7.015,8.976 7.026,8.954 7.035,8.939C7.038,8.931 7.041,8.925 7.041,8.925L7.066,8.885L7.098,8.821C7.098,8.821 6.936,8.705 6.795,8.636C6.654,8.566 6.55,8.576 6.489,8.584C6.471,8.587 6.427,8.606 6.372,8.635C6.492,8.883 6.671,9.262 6.739,9.451C6.844,9.745 6.896,10.027 6.896,10.027L6.926,10.128Z" style="fill:url(#_Linear-fxekcqz);"/><path d="M6.372,8.635C6.24,8.703 6.045,8.82 6.001,8.863C5.938,8.924 5.875,8.96 5.878,9.089C5.882,9.217 6.085,9.355 6.21,9.411C6.334,9.466 6.657,9.565 6.657,9.565L6.666,9.61C6.666,9.61 6.539,9.638 6.285,9.526C6.03,9.415 5.875,9.316 5.875,9.316L5.843,9.325C5.843,9.325 5.817,9.469 5.807,9.57L5.796,9.688C5.913,9.749 6.039,9.811 6.121,9.842C6.314,9.916 6.468,9.96 6.633,9.981L6.883,10.013L6.894,10.044C6.894,10.044 6.867,10.071 6.686,10.068C6.505,10.065 6.261,10.021 6.261,10.021L6.239,10.028C6.239,10.028 6.361,10.084 6.564,10.11C6.738,10.133 6.817,10.14 6.926,10.128L6.896,10.027C6.896,10.027 6.844,9.745 6.739,9.451C6.671,9.262 6.492,8.883 6.372,8.635Z" style="fill:url(#_Linear-28i7b60);"/><g transform="matrix(0.956925,0,0,0.955502,0.298331,0.469228)"><ellipse cx="6.881" cy="10.731" rx="0.159" ry="0.168" style="fill:white;"/></g><g transform="matrix(0.956925,0,0,0.955502,0.298331,0.469228)"><ellipse cx="6.881" cy="10.731" rx="0.159" ry="0.168" style="fill:white;"/></g><g transform="matrix(0.911136,0,0,0.875904,1.00532,1.29519)"><ellipse cx="6.881" cy="10.731" rx="0.159" ry="0.168" style="fill:white;"/></g><g transform="matrix(0.911136,0,0,0.875904,1.00532,1.29519)"><ellipse cx="6.881" cy="10.731" rx="0.159" ry="0.168" style="fill:white;"/></g><g transform="matrix(1.15275,0,0,0.74892,-5.22486,4.29593)"><g style="filter:url(#_Effect-teq1g6g);"><ellipse cx="10.563" cy="13.701" rx="0.274" ry="0.07" style="fill-opacity:0.43;"/></g></g><path d="M6.937,14.546C7.003,14.39 7.073,14.187 7.113,13.963C7.202,13.461 7.271,12.508 7.253,12.217C7.241,12.023 7.242,11.559 7.244,11.271C7.28,11.503 7.304,11.737 7.296,11.927C7.275,12.403 7.303,13.362 7.166,13.945C7.081,14.308 6.992,14.473 6.937,14.546Z" style="fill:url(#_Linear-3roknw1);"/><path d="M7.244,11.271C7.19,10.923 7.108,10.579 7.065,10.394C6.99,10.072 6.864,9.658 6.789,9.519L6.658,9.279L6.614,9.253L6.603,9.281C6.603,9.281 6.814,9.791 6.884,10.057C6.954,10.323 7.129,11.197 7.14,11.929C7.147,12.436 7.118,13.058 7.083,13.417C7.048,13.775 6.902,14.415 6.902,14.415L6.882,14.532L6.884,14.6C6.884,14.6 6.904,14.59 6.937,14.546C7.003,14.39 7.073,14.187 7.113,13.963C7.202,13.461 7.271,12.508 7.253,12.217C7.241,12.023 7.242,11.559 7.244,11.271Z" style="fill:url(#_Linear-xniw87x);"/><g transform="matrix(1.15275,0,0,1.01047,-1.65531,-0.14273)"><g style="filter:url(#_Effect-x74sd3c);"><ellipse cx="10.563" cy="13.701" rx="0.274" ry="0.07" style="fill-opacity:0.43;"/></g></g><path d="M11.621,3.802L11.612,3.802L11.115,3.426L11.209,3.439C11.209,3.439 11.577,3.595 11.643,3.6C11.709,3.605 11.646,3.55 11.646,3.55L10.954,2.532L11.544,3.171L11.565,3.135L11.066,2.28C10.951,2.417 10.821,2.581 10.712,2.742C10.444,3.142 10.245,3.602 10.15,3.756L9.895,4.169L10.661,5.31L10.665,5.355L10.608,5.336L9.839,4.449C9.839,4.449 9.812,4.841 9.838,5.086C9.865,5.331 9.955,5.572 9.965,5.598C9.998,5.692 9.944,5.707 9.925,5.682C9.826,5.55 9.575,5.106 9.575,5.106C9.575,5.106 9.426,5.398 9.18,5.924C8.934,6.45 8.884,6.66 8.874,6.705C8.864,6.751 8.894,6.819 8.962,6.935C9.016,7.027 9.133,7.278 9.235,7.394C9.259,7.422 9.283,7.474 9.281,7.477C9.271,7.491 9.081,7.318 9.043,7.255L8.907,7.033C8.907,7.033 8.831,7.15 8.806,7.256C8.781,7.362 8.747,7.452 8.867,7.705C8.986,7.957 9.089,8.146 9.224,8.269L9.503,8.525C9.503,8.525 9.565,8.579 9.493,8.556C9.421,8.534 9.158,8.357 9.037,8.181C8.916,8.004 8.716,7.638 8.716,7.638C8.716,7.638 8.711,7.879 8.712,7.974C8.713,8.068 8.801,8.191 8.758,8.318L8.652,8.635C8.652,8.635 8.668,8.724 8.752,8.801C8.835,8.878 9.124,9.256 9.124,9.256C9.124,9.256 9.141,9.294 9.135,9.307C9.129,9.319 8.941,9.143 8.849,9.033C8.757,8.923 8.628,8.8 8.625,8.811C8.622,8.822 8.652,8.891 8.688,8.95C8.724,9.009 9.112,9.503 9.209,9.604C9.305,9.704 9.535,9.901 9.595,9.937C9.655,9.973 9.697,10.012 9.687,10.029C9.676,10.046 9.477,9.955 9.244,9.755C9.011,9.554 8.764,9.242 8.733,9.198C8.703,9.154 8.644,9.025 8.644,9.025C8.644,9.025 8.632,9.285 8.629,9.314C8.625,9.343 8.544,9.432 8.549,9.484C8.553,9.537 8.768,9.878 8.985,10.055C9.203,10.231 9.357,10.301 9.402,10.336C9.447,10.371 9.588,10.448 9.57,10.468C9.552,10.488 9.372,10.467 9.189,10.426C9.005,10.384 8.787,10.264 8.717,10.214C8.646,10.164 8.595,10.144 8.592,10.164C8.589,10.184 8.624,10.387 8.735,10.475C8.847,10.563 9.135,10.677 9.257,10.694C9.379,10.71 9.636,10.709 9.636,10.709C9.636,10.709 9.618,10.813 9.322,10.806C9.025,10.799 8.724,10.612 8.724,10.612C8.724,10.612 8.744,10.744 8.904,10.847C9.065,10.95 9.277,11.002 9.396,10.998C9.514,10.995 9.783,10.912 9.783,10.912C9.783,10.912 9.816,10.984 9.816,11.012C9.816,11.04 9.785,11.1 9.687,11.095C9.589,11.09 9.481,11.082 9.351,11.079C9.221,11.076 9.117,11.087 9.056,11.115C8.994,11.144 8.93,11.203 8.93,11.203C8.93,11.203 9.093,11.11 9.34,11.125C9.588,11.14 9.749,11.192 9.749,11.192L9.75,11.23C9.75,11.23 9.412,11.265 9.253,11.327C9.095,11.388 8.857,11.56 8.857,11.56L8.962,11.535C8.962,11.535 9.259,11.345 9.571,11.345C9.875,11.345 10.013,11.464 10.058,11.513C10.024,10.833 10.02,10.029 10.05,9.324C10.1,8.146 10.559,6.043 11.152,4.752C11.323,4.379 11.484,4.06 11.621,3.802Z" style="fill:url(#_Linear-lut5akg);"/><path d="M10.363,11.507C10.412,11.481 10.474,11.46 10.547,11.459C10.751,11.455 11.12,11.612 11.12,11.612C11.12,11.612 10.958,11.489 10.821,11.447C10.684,11.405 10.521,11.399 10.521,11.399C10.521,11.399 10.45,11.326 10.767,11.304C11.084,11.281 11.271,11.348 11.271,11.348C11.271,11.348 11.097,11.252 10.946,11.226C10.795,11.2 10.632,11.211 10.632,11.211C10.632,11.211 10.651,11.081 10.879,11.037C11.037,11.006 11.207,11.063 11.373,11.055C11.538,11.046 11.541,11.031 11.713,10.983C11.885,10.936 11.957,10.87 11.957,10.87C11.957,10.87 11.743,10.948 11.502,10.959L11.078,10.978C11.078,10.978 11.14,10.943 11.122,10.915C11.104,10.887 11.421,10.864 11.779,10.735C11.925,10.683 12.08,10.652 12.164,10.597C12.34,10.481 12.352,10.353 12.352,10.353C12.352,10.353 12.238,10.413 12.075,10.465C11.94,10.508 11.77,10.542 11.623,10.579C11.299,10.66 11.112,10.665 11.112,10.665C11.112,10.665 11.124,10.631 11.207,10.599C11.295,10.565 11.471,10.524 11.68,10.464C12.085,10.348 12.237,10.271 12.352,10.185C12.468,10.1 12.557,9.886 12.557,9.886C12.557,9.886 12.267,10.07 12.028,10.166C11.79,10.263 11.546,10.323 11.546,10.323L11.454,10.307C11.454,10.307 11.951,10.103 12.19,9.964C12.429,9.826 12.594,9.671 12.594,9.671C12.594,9.671 12.623,9.486 12.623,9.273C12.623,9.06 12.545,8.805 12.545,8.805L12.173,8.986L12.19,8.923L12.663,8.565C12.663,8.565 12.556,8.396 12.487,8.175C12.419,7.954 12.436,7.681 12.436,7.681C12.436,7.681 12.097,7.871 11.769,7.992L11.188,8.205L11.181,8.138C11.181,8.138 11.819,7.835 12.146,7.645C12.472,7.455 12.614,7.291 12.614,7.291C12.614,7.291 12.57,7.061 12.694,6.643C12.819,6.225 12.949,5.975 12.949,5.975L12.456,6.175L12.402,6.153L12.461,6.091L12.672,5.975L12.927,5.838L13.021,5.349C13.021,5.349 12.6,5.569 12.342,5.647L11.869,5.79L11.818,5.762C11.818,5.762 12.311,5.615 12.6,5.401C12.888,5.187 13,5.114 13.074,4.777C13.147,4.441 13.08,4.065 13.08,4.065L12.857,4.255L12.761,4.257L13.103,3.907L13.116,3.326C12.971,3.417 12.804,3.504 12.674,3.522L12.067,3.603C12.067,3.603 12.118,3.653 12.252,3.674L12.632,3.733L12.609,3.759L12.095,3.764L11.714,3.8C11.652,3.922 11.587,4.055 11.523,4.195C11.252,4.785 10.996,5.502 10.875,5.958C10.631,6.887 10.47,8.228 10.395,9.428C10.334,10.389 10.338,10.998 10.363,11.507Z" style="fill:url(#_Linear-hlzcn39);"/><path d="M8.625,9.324C8.61,9.36 8.544,9.437 8.549,9.484C8.553,9.537 8.768,9.878 8.985,10.055C9.203,10.231 9.357,10.301 9.402,10.336C9.447,10.371 9.588,10.448 9.57,10.468C9.552,10.488 9.372,10.467 9.189,10.426C9.005,10.384 8.787,10.264 8.717,10.214C8.646,10.164 8.595,10.144 8.592,10.164C8.589,10.184 8.624,10.387 8.735,10.475C8.847,10.563 9.135,10.677 9.257,10.694C9.379,10.71 9.636,10.709 9.636,10.709C9.636,10.709 9.618,10.813 9.322,10.806C9.025,10.799 8.724,10.612 8.724,10.612C8.724,10.612 8.744,10.744 8.904,10.847C9.065,10.95 9.277,11.002 9.396,10.998C9.514,10.995 9.783,10.912 9.783,10.912C9.783,10.912 9.816,10.984 9.816,11.012C9.816,11.04 9.785,11.1 9.687,11.095C9.589,11.09 9.481,11.082 9.351,11.079C9.221,11.076 9.117,11.087 9.056,11.115C8.994,11.144 8.93,11.203 8.93,11.203C8.93,11.203 9.093,11.11 9.34,11.125C9.588,11.14 9.749,11.192 9.749,11.192L9.75,11.23C9.75,11.23 9.412,11.265 9.253,11.327C9.095,11.388 8.857,11.56 8.857,11.56L8.962,11.535C8.962,11.535 9.259,11.345 9.571,11.345C9.957,11.345 10.075,11.535 10.075,11.535L10.223,11.621C10.223,11.621 10.342,11.462 10.547,11.459C10.751,11.455 11.12,11.612 11.12,11.612C11.12,11.612 10.958,11.489 10.821,11.447C10.684,11.405 10.521,11.399 10.521,11.399C10.521,11.399 10.45,11.326 10.767,11.304C11.084,11.281 11.271,11.348 11.271,11.348C11.271,11.348 11.097,11.252 10.946,11.226C10.795,11.2 10.632,11.211 10.632,11.211C10.632,11.211 10.651,11.081 10.879,11.037C11.037,11.006 11.207,11.063 11.373,11.055C11.538,11.046 11.541,11.031 11.713,10.983C11.885,10.936 11.957,10.87 11.957,10.87C11.957,10.87 11.743,10.948 11.502,10.959L11.078,10.978C11.078,10.978 11.14,10.943 11.122,10.915C11.104,10.887 11.421,10.864 11.779,10.735C11.925,10.683 12.08,10.652 12.164,10.597C12.34,10.481 12.352,10.353 12.352,10.353C12.352,10.353 12.238,10.413 12.075,10.465C11.94,10.508 11.77,10.542 11.623,10.579C11.299,10.66 11.112,10.665 11.112,10.665C11.112,10.665 11.124,10.631 11.207,10.599C11.295,10.565 11.471,10.524 11.68,10.464C12.085,10.348 12.237,10.271 12.352,10.185C12.468,10.1 12.557,9.886 12.557,9.886C12.557,9.886 12.267,10.07 12.028,10.166C11.79,10.263 11.546,10.323 11.546,10.323L11.454,10.307C11.454,10.307 11.951,10.103 12.19,9.964C12.429,9.826 12.594,9.671 12.594,9.671C12.594,9.671 12.623,9.486 12.623,9.273C12.623,9.194 12.612,9.109 12.598,9.034C12.452,9.145 12.276,9.271 12.145,9.337C11.876,9.474 11.205,9.69 11.205,9.69C11.205,9.69 11.569,9.505 11.792,9.381L12.155,9.179C12.155,9.179 11.618,9.376 11.215,9.512C10.812,9.648 10.576,9.681 10.576,9.681L11.077,9.158L11.036,9.139L10.404,9.581L10.584,9.295L10.56,9.269L10.1,9.524L9.852,9.309L9.884,9.651L9.396,9.354L9.341,9.356L9.877,9.894L9.83,9.894C9.83,9.894 9.489,9.736 9.181,9.457C8.874,9.177 8.699,8.959 8.699,8.959C8.699,8.959 8.705,8.971 8.717,8.992C8.817,9.128 9.124,9.516 9.209,9.604C9.247,9.643 9.305,9.698 9.366,9.751C9.522,9.877 9.667,9.983 9.667,9.983L9.67,9.992C9.685,10.008 9.692,10.021 9.687,10.029C9.686,10.03 9.685,10.03 9.682,10.031L9.686,10.042C9.686,10.042 9.547,10.039 9.351,9.864C9.273,9.794 9.195,9.716 9.129,9.649C9.082,9.603 9.036,9.555 8.993,9.508C9.088,9.623 9.371,9.963 9.489,10.055C9.633,10.167 9.701,10.275 9.701,10.275C9.701,10.275 9.512,10.226 9.276,10.093C9.041,9.959 8.781,9.691 8.781,9.691C8.781,9.691 9.076,9.893 9.204,9.964L9.381,10.064L9.348,9.999C9.348,9.999 9.075,9.834 8.822,9.536C8.753,9.454 8.686,9.384 8.625,9.324Z" style="fill:url(#_Linear-pz9nuq2);"/><path d="M13.116,3.326C12.971,3.417 12.804,3.504 12.674,3.522L12.067,3.603C12.067,3.603 12.118,3.653 12.252,3.674L12.632,3.733L12.609,3.759L12.095,3.764L11.684,3.803L11.612,3.802L11.115,3.426L11.209,3.439C11.209,3.439 11.577,3.595 11.643,3.6C11.709,3.605 11.646,3.55 11.646,3.55L10.954,2.532L11.544,3.171L11.565,3.135L11.066,2.28C11.236,2.078 11.376,1.932 11.376,1.932C11.376,1.932 11.411,2.17 11.487,2.303C11.563,2.437 11.715,2.641 11.75,2.611C11.785,2.581 11.711,2.465 11.656,2.393C11.601,2.321 11.554,2.178 11.542,1.989C11.53,1.8 11.665,1.738 11.665,1.738C11.665,1.738 11.786,1.964 11.797,2.073C11.8,2.103 11.889,2.132 11.878,2.024L11.836,1.624C11.836,1.624 12.396,1.265 12.587,1.42C12.777,1.574 13.001,2.021 13.077,2.148C13.152,2.274 13.209,2.461 13.194,2.629C13.179,2.797 13.132,2.958 12.802,3.176C12.471,3.395 11.998,3.424 11.998,3.424C11.998,3.424 11.955,3.503 12.035,3.504C12.116,3.505 12.341,3.496 12.585,3.406C12.83,3.315 13.12,3.13 13.12,3.13L13.116,3.326Z" style="fill:url(#_Linear-5xq91oz);"/><g transform="matrix(1.54143,0,0,1.39778,-5.68242,-2.3679)"><g style="filter:url(#_Effect-eeeuib8);"><ellipse cx="10.435" cy="6.018" rx="0.236" ry="0.266" style="fill:rgb(145,94,66);"/></g></g><g transform="matrix(1.54143,0,0,1.39778,-4.94876,-2.31301)"><g style="filter:url(#_Effect-z7ms3k4);"><ellipse cx="10.435" cy="6.018" rx="0.236" ry="0.266" style="fill:rgb(145,94,66);"/></g></g><g transform="matrix(1.05367,0,0,0.926912,-0.55863,0.444378)"><ellipse cx="10.435" cy="6.018" rx="0.236" ry="0.266" style="fill:white;"/></g><g transform="matrix(1.05367,0,0,0.926912,-0.55863,0.444378)"><ellipse cx="10.435" cy="6.018" rx="0.236" ry="0.266" style="fill:white;"/></g><g transform="matrix(1.05367,0,0,0.926912,0.0970156,0.497354)"><ellipse cx="10.435" cy="6.018" rx="0.236" ry="0.266" style="fill:white;"/></g></g><g transform="matrix(1.05367,0,0,0.926912,0.0970156,0.497354)"><ellipse cx="10.435" cy="6.018" rx="0.236" ry="0.266" style="fill:white;"/></g><path d="M10.562,13.706L10.563,13.56C10.563,13.56 10.424,12.448 10.384,11.872C10.344,11.28 10.319,10.628 10.395,9.428C10.47,8.228 10.631,6.887 10.875,5.958C10.996,5.502 11.252,4.785 11.523,4.195C11.803,3.585 12.095,3.109 12.095,3.109L12.048,3.054C12.048,3.054 11.643,3.683 11.152,4.752C10.559,6.043 10.1,8.146 10.05,9.324C10,10.503 10.044,11.96 10.167,12.654C10.299,13.399 10.553,13.813 10.562,13.706Z" style="fill:url(#_Linear-azr8pw9);"/><path d="M10.563,13.604L10.563,13.56C10.563,13.56 10.424,12.448 10.384,11.872C10.344,11.28 10.319,10.628 10.395,9.428C10.47,8.228 10.631,6.887 10.875,5.958C10.893,5.892 10.913,5.819 10.936,5.743C10.918,5.791 10.9,5.839 10.884,5.887C10.648,6.57 10.548,7.109 10.436,7.819C10.323,8.528 10.253,9.512 10.24,10.137C10.226,10.761 10.217,11.388 10.321,12.358C10.381,12.922 10.486,13.347 10.563,13.604Z" style="fill:url(#_Linear-05b4mkq);"/></g><defs><linearGradient id="_Linear-fwqh29y" x1="0" y1="0" x2="1" y2="0" gradientUnits="userSpaceOnUse" gradientTransform="matrix(-2.43411,0.0281193,-0.0281193,-2.43411,8.32185,11.1555)"><stop offset="0" style="stop-color:rgb(148,101,70);stop-opacity:1"/><stop offset="1" style="stop-color:rgb(190,152,126);stop-opacity:1"/></linearGradient><linearGradient id="_Linear-fxekcqz" x1="0" y1="0" x2="1" y2="0" gradientUnits="userSpaceOnUse" gradientTransform="matrix(-1.09341,-0.721328,0.721328,-1.09341,7.67617,9.51521)"><stop offset="0" style="stop-color:rgb(94,85,78);stop-opacity:1"/><stop offset="1" style="stop-color:rgb(109,102,95);stop-opacity:1"/></linearGradient><linearGradient id="_Linear-28i7b60" x1="0" y1="0" x2="1" y2="0" gradientUnits="userSpaceOnUse" gradientTransform="matrix(-0.705158,-0.837512,0.837512,-0.705158,6.71094,9.8561)"><stop offset="0" style="stop-color:rgb(111,105,99);stop-opacity:1"/><stop offset="1" style="stop-color:rgb(131,124,119);stop-opacity:1"/></linearGradient><filter id="_Effect-teq1g6g" filterUnits="userSpaceOnUse" x="9.97635" y="13.1497" width="1.17257" height="1.10271"><feGaussianBlur in="SourceGraphic" stdDeviation="0.0617771"/></filter><linearGradient id="_Linear-3roknw1" x1="0" y1="0" x2="1" y2="0" gradientUnits="userSpaceOnUse" gradientTransform="matrix(0.149932,-2.36433,2.36433,0.149932,7.13297,14.0283)"><stop offset="0" style="stop-color:rgb(182,159,113);stop-opacity:0.99"/><stop offset="1" style="stop-color:rgb(197,180,152);stop-opacity:0.99"/></linearGradient><linearGradient id="_Linear-xniw87x" x1="0" y1="0" x2="1" y2="0" gradientUnits="userSpaceOnUse" gradientTransform="matrix(-0.158255,-3.81885,3.81885,-0.158255,7.05198,14.0956)"><stop offset="0" style="stop-color:rgb(223,201,147);stop-opacity:1"/><stop offset="1" style="stop-color:rgb(231,221,195);stop-opacity:1"/></linearGradient><filter id="_Effect-x74sd3c" filterUnits="userSpaceOnUse" x="9.97635" y="13.2742" width="1.17257" height="0.853655"><feGaussianBlur in="SourceGraphic" stdDeviation="0.0553991"/></filter><linearGradient id="_Linear-lut5akg" x1="0" y1="0" x2="1" y2="0" gradientUnits="userSpaceOnUse" gradientTransform="matrix(1.04355,0.133706,-0.133706,1.04355,9.29195,6.65468)"><stop offset="0" style="stop-color:rgb(207,169,144);stop-opacity:1"/><stop offset="0.79" style="stop-color:rgb(204,165,138);stop-opacity:1"/><stop offset="1" style="stop-color:rgb(203,162,135);stop-opacity:1"/></linearGradient><linearGradient id="_Linear-hlzcn39" x1="0" y1="0" x2="1" y2="0" gradientUnits="userSpaceOnUse" gradientTransform="matrix(0.984018,-4.43115,4.43115,0.984018,11.2885,8.77885)"><stop offset="0" style="stop-color:rgb(165,125,100);stop-opacity:1"/><stop offset="1" style="stop-color:rgb(171,117,83);stop-opacity:1"/></linearGradient><linearGradient id="_Linear-pz9nuq2" x1="0" y1="0" x2="1" y2="0" gradientUnits="userSpaceOnUse" gradientTransform="matrix(-0.805942,0.0134432,-0.0134432,-0.805942,10.6157,10.1337)"><stop offset="0" style="stop-color:rgb(189,152,128);stop-opacity:1"/><stop offset="0.43" style="stop-color:rgb(203,170,148);stop-opacity:1"/><stop offset="1" style="stop-color:rgb(236,210,193);stop-opacity:1"/></linearGradient><linearGradient id="_Linear-5xq91oz" x1="0" y1="0" x2="1" y2="0" gradientUnits="userSpaceOnUse" gradientTransform="matrix(-1.08912,-0.303649,0.303649,-1.08912,12.7553,2.51382)"><stop offset="0" style="stop-color:rgb(98,90,83);stop-opacity:1"/><stop offset="1" style="stop-color:rgb(108,101,95);stop-opacity:1"/></linearGradient><filter id="_Effect-eeeuib8" filterUnits="userSpaceOnUse" x="9.4811" y="4.95973" width="1.90837" height="2.11604"><feGaussianBlur in="SourceGraphic" stdDeviation="0.125462"/></filter><filter id="_Effect-z7ms3k4" filterUnits="userSpaceOnUse" x="9.4811" y="4.95973" width="1.90837" height="2.11604"><feGaussianBlur in="SourceGraphic" stdDeviation="0.125462"/></filter><linearGradient id="_Linear-azr8pw9" x1="0" y1="0" x2="1" y2="0" gradientUnits="userSpaceOnUse" gradientTransform="matrix(-0.531646,8.67354,-8.67354,-0.531646,10.8047,4.72888)"><stop offset="0" style="stop-color:rgb(238,225,196);stop-opacity:1"/><stop offset="0.55" style="stop-color:rgb(234,218,184);stop-opacity:1"/><stop offset="1" style="stop-color:rgb(218,194,137);stop-opacity:1"/></linearGradient><linearGradient id="_Linear-05b4mkq" x1="0" y1="0" x2="1" y2="0" gradientUnits="userSpaceOnUse" gradientTransform="matrix(-0.218064,5.27683,-5.27683,-0.218064,10.606,7.20716)"><stop offset="0" style="stop-color:rgb(170,139,105);stop-opacity:1"/><stop offset="1" style="stop-color:rgb(185,159,123);stop-opacity:1"/></linearGradient></defs></svg>