<svg width="100%" height="100%" viewBox="0 0 18 16" version="1.1" xmlns="http://www.w3.org/2000/svg" xmlns:xlink="http://www.w3.org/1999/xlink" xml:space="preserve" style="fill-rule:evenodd;clip-rule:evenodd;stroke-linejoin:round;stroke-miterlimit:2;"><g id="phpstan"><path d="M2.61,9.879C2.61,9.879 1.421,8.91 1.508,6.58C1.596,4.201 3.345,2.505 4.015,2.096C4.685,1.687 5.618,1.592 6.054,1.764C6.49,1.936 6.725,2.175 6.725,2.175C6.725,2.175 6.52,2.285 6.405,2.376C6.291,2.468 6.248,2.642 6.359,2.742C6.472,2.845 6.616,2.818 6.702,2.735C6.789,2.653 7.663,1.973 9.034,1.999C10.356,2.023 11.067,2.567 11.279,2.713C11.49,2.859 11.586,2.809 11.664,2.739C11.742,2.669 11.776,2.494 11.624,2.379L11.273,2.113C11.273,2.113 11.779,1.635 12.593,1.674C13.253,1.706 13.919,1.998 14.623,2.71C15.326,3.422 16.026,4.395 16.274,5.527C16.522,6.66 16.476,8.885 15.324,9.917C14.259,10.871 13.341,10.777 12.64,10.217C11.943,9.659 11.954,9.179 11.954,9.179C11.954,9.179 12.533,8.792 12.857,8.335C13.181,7.878 13.209,7.32 13.198,6.868C13.188,6.416 13.146,5.221 13.155,5.009C13.165,4.798 13.08,4.688 12.929,4.686C12.778,4.683 12.713,4.845 12.729,5.016C12.746,5.187 12.768,6.798 12.748,7.263C12.728,7.729 12.459,8.141 12.226,8.38C11.993,8.619 11.655,8.786 11.655,8.786C11.655,8.786 11.772,8.468 11.875,8.188C11.978,7.909 11.985,7.603 11.822,7.575C11.658,7.547 11.563,7.61 11.47,7.964C11.377,8.319 10.79,10.119 9.817,11.791C8.845,13.464 7.997,14.345 6.428,14.273C5.083,14.211 4.234,12.844 3.9,12.385C3.565,11.926 2.952,10.824 3.048,10.178C3.163,9.409 3.43,9.212 3.867,9.166C4.322,9.119 4.996,9.683 4.996,9.683L5.163,9.276C5.163,9.276 4.651,8.565 3.804,8.671C2.878,8.786 2.61,9.879 2.61,9.879ZM5.689,10.878L4.448,9.888C4.351,9.81 4.209,9.826 4.131,9.924C4.053,10.021 4.069,10.164 4.166,10.242L6.772,12.32C6.869,12.398 7.011,12.382 7.089,12.285C7.167,12.187 7.151,12.045 7.054,11.967L6.398,11.444L7.105,9.463C7.105,9.463 6.868,9.467 6.708,9.443C6.497,9.412 6.354,9.354 6.354,9.354L5.689,10.878Z" style="fill:rgb(81,108,179);"/><path d="M5.302,8.93C4.444,8.361 3.878,7.389 3.878,6.286C3.878,4.534 5.307,3.111 7.068,3.111C8.828,3.111 10.257,4.534 10.257,6.286C10.257,8.039 8.828,9.462 7.068,9.462C6.817,9.462 6.573,9.433 6.339,9.378L5.7,10.921L4.776,10.15L5.302,8.93Z"/><g transform="matrix(1.03941,0,0,1.06,-0.182643,-0.346753)"><ellipse cx="6.975" cy="6.274" rx="2.011" ry="1.969" style="fill:white;"/></g><g transform="matrix(0.93121,0,0,1,0.561521,0.0340119)"><ellipse cx="6.987" cy="6.27" rx="1.139" ry="1.062" style="fill:rgb(35,31,32);"/></g><path d="M3.841,12.301L3.563,12.999C3.563,12.999 3.318,13.455 3.692,13.714C4,13.929 4.31,13.794 4.476,13.608C4.529,13.549 4.592,13.452 4.655,13.347C4.301,12.976 4.049,12.59 3.9,12.385C3.881,12.359 3.861,12.331 3.841,12.301Z" style="fill:rgb(35,31,32);"/><path d="M11.444,5.761C11.986,5.756 12.23,6.132 12.084,6.304C11.994,6.409 11.835,6.379 11.706,6.237C11.604,6.125 11.366,6.095 11.23,6.222C11.078,6.365 10.973,6.468 10.834,6.314C10.712,6.181 10.836,5.765 11.444,5.761Z" style="fill:rgb(35,31,32);"/></g></svg>