<svg width="100%" height="100%" viewBox="0 0 18 16" version="1.1" xmlns="http://www.w3.org/2000/svg" xmlns:xlink="http://www.w3.org/1999/xlink" xml:space="preserve" style="fill-rule:evenodd;clip-rule:evenodd;stroke-linejoin:round;stroke-miterlimit:2;"><g id="pine" transform="matrix(2.20511,0,0,2.20511,-10.8279,-5.27181)"><g transform="matrix(2.00328,0,0,1.27015,-5.60093,-0.961267)"><path d="M6.19,5.666C6.19,5.666 7.025,3.811 7.207,3.421C7.254,3.32 7.312,3.31 7.357,3.412C7.571,3.891 8.195,5.287 8.347,5.627C8.384,5.71 8.381,5.793 8.336,5.836C8.249,5.917 7.982,6.169 7.982,6.169C7.934,6.066 7.857,6 7.771,6C7.696,6 7.629,6.05 7.581,6.129L7.184,5.669C7.187,5.642 7.189,5.615 7.189,5.586C7.189,5.356 7.071,5.169 6.926,5.169C6.781,5.169 6.663,5.356 6.663,5.586C6.663,5.596 6.664,5.607 6.664,5.617L6.311,5.932C6.311,5.932 6.205,5.839 6.182,5.765C6.172,5.731 6.19,5.666 6.19,5.666Z" style="fill:rgb(0,180,83);"/></g><g transform="matrix(2.00328,0,0,1.27015,-5.60689,-0.090602)"><path d="M8.298,5.518C8.298,5.518 8.752,6.511 8.85,6.728C8.898,6.831 8.868,6.961 8.758,6.961C8.186,6.962 6.431,6.964 5.824,6.965C5.694,6.965 5.672,6.857 5.742,6.699C5.908,6.329 6.199,5.679 6.199,5.679L6.746,5.195C6.794,5.271 6.86,5.318 6.933,5.318C6.994,5.318 7.051,5.284 7.096,5.228L7.515,5.707C7.515,5.715 7.515,5.724 7.515,5.732C7.515,5.962 7.632,6.149 7.777,6.149C7.916,6.149 8.029,5.979 8.04,5.763L8.298,5.518Z" style="fill:rgb(7,132,64);"/></g></g></svg>