<svg width="100%" height="100%" viewBox="0 0 18 16" version="1.1" xmlns="http://www.w3.org/2000/svg" xmlns:xlink="http://www.w3.org/1999/xlink" xml:space="preserve" style="fill-rule:evenodd;clip-rule:evenodd;stroke-linejoin:bevel;"><g id="pip" transform="matrix(0.228656,0,0,0.228656,7.00054,6.22919)"><g transform="matrix(1,0,0,1,-24.1623,-21.2554)"><g transform="matrix(2.92733,0,0,2.92733,564.377,-156.012)"><path d="M-186.329,59.726L-183.144,60.886L-183.144,64.628L-186.329,63.469L-186.329,59.726Z" style="fill:rgb(233,233,255);fill-rule:nonzero;stroke:rgb(204,204,204);stroke-width:0.07px;"/></g><g transform="matrix(2.92733,0,0,2.92733,564.377,-156.012)"><path d="M-189.56,60.903L-189.56,64.646L-186.329,63.469L-186.329,59.726L-189.56,60.903Z" style="fill:rgb(53,53,100);fill-rule:nonzero;stroke:rgb(204,204,204);stroke-width:0.07px;"/></g><g transform="matrix(2.92733,0,0,2.92733,564.377,-156.012)"><path d="M-189.56,64.646L-186.376,65.805L-183.144,64.628L-186.329,63.469L-189.56,64.646Z" style="fill:rgb(175,175,222);fill-rule:nonzero;stroke:rgb(204,204,204);stroke-width:0.07px;"/></g><g transform="matrix(2.92733,0,0,2.92733,564.377,-156.012)"><path d="M-189.56,60.903L-186.376,62.062L-183.144,60.885L-186.329,59.726L-189.56,60.903Z" style="fill:rgb(247,247,244);fill-rule:nonzero;stroke:rgb(204,204,204);stroke-width:0.07px;"/></g><g transform="matrix(2.92733,0,0,2.92733,564.377,-156.012)"><path d="M-186.376,62.062L-186.376,65.805L-183.144,64.628L-183.144,60.885L-186.376,62.062Z" style="fill:white;fill-rule:nonzero;stroke:rgb(204,204,204);stroke-width:0.07px;"/></g><g transform="matrix(2.92733,0,0,2.92733,564.377,-156.012)"><path d="M-189.56,60.903L-186.376,62.062L-186.376,65.805L-189.561,64.645L-189.56,60.903Z" style="fill:rgb(239,238,234);fill-rule:nonzero;stroke:rgb(204,204,204);stroke-width:0.07px;"/></g></g><g transform="matrix(1,0,0,1,-24.1623,-21.2554)"><g transform="matrix(2.92733,0,0,2.92733,573.74,-163.673)"><path d="M-186.329,59.726L-183.144,60.886L-183.144,64.628L-186.329,63.469L-186.329,59.726Z" style="fill:rgb(233,233,255);fill-rule:nonzero;stroke:rgb(204,204,204);stroke-width:0.07px;"/></g><g transform="matrix(2.92733,0,0,2.92733,573.74,-163.673)"><path d="M-189.56,60.903L-189.56,64.646L-186.329,63.469L-186.329,59.726L-189.56,60.903Z" style="fill:rgb(53,53,100);fill-rule:nonzero;stroke:rgb(204,204,204);stroke-width:0.07px;"/></g><g transform="matrix(2.92733,0,0,2.92733,573.74,-163.673)"><path d="M-189.56,64.646L-186.376,65.805L-183.144,64.628L-186.329,63.469L-189.56,64.646Z" style="fill:rgb(175,175,222);fill-rule:nonzero;stroke:rgb(204,204,204);stroke-width:0.07px;"/></g><g transform="matrix(2.92733,0,0,2.92733,573.74,-163.673)"><path d="M-189.56,60.903L-186.376,62.062L-183.144,60.885L-186.329,59.726L-189.56,60.903Z" style="fill:rgb(247,247,244);fill-rule:nonzero;stroke:rgb(204,204,204);stroke-width:0.07px;"/></g><g transform="matrix(2.92733,0,0,2.92733,573.74,-163.673)"><path d="M-186.376,62.062L-186.376,65.805L-183.144,64.628L-183.144,60.885L-186.376,62.062Z" style="fill:white;fill-rule:nonzero;stroke:rgb(204,204,204);stroke-width:0.07px;"/></g><g transform="matrix(2.92733,0,0,2.92733,573.74,-163.673)"><path d="M-189.56,60.903L-186.376,62.062L-186.376,65.805L-189.561,64.645L-189.56,60.903Z" style="fill:rgb(239,238,234);fill-rule:nonzero;stroke:rgb(204,204,204);stroke-width:0.07px;"/></g></g><g transform="matrix(1,0,0,1,-24.1623,-21.2554)"><g transform="matrix(2.92733,0,0,2.92733,555.014,-141.542)"><path d="M-186.329,59.726L-183.144,60.886L-183.144,64.628L-186.329,63.469L-186.329,59.726Z" style="fill:rgb(233,233,255);fill-rule:nonzero;stroke:rgb(204,204,204);stroke-width:0.07px;"/></g><g transform="matrix(2.92733,0,0,2.92733,555.014,-141.542)"><path d="M-189.56,60.903L-189.56,64.646L-186.329,63.469L-186.329,59.726L-189.56,60.903Z" style="fill:rgb(53,53,100);fill-rule:nonzero;stroke:rgb(204,204,204);stroke-width:0.07px;"/></g><g transform="matrix(2.92733,0,0,2.92733,555.014,-141.542)"><path d="M-189.56,64.646L-186.376,65.805L-183.144,64.628L-186.329,63.469L-189.56,64.646Z" style="fill:rgb(175,175,222);fill-rule:nonzero;stroke:rgb(204,204,204);stroke-width:0.07px;"/></g><g transform="matrix(2.92733,0,0,2.92733,555.014,-141.542)"><path d="M-189.56,60.903L-186.376,62.062L-183.144,60.885L-186.329,59.726L-189.56,60.903Z" style="fill:rgb(247,247,244);fill-rule:nonzero;stroke:rgb(204,204,204);stroke-width:0.07px;"/></g><g transform="matrix(2.92733,0,0,2.92733,555.014,-141.542)"><path d="M-186.376,62.062L-186.376,65.805L-183.144,64.628L-183.144,60.885L-186.376,62.062Z" style="fill:white;fill-rule:nonzero;stroke:rgb(204,204,204);stroke-width:0.07px;"/></g><g transform="matrix(2.92733,0,0,2.92733,555.014,-141.542)"><path d="M-189.56,60.903L-186.376,62.062L-186.376,65.805L-189.561,64.645L-189.56,60.903Z" style="fill:rgb(239,238,234);fill-rule:nonzero;stroke:rgb(204,204,204);stroke-width:0.07px;"/></g></g><g transform="matrix(1,0,0,1,-24.1623,-21.2554)"><g transform="matrix(2.92733,0,0,2.92733,564.377,-138.137)"><path d="M-186.329,59.726L-183.144,60.886L-183.144,64.628L-186.329,63.469L-186.329,59.726Z" style="fill:rgb(233,233,255);fill-rule:nonzero;stroke:rgb(204,204,204);stroke-width:0.07px;"/></g><g transform="matrix(2.92733,0,0,2.92733,564.377,-138.137)"><path d="M-189.56,60.903L-189.56,64.646L-186.329,63.469L-186.329,59.726L-189.56,60.903Z" style="fill:rgb(53,53,100);fill-rule:nonzero;stroke:rgb(204,204,204);stroke-width:0.07px;"/></g><g transform="matrix(2.92733,0,0,2.92733,564.377,-138.137)"><path d="M-189.56,64.646L-186.376,65.805L-183.144,64.628L-186.329,63.469L-189.56,64.646Z" style="fill:rgb(175,175,222);fill-rule:nonzero;stroke:rgb(204,204,204);stroke-width:0.07px;"/></g><g transform="matrix(2.92733,0,0,2.92733,564.377,-138.137)"><path d="M-189.56,60.903L-186.376,62.062L-183.144,60.885L-186.329,59.726L-189.56,60.903Z" style="fill:rgb(247,247,244);fill-rule:nonzero;stroke:rgb(204,204,204);stroke-width:0.07px;"/></g><g transform="matrix(2.92733,0,0,2.92733,564.377,-138.137)"><path d="M-186.376,62.062L-186.376,65.805L-183.144,64.628L-183.144,60.885L-186.376,62.062Z" style="fill:white;fill-rule:nonzero;stroke:rgb(204,204,204);stroke-width:0.07px;"/></g><g transform="matrix(2.92733,0,0,2.92733,564.377,-138.137)"><path d="M-189.56,60.903L-186.376,62.062L-186.376,65.805L-189.561,64.645L-189.56,60.903Z" style="fill:rgb(239,238,234);fill-rule:nonzero;stroke:rgb(204,204,204);stroke-width:0.07px;"/></g></g><g transform="matrix(1,0,0,1,-24.1623,-21.2554)"><g transform="matrix(2.92733,0,0,2.92733,564.377,-149.203)"><path d="M-186.329,59.726L-183.144,60.886L-183.144,64.628L-186.329,63.469L-186.329,59.726Z" style="fill:rgb(233,233,255);fill-rule:nonzero;stroke:rgb(204,204,204);stroke-width:0.07px;"/></g><g transform="matrix(2.92733,0,0,2.92733,564.377,-149.203)"><path d="M-189.56,60.903L-189.56,64.646L-186.329,63.469L-186.329,59.726L-189.56,60.903Z" style="fill:rgb(53,53,100);fill-rule:nonzero;stroke:rgb(204,204,204);stroke-width:0.07px;"/></g><g transform="matrix(2.92733,0,0,2.92733,564.377,-149.203)"><path d="M-189.56,64.646L-186.376,65.805L-183.144,64.628L-186.329,63.469L-189.56,64.646Z" style="fill:rgb(175,175,222);fill-rule:nonzero;stroke:rgb(204,204,204);stroke-width:0.07px;"/></g><g transform="matrix(2.92733,0,0,2.92733,564.377,-149.203)"><path d="M-189.56,60.903L-186.376,62.062L-183.144,60.885L-186.329,59.726L-189.56,60.903Z" style="fill:rgb(247,247,244);fill-rule:nonzero;stroke:rgb(204,204,204);stroke-width:0.07px;"/></g><g transform="matrix(2.92733,0,0,2.92733,564.377,-149.203)"><path d="M-186.376,62.062L-186.376,65.805L-183.144,64.628L-183.144,60.885L-186.376,62.062Z" style="fill:white;fill-rule:nonzero;stroke:rgb(204,204,204);stroke-width:0.07px;"/></g><g transform="matrix(2.92733,0,0,2.92733,564.377,-149.203)"><path d="M-189.56,60.903L-186.376,62.062L-186.376,65.805L-189.561,64.645L-189.56,60.903Z" style="fill:rgb(239,238,234);fill-rule:nonzero;stroke:rgb(204,204,204);stroke-width:0.07px;"/></g></g><g transform="matrix(1,0,0,1,-24.1623,-21.2554)"><g transform="matrix(2.92733,0,0,2.92733,601.83,-144.947)"><path d="M-186.329,59.726L-183.144,60.886L-183.144,64.628L-186.329,63.469L-186.329,59.726Z" style="fill:rgb(233,233,255);fill-rule:nonzero;stroke:rgb(204,204,204);stroke-width:0.07px;"/></g><g transform="matrix(2.92733,0,0,2.92733,601.83,-144.947)"><path d="M-189.56,60.903L-189.56,64.646L-186.329,63.469L-186.329,59.726L-189.56,60.903Z" style="fill:rgb(53,53,100);fill-rule:nonzero;stroke:rgb(204,204,204);stroke-width:0.07px;"/></g><g transform="matrix(2.92733,0,0,2.92733,601.83,-144.947)"><path d="M-189.56,64.646L-186.376,65.805L-183.144,64.628L-186.329,63.469L-189.56,64.646Z" style="fill:rgb(175,175,222);fill-rule:nonzero;stroke:rgb(204,204,204);stroke-width:0.07px;"/></g><g transform="matrix(2.92733,0,0,2.92733,601.83,-144.947)"><path d="M-189.56,60.903L-186.376,62.062L-183.144,60.885L-186.329,59.726L-189.56,60.903Z" style="fill:rgb(247,247,244);fill-rule:nonzero;stroke:rgb(204,204,204);stroke-width:0.07px;"/></g><g transform="matrix(2.92733,0,0,2.92733,601.83,-144.947)"><path d="M-186.376,62.062L-186.376,65.805L-183.144,64.628L-183.144,60.885L-186.376,62.062Z" style="fill:white;fill-rule:nonzero;stroke:rgb(204,204,204);stroke-width:0.07px;"/></g><g transform="matrix(2.92733,0,0,2.92733,601.83,-144.947)"><path d="M-189.56,60.903L-186.376,62.062L-186.376,65.805L-189.561,64.645L-189.56,60.903Z" style="fill:rgb(239,238,234);fill-rule:nonzero;stroke:rgb(204,204,204);stroke-width:0.07px;"/></g></g><g transform="matrix(0.65177,0,0,0.65177,-1707.82,-534.53)"><g><g transform="matrix(4.49135,0,0,4.49135,3492.22,570.342)"><path d="M-186.329,59.726L-183.144,60.886L-183.144,64.628L-186.329,63.469L-186.329,59.726Z" style="fill:rgb(233,233,255);fill-rule:nonzero;stroke:rgb(204,204,204);stroke-width:0.07px;"/></g><g transform="matrix(4.49135,0,0,4.49135,3492.22,570.342)"><path d="M-189.56,60.903L-189.56,64.646L-186.329,63.469L-186.329,59.726L-189.56,60.903Z" style="fill:rgb(53,53,100);fill-rule:nonzero;stroke:rgb(204,204,204);stroke-width:0.07px;"/></g><g transform="matrix(4.49135,0,0,4.49135,3492.22,570.342)"><path d="M-189.56,64.646L-186.376,65.805L-183.144,64.628L-186.329,63.469L-189.56,64.646Z" style="fill:rgb(175,175,222);fill-rule:nonzero;stroke:rgb(204,204,204);stroke-width:0.07px;"/></g><g transform="matrix(4.49135,0,0,4.49135,3492.22,570.342)"><path d="M-189.56,60.903L-186.376,62.062L-183.144,60.885L-186.329,59.726L-189.56,60.903Z" style="fill:rgb(247,247,244);fill-rule:nonzero;stroke:rgb(204,204,204);stroke-width:0.07px;"/></g><g transform="matrix(4.49135,0,0,4.49135,3492.22,570.342)"><path d="M-186.376,62.062L-186.376,65.805L-183.144,64.628L-183.144,60.885L-186.376,62.062Z" style="fill:rgb(255,210,66);fill-rule:nonzero;stroke:rgb(204,204,204);stroke-width:0.07px;"/></g><g transform="matrix(4.49135,0,0,4.49135,3492.22,570.342)"><path d="M-189.56,60.903L-186.376,62.062L-186.376,65.805L-189.561,64.645L-189.56,60.903Z" style="fill:rgb(239,238,234);fill-rule:nonzero;stroke:rgb(204,204,204);stroke-width:0.07px;"/></g></g><g transform="matrix(0.9397,-0.342023,0,1,0,0)"><circle cx="2835.22" cy="1823.9" r="2.967" style="fill:white;"/></g></g><g transform="matrix(1,0,0,1,-24.1623,-21.2554)"><g transform="matrix(2.92733,0,0,2.92733,583.104,-138.137)"><path d="M-186.329,59.726L-183.144,60.886L-183.144,64.628L-186.329,63.469L-186.329,59.726Z" style="fill:rgb(233,233,255);fill-rule:nonzero;stroke:rgb(204,204,204);stroke-width:0.07px;"/></g><g transform="matrix(2.92733,0,0,2.92733,583.104,-138.137)"><path d="M-189.56,60.903L-189.56,64.646L-186.329,63.469L-186.329,59.726L-189.56,60.903Z" style="fill:rgb(53,53,100);fill-rule:nonzero;stroke:rgb(204,204,204);stroke-width:0.07px;"/></g><g transform="matrix(2.92733,0,0,2.92733,583.104,-138.137)"><path d="M-189.56,64.646L-186.376,65.805L-183.144,64.628L-186.329,63.469L-189.56,64.646Z" style="fill:rgb(175,175,222);fill-rule:nonzero;stroke:rgb(204,204,204);stroke-width:0.07px;"/></g><g transform="matrix(2.92733,0,0,2.92733,583.104,-138.137)"><path d="M-189.56,60.903L-186.376,62.062L-183.144,60.885L-186.329,59.726L-189.56,60.903Z" style="fill:rgb(247,247,244);fill-rule:nonzero;stroke:rgb(204,204,204);stroke-width:0.07px;"/></g><g transform="matrix(2.92733,0,0,2.92733,583.104,-138.137)"><path d="M-186.376,62.062L-186.376,65.805L-183.144,64.628L-183.144,60.885L-186.376,62.062Z" style="fill:rgb(255,210,66);fill-rule:nonzero;stroke:rgb(204,204,204);stroke-width:0.07px;"/></g><g transform="matrix(2.92733,0,0,2.92733,583.104,-138.137)"><path d="M-189.56,60.903L-186.376,62.062L-186.376,65.805L-189.561,64.645L-189.56,60.903Z" style="fill:rgb(239,238,234);fill-rule:nonzero;stroke:rgb(204,204,204);stroke-width:0.07px;"/></g></g><g transform="matrix(1,0,0,1,-24.1623,-21.2554)"><g transform="matrix(2.92733,0,0,2.92733,573.74,-134.732)"><path d="M-186.329,59.726L-183.144,60.886L-183.144,64.628L-186.329,63.469L-186.329,59.726Z" style="fill:rgb(233,233,255);fill-rule:nonzero;stroke:rgb(204,204,204);stroke-width:0.07px;"/></g><g transform="matrix(2.92733,0,0,2.92733,573.74,-134.732)"><path d="M-189.56,60.903L-189.56,64.646L-186.329,63.469L-186.329,59.726L-189.56,60.903Z" style="fill:rgb(53,53,100);fill-rule:nonzero;stroke:rgb(204,204,204);stroke-width:0.07px;"/></g><g transform="matrix(2.92733,0,0,2.92733,573.74,-134.732)"><path d="M-189.56,64.646L-186.376,65.805L-183.144,64.628L-186.329,63.469L-189.56,64.646Z" style="fill:rgb(175,175,222);fill-rule:nonzero;stroke:rgb(204,204,204);stroke-width:0.07px;"/></g><g transform="matrix(2.92733,0,0,2.92733,573.74,-134.732)"><path d="M-189.56,60.903L-186.376,62.062L-183.144,60.885L-186.329,59.726L-189.56,60.903Z" style="fill:rgb(247,247,244);fill-rule:nonzero;stroke:rgb(204,204,204);stroke-width:0.07px;"/></g><g transform="matrix(2.92733,0,0,2.92733,573.74,-134.732)"><path d="M-186.376,62.062L-186.376,65.805L-183.144,64.628L-183.144,60.885L-186.376,62.062Z" style="fill:white;fill-rule:nonzero;stroke:rgb(204,204,204);stroke-width:0.07px;"/></g><g transform="matrix(2.92733,0,0,2.92733,573.74,-134.732)"><path d="M-189.56,60.903L-186.376,62.062L-186.376,65.805L-189.561,64.645L-189.56,60.903Z" style="fill:rgb(239,238,234);fill-rule:nonzero;stroke:rgb(204,204,204);stroke-width:0.07px;"/></g></g><g transform="matrix(1,0,0,1,-24.1623,-21.2554)"><g transform="matrix(2.92733,0,0,2.92733,601.83,-156.012)"><path d="M-186.329,59.726L-183.144,60.886L-183.144,64.628L-186.329,63.469L-186.329,59.726Z" style="fill:rgb(233,233,255);fill-rule:nonzero;stroke:rgb(204,204,204);stroke-width:0.07px;"/></g><g transform="matrix(2.92733,0,0,2.92733,601.83,-156.012)"><path d="M-189.56,60.903L-189.56,64.646L-186.329,63.469L-186.329,59.726L-189.56,60.903Z" style="fill:rgb(53,53,100);fill-rule:nonzero;stroke:rgb(204,204,204);stroke-width:0.07px;"/></g><g transform="matrix(2.92733,0,0,2.92733,601.83,-156.012)"><path d="M-189.56,64.646L-186.376,65.805L-183.144,64.628L-186.329,63.469L-189.56,64.646Z" style="fill:rgb(175,175,222);fill-rule:nonzero;stroke:rgb(204,204,204);stroke-width:0.07px;"/></g><g transform="matrix(2.92733,0,0,2.92733,601.83,-156.012)"><path d="M-189.56,60.903L-186.376,62.062L-183.144,60.885L-186.329,59.726L-189.56,60.903Z" style="fill:rgb(247,247,244);fill-rule:nonzero;stroke:rgb(204,204,204);stroke-width:0.07px;"/></g><g transform="matrix(2.92733,0,0,2.92733,601.83,-156.012)"><path d="M-186.376,62.062L-186.376,65.805L-183.144,64.628L-183.144,60.885L-186.376,62.062Z" style="fill:rgb(255,210,66);fill-rule:nonzero;stroke:rgb(204,204,204);stroke-width:0.07px;"/></g><g transform="matrix(2.92733,0,0,2.92733,601.83,-156.012)"><path d="M-189.56,60.903L-186.376,62.062L-186.376,65.805L-189.561,64.645L-189.56,60.903Z" style="fill:rgb(239,238,234);fill-rule:nonzero;stroke:rgb(204,204,204);stroke-width:0.07px;"/></g></g><g transform="matrix(1,0,0,1,-24.1623,-21.2554)"><g transform="matrix(2.92733,0,0,2.92733,601.83,-167.078)"><path d="M-186.329,59.726L-183.144,60.886L-183.144,64.628L-186.329,63.469L-186.329,59.726Z" style="fill:rgb(233,233,255);fill-rule:nonzero;stroke:rgb(204,204,204);stroke-width:0.07px;"/></g><g transform="matrix(2.92733,0,0,2.92733,601.83,-167.078)"><path d="M-189.56,60.903L-189.56,64.646L-186.329,63.469L-186.329,59.726L-189.56,60.903Z" style="fill:rgb(53,53,100);fill-rule:nonzero;stroke:rgb(204,204,204);stroke-width:0.07px;"/></g><g transform="matrix(2.92733,0,0,2.92733,601.83,-167.078)"><path d="M-189.56,64.646L-186.376,65.805L-183.144,64.628L-186.329,63.469L-189.56,64.646Z" style="fill:rgb(175,175,222);fill-rule:nonzero;stroke:rgb(204,204,204);stroke-width:0.07px;"/></g><g transform="matrix(2.92733,0,0,2.92733,601.83,-167.078)"><path d="M-189.56,60.903L-186.376,62.062L-183.144,60.885L-186.329,59.726L-189.56,60.903Z" style="fill:rgb(255,201,29);fill-rule:nonzero;stroke:rgb(204,204,204);stroke-width:0.07px;"/></g><g transform="matrix(2.92733,0,0,2.92733,601.83,-167.078)"><path d="M-186.376,62.062L-186.376,65.805L-183.144,64.628L-183.144,60.885L-186.376,62.062Z" style="fill:rgb(255,210,66);fill-rule:nonzero;stroke:rgb(204,204,204);stroke-width:0.07px;"/></g><g transform="matrix(2.92733,0,0,2.92733,601.83,-167.078)"><path d="M-189.56,60.903L-186.376,62.062L-186.376,65.805L-189.561,64.645L-189.56,60.903Z" style="fill:rgb(239,238,234);fill-rule:nonzero;stroke:rgb(204,204,204);stroke-width:0.07px;"/></g></g><g transform="matrix(1,0,0,1,-24.1623,-21.2554)"><g transform="matrix(2.92733,0,0,2.92733,592.467,-152.608)"><path d="M-186.329,59.726L-183.144,60.886L-183.144,64.628L-186.329,63.469L-186.329,59.726Z" style="fill:rgb(233,233,255);fill-rule:nonzero;stroke:rgb(204,204,204);stroke-width:0.07px;"/></g><g transform="matrix(2.92733,0,0,2.92733,592.467,-152.608)"><path d="M-189.56,60.903L-189.56,64.646L-186.329,63.469L-186.329,59.726L-189.56,60.903Z" style="fill:rgb(53,53,100);fill-rule:nonzero;stroke:rgb(204,204,204);stroke-width:0.07px;"/></g><g transform="matrix(2.92733,0,0,2.92733,592.467,-152.608)"><path d="M-189.56,64.646L-186.376,65.805L-183.144,64.628L-186.329,63.469L-189.56,64.646Z" style="fill:rgb(175,175,222);fill-rule:nonzero;stroke:rgb(204,204,204);stroke-width:0.07px;"/></g><g transform="matrix(2.92733,0,0,2.92733,592.467,-152.608)"><path d="M-189.56,60.903L-186.376,62.062L-183.144,60.885L-186.329,59.726L-189.56,60.903Z" style="fill:rgb(247,247,244);fill-rule:nonzero;stroke:rgb(204,204,204);stroke-width:0.07px;"/></g><g transform="matrix(2.92733,0,0,2.92733,592.467,-152.608)"><path d="M-186.376,62.062L-186.376,65.805L-183.144,64.628L-183.144,60.885L-186.376,62.062Z" style="fill:rgb(255,210,66);fill-rule:nonzero;stroke:rgb(204,204,204);stroke-width:0.07px;"/></g><g transform="matrix(2.92733,0,0,2.92733,592.467,-152.608)"><path d="M-189.56,60.903L-186.376,62.062L-186.376,65.805L-189.561,64.645L-189.56,60.903Z" style="fill:rgb(239,238,234);fill-rule:nonzero;stroke:rgb(204,204,204);stroke-width:0.07px;"/></g></g><g transform="matrix(1,0,0,1,-24.1623,-21.2554)"><g transform="matrix(2.92733,0,0,2.92733,592.467,-163.673)"><path d="M-186.329,59.726L-183.144,60.886L-183.144,64.628L-186.329,63.469L-186.329,59.726Z" style="fill:rgb(233,233,255);fill-rule:nonzero;stroke:rgb(204,204,204);stroke-width:0.07px;"/></g><g transform="matrix(2.92733,0,0,2.92733,592.467,-163.673)"><path d="M-189.56,60.903L-189.56,64.646L-186.329,63.469L-186.329,59.726L-189.56,60.903Z" style="fill:rgb(53,53,100);fill-rule:nonzero;stroke:rgb(204,204,204);stroke-width:0.07px;"/></g><g transform="matrix(2.92733,0,0,2.92733,592.467,-163.673)"><path d="M-189.56,64.646L-186.376,65.805L-183.144,64.628L-186.329,63.469L-189.56,64.646Z" style="fill:rgb(175,175,222);fill-rule:nonzero;stroke:rgb(204,204,204);stroke-width:0.07px;"/></g><g transform="matrix(2.92733,0,0,2.92733,592.467,-163.673)"><path d="M-189.56,60.903L-186.376,62.062L-183.144,60.885L-186.329,59.726L-189.56,60.903Z" style="fill:rgb(247,247,244);fill-rule:nonzero;stroke:rgb(204,204,204);stroke-width:0.07px;"/></g><g transform="matrix(2.92733,0,0,2.92733,592.467,-163.673)"><path d="M-186.376,62.062L-186.376,65.805L-183.144,64.628L-183.144,60.885L-186.376,62.062Z" style="fill:rgb(55,117,169);fill-rule:nonzero;stroke:rgb(204,204,204);stroke-width:0.07px;"/></g><g transform="matrix(2.92733,0,0,2.92733,592.467,-163.673)"><path d="M-189.56,60.903L-186.376,62.062L-186.376,65.805L-189.561,64.645L-189.56,60.903Z" style="fill:rgb(239,238,234);fill-rule:nonzero;stroke:rgb(204,204,204);stroke-width:0.07px;"/></g></g><g transform="matrix(1,0,0,1,-24.1623,-21.2554)"><g transform="matrix(2.92733,0,0,2.92733,592.467,-174.739)"><path d="M-186.329,59.726L-183.144,60.886L-183.144,64.628L-186.329,63.469L-186.329,59.726Z" style="fill:rgb(233,233,255);fill-rule:nonzero;stroke:rgb(204,204,204);stroke-width:0.07px;"/></g><g transform="matrix(2.92733,0,0,2.92733,592.467,-174.739)"><path d="M-189.56,60.903L-189.56,64.646L-186.329,63.469L-186.329,59.726L-189.56,60.903Z" style="fill:rgb(53,53,100);fill-rule:nonzero;stroke:rgb(204,204,204);stroke-width:0.07px;"/></g><g transform="matrix(2.92733,0,0,2.92733,592.467,-174.739)"><path d="M-189.56,64.646L-186.376,65.805L-183.144,64.628L-186.329,63.469L-189.56,64.646Z" style="fill:rgb(175,175,222);fill-rule:nonzero;stroke:rgb(204,204,204);stroke-width:0.07px;"/></g><g transform="matrix(2.92733,0,0,2.92733,592.467,-174.739)"><path d="M-189.56,60.903L-186.376,62.062L-183.144,60.885L-186.329,59.726L-189.56,60.903Z" style="fill:rgb(47,100,145);fill-rule:nonzero;stroke:rgb(204,204,204);stroke-width:0.07px;"/></g><g transform="matrix(2.92733,0,0,2.92733,592.467,-174.739)"><path d="M-186.376,62.062L-186.376,65.805L-183.144,64.628L-183.144,60.885L-186.376,62.062Z" style="fill:rgb(55,117,169);fill-rule:nonzero;stroke:rgb(204,204,204);stroke-width:0.07px;"/></g><g transform="matrix(2.92733,0,0,2.92733,592.467,-174.739)"><path d="M-189.56,60.903L-186.376,62.062L-186.376,65.805L-189.561,64.645L-189.56,60.903Z" style="fill:rgb(239,238,234);fill-rule:nonzero;stroke:rgb(204,204,204);stroke-width:0.07px;"/></g></g><g transform="matrix(1,0,0,1,-24.1623,-21.2554)"><g transform="matrix(2.92733,0,0,2.92733,583.104,-149.203)"><path d="M-186.329,59.726L-183.144,60.886L-183.144,64.628L-186.329,63.469L-186.329,59.726Z" style="fill:rgb(233,233,255);fill-rule:nonzero;stroke:rgb(204,204,204);stroke-width:0.07px;"/></g><g transform="matrix(2.92733,0,0,2.92733,583.104,-149.203)"><path d="M-189.56,60.903L-189.56,64.646L-186.329,63.469L-186.329,59.726L-189.56,60.903Z" style="fill:rgb(53,53,100);fill-rule:nonzero;stroke:rgb(204,204,204);stroke-width:0.07px;"/></g><g transform="matrix(2.92733,0,0,2.92733,583.104,-149.203)"><path d="M-189.56,64.646L-186.376,65.805L-183.144,64.628L-186.329,63.469L-189.56,64.646Z" style="fill:rgb(175,175,222);fill-rule:nonzero;stroke:rgb(204,204,204);stroke-width:0.07px;"/></g><g transform="matrix(2.92733,0,0,2.92733,583.104,-149.203)"><path d="M-189.56,60.903L-186.376,62.062L-183.144,60.885L-186.329,59.726L-189.56,60.903Z" style="fill:rgb(247,247,244);fill-rule:nonzero;stroke:rgb(204,204,204);stroke-width:0.07px;"/></g><g transform="matrix(2.92733,0,0,2.92733,583.104,-149.203)"><path d="M-186.376,62.062L-186.376,65.805L-183.144,64.628L-183.144,60.885L-186.376,62.062Z" style="fill:rgb(255,210,66);fill-rule:nonzero;stroke:rgb(204,204,204);stroke-width:0.07px;"/></g><g transform="matrix(2.92733,0,0,2.92733,583.104,-149.203)"><path d="M-189.56,60.903L-186.376,62.062L-186.376,65.805L-189.561,64.645L-189.56,60.903Z" style="fill:rgb(239,238,234);fill-rule:nonzero;stroke:rgb(204,204,204);stroke-width:0.07px;"/></g></g><g transform="matrix(1,0,0,1,-24.1623,-21.2554)"><g transform="matrix(2.92733,0,0,2.92733,583.104,-160.268)"><path d="M-186.329,59.726L-183.144,60.886L-183.144,64.628L-186.329,63.469L-186.329,59.726Z" style="fill:rgb(233,233,255);fill-rule:nonzero;stroke:rgb(204,204,204);stroke-width:0.07px;"/></g><g transform="matrix(2.92733,0,0,2.92733,583.104,-160.268)"><path d="M-189.56,60.903L-189.56,64.646L-186.329,63.469L-186.329,59.726L-189.56,60.903Z" style="fill:rgb(53,53,100);fill-rule:nonzero;stroke:rgb(204,204,204);stroke-width:0.07px;"/></g><g transform="matrix(2.92733,0,0,2.92733,583.104,-160.268)"><path d="M-189.56,64.646L-186.376,65.805L-183.144,64.628L-186.329,63.469L-189.56,64.646Z" style="fill:rgb(175,175,222);fill-rule:nonzero;stroke:rgb(204,204,204);stroke-width:0.07px;"/></g><g transform="matrix(2.92733,0,0,2.92733,583.104,-160.268)"><path d="M-189.56,60.903L-186.376,62.062L-183.144,60.885L-186.329,59.726L-189.56,60.903Z" style="fill:rgb(247,247,244);fill-rule:nonzero;stroke:rgb(204,204,204);stroke-width:0.07px;"/></g><g transform="matrix(2.92733,0,0,2.92733,583.104,-160.268)"><path d="M-186.376,62.062L-186.376,65.805L-183.144,64.628L-183.144,60.885L-186.376,62.062Z" style="fill:rgb(55,117,169);fill-rule:nonzero;stroke:rgb(204,204,204);stroke-width:0.07px;"/></g><g transform="matrix(2.92733,0,0,2.92733,583.104,-160.268)"><path d="M-189.56,60.903L-186.376,62.062L-186.376,65.805L-189.561,64.645L-189.56,60.903Z" style="fill:rgb(239,238,234);fill-rule:nonzero;stroke:rgb(204,204,204);stroke-width:0.07px;"/></g></g><g transform="matrix(1,0,0,1,-24.1623,-21.2554)"><g transform="matrix(2.92733,0,0,2.92733,573.74,-145.798)"><path d="M-186.329,59.726L-183.144,60.886L-183.144,64.628L-186.329,63.469L-186.329,59.726Z" style="fill:rgb(233,233,255);fill-rule:nonzero;stroke:rgb(204,204,204);stroke-width:0.07px;"/></g><g transform="matrix(2.92733,0,0,2.92733,573.74,-145.798)"><path d="M-189.56,60.903L-189.56,64.646L-186.329,63.469L-186.329,59.726L-189.56,60.903Z" style="fill:rgb(53,53,100);fill-rule:nonzero;stroke:rgb(204,204,204);stroke-width:0.07px;"/></g><g transform="matrix(2.92733,0,0,2.92733,573.74,-145.798)"><path d="M-189.56,64.646L-186.376,65.805L-183.144,64.628L-186.329,63.469L-189.56,64.646Z" style="fill:rgb(175,175,222);fill-rule:nonzero;stroke:rgb(204,204,204);stroke-width:0.07px;"/></g><g transform="matrix(2.92733,0,0,2.92733,573.74,-145.798)"><path d="M-189.56,60.903L-186.376,62.062L-183.144,60.885L-186.329,59.726L-189.56,60.903Z" style="fill:rgb(247,247,244);fill-rule:nonzero;stroke:rgb(204,204,204);stroke-width:0.07px;"/></g><g transform="matrix(2.92733,0,0,2.92733,573.74,-145.798)"><path d="M-186.376,62.062L-186.376,65.805L-183.144,64.628L-183.144,60.885L-186.376,62.062Z" style="fill:rgb(55,117,169);fill-rule:nonzero;stroke:rgb(204,204,204);stroke-width:0.07px;"/></g><g transform="matrix(2.92733,0,0,2.92733,573.74,-145.798)"><path d="M-189.56,60.903L-186.376,62.062L-186.376,65.805L-189.561,64.645L-189.56,60.903Z" style="fill:rgb(47,100,145);fill-rule:nonzero;stroke:rgb(204,204,204);stroke-width:0.07px;"/></g></g><g transform="matrix(1,0,0,1,-24.1623,-21.2554)"><g transform="matrix(2.92733,0,0,2.92733,573.74,-156.864)"><path d="M-186.329,59.726L-183.144,60.886L-183.144,64.628L-186.329,63.469L-186.329,59.726Z" style="fill:rgb(233,233,255);fill-rule:nonzero;stroke:rgb(204,204,204);stroke-width:0.07px;"/></g><g transform="matrix(2.92733,0,0,2.92733,573.74,-156.864)"><path d="M-189.56,60.903L-189.56,64.646L-186.329,63.469L-186.329,59.726L-189.56,60.903Z" style="fill:rgb(53,53,100);fill-rule:nonzero;stroke:rgb(204,204,204);stroke-width:0.07px;"/></g><g transform="matrix(2.92733,0,0,2.92733,573.74,-156.864)"><path d="M-189.56,64.646L-186.376,65.805L-183.144,64.628L-186.329,63.469L-189.56,64.646Z" style="fill:rgb(175,175,222);fill-rule:nonzero;stroke:rgb(204,204,204);stroke-width:0.07px;"/></g><g transform="matrix(2.92733,0,0,2.92733,573.74,-156.864)"><path d="M-189.56,60.903L-186.376,62.062L-183.144,60.885L-186.329,59.726L-189.56,60.903Z" style="fill:rgb(47,100,145);fill-rule:nonzero;stroke:rgb(204,204,204);stroke-width:0.07px;"/></g><g transform="matrix(2.92733,0,0,2.92733,573.74,-156.864)"><path d="M-186.376,62.062L-186.376,65.805L-183.144,64.628L-183.144,60.885L-186.376,62.062Z" style="fill:rgb(55,117,169);fill-rule:nonzero;stroke:rgb(204,204,204);stroke-width:0.07px;"/></g><g transform="matrix(2.92733,0,0,2.92733,573.74,-156.864)"><path d="M-189.56,60.903L-186.376,62.062L-186.376,65.805L-189.561,64.645L-189.56,60.903Z" style="fill:rgb(47,100,145);fill-rule:nonzero;stroke:rgb(204,204,204);stroke-width:0.07px;"/></g></g><g transform="matrix(0.65177,0,0,0.65177,-1707.82,-534.53)"><g><g transform="matrix(4.49135,0,0,4.49135,3477.85,524.633)"><path d="M-186.329,59.726L-183.144,60.886L-183.144,64.628L-186.329,63.469L-186.329,59.726Z" style="fill:rgb(233,233,255);fill-rule:nonzero;stroke:rgb(204,204,204);stroke-width:0.07px;"/></g><g transform="matrix(4.49135,0,0,4.49135,3477.85,524.633)"><path d="M-189.56,60.903L-189.56,64.646L-186.329,63.469L-186.329,59.726L-189.56,60.903Z" style="fill:rgb(53,53,100);fill-rule:nonzero;stroke:rgb(204,204,204);stroke-width:0.07px;"/></g><g transform="matrix(4.49135,0,0,4.49135,3477.85,524.633)"><path d="M-189.56,64.646L-186.376,65.805L-183.144,64.628L-186.329,63.469L-189.56,64.646Z" style="fill:rgb(175,175,222);fill-rule:nonzero;stroke:rgb(204,204,204);stroke-width:0.07px;"/></g><g transform="matrix(4.49135,0,0,4.49135,3477.85,524.633)"><path d="M-189.56,60.903L-186.376,62.062L-183.144,60.885L-186.329,59.726L-189.56,60.903Z" style="fill:rgb(47,100,145);fill-rule:nonzero;stroke:rgb(204,204,204);stroke-width:0.07px;"/></g><g transform="matrix(4.49135,0,0,4.49135,3477.85,524.633)"><path d="M-186.376,62.062L-186.376,65.805L-183.144,64.628L-183.144,60.885L-186.376,62.062Z" style="fill:rgb(55,117,169);fill-rule:nonzero;stroke:rgb(204,204,204);stroke-width:0.07px;"/></g><g transform="matrix(4.49135,0,0,4.49135,3477.85,524.633)"><path d="M-189.56,60.903L-186.376,62.062L-186.376,65.805L-189.561,64.645L-189.56,60.903Z" style="fill:rgb(47,100,145);fill-rule:nonzero;stroke:rgb(204,204,204);stroke-width:0.07px;"/></g></g><g transform="matrix(0.9397,-0.342023,0,1,0,0)"><circle cx="2816.02" cy="1772.92" r="2.967" style="fill:white;"/></g></g></g></svg>