<svg width="100%" height="100%" viewBox="0 0 18 16" version="1.1" xmlns="http://www.w3.org/2000/svg" xmlns:xlink="http://www.w3.org/1999/xlink" xml:space="preserve" style="fill-rule:evenodd;clip-rule:evenodd;stroke-linecap:round;stroke-linejoin:round;stroke-miterlimit:1;"><g id="pkg.jl" transform="matrix(1.11889,0,0,1.11889,-1.07086,-0.952983)"><g id="green" transform="matrix(1,0,0,1,-4.00034,-2.42079)"><path d="M6.069,8.742L6.05,11.959L9.043,13.798L11.969,12.143L11.907,8.82L8.982,7.177L6.069,8.742Z" style="fill:rgb(64,99,216);stroke:rgb(93,58,28);stroke-width:0.09px;"/><path d="M11.934,8.917L9.043,10.506L6.078,8.749" style="fill:none;stroke:rgb(93,60,20);stroke-width:0.09px;stroke-linecap:butt;stroke-linejoin:bevel;"/><path d="M9.042,10.507L9.03,13.758" style="fill:none;stroke:rgb(94,56,19);stroke-width:0.1px;"/><path d="M6.606,9.702L6.582,11.712L8.494,12.882L8.492,10.783L6.606,9.702Z" style="fill:rgb(102,130,224);stroke:rgb(96,56,19);stroke-width:0.09px;"/><g transform="matrix(1,0,0,1,0.00224801,0.00304053)"><path d="M7.823,10.418L7.826,12.441" style="fill:none;stroke:rgb(96,56,19);stroke-width:0.09px;"/></g><path d="M7.197,10.055L7.202,12.062" style="fill:none;stroke:rgb(96,56,19);stroke-width:0.09px;"/><path d="M9.561,10.819L9.562,12.904L11.47,11.789L11.477,9.761L9.561,10.819Z" style="fill:rgb(102,130,224);stroke:rgb(96,56,19);stroke-width:0.09px;"/><path d="M10.153,10.519L10.165,12.572" style="fill:none;stroke:rgb(96,56,19);stroke-width:0.09px;"/><path d="M10.801,10.143L10.8,12.128" style="fill:none;stroke:rgb(96,56,19);stroke-width:0.09px;"/><path d="M7.298,8.863L9.016,9.897L10.908,8.858L9.153,7.856L7.298,8.863Z" style="fill:rgb(102,130,224);stroke:rgb(96,56,19);stroke-width:0.09px;"/><path d="M8.39,9.503L10.276,8.47" style="fill:none;stroke:rgb(98,56,19);stroke-width:0.09px;"/><path d="M9.566,8.106L7.712,9.098" style="fill:none;stroke:rgb(98,56,19);stroke-width:0.09px;"/></g><g id="green1" transform="matrix(1,0,0,1,3.89151,-2.21935)"><path d="M6.116,8.683L6.07,11.936L9.094,13.625L12.057,11.789L12.06,8.595L9.085,6.973L6.116,8.683Z" style="fill:rgb(149,88,178);stroke:rgb(96,56,23);stroke-width:0.09px;"/><path d="M12.059,8.61L9.09,10.332L6.081,8.638" style="fill:none;stroke:rgb(97,57,26);stroke-width:0.09px;stroke-linecap:butt;stroke-linejoin:bevel;"/><path d="M9.084,10.351L9.082,13.596" style="fill:none;stroke:rgb(95,56,19);stroke-width:0.1px;"/><path d="M6.734,9.623L6.67,11.658L8.563,12.735L8.564,10.652L6.734,9.623Z" style="fill:rgb(170,121,193);stroke:rgb(96,56,19);stroke-width:0.09px;"/><g transform="matrix(1,0,0,1,0.00224801,0.00304053)"><path d="M7.951,10.317L7.948,12.348" style="fill:none;stroke:rgb(96,56,19);stroke-width:0.09px;"/></g><path d="M7.338,9.986L7.34,12.017" style="fill:none;stroke:rgb(96,56,19);stroke-width:0.09px;"/><path d="M9.636,10.614L9.634,12.706L11.514,11.541L11.533,9.479L9.636,10.614Z" style="fill:rgb(170,121,193);stroke:rgb(96,56,19);stroke-width:0.09px;"/><path d="M10.3,10.236L10.293,12.28" style="fill:none;stroke:rgb(96,56,19);stroke-width:0.09px;"/><path d="M10.933,9.863L10.933,11.88" style="fill:none;stroke:rgb(96,56,19);stroke-width:0.09px;"/><path d="M7.186,8.666L9.109,9.729L11.009,8.674L9.065,7.612L7.186,8.666Z" style="fill:rgb(170,121,193);stroke:rgb(96,56,19);stroke-width:0.09px;"/><path d="M7.855,8.287L9.776,9.314" style="fill:none;stroke:rgb(98,56,19);stroke-width:0.09px;"/><path d="M10.477,8.924L8.574,7.908" style="fill:none;stroke:rgb(98,56,19);stroke-width:0.09px;"/></g><g id="green2"><path d="M6.056,8.695L6.055,11.978L9.017,13.811L11.962,12.003L11.965,8.728L9,7.031L6.056,8.695Z" style="fill:rgb(56,152,38);stroke:rgb(93,60,20);stroke-width:0.09px;"/><path d="M11.954,8.732L8.983,10.451L6.082,8.709" style="fill:none;stroke:rgb(93,60,20);stroke-width:0.09px;stroke-linecap:butt;stroke-linejoin:bevel;"/><path d="M9.017,10.449L9.016,13.77" style="fill:none;stroke:rgb(94,56,19);stroke-width:0.09px;"/><path d="M6.609,9.635L6.604,11.725L8.479,12.917L8.455,10.754L6.609,9.635Z" style="fill:rgb(96,173,81);stroke:rgb(96,56,19);stroke-width:0.09px;"/><g transform="matrix(1,0,0,1,0.00224801,0.00304053)"><path d="M7.891,10.417L7.893,12.529" style="fill:none;stroke:rgb(96,56,19);stroke-width:0.09px;"/></g><path d="M7.262,10.029L7.264,12.11" style="fill:none;stroke:rgb(96,56,19);stroke-width:0.09px;"/><path d="M9.559,10.705L9.561,12.887L11.46,11.733L11.456,9.661L9.559,10.705Z" style="fill:rgb(96,173,81);stroke:rgb(96,56,19);stroke-width:0.09px;"/><path d="M10.218,10.343L10.225,12.471" style="fill:none;stroke:rgb(93,60,20);stroke-width:0.09px;"/><path d="M10.86,9.985L10.865,12.059" style="fill:none;stroke:rgb(93,60,20);stroke-width:0.09px;"/><path d="M7.129,8.709L9.026,9.839L10.88,8.737L9.023,7.64L7.129,8.709Z" style="fill:rgb(96,173,81);stroke:rgb(93,60,20);stroke-width:0.09px;"/><path d="M7.787,8.341L9.628,9.444" style="fill:none;stroke:rgb(98,56,19);stroke-width:0.09px;"/><path d="M10.317,9.036L8.486,7.968" style="fill:none;stroke:rgb(98,56,19);stroke-width:0.09px;"/></g><g id="green3" transform="matrix(1,0,0,1,-0.0102537,-4.87544)"><path d="M6.1,8.619L6.082,11.87L9.057,13.613L11.996,11.88L11.972,8.656L9.01,7.068L6.1,8.619Z" style="fill:rgb(203,60,51);stroke:rgb(100,56,20);stroke-width:0.09px;"/><path d="M11.962,8.65L9.01,10.251L6.098,8.627" style="fill:none;stroke:rgb(100,56,20);stroke-width:0.09px;stroke-linecap:butt;stroke-linejoin:bevel;"/><path d="M9.054,10.236L9.054,13.585" style="fill:none;stroke:rgb(94,55,19);stroke-width:0.1px;"/><path d="M6.64,9.519L6.632,11.641L8.518,12.721L8.522,10.549L6.64,9.519Z" style="fill:rgb(213,99,92);stroke:rgb(96,56,19);stroke-width:0.09px;"/><g transform="matrix(1,0,0,1,0.00224801,0.00304053)"><path d="M7.923,10.248L7.921,12.364" style="fill:none;stroke:rgb(96,56,19);stroke-width:0.09px;"/></g><path d="M7.291,9.912L7.293,12.008" style="fill:none;stroke:rgb(96,56,19);stroke-width:0.09px;"/><path d="M9.589,10.51L9.589,12.695L11.493,11.613L11.484,9.453L9.589,10.51Z" style="fill:rgb(213,99,92);stroke:rgb(96,56,19);stroke-width:0.09px;"/><path d="M10.257,10.186L10.255,12.282" style="fill:none;stroke:rgb(96,56,19);stroke-width:0.09px;"/><path d="M10.888,9.828L10.889,11.93" style="fill:none;stroke:rgb(96,56,19);stroke-width:0.09px;"/><path d="M7.238,8.623L9.066,9.641L10.946,8.644L9.055,7.646L7.238,8.623Z" style="fill:rgb(213,99,92);stroke:rgb(96,56,19);stroke-width:0.09px;"/><path d="M7.845,8.297L9.673,9.291" style="fill:none;stroke:rgb(98,56,19);stroke-width:0.09px;"/><path d="M10.43,8.892L8.6,7.903" style="fill:none;stroke:rgb(98,56,19);stroke-width:0.09px;"/></g></g></svg>