<svg width="100%" height="100%" viewBox="0 0 18 16" version="1.1" xmlns="http://www.w3.org/2000/svg" xmlns:xlink="http://www.w3.org/1999/xlink" xml:space="preserve" style="fill-rule:evenodd;clip-rule:evenodd;stroke-linecap:round;stroke-linejoin:round;stroke-miterlimit:1;"><g id="plist-light" transform="matrix(1.84065,0,0,1.84065,-7.62617,-6.30301)"><g transform="matrix(1.08302,0,0,1.16489,-0.518394,-0.899822)"><path d="M11.578,5.222L11.578,9.665C11.578,9.863 11.405,10.024 11.192,10.024L6.446,10.024C6.233,10.024 6.06,9.863 6.06,9.665L6.06,5.222C6.06,5.023 6.233,4.863 6.446,4.863L11.192,4.863C11.405,4.863 11.578,5.023 11.578,5.222Z" style="fill:none;stroke:rgb(180,180,180);stroke-width:0.52px;"/></g><g transform="matrix(0.993833,0,0,1,0.037279,0)"><path d="M6.045,6.263L12.041,6.252" style="fill:none;stroke:rgb(180,180,180);stroke-width:0.59px;"/></g><g transform="matrix(0.993833,0,0,1,0.037279,1.49172)"><path d="M6.045,6.263L12.041,6.252" style="fill:none;stroke:rgb(180,180,180);stroke-width:0.59px;"/></g><g transform="matrix(0.993833,0,0,1,0.037279,2.98343)"><path d="M6.045,6.263L12.041,6.252" style="fill:none;stroke:rgb(180,180,180);stroke-width:0.59px;"/></g><path d="M9.644,4.765L9.644,10.777" style="fill:none;stroke:rgb(180,180,180);stroke-width:0.59px;"/></g></svg>