<svg width="100%" height="100%" viewBox="0 0 18 16" version="1.1" xmlns="http://www.w3.org/2000/svg" xmlns:xlink="http://www.w3.org/1999/xlink" xml:space="preserve" style="fill-rule:evenodd;clip-rule:evenodd;stroke-linejoin:round;stroke-miterlimit:2;"><g id="plsql" transform="matrix(0.0625,0,0,0.0625,0,-1)"><path d="M100.5,66.1C71.5,66.1 48,62.048 48,57.049L48,154.81C48,159.81 71.5,163.862 100.5,163.862C129.5,163.862 153,159.809 153,154.81L153,57.052C153,62.051 129.5,66.1 100.5,66.1Z" style="fill:rgb(185,206,217);fill-rule:nonzero;"/><path d="M48,57.052L48,154.81C48,159.81 71.5,163.862 100.5,163.862L100.5,66.1C71.505,66.1 48,62.051 48,57.052Z" style="fill:rgb(161,189,204);fill-rule:nonzero;"/><path d="M145.759,61.642L145.759,159.4C150.359,158.055 153,156.486 153,154.811L153,57.052C153,58.727 150.36,60.3 145.759,61.642Z" style="fill:rgb(161,189,204);fill-rule:nonzero;"/><ellipse cx="100.5" cy="57.052" rx="52.5" ry="9.052" style="fill:rgb(138,173,191);"/><path d="M48,118.6C48,123.6 71.5,127.652 100.5,127.652C129.5,127.652 153,123.6 153,118.6L153,125.842C153,130.842 129.5,134.894 100.5,134.894C71.5,134.894 48,130.844 48,125.845L48,118.6Z" style="fill:rgb(120,158,178);fill-rule:nonzero;"/><path d="M153,86.017C153,91.017 129.5,95.069 100.5,95.069C71.5,95.069 48,91.016 48,86.017L48,93.259C48,98.259 71.5,102.31 100.5,102.31C129.5,102.31 153,98.258 153,93.259L153,86.017Z" style="fill:rgb(120,158,178);fill-rule:nonzero;"/><rect x="0" y="0" width="288" height="288" style="fill:none;"/><g id="db-logobox"><path d="M240,125.2L240,228.8C240,234.981 234.981,240 228.8,240L125.2,240C119.019,240 114,234.981 114,228.8L114,125.2C114,119.019 119.019,114 125.2,114L228.8,114C234.981,114 240,119.019 240,125.2Z" style="fill:rgb(248,0,0);"/></g><path d="M146.343,152.984L164.43,152.984C173.606,152.984 177.197,158.57 177.197,167.349C177.197,172.801 175.602,181.449 163.832,181.449L156.384,181.449L156.384,201L146.343,201L146.343,152.984ZM156.384,174.064L161.97,174.064C164.962,174.064 167.023,170.806 167.023,167.614C167.023,163.69 165.96,160.366 161.438,160.366L156.384,160.366L156.384,174.064Z" style="fill:white;fill-rule:nonzero;"/><path d="M183.981,201L183.981,152.984L194.022,152.984L194.022,193.017L209.051,193.017L209.051,201L183.981,201Z" style="fill:white;fill-rule:nonzero;"/></g></svg>