

<svg width="100%" height="100%" viewBox="0 0 18 16" version="1.1" xmlns="http://www.w3.org/2000/svg" xmlns:xlink="http://www.w3.org/1999/xlink" xml:space="preserve" style="fill-rule:evenodd;clip-rule:evenodd;">
    <g id="g10985" transform="matrix(0.082577,0,0,0.082577,-291.206,8.05771)">
        <g id="podman">
            <g id="g109851">
                <path id="path10821" d="M3643.4,-4.783L3691.48,-4.783" style="fill:none;stroke:rgb(60,110,180);stroke-width:4px;"/>
                <path id="path10823" d="M3651.4,5.217L3699.48,5.217" style="fill:none;stroke:rgb(60,110,180);stroke-width:4px;"/>
                <g id="g10875" transform="matrix(1.15005,0,0,1.15101,-543.969,1.65952)">
                    <path id="path10825" d="M3677.87,12.844C3669.15,-1.301 3671.1,-14.945 3666.97,-34.439C3664.71,-46.478 3657.07,-56.416 3647.12,-60.055C3638.91,-62.919 3621.86,-62.927 3614.63,-60.055C3604.68,-56.416 3597.04,-46.478 3594.78,-34.439C3590.65,-14.945 3592.6,-1.301 3583.88,12.844" style="fill:rgb(204,204,204);stroke:black;stroke-width:2.61px;"/>
                    <ellipse id="ellipse10827" cx="3653.15" cy="-15.523" rx="4.218" ry="4.439" style="fill:rgb(231,232,233);"/>
                    <ellipse id="ellipse10829" cx="3610.53" cy="-15.523" rx="4.218" ry="4.439" style="fill:rgb(231,232,233);"/>
                    <g id="g10839" transform="matrix(0.887899,0,0,0.887899,408.272,2.10835)">
                        <path id="path10831" d="M3614.81,-22.607L3597.16,-17.877" style="fill:none;stroke:rgb(167,169,172);stroke-width:1.96px;"/>
                        <path id="path10833" d="M3616.81,-19.857L3599.06,-9.609" style="fill:none;stroke:rgb(167,169,172);stroke-width:1.96px;"/>
                        <path id="path10835" d="M3618.31,-16.607L3600.31,1.393" style="fill:none;stroke:rgb(167,169,172);stroke-width:1.96px;"/>
                        <path id="path10837" d="M3619.06,-12.357L3609.86,3.577" style="fill:none;stroke:rgb(167,169,172);stroke-width:1.96px;"/>
                    </g>
                    <g id="g10849" transform="matrix(-0.887899,0,0,0.887899,6856.66,2.10835)">
                        <path id="path10841" d="M3614.81,-22.607L3597.16,-17.877" style="fill:none;stroke:rgb(167,169,172);stroke-width:1.96px;"/>
                        <path id="path10843" d="M3616.81,-19.857L3599.06,-9.609" style="fill:none;stroke:rgb(167,169,172);stroke-width:1.96px;"/>
                        <path id="path10845" d="M3618.31,-16.607L3600.31,1.393" style="fill:none;stroke:rgb(167,169,172);stroke-width:1.96px;"/>
                        <path id="path10847" d="M3619.06,-12.357L3609.86,3.577" style="fill:none;stroke:rgb(167,169,172);stroke-width:1.96px;"/>
                    </g>
                    <ellipse id="ellipse10851" cx="3632.29" cy="-18.63" rx="13.54" ry="12.875" style="fill:white;stroke:rgb(96,96,91);stroke-width:2.61px;stroke-linecap:square;"/>
                    <g id="ellipse10853" transform="matrix(-1,0,0,1,0,0)">
                        <ellipse cx="-3653.02" cy="-29.634" rx="6.521" ry="6.686" style="stroke:rgb(137,44,160);stroke-width:2.61px;stroke-linecap:square;"/>
                    </g>
                    <path id="path10855" d="M3658.86,-43.632C3657.56,-45.326 3655.49,-46.403 3653.35,-46.494C3651.34,-46.581 3649.3,-45.792 3647.86,-44.371" style="fill:none;fill-rule:nonzero;stroke:black;stroke-width:2.61px;stroke-linecap:square;"/>
                    <g id="g10861" transform="matrix(0.887899,0,0,0.887899,402.945,-1.44325)">
                        <g id="g10863">
                            <g id="g108611">
                                <path id="path10857" d="M3637.06,-21.857L3637.44,-14.357C3637.44,-14.357 3643.44,-8.982 3646.94,-14.482C3646.94,-14.482 3646.56,-17.607 3646.31,-18.607" style="fill:none;stroke:black;stroke-width:2.94px;"/>
                                <path id="path10859" d="M3636.99,-21.857L3636.62,-14.357C3636.62,-14.357 3630.62,-8.982 3627.12,-14.482C3627.12,-14.482 3627.49,-17.607 3627.74,-18.607" style="fill:none;stroke:black;stroke-width:2.94px;"/>
                            </g>
                        </g>
                    </g>
                    <path id="path10865" d="M3638.07,-20.952C3637.61,-22.128 3637.61,-24.479 3636.25,-24.479C3634.89,-24.479 3633.63,-25.361 3632.29,-25.361C3630.95,-25.361 3629.69,-24.479 3628.33,-24.479C3626.96,-24.479 3626.96,-22.128 3626.51,-20.952C3626.06,-19.777 3632.29,-15.957 3632.29,-15.957C3632.29,-15.957 3638.52,-19.777 3638.07,-20.952Z" style="fill:rgb(128,128,128);fill-rule:nonzero;stroke:black;stroke-width:2.61px;stroke-linecap:square;"/>
                    <ellipse id="ellipse10867" cx="3610.81" cy="-29.634" rx="6.521" ry="6.686" style="stroke:rgb(137,44,160);stroke-width:2.61px;stroke-linecap:square;"/>
                    <ellipse id="ellipse10869" cx="3608.64" cy="-31.515" rx="3.207" ry="3.331" style="fill:white;"/>
                    <path id="path10871" d="M3604.96,-43.632C3606.27,-45.326 3608.34,-46.403 3610.48,-46.494C3612.49,-46.581 3614.53,-45.792 3615.96,-44.371" style="fill:none;fill-rule:nonzero;stroke:black;stroke-width:2.61px;stroke-linecap:square;"/>
                    <ellipse id="ellipse10873" cx="3650.82" cy="-31.515" rx="3.207" ry="3.331" style="fill:white;"/>
                </g>
                <path id="path10877" d="M3583.79,16.226L3708.24,16.226" style="fill:none;stroke:rgb(60,110,180);stroke-width:4px;"/>
                <g id="g10929" transform="matrix(0.830485,0,0,0.830485,621.923,-5.38127)">
                    <clipPath id="_clip-ggvhn3x">
                        <rect x="3532.56" y="-5.607" width="99" height="48.5"/>
                    </clipPath>
                    <g clip-path="url(#_clip-ggvhn3x)">
                        <path id="path10879" d="M3621.98,51.921C3620.99,45.185 3620.51,37.858 3618.68,29.237C3616.68,18.589 3609.91,9.799 3601.09,6.581C3593.82,4.048 3578.72,4.04 3572.32,6.581C3563.5,9.799 3556.73,18.589 3554.73,29.237C3552.9,37.858 3552.42,45.185 3551.43,51.921" style="fill:rgb(204,204,204);stroke:black;stroke-width:3.61px;"/>
                        <ellipse id="ellipse10881" cx="3606.44" cy="45.968" rx="3.736" ry="3.927" style="fill:rgb(231,232,233);"/>
                        <ellipse id="ellipse10883" cx="3568.69" cy="45.968" rx="3.736" ry="3.927" style="fill:rgb(231,232,233);"/>
                        <g id="g10893" transform="matrix(0.786524,0,0,0.785306,732.038,61.5613)">
                            <path id="path10885" d="M3614.81,-22.607L3597.16,-17.877" style="fill:none;stroke:rgb(167,169,172);stroke-width:3.06px;"/>
                            <path id="path10887" d="M3616.81,-19.857L3599.06,-9.609" style="fill:none;stroke:rgb(167,169,172);stroke-width:3.06px;"/>
                            <path id="path10889" d="M3618.31,-16.607L3600.31,1.393" style="fill:none;stroke:rgb(167,169,172);stroke-width:3.06px;"/>
                            <path id="path10891" d="M3619.06,-12.357L3609.86,3.577" style="fill:none;stroke:rgb(167,169,172);stroke-width:3.06px;"/>
                        </g>
                        <g id="g10903" transform="matrix(-0.786524,0,0,0.785306,6444.19,61.5613)">
                            <path id="path10895" d="M3614.81,-22.607L3597.16,-17.877" style="fill:none;stroke:rgb(167,169,172);stroke-width:3.06px;"/>
                            <path id="path10897" d="M3616.81,-19.857L3599.06,-9.609" style="fill:none;stroke:rgb(167,169,172);stroke-width:3.06px;"/>
                            <path id="path10899" d="M3618.31,-16.607L3600.31,1.393" style="fill:none;stroke:rgb(167,169,172);stroke-width:3.06px;"/>
                            <path id="path10901" d="M3619.06,-12.357L3609.86,3.577" style="fill:none;stroke:rgb(167,169,172);stroke-width:3.06px;"/>
                        </g>
                        <ellipse id="ellipse10905" cx="3587.96" cy="43.219" rx="11.994" ry="11.387" style="fill:white;stroke:rgb(96,96,91);stroke-width:3.61px;stroke-linecap:square;"/>
                        <g id="ellipse10907" transform="matrix(-1,0,0,1,0,0)">
                            <ellipse cx="-3606.32" cy="33.487" rx="5.776" ry="5.914" style="stroke:rgb(137,44,160);stroke-width:3.61px;stroke-linecap:square;"/>
                        </g>
                        <path id="path10909" d="M3611.5,21.106C3610.34,19.607 3608.51,18.655 3606.62,18.575C3604.83,18.498 3603.02,19.195 3601.75,20.452" style="fill:none;fill-rule:nonzero;stroke:black;stroke-width:3.61px;stroke-linecap:square;"/>
                        <g id="g10915" transform="matrix(0.786524,0,0,0.785306,727.319,58.4201)">
                            <g id="g10917">
                                <g id="g109151">
                                    <path id="path10911" d="M3637.06,-21.857L3637.44,-14.357C3637.44,-14.357 3643.44,-8.982 3646.94,-14.482C3646.94,-14.482 3646.56,-17.607 3646.31,-18.607" style="fill:none;stroke:black;stroke-width:4.6px;"/>
                                    <path id="path10913" d="M3636.99,-21.857L3636.62,-14.357C3636.62,-14.357 3630.62,-8.982 3627.12,-14.482C3627.12,-14.482 3627.49,-17.607 3627.74,-18.607" style="fill:none;stroke:black;stroke-width:4.6px;"/>
                                </g>
                            </g>
                        </g>
                        <path id="path10919" d="M3593.08,41.165C3592.67,40.125 3592.67,38.046 3591.47,38.046C3590.26,38.046 3589.14,37.266 3587.96,37.266C3586.77,37.266 3585.65,38.046 3584.45,38.046C3583.24,38.046 3583.24,40.125 3582.84,41.165C3582.43,42.205 3587.96,45.584 3587.96,45.584C3587.96,45.584 3593.48,42.205 3593.08,41.165Z" style="fill:rgb(128,128,128);fill-rule:nonzero;stroke:black;stroke-width:3.61px;stroke-linecap:square;"/>
                        <ellipse id="ellipse10921" cx="3568.93" cy="33.487" rx="5.776" ry="5.914" style="stroke:rgb(137,44,160);stroke-width:3.61px;stroke-linecap:square;"/>
                        <ellipse id="ellipse10923" cx="3567" cy="31.823" rx="2.84" ry="2.946" style="fill:white;"/>
                        <path id="path10925" d="M3563.75,21.106C3564.91,19.607 3566.74,18.655 3568.64,18.575C3570.42,18.498 3572.23,19.195 3573.5,20.452" style="fill:none;fill-rule:nonzero;stroke:black;stroke-width:3.61px;stroke-linecap:square;"/>
                        <ellipse id="ellipse10927" cx="3604.77" cy="32.236" rx="2.84" ry="2.946" style="fill:white;"/>
                    </g>
                </g>
                <path id="path10931" d="M3635.8,88.005L3562.86,53.109L3544.64,-25.738L3594.86,-89.161L3675.7,-89.403L3726.29,-26.28L3708.53,52.673L3635.8,88.005Z" style="fill:none;fill-rule:nonzero;stroke:rgb(137,44,160);stroke-width:4px;stroke-linecap:round;stroke-linejoin:round;"/>
                <path id="path10933" d="M3565.79,32.226L3640.75,32.226" style="fill:none;stroke:rgb(60,110,180);stroke-width:4px;"/>
                <path id="path10935" d="M3601.4,47.217L3705.35,47.217" style="fill:none;stroke:rgb(60,110,180);stroke-width:4px;"/>
                <g id="g10979" transform="matrix(1,0,0,1,2.94975,3.34001)">
                    <path id="path10937" d="M3694.37,41.994C3693.49,36.013 3693.06,29.507 3691.44,21.853C3689.66,12.398 3683.65,4.593 3675.82,1.736C3669.37,-0.513 3655.96,-0.52 3650.27,1.736C3642.45,4.593 3636.43,12.398 3634.66,21.853C3633.03,29.507 3632.61,36.013 3631.73,41.994" style="fill:rgb(204,204,204);stroke:black;stroke-width:3px;"/>
                    <ellipse id="ellipse10939" cx="3680.57" cy="36.708" rx="3.317" ry="3.486" style="fill:rgb(231,232,233);"/>
                    <ellipse id="ellipse10941" cx="3647.05" cy="36.708" rx="3.317" ry="3.486" style="fill:rgb(231,232,233);"/>
                    <g id="g10947" transform="matrix(0.698354,0,0,0.697273,1130.17,45.2259)">
                        <path id="path10943" d="M3612.27,-14.967L3594.62,-10.237" style="fill:none;stroke:rgb(167,169,172);stroke-width:2.87px;"/>
                        <path id="path10945" d="M3614.27,-12.217L3596.52,-1.968" style="fill:none;stroke:rgb(167,169,172);stroke-width:2.87px;"/>
                    </g>
                    <g id="g10953" transform="matrix(-0.698354,0,0,0.697273,6200.21,50.5533)">
                        <path id="path10949" d="M3614.81,-22.607L3597.16,-17.877" style="fill:none;stroke:rgb(167,169,172);stroke-width:2.87px;"/>
                        <path id="path10951" d="M3616.81,-19.857L3599.06,-9.609" style="fill:none;stroke:rgb(167,169,172);stroke-width:2.87px;"/>
                    </g>
                    <ellipse id="ellipse10955" cx="3664.16" cy="34.267" rx="10.65" ry="10.11" style="fill:white;stroke:rgb(96,96,91);stroke-width:3px;stroke-linecap:square;"/>
                    <g id="ellipse10957" transform="matrix(-1,0,0,1,0,0)">
                        <ellipse cx="-3680.46" cy="25.626" rx="5.129" ry="5.251" style="stroke:rgb(137,44,160);stroke-width:3px;stroke-linecap:square;"/>
                    </g>
                    <path id="path10959" d="M3685.06,14.633C3684.03,13.303 3682.4,12.457 3680.72,12.385C3679.14,12.318 3677.54,12.937 3676.41,14.053" style="fill:none;fill-rule:nonzero;stroke:black;stroke-width:3px;stroke-linecap:square;"/>
                    <g id="g10965" transform="matrix(0.698354,0,0,0.697273,1124.2,47.7642)">
                        <g id="g10967">
                            <g id="g109651">
                                <path id="path10961" d="M3637.06,-21.857L3637.44,-14.357C3637.44,-14.357 3643.44,-8.982 3646.94,-14.482C3646.94,-14.482 3646.56,-17.607 3646.31,-18.607" style="fill:none;stroke:black;stroke-width:4.3px;"/>
                                <path id="path10963" d="M3636.99,-21.857L3636.62,-14.357C3636.62,-14.357 3630.62,-8.982 3627.12,-14.482C3627.12,-14.482 3627.49,-17.607 3627.74,-18.607" style="fill:none;stroke:black;stroke-width:4.3px;"/>
                            </g>
                        </g>
                    </g>
                    <path id="path10969" d="M3668.7,32.443C3668.35,31.52 3668.35,29.674 3667.28,29.674C3666.2,29.674 3665.21,28.982 3664.16,28.982C3663.11,28.982 3662.11,29.674 3661.04,29.674C3659.97,29.674 3659.97,31.52 3659.61,32.443C3659.26,33.367 3664.16,36.367 3664.16,36.367C3664.16,36.367 3669.06,33.367 3668.7,32.443Z" style="fill:rgb(128,128,128);fill-rule:nonzero;stroke:black;stroke-width:3px;stroke-linecap:square;"/>
                    <ellipse id="ellipse10971" cx="3647.27" cy="25.626" rx="5.129" ry="5.251" style="stroke:rgb(137,44,160);stroke-width:3px;stroke-linecap:square;"/>
                    <ellipse id="ellipse10973" cx="3645.56" cy="24.148" rx="2.522" ry="2.616" style="fill:white;"/>
                    <path id="path10975" d="M3642.67,14.633C3643.69,13.303 3645.32,12.457 3647,12.385C3648.59,12.318 3650.19,12.937 3651.32,14.053" style="fill:none;fill-rule:nonzero;stroke:black;stroke-width:3px;stroke-linecap:square;"/>
                    <ellipse id="ellipse10977" cx="3679.28" cy="24.492" rx="2.522" ry="2.616" style="fill:white;"/>
                </g>
                <path id="path10981" d="M3593.4,57.217L3641.48,57.217" style="fill:none;stroke:rgb(60,110,180);stroke-width:4px;"/>
                <path id="path10983" d="M3621.4,67.217L3661,67.217" style="fill:none;stroke:rgb(60,110,180);stroke-width:4px;"/>
            </g>
        </g>
    </g>
</svg>
