<svg width="100%" height="100%" viewBox="0 0 18 16" version="1.1" xmlns="http://www.w3.org/2000/svg" xmlns:xlink="http://www.w3.org/1999/xlink" xml:space="preserve" style="fill-rule:evenodd;clip-rule:evenodd;stroke-linejoin:round;stroke-miterlimit:2;"><g id="poetry" transform="matrix(0.025,0,0,0.025,3.39787,1)"><g><g transform="matrix(1,0,0,1,-56.25,0)"><path d="M73.5,465.42L168.08,560C278.641,537.846 380.191,483.406 459.84,403.59C448.12,415.31 435.83,426.46 423.14,437.13L355.57,356.624C278.642,421.251 180.629,461.499 73.5,465.42Z" style="fill:url(#_Radial-8b0nhyy);"/></g><g transform="matrix(1,0,0,1,-56.25,0)"><path d="M56.25,448.17L73.5,465.42C180.629,461.499 278.642,421.251 355.57,356.624L344.402,343.318C313.462,369.357 279.292,390.912 242.929,407.569C213.436,421.097 182.221,431.518 149.704,438.414C119.209,444.896 87.897,448.215 56.25,448.17Z" style="fill:rgb(61,75,194);"/></g><g transform="matrix(1,0,0,1,-56.25,0)"><path d="M56.25,0L56.25,448.17C88.297,448.17 119.56,444.807 149.704,438.414C181.875,431.575 213.138,421.216 242.929,407.569C279.697,390.705 313.789,369.013 344.402,343.318L56.25,0Z" style="fill:url(#_Linear-rn2ouwb);"/></g><g transform="matrix(1,0,0,1,-56.25,0)"><path d="M381.514,308.314C457.688,227.978 504.42,119.449 504.42,0L56.25,0L381.514,308.314Z" style="fill:url(#_Radial-zf81uz7);"/></g><g transform="matrix(1,0,0,1,-56.25,0)"><path d="M56.25,0L344.402,343.318C354.357,334.951 363.961,326.141 373.183,316.908L56.25,0Z" style="fill:url(#_Linear-o0y5w3j);"/></g><g transform="matrix(1,0,0,1,-56.25,0)"><path d="M459.84,403.59L385.481,329.209C375.913,338.77 365.933,347.918 355.57,356.624L423.14,437.13C435.83,426.46 448.12,415.31 459.84,403.59Z" style="fill:url(#_Linear-7lhzcvx);"/></g><g transform="matrix(1,0,0,1,-56.25,0)"><path d="M344.402,343.318L355.57,356.624C365.933,347.918 375.913,338.77 385.481,329.209L373.183,316.908C363.961,326.141 354.357,334.951 344.402,343.318Z" style="fill:rgb(56,70,185);"/></g><g transform="matrix(1,0,0,1,-56.25,0)"><path d="M373.183,316.908C375.98,314.078 378.766,311.213 381.514,308.314L56.25,0L373.183,316.908Z" style="fill:url(#_Linear-ldb8stu);"/></g></g></g><defs><radialGradient id="_Radial-8b0nhyy" cx="0" cy="0" r="1" gradientUnits="userSpaceOnUse" gradientTransform="matrix(-196.632,-30.7292,30.7292,-196.632,330.655,496.63)"><stop offset="0" style="stop-color:rgb(84,98,218);stop-opacity:1"/><stop offset="0.44" style="stop-color:rgb(79,93,212);stop-opacity:1"/><stop offset="1" style="stop-color:rgb(66,80,199);stop-opacity:1"/></radialGradient><linearGradient id="_Linear-rn2ouwb" x1="0" y1="0" x2="1" y2="0" gradientUnits="userSpaceOnUse" gradientTransform="matrix(-119.158,85.7011,-85.7011,-119.158,208.042,226.84)"><stop offset="0" style="stop-color:rgb(0,142,231);stop-opacity:1"/><stop offset="0.46" style="stop-color:rgb(0,139,227);stop-opacity:1"/><stop offset="1" style="stop-color:rgb(0,133,216);stop-opacity:1"/></linearGradient><radialGradient id="_Radial-zf81uz7" cx="0" cy="0" r="1" gradientUnits="userSpaceOnUse" gradientTransform="matrix(746.46,0,0,746.46,65.64,-16.21)"><stop offset="0" style="stop-color:rgb(0,213,255);stop-opacity:1"/><stop offset="0.38" style="stop-color:rgb(0,184,235);stop-opacity:1"/><stop offset="1" style="stop-color:rgb(0,128,197);stop-opacity:1"/></radialGradient><linearGradient id="_Linear-o0y5w3j" x1="0" y1="0" x2="1" y2="0" gradientUnits="userSpaceOnUse" gradientTransform="matrix(211.222,228.672,-228.672,211.222,136.559,87.149)"><stop offset="0" style="stop-color:rgb(0,114,214);stop-opacity:1"/><stop offset="1" style="stop-color:rgb(0,134,212);stop-opacity:1"/></linearGradient><linearGradient id="_Linear-7lhzcvx" x1="0" y1="0" x2="1" y2="0" gradientUnits="userSpaceOnUse" gradientTransform="matrix(51.3621,49.3992,-49.3992,51.3621,385.391,358.672)"><stop offset="0" style="stop-color:rgb(71,85,204);stop-opacity:1"/><stop offset="1" style="stop-color:rgb(81,96,213);stop-opacity:1"/></linearGradient><linearGradient id="_Linear-ldb8stu" x1="0" y1="0" x2="1" y2="0" gradientUnits="userSpaceOnUse" gradientTransform="matrix(186.762,181.414,-181.414,186.762,184.884,125.321)"><stop offset="0" style="stop-color:rgb(151,230,249);stop-opacity:1"/><stop offset="0.48" style="stop-color:rgb(122,216,243);stop-opacity:1"/><stop offset="1" style="stop-color:rgb(41,179,227);stop-opacity:1"/></linearGradient></defs></svg>