<svg width="100%" height="100%" viewBox="0 0 18 16" version="1.1" xmlns="http://www.w3.org/2000/svg" xmlns:xlink="http://www.w3.org/1999/xlink" xml:space="preserve" style="fill-rule:evenodd;clip-rule:evenodd;stroke-linejoin:round;stroke-miterlimit:2;"><g id="poetry" transform="matrix(0.0267857,0,0,0.0267857,9,8)"><g transform="matrix(1,0,0,1,-224.085,-280)"><clipPath id="_clip1"><rect x="0" y="0" width="448.17" height="560"/></clipPath><g clip-path="url(#_clip1)"><g><g><g id="Layer_1"><g transform="matrix(1,0,0,1,-56.25,0)"><path d="M168.08,560C278.641,537.846 380.191,483.406 459.84,403.59L56.25,0L56.25,448.17L168.08,560Z" style="fill:url(#_Linear2);fill-rule:nonzero;"/></g><g transform="matrix(1,0,0,1,-56.25,0)"><path d="M168.08,560C278.641,537.846 380.191,483.406 459.84,403.59L56.25,0L56.25,448.17L168.08,560Z" style="fill:url(#_Radial3);fill-rule:nonzero;"/></g><g transform="matrix(1,0,0,1,-56.25,0)"><path d="M56.25,448.17L73.5,465.42C195.07,460.97 304.9,409.74 385.5,329.19L373.21,316.91C289.265,401.065 175.114,448.337 56.25,448.17Z" style="fill:url(#_Linear4);fill-rule:nonzero;"/></g><g transform="matrix(1,0,0,1,-56.25,0)"><path d="M56.25,448.17C303.77,448.17 504.42,247.52 504.42,0L56.25,0L56.25,448.17Z" style="fill:url(#_Radial5);fill-rule:nonzero;"/></g><g transform="matrix(1,0,0,1,-56.25,0)"><path d="M459.84,403.59L56.25,0L423.14,437.13C435.83,426.46 448.12,415.31 459.84,403.59Z" style="fill:url(#_Linear6);fill-rule:nonzero;"/></g><g transform="matrix(1,0,0,1,-56.25,0)"><path d="M56.25,0L373.16,316.91C375.98,314.077 378.763,311.21 381.51,308.31L56.25,0Z" style="fill:url(#_Radial7);fill-rule:nonzero;"/></g></g></g></g></g></g></g><defs><linearGradient id="_Linear2" x1="0" y1="0" x2="1" y2="0" gradientUnits="userSpaceOnUse" gradientTransform="matrix(679.74,796.18,-796.18,679.74,-228.74,-144.29)"><stop offset="0" style="stop-color:rgb(104,119,236);stop-opacity:1"/><stop offset="0.29" style="stop-color:rgb(151,161,242);stop-opacity:1"/><stop offset="0.77" style="stop-color:rgb(226,228,251);stop-opacity:1"/><stop offset="1" style="stop-color:white;stop-opacity:1"/></linearGradient><radialGradient id="_Radial3" cx="0" cy="0" r="1" gradientUnits="userSpaceOnUse" gradientTransform="matrix(569.94,0,0,569.94,438.3,639.01)"><stop offset="0" style="stop-color:rgb(104,119,236);stop-opacity:1"/><stop offset="0.6" style="stop-color:rgb(83,98,207);stop-opacity:1"/><stop offset="1" style="stop-color:rgb(67,82,185);stop-opacity:1"/></radialGradient><linearGradient id="_Linear4" x1="0" y1="0" x2="1" y2="0" gradientUnits="userSpaceOnUse" gradientTransform="matrix(202.46,445.42,-445.42,202.46,74.77,67.3)"><stop offset="0" style="stop-color:rgb(41,76,167);stop-opacity:1"/><stop offset="0.48" style="stop-color:rgb(150,167,212);stop-opacity:1"/><stop offset="0.84" style="stop-color:rgb(225,230,243);stop-opacity:1"/><stop offset="1" style="stop-color:white;stop-opacity:1"/></linearGradient><radialGradient id="_Radial5" cx="0" cy="0" r="1" gradientUnits="userSpaceOnUse" gradientTransform="matrix(746.46,0,0,746.46,65.64,-16.21)"><stop offset="0" style="stop-color:rgb(0,213,255);stop-opacity:1"/><stop offset="0.38" style="stop-color:rgb(0,184,235);stop-opacity:1"/><stop offset="1" style="stop-color:rgb(0,128,197);stop-opacity:1"/></radialGradient><linearGradient id="_Linear6" x1="0" y1="0" x2="1" y2="0" gradientUnits="userSpaceOnUse" gradientTransform="matrix(601.3,716.53,-716.53,601.3,-151.22,-285.9)"><stop offset="0" style="stop-color:rgb(131,151,204);stop-opacity:1"/><stop offset="0.15" style="stop-color:rgb(151,168,212);stop-opacity:1"/><stop offset="0.73" style="stop-color:rgb(226,230,243);stop-opacity:1"/><stop offset="1" style="stop-color:white;stop-opacity:1"/></linearGradient><radialGradient id="_Radial7" cx="0" cy="0" r="1" gradientUnits="userSpaceOnUse" gradientTransform="matrix(431.37,0,0,431.37,259.68,-34.71)"><stop offset="0" style="stop-color:white;stop-opacity:1"/><stop offset="1" style="stop-color:black;stop-opacity:1"/></radialGradient></defs></svg>