<svg width="100%" height="100%" viewBox="0 0 18 16" version="1.1" xmlns="http://www.w3.org/2000/svg" xmlns:xlink="http://www.w3.org/1999/xlink" xml:space="preserve" style="fill-rule:evenodd;clip-rule:evenodd;stroke-linejoin:round;stroke-miterlimit:2;"><g id="postcss-dark" transform="matrix(0.104336,0,0,0.104336,1.32264,0.387114)"><path d="M145.165,63.618C145.069,61.722 145.021,59.826 144.826,57.932C144.486,55.355 144.147,52.731 143.564,50.204C143.127,48.114 142.402,46.121 141.672,44.129C140.75,41.796 139.828,39.415 138.662,37.18C136.77,33.583 134.295,30.374 132.013,27.021C130.505,24.882 128.565,23.133 127.108,20.946C126.283,19.683 125.07,18.615 123.856,17.645C121.914,16.086 119.876,14.675 117.838,13.316C116.3,12.238 114.712,11.232 113.08,10.302C111.77,9.57 110.363,8.987 109.004,8.355C107.451,7.626 105.946,6.75 104.199,6.411C103.761,6.319 103.373,6.171 102.936,6.024C101.82,5.636 100.752,5.199 99.635,4.858C97.938,4.323 96.287,3.693 94.539,3.254C92.846,2.816 91.098,2.527 89.349,2.282C87.409,1.996 85.421,1.894 83.477,1.704C82.236,1.544 80.99,1.431 79.74,1.365C77.896,1.269 76.004,1.269 74.159,1.221C73.237,1.171 72.267,1.074 71.345,1.123C69.938,1.171 68.531,1.317 67.122,1.511C65.764,1.658 64.405,1.898 63.095,2.095C61.496,2.289 59.896,2.387 58.293,2.582C56.788,2.778 55.235,3.069 53.732,3.313C53.197,3.41 52.662,3.604 52.127,3.7C50.965,3.943 49.752,4.041 48.586,4.43C46.502,5.065 44.413,5.795 42.375,6.57C40.481,7.348 38.636,8.174 36.842,9.146C34.998,10.164 33.249,11.378 31.503,12.547C29.825,13.67 28.189,14.853 26.597,16.094C25.047,17.311 23.59,18.67 22.181,20.031C21.407,20.806 20.774,21.732 20.046,22.606C18.834,24.017 17.62,25.376 16.455,26.835C15.488,28.052 14.611,29.314 13.688,30.579C12.041,32.81 10.634,35.193 9.325,37.576C8.79,38.548 8.305,39.52 7.82,40.49C7.091,41.947 6.315,43.358 5.636,44.865C5.149,45.886 4.762,47.004 4.471,48.122C3.794,50.505 3.113,52.935 2.482,55.315C1.9,57.454 1.754,59.689 1.708,61.877C1.658,63.82 1.852,65.716 2.045,67.66C2.095,68.147 1.806,68.73 2.385,69.117C2.191,69.652 2.337,69.947 2.624,70.039C2.289,70.574 2.772,70.917 2.58,71.404C2.53,71.5 2.728,71.694 2.82,71.84C2.82,71.987 2.774,72.181 2.82,72.326C2.872,72.764 3.065,73.201 3.065,73.688C3.065,74.027 3.355,74.416 3.453,74.757C3.5,74.901 3.453,75.145 3.355,75.242C3.063,75.582 3.111,75.873 3.548,76.069C3.794,76.699 3.696,76.991 3.648,77.286C3.744,77.721 3.598,77.867 3.648,77.964C4.035,78.743 4.183,79.617 4.229,80.491C4.229,80.687 4.327,80.882 4.424,81.124C4.472,81.124 4.424,82.046 4.424,82.046C4.664,81.902 4.862,81.854 5.103,81.756C5.251,82.387 5.395,82.974 5.588,83.508C5.832,83.896 5.832,84.088 5.736,84.135C5.929,85.01 6.025,85.836 6.363,86.662C6.363,85.74 6.271,84.818 6.123,83.942C6.802,84.185 7.385,84.427 7.774,84.427C7.824,84.279 7.871,84.088 7.921,83.99C7.63,83.7 7.386,83.263 7.095,82.972C7.193,83.359 7.095,83.507 7.095,83.654C6.901,83.555 6.658,83.457 6.416,83.359C6.61,83.119 6.804,82.874 7.095,82.584C7.095,82.145 6.855,81.755 6.173,81.804C6.464,81.708 6.756,81.565 7.095,81.465C7.63,81.175 7.047,80.641 7.047,79.96C7.095,79.136 6.61,78.309 6.464,77.433C6.221,76.074 6.271,74.032 6.125,72.671C5.834,72.428 5.59,73.059 5.542,73.108C5.69,74.274 5.834,75.44 5.929,76.607C5.64,75.635 5.444,74.565 5.203,73.398C5.153,73.739 5.105,73.885 5.105,74.08C4.865,74.32 5.057,74.615 5.203,74.955C4.863,74.807 4.474,74.859 4.474,74.859L4.474,76.22C3.991,75.733 3.847,75.346 3.602,75.003C3.506,74.615 3.454,74.228 3.362,73.841C3.454,73.595 3.362,73.45 3.362,73.306C3.305,72.917 3.256,72.527 3.215,72.136C3.263,72.089 3.167,71.362 3.167,71.362C3.554,71.408 3.799,71.454 4.041,71.454C3.556,70.827 3.893,70.436 4.091,70.047C4.188,69.851 4.528,69.807 4.626,69.608C5.013,68.879 5.645,68.298 5.645,67.373C5.645,66.936 5.793,66.45 5.839,66.012C5.937,65.185 6.033,64.359 6.079,63.533C6.178,62.463 6.079,61.393 6.324,60.373C6.715,58.677 7.2,56.974 7.733,55.272C8.12,54.055 8.559,52.893 9.043,51.676C9.771,49.78 10.452,47.884 11.374,46.088C12.683,43.461 14.188,40.935 15.645,38.36C16.567,36.755 17.537,35.249 18.559,33.694C19.527,32.187 20.496,30.632 21.615,29.221C23.152,27.231 24.875,25.392 26.761,23.729C28.703,21.981 30.547,20.182 32.633,18.578C35.345,16.483 38.234,14.628 41.268,13.034C43.745,11.724 46.316,10.699 48.889,9.727C50.539,9.096 52.334,8.805 54.034,8.27C55.975,7.637 57.917,7.348 59.955,7.298C61.264,7.248 62.527,7.103 63.837,6.957C65.002,6.865 66.166,6.765 67.43,6.619C67.282,6.813 67.234,6.911 67.186,7.007C66.655,7.785 66.072,8.563 65.537,9.34C65.1,9.972 64.615,10.653 64.178,11.284C63.4,12.307 62.574,13.327 61.847,14.397C60.731,16.001 59.711,17.654 58.546,19.257C57.384,20.811 56.12,22.27 54.907,23.775C53.306,25.867 51.801,28.004 50.2,30.094C48.743,32.086 47.194,33.985 45.785,35.977C44.523,37.724 43.406,39.573 42.192,41.368C40.398,44.042 38.601,46.665 36.807,49.339C35.398,51.375 33.974,53.4 32.535,55.414C32.438,55.562 32.292,55.606 32.148,55.704C31.761,56.334 31.761,56.676 31.613,56.967C31.226,57.696 30.839,58.424 30.4,59.106C30.156,59.494 29.817,59.833 29.525,60.222C29.478,59.639 30.3,59.348 29.913,58.618C29.673,59.009 29.428,59.348 29.186,59.737L28.603,60.899C28.797,61.047 29.138,61.144 28.797,61.434C28.649,61.679 28.506,61.969 28.36,62.214C28.57,62.091 28.752,61.925 28.895,61.727C28.895,62.262 28.603,62.697 28.36,63.134C28.166,63.522 27.681,63.817 27.342,64.106C27.39,64.156 27.729,64.302 27.779,64.35C28.216,64.202 28.362,63.963 28.412,64.106C28.559,63.913 28.703,63.767 28.751,63.621C28.943,63.134 29.234,62.747 29.719,62.552C29.915,62.454 30.058,62.308 30.204,62.164C31.661,60.656 33.166,59.199 34.476,57.594C36.515,55.114 38.36,52.541 40.304,50.014C41.126,48.944 42.098,47.875 42.97,46.853C43.114,47.971 43.018,49.038 42.97,50.062C42.823,51.858 42.727,53.658 42.583,55.503C42.533,56.231 42.583,56.96 42.533,57.69C42.533,57.884 42.386,58.029 42.386,58.225C42.386,58.71 42.533,59.245 42.533,59.732C42.386,61.53 42.19,63.278 42.045,65.076C41.995,65.464 42.188,65.855 42.284,66.196C42.045,68.819 42.579,71.591 42.14,74.361C42.48,73.826 42.578,73.486 42.578,73.147C42.624,72.856 42.578,72.564 42.578,72.225L42.578,71.738C42.624,70.862 42.817,69.94 42.721,69.064C42.624,68.092 42.624,67.17 42.819,66.246C42.917,65.858 42.771,65.372 43.015,64.885L43.015,65.613C42.967,68.38 43.064,71.152 42.677,73.922C42.627,74.165 42.825,74.604 42.29,74.554C41.851,75.429 42.386,76.061 41.903,76.546C41.803,76.644 41.995,77.081 42.045,77.372C41.849,77.957 41.849,77.957 42.14,78.005C42.188,79.075 42.288,80.045 42.334,81.067C43.109,79.222 42.721,77.323 43.064,75.427C43.112,76.205 43.162,76.983 43.112,77.806C43.112,79.073 43.064,80.286 43.017,81.55C43.017,81.793 42.967,82.037 42.919,82.28C42.771,82.963 42.725,83.641 42.482,84.272C42.288,84.759 42.386,85.489 42.386,86.07L42.386,87.92C42.579,88.746 42.336,89.183 42.482,89.668C42.334,90.157 42.288,90.303 42.334,90.449L42.482,91.177C43.454,91.079 43.017,91.81 43.404,92.197C43.112,92.588 43.21,92.732 43.21,92.929C43.21,93.366 43.164,93.755 43.114,94.192C43.114,95.31 43.066,96.428 43.066,97.497C43.066,97.645 43.114,97.787 43.114,97.933C43.114,98.032 43.066,99.298 43.066,99.298C43.164,99.441 43.066,99.587 42.919,99.733C42.873,99.733 42.727,93.56 42.727,93.56L41.998,93.56C41.903,96.474 42.146,99.098 41.611,101.822C41.028,101.868 40.837,101.966 40.202,101.966C38.697,101.966 37.192,101.966 35.687,102.014C33.891,102.014 32.146,102.062 30.348,102.062C29.478,102.062 28.555,102.162 27.681,102.162C26.516,102.162 25.302,102.014 24.14,102.014C22.342,102.014 20.595,102.162 18.799,102.21C17.49,102.258 16.18,102.258 14.871,102.307C13.995,102.354 13.119,102.4 12.248,102.499C11.861,102.547 11.52,102.693 11.034,102.839C10.887,102.839 10.549,102.791 10.26,102.839C9.771,102.936 9.338,103.226 8.849,103.325C8.12,103.473 7.927,103.665 8.023,104.395L8.023,104.88C7.975,104.976 9.092,104.733 9.092,104.733C8.993,104.733 8.945,105.024 8.797,105.268C9.188,105.12 9.43,105.024 9.673,104.928C10.402,105.269 11.033,105.076 11.614,105.223C13.506,105.706 15.446,105.906 17.386,106.096C18.65,106.193 19.863,106.243 21.125,106.289C22.919,106.387 24.716,106.485 26.51,106.485C28.015,106.485 29.472,106.337 30.973,106.337C33.057,106.337 35.149,106.433 37.235,106.485C37.672,106.485 38.157,106.433 38.642,106.433L42.183,106.433C45.34,106.337 48.494,106.286 51.65,106.193C53.448,106.142 55.292,106.046 57.087,105.996L62.62,105.848C64.755,105.801 66.891,105.801 68.979,105.756C70.58,105.756 72.133,105.701 73.737,105.655C75.53,105.607 77.374,105.461 79.17,105.365C80.142,105.315 81.114,105.218 82.084,105.122C83.25,105.026 84.464,104.882 85.625,104.832C87.374,104.733 89.17,104.685 90.919,104.587C93.102,104.443 95.286,104.249 97.518,104.2C99.557,104.104 101.643,104.152 103.683,104.104C105.479,104.054 107.276,103.956 109.12,103.908L112.182,103.761C112.182,103.761 114.218,103.713 115.238,103.613C116.984,103.517 118.731,103.324 120.479,103.276C121.593,103.226 122.711,103.276 123.827,103.226C125.621,103.178 127.465,103.078 129.262,103.078C129.939,103.078 130.667,103.178 131.541,103.226C131.154,103.567 130.911,103.761 130.619,104.004C130.813,104.052 131.006,104.152 131.202,104.248C130.976,104.407 130.704,104.491 130.427,104.487C130.328,104.733 130.23,104.83 130.132,105.317L131.006,105.317C130.667,105.317 130.376,105.754 130.036,106.046C129.649,105.946 129.308,106.046 129.114,106.581C129.454,106.772 129.406,106.918 129.358,107.116C128.775,107.307 128.338,107.503 128.583,108.134C128.386,108.229 128.144,108.327 127.901,108.473C127.661,108.86 127.222,108.958 127.318,109.493C127.513,109.539 127.705,109.64 127.853,109.685C127.609,109.782 127.368,109.928 127.124,110.024C126.252,110.559 126.641,110.802 126.835,111.046C126.687,111.143 126.543,111.239 126.398,111.289C126.493,111.726 126.637,111.824 126.687,111.824C126.439,112.012 126.196,112.206 125.959,112.407C125.811,112.844 125.617,113.038 125.424,113.329C125.23,113.62 125.132,114.011 124.889,114.301C123.871,115.42 123.142,116.735 121.833,117.608C121.346,117.949 120.911,118.386 120.474,118.825C119.599,119.649 118.823,120.573 117.901,121.352C116.681,122.361 115.419,123.318 114.116,124.218C112.517,125.335 110.916,126.453 109.314,127.523C108.44,128.104 107.469,128.541 106.547,129.076C105.625,129.61 104.751,130.097 103.829,130.63C103.246,131.018 102.711,131.553 102.08,131.848C100.48,132.53 98.779,133.111 97.13,133.744C95.526,134.426 94.364,135.007 93.15,135.444C92.034,135.831 90.869,136.126 89.705,136.366C89.318,136.466 88.879,136.366 88.442,136.416C87.615,136.564 86.791,136.759 85.965,136.855C83.829,137.146 81.693,137.342 79.56,137.633C78.296,137.781 77.083,138.021 75.821,138.168C74.949,138.216 74.027,138.12 73.152,138.12C72.522,138.12 71.843,138.268 71.21,138.17C70.192,138.022 69.172,137.783 68.153,137.587C67.913,137.539 67.57,137.44 67.378,137.539C66.991,137.735 66.648,137.443 66.258,137.539C66.019,137.589 65.775,137.392 65.532,137.392C65.336,137.346 65.093,137.443 64.849,137.392C64.315,137.248 63.831,137.054 63.245,137.102C62.668,137.15 62.083,136.859 61.456,136.715C60.58,136.519 59.759,136.327 58.881,136.13C58.542,136.024 58.217,135.877 57.913,135.693C56.65,135.693 55.823,135.645 55.047,135.352C54.368,135.112 53.737,134.771 53.009,134.869C52.817,134.917 52.671,134.821 52.474,134.821C52.327,134.625 52.185,134.236 52.041,134.236C51.071,134.286 50.488,133.461 49.662,133.216C49.226,133.069 48.887,132.584 48.45,132.438C47.38,132.001 46.51,131.079 45.296,130.933C44.909,130.883 44.521,130.689 44.083,130.546C44.23,130.737 44.322,130.883 44.47,131.029C43.063,130.346 41.753,129.572 40.442,128.841C40.25,128.793 40.104,128.602 39.959,128.502L38.649,127.628C37.921,127.775 37.629,127.48 37.432,127.384C36.123,126.462 34.619,125.878 33.356,124.858C32.821,124.419 32.194,124.127 31.807,123.593C31.124,122.766 30.3,122.183 29.378,121.698C28.651,121.311 27.973,120.872 27.294,120.435C26.953,120.192 26.611,119.9 26.611,119.365C26.611,119.024 26.468,118.683 26.031,118.878C25.837,118.587 25.643,118.248 25.4,118.15C24.817,117.91 24.43,117.468 23.993,117.08C23.555,116.693 23.218,116.158 22.683,115.964C21.711,115.577 21.128,114.751 20.547,114.07C19.186,112.466 17.973,110.714 16.711,109.017C16.613,108.869 16.42,108.772 16.274,108.626C16.468,109.161 16.711,109.598 16.953,110.083C16.47,109.889 16.13,109.548 15.839,109.209C15.789,109.259 19.186,114.847 19.186,114.847C19.481,115.284 19.721,115.723 20.013,116.16C19.416,116.215 18.841,115.908 18.556,115.382C18.12,114.607 17.633,114.12 16.663,114.22C16.56,113.869 16.48,113.511 16.424,113.15C16.226,113.15 16.082,113.15 15.741,113.1C16.424,114.17 17.004,115.092 17.635,116.162C17.39,116.014 17.248,115.918 17.146,115.87C18.019,116.793 18.65,117.96 19.765,118.545C20.009,119.66 21.27,120.195 21.562,121.265C21.322,121.215 21.123,121.167 20.879,121.117C20.492,120.632 20.055,120.147 19.62,119.613C19.716,119.952 19.859,120.243 20.055,120.487C20.638,121.215 21.173,121.944 21.851,122.576C22.095,122.823 22.434,122.921 22.434,123.358C22.821,123.552 22.969,123.598 23.113,123.598C23.212,123.893 23.067,124.33 23.648,124.233C24.035,124.961 24.422,124.961 24.957,124.719C25.59,125.352 25.931,125.402 26.366,125.014C26.366,125.254 26.414,125.498 26.414,125.693C26.608,125.595 26.562,125.45 26.562,125.206C26.801,125.4 26.949,125.498 27.045,125.594C27.53,126.276 27.967,126.907 28.646,127.442C29.568,128.22 30.394,129.046 31.265,129.775C32.965,131.186 34.861,132.353 36.751,133.421C39.083,134.734 41.316,136.143 43.693,137.405C46.556,138.913 49.614,139.935 52.767,140.663C53.933,140.907 55.049,141.148 56.216,141.438C57.231,141.733 58.252,142.17 59.272,142.412C60.825,142.753 62.426,143.044 63.979,143.334C64.316,143.384 64.661,143.434 65.049,143.482C65.482,143.579 66.015,143.384 66.113,143.531C66.356,143.919 66.55,143.723 66.841,143.675C67.181,143.577 67.57,143.577 67.957,143.577C69.316,143.625 70.626,143.917 71.985,143.821C72.28,143.821 72.715,143.576 72.959,144.061C73.394,143.867 73.638,143.867 73.831,143.821C73.883,144.256 73.831,144.256 73.739,144.304C73.639,144.352 73.494,144.402 73.3,144.548C75.047,144.887 76.697,144.935 78.151,144.548C80.677,144.741 82.861,144.45 84.949,143.721C85.142,143.965 85.288,144.304 85.579,143.819C85.675,143.671 85.919,143.622 86.114,143.574C86.549,143.476 87.084,143.282 87.472,143.426C87.911,143.574 88.056,143.186 88.394,143.186C88.978,143.186 89.511,143.137 90.046,143.039C90.338,142.991 90.629,142.845 90.968,142.747C90.636,142.582 90.27,142.498 89.899,142.502C90.483,142.211 91.016,141.967 91.551,141.728C91.453,141.871 91.356,142.065 91.164,142.065L91.841,142.065C91.693,142.065 91.5,142.502 91.258,142.794C93.003,142.356 94.604,141.967 96.158,141.576C95.623,140.558 96.739,140.899 97.128,140.315C96.643,140.462 96.158,140.606 95.671,140.702C97.322,139.878 99.021,139.149 100.669,138.421C100.43,138.712 100.135,138.858 99.701,139.103C99.993,139.149 100.186,139.149 100.332,139.195C101.107,139.441 100.915,138.712 101.156,138.273C102.079,138.273 102.466,138.129 102.903,137.982C103.388,137.834 103.873,137.69 104.36,137.497C105.135,137.157 105.863,136.722 106.639,136.335C106.787,136.283 107.027,136.335 107.222,136.335C107.757,135.992 107.949,135.7 108.095,135.748C108.777,135.846 109.257,135.601 109.452,134.974C109.791,134.728 110.035,134.535 110.276,134.387C111.342,133.804 112.361,133.222 113.43,132.639C113.818,132.639 114.013,132.639 114.109,132.589C114.743,132.294 115.326,131.958 115.907,131.617C115.74,131.548 115.578,131.468 115.422,131.377C115.905,131.278 116.049,131.23 116.344,131.132C117.506,129.767 119.111,128.845 120.322,127.775C120.857,127.727 120.857,127.582 120.857,127.486C121.049,127.242 121.245,126.951 121.484,126.756C122.554,125.784 123.716,124.957 124.688,123.937C126.095,122.525 127.454,121.066 128.716,119.559C129.878,118.198 131.047,116.839 132.017,115.332C133.376,113.242 134.54,111.103 135.754,108.914C136.628,107.361 137.404,105.806 138.28,104.251C138.373,104.104 138.57,103.91 138.716,103.91C140.025,103.763 141.338,103.67 142.6,103.523C142.891,103.475 143.23,103.283 143.522,103.136C143.374,102.892 143.278,102.601 143.135,102.357C142.939,102.062 142.648,101.822 142.452,101.527C142.26,101.288 142.115,100.992 141.969,100.703C141.821,100.463 141.678,100.268 141.532,100.02C141.237,99.486 140.947,98.951 140.702,98.372C140.654,98.224 140.554,97.984 140.606,97.837C141.48,95.943 141.82,93.901 142.644,92.005C143.468,90.061 143.714,87.874 144.101,85.784C144.44,83.792 144.636,81.801 144.876,79.809C145.023,78.4 145.217,77.039 145.263,75.63C145.558,73.394 145.458,71.303 145.41,69.211C145.362,67.367 145.263,65.471 145.171,63.623L145.165,63.618ZM23.395,123.443C23.056,123.056 22.764,122.617 22.425,122.23L22.572,122.082C23.102,122.667 23.637,123.249 24.17,123.882C23.878,123.735 23.539,123.639 23.395,123.443ZM24.17,123.882C24.317,123.832 24.465,123.832 24.609,123.784C24.756,124.028 24.852,124.319 24.996,124.611C24.317,124.561 23.978,124.269 24.171,123.882L24.17,123.882ZM74.648,143.954L74.648,143.806C75.57,143.71 76.443,143.612 77.365,143.517L77.365,143.659C76.443,143.806 75.57,143.898 74.648,143.95L74.648,143.954ZM86.876,142.69C86.199,142.838 85.471,142.936 84.792,143.033C84.548,143.081 84.257,143.325 84.161,142.886C84.063,142.936 83.966,142.936 83.87,142.985C84.109,143.712 84.694,143.129 85.179,143.421C84.109,143.568 83.095,143.664 82.073,143.808L82.073,143.712C82.368,143.664 82.706,143.614 82.996,143.565L82.996,143.421C82.512,143.363 82.026,143.33 81.539,143.323C81.397,143.323 81.201,143.518 81.055,143.566C80.862,143.614 80.668,143.664 80.425,143.664C79.6,143.712 78.776,143.712 77.997,143.76C77.948,143.76 77.85,143.712 77.802,143.712L77.802,143.565C81.053,143.129 84.257,142.692 87.509,142.255C87.558,142.351 87.558,142.449 87.606,142.545C87.315,142.545 87.121,142.646 86.878,142.692L86.876,142.69ZM87.606,142.207C88.724,142.06 89.746,141.964 90.812,141.82C88.58,142.451 87.852,142.546 87.608,142.207L87.606,142.207ZM45.333,44.081C46.882,41.942 48.487,39.802 50.04,37.617C50.525,36.98 50.912,36.3 51.397,35.669C51.545,35.474 51.738,35.378 51.98,35.182L51.932,35.09C52.126,34.845 52.319,34.647 52.417,34.455C52.664,34.068 52.81,33.629 53.003,33.192C53.055,33.117 53.121,33.052 53.197,33.002C53.879,33.342 53.879,32.615 54.119,32.37C54.556,31.883 54.993,31.35 55.381,30.863C55.672,30.475 55.964,30.134 56.207,29.697C56.255,29.55 56.109,29.31 56.059,29.113L55.916,29.113C56.063,29.017 56.207,28.873 56.353,28.773C56.401,28.773 56.401,28.773 56.449,28.725C56.74,28.286 57.031,27.849 57.323,27.46C57.904,26.685 58.535,25.907 59.213,25.228C59.117,25.468 59.02,25.713 58.922,25.907C58.972,25.907 58.972,25.957 59.02,25.957C59.602,25.179 60.233,24.45 60.816,23.67C60.766,23.624 60.718,23.574 60.668,23.574C60.429,23.818 60.233,24.061 59.99,24.304C59.942,24.255 59.894,24.207 59.842,24.207C60.331,23.574 60.816,22.943 61.299,22.215C61.397,22.362 61.495,22.554 61.686,22.943C61.884,22.458 62.077,22.119 62.221,21.778C62.077,21.925 61.884,22.069 61.738,22.217L61.591,22.069L62.465,20.76C63.387,19.447 64.309,18.085 65.231,16.772C65.572,16.287 66.006,15.898 66.301,15.411C67.223,13.567 68.68,12.106 69.794,10.406C70.037,10.066 70.377,9.775 70.668,9.484C70.908,9.189 71.105,9.288 71.299,9.532C72.608,11.184 73.918,12.885 75.227,14.537C76.201,15.754 77.171,16.916 78.093,18.181C79.209,19.738 80.277,21.293 81.395,22.847C82.656,24.646 83.918,26.444 85.131,28.288C86.976,31.012 88.722,33.734 90.566,36.455C91.926,38.447 93.285,40.392 94.594,42.384L92.116,42.384C89.836,42.338 87.505,42.144 85.225,42.24C82.119,42.388 78.966,42.727 75.86,42.971C71.928,43.312 67.948,43.358 64.019,43.358C62.609,43.358 61.201,43.555 59.796,43.653C58.096,43.749 56.445,43.847 54.746,43.893C52.754,43.992 50.818,44.04 48.826,44.09C47.708,44.138 46.545,44.09 45.331,44.09L45.333,44.081ZM101,66.434L101,66.873C100.952,66.873 100.904,66.923 100.806,66.923C100.612,66.24 100.419,65.51 100.175,64.829C99.69,63.418 99.155,62.008 98.281,60.746C97.307,59.387 96.437,57.98 95.463,56.569C95.223,56.227 94.88,55.936 94.589,55.647C93.569,54.527 92.549,53.36 91.24,52.535C89.31,51.325 87.28,50.283 85.172,49.422C84.586,49.171 84.019,48.879 83.475,48.548L84.637,48.548L92.936,48.4C94.733,48.354 96.481,48.354 98.276,48.256C98.711,48.256 98.954,48.404 99.198,48.791C99.633,49.52 100.07,50.248 100.555,50.979C100.605,51.075 100.703,51.218 100.703,51.366C100.703,52.436 100.703,53.553 100.751,54.623C100.797,55.741 100.898,56.81 100.942,57.928C100.942,59.046 100.845,60.211 100.894,61.377C100.944,63.031 100.992,64.733 100.992,66.43L101,66.434ZM48.776,50.16C51.058,50.062 53.24,49.916 55.475,49.819C57.218,49.721 59.016,49.671 60.761,49.575C61.489,49.529 62.17,49.483 62.896,49.575C62.122,49.966 61.343,50.355 60.665,50.84C59.79,51.423 58.968,52.2 58.092,52.832C57.216,53.463 56.439,54.241 55.713,55.067C54.791,56.183 53.771,57.155 52.799,58.225C52.116,59.003 51.342,59.732 50.761,60.558C49.936,61.628 49.208,62.79 48.431,64.007C48.675,59.389 48.966,54.822 48.771,50.156L48.776,50.16ZM80.471,96.913C78.916,97.3 77.317,97.739 75.712,97.933C74.355,98.128 72.946,98.08 71.539,98.08C70.29,98.081 69.043,98.032 67.798,97.933C66.391,97.789 64.984,97.643 63.625,97.011C62.457,96.476 61.246,95.991 60.084,95.406C58.914,94.823 57.751,94.145 56.875,93.075C56.248,92.295 55.372,91.664 54.595,90.983C54.743,91.566 55.08,92.053 55.615,92.392C55.372,92.684 55.032,92.54 54.545,91.76C54.401,91.858 54.256,91.907 54.158,91.955C54.306,91.614 54.449,91.273 54.595,90.983C54.401,90.596 54.158,90.157 53.964,89.766C53.577,89.135 53.19,88.457 52.849,87.824C52.751,87.677 52.751,87.533 52.655,87.387C52.413,87.107 52.185,86.814 51.972,86.511C51.585,85.93 51.246,85.299 50.761,84.715C50.761,84.862 50.811,85.006 50.811,85.202C50.761,85.202 50.713,85.249 50.713,85.249L49.691,82.771C49.643,82.771 49.643,82.771 49.595,82.819L50.468,86.028C50.42,86.028 50.372,86.074 50.32,86.074C50.178,85.882 50.032,85.687 49.933,85.447C49.837,85.056 49.545,85.056 49.306,85.202C49.158,85.299 49.06,85.639 49.11,85.784C49.451,86.611 49.839,87.437 50.228,88.263C50.324,88.554 50.421,88.798 50.567,89.089C50.617,89.187 50.763,89.283 50.763,89.429C50.958,89.816 51.104,90.203 51.345,90.546C51.783,91.129 52.268,91.712 52.705,92.295C53.138,92.877 53.525,93.512 53.915,94.093C53.962,94.191 54.108,94.191 54.154,94.24C54.4,94.969 55.224,95.502 55.807,95.211C55.954,96.328 57.166,96.717 57.651,97.787C57.175,97.593 56.705,97.382 56.244,97.154C56.194,97.202 56.194,97.25 56.144,97.348C56.727,97.639 57.31,97.931 57.841,98.27C58.33,98.565 58.815,98.855 59.252,99.192C59.835,99.727 60.515,100.022 61.336,100.214C61.32,100.143 61.288,100.075 61.244,100.017C62.601,100.649 64.01,101.33 65.076,101.861C60.028,101.961 54.641,102.058 49.058,102.156C49.058,101.234 49.011,100.358 49.011,99.434C49.011,99.047 49.106,98.705 49.057,98.316C48.909,96.085 48.909,93.846 48.62,91.658C48.33,89.327 48.33,87.042 48.38,84.705C48.426,83.446 48.33,82.134 48.28,80.869C48.28,79.169 48.28,77.513 48.332,75.816C48.332,75.572 48.43,75.379 48.527,75.133L48.675,75.133C48.721,75.233 48.675,75.379 48.767,75.429C48.915,75.576 49.158,75.816 49.256,75.768C49.545,75.572 49.982,75.381 50.08,75.086C50.32,74.505 50.42,73.872 50.42,73.289C50.42,72.854 50.615,72.562 50.807,72.269C50.906,72.122 50.954,71.978 51.052,71.784C50.859,71.637 50.665,71.541 50.421,71.347C50.617,70.812 50.569,70.18 51.297,69.89C51.393,69.84 51.393,69.595 51.445,69.451C51.491,69.058 51.537,68.621 51.589,68.234C51.685,68.381 51.736,68.428 51.829,68.523C51.856,68.471 51.889,68.421 51.928,68.376C51.928,68.184 51.88,67.795 51.928,67.795C52.511,67.697 52.268,67.066 52.559,66.775C52.605,66.723 52.509,66.578 52.509,66.48C52.509,66.384 52.509,66.24 52.557,66.24C53.234,66.093 53.138,65.364 53.575,65.023C53.723,64.925 53.769,64.783 53.962,64.538C54.35,65.217 53.671,65.558 53.623,66.043C54.446,65.558 54.689,64.392 54.204,64.051C54.398,63.903 54.591,63.712 54.739,63.516C55.274,62.933 55.853,62.399 56.34,61.816C56.681,61.38 56.875,60.846 57.214,60.409C57.409,60.165 57.797,59.971 58.088,59.824C58.962,59.341 59.785,58.806 60.32,57.98C60.418,57.882 60.563,57.786 60.707,57.688C60.855,57.59 61.146,57.59 61.194,57.445C61.244,57.349 61.098,57.105 61,56.96C61.192,56.862 61.388,56.668 61.775,56.473C61.627,56.764 61.581,56.96 61.484,57.155L61.723,57.395C62.162,57.056 62.841,56.668 63.278,56.377C63.278,56.331 63.035,56.137 63.035,56.137C62.745,56.285 62.308,56.524 61.873,56.72C61.965,56.572 61.965,56.476 62.02,56.429C62.697,55.991 63.376,55.554 64.104,55.211C65.801,54.437 67.502,53.658 69.2,52.93C69.492,52.782 69.883,52.882 70.22,52.882C70.364,52.882 70.46,52.882 70.607,52.834C71.382,52.591 72.16,52.347 72.937,52.152C73.274,52.056 73.661,52.008 74.006,52.008C75.458,52.054 76.915,52.054 78.37,52.152C79.001,52.2 79.584,52.345 80.166,52.539C80.913,52.799 81.643,53.107 82.35,53.461C83.174,53.904 83.951,54.387 84.729,54.922C86.136,55.844 87.446,56.866 88.853,57.692C90.212,58.518 91.28,59.636 92.154,60.901C93.224,62.406 94.436,63.767 94.921,65.613L95.647,68.822C95.795,69.405 96.134,69.988 95.989,70.667C95.743,71.884 95.55,73.147 95.356,74.363C95.26,74.851 95.162,75.34 95.212,75.82C95.304,77.332 94.723,78.641 94.142,80.002C93.947,80.44 93.656,80.878 93.414,81.364C93.533,81.447 93.663,81.513 93.801,81.559L94.238,80.685C94.288,80.685 94.288,80.685 94.336,80.735C94.093,81.413 93.899,82.144 93.654,82.824C93.075,84.331 92.492,85.886 91.763,87.343C91.376,88.169 90.694,88.85 90.21,89.63C89.727,90.308 89.338,91.037 88.853,91.669C88.416,92.204 87.981,92.739 87.396,93.126C86.087,94.098 84.727,95.07 83.32,95.849C82.448,96.384 81.428,96.675 80.458,96.918L80.471,96.913ZM54.601,94.331L54.553,94.381C54.451,94.333 54.306,94.285 54.21,94.187L53.044,92.435C52.948,92.291 52.896,92.145 52.948,91.952C53.483,92.778 54.018,93.556 54.599,94.331L54.601,94.331ZM84.792,100.989C86.974,100.067 88.77,98.757 90.417,97.248C90.662,97.005 90.904,96.763 91.195,96.566C93.235,95.305 94.736,93.554 96.097,91.61C97.65,89.375 98.67,86.848 99.934,84.467C100.019,84.284 100.116,84.105 100.223,83.933C100.125,89.473 100.758,94.915 101.485,100.408C96.002,100.601 90.419,100.795 84.79,100.991L84.792,100.989ZM134.003,99.532C133.955,99.629 133.856,99.727 133.81,99.827C133.76,99.727 133.76,99.582 133.712,99.384C133.421,100.164 132.79,99.775 132.353,99.775C129.734,99.825 127.063,99.825 124.441,99.825C121.918,99.825 119.347,99.825 116.824,99.869C115.997,99.869 115.123,100.063 114.297,100.113C112.309,100.209 110.319,100.26 108.329,100.306C108.181,100.306 108.037,100.067 107.794,99.871C107.709,100.024 107.611,100.17 107.503,100.308C107.451,100.212 107.355,100.116 107.257,99.971C107.209,100.118 107.16,100.262 107.11,100.358L106.97,100.358C106.872,99.679 106.678,99.049 106.678,98.366C106.678,96.909 106.826,95.452 106.872,93.991C106.922,93.313 106.872,92.682 106.872,92.048C107.067,92.195 107.213,92.293 107.407,92.435C107.503,92.245 107.6,92.099 107.698,91.955C107.698,91.955 107.6,91.904 107.503,91.808C107.595,91.758 107.694,91.66 107.694,91.612C107.742,91.465 107.842,91.321 107.842,91.225C107.842,90.884 107.742,90.592 107.694,90.303C107.742,90.303 107.79,90.303 107.842,90.251L108.132,91.708L108.279,91.708C108.084,91.371 108.714,91.077 108.181,90.69C108.133,90.64 108.229,90.349 108.229,90.203C108.082,89.914 107.99,89.622 107.842,89.233C107.89,89.185 108.036,89.135 108.181,89.086C107.988,88.99 107.842,88.894 107.696,88.846C108.181,88.407 108.181,88.163 107.744,87.678C107.844,87.632 107.94,87.632 107.94,87.586C107.94,87.147 107.94,86.71 107.844,86.277C107.746,85.786 107.991,85.207 107.261,84.912C107.309,85.059 107.359,85.155 107.455,85.299C107.455,85.299 107.307,85.349 107.163,85.447C106.533,84.862 106.924,84.082 106.776,83.21C107.115,83.307 107.359,83.405 107.6,83.505C107.503,83.162 107.261,82.773 107.115,82.335L106.918,82.335L106.918,79.126C106.918,79.176 107.257,79.176 107.453,79.226C107.453,79.176 107.499,79.128 107.499,79.078C107.351,78.885 107.158,78.691 106.964,78.448L107.062,78.35C106.675,77.867 106.868,77.188 106.868,77.04L106.868,73.638C107.355,74.125 106.628,74.755 107.355,75.047L107.355,74.562L107.305,74.562C107.257,73.833 107.257,73.105 107.209,72.374L107.113,72.374C107.064,72.474 107.064,72.522 107.014,72.62L106.918,72.62L107.209,61.004C107.694,61.635 108.227,62.221 108.567,62.849C109.684,64.892 111.14,66.642 112.499,68.488C113.664,70.093 114.73,71.841 115.8,73.494C117.11,75.486 118.371,77.478 119.682,79.469C120.653,80.978 121.674,82.485 122.689,83.944C123.611,85.253 124.585,86.518 125.555,87.784C126.377,88.901 127.251,90.019 128.076,91.136C129.048,92.498 130.018,93.857 130.99,95.17C131.473,95.849 132.008,96.529 132.539,97.21C132.834,97.597 133.269,97.892 133.561,98.132C133.515,98.132 133.465,98.132 133.369,98.084C133.517,98.278 133.609,98.423 133.708,98.521C134.243,98.812 134.291,99.104 134,99.543L134.003,99.532ZM136.478,87.385L136.478,87.044C136.478,87.14 136.526,87.284 136.478,87.383L136.478,87.385ZM138.129,65.954C138.079,65.954 137.79,65.659 137.742,65.611C137.692,65.759 137.742,65.903 137.644,66.098C137.594,65.954 137.257,66.002 137.257,65.858C137.207,66.537 137.546,67.218 137.497,67.898C137.644,67.801 138.225,67.751 138.371,67.607C138.421,67.655 138.518,67.703 138.566,67.703C137.594,68.433 137.838,69.16 138.275,69.99C138.371,70.181 138.662,70.571 138.371,70.96C138.275,71.058 138.421,71.347 138.468,71.592L138.61,71.592L138.61,71.685L138.173,71.832C138.077,71.685 137.497,71.397 137.497,71.15L137.497,73.632C137.982,73.78 137.982,74.458 138.175,74.8C138.26,74.681 138.327,74.551 138.373,74.412L138.422,74.457C138.373,74.748 138.325,75.039 138.227,75.333C138.131,75.768 138.033,76.157 137.987,76.594C137.987,76.642 138.079,76.742 138.079,76.788C137.548,78.005 137.84,79.362 137.646,80.624C137.498,81.546 137.646,82.524 137.548,83.494C137.449,84.32 137.253,85.194 137.061,86.02C137.011,86.168 136.914,86.214 136.674,86.312C136.77,85.729 136.722,85.34 136.624,84.805C136.573,84.805 135.942,84.466 135.892,84.466C135.892,85.148 136.279,86.07 136.427,86.845C136.279,86.797 135.698,86.457 135.652,86.457C135.553,87.04 135.553,87.819 135.505,88.449C135.455,88.936 135.02,89.371 134.97,89.906C134.97,90.201 135.309,90.393 135.261,90.88L135.649,90.88C135.649,89.91 136.087,89.036 136.087,88.014L136.231,88.014C136.281,88.112 136.427,88.21 136.379,88.258C136.281,88.792 136.084,89.375 136.135,89.91C136.135,90.201 136.375,90.493 136.283,90.832C136.183,91.127 136.135,91.417 136.086,91.854C136.036,91.61 135.988,91.515 135.988,91.369C135.94,91.369 135.503,91.319 135.453,91.319C135.405,91.61 135.794,91.902 135.744,92.145C135.696,92.193 135.649,92.193 135.551,92.243L133.95,89.908C132.685,88.064 131.423,86.214 130.162,84.32C129.835,83.856 129.542,83.369 129.286,82.863C127.785,80.277 126.115,77.792 124.288,75.425C122.882,73.629 121.761,71.681 120.451,69.791C119.242,67.992 118.028,66.242 116.815,64.442C116.377,63.861 115.844,63.326 115.455,62.694C114.196,60.702 113.076,58.66 111.818,56.668C110.749,55.014 109.587,53.409 108.469,51.807C108.082,51.272 107.694,50.687 107.303,50.104C107.243,50.003 107.21,49.887 107.208,49.769C107.11,48.699 107.012,47.629 106.964,46.609C106.964,45.638 107.062,44.666 107.062,43.644L107.062,42.77C107.062,42.526 107.108,42.333 107.108,42.087C107.154,42.041 107.204,41.943 107.252,41.895C105.845,41.895 104.388,41.844 102.98,41.895C102.058,41.942 101.573,41.552 100.942,40.872C99.098,38.782 97.739,36.401 96.138,34.166C94.629,32.039 93.092,29.932 91.527,27.846C90.264,26.145 89.001,24.493 87.741,22.792C86.332,20.848 84.974,18.904 83.517,16.96C81.752,14.617 79.972,12.284 78.178,9.963C77.348,8.893 76.426,7.874 75.504,6.754C76.137,6.854 76.721,6.95 77.302,6.999L79.633,7.147C81.38,7.289 83.126,7.387 84.871,7.626C86.328,7.824 87.785,8.115 89.29,8.357C92.496,8.892 95.649,9.768 98.707,10.788C100.503,11.37 102.248,12.149 104,12.877C107.929,14.482 111.667,16.426 115.356,18.465C116.518,19.098 117.2,20.118 118.07,21.042C119.334,22.355 120.597,23.666 121.809,25.026C123.214,26.63 124.524,28.283 125.885,29.935C127.097,31.392 128.356,32.849 129.573,34.31C129.961,34.747 130.256,35.282 130.591,35.767C131.366,36.934 132.242,38.054 132.921,39.315C133.404,40.241 133.695,41.311 134.035,42.331C134.518,43.837 135.005,45.294 135.492,46.801C135.829,47.919 136.119,49.088 136.362,50.25C136.558,51.03 136.51,51.855 136.75,52.629C137.045,53.655 136.75,54.769 137.045,55.792C137.091,55.89 137.137,56.036 137.189,56.133C137.382,56.325 137.528,56.521 137.236,56.812C137.19,56.86 137.19,57.052 137.236,57.199C137.336,57.104 137.384,57.006 137.482,56.86C137.482,56.958 137.528,57.008 137.528,57.054C137.528,57.246 137.478,57.441 137.528,57.635C137.528,57.731 137.624,57.874 137.672,57.974C137.769,57.874 137.865,57.827 138.059,57.679C138.496,59.333 138.546,60.986 138.546,62.686C138.546,64.291 138.836,65.895 138.159,67.45C138.302,66.915 137.963,66.426 138.109,65.941L138.129,65.954Z" style="fill:rgb(221,58,10);"/></g></svg>