<svg width="100%" height="100%" viewBox="0 0 18 16" version="1.1" xmlns="http://www.w3.org/2000/svg" xmlns:xlink="http://www.w3.org/1999/xlink" xml:space="preserve" style="fill-rule:evenodd;clip-rule:evenodd;stroke-miterlimit:10;"><g id="pre-commit" transform="matrix(0.008,0,0,0.008,9,8)"><g transform="matrix(1,0,0,1,-1000,-1000)"><g transform="matrix(1.33333,0,0,-1.33333,0,2000)"><path d="M665.147,130.852L130.853,665.147C83.99,712.009 83.99,787.989 130.853,834.852L665.147,1369.15C712.01,1416.01 787.99,1416.01 834.853,1369.15L1369.15,834.853C1416.01,787.99 1416.01,712.01 1369.15,665.147L834.853,130.852C787.99,83.99 712.01,83.99 665.147,130.852" style="fill:rgb(250,176,64);fill-rule:nonzero;"/><path d="M687.775,233.225L233.225,687.775C198.859,722.141 198.859,777.86 233.225,812.225L687.775,1266.78C722.14,1301.14 777.859,1301.14 812.225,1266.78L1266.78,812.225C1301.14,777.86 1301.14,722.141 1266.78,687.775L812.225,233.225C777.859,198.86 722.14,198.86 687.775,233.225Z" style="fill:none;fill-rule:nonzero;stroke:rgb(4,5,33);stroke-width:34px;"/><path d="M784.672,763.286C796.768,763.286 808.412,764.179 819.615,765.974C830.809,767.759 840.668,771.234 849.184,776.39C857.688,781.535 864.524,788.822 869.68,798.23C874.824,807.638 877.406,819.954 877.406,835.19C877.406,850.415 874.824,862.742 869.68,872.15C864.524,881.558 857.688,888.834 849.184,893.99C840.668,899.135 830.809,902.61 819.614,904.406C808.412,906.191 796.768,907.094 784.672,907.094L702.687,907.094L702.687,763.286L784.672,763.286ZM813.567,989.078C843.576,989.078 869.111,984.71 890.176,975.974C911.226,967.238 928.363,955.699 941.582,941.366C954.791,927.023 964.432,910.674 970.479,892.31C976.527,873.935 979.551,854.898 979.551,835.19C979.551,815.922 976.527,796.99 970.479,778.406C964.432,759.81 954.791,743.346 941.582,729.014C928.362,714.671 911.227,703.142 890.176,694.406C869.111,685.67 843.576,681.302 813.566,681.302L702.686,681.302L702.686,509.27L597.184,509.27L597.184,989.078L813.567,989.078Z" style="fill-rule:nonzero;"/></g></g></g></svg>