<svg width="100%" height="100%" viewBox="0 0 18 16" version="1.1" xmlns="http://www.w3.org/2000/svg" xmlns:xlink="http://www.w3.org/1999/xlink" xml:space="preserve" style="fill-rule:evenodd;clip-rule:evenodd;"><g id="prefixdev" transform="matrix(0.416951,0,0,0.416951,21.1494,4.77096)"><g transform="matrix(1,0,0,1,-48.5259,-11.6428)"><path d="M22.434,2.216L32.735,8.163C34.62,9.252 35.781,11.263 35.781,13.44L35.781,25.334C35.781,27.511 34.62,29.523 32.735,30.611L22.434,36.559C20.549,37.647 18.226,37.647 16.341,36.559L6.04,30.611C4.154,29.523 2.993,27.511 2.993,25.334L2.993,13.44C2.993,11.263 4.154,9.252 6.04,8.163L16.341,2.216C18.226,1.127 20.549,1.127 22.434,2.216Z" style="fill:url(#_Linear-mdsks7w);fill-rule:nonzero;stroke:black;stroke-width:0.79px;"/></g><g transform="matrix(1,0,0,1,-48.5259,-11.6428)"><path d="M5.777,13.533L16.078,19.48C18.085,20.639 20.559,20.639 22.566,19.48L32.867,13.533" style="fill:none;fill-rule:nonzero;stroke:url(#_Linear-whhrqds);stroke-width:0.32px;"/></g><g transform="matrix(1,0,0,1,-48.5259,-11.6428)"><g><path d="M8,22.236L8,31.494" style="fill:none;fill-rule:nonzero;stroke:url(#_Linear-v55ix71);stroke-width:0.32px;"/><path d="M6,20L6,30.287" style="fill:none;fill-rule:nonzero;stroke:url(#_Linear-p817zu1);stroke-width:0.32px;"/><path d="M10,25.243L10,32.602" style="fill:none;fill-rule:nonzero;stroke:url(#_Linear-8p472uu);stroke-width:0.32px;"/><path d="M12,28.25L12,33.868" style="fill:none;fill-rule:nonzero;stroke:url(#_Linear-o4jz2ym);stroke-width:0.32px;"/></g></g></g><defs><linearGradient id="_Linear-mdsks7w" x1="0" y1="0" x2="1" y2="0" gradientUnits="userSpaceOnUse" gradientTransform="matrix(2.37425e-15,38.7744,-38.7744,2.37425e-15,19.3872,0)"><stop offset="0" style="stop-color:rgb(255,245,0);stop-opacity:1"/><stop offset="0.69" style="stop-color:rgb(255,192,0);stop-opacity:1"/><stop offset="1" style="stop-color:rgb(255,122,0);stop-opacity:1"/></linearGradient><linearGradient id="_Linear-whhrqds" x1="0" y1="0" x2="1" y2="0" gradientUnits="userSpaceOnUse" gradientTransform="matrix(5.37834e-16,-8.7835,8.7835,5.37834e-16,19.308,22.3941)"><stop offset="0" style="stop-color:black;stop-opacity:1"/><stop offset="1" style="stop-color:black;stop-opacity:0.24"/></linearGradient><linearGradient id="_Linear-v55ix71" x1="0" y1="0" x2="1" y2="0" gradientUnits="userSpaceOnUse" gradientTransform="matrix(7.12273e-16,11.6323,-11.6323,7.12273e-16,9.85959,22.236)"><stop offset="0" style="stop-color:black;stop-opacity:0"/><stop offset="1" style="stop-color:black;stop-opacity:1"/></linearGradient><linearGradient id="_Linear-p817zu1" x1="0" y1="0" x2="1" y2="0" gradientUnits="userSpaceOnUse" gradientTransform="matrix(6.29903e-16,10.2871,-10.2871,6.29903e-16,6.5,20)"><stop offset="0" style="stop-color:black;stop-opacity:0"/><stop offset="1" style="stop-color:black;stop-opacity:1"/></linearGradient><linearGradient id="_Linear-8p472uu" x1="0" y1="0" x2="1" y2="0" gradientUnits="userSpaceOnUse" gradientTransform="matrix(7.12273e-16,11.6323,-11.6323,7.12273e-16,9.8813,22.236)"><stop offset="0" style="stop-color:black;stop-opacity:0"/><stop offset="1" style="stop-color:black;stop-opacity:1"/></linearGradient><linearGradient id="_Linear-o4jz2ym" x1="0" y1="0" x2="1" y2="0" gradientUnits="userSpaceOnUse" gradientTransform="matrix(7.12273e-16,11.6323,-11.6323,7.12273e-16,10.1404,22.236)"><stop offset="0" style="stop-color:black;stop-opacity:0"/><stop offset="1" style="stop-color:black;stop-opacity:1"/></linearGradient></defs></svg>