<svg width="100%" height="100%" viewBox="0 0 18 16" version="1.1" xmlns="http://www.w3.org/2000/svg" xmlns:xlink="http://www.w3.org/1999/xlink" xml:space="preserve" style="fill-rule:evenodd;clip-rule:evenodd;stroke-linejoin:round;stroke-miterlimit:2;"><g id="prisma" transform="matrix(0.966667,0,0,0.966667,0.3,0.266667)"><g transform="matrix(0.46875,0,0,0.46875,2.8866,0.5)"><path d="M0.235,20.279C-0.083,20.797 -0.078,21.451 0.248,21.965L6.14,31.26C6.522,31.863 7.26,32.138 7.944,31.933L24.948,26.831C25.876,26.553 26.342,25.518 25.937,24.638L15.006,0.926C14.473,-0.23 12.866,-0.325 12.2,0.761L0.235,20.279Z" style="fill:white;"/></g><g transform="matrix(0.410156,0,0,0.410156,3.65077,1.4375)"><path d="M0.235,20.279C-0.083,20.797 -0.078,21.451 0.248,21.965L6.14,31.26C6.522,31.863 7.26,32.138 7.944,31.933L24.948,26.831C25.876,26.553 26.342,25.518 25.937,24.638L15.006,0.926C14.473,-0.23 12.866,-0.325 12.2,0.761L0.235,20.279ZM14.716,6.347C14.483,5.81 13.696,5.892 13.581,6.467L9.373,27.421C9.284,27.863 9.698,28.24 10.13,28.111L21.878,24.604C22.221,24.502 22.397,24.123 22.255,23.794L14.716,6.347Z" style="fill:rgb(26,32,44);"/></g></g></svg>