<svg width="100%" height="100%" viewBox="0 0 18 16" version="1.1" xmlns="http://www.w3.org/2000/svg" xmlns:xlink="http://www.w3.org/1999/xlink" xml:space="preserve" style="fill-rule:evenodd;clip-rule:evenodd;stroke-linejoin:round;stroke-miterlimit:2;"><g transform="matrix(0.034375,0,0,0.034375,9,8)"><g id="psd" transform="matrix(1,0,0,1,-256,-256)"><g id="Layer_2_1_"><g id="Surfaces"><g id="Photo_Surface"><g id="Outline_no_shadow"><path d="M110.69,36.62L401.31,36.62C445.37,36.62 481,72.24 481,116.31L481,395.69C481,439.75 445.38,475.38 401.31,475.38L110.69,475.38C66.63,475.38 31,439.76 31,395.69L31,116.31C31,72.25 66.62,36.62 110.69,36.62Z" style="fill:rgb(0,30,54);fill-rule:nonzero;"/></g></g></g><g id="Outlined_Mnemonics_Logos"><g id="Ps"><path d="M132.25,344.31L132.25,151.38C132.25,150.07 132.81,149.32 134.13,149.32C137.32,149.32 140.32,149.32 144.63,149.13C149.13,148.94 153.82,148.94 158.88,148.75C163.94,148.56 169.38,148.56 175.19,148.37C181,148.18 186.63,148.18 192.25,148.18C207.63,148.18 220.37,150.06 230.87,153.99C240.25,157.18 248.87,162.43 255.99,169.37C261.99,175.37 266.68,182.68 269.68,190.75C272.49,198.62 273.99,206.69 273.99,215.13C273.99,231.25 270.24,244.57 262.74,255.07C255.24,265.57 244.74,273.45 232.55,277.95C219.8,282.64 205.74,284.32 190.36,284.32C185.86,284.32 182.86,284.32 180.98,284.13C179.1,283.94 176.48,283.94 172.92,283.94L172.92,344.13C173.11,345.44 172.17,346.57 170.86,346.75L134.5,346.75C133,346.75 132.25,346 132.25,344.31ZM173.12,185.5L173.12,248.5C175.75,248.69 178.18,248.88 180.43,248.88L190.37,248.88C197.68,248.88 204.99,247.76 211.93,245.5C217.93,243.81 223.18,240.25 227.31,235.56C231.25,230.87 233.12,224.5 233.12,216.25C233.31,210.44 231.81,204.63 228.81,199.56C225.62,194.68 221.12,190.94 215.69,188.87C208.75,186.06 201.25,184.93 193.57,185.12C188.69,185.12 184.38,185.12 180.82,185.31C177.06,185.12 174.44,185.31 173.12,185.5Z" style="fill:rgb(49,168,255);fill-rule:nonzero;"/><path d="M391,237.06C385.38,234.06 379.38,232 373,230.68C366.06,229.18 359.12,228.24 352,228.24C348.25,228.05 344.31,228.61 340.75,229.55C338.31,230.11 336.25,231.43 334.94,233.3C334,234.8 333.44,236.68 333.44,238.36C333.44,240.05 334.19,241.74 335.32,243.24C337.01,245.3 339.26,246.99 341.7,248.3C346.01,250.55 350.51,252.61 355.01,254.49C365.13,257.87 374.89,262.55 383.89,268.18C390.08,272.12 395.14,277.37 398.7,283.74C401.7,289.74 403.2,296.3 403.01,303.05C403.2,311.86 400.57,320.67 395.7,327.99C390.45,335.49 383.14,341.3 374.7,344.68C365.51,348.62 354.26,350.68 340.76,350.68C332.13,350.68 323.7,349.93 315.26,348.24C308.7,347.11 302.14,345.05 296.14,342.24C294.83,341.49 293.89,340.18 294.08,338.68L294.08,306.06C294.08,305.5 294.27,304.75 294.83,304.37C295.39,303.99 295.95,304.18 296.52,304.56C303.83,308.87 311.52,311.87 319.77,313.75C326.89,315.63 334.39,316.56 341.89,316.56C349.02,316.56 354.08,315.62 357.45,313.94C360.45,312.63 362.51,309.44 362.51,306.06C362.51,303.44 361.01,301 358.01,298.56C355.01,296.12 348.82,293.31 339.63,289.75C330.07,286.37 321.25,281.87 313.01,276.25C307.2,272.13 302.32,266.69 298.76,260.31C295.76,254.31 294.26,247.75 294.45,241.19C294.45,233.13 296.7,225.44 300.83,218.5C305.52,211 312.45,205 320.52,201.25C329.33,196.75 340.4,194.69 353.71,194.69C361.4,194.69 369.27,195.25 376.96,196.38C382.58,197.13 388.02,198.63 393.09,200.69C393.84,200.88 394.59,201.63 394.97,202.38C395.16,203.13 395.34,203.88 395.34,204.63L395.34,235.19C395.34,235.94 394.97,236.69 394.4,237.07C392.69,237.44 391.75,237.44 391,237.06Z" style="fill:rgb(49,168,255);fill-rule:nonzero;"/></g></g></g></g><g id="psd1"></g></g></svg>