<svg width="100%" height="100%" viewBox="0 0 18 16" version="1.1" xmlns="http://www.w3.org/2000/svg" xmlns:xlink="http://www.w3.org/1999/xlink" xml:space="preserve" style="fill-rule:evenodd;clip-rule:evenodd;stroke-linejoin:round;stroke-miterlimit:2;"><g id="pug" transform="matrix(0.124879,0,0,0.124879,0.976518,-0.205919)"><path d="M107.4,50.9C107.2,46.5 107.8,42.6 105.8,39.3C101,31.1 89,26.3 65,26.3L65,27L64.5,27L65,27L65,26.3C41,26.3 28.4,31.1 23.6,39.4C21.7,42.8 21.9,46.6 21.6,51C21.4,54.5 19.8,58.2 20.5,62.2C21.3,67.4 21.6,72.6 22.4,77.4C23,81.3 28.4,84.6 28.9,88.3C30.3,98.5 40.9,103.2 64.9,103.2L64.9,104L64.3,104L65,104L65,103.2C89,103.2 99.2,98.5 100.5,88.3C101,84.5 106,81.3 106.6,77.4C107.4,72.6 107.7,67.4 108.5,62.2C109.2,58.2 107.6,54.4 107.4,50.9Z" style="fill:rgb(239,204,163);fill-rule:nonzero;"/><path d="M64.6,54.5C68.9,54.6 71.9,57.3 74.7,59.8C78,62.7 83.6,64.7 85.9,67.2C88.2,69.7 91.2,72.2 92.3,76.1C93.4,80 93.7,85 93.7,86.3C93.7,87.6 94.4,87.3 96.4,86.3C101.1,84 106.3,77.8 106.3,77.8C105.7,81.7 100.6,85.2 100.1,88.9C98.9,99.1 89,104 64.5,104L64.4,104L65,104" style="fill:rgb(204,172,141);fill-rule:nonzero;"/><path d="M80.4,46.7C81.3,49.8 84.5,60.3 78.3,56.8C78.3,56.8 80.9,58.3 82.5,64C84.2,69.7 88.3,70.4 88.3,70.4C88.3,70.4 95,71.7 100,67.4C104.2,63.8 104.9,57.4 103.1,52.5C101.3,47.7 98.1,46.2 93.4,45.2C88.7,44.1 79.3,43.2 80.4,46.7Z" style="fill:rgb(204,172,141);fill-rule:nonzero;"/><g><circle cx="92.3" cy="58.1" r="8.8"/><circle cx="90" cy="54.2" r="2.3" style="fill:white;"/></g><path d="M78.9,57.7C78.9,57.7 86.8,63.1 91.1,68.4C95.4,73.7 95.3,74.7 95.3,74.7L92.2,76.1C92.2,76.1 87.8,67.8 82.4,64.7C76.9,61.6 76.3,59 76.3,59L78.9,57.7Z" style="fill:rgb(239,204,163);fill-rule:nonzero;"/><path d="M64.9,54.5C60.6,54.6 57.4,57.3 54.5,59.8C51.2,62.7 45.4,64.7 43.1,67.2C40.8,69.7 37.7,72.2 36.6,76.1C35.5,80 35.1,85 35.1,86.3C35.1,87.6 35.3,87.7 32.4,86.3C27.7,84.1 22.5,77.8 22.5,77.8C23.1,81.7 28.2,85.2 28.7,88.9C30.1,99.1 40,104 64.5,104L65,104" style="fill:rgb(204,172,141);fill-rule:nonzero;"/><path d="M88.1,71.4C83.3,65.5 75.6,60 64.9,60L64.8,60C54.1,60 46.4,65.5 41.6,71.4C36.6,77.5 37,79.9 37,85.7C37,106.7 44.4,100.7 49.3,103.3C54.3,105.8 59.5,105 64.8,105L64.9,105C70.3,105 75.4,105.7 80.4,103.2C85.3,100.7 92.7,106.9 92.7,85.9C92.8,80.1 93.1,77.5 88.1,71.4Z" style="fill:rgb(86,51,43);fill-rule:nonzero;"/><path d="M64.4,65.2C64.4,65.2 63.7,74.9 62.3,76.8L64.9,76.2L64.4,65.2Z" style="fill:rgb(68,40,35);fill-rule:nonzero;"/><path d="M65.1,65.2C65.1,65.2 65.8,74.9 67.2,76.8L64.6,76.2L65.1,65.2Z" style="fill:rgb(68,40,35);fill-rule:nonzero;"/><path d="M56.7,62.9C55.7,60.6 59.3,56.9 65,56.8C70.7,56.8 74.3,60.5 73.3,62.9C72.3,65.3 68.7,66 65,66.1C61.4,66 57.7,65.3 56.7,62.9Z" style="fill:rgb(86,51,43);fill-rule:nonzero;"/><path d="M65,65.2C65,64.8 68.4,64.7 70.2,63.5C70.2,63.5 66.5,64.7 65.7,64.2C64.9,63.8 64.7,62.6 64.7,62.6C64.7,62.6 64.4,63.8 63.8,64.2C63.1,64.6 58.9,63.5 58.9,63.5C58.9,63.5 64.5,64.9 64.5,65.2C64.5,65.5 64.4,66.5 64.4,67.2C64.4,69.7 64.4,75.9 64.8,76.4C65.4,77.3 65.2,69.7 65.2,67.2C65.1,66.4 65.1,65.6 65,65.2Z" style="fill-rule:nonzero;"/><path d="M65.2,78.6C66.9,78.6 69.9,79.8 72.6,81.7C70,78.8 66.9,76.8 65.2,76.8C63.4,76.8 59.6,79 56.9,82.2C59.7,80 63.3,78.6 65.2,78.6Z" style="fill:rgb(127,74,65);fill-rule:nonzero;"/><path d="M64.5,96.3C60.7,96.3 57,95.1 53.6,94.2C52.9,94 52.2,94.5 51.5,94.3C45.2,92.3 40.1,88.9 37,84.6L37,85.6C37,106.6 44.4,100.7 49.3,103.2C54.3,105.7 59.5,104.9 64.8,104.9L64.9,104.9C70.3,104.9 75.4,105.6 80.4,103.1C85.3,100.6 92.7,106.7 92.7,85.7C92.7,84.9 92.7,84.1 92.8,83.4C89.9,88.1 84.6,91.8 78,94C77.4,94.2 76,93.7 75.4,93.8C71.8,95 68.6,96.3 64.5,96.3Z" style="fill:rgb(68,40,35);fill-rule:nonzero;"/><path d="M55,85C55,85 52.5,92.5 54.2,95.8L51.9,94.8C51.9,94.8 53.6,87.2 55,85Z" style="fill:rgb(68,40,35);fill-rule:nonzero;"/><path d="M74.8,85C74.8,85 77.3,92.5 75.6,95.8L77.9,94.8C77.9,94.8 76.1,87.2 74.8,85Z" style="fill:rgb(68,40,35);fill-rule:nonzero;"/><path d="M48.6,46.7C47.7,49.8 44.5,60.3 50.7,56.8C50.7,56.8 48.1,58.3 46.5,64C44.9,69.7 40.7,70.4 40.7,70.4C40.7,70.4 34,71.7 29,67.4C24.8,63.8 24.1,57.4 25.9,52.5C27.7,47.6 30.9,46.2 35.6,45.2C40.3,44.1 49.6,43.2 48.6,46.7Z" style="fill:rgb(204,172,141);fill-rule:nonzero;"/><path d="M64.9,76.8C67.6,76.8 76,82.6 76.1,89.7L76.1,89.3C76.1,81.9 69.3,76 64.9,76C60.5,76 53.7,82 53.7,89.3L53.7,89.7C53.8,82.6 62.2,76.8 64.9,76.8Z" style="fill-rule:nonzero;"/><g><g transform="matrix(0.9683,-0.2497,0.2497,0.9683,-13.2339,18.6065)"><ellipse cx="66.7" cy="61.5" rx="0.8" ry="1.5" style="fill:rgb(51,23,18);"/></g><g transform="matrix(0.9551,0.2963,-0.2963,0.9551,21.0115,-15.7209)"><ellipse cx="62.4" cy="61.5" rx="0.8" ry="1.5" style="fill:rgb(51,23,18);"/></g></g><g><circle cx="37.2" cy="58.1" r="8.8"/><circle cx="39.5" cy="54.2" r="2.3" style="fill:white;"/></g><g><path d="M67.5,58.2C67.5,58.1 65.2,59.2 64.6,59.3C64,59.2 61.7,58.1 61.7,58.2L67.5,58.2Z" style="fill:rgb(127,74,65);fill-rule:nonzero;"/></g><path d="M50,57.7C50,57.7 42.1,63.1 37.8,68.4C33.5,73.7 33.6,74.7 33.6,74.7L36.7,76.1C36.7,76.1 41.1,67.8 46.5,64.7C51.9,61.6 52.6,59 52.6,59L50,57.7Z" style="fill:rgb(239,204,163);fill-rule:nonzero;"/><path d="M32.7,41.7C32.7,41.7 30,49.1 24,52.2C24,52.2 33.4,51.1 32.7,41.7Z" style="fill:rgb(204,172,141);fill-rule:nonzero;"/><path d="M95.8,41.7C95.8,41.7 98.5,49.1 104.5,52.2C104.5,52.2 95.1,51.1 95.8,41.7Z" style="fill:rgb(204,172,141);fill-rule:nonzero;"/><path d="M78.7,55.5C78.7,55.5 72.8,49.3 64.9,49.1C64.8,49.1 65.1,49.1 65,49.1C64.9,49.1 65.1,49.1 65.1,49.1C57.1,49.3 51.3,55.5 51.3,55.5C58.2,50.7 64.1,50.8 65.1,50.8C65,50.8 71.8,50.7 78.7,55.5Z" style="fill:rgb(204,172,141);fill-rule:nonzero;"/><path d="M71.8,42.5C71.8,42.5 68.8,38.3 64.8,38.2L65,38.2C62,38.3 58.1,42.5 58.1,42.5C61.5,39.2 65,39.3 65,39.3C65,39.3 68.3,39.2 71.8,42.5Z" style="fill:rgb(204,172,141);fill-rule:nonzero;"/><path d="M37.2,73.2C37.2,73.2 32.5,75.5 29.1,74.1L29,74.1C26,72.4 24.5,67.3 24.5,67.3C24.5,67.3 27.5,76.3 37.2,73.2Z" style="fill:rgb(204,172,141);fill-rule:nonzero;"/><path d="M92,73.2C92,73.2 96.7,75.5 100.1,74.1C104.1,72.4 104.7,67.3 104.7,67.3C104.7,67.3 101.7,76.3 92,73.2Z" style="fill:rgb(204,172,141);fill-rule:nonzero;"/><g><path d="M42.6,41.2C45.2,40.7 49.5,40.6 52.9,41.7C57.2,43.2 53.7,48.7 54.6,49C55.5,49.3 56.7,45.2 64.7,45.6C72.8,46 73.7,49.6 74.8,49C75.9,48.4 73.7,39 85.8,41.2C85.8,41.2 73.1,37.8 73.7,47C73.7,47 66.4,41.4 56.2,46.4C56.3,46.4 58.9,37.8 42.6,41.2Z" style="fill:rgb(204,172,141);fill-rule:nonzero;"/></g><path d="M86.9,41.2C87.1,41.2 87.2,41.3 87.3,41.3C87.4,41.3 87.2,41.2 86.9,41.2Z" style="fill:rgb(204,172,141);fill-rule:nonzero;"/><path d="M86.9,41.2L86.9,41.2Z" style="fill:rgb(204,172,141);fill-rule:nonzero;"/><path d="M39.1,28.9C39.1,28.9 28.3,42.5 26.7,47.7C25.1,53 23.9,74.7 22.5,77.8L17.5,56.4L26.7,34.1L39.1,28.9Z" style="fill:rgb(204,172,141);fill-rule:nonzero;"/><path d="M89.9,28.9C89.9,28.9 100.7,42.5 102.3,47.7C103.9,53 105.1,74.7 106.5,77.8L111.5,56.4L102.3,34.1L89.9,28.9Z" style="fill:rgb(204,172,141);fill-rule:nonzero;"/><path d="M89.4,28.9C89.4,28.9 101,38.6 104.4,49.8C107.8,61 106.4,74.6 109,76.3C112.7,78.7 116.9,64.4 118.3,62.9C120.5,60.5 127.8,54.4 128.3,53.3C128.8,52.2 113.5,35.5 106.8,32.2C98.7,28.4 88.7,28.1 89.4,28.9Z" style="fill:rgb(86,51,43);fill-rule:nonzero;"/><path d="M99.3,34.9C99.3,34.9 113,52.4 112.8,74.2L118.3,63C118.2,63 113.4,48.7 99.3,34.9Z" style="fill:rgb(68,40,35);fill-rule:nonzero;"/><path d="M39.1,28.9C39.1,28.9 27.5,38.6 24.1,49.8C20.7,61 22.1,74.6 19.5,76.3C15.8,78.7 11.6,64.4 10.2,62.9C8,60.5 0.7,54.4 0.2,53.3C-0.3,52.2 15,35.5 21.7,32.2C29.8,28.4 39.8,28.1 39.1,28.9Z" style="fill:rgb(86,51,43);fill-rule:nonzero;"/><path d="M29.2,34.9C29.2,34.9 15.5,52.4 15.7,74.2L10.3,63C10.3,63 15.1,48.7 29.2,34.9Z" style="fill:rgb(68,40,35);fill-rule:nonzero;"/><path d="M21.8,74.6C21.8,74.6 22.8,80 24.4,81.7C26,83.4 24.9,80.4 24.9,80.4C24.9,80.4 23.2,79.5 23.5,72.6C23.8,65.7 21.8,74.6 21.8,74.6Z" style="fill:rgb(204,172,141);fill-rule:nonzero;"/><path d="M107.1,74.6C107.1,74.6 106.1,80 104.5,81.7C102.9,83.4 104,80.4 104,80.4C104,80.4 105.7,79.5 105.4,72.6C105.1,65.7 107.1,74.6 107.1,74.6Z" style="fill:rgb(204,172,141);fill-rule:nonzero;"/><g><circle cx="54.5" cy="70.5" r="0.8" style="fill:rgb(68,40,35);"/><circle cx="49.9" cy="75.3" r="0.8" style="fill:rgb(68,40,35);"/><circle cx="48.4" cy="70.5" r="0.8" style="fill:rgb(68,40,35);"/></g><g><circle cx="74" cy="70.5" r="0.8" style="fill:rgb(68,40,35);"/><circle cx="78.6" cy="75.3" r="0.8" style="fill:rgb(68,40,35);"/><circle cx="80.1" cy="70.5" r="0.8" style="fill:rgb(68,40,35);"/></g></g></svg>