<svg width="100%" height="100%" viewBox="0 0 18 16" version="1.1" xmlns="http://www.w3.org/2000/svg" xmlns:xlink="http://www.w3.org/1999/xlink" xml:space="preserve" style="fill-rule:evenodd;clip-rule:evenodd;stroke-linejoin:round;stroke-miterlimit:2;"><g id="puppeteer" transform="matrix(1.04867,0,0,1.04867,-0.441824,-0.378173)"><path d="M5.158,5.807L5.441,2.525C5.449,2.433 5.53,2.365 5.621,2.373C5.713,2.381 5.781,2.462 5.773,2.553L5.336,7.626C5.328,7.718 5.247,7.786 5.156,7.778C5.064,7.77 4.996,7.689 5.004,7.597L5.05,7.065L4.78,7.797C4.748,7.884 4.652,7.928 4.566,7.896C4.48,7.864 4.435,7.768 4.467,7.682L5.158,5.807Z"/><g transform="matrix(-1,0,0,1,18.0285,-0.108732)"><path d="M5.158,5.807L4.392,7.923C4.36,8.01 4.748,7.884 4.78,7.797L5.05,7.065L5.003,7.691C4.995,7.782 5.342,7.812 5.35,7.721L5.773,2.553C5.781,2.462 5.713,2.381 5.621,2.373C5.53,2.365 5.449,2.433 5.441,2.525L5.158,5.807Z"/></g><g transform="matrix(1.13004,0,0,1.09266,-0.45146,-0.726205)"><path d="M4.305,8.858L4.305,13.888C4.305,14.133 4.497,14.331 4.733,14.331L12.001,14.331C12.237,14.331 12.43,14.133 12.43,13.888L12.43,8.858L4.305,8.858Z" style="fill:white;"/></g><g transform="matrix(1.13004,0,0,1.09266,-0.45146,-0.726205)"><path d="M12.43,8.858L12.614,8.858L12.614,13.888C12.614,14.238 12.339,14.522 12.001,14.522L4.733,14.522C4.395,14.522 4.12,14.238 4.12,13.888L4.12,8.858L4.305,8.858L4.305,13.888C4.305,14.133 4.497,14.331 4.733,14.331L12.001,14.331C12.237,14.331 12.43,14.133 12.43,13.888L12.43,8.858Z"/></g><g transform="matrix(1.61222,0,0,0.847342,-2.15133,1.12298)"><path d="M9.767,8.994L9.767,8.432C9.767,8.116 9.632,7.86 9.466,7.86L4.372,7.86C4.206,7.86 4.072,8.116 4.072,8.432L4.072,8.994L3.942,8.994L3.942,8.432C3.942,7.981 4.135,7.614 4.372,7.614L9.466,7.614C9.703,7.614 9.896,7.981 9.896,8.432L9.896,8.994L9.767,8.994Z"/></g><g transform="matrix(1.61222,0,0,0.847342,-2.15133,1.12298)"><path d="M4.072,8.994C5.299,8.994 8.485,8.994 9.767,8.994L9.767,8.432C9.767,8.116 9.632,7.86 9.466,7.86L4.372,7.86C4.206,7.86 4.072,8.116 4.072,8.432L4.072,8.994Z" style="fill:rgb(223,222,223);"/></g><g transform="matrix(1.02081,0,0,1.08012,-0.0940307,-0.652527)"><ellipse cx="4.999" cy="8.272" rx="0.162" ry="0.153"/></g><g transform="matrix(1.02081,0,0,1.08012,0.440228,-0.652527)"><ellipse cx="4.999" cy="8.272" rx="0.162" ry="0.153"/></g><g transform="matrix(1.02081,0,0,1.08012,0.974487,-0.652527)"><ellipse cx="4.999" cy="8.272" rx="0.162" ry="0.153"/></g><g transform="matrix(1.61222,0,0,0.847342,-2.15133,1.12298)"><path d="M9.896,9.24L3.942,9.24L3.942,8.994L9.896,8.994L9.896,9.24Z"/></g><g transform="matrix(1.05004,0,0,1,9.87889,12.3258)"><g transform="matrix(0.856555,0,0,1.02307,-9.02569,-13.128)"><path d="M5.089,12.846L5.089,11.653L5.476,11.653C5.622,11.653 5.718,11.659 5.762,11.671C5.83,11.689 5.888,11.728 5.934,11.788C5.98,11.848 6.003,11.925 6.003,12.02C6.003,12.094 5.99,12.155 5.963,12.205C5.937,12.255 5.903,12.294 5.862,12.323C5.821,12.351 5.779,12.37 5.737,12.379C5.679,12.391 5.596,12.396 5.487,12.396L5.33,12.396L5.33,12.846L5.089,12.846ZM5.33,11.855L5.33,12.194L5.462,12.194C5.557,12.194 5.62,12.187 5.652,12.175C5.684,12.163 5.709,12.143 5.728,12.116C5.746,12.09 5.755,12.059 5.755,12.024C5.755,11.98 5.742,11.944 5.717,11.916C5.691,11.888 5.659,11.87 5.62,11.863C5.591,11.858 5.533,11.855 5.446,11.855L5.33,11.855Z" style="fill-rule:nonzero;"/></g><g transform="matrix(0.916455,0,0,0.959252,-9.42794,-12.3127)"><path d="M6.789,12.846L6.788,12.717C6.754,12.763 6.683,12.862 6.481,12.866C6.209,12.871 6.194,12.61 6.194,12.529L6.194,11.982L6.382,11.982L6.382,12.418C6.382,12.54 6.409,12.662 6.566,12.662C6.713,12.662 6.789,12.537 6.789,12.413L6.787,11.982L6.98,11.982L6.98,12.846L6.789,12.846Z" style="fill-rule:nonzero;"/></g><g transform="matrix(0.959625,0,0,1.00965,-9.71629,-12.9312)"><path d="M8.23,11.991L8.405,11.99L8.404,12.089C8.443,12.056 8.563,11.956 8.673,11.958C8.774,11.96 8.897,12.002 8.967,12.081C9.037,12.159 9.072,12.269 9.072,12.409C9.072,12.554 8.997,12.814 8.691,12.829C8.578,12.835 8.475,12.796 8.407,12.707L8.409,13.171L8.229,13.175L8.23,11.991ZM8.404,12.392C8.409,12.527 8.474,12.66 8.644,12.647C8.75,12.639 8.88,12.549 8.868,12.387C8.854,12.198 8.687,12.143 8.633,12.145C8.455,12.152 8.4,12.29 8.404,12.392Z" style="fill-rule:nonzero;"/></g><g transform="matrix(0.959625,0,0,1.00965,-10.6902,-12.9312)"><path d="M8.23,11.991L8.405,11.99L8.404,12.089C8.443,12.056 8.563,11.956 8.673,11.958C8.774,11.96 8.897,12.002 8.967,12.081C9.037,12.159 9.072,12.269 9.072,12.409C9.072,12.554 8.997,12.814 8.691,12.829C8.578,12.835 8.475,12.796 8.407,12.707L8.409,13.171L8.229,13.175L8.23,11.991ZM8.404,12.392C8.409,12.527 8.474,12.66 8.644,12.647C8.75,12.639 8.88,12.549 8.868,12.387C8.854,12.198 8.687,12.143 8.633,12.145C8.455,12.152 8.4,12.29 8.404,12.392Z" style="fill-rule:nonzero;"/></g><g transform="matrix(1.00154,0,0,1,-2.42557,0)"><path d="M2.154,-0.287L2.313,-0.176C2.264,-0.099 2.233,-0.076 2.191,-0.046C2.129,-0.001 2.049,0.028 1.954,0.028C1.804,0.028 1.692,-0.03 1.62,-0.128C1.563,-0.206 1.535,-0.306 1.535,-0.426C1.535,-0.569 1.581,-0.66 1.656,-0.741C1.731,-0.822 1.817,-0.863 1.931,-0.863C2.06,-0.863 2.151,-0.828 2.225,-0.743C2.3,-0.658 2.344,-0.554 2.341,-0.379L1.729,-0.382C1.73,-0.315 1.773,-0.241 1.808,-0.203C1.843,-0.165 1.901,-0.151 1.953,-0.151C1.989,-0.151 2.033,-0.161 2.058,-0.18C2.082,-0.2 2.142,-0.243 2.154,-0.287ZM2.115,-0.506C2.113,-0.572 2.096,-0.623 2.064,-0.657C2.031,-0.692 1.992,-0.709 1.945,-0.709C1.895,-0.709 1.854,-0.691 1.821,-0.654C1.789,-0.618 1.773,-0.569 1.773,-0.506L2.115,-0.506Z"/></g><g transform="matrix(1.04822,0,0,0.966323,0.0117324,0.000657758)"><path d="M0.517,-0.838L0.516,-0.686L0.323,-0.687L0.322,-0.318C0.322,-0.247 0.348,-0.217 0.351,-0.205C0.354,-0.194 0.374,-0.189 0.385,-0.181C0.395,-0.174 0.469,-0.178 0.51,-0.178L0.546,0.009L0.307,0.009C0.266,0.009 0.241,-0.012 0.209,-0.047C0.181,-0.077 0.163,-0.096 0.157,-0.134C0.152,-0.16 0.157,-0.222 0.157,-0.302L0.158,-0.685L0.025,-0.684L0.025,-0.836L0.157,-0.836L0.158,-1.129L0.325,-1.13L0.322,-0.841L0.517,-0.838Z"/></g><g transform="matrix(1.00154,0,0,1,0.0373495,0)"><path d="M2.154,-0.287L2.313,-0.176C2.264,-0.099 2.233,-0.076 2.191,-0.046C2.129,-0.001 2.049,0.028 1.954,0.028C1.804,0.028 1.692,-0.03 1.62,-0.128C1.563,-0.206 1.535,-0.306 1.535,-0.426C1.535,-0.569 1.581,-0.66 1.656,-0.741C1.731,-0.822 1.817,-0.863 1.931,-0.863C2.06,-0.863 2.151,-0.828 2.225,-0.743C2.3,-0.658 2.344,-0.554 2.341,-0.379L1.729,-0.382C1.73,-0.315 1.773,-0.241 1.808,-0.203C1.843,-0.165 1.901,-0.151 1.953,-0.151C1.989,-0.151 2.033,-0.161 2.058,-0.18C2.082,-0.2 2.142,-0.243 2.154,-0.287ZM2.115,-0.506C2.113,-0.572 2.096,-0.623 2.064,-0.657C2.031,-0.692 1.992,-0.709 1.945,-0.709C1.895,-0.709 1.854,-0.691 1.821,-0.654C1.789,-0.618 1.773,-0.569 1.773,-0.506L2.115,-0.506Z"/></g><g transform="matrix(1.00154,0,0,1,-0.865277,0)"><path d="M2.154,-0.287L2.313,-0.176C2.264,-0.099 2.233,-0.076 2.191,-0.046C2.129,-0.001 2.049,0.028 1.954,0.028C1.804,0.028 1.692,-0.03 1.62,-0.128C1.563,-0.206 1.535,-0.306 1.535,-0.426C1.535,-0.569 1.581,-0.66 1.656,-0.741C1.731,-0.822 1.817,-0.863 1.931,-0.863C2.06,-0.863 2.151,-0.828 2.225,-0.743C2.3,-0.658 2.344,-0.554 2.341,-0.379L1.729,-0.382C1.73,-0.315 1.773,-0.241 1.808,-0.203C1.843,-0.165 1.901,-0.151 1.953,-0.151C1.989,-0.151 2.033,-0.161 2.058,-0.18C2.082,-0.2 2.142,-0.243 2.154,-0.287ZM2.115,-0.506C2.113,-0.572 2.096,-0.623 2.064,-0.657C2.031,-0.692 1.992,-0.709 1.945,-0.709C1.895,-0.709 1.854,-0.691 1.821,-0.654C1.789,-0.618 1.773,-0.569 1.773,-0.506L2.115,-0.506Z"/></g><g transform="matrix(0.800623,0,0,1,0.527307,0)"><path d="M2.747,0L2.519,0L2.524,-0.842L2.731,-0.842L2.735,-0.7C2.787,-0.748 2.938,-0.849 3.015,-0.858C3.084,-0.866 3.151,-0.849 3.2,-0.82L3.126,-0.646C3.087,-0.671 3.053,-0.674 2.969,-0.67C2.899,-0.667 2.78,-0.575 2.768,-0.528C2.755,-0.482 2.747,-0.414 2.747,-0.267L2.747,0Z"/></g></g><path d="M5.788,5.789L9,4.18L12.145,5.772L13.251,5.23L13.236,4.692L10.545,3.4L13.252,2.048L13.231,1.531L12.166,0.962L9,2.603L5.814,0.982L4.726,1.509L4.717,2.037L7.406,3.393L4.725,4.694L4.712,5.232L5.788,5.789Z" style="fill:rgb(0,215,161);"/><path d="M12.051,5.865L9,4.32L5.844,5.901C5.808,5.919 5.766,5.919 5.73,5.901L4.654,5.343C4.612,5.321 4.586,5.277 4.587,5.229L4.6,4.691C4.601,4.644 4.628,4.602 4.67,4.581L7.125,3.391L4.661,2.149C4.618,2.127 4.591,2.083 4.592,2.035L4.601,1.507C4.602,1.459 4.63,1.417 4.672,1.396L5.759,0.87C5.794,0.853 5.835,0.853 5.87,0.871L8.999,2.462L12.109,0.851C12.145,0.832 12.189,0.833 12.225,0.852L13.29,1.42C13.329,1.441 13.354,1.481 13.356,1.525L13.377,2.043C13.379,2.092 13.351,2.138 13.307,2.16C13.307,2.16 10.83,3.398 10.83,3.398L13.29,4.58C13.332,4.6 13.359,4.642 13.361,4.689L13.375,5.227C13.377,5.276 13.349,5.321 13.306,5.342L12.246,5.862C12.222,5.892 12.184,5.912 12.143,5.91C12.106,5.909 12.073,5.891 12.051,5.865ZM12.935,1.515L12.165,1.104L9.057,2.714C9.022,2.732 8.979,2.732 8.943,2.714L5.812,1.122C5.812,1.122 5.308,1.366 5.04,1.496C5.495,1.717 7.517,2.742 7.914,2.942C7.935,2.953 8.054,2.987 8.05,3.118C8.046,3.222 7.944,3.251 7.845,3.3C7.738,3.353 7.598,3.425 7.501,3.475C7.49,3.488 7.477,3.498 7.461,3.506L4.99,4.704L5.797,5.1L8.934,3.534C8.938,3.532 8.941,3.53 8.944,3.528C8.98,3.511 9.021,3.511 9.056,3.529C9.06,3.53 9.063,3.532 9.066,3.534L12.169,5.106L12.969,4.703L10.491,3.513C10.467,3.501 10.117,3.31 10.117,3.31C10.049,3.276 9.94,3.224 9.941,3.129C9.943,3.006 10.048,2.968 10.069,2.957L12.935,1.515ZM10.583,3.241L13.123,1.973L13.113,1.705L10.335,3.095L10.583,3.241ZM4.848,1.726L4.844,1.961L7.396,3.248C7.476,3.206 7.565,3.157 7.66,3.11C7.051,2.809 5.185,1.889 4.848,1.726ZM9.125,4.103L12.03,5.574L12.039,5.32L9.125,3.844L9.125,4.103ZM5.919,5.584L8.875,4.103L8.875,3.842L5.922,5.317L5.919,5.584ZM4.845,4.911L4.839,5.157L5.669,5.587L5.672,5.317L4.845,4.911ZM12.28,5.567L13.123,5.153L13.117,4.908L12.289,5.325L12.28,5.567Z"/></g></svg>