<svg width="100%" height="100%" viewBox="0 0 18 16" version="1.1" xmlns="http://www.w3.org/2000/svg" xmlns:xlink="http://www.w3.org/1999/xlink" xml:space="preserve" style="fill-rule:evenodd;clip-rule:evenodd;stroke-linecap:round;stroke-linejoin:round;stroke-miterlimit:10.0375;"><g id="pylint" transform="matrix(0.0928703,0,0,0.0928703,9,8)"><g transform="matrix(1,0,0,1,-69.7337,-86.1416)"><g id="g4209" transform="matrix(1.01767,0,0,1.01767,-1.34459,-1.27365)"><g id="g4079" transform="matrix(0.604543,0,0,0.604543,-11.1193,-11.458)"><path id="path1948" d="M132.752,27.527C124.134,27.567 115.904,28.302 108.663,29.583C87.33,33.352 83.457,41.24 83.457,55.787L83.457,75L133.868,75L133.868,81.404L64.539,81.404C49.888,81.404 37.059,90.21 33.047,106.962C28.418,126.164 28.213,138.146 33.047,158.195C36.63,173.119 45.188,183.753 59.838,183.753L77.171,183.753L77.171,160.722C77.171,144.083 91.567,129.406 108.663,129.406L159.015,129.406C173.031,129.406 184.22,117.865 184.22,103.789L184.22,55.787C184.22,42.126 172.695,31.863 159.015,29.583C150.355,28.142 141.369,27.487 132.752,27.527ZM105.49,42.979C110.697,42.979 114.949,47.301 114.949,52.615C114.949,57.91 110.697,62.192 105.49,62.192C100.264,62.192 96.031,57.91 96.031,52.615C96.031,47.301 100.264,42.979 105.49,42.979Z" style="fill:url(#_Linear1);fill-rule:nonzero;"/><path id="path1950" d="M190.507,81.404L190.507,103.789C190.507,121.144 175.793,135.751 159.015,135.751L108.663,135.751C94.87,135.751 83.457,147.556 83.457,161.368L83.457,209.37C83.457,223.031 95.337,231.067 108.663,234.986C124.62,239.678 139.922,240.526 159.015,234.986C171.706,231.312 184.22,223.917 184.22,209.37L184.22,190.157L133.868,190.157L133.868,183.753L209.425,183.753C224.076,183.753 229.535,173.534 234.631,158.195C239.894,142.404 239.67,127.219 234.631,106.962C231.01,92.377 224.095,81.404 209.425,81.404L190.507,81.404ZM162.187,202.966C167.413,202.966 171.647,207.247 171.647,212.542C171.647,217.856 167.413,222.178 162.187,222.178C156.98,222.178 152.728,217.856 152.728,212.542C152.728,207.247 156.98,202.966 162.187,202.966Z" style="fill:url(#_Linear2);fill-rule:nonzero;"/></g><g id="g4149" transform="matrix(0.626974,0,0,0.626974,-54.6186,-30.5053)"><g id="use3154" transform="matrix(0.152618,0,0,0.152618,96.5652,267.498)"><g opacity="0.74"><path id="path3940" d="M1.133,133.867L3.467,134.1L7.3,134.7L12.533,135.9L19,137.767L26.533,140.5L34.933,144.133L44,148.767L53.467,154.367L63.133,160.933L72.767,168.4L82.133,176.667L91,185.533L99.267,194.9L106.733,204.533L113.3,214.2L118.9,223.667L123.533,232.733L127.167,241.133L129.9,248.667L131.767,255.133L132.967,260.367L133.567,264.2L133.8,266.533L133.833,267.333L133.867,266.533L134.1,264.2L134.7,260.367L135.9,255.133L137.767,248.667L140.5,241.133L144.133,232.733L148.767,223.667L154.367,214.2L160.933,204.533L168.4,194.9L176.667,185.533L185.533,176.667L194.9,168.4L204.533,160.933L214.2,154.367L223.667,148.767L232.733,144.133L241.133,140.5L248.667,137.767L255.133,135.9L260.367,134.7L264.2,134.1L266.533,133.867L267.333,133.833L266.533,133.8L264.2,133.567L260.367,132.967L255.133,131.767L248.667,129.9L241.133,127.167L232.733,123.533L223.667,118.9L214.2,113.3L204.533,106.733L194.9,99.267L185.533,91L176.667,82.133L168.4,72.767L160.933,63.133L154.367,53.467L148.767,44L144.133,34.933L140.5,26.533L137.767,19L135.9,12.533L134.7,7.3L134.1,3.467L133.867,1.133L133.833,0.333L133.8,1.133L133.567,3.467L132.967,7.3L131.767,12.533L129.9,19L127.167,26.533L123.533,34.933L118.9,44L113.3,53.467L106.733,63.133L99.267,72.767L91,82.133L82.133,91L72.767,99.267L63.133,106.733L53.467,113.3L44,118.9L34.933,123.533L26.533,127.167L19,129.9L12.533,131.767L7.3,132.967L3.467,133.567L1.133,133.8L0.333,133.833L1.133,133.867Z" style="fill:rgb(212,140,0);fill-rule:nonzero;stroke:black;stroke-width:1.03px;"/></g></g><g id="use4119" transform="matrix(0.152618,0,0,0.152618,96.5652,267.498)"><g opacity="0.74"><path id="path4147" d="M1.133,133.867L3.467,134.1L7.3,134.7L12.533,135.9L19,137.767L26.533,140.5L34.933,144.133L44,148.767L53.467,154.367L63.133,160.933L72.767,168.4L82.133,176.667L91,185.533L99.267,194.9L106.733,204.533L113.3,214.2L118.9,223.667L123.533,232.733L127.167,241.133L129.9,248.667L131.767,255.133L132.967,260.367L133.567,264.2L133.8,266.533L133.833,267.333L133.867,266.533L134.1,264.2L134.7,260.367L135.9,255.133L137.767,248.667L140.5,241.133L144.133,232.733L148.767,223.667L154.367,214.2L160.933,204.533L168.4,194.9L176.667,185.533L185.533,176.667L194.9,168.4L204.533,160.933L214.2,154.367L223.667,148.767L232.733,144.133L241.133,140.5L248.667,137.767L255.133,135.9L260.367,134.7L264.2,134.1L266.533,133.867L267.333,133.833L266.533,133.8L264.2,133.567L260.367,132.967L255.133,131.767L248.667,129.9L241.133,127.167L232.733,123.533L223.667,118.9L214.2,113.3L204.533,106.733L194.9,99.267L185.533,91L176.667,82.133L168.4,72.767L160.933,63.133L154.367,53.467L148.767,44L144.133,34.933L140.5,26.533L137.767,19L135.9,12.533L134.7,7.3L134.1,3.467L133.867,1.133L133.833,0.333L133.8,1.133L133.567,3.467L132.967,7.3L131.767,12.533L129.9,19L127.167,26.533L123.533,34.933L118.9,44L113.3,53.467L106.733,63.133L99.267,72.767L91,82.133L82.133,91L72.767,99.267L63.133,106.733L53.467,113.3L44,118.9L34.933,123.533L26.533,127.167L19,129.9L12.533,131.767L7.3,132.967L3.467,133.567L1.133,133.8L0.333,133.833L1.133,133.867Z" style="fill:rgb(212,140,0);fill-rule:nonzero;stroke:black;stroke-width:10.29px;"/></g></g><g id="use4121" transform="matrix(0.152618,0,0,0.152618,137.314,267.498)"><g opacity="0.74"><path id="path4143" d="M1.133,133.867L3.467,134.1L7.3,134.7L12.533,135.9L19,137.767L26.533,140.5L34.933,144.133L44,148.767L53.467,154.367L63.133,160.933L72.767,168.4L82.133,176.667L91,185.533L99.267,194.9L106.733,204.533L113.3,214.2L118.9,223.667L123.533,232.733L127.167,241.133L129.9,248.667L131.767,255.133L132.967,260.367L133.567,264.2L133.8,266.533L133.833,267.333L133.867,266.533L134.1,264.2L134.7,260.367L135.9,255.133L137.767,248.667L140.5,241.133L144.133,232.733L148.767,223.667L154.367,214.2L160.933,204.533L168.4,194.9L176.667,185.533L185.533,176.667L194.9,168.4L204.533,160.933L214.2,154.367L223.667,148.767L232.733,144.133L241.133,140.5L248.667,137.767L255.133,135.9L260.367,134.7L264.2,134.1L266.533,133.867L267.333,133.833L266.533,133.8L264.2,133.567L260.367,132.967L255.133,131.767L248.667,129.9L241.133,127.167L232.733,123.533L223.667,118.9L214.2,113.3L204.533,106.733L194.9,99.267L185.533,91L176.667,82.133L168.4,72.767L160.933,63.133L154.367,53.467L148.767,44L144.133,34.933L140.5,26.533L137.767,19L135.9,12.533L134.7,7.3L134.1,3.467L133.867,1.133L133.833,0.333L133.8,1.133L133.567,3.467L132.967,7.3L131.767,12.533L129.9,19L127.167,26.533L123.533,34.933L118.9,44L113.3,53.467L106.733,63.133L99.267,72.767L91,82.133L82.133,91L72.767,99.267L63.133,106.733L53.467,113.3L44,118.9L34.933,123.533L26.533,127.167L19,129.9L12.533,131.767L7.3,132.967L3.467,133.567L1.133,133.8L0.333,133.833L1.133,133.867Z" style="fill:rgb(212,140,0);fill-rule:nonzero;stroke:black;stroke-width:10.29px;"/></g></g><g id="use4123" transform="matrix(0.152618,0,0,0.152618,178.063,267.498)"><g opacity="0.74"><path id="path4139" d="M1.133,133.867L3.467,134.1L7.3,134.7L12.533,135.9L19,137.767L26.533,140.5L34.933,144.133L44,148.767L53.467,154.367L63.133,160.933L72.767,168.4L82.133,176.667L91,185.533L99.267,194.9L106.733,204.533L113.3,214.2L118.9,223.667L123.533,232.733L127.167,241.133L129.9,248.667L131.767,255.133L132.967,260.367L133.567,264.2L133.8,266.533L133.833,267.333L133.867,266.533L134.1,264.2L134.7,260.367L135.9,255.133L137.767,248.667L140.5,241.133L144.133,232.733L148.767,223.667L154.367,214.2L160.933,204.533L168.4,194.9L176.667,185.533L185.533,176.667L194.9,168.4L204.533,160.933L214.2,154.367L223.667,148.767L232.733,144.133L241.133,140.5L248.667,137.767L255.133,135.9L260.367,134.7L264.2,134.1L266.533,133.867L267.333,133.833L266.533,133.8L264.2,133.567L260.367,132.967L255.133,131.767L248.667,129.9L241.133,127.167L232.733,123.533L223.667,118.9L214.2,113.3L204.533,106.733L194.9,99.267L185.533,91L176.667,82.133L168.4,72.767L160.933,63.133L154.367,53.467L148.767,44L144.133,34.933L140.5,26.533L137.767,19L135.9,12.533L134.7,7.3L134.1,3.467L133.867,1.133L133.833,0.333L133.8,1.133L133.567,3.467L132.967,7.3L131.767,12.533L129.9,19L127.167,26.533L123.533,34.933L118.9,44L113.3,53.467L106.733,63.133L99.267,72.767L91,82.133L82.133,91L72.767,99.267L63.133,106.733L53.467,113.3L44,118.9L34.933,123.533L26.533,127.167L19,129.9L12.533,131.767L7.3,132.967L3.467,133.567L1.133,133.8L0.333,133.833L1.133,133.867Z" style="fill:rgb(212,140,0);fill-rule:nonzero;stroke:black;stroke-width:10.29px;"/></g></g><g id="use4125" transform="matrix(0.152618,0,0,0.152618,218.812,267.498)"><g opacity="0.74"><path id="path4135" d="M1.133,133.867L3.467,134.1L7.3,134.7L12.533,135.9L19,137.767L26.533,140.5L34.933,144.133L44,148.767L53.467,154.367L63.133,160.933L72.767,168.4L82.133,176.667L91,185.533L99.267,194.9L106.733,204.533L113.3,214.2L118.9,223.667L123.533,232.733L127.167,241.133L129.9,248.667L131.767,255.133L132.967,260.367L133.567,264.2L133.8,266.533L133.833,267.333L133.867,266.533L134.1,264.2L134.7,260.367L135.9,255.133L137.767,248.667L140.5,241.133L144.133,232.733L148.767,223.667L154.367,214.2L160.933,204.533L168.4,194.9L176.667,185.533L185.533,176.667L194.9,168.4L204.533,160.933L214.2,154.367L223.667,148.767L232.733,144.133L241.133,140.5L248.667,137.767L255.133,135.9L260.367,134.7L264.2,134.1L266.533,133.867L267.333,133.833L266.533,133.8L264.2,133.567L260.367,132.967L255.133,131.767L248.667,129.9L241.133,127.167L232.733,123.533L223.667,118.9L214.2,113.3L204.533,106.733L194.9,99.267L185.533,91L176.667,82.133L168.4,72.767L160.933,63.133L154.367,53.467L148.767,44L144.133,34.933L140.5,26.533L137.767,19L135.9,12.533L134.7,7.3L134.1,3.467L133.867,1.133L133.833,0.333L133.8,1.133L133.567,3.467L132.967,7.3L131.767,12.533L129.9,19L127.167,26.533L123.533,34.933L118.9,44L113.3,53.467L106.733,63.133L99.267,72.767L91,82.133L82.133,91L72.767,99.267L63.133,106.733L53.467,113.3L44,118.9L34.933,123.533L26.533,127.167L19,129.9L12.533,131.767L7.3,132.967L3.467,133.567L1.133,133.8L0.333,133.833L1.133,133.867Z" style="fill:rgb(212,140,0);fill-rule:nonzero;stroke:black;stroke-width:10.29px;"/></g></g><g id="use4127" transform="matrix(0.152618,0,0,0.152618,259.561,267.498)"><g opacity="0.74"><path id="path4131" d="M1.133,133.867L3.467,134.1L7.3,134.7L12.533,135.9L19,137.767L26.533,140.5L34.933,144.133L44,148.767L53.467,154.367L63.133,160.933L72.767,168.4L82.133,176.667L91,185.533L99.267,194.9L106.733,204.533L113.3,214.2L118.9,223.667L123.533,232.733L127.167,241.133L129.9,248.667L131.767,255.133L132.967,260.367L133.567,264.2L133.8,266.533L133.833,267.333L133.867,266.533L134.1,264.2L134.7,260.367L135.9,255.133L137.767,248.667L140.5,241.133L144.133,232.733L148.767,223.667L154.367,214.2L160.933,204.533L168.4,194.9L176.667,185.533L185.533,176.667L194.9,168.4L204.533,160.933L214.2,154.367L223.667,148.767L232.733,144.133L241.133,140.5L248.667,137.767L255.133,135.9L260.367,134.7L264.2,134.1L266.533,133.867L267.333,133.833L266.533,133.8L264.2,133.567L260.367,132.967L255.133,131.767L248.667,129.9L241.133,127.167L232.733,123.533L223.667,118.9L214.2,113.3L204.533,106.733L194.9,99.267L185.533,91L176.667,82.133L168.4,72.767L160.933,63.133L154.367,53.467L148.767,44L144.133,34.933L140.5,26.533L137.767,19L135.9,12.533L134.7,7.3L134.1,3.467L133.867,1.133L133.833,0.333L133.8,1.133L133.567,3.467L132.967,7.3L131.767,12.533L129.9,19L127.167,26.533L123.533,34.933L118.9,44L113.3,53.467L106.733,63.133L99.267,72.767L91,82.133L82.133,91L72.767,99.267L63.133,106.733L53.467,113.3L44,118.9L34.933,123.533L26.533,127.167L19,129.9L12.533,131.767L7.3,132.967L3.467,133.567L1.133,133.8L0.333,133.833L1.133,133.867Z" style="fill:none;fill-rule:nonzero;stroke:black;stroke-width:10.29px;"/></g></g></g></g></g></g><defs><linearGradient id="_Linear1" x1="0" y1="0" x2="1" y2="0" gradientUnits="userSpaceOnUse" gradientTransform="matrix(115.3,100.158,-100.158,115.3,45.1075,41.877)"><stop offset="0" style="stop-color:rgb(90,159,212);stop-opacity:0.57"/><stop offset="1" style="stop-color:rgb(48,105,152);stop-opacity:0.57"/></linearGradient><linearGradient id="_Linear2" x1="0" y1="0" x2="1" y2="0" gradientUnits="userSpaceOnUse" gradientTransform="matrix(-41.1737,-58.8162,58.8162,-41.1737,176.586,225.279)"><stop offset="0" style="stop-color:rgb(255,212,59);stop-opacity:0.57"/><stop offset="1" style="stop-color:rgb(255,232,115);stop-opacity:0.57"/></linearGradient></defs></svg>