<svg width="100%" height="100%" viewBox="0 0 18 16" version="1.1" xmlns="http://www.w3.org/2000/svg" xmlns:xlink="http://www.w3.org/1999/xlink" xml:space="preserve" style="fill-rule:evenodd;clip-rule:evenodd;stroke-linejoin:round;stroke-miterlimit:2;"><g id="pyre" transform="matrix(0.0955812,0,0,0.0955812,5.06161,1.5)"><g transform="matrix(11.2345,0,0,12.2186,-52.2037,-25.6507)"><path d="M15.532,3.683L15.532,11.647C15.532,13.112 14.238,14.301 12.645,14.301L3.984,14.301C2.391,14.301 1.097,13.112 1.097,11.647L1.097,3.683C1.097,2.218 2.391,1.029 3.984,1.029L12.645,1.029C14.238,1.029 15.532,2.218 15.532,3.683Z" style="fill:white;"/></g><path d="M25.77,58.16L0.58,58.16L29.52,97.91L1.79,136.01L26.97,136.01L42.11,115.21L57.24,136.01L82.43,136.01L25.77,58.16Z" style="fill:rgb(84,61,59);fill-rule:nonzero;"/><path d="M66,21.63C66.179,28.142 63.718,34.457 59.18,39.13C58.595,38.843 58.061,38.461 57.6,38C48.42,28.2 52.07,0 52.07,0C33.71,21.13 32.63,41 32.63,45.41C32.52,48.11 32.88,57.6 41.74,69.41L56.8,90.25L56.92,90.16C59.34,88.33 97,58.94 66,21.63Z" style="fill:url(#_Linear-72hsi9l);fill-rule:nonzero;"/><path d="M22.41,38.65L22.41,38.57C21.946,37.202 21.223,35.935 20.28,34.84L20.22,34.77C9.46,21.85 18,9 18,9C4.52,15.63 0.84,27.17 0.07,35.51C-0.72,47.25 3.81,51.38 7.44,52.83C8.786,53.335 10.212,53.593 11.65,53.59C16.78,53.44 19.91,50.98 21.46,48.35C23.023,45.567 23.422,42.276 22.57,39.2C22.52,39 22.47,38.83 22.41,38.65Z" style="fill:url(#_Linear-99akiw8);fill-rule:nonzero;"/></g><defs><linearGradient id="_Linear-72hsi9l" x1="0" y1="0" x2="1" y2="0" gradientUnits="userSpaceOnUse" gradientTransform="matrix(29.72,-104.47,104.47,29.72,37.48,110.89)"><stop offset="0" style="stop-color:rgb(254,184,0);stop-opacity:1"/><stop offset="1" style="stop-color:rgb(255,67,0);stop-opacity:1"/></linearGradient><linearGradient id="_Linear-99akiw8" x1="0" y1="0" x2="1" y2="0" gradientUnits="userSpaceOnUse" gradientTransform="matrix(660.49,-4496.01,4496.01,660.49,-105.727,4259.77)"><stop offset="0" style="stop-color:rgb(254,184,0);stop-opacity:1"/><stop offset="1" style="stop-color:rgb(255,67,0);stop-opacity:1"/></linearGradient></defs></svg>