<svg width="100%" height="100%" viewBox="0 0 18 16" version="1.1" xmlns="http://www.w3.org/2000/svg" xmlns:xlink="http://www.w3.org/1999/xlink" xml:space="preserve" style="fill-rule:evenodd;clip-rule:evenodd;stroke-linecap:round;stroke-linejoin:round;stroke-miterlimit:1;"><g id="pyright" transform="matrix(1.09273,0,0,1.09273,-0.591061,-0.900722)"><path id="base" d="M8.284,1.739L13.391,4.296L13.992,6.081L14.653,6.22L14.416,11.1L13.273,13.163L10.803,12.83L6.415,14.551L4.205,11.647L2.902,6.793L4.962,5.834L5,5.217L8.284,1.739Z" style="fill:rgb(52,52,33);stroke:rgb(52,52,33);stroke-width:0.19px;"/><path d="M5.057,5.25L8.215,1.908L8.827,5.209L7.392,6.543L7.172,4.691L5.029,5.693L5.057,5.25Z" style="fill:rgb(195,195,136);"/><path d="M9.014,5.169L8.357,1.855L13.277,4.288L13.838,5.938L13.467,5.897L11.841,6.408L9.014,5.169Z" style="fill:rgb(121,121,77);"/><path d="M7.497,6.681L8.987,5.342L10.238,5.882L7.497,6.681" style="fill:rgb(55,56,31);"/><path d="M10.465,5.964L10.764,6.697L11.694,6.457L10.465,5.964Z" style="fill:rgb(55,56,31);"/><path d="M10.8,6.824L11.077,7.408L13.61,7.745L14.578,6.271L13.551,6.043L10.8,6.824" style="fill:rgb(195,195,136);"/><path d="M14.567,6.498L14.335,11.077L13.416,12.773L13.752,7.783L14.567,6.498Z" style="fill:rgb(55,56,31);"/><path d="M11.094,7.539L13.589,7.894L13.226,13.102L9.795,12.624L12.219,10.318L11.094,7.539Z" style="fill:rgb(121,121,77);"/><path d="M11.451,8.831L12.009,10.268L9.44,12.761L10.612,12.88L6.449,14.479L4.326,11.776L11.451,8.831Z" style="fill:rgb(55,56,31);"/><path d="M2.971,6.824L4.271,11.603L11.368,8.663L10.299,5.977L7.222,6.869L7.048,4.933L2.971,6.824Z" style="fill:rgb(195,195,136);"/></g></svg>