<svg width="100%" height="100%" viewBox="0 0 18 16" version="1.1" xmlns="http://www.w3.org/2000/svg" xmlns:xlink="http://www.w3.org/1999/xlink" xml:space="preserve" style="fill-rule:evenodd;clip-rule:evenodd;stroke-linejoin:round;stroke-miterlimit:2;"><g id="pytest" transform="matrix(0.00933333,0,0,0.00933333,9,8)"><g transform="matrix(1,0,0,1,-750,-750)"><g id="graphics" transform="matrix(2.58541,0,0,2.58541,-1155.7,-392.105)"><g id="pytest_logo"><g id="graphics1"><path id="horizontal_bar" d="M521.576,213.75L952.616,213.75C964.283,213.75 973.741,223.208 973.741,234.875C973.741,246.542 964.283,256 952.616,256L521.576,256C509.909,256 500.451,246.542 500.451,234.875C500.451,223.208 509.909,213.75 521.576,213.75Z" style="fill:rgb(105,105,105);fill-rule:nonzero;"/><g id="top_bars"><rect x="525.333" y="171" width="86.667" height="20" style="fill:rgb(0,159,227);fill-rule:nonzero;"/><rect x="638.667" y="171" width="86.666" height="20" style="fill:rgb(199,211,2);fill-rule:nonzero;"/><rect x="750.5" y="171" width="86.667" height="20" style="fill:rgb(240,126,22);fill-rule:nonzero;"/><rect x="861.861" y="171" width="86.667" height="20" style="fill:rgb(223,40,21);fill-rule:nonzero;"/></g><g id="bottom_bars"><rect x="861.861" y="278" width="86.667" height="146.5" style="fill:rgb(223,40,21);fill-rule:nonzero;"/><rect x="750.5" y="278" width="86.828" height="238" style="fill:rgb(240,126,22);fill-rule:nonzero;"/><rect x="638.667" y="278" width="86.661" height="356.5" style="fill:rgb(199,211,2);fill-rule:nonzero;"/><rect x="525.333" y="278" width="86.667" height="434.5" style="fill:rgb(0,159,227);fill-rule:nonzero;"/></g></g></g></g></g></g></svg>