<svg width="100%" height="100%" viewBox="0 0 18 16" version="1.1" xmlns="http://www.w3.org/2000/svg" xmlns:xlink="http://www.w3.org/1999/xlink" xml:space="preserve" style="fill-rule:evenodd;clip-rule:evenodd;stroke-linejoin:round;stroke-miterlimit:2;"><g id="python-1"><path d="M3.848,1.437L4.311,1.437L4.311,0.971L4.779,0.971L4.779,0.5L5.72,0.5L5.72,0.971L6.185,0.971L6.185,0.5L7.595,0.5L7.595,0.971L8.061,0.971L8.061,1.437L8.531,1.437L8.531,3.313L9,3.313L9,3.78L10.407,3.78L10.407,4.251L11.345,4.251L11.345,4.718L11.813,4.718L11.813,5.188L12.282,5.188L12.282,6.125L12.75,6.125L12.75,8.467L12.282,8.467L12.282,9.406L11.813,9.406L11.813,9.873L11.345,9.873L11.345,10.345L10.875,10.345L10.875,10.812L10.407,10.812L10.407,11.283L11.345,11.283L11.345,11.75L11.813,11.75L11.813,12.218L12.282,12.218L12.282,11.75L12.75,11.75L12.75,11.283L14.157,11.283L14.157,11.75L15.096,11.75L15.096,11.283L15.563,11.283L15.563,10.812L16.03,10.812L16.03,10.345L16.5,10.345L16.5,12.688L16.03,12.688L16.03,13.156L15.563,13.156L15.563,13.626L15.096,13.626L15.093,14.093L14.157,14.093L14.157,13.626L13.221,13.626L13.221,14.093L12.75,14.093L12.75,14.562L11.813,14.562L11.813,15.031L9.466,15.031L9.466,14.562L8.531,14.562L8.531,15.031L7.595,15.031L7.595,15.5L5.251,15.5L5.251,15.031L4.779,15.031L4.779,14.562L4.311,14.562L4.311,14.093L3.848,14.093L3.848,12.218L4.311,12.218L4.311,11.283L4.779,11.283L4.779,10.812L5.72,10.812L5.72,10.345L6.659,10.345L6.659,9.873L7.123,9.873L7.123,9.406L8.061,9.406L8.061,8.937L8.531,8.937L8.531,8L8.061,8L8.061,8.467L7.595,8.467L7.595,8.937L7.123,8.937L7.123,9.406L6.185,9.406L6.185,9.873L5.251,9.873L5.251,10.345L2.905,10.345L2.905,11.283L2.438,11.283L2.438,10.345L2.203,10.345L2.203,10.58L1.967,10.58L1.967,10.812L1.5,10.812L1.5,10.345L1.737,10.345L1.737,10.11L1.967,10.11L1.967,9.873L2.203,9.873L2.203,9.642L2.438,9.642L2.438,8L1.967,8L1.967,7.531L1.5,7.531L1.5,5.188L1.967,5.188L1.967,4.718L2.438,4.718L2.438,4.251L3.378,4.251L3.378,3.78L3.848,3.78L3.848,1.437Z"/><g><path d="M9,4.718L9,4.251L10.407,4.251L10.407,4.718L11.345,4.721L11.345,5.188L11.813,5.189L11.813,6.125L12.282,6.125L12.282,8.467L11.813,8.469L11.813,9.406L11.345,9.406L11.345,9.873L10.875,9.873L10.875,10.345L10.407,10.345L10.407,10.812L9.937,10.812L9.939,11.283L9.466,11.283L9.466,11.75L9,11.75L9,12.218L8.531,12.218L8.531,12.688L9,12.688L9,12.218L9.466,12.218L9.466,11.75L11.345,11.75L11.345,12.218L11.813,12.218L11.813,12.688L12.282,12.688L12.282,12.218L12.75,12.218L12.75,11.75L14.157,11.75L14.157,12.218L15.096,12.218L15.094,11.75L15.563,11.75L15.563,11.283L16.03,11.283L16.032,12.688L15.563,12.688L15.563,13.156L15.096,13.156L15.096,13.626L14.157,13.626L14.157,13.391L13.922,13.391L13.922,13.156L13.221,13.159L13.221,13.626L12.75,13.626L12.75,14.093L12.048,14.093L12.048,14.328L11.813,14.328L11.813,14.562L9.466,14.562L9.466,14.328L9.234,14.328L9.234,14.093L8.766,14.093L8.766,14.328L8.531,14.328L8.531,14.562L7.594,14.562L7.594,15.031L5.251,15.031L5.25,14.562L4.779,14.562L4.779,14.093L4.311,14.093L4.311,12.218L4.779,12.218L4.783,11.283L5.719,11.283L5.719,10.812L6.187,10.812L6.187,10.345L7.125,10.345L7.133,9.873L7.594,9.873L7.594,9.406L8.531,9.407L8.531,8.937L9,8.937L9,7.062L9.466,7.062L9.466,6.593L9.937,6.593L9.937,5.188L9.466,5.188L9.466,4.718L9,4.718Z" style="fill:rgb(128,128,0);"/><path d="M13.922,13.156L15.096,13.156L15.096,13.626L14.157,13.626L14.157,13.391L13.922,13.391L13.922,13.156Z" style="fill:rgb(0,255,0);"/><path d="M12.048,14.093L12.048,14.328L11.813,14.328L11.813,14.562L9.466,14.562L9.466,14.328L9.234,14.328L9.234,14.093L9,14.093L9,13.626L9.466,13.626L9.466,14.093L12.048,14.093" style="fill:rgb(0,255,0);"/><path d="M8.766,14.093L8.766,14.328L8.531,14.328L8.531,14.562L7.594,14.562L7.594,15.031L7.361,15.031L7.361,14.797L7.125,14.797L7.125,14.562L6.656,14.562L6.656,14.797L6.422,14.797L6.422,15.031L5.251,15.031L5.251,14.797L5.485,14.797L5.485,14.562L6.187,14.564L6.187,14.328L5.953,14.328L5.953,14.093L4.311,14.093L4.311,13.391L5.251,13.391L5.251,13.156L5.485,13.156L5.485,12.922L5.251,12.922L5.251,12.688L4.311,12.688L4.311,12.218L4.779,12.218L4.779,11.985L5.015,11.985L5.015,11.75L6.187,11.75L6.187,11.283L5.953,11.283L5.953,11.049L6.187,11.047L6.187,10.812L7.361,10.812L7.361,10.345L7.125,10.345L7.125,10.11L7.361,10.11L7.361,9.873L8.766,9.873L8.766,9.406L8.531,9.406L8.531,9.172L8.766,9.172L8.766,8.937L9.466,8.937L9.466,8.468L9,8.47L9,8.236L9.234,8.236L9.234,7.999L9.937,7.997L9.937,7.531L9.234,7.531L9.234,7.297L9,7.297L9.002,7.062L9.466,7.062L9.466,6.593L9.937,6.593L9.937,6.828L10.172,6.828L10.171,7.062L10.407,7.063L10.407,7.297L10.641,7.297L10.641,8.467L10.407,8.467L10.407,8.703L10.171,8.703L10.171,9.171L9.937,9.172L9.937,9.406L9.703,9.406L9.703,9.642L9.234,9.642L9.234,9.873L9,9.873L9,10.11L8.766,10.11L8.769,10.345L8.3,10.345L8.297,10.58L8.061,10.58L8.061,10.812L7.829,10.812L7.829,11.047L7.594,11.047L7.594,11.283L7.361,11.283L7.361,11.516L7.125,11.516L7.125,11.75L6.891,11.75L6.891,11.985L6.656,11.985L6.656,12.454L6.422,12.454L6.422,12.688L6.191,12.688L6.187,13.626L6.422,13.626L6.422,13.86L7.361,13.858L7.361,14.093L8.766,14.093Z" style="fill:rgb(0,255,0);"/></g><g><path d="M6.187,1.445L6.187,0.971L7.594,0.971L7.594,1.437L8.061,1.437L8.061,3.78L8.522,3.78L8.525,4.718L9,4.718L9,5.188L9.466,5.188L9.466,6.594L9,6.593L9,7.062L8.531,7.062L8.531,7.531L8.061,7.531L8.061,8L7.594,8L7.594,8.469L7.125,8.467L7.125,8.937L6.188,8.937L6.187,9.406L5.251,9.406L5.251,9.873L3.375,9.875L3.372,9.642L3.609,9.642L3.609,9.406L3.844,9.406L3.844,9.172L4.079,9.172L4.079,8.937L5.015,8.937L5.015,8.703L5.251,8.703L5.251,8.467L5.953,8.467L5.953,8.236L6.187,8.236L6.187,8L6.422,8L6.422,7.766L6.656,7.766L6.656,7.531L7.125,7.531L7.125,7.062L7.594,7.062L7.594,6.594L8.061,6.593L8.065,6.125L7.125,6.125L7.125,6.359L6.891,6.359L6.891,6.593L6.656,6.593L6.656,6.828L6.422,6.828L6.422,7.062L5.719,7.062L5.719,7.297L5.485,7.297L5.485,7.531L5.251,7.531L5.251,8L2.438,8L2.438,7.531L1.967,7.531L1.967,5.188L2.438,5.188L2.438,4.718L3.375,4.718L3.375,4.251L5.251,4.251L5.251,3.78L5.722,3.78L5.719,4.251L7.125,4.251L7.122,3.78L7.587,3.78L7.594,1.912L7.125,1.908L7.125,1.437L6.187,1.445" style="fill:rgb(128,128,0);"/><rect x="2.438" y="5.657" width="0.468" height="0.468"/><rect x="3.844" y="5.657" width="0.467" height="0.468"/><path d="M1.967,6.595L1.967,7.531L2.672,7.531L2.672,7.766L2.906,7.766L2.906,7.531L3.139,7.531L3.139,7.766L3.375,7.766L3.375,7.531L3.609,7.531L3.609,7.766L3.844,7.766L3.844,7.531L4.079,7.531L4.079,7.766L4.311,7.766L4.312,7.531L4.548,7.531L4.548,7.766L5.015,7.766L5.015,7.531L5.485,7.531L5.485,7.298L5.719,7.297L5.719,7.064L6.422,7.062L6.422,6.828L6.656,6.828L6.656,6.593L6.891,6.593L6.891,6.359L7.125,6.359L7.125,6.125L8.061,6.125L8.061,6.593L7.594,6.593L7.594,7.297L7.361,7.297L7.361,7.531L7.594,7.531L7.594,7.766L6.656,7.766L6.656,8.236L6.422,8.236L6.422,8.467L5.716,8.467L5.719,8.703L5.485,8.703L5.485,8.937L4.779,8.937L4.779,9.172L4.548,9.172L4.548,9.406L4.311,9.406L4.311,8.937L4.079,8.937L4.079,9.172L3.844,9.172L3.844,9.406L3.609,9.406L3.609,9.642L3.375,9.642L3.375,9.873L5.251,9.873L5.251,9.406L6.187,9.406L6.188,8.937L7.124,8.937L7.125,8.47L7.594,8.467L7.594,8L8.061,8L8.061,7.531L8.531,7.531L8.531,7.062L8.061,7.062L8.061,6.593L8.531,6.593L8.531,7.062L9,7.062L9,6.593L9.466,6.593L9.469,6.125L9.234,6.125L9.234,5.891L9,5.891L9,5.657L8.531,5.657L8.531,5.422L8.061,5.422L8.061,5.657L7.829,5.657L7.829,5.422L7.594,5.422L7.594,5.657L7.361,5.657L7.361,5.422L7.125,5.422L7.125,5.891L6.891,5.891L6.891,5.657L6.657,5.657L6.656,6.359L6.422,6.359L6.422,5.891L6.187,5.891L6.187,6.593L5.953,6.593L5.953,6.359L5.719,6.359L5.719,6.828L5.485,6.828L5.485,6.593L5.251,6.593L5.251,7.062L5.015,7.062L5.015,6.593L4.78,6.593L4.779,7.062L4.548,7.062L4.548,6.593L4.312,6.593L4.311,7.062L4.078,7.062L4.079,6.593L3.843,6.593L3.844,7.062L3.609,7.062L3.609,6.594L3.375,6.594L3.375,7.062L3.139,7.062L3.139,6.593L2.908,6.593L2.906,7.062L2.672,7.062L2.672,6.593L2.438,6.593L2.438,7.062L2.203,7.062L2.203,6.593L1.967,6.595Z" style="fill:rgb(0,255,0);"/><rect x="4.311" y="1.908" width="0.94" height="1.872" style="fill:rgb(255,255,0);"/><rect x="4.779" y="2.381" width="0.472" height="0.932" style="fill:rgb(0,0,255);"/><rect x="5.72" y="1.908" width="1.403" height="1.872" style="fill:rgb(255,255,0);"/><rect x="6.185" y="2.381" width="0.938" height="0.932" style="fill:rgb(0,0,255);"/><rect x="4.779" y="0.972" width="0.945" height="0.465" style="fill:rgb(128,128,0);"/><path d="M1.5,10.812L1.5,10.345L1.737,10.345L1.737,10.11L1.967,10.11L1.967,9.873L2.203,9.873L2.203,9.642L2.438,9.642L2.438,9.406L2.673,9.406L2.673,9.171L2.905,9.171L2.905,8.937L3.139,8.937L3.139,8.703L3.375,8.703L3.375,8.467L3.609,8.467L3.609,8.236L3.844,8.236L3.844,8L5.015,8L5.015,8.236L4.779,8.236L4.779,8.467L4.548,8.467L4.548,8.703L4.311,8.703L4.311,8.937L4.079,8.937L4.079,9.171L3.844,9.171L3.844,9.406L3.609,9.406L3.609,9.642L3.375,9.642L3.375,9.873L2.905,9.873L2.905,11.283L2.438,11.283L2.438,10.345L2.203,10.345L2.203,10.58L1.967,10.58L1.967,10.812L1.5,10.812Z" style="fill:rgb(255,0,0);"/></g></g></svg>