<svg width="100%" height="100%" viewBox="0 0 18 16" version="1.1" xmlns="http://www.w3.org/2000/svg" xmlns:xlink="http://www.w3.org/1999/xlink" xml:space="preserve" style="fill-rule:evenodd;clip-rule:evenodd;stroke-linejoin:round;stroke-miterlimit:2;"><g id="qt" transform="matrix(0.0714286,0,0,0.0714286,1,2.28571)"><path d="M0,25.6L25.6,0L224,0L224,134.4L198.4,160L0,160L0,25.6ZM106.624,146.544L121.456,139.632L121.44,139.632L109.344,120.192C114.912,116.448 118.928,111.024 121.376,103.92C123.808,96.816 125.04,87.504 125.04,75.984C125.04,58.512 122.064,45.568 116.112,37.168C110.16,28.768 99.792,24.56 85.008,24.56C70.224,24.56 59.84,28.784 53.84,37.232C47.84,45.696 44.848,58.624 44.848,76.048C44.848,93.472 47.792,106.224 53.696,114.288C59.616,122.352 70.048,126.384 85.024,126.384C89.056,126.384 91.984,126.096 93.808,125.52L106.624,146.544ZM146.64,120.768C149.664,124.512 155.264,126.384 163.424,126.384C166.784,126.384 171.68,125.76 178.112,124.512L177.392,111.984L165.584,112.416C162.032,112.416 159.824,111.456 158.96,109.536C158.096,107.616 157.664,103.728 157.664,97.872L157.664,66.192L177.536,66.192L177.536,52.8L157.664,52.8L157.664,31.92L142.112,31.92L142.112,52.8L132.896,52.8L132.896,66.192L142.112,66.192L142.112,99.6C142.112,109.968 143.616,117.024 146.64,120.768ZM66.448,47.472C69.808,41.52 76,38.544 85.024,38.544C94.048,38.544 100.224,41.52 103.536,47.472C106.832,53.424 108.496,62.976 108.496,76.128C108.496,89.28 106.896,98.608 103.68,104.128C100.448,109.648 94.24,112.4 85.024,112.4C75.808,112.4 69.568,109.6 66.304,103.984C63.04,98.368 61.408,89.04 61.408,75.984C61.408,62.928 63.088,53.424 66.448,47.472Z" style="fill:rgb(44,222,133);"/></g></svg>