<svg width="100%" height="100%" viewBox="0 0 18 16" version="1.1" xmlns="http://www.w3.org/2000/svg" xmlns:xlink="http://www.w3.org/1999/xlink" xml:space="preserve" style="fill-rule:evenodd;clip-rule:evenodd;stroke-linejoin:round;stroke-miterlimit:2;"><g id="r" transform="matrix(0.0221885,0,0,0.0221885,0.979897,1.76434)"><path d="M361.453,485.937C162.329,485.937 0.906,377.828 0.906,244.469C0.906,111.109 162.329,3 361.453,3C560.578,3 722,111.109 722,244.469C722,377.828 560.578,485.937 361.453,485.937ZM416.641,97.406C265.289,97.406 142.594,171.314 142.594,262.484C142.594,353.654 265.289,427.562 416.641,427.562C567.992,427.562 679.687,377.033 679.687,262.484C679.687,147.971 567.992,97.406 416.641,97.406Z" style="fill:url(#_Linear-70ofb6c);"/><path d="M550,377C550,377 571.822,383.585 584.5,390C588.899,392.226 596.51,396.668 602,402.5C607.378,408.212 610,414 610,414L696,559L557,559.062L492,437C492,437 478.69,414.131 470.5,407.5C463.668,401.969 460.755,400 454,400L420.974,400L421,558.974L298,559.026L298,152.938L545,152.938C545,152.938 657.5,154.967 657.5,262C657.5,369.033 550,377 550,377ZM496.5,241.024L422.037,240.976L422,310.026L496.5,310.002C496.5,310.002 531,309.895 531,274.877C531,239.155 496.5,241.024 496.5,241.024Z" style="fill:url(#_Linear-a82im0d);"/></g><defs><linearGradient id="_Linear-70ofb6c" x1="0" y1="0" x2="1" y2="0" gradientUnits="userSpaceOnUse" gradientTransform="matrix(721.094,482.937,-482.937,721.094,0.906,3)"><stop offset="0" style="stop-color:rgb(203,206,208);stop-opacity:1"/><stop offset="1" style="stop-color:rgb(132,131,139);stop-opacity:1"/></linearGradient><linearGradient id="_Linear-a82im0d" x1="0" y1="0" x2="1" y2="0" gradientUnits="userSpaceOnUse" gradientTransform="matrix(-329.289,-351.815,351.815,-329.289,652.344,544.096)"><stop offset="0" style="stop-color:rgb(24,92,172);stop-opacity:1"/><stop offset="0.55" style="stop-color:rgb(36,104,188);stop-opacity:1"/><stop offset="1" style="stop-color:rgb(41,109,195);stop-opacity:1"/></linearGradient></defs></svg>