<svg width="100%" height="100%" viewBox="0 0 18 16" version="1.1" xmlns="http://www.w3.org/2000/svg" xmlns:xlink="http://www.w3.org/1999/xlink" xml:space="preserve" style="fill-rule:evenodd;clip-rule:evenodd;stroke-linejoin:round;stroke-miterlimit:2;"><g id="readthedocs" transform="matrix(0.191066,0,0,0.191066,-6.67004,-8.60999)"><g transform="matrix(0.769719,-0.638383,-0.638383,-0.769719,120.225,91.3194)"><path d="M-24.427,-9.232C-36.163,2.562 -49.895,12.472 -65.108,20.073L-24.427,69.123C-10.667,59.771 1.612,48.109 11.896,34.563L-24.427,-9.232Z" style="fill:rgb(232,236,239);fill-rule:nonzero;"/></g><g transform="matrix(0.769719,-0.638383,-0.638383,-0.769719,120.225,91.3194)"><path d="M-25.49,-10.29C-37.113,1.39 -50.713,11.204 -65.778,18.731C-66.188,18.936 -66.481,19.316 -66.576,19.764C-66.67,20.212 -66.555,20.678 -66.263,21.031L-25.582,70.081C-25.088,70.676 -24.223,70.799 -23.584,70.364C-9.691,60.921 2.708,49.147 13.09,35.47C13.512,34.915 13.495,34.142 13.05,33.606L-23.272,-10.19C-23.542,-10.515 -23.937,-10.712 -24.359,-10.731C-24.781,-10.75 -25.192,-10.59 -25.49,-10.29ZM-24.534,-7.011C-24.534,-7.011 9.978,34.601 9.978,34.601C0.227,47.247 -11.293,58.203 -24.147,67.112L-62.754,20.561C-48.563,13.261 -35.683,3.954 -24.534,-7.011Z" style="fill:rgb(70,81,88);"/></g><g transform="matrix(0.968505,-0.248993,-0.248993,-0.968505,80.0255,111.73)"><path d="M-7.566,-1.023C-12.808,-0.373 -18.104,0.015 -23.434,0.136L-7.566,61.854C-2.414,61.043 2.704,59.964 7.768,58.622L-7.566,-1.023Z" style="fill:rgb(140,161,175);fill-rule:nonzero;"/></g><g transform="matrix(0.968505,-0.248993,-0.248993,-0.968505,80.0255,111.73)"><path d="M-7.751,-2.512C-12.942,-1.868 -18.188,-1.483 -23.468,-1.364C-23.925,-1.353 -24.353,-1.134 -24.629,-0.77C-24.906,-0.405 -25,0.066 -24.886,0.51L-9.019,62.228C-8.827,62.976 -8.097,63.456 -7.333,63.336C-2.13,62.516 3.039,61.427 8.152,60.072C8.949,59.861 9.426,59.047 9.221,58.249L-6.114,-1.397C-6.301,-2.127 -7.003,-2.605 -7.751,-2.512ZM-8.692,0.622C-8.692,0.622 5.942,57.547 5.942,57.547C1.841,58.591 -2.295,59.46 -6.455,60.154C-6.455,60.154 -21.513,1.582 -21.513,1.582C-17.212,1.434 -12.935,1.113 -8.692,0.622Z" style="fill:rgb(70,81,88);"/></g><g transform="matrix(0.994677,0.103043,0.103043,-0.994677,78.9747,59.5135)"><path d="M0.05,-2.692C-0.775,-2.754 -1.496,-2.134 -1.558,-1.308C-1.619,-0.483 -0.999,0.238 -0.174,0.3C7.59,0.882 15.425,0.884 23.263,0.3C24.089,0.238 24.709,-0.482 24.648,-1.308C24.586,-2.133 23.866,-2.753 23.04,-2.692C15.351,-2.118 7.666,-2.121 0.05,-2.692Z" style="fill:rgb(70,81,88);"/></g><g transform="matrix(0.996214,0.0869368,0.0869368,-0.996214,78.9213,66.9737)"><path d="M0.068,-2.503C-0.757,-2.565 -1.478,-1.945 -1.54,-1.12C-1.602,-0.294 -0.982,0.426 -0.156,0.488C7.605,1.071 15.428,1.073 23.246,0.488C24.071,0.427 24.691,-0.294 24.63,-1.119C24.568,-1.945 23.848,-2.565 23.022,-2.503C15.354,-1.93 7.681,-1.931 0.068,-2.503Z" style="fill:rgb(70,81,88);"/></g><g transform="matrix(0.998123,-0.0612376,-0.0612376,-0.998123,62.0258,61.3225)"><path d="M0.024,-1.314C-0.803,-1.331 -1.489,-0.672 -1.505,0.155C-1.522,0.983 -0.863,1.669 -0.036,1.685C2.003,1.726 4.042,1.725 6.082,1.685C6.91,1.669 7.569,0.984 7.552,0.156C7.536,-0.672 6.851,-1.331 6.023,-1.314C4.023,-1.275 2.024,-1.274 0.024,-1.314Z" style="fill:rgb(70,81,88);"/></g><g transform="matrix(0.996993,-0.0774908,-0.0774908,-0.996993,62.0361,68.9221)"><path d="M0.02,-1.265C-0.808,-1.281 -1.493,-0.622 -1.509,0.206C-1.525,1.033 -0.866,1.719 -0.038,1.735C2.003,1.775 4.044,1.775 6.086,1.735C6.913,1.718 7.572,1.033 7.556,0.205C7.54,-0.622 6.854,-1.281 6.027,-1.265C4.024,-1.225 2.023,-1.226 0.02,-1.265Z" style="fill:rgb(70,81,88);"/></g><g transform="matrix(0.99749,0.070805,0.070805,-0.99749,78.8758,74.4317)"><path d="M0.085,-2.315C-0.741,-2.377 -1.461,-1.758 -1.524,-0.932C-1.586,-0.107 -0.966,0.614 -0.14,0.676C7.62,1.261 15.434,1.262 23.232,0.676C24.058,0.614 24.678,-0.106 24.616,-0.932C24.554,-1.757 23.834,-2.377 23.008,-2.315C15.36,-1.741 7.696,-1.742 0.085,-2.315Z" style="fill:rgb(70,81,88);"/></g><g transform="matrix(0.99851,0.0545742,0.0545742,-0.99851,78.8373,81.8893)"><path d="M0.1,-2.127C-0.726,-2.189 -1.447,-1.569 -1.509,-0.743C-1.571,0.082 -0.951,0.803 -0.125,0.865C7.637,1.449 15.443,1.451 23.224,0.865C24.05,0.803 24.669,0.082 24.607,-0.744C24.545,-1.569 23.824,-2.189 22.999,-2.127C15.368,-1.552 7.713,-1.554 0.1,-2.127Z" style="fill:rgb(70,81,88);"/></g><g transform="matrix(0.999265,0.0383434,0.0383434,-0.999265,78.8101,89.3505)"><path d="M0.109,-1.939C-0.716,-2.001 -1.437,-1.381 -1.499,-0.555C-1.561,0.27 -0.941,0.991 -0.116,1.053C7.651,1.637 15.451,1.638 23.217,1.053C24.042,0.991 24.662,0.27 24.6,-0.556C24.537,-1.381 23.817,-2.001 22.991,-1.939C15.375,-1.365 7.726,-1.366 0.109,-1.939Z" style="fill:rgb(70,81,88);"/></g></g></svg>