<svg width="100%" height="100%" viewBox="0 0 18 16" version="1.1" xmlns="http://www.w3.org/2000/svg" xmlns:xlink="http://www.w3.org/1999/xlink" xml:space="preserve" style="fill-rule:evenodd;clip-rule:evenodd;stroke-miterlimit:10;"><g id="rebar3" transform="matrix(0.0736739,0,0,0.0736739,9,8)"><g transform="matrix(1,0,0,1,-101.8,-98.55)"><clipPath id="_clip1"><rect x="0" y="0" width="203.6" height="197.1"/></clipPath><g clip-path="url(#_clip1)"><g><g><path d="M0.3,112.5l101.6,-33.1l101.4,33.1l-101.5,29.7l-101.5,-29.7Z" style="fill:#e2e2e2;fill-rule:nonzero;"/><path d="M101.8,79.5l101.1,33l-101.1,29.6l-101.1,-29.6l101.1,-33m0,-0.2l-101.8,33.2l101.8,29.8l101.8,-29.8l-101.8,-33.2Z" style="fill:#bbbdbf;fill-rule:nonzero;"/></g><g><path d="M0,167.2l0.1,-54.6l101.7,29.8l-0.1,54.6l-101.7,-29.8Z" style="fill:url(#_Linear2);fill-rule:nonzero;"/><path d="M0.1,112.7l101.5,29.7l0,54.5l-101.5,-29.7l0,-54.5m-0.1,-0.2l0,54.8l101.8,29.8l0,-54.8l-101.8,-29.8Z" style="fill:#bbbdbf;fill-rule:nonzero;"/></g><g><path d="M101.9,142.4l101.6,-29.8l0,54.6l-101.6,29.8l0,-54.6Z" style="fill:url(#_Linear3);fill-rule:nonzero;"/><path d="M203.4,112.7l0,54.4l-101.4,29.7l0,-54.4l101.4,-29.7m0.2,-0.2l-101.8,29.8l0,54.8l101.8,-29.8l0,-54.8Z" style="fill:#bbbdbf;fill-rule:nonzero;"/></g><path d="M99.1,1.7l-0,85.3c-0,1.3 2,2.4 4.5,2.4c2.5,0 4.5,-1.1 4.5,-2.4l-0,-85.3l-9,-0Z" style="fill:url(#_Linear4);fill-rule:nonzero;"/><path d="M108.7,17.3c0,1.3 -2.3,2.4 -5.1,2.4c-2.8,0 -5.1,-1.1 -5.1,-2.4" style="fill:none;fill-rule:nonzero;stroke:#fff;stroke-width:0.5px;"/><path d="M108.7,24.1c0,1.3 -2.3,2.4 -5.1,2.4c-2.8,0 -5.1,-1.1 -5.1,-2.4" style="fill:none;fill-rule:nonzero;stroke:#fff;stroke-width:0.5px;"/><path d="M108.7,30.8c0,1.3 -2.3,2.4 -5.1,2.4c-2.8,0 -5.1,-1.1 -5.1,-2.4" style="fill:none;fill-rule:nonzero;stroke:#fff;stroke-width:0.5px;"/><g><path d="M99.1,7.7c0.2,0.4 0.9,0.9 1.7,1c0.9,0.1 2.1,0 3.3,-0.3c2.5,-0.7 4.1,-2 3.9,-3.3l-0,-0.4c0.2,0.1 0.2,0.1 0.4,0.2l0.1,0.1c0.4,1.4 -1.5,3.1 -4.3,3.9c-2.8,0.8 -5.3,0.4 -5.7,-1c-0.1,-0.3 0.5,-0.5 0.5,-0.5" style="fill:#fff;fill-rule:nonzero;"/></g><g><path d="M99.1,13.3c0.2,0.4 0.9,0.9 1.7,1c0.9,0.1 2.1,0 3.3,-0.3c2.5,-0.7 4.1,-2 3.9,-3.3l-0,-0.4c0.2,0.1 0.2,0.1 0.4,0.2l0.1,0.1c0.4,1.4 -1.5,3.1 -4.3,3.9c-2.8,0.8 -5.3,0.4 -5.7,-1c-0,-0.3 0.5,-0.5 0.6,-0.5" style="fill:#fff;fill-rule:nonzero;"/></g><g><path d="M99.1,18.9c0.2,0.4 0.9,0.9 1.7,1c0.9,0.1 2.1,-0 3.3,-0.3c2.5,-0.7 4.1,-2 3.9,-3.3l-0,-0.4c0.2,0.1 0.2,0.1 0.4,0.2l0.1,0.1c0.4,1.4 -1.5,3.1 -4.3,3.9c-2.8,0.8 -5.3,0.4 -5.7,-1c-0.1,-0.3 0.5,-0.5 0.5,-0.5" style="fill:#fff;fill-rule:nonzero;"/></g><g><path d="M99.1,24.5c0.2,0.4 0.9,0.9 1.7,1c0.9,0.1 2.1,0 3.3,-0.3c2.5,-0.7 4.1,-2 3.9,-3.3l-0,-0.4c0.2,0.1 0.2,0.1 0.4,0.2l0.1,0.1c0.4,1.4 -1.5,3.1 -4.3,3.9c-2.8,0.8 -5.3,0.4 -5.7,-1c-0.1,-0.3 0.5,-0.5 0.5,-0.5" style="fill:#fff;fill-rule:nonzero;"/></g><g><path d="M99.1,30.1c0.2,0.4 0.9,0.9 1.7,1c0.9,0.1 2.1,0 3.3,-0.3c2.5,-0.7 4.1,-2 3.9,-3.3l-0,-0.4c0.2,0.1 0.2,0.1 0.4,0.2l0.1,0.1c0.4,1.4 -1.5,3.1 -4.3,3.9c-2.8,0.8 -5.3,0.4 -5.7,-1c-0.1,-0.3 0.5,-0.5 0.5,-0.5" style="fill:#fff;fill-rule:nonzero;"/></g><g><path d="M99.1,35.7c0.2,0.4 0.9,0.9 1.7,1c0.9,0.1 2.1,0 3.3,-0.3c2.5,-0.7 4.1,-2 3.9,-3.3l-0,-0.4c0.2,0.1 0.2,0.1 0.4,0.2l0.1,0.1c0.4,1.4 -1.5,3.1 -4.3,3.9c-2.8,0.8 -5.3,0.4 -5.7,-1c-0.1,-0.3 0.5,-0.5 0.5,-0.5" style="fill:#fff;fill-rule:nonzero;"/></g><g><path d="M99.1,41.3c0.2,0.4 0.9,0.9 1.7,1c0.9,0.1 2.1,-0 3.3,-0.3c2.5,-0.7 4.1,-2 3.9,-3.3l-0,-0.4c0.2,0.1 0.2,0.1 0.4,0.2l0.1,0.1c0.4,1.4 -1.5,3.1 -4.3,3.9c-2.8,0.8 -5.3,0.4 -5.7,-1c-0,-0.3 0.5,-0.5 0.6,-0.5" style="fill:#fff;fill-rule:nonzero;"/></g><g><path d="M99.1,46.9c0.2,0.4 0.9,0.9 1.7,1c0.9,0.1 2.1,0 3.3,-0.3c2.5,-0.7 4.1,-2 3.9,-3.3l-0,-0.4c0.2,0.1 0.2,0.1 0.4,0.2l0.1,0.1c0.4,1.4 -1.5,3.1 -4.3,3.9c-2.8,0.8 -5.3,0.4 -5.7,-1c-0.1,-0.3 0.5,-0.5 0.5,-0.5" style="fill:#fff;fill-rule:nonzero;"/></g><g><path d="M99.1,52.5c0.2,0.4 0.9,0.9 1.7,1c0.9,0.1 2.1,0 3.3,-0.3c2.5,-0.7 4.1,-2 3.9,-3.3l-0,-0.4c0.2,0.1 0.2,0.1 0.4,0.2l0.1,0.1c0.4,1.4 -1.5,3.1 -4.3,3.9c-2.8,0.8 -5.3,0.4 -5.7,-1c-0.1,-0.3 0.5,-0.5 0.5,-0.5" style="fill:#fff;fill-rule:nonzero;"/></g><g><path d="M99.1,58.1c0.2,0.4 0.9,0.9 1.7,1c0.9,0.1 2.1,0 3.3,-0.3c2.5,-0.7 4.1,-2 3.9,-3.3l-0,-0.4c0.2,0.1 0.2,0.1 0.4,0.2l0.1,0.1c0.4,1.4 -1.5,3.1 -4.3,3.9c-2.8,0.8 -5.3,0.4 -5.7,-1c-0.1,-0.3 0.5,-0.5 0.5,-0.5" style="fill:#fff;fill-rule:nonzero;"/></g><g><path d="M99.1,63.7c0.2,0.4 0.9,0.9 1.7,1c0.9,0.1 2.1,0 3.3,-0.3c2.5,-0.7 4.1,-2 3.9,-3.3l-0,-0.4c0.2,0.1 0.2,0.1 0.4,0.2l0.1,0.1c0.4,1.4 -1.5,3.1 -4.3,3.9c-2.8,0.8 -5.3,0.4 -5.7,-1c-0.1,-0.3 0.5,-0.5 0.5,-0.5" style="fill:#fff;fill-rule:nonzero;"/></g><g><path d="M99.1,69.3c0.2,0.4 0.9,0.9 1.7,1c0.9,0.1 2.1,0 3.3,-0.3c2.5,-0.7 4.1,-2 3.9,-3.3l-0,-0.4c0.2,0.1 0.2,0.1 0.4,0.2l0.1,0.1c0.4,1.4 -1.5,3.1 -4.3,3.9c-2.8,0.8 -5.3,0.4 -5.7,-1c-0,-0.3 0.5,-0.5 0.6,-0.5" style="fill:#fff;fill-rule:nonzero;"/></g><g><path d="M99.1,74.9c0.2,0.4 0.9,0.9 1.7,1c0.9,0.1 2.1,0 3.3,-0.3c2.5,-0.7 4.1,-2 3.9,-3.3l-0,-0.4c0.2,0.1 0.2,0.1 0.4,0.2l0.1,0.1c0.4,1.4 -1.5,3.1 -4.3,3.9c-2.8,0.8 -5.3,0.4 -5.7,-1c-0.1,-0.3 0.5,-0.5 0.5,-0.5" style="fill:#fff;fill-rule:nonzero;"/></g><g><path d="M99.1,80.5c0.2,0.4 0.9,0.9 1.7,1c0.9,0.1 2.1,0 3.3,-0.3c2.5,-0.7 4.1,-2 3.9,-3.3l-0,-0.4c0.2,0.1 0.2,0.1 0.4,0.2l0.1,0.1c0.4,1.4 -1.5,3.1 -4.3,3.9c-2.8,0.8 -5.3,0.4 -5.7,-1c-0.1,-0.3 0.5,-0.5 0.5,-0.5" style="fill:#fff;fill-rule:nonzero;"/></g><g><path d="M99.1,86.1c0.2,0.4 0.9,0.9 1.7,1c0.9,0.1 2.1,-0 3.3,-0.3c2.5,-0.7 4.1,-2 3.9,-3.3l-0,-0.4c0.2,0.1 0.2,0.1 0.4,0.2l0.1,0.1c0.4,1.4 -1.5,3.1 -4.3,3.9c-2.8,0.8 -5.3,0.4 -5.7,-1c-0.1,-0.3 0.5,-0.5 0.5,-0.5" style="fill:#fff;fill-rule:nonzero;"/></g><path d="M108.7,51.1c0,1.3 -2.3,2.4 -5.1,2.4c-2.8,0 -5.1,-1.1 -5.1,-2.4" style="fill:none;fill-rule:nonzero;stroke:#fff;stroke-width:0.5px;"/><path d="M108.7,57.9c0,1.3 -2.3,2.4 -5.1,2.4c-2.8,0 -5.1,-1.1 -5.1,-2.4" style="fill:none;fill-rule:nonzero;stroke:#fff;stroke-width:0.5px;"/><path d="M108.7,64.7c0,1.3 -2.3,2.4 -5.1,2.4c-2.8,0 -5.1,-1.1 -5.1,-2.4" style="fill:none;fill-rule:nonzero;stroke:#fff;stroke-width:0.5px;"/><g><path d="M151.1,90.6c2.4,-5 4.2,-10.6 5.5,-16.7l-18.9,-2.9c-2.8,11.1 -8.4,22.3 -19.9,26c-16.8,5.3 -28,-7 -33.8,-25.4l65.5,-19.6c-3.1,-11.1 -12.7,-24.3 -20.6,-29.4c-9.6,-6.2 -22,-12.3 -45.5,-5.1c-25.7,7.8 -33.6,30.3 -33.6,30.3c-4.3,10.7 -4.8,23.1 -0.7,36c4.6,14.6 13.1,25.9 24.6,31.5c10.2,4.9 25.2,10.4 45.3,4.1c20,-6.4 32.1,-28.8 32.1,-28.8m-71.4,-35.1c-2,-8.6 2.9,-16.3 10.6,-18.8c7.8,-2.5 18.9,0.3 21.7,8.6l-32.3,10.2Z" style="fill:url(#_Linear5);fill-rule:nonzero;stroke:#dd313e;stroke-width:0.2px;"/><path d="M154.9,93.4c2.4,-5.1 4.3,-10.8 5.6,-17l-19.1,-3c-2.8,11.3 -8.5,22.7 -20.2,26.4c-17.1,5.4 -28.4,-7.1 -34.4,-25.9l63.8,-20.3c-3.1,-11.3 -10.1,-24.3 -18.1,-29.5c-9.8,-6.3 -22.1,-11.9 -46.3,-5.3c-26.6,7.3 -34.2,30.9 -34.2,30.9c-4.4,10.9 -4.9,23.5 -0.7,36.6c4.7,14.9 13.3,26.4 25,32c10.4,5 25.6,10.7 46,4.2c20.3,-6.4 32.6,-29.1 32.6,-29.1m-72.5,-35.8c-2,-8.7 2.9,-16.6 10.7,-19.1c7.9,-2.5 15.5,1.4 18.4,9.8l-29.1,9.3Z" style="fill:url(#_Linear6);fill-rule:nonzero;stroke:#dd313e;stroke-width:0.2px;"/><g><path d="M141.3,73.3l-3.1,-2.1l18.4,2.8l3.4,2.2l-18.7,-2.9Z" style="fill:url(#_Linear7);fill-rule:nonzero;"/><path d="M138.6,71.3l17.9,2.8l3,1.9l-18.2,-2.8l-2.7,-1.9m-0.9,-0.3l3.5,2.4l19.1,3l-3.8,-2.5l-18.8,-2.9Z" style="fill:#dd313e;fill-rule:nonzero;"/></g></g><path d="M12.3,27.6l0,85.3c0,1.3 2,2.4 4.5,2.4c2.5,0 4.5,-1.1 4.5,-2.4l0,-85.3l-9,-0Z" style="fill:url(#_Linear8);fill-rule:nonzero;"/><path d="M183.8,27.6l0,85.3c0,1.3 2,2.4 4.5,2.4c2.5,0 4.5,-1.1 4.5,-2.4l0,-85.3l-9,-0Z" style="fill:url(#_Linear9);fill-rule:nonzero;"/><g><path d="M188.3,29.3c-2.4,0 -4.4,-0.7 -4.4,-1.6c0,-0.9 2,-1.6 4.4,-1.6c2.4,0 4.4,0.7 4.4,1.6c0,0.9 -2,1.6 -4.4,1.6Z" style="fill:url(#_Linear10);fill-rule:nonzero;"/><path d="M188.3,26.1c2.5,0 4.3,0.8 4.3,1.5c0,0.7 -1.8,1.5 -4.3,1.5c-2.5,0 -4.3,-0.8 -4.3,-1.5c0,-0.7 1.8,-1.5 4.3,-1.5m0,-0.2c-2.5,-0 -4.5,0.8 -4.5,1.7c0,0.9 2,1.7 4.5,1.7c2.5,-0 4.5,-0.8 4.5,-1.7c0,-0.9 -2,-1.7 -4.5,-1.7Z" style="fill:#e6e7e8;fill-rule:nonzero;"/></g><g><path d="M103.6,3.4c-2.4,0 -4.4,-0.7 -4.4,-1.6c-0,-0.9 2,-1.6 4.4,-1.6c2.4,0 4.4,0.7 4.4,1.6c-0,0.9 -2,1.6 -4.4,1.6Z" style="fill:url(#_Linear11);fill-rule:nonzero;"/><path d="M103.6,0.2c2.5,0 4.3,0.8 4.3,1.5c-0,0.7 -1.8,1.5 -4.3,1.5c-2.5,0 -4.3,-0.8 -4.3,-1.5c-0,-0.7 1.7,-1.5 4.3,-1.5m-0,-0.2c-2.5,-0 -4.5,0.8 -4.5,1.7c-0,0.9 2,1.7 4.5,1.7c2.5,-0 4.5,-0.8 4.5,-1.7c-0,-0.9 -2,-1.7 -4.5,-1.7Z" style="fill:#e6e7e8;fill-rule:nonzero;"/></g><g><path d="M16.8,29.2c-2.4,0 -4.4,-0.7 -4.4,-1.6c0,-0.9 2,-1.6 4.4,-1.6c2.4,0 4.4,0.7 4.4,1.6c0,0.9 -2,1.6 -4.4,1.6Z" style="fill:url(#_Linear12);fill-rule:nonzero;"/><path d="M16.8,26.1c2.5,0 4.3,0.8 4.3,1.5c0,0.7 -1.8,1.5 -4.3,1.5c-2.5,0 -4.3,-0.8 -4.3,-1.5c0,-0.7 1.8,-1.5 4.3,-1.5m0,-0.2c-2.5,-0 -4.5,0.8 -4.5,1.7c0,0.9 2,1.7 4.5,1.7c2.5,-0 4.5,-0.8 4.5,-1.7c0,-0.9 -2,-1.7 -4.5,-1.7Z" style="fill:#e6e7e8;fill-rule:nonzero;"/></g><g><path d="M183.8,33.3c0.2,0.4 0.9,0.9 1.7,1c0.9,0.1 2.1,0 3.3,-0.3c2.5,-0.7 4.1,-2 3.9,-3.3l0,-0.4c0.2,0.1 0.2,0.1 0.4,0.2l0.1,0.1c0.4,1.4 -1.5,3.1 -4.3,3.9c-2.8,0.8 -5.3,0.4 -5.7,-1c-0.1,-0.3 0.5,-0.5 0.5,-0.5" style="fill:#fff;fill-rule:nonzero;"/></g><g><path d="M183.8,38.9c0.2,0.4 0.9,0.9 1.7,1c0.9,0.1 2.1,0 3.3,-0.3c2.5,-0.7 4.1,-2 3.9,-3.3l0,-0.4c0.2,0.1 0.2,0.1 0.4,0.2l0.1,0.1c0.4,1.4 -1.5,3.1 -4.3,3.9c-2.8,0.8 -5.3,0.4 -5.7,-1c-0.1,-0.3 0.5,-0.5 0.5,-0.5" style="fill:#fff;fill-rule:nonzero;"/></g><g><path d="M183.8,44.5c0.2,0.4 0.9,0.9 1.7,1c0.9,0.1 2.1,0 3.3,-0.3c2.5,-0.7 4.1,-2 3.9,-3.3l0,-0.4c0.2,0.1 0.2,0.1 0.4,0.2l0.1,0.1c0.4,1.4 -1.5,3.1 -4.3,3.9c-2.8,0.8 -5.3,0.4 -5.7,-1c-0.1,-0.3 0.5,-0.5 0.5,-0.5" style="fill:#fff;fill-rule:nonzero;"/></g><g><path d="M183.8,50.1c0.2,0.4 0.9,0.9 1.7,1c0.9,0.1 2.1,0 3.3,-0.3c2.5,-0.7 4.1,-2 3.9,-3.3l0,-0.4c0.2,0.1 0.2,0.1 0.4,0.2l0.1,0.1c0.4,1.4 -1.5,3.1 -4.3,3.9c-2.8,0.8 -5.3,0.4 -5.7,-1c-0.1,-0.3 0.5,-0.5 0.5,-0.5" style="fill:#fff;fill-rule:nonzero;"/></g><g><path d="M183.8,55.7c0.2,0.4 0.9,0.9 1.7,1c0.9,0.1 2.1,0 3.3,-0.3c2.5,-0.7 4.1,-2 3.9,-3.3l0,-0.4c0.2,0.1 0.2,0.1 0.4,0.2l0.1,0.1c0.4,1.4 -1.5,3.1 -4.3,3.9c-2.8,0.8 -5.3,0.4 -5.7,-1c-0.1,-0.3 0.5,-0.5 0.5,-0.5" style="fill:#fff;fill-rule:nonzero;"/></g><g><path d="M183.8,61.3c0.2,0.4 0.9,0.9 1.7,1c0.9,0.1 2.1,-0 3.3,-0.3c2.5,-0.7 4.1,-2 3.9,-3.3l0,-0.4c0.2,0.1 0.2,0.1 0.4,0.2l0.1,0.1c0.4,1.4 -1.5,3.1 -4.3,3.9c-2.8,0.8 -5.3,0.4 -5.7,-1c-0.1,-0.3 0.5,-0.5 0.5,-0.5" style="fill:#fff;fill-rule:nonzero;"/></g><g><path d="M183.8,66.9c0.2,0.4 0.9,0.9 1.7,1c0.9,0.1 2.1,0 3.3,-0.3c2.5,-0.7 4.1,-2 3.9,-3.3l0,-0.4c0.2,0.1 0.2,0.1 0.4,0.2l0.1,0.1c0.4,1.4 -1.5,3.1 -4.3,3.9c-2.8,0.8 -5.3,0.4 -5.7,-1c-0.1,-0.3 0.5,-0.5 0.5,-0.5" style="fill:#fff;fill-rule:nonzero;"/></g><g><path d="M183.8,72.5c0.2,0.4 0.9,0.9 1.7,1c0.9,0.1 2.1,0 3.3,-0.3c2.5,-0.7 4.1,-2 3.9,-3.3l0,-0.4c0.2,0.1 0.2,0.1 0.4,0.2l0.1,0.1c0.4,1.4 -1.5,3.1 -4.3,3.9c-2.8,0.8 -5.3,0.4 -5.7,-1c-0.1,-0.3 0.5,-0.5 0.5,-0.5" style="fill:#fff;fill-rule:nonzero;"/></g><g><path d="M183.8,78.1c0.2,0.4 0.9,0.9 1.7,1c0.9,0.1 2.1,-0 3.3,-0.3c2.5,-0.7 4.1,-2 3.9,-3.3l0,-0.4c0.2,0.1 0.2,0.1 0.4,0.2l0.1,0.1c0.4,1.4 -1.5,3.1 -4.3,3.9c-2.8,0.8 -5.3,0.4 -5.7,-1c-0.1,-0.3 0.5,-0.5 0.5,-0.5" style="fill:#fff;fill-rule:nonzero;"/></g><g><path d="M183.8,83.7c0.2,0.4 0.9,0.9 1.7,1c0.9,0.1 2.1,0 3.3,-0.3c2.5,-0.7 4.1,-2 3.9,-3.3l0,-0.4c0.2,0.1 0.2,0.1 0.4,0.2l0.1,0.1c0.4,1.4 -1.5,3.1 -4.3,3.9c-2.8,0.8 -5.3,0.4 -5.7,-1c-0.1,-0.3 0.5,-0.5 0.5,-0.5" style="fill:#fff;fill-rule:nonzero;"/></g><g><path d="M183.8,89.3c0.2,0.4 0.9,0.9 1.7,1c0.9,0.1 2.1,0 3.3,-0.3c2.5,-0.7 4.1,-2 3.9,-3.3l0,-0.4c0.2,0.1 0.2,0.1 0.4,0.2l0.1,0.1c0.4,1.4 -1.5,3.1 -4.3,3.9c-2.8,0.8 -5.3,0.4 -5.7,-1c-0.1,-0.3 0.5,-0.5 0.5,-0.5" style="fill:#fff;fill-rule:nonzero;"/></g><g><path d="M183.8,94.9c0.2,0.4 0.9,0.9 1.7,1c0.9,0.1 2.1,0 3.3,-0.3c2.5,-0.7 4.1,-2 3.9,-3.3l0,-0.4c0.2,0.1 0.2,0.1 0.4,0.2l0.1,0.1c0.4,1.4 -1.5,3.1 -4.3,3.9c-2.8,0.8 -5.3,0.4 -5.7,-1c-0.1,-0.3 0.5,-0.5 0.5,-0.5" style="fill:#fff;fill-rule:nonzero;"/></g><g><path d="M183.8,100.5c0.2,0.4 0.9,0.9 1.7,1c0.9,0.1 2.1,0 3.3,-0.3c2.5,-0.7 4.1,-2 3.9,-3.3l0,-0.4c0.2,0.1 0.2,0.1 0.4,0.2l0.1,0.1c0.4,1.4 -1.5,3.1 -4.3,3.9c-2.8,0.8 -5.3,0.4 -5.7,-1c-0.1,-0.3 0.5,-0.5 0.5,-0.5" style="fill:#fff;fill-rule:nonzero;"/></g><g><path d="M183.8,106.1c0.2,0.4 0.9,0.9 1.7,1c0.9,0.1 2.1,-0 3.3,-0.3c2.5,-0.7 4.1,-2 3.9,-3.3l0,-0.4c0.2,0.1 0.2,0.1 0.4,0.2l0.1,0.1c0.4,1.4 -1.5,3.1 -4.3,3.9c-2.8,0.8 -5.3,0.4 -5.7,-1c-0.1,-0.3 0.5,-0.5 0.5,-0.5" style="fill:#fff;fill-rule:nonzero;"/></g><g><path d="M183.8,111.7c0.2,0.4 0.9,0.9 1.7,1c0.9,0.1 2.1,0 3.3,-0.3c2.5,-0.7 4.1,-2 3.9,-3.3l0,-0.4c0.2,0.1 0.2,0.1 0.4,0.2l0.1,0.1c0.4,1.4 -1.5,3.1 -4.3,3.9c-2.8,0.8 -5.3,0.4 -5.7,-1c-0.1,-0.3 0.5,-0.5 0.5,-0.5" style="fill:#fff;fill-rule:nonzero;"/></g><path d="M150.3,120.3c0,-4 -23.2,-6.8 -29.7,-8.9c-5,-1.6 -12.8,3.9 -18.8,3.9c-7.3,0 -12.8,-6 -18.5,-3.6c-5.5,2.3 -26.5,4.8 -26.5,8.6c0,5.2 20.9,9.5 46.8,9.5c25.8,0 46.7,-4.3 46.7,-9.5Z" style="fill:url(#_Linear13);fill-rule:nonzero;"/><g><path d="M12.4,33.3c0.2,0.4 0.9,0.9 1.7,1c0.9,0.1 2.1,0 3.3,-0.3c2.5,-0.7 4.1,-2 3.9,-3.3l0,-0.4c0.2,0.1 0.2,0.1 0.4,0.2l0.1,0.1c0.4,1.4 -1.5,3.1 -4.3,3.9c-2.8,0.8 -5.3,0.4 -5.7,-1c-0.1,-0.3 0.5,-0.5 0.5,-0.5" style="fill:#fff;fill-rule:nonzero;"/></g><g><path d="M12.4,38.9c0.2,0.4 0.9,0.9 1.7,1c0.9,0.1 2.1,0 3.3,-0.3c2.5,-0.7 4.1,-2 3.9,-3.3l0,-0.4c0.2,0.1 0.2,0.1 0.4,0.2l0.1,0.1c0.4,1.4 -1.5,3.1 -4.3,3.9c-2.8,0.8 -5.3,0.4 -5.7,-1c-0.1,-0.3 0.5,-0.5 0.5,-0.5" style="fill:#fff;fill-rule:nonzero;"/></g><g><path d="M12.4,44.5c0.2,0.4 0.9,0.9 1.7,1c0.9,0.1 2.1,0 3.3,-0.3c2.5,-0.7 4.1,-2 3.9,-3.3l0,-0.4c0.2,0.1 0.2,0.1 0.4,0.2l0.1,0.1c0.4,1.4 -1.5,3.1 -4.3,3.9c-2.8,0.8 -5.3,0.4 -5.7,-1c-0.1,-0.3 0.5,-0.5 0.5,-0.5" style="fill:#fff;fill-rule:nonzero;"/></g><g><path d="M12.4,50.1c0.2,0.4 0.9,0.9 1.7,1c0.9,0.1 2.1,0 3.3,-0.3c2.5,-0.7 4.1,-2 3.9,-3.3l0,-0.4c0.2,0.1 0.2,0.1 0.4,0.2l0.1,0.1c0.4,1.4 -1.5,3.1 -4.3,3.9c-2.8,0.8 -5.3,0.4 -5.7,-1c-0.1,-0.3 0.5,-0.5 0.5,-0.5" style="fill:#fff;fill-rule:nonzero;"/></g><g><path d="M12.4,55.7c0.2,0.4 0.9,0.9 1.7,1c0.9,0.1 2.1,0 3.3,-0.3c2.5,-0.7 4.1,-2 3.9,-3.3l0,-0.4c0.2,0.1 0.2,0.1 0.4,0.2l0.1,0.1c0.4,1.4 -1.5,3.1 -4.3,3.9c-2.8,0.8 -5.3,0.4 -5.7,-1c-0.1,-0.3 0.5,-0.5 0.5,-0.5" style="fill:#fff;fill-rule:nonzero;"/></g><g><path d="M12.4,61.3c0.2,0.4 0.9,0.9 1.7,1c0.9,0.1 2.1,-0 3.3,-0.3c2.5,-0.7 4.1,-2 3.9,-3.3l0,-0.4c0.2,0.1 0.2,0.1 0.4,0.2l0.1,0.1c0.4,1.4 -1.5,3.1 -4.3,3.9c-2.8,0.8 -5.3,0.4 -5.7,-1c-0.1,-0.3 0.5,-0.5 0.5,-0.5" style="fill:#fff;fill-rule:nonzero;"/></g><g><path d="M12.4,66.9c0.2,0.4 0.9,0.9 1.7,1c0.9,0.1 2.1,0 3.3,-0.3c2.5,-0.7 4.1,-2 3.9,-3.3l0,-0.4c0.2,0.1 0.2,0.1 0.4,0.2l0.1,0.1c0.4,1.4 -1.5,3.1 -4.3,3.9c-2.8,0.8 -5.3,0.4 -5.7,-1c-0.1,-0.3 0.5,-0.5 0.5,-0.5" style="fill:#fff;fill-rule:nonzero;"/></g><g><path d="M12.4,72.5c0.2,0.4 0.9,0.9 1.7,1c0.9,0.1 2.1,0 3.3,-0.3c2.5,-0.7 4.1,-2 3.9,-3.3l0,-0.4c0.2,0.1 0.2,0.1 0.4,0.2l0.1,0.1c0.4,1.4 -1.5,3.1 -4.3,3.9c-2.8,0.8 -5.3,0.4 -5.7,-1c-0.1,-0.3 0.5,-0.5 0.5,-0.5" style="fill:#fff;fill-rule:nonzero;"/></g><g><path d="M12.4,78.1c0.2,0.4 0.9,0.9 1.7,1c0.9,0.1 2.1,-0 3.3,-0.3c2.5,-0.7 4.1,-2 3.9,-3.3l0,-0.4c0.2,0.1 0.2,0.1 0.4,0.2l0.1,0.1c0.4,1.4 -1.5,3.1 -4.3,3.9c-2.8,0.8 -5.3,0.4 -5.7,-1c-0.1,-0.3 0.5,-0.5 0.5,-0.5" style="fill:#fff;fill-rule:nonzero;"/></g><g><path d="M12.4,83.7c0.2,0.4 0.9,0.9 1.7,1c0.9,0.1 2.1,0 3.3,-0.3c2.5,-0.7 4.1,-2 3.9,-3.3l0,-0.4c0.2,0.1 0.2,0.1 0.4,0.2l0.1,0.1c0.4,1.4 -1.5,3.1 -4.3,3.9c-2.8,0.8 -5.3,0.4 -5.7,-1c-0.1,-0.3 0.5,-0.5 0.5,-0.5" style="fill:#fff;fill-rule:nonzero;"/></g><g><path d="M12.4,89.3c0.2,0.4 0.9,0.9 1.7,1c0.9,0.1 2.1,0 3.3,-0.3c2.5,-0.7 4.1,-2 3.9,-3.3l0,-0.4c0.2,0.1 0.2,0.1 0.4,0.2l0.1,0.1c0.4,1.4 -1.5,3.1 -4.3,3.9c-2.8,0.8 -5.3,0.4 -5.7,-1c-0.1,-0.3 0.5,-0.5 0.5,-0.5" style="fill:#fff;fill-rule:nonzero;"/></g><g><path d="M12.4,94.9c0.2,0.4 0.9,0.9 1.7,1c0.9,0.1 2.1,0 3.3,-0.3c2.5,-0.7 4.1,-2 3.9,-3.3l0,-0.4c0.2,0.1 0.2,0.1 0.4,0.2l0.1,0.1c0.4,1.4 -1.5,3.1 -4.3,3.9c-2.8,0.8 -5.3,0.4 -5.7,-1c-0.1,-0.3 0.5,-0.5 0.5,-0.5" style="fill:#fff;fill-rule:nonzero;"/></g><g><path d="M12.4,100.5c0.2,0.4 0.9,0.9 1.7,1c0.9,0.1 2.1,0 3.3,-0.3c2.5,-0.7 4.1,-2 3.9,-3.3l0,-0.4c0.2,0.1 0.2,0.1 0.4,0.2l0.1,0.1c0.4,1.4 -1.5,3.1 -4.3,3.9c-2.8,0.8 -5.3,0.4 -5.7,-1c-0.1,-0.3 0.5,-0.5 0.5,-0.5" style="fill:#fff;fill-rule:nonzero;"/></g><g><path d="M12.4,106.1c0.2,0.4 0.9,0.9 1.7,1c0.9,0.1 2.1,-0 3.3,-0.3c2.5,-0.7 4.1,-2 3.9,-3.3l0,-0.4c0.2,0.1 0.2,0.1 0.4,0.2l0.1,0.1c0.4,1.4 -1.5,3.1 -4.3,3.9c-2.8,0.8 -5.3,0.4 -5.7,-1c-0.1,-0.3 0.5,-0.5 0.5,-0.5" style="fill:#fff;fill-rule:nonzero;"/></g><g><path d="M12.4,111.7c0.2,0.4 0.9,0.9 1.7,1c0.9,0.1 2.1,0 3.3,-0.3c2.5,-0.7 4.1,-2 3.9,-3.3l0,-0.4c0.2,0.1 0.2,0.1 0.4,0.2l0.1,0.1c0.4,1.4 -1.5,3.1 -4.3,3.9c-2.8,0.8 -5.3,0.4 -5.7,-1c-0.1,-0.3 0.5,-0.5 0.5,-0.5" style="fill:#fff;fill-rule:nonzero;"/></g></g></g></g></g><defs><linearGradient id="_Linear2" x1="0" y1="0" x2="1" y2="0" gradientUnits="userSpaceOnUse" gradientTransform="matrix(5.17091e-15,84.4473,-84.4473,5.17091e-15,50.9121,112.569)"><stop offset="0" style="stop-color:#d1d1d1;stop-opacity:1"/><stop offset="0.39" style="stop-color:#cecece;stop-opacity:1"/><stop offset="0.67" style="stop-color:#c5c5c5;stop-opacity:1"/><stop offset="0.9" style="stop-color:#b6b6b6;stop-opacity:1"/><stop offset="1" style="stop-color:#adadad;stop-opacity:1"/></linearGradient><linearGradient id="_Linear3" x1="0" y1="0" x2="1" y2="0" gradientUnits="userSpaceOnUse" gradientTransform="matrix(5.16672e-15,-84.3789,84.3789,5.16672e-15,152.736,196.982)"><stop offset="0" style="stop-color:#d4d4d4;stop-opacity:1"/><stop offset="0.46" style="stop-color:#d1d1d1;stop-opacity:1"/><stop offset="1" style="stop-color:#bcbcbc;stop-opacity:1"/></linearGradient><linearGradient id="_Linear4" x1="0" y1="0" x2="1" y2="0" gradientUnits="userSpaceOnUse" gradientTransform="matrix(3.24157e-15,-52.9389,52.9389,3.24157e-15,103.573,65.2699)"><stop offset="0" style="stop-color:#cadad9;stop-opacity:1"/><stop offset="1" style="stop-color:#e6e7e8;stop-opacity:1"/></linearGradient><linearGradient id="_Linear5" x1="0" y1="0" x2="1" y2="0" gradientUnits="userSpaceOnUse" gradientTransform="matrix(110.349,-0.510156,0.510156,110.349,46.2678,68.4771)"><stop offset="0" style="stop-color:#cc1e2d;stop-opacity:1"/><stop offset="0.38" style="stop-color:#e62728;stop-opacity:1"/><stop offset="0.74" style="stop-color:#f92d25;stop-opacity:1"/><stop offset="1" style="stop-color:#ff2f24;stop-opacity:1"/></linearGradient><linearGradient id="_Linear6" x1="0" y1="0" x2="1" y2="0" gradientUnits="userSpaceOnUse" gradientTransform="matrix(6.70958e-15,-109.576,109.576,6.70958e-15,104.404,125.466)"><stop offset="0" style="stop-color:#a91e2d;stop-opacity:1"/><stop offset="0.26" style="stop-color:#c9242a;stop-opacity:1"/><stop offset="0.56" style="stop-color:#e62a27;stop-opacity:1"/><stop offset="0.82" style="stop-color:#f92e25;stop-opacity:1"/><stop offset="1" style="stop-color:#ff2f24;stop-opacity:1"/></linearGradient><linearGradient id="_Linear7" x1="0" y1="0" x2="1" y2="0" gradientUnits="userSpaceOnUse" gradientTransform="matrix(21.8027,0,0,21.8027,138.162,73.6894)"><stop offset="0" style="stop-color:#a91e2d;stop-opacity:1"/><stop offset="0.26" style="stop-color:#c9242a;stop-opacity:1"/><stop offset="0.56" style="stop-color:#e62a27;stop-opacity:1"/><stop offset="0.82" style="stop-color:#f92e25;stop-opacity:1"/><stop offset="1" style="stop-color:#ff2f24;stop-opacity:1"/></linearGradient><linearGradient id="_Linear8" x1="0" y1="0" x2="1" y2="0" gradientUnits="userSpaceOnUse" gradientTransform="matrix(3.24157e-15,-52.9389,52.9389,3.24157e-15,16.8496,91.1527)"><stop offset="0" style="stop-color:#cadad9;stop-opacity:1"/><stop offset="1" style="stop-color:#e6e7e8;stop-opacity:1"/></linearGradient><linearGradient id="_Linear9" x1="0" y1="0" x2="1" y2="0" gradientUnits="userSpaceOnUse" gradientTransform="matrix(3.24157e-15,-52.9389,52.9389,3.24157e-15,188.35,91.1527)"><stop offset="0" style="stop-color:#cadad9;stop-opacity:1"/><stop offset="1" style="stop-color:#e6e7e8;stop-opacity:1"/></linearGradient><linearGradient id="_Linear10" x1="0" y1="0" x2="1" y2="0" gradientUnits="userSpaceOnUse" gradientTransform="matrix(1.20983e-16,-1.9758,1.9758,1.20983e-16,188.35,28.3543)"><stop offset="0" style="stop-color:#cadad9;stop-opacity:1"/><stop offset="1" style="stop-color:#e6e7e8;stop-opacity:1"/></linearGradient><linearGradient id="_Linear11" x1="0" y1="0" x2="1" y2="0" gradientUnits="userSpaceOnUse" gradientTransform="matrix(1.20983e-16,-1.9758,1.9758,1.20983e-16,103.573,2.4715)"><stop offset="0" style="stop-color:#cadad9;stop-opacity:1"/><stop offset="1" style="stop-color:#e6e7e8;stop-opacity:1"/></linearGradient><linearGradient id="_Linear12" x1="0" y1="0" x2="1" y2="0" gradientUnits="userSpaceOnUse" gradientTransform="matrix(1.20977e-16,-1.9757,1.9757,1.20977e-16,16.8496,28.3259)"><stop offset="0" style="stop-color:#cadad9;stop-opacity:1"/><stop offset="1" style="stop-color:#e6e7e8;stop-opacity:1"/></linearGradient><linearGradient id="_Linear13" x1="0" y1="0" x2="1" y2="0" gradientUnits="userSpaceOnUse" gradientTransform="matrix(1.14226e-15,-18.6546,18.6546,1.14226e-15,103.573,129.793)"><stop offset="0" style="stop-color:#e2e2e2;stop-opacity:1"/><stop offset="0.36" style="stop-color:#dfe0e0;stop-opacity:1"/><stop offset="0.61" style="stop-color:#d6dada;stop-opacity:1"/><stop offset="0.82" style="stop-color:#c7d0cf;stop-opacity:1"/><stop offset="0.97" style="stop-color:#b7c6c4;stop-opacity:1"/><stop offset="1" style="stop-color:#b4c4c2;stop-opacity:1"/></linearGradient></defs></svg>