<svg width="100%" height="100%" viewBox="0 0 18 16" version="1.1" xmlns="http://www.w3.org/2000/svg" xmlns:xlink="http://www.w3.org/1999/xlink" xml:space="preserve" style="fill-rule:evenodd;clip-rule:evenodd;stroke-linejoin:bevel;"><g id="redis" transform="matrix(0.00266883,0,0,0.00266883,4.41302,0.997112)"><g transform="matrix(8.89321,5.1345,0,10.269,-552.826,1312.51)"><rect x="0" y="0" width="255.417" height="255.417" style="fill:rgb(255,68,56);stroke:rgb(9,26,35);stroke-width:3.02px;"/></g><g transform="matrix(8.89321,-5.1345,0,10.269,1717.59,2623.92)"><rect x="0" y="0" width="255.417" height="255.417" style="fill:rgb(107,43,43);stroke:rgb(9,26,35);stroke-width:3.02px;"/></g><g transform="matrix(8.89321,5.1345,-8.89321,5.1345,1718.79,1.08194)"><rect x="0" y="0" width="255.417" height="255.417" style="fill:rgb(255,68,56);stroke:rgb(255,68,56);stroke-width:3.02px;"/></g><g transform="matrix(10.269,0,0,10.269,-18.8381,-9.18706)"><path d="M249.672,162.417L193.829,130.177L249.67,97.937L305.513,130.178L249.672,162.417Z" style="fill:white;"/></g><g transform="matrix(10.269,0,0,10.269,-18.8381,-9.18706)"><path d="M168.532,213.359L105.483,176.958L196.244,161.018L168.634,213.419L168.532,213.359Z" style="fill:white;"/></g><g transform="matrix(10.269,0,0,10.269,-18.8381,-9.18706)"><path d="M108.416,147.498C92.961,156.422 67.906,156.421 52.45,147.498C36.994,138.574 36.993,124.109 52.449,115.186C67.905,106.262 92.959,106.262 108.415,115.186C123.872,124.11 123.872,138.575 108.416,147.498Z" style="fill:white;"/></g><g transform="matrix(10.269,0,0,10.269,-18.8381,-9.18706)"><path d="M203.403,64.179C204.634,70.475 206.346,77.494 195.9,83.525C186.569,88.912 174.898,86.188 167.995,82.485C174.344,83.789 181.827,83.495 187.902,79.801C199.511,72.653 196.944,61.679 187.12,56.007C175.368,49.222 158.091,49.41 142.808,58.234C131.878,64.544 122.477,74.754 120.129,83.673C126.774,87.622 139.313,90.505 139.703,89.168C141.894,81.524 144.457,75.94 148.606,71.484C149.578,82.185 151.151,107.428 152.559,111.219C156.51,113.164 170.881,116.212 173.105,114.928C173.781,114.537 173.977,113.979 173.98,113.199C173.223,105.427 172.03,98.757 170.494,92.552C180.143,97.376 195.596,101.165 208.025,93.989C219.15,87.566 222.18,76.585 209.197,63.282C207.56,61.667 203.118,62.23 203.401,64.18L203.403,64.179ZM176.186,63.097C181.87,66.379 179.051,71.23 173.925,74.189C171.185,75.771 168.364,76.572 165.768,76.995C164.212,72.561 162.508,68.075 160.697,63.267C167.411,60.51 172.738,61.104 176.186,63.095L176.186,63.097Z" style="fill:white;fill-rule:nonzero;"/></g><g transform="matrix(10.269,0,0,10.269,-18.8381,-9.18706)"><path d="M390.408,213.848L169.211,341.556L-51.986,213.848" style="fill:none;fill-rule:nonzero;stroke:rgb(255,68,56);stroke-opacity:0.15;stroke-width:2.01px;"/></g><g transform="matrix(10.269,0,0,10.269,-18.8381,-9.18706)"><path d="M390.404,213.851L169.207,341.559L-51.99,213.851" style="fill:none;fill-rule:nonzero;stroke:rgb(9,26,35);stroke-width:3.02px;"/></g><g transform="matrix(8.89321,5.1345,-8.89321,5.1345,1718.79,1.08194)"><rect x="0" y="0" width="255.417" height="255.417" style="fill:none;stroke:rgb(9,26,35);stroke-width:3.02px;"/></g><g transform="matrix(10.269,0,0,10.269,-18.8381,-9.18706)"><path d="M390.394,298.986L169.197,426.694L-52,298.986" style="fill:none;fill-rule:nonzero;stroke:rgb(9,26,35);stroke-width:3.02px;"/></g></g></svg>