<svg width="100%" height="100%" viewBox="0 0 18 16" version="1.1" xmlns="http://www.w3.org/2000/svg" xmlns:xlink="http://www.w3.org/1999/xlink" xml:space="preserve" style="fill-rule:evenodd;clip-rule:evenodd;stroke-linejoin:round;stroke-miterlimit:2;"><g id="redwoodjs" transform="matrix(0.357143,0,0,0.357143,2.125,0.5)"><path d="M10.481,6.072L18.637,11.639C18.821,11.762 19.036,11.829 19.256,11.833C19.477,11.831 19.693,11.764 19.876,11.639L28.037,6.054C28.355,5.827 28.529,5.448 28.498,5.058C28.466,4.667 28.232,4.322 27.883,4.15L19.727,0.113C19.418,-0.038 19.058,-0.038 18.748,0.113L10.618,4.15C10.262,4.323 10.025,4.675 9.997,5.072C9.969,5.469 10.154,5.85 10.481,6.072ZM22.026,13.387C22.027,13.756 22.208,14.101 22.51,14.31L29.048,18.779C29.466,19.067 30.026,19.031 30.405,18.691L35.889,13.786C36.133,13.568 36.269,13.251 36.26,12.922C36.25,12.594 36.096,12.286 35.839,12.082L30.603,7.895C30.222,7.592 29.691,7.572 29.289,7.845L22.51,12.482C22.213,12.687 22.033,13.024 22.026,13.387ZM5.765,19.465C6.03,19.702 6.166,20.052 6.131,20.407C6.097,20.764 5.891,21.081 5.58,21.256L1.675,23.596C1.28,23.833 0.78,23.799 0.42,23.511C0.059,23.222 -0.087,22.74 0.052,22.298L1.496,17.755C1.609,17.395 1.896,17.118 2.258,17.019C2.62,16.913 3.009,17.006 3.287,17.262L5.765,19.465ZM26.941,19.939L19.882,15.109C19.507,14.857 19.018,14.857 18.643,15.109L11.584,19.939C11.304,20.134 11.126,20.446 11.101,20.788C11.083,21.133 11.219,21.467 11.473,21.699L18.525,28.008C18.728,28.19 18.991,28.29 19.263,28.289C19.534,28.289 19.796,28.189 20,28.008L27.052,21.699C27.306,21.468 27.441,21.132 27.418,20.788C27.398,20.446 27.222,20.132 26.941,19.939ZM8.114,18.691L2.636,13.786C2.39,13.562 2.254,13.24 2.264,12.906C2.27,12.577 2.423,12.267 2.679,12.064L7.916,7.851C8.299,7.55 8.831,7.529 9.236,7.801L16.009,12.438C16.323,12.644 16.513,12.996 16.513,13.374C16.513,13.752 16.323,14.104 16.009,14.31L9.477,18.778C9.056,19.066 8.496,19.03 8.114,18.691ZM36.242,25.737L30.665,22.398C30.251,22.148 29.724,22.199 29.363,22.523L22.547,28.608C22.259,28.864 22.124,29.253 22.19,29.634C22.256,30.015 22.513,30.335 22.869,30.48L32.326,34.312C32.455,34.365 32.594,34.393 32.735,34.393C33.174,34.394 33.572,34.135 33.751,33.731L36.682,27.166C36.921,26.646 36.731,26.029 36.242,25.737ZM37.017,17.755L38.461,22.298L38.448,22.298C38.555,22.638 38.494,23.009 38.285,23.296C38.076,23.584 37.743,23.753 37.389,23.752C37.19,23.753 36.995,23.699 36.825,23.596L32.914,21.256C32.61,21.078 32.411,20.761 32.382,20.407C32.345,20.052 32.481,19.701 32.747,19.465L35.226,17.256C35.506,17.005 35.893,16.913 36.255,17.012C36.616,17.116 36.902,17.395 37.017,17.755ZM16.331,29.631C16.398,29.251 16.264,28.864 15.978,28.608L9.161,22.523C8.801,22.199 8.274,22.148 7.86,22.398L2.283,25.737C1.8,26.031 1.609,26.64 1.837,27.16L4.774,33.725C5.017,34.272 5.646,34.529 6.199,34.305L15.65,30.474C16.006,30.33 16.264,30.012 16.331,29.631ZM19.678,31.503L27.263,34.574C27.634,34.732 27.89,35.081 27.932,35.485C27.98,35.893 27.799,36.295 27.461,36.527L19.87,41.8C19.688,41.928 19.472,41.998 19.25,42C19.029,41.997 18.813,41.927 18.63,41.8L11.045,36.527C10.707,36.296 10.523,35.894 10.568,35.485C10.619,35.077 10.884,34.728 11.262,34.574L18.847,31.503C19.114,31.397 19.411,31.397 19.678,31.503Z" style="fill:rgb(191,71,34);"/></g></svg>