<svg width="100%" height="100%" viewBox="0 0 18 16" version="1.1" xmlns="http://www.w3.org/2000/svg" xmlns:xlink="http://www.w3.org/1999/xlink" xml:space="preserve" style="fill-rule:evenodd;clip-rule:evenodd;stroke-linejoin:round;stroke-miterlimit:1;"><g id="renovate"><g transform="matrix(1.03035,0,0,1.11528,0.106759,0.107203)"><ellipse cx="8.631" cy="7.077" rx="7.279" ry="6.725" style="fill:rgb(48,139,227);"/></g><g transform="matrix(0.886234,0.884679,-0.596647,0.597696,5.75171,-2.07605)"><path d="M5.69,9.333L4.314,9.333C4.024,9.333 3.789,8.984 3.789,8.555C3.789,8.191 3.958,7.886 4.185,7.8L4.747,7.8C4.952,7.8 5.119,7.553 5.119,7.249C5.119,6.944 4.952,6.697 4.747,6.697L4.306,6.697L4.306,6.676L3.735,6.676C3.445,6.676 3.21,6.327 3.21,5.897C3.21,5.54 3.373,5.238 3.594,5.147L4.469,5.147C4.675,5.147 4.842,4.9 4.842,4.595C4.842,4.291 4.675,4.043 4.469,4.043L4.306,4.043L4.306,4.025L3.073,4.025C2.783,4.025 2.548,3.676 2.548,3.246C2.548,2.817 2.783,2.468 3.073,2.468L5.014,2.468C5.026,2.468 5.038,2.469 5.05,2.47L5.705,2.47L5.69,9.333Z" style="fill:rgb(214,233,251);"/></g><g transform="matrix(0.702642,-0.699422,0.750871,0.754328,-3.50527,6.72607)"><path d="M11.232,7.651L11.232,8.605C11.232,8.969 10.915,9.264 10.525,9.264L5.181,9.264C4.791,9.264 4.474,8.969 4.474,8.605L4.474,7.651C4.474,7.288 4.791,6.992 5.181,6.992L10.525,6.992C10.915,6.992 11.232,7.288 11.232,7.651Z" style="fill:rgb(214,233,251);stroke:rgb(7,60,140);stroke-width:0.24px;"/></g><g transform="matrix(0.0295951,4.81956e-18,-1.14659e-16,0.657119,7.06854,1.89069)"><path d="M11.232,7.145L11.232,9.112C11.232,9.196 9.718,9.264 7.853,9.264C5.988,9.264 4.474,9.196 4.474,9.112L4.474,7.145C4.474,7.061 5.988,6.992 7.853,6.992C9.718,6.992 11.232,7.061 11.232,7.145Z" style="fill:rgb(7,60,140);"/></g><g transform="matrix(0.0349495,5.5437e-18,-1.35404e-16,0.755852,6.32884,3.30069)"><path d="M11.232,7.149L11.232,9.107C11.232,9.194 9.718,9.264 7.853,9.264C5.988,9.264 4.474,9.194 4.474,9.107L4.474,7.149C4.474,7.062 5.988,6.992 7.853,6.992C9.718,6.992 11.232,7.062 11.232,7.149Z" style="fill:rgb(7,60,140);"/></g><g transform="matrix(0.812008,0,0,0.737071,1.23584,2.17698)"><ellipse cx="6.588" cy="8.136" rx="0.123" ry="0.136" style="fill:rgb(7,60,140);"/></g><g transform="matrix(0.0349495,6.1096e-18,-1.35404e-16,0.83301,7.92856,1.29702)"><path d="M11.232,7.134L11.232,9.122C11.232,9.2 9.718,9.264 7.853,9.264C5.988,9.264 4.474,9.2 4.474,9.122L4.474,7.134C4.474,7.056 5.988,6.992 7.853,6.992C9.718,6.992 11.232,7.056 11.232,7.134Z" style="fill:rgb(7,60,140);"/></g><g transform="matrix(0.0349495,6.13473e-18,-1.35404e-16,0.836435,9.3634,-0.141096)"><path d="M11.232,7.134L11.232,9.123C11.232,9.2 9.718,9.264 7.853,9.264C5.988,9.264 4.474,9.2 4.474,9.123L4.474,7.134C4.474,7.056 5.988,6.992 7.853,6.992C9.718,6.992 11.232,7.056 11.232,7.134Z" style="fill:rgb(7,60,140);"/></g><g transform="matrix(0.812008,0,0,0.737071,4.30659,-0.609213)"><ellipse cx="6.588" cy="8.136" rx="0.123" ry="0.136" style="fill:rgb(7,60,140);"/></g><g transform="matrix(0.0349495,5.8437e-18,-1.35404e-16,0.796755,8.54569,-0.613116)"><path d="M11.232,7.141L11.232,9.116C11.232,9.197 9.718,9.264 7.853,9.264C5.988,9.264 4.474,9.197 4.474,9.116L4.474,7.141C4.474,7.059 5.988,6.992 7.853,6.992C9.718,6.992 11.232,7.059 11.232,7.141Z" style="fill:rgb(7,60,140);"/></g><g transform="matrix(0.469887,-0.467733,0.884647,0.88872,1.73003,5.37716)"><path d="M8.321,7.092L5.333,7.092C4.963,7.092 4.662,7.251 4.662,7.447L4.662,7.859L4.285,7.859L4.285,7.447C4.285,7.141 4.755,6.893 5.333,6.893L8.321,6.893L8.321,7.092Z" style="fill:rgb(7,60,140);"/></g><g transform="matrix(0.702642,-0.699422,0.97554,0.980031,-3.86389,5.24256)"><path d="M8.516,9.173L9.965,9.173C10.594,9.173 11.106,8.807 11.106,8.355L11.106,7.917L11.358,7.917L11.358,8.355C11.358,8.907 10.734,9.354 9.965,9.354L8.516,9.354L8.516,9.173Z" style="fill:rgb(7,60,140);"/></g><g transform="matrix(0.702642,-0.699422,0.884647,0.88872,-3.02189,6.08844)"><path d="M11.106,7.845L11.106,7.651C11.106,7.377 10.855,7.148 10.525,7.101L10.525,6.899C10.995,6.948 11.358,7.266 11.358,7.651L11.358,7.845L11.106,7.845Z" style="fill:rgb(7,60,140);"/></g><g transform="matrix(0.232069,-0.231005,1.51758,1.52457,-2.29265,0.735124)"><path d="M4.998,7.508L5,7.504C5,7.412 5.489,7.338 6.09,7.338L9.361,7.338C9.962,7.338 10.451,7.412 10.451,7.504L10.453,7.508L4.998,7.508Z" style="fill:rgb(7,60,140);"/></g><g transform="matrix(0.232069,-0.231005,1.51758,1.52457,-2.29265,0.735124)"><path d="M10.529,7.628L11.232,8.749C11.232,9.033 9.718,9.264 7.853,9.264C5.988,9.264 4.474,9.033 4.474,8.749L4.948,7.628L10.529,7.628Z" style="fill:rgb(7,60,140);"/></g><g transform="matrix(0.245517,-0.244392,0.0802871,0.0806568,8.38843,11.7675)"><path d="M5.292,9.264L5.34,6.992L10.496,6.992L10.567,9.264L5.292,9.264Z" style="fill:white;"/></g></g></svg>