<svg width="100%" height="100%" viewBox="0 0 18 16" version="1.1" xmlns="http://www.w3.org/2000/svg" xmlns:xlink="http://www.w3.org/1999/xlink" xml:space="preserve" style="fill-rule:evenodd;clip-rule:evenodd;stroke-linejoin:round;stroke-miterlimit:2;"><g id="renovate" transform="matrix(0.707107,-0.707107,0.707107,0.707107,-3.02082,8.70711)"><g transform="matrix(1.53741,0,0,1.42958,-1.81811,-1.37848)"><ellipse cx="7.037" cy="6.56" rx="4.592" ry="4.933" style="fill:rgb(0,127,160);"/></g><g transform="matrix(1.38709,0,0,1.3567,-2.38416,-2.40065)"><path d="M10.37,6.64L10.37,7.636C10.37,7.705 10.315,7.761 10.248,7.761L6.305,7.761C6.238,7.761 6.183,7.705 6.183,7.636L6.183,6.64C6.183,6.571 6.238,6.515 6.305,6.515L10.248,6.515C10.315,6.515 10.37,6.571 10.37,6.64Z" style="fill:rgb(60,182,176);"/></g><g transform="matrix(2.89211,0,0,0.892257,-10.7656,3.1585)"><rect x="6.183" y="2.3" width="1.013" height="0.979" style="fill:rgb(60,182,176);"/></g><g transform="matrix(1,0,0,0.892257,0,3.1585)"><rect x="6.183" y="2.3" width="1.013" height="0.979" style="fill:white;"/></g><g transform="matrix(1,0,0,0.892257,4.80383,3.1585)"><rect x="6.183" y="2.3" width="1.013" height="0.979" style="fill:white;"/></g><g transform="matrix(1,0,0,0.892257,1.90918,3.1585)"><rect x="6.183" y="2.3" width="1.013" height="0.979" style="fill:white;"/></g><g transform="matrix(1,0,0,1,0,-0.0218498)"><rect x="6.183" y="2.3" width="1.013" height="0.979" style="fill:rgb(60,182,176);"/></g><g transform="matrix(1,0,0,1,2.91949,-0.0218498)"><rect x="6.183" y="2.3" width="1.013" height="0.979" style="fill:rgb(60,182,176);"/></g><g transform="matrix(1,0,0,1,4.80383,0.951818)"><rect x="6.183" y="2.3" width="1.013" height="0.979" style="fill:rgb(60,182,176);"/></g><g transform="matrix(1.93725,0,0,1,-1.94073,1.93358)"><rect x="6.183" y="2.3" width="1.013" height="0.979" style="fill:rgb(60,182,176);"/></g><g transform="matrix(1,0,0,1,0,1.93358)"><rect x="6.183" y="2.3" width="1.013" height="0.979" style="fill:rgb(60,182,176);"/></g><g transform="matrix(1,0,0,2.00325,1.90918,-1.35534)"><rect x="6.183" y="2.3" width="1.013" height="0.979" style="fill:rgb(60,182,176);"/></g><g transform="matrix(1.2035,0,0,1.51034,-1.68383,-5.41802)"><path d="M9.671,10.878L9.671,12.49C9.671,12.735 9.42,12.935 9.112,12.935L8.833,12.935C8.525,12.935 8.274,12.735 8.274,12.49L8.274,10.878C8.274,10.632 8.525,10.433 8.833,10.433L9.112,10.433C9.42,10.433 9.671,10.632 9.671,10.878ZM9.333,10.926C9.333,10.799 9.204,10.696 9.045,10.696L8.9,10.696C8.741,10.696 8.612,10.799 8.612,10.926L8.612,12.442C8.612,12.569 8.741,12.672 8.9,12.672L9.045,12.672C9.204,12.672 9.333,12.569 9.333,12.442L9.333,10.926Z" style="fill:white;"/></g><path d="M8.857,10.472C8.857,10.47 8.857,10.458 8.857,10.455C8.859,10.394 8.867,10.079 8.862,9.836C8.853,9.45 9.204,8.99 9.785,8.992C10.482,8.993 11.836,9.008 12.489,8.998C12.639,8.995 12.774,8.883 12.772,8.71L12.762,7.808C12.762,7.729 12.743,7.643 12.681,7.588C12.641,7.554 12.584,7.536 12.509,7.535C12.44,7.534 12.448,7.425 12.45,7.287C12.453,7.149 12.436,7.034 12.518,7.035C12.734,7.039 12.893,7.11 13.009,7.211C13.181,7.361 13.26,7.585 13.262,7.803L13.272,8.705C13.277,9.179 12.909,9.491 12.496,9.498C11.842,9.508 10.483,9.493 9.784,9.492C9.534,9.491 9.358,9.659 9.362,9.825C9.367,10.078 9.359,10.406 9.357,10.469C9.35,10.701 9.107,10.722 9.107,10.722C8.969,10.722 8.857,10.61 8.857,10.472Z" style="fill:white;"/></g></svg>