<svg width="100%" height="100%" viewBox="0 0 18 16" version="1.1" xmlns="http://www.w3.org/2000/svg" xmlns:xlink="http://www.w3.org/1999/xlink" xml:space="preserve" style="fill-rule:evenodd;clip-rule:evenodd;stroke-linejoin:round;stroke-miterlimit:2;"><g id="reStructuredText"><g transform="matrix(1.07381,0,0,1.16787,0.071922,-0.951721)"><path d="M15.532,3.683L15.532,11.647C15.532,13.112 14.238,14.301 12.645,14.301L3.984,14.301C2.391,14.301 1.097,13.112 1.097,11.647L1.097,3.683C1.097,2.218 2.391,1.029 3.984,1.029L12.645,1.029C14.238,1.029 15.532,2.218 15.532,3.683Z" style="fill:white;"/></g><g transform="matrix(3.55445,0,0,3.55445,-2.67426,-14.0062)"><g transform="matrix(0.0310411,0,0,0.0310411,1.29008,5.4037)"><path d="M2.956,49.625C4.483,49.139 6.009,48.861 7.606,48.584L9.41,40.256C10.659,34.495 12.255,30.817 15.309,26.861C17.669,23.808 19.542,22.35 21.069,22.35C22.11,22.35 22.804,22.697 23.568,23.669L24.539,23.669C24.747,21.032 25.094,18.811 25.65,15.966C24.886,15.619 24.609,15.549 24.262,15.549C22.11,15.549 19.959,17.215 17.46,20.754C15.101,24.155 12.672,27.486 10.937,31.234L12.741,22.489C13.088,20.962 13.574,19.366 13.574,17.77C13.574,16.382 13.019,15.549 11.978,15.549C10.52,15.549 7.883,17.007 2.748,20.685L0.804,22.073L1.29,23.461L3.511,22.003C5.454,20.754 6.218,20.407 6.842,20.407C7.536,20.407 8.022,21.032 8.022,21.934C8.022,25.959 5.038,40.256 2.262,49.139L2.956,49.625Z"/></g><g transform="matrix(0.0310411,0,0,0.0310411,1.29008,5.4037)"><path d="M33.353,49.763C28.356,49.763 25.303,46.571 25.303,41.227C25.303,36.369 27.454,28.041 29.536,24.641C32.312,20.199 39.877,15.549 44.388,15.549C47.927,15.549 50.217,17.701 50.217,20.962C50.217,25.265 47.511,28.388 41.612,31.025C39.807,31.789 38.003,32.483 36.823,32.76L31.132,34.148C30.716,36.161 30.577,37.896 30.577,39.7C30.577,43.934 32.52,46.502 35.851,46.502C38.35,46.502 41.681,45.114 45.359,42.476L47.025,41.297L47.58,42.615C41.126,47.82 37.309,49.763 33.353,49.763ZM31.479,32.552C34.602,31.858 37.101,31.025 39.044,30.123C42.653,28.388 45.082,25.126 45.082,22.073C45.082,19.852 43.763,18.464 41.75,18.464C40.015,18.464 37.795,19.366 36.476,20.615C34.602,22.35 33.214,25.335 32.104,29.984L31.479,32.552Z"/></g><g transform="matrix(0.0310411,0,0,0.0310411,1.29008,5.4037)"><path d="M76.113,49C78.028,49 79.761,48.476 81.311,47.427C82.862,46.378 83.637,45.033 83.637,43.391L83.637,41.886C83.637,41.248 83.557,40.667 83.398,40.142C83.238,39.618 82.907,39.036 82.406,38.398L60.518,10.764C60.381,10.536 60.313,10.308 60.313,10.08C60.313,9.305 60.563,8.918 61.065,8.918L76.729,8.918C77.23,10.149 77.641,11.061 77.96,11.654C79.009,13.432 80.149,14.321 81.38,14.321C82.292,14.321 82.907,14.139 83.227,13.774C83.546,13.409 83.705,12.885 83.705,12.201C83.705,11.745 83.683,10.992 83.637,9.944C83.637,7.892 82.896,6.261 81.414,5.053C79.932,3.845 78.256,3.24 76.387,3.24L59.629,3.24C58.033,3.24 56.71,4.027 55.661,5.6C54.613,7.173 54.088,8.895 54.088,10.764C54.088,11.22 54.179,11.642 54.362,12.03C54.544,12.417 54.841,12.862 55.251,13.364L78.37,43.391L62.159,43.391C61.293,43.391 60.609,42.798 60.107,41.613C59.059,39.196 57.85,37.988 56.482,37.988C55.616,37.988 55,38.375 54.635,39.15C54.271,39.926 54.088,40.883 54.088,42.023C54.088,44.121 54.772,45.808 56.14,47.085C57.508,48.362 59.15,49 61.065,49L76.113,49Z"/></g><g transform="matrix(0.0310411,0,0,0.0310411,-8.5421,5.4037)"><path d="M427.019,49.208L427.228,47.265L423.133,47.057C421.329,46.987 420.635,46.432 420.635,44.975C420.635,44.281 420.635,44.003 420.912,42.546L427.436,4.168L432.502,4.168C437.915,4.168 440.414,4.515 440.622,5.347C440.83,5.903 440.969,7.221 440.899,7.915L440.622,12.357L442.565,12.357L444.439,0.975C437.915,1.114 431.392,1.183 424.868,1.183C418.344,1.183 411.821,1.114 405.297,0.975L404.048,12.357L406.061,12.357L407.102,8.193C407.449,6.666 407.934,5.556 408.351,5.07C408.767,4.584 411.404,4.168 413.972,4.168L421.745,4.168L415.777,40.325C414.736,46.64 414.527,46.918 411.751,47.057L408.212,47.265L407.934,49.208C411.196,49.069 414.527,49 417.789,49C420.912,49 423.966,49.069 427.019,49.208Z"/></g></g></g></svg>