<svg width="100%" height="100%" viewBox="0 0 18 16" version="1.1" xmlns="http://www.w3.org/2000/svg" xmlns:xlink="http://www.w3.org/1999/xlink" xml:space="preserve" style="fill-rule:evenodd;clip-rule:evenodd;stroke-linejoin:round;stroke-miterlimit:2;"><g id="rolldown" transform="matrix(0.060241,0,0,0.060241,8.47271,7.53295)"><g transform="matrix(1,0,0,1,-106.247,-116.747)"><path d="M215.093,84.955L135.319,84.955L147.615,68.304L59.475,68.103L16.417,127.78L100.093,127.78L63.135,183.569L0,183.569L76.667,249L230,183.569L154.121,183.569L215.093,84.955Z" style="fill:url(#_Linear-mek1ol5);fill-rule:nonzero;"/></g><g transform="matrix(1,0,0,1,-106.247,-116.747)"><path d="M198.056,0L108.611,0L96.327,17.026L185.483,17.026L198.056,0Z" style="fill:url(#_Linear-s8d5gob);fill-rule:nonzero;"/></g><g transform="matrix(1,0,0,1,-106.247,-116.747)"><path d="M173.695,32.987L84.811,32.987L71.343,51.654L159.911,51.654L173.695,32.987Z" style="fill:url(#_Linear-uowv2pt);fill-rule:nonzero;"/></g></g><defs><linearGradient id="_Linear-mek1ol5" x1="0" y1="0" x2="1" y2="0" gradientUnits="userSpaceOnUse" gradientTransform="matrix(1.52469e-14,249,-249,1.52469e-14,115,0)"><stop offset="0" style="stop-color:rgb(240,219,79);stop-opacity:1"/><stop offset="0.31" style="stop-color:rgb(240,219,79);stop-opacity:1"/><stop offset="1" style="stop-color:rgb(255,91,18);stop-opacity:1"/></linearGradient><linearGradient id="_Linear-s8d5gob" x1="0" y1="0" x2="1" y2="0" gradientUnits="userSpaceOnUse" gradientTransform="matrix(1.52469e-14,249,-249,1.52469e-14,115,0)"><stop offset="0" style="stop-color:rgb(240,219,79);stop-opacity:1"/><stop offset="0.31" style="stop-color:rgb(240,219,79);stop-opacity:1"/><stop offset="1" style="stop-color:rgb(255,91,18);stop-opacity:1"/></linearGradient><linearGradient id="_Linear-uowv2pt" x1="0" y1="0" x2="1" y2="0" gradientUnits="userSpaceOnUse" gradientTransform="matrix(1.52469e-14,249,-249,1.52469e-14,115,0)"><stop offset="0" style="stop-color:rgb(240,219,79);stop-opacity:1"/><stop offset="0.31" style="stop-color:rgb(240,219,79);stop-opacity:1"/><stop offset="1" style="stop-color:rgb(255,91,18);stop-opacity:1"/></linearGradient></defs></svg>