<svg width="100%" height="100%" viewBox="0 0 18 16" version="1.1" xmlns="http://www.w3.org/2000/svg" xmlns:xlink="http://www.w3.org/1999/xlink" xml:space="preserve" style="fill-rule:evenodd;clip-rule:evenodd;stroke-linejoin:round;stroke-miterlimit:2;"><g id="rspack" transform="matrix(1.07069,0,0,1.07069,-0.480709,0.0286523)"><path d="M14.548,6.151C14.914,6.152 15.659,6.167 16.19,6.883C16.674,7.535 16.647,8.041 16.652,8.531C16.658,9.089 16.315,9.145 16.315,9.145C16.315,9.145 16.237,9.581 15.82,9.941C15.405,10.298 15.015,10.234 14.907,10.472C14.8,10.71 14.726,10.893 14.743,10.936C14.759,10.979 15.237,11.308 15.34,11.457C15.443,11.605 15.606,11.924 15.466,12.05C15.377,12.13 15.227,12.107 15.227,12.107C15.227,12.107 15.203,12.175 15.223,12.218C15.286,12.35 15.35,12.75 15.27,12.787C15.185,12.827 15.07,12.813 15.07,12.813C15.07,12.813 15.141,13.3 15.035,13.37C14.863,13.483 14.561,13.362 14.08,13.174C13.599,12.987 13.108,12.917 12.68,12.913C11.804,12.906 11.564,12.961 11.022,12.972C10.232,12.987 10.023,12.845 9.453,12.867C8.882,12.888 7.892,13.126 7.345,13.264C6.799,13.403 6.066,13.642 5.898,13.435C5.731,13.228 5.817,12.846 5.918,12.618C6.02,12.39 6.203,12.16 6.203,12.16C6.203,12.16 5.489,12.406 5.335,12.192C5.148,11.931 5.455,11.467 5.455,11.467C5.455,11.467 5.38,11.467 5.291,11.468C5.165,11.469 5.006,11.462 4.949,11.381C4.829,11.212 4.973,10.913 5.177,10.732C5.38,10.552 5.645,10.4 5.645,10.4C5.645,10.4 4.741,10.351 3.915,9.968C3.088,9.586 2.588,9.043 2.234,8.464C1.88,7.884 1.774,7.551 1.774,7.551C1.774,7.551 1.409,7.617 1.221,7.375C1.118,7.242 1.06,7.067 1.057,6.795C1.054,6.466 1.146,6.221 1.306,5.802C1.634,4.94 2.298,3.899 3.618,3.307C4.939,2.715 6.454,2.954 7.389,3.659C7.923,4.062 8.362,4.63 8.619,5.051C8.812,5.368 8.892,5.606 8.892,5.606C8.892,5.606 9.304,4.524 10.463,4.504C11.407,4.488 11.829,5.025 11.829,5.025L11.935,5.026C11.935,5.026 11.954,4.874 11.952,4.72C11.949,4.449 11.924,4.335 11.379,4.316C10.835,4.296 9.836,4.349 9.794,3.824C9.753,3.298 10.462,2.737 11.456,2.117C12.451,1.497 13.488,1.316 13.949,1.39C14.135,1.42 14.135,1.611 14.11,1.693C14.046,1.903 13.759,2.136 13.542,2.294C13.178,2.56 13.014,2.759 13.014,2.759C13.014,2.759 13.241,2.758 13.474,2.756C13.832,2.753 14.291,2.858 14.441,3.208C14.824,4.095 13.385,4.891 13.385,4.891C13.385,4.891 13.909,4.97 14.219,5.354C14.552,5.766 14.548,6.151 14.548,6.151Z" style="fill:rgb(83,66,64);"/><path d="M7.856,12.663C7.892,12.641 7.926,12.619 7.96,12.596C8.301,12.367 8.347,12.062 8.326,11.846C8.155,11.714 7.917,11.621 7.612,11.627C7.342,11.632 7.122,11.698 6.937,11.8L7.856,12.663Z" style="fill:rgb(240,136,113);"/><path d="M6.537,12.123C6.456,12.211 6.385,12.305 6.32,12.399C6.058,12.778 6.016,13.052 6.057,13.201C6.098,13.351 6.283,13.256 6.445,13.238C6.523,13.23 6.679,13.194 6.82,13.159C6.987,13.094 7.182,13.012 7.378,12.919L6.537,12.123Z" style="fill:rgb(243,159,109);"/><path d="M6.537,12.123L7.378,12.919C7.543,12.84 7.708,12.754 7.856,12.663L6.937,11.8C6.78,11.886 6.649,11.999 6.537,12.123Z" style="fill:rgb(241,147,112);"/><path d="M6.82,13.159C7.03,13.077 7.285,12.968 7.53,12.844L7.651,12.979C7.352,13.043 7.11,13.084 7.11,13.084C7.11,13.084 6.974,13.121 6.82,13.159Z" style="fill:rgb(185,124,91);"/><path d="M7.916,12.625C7.931,12.616 7.945,12.606 7.96,12.596C8.301,12.367 8.347,12.062 8.326,11.846C8.528,12.002 8.636,12.214 8.652,12.386C8.678,12.675 8.497,12.761 8.134,12.861L7.916,12.625Z" style="fill:rgb(168,98,95);"/><path d="M7.651,12.979L7.53,12.844C7.665,12.776 7.797,12.702 7.916,12.625L8.134,12.861C8.098,12.87 8.061,12.88 8.022,12.89C7.897,12.923 7.77,12.953 7.651,12.979Z" style="fill:rgb(169,111,95);"/><path d="M5.603,11.649C5.512,11.81 5.475,11.953 5.508,12.011C5.63,11.982 5.795,11.938 5.978,11.876L5.603,11.649Z" style="fill:rgb(243,159,109);"/><path d="M6.608,11.614C6.945,11.438 7.079,11.186 7.132,11.025C6.828,10.932 6.376,10.946 6.046,11.165C6.013,11.187 5.981,11.211 5.95,11.236L6.608,11.614Z" style="fill:rgb(240,136,113);"/><path d="M5.95,11.236C5.801,11.358 5.682,11.51 5.603,11.649L5.978,11.876C6.17,11.812 6.383,11.728 6.592,11.623C6.597,11.62 6.603,11.617 6.608,11.614L5.95,11.236Z" style="fill:rgb(241,147,112);"/><path d="M6.721,11.734C6.831,11.654 6.881,11.598 7.053,11.519C7.255,11.425 7.336,11.454 7.405,11.451C7.474,11.448 7.521,11.423 7.529,11.405C7.537,11.388 7.556,11.221 7.264,11.077C7.224,11.057 7.18,11.04 7.132,11.025C7.085,11.167 6.975,11.38 6.719,11.549L6.721,11.734Z" style="fill:rgb(168,98,95);"/><path d="M6.355,11.733C6.026,11.874 5.71,11.963 5.508,12.011C5.509,12.012 5.509,12.013 5.51,12.013C5.583,12.127 5.983,11.995 6.151,11.941C6.163,11.937 6.175,11.934 6.187,11.93L6.355,11.733Z" style="fill:rgb(184,125,91);"/><path d="M6.187,11.93L6.355,11.733C6.433,11.699 6.513,11.663 6.592,11.623C6.638,11.599 6.68,11.575 6.719,11.549L6.721,11.734C6.7,11.749 6.678,11.765 6.653,11.781C6.5,11.882 6.344,11.887 6.187,11.93Z" style="fill:rgb(169,111,95);"/><path d="M5.17,11.087C5.122,11.159 5.104,11.216 5.132,11.24C5.137,11.245 5.151,11.247 5.171,11.249C5.252,11.206 5.352,11.157 5.467,11.106L5.17,11.087Z" style="fill:rgb(241,144,112);"/><path d="M5.939,10.928C5.973,10.914 6.009,10.897 6.047,10.878C6.358,10.721 6.491,10.587 6.544,10.49C6.423,10.465 6.268,10.462 6.052,10.493C5.802,10.529 5.516,10.723 5.327,10.906L5.939,10.928Z" style="fill:rgb(241,128,99);"/><path d="M5.327,10.906C5.261,10.97 5.207,11.033 5.17,11.087L5.467,11.106C5.499,11.092 5.532,11.078 5.566,11.064C5.688,11.014 5.802,10.986 5.939,10.928L5.327,10.906Z" style="fill:rgb(240,136,113);"/><path d="M5.701,11.014C5.656,11.03 5.612,11.045 5.566,11.064C5.409,11.129 5.274,11.195 5.171,11.249C5.265,11.255 5.497,11.232 5.576,11.21C5.601,11.203 5.627,11.193 5.654,11.181L5.701,11.014Z" style="fill:rgb(182,115,98);"/><path d="M6.254,10.859C6.495,10.793 6.822,10.796 6.86,10.752C6.906,10.699 6.826,10.587 6.684,10.531C6.642,10.514 6.596,10.5 6.544,10.49C6.507,10.557 6.432,10.642 6.285,10.741L6.254,10.859Z" style="fill:rgb(168,97,94);"/><path d="M5.654,11.181L5.701,11.014C5.807,10.979 5.915,10.945 6.047,10.878C6.143,10.83 6.221,10.784 6.285,10.741L6.254,10.859C6.2,10.874 6.15,10.893 6.109,10.916C5.926,11.021 5.779,11.125 5.654,11.181Z" style="fill:rgb(168,97,94);"/><path d="M13.579,12.411C13.595,12.404 13.611,12.398 13.628,12.391C13.931,12.276 14.191,12.304 14.402,12.372C14.405,12.373 14.409,12.374 14.412,12.375L13.952,12.852C13.879,12.792 13.8,12.725 13.742,12.671C13.664,12.598 13.611,12.492 13.579,12.411Z" style="fill:rgb(242,127,96);"/><path d="M14.776,12.631C14.957,12.88 14.912,13.185 14.912,13.185L14.78,13.196C14.78,13.196 14.67,13.135 14.401,13.04L14.776,12.631Z" style="fill:rgb(243,159,109);"/><path d="M13.952,12.852L14.412,12.375C14.585,12.433 14.7,12.527 14.776,12.631L14.401,13.04C14.334,13.016 14.257,12.99 14.169,12.963C14.126,12.949 14.083,12.936 14.042,12.924C14.015,12.902 13.984,12.877 13.952,12.852Z" style="fill:rgb(241,147,111);"/><path d="M13.917,12.888C13.601,12.799 13.373,12.755 13.373,12.755C13.373,12.755 13.22,12.567 13.579,12.411C13.611,12.492 13.664,12.598 13.742,12.671C13.8,12.725 13.879,12.792 13.952,12.852L13.917,12.888Z" style="fill:rgb(189,93,71);"/><path d="M13.917,12.888L13.952,12.852C13.984,12.877 14.015,12.902 14.042,12.924C13.999,12.911 13.957,12.899 13.917,12.888Z" style="fill:rgb(167,107,90);"/><path d="M14.357,12.156C14.318,12.14 14.28,12.125 14.247,12.111L14.022,12.019L14.405,11.607C14.405,11.607 14.502,11.633 14.71,11.856L14.357,12.156Z" style="fill:rgb(243,122,86);"/><path d="M14.908,12.095C14.997,12.223 15.042,12.334 15.063,12.422C15.089,12.527 15.08,12.602 15.08,12.602L15.015,12.59C15.015,12.59 14.885,12.471 14.627,12.297L14.908,12.095Z" style="fill:rgb(242,155,111);"/><path d="M14.357,12.156L14.71,11.856C14.744,11.892 14.781,11.934 14.821,11.981C14.854,12.021 14.883,12.058 14.908,12.095L14.627,12.297C14.625,12.296 14.623,12.294 14.621,12.293C14.538,12.237 14.443,12.193 14.357,12.156Z" style="fill:rgb(240,130,104);"/><path d="M14.913,11.717C14.896,11.704 14.879,11.691 14.862,11.677C14.597,11.464 14.52,11.432 14.536,11.331C14.553,11.231 14.625,11.182 14.625,11.182C14.625,11.182 14.797,11.246 15.034,11.466C15.054,11.484 15.072,11.502 15.089,11.519L14.913,11.717Z" style="fill:rgb(244,119,81);"/><path d="M15.197,11.646C15.294,11.778 15.31,11.873 15.295,11.902C15.278,11.936 15.195,11.912 15.054,11.819L15.197,11.646Z" style="fill:rgb(240,139,113);"/><path d="M14.913,11.717L15.089,11.519C15.133,11.564 15.169,11.607 15.197,11.646L15.054,11.819C15.012,11.791 14.965,11.757 14.913,11.717Z" style="fill:rgb(243,127,96);"/><path d="M11.712,12.807C11.648,12.811 11.578,12.814 11.502,12.815C11.316,12.718 11.041,12.629 10.649,12.615C10.453,12.608 10.324,12.658 10.241,12.715C9.739,12.635 9.329,12.514 9.161,12.375C8.895,12.155 8.889,12.003 8.551,11.714C8.348,11.541 8.182,11.492 7.985,11.363C7.855,11.278 7.716,11.138 7.527,10.978C7.283,10.774 7.087,10.609 7.006,10.46C6.961,10.377 6.972,10.242 6.984,10.206C7,10.16 7.18,10.072 7.51,9.928C7.643,9.87 7.787,9.778 7.927,9.668C8.089,9.843 8.442,10.019 9.192,9.822C9.736,9.679 9.92,9.353 9.96,9.039C10.048,9.051 10.142,9.054 10.242,9.047C11.098,8.985 11.634,8.054 11.634,8.054C11.634,8.054 11.671,8.021 11.671,8.058C11.664,8.479 11.824,9.293 12.872,9.351C12.963,9.356 13.05,9.349 13.132,9.333C13.164,9.554 13.298,9.818 13.706,9.976C13.917,10.059 14.132,10.081 14.333,10.07C14.233,10.489 14.066,10.911 13.802,11.295C13.327,11.986 12.483,12.478 11.712,12.807Z" style="fill:rgb(251,187,153);"/><path d="M12.805,12.518C12.713,12.558 12.617,12.595 12.519,12.626C12.255,12.711 12.06,12.783 11.712,12.807C12.483,12.478 13.327,11.986 13.802,11.295C14.066,10.911 14.233,10.489 14.333,10.07C14.419,10.065 14.503,10.054 14.583,10.038C14.497,10.456 14.341,10.922 14.061,11.323C13.719,11.811 13.225,12.223 12.805,12.518Z" style="fill:rgb(251,174,138);"/><path d="M12.805,12.518C13.225,12.223 13.719,11.811 14.061,11.323C14.341,10.922 14.497,10.456 14.583,10.038C14.616,10.032 14.648,10.025 14.68,10.017C14.63,10.881 13.932,12.021 12.805,12.518Z" style="fill:rgb(243,159,109);"/><path d="M11.502,12.815C11.316,12.718 11.041,12.629 10.649,12.615C10.453,12.608 10.324,12.658 10.241,12.715C10.534,12.762 10.859,12.795 11.185,12.809C11.303,12.814 11.408,12.816 11.502,12.815Z" style="fill:rgb(252,175,139);"/><path d="M11.988,9.48C11.988,9.48 11.736,9.449 11.395,9.318C11.275,9.272 11.198,9.223 11.151,9.173C11.067,9.083 11.045,8.985 10.971,8.981C10.856,8.976 10.749,9.243 11.058,9.385C11.546,9.61 11.988,9.48 11.988,9.48Z" style="fill:rgb(83,66,64);"/><path d="M14.333,10.07C14.443,9.612 14.475,9.157 14.47,8.76C14.543,8.985 14.619,9.266 14.657,9.554C14.642,9.702 14.618,9.866 14.583,10.038C14.503,10.054 14.419,10.065 14.333,10.07Z" style="fill:rgb(242,127,96);"/><path d="M14.583,10.038C14.618,9.866 14.642,9.702 14.657,9.554C14.674,9.678 14.683,9.803 14.683,9.926C14.683,9.956 14.682,9.987 14.68,10.017C14.648,10.025 14.616,10.032 14.583,10.038Z" style="fill:rgb(242,127,96);"/><path d="M14.47,8.76C14.375,8.467 14.283,8.269 14.283,8.269L14.245,8.269C14.245,8.269 13.874,9.186 13.132,9.333C13.164,9.554 13.298,9.818 13.706,9.976C13.917,10.059 14.132,10.081 14.333,10.07C14.443,9.612 14.475,9.157 14.47,8.76Z" style="fill:rgb(241,134,113);"/><path d="M7.927,9.668C8.089,9.843 8.442,10.019 9.192,9.822C9.736,9.679 9.92,9.353 9.96,9.039C9.27,8.949 8.942,8.355 8.942,8.355L8.885,8.352C8.885,8.352 8.764,8.656 8.572,8.976C8.446,9.187 8.194,9.458 7.927,9.668Z" style="fill:rgb(241,134,113);"/><path d="M15.575,9.572C15.441,9.683 15.298,9.77 15.172,9.779C15.071,9.786 14.971,9.684 14.902,9.593C14.892,9.339 14.865,9.043 14.799,8.831C14.661,8.38 14.377,8 14.377,8L14.373,7.904C14.373,7.904 14.508,7.341 14.54,7.095C14.572,6.849 14.507,6.416 14.993,6.429C15.118,6.432 15.247,6.467 15.373,6.527C15.358,6.713 15.495,6.879 15.682,7.135C15.889,7.417 16.156,7.642 16.354,7.787C16.468,8.369 16.434,8.969 16.196,8.969C15.942,8.968 15.957,8.808 15.696,8.792C15.533,8.782 15.41,8.97 15.405,9.065C15.398,9.174 15.418,9.184 15.51,9.186C15.61,9.189 15.613,9.195 15.628,9.087C15.638,9.014 15.692,8.992 15.839,9.062L15.852,9.069C15.914,9.099 15.958,9.122 15.983,9.15C15.891,9.263 15.739,9.436 15.575,9.572Z" style="fill:rgb(241,134,113);"/><path d="M14.902,9.593C14.971,9.684 15.071,9.786 15.172,9.779C15.298,9.77 15.441,9.683 15.575,9.572L15.581,9.742L15.659,9.781C15.572,9.869 15.473,9.945 15.361,9.995C15.101,10.111 14.904,10.11 14.904,10.11C14.904,10.11 14.914,9.878 14.902,9.593Z" style="fill:rgb(186,93,73);"/><path d="M15.575,9.572C15.739,9.436 15.891,9.263 15.983,9.15C16.028,9.2 16.014,9.263 15.937,9.401C15.866,9.527 15.773,9.665 15.659,9.781L15.581,9.742L15.575,9.572Z" style="fill:rgb(167,97,94);"/><path d="M15.373,6.527C15.358,6.713 15.495,6.879 15.682,7.135C15.889,7.417 16.156,7.642 16.354,7.787C16.35,7.766 16.346,7.745 16.341,7.724C16.241,7.255 15.823,6.738 15.373,6.527Z" style="fill:rgb(241,147,112);"/><path d="M13.763,7.847C13.92,7.639 14.013,7.423 14.08,7.233C14.24,6.783 14.285,6.015 14.285,6.015C14.285,6.015 14.475,6.488 14.313,7.241C14.135,8.067 13.774,9.124 12.917,9.142C12.616,9.149 12.35,9.01 12.175,8.842C12.423,8.905 12.719,8.934 12.986,8.836C13.336,8.707 13.602,8.226 13.763,7.847Z" style="fill:rgb(251,252,252);"/><path d="M12.175,8.842C12.136,8.805 12.102,8.766 12.073,8.727C11.884,8.476 11.882,8.214 11.882,8.214C11.882,8.214 12.132,8.437 12.494,8.486C12.692,8.514 12.953,8.464 13.158,8.355C13.43,8.21 13.622,8.032 13.763,7.847C13.602,8.226 13.336,8.707 12.986,8.836C12.719,8.934 12.423,8.905 12.175,8.842Z" style="fill:rgb(251,243,239);"/><g transform="matrix(1.20673,-0.587267,0.785422,1.6139,-8.6446,2.43897)"><ellipse cx="12.733" cy="7.833" rx="0.783" ry="0.386" style="fill:rgb(98,72,68);"/></g><g transform="matrix(0.930015,-0.452601,0.615431,1.2646,-3.80245,3.63349)"><ellipse cx="12.733" cy="7.833" rx="0.783" ry="0.386" style="fill:rgb(114,79,74);"/></g><g transform="matrix(0.665663,-0.474672,0.620218,0.869772,-0.459607,7.06353)"><ellipse cx="12.733" cy="7.833" rx="0.783" ry="0.386" style="fill:rgb(128,85,79);"/></g><g transform="matrix(1.12639,0.244828,-0.218016,1.00304,-0.49145,-3.19698)"><ellipse cx="12.994" cy="6.785" rx="0.575" ry="0.867" style="fill:rgb(251,253,253);"/></g><g transform="matrix(1.34112,0.271586,-0.265121,1.30919,-2.4158,-4.82353)"><path d="M11.466,5.259C11.672,5.372 11.847,5.772 11.847,6.547C11.847,7.628 11.373,8.175 10.789,8.175C10.457,8.175 10.16,7.939 9.966,7.569C10.07,7.638 10.185,7.685 10.311,7.705C10.865,7.791 11.537,7.263 11.594,6.375C11.63,5.811 11.523,5.52 11.466,5.259Z" style="fill:rgb(251,252,252);"/></g><g transform="matrix(1.00452,-0.576026,0.690665,1.20444,-5.08233,3.90644)"><path d="M9.419,7.908C9.204,7.831 9.067,7.714 9.067,7.584C9.067,7.354 9.491,7.167 10.012,7.167C10.534,7.167 10.957,7.354 10.957,7.584C10.957,7.683 10.877,7.775 10.744,7.847C10.792,7.619 10.514,7.388 10.124,7.331C9.734,7.275 9.378,7.413 9.33,7.641C9.311,7.733 9.345,7.826 9.419,7.908Z" style="fill:rgb(98,72,68);"/></g><g transform="matrix(0.826752,-0.299517,0.475417,1.31229,-1.53402,0.498618)"><path d="M9.6,7.859C9.476,7.857 9.36,7.848 9.255,7.832C9.137,7.763 9.067,7.677 9.067,7.584C9.067,7.354 9.491,7.167 10.012,7.167C10.534,7.167 10.957,7.354 10.957,7.583C10.898,7.618 10.827,7.651 10.747,7.681C10.755,7.664 10.759,7.647 10.759,7.63C10.763,7.465 10.441,7.329 10.041,7.325C9.641,7.321 9.313,7.452 9.309,7.616C9.307,7.715 9.422,7.804 9.6,7.859Z" style="fill:rgb(115,80,75);"/></g><g transform="matrix(0.637516,-0.220516,0.326694,0.944479,1.52566,2.54219)"><path d="M9.453,7.919C9.219,7.843 9.067,7.721 9.067,7.584C9.067,7.354 9.491,7.167 10.012,7.167C10.534,7.167 10.957,7.354 10.957,7.584C10.957,7.608 10.952,7.632 10.943,7.655C10.699,7.757 10.387,7.839 10.038,7.884C9.835,7.91 9.638,7.921 9.453,7.919Z" style="fill:rgb(127,84,78);"/></g><g transform="matrix(1.12245,0.251483,-0.240412,1.07303,-0.00318754,-2.78415)"><ellipse cx="10.103" cy="6.127" rx="0.636" ry="0.858" style="fill:rgb(251,253,253);"/></g><path d="M14.036,3.106C14.161,3.174 14.273,3.301 14.267,3.541C14.257,4.03 13.551,4.548 13.003,4.885C12.839,4.986 12.687,5.036 12.571,5.102C12.416,5.191 12.313,5.286 12.215,5.346C12.202,5.354 12.112,5.353 12.112,5.353L12.112,5.178C12.112,5.102 12.169,5.093 12.166,4.911C12.161,4.58 12.155,4.471 12.207,4.427C12.225,4.412 12.26,4.377 12.317,4.375L12.637,4.367C12.637,4.367 12.696,4.357 12.698,4.276C12.7,4.147 12.26,4.118 11.555,4.104C10.85,4.09 10.056,4.103 10.054,3.791C10.053,3.687 10.098,3.571 10.19,3.441C10.519,3.712 11.179,4.089 12.284,4.068C13.481,4.044 13.668,3.752 13.913,3.416C13.977,3.327 14.015,3.21 14.036,3.106Z" style="fill:rgb(253,188,75);"/><path d="M10.19,3.441C10.232,3.382 10.284,3.32 10.346,3.255C10.736,3.715 11.338,3.896 12.145,3.896C13.291,3.896 13.734,3.703 13.865,3.045C13.917,3.056 13.978,3.075 14.036,3.106C14.015,3.21 13.977,3.327 13.913,3.416C13.668,3.752 13.481,4.044 12.284,4.068C11.179,4.089 10.519,3.712 10.19,3.441Z" style="fill:rgb(253,197,79);"/><g transform="matrix(1.30146,0,0,2.0696,-3.96382,-3.23094)"><path d="M10.995,3.134C11.034,3.108 11.079,3.081 11.128,3.054C11.373,3.261 11.803,3.34 12.41,3.34C13.197,3.34 13.477,3.27 13.545,3.025L13.585,3.025C13.585,3.025 13.634,3.024 13.699,3.033C13.599,3.351 13.258,3.444 12.378,3.444C11.757,3.444 11.295,3.356 10.995,3.134Z" style="fill:rgb(251,213,92);"/></g><g transform="matrix(1.10696,0,0,1.41136,-1.51414,-1.17914)"><path d="M10.871,3.024C11.055,2.895 11.302,2.752 11.616,2.592C12.345,2.219 12.915,2.058 13.164,2.014C13.41,1.97 13.84,1.982 13.84,1.982C13.84,1.982 13.905,2.011 13.833,2.065C13.762,2.118 12.649,2.894 12.649,2.894L12.653,2.981L13.712,2.982C13.632,3.341 13.303,3.444 12.378,3.444C11.664,3.444 11.159,3.327 10.871,3.024Z" style="fill:rgb(252,229,100);"/></g><path d="M3.408,9.376C2.985,9.07 2.591,8.664 2.41,8.227C2.299,7.958 2.211,7.764 2.189,7.638C2.16,7.476 2.229,7.406 2.229,7.406L3.345,6.929C3.345,6.929 3.473,6.86 3.496,7.045C3.519,7.23 3.519,7.964 3.865,8.164C4.21,8.363 4.855,8.302 5.471,8.151C6.088,8 6.464,7.941 6.58,7.913C6.697,7.884 6.813,7.911 6.809,8.045C6.804,8.182 6.82,8.248 6.82,8.248L6.858,8.405C6.866,8.442 7.021,8.443 7.024,8.389C7.027,8.318 7.034,8.142 7.028,8C7.023,7.858 6.921,7.656 6.779,7.668C6.638,7.679 5.873,7.89 5.393,7.952C4.914,8.013 4.3,8.232 4.014,8C3.727,7.768 3.741,7.527 3.728,7.344C3.715,7.16 3.765,6.563 3.335,6.718C2.906,6.874 2.094,7.278 1.89,7.345C1.686,7.412 1.272,7.388 1.303,6.815C1.335,6.242 1.553,5.604 1.993,4.998C2.434,4.393 3.35,3.459 4.307,3.307C5.265,3.155 6.364,3.229 7.022,3.664C7.381,3.902 7.84,4.365 8.206,4.867C8.279,5.329 8.342,5.829 8.342,6.167C8.341,6.98 7.854,8.048 6.228,9.082C5.963,9.249 5.695,9.372 5.434,9.459C5.187,9.497 4.939,9.52 4.706,9.518C4.235,9.514 3.786,9.453 3.408,9.376Z" style="fill:rgb(251,187,153);"/><path d="M7.555,4.11C7.779,4.33 8.007,4.593 8.206,4.867C8.279,5.329 8.342,5.829 8.342,6.167C8.341,6.98 7.854,8.048 6.228,9.082C5.963,9.249 5.695,9.372 5.434,9.459C5.187,9.497 4.939,9.52 4.706,9.518C4.235,9.514 3.786,9.453 3.408,9.376C2.985,9.07 2.591,8.664 2.41,8.227C2.299,7.958 2.211,7.764 2.189,7.638C2.16,7.476 2.229,7.406 2.229,7.406L3.345,6.929C3.345,6.929 3.473,6.86 3.496,7.045C3.519,7.23 3.519,7.964 3.865,8.164C4.21,8.363 4.855,8.302 5.471,8.151C6.088,8 6.464,7.941 6.58,7.913C6.697,7.884 6.813,7.911 6.809,8.045C6.804,8.182 6.82,8.248 6.82,8.248L6.858,8.405C6.866,8.442 7.021,8.443 7.024,8.389C7.027,8.318 7.034,8.142 7.028,8C7.023,7.858 6.921,7.656 6.779,7.668C6.638,7.679 5.873,7.89 5.393,7.952C4.914,8.013 4.3,8.232 4.014,8C3.727,7.768 3.741,7.527 3.728,7.344C3.715,7.16 3.765,6.563 3.335,6.718C3.128,6.794 2.832,6.926 2.558,7.051C2.591,6.865 2.703,6.475 3.086,5.986C3.449,6.162 3.961,6.153 4.443,5.927C5.035,5.648 5.401,5.126 5.382,4.654C5.722,4.644 6.011,4.684 6.261,4.622C6.869,4.47 6.603,4.214 7.094,4.131C7.216,4.11 7.379,4.105 7.555,4.11Z" style="fill:rgb(251,187,153);"/><g transform="matrix(0.731923,-0.447597,0.481803,0.787858,-1.20817,4.09578)"><ellipse cx="5.837" cy="5.601" rx="0.922" ry="0.589" style="fill:rgb(251,252,252);"/></g><g transform="matrix(1.42991,-0.672635,0.771739,1.64059,-8.68009,-0.301844)"><path d="M6.718,5.775C6.601,6.015 6.251,6.19 5.837,6.19C5.5,6.19 5.204,6.074 5.044,5.901C5.165,5.847 5.308,5.796 5.475,5.75C6.068,5.588 6.436,5.668 6.718,5.775Z" style="fill:rgb(251,252,252);"/></g><path d="M7.217,3.808C7.326,3.895 7.44,3.997 7.555,4.11C7.379,4.105 7.216,4.11 7.094,4.131C6.603,4.214 6.869,4.47 6.261,4.622C6.011,4.684 5.722,4.644 5.382,4.654C5.378,4.546 5.354,4.44 5.307,4.34C5.285,4.295 5.26,4.252 5.231,4.212C5.326,4.215 5.415,4.217 5.499,4.213C6.13,4.181 6.417,4.146 6.792,3.939C6.898,3.881 7.058,3.838 7.217,3.808Z" style="fill:rgb(251,192,148);"/><path d="M3.086,5.986C2.703,6.475 2.591,6.865 2.558,7.051C2.264,7.185 1.995,7.31 1.89,7.345C1.868,7.352 1.843,7.358 1.818,7.363C2.008,6.873 2.311,6.186 2.691,5.621C2.778,5.781 2.915,5.903 3.086,5.986Z" style="fill:rgb(251,192,148);"/><path d="M5.382,4.654C4.896,4.668 4.308,4.784 3.587,5.448C3.382,5.637 3.218,5.817 3.086,5.986C2.915,5.903 2.778,5.781 2.691,5.621C2.798,5.462 2.912,5.312 3.031,5.18C3.465,4.695 4.208,4.295 4.676,4.229C4.877,4.201 5.063,4.207 5.231,4.212C5.26,4.252 5.285,4.295 5.307,4.34C5.354,4.44 5.378,4.546 5.382,4.654Z" style="fill:rgb(251,252,234);"/><path d="M2.691,5.621C2.798,5.462 2.912,5.312 3.031,5.18C3.465,4.695 4.208,4.295 4.676,4.229C4.877,4.201 5.063,4.207 5.231,4.212C4.921,3.784 4.199,3.681 3.534,3.994C2.807,4.336 2.42,5.047 2.671,5.58C2.677,5.594 2.684,5.608 2.691,5.621Z" style="fill:rgb(251,249,214);"/><path d="M1.818,7.363C1.602,7.4 1.276,7.326 1.303,6.815C1.335,6.242 1.553,5.604 1.993,4.998C2.434,4.393 3.35,3.459 4.307,3.307C5.265,3.155 6.364,3.229 7.022,3.664C7.084,3.706 7.15,3.754 7.217,3.808C7.058,3.838 6.898,3.881 6.792,3.939C6.417,4.146 6.13,4.181 5.499,4.213C5.415,4.217 5.326,4.215 5.231,4.212C4.921,3.784 4.199,3.681 3.534,3.994C2.807,4.336 2.42,5.047 2.671,5.58C2.677,5.594 2.684,5.608 2.691,5.621C2.311,6.186 2.008,6.873 1.818,7.363Z" style="fill:rgb(252,200,139);"/><path d="M2.513,7.284L2.229,7.406C2.229,7.406 2.163,7.473 2.187,7.629C2.361,7.602 2.633,7.568 2.93,7.565C3.433,7.562 3.453,7.756 3.61,8C3.767,8.244 3.873,8.505 4.491,8.421C5.109,8.338 5.303,8.292 5.774,8.2C6.245,8.107 6.555,8.011 6.634,8.061C6.678,8.088 6.755,8.156 6.814,8.21C6.811,8.187 6.809,8.155 6.808,8.113C6.781,8.057 6.747,8.005 6.709,7.972C6.678,7.945 6.614,7.93 6.541,7.922C6.391,7.953 6.03,8.014 5.471,8.151C4.855,8.302 4.21,8.363 3.865,8.164C3.624,8.024 3.551,7.625 3.521,7.333C3.459,7.228 3.384,7.131 3.313,7.12C3.224,7.108 2.848,7.197 2.513,7.284Z" style="fill:rgb(240,135,113);"/><path d="M3.521,7.333C3.508,7.207 3.503,7.101 3.496,7.045C3.473,6.86 3.345,6.929 3.345,6.929L2.513,7.284C2.848,7.197 3.224,7.108 3.313,7.12C3.384,7.131 3.459,7.228 3.521,7.333Z" style="fill:rgb(168,98,95);"/><path d="M6.541,7.922C6.614,7.93 6.678,7.945 6.709,7.972C6.747,8.005 6.781,8.057 6.808,8.113C6.808,8.092 6.808,8.07 6.809,8.045C6.813,7.911 6.697,7.884 6.58,7.913C6.569,7.915 6.556,7.918 6.541,7.922Z" style="fill:rgb(144,91,86);"/><path d="M3.832,9.646C3.692,9.568 3.548,9.478 3.408,9.376C3.786,9.453 4.235,9.514 4.706,9.518C4.939,9.52 5.187,9.497 5.434,9.459C4.825,9.663 4.25,9.679 3.832,9.646Z" style="fill:rgb(252,175,139);"/><path d="M5.434,9.459C5.695,9.372 5.963,9.249 6.228,9.082C7.854,8.048 8.341,6.98 8.342,6.167C8.342,5.829 8.279,5.329 8.206,4.867C8.511,5.285 8.751,5.73 8.815,6.092C8.832,6.189 8.844,6.288 8.853,6.387C8.812,6.81 8.743,7.329 8.631,7.79C8.124,8.284 7.49,8.815 6.903,9.06C6.556,9.205 5.999,9.373 5.434,9.459Z" style="fill:rgb(241,134,113);"/><path d="M6.954,9.963C6.892,9.985 6.829,10.004 6.763,10.022C5.675,10.317 4.72,10.06 4.114,9.786C4.752,9.777 5.465,9.746 5.954,9.665C6.703,9.541 7.618,9.073 8.266,8.693C8.207,8.778 8.138,8.86 8.056,8.95C7.649,9.399 7.277,9.725 6.954,9.963Z" style="fill:rgb(244,119,81);"/><path d="M4.114,9.786C4.05,9.757 3.99,9.729 3.935,9.7C3.901,9.683 3.866,9.665 3.832,9.646C4.25,9.679 4.825,9.663 5.434,9.459C5.999,9.373 6.556,9.205 6.903,9.06C7.49,8.815 8.124,8.284 8.631,7.79C8.588,7.963 8.54,8.127 8.485,8.275C8.423,8.438 8.355,8.568 8.266,8.693C7.618,9.073 6.703,9.541 5.954,9.665C5.465,9.746 4.752,9.777 4.114,9.786Z" style="fill:rgb(242,127,96);"/><path d="M8.853,6.387C8.89,6.813 8.857,7.253 8.797,7.624C8.756,7.882 8.702,8.106 8.651,8.267C8.628,8.34 8.594,8.427 8.548,8.524C8.329,8.986 7.839,9.655 6.954,9.963C7.277,9.725 7.649,9.399 8.056,8.95C8.138,8.86 8.207,8.778 8.266,8.693C8.355,8.568 8.423,8.438 8.485,8.275C8.54,8.127 8.588,7.963 8.631,7.79C8.743,7.329 8.812,6.81 8.853,6.387Z" style="fill:rgb(181,93,79);"/></g></svg>