<svg width="100%" height="100%" viewBox="0 0 18 16" version="1.1" xmlns="http://www.w3.org/2000/svg" xmlns:xlink="http://www.w3.org/1999/xlink" xml:space="preserve" style="fill-rule:evenodd;clip-rule:evenodd;stroke-linejoin:round;stroke-miterlimit:2;"><g id="rspec"><g transform="matrix(1,0,0,1.00846,0.02311,-0.0127989)"><path d="M2.442,10.473C2.132,9.69 1.962,8.837 1.962,7.946C1.962,4.115 5.105,1.004 8.977,1.004C9.057,1.004 9.136,1.006 9.216,1.008L9.748,1.923L9.12,2.791C9.073,2.79 9.025,2.789 8.977,2.789C6.112,2.789 3.786,5.1 3.786,7.946C3.786,8.643 3.926,9.309 4.179,9.916L3.134,9.65L2.442,10.473Z" style="fill:rgb(64,218,244);"/></g><g transform="matrix(1,0,0,1.00846,0.02311,-0.0127989)"><path d="M9.589,1.03C13.175,1.338 15.992,4.319 15.992,7.946C15.992,8.928 15.786,9.862 15.413,10.709L14.418,10.694L13.86,9.699C14.059,9.151 14.168,8.561 14.168,7.946C14.168,5.29 12.143,3.101 9.545,2.82L10.16,1.978L9.589,1.03Z" style="fill:rgb(151,240,255);"/></g><g transform="matrix(1,0,0,1.00846,0.02311,-0.0127989)"><path d="M15.268,11.019C14.121,13.31 11.734,14.887 8.977,14.887C6.136,14.887 3.687,13.212 2.584,10.807L3.247,10.052L4.353,10.289C5.212,11.958 6.961,13.102 8.977,13.102C11.055,13.102 12.85,11.886 13.679,10.132L14.146,11.019L15.268,11.019Z" style="fill:rgb(109,225,250);"/></g><path d="M5.54,7.702L8.92,11.773L12.118,7.954L12.7,6.939L10.868,5.024L7.065,5.027L5.167,6.995L5.54,7.702Z" style="fill:rgb(254,64,95);"/><path d="M8.043,7.045L8.99,5.025L9.869,7.038L8.043,7.045Z" style="fill:rgb(255,74,109);"/><path d="M10.231,5.022L9.869,7.038L11.518,7.004L10.645,5.022L10.231,5.022Z" style="fill:rgb(255,74,109);"/><path d="M6.321,7.034L7.311,5.046L7.822,5.05L8.025,7.021L6.321,7.034Z" style="fill:rgb(255,74,109);"/><path d="M5.869,8.01L6.81,8.057L6.362,7.098L5.237,6.979L5.869,8.01Z" style="fill:rgb(255,74,109);"/><path d="M7.589,8.121L8.495,8.283L8.042,7.076L7.589,8.121Z" style="fill:rgb(255,74,109);"/><path d="M9.478,8.257L10.322,8.146L9.893,7.083L9.478,8.257Z" style="fill:rgb(255,74,109);"/><path d="M11.032,8.116L11.59,7.099L12.594,7.051L12.008,8.009L11.032,8.116Z" style="fill:rgb(255,74,109);"/><path d="M6.869,8.115L7.561,8.131L8.86,11.652L6.869,8.115Z" style="fill:rgb(255,74,109);"/><path d="M8.488,8.272L9.442,8.271L8.991,11.691L8.488,8.272Z" style="fill:rgb(255,74,109);"/><path d="M10.343,8.174L11.065,8.12L9.111,11.532L10.343,8.174Z" style="fill:rgb(255,74,109);"/></g></svg>