<svg width="100%" height="100%" viewBox="0 0 18 16" version="1.1" xmlns="http://www.w3.org/2000/svg" xmlns:xlink="http://www.w3.org/1999/xlink" xml:space="preserve" style="fill-rule:evenodd;clip-rule:evenodd;stroke-linejoin:round;stroke-miterlimit:2;"><g id="rubocop" transform="matrix(1,0,0,1,0.34678,0.0862045)"><g transform="matrix(1.18733,0,0,1.53804,-1.37696,-1.05272)"><ellipse cx="8.448" cy="5.83" rx="6.317" ry="4.876" style="fill:white;"/></g><path d="M4.672,5.689L12.654,5.666C12.654,5.666 12.091,2.086 8.645,2.19C4.959,2.301 4.672,5.689 4.672,5.689Z"/><g transform="matrix(1.3772,0,0,1.29554,-1.49293,-1.82367)"><path d="M4.07,8.34C3.954,8.289 3.873,8.167 3.873,8.025L3.873,7.158C3.873,7.016 3.954,6.894 4.07,6.843L4.07,6.514C4.07,6.23 4.287,5.999 4.555,5.999L10.183,5.999C10.45,5.999 10.667,6.23 10.667,6.514L10.667,6.844C10.781,6.896 10.862,7.017 10.862,7.158L10.862,8.025C10.862,8.166 10.781,8.287 10.667,8.339L10.667,8.703C10.667,8.987 10.45,9.218 10.183,9.218L4.555,9.218C4.287,9.218 4.07,8.987 4.07,8.703L4.07,8.34Z"/></g><g transform="matrix(1.00197,0,0,1.11059,-0.00979515,-0.856358)"><path d="M12.282,8.003C12.282,8.26 12.051,8.468 11.766,8.468L5.498,8.468C5.214,8.468 4.982,8.26 4.982,8.003C4.982,7.746 5.214,7.538 5.498,7.538L11.766,7.538C12.051,7.538 12.282,7.746 12.282,8.003Z" style="fill:rgb(235,28,35);"/></g><path d="M5.75,10.379C5.75,10.379 5.732,11.646 5.765,11.984C5.798,12.322 6.053,12.712 6.484,12.715C6.914,12.719 7.087,12.752 7.209,12.602C7.332,12.452 7.708,11.945 7.708,11.945C7.708,11.945 7.813,11.828 7.979,11.828C8.144,11.828 9.297,11.851 9.41,11.839C9.523,11.827 9.67,11.975 9.707,12.045C9.745,12.114 10.088,12.581 10.156,12.624C10.224,12.668 10.259,12.7 10.448,12.7C10.637,12.7 11.081,12.772 11.313,12.509C11.533,12.261 11.564,12.149 11.567,11.938C11.569,11.727 11.561,10.4 11.561,10.4L12.485,10.395C12.485,10.395 12.459,11.62 12.499,12.112C12.538,12.605 11.816,13.638 11.009,13.639C10.201,13.641 7.014,13.638 6.357,13.632C5.699,13.625 4.863,12.984 4.825,12.025C4.786,11.066 4.844,10.397 4.844,10.397L5.75,10.379Z"/><path d="M6.873,11.175L7.223,11.489L7.437,11.211L9.876,11.209L10.115,11.484L10.448,11.181L10.076,10.74L7.244,10.716L6.873,11.175Z"/></g></svg>