<svg width="100%" height="100%" viewBox="0 0 18 16" version="1.1" xmlns="http://www.w3.org/2000/svg" xmlns:xlink="http://www.w3.org/1999/xlink" xml:space="preserve" style="fill-rule:evenodd;clip-rule:evenodd;stroke-linejoin:round;stroke-miterlimit:2;"><g id="ruff" transform="matrix(0.15,0,0,0.15,7.72311,6.88592)"><g transform="matrix(1,0,0,1,-41.4874,-42.5728)"><path d="M100,13L100,87C100,94.175 94.175,100 87,100L13,100C5.825,100 0,94.175 0,87L0,13C0,5.825 5.825,0 13,0L87,0C94.175,0 100,5.825 100,13Z" style="fill:rgb(120,135,110);"/></g><g transform="matrix(1,0,0,1,-41.4874,-42.5728)"><path d="M70,33.994C70,31.788 68.212,30 66.006,30L30,30L30,70L48.4,70L48.4,58L51.6,58L51.6,70L70,70L70,54.8L62,54.8L62,51.6L66.006,51.6C68.212,51.6 70,49.812 70,47.606L70,33.994ZM54.8,45.2L54.8,48.4L45.2,48.4L45.2,45.2L54.8,45.2Z" style="fill:rgb(215,255,100);"/></g></g></svg>