<svg width="100%" height="100%" viewBox="0 0 18 16" version="1.1" xmlns="http://www.w3.org/2000/svg" xmlns:xlink="http://www.w3.org/1999/xlink" xml:space="preserve" style="fill-rule:evenodd;clip-rule:evenodd;stroke-linejoin:round;stroke-miterlimit:2;"><g id="ruff-1" transform="matrix(0.0275229,0,0,0.0275229,9,8)"><g transform="matrix(1,0,0,1,-272.5,-272.5)"><g transform="matrix(1.90994,0,0,1.44522,-37.8221,-55.2192)"><path d="M305.152,75.919L305.152,377.604C305.152,398.417 292.366,415.315 276.617,415.315L48.338,415.315C32.589,415.315 19.803,398.417 19.803,377.604L19.803,75.919C19.803,55.106 32.589,38.208 48.338,38.208L276.617,38.208C292.366,38.208 305.152,55.106 305.152,75.919Z"/></g><g transform="matrix(0.821742,0,0,0.821742,89.5,48.5752)"><path d="M180.516,0.5C175.507,0.5 171.445,4.559 171.445,9.567L171.445,36.767C171.445,41.774 167.384,45.833 162.374,45.833L136.975,45.833C131.965,45.833 127.904,49.893 127.904,54.9L127.904,127.433C127.904,132.441 123.842,136.5 118.832,136.5L93.433,136.5C88.423,136.5 84.362,140.559 84.362,145.567L84.362,195.433C84.362,200.441 80.301,204.5 75.291,204.5L49.892,204.5C44.882,204.5 40.82,208.559 40.82,213.567L40.82,263.433C40.82,268.441 36.759,272.5 31.749,272.5L9.071,272.5C4.061,272.5 0,276.559 0,281.567L0,308.767C0,313.774 4.061,317.833 9.071,317.833L126.996,317.833C132.006,317.833 136.068,321.893 136.068,326.9L136.068,376.767C136.068,381.774 132.006,385.833 126.996,385.833L101.597,385.833C96.587,385.833 92.526,389.893 92.526,394.9L92.526,444.767C92.526,449.774 88.465,453.833 83.455,453.833L58.056,453.833C53.046,453.833 48.984,457.893 48.984,462.9L48.984,535.433C48.984,540.441 53.046,544.5 58.056,544.5L130.625,544.5C135.635,544.5 139.696,540.441 139.696,535.433L139.696,499.167L175.981,499.167C180.991,499.167 185.052,495.107 185.052,490.1L185.052,462.9C185.052,457.893 189.113,453.833 194.123,453.833L219.522,453.833C224.532,453.833 228.594,449.774 228.594,444.767L228.594,417.567C228.594,412.559 232.655,408.5 237.665,408.5L263.064,408.5C268.074,408.5 272.135,404.441 272.135,399.433L272.135,372.233C272.135,367.226 276.197,363.167 281.206,363.167L306.606,363.167C311.616,363.167 315.677,359.107 315.677,354.1L315.677,326.9C315.677,321.893 319.738,317.833 324.748,317.833L350.147,317.833C355.157,317.833 359.219,313.774 359.219,308.767L359.219,281.567C359.219,276.559 363.28,272.5 368.29,272.5L393.689,272.5C398.699,272.5 402.76,268.441 402.76,263.433L402.76,190.9C402.76,185.893 398.699,181.833 393.689,181.833L367.383,181.833C362.373,181.833 358.311,177.774 358.311,172.767L358.311,145.567C358.311,140.559 362.373,136.5 367.383,136.5L392.782,136.5C397.792,136.5 401.853,132.441 401.853,127.433L401.853,100.233C401.853,95.226 405.914,91.167 410.924,91.167L436.324,91.167C441.333,91.167 445.395,87.107 445.395,82.1L445.395,9.567C445.395,4.559 441.333,0.5 436.324,0.5L180.516,0.5ZM146.953,385.833C141.943,385.833 137.882,389.893 137.882,394.9L137.882,444.767C137.882,449.774 133.821,453.833 128.811,453.833L103.411,453.833C98.402,453.833 94.34,457.893 94.34,462.9L94.34,490.1C94.34,495.107 98.402,499.167 103.411,499.167L139.696,499.167L139.696,462.9C139.696,457.893 143.757,453.833 148.767,453.833L174.167,453.833C179.176,453.833 183.238,449.774 183.238,444.767L183.238,417.567C183.238,412.559 187.299,408.5 192.309,408.5L217.708,408.5C222.718,408.5 226.779,404.441 226.779,399.433L226.779,372.233C226.779,367.226 230.841,363.167 235.851,363.167L261.25,363.167C266.26,363.167 270.321,359.107 270.321,354.1L270.321,326.9C270.321,321.893 274.382,317.833 279.392,317.833L304.791,317.833C309.801,317.833 313.863,313.774 313.863,308.767L313.863,281.567C313.863,276.559 317.924,272.5 322.934,272.5L348.333,272.5C353.343,272.5 357.404,268.441 357.404,263.433L357.404,236.233C357.404,231.226 353.343,227.167 348.333,227.167L278.485,227.167C273.475,227.167 269.414,223.107 269.414,218.1L269.414,190.9C269.414,185.893 273.475,181.833 278.485,181.833L303.884,181.833C308.894,181.833 312.956,177.774 312.956,172.767L312.956,145.567C312.956,140.559 317.017,136.5 322.027,136.5L347.426,136.5C352.436,136.5 356.497,132.441 356.497,127.433L356.497,100.233C356.497,95.226 360.558,91.167 365.568,91.167L390.968,91.167C395.978,91.167 400.039,87.107 400.039,82.1L400.039,54.9C400.039,49.893 395.978,45.833 390.968,45.833L182.331,45.833C177.321,45.833 173.259,49.893 173.259,54.9L173.259,127.433C173.259,132.441 169.198,136.5 164.188,136.5L138.789,136.5C133.779,136.5 129.718,140.559 129.718,145.567L129.718,195.433C129.718,200.441 125.656,204.5 120.647,204.5L95.247,204.5C90.238,204.5 86.176,208.559 86.176,213.567L86.176,263.433C86.176,268.441 90.238,272.5 95.247,272.5L172.352,272.5C177.362,272.5 181.423,276.559 181.423,281.567L181.423,376.767C181.423,381.774 177.362,385.833 172.352,385.833L146.953,385.833Z" style="fill:rgb(215,255,100);"/></g></g></g></svg>