<svg width="100%" height="100%" viewBox="0 0 18 16" version="1.1" xmlns="http://www.w3.org/2000/svg" xmlns:xlink="http://www.w3.org/1999/xlink" xml:space="preserve" style="fill-rule:evenodd;clip-rule:evenodd;stroke-linejoin:round;stroke-miterlimit:2;"><g id="rush" transform="matrix(0.21228,0,0,0.21228,-24.1396,-80.0759)"><g transform="matrix(5.05845,0,0,5.50156,114.055,372.735)"><path d="M15.532,3.683L15.532,11.647C15.532,13.112 14.238,14.301 12.645,14.301L3.984,14.301C2.391,14.301 1.097,13.112 1.097,11.647L1.097,3.683C1.097,2.218 2.391,1.029 3.984,1.029L12.645,1.029C14.238,1.029 15.532,2.218 15.532,3.683Z" style="fill:white;"/></g><path d="M181.538,404.737C180.061,402.946 177.975,401.839 175.664,401.617C173.353,401.396 171.095,402.088 169.304,403.565C168.364,404.341 167.615,405.285 167.081,406.341L164.982,405.511C165.55,404.693 166.294,403.837 167.146,403.044C168.911,401.4 170.85,400.293 172.465,400.006C172.573,399.987 172.668,399.925 172.728,399.834C172.836,399.671 173.006,399.484 173.155,399.32C173.482,398.961 173.791,398.622 173.495,398.287C173.419,398.202 173.311,398.153 173.197,398.153C173.189,398.153 173.181,398.153 173.173,398.154C170.368,398.325 166.385,399.64 163.618,402.821C163.112,403.404 162.68,403.942 162.315,404.455L154.14,401.22C153.678,400.626 153.028,400.174 152.644,400.14C152.582,400.134 152.501,400.154 152.407,400.192C152.608,399.688 152.805,399.088 152.935,398.367C153.178,397.022 153.21,395.894 153.596,395.805C154.309,395.642 154.231,396.006 154.374,395.485C154.587,394.707 153.57,393.787 153.867,393.118C154.086,392.625 154.301,392.269 154.495,392.002C155.216,392.139 155.85,392.254 156.468,392.659C157.119,392.056 157.663,391.158 157.542,390.483C157.417,389.787 156.071,389.82 156.349,388.568C156.531,387.745 157.694,387.495 158.43,387.51C158.839,387.518 158.706,385.749 158.218,385.468C157.602,385.114 152.201,383.24 150.38,385.086C149.361,386.118 148.872,388.866 150.035,389.862C150.168,389.975 150.297,390.08 150.424,390.18C150.258,390.279 150.077,390.361 149.79,390.39C149.157,390.454 148.806,390.177 148.533,390.401C148.256,390.628 148.731,390.909 148.517,391.279C148.126,391.955 147.766,391.03 146.483,392.301C145.886,392.891 145.737,394.022 145.147,395.439C144.2,397.715 143.369,397.277 142.278,400.784C142.011,401.643 143.151,401.22 145.266,402.256C144.235,404.208 143.567,406.058 143.883,407.215C144.271,408.639 147.029,410.859 148.46,412.124C148.556,412.209 148.659,412.317 148.767,412.443C144.829,416.276 137.967,419.093 128.812,425.933C128.381,426.63 129.289,427.784 129.693,427.865C135.08,423.321 141.558,421.86 148.26,422.34C147.376,422.893 146.602,423.357 145.964,423.734L146.301,422.871L144,423.583L133.366,426.927L132.097,428.392L132.708,430.103L134.617,430.434L144.961,426.298L145.059,426.046C148.403,425.1 149.023,425.985 149.394,427.001L147.754,428.751C144.912,427.642 141.566,428.059 139.051,430.135C135.355,433.185 134.829,438.673 137.879,442.369C139.595,444.449 142.083,445.524 144.589,445.524C146.537,445.524 148.497,444.874 150.113,443.541C151.904,442.063 153.012,439.977 153.233,437.666C153.427,435.64 152.918,433.653 151.794,431.988L154.538,428.66C154.663,428.698 154.779,428.71 154.884,428.693C155.275,428.63 155.856,428.193 156.52,427.539C156.647,427.781 156.906,427.935 157.188,427.908C157.565,427.873 157.841,427.528 157.804,427.139C157.791,427.004 157.74,426.882 157.666,426.781C158.91,426.974 159.92,427.015 160.004,426.733C160.347,425.574 159.702,425.073 158.923,424.733C159.357,424.161 159.778,423.575 160.161,423.009C161.539,421.718 162.558,420.519 162.721,419.785C163.06,418.257 161.783,415.855 160.56,414.474C160.649,413.555 160.756,412.502 160.859,411.453C161.029,412.252 161.377,413.251 161.744,414.301C161.958,414.912 162.179,415.544 162.362,416.133C162.406,416.275 162.525,416.38 162.671,416.407C162.695,416.411 162.718,416.413 162.742,416.413C162.864,416.413 162.981,416.356 163.057,416.258C163.126,416.167 163.212,416.094 163.302,416.016C163.557,415.796 163.942,415.463 163.683,414.76C162.569,411.729 163.414,409.147 163.819,407.906C163.87,407.753 163.913,407.62 163.948,407.503C163.966,407.443 163.987,407.382 164.008,407.32L166.4,408.173C166.298,408.585 166.226,409.008 166.185,409.439C165.963,411.749 166.655,414.008 168.133,415.799C169.61,417.589 171.696,418.697 174.007,418.918C174.289,418.945 174.571,418.959 174.851,418.959C176.863,418.959 178.795,418.267 180.367,416.97C182.157,415.493 183.265,413.407 183.486,411.096C183.708,408.785 183.016,406.527 181.538,404.736L181.538,404.737ZM161.226,406.354C161.225,406.346 161.225,406.337 161.225,406.329L161.234,406.332C161.231,406.339 161.228,406.346 161.225,406.354L161.226,406.354ZM154.725,405.98C153.744,406.324 152.859,406.795 152.253,407.394C151.418,406.584 150.765,405.99 150.588,405.669C150.657,405.664 150.718,405.645 150.77,405.606C151.051,405.401 150.801,404.902 151.159,404.627C151.745,404.175 152.784,405.225 153.459,404.81C153.766,404.621 153.939,404.166 153.937,403.731L155.656,404.343L154.725,405.979L154.725,405.98ZM147.563,424.325C148.171,423.959 148.862,423.534 149.617,423.054C150.002,423.639 150.522,424.406 151.095,425.186L150.376,425.954C149.917,425.077 149.155,424.366 147.563,424.325L147.563,424.325ZM151.439,428.89C151.514,428.878 151.591,428.864 151.673,428.843C152.14,428.727 152.781,428.429 153.52,428.007C153.556,428.039 153.591,428.069 153.626,428.099L151.129,431.127C150.844,430.799 150.539,430.499 150.218,430.225L151.439,428.89L151.439,428.89ZM149.443,432.827C149.491,432.884 149.536,432.944 149.581,433.003L147.049,436.072C146.953,435.76 146.796,435.461 146.575,435.193C146.43,435.018 146.265,434.869 146.088,434.741L148.605,431.989C148.905,432.237 149.187,432.516 149.443,432.827L149.443,432.827ZM150.856,437.439C150.695,439.115 149.892,440.628 148.593,441.699C145.913,443.911 141.933,443.529 139.721,440.849C137.51,438.169 137.891,434.189 140.571,431.977C141.744,431.009 143.164,430.538 144.577,430.538C145.035,430.538 145.492,430.588 145.94,430.687L142.123,434.758L142.511,435.298C141.817,436.23 141.817,437.546 142.59,438.482C143.498,439.583 145.126,439.739 146.227,438.831C146.557,438.558 146.8,438.221 146.957,437.852L150.181,433.944C150.735,435.01 150.973,436.214 150.856,437.439L150.856,437.439ZM181.11,410.869C180.949,412.545 180.146,414.058 178.847,415.129C177.549,416.2 175.912,416.702 174.235,416.542C172.559,416.381 171.047,415.578 169.975,414.279C168.904,412.981 168.402,411.343 168.563,409.667C168.585,409.435 168.621,409.207 168.667,408.982L172.253,410.26C172.251,410.842 172.444,411.428 172.843,411.913C173.752,413.013 175.38,413.169 176.481,412.261C177.581,411.353 177.737,409.724 176.829,408.624C175.921,407.523 174.292,407.367 173.192,408.275C173.063,408.381 172.949,408.498 172.846,408.622L169.315,407.225C169.694,406.538 170.202,405.921 170.825,405.407C171.965,404.467 173.366,403.965 174.825,403.965C175.028,403.965 175.232,403.975 175.437,403.995C177.113,404.155 178.626,404.959 179.697,406.257C180.769,407.555 181.27,409.193 181.11,410.869L181.11,410.869Z" style="fill:rgb(85,85,85);fill-rule:nonzero;"/></g></svg>