<svg width="100%" height="100%" viewBox="0 0 18 16" version="1.1" xmlns="http://www.w3.org/2000/svg" xmlns:xlink="http://www.w3.org/1999/xlink" xml:space="preserve" style="fill-rule:evenodd;clip-rule:evenodd;stroke-linecap:round;stroke-linejoin:round;"><g transform="matrix(0.104167,0,0,0.104167,9,8)"><g id="rust" transform="matrix(1,0,0,1,-72,-72)"><clipPath id="_clip-2oe8h5s"><rect x="0" y="0" width="144" height="144"/></clipPath><g clip-path="url(#_clip-2oe8h5s)"><g transform="matrix(1.08844,0,0,1.32299,-0.331712,-0.837491)"><ellipse cx="66.455" cy="55.055" rx="66.15" ry="54.422" style="fill:white;"/></g><g transform="matrix(0.942029,0,0,0.942029,4.17391,4.17391)"><g transform="matrix(1.35961,0,0,1.35961,-24.6,-24.464)"><path d="M71.05,23.68C44.99,23.68 23.78,44.9 23.78,70.95C23.78,97 45,118.22 71.05,118.22C97.1,118.22 118.32,97 118.32,70.95C118.32,44.9 97.1,23.68 71.05,23.68ZM70.98,27.88C72.65,27.923 74.001,29.314 74,30.99C74,32.696 72.596,34.1 70.89,34.1C69.184,34.1 67.78,32.696 67.78,30.99C67.78,30.99 67.78,30.989 67.78,30.989C67.78,29.283 69.184,27.879 70.89,27.879C70.92,27.879 70.95,27.879 70.98,27.88ZM78.1,33C89.144,35.069 98.735,41.899 104.3,51.66L100.63,59.94C100,61.37 100.65,63.05 102.07,63.69L109.13,66.82C109.349,69.027 109.376,71.249 109.21,73.46L105.28,73.46C104.89,73.46 104.73,73.72 104.73,74.1L104.73,75.9C104.73,80.14 102.34,81.07 100.24,81.3C98.24,81.53 96.03,80.46 95.75,79.24C94.57,72.61 92.61,71.2 89.51,68.75C93.36,66.31 97.36,62.7 97.36,57.88C97.36,52.67 93.79,49.39 91.36,47.78C87.94,45.53 84.16,45.08 83.14,45.08L42.54,45.08C48.153,38.81 55.681,34.562 63.95,33L68.74,38.02C69.82,39.15 71.61,39.2 72.74,38.11L78.1,33ZM33.9,56.02C35.572,56.068 36.921,57.457 36.92,59.13C36.92,60.836 35.516,62.24 33.81,62.24C32.104,62.24 30.7,60.836 30.7,59.13C30.7,59.13 30.7,59.129 30.7,59.129C30.7,57.423 32.104,56.019 33.81,56.019C33.84,56.019 33.87,56.019 33.9,56.02ZM108.05,56.16C109.722,56.208 111.071,57.597 111.07,59.27C111.07,60.976 109.666,62.38 107.96,62.38C106.254,62.38 104.85,60.976 104.85,59.27C104.85,59.27 104.85,59.269 104.85,59.269C104.85,57.563 106.254,56.159 107.96,56.159C107.99,56.159 108.02,56.159 108.05,56.16ZM39.76,56.66L45.18,56.66L45.18,81.1L34.24,81.1C32.889,76.356 32.468,71.394 33,66.49L39.7,63.51C41.13,62.87 41.78,61.2 41.14,59.77L39.76,56.66ZM62.38,56.92L75.29,56.92C75.96,56.92 80,57.69 80,60.72C80,63.23 76.9,64.13 74.35,64.13L62.37,64.13L62.38,56.92ZM62.38,74.48L72.27,74.48C73.17,74.48 77.1,74.74 78.35,79.76C78.74,81.3 79.61,86.32 80.2,87.93C80.79,89.73 83.18,93.33 85.73,93.33L101.87,93.33C100.788,94.779 99.605,96.149 98.33,97.43L91.76,96.02C90.23,95.69 88.72,96.67 88.39,98.2L86.83,105.48C76.684,110.076 65.022,110.021 54.92,105.33L53.36,98.05C53.03,96.52 51.53,95.54 50,95.87L43.57,97.25C42.377,96.019 41.268,94.71 40.25,93.33L71.52,93.33C71.87,93.33 72.11,93.27 72.11,92.94L72.11,81.88C72.11,81.56 71.87,81.49 71.52,81.49L62.37,81.49L62.38,74.48ZM47.95,99.81C49.622,99.858 50.971,101.247 50.97,102.92C50.97,104.626 49.566,106.03 47.86,106.03C46.154,106.03 44.75,104.626 44.75,102.92C44.75,102.92 44.75,102.919 44.75,102.919C44.75,101.213 46.154,99.809 47.86,99.809C47.89,99.809 47.92,99.809 47.95,99.81ZM94,99.95C95.672,99.998 97.021,101.387 97.02,103.06C97.02,104.766 95.616,106.17 93.91,106.17C92.204,106.17 90.8,104.766 90.8,103.06C90.8,103.06 90.8,103.059 90.8,103.059C90.8,101.353 92.204,99.949 93.91,99.949C93.94,99.949 93.97,99.949 94,99.95Z" style="fill-rule:nonzero;"/></g><g transform="matrix(1.35961,0,0,1.35961,-24.6,-24.464)"><path d="M115.68,70.95C115.68,95.433 95.533,115.58 71.05,115.58C46.567,115.58 26.42,95.433 26.42,70.95C26.42,46.467 46.567,26.32 71.05,26.32C95.533,26.32 115.68,46.467 115.68,70.95ZM114.84,66.64L121.8,70.95L114.84,75.26L120.82,80.85L113.16,83.72L117.94,90.37L109.85,91.69L113.25,99.15L105.06,98.86L106.94,106.84L98.96,104.96L99.25,113.15L91.79,109.75L90.47,117.84L83.82,113.06L80.95,120.72L75.36,114.74L71.05,121.7L66.74,114.74L61.15,120.72L58.28,113.06L51.63,117.84L50.31,109.75L42.85,113.15L43.14,104.96L35.16,106.84L37.04,98.86L28.85,99.15L32.25,91.69L24.16,90.37L28.94,83.72L21.28,80.85L27.26,75.26L20.3,70.95L27.26,66.64L21.28,61.05L28.94,58.18L24.16,51.53L32.25,50.21L28.85,42.75L37.04,43.04L35.16,35.06L43.14,36.94L42.85,28.75L50.31,32.15L51.63,24.06L58.28,28.84L61.15,21.18L66.74,27.16L71.05,20.2L75.36,27.16L80.95,21.18L83.82,28.84L90.47,24.06L91.79,32.15L99.25,28.75L98.96,36.94L106.94,35.06L105.06,43.04L113.25,42.75L109.85,50.21L117.94,51.53L113.16,58.18L120.82,61.05L114.84,66.64Z" style="stroke:black;stroke-width:3px;"/></g></g></g></g><g id="rust1"></g></g></svg>