<svg width="100%" height="100%" viewBox="0 0 18 16" version="1.1" xmlns="http://www.w3.org/2000/svg" xmlns:xlink="http://www.w3.org/1999/xlink" xml:space="preserve" style="fill-rule:evenodd;clip-rule:evenodd;stroke-linejoin:round;stroke-miterlimit:2;"><g id="sbt"><g transform="matrix(1.07381,0,0,1.16787,0.071922,-0.951721)"><path d="M15.532,3.683L15.532,11.647C15.532,13.112 14.238,14.301 12.645,14.301L3.984,14.301C2.391,14.301 1.097,13.112 1.097,11.647L1.097,3.683C1.097,2.218 2.391,1.029 3.984,1.029L12.645,1.029C14.238,1.029 15.532,2.218 15.532,3.683Z" style="fill:white;"/></g><g id="sbt1" transform="matrix(0.0569242,0,0,0.0569242,1.7628,3.82183)"><path d="M17.417,106.458L4.167,118.458C4.167,118.458 10.667,126.583 19.292,131.458C27.917,136.333 32.673,135.966 42.357,135.837C51.667,135.837 61.167,134.083 68.792,127.333C76.417,120.583 77.858,118.733 77.825,110.221C77.809,106.227 76.75,97.408 71.917,91.708C66.451,85.263 57.136,82.142 57.136,82.142C57.136,82.142 28.606,74.987 31.542,65.083C32.774,60.927 39.36,59.357 45.834,60.5C54.026,61.944 62.308,66.871 62.308,66.871L73.885,55.541C73.885,55.541 68.611,49.343 60.417,45.333C54.353,42.366 45.989,41.274 40.634,41.255C28.042,41.208 12.299,52.452 10.417,64.083C9.042,72.583 11.8,79.759 18.042,85.208C25.917,92.083 31.52,92.979 31.52,92.979C31.52,92.979 56.643,99.448 56.643,107.265C56.643,115.082 50.542,117.957 40.792,118.082C31.042,118.207 17.417,106.458 17.417,106.458Z" style="fill:rgb(56,13,9);fill-rule:nonzero;"/><path d="M198.508,45.484L198.708,63.683L209.108,63.683L209.208,117.583C209.208,117.583 211.009,123.783 215.708,128.383C221.773,134.32 228.108,135.837 228.108,135.837L248.507,135.837L248.608,117.283L237.608,117.183C237.608,117.183 235.207,117.284 232.508,114.683C229.707,111.983 229.808,108.483 229.808,108.483L230.008,63.583L250.008,63.583L250.108,45.383L230.108,45.283L229.908,10.083L209.108,10.083L209.308,45.483L198.508,45.483L198.508,45.484Z" style="fill:rgb(56,13,9);fill-rule:nonzero;"/><path d="M156.667,49.833C144.138,47.066 131.417,48.458 123.292,53.208L133.917,10.083L112.729,4.895L82.604,126.333L103.604,132.395L106.5,120.5C112.667,132.166 119.694,137.779 133.167,140.833C158.167,146.5 180.479,129.071 186.501,102.166C191.667,79.083 175.917,54.083 156.667,49.833ZM162.756,117.094L132.604,125.396L110.114,102.62L117.78,71.543L147.935,63.241L170.422,86.017L162.756,117.094Z" style="fill:rgb(56,13,9);fill-rule:nonzero;"/></g></g></svg>