<svg width="100%" height="100%" viewBox="0 0 18 16" version="1.1" xmlns="http://www.w3.org/2000/svg" xmlns:xlink="http://www.w3.org/1999/xlink" xml:space="preserve" style="fill-rule:evenodd;clip-rule:evenodd;stroke-linejoin:round;stroke-miterlimit:2;"><g id="scalafix"><g transform="matrix(1.26047,0,0,1.10872,-2.73284,-0.684436)"><path d="M9.836,3.894L9.811,4.873C10.011,4.918 10.206,4.99 10.392,5.087L10.877,4.278C11.203,4.467 11.5,4.713 11.759,5.006L11.232,5.781C11.371,5.952 11.491,6.141 11.591,6.343L12.402,6.013C12.568,6.384 12.682,6.781 12.739,7.191L11.912,7.466C11.936,7.697 11.936,7.93 11.912,8.161L12.739,8.436C12.682,8.846 12.568,9.244 12.402,9.614L11.591,9.284C11.491,9.486 11.371,9.675 11.232,9.846L11.759,10.621C11.5,10.915 11.203,11.16 10.877,11.349L10.392,10.54C10.206,10.637 10.011,10.709 9.811,10.755L9.836,11.734C9.475,11.798 9.108,11.798 8.747,11.734L8.772,10.755C8.572,10.709 8.377,10.637 8.191,10.54L7.705,11.349C7.38,11.16 7.083,10.915 6.824,10.621L7.351,9.846C7.212,9.675 7.092,9.486 6.991,9.284L6.18,9.614C6.015,9.244 5.901,8.846 5.844,8.436L6.671,8.161C6.647,7.93 6.647,7.697 6.671,7.466L5.844,7.191C5.901,6.781 6.015,6.384 6.18,6.013L6.991,6.343C7.092,6.141 7.212,5.952 7.351,5.781L6.824,5.006C7.083,4.713 7.38,4.467 7.705,4.278L8.191,5.087C8.377,4.99 8.572,4.918 8.772,4.873L8.747,3.894C9.108,3.829 9.475,3.829 9.836,3.894ZM9.291,5.927C10.207,5.927 10.951,6.773 10.951,7.814C10.951,8.855 10.207,9.7 9.291,9.7C8.376,9.7 7.632,8.855 7.632,7.814C7.632,6.773 8.376,5.927 9.291,5.927Z" style="fill:rgb(242,101,39);"/></g><g transform="matrix(8.65928e-17,-1.41417,1.18766,7.27234e-17,-0.392846,18.7443)"><path d="M2.89,10.344C2.842,8.57 2.847,6.775 2.907,5.007C2.912,4.871 2.972,4.745 3.068,4.671C4.429,3.62 5.846,2.624 7.272,1.713C7.377,1.647 7.502,1.647 7.606,1.713C9.033,2.624 10.45,3.62 11.811,4.671C11.907,4.745 11.967,4.871 11.972,5.007C12.031,6.775 12.037,8.57 11.989,10.344L11.282,10.344C11.328,8.654 11.325,6.945 11.272,5.259C10.028,4.306 8.739,3.398 7.439,2.563C6.14,3.398 4.85,4.306 3.607,5.259C3.554,6.946 3.551,8.654 3.597,10.344L2.89,10.344Z" style="fill:rgb(243,101,39);"/></g></g></svg>