<svg width="100%" height="100%" viewBox="0 0 18 16" version="1.1" xmlns="http://www.w3.org/2000/svg" xmlns:xlink="http://www.w3.org/1999/xlink" xml:space="preserve" style="fill-rule:evenodd;clip-rule:evenodd;stroke-linejoin:round;stroke-miterlimit:2;"><g id="scala"><path d="M4.379,15.477C4.379,15.477 4.517,15.387 5.174,15.294C5.831,15.201 7.105,15.028 8.284,14.868C9.464,14.707 10.215,14.629 11.518,14.276C12.821,13.923 13.193,13.773 13.403,13.582C13.612,13.391 13.628,13.246 13.628,13.246L13.636,9.649C13.636,9.649 13.666,9.849 13.487,10.026C13.307,10.202 12.914,10.457 12.22,10.654C11.527,10.852 10.35,11.119 8.817,11.358C7.284,11.597 6.115,11.724 5.319,11.828C4.522,11.931 4.366,12.023 4.366,12.023L4.379,15.477Z" style="fill:rgb(223,62,60);"/><path d="M4.371,10.87C4.379,10.892 4.434,10.934 4.717,10.983C5.128,11.054 6.384,11.236 6.913,11.307C7.278,11.357 7.798,11.429 8.083,11.469C8.316,11.435 8.56,11.398 8.817,11.358C10.35,11.119 11.527,10.852 12.22,10.654C12.914,10.457 13.307,10.202 13.487,10.026C13.571,9.943 13.609,9.854 13.626,9.783L13.625,9.646C13.625,9.646 13.546,9.477 13.408,9.359C13.325,9.289 13.19,9.211 13.096,9.16C13.015,9.202 12.922,9.244 12.817,9.286C12.174,9.54 11.177,9.806 10.119,9.981C9.061,10.156 7.087,10.428 6.444,10.511C5.8,10.593 4.843,10.755 4.601,10.796C4.422,10.827 4.381,10.857 4.371,10.87Z" style="fill:rgb(127,12,29);"/><path d="M4.369,10.877C4.369,10.877 4.36,10.837 4.601,10.796C4.843,10.755 5.8,10.593 6.444,10.511C7.087,10.428 9.061,10.156 10.119,9.981C11.177,9.806 12.174,9.54 12.817,9.286C13.46,9.031 13.611,8.773 13.625,8.615L13.64,8.458L13.629,5.038C13.629,5.038 13.686,5.338 13.244,5.601C12.803,5.864 12.483,5.981 11.724,6.181C10.966,6.381 9.318,6.674 8.623,6.773C7.928,6.873 6.341,7.099 5.782,7.157C5.223,7.216 4.762,7.294 4.601,7.331C4.44,7.368 4.373,7.403 4.371,7.44C4.369,7.476 4.369,10.877 4.369,10.877Z" style="fill:rgb(223,62,60);"/><path d="M13.07,4.533C13.08,4.536 13.09,4.54 13.1,4.545C13.27,4.619 13.535,4.8 13.614,4.99C13.623,5.013 13.628,5.04 13.63,5.071C13.63,5.083 13.63,5.096 13.63,5.11C13.618,5.215 13.553,5.417 13.244,5.601C12.803,5.864 12.483,5.981 11.724,6.181C10.966,6.381 9.318,6.674 8.623,6.773C8.481,6.794 8.302,6.819 8.102,6.848C7.552,6.773 6.62,6.646 6.071,6.571C5.263,6.462 4.38,6.38 4.371,6.281C4.371,6.276 4.371,6.271 4.373,6.266C4.388,6.242 4.44,6.197 4.622,6.165C4.911,6.115 5.436,6.042 5.953,5.976C6.471,5.91 8.72,5.622 9.727,5.437C10.734,5.252 12.092,4.943 12.713,4.694C12.848,4.64 12.966,4.586 13.07,4.533Z" style="fill:rgb(127,12,29);"/><path d="M13.619,0.536C13.619,0.536 13.626,3.86 13.622,4.027C13.618,4.193 13.333,4.445 12.713,4.694C12.092,4.943 10.734,5.252 9.727,5.437C8.72,5.622 6.471,5.91 5.953,5.976C5.436,6.042 4.911,6.115 4.622,6.165C4.358,6.211 4.367,6.285 4.367,6.283C4.366,6.152 4.381,2.801 4.381,2.801C4.381,2.801 4.395,2.768 4.578,2.73C4.762,2.692 6.679,2.45 7.617,2.296C8.555,2.141 10.025,1.97 11.244,1.67C12.464,1.37 12.66,1.312 13.012,1.145C13.276,1.02 13.57,0.853 13.619,0.536Z" style="fill:rgb(223,62,60);"/></g></svg>