<svg width="100%" height="100%" viewBox="0 0 18 16" version="1.1" xmlns="http://www.w3.org/2000/svg" xmlns:xlink="http://www.w3.org/1999/xlink" xml:space="preserve" style="fill-rule:evenodd;clip-rule:evenodd;stroke-linecap:round;stroke-linejoin:round;stroke-miterlimit:1;"><g id="scalasteward"><g transform="matrix(1.49228,0,0,1.36319,-1.62667,-2.26275)"><ellipse cx="7.121" cy="7.528" rx="5.026" ry="5.502" style="fill:rgb(61,90,128);"/></g><path d="M4.894,14.168L4.889,14.272C6.07,15.048 7.482,15.5 9,15.5C10.544,15.5 11.98,15.032 13.174,14.231L13.112,13.026C13.113,13.044 13.129,13.059 13.147,13.059L13.142,13.049L13.136,13.05L13.135,13.035L13.119,13.003C13.119,13.003 13.129,12.989 13.132,12.984L13.05,11.62C13.05,11.62 12.831,11.579 12.666,11.352C12.539,11.178 12.452,10.882 12.463,10.493C12.485,9.671 12.988,9.401 13.07,9.362L13.063,9.329L13.065,9.328C13.079,9.322 13.152,9.29 13.19,9.283C13.206,9.281 13.224,9.274 13.239,9.265C13.244,9.262 13.25,9.256 13.253,9.253C13.25,9.248 13.243,9.235 13.236,9.225C13.202,9.171 13.143,9.076 13.155,8.88C13.168,8.646 13.206,8.508 13.229,8.414C13.243,8.359 13.253,8.321 13.246,8.285C13.241,8.26 13.23,8.245 13.218,8.238C13.197,8.227 13.175,8.233 13.175,8.233L13.151,8.209C13.151,8.209 12.951,8.227 12.469,8.577C12.103,8.843 11.608,9.295 10.889,10.041C9.699,11.275 9,12.533 9,12.533C9,12.533 8.217,11.262 7.151,10.091C5.522,8.302 4.819,8.21 4.819,8.21L4.801,8.228C4.801,8.228 4.781,8.227 4.765,8.242C4.752,8.254 4.743,8.275 4.743,8.31C4.744,8.368 4.766,8.454 4.788,8.546C4.811,8.644 4.834,8.75 4.834,8.842C4.835,8.973 4.814,9.081 4.792,9.143C4.78,9.176 4.768,9.197 4.758,9.207C4.747,9.218 4.74,9.231 4.737,9.242C4.736,9.245 4.735,9.251 4.735,9.251C4.736,9.262 4.746,9.286 4.748,9.291C4.748,9.291 5.365,9.457 5.496,10.216C5.546,10.509 5.486,10.968 5.421,11.159C5.345,11.381 5.254,11.449 5.221,11.468L5.24,11.467L5.333,11.546C5.398,11.601 5.394,11.641 5.394,11.641C5.394,11.641 5.374,11.659 5.362,11.66C5.35,11.662 5.331,11.67 5.331,11.67C5.331,11.67 5.443,11.78 5.469,11.812C5.482,11.829 5.476,11.882 5.476,11.882C5.476,11.882 5.512,11.936 5.599,11.968L5.745,12.023C5.745,12.023 5.762,11.999 5.848,12.002C5.95,12.007 5.955,12.031 5.955,12.031C5.955,12.031 6.037,11.972 6.145,11.983C6.287,11.998 6.268,12.093 6.268,12.093L6.214,12.093C6.214,12.093 6.192,12.083 6.178,12.084C6.14,12.086 6.126,12.111 6.022,12.261C5.918,12.412 5.928,12.827 5.928,12.827L6.102,12.847C6.197,12.858 6.309,12.857 6.309,12.857C6.309,12.857 6.307,13.062 6.326,13.311C6.344,13.559 6.388,13.795 6.417,13.934C6.445,14.073 6.627,14.428 6.627,14.446C6.627,14.477 6.526,14.588 6.43,14.588C6.215,14.588 6.174,14.385 6.174,14.385C6.174,14.385 6.103,14.419 6.029,14.385C5.996,14.37 5.929,14.326 5.929,14.326C5.929,14.326 5.934,14.647 5.848,14.623C5.765,14.6 5.781,14.434 5.781,14.434C5.781,14.434 5.738,14.504 5.684,14.489C5.614,14.469 5.622,14.34 5.622,14.34C5.622,14.34 5.514,14.373 5.43,14.35C5.345,14.326 5.286,14.228 5.286,14.228C5.286,14.228 5.251,14.298 5.167,14.289C5.124,14.284 5.115,14.216 5.115,14.216C5.115,14.216 5.046,14.228 4.994,14.218C4.943,14.208 4.894,14.168 4.894,14.168Z" style="fill:rgb(230,59,46);"/><path d="M4.748,9.291L4.715,9.34L4.741,9.329C4.741,9.329 4.737,9.332 4.732,9.338C4.68,9.396 4.416,9.699 4.328,10.01C4.23,10.357 4.181,10.805 4.391,11.389C4.557,11.848 4.702,11.985 4.73,12.008C4.731,12.009 4.733,12.01 4.733,12.01C4.738,11.99 4.78,11.816 4.823,11.747C4.895,11.631 4.994,11.548 5.025,11.541C5.056,11.533 5.091,11.553 5.091,11.553C5.091,11.553 5.132,11.519 5.152,11.506C5.169,11.494 5.207,11.475 5.207,11.475C5.207,11.475 5.326,11.438 5.421,11.159C5.486,10.968 5.546,10.509 5.496,10.216C5.365,9.457 4.748,9.291 4.748,9.291Z" style="fill:rgb(245,230,232);"/><path d="M5.015,10.229C5.049,10.181 5.08,10.174 5.06,10.226C5.06,10.226 4.968,10.373 4.992,10.75C5.003,10.923 5.035,11.009 5.072,11.119C5.128,11.287 5.19,11.426 5.21,11.457C5.214,11.462 5.159,11.5 5.155,11.494C5.143,11.475 5.113,11.437 5.08,11.367C5.042,11.285 4.999,11.163 4.97,11.026C4.952,10.943 4.934,10.851 4.933,10.752C4.927,10.349 4.997,10.254 5.015,10.229Z"/><path d="M5.223,11.515L5.201,11.457C5.201,11.457 5.204,11.455 5.208,11.45C5.259,11.397 5.509,11.095 5.48,10.406C5.444,9.53 4.738,9.323 4.738,9.323L4.706,9.314L4.725,9.25L4.757,9.259C4.757,9.259 5.509,9.475 5.547,10.403C5.573,11.044 5.366,11.364 5.282,11.466C5.262,11.491 5.249,11.504 5.246,11.506L5.223,11.515ZM5.223,11.515L5.19,11.515L5.19,11.449L5.223,11.515Z"/><path d="M5.221,11.468C5.212,11.473 5.207,11.475 5.207,11.475C5.207,11.475 5.169,11.494 5.152,11.506C5.132,11.519 5.091,11.553 5.091,11.553C5.091,11.553 5.056,11.533 5.025,11.541C4.994,11.548 4.895,11.631 4.823,11.747C4.78,11.816 4.738,11.99 4.733,12.01L4.732,12.012L4.712,12.074L4.747,12.048C4.747,12.048 4.746,12.05 4.745,12.053C4.737,12.085 4.698,12.262 4.685,12.569C4.674,12.851 4.655,13.388 4.668,13.613C4.675,13.755 4.679,13.88 4.687,13.954C4.688,13.962 4.689,13.969 4.69,13.976C4.695,13.972 4.7,13.968 4.704,13.963C4.733,13.935 4.762,13.898 4.77,13.888L4.772,13.885L4.79,13.92C4.796,13.911 4.801,13.906 4.801,13.906C4.801,13.906 4.801,13.919 4.802,13.94L4.836,13.905L4.836,13.908C4.836,13.925 4.839,14.016 4.848,14.064C4.854,14.098 4.873,14.113 4.878,14.116L4.86,14.182L4.895,14.149L4.894,14.168C4.894,14.168 4.943,14.208 4.994,14.218C5.046,14.228 5.115,14.216 5.115,14.216C5.115,14.216 5.124,14.284 5.167,14.289C5.251,14.298 5.286,14.228 5.286,14.228C5.286,14.228 5.345,14.326 5.43,14.35C5.514,14.373 5.622,14.34 5.622,14.34C5.622,14.34 5.614,14.469 5.684,14.489C5.738,14.504 5.781,14.434 5.781,14.434C5.781,14.434 5.765,14.6 5.848,14.623C5.934,14.647 5.929,14.326 5.929,14.326C5.929,14.326 5.996,14.37 6.029,14.385C6.103,14.419 6.174,14.385 6.174,14.385C6.174,14.385 6.215,14.588 6.43,14.588C6.526,14.588 6.627,14.477 6.627,14.446C6.627,14.428 6.445,14.073 6.417,13.934C6.388,13.795 6.344,13.559 6.326,13.311C6.307,13.062 6.309,12.857 6.309,12.857C6.309,12.857 6.197,12.858 6.102,12.847L5.928,12.827C5.928,12.827 5.918,12.412 6.022,12.261C6.126,12.111 6.14,12.086 6.178,12.084C6.192,12.083 6.214,12.093 6.214,12.093L6.268,12.093C6.268,12.093 6.287,11.998 6.145,11.983C6.037,11.972 5.955,12.031 5.955,12.031C5.955,12.031 5.95,12.007 5.848,12.002C5.762,11.999 5.745,12.023 5.745,12.023L5.599,11.968C5.512,11.936 5.476,11.882 5.476,11.882C5.476,11.882 5.482,11.829 5.469,11.812C5.443,11.78 5.331,11.67 5.331,11.67C5.331,11.67 5.35,11.662 5.362,11.66C5.374,11.659 5.394,11.641 5.394,11.641C5.394,11.641 5.398,11.601 5.333,11.546L5.24,11.467L5.221,11.468Z" style="fill:rgb(232,235,228);"/><path d="M6.308,12.857L6.308,12.832L6.53,12.831L6.53,12.856C6.53,12.856 6.533,12.861 6.538,12.869L6.553,12.845C6.553,12.845 6.553,12.845 6.553,12.846C6.557,12.853 6.571,12.877 6.592,12.894C6.604,12.904 6.619,12.912 6.637,12.912C6.656,12.912 6.667,12.9 6.674,12.887C6.683,12.871 6.685,12.854 6.686,12.848L6.686,12.846L6.707,12.869C6.71,12.857 6.711,12.849 6.711,12.849C6.711,12.849 6.713,12.85 6.717,12.851L6.723,12.826C6.723,12.827 6.724,12.827 6.727,12.829C6.755,12.842 6.906,12.91 7.117,12.903C7.255,12.899 7.373,12.858 7.447,12.799C7.492,12.763 7.52,12.72 7.522,12.674C7.527,12.574 7.459,12.541 7.445,12.536L7.451,12.537L7.439,12.49C7.439,12.49 7.44,12.489 7.441,12.488C7.458,12.479 7.54,12.428 7.535,12.329C7.53,12.232 7.468,12.201 7.455,12.196L7.463,12.197L7.443,12.156C7.451,12.146 7.486,12.091 7.466,12.02C7.458,11.992 7.437,11.973 7.412,11.959C7.369,11.936 7.314,11.929 7.277,11.929C7.202,11.929 7.022,11.954 6.929,11.987C6.844,12.017 6.747,12.061 6.728,12.07L6.715,12.074L6.703,12.071C6.698,12.068 6.671,12.057 6.638,12.061C6.626,12.062 6.616,12.07 6.606,12.078C6.588,12.092 6.575,12.111 6.572,12.116L6.571,12.117L6.55,12.129L6.274,12.121L6.258,12.115L6.23,12.093L6.214,12.093C6.214,12.093 6.192,12.083 6.178,12.084C6.14,12.086 6.126,12.111 6.022,12.261C5.918,12.412 5.928,12.827 5.928,12.827L6.102,12.847C6.166,12.854 6.237,12.856 6.277,12.857L6.289,12.842L6.296,12.857C6.304,12.857 6.308,12.857 6.308,12.857Z" style="fill:rgb(245,230,232);"/><path d="M6.268,12.091C6.269,12.086 6.27,12.072 6.265,12.056L6.284,12.071L6.303,12.071L6.537,12.078C6.545,12.068 6.558,12.052 6.574,12.039C6.591,12.025 6.611,12.014 6.632,12.011C6.668,12.007 6.699,12.015 6.714,12.021C6.744,12.008 6.833,11.968 6.912,11.94C7.01,11.905 7.199,11.879 7.277,11.879C7.321,11.879 7.386,11.888 7.436,11.915C7.473,11.935 7.503,11.965 7.514,12.006C7.534,12.075 7.514,12.131 7.498,12.162C7.53,12.182 7.579,12.229 7.585,12.326C7.59,12.418 7.537,12.478 7.499,12.509C7.533,12.534 7.577,12.583 7.572,12.676C7.57,12.735 7.536,12.792 7.478,12.838C7.398,12.903 7.269,12.948 7.118,12.953C6.931,12.959 6.787,12.909 6.729,12.884C6.726,12.893 6.723,12.902 6.718,12.911C6.703,12.938 6.678,12.962 6.637,12.962C6.607,12.962 6.581,12.95 6.561,12.933C6.54,12.916 6.524,12.894 6.516,12.881L6.321,12.882L6.309,12.898C6.309,12.892 6.309,12.887 6.309,12.882C6.308,12.87 6.308,12.832 6.308,12.832L6.53,12.831L6.53,12.856L6.53,12.881L6.553,12.845C6.553,12.845 6.553,12.845 6.553,12.846C6.557,12.853 6.571,12.877 6.592,12.894C6.604,12.904 6.619,12.912 6.637,12.912C6.656,12.912 6.667,12.9 6.674,12.887C6.683,12.871 6.685,12.854 6.686,12.848L6.686,12.846L6.711,12.874L6.723,12.826C6.723,12.827 6.724,12.827 6.727,12.829C6.755,12.842 6.906,12.91 7.117,12.903C7.255,12.899 7.373,12.858 7.447,12.799C7.492,12.763 7.52,12.72 7.522,12.674C7.527,12.574 7.459,12.541 7.445,12.536L7.451,12.537L7.439,12.49C7.439,12.49 7.44,12.489 7.441,12.488C7.458,12.479 7.54,12.428 7.535,12.329C7.53,12.232 7.468,12.201 7.455,12.196L7.463,12.197L7.443,12.156C7.451,12.146 7.486,12.091 7.466,12.02C7.458,11.992 7.437,11.973 7.412,11.959C7.369,11.936 7.314,11.929 7.277,11.929C7.202,11.929 7.022,11.954 6.929,11.987C6.844,12.017 6.747,12.061 6.728,12.07L6.715,12.074L6.703,12.071C6.698,12.068 6.671,12.057 6.638,12.061C6.626,12.062 6.616,12.07 6.606,12.078C6.588,12.092 6.575,12.111 6.572,12.116L6.571,12.117L6.55,12.129L6.274,12.121L6.258,12.115L6.23,12.093L6.268,12.093C6.268,12.093 6.268,12.093 6.268,12.091ZM6.296,12.857C6.291,12.857 6.285,12.857 6.277,12.857L6.289,12.842L6.296,12.857Z"/><path d="M6.581,12.097L6.585,12.096C6.585,12.096 6.571,12.107 6.56,12.131C6.539,12.179 6.518,12.277 6.518,12.475C6.517,12.66 6.53,12.758 6.542,12.809C6.548,12.831 6.554,12.845 6.556,12.85L6.538,12.893C6.532,12.891 6.526,12.889 6.521,12.885C6.52,12.885 6.516,12.881 6.511,12.872C6.499,12.849 6.467,12.763 6.468,12.475C6.468,12.248 6.496,12.145 6.521,12.098C6.543,12.055 6.566,12.049 6.574,12.048L6.582,12.047L6.581,12.097Z"/><path d="M6.69,12.808L6.759,12.843L6.747,12.888C6.742,12.887 6.737,12.886 6.733,12.884L6.685,12.857L6.69,12.808Z"/><path d="M6.616,12.432C6.621,12.337 6.634,12.254 6.646,12.22C6.656,12.193 6.667,12.205 6.664,12.223C6.664,12.223 6.649,12.331 6.647,12.431C6.646,12.531 6.655,12.598 6.661,12.631C6.667,12.668 6.65,12.674 6.631,12.628C6.631,12.627 6.61,12.535 6.616,12.432Z"/><path d="M7.277,12.571C7.269,12.57 7.273,12.548 7.281,12.547C7.298,12.545 7.341,12.536 7.376,12.523C7.402,12.512 7.45,12.486 7.46,12.481L7.461,12.48L7.473,12.526L7.484,12.524C7.474,12.53 7.419,12.549 7.391,12.56C7.343,12.578 7.296,12.575 7.277,12.571Z"/><path d="M7.223,12.213C7.211,12.216 7.213,12.194 7.227,12.185C7.248,12.171 7.305,12.15 7.354,12.148C7.402,12.146 7.469,12.148 7.482,12.148L7.482,12.144L7.478,12.201C7.477,12.201 7.404,12.192 7.357,12.194C7.313,12.195 7.246,12.207 7.223,12.213Z"/><path d="M5.197,11.461C5.195,11.465 5.219,11.443 5.219,11.443L5.238,11.442L5.256,11.448L5.349,11.527C5.419,11.586 5.419,11.632 5.419,11.64L5.419,11.643L5.394,11.666L5.41,11.66C5.407,11.663 5.395,11.672 5.385,11.678C5.382,11.679 5.38,11.681 5.378,11.681C5.413,11.717 5.471,11.774 5.488,11.797C5.494,11.804 5.498,11.815 5.501,11.828C5.503,11.844 5.503,11.863 5.502,11.875C5.515,11.889 5.548,11.923 5.607,11.945L5.741,11.995C5.757,11.986 5.788,11.975 5.849,11.977C5.899,11.98 5.928,11.987 5.945,11.993C5.95,11.995 5.954,11.998 5.958,12C5.989,11.982 6.061,11.949 6.148,11.958C6.223,11.966 6.259,11.995 6.276,12.022C6.296,12.053 6.294,12.083 6.293,12.094C6.293,12.096 6.292,12.098 6.292,12.098L6.268,12.118L6.214,12.118L6.203,12.115C6.201,12.114 6.188,12.108 6.18,12.109C6.167,12.109 6.159,12.116 6.144,12.133C6.123,12.158 6.094,12.202 6.043,12.276C6.007,12.327 5.986,12.412 5.973,12.499C5.954,12.624 5.953,12.754 5.953,12.805L6.105,12.822C6.189,12.832 6.286,12.832 6.305,12.832L6.308,12.832L6.309,12.882L6.334,12.857L6.333,12.863C6.333,12.898 6.334,13.086 6.351,13.309C6.369,13.556 6.412,13.79 6.441,13.929C6.464,14.039 6.584,14.285 6.631,14.389C6.641,14.411 6.648,14.427 6.65,14.435L6.652,14.446C6.652,14.459 6.642,14.482 6.622,14.507C6.582,14.554 6.505,14.613 6.43,14.613C6.245,14.613 6.177,14.476 6.157,14.417C6.126,14.426 6.073,14.433 6.018,14.408C6.001,14.4 5.975,14.384 5.954,14.371C5.952,14.429 5.946,14.53 5.923,14.589C5.905,14.635 5.876,14.657 5.842,14.647C5.803,14.637 5.78,14.604 5.768,14.565C5.761,14.542 5.757,14.518 5.756,14.496C5.754,14.498 5.752,14.499 5.75,14.5C5.729,14.513 5.704,14.52 5.678,14.513C5.644,14.504 5.623,14.477 5.611,14.445C5.602,14.42 5.598,14.393 5.597,14.372C5.557,14.38 5.484,14.391 5.423,14.374C5.362,14.357 5.312,14.304 5.285,14.271C5.263,14.293 5.224,14.32 5.164,14.314C5.141,14.311 5.124,14.297 5.112,14.279C5.104,14.267 5.099,14.254 5.096,14.243C5.07,14.246 5.026,14.249 4.99,14.242C4.944,14.233 4.901,14.204 4.885,14.192L4.878,14.199L4.849,14.124C4.845,14.12 4.858,14.094 4.871,14.112L4.91,14.149C4.911,14.15 4.914,14.152 4.916,14.154L4.92,14.15L4.92,14.156C4.936,14.167 4.967,14.187 4.999,14.193C5.042,14.202 5.098,14.193 5.109,14.191L5.11,14.191L5.115,14.241L5.116,14.24L5.14,14.213C5.141,14.217 5.143,14.232 5.15,14.245C5.154,14.253 5.159,14.263 5.17,14.264C5.229,14.27 5.258,14.226 5.263,14.218L5.286,14.253L5.307,14.215C5.307,14.216 5.307,14.216 5.308,14.218C5.318,14.232 5.368,14.307 5.436,14.326C5.507,14.345 5.595,14.322 5.612,14.317C5.613,14.317 5.614,14.316 5.614,14.316L5.622,14.366L5.647,14.342C5.647,14.342 5.647,14.343 5.646,14.345C5.646,14.356 5.646,14.395 5.658,14.428C5.664,14.444 5.674,14.46 5.691,14.465C5.707,14.469 5.721,14.461 5.732,14.452C5.746,14.441 5.756,14.426 5.759,14.422L5.781,14.459L5.806,14.437C5.806,14.437 5.806,14.438 5.805,14.441C5.804,14.456 5.802,14.507 5.815,14.55C5.822,14.572 5.833,14.593 5.855,14.599C5.86,14.6 5.863,14.596 5.866,14.592C5.871,14.584 5.876,14.574 5.88,14.562C5.904,14.486 5.904,14.356 5.904,14.331L5.904,14.326L5.929,14.351L5.943,14.305L5.945,14.306C5.956,14.313 6.011,14.349 6.039,14.362C6.096,14.389 6.152,14.367 6.162,14.363L6.174,14.41L6.198,14.38C6.198,14.381 6.199,14.382 6.199,14.385C6.207,14.415 6.255,14.563 6.43,14.563C6.49,14.563 6.551,14.513 6.583,14.475C6.592,14.465 6.599,14.452 6.601,14.447C6.599,14.441 6.592,14.426 6.585,14.409C6.537,14.304 6.415,14.052 6.392,13.939C6.363,13.799 6.319,13.562 6.301,13.312C6.286,13.114 6.284,12.944 6.284,12.882C6.245,12.882 6.17,12.88 6.102,12.872L6.099,12.872L5.928,12.852L5.903,12.827C5.903,12.827 5.903,12.822 5.903,12.815C5.903,12.774 5.903,12.629 5.924,12.491C5.938,12.396 5.962,12.304 6.002,12.247C6.066,12.155 6.097,12.109 6.119,12.086C6.14,12.066 6.156,12.06 6.177,12.059C6.19,12.058 6.209,12.064 6.219,12.068L6.242,12.068C6.24,12.059 6.236,12.049 6.226,12.04C6.212,12.024 6.186,12.012 6.143,12.008C6.054,11.999 5.984,12.042 5.971,12.051L5.955,12.056L5.93,12.036C5.93,12.037 5.934,12.044 5.934,12.044C5.934,12.044 5.926,12.039 5.916,12.037C5.902,12.032 5.88,12.029 5.846,12.027C5.799,12.025 5.773,12.035 5.766,12.038C5.765,12.038 5.765,12.038 5.764,12.039L5.745,12.048L5.733,12.045L5.59,11.992C5.505,11.96 5.465,11.909 5.457,11.899C5.456,11.897 5.456,11.896 5.456,11.896L5.476,11.907L5.452,11.879C5.452,11.874 5.453,11.858 5.452,11.843C5.452,11.837 5.452,11.831 5.449,11.828C5.426,11.799 5.335,11.709 5.317,11.691L5.314,11.688L5.331,11.695L5.321,11.647C5.325,11.646 5.345,11.637 5.358,11.636L5.366,11.63C5.362,11.617 5.349,11.592 5.317,11.565L5.232,11.492L5.227,11.514C5.223,11.516 5.204,11.507 5.201,11.508C5.195,11.511 5.181,11.517 5.166,11.527C5.149,11.538 5.114,11.566 5.108,11.571L5.091,11.578L5.078,11.575C5.074,11.572 5.051,11.56 5.031,11.565C5.023,11.567 5.011,11.575 4.996,11.586C4.954,11.619 4.893,11.682 4.844,11.761C4.802,11.827 4.762,11.996 4.757,12.016C4.757,12.017 4.757,12.018 4.756,12.019L4.747,12.046L4.7,12.082L4.689,12.066L4.708,12.005C4.713,11.984 4.757,11.805 4.801,11.734C4.854,11.65 4.92,11.582 4.966,11.547C4.989,11.529 5.008,11.519 5.019,11.516C5.044,11.51 5.07,11.518 5.087,11.524C5.101,11.513 5.124,11.494 5.138,11.485C5.154,11.474 5.188,11.456 5.195,11.453L5.197,11.461Z"/><path d="M5.062,11.555C5.062,11.555 5.12,11.549 5.123,11.559L5.094,11.594C5.094,11.594 5.092,11.596 5.089,11.598C5.073,11.612 5.01,11.655 4.96,11.729C4.947,11.749 4.897,11.837 4.877,11.973C4.832,12.29 4.813,12.82 4.814,13.02L4.837,13.935C4.837,13.949 4.809,13.959 4.795,13.959C4.782,13.959 4.767,13.947 4.767,13.934L4.764,13.021C4.762,12.728 4.778,12.199 4.824,11.942C4.844,11.831 4.878,11.765 4.924,11.696C4.978,11.617 5.039,11.575 5.056,11.56C5.06,11.557 5.062,11.555 5.062,11.555Z"/><path d="M5.097,12.081C5.093,12.089 5.08,12.086 5.078,12.035C5.077,12 5.082,11.896 5.092,11.861C5.109,11.8 5.112,11.763 5.165,11.708C5.253,11.618 5.335,11.648 5.351,11.65C5.353,11.65 5.355,11.651 5.355,11.651L5.35,11.7C5.349,11.7 5.346,11.705 5.342,11.703C5.32,11.693 5.266,11.705 5.213,11.754C5.182,11.783 5.158,11.823 5.143,11.875C5.12,11.957 5.11,12.048 5.097,12.081Z"/><path d="M5.065,12.787C5.066,12.709 5.07,12.611 5.067,12.531C5.063,12.44 5.052,12.369 5.059,12.326C5.063,12.301 5.081,12.28 5.082,12.29C5.086,12.33 5.085,12.414 5.09,12.506C5.094,12.6 5.104,12.704 5.103,12.789C5.103,12.789 5.101,13.219 5.103,13.299C5.105,13.357 5.069,13.281 5.067,13.265C5.061,13.18 5.065,12.787 5.065,12.787Z"/><path d="M5.073,13.971C5.072,13.901 5.086,13.726 5.086,13.725C5.089,13.668 5.098,13.675 5.107,13.731C5.113,13.77 5.118,13.905 5.12,13.974C5.121,14.046 5.139,14.191 5.141,14.219C5.141,14.219 5.085,14.241 5.084,14.228C5.084,14.228 5.084,14.224 5.084,14.223C5.082,14.195 5.075,14.044 5.073,13.971Z"/><path d="M5.24,14.108C5.237,14.081 5.236,14.031 5.24,13.995C5.245,13.95 5.252,13.942 5.261,13.98C5.266,13.996 5.277,14.056 5.282,14.1C5.287,14.145 5.309,14.227 5.313,14.243L5.314,14.246C5.314,14.246 5.274,14.264 5.271,14.254C5.271,14.253 5.245,14.153 5.24,14.108Z"/><path d="M5.386,13.874C5.386,13.812 5.388,13.603 5.391,13.533C5.395,13.436 5.424,13.478 5.424,13.534C5.425,13.603 5.426,13.84 5.426,13.906C5.427,13.957 5.387,13.939 5.386,13.874Z"/><path d="M5.588,14.127C5.59,14.109 5.638,14.117 5.638,14.131C5.639,14.172 5.646,14.345 5.646,14.345L5.619,14.372C5.605,14.372 5.586,14.356 5.586,14.342C5.586,14.342 5.585,14.166 5.588,14.127Z"/><path d="M5.586,13.639C5.586,13.565 5.597,13.587 5.61,13.638C5.628,13.706 5.625,13.965 5.622,14.031C5.619,14.093 5.594,14.055 5.59,14.004C5.59,14.004 5.587,13.712 5.586,13.639Z"/><path d="M5.732,13.595C5.734,13.578 5.783,13.55 5.782,13.567C5.779,13.638 5.784,13.886 5.787,14.013C5.79,14.144 5.801,14.404 5.805,14.455L5.805,14.463L5.78,14.49C5.767,14.49 5.756,14.48 5.755,14.467L5.755,14.458C5.751,14.407 5.745,14.152 5.742,14.02C5.739,13.893 5.723,13.665 5.732,13.595Z"/><path d="M5.767,13.48C5.762,13.501 5.753,13.536 5.746,13.483C5.743,13.456 5.725,13.429 5.73,13.353C5.731,13.341 5.735,13.322 5.738,13.301C5.745,13.256 5.754,13.207 5.759,13.225C5.759,13.225 5.782,13.321 5.784,13.364C5.787,13.424 5.776,13.446 5.767,13.48Z"/><path d="M5.906,12.801C5.906,12.787 5.917,12.776 5.931,12.826L5.956,12.803C5.956,12.803 5.955,12.808 5.955,12.816C5.951,12.895 5.933,13.308 5.952,13.616C5.965,13.839 5.958,14.263 5.956,14.346L5.956,14.36L5.931,14.384C5.917,14.384 5.906,14.373 5.906,14.359L5.906,14.345C5.908,14.263 5.915,13.841 5.902,13.619C5.883,13.309 5.901,12.893 5.905,12.814C5.906,12.806 5.906,12.801 5.906,12.801Z"/><path d="M6.089,14.047C6.1,13.985 6.129,13.994 6.128,14.039C6.128,14.07 6.14,14.133 6.158,14.196C6.177,14.266 6.201,14.381 6.205,14.403L6.206,14.407L6.181,14.437C6.169,14.437 6.159,14.428 6.157,14.417C6.157,14.415 6.156,14.414 6.156,14.412C6.152,14.39 6.131,14.294 6.112,14.225C6.093,14.157 6.089,14.048 6.089,14.047Z"/><path d="M5.482,11.91C5.478,11.91 5.474,11.909 5.47,11.907C5.466,11.905 5.451,11.9 5.432,11.907C5.416,11.913 5.399,11.927 5.382,11.953C5.36,11.986 5.346,12.055 5.336,12.134C5.314,12.309 5.301,12.509 5.302,12.553C5.302,12.553 5.302,12.611 5.288,12.612C5.288,12.612 5.283,12.517 5.285,12.436C5.286,12.385 5.291,12.325 5.292,12.263C5.293,12.215 5.288,12.165 5.294,12.122C5.305,12.033 5.316,11.963 5.34,11.926C5.372,11.877 5.406,11.86 5.432,11.855C5.462,11.849 5.484,11.859 5.491,11.862C5.493,11.863 5.495,11.864 5.495,11.864L5.482,11.91Z"/><path d="M5.38,12.452C5.388,12.366 5.399,12.28 5.416,12.232C5.43,12.191 5.451,12.181 5.451,12.181C5.451,12.181 5.436,12.24 5.427,12.34C5.424,12.372 5.429,12.418 5.426,12.455C5.412,12.607 5.401,12.868 5.401,12.868C5.387,12.868 5.387,12.794 5.386,12.721C5.384,12.641 5.372,12.539 5.38,12.452Z"/><path d="M5.739,12.013C5.743,12.021 5.747,12.032 5.752,12.046L5.769,12.039C5.769,12.039 5.768,12.04 5.767,12.041C5.747,12.061 5.651,12.179 5.612,12.444C5.599,12.53 5.577,12.589 5.573,12.699C5.567,12.867 5.577,13.118 5.558,13.142C5.547,13.154 5.533,13.012 5.532,12.878C5.53,12.724 5.547,12.578 5.564,12.46C5.576,12.376 5.607,12.266 5.627,12.209C5.673,12.077 5.716,12.022 5.73,12.007C5.733,12.004 5.735,12.002 5.735,12.002L5.739,12.013Z"/><path d="M5.941,12.032C5.944,12.04 5.948,12.049 5.951,12.061L5.967,12.055C5.961,12.061 5.927,12.094 5.897,12.154C5.861,12.225 5.83,12.332 5.815,12.448C5.803,12.546 5.779,12.659 5.775,12.763C5.771,12.891 5.77,12.988 5.765,13.034C5.762,13.072 5.736,13.02 5.735,13.008C5.734,13.007 5.72,12.894 5.725,12.762C5.729,12.656 5.763,12.548 5.776,12.448C5.792,12.326 5.815,12.206 5.852,12.131C5.887,12.062 5.926,12.025 5.933,12.019C5.934,12.018 5.935,12.017 5.935,12.017L5.941,12.032Z"/><path d="M9.173,15.498L9.116,12.63C9.116,12.62 9.118,12.61 9.122,12.601C9.122,12.601 9.396,12.031 10.043,11.25C10.547,10.641 11.183,9.952 11.678,9.505C11.995,9.218 12.309,8.92 12.609,8.721C12.818,8.582 13.021,8.491 13.213,8.478C13.205,8.515 13.195,8.557 13.186,8.606C13.024,8.626 12.854,8.708 12.678,8.825C12.383,9.021 12.074,9.315 11.762,9.598C11.271,10.041 10.639,10.726 10.139,11.329C9.561,12.028 9.286,12.554 9.241,12.643L9.298,15.494C9.256,15.496 9.214,15.497 9.173,15.498Z" style="fill:rgb(244,118,55);"/><path d="M8.688,15.494L8.688,15.474C8.688,15.474 8.696,14.511 8.71,14.05C8.728,13.445 8.73,12.737 8.73,12.619L8.729,12.618C8.675,12.526 8.386,12.044 7.904,11.421C7.549,10.962 7.096,10.492 6.586,9.945C6.268,9.605 5.958,9.341 5.699,9.136C5.289,8.813 5.014,8.632 4.802,8.61C4.798,8.589 4.793,8.567 4.788,8.546C4.783,8.524 4.777,8.503 4.773,8.483L4.791,8.484C5.021,8.498 5.325,8.682 5.776,9.038C6.04,9.247 6.354,9.514 6.677,9.86C7.191,10.41 7.645,10.883 8.002,11.344C8.546,12.046 8.847,12.572 8.847,12.572C8.852,12.581 8.855,12.592 8.855,12.603C8.855,12.603 8.854,13.39 8.835,14.053C8.821,14.514 8.813,15.475 8.813,15.475L8.813,15.498C8.771,15.497 8.729,15.495 8.688,15.494Z" style="fill:rgb(244,118,55);"/><path d="M12.022,8.939C12.19,8.791 12.338,8.672 12.469,8.577C12.951,8.227 13.151,8.209 13.151,8.209L13.14,8.197L13.14,8.183C13.141,8.101 13.144,7.663 13.125,7.169C13.103,6.619 13.067,6.381 13.073,5.841C13.079,5.301 13.083,4.609 13.114,4.004C13.137,3.57 13.095,3.093 12.988,2.777C12.953,2.676 12.912,2.591 12.863,2.531C12.819,2.477 12.77,2.444 12.713,2.441C12.639,2.437 12.539,2.482 12.429,2.553C12.256,2.665 12.064,2.843 11.917,3.023C11.668,3.328 11.529,3.647 11.503,3.708C11.501,3.714 11.5,3.717 11.499,3.718L11.466,3.74C11.46,3.74 11.453,3.739 11.448,3.735C11.448,3.735 10.686,3.256 9,3.268C7.891,3.276 7.399,3.394 7.042,3.527C6.828,3.607 6.581,3.714 6.533,3.734L6.526,3.738L6.511,3.741L6.478,3.718C6.478,3.717 6.477,3.714 6.474,3.707C6.446,3.641 6.293,3.29 5.983,2.939C5.777,2.707 5.593,2.558 5.451,2.487C5.366,2.444 5.299,2.429 5.254,2.447C5.194,2.47 5.1,2.542 5.021,2.726C4.937,2.921 4.872,3.235 4.879,3.739C4.892,4.771 4.906,5.027 4.904,5.715C4.902,6.403 4.858,7.41 4.851,7.66L4.837,8.193L4.819,8.21C4.819,8.21 5.252,8.267 6.225,9.155C6.225,9.155 6.989,9.377 7.076,9.382C7.13,9.385 7.204,9.384 7.301,9.395C7.698,9.441 8.408,9.546 9,9.53C9.592,9.513 10.129,9.436 10.576,9.343C10.884,9.28 11.177,9.203 11.385,9.13C11.665,9.031 11.936,8.944 11.936,8.944L12.022,8.939Z" style="fill:rgb(135,142,136);"/><path d="M6.225,9.155C6.225,9.155 6.989,9.377 7.076,9.382C7.13,9.385 7.204,9.384 7.301,9.395C7.698,9.441 8.408,9.546 9,9.53C9.592,9.513 10.129,9.436 10.576,9.343C10.884,9.28 11.177,9.203 11.385,9.13C11.665,9.031 11.936,8.944 11.936,8.944L12.022,8.939C11.719,9.204 11.35,9.562 10.889,10.041C9.699,11.275 9,12.533 9,12.533C9,12.533 8.217,11.262 7.151,10.091C6.8,9.706 6.492,9.399 6.225,9.155Z" style="fill:rgb(245,230,232);"/><path d="M8.813,12.228C8.813,12.228 8.795,11.907 8.788,11.556C8.783,11.235 8.789,10.89 8.787,10.75C8.785,10.658 8.782,10.468 8.782,10.468" style="fill:none;stroke:black;stroke-width:0.05px;"/><path d="M9.279,10.405C9.269,10.648 9.249,11.136 9.25,11.414C9.251,11.633 9.274,11.925 9.286,12.071" style="fill:none;stroke:black;stroke-width:0.05px;"/><path d="M4.819,8.21C4.819,8.21 5.456,8.282 7.069,10.005C7.393,10.351 7.877,10.918 8.264,11.443C8.69,12.023 9,12.533 9,12.533" style="fill:none;stroke:black;stroke-width:0.07px;"/><path d="M9,12.533C9,12.533 9.332,11.951 9.8,11.316C10.172,10.813 10.652,10.28 10.957,9.957C12.468,8.351 13.181,8.202 13.181,8.202" style="fill:none;stroke:black;stroke-width:0.07px;"/><path d="M6.224,9.146C6.224,9.146 6.541,9.248 6.74,9.313C6.828,9.341 6.962,9.382 7.055,9.388C7.179,9.396 7.299,9.403 7.299,9.403L8.846,9.645L10.572,9.361C10.572,9.361 10.89,9.301 11.193,9.202C11.496,9.102 12.06,8.898 12.06,8.898" style="fill:none;stroke:black;stroke-width:0.05px;"/><path d="M13.07,9.362C12.988,9.401 12.485,9.671 12.463,10.493C12.452,10.882 12.539,11.178 12.666,11.352C12.831,11.579 13.05,11.62 13.05,11.62L13.132,12.984C13.179,12.915 13.339,12.667 13.474,12.284C13.609,11.902 13.727,11.356 13.733,10.772C13.737,10.319 13.436,9.737 13.244,9.537C13.153,9.441 13.079,9.401 13.064,9.395L13.077,9.397L13.07,9.362Z" style="fill:white;"/><path d="M13.168,13.015L13.101,13.019L13.099,12.986C13.099,12.986 13.018,11.647 13.018,11.647C12.961,11.633 12.836,11.589 12.716,11.464C12.56,11.303 12.408,11.004 12.433,10.45C12.473,9.542 13.093,9.334 13.093,9.334L13.124,9.323L13.146,9.386L13.114,9.397C13.114,9.397 12.537,9.597 12.499,10.453C12.481,10.875 12.567,11.143 12.679,11.311C12.825,11.532 13.013,11.579 13.049,11.586C13.052,11.587 13.054,11.587 13.054,11.587L13.05,11.653L13.083,11.618L13.168,13.015Z"/><path d="M13.079,11.623L13.036,11.619C13.036,11.619 13.021,10.971 13.025,10.764C13.034,10.405 13.065,10.479 13.072,10.551C13.09,10.742 13.079,11.623 13.079,11.623Z"/><path d="M8.609,9.526C8.609,9.526 8.459,9.2 7.855,8.947C7.251,8.694 7.106,8.744 7.088,8.841C7.07,8.939 7.063,8.973 7.13,9.061C7.196,9.148 7.295,9.36 7.304,9.426C7.313,9.492 7.281,9.558 7.25,9.648C7.219,9.737 7.194,9.827 7.193,9.995C7.193,10.163 7.127,10.221 7.077,10.334C7.026,10.448 6.933,10.594 7.049,10.706C7.165,10.818 7.429,10.728 7.62,10.64C7.811,10.553 8.03,10.387 8.03,10.387C8.03,10.387 8.177,10.432 8.286,10.42C8.395,10.409 8.574,10.346 8.574,10.346C8.574,10.346 8.649,10.433 8.755,10.451C8.861,10.47 9.243,10.426 9.282,10.395C9.321,10.364 9.309,10.251 9.309,10.251C9.309,10.251 9.418,10.299 9.551,10.307C9.684,10.315 9.841,10.276 9.841,10.276C9.841,10.276 10.219,10.588 10.53,10.622C10.842,10.657 10.878,10.537 10.861,10.423C10.844,10.309 10.759,10.194 10.74,10.136C10.721,10.077 10.672,10.01 10.672,10.01C10.672,10.01 10.677,9.938 10.656,9.742C10.635,9.546 10.564,9.544 10.559,9.362C10.555,9.209 10.672,9.035 10.705,8.979C10.739,8.923 10.773,8.88 10.785,8.846C10.816,8.762 10.791,8.674 10.643,8.659C10.529,8.649 10.141,8.745 9.847,8.899C9.59,9.034 9.412,9.21 9.323,9.323C9.311,9.339 9.287,9.389 9.287,9.389C9.287,9.389 9.251,9.379 9.225,9.372C9.167,9.357 9.087,9.327 9.013,9.339C8.737,9.381 8.71,9.393 8.667,9.444C8.64,9.476 8.609,9.526 8.609,9.526Z" style="fill:rgb(18,44,52);stroke:black;stroke-width:0.07px;"/><path d="M10.61,10.187C10.584,10.201 10.577,10.179 10.595,10.152C10.606,10.135 10.607,10.123 10.611,10.113C10.621,10.088 10.644,9.999 10.644,9.998C10.644,9.997 10.696,10.034 10.696,10.034C10.696,10.034 10.674,10.106 10.663,10.135C10.65,10.168 10.626,10.179 10.61,10.187Z"/><path d="M9.779,10.292C9.779,10.292 9.672,10.184 9.645,10.151C9.62,10.122 9.622,10.097 9.64,10.107C9.661,10.118 9.784,10.195 9.853,10.242C9.882,10.261 9.9,10.279 9.9,10.279C9.9,10.279 9.783,10.294 9.779,10.292Z"/><path d="M9.267,9.389C9.266,9.388 9.266,9.386 9.266,9.385C9.266,9.369 9.279,9.355 9.295,9.414L9.324,9.38C9.324,9.38 9.324,9.381 9.325,9.382C9.325,9.39 9.329,9.43 9.315,9.507C9.297,9.603 9.262,9.736 9.264,9.898C9.269,10.156 9.325,10.263 9.336,10.281C9.337,10.282 9.337,10.283 9.337,10.283L9.313,10.329C9.304,10.327 9.296,10.322 9.289,10.316C9.289,10.315 9.288,10.314 9.287,10.312C9.274,10.292 9.211,10.178 9.206,9.899C9.203,9.732 9.239,9.595 9.258,9.496C9.27,9.43 9.267,9.389 9.267,9.389Z"/><path d="M9.26,9.734L9.24,9.674C9.26,9.659 9.374,9.575 9.47,9.535C9.58,9.49 9.651,9.482 9.726,9.479C9.743,9.478 9.75,9.502 9.7,9.511C9.656,9.52 9.601,9.542 9.486,9.589C9.395,9.627 9.279,9.72 9.26,9.734Z"/><path d="M9.252,9.914L9.231,9.869C9.252,9.859 9.36,9.811 9.426,9.804C9.426,9.804 9.58,9.78 9.682,9.783C9.721,9.784 9.694,9.807 9.668,9.811C9.62,9.816 9.5,9.845 9.432,9.853C9.371,9.86 9.271,9.905 9.252,9.914Z"/><path d="M9.237,9.966C9.237,9.966 9.25,9.92 9.252,9.921C9.274,9.931 9.385,9.986 9.484,9.998C9.58,10.008 9.651,9.989 9.682,9.984C9.691,9.983 9.704,9.998 9.685,10.007C9.659,10.019 9.576,10.062 9.469,10.05C9.364,10.038 9.237,9.966 9.237,9.966Z"/><path d="M8.001,10.387C8.001,10.377 8.011,10.365 8.011,10.365C8.019,10.357 8.062,10.319 8.091,10.3C8.116,10.283 8.174,10.256 8.199,10.249C8.199,10.249 8.299,10.224 8.205,10.275C8.185,10.285 8.148,10.314 8.121,10.337C8.098,10.358 8.06,10.399 8.052,10.406C8.052,10.406 8.001,10.403 8.001,10.387Z"/><path d="M7.199,10.246C7.192,10.235 7.16,10.156 7.16,10.156L7.197,9.993C7.197,9.993 7.232,10.158 7.257,10.233C7.287,10.324 7.326,10.356 7.291,10.336C7.278,10.328 7.218,10.279 7.199,10.246Z"/><path d="M8.582,9.515C8.584,9.512 8.585,9.509 8.585,9.509L8.586,9.512C8.591,9.512 8.6,9.522 8.609,9.555L8.633,9.542C8.633,9.542 8.632,9.543 8.631,9.545C8.619,9.565 8.558,9.677 8.561,9.894C8.565,10.177 8.595,10.311 8.602,10.335C8.602,10.337 8.602,10.338 8.602,10.338L8.574,10.375C8.561,10.375 8.55,10.366 8.546,10.354C8.546,10.353 8.545,10.347 8.545,10.346C8.537,10.315 8.507,10.176 8.503,9.895C8.5,9.661 8.567,9.539 8.582,9.515Z"/><path d="M8.342,9.959C8.285,9.969 8.139,9.995 8.075,9.988C8.045,9.985 8.068,9.967 8.115,9.957C8.16,9.949 8.349,9.912 8.349,9.912C8.421,9.899 8.494,9.876 8.511,9.872L8.515,9.92C8.492,9.926 8.342,9.959 8.342,9.959Z"/><path d="M8.536,10.033C8.536,10.033 8.417,10.148 8.371,10.184C8.348,10.202 8.326,10.186 8.371,10.142C8.403,10.111 8.512,9.971 8.512,9.971L8.536,10.033Z"/><path d="M8.355,9.689C8.282,9.661 8.198,9.633 8.156,9.627C8.115,9.622 8.082,9.594 8.171,9.59C8.225,9.587 8.331,9.619 8.39,9.642C8.488,9.679 8.545,9.73 8.555,9.74C8.556,9.741 8.557,9.742 8.557,9.742C8.557,9.742 8.521,9.787 8.515,9.783C8.506,9.774 8.442,9.722 8.355,9.689Z"/><path d="M4.854,14.25C4.843,14.242 4.831,14.234 4.82,14.227L4.823,14.163C4.808,14.149 4.786,14.121 4.778,14.076C4.774,14.055 4.771,14.026 4.769,13.998C4.759,14.01 4.747,14.021 4.736,14.03C4.714,14.049 4.691,14.06 4.675,14.061L4.666,14.06L4.658,14.058L4.645,14.05L4.639,14.044L4.633,14.035C4.63,14.03 4.627,14.023 4.625,14.014C4.61,13.959 4.607,13.801 4.597,13.617C4.584,13.39 4.603,12.85 4.614,12.567C4.626,12.285 4.66,12.11 4.673,12.052C4.672,12.051 4.67,12.05 4.669,12.048C4.62,12.001 4.479,11.842 4.325,11.413C4.108,10.811 4.159,10.349 4.26,9.991C4.349,9.676 4.61,9.368 4.674,9.296C4.67,9.284 4.666,9.269 4.665,9.26C4.662,9.24 4.672,9.194 4.707,9.158C4.713,9.152 4.718,9.139 4.725,9.12C4.745,9.062 4.764,8.963 4.764,8.843C4.763,8.738 4.731,8.614 4.705,8.506C4.687,8.429 4.673,8.36 4.673,8.31C4.672,8.255 4.689,8.22 4.709,8.198C4.727,8.178 4.749,8.167 4.767,8.162L4.781,7.658C4.787,7.408 4.831,6.402 4.834,5.715C4.836,5.027 4.821,4.771 4.808,3.74C4.801,3.221 4.87,2.898 4.956,2.698C5.047,2.487 5.159,2.407 5.228,2.381C5.286,2.358 5.374,2.369 5.483,2.423C5.63,2.497 5.822,2.651 6.036,2.892C6.328,3.223 6.485,3.554 6.53,3.658C6.611,3.623 6.827,3.531 7.017,3.461C7.379,3.326 7.877,3.205 9,3.197C10.5,3.187 11.279,3.561 11.449,3.654C11.494,3.553 11.633,3.26 11.862,2.979C12.013,2.793 12.212,2.609 12.391,2.493C12.516,2.413 12.632,2.366 12.717,2.371C12.826,2.376 12.92,2.461 12.993,2.605C13.148,2.911 13.212,3.489 13.185,4.007C13.154,4.612 13.15,5.303 13.143,5.842C13.137,6.38 13.174,6.617 13.196,7.166C13.214,7.629 13.212,8.042 13.211,8.162C13.226,8.165 13.244,8.17 13.26,8.181C13.284,8.197 13.306,8.224 13.315,8.271C13.324,8.315 13.315,8.363 13.298,8.431C13.275,8.523 13.239,8.656 13.225,8.884C13.214,9.082 13.282,9.163 13.309,9.208C13.321,9.228 13.326,9.244 13.325,9.258C13.324,9.275 13.316,9.291 13.301,9.306C13.278,9.329 13.237,9.347 13.202,9.353C13.19,9.355 13.173,9.361 13.156,9.367C13.192,9.392 13.241,9.431 13.296,9.488C13.495,9.697 13.807,10.301 13.803,10.773C13.798,11.365 13.678,11.92 13.541,12.308C13.395,12.721 13.22,12.982 13.183,13.034L13.242,14.184C13.231,14.192 13.219,14.2 13.208,14.208C13.197,14.215 13.185,14.223 13.174,14.231L13.112,13.026C13.113,13.044 13.129,13.059 13.147,13.059L13.119,13.003C13.119,13.003 13.121,13 13.124,12.995C13.157,12.949 13.329,12.693 13.474,12.284C13.609,11.902 13.727,11.356 13.733,10.772C13.737,10.319 13.436,9.737 13.244,9.537C13.153,9.441 13.079,9.401 13.064,9.395L13.077,9.397L13.063,9.329L13.065,9.328C13.079,9.322 13.152,9.29 13.19,9.283C13.206,9.281 13.224,9.274 13.239,9.265C13.244,9.262 13.25,9.256 13.253,9.253C13.25,9.248 13.243,9.235 13.236,9.225C13.202,9.171 13.143,9.076 13.155,8.88C13.168,8.646 13.206,8.508 13.229,8.414C13.243,8.359 13.253,8.321 13.246,8.285C13.241,8.26 13.23,8.245 13.218,8.238C13.197,8.227 13.175,8.233 13.175,8.233L13.14,8.197L13.14,8.183C13.141,8.101 13.144,7.663 13.125,7.169C13.103,6.619 13.067,6.381 13.073,5.841C13.079,5.301 13.083,4.609 13.114,4.004C13.137,3.57 13.095,3.093 12.988,2.777C12.953,2.676 12.912,2.591 12.863,2.531C12.819,2.477 12.77,2.444 12.713,2.441C12.639,2.437 12.539,2.482 12.429,2.553C12.256,2.665 12.064,2.843 11.917,3.023C11.668,3.328 11.529,3.647 11.503,3.708C11.501,3.714 11.5,3.717 11.499,3.718L11.466,3.74C11.46,3.74 11.453,3.739 11.448,3.735C11.448,3.735 10.686,3.256 9,3.268C7.891,3.276 7.399,3.394 7.042,3.527C6.828,3.607 6.581,3.714 6.533,3.734L6.526,3.738L6.511,3.741L6.478,3.718C6.478,3.717 6.477,3.714 6.474,3.707C6.446,3.641 6.293,3.29 5.983,2.939C5.777,2.707 5.593,2.558 5.451,2.487C5.366,2.444 5.299,2.429 5.254,2.447C5.194,2.47 5.1,2.542 5.021,2.726C4.937,2.921 4.872,3.235 4.879,3.739C4.892,4.771 4.906,5.027 4.904,5.715C4.902,6.403 4.858,7.41 4.851,7.66L4.837,8.193L4.801,8.228C4.801,8.228 4.781,8.227 4.765,8.242C4.752,8.254 4.743,8.275 4.743,8.31C4.744,8.368 4.766,8.454 4.788,8.546C4.811,8.644 4.834,8.75 4.834,8.842C4.835,8.973 4.814,9.081 4.792,9.143C4.78,9.176 4.768,9.197 4.758,9.207C4.747,9.218 4.74,9.231 4.737,9.242C4.736,9.245 4.735,9.251 4.735,9.251C4.736,9.262 4.746,9.286 4.748,9.291L4.715,9.34L4.741,9.329C4.741,9.329 4.737,9.332 4.732,9.338C4.68,9.396 4.416,9.699 4.328,10.01C4.23,10.357 4.181,10.805 4.391,11.389C4.557,11.848 4.702,11.985 4.73,12.008C4.731,12.009 4.732,12.01 4.733,12.01L4.712,12.074L4.747,12.048C4.747,12.048 4.746,12.05 4.745,12.053C4.737,12.085 4.698,12.262 4.685,12.569C4.674,12.851 4.655,13.388 4.668,13.613C4.675,13.755 4.679,13.88 4.687,13.954C4.688,13.962 4.689,13.969 4.69,13.976C4.695,13.972 4.7,13.968 4.704,13.963C4.733,13.935 4.762,13.898 4.77,13.888L4.772,13.885L4.801,13.941L4.836,13.905L4.836,13.908C4.836,13.925 4.839,14.016 4.848,14.064C4.854,14.098 4.873,14.113 4.878,14.116L4.86,14.182L4.895,14.149L4.889,14.272C4.877,14.265 4.866,14.257 4.854,14.25ZM13.149,13.059C13.158,13.059 13.167,13.055 13.173,13.048C13.174,13.047 13.175,13.046 13.176,13.045L13.149,13.059Z"/><path d="M6.104,3.856C6.104,3.856 5.86,3.969 5.721,4.057C5.515,4.187 5.328,4.369 5.328,4.369C5.328,4.369 5.27,4.318 5.218,4.169C5.178,4.056 5.144,3.879 5.128,3.672C5.103,3.367 5.227,3.033 5.418,3.032C5.792,3.03 6.104,3.856 6.104,3.856Z" style="fill:rgb(142,85,114);"/><g transform="matrix(-1,0,0,1,17.9807,-4.44089e-16)"><path d="M6.104,3.856C6.104,3.856 5.86,3.969 5.721,4.057C5.515,4.187 5.328,4.369 5.328,4.369C5.328,4.369 5.27,4.318 5.218,4.169C5.178,4.056 5.144,3.879 5.128,3.672C5.103,3.367 5.227,3.033 5.418,3.032C5.792,3.03 6.104,3.856 6.104,3.856Z" style="fill:rgb(142,85,114);"/></g><path d="M5.661,6.035C5.64,6.098 5.607,6.108 5.607,6.089C5.607,5.948 5.661,5.801 5.8,5.597C5.956,5.368 6.216,5.137 6.6,5.152C7.297,5.18 7.444,5.644 7.444,5.644C7.45,5.663 7.447,5.722 7.42,5.679C7.359,5.581 7.276,5.446 7.006,5.325C6.896,5.275 6.763,5.232 6.598,5.227C6.273,5.216 6.01,5.426 5.865,5.638C5.732,5.832 5.673,5.999 5.661,6.035Z"/><g transform="matrix(-1.00125,0,0,1,17.9536,0)"><path d="M5.658,6.032C5.637,6.095 5.611,6.112 5.611,6.093C5.611,5.952 5.662,5.798 5.801,5.594C5.958,5.365 6.216,5.136 6.6,5.151C7.297,5.179 7.444,5.644 7.444,5.644C7.45,5.663 7.447,5.722 7.42,5.679C7.359,5.581 7.275,5.446 7.005,5.325C6.895,5.276 6.764,5.228 6.598,5.224C6.286,5.215 5.993,5.456 5.88,5.62C5.746,5.814 5.671,5.996 5.658,6.032Z"/></g><path d="M9,6.813C9.305,6.792 9.411,6.489 9.425,6.399C9.44,6.309 9.324,6.203 9.216,6.2C9.069,6.194 9.069,6.306 8.945,6.301C8.842,6.298 8.769,6.193 8.675,6.223C8.6,6.246 8.55,6.32 8.551,6.422C8.552,6.524 8.661,6.837 9,6.813Z" style="fill:rgb(18,44,52);stroke:black;stroke-width:0.07px;"/><path d="M8.276,7.061C8.233,7.001 8.247,6.981 8.302,7.033C8.341,7.07 8.417,7.183 8.654,7.186C8.743,7.187 8.807,7.14 8.853,7.081C8.927,6.984 8.956,6.856 8.963,6.818C8.964,6.816 8.964,6.814 8.964,6.813C8.965,6.81 9.034,6.824 9.033,6.831C9.025,6.873 8.992,7.017 8.909,7.124C8.851,7.2 8.768,7.258 8.653,7.257C8.379,7.253 8.302,7.096 8.276,7.061Z"/><path d="M8.964,6.813C8.965,6.809 9.034,6.822 9.034,6.822C9.034,6.822 9.033,6.825 9.033,6.829C9.023,6.874 8.982,7.101 9.202,7.131C9.48,7.169 9.646,7.032 9.684,7.008C9.741,6.972 9.746,7 9.689,7.069C9.689,7.069 9.504,7.243 9.193,7.201C8.906,7.163 8.951,6.873 8.963,6.814C8.963,6.814 8.964,6.813 8.964,6.813Z"/><path d="M8.704,7.253C8.719,7.328 8.74,7.411 8.77,7.486C8.795,7.551 8.827,7.61 8.867,7.651C8.903,7.689 8.946,7.711 8.998,7.709C9.028,7.707 9.053,7.691 9.075,7.666C9.102,7.637 9.123,7.596 9.141,7.549C9.18,7.447 9.203,7.318 9.217,7.204C9.209,7.203 9.201,7.202 9.193,7.201C9.055,7.183 8.994,7.106 8.969,7.025C8.953,7.059 8.933,7.093 8.909,7.124C8.86,7.188 8.793,7.24 8.704,7.253Z" style="fill:rgb(230,59,46);"/><path d="M8.632,7.256C8.375,7.245 8.301,7.096 8.276,7.061C8.233,7.001 8.247,6.981 8.302,7.033C8.339,7.068 8.41,7.172 8.62,7.185C8.631,7.185 8.642,7.186 8.654,7.186L8.656,7.186C8.668,7.186 8.68,7.185 8.691,7.183C8.762,7.173 8.814,7.131 8.853,7.081C8.867,7.063 8.879,7.043 8.89,7.024C8.897,7.011 8.904,6.998 8.91,6.985C8.916,6.972 8.921,6.96 8.926,6.947C8.946,6.895 8.957,6.848 8.962,6.824C8.962,6.824 8.963,6.816 8.964,6.815C8.964,6.814 8.964,6.813 8.964,6.813C8.965,6.809 9.034,6.822 9.034,6.822C9.034,6.822 9.033,6.825 9.032,6.83C9.033,6.83 9.033,6.831 9.032,6.831L9.031,6.84C9.027,6.86 9.022,6.894 9.024,6.932C9.024,6.944 9.026,6.956 9.027,6.968C9.029,6.979 9.032,6.991 9.036,7.002C9.055,7.062 9.101,7.117 9.202,7.131C9.209,7.132 9.217,7.133 9.224,7.134C9.236,7.135 9.248,7.136 9.26,7.137C9.272,7.137 9.283,7.138 9.295,7.138C9.517,7.138 9.651,7.029 9.684,7.008C9.741,6.972 9.746,7 9.689,7.069C9.689,7.069 9.541,7.208 9.287,7.208C9.273,7.328 9.249,7.466 9.207,7.574C9.162,7.693 9.093,7.774 9.002,7.779C8.895,7.785 8.813,7.717 8.753,7.615C8.692,7.511 8.655,7.373 8.632,7.256ZM8.704,7.253C8.719,7.328 8.74,7.411 8.77,7.486C8.795,7.551 8.827,7.61 8.867,7.651C8.903,7.689 8.946,7.711 8.998,7.709C9.028,7.707 9.053,7.691 9.075,7.666C9.102,7.637 9.123,7.596 9.141,7.549C9.18,7.447 9.203,7.318 9.217,7.204C9.209,7.203 9.201,7.202 9.193,7.201C9.055,7.183 8.994,7.106 8.969,7.025C8.953,7.059 8.933,7.093 8.909,7.124C8.86,7.188 8.793,7.24 8.704,7.253Z"/><path d="M7.022,7.746C6.975,7.825 6.943,7.853 6.959,7.77C6.969,7.72 7.061,7.512 7.358,7.225C7.647,6.947 7.921,6.857 7.982,6.836C8.054,6.81 8.078,6.835 8.007,6.87C7.882,6.93 7.634,7.04 7.392,7.278C7.144,7.523 7.028,7.737 7.022,7.746Z"/><path d="M6.399,7.706C6.369,7.749 6.34,7.742 6.364,7.646C6.376,7.599 6.515,7.326 6.997,7.032C7.61,6.658 7.912,6.65 7.979,6.647C8.012,6.645 8.061,6.678 7.993,6.689C7.96,6.694 7.671,6.709 7.034,7.093C6.531,7.395 6.428,7.665 6.399,7.706Z"/><path d="M6.309,7.199C6.239,7.3 6.253,7.219 6.293,7.141C6.322,7.084 6.518,6.856 7.061,6.641C7.599,6.429 7.985,6.473 8.069,6.489C8.139,6.503 8.133,6.538 8.066,6.536C7.983,6.533 7.584,6.503 7.053,6.713C6.533,6.919 6.344,7.149 6.309,7.199Z"/><path d="M9.862,6.531C9.778,6.542 9.811,6.5 9.888,6.482C9.955,6.466 10.264,6.435 10.554,6.464C11.268,6.535 11.561,6.853 11.561,6.853C11.575,6.867 11.595,6.923 11.581,6.91C11.581,6.91 11.216,6.592 10.531,6.524C10.214,6.493 9.987,6.516 9.862,6.531Z"/><path d="M9.899,6.662C9.851,6.659 9.901,6.633 9.951,6.629C10.01,6.624 10.278,6.635 10.544,6.705C11.094,6.848 11.274,7.106 11.32,7.165C11.347,7.2 11.37,7.267 11.343,7.243C11.29,7.196 11.077,6.911 10.552,6.774C10.265,6.699 10.011,6.67 9.899,6.662Z"/><path d="M9.897,6.774C9.866,6.77 9.908,6.736 9.936,6.738C9.988,6.741 10.167,6.798 10.325,6.888C10.682,7.094 10.78,7.39 10.796,7.463C10.807,7.509 10.813,7.565 10.792,7.524C10.759,7.459 10.633,7.141 10.298,6.948C10.152,6.864 9.956,6.782 9.897,6.774Z"/></g></svg>