<svg width="100%" height="100%" viewBox="0 0 18 16" version="1.1" xmlns="http://www.w3.org/2000/svg" xmlns:xlink="http://www.w3.org/1999/xlink" xml:space="preserve" style="fill-rule:evenodd;clip-rule:evenodd;stroke-linejoin:round;stroke-miterlimit:2;"><g id="scalameta" transform="matrix(1.11198,0,0,1.11198,-1.16495,-1.75428)"><path d="M5.543,6.758C5.543,6.758 6.039,5.2 6.497,4.499C6.713,4.167 6.695,3.85 6.384,3.88C6.076,3.91 4.348,4.057 4.182,4.134C4.053,4.194 3.504,4.86 2.913,6.963C2.322,9.066 2.268,10.8 2.602,10.8C3.032,10.8 4.278,10.644 5.152,10.492C5.152,10.492 4.868,10.489 5.025,9.267C5.27,7.359 5.543,6.758 5.543,6.758Z" style="fill:rgb(253,58,78);"/><path d="M8.533,4.184L8.331,4.206C8.331,4.206 7.175,5.015 6.733,5.487L5.543,6.758C5.543,6.758 5.27,7.359 5.025,9.267C4.868,10.489 5.152,10.492 5.152,10.492C5.362,10.456 7.286,7.877 7.286,7.877L8.533,4.184Z" style="fill:rgb(189,1,63);"/><path d="M10.149,6.706C10.149,6.706 10.948,4.677 11.115,4.398C11.282,4.118 11.246,3.9 10.912,3.935L8.533,4.184L7.286,7.877C7.286,7.877 7.047,9.25 7.056,9.784C7.066,10.317 7.027,10.771 7.234,10.774C7.436,10.777 8.878,10.586 9.75,10.484C9.694,10.459 9.625,10.328 9.659,9.81C9.791,7.791 10.149,6.706 10.149,6.706Z" style="fill:rgb(253,58,78);"/><path d="M10.149,6.706C10.149,6.706 9.791,7.791 9.659,9.81C9.625,10.328 9.694,10.459 9.75,10.484C9.771,10.482 9.792,10.479 9.812,10.477C10.019,10.451 11.902,7.902 11.902,7.902C11.902,7.902 12.177,6.866 12.541,5.877C12.805,5.161 13.171,4.474 13.2,4.394C13.274,4.193 13.001,4.2 13.001,4.2C13.001,4.2 12.143,4.729 11.454,5.382C11.093,5.724 10.149,6.706 10.149,6.706Z" style="fill:rgb(189,1,63);"/><path d="M11.902,7.902C11.902,7.902 11.768,8.58 11.765,10.023C11.763,11.466 11.996,13.172 12.83,13.452C13.665,13.733 14.624,13.704 14.914,13.555C15.205,13.406 15.263,13.362 15.143,13.081C15.022,12.799 14.29,11.786 14.294,9.509C14.299,6.814 15.741,4.401 15.848,4.205C15.955,4.009 15.821,3.891 15.637,3.906C15.454,3.921 13.001,4.2 13.001,4.2C13.001,4.2 13.274,4.193 13.2,4.394C13.171,4.474 12.805,5.161 12.541,5.877C12.177,6.866 11.902,7.902 11.902,7.902Z" style="fill:rgb(253,58,78);"/></g></svg>