<svg width="100%" height="100%" viewBox="0 0 18 16" version="1.1" xmlns="http://www.w3.org/2000/svg" xmlns:xlink="http://www.w3.org/1999/xlink" xml:space="preserve" style="fill-rule:evenodd;clip-rule:evenodd;stroke-linejoin:round;stroke-miterlimit:2;"><g id="scheme-dark" transform="matrix(0.0104676,0,0,-0.0104676,3.61968,15.3535)"><path d="M967,288L1003,288C1003,182.667 986,106 952,58C918,10 875,-14 823,-14C781,-14 740.667,1.667 702,33C663.333,64.333 628.667,149.333 598,288L512,676L214,0L25,0L453,922C430.333,1041.33 403,1129.67 371,1187C339,1244.33 299.333,1273 252,1273C214,1273 181,1258.67 153,1230C125,1201.33 109,1156.33 105,1095L69,1095C71,1193 90.667,1271.33 128,1330C165.333,1388.67 212,1418.33 268,1419C304,1419 338,1404.33 370,1375C402,1345.67 430,1295 454,1223C478,1151 515,1002.33 565,777L636,460C664.667,328.667 694.667,241 726,197C757.333,153 795.333,130.667 840,130C914.667,130 957,182.667 967,288Z" style="fill-rule:nonzero;"/></g></svg>