<svg width="100%" height="100%" viewBox="0 0 18 16" version="1.1" xmlns="http://www.w3.org/2000/svg" xmlns:xlink="http://www.w3.org/1999/xlink" xml:space="preserve" style="fill-rule:evenodd;clip-rule:evenodd;stroke-linejoin:round;stroke-miterlimit:2;"><g id="sass" transform="matrix(0.00876187,0,0,0.00876187,1.5,0.495291)"><g transform="matrix(4.16667,0,0,4.16667,0,0)"><path d="M205.436,0.129C318.895,0.129 410.871,92.107 410.871,205.565C410.871,319.024 318.895,411 205.436,411C91.977,411 0,319.024 0,205.565C0,92.107 91.977,0.129 205.436,0.129Z" style="fill:rgb(205,102,153);"/></g><g transform="matrix(4.16667,0,0,4.16667,0,0)"><path d="M164.609,273.996C167.598,285.052 167.27,295.362 164.183,304.699C163.84,305.736 163.462,306.762 163.052,307.776C162.642,308.788 162.198,309.789 161.722,310.777C159.341,315.717 156.146,320.341 152.233,324.609C140.297,337.631 123.62,342.555 116.469,338.406C108.747,333.93 112.615,315.57 126.454,300.942C141.342,285.203 162.763,275.084 162.763,275.084L162.73,275.02C163.347,274.688 163.974,274.346 164.609,273.996ZM334.299,88.059C324.996,51.573 264.498,39.578 207.24,59.92C173.165,72.026 136.276,91.026 109.752,115.835C78.215,145.333 73.186,171.007 75.258,181.735C82.57,219.589 134.438,244.332 155.76,262.69L155.76,262.801C149.473,265.896 103.456,289.184 92.687,312.992C81.324,338.109 94.495,356.133 103.216,358.559C130.235,366.076 157.961,352.555 172.861,330.33C187.24,308.882 186.043,281.186 179.794,267.409C188.414,265.135 198.463,264.116 211.234,265.608C247.271,269.817 254.342,292.319 252.99,301.734C251.639,311.152 244.08,316.33 241.553,317.893C239.025,319.457 238.254,319.998 238.467,321.16C238.773,322.85 239.943,322.787 242.098,322.422C245.064,321.922 261.021,314.762 261.703,297.379C262.572,275.309 241.422,250.621 203.973,251.266C188.55,251.532 178.852,252.999 171.847,255.606C171.329,255.016 170.802,254.429 170.257,253.848C147.105,229.147 104.306,211.674 106.121,178.467C106.781,166.395 110.977,134.606 188.36,96.047C251.75,64.46 302.496,73.152 311.266,92.416C323.793,119.937 284.145,171.089 218.314,178.467C193.233,181.279 180.027,171.558 176.742,167.938C173.283,164.127 172.768,163.955 171.477,164.67C169.373,165.835 170.706,169.2 171.477,171.206C173.442,176.321 181.508,185.392 195.259,189.904C207.355,193.874 236.803,196.055 272.416,182.28C312.301,166.851 343.447,123.933 334.299,88.059Z" style="fill:white;fill-rule:nonzero;"/></g></g></svg>