<svg width="100%" height="100%" viewBox="0 0 18 16" version="1.1" xmlns="http://www.w3.org/2000/svg" xmlns:xlink="http://www.w3.org/1999/xlink" xml:space="preserve" style="fill-rule:evenodd;clip-rule:evenodd;stroke-linejoin:round;stroke-miterlimit:2;"><g id="sentry"><g transform="matrix(1.07381,0,0,1.16787,0.071922,-0.951721)"><path d="M15.532,4.347L15.532,10.983C15.532,12.814 13.915,14.301 11.923,14.301L4.706,14.301C2.714,14.301 1.097,12.814 1.097,10.983L1.097,4.347C1.097,2.516 2.714,1.029 4.706,1.029L11.923,1.029C13.915,1.029 15.532,2.516 15.532,4.347Z" style="fill:white;"/></g><g transform="matrix(0.0449592,0,0,0.0449592,2.74915,2.49247)"><path d="M161.111,12.722C156.422,4.94 147.974,0.168 138.889,0.168C129.803,0.168 121.356,4.94 116.667,12.722L80.111,75.333C136.869,103.67 174.472,160.149 178.722,223.444L153.056,223.444C148.813,169.191 116.077,121.081 67.167,97.222L33.333,155.722C60.799,168.04 80.156,193.563 84.611,223.333L25.667,223.333C23.468,223.178 21.742,221.326 21.742,219.122C21.742,218.441 21.907,217.77 22.222,217.167L38.556,189.389C33.022,184.772 26.697,181.196 19.889,178.833L3.722,206.611C1.474,210.467 0.29,214.851 0.29,219.315C0.29,228.4 5.199,236.811 13.111,241.278C16.945,243.438 21.266,244.585 25.667,244.611L106.389,244.611C109.435,207.027 92.543,170.479 61.944,148.444L74.778,126.222C113.405,152.753 135.208,197.86 132,244.611L200.389,244.611C203.626,173.776 168.831,106.349 109.222,67.944L135.167,23.5C136.362,21.497 138.987,20.822 141,22C143.944,23.611 253.722,215.167 255.778,217.389C256.128,218.018 256.312,218.726 256.312,219.445C256.312,221.762 254.406,223.668 252.09,223.668C252.06,223.668 252.03,223.667 252,223.667L225.556,223.667C225.889,230.741 225.889,237.796 225.556,244.833L252.111,244.833C252.167,244.834 252.222,244.834 252.278,244.834C266.267,244.834 277.778,233.323 277.778,219.334C277.778,219.297 277.778,219.259 277.778,219.222C277.781,214.769 276.592,210.394 274.333,206.556L161.111,12.722Z" style="fill:rgb(54,45,89);fill-rule:nonzero;"/></g></g></svg>