<svg width="100%" height="100%" viewBox="0 0 18 16" version="1.1" xmlns="http://www.w3.org/2000/svg" xmlns:xlink="http://www.w3.org/1999/xlink" xml:space="preserve" style="fill-rule:evenodd;clip-rule:evenodd;stroke-linejoin:round;stroke-miterlimit:2;"><g id="serverless" transform="matrix(0.4909,0,0,0.4909,1.5,2.09575)"><path d="M9.931,5.201L11.702,0L0,0L0,5.201L9.931,5.201ZM30.556,5.201L30.556,0L17.287,0L15.603,5.201L30.556,5.201ZM6.893,14.303L8.452,9.102L0,9.102L0,14.303L6.893,14.303ZM30.556,14.303L30.556,9.102L13.932,9.102L12.352,14.303L30.556,14.303ZM3.657,24.055L5.201,18.854L0,18.854L0,24.055L3.657,24.055ZM30.556,24.055L30.556,18.854L10.803,18.854L9.102,24.055L30.556,24.055Z" style="fill:rgb(253,87,80);fill-rule:nonzero;"/></g></svg>