<svg width="100%" height="100%" viewBox="0 0 18 16" version="1.1" xmlns="http://www.w3.org/2000/svg" xmlns:xlink="http://www.w3.org/1999/xlink" xml:space="preserve" style="fill-rule:evenodd;clip-rule:evenodd;"><g id="setuptools" transform="matrix(0.124161,0,0,0.124161,-10.4353,-27.7235)"><path id="rect934" d="M161.189,249.409C157.659,249.376 150.979,249.51 150.979,249.51C150.655,249.51 150.395,249.782 150.395,250.12L150.395,254.265L144.312,254.265L144.312,250.12C144.312,249.782 144.051,249.51 143.727,249.51L136.473,249.51C136.149,249.51 135.887,249.782 135.887,250.12L135.887,265.48C135.887,265.818 136.149,266.089 136.473,266.089L143.727,266.089C144.051,266.089 144.312,265.818 144.312,265.48L144.312,261.336L150.395,261.336L150.395,265.48C150.395,265.818 150.656,266.089 150.979,266.089L154.65,266.089L154.65,285.635C152.546,286.47 151.063,288.516 151.063,290.926L151.063,320.548C151.063,323.704 153.602,326.243 156.758,326.243C159.914,326.243 162.455,323.704 162.455,320.548L162.455,290.926C162.455,288.517 160.972,286.47 158.867,285.635L158.867,266.089L162.843,266.089C163.476,265.532 164.087,263.296 167.469,261.586C176.552,258.466 180.496,266.196 180.427,265.128C180.353,263.989 179.85,256.845 171.919,252.654C168.464,251.1 164.402,249.574 163.306,249.51C163.193,249.45 162.366,249.42 161.189,249.409L161.189,249.409Z" style="fill:rgb(229,182,47);fill-rule:nonzero;stroke:rgb(229,182,47);stroke-width:1.35px;"/><path id="path944" d="M169.129,225.652C166.013,225.704 163.546,226.995 162.05,228.107C160.054,229.59 159.415,230.439 156.397,230.446C153.379,230.454 152.738,229.607 150.735,228.133C148.733,226.66 145.001,224.883 140.325,226.149C135.647,227.414 133.323,230.83 132.337,233.112C131.351,235.395 131.222,236.45 128.612,237.965C126.002,239.481 125.021,239.071 122.55,238.796C120.079,238.521 115.957,238.845 112.539,242.279C109.122,245.714 108.814,249.84 109.102,252.309C109.388,254.779 109.804,255.756 108.302,258.374C106.799,260.991 105.749,261.123 103.472,262.121C101.195,263.118 97.786,265.457 96.543,270.141C95.301,274.824 97.102,278.546 98.585,280.541C100.069,282.536 100.917,283.176 100.925,286.194C100.932,289.212 100.085,289.852 98.612,291.854C97.138,293.857 95.363,297.588 96.628,302.265C97.894,306.942 101.309,309.268 103.591,310.254C105.873,311.24 106.928,311.369 108.444,313.979C109.959,316.589 109.549,317.568 109.274,320.039C109,322.51 109.323,326.633 112.758,330.051C116.192,333.469 120.318,333.767 122.788,333.48C125.257,333.193 126.235,332.787 128.852,334.289C131.469,335.791 131.602,336.841 132.599,339.119C133.597,341.396 135.936,344.804 140.619,346.046C145.303,347.288 151.045,344.915 151.02,344.004C150.994,343.093 147.148,344.66 143.293,342.235C139.437,339.809 139.714,338.311 138.864,336.371C138.014,334.43 136.494,330.787 132.252,328.352C128.01,325.917 124.099,326.445 121.995,326.69C119.891,326.934 119.75,327.361 117.579,325.2C115.407,323.039 115.84,322.9 116.074,320.795C116.308,318.69 116.812,314.78 114.356,310.55C111.9,306.32 108.253,304.816 106.308,303.976C104.364,303.136 104.031,303.442 103.231,300.485C102.43,297.528 102.864,297.613 104.12,295.906C105.375,294.2 107.774,291.069 107.761,286.178C107.75,281.287 105.335,278.159 104.072,276.459C102.808,274.759 102.369,274.853 103.155,271.892C103.94,268.931 104.279,269.236 106.219,268.386C108.16,267.536 111.803,266.016 114.238,261.774C116.673,257.532 116.145,253.621 115.9,251.517C115.656,249.413 115.231,249.272 117.392,247.101C119.552,244.929 119.689,245.353 121.795,245.588C123.9,245.822 127.81,246.334 132.04,243.878C136.269,241.422 137.766,237.775 138.607,235.83C139.447,233.886 139.149,233.553 142.106,232.753C145.063,231.952 144.977,232.386 146.684,233.642C148.39,234.897 151.521,237.296 156.412,237.284C161.303,237.271 164.422,234.859 166.122,233.595C167.822,232.331 167.73,231.891 170.691,232.677C173.652,233.462 173.354,233.801 174.204,235.741C175.054,237.682 176.576,241.325 180.818,243.76C185.059,246.195 188.969,245.668 191.073,245.424C193.177,245.179 193.318,244.753 195.489,246.914C197.661,249.074 197.229,249.211 196.995,251.317C196.761,253.422 196.256,257.332 198.712,261.562C201.168,265.791 204.815,267.288 206.76,268.129C208.705,268.969 209.039,268.671 209.839,271.629C210.639,274.586 210.204,274.5 208.948,276.206C207.693,277.913 205.294,281.043 205.307,285.934C205.319,290.825 207.733,293.945 208.997,295.645C210.26,297.345 210.699,297.252 209.914,300.213C209.128,303.175 208.789,302.878 206.849,303.728C204.909,304.578 201.265,306.098 198.83,310.34C196.395,314.582 196.923,318.491 197.168,320.595C197.412,322.7 197.839,322.84 195.678,325.012C193.517,327.183 193.379,326.752 191.273,326.518C189.168,326.284 185.258,325.78 181.028,328.236C176.798,330.692 175.293,334.339 174.452,336.284C173.754,337.9 173.822,338.403 172.177,338.986C171.942,338.856 171.669,338.732 171.345,338.61C168.618,337.584 168.261,338.971 166.022,340.639C164.009,342.138 162.568,342.314 162.653,344.292C162.463,344.272 162.283,344.269 162.14,344.286C161.683,344.339 161.502,344.415 161.018,344.137C160.534,343.859 160.51,343.665 160.325,343.243C160.141,342.822 159.708,342.19 158.841,341.96C157.975,341.73 156.912,342.17 156.916,342.338C156.921,342.506 157.633,342.217 158.346,342.666C159.06,343.115 159.008,343.393 159.165,343.752C159.322,344.111 159.605,344.785 160.39,345.236C161.175,345.686 161.897,345.588 162.287,345.543C162.584,345.509 162.673,345.458 162.875,345.612C163.473,347.661 164.92,347.434 167.427,348.378C170.154,349.404 170.988,350.638 173.226,348.971C174.866,347.749 174.701,346.867 174.306,345.428C177.95,343.904 179.863,341.012 180.732,339C181.718,336.718 181.847,335.664 184.457,334.148C187.067,332.633 188.046,333.042 190.517,333.316C192.988,333.591 197.112,333.269 200.529,329.834C203.947,326.399 204.253,322.273 203.966,319.803C203.679,317.334 203.265,316.357 204.767,313.74C206.269,311.123 207.319,310.989 209.597,309.991C211.874,308.994 215.282,306.656 216.524,301.973C217.766,297.289 215.965,293.567 214.482,291.572C212.999,289.577 212.152,288.937 212.144,285.92C212.137,282.902 212.984,282.26 214.457,280.258C215.93,278.256 217.706,274.524 216.441,269.847C215.175,265.17 211.759,262.846 209.477,261.86C207.195,260.874 206.141,260.744 204.625,258.135C203.11,255.525 203.518,254.544 203.793,252.073C204.068,249.602 203.746,245.48 200.311,242.062C196.877,238.645 192.75,238.337 190.28,238.624C187.811,238.911 186.834,239.327 184.217,237.825C181.6,236.322 181.466,235.272 180.469,232.995C179.471,230.718 177.133,227.309 172.45,226.067C171.279,225.756 170.168,225.636 169.129,225.653L169.129,225.652Z" style="fill:rgb(51,103,144);fill-rule:nonzero;"/></g></svg>