<svg width="100%" height="100%" viewBox="0 0 18 16" version="1.1" xmlns="http://www.w3.org/2000/svg" xmlns:xlink="http://www.w3.org/1999/xlink" xml:space="preserve" style="fill-rule:evenodd;clip-rule:evenodd;stroke-linejoin:round;stroke-miterlimit:2;"><path id="shell-light" d="M17,2.68C17,1.753 16.247,1 15.32,1L2.68,1C1.753,1 1,1.753 1,2.68L1,13.32C1,14.247 1.753,15 2.68,15L15.32,15C16.247,15 17,14.247 17,13.32L17,2.68ZM15.75,2.68L15.75,13.32C15.75,13.557 15.557,13.75 15.32,13.75L2.68,13.75C2.443,13.75 2.25,13.557 2.25,13.32L2.25,2.68C2.25,2.443 2.443,2.25 2.68,2.25L15.32,2.25C15.557,2.25 15.75,2.443 15.75,2.68ZM8.364,10.864C8.364,10.515 8.652,10.227 9.001,10.227L12.818,10.227C13.167,10.227 13.454,10.515 13.454,10.864C13.454,11.213 13.167,11.5 12.818,11.5L9.001,11.5C8.652,11.5 8.364,11.213 8.364,10.864ZM4.733,4.687C4.852,4.567 5.014,4.5 5.183,4.5C5.352,4.5 5.514,4.567 5.633,4.687L8.179,7.232C8.298,7.351 8.365,7.513 8.365,7.682C8.365,7.851 8.298,8.014 8.179,8.133L5.633,10.678C5.514,10.797 5.352,10.865 5.183,10.865C4.834,10.865 4.546,10.577 4.546,10.227C4.546,10.059 4.613,9.896 4.733,9.777L6.828,7.682L4.733,5.588C4.613,5.469 4.546,5.306 4.546,5.137C4.546,4.968 4.613,4.806 4.733,4.687Z" style="fill:white;fill-opacity:0.6;"/></svg>