<svg width="100%" height="100%" viewBox="0 0 18 16" version="1.1" xmlns="http://www.w3.org/2000/svg" xmlns:xlink="http://www.w3.org/1999/xlink" xml:space="preserve" style="fill-rule:evenodd;clip-rule:evenodd;stroke-linejoin:round;stroke-miterlimit:2;"><g id="smarty" transform="matrix(1.77267,0,0,1.77267,-3.91639,-5.28665)"><g transform="matrix(1.0589,0,0,0.973675,-0.369643,0.239028)"><rect x="6.276" y="9.08" width="1.962" height="0.705" style="fill:rgb(255,239,130);"/></g><g transform="matrix(2.05261,0,0,1.43668,-7.68691,-4.7593)"><rect x="7.065" y="10.938" width="0.487" height="0.144" style="fill:rgb(51,51,39);"/></g><g transform="matrix(1.68076,0,0,1.1624,-4.73422,-1.7576)"><rect x="6.573" y="10.771" width="1.19" height="0.165" style="fill:rgb(123,123,110);"/></g><g transform="matrix(1.30357,0,0,0.664662,-1.90376,3.23961)"><rect x="6.126" y="9.819" width="1.89" height="0.305" style="fill:rgb(208,208,183);"/></g><g transform="matrix(1.30357,0,0,0.664662,-1.90376,3.07629)"><rect x="6.126" y="9.819" width="1.89" height="0.305" style="fill:rgb(231,230,192);fill-opacity:0.69;"/></g><g transform="matrix(1.30357,0,0,0.544577,-1.90376,4.76756)"><rect x="6.126" y="9.819" width="1.89" height="0.305" style="fill:rgb(211,211,191);"/></g><g transform="matrix(1.30357,0,0,0.578459,-1.90376,4.74794)"><rect x="6.126" y="9.819" width="1.89" height="0.305" style="fill:rgb(213,213,197);"/></g><g transform="matrix(1.2697,0,0,0.532284,-1.66427,4.73155)"><rect x="6.126" y="9.819" width="1.89" height="0.305" style="fill:rgb(192,192,165);fill-opacity:0.85;"/></g><g transform="matrix(1.2697,0,0,0.541224,-1.66427,4.96138)"><rect x="6.126" y="9.819" width="1.89" height="0.305" style="fill:rgb(173,173,155);"/></g><g transform="matrix(1.2168,0,0,0.542546,-1.29017,5.27053)"><rect x="6.126" y="9.819" width="1.89" height="0.305" style="fill:rgb(183,183,169);"/></g><g transform="matrix(0.995863,0,0,1.04402,0.468153,0.179859)"><ellipse cx="6.847" cy="6.178" rx="2.816" ry="2.684" style="fill:url(#_Radial1);"/></g><g transform="matrix(1.31532,0,0,1.30475,-2.59951,-1.36152)"><ellipse cx="7.542" cy="5.056" rx="1.026" ry="0.99" style="fill:rgb(255,245,181);fill-opacity:0.83;"/></g><g transform="matrix(1.15275,0,0,0.885819,-1.14625,0.769599)"><g style="filter:url(#_Effect2);"><ellipse cx="7.375" cy="7.018" rx="1.851" ry="1.785" style="fill:rgb(255,228,42);"/></g></g></g><defs><radialGradient id="_Radial1" cx="0" cy="0" r="1" gradientUnits="userSpaceOnUse" gradientTransform="matrix(1.49151,1.71422,-1.79711,1.42271,7.07578,6.10556)"><stop offset="0" style="stop-color:rgb(255,231,68);stop-opacity:1"/><stop offset="0.59" style="stop-color:rgb(255,232,75);stop-opacity:1"/><stop offset="0.81" style="stop-color:rgb(255,234,91);stop-opacity:1"/><stop offset="1" style="stop-color:rgb(255,236,107);stop-opacity:1"/></radialGradient><filter id="_Effect2" filterUnits="userSpaceOnUse" x="4.833" y="4.33254" width="5.08455" height="5.3701"><feGaussianBlur in="SourceGraphic" stdDeviation="0.129237"/></filter></defs></svg>