<svg width="100%" height="100%" viewBox="0 0 18 16" version="1.1" xmlns="http://www.w3.org/2000/svg" xmlns:xlink="http://www.w3.org/1999/xlink" xml:space="preserve" style="fill-rule:evenodd;clip-rule:evenodd;stroke-linejoin:round;stroke-miterlimit:2;"><g id="snapcraft" transform="matrix(0.871898,0,0,0.871898,2.01939,1.11636)"><g transform="matrix(1.28516,0,0,1.63382,-1.78013,-1.77569)"><rect x="0.922" y="0.654" width="13.387" height="10.53" style="fill:rgb(233,84,32);"/></g><g transform="matrix(0.966773,0,0,0.966773,0.266024,0.262328)"><path d="M15.69,5.56L14.29,2.73C14.29,2.73 14.22,2.65 14.17,2.65L8.54,2.65C8.48,2.65 8.42,2.7 8.41,2.76C8.4,2.82 8.43,2.89 8.49,2.91L15.53,5.74L15.58,5.74C15.62,5.74 15.65,5.72 15.68,5.7C15.72,5.66 15.73,5.6 15.7,5.55L15.69,5.56Z" style="fill:white;fill-rule:nonzero;"/></g><g transform="matrix(0.966773,0,0,0.966773,0.266024,0.262328)"><path d="M11.81,5.21L0.39,0.44C0.39,0.44 0.33,0.44 0.31,0.46C0.29,0.49 0.29,0.52 0.31,0.55L8.04,8.82C8.04,8.82 8.07,8.84 8.09,8.84C8.11,8.84 8.12,8.84 8.14,8.82L11.83,5.32C11.83,5.32 11.85,5.28 11.85,5.26C11.85,5.24 11.83,5.22 11.81,5.21Z" style="fill:white;fill-rule:nonzero;"/></g><g transform="matrix(0.966773,0,0,0.966773,0.266024,0.262328)"><path d="M5.54,7.46C5.54,7.46 5.5,7.43 5.48,7.44C5.46,7.44 5.44,7.46 5.43,7.48L1.42,15.25C1.42,15.25 1.42,15.32 1.44,15.34C1.45,15.34 1.47,15.35 1.48,15.35C1.5,15.35 1.52,15.35 1.53,15.33L7.24,9.48C7.24,9.48 7.27,9.41 7.24,9.39L5.54,7.46Z" style="fill:white;fill-rule:nonzero;"/></g></g></svg>