<svg width="100%" height="100%" viewBox="0 0 18 16" version="1.1" xmlns="http://www.w3.org/2000/svg" xmlns:xlink="http://www.w3.org/1999/xlink" xml:space="preserve" style="fill-rule:evenodd;clip-rule:evenodd;stroke-linejoin:round;stroke-miterlimit:2;"><g transform="matrix(0.0358578,0,0,0.0358578,4.41021,0.499986)"><path d="M217.619,99.409C209.09,72.953 189.698,35.777 186.935,30.544L184.529,25.97C182.159,21.25 180.39,17.869 179.723,16.607L170.985,0L158.468,88.948L158.032,92.183C148.673,91.65 138.711,91.344 128.173,91.344C117.575,91.344 107.554,91.654 98.139,92.193L97.753,88.946L93.36,57.767C93.366,57.715 85.217,0 85.217,0L76.295,16.607C75.487,18.134 73.052,22.761 69.883,29.112L69.113,30.544C66.344,35.782 46.766,73.024 38.183,99.484C13.423,104.267 0,109.383 0,109.383L0,325.599L127.999,418.32L256,325.599L256,109.383C256,109.383 242.535,104.213 217.619,99.409Z" style="fill:white;fill-rule:nonzero;"/><path d="M183.074,267.277L127.9,267.277L127.9,172.807L71.918,264.515L63.214,358.687L127.039,405.305L127.9,405.936L193.173,358.351L183.074,267.277Z" style="fill:rgb(59,59,99);fill-rule:nonzero;"/><path d="M126.954,404.967L8.179,318.858L8.179,118.061C8.179,118.061 52.097,101.308 127.115,101.308C202.134,101.308 245.731,118.061 245.731,118.061L245.731,318.858L126.954,404.967Z" style="fill:rgb(219,219,219);fill-rule:nonzero;"/><path d="M128.675,101.308C128.62,101.308 128.567,101.31 128.512,101.31L128.512,404.962L128.514,404.962L247.291,318.853L247.291,118.061C247.291,118.061 203.693,101.308 128.675,101.308" style="fill:rgb(198,198,198);fill-rule:nonzero;"/><path d="M192.847,358.157L182.767,267.277L127.591,267.277L127.591,405.725L192.847,358.157Z" style="fill:rgb(59,59,99);fill-rule:nonzero;"/><path d="M63.213,358.687L127.9,405.936L127.9,172.807L71.917,264.515L63.213,358.687Z" style="fill:rgb(83,83,122);fill-rule:nonzero;"/><path d="M155.74,331.842C155.74,347.424 141.425,355.148 128.293,355.148C115.161,355.148 100.557,347.424 100.557,331.842" style="fill:rgb(188,147,117);fill-rule:nonzero;"/><path d="M147.692,323.012C147.692,341.286 138.015,346.185 128.148,346.185C118.282,346.185 108.602,341.286 108.602,323.012" style="fill:rgb(7,50,81);fill-rule:nonzero;"/><path d="M128.147,339.9C117.604,339.9 112.478,332.036 112.478,315.87L117.505,315.87C117.505,334.796 124.691,334.796 128.147,334.796C131.602,334.796 138.789,334.796 138.789,315.87L143.815,315.87C143.815,332.036 138.688,339.9 128.147,339.9" style="fill:white;fill-rule:nonzero;"/><path d="M211.832,129.623C211.832,109.909 179.062,47.882 179.062,47.882L167.977,126.546L158.028,143.153L128.209,144.386L128.091,144.63L128.091,144.386L98.268,143.153L88.322,126.546L77.237,47.882C77.237,47.882 44.464,109.909 44.464,129.623L58.309,167.502C58.309,167.502 51.322,231.129 54.512,239.459C57.692,247.791 79.782,275.654 79.782,275.654C79.782,275.654 79.716,299.078 85.764,315.918C90.079,327.944 99.586,332.822 108.689,332.822C122.633,332.822 128.088,319.816 128.088,319.816C128.088,319.816 133.674,332.822 147.618,332.822C156.719,332.822 166.217,327.952 170.542,315.918C176.583,299.085 176.522,275.654 176.522,275.654C176.522,275.654 198.607,247.791 201.793,239.459C204.981,231.127 197.993,167.502 197.993,167.502L211.832,129.623Z" style="fill:rgb(196,154,126);fill-rule:nonzero;"/><path d="M128.147,144.512L128.09,144.63L128.09,144.387L98.266,143.155L88.321,126.547L77.232,47.884C77.232,47.884 44.462,109.911 44.462,129.625L58.304,167.504C58.304,167.504 51.319,231.13 54.504,239.461C57.691,247.793 79.772,275.656 79.772,275.656C79.772,275.656 79.715,299.08 85.756,315.92C90.077,327.946 99.585,332.824 108.68,332.824C122.631,332.824 128.086,319.818 128.086,319.818C128.086,319.818 128.111,319.864 128.149,319.949L128.149,144.512L128.147,144.512Z" style="fill:rgb(216,183,160);fill-rule:nonzero;"/><path d="M198.291,171.231C195.751,165.827 199.362,153.04 199.362,153.04C178.668,131.475 173.493,86.506 173.493,86.506C169.629,100.676 161.231,142.455 161.231,142.455C161.231,142.455 145.786,136.607 128.216,136.579L128.085,136.579C127.12,136.584 126.169,136.609 125.219,136.64L125.219,312.931L126.531,314.884L126.531,313.919L127.342,313.919L127.342,314.884L127.35,313.919L128.952,313.919L128.952,314.884L128.952,313.919L129.771,313.919L129.771,314.884L144.076,293.648L147.186,234.015L164.996,254.669L187.94,261.483C187.94,261.483 196.524,255.262 196.524,255.285C200.169,250.097 201.378,245.677 202.259,243.384C205.446,235.04 198.291,171.231 198.291,171.231" style="fill:rgb(59,59,99);fill-rule:nonzero;"/><path d="M128.308,136.577C128.285,136.577 128.267,136.575 128.247,136.575L128.247,136.577C110.671,136.607 95.224,142.451 95.224,142.451C95.224,142.451 86.823,100.674 82.962,86.503C82.962,86.503 77.79,131.472 57.093,153.037C57.093,153.037 60.704,165.825 58.164,171.228C58.164,171.228 51.009,235.04 54.196,243.371C55.076,245.666 56.294,250.083 59.934,255.272C59.934,255.248 68.522,261.471 68.522,261.471L91.462,254.656L109.269,234.005L112.387,293.638L126.683,314.874L126.683,313.909L127.503,313.909L127.503,314.874L127.503,313.909L128.305,313.909L128.305,136.577L128.308,136.577Z" style="fill:rgb(83,83,122);fill-rule:nonzero;"/><path d="M178.155,211.144L142.976,211.144L142.976,211.431C142.976,220.938 151.07,228.639 160.564,228.639C170.061,228.639 178.155,220.936 178.155,211.431L178.155,211.144Z" style="fill:rgb(51,49,82);fill-rule:nonzero;"/><path d="M149.676,211.144L149.676,211.431C149.676,217.086 154.158,221.668 159.73,221.668C165.301,221.668 169.781,217.086 169.781,211.431L169.781,211.144L149.676,211.144Z" style="fill:white;fill-rule:nonzero;"/><path d="M162.831,211.144L158.12,211.144C158.074,211.144 158.035,211.167 157.994,211.176C158.578,211.3 158.902,212.645 158.776,213.541C158.588,214.909 157.439,215.859 156.124,215.882C156.507,217.671 157.943,219.109 159.851,219.382C162.288,219.732 164.54,218.035 164.886,215.562C165.134,213.741 164.272,211.144 162.831,211.144" style="fill:rgb(51,49,82);fill-rule:nonzero;"/><path d="M113.454,211.144L78.274,211.144L78.274,211.431C78.274,220.938 86.369,228.639 95.862,228.639C105.359,228.639 113.454,220.936 113.454,211.431L113.454,211.144Z" style="fill:rgb(51,49,82);fill-rule:nonzero;"/><path d="M84.976,211.144L84.976,211.431C84.976,217.086 89.461,221.668 95.025,221.668C100.598,221.668 105.078,217.086 105.078,211.431L105.078,211.144L84.976,211.144Z" style="fill:white;fill-rule:nonzero;"/><path d="M98.131,211.144L93.415,211.144C93.374,211.144 93.33,211.167 93.292,211.176C93.875,211.3 94.197,212.645 94.074,213.541C93.885,214.909 92.743,215.859 91.419,215.882C91.807,217.671 93.243,219.109 95.147,219.382C97.583,219.732 99.84,218.035 100.181,215.562C100.433,213.741 99.572,211.144 98.131,211.144" style="fill:rgb(51,49,82);fill-rule:nonzero;"/><path d="M167.758,203.03C168.883,201.778 178.438,190.77 165.659,190.77C154.112,190.77 145.804,200.23 143.602,203.03L167.758,203.03Z" style="fill:rgb(196,154,126);fill-rule:nonzero;"/><path d="M112.638,203.03C110.438,200.23 102.13,190.77 90.579,190.77C77.807,190.77 87.362,201.778 88.481,203.03L112.638,203.03Z" style="fill:rgb(216,183,160);fill-rule:nonzero;"/><path d="M72.109,211.043L120.991,211.043L120.991,206.376L72.109,206.376L72.109,211.043Z" style="fill:rgb(83,83,122);fill-rule:nonzero;"/><path d="M199.176,144.864C184.963,124.576 180.504,91.594 180.117,88.58L182.71,70.195C193.264,92.001 204.337,117.88 205.096,128.68L199.176,144.864ZM195.546,237.157C193.605,242.221 180.201,260.314 171.297,271.547L169.812,273.43L169.819,275.834C169.819,276.051 169.812,298.228 164.242,313.748C160.215,324.965 151.27,326.177 147.616,326.177C138.364,326.177 134.371,317.566 134.231,317.255L133.702,309.189L122.455,309.189L121.947,317.209C121.787,317.574 117.892,326.155 108.686,326.155C105.024,326.155 96.082,324.956 92.052,313.739C86.5,298.274 86.474,276.051 86.474,275.825L86.482,273.422L84.997,271.547C76.098,260.322 62.693,242.229 60.8,237.288C59.287,231.944 61.785,197.383 64.965,168.422L65.14,166.815L62.631,159.957C71.251,150.781 77.3,138.153 81.473,126.132L81.879,129.058L95.57,151.901L100.919,149.569C101.054,149.511 114.771,143.585 128.091,143.585C141.327,143.585 155.27,149.516 155.401,149.574L160.742,151.886L174.417,129.053L174.953,125.24C179.082,137.379 185.125,150.233 193.786,159.613L191.159,166.81L191.334,168.416C194.512,197.383 197.01,231.944 195.546,237.157ZM119.806,337.402C121.596,336.593 123.212,335.63 124.637,334.571C125.939,334.959 127.188,334.959 128.147,334.959C129.101,334.959 130.337,334.968 131.63,334.579C133.058,335.63 134.677,336.593 136.467,337.402C134.222,339.106 131.458,340.064 128.154,340.064C124.831,340.064 122.054,339.113 119.806,337.402ZM128.293,351.911C120.937,351.911 110.477,348.581 107.875,339.754C108.141,339.762 108.403,339.785 108.675,339.785C110.096,339.785 111.429,339.653 112.717,339.467C116.448,344.741 122.26,346.359 128.149,346.359C134.047,346.359 139.871,344.756 143.608,339.473C144.888,339.651 146.206,339.785 147.616,339.785C147.893,339.785 148.159,339.762 148.436,339.754C145.859,348.581 135.539,351.911 128.293,351.911ZM51.206,128.678C51.965,117.878 63.031,92.001 73.587,70.193L76.401,90.133C75.328,97.588 70.424,126.826 57.269,145.256L51.206,128.678ZM218.364,129.786C218.364,108.964 188.314,51.335 184.881,44.832L175.274,26.573L161.512,124.367L155.16,134.989C149.028,132.898 138.592,129.98 128.083,129.98C117.586,129.98 107.22,132.888 101.114,134.982L94.759,124.365L89.929,90.085C89.935,90.028 89.943,89.952 89.943,89.917L89.906,89.912L80.976,26.573L71.166,44.832C67.728,51.335 37.438,108.964 37.438,129.786L37.438,131.008L51.308,168.519C49.09,188.971 44.856,233.397 48.182,242.08C50.254,247.509 58.23,258.719 64.976,267.704L55.89,353.691L68.4,362.653L75.012,300.103C75.962,306.186 77.364,312.61 79.445,318.413C82.314,326.41 87.385,332.463 93.876,336.055C94.262,355.199 111.784,365.523 128.293,365.523C144.665,365.523 162.042,355.191 162.422,336.04C168.899,332.455 173.964,326.401 176.83,318.413C178.997,312.378 180.418,305.656 181.364,299.362L188.015,362.138L200.526,352.858L191.462,267.445C198.155,258.5 205.981,247.454 208.034,242.085C211.359,233.404 206.954,188.971 204.739,168.522L218.362,131.006L218.362,129.786L218.364,129.786Z" style="fill:rgb(51,49,82);fill-rule:nonzero;"/><path d="M143.921,285.822L112.478,285.822C112.478,285.822 108.249,293.305 108.249,295.734C108.249,302.945 127.602,314.426 127.602,314.426C127.602,314.426 148.045,302.603 148.045,295.734C148.045,292.457 143.921,285.822 143.921,285.822" style="fill:rgb(51,49,82);fill-rule:nonzero;"/><path d="M137.861,307.804C136.107,304.647 133.844,304.071 132.805,306.505C131.769,308.942 132.361,313.476 134.115,316.626C135.869,319.785 138.134,320.361 139.168,317.925C140.207,315.49 139.618,310.954 137.861,307.804" style="fill:rgb(196,154,126);fill-rule:nonzero;"/><path d="M118.434,307.804C116.677,310.954 116.093,315.49 117.127,317.925C118.162,320.361 120.423,319.785 122.185,316.626C123.938,313.477 124.526,308.942 123.487,306.505C122.453,304.071 120.191,304.647 118.434,307.804" style="fill:rgb(216,183,160);fill-rule:nonzero;"/></g></svg>