<svg width="100%" height="100%" viewBox="0 0 18 16" version="1.1" xmlns="http://www.w3.org/2000/svg" xmlns:xlink="http://www.w3.org/1999/xlink" xml:space="preserve" style="fill-rule:evenodd;clip-rule:evenodd;stroke-linejoin:round;stroke-miterlimit:2;"><g id="solidity" transform="matrix(0.0886076,0,0,0.0886076,4.56962,0.911392)"><g transform="matrix(12.1187,0,0,13.1803,-50.7597,-21.0266)"><path d="M15.532,4.347L15.532,10.983C15.532,12.814 13.915,14.301 11.923,14.301L4.706,14.301C2.714,14.301 1.097,12.814 1.097,10.983L1.097,4.347C1.097,2.516 2.714,1.029 4.706,1.029L11.923,1.029C13.915,1.029 15.532,2.516 15.532,4.347Z" style="fill:white;"/></g><path d="M50,44.301L25,1L0,44.301L25,87.603L50,44.301Z" style="fill-opacity:0.8;fill-rule:nonzero;"/><path d="M50,44.309L75,1.008L25,1.008L0,44.309L50,44.309Z" style="fill-opacity:0.45;fill-rule:nonzero;"/><path d="M75,1.008L25,1.008L50,44.309L100,44.309L75,1.008Z" style="fill-opacity:0.6;fill-rule:nonzero;"/><path d="M50,115.699L75,159L100,115.699L75,72.397L50,115.699Z" style="fill-opacity:0.8;fill-rule:nonzero;"/><path d="M50,115.691L25,158.993L75,158.993L100,115.691L50,115.691Z" style="fill-opacity:0.45;fill-rule:nonzero;"/><path d="M25,158.993L75,158.993L50,115.691L0,115.691L25,158.993Z" style="fill-opacity:0.6;fill-rule:nonzero;"/></g></svg>