<svg width="100%" height="100%" viewBox="0 0 18 16" version="1.1" xmlns="http://www.w3.org/2000/svg" xmlns:xlink="http://www.w3.org/1999/xlink" xml:space="preserve" style="fill-rule:evenodd;clip-rule:evenodd;stroke-linejoin:round;stroke-miterlimit:2;"><g id="solid" transform="matrix(0.0943396,0,0,0.0943396,8.29413,7.39692)"><g transform="matrix(1,0,0,1,-76.0177,-71.2356)"><path d="M163,35C163,35 110,-4 69,5L66,6C60,8 55,11 52,15L50,18L35,44L61,49C72,56 86,59 99,56L145,65L163,35Z" style="fill:rgb(118,179,225);fill-rule:nonzero;"/></g><g transform="matrix(1,0,0,1,-76.0177,-71.2356)"><path d="M163,35C163,35 110,-4 69,5L66,6C60,8 55,11 52,15L50,18L35,44L61,49C72,56 86,59 99,56L145,65L163,35Z" style="fill:url(#_Linear-a0ugh9j);fill-rule:nonzero;"/></g><g transform="matrix(1,0,0,1,-76.0177,-71.2356)"><path d="M52,35L48,36C31,41 26,57 35,71C45,84 66,91 83,86L145,65C145,65 92,26 52,35Z" style="fill:rgb(81,138,200);fill-rule:nonzero;"/></g><g transform="matrix(1,0,0,1,-76.0177,-71.2356)"><path d="M52,35L48,36C31,41 26,57 35,71C45,84 66,91 83,86L145,65C145,65 92,26 52,35Z" style="fill:url(#_Linear-b1wk9b1);fill-rule:nonzero;"/></g><g transform="matrix(1,0,0,1,-76.0177,-71.2356)"><path d="M134,80C122.571,65.722 103.525,59.77 86,65L24,85L4,120L116,139L136,103C140,96 139,88 134,80Z" style="fill:url(#_Linear-z27dxwy);fill-rule:nonzero;"/></g><g transform="matrix(1,0,0,1,-76.0177,-71.2356)"><path d="M114,115C102.571,100.722 83.525,94.77 66,100L4,120C4,120 57,160 98,150L101,149C118,144 124,128 114,115Z" style="fill:url(#_Linear-qgikjhr);fill-rule:nonzero;"/></g></g><defs><linearGradient id="_Linear-a0ugh9j" x1="0" y1="0" x2="1" y2="0" gradientUnits="userSpaceOnUse" gradientTransform="matrix(124.5,60.5,-60.5,124.5,27.5,3)"><stop offset="0" style="stop-color:rgb(118,179,225);stop-opacity:0.3"/><stop offset="0.1" style="stop-color:rgb(118,179,225);stop-opacity:0.3"/><stop offset="0.3" style="stop-color:rgb(220,242,253);stop-opacity:0.3"/><stop offset="1" style="stop-color:rgb(118,179,225);stop-opacity:0.3"/></linearGradient><linearGradient id="_Linear-b1wk9b1" x1="0" y1="0" x2="1" y2="0" gradientUnits="userSpaceOnUse" gradientTransform="matrix(-21.8,72.6,-72.6,-21.8,95.8,32.6)"><stop offset="0" style="stop-color:rgb(118,179,225);stop-opacity:0.3"/><stop offset="0.5" style="stop-color:rgb(67,119,187);stop-opacity:0.3"/><stop offset="1" style="stop-color:rgb(31,59,119);stop-opacity:0.3"/></linearGradient><linearGradient id="_Linear-z27dxwy" x1="0" y1="0" x2="1" y2="0" gradientUnits="userSpaceOnUse" gradientTransform="matrix(125.9,85.6,-85.6,125.9,18.4,64.2)"><stop offset="0" style="stop-color:rgb(49,90,169);stop-opacity:1"/><stop offset="0.5" style="stop-color:rgb(81,138,200);stop-opacity:1"/><stop offset="1" style="stop-color:rgb(49,90,169);stop-opacity:1"/></linearGradient><linearGradient id="_Linear-qgikjhr" x1="0" y1="0" x2="1" y2="0" gradientUnits="userSpaceOnUse" gradientTransform="matrix(-50.8,186.3,-186.3,-50.8,75.2,74.5)"><stop offset="0" style="stop-color:rgb(67,119,187);stop-opacity:1"/><stop offset="0.5" style="stop-color:rgb(26,51,107);stop-opacity:1"/><stop offset="1" style="stop-color:rgb(26,51,107);stop-opacity:1"/></linearGradient></defs></svg>