<svg width="100%" height="100%" viewBox="0 0 18 16" version="1.1" xmlns="http://www.w3.org/2000/svg" xmlns:xlink="http://www.w3.org/1999/xlink" xml:space="preserve" style="fill-rule:evenodd;clip-rule:evenodd;stroke-linejoin:round;stroke-miterlimit:2;"><g id="solidity-light" transform="matrix(0.0949367,0,0,0.0949367,8.16983,7.23808)"><g transform="matrix(1,0,0,1,-41.2556,-71.9744)"><path d="M50,44.301L25,1L0,44.301L25,87.603L50,44.301Z" style="fill:rgb(230,227,236);fill-opacity:0.8;fill-rule:nonzero;"/></g><g transform="matrix(1,0,0,1,-41.2556,-71.9744)"><path d="M50,44.309L75,1.008L25,1.008L0,44.309L50,44.309Z" style="fill:rgb(230,227,236);fill-opacity:0.45;fill-rule:nonzero;"/></g><g transform="matrix(1,0,0,1,-41.2556,-71.9744)"><path d="M75,1.008L25,1.008L50,44.309L100,44.309L75,1.008Z" style="fill:rgb(230,227,236);fill-opacity:0.6;fill-rule:nonzero;"/></g><g transform="matrix(1,0,0,1,-41.2556,-71.9744)"><path d="M50,115.699L75,159L100,115.699L75,72.397L50,115.699Z" style="fill:rgb(230,227,236);fill-opacity:0.8;fill-rule:nonzero;"/></g><g transform="matrix(1,0,0,1,-41.2556,-71.9744)"><path d="M50,115.691L25,158.993L75,158.993L100,115.691L50,115.691Z" style="fill:rgb(230,227,236);fill-opacity:0.45;fill-rule:nonzero;"/></g><g transform="matrix(1,0,0,1,-41.2556,-71.9744)"><path d="M25,158.993L75,158.993L50,115.691L0,115.691L25,158.993Z" style="fill:rgb(230,227,236);fill-opacity:0.6;fill-rule:nonzero;"/></g></g></svg>