<svg width="100%" height="100%" viewBox="0 0 18 16" version="1.1" xmlns="http://www.w3.org/2000/svg" xmlns:xlink="http://www.w3.org/1999/xlink" xml:space="preserve" style="fill-rule:evenodd;clip-rule:evenodd;stroke-linejoin:round;stroke-miterlimit:2;"><g id="solidstart" transform="matrix(1,0,0,1,0.166097,0.365163)"><g><path d="M1.118,9.271C1.118,9.271 6.664,13.294 7.071,13.585C7.479,13.877 7.713,13.996 8.314,14.011C9.422,14.039 9.986,13.023 9.986,13.023C9.986,13.023 4.488,9.043 3.831,8.567C3.174,8.091 2.406,8.244 1.919,8.5C1.375,8.785 1.118,9.271 1.118,9.271Z" style="fill:url(#_Linear-ro733f6);"/><path d="M9.986,13.023L12.127,12.858C12.127,12.858 6.617,8.874 6.165,8.542C5.713,8.21 5.17,8.103 4.814,8.116C4.51,8.127 3.167,8.231 2.779,8.261C3.123,8.244 3.492,8.321 3.831,8.567L9.986,13.023Z" style="fill:url(#_Linear-hhe0aeu);"/><path d="M12.127,12.858C12.127,12.858 11.951,13.189 11.523,13.49C11.095,13.791 10.761,13.816 10.642,13.829C10.54,13.839 9.017,13.962 8.574,13.998C9.51,13.88 9.986,13.023 9.986,13.023L12.127,12.858Z" style="fill:url(#_Linear-nny4np2);"/></g><g><path d="M4.004,3.733C4.004,3.733 9.726,7.806 10.152,8.113C10.579,8.42 11.071,8.872 11.218,9.735C11.364,10.598 10.89,11.304 10.89,11.304C10.89,11.304 5.263,7.315 4.715,6.921C4.166,6.526 3.721,6.065 3.644,5.147C3.571,4.289 4.004,3.733 4.004,3.733Z" style="fill:url(#_Linear-yal8hqr);"/><path d="M4.004,3.733L6.16,3.617C6.16,3.617 11.894,7.693 12.327,8C12.76,8.307 13.349,8.864 13.38,9.773C13.411,10.714 13.037,11.179 13.037,11.179L10.89,11.304C10.89,11.304 11.364,10.598 11.218,9.735C11.071,8.872 10.579,8.42 10.152,8.113C9.726,7.806 4.004,3.733 4.004,3.733Z" style="fill:url(#_Linear-9w93b19);"/></g><g><g><path d="M5.211,2.375L11.469,6.82C11.469,6.82 11.954,7.25 12.676,7.228C13.963,7.189 14.414,6.248 14.414,6.248C14.414,6.248 9.228,2.581 7.968,1.675C7.464,1.313 6.849,1.334 6.451,1.434C5.607,1.645 5.211,2.375 5.211,2.375Z" style="fill:url(#_Linear-woasl5b);"/><path d="M6.96,1.371C6.96,1.371 8.196,1.264 8.762,1.259C9.328,1.254 9.741,1.262 10.331,1.686C10.921,2.111 16.55,6.122 16.55,6.122L14.414,6.248C14.414,6.248 9.228,2.581 7.968,1.675C7.649,1.446 7.285,1.37 6.96,1.371Z" style="fill:url(#_Linear-15gokob);"/><path d="M16.55,6.122C16.55,6.122 16.444,6.331 16.17,6.569C15.914,6.79 15.457,7.056 15.05,7.079C14.977,7.083 13.525,7.173 12.907,7.211C14.018,7.076 14.414,6.248 14.414,6.248L16.55,6.122Z" style="fill:url(#_Linear-myxho7o);"/></g></g></g><defs><linearGradient id="_Linear-ro733f6" x1="0" y1="0" x2="1" y2="0" gradientUnits="userSpaceOnUse" gradientTransform="matrix(1.02303,-1.50097,1.50097,1.02303,4.76082,11.7184)"><stop offset="0" style="stop-color:rgb(2,125,210);stop-opacity:1"/><stop offset="1" style="stop-color:rgb(2,121,212);stop-opacity:1"/></linearGradient><linearGradient id="_Linear-hhe0aeu" x1="0" y1="0" x2="1" y2="0" gradientUnits="userSpaceOnUse" gradientTransform="matrix(0.664766,-0.888117,0.888117,0.664766,6.99663,10.6678)"><stop offset="0" style="stop-color:rgb(13,142,231);stop-opacity:1"/><stop offset="1" style="stop-color:rgb(7,142,231);stop-opacity:1"/></linearGradient><linearGradient id="_Linear-nny4np2" x1="0" y1="0" x2="1" y2="0" gradientUnits="userSpaceOnUse" gradientTransform="matrix(0.125097,-0.65294,0.65294,0.125097,10.3571,13.7337)"><stop offset="0" style="stop-color:rgb(6,135,214);stop-opacity:1"/><stop offset="1" style="stop-color:rgb(6,136,216);stop-opacity:1"/></linearGradient><linearGradient id="_Linear-yal8hqr" x1="0" y1="0" x2="1" y2="0" gradientUnits="userSpaceOnUse" gradientTransform="matrix(0.769551,-1.42072,1.42072,0.769551,6.67982,8.0692)"><stop offset="0" style="stop-color:rgb(164,222,255);stop-opacity:1"/><stop offset="1" style="stop-color:rgb(176,225,255);stop-opacity:1"/></linearGradient><linearGradient id="_Linear-9w93b19" x1="0" y1="0" x2="1" y2="0" gradientUnits="userSpaceOnUse" gradientTransform="matrix(-6.10733,-6.9163,6.9163,-6.10733,12.3758,10.8084)"><stop offset="0" style="stop-color:rgb(220,243,255);stop-opacity:1"/><stop offset="1" style="stop-color:rgb(178,226,255);stop-opacity:1"/></linearGradient><linearGradient id="_Linear-woasl5b" x1="0" y1="0" x2="1" y2="0" gradientUnits="userSpaceOnUse" gradientTransform="matrix(0.759092,-2.01752,2.01752,0.759092,7.79518,4.54874)"><stop offset="0" style="stop-color:rgb(90,189,255);stop-opacity:1"/><stop offset="1" style="stop-color:rgb(157,215,255);stop-opacity:1"/></linearGradient><linearGradient id="_Linear-15gokob" x1="0" y1="0" x2="1" y2="0" gradientUnits="userSpaceOnUse" gradientTransform="matrix(6.18544,3.3958,-3.3958,6.18544,8.46035,1.90398)"><stop offset="0" style="stop-color:rgb(188,230,255);stop-opacity:1"/><stop offset="1" style="stop-color:rgb(143,215,255);stop-opacity:1"/></linearGradient><linearGradient id="_Linear-myxho7o" x1="0" y1="0" x2="1" y2="0" gradientUnits="userSpaceOnUse" gradientTransform="matrix(1.17696,1.00967,-1.00967,1.17696,14.627,6.46041)"><stop offset="0" style="stop-color:rgb(82,185,254);stop-opacity:1"/><stop offset="1" style="stop-color:rgb(83,186,255);stop-opacity:1"/></linearGradient></defs></svg>