<svg width="100%" height="100%" viewBox="0 0 18 16" version="1.1" xmlns="http://www.w3.org/2000/svg" xmlns:xlink="http://www.w3.org/1999/xlink" xml:space="preserve" style="fill-rule:evenodd;clip-rule:evenodd;stroke-linejoin:round;stroke-miterlimit:2;"><g id="sqlalchemy-light" transform="matrix(1.09888,0,0,1.09888,-0.843373,-1.09978)"><path d="M4.509,5.658L4.305,5.442L4.109,5.917L3.847,5.917C3.847,5.917 3.457,5.608 3.013,5.607C2.569,5.605 2.265,5.742 1.661,6.175C1.057,6.607 0.99,6.859 0.995,7.144C1,7.428 1.116,7.754 1.258,7.921C1.399,8.087 1.722,8.238 1.995,8.238C2.267,8.237 2.378,8.137 2.597,7.91C2.816,7.683 3.041,7.494 3.203,7.509C3.365,7.523 3.675,7.822 3.725,7.951C3.776,8.08 3.813,8.189 3.806,8.33C3.799,8.472 3.551,8.816 3.105,8.814C2.658,8.812 1.758,8.26 1.758,8.26L1.259,9.1C1.259,9.1 2.224,9.365 2.914,9.362C3.604,9.36 3.771,9.187 4.038,8.869C4.305,8.551 4.447,8.207 4.442,7.963C4.437,7.72 4.437,7.437 4.039,7.139C3.641,6.84 3.365,6.791 3.098,7.051C2.831,7.311 2.535,7.581 2.43,7.702C2.324,7.822 2.213,7.74 2.114,7.606C2.015,7.472 1.956,7.327 1.874,7.206C1.791,7.086 1.723,6.972 1.731,6.821C1.739,6.669 1.851,6.562 2.027,6.441C2.203,6.321 2.415,6.184 2.663,6.182C2.91,6.179 3.186,6.244 3.414,6.39C3.642,6.537 3.827,6.711 3.827,6.711L4.028,6.71C4.028,6.71 4.308,5.979 4.392,5.809C4.418,5.755 4.509,5.658 4.509,5.658Z" style="fill:rgb(214,214,214);"/><path d="M7.31,5.521C7.761,5.513 8.031,5.59 8.36,5.85C8.688,6.11 8.804,6.389 8.839,6.983C8.873,7.578 8.624,8.3 8.197,8.709C7.769,9.118 7.341,9.264 6.789,9.277C6.236,9.291 5.699,8.851 5.481,8.629C5.263,8.408 4.926,8.093 4.933,7.451C4.94,6.81 5.271,6.423 5.884,6.007C6.497,5.591 6.859,5.528 7.31,5.521ZM6.846,6.121C6.449,6.119 6.221,6.225 6.002,6.409C5.782,6.593 5.692,6.782 5.688,7.101C5.685,7.421 5.822,7.819 6.204,8.161C6.597,8.512 6.926,8.685 7.3,8.661C7.798,8.629 8.221,8.165 8.17,7.383C8.143,6.967 7.953,6.567 7.654,6.349C7.392,6.158 7.031,6.122 6.846,6.121Z" style="fill:rgb(214,214,214);"/><path d="M5.959,10.402L5.969,10.18C5.969,10.18 6.292,9.78 6.369,9.692C6.406,9.651 6.583,9.544 6.763,9.531C6.961,9.516 7.163,9.597 7.163,9.597C7.163,9.597 8.848,10.355 9,10.437C9.152,10.519 9.355,10.657 9.565,10.649C9.775,10.642 9.962,10.519 10.046,10.289C10.13,10.059 10.128,9.94 10.128,9.94L10.279,9.94C10.279,9.94 10.287,10.554 10.031,10.852C9.774,11.149 9.389,11.225 8.769,10.946C8.149,10.668 7.476,10.281 7.169,10.129C6.863,9.977 6.546,9.881 6.336,10.077C6.202,10.201 6.038,10.405 6.038,10.405L5.959,10.402Z" style="fill:rgb(214,214,214);"/><path d="M9.245,5.69L9.243,5.917C9.243,5.917 9.555,5.901 9.673,6.027C9.79,6.152 9.796,6.198 9.798,6.325C9.799,6.452 9.791,8.528 9.798,8.662C9.804,8.797 9.735,9.055 9.588,9.057C9.441,9.059 9.328,9.06 9.328,9.06L9.326,9.346L9.403,9.35C9.403,9.35 9.365,9.277 9.591,9.277C9.817,9.277 11.923,9.277 12.088,9.277C12.253,9.277 12.3,9.348 12.3,9.348L12.359,9.35C12.359,9.35 12.4,8.907 12.422,8.662C12.443,8.434 12.517,8.084 12.517,8.084L12.365,8.084C12.365,8.084 12.353,8.306 12.219,8.499C12.085,8.691 11.708,8.955 11.251,8.948C10.795,8.942 10.607,8.711 10.603,8.45C10.599,8.189 10.601,6.545 10.603,6.385C10.604,6.296 10.676,6.133 10.813,6.033C10.918,5.957 11.161,5.919 11.161,5.919L11.165,5.69L9.245,5.69Z" style="fill:rgb(214,214,214);"/><path d="M12.843,9.277L12.839,9.057C12.839,9.057 12.967,9.038 13.054,8.968C13.141,8.898 13.187,8.777 13.187,8.777C13.187,8.775 14.62,5.69 14.62,5.69L15.042,5.69L16.623,8.899C16.623,8.899 16.694,8.998 16.741,9.023C16.789,9.05 16.919,9.057 16.919,9.057L16.92,9.277L15.243,9.277L15.24,9.062L15.488,9.057C15.682,9.053 15.769,8.871 15.693,8.718C15.629,8.591 15.352,8.084 15.352,8.084L13.948,8.084C13.948,8.084 13.646,8.639 13.595,8.818C13.543,8.997 13.776,9.057 13.776,9.057L14.112,9.057L14.121,9.277L12.843,9.277ZM14.052,7.844L15.196,7.844L14.635,6.626L14.052,7.844Z" style="fill:rgb(255,110,85);"/></g></svg>