<svg width="100%" height="100%" viewBox="0 0 18 16" version="1.1" xmlns="http://www.w3.org/2000/svg" xmlns:xlink="http://www.w3.org/1999/xlink" xml:space="preserve" style="fill-rule:evenodd;clip-rule:evenodd;stroke-linejoin:round;stroke-miterlimit:2;"><g id="sqlite" transform="matrix(0.094588,0,0,0.094588,1.34819,-0.44588)"><path id="solid-background" d="M121.632,17.036L22.126,17.036C15.457,17.036 10,22.494 10,29.162L10,138.899C10,145.567 15.457,151.024 22.126,151.024L87.663,151.024C86.919,118.415 98.054,55.13 121.632,17.036Z" style="fill:rgb(15,128,204);fill-rule:nonzero;"/><path id="gradient-background" d="M118.016,20.574L22.125,20.574C17.39,20.574 13.537,24.426 13.537,29.162L13.537,130.893C35.254,122.558 67.849,115.366 90.386,115.692C94.915,92.011 108.226,45.602 118.016,20.574Z" style="fill:url(#_Linear-lajpdyc);fill-rule:nonzero;"/><path id="feather" d="M144.842,13.445C138.027,7.367 129.775,9.809 121.631,17.036C120.423,18.11 119.216,19.301 118.016,20.574C104.085,35.352 91.154,62.727 87.137,83.634C88.702,86.807 89.924,90.857 90.729,93.951C90.935,94.745 91.122,95.49 91.27,96.124C91.624,97.624 91.814,98.596 91.814,98.596C91.814,98.596 91.689,98.124 91.177,96.637C91.079,96.352 90.97,96.041 90.842,95.675C90.787,95.524 90.71,95.34 90.627,95.144C89.718,93.031 87.204,88.572 86.098,86.631C85.152,89.422 84.315,92.034 83.615,94.396C86.809,100.24 88.755,110.254 88.755,110.254C88.755,110.254 88.587,109.605 87.784,107.34C87.072,105.336 83.523,99.119 82.682,97.665C81.244,102.974 80.673,106.558 81.188,107.43C82.188,109.121 83.141,112.039 83.978,115.265C85.868,122.534 87.182,131.382 87.182,131.382C87.182,131.382 87.224,131.969 87.295,132.871C87.033,138.975 87.19,145.304 87.663,151.024C88.289,158.596 89.468,165.101 90.97,168.582L91.99,168.026C89.784,161.167 88.888,152.179 89.28,141.812C89.874,125.967 93.52,106.859 100.258,86.942C111.64,56.877 127.433,32.755 141.887,21.235C128.713,33.132 110.883,71.644 105.545,85.905C99.569,101.875 95.334,116.861 92.782,131.22C97.185,117.759 111.424,111.973 111.424,111.973C111.424,111.973 118.408,103.36 126.569,91.055C121.68,92.17 113.653,94.079 110.964,95.209C106.998,96.872 105.929,97.44 105.929,97.44C105.929,97.44 118.777,89.616 129.799,86.074C144.958,62.199 161.473,28.281 144.842,13.445" style="fill:rgb(0,59,87);fill-rule:nonzero;"/></g><defs><linearGradient id="_Linear-lajpdyc" x1="0" y1="0" x2="1" y2="0" gradientUnits="userSpaceOnUse" gradientTransform="matrix(-4.45903e-06,101.926,-101.926,-4.45903e-06,73.7814,22.8313)"><stop offset="0" style="stop-color:rgb(151,217,246);stop-opacity:1"/><stop offset="0.92" style="stop-color:rgb(15,128,204);stop-opacity:1"/><stop offset="1" style="stop-color:rgb(15,128,204);stop-opacity:1"/></linearGradient></defs></svg>