<svg width="100%" height="100%" viewBox="0 0 18 16" version="1.1" xmlns="http://www.w3.org/2000/svg" xmlns:xlink="http://www.w3.org/1999/xlink" xml:space="preserve" style="fill-rule:evenodd;clip-rule:evenodd;stroke-linejoin:round;stroke-miterlimit:2;"><g transform="matrix(1.16667,0,0,1.16667,-1.5,-0.549473)"><g id="ssh"><g><g transform="matrix(1.27742,0,0,1.07549,-2.68864,-1.82127)"><path d="M5.562,12.414C5.129,12.27 4.836,12.118 4.683,11.959C4.53,11.8 4.453,11.586 4.453,11.317C4.453,10.971 4.579,10.7 4.832,10.503C5.084,10.305 5.43,10.207 5.87,10.207C6.07,10.207 6.27,10.227 6.47,10.267C6.67,10.307 6.868,10.366 7.063,10.444L7.063,11.179C6.879,11.065 6.692,10.978 6.502,10.919C6.312,10.859 6.124,10.829 5.937,10.829C5.73,10.829 5.571,10.866 5.46,10.939C5.349,11.012 5.294,11.117 5.294,11.253C5.294,11.359 5.334,11.446 5.415,11.515C5.495,11.584 5.664,11.66 5.92,11.743L6.289,11.866C6.639,11.978 6.896,12.127 7.061,12.312C7.225,12.498 7.308,12.732 7.308,13.014C7.308,13.399 7.178,13.686 6.919,13.876C6.66,14.065 6.269,14.16 5.745,14.16C5.53,14.16 5.314,14.138 5.098,14.093C4.881,14.047 4.672,13.981 4.471,13.892L4.471,13.114C4.7,13.257 4.921,13.363 5.136,13.433C5.35,13.503 5.562,13.537 5.771,13.537C5.983,13.537 6.147,13.495 6.263,13.411C6.38,13.327 6.438,13.209 6.438,13.058C6.438,12.944 6.399,12.844 6.321,12.758C6.244,12.672 6.131,12.604 5.984,12.555L5.562,12.414Z" style="fill:rgb(114,134,149);fill-rule:nonzero;"/><path d="M8.852,12.414C8.419,12.27 8.126,12.118 7.973,11.959C7.82,11.8 7.743,11.586 7.743,11.317C7.743,10.971 7.869,10.7 8.122,10.503C8.374,10.305 8.72,10.207 9.16,10.207C9.36,10.207 9.56,10.227 9.76,10.267C9.96,10.307 10.158,10.366 10.353,10.444L10.353,11.179C10.169,11.065 9.982,10.978 9.792,10.919C9.602,10.859 9.414,10.829 9.227,10.829C9.02,10.829 8.861,10.866 8.75,10.939C8.639,11.012 8.584,11.117 8.584,11.253C8.584,11.359 8.624,11.446 8.705,11.515C8.785,11.584 8.954,11.66 9.21,11.743L9.579,11.866C9.929,11.978 10.186,12.127 10.351,12.312C10.515,12.498 10.598,12.732 10.598,13.014C10.598,13.399 10.468,13.686 10.209,13.876C9.95,14.065 9.559,14.16 9.035,14.16C8.82,14.16 8.604,14.138 8.388,14.093C8.171,14.047 7.962,13.981 7.761,13.892L7.761,13.114C7.99,13.257 8.211,13.363 8.426,13.433C8.64,13.503 8.852,13.537 9.061,13.537C9.273,13.537 9.437,13.495 9.553,13.411C9.67,13.327 9.728,13.209 9.728,13.058C9.728,12.944 9.689,12.844 9.611,12.758C9.534,12.672 9.421,12.604 9.274,12.555L8.852,12.414Z" style="fill:rgb(114,134,149);fill-rule:nonzero;"/><path d="M11.057,10.275L11.915,10.275L11.915,11.728L12.989,11.728L12.989,10.275L13.847,10.275L13.847,14.086L12.989,14.086L12.989,12.391L11.915,12.391L11.915,14.086L11.057,14.086L11.057,10.275Z" style="fill:rgb(114,134,149);fill-rule:nonzero;"/></g><g transform="matrix(1.03983,0,0,1.03983,-1.28282,-1.44047)"><rect x="7.995" y="6.688" width="4.435" height="0.693" style="fill:rgb(114,134,149);"/></g><g transform="matrix(1.03983,0,0,1.03983,-1.28282,-1.44047)"><path d="M3.584,2.435L3.584,3.245L6.214,4.349L3.584,5.47L3.584,6.336L7.508,4.709L7.508,4.032L3.584,2.435Z" style="fill:rgb(114,134,149);"/></g></g></g></g></svg>