<svg width="100%" height="100%" viewBox="0 0 18 16" version="1.1" xmlns="http://www.w3.org/2000/svg" xmlns:xlink="http://www.w3.org/1999/xlink" xml:space="preserve" style="fill-rule:evenodd;clip-rule:evenodd;stroke-linejoin:round;stroke-miterlimit:2;"><g id="storybook"><g transform="matrix(1.1552,0,0,1.26077,-2.71314,-3.78315)"><path d="M13.667,3.983C13.835,3.973 14,4.027 14.122,4.132C14.245,4.237 14.315,4.385 14.314,4.539C14.309,6.411 14.294,12.159 14.29,13.931C14.289,14.069 14.228,14.2 14.119,14.295C14.011,14.39 13.865,14.44 13.715,14.434C12.087,14.37 7.458,14.187 6.029,14.13C5.788,14.12 5.596,13.943 5.587,13.723C5.525,12.169 5.296,6.437 5.235,4.895C5.226,4.681 5.404,4.499 5.638,4.485C7.088,4.394 11.909,4.093 13.667,3.983Z" style="fill:rgb(255,71,133);"/></g><path d="M11.106,1.371C11.106,1.371 11.087,2.422 11.079,2.889C11.078,2.929 11.101,2.967 11.137,2.985C11.173,3.003 11.217,2.999 11.249,2.974C11.469,2.802 11.822,2.528 11.822,2.528C11.822,2.528 12.1,2.753 12.292,2.91C12.325,2.937 12.37,2.942 12.408,2.923C12.446,2.905 12.47,2.866 12.469,2.824C12.461,2.343 12.444,1.281 12.444,1.281L11.106,1.371Z" style="fill:white;"/><path d="M8.772,3.481C7.42,3.499 6.061,4.147 6.098,5.762C6.135,7.378 7.453,8.035 8.079,8.37C8.706,8.705 9.359,9.074 9.369,9.628C9.377,10.14 9.04,10.288 8.809,10.284C8.578,10.279 8.146,10.168 8.13,9.722C8.119,9.419 8.133,9.108 8.063,9.047C7.993,8.986 7.665,8.91 7.069,8.919C6.474,8.928 6.22,8.938 6.125,8.991C6.03,9.043 6.013,9.193 6.024,9.627C6.035,10.06 6.193,11.994 8.806,11.965C10.306,11.949 11.56,11.058 11.558,9.685C11.555,8.313 10.667,7.607 9.267,6.874C8.21,6.321 8.189,5.925 8.187,5.73C8.184,5.535 8.348,5.191 8.816,5.19C9.235,5.19 9.378,5.442 9.418,5.567C9.457,5.692 9.431,6.188 9.499,6.246C9.567,6.304 9.592,6.382 10.352,6.357C11.111,6.332 11.332,6.204 11.39,6.138C11.449,6.072 11.45,5.693 11.331,5.265C11.212,4.837 10.827,3.452 8.772,3.481Z" style="fill:white;"/></g></svg>