<svg width="100%" height="100%" viewBox="0 0 18 16" version="1.1" xmlns="http://www.w3.org/2000/svg" xmlns:xlink="http://www.w3.org/1999/xlink" xml:space="preserve" style="fill-rule:evenodd;clip-rule:evenodd;stroke-linejoin:round;stroke-miterlimit:2;"><g id="streetsidesoftware"><g transform="matrix(1.12536,0,0,1.23245,-0.188037,-0.116223)"><rect x="6.674" y="8.716" width="8.155" height="3.955" style="fill:rgb(181,26,0);"/></g><g transform="matrix(1.12536,0,0,1.23245,-0.188037,-0.116223)"><rect x="1.5" y="0.5" width="4.14" height="7.377" style="fill:white;"/></g><g transform="matrix(1.12536,0,0,1.23245,-0.188037,-0.116223)"><rect x="1.5" y="8.716" width="4.14" height="3.955" style="fill:rgb(181,26,0);"/></g><g transform="matrix(1.12536,0,0,1.23245,-0.188037,-0.116223)"><rect x="6.674" y="0.5" width="8.155" height="7.377" style="fill:rgb(245,236,0);"/></g><g transform="matrix(1.74279,0,0,1.38592,-4.67498,0)"><path d="M6.217,7.667L3.543,7.667L3.543,6.921L6.217,6.921L6.217,0.361L6.884,0.361L6.884,6.921L12.15,6.921L12.15,7.667L6.884,7.667L6.884,11.184L6.217,11.184L6.217,7.667Z"/></g></g></svg>