<svg width="100%" height="100%" viewBox="0 0 18 16" version="1.1" xmlns="http://www.w3.org/2000/svg" xmlns:xlink="http://www.w3.org/1999/xlink" xml:space="preserve" style="fill-rule:evenodd;clip-rule:evenodd;stroke-linejoin:round;stroke-miterlimit:2;"><g id="stylelint-light" transform="matrix(0.0738807,0,0,0.0738807,0.955488,-0.399899)"><g transform="matrix(7.43576,0,0,7.43576,0.516352,9.65227)"><path d="M14.767,27.573C17.877,16.383 17.787,16.333 20.034,8.356L20.574,8.67C20.868,8.84 21.108,8.7 21.108,8.36L21.108,4.557C21.704,2.455 22.172,0.831 22.308,0.342L24.743,0.342L28.788,4.114L26.132,6.424L28.142,8.61L14.9,27.573C14.835,27.68 14.745,27.656 14.765,27.573L14.767,27.573Z" style="fill:white;"/></g><g transform="matrix(7.43576,0,0,7.43576,0.516352,9.65227)"><path d="M16.214,3.457C16.334,3.457 16.431,3.523 16.431,3.607L16.431,5.557C16.431,5.637 16.341,5.705 16.221,5.705L12.951,5.705C12.831,5.705 12.731,5.638 12.731,5.555L12.731,3.605C12.731,3.523 12.831,3.457 12.951,3.457L16.221,3.457L16.214,3.457ZM20.25,1.297L16.652,3.387C16.694,3.452 16.719,3.527 16.719,3.607L16.719,5.557C16.719,5.657 16.679,5.747 16.609,5.822L20.239,7.932C20.479,8.077 20.689,7.959 20.689,7.672L20.689,1.56C20.689,1.272 20.479,1.154 20.239,1.298L20.25,1.297ZM12.437,5.557L12.437,3.607C12.437,3.527 12.462,3.452 12.503,3.387L8.905,1.297C8.658,1.154 8.455,1.272 8.455,1.559L8.455,7.669C8.455,7.959 8.657,8.069 8.905,7.929L12.54,5.819C12.475,5.739 12.436,5.649 12.436,5.549L12.437,5.557Z" style="fill:white;"/></g><g transform="matrix(7.43576,0,0,7.43576,0.516352,9.65227)"><path d="M14.246,27.573L14.38,27.573C11.27,16.383 11.36,16.333 9.114,8.356L8.574,8.67C8.28,8.84 8.039,8.7 8.039,8.36L8.039,4.557C7.44,2.454 6.97,0.83 6.83,0.34L4.4,0.34L0.36,4.113L3.015,6.423L1.005,8.609L14.245,27.569L14.246,27.573Z" style="fill:white;"/></g><g transform="matrix(7.43576,0,0,7.43576,0.516352,9.65227)"><ellipse cx="14.475" cy="8.787" rx="0.982" ry="0.988" style="fill:white;"/></g><g transform="matrix(7.43576,0,0,7.43576,0.516352,9.65227)"><ellipse cx="14.475" cy="14.664" rx="0.982" ry="0.988" style="fill:white;"/></g><g transform="matrix(7.43576,0,0,7.43576,0.516352,9.65227)"><ellipse cx="14.475" cy="20.541" rx="0.982" ry="0.988" style="fill:white;"/></g></g></svg>