<svg width="100%" height="100%" viewBox="0 0 18 16" version="1.1" xmlns="http://www.w3.org/2000/svg" xmlns:xlink="http://www.w3.org/1999/xlink" xml:space="preserve" style="fill-rule:evenodd;clip-rule:evenodd;stroke-linejoin:round;stroke-miterlimit:2;"><g id="sublimemerge" transform="matrix(0.238487,0,0,0.238487,3.80001,2.03804)"><g><g transform="matrix(4.32828,0,0,4.70743,-14.1831,-11.0834)"><path d="M15.532,1.958L15.532,13.372C15.532,13.885 15.079,14.301 14.521,14.301L2.108,14.301C1.55,14.301 1.097,13.885 1.097,13.372L1.097,1.958C1.097,1.445 1.55,1.029 2.108,1.029L14.521,1.029C15.079,1.029 15.532,1.445 15.532,1.958Z" style="fill:url(#_Linear-jfv5l85);"/></g><path d="M23.234,31.422C23.019,31.437 22.796,31.381 22.606,31.248L0.416,15.711C-0.025,15.401 -0.133,14.792 0.177,14.35L6.433,5.416C6.742,4.974 7.352,4.866 7.793,5.176L26.924,18.571L38.023,18.571C38.297,18.571 38.544,18.684 38.722,18.865C38.748,18.892 39.046,19.16 39.455,19.603L44.161,24.309C44.542,24.69 44.542,25.309 44.161,25.691L39.213,30.638L39.213,30.633C38.923,30.946 38.726,31.134 38.705,31.154C38.529,31.326 38.288,31.432 38.023,31.432L23.242,31.432L23.234,31.422Z" style="fill:rgb(136,217,217);"/><path d="M23.238,18.577L23.242,18.571L38.023,18.571C38.288,18.571 38.529,18.677 38.705,18.849C38.726,18.869 38.927,19.06 39.222,19.379L39.222,19.37L44.161,24.309C44.542,24.69 44.542,25.309 44.161,25.691L39.491,30.36C39.064,30.827 38.748,31.11 38.722,31.137C38.544,31.319 38.297,31.432 38.023,31.432L26.917,31.432L7.793,44.822C7.352,45.132 6.742,45.024 6.433,44.583L0.177,35.648C-0.133,35.206 -0.025,34.597 0.416,34.287L22.606,18.75C22.797,18.616 23.021,18.56 23.238,18.577Z" style="fill:rgb(0,230,231);"/></g></g><defs><linearGradient id="_Linear-jfv5l85" x1="0" y1="0" x2="1" y2="0" gradientUnits="userSpaceOnUse" gradientTransform="matrix(8.30793e-16,-12.4751,13.5679,7.63879e-16,8.31441,13.9683)"><stop offset="0" style="stop-color:rgb(64,64,64);stop-opacity:1"/><stop offset="1" style="stop-color:rgb(77,77,77);stop-opacity:1"/></linearGradient></defs></svg>