<svg width="100%" height="100%" viewBox="0 0 18 16" version="1.1" xmlns="http://www.w3.org/2000/svg" xmlns:xlink="http://www.w3.org/1999/xlink" xml:space="preserve" style="fill-rule:evenodd;clip-rule:evenodd;stroke-linejoin:round;stroke-miterlimit:2;"><g id="sublimelsp" transform="matrix(0.886848,0,0,0.886848,1.24504,1.1262)"><g transform="matrix(1.44566,0,0,1.60588,-1.881,-1.50904)"><path d="M13.176,1.131L13.176,10.409C13.176,10.757 12.862,11.04 12.475,11.04L2.201,11.04C1.814,11.04 1.5,10.757 1.5,10.409L1.5,1.131C1.5,0.783 1.814,0.5 2.201,0.5L12.475,0.5C12.862,0.5 13.176,0.783 13.176,1.131Z" style="fill:rgb(57,57,57);"/></g><g transform="matrix(1,0,0,1,1.74441,4.74441)"><path d="M0.687,3.95C0.705,4.172 0.686,3.923 0.686,3.923L0.686,1.622C0.686,1.476 0.804,1.357 0.95,1.358C1.096,1.358 1.215,1.476 1.215,1.622L1.215,3.92C1.216,3.953 1.231,4.118 1.41,4.118L3.94,4.118C4.086,4.118 4.205,4.236 4.204,4.382C4.204,4.528 4.086,4.647 3.94,4.646L1.41,4.646C0.761,4.647 0.693,4.066 0.687,3.95ZM12.59,3.263L10.29,3.263C10.114,3.262 10.097,3.422 10.095,3.458L10.095,3.46L10.094,4.378C10.094,4.524 9.976,4.643 9.83,4.643C9.684,4.642 9.565,4.524 9.565,4.378L9.566,3.457C9.566,3.457 9.587,3.247 9.567,3.43C9.573,3.314 9.641,2.734 10.29,2.734L12.581,2.734C12.581,2.734 12.786,2.665 12.786,2.308C12.786,2.233 12.788,2.127 12.764,2.028C12.752,1.982 12.739,1.934 12.699,1.907C12.672,1.888 12.636,1.883 12.59,1.883L9.83,1.883C9.684,1.883 9.566,1.764 9.566,1.618C9.565,1.472 9.684,1.354 9.83,1.354L12.59,1.354C13.255,1.354 13.315,1.976 13.315,2.308C13.315,2.676 13.203,2.892 13.086,3.025C12.867,3.271 12.59,3.263 12.59,3.263Z" style="fill:rgb(227,219,219);"/></g><g transform="matrix(1,0,0,1,1.74441,4.74441)"><path d="M8.562,3.013C8.562,2.963 8.526,2.935 8.481,2.949L5.406,3.924C5.358,3.942 5.326,3.988 5.325,4.039L5.325,5.036C5.325,5.085 5.361,5.113 5.405,5.099L8.481,4.124C8.528,4.105 8.56,4.06 8.561,4.009L8.562,3.013Z" style="fill:rgb(255,152,0);fill-rule:nonzero;"/></g><g transform="matrix(1,0,0,1,1.74441,4.74441)"><path d="M5.325,2.981C5.325,3.031 5.361,3.081 5.405,3.096L8.481,4.071C8.526,4.085 8.561,4.057 8.561,4.008L8.561,3.011C8.561,2.961 8.526,2.911 8.481,2.896L5.406,1.921C5.361,1.907 5.325,1.935 5.325,1.985L5.325,2.981Z" style="fill:rgb(255,152,0);fill-rule:nonzero;"/></g><g transform="matrix(1,0,0,1,1.74441,4.74441)"><path d="M8.562,0.965C8.562,0.915 8.526,0.887 8.481,0.902L5.406,1.876C5.358,1.894 5.326,1.94 5.325,1.991L5.325,2.988C5.325,3.038 5.361,3.066 5.405,3.052L8.481,2.077C8.528,2.058 8.56,2.013 8.561,1.962L8.562,0.965Z" style="fill:rgb(255,152,0);fill-rule:nonzero;"/></g></g></svg>