<svg width="100%" height="100%" viewBox="0 0 18 16" version="1.1" xmlns="http://www.w3.org/2000/svg" xmlns:xlink="http://www.w3.org/1999/xlink" xml:space="preserve" style="fill-rule:evenodd;clip-rule:evenodd;stroke-linejoin:round;stroke-miterlimit:2;"><g id="sublimetext" transform="matrix(0.482759,0,0,0.482759,1.27586,0.0655172)"><g transform="matrix(2.13821,0,0,2.32551,-1.77798,-1.38935)"><path d="M15.532,1.958L15.532,13.372C15.532,13.885 15.079,14.301 14.521,14.301L2.108,14.301C1.55,14.301 1.097,13.885 1.097,13.372L1.097,1.958C1.097,1.445 1.55,1.029 2.108,1.029L14.521,1.029C15.079,1.029 15.532,1.445 15.532,1.958Z" style="fill:url(#_Linear-04xnnvy);"/></g><g transform="matrix(0.489514,0,0,0.489514,7.18875,3.50032)"><path d="M35.995,26.563C35.995,26.015 35.59,25.699 35.093,25.856L0.902,36.698C0.404,36.856 -0,37.429 -0,37.976L-0,49.057C-0,49.605 0.404,49.922 0.902,49.764L35.093,38.923C35.59,38.765 35.995,38.192 35.995,37.644L35.995,26.563Z" style="fill:url(#_Linear-3i3jrjq);"/><path d="M0,26.21C0,26.758 0.404,27.331 0.902,27.489L35.098,38.332C35.596,38.49 36,38.173 36,37.626L36,26.544C36,25.997 35.596,25.424 35.098,25.266L0.902,14.423C0.404,14.265 0,14.581 0,15.129L0,26.21Z" style="fill:rgb(255,152,0);"/><path d="M35.995,3.793C35.995,3.245 35.59,2.928 35.093,3.086L0.902,13.927C0.404,14.085 -0,14.658 -0,15.206L-0,26.287C-0,26.835 0.404,27.151 0.902,26.994L35.093,16.152C35.59,15.994 35.995,15.421 35.995,14.874L35.995,3.793Z" style="fill:rgb(255,152,0);"/></g></g><defs><linearGradient id="_Linear-04xnnvy" x1="0" y1="0" x2="1" y2="0" gradientUnits="userSpaceOnUse" gradientTransform="matrix(8.30793e-16,-12.4751,13.5679,7.63879e-16,8.31441,13.9683)"><stop offset="0" style="stop-color:rgb(64,64,64);stop-opacity:1"/><stop offset="1" style="stop-color:rgb(77,77,77);stop-opacity:1"/></linearGradient><linearGradient id="_Linear-3i3jrjq" x1="0" y1="0" x2="1" y2="0" gradientUnits="userSpaceOnUse" gradientTransform="matrix(3.08228,-10.3064,10.3064,3.08228,19.8394,42.498)"><stop offset="0" style="stop-color:rgb(255,151,0);stop-opacity:1"/><stop offset="0.53" style="stop-color:rgb(244,142,0);stop-opacity:1"/><stop offset="1" style="stop-color:rgb(208,111,0);stop-opacity:1"/></linearGradient></defs></svg>