<svg width="100%" height="100%" viewBox="0 0 18 16" version="1.1" xmlns="http://www.w3.org/2000/svg" xmlns:xlink="http://www.w3.org/1999/xlink" xml:space="preserve" style="fill-rule:evenodd;clip-rule:evenodd;stroke-linejoin:round;stroke-miterlimit:2;"><g id="sublimelinter"><g transform="matrix(1.0471,0,0,1.16669,-0.611984,-0.647012)"><path d="M16.342,4.455L16.342,10.369C16.342,12.285 14.609,13.84 12.474,13.84L5.885,13.84C3.75,13.84 2.017,12.285 2.017,10.369L2.017,4.455C2.017,2.539 3.75,0.983 5.885,0.983L12.474,0.983C14.609,0.983 16.342,2.539 16.342,4.455Z" style="fill:url(#_Linear-k2276w4);"/><path d="M16.342,4.455L16.342,10.369C16.342,12.285 14.609,13.84 12.474,13.84L5.885,13.84C3.75,13.84 2.017,12.285 2.017,10.369L2.017,4.455C2.017,2.539 3.75,0.983 5.885,0.983L12.474,0.983C14.609,0.983 16.342,2.539 16.342,4.455ZM16.283,4.455C16.283,2.568 14.576,1.037 12.474,1.037L5.885,1.037C3.783,1.037 2.077,2.568 2.077,4.455L2.077,10.369C2.077,12.255 3.783,13.787 5.885,13.787L12.474,13.787C14.576,13.787 16.283,12.255 16.283,10.369L16.283,4.455Z" style="fill:rgb(105,122,143);"/></g><path d="M4.345,13.001L3.81,12.477L5.284,10.972C5.354,10.901 5.449,10.86 5.549,10.86C5.65,10.859 5.746,10.899 5.817,10.969L7.039,12.192L8.213,10.966C8.283,10.892 8.381,10.851 8.483,10.85C8.584,10.85 8.682,10.891 8.753,10.965C8.753,10.965 9.939,12.19 9.939,12.189L11.129,10.964C11.199,10.892 11.296,10.851 11.397,10.85C11.498,10.85 11.595,10.891 11.666,10.963L12.871,12.193L14.07,10.979L14.604,11.506L13.137,12.992C13.066,13.063 12.97,13.103 12.869,13.103C12.769,13.103 12.673,13.062 12.602,12.991C12.602,12.991 11.399,11.762 11.399,11.762L10.207,12.99C10.136,13.062 10.039,13.103 9.938,13.103C9.836,13.103 9.739,13.062 9.669,12.989L8.485,11.766L7.316,12.988C7.246,13.06 7.15,13.102 7.049,13.103C6.948,13.104 6.851,13.065 6.78,12.993L5.554,11.768L4.345,13.001Z" style="fill:rgb(236,95,103);fill-opacity:0.89;"/><path d="M3.668,9.245C3.668,9.245 4.846,10.266 6.453,10.253C8.087,10.239 9.16,9.061 9.151,7.95C9.142,6.905 8.533,6.446 7.707,6.098C6.881,5.751 6.286,5.721 6.3,5.396C6.315,5.047 6.627,5.07 6.893,5.07C7.519,5.069 7.944,5.617 7.944,5.617L9.29,4.267C9.29,4.267 8.404,3.29 6.721,3.272C5.05,3.254 4.044,4.323 4.05,5.428C4.057,6.533 4.654,7.029 5.418,7.321C6.182,7.614 6.87,7.772 6.895,8.062C6.92,8.351 6.725,8.392 6.394,8.395C5.657,8.402 4.993,7.777 4.993,7.777L3.668,9.245Z" style="fill:white;"/><g transform="matrix(1.02412,0,0,0.873096,1.57427,3.29161)"><path d="M10.191,0.242L10.191,5.552L12.317,5.552L12.317,7.703L8.057,7.703L8.057,0.242L10.191,0.242Z" style="fill:white;fill-rule:nonzero;"/></g></g><defs><linearGradient id="_Linear-k2276w4" x1="0" y1="0" x2="1" y2="0" gradientUnits="userSpaceOnUse" gradientTransform="matrix(-0.0228819,-11.857,13.2112,-0.0205366,8.9466,13.4285)"><stop offset="0" style="stop-color:rgb(48,56,65);stop-opacity:1"/><stop offset="1" style="stop-color:rgb(52,60,70);stop-opacity:1"/></linearGradient></defs></svg>