<svg width="100%" height="100%" viewBox="0 0 18 16" version="1.1" xmlns="http://www.w3.org/2000/svg" xmlns:xlink="http://www.w3.org/1999/xlink" xml:space="preserve" style="fill-rule:evenodd;clip-rule:evenodd;stroke-linejoin:round;stroke-miterlimit:2;"><g id="sublime-1" transform="matrix(1.07022,0,0,1.07022,-0.6378,-0.392699)"><g style="filter:url(#_Effect-xl26x93);"><path d="M2.922,3.191C2.931,3.009 3.099,2.592 3.522,2.588C3.946,2.584 14.029,2.549 14.28,2.56C14.531,2.571 15.026,2.724 15.068,3.15C15.109,3.577 15.979,12.445 16.009,12.785C16.022,12.931 16.011,13.205 15.919,13.42C15.799,13.701 15.499,13.912 15.113,13.918C14.434,13.927 14.477,13.926 14.477,13.926C14.477,13.926 3.259,13.919 2.83,13.923C2.524,13.925 1.986,13.591 1.998,13.104C2.009,12.659 2.053,12.225 2.08,11.961C2.106,11.697 2.912,3.372 2.922,3.191Z"/></g><path d="M16.004,13.064C15.974,13.122 15.938,13.182 15.895,13.244C15.683,13.551 15.399,13.657 15.015,13.668C14.642,13.678 3.528,13.676 3.029,13.676C2.797,13.676 2.583,13.707 2.3,13.471C2.149,13.346 2.057,13.168 2.001,13.007C1.999,13.039 1.999,13.072 1.998,13.104C1.986,13.591 2.524,13.925 2.83,13.923C3.259,13.919 14.477,13.926 14.477,13.926L15.113,13.918C15.499,13.912 15.799,13.701 15.919,13.42C15.967,13.309 15.992,13.181 16.004,13.064Z" style="fill:url(#_Linear-1ooif28);"/><path d="M2.004,12.911C2.003,12.943 2.002,12.975 2.001,13.007C2.057,13.168 2.149,13.346 2.3,13.471C2.583,13.707 2.797,13.676 3.029,13.676C3.528,13.676 14.642,13.678 15.015,13.668C15.399,13.657 15.683,13.551 15.895,13.244C15.938,13.182 15.974,13.122 16.004,13.064C16.008,13.034 16.01,13.005 16.011,12.977C15.975,13.054 15.928,13.138 15.868,13.225C15.662,13.523 15.387,13.624 15.014,13.634C14.641,13.644 3.528,13.642 3.029,13.643C2.804,13.643 2.596,13.674 2.321,13.445C2.148,13.302 2.055,13.087 2.004,12.911Z" style="fill:rgb(245,245,245);fill-opacity:0.89;"/><path d="M2.004,12.911C2.021,12.536 2.057,12.186 2.08,11.961C2.106,11.697 2.912,3.372 2.922,3.191C2.931,3.009 3.099,2.592 3.522,2.588C3.946,2.584 14.029,2.549 14.28,2.56C14.531,2.571 15.026,2.724 15.068,3.15C15.109,3.577 15.979,12.445 16.009,12.785C16.013,12.836 16.015,12.903 16.011,12.977C15.975,13.054 15.928,13.138 15.868,13.225C15.662,13.523 15.387,13.624 15.014,13.634C14.641,13.644 3.528,13.642 3.029,13.643C2.804,13.643 2.596,13.674 2.321,13.445C2.148,13.302 2.055,13.087 2.004,12.911Z" style="fill:rgb(227,227,227);"/><path d="M2.789,11.427L2.79,11.458C2.79,11.458 2.731,11.831 2.759,12.07C2.795,12.365 3.085,12.687 3.569,12.685C4.037,12.683 14.031,12.692 14.401,12.686C14.771,12.681 15.19,12.382 15.185,12.013C15.179,11.643 15.139,11.424 15.139,11.424L15.141,11.405L15.134,11.409C15.134,11.409 15.126,11.686 15.102,11.82C15.079,11.954 15.066,12.134 14.887,12.298C14.707,12.462 14.432,12.514 14.352,12.514C14.273,12.515 3.784,12.518 3.691,12.518C3.598,12.517 3.305,12.502 3.044,12.285C2.782,12.068 2.806,11.454 2.806,11.454L2.789,11.427Z"/><path d="M15.216,10.768C15.187,10.83 15.15,10.894 15.104,10.953C14.937,11.166 14.62,11.255 14.466,11.25C14.34,11.246 3.56,11.252 3.471,11.252C3.38,11.252 3.269,11.26 2.988,11.088C2.871,11.017 2.791,10.907 2.738,10.803C2.742,10.83 2.745,10.851 2.748,10.869C2.758,10.94 2.782,11.315 2.789,11.427L2.806,11.454C2.806,11.454 2.782,12.068 3.044,12.285C3.305,12.502 3.598,12.517 3.691,12.518C3.784,12.518 14.273,12.515 14.352,12.514C14.432,12.514 14.707,12.462 14.887,12.298C15.066,12.134 15.079,11.954 15.102,11.82C15.126,11.686 15.134,11.409 15.134,11.409L15.141,11.405L15.216,10.768Z" style="fill:url(#_Linear-p3o75ea);"/><g transform="matrix(1,0,0,0.622423,0,4.72647)"><g style="filter:url(#_Effect-xb9t1pc);"><path d="M2.884,12.031C2.919,12.132 2.97,12.224 3.044,12.285C3.305,12.502 3.598,12.517 3.691,12.518C3.784,12.518 14.273,12.515 14.352,12.514C14.432,12.514 14.707,12.462 14.887,12.298C15.036,12.161 15.07,12.013 15.091,11.89L15.036,12.001C14.89,12.294 14.556,12.376 14.259,12.389C13.962,12.402 4.549,12.403 3.753,12.388C3.33,12.38 3.052,12.199 2.884,12.031Z" style="fill:rgb(39,39,39);"/></g></g><path d="M15.219,10.741L15.216,10.768C15.187,10.83 15.15,10.894 15.104,10.953C14.937,11.166 14.62,11.255 14.466,11.25C14.34,11.246 3.56,11.252 3.471,11.252C3.38,11.252 3.269,11.26 2.988,11.088C2.871,11.017 2.791,10.907 2.738,10.803C2.736,10.788 2.734,10.771 2.732,10.752C2.73,10.736 2.728,10.717 2.726,10.698C2.774,10.818 2.859,10.97 3.005,11.06C3.276,11.225 3.383,11.219 3.471,11.219C3.56,11.219 14.341,11.213 14.468,11.217C14.615,11.222 14.918,11.136 15.077,10.932C15.14,10.852 15.186,10.761 15.218,10.681L15.219,10.741Z" style="fill:rgb(190,190,190);"/><path d="M15.218,10.681L15.214,10.503C15.211,10.39 14.476,2.518 14.452,2.276C14.429,2.034 14.035,1.76 13.651,1.759C13.267,1.758 4.558,1.757 4.323,1.758C4.088,1.76 3.536,1.895 3.49,2.266C3.444,2.637 2.754,10.028 2.729,10.323C2.716,10.483 2.719,10.606 2.726,10.698C2.774,10.818 2.859,10.97 3.005,11.06C3.276,11.225 3.383,11.219 3.471,11.219C3.56,11.219 14.341,11.213 14.468,11.217C14.615,11.222 14.918,11.136 15.077,10.932C15.14,10.852 15.186,10.761 15.218,10.681Z" style="fill:rgb(94,94,94);"/><path d="M3.253,6.18C3.253,6.18 3.541,2.646 3.553,2.442C3.573,2.106 3.892,1.838 4.32,1.845C4.748,1.852 13.256,1.846 13.609,1.845C13.961,1.845 14.309,2.035 14.358,2.313C14.408,2.592 14.667,6.18 14.667,6.18L3.253,6.18Z" style="fill:url(#_Linear-illgowb);"/><g transform="matrix(1,0,0,1,0,-0.0605175)"><g style="filter:url(#_Effect-nyzznlw);"><path d="M10.633,4.825C10.862,4.584 10.751,4.384 10.472,4.22C10.193,4.057 9.56,3.896 8.935,3.901C8.311,3.905 7.237,4.066 6.838,4.899C6.438,5.733 7.094,6.143 7.304,6.262C7.513,6.38 7.833,6.508 8.238,6.613C8.643,6.718 9.177,6.843 9.442,6.996C9.707,7.149 9.749,7.351 9.748,7.461C9.747,7.571 9.676,8.171 8.799,8.149C7.922,8.127 7.661,7.754 7.057,7.766C6.453,7.778 6.212,8.377 6.599,8.663C6.987,8.949 7.82,9.244 8.958,9.225C10.078,9.206 11.262,8.676 11.292,7.544C11.307,7.01 11.018,6.482 10.35,6.18C9.681,5.878 8.926,5.789 8.469,5.596C8.022,5.406 8.118,4.823 8.684,4.758C9.271,4.691 9.595,4.88 9.866,4.948C10.137,5.015 10.457,5.01 10.633,4.825Z" style="fill:rgb(235,191,106);"/></g></g><g transform="matrix(1,0,0,1,0,-0.107042)"><path d="M10.633,4.825C10.862,4.584 10.751,4.384 10.472,4.22C10.193,4.057 9.56,3.896 8.935,3.901C8.311,3.905 7.237,4.066 6.838,4.899C6.438,5.733 7.094,6.143 7.304,6.262C7.513,6.38 7.833,6.508 8.238,6.613C8.643,6.718 9.177,6.843 9.442,6.996C9.707,7.149 9.749,7.351 9.748,7.461C9.747,7.571 9.676,8.171 8.799,8.149C7.922,8.127 7.661,7.754 7.057,7.766C6.453,7.778 6.212,8.377 6.599,8.663C6.987,8.949 7.82,9.244 8.958,9.225C10.078,9.206 11.262,8.676 11.292,7.544C11.307,7.01 11.018,6.482 10.35,6.18C9.681,5.878 8.926,5.789 8.469,5.596C8.022,5.406 8.118,4.823 8.684,4.758C9.271,4.691 9.595,4.88 9.866,4.948C10.137,5.015 10.457,5.01 10.633,4.825Z" style="fill:rgb(97,60,1);"/></g><path d="M10.633,4.825C10.862,4.584 10.751,4.384 10.472,4.22C10.193,4.057 9.56,3.896 8.935,3.901C8.311,3.905 7.237,4.066 6.838,4.899C6.438,5.733 7.094,6.143 7.304,6.262C7.513,6.38 7.833,6.508 8.238,6.613C8.643,6.718 9.177,6.843 9.442,6.996C9.707,7.149 9.749,7.351 9.748,7.461C9.747,7.571 9.676,8.171 8.799,8.149C7.922,8.127 7.661,7.754 7.057,7.766C6.453,7.778 6.212,8.377 6.599,8.663C6.987,8.949 7.82,9.244 8.958,9.225C10.078,9.206 11.262,8.676 11.292,7.544C11.307,7.01 11.018,6.482 10.35,6.18C9.681,5.878 8.926,5.789 8.469,5.596C8.022,5.406 8.118,4.823 8.684,4.758C9.271,4.691 9.595,4.88 9.866,4.948C10.137,5.015 10.457,5.01 10.633,4.825Z" style="fill:rgb(255,144,0);"/><path d="M6.419,8.228C6.39,8.385 6.444,8.549 6.599,8.663C6.987,8.949 7.82,9.244 8.958,9.225C10.078,9.206 11.262,8.676 11.292,7.544C11.296,7.389 11.275,7.235 11.226,7.087C11.239,7.171 11.252,7.256 11.258,7.325C11.269,7.44 11.272,7.618 11.252,7.71C11.189,7.992 10.995,8.621 10.062,8.979C9.13,9.337 7.902,9.122 7.32,8.968C6.74,8.814 6.556,8.57 6.501,8.497C6.457,8.437 6.432,8.329 6.419,8.228Z" style="fill:rgb(225,186,141);"/><path d="M7.62,6.412L10.739,6.412C10.627,6.325 10.498,6.247 10.35,6.18C9.681,5.878 8.926,5.789 8.469,5.596C8.022,5.406 8.118,4.823 8.684,4.758C9.271,4.691 9.595,4.88 9.866,4.948C10.137,5.015 10.457,5.01 10.633,4.825C10.722,4.732 10.76,4.644 10.756,4.563C10.62,4.367 10.317,4.222 10.046,4.141C9.475,3.97 8.396,3.883 7.687,4.229C7.459,4.34 7.28,4.447 7.136,4.592C6.932,4.799 6.807,5.037 6.729,5.217C6.609,5.839 7.122,6.159 7.304,6.262C7.391,6.311 7.497,6.362 7.62,6.412Z" style="fill:url(#_Linear-7zj2wb5);"/><path d="M6.712,5.355C6.731,5.464 6.767,5.621 6.84,5.778C6.899,5.907 7.051,6.056 7.246,6.18C7.473,6.325 7.758,6.44 8.022,6.511C8.508,6.644 9.297,6.863 9.461,6.966C9.617,7.064 9.69,7.152 9.72,7.231C9.748,7.305 9.759,7.363 9.746,7.415C9.735,7.301 9.674,7.129 9.442,6.996C9.177,6.843 8.643,6.718 8.238,6.613C7.833,6.508 7.513,6.38 7.304,6.262C7.136,6.167 6.685,5.887 6.712,5.355Z" style="fill:rgb(241,196,142);"/><path d="M10.689,4.397C10.721,4.493 10.744,4.622 10.677,4.712C10.557,4.873 10.392,4.959 10.193,4.958C9.994,4.956 9.744,4.86 9.636,4.822C9.529,4.783 9.184,4.684 8.895,4.699C8.606,4.714 8.495,4.745 8.363,4.837C8.303,4.878 8.226,4.971 8.213,5.048C8.211,5.061 8.21,5.073 8.209,5.085C8.265,4.926 8.425,4.788 8.684,4.758C9.271,4.691 9.595,4.88 9.866,4.948C10.137,5.015 10.457,5.01 10.633,4.825C10.786,4.665 10.787,4.522 10.689,4.397Z" style="fill:rgb(251,223,184);"/><path d="M10.756,4.563C10.751,4.434 10.643,4.32 10.472,4.22C10.193,4.057 9.56,3.896 8.935,3.901C8.311,3.905 7.237,4.066 6.838,4.899C6.783,5.013 6.748,5.119 6.729,5.217C6.807,5.037 6.932,4.799 7.136,4.592C7.28,4.447 7.459,4.34 7.687,4.229C8.396,3.883 9.475,3.97 10.046,4.141C10.317,4.222 10.62,4.367 10.756,4.563Z" style="fill:rgb(255,167,0);"/></g><defs><filter id="_Effect-xl26x93" filterUnits="userSpaceOnUse" x="0.952757" y="1.51306" width="16.1053" height="13.4581"><feGaussianBlur in="SourceGraphic" stdDeviation="0.174129"/></filter><linearGradient id="_Linear-1ooif28" x1="0" y1="0" x2="1" y2="0" gradientUnits="userSpaceOnUse" gradientTransform="matrix(13.9555,0.0580139,-0.0580139,13.9555,2.09272,13.5005)"><stop offset="0" style="stop-color:rgb(211,211,211);stop-opacity:1"/><stop offset="0.1" style="stop-color:rgb(169,169,169);stop-opacity:1"/><stop offset="0.88" style="stop-color:rgb(169,169,169);stop-opacity:1"/><stop offset="1" style="stop-color:rgb(213,213,213);stop-opacity:1"/></linearGradient><linearGradient id="_Linear-p3o75ea" x1="0" y1="0" x2="1" y2="0" gradientUnits="userSpaceOnUse" gradientTransform="matrix(12.1628,-0.00346586,0.00346586,12.1628,2.90847,11.6001)"><stop offset="0" style="stop-color:rgb(112,112,112);stop-opacity:1"/><stop offset="0.09" style="stop-color:rgb(50,50,50);stop-opacity:1"/><stop offset="0.91" style="stop-color:rgb(50,50,50);stop-opacity:1"/><stop offset="0.96" style="stop-color:rgb(90,90,90);stop-opacity:1"/><stop offset="1" style="stop-color:rgb(108,108,108);stop-opacity:1"/></linearGradient><filter id="_Effect-xb9t1pc" filterUnits="userSpaceOnUse" x="2.11715" y="10.6585" width="13.7404" height="3.09128"><feGaussianBlur in="SourceGraphic" stdDeviation="0.153435"/></filter><linearGradient id="_Linear-illgowb" x1="0" y1="0" x2="1" y2="0" gradientUnits="userSpaceOnUse" gradientTransform="matrix(0.118488,-3.85065,3.85065,0.118488,4.38461,5.85829)"><stop offset="0" style="stop-color:rgb(106,106,106);stop-opacity:1"/><stop offset="1" style="stop-color:rgb(180,180,180);stop-opacity:1"/></linearGradient><filter id="_Effect-nyzznlw" filterUnits="userSpaceOnUse" x="3.83014" y="1.3194" width="10.0437" height="10.4874"><feGaussianBlur in="SourceGraphic" stdDeviation="0.430196"/></filter><linearGradient id="_Linear-7zj2wb5" x1="0" y1="0" x2="1" y2="0" gradientUnits="userSpaceOnUse" gradientTransform="matrix(0.00999293,-2.29046,2.29046,0.00999293,8.79034,6.32337)"><stop offset="0" style="stop-color:rgb(255,177,67);stop-opacity:1"/><stop offset="1" style="stop-color:rgb(255,203,120);stop-opacity:1"/></linearGradient></defs></svg>