<svg width="100%" height="100%" viewBox="0 0 18 16" version="1.1" xmlns="http://www.w3.org/2000/svg" xmlns:xlink="http://www.w3.org/1999/xlink" xml:space="preserve" style="fill-rule:evenodd;clip-rule:evenodd;stroke-linejoin:round;stroke-miterlimit:2;"><g id="swagger" transform="matrix(0.139923,0,0,0.139923,1.95788,1.00007)"><g><g><g><g><path d="M50.328,97.669C24.058,97.669 2.685,76.298 2.685,50.027C2.685,23.756 24.058,2.385 50.328,2.385C76.598,2.385 97.971,23.758 97.971,50.028C97.971,76.298 76.598,97.669 50.328,97.669Z" style="fill:rgb(133,234,45);fill-rule:nonzero;"/></g><g><g><path d="M50.328,4.769C75.324,4.769 95.586,25.031 95.586,50.027C95.586,75.022 75.324,95.285 50.328,95.285C25.333,95.285 5.07,75.022 5.07,50.027C5.07,25.032 25.333,4.769 50.328,4.769M50.328,0C22.743,0 0.301,22.442 0.301,50.027C0.301,77.612 22.743,100.054 50.328,100.054C77.913,100.054 100.356,77.612 100.356,50.027C100.356,22.442 77.913,0 50.328,0Z" style="fill:rgb(23,54,71);fill-rule:nonzero;"/></g></g></g></g></g><path d="M31.802,33.854C31.648,35.566 31.859,37.336 31.745,39.067C31.61,40.799 31.398,42.511 31.052,44.223C30.571,46.666 29.051,48.513 26.955,50.052C31.034,52.707 31.495,56.823 31.764,60.998C31.899,63.249 31.841,65.519 32.072,67.75C32.245,69.481 32.918,69.924 34.708,69.981C35.439,70 36.188,69.981 37.036,69.981L37.036,75.329C31.746,76.233 27.379,74.733 26.301,70.251C25.954,68.616 25.723,66.942 25.647,65.249C25.531,63.46 25.723,61.671 25.589,59.882C25.204,54.976 24.569,53.322 19.876,53.091L19.876,46.993C20.222,46.916 20.549,46.858 20.895,46.82C23.473,46.685 24.569,45.896 25.127,43.357C25.397,41.934 25.551,40.491 25.608,39.029C25.801,36.24 25.724,33.393 26.204,30.623C26.877,26.641 29.34,24.717 33.438,24.486C34.592,24.428 35.766,24.486 37.093,24.486L37.093,29.95C36.535,29.989 36.054,30.065 35.554,30.065C32.226,29.949 32.052,31.084 31.802,33.854ZM38.208,46.512L38.131,46.512C36.207,46.416 34.553,47.916 34.456,49.84C34.36,51.783 35.86,53.438 37.784,53.533L38.015,53.533C39.92,53.649 41.554,52.186 41.67,50.282L41.67,50.09C41.709,48.147 40.151,46.551 38.208,46.512ZM50.27,46.512C48.404,46.454 46.845,47.916 46.788,49.763C46.788,49.879 46.788,49.975 46.808,50.09C46.808,52.187 48.231,53.534 50.386,53.534C52.502,53.534 53.83,52.149 53.83,49.975C53.81,47.878 52.405,46.493 50.27,46.512ZM62.621,46.512C60.659,46.473 59.023,48.032 58.966,49.994C58.966,51.956 60.543,53.533 62.505,53.533L62.544,53.533C64.314,53.841 66.103,52.129 66.219,50.071C66.314,48.166 64.583,46.512 62.621,46.512ZM79.569,46.8C77.337,46.704 76.221,45.954 75.664,43.837C75.317,42.491 75.106,41.086 75.029,39.701C74.875,37.123 74.894,34.526 74.721,31.948C74.317,25.831 69.893,23.696 63.467,24.753L63.467,30.063C64.486,30.063 65.275,30.063 66.064,30.082C67.43,30.101 68.469,30.621 68.603,32.141C68.738,33.526 68.738,34.93 68.873,36.335C69.143,39.125 69.296,41.952 69.777,44.703C70.201,46.973 71.759,48.666 73.701,50.051C70.297,52.34 69.296,55.61 69.123,59.285C69.027,61.805 68.969,64.344 68.835,66.884C68.719,69.192 67.912,69.942 65.584,70C64.93,70.019 64.295,70.077 63.564,70.116L63.564,75.56C64.93,75.56 66.18,75.637 67.43,75.56C71.316,75.329 73.663,73.444 74.433,69.673C74.76,67.595 74.952,65.499 75.01,63.402C75.144,61.478 75.126,59.535 75.318,57.631C75.606,54.649 76.972,53.418 79.954,53.226C80.243,53.187 80.512,53.13 80.782,53.034L80.782,46.935C80.281,46.877 79.934,46.82 79.569,46.8Z" style="fill:rgb(23,54,71);fill-rule:nonzero;"/></g></svg>