<svg width="100%" height="100%" viewBox="0 0 18 16" version="1.1" xmlns="http://www.w3.org/2000/svg" xmlns:xlink="http://www.w3.org/1999/xlink" xml:space="preserve" style="fill-rule:evenodd;clip-rule:evenodd;stroke-linecap:round;stroke-linejoin:round;stroke-miterlimit:1.5;"><g transform="matrix(1,0,0,1,-0.00830689,-0.00513648)"><g id="swc"><g transform="matrix(1.14167,0,0,0.930283,0.334962,1.12489)"><clipPath id="_clip1"><path d="M6.548,8.517C6.545,8.513 6.542,8.509 6.539,8.506L4.097,5.513C3.848,5.207 3.848,4.711 4.097,4.404C4.346,4.098 4.75,4.098 5,4.404L7.451,7.408C7.456,7.413 7.461,7.419 7.465,7.425L8.589,8.807C8.598,8.818 8.607,8.83 8.616,8.842C8.765,9.05 8.964,9.085 9.074,8.95C9.177,8.824 9.168,8.625 9.065,8.506C9.061,8.501 9.056,8.495 9.052,8.49L8.101,7.319C8.098,7.316 8.096,7.313 8.093,7.309C7.622,6.709 7.567,5.767 7.87,5.126C8.206,4.413 8.671,4.195 9.199,4.173C9.206,4.173 9.213,4.172 9.221,4.172L11.677,4.171L11.683,4.171C12.134,4.175 12.326,4.594 12.322,5.024C12.319,5.305 12.115,5.705 11.729,5.735C11.665,5.74 11.342,5.739 11.342,5.739C11.186,5.739 11.105,5.855 11.076,5.982C11.048,6.105 11.106,6.22 11.219,6.344C11.228,6.354 11.236,6.364 11.245,6.374L13.314,8.91C13.319,8.916 13.324,8.923 13.329,8.929C13.395,9.016 13.485,9.055 13.568,9.03C13.659,9.001 13.732,8.899 13.737,8.735C13.75,8.303 14.046,7.965 14.399,7.981C14.751,7.997 15.026,8.361 15.013,8.793C14.982,9.812 14.447,10.373 13.881,10.549C13.379,10.705 12.81,10.534 12.406,10.013C12.406,10.013 10.354,7.498 10.363,7.508C9.844,6.936 9.724,6.318 9.812,5.74C9.475,5.74 9.227,5.741 9.224,5.741C9.127,5.748 9.037,5.78 8.975,5.912C8.932,6.002 8.946,6.134 9.011,6.219C9.011,6.219 9.952,7.377 9.945,7.369C10.567,8.092 10.599,9.297 9.977,10.059C9.432,10.727 8.416,10.913 7.672,9.899L7.61,9.822C7.561,9.903 7.507,9.981 7.447,10.056C6.916,10.724 5.936,10.844 5.281,10.026C5.281,10.026 1.831,5.795 1.823,5.787C1.742,5.708 1.613,5.702 1.539,5.797C1.422,5.948 1.429,6.103 1.474,6.199L2.538,7.505C2.552,7.523 2.566,7.542 2.58,7.562C3.099,8.339 2.895,9.502 2.512,9.994C2.119,10.498 1.839,10.634 0.945,10.598C0.593,10.584 0.317,10.222 0.328,9.789C0.34,9.357 0.635,9.017 0.987,9.032C1.319,9.045 1.443,9.098 1.588,8.911C1.641,8.844 1.665,8.691 1.604,8.577L0.533,7.261C0.515,7.238 0.497,7.214 0.481,7.189C0.158,6.68 -0.127,5.67 0.614,4.716C1.165,4.007 2.145,4.011 2.707,4.654C2.712,4.66 2.717,4.666 2.722,4.672L6.184,8.917C6.186,8.918 6.187,8.92 6.189,8.922C6.294,9.054 6.449,9.067 6.534,8.96C6.632,8.837 6.645,8.66 6.548,8.517Z"/></clipPath><g clip-path="url(#_clip1)"><rect x="0.15" y="4.144" width="14.894" height="6.504" style="fill:url(#_Linear2);"/></g></g><path id="line" d="M1.438,10.256C2.136,10.279 2.369,10.239 2.676,9.918C2.926,9.656 3.056,9.036 2.716,8.622L1.46,7.364C1.243,7.086 1.067,6.536 1.564,6.015C1.923,5.639 2.562,5.646 2.928,5.987L6.88,9.936C7.316,10.38 7.964,10.33 8.316,9.97C8.707,9.57 8.754,8.988 8.326,8.532L5.528,5.737L8.326,8.532L9.624,9.833C10.135,10.411 10.834,10.342 11.21,9.967C11.625,9.553 11.6,8.9 11.186,8.508L10.1,7.419C9.792,7.1 9.753,6.599 9.95,6.259C10.18,5.862 10.502,5.748 10.862,5.736L13.673,5.735L13.284,5.735C12.69,5.735 12.389,6.099 12.278,6.493C12.18,6.843 12.263,7.218 12.658,7.571L15.02,9.93C15.288,10.217 15.668,10.317 16.004,10.232C16.379,10.137 16.726,9.828 16.746,9.278" style="fill:none;stroke:white;stroke-width:0.21px;"/></g></g><defs><linearGradient id="_Linear2" x1="0" y1="0" x2="1" y2="0" gradientUnits="userSpaceOnUse" gradientTransform="matrix(14.8944,0,0,6.50373,0.149852,7.39586)"><stop offset="0" style="stop-color:rgb(255,166,135);stop-opacity:1"/><stop offset="1" style="stop-color:rgb(241,227,38);stop-opacity:1"/></linearGradient></defs></svg>