<svg width="100%" height="100%" viewBox="0 0 18 16" version="1.1" xmlns="http://www.w3.org/2000/svg" xmlns:xlink="http://www.w3.org/1999/xlink" xml:space="preserve" style="fill-rule:evenodd;clip-rule:evenodd;stroke-linejoin:round;stroke-miterlimit:2;"><g id="symfony" transform="matrix(0.231089,0,0,0.231089,1.5,0.451471)"><circle cx="32.455" cy="32.665" r="32.455" style="fill:rgb(26,23,27);"/><path d="M46.644,12.219C43.347,12.334 40.469,14.151 38.327,16.665C35.955,19.421 34.377,22.69 33.24,26.027C31.206,24.36 29.637,22.202 26.374,21.261C23.852,20.537 21.203,20.836 18.767,22.651C17.613,23.513 16.818,24.816 16.44,26.041C15.461,29.224 17.469,32.057 18.381,33.074L20.375,35.211C20.786,35.63 21.776,36.723 21.292,38.29C20.769,39.994 18.715,41.097 16.608,40.447C15.667,40.16 14.315,39.459 14.618,38.472C14.743,38.068 15.032,37.766 15.187,37.417C15.329,37.117 15.397,36.892 15.44,36.76C15.825,35.503 15.299,33.868 13.953,33.453C12.697,33.068 11.412,33.373 10.914,34.99C10.349,36.827 11.228,40.161 15.937,41.613C21.454,43.308 26.121,40.304 26.783,36.386C27.2,33.932 26.092,32.109 24.062,29.764L22.408,27.935C21.406,26.934 21.062,25.228 22.099,23.917C22.974,22.811 24.22,22.339 26.261,22.894C29.24,23.703 30.568,25.77 32.784,27.437C31.869,30.438 31.271,33.45 30.73,36.151L30.4,38.165C28.816,46.473 27.607,51.035 24.465,53.654C23.832,54.104 22.927,54.778 21.563,54.825C20.848,54.847 20.617,54.355 20.607,54.141C20.59,53.639 21.013,53.409 21.294,53.183C21.714,52.954 22.349,52.574 22.306,51.357C22.26,49.919 21.069,48.672 19.347,48.729C18.057,48.773 16.091,49.987 16.165,52.209C16.242,54.504 18.381,56.224 21.606,56.115C23.33,56.056 27.18,55.354 30.974,50.844C35.39,45.674 36.625,39.747 37.554,35.409L38.591,29.682C39.167,29.751 39.783,29.797 40.453,29.813C45.953,29.929 48.704,27.08 48.745,25.008C48.772,23.754 47.922,22.52 46.732,22.548C45.88,22.572 44.81,23.139 44.553,24.317C44.302,25.473 46.303,26.516 44.739,27.529C43.628,28.248 41.636,28.755 38.831,28.343L39.341,25.524C40.382,20.178 41.666,13.602 46.537,13.442C46.892,13.424 48.191,13.458 48.221,14.317C48.23,14.604 48.159,14.677 47.823,15.334C47.481,15.846 47.352,16.282 47.368,16.783C47.415,18.148 48.453,19.045 49.954,18.991C51.964,18.926 52.542,16.969 52.509,15.964C52.428,13.603 49.939,12.111 46.644,12.219Z" style="fill:white;fill-rule:nonzero;"/></g></svg>