<svg width="100%" height="100%" viewBox="0 0 18 16" version="1.1" xmlns="http://www.w3.org/2000/svg" xmlns:xlink="http://www.w3.org/1999/xlink" xml:space="preserve" style="fill-rule:evenodd;clip-rule:evenodd;stroke-linejoin:round;stroke-miterlimit:2;"><g id="systemverilog-dark" transform="matrix(1.32999,0,0,1.32999,-2.98818,-2.63115)"><g transform="matrix(0.882311,0,0,1.04852,3.24841,-1.1756)"><path d="M2.07,5.585C2.05,5.609 2.039,5.623 2.039,5.623C2.039,5.623 2.074,5.447 2.396,5.125C2.58,4.941 2.856,4.711 3.273,4.439C4.114,3.89 5.445,3.391 7.267,3.353C7.46,3.349 7.658,3.35 7.861,3.356C10.583,3.446 12.942,4.763 12.969,6.267L11.702,6.261C11.702,6.261 11.69,6.249 11.69,6.224C11.69,5.144 9.475,3.884 6.798,3.884C4.686,3.884 2.885,4.534 2.2,5.443C2.14,5.504 2.096,5.554 2.07,5.585Z" style="fill:url(#_Linear-43tsku3);"/></g><g transform="matrix(-0.882311,0,0,-1.04852,14.779,17.1624)"><path d="M2.07,5.585C2.05,5.609 2.039,5.623 2.039,5.623C2.039,5.623 2.074,5.447 2.396,5.125C2.58,4.941 2.856,4.711 3.273,4.439C4.114,3.89 5.445,3.391 7.267,3.353C7.46,3.349 7.658,3.35 7.861,3.356C10.583,3.446 12.957,4.681 12.969,6.267L11.702,6.261C11.702,6.261 11.69,6.249 11.69,6.224C11.69,5.065 9.475,3.884 6.798,3.884C4.686,3.884 2.885,4.534 2.2,5.443C2.14,5.504 2.096,5.554 2.07,5.585Z" style="fill:url(#_Linear-n9mlgqn);"/></g><g transform="matrix(1.35419,0,0,1.57297,-1.24934,-3.51884)"><g transform="matrix(4.09139,0,0,3.6722,-12.7698,-20.3757)"><path d="M4.778,7.186C4.786,7.202 4.781,7.33 4.781,7.33L4.759,7.326C4.751,7.271 4.686,7.207 4.651,7.188C4.616,7.169 4.58,7.159 4.543,7.159C4.5,7.159 4.465,7.172 4.438,7.198C4.41,7.224 4.396,7.253 4.396,7.286C4.396,7.311 4.405,7.334 4.422,7.355C4.447,7.385 4.508,7.426 4.602,7.477C4.68,7.518 4.732,7.55 4.761,7.572C4.789,7.595 4.811,7.621 4.826,7.651C4.841,7.681 4.849,7.713 4.849,7.745C4.849,7.808 4.825,7.862 4.776,7.908C4.727,7.953 4.665,7.976 4.588,7.976C4.564,7.976 4.472,7.969 4.432,7.956C4.392,7.943 4.324,7.927 4.313,7.906C4.309,7.899 4.31,7.719 4.31,7.719L4.341,7.721C4.351,7.781 4.354,7.796 4.372,7.825C4.39,7.855 4.417,7.879 4.454,7.899C4.491,7.918 4.532,7.928 4.575,7.928C4.626,7.928 4.667,7.915 4.696,7.888C4.726,7.861 4.74,7.829 4.74,7.792C4.74,7.772 4.735,7.752 4.723,7.731C4.712,7.71 4.695,7.691 4.671,7.673C4.655,7.661 4.612,7.635 4.541,7.595C4.47,7.555 4.42,7.524 4.39,7.5C4.36,7.477 4.338,7.45 4.322,7.422C4.307,7.394 4.299,7.362 4.299,7.328C4.299,7.269 4.322,7.217 4.367,7.175C4.413,7.132 4.471,7.112 4.541,7.11C4.658,7.107 4.756,7.144 4.778,7.186Z" style="fill:rgb(74,57,146);fill-rule:nonzero;"/></g><g transform="matrix(4.17848,0,0,3.75486,-26.4078,-21.0349)"><path d="M8.789,7.129L8.789,7.152C8.76,7.157 8.738,7.166 8.723,7.18C8.701,7.2 8.682,7.23 8.665,7.271L8.377,7.976L8.354,7.976L8.044,7.262C8.028,7.225 8.017,7.203 8.011,7.195C8,7.182 7.988,7.172 7.973,7.165C7.958,7.158 7.938,7.154 7.913,7.152L7.913,7.129L8.251,7.129L8.251,7.152C8.213,7.155 8.188,7.162 8.177,7.171C8.165,7.181 8.159,7.193 8.159,7.207C8.159,7.228 8.169,7.259 8.188,7.302L8.398,7.788L8.593,7.308C8.613,7.261 8.622,7.229 8.622,7.21C8.622,7.198 8.616,7.187 8.604,7.176C8.593,7.166 8.573,7.158 8.545,7.153C8.543,7.153 8.539,7.152 8.534,7.152L8.534,7.129L8.789,7.129Z" style="fill:rgb(74,57,146);fill-rule:nonzero;"/></g></g></g><defs><linearGradient id="_Linear-43tsku3" x1="0" y1="0" x2="1" y2="0" gradientUnits="userSpaceOnUse" gradientTransform="matrix(-9.23266,-1.14675,1.36277,-7.76914,12.2036,5.96804)"><stop offset="0" style="stop-color:rgb(41,100,168);stop-opacity:1"/><stop offset="0.53" style="stop-color:rgb(85,130,178);stop-opacity:1"/><stop offset="1" style="stop-color:rgb(233,232,210);stop-opacity:1"/></linearGradient><linearGradient id="_Linear-n9mlgqn" x1="0" y1="0" x2="1" y2="0" gradientUnits="userSpaceOnUse" gradientTransform="matrix(-9.62831,-1.22199,1.45219,-8.10208,12.5992,6.04329)"><stop offset="0" style="stop-color:rgb(233,232,210);stop-opacity:1"/><stop offset="0.45" style="stop-color:rgb(82,128,177);stop-opacity:1"/><stop offset="1" style="stop-color:rgb(41,100,168);stop-opacity:1"/></linearGradient></defs></svg>