<svg width="100%" height="100%" viewBox="0 0 18 16" version="1.1" xmlns="http://www.w3.org/2000/svg" xmlns:xlink="http://www.w3.org/1999/xlink" xml:space="preserve" style="fill-rule:evenodd;clip-rule:evenodd;stroke-linejoin:round;stroke-miterlimit:2;"><g id="systemverilog"><g transform="matrix(1.01675,0,0,1.4373,0.147739,-0.23186)"><ellipse cx="8.706" cy="5.727" rx="6.88" ry="4.87" style="fill:white;"/><path d="M8.706,0.857C12.503,0.857 15.586,3.039 15.586,5.727C15.586,8.415 12.503,10.598 8.706,10.598C4.909,10.598 1.827,8.415 1.827,5.727C1.827,3.039 4.909,0.857 8.706,0.857ZM8.706,1.002C5.022,1.002 2.032,3.119 2.032,5.727C2.032,8.335 5.022,10.453 8.706,10.453C12.39,10.453 15.381,8.335 15.381,5.727C15.381,3.119 12.39,1.002 8.706,1.002Z" style="fill:rgb(172,172,172);"/></g><path d="M2.574,8.481L3.748,8.485C3.748,8.485 4.113,9.333 6.209,9.668C6.683,9.744 7.659,9.88 8.103,9.882C10.095,9.894 11.08,9.579 11.77,9.343C12.383,9.133 12.711,8.861 12.711,8.861C12.711,8.861 12.632,9.116 11.566,9.558C10.704,9.916 9.286,10.237 7.311,10.196C3.047,10.107 2.574,8.481 2.574,8.481Z" style="fill:url(#_Linear1);"/><g transform="matrix(-1,0,0,-1,18.0418,16.0525)"><path d="M2.574,8.481L3.748,8.485C3.748,8.485 4.113,9.333 6.209,9.668C6.683,9.744 7.659,9.88 8.103,9.882C10.095,9.894 11.08,9.579 11.77,9.343C12.383,9.133 12.711,8.861 12.711,8.861C12.711,8.861 12.632,9.116 11.566,9.558C10.704,9.916 9.286,10.237 7.311,10.196C3.047,10.107 2.574,8.481 2.574,8.481Z" style="fill:url(#_Linear2);"/></g><g transform="matrix(1.35419,0,0,1.57297,-1.72584,-4.00514)"><g transform="matrix(1.12261,0,0,1.00759,-0.545626,-0.0740445)"><path d="M4.778,7.186C4.786,7.202 4.781,7.33 4.781,7.33L4.759,7.326C4.751,7.271 4.686,7.207 4.651,7.188C4.616,7.169 4.58,7.159 4.543,7.159C4.5,7.159 4.465,7.172 4.438,7.198C4.41,7.224 4.396,7.253 4.396,7.286C4.396,7.311 4.405,7.334 4.422,7.355C4.447,7.385 4.508,7.426 4.602,7.477C4.68,7.518 4.732,7.55 4.761,7.572C4.789,7.595 4.811,7.621 4.826,7.651C4.841,7.681 4.849,7.713 4.849,7.745C4.849,7.808 4.825,7.862 4.776,7.908C4.727,7.953 4.665,7.976 4.588,7.976C4.564,7.976 4.472,7.969 4.432,7.956C4.392,7.943 4.324,7.927 4.313,7.906C4.309,7.899 4.31,7.719 4.31,7.719L4.341,7.721C4.351,7.781 4.354,7.796 4.372,7.825C4.39,7.855 4.417,7.879 4.454,7.899C4.491,7.918 4.532,7.928 4.575,7.928C4.626,7.928 4.667,7.915 4.696,7.888C4.726,7.861 4.74,7.829 4.74,7.792C4.74,7.772 4.735,7.752 4.723,7.731C4.712,7.71 4.695,7.691 4.671,7.673C4.655,7.661 4.612,7.635 4.541,7.595C4.47,7.555 4.42,7.524 4.39,7.5C4.36,7.477 4.338,7.45 4.322,7.422C4.307,7.394 4.299,7.362 4.299,7.328C4.299,7.269 4.322,7.217 4.367,7.175C4.413,7.132 4.471,7.112 4.541,7.11C4.658,7.107 4.756,7.144 4.778,7.186Z" style="fill:rgb(74,57,146);fill-rule:nonzero;"/></g><g transform="matrix(1,0,0,0.993801,-0.0491781,0.0789035)"><path d="M4.923,7.398L5.184,7.398L5.184,7.42L5.171,7.42C5.153,7.42 5.139,7.424 5.13,7.432C5.121,7.44 5.116,7.45 5.116,7.462C5.116,7.478 5.123,7.5 5.136,7.528L5.272,7.81L5.398,7.501C5.405,7.484 5.408,7.468 5.408,7.451C5.408,7.444 5.407,7.438 5.404,7.435C5.4,7.43 5.395,7.427 5.388,7.424C5.382,7.421 5.32,7.417 5.303,7.417L5.305,7.401L5.556,7.403L5.555,7.421C5.537,7.42 5.507,7.425 5.499,7.43C5.491,7.435 5.482,7.444 5.472,7.457C5.468,7.463 5.461,7.479 5.451,7.504L5.224,8.062C5.202,8.116 5.173,8.157 5.137,8.185C5.102,8.213 5.067,8.226 5.034,8.226C5.01,8.226 4.991,8.22 4.975,8.206C4.96,8.192 4.952,8.176 4.952,8.158C4.952,8.141 4.958,8.127 4.969,8.117C4.98,8.107 4.995,8.101 5.015,8.101C5.028,8.101 5.047,8.106 5.07,8.115C5.086,8.121 5.096,8.124 5.1,8.124C5.113,8.124 5.126,8.118 5.14,8.105C5.155,8.092 5.169,8.068 5.184,8.032L5.224,7.935L5.023,7.513C5.017,7.5 5.007,7.485 4.994,7.466C4.983,7.452 4.975,7.442 4.969,7.437C4.959,7.431 4.944,7.425 4.923,7.42L4.923,7.398Z" style="fill:rgb(74,57,146);fill-rule:nonzero;"/></g><g transform="matrix(1.04641,0,0,0.925041,-0.314886,0.579108)"><path d="M5.941,7.381L5.941,7.572L5.921,7.572C5.906,7.512 5.886,7.471 5.862,7.449C5.838,7.428 5.807,7.417 5.769,7.417C5.741,7.417 5.718,7.425 5.7,7.44C5.683,7.455 5.674,7.471 5.674,7.49C5.674,7.513 5.681,7.532 5.694,7.548C5.706,7.565 5.732,7.583 5.771,7.601L5.86,7.645C5.942,7.685 5.984,7.738 5.984,7.804C5.984,7.855 5.964,7.896 5.926,7.927C5.887,7.958 5.844,7.974 5.797,7.974C5.763,7.974 5.724,7.968 5.68,7.955C5.666,7.951 5.655,7.949 5.647,7.949C5.637,7.949 5.63,7.955 5.625,7.965L5.605,7.965L5.605,7.766L5.625,7.766C5.636,7.823 5.658,7.866 5.69,7.894C5.722,7.923 5.758,7.938 5.798,7.938C5.826,7.938 5.849,7.93 5.867,7.913C5.884,7.897 5.893,7.877 5.893,7.854C5.893,7.825 5.883,7.802 5.864,7.783C5.844,7.764 5.805,7.739 5.746,7.71C5.687,7.681 5.648,7.654 5.63,7.631C5.611,7.608 5.602,7.578 5.602,7.543C5.602,7.497 5.618,7.458 5.649,7.427C5.681,7.397 5.722,7.381 5.772,7.381C5.794,7.381 5.82,7.386 5.852,7.395C5.872,7.401 5.886,7.404 5.893,7.404C5.9,7.404 5.905,7.403 5.908,7.4C5.912,7.397 5.916,7.391 5.921,7.381L5.941,7.381Z" style="fill:rgb(74,57,146);fill-rule:nonzero;"/></g><g transform="matrix(0.965043,0,0,0.888493,0.145971,0.880067)"><path d="M6.229,7.214L6.229,7.398L6.432,7.398L6.432,7.438L6.229,7.44L6.229,7.803C6.229,7.839 6.234,7.864 6.239,7.879C6.246,7.899 6.274,7.906 6.29,7.906C6.355,7.905 6.402,7.882 6.409,7.865L6.438,7.887C6.414,7.943 6.307,7.963 6.236,7.966C6.217,7.966 6.199,7.961 6.181,7.95C6.163,7.94 6.15,7.925 6.141,7.906C6.132,7.886 6.128,7.857 6.128,7.816L6.128,7.44L6.04,7.44L6.04,7.42C6.062,7.411 6.085,7.396 6.108,7.375C6.132,7.353 6.153,7.328 6.171,7.299C6.18,7.283 6.193,7.255 6.21,7.214L6.229,7.214Z" style="fill:rgb(74,57,146);fill-rule:nonzero;"/></g><g transform="matrix(1.12928,0,0,0.968112,-0.83014,0.254264)"><path d="M6.508,7.608C6.507,7.691 6.528,7.756 6.568,7.803C6.609,7.851 6.657,7.874 6.712,7.874C6.748,7.874 6.773,7.868 6.805,7.85C6.83,7.837 6.853,7.828 6.872,7.796L6.893,7.823C6.846,7.91 6.754,7.966 6.665,7.974C6.598,7.98 6.541,7.948 6.493,7.895C6.445,7.843 6.421,7.773 6.421,7.684C6.421,7.589 6.446,7.514 6.495,7.461C6.544,7.407 6.605,7.381 6.679,7.381C6.742,7.381 6.793,7.401 6.834,7.442C6.874,7.484 6.894,7.539 6.894,7.608L6.508,7.608ZM6.508,7.573L6.767,7.573C6.765,7.537 6.76,7.512 6.754,7.497C6.744,7.474 6.728,7.456 6.708,7.443C6.688,7.43 6.667,7.424 6.645,7.424C6.611,7.424 6.581,7.437 6.555,7.463C6.528,7.489 6.512,7.526 6.508,7.573Z" style="fill:rgb(74,57,146);fill-rule:nonzero;"/></g><g transform="matrix(1.20543,0,0,0.902519,-1.42002,0.743633)"><path d="M7.135,7.5C7.175,7.459 7.199,7.436 7.207,7.43C7.225,7.414 7.245,7.402 7.266,7.394C7.287,7.385 7.308,7.381 7.329,7.381C7.364,7.381 7.394,7.391 7.419,7.412C7.444,7.432 7.461,7.461 7.47,7.5C7.512,7.451 7.547,7.419 7.576,7.404C7.605,7.389 7.635,7.381 7.665,7.381C7.695,7.381 7.721,7.389 7.744,7.404C7.767,7.419 7.785,7.444 7.799,7.479C7.808,7.502 7.812,7.539 7.812,7.59L7.812,7.83C7.812,7.865 7.815,7.889 7.82,7.902C7.824,7.911 7.832,7.919 7.843,7.925C7.854,7.932 7.872,7.935 7.896,7.935L7.896,7.957L7.621,7.957L7.621,7.935L7.632,7.935C7.656,7.935 7.675,7.93 7.688,7.921C7.698,7.914 7.704,7.904 7.708,7.89C7.71,7.883 7.711,7.863 7.711,7.83L7.711,7.59C7.711,7.544 7.705,7.512 7.694,7.493C7.678,7.467 7.653,7.454 7.618,7.454C7.597,7.454 7.575,7.46 7.553,7.471C7.531,7.481 7.505,7.501 7.474,7.531L7.473,7.537L7.474,7.564L7.474,7.83C7.474,7.869 7.476,7.892 7.48,7.902C7.485,7.911 7.493,7.919 7.505,7.925C7.516,7.932 7.536,7.935 7.565,7.935L7.565,7.957L7.282,7.957L7.282,7.935C7.313,7.935 7.335,7.931 7.346,7.924C7.358,7.916 7.366,7.905 7.37,7.891C7.372,7.884 7.373,7.864 7.373,7.83L7.373,7.59C7.373,7.544 7.367,7.512 7.353,7.492C7.335,7.466 7.31,7.453 7.278,7.453C7.256,7.453 7.234,7.458 7.213,7.47C7.179,7.488 7.153,7.508 7.135,7.531L7.135,7.83C7.135,7.867 7.137,7.891 7.142,7.902C7.147,7.913 7.155,7.921 7.165,7.926C7.175,7.932 7.195,7.935 7.226,7.935L7.226,7.957L6.949,7.957L6.949,7.935C6.975,7.935 6.993,7.932 7.003,7.926C7.013,7.921 7.021,7.912 7.026,7.9C7.031,7.888 7.034,7.865 7.034,7.83L7.034,7.617C7.034,7.555 7.032,7.516 7.028,7.498C7.026,7.484 7.006,7.506 6.99,7.513L6.99,7.481L7.108,7.381L7.135,7.381L7.135,7.5Z" style="fill:rgb(74,57,146);fill-rule:nonzero;"/></g><g transform="matrix(1.11282,0,0,1,-0.962041,0)"><path d="M8.789,7.129L8.789,7.152C8.76,7.157 8.738,7.166 8.723,7.18C8.701,7.2 8.682,7.23 8.665,7.271L8.377,7.976L8.354,7.976L8.044,7.262C8.028,7.225 8.017,7.203 8.011,7.195C8,7.182 7.988,7.172 7.973,7.165C7.958,7.158 7.938,7.154 7.913,7.152L7.913,7.129L8.251,7.129L8.251,7.152C8.213,7.155 8.188,7.162 8.177,7.171C8.165,7.181 8.159,7.193 8.159,7.207C8.159,7.228 8.169,7.259 8.188,7.302L8.398,7.788L8.593,7.308C8.613,7.261 8.622,7.229 8.622,7.21C8.622,7.198 8.616,7.187 8.604,7.176C8.593,7.166 8.573,7.158 8.545,7.153C8.543,7.153 8.539,7.152 8.534,7.152L8.534,7.129L8.789,7.129Z" style="fill:rgb(74,57,146);fill-rule:nonzero;"/></g><g transform="matrix(1.12956,0,0,0.96622,-1.2347,0.269355)"><path d="M8.799,7.608C8.799,7.691 8.819,7.756 8.86,7.803C8.9,7.851 8.948,7.874 9.003,7.874C9.04,7.874 9.071,7.864 9.098,7.844C9.126,7.824 9.146,7.815 9.163,7.789L9.173,7.817C9.157,7.847 9.152,7.859 9.111,7.905C9.07,7.951 9.018,7.974 8.957,7.974C8.889,7.974 8.832,7.948 8.784,7.895C8.736,7.843 8.712,7.773 8.712,7.684C8.712,7.589 8.737,7.514 8.786,7.461C8.835,7.407 8.897,7.381 8.971,7.381C9.033,7.381 9.085,7.401 9.125,7.442C9.165,7.484 9.185,7.539 9.185,7.608L8.799,7.608ZM8.799,7.573L9.058,7.573C9.056,7.537 9.052,7.512 9.045,7.497C9.035,7.474 9.02,7.456 9,7.443C8.979,7.43 8.958,7.424 8.936,7.424C8.903,7.424 8.872,7.437 8.846,7.463C8.819,7.489 8.804,7.526 8.799,7.573Z" style="fill:rgb(74,57,146);fill-rule:nonzero;"/></g><g transform="matrix(1.13561,0,0,0.883483,-1.30869,0.902779)"><path d="M9.402,7.348L9.406,7.518C9.452,7.434 9.518,7.381 9.568,7.381C9.59,7.381 9.608,7.388 9.623,7.402C9.638,7.415 9.645,7.431 9.645,7.449C9.645,7.465 9.64,7.478 9.629,7.489C9.619,7.5 9.606,7.506 9.591,7.506C9.577,7.506 9.561,7.499 9.543,7.485C9.526,7.471 9.513,7.464 9.504,7.464C9.497,7.464 9.489,7.468 9.48,7.476C9.462,7.492 9.427,7.529 9.408,7.567L9.423,7.826C9.423,7.857 9.427,7.88 9.435,7.896C9.44,7.907 9.45,7.916 9.463,7.924C9.477,7.931 9.537,7.934 9.562,7.934L9.562,7.956L9.235,7.957L9.235,7.935C9.263,7.935 9.285,7.93 9.298,7.921C9.309,7.915 9.316,7.904 9.32,7.89C9.322,7.883 9.323,7.863 9.323,7.831L9.323,7.614C9.323,7.549 9.317,7.518 9.31,7.512C9.303,7.506 9.253,7.512 9.236,7.511L9.236,7.483L9.374,7.346L9.402,7.348Z" style="fill:rgb(74,57,146);fill-rule:nonzero;"/></g><g transform="matrix(1.16435,0,0,0.95808,-1.58987,0.309254)"><path d="M9.818,7.089C9.835,7.089 9.85,7.095 9.862,7.107C9.874,7.119 9.88,7.133 9.88,7.15C9.88,7.167 9.874,7.182 9.862,7.194C9.85,7.207 9.835,7.213 9.818,7.213C9.801,7.213 9.787,7.207 9.774,7.194C9.762,7.182 9.756,7.167 9.756,7.15C9.756,7.133 9.762,7.119 9.774,7.107C9.786,7.095 9.801,7.089 9.818,7.089ZM9.869,7.381L9.869,7.83C9.869,7.865 9.872,7.889 9.877,7.9C9.882,7.912 9.889,7.92 9.899,7.926C9.909,7.932 9.927,7.935 9.954,7.935L9.954,7.957L9.682,7.957L9.682,7.935C9.71,7.935 9.728,7.932 9.737,7.927C9.747,7.921 9.754,7.913 9.759,7.901C9.765,7.888 9.768,7.865 9.768,7.83L9.768,7.615C9.768,7.554 9.766,7.515 9.762,7.497C9.761,7.49 9.735,7.496 9.712,7.495C9.698,7.494 9.701,7.468 9.701,7.468L9.842,7.381L9.869,7.381Z" style="fill:rgb(74,57,146);fill-rule:nonzero;"/></g><g transform="matrix(1.16068,0,0,0.979876,-1.61121,0.142653)"><path d="M10.216,7.089L10.216,7.83C10.216,7.865 10.218,7.889 10.223,7.9C10.228,7.911 10.236,7.92 10.247,7.926C10.257,7.932 10.277,7.935 10.306,7.935L10.306,7.957L10.032,7.957L10.032,7.935C10.058,7.935 10.075,7.932 10.085,7.927C10.094,7.921 10.101,7.913 10.106,7.901C10.112,7.888 10.114,7.865 10.114,7.83L10.114,7.323C10.114,7.259 10.113,7.221 10.11,7.206C10.107,7.192 10.103,7.182 10.096,7.177C10.09,7.171 10.082,7.169 10.072,7.169C10.062,7.169 10.048,7.172 10.032,7.178L10.022,7.157L10.188,7.089L10.216,7.089Z" style="fill:rgb(74,57,146);fill-rule:nonzero;"/></g><g transform="matrix(1.21569,0,0,0.930897,-2.25385,0.537495)"><path d="M10.644,7.381C10.729,7.381 10.797,7.413 10.848,7.478C10.892,7.532 10.913,7.596 10.913,7.667C10.913,7.717 10.901,7.767 10.877,7.819C10.853,7.87 10.82,7.909 10.778,7.935C10.736,7.961 10.689,7.974 10.637,7.974C10.553,7.974 10.486,7.94 10.437,7.873C10.395,7.816 10.374,7.753 10.374,7.683C10.374,7.631 10.387,7.58 10.412,7.53C10.437,7.479 10.471,7.442 10.512,7.417C10.554,7.393 10.598,7.381 10.644,7.381ZM10.625,7.421C10.604,7.421 10.582,7.427 10.56,7.44C10.539,7.453 10.521,7.475 10.507,7.507C10.494,7.54 10.487,7.581 10.487,7.631C10.487,7.713 10.504,7.783 10.536,7.842C10.568,7.901 10.611,7.93 10.664,7.93C10.703,7.93 10.736,7.914 10.761,7.882C10.787,7.849 10.8,7.793 10.8,7.714C10.8,7.614 10.778,7.536 10.736,7.479C10.707,7.44 10.67,7.421 10.625,7.421Z" style="fill:rgb(74,57,146);fill-rule:nonzero;"/></g><g transform="matrix(1.17456,0,0,1.02135,-1.86857,-0.1324)"><path d="M11.145,7.753C11.173,7.736 11.085,7.713 11.067,7.683C11.048,7.653 11.039,7.62 11.039,7.584C11.039,7.528 11.06,7.481 11.102,7.441C11.143,7.401 11.197,7.381 11.262,7.381C11.315,7.381 11.361,7.394 11.4,7.42L11.45,7.446L11.536,7.439C11.579,7.438 11.578,7.475 11.575,7.476C11.572,7.478 11.563,7.517 11.52,7.499L11.454,7.489C11.477,7.518 11.48,7.542 11.48,7.587C11.48,7.639 11.46,7.684 11.421,7.721C11.381,7.758 11.327,7.777 11.26,7.777C11.232,7.777 11.204,7.773 11.175,7.764C11.157,7.78 11.145,7.793 11.139,7.805C11.133,7.817 11.129,7.826 11.129,7.835C11.129,7.842 11.133,7.848 11.139,7.855C11.146,7.861 11.159,7.866 11.179,7.869C11.19,7.87 11.219,7.872 11.264,7.873C11.348,7.875 11.402,7.878 11.427,7.882C11.465,7.887 11.495,7.901 11.518,7.924C11.54,7.946 11.552,7.975 11.552,8.008C11.552,8.054 11.53,8.097 11.487,8.137C11.424,8.197 11.341,8.226 11.239,8.226C11.16,8.226 11.094,8.209 11.04,8.173C11.009,8.153 10.994,8.132 10.994,8.11C10.994,8.1 10.996,8.09 11.001,8.081C11.008,8.066 11.022,8.045 11.043,8.018C11.046,8.014 11.067,7.992 11.106,7.952C11.084,7.939 11.07,7.928 11.061,7.918C11.052,7.908 11.033,7.851 11.033,7.839C11.033,7.824 11.039,7.808 11.058,7.797C11.079,7.785 11.126,7.764 11.145,7.753ZM11.251,7.41C11.221,7.41 11.196,7.422 11.176,7.446C11.155,7.47 11.145,7.507 11.145,7.557C11.145,7.621 11.159,7.671 11.187,7.706C11.208,7.733 11.235,7.747 11.267,7.747C11.298,7.747 11.324,7.735 11.344,7.712C11.364,7.689 11.374,7.652 11.374,7.603C11.374,7.538 11.36,7.487 11.331,7.451C11.311,7.424 11.284,7.41 11.251,7.41ZM11.139,7.957C11.12,7.977 11.106,7.997 11.096,8.015C11.086,8.033 11.081,8.049 11.081,8.064C11.081,8.084 11.093,8.101 11.117,8.115C11.157,8.141 11.216,8.153 11.293,8.153C11.366,8.153 11.42,8.14 11.455,8.114C11.49,8.089 11.507,8.061 11.507,8.032C11.507,8.011 11.497,7.996 11.476,7.987C11.455,7.978 11.413,7.972 11.35,7.971C11.259,7.968 11.188,7.964 11.139,7.957Z" style="fill:rgb(74,57,146);fill-rule:nonzero;"/></g></g></g><defs><linearGradient id="_Linear1" x1="0" y1="0" x2="1" y2="0" gradientUnits="userSpaceOnUse" gradientTransform="matrix(9.08517,0.598307,-0.598307,9.08517,2.95098,8.6269)"><stop offset="0" style="stop-color:rgb(233,232,210);stop-opacity:1"/><stop offset="0.49" style="stop-color:rgb(87,132,178);stop-opacity:1"/><stop offset="1" style="stop-color:rgb(41,100,168);stop-opacity:1"/></linearGradient><linearGradient id="_Linear2" x1="0" y1="0" x2="1" y2="0" gradientUnits="userSpaceOnUse" gradientTransform="matrix(9.08517,0.598307,-0.598307,9.08517,2.95098,8.6269)"><stop offset="0" style="stop-color:rgb(41,100,168);stop-opacity:1"/><stop offset="0.51" style="stop-color:rgb(87,132,178);stop-opacity:1"/><stop offset="1" style="stop-color:rgb(233,232,210);stop-opacity:1"/></linearGradient></defs></svg>