<svg width="100%" height="100%" viewBox="0 0 18 16" version="1.1" xmlns="http://www.w3.org/2000/svg" xmlns:xlink="http://www.w3.org/1999/xlink" xml:space="preserve" style="fill-rule:evenodd;clip-rule:evenodd;stroke-linejoin:round;stroke-miterlimit:2;"><g id="tauri" transform="matrix(0.149566,0,0,0.149566,25.6473,6.88444)"><g transform="matrix(1,0,0,1,-156.524,-43.2564)"><path d="M63.14,37.15C63.118,42.456 58.746,46.81 53.44,46.81C53.423,46.81 53.407,46.81 53.39,46.81C53.373,46.81 53.357,46.81 53.34,46.81C48.034,46.81 43.662,42.456 43.64,37.15C43.662,31.844 48.034,27.49 53.34,27.49C53.357,27.49 53.373,27.49 53.39,27.49C53.407,27.49 53.423,27.49 53.44,27.49C58.746,27.49 63.118,31.844 63.14,37.15Z" style="fill:rgb(255,193,49);fill-rule:nonzero;"/></g><g transform="matrix(1,0,0,1,-156.524,-43.2564)"><path d="M46.8,64.28C46.778,69.586 42.406,73.94 37.1,73.94C37.083,73.94 37.067,73.94 37.05,73.94C37.033,73.94 37.017,73.94 37,73.94C31.694,73.94 27.322,69.586 27.3,64.28C27.322,58.974 31.694,54.62 37,54.62C37.017,54.62 37.033,54.62 37.05,54.62C37.067,54.62 37.083,54.62 37.1,54.62C42.406,54.62 46.778,58.974 46.8,64.28Z" style="fill:rgb(36,200,219);fill-rule:nonzero;"/></g><g transform="matrix(1,0,0,1,-156.524,-43.2564)"><path d="M29.62,28.45C12.8,31.85 0.14,46.6 0.14,64.28C0.14,84.48 16.67,100.86 37.05,100.86C53.105,100.903 67.43,90.459 72.3,75.16C67.863,77.326 63.087,78.713 58.18,79.26C53.279,86.028 45.406,90.038 37.05,90.02C22.7,90.02 11.07,78.5 11.07,64.28C11.07,53.18 18.17,43.72 28.11,40.11C27.71,36.18 28.21,32.19 29.62,28.45Z" style="fill:rgb(36,200,219);fill-rule:nonzero;"/></g><g transform="matrix(1,0,0,1,-156.524,-43.2564)"><path d="M60.82,72.98C77.65,69.58 90.3,54.82 90.3,37.15C90.3,16.95 73.78,0.57 53.4,0.57C37.341,0.523 23.011,10.967 18.14,26.27C22.577,24.104 27.353,22.717 32.26,22.17C37.161,15.395 45.038,11.382 53.4,11.4C67.75,11.4 79.38,22.93 79.38,37.15C79.38,48.25 72.28,57.71 62.34,61.32C62.74,65.25 62.24,69.24 60.84,72.98L60.82,72.98Z" style="fill:rgb(255,193,49);"/></g></g></svg>