<svg width="100%" height="100%" viewBox="0 0 18 16" version="1.1" xmlns="http://www.w3.org/2000/svg" xmlns:xlink="http://www.w3.org/1999/xlink" xml:space="preserve" style="fill-rule:evenodd;clip-rule:evenodd;"><g id="g2244" transform="matrix(0.0528926,0,0,0.0528926,5.54475,1.03636)"><g id="path4426" transform="matrix(1,0,0,1,-324.025,-364.631)"><path d="M445.525,372.225C445.907,395.557 445.214,418.638 425.025,440.569L424.275,441.413L425.4,441.413L433.65,441.538C420.244,469.424 411.522,497.231 392.244,525.006L391.556,526.006L392.744,525.788L402.931,523.85C395.714,542.16 383.374,554.283 369.994,558.35C366.311,506.782 392.046,461.263 413.9,415.881C413.92,415.84 413.942,415.798 413.962,415.756L413.15,415.194C377.364,455.207 361.239,511.643 355.15,558.194C343.021,551.347 338.979,542.281 334.869,529.944L343.337,533.506L344.212,533.881L344.025,532.944C337.589,504.324 347.581,483.781 357.275,456.788L364.244,461.444L365.056,462.006L365.025,461.038C364.479,439.106 379.246,417.09 398.837,397.444L401.556,404.725L401.931,405.694L402.462,404.788L408.431,394.85L408.462,394.788C418.314,381.218 428.73,376.801 445.525,372.225Z" style="fill:rgb(195,177,95);"/></g><path id="path7600" d="M121.55,7.581C104.812,12.147 94.27,16.613 84.438,30.156L84.406,30.219L78.438,40.156L77.906,41.063L77.531,40.094L74.813,32.813C55.221,52.458 40.454,74.475 41,96.406L41.031,97.375L40.219,96.813L33.25,92.156C23.556,119.15 13.564,139.693 20,168.313L20.188,169.25L19.313,168.875L10.938,165.344C10.964,165.515 11.003,165.674 11.031,165.844C15.08,177.902 19.177,186.817 31.125,193.563C31.597,189.957 32.122,186.275 32.719,182.563C18.128,148.398 30.793,123.281 36.563,100.688L45.438,105.813C44.212,84.657 56.632,61.842 72.781,41.938L77.469,50.188C89.477,25.487 98.975,15.572 121.55,7.581Z" style="fill:rgb(239,241,203);stroke:rgb(239,241,203);stroke-width:1px;"/><path id="path2177" d="M126.938,-0.688L126.406,-0.594C106.722,2.84 87.451,10.072 79,27.375L75.438,21.156L75.125,20.594L74.656,21.063C64.963,30.338 54.556,42.353 46.875,54.156C39.665,65.236 34.883,76.079 35.406,84.375L30.375,78.094L29.875,77.469L29.531,78.188C23.407,91.416 17.227,107.692 13.531,122.625C10.027,136.784 8.772,149.672 12.031,157.781L3.75,152.969L3.063,152.563L3,153.375C1.441,176.992 11.038,188.268 22.063,199.156L12.875,201.438L11.031,201.906L12.875,202.406C18.15,203.836 23.15,205.445 26.625,208.125C30.1,210.805 32.096,214.491 31.5,220.375L31.5,246.063L31.594,246.188L43.094,262.688L44,264L44,223.531C45.522,216.987 47.308,212.483 49.875,209.5C52.442,206.517 55.782,204.985 60.563,204.406L62.281,204.188L60.719,203.469L54.656,200.594C69.112,191.89 85.301,170.554 89.563,150.281L89.75,149.469L88.969,149.688L81.469,151.719C88.132,145.462 94.844,133.067 101.219,118.625C107.98,103.308 114.292,85.96 119.469,72.094L119.75,71.344L118.969,71.406L113.188,71.813C120.335,64.227 124.307,51.7 126.25,38.469C128.272,24.698 128.13,10.198 127,-0.156L126.938,-0.688ZM121.5,7.594C121.882,30.926 121.189,54.006 101,75.938L100.25,76.781L101.375,76.781L109.625,76.906C96.22,104.793 87.498,132.6 68.219,160.375L67.531,161.375L68.719,161.156L78.906,159.219C71.689,177.529 59.349,189.652 45.969,193.719C42.286,142.15 68.021,96.632 89.875,51.25C89.895,51.208 89.917,51.167 89.938,51.125L89.125,50.563C53.339,90.576 37.214,147.011 31.125,193.563C18.997,186.715 14.954,177.649 10.844,165.313L19.313,168.875L20.188,169.25L20,168.313C13.564,139.693 23.556,119.15 33.25,92.156L40.219,96.813L41.031,97.375L41,96.406C40.454,74.475 55.221,52.458 74.813,32.813L77.531,40.094L77.906,41.063L78.438,40.156L84.406,30.219L84.438,30.156C94.289,16.587 104.705,12.169 121.5,7.594Z"/></g></svg>