<svg width="100%" height="100%" viewBox="0 0 18 16" version="1.1" xmlns="http://www.w3.org/2000/svg" xmlns:xlink="http://www.w3.org/1999/xlink" xml:space="preserve" style="fill-rule:evenodd;clip-rule:evenodd;stroke-linejoin:round;stroke-miterlimit:2;"><g id="templ" transform="matrix(1,0,0,1,0.0582941,0.99916)"><g transform="matrix(1,0,0,1,-0.0582941,-0.99916)"><path d="M5.033,7.168C5.25,7.06 5.456,6.957 5.629,6.869C5.756,6.805 5.833,6.765 5.833,6.765L6.129,6.764C6.129,6.764 6.168,6.718 6.277,6.717C6.387,6.716 6.376,6.761 6.376,6.761L6.482,6.772C6.482,6.772 6.546,6.775 6.657,6.854C6.768,6.932 7.035,7.106 7.035,7.106L7.029,7.164C7.029,7.164 6.976,7.188 6.981,7.317C6.985,7.445 7.019,7.458 7.019,7.458L7.028,7.652C7.028,7.652 6.991,7.676 6.927,7.717C6.759,7.823 6.404,8.042 6.046,8.237C5.55,8.506 4.26,8.915 3.88,9.051C3.5,9.187 3.391,9.277 3.391,9.277L3.68,9.433C3.836,9.516 4.24,9.581 4.671,9.725C5.102,9.869 5.498,10.14 5.65,10.307C5.777,10.448 5.801,10.57 5.805,10.605L5.815,10.616L5.883,10.62L5.936,10.655C5.936,10.655 6.087,10.809 6.108,10.874C6.13,10.938 6.122,11.081 6.122,11.081C6.122,11.081 6.084,11.148 5.903,11.27C5.722,11.391 5.616,11.376 5.377,11.297C5.139,11.218 4.687,11.082 4.334,10.972C3.98,10.861 3.726,10.851 3.505,10.784C3.283,10.717 3.066,10.554 3.066,10.554L2.912,10.553C2.912,10.553 2.482,10.388 2.216,10.264C1.95,10.14 1.494,9.901 1.494,9.901L1.403,9.878L1.379,9.803L1.108,9.641L0.968,9.607L0.973,9.522C0.973,9.522 0.869,9.422 0.772,9.277C0.676,9.132 0.644,8.805 0.852,8.617C1.06,8.43 1.301,8.36 1.427,8.389C1.553,8.417 1.735,8.479 1.735,8.479L2.051,8.284C2.177,8.206 2.328,8.155 2.328,8.155L2.708,8.145L2.757,8.07L2.912,8.028L2.928,7.966L3.063,7.96L3.108,7.921C3.108,7.921 3.257,7.938 3.827,7.722C4.109,7.615 4.605,7.379 5.033,7.168Z" style="fill:rgb(219,189,48);"/></g><path d="M6.963,9.003C6.963,9.003 6.953,9.038 6.937,9.051C6.916,9.067 6.891,9.09 6.878,9.125C6.821,9.286 6.751,9.616 6.771,9.905C6.798,10.295 6.901,10.598 7.06,10.635C7.145,10.654 7.249,10.673 7.361,10.703C7.456,10.728 7.559,10.766 7.633,10.765C7.793,10.763 7.883,10.618 7.968,10.491C8.052,10.364 8.147,10.258 8.153,10.213C8.159,10.169 8.177,10.18 8.169,10.101C8.161,10.022 8.109,9.979 8.111,9.819C8.112,9.66 8.149,9.606 8.192,9.557C8.235,9.507 8.28,9.512 8.272,9.466C8.264,9.42 8.163,9.42 8.173,9.331C8.182,9.242 8.236,9.22 8.39,9.03C8.543,8.84 9.186,8.059 9.445,7.764C9.704,7.47 10.44,6.497 10.634,6.281C10.827,6.066 11.161,5.707 11.442,5.382C11.723,5.056 11.917,4.869 11.943,4.801C11.97,4.733 11.994,4.631 12,4.546C12.006,4.461 12.032,4.416 12.033,4.087C12.035,3.757 11.98,3.258 11.823,3.239C11.667,3.22 11.466,3.318 11.147,3.66C10.829,4.001 10.213,4.802 10.123,4.903C10.033,5.003 10.024,5.123 10.024,5.123C10.024,5.123 9.476,5.818 9.18,6.153C8.884,6.488 8.858,6.54 8.792,6.628C8.727,6.717 8.704,6.796 8.704,6.796C8.704,6.796 8.572,6.964 8.218,7.348C7.864,7.732 7.505,8.104 7.345,8.294C7.185,8.485 7.154,8.592 7.154,8.592C7.154,8.592 7.107,8.667 7.03,8.749C6.953,8.832 6.947,8.861 6.935,8.92C6.923,8.98 6.963,9.003 6.963,9.003Z" style="fill:rgb(219,189,48);"/><path d="M11.988,5.794C11.892,5.87 11.747,5.937 11.76,6.048C11.774,6.159 11.878,6.368 11.947,6.404C12.016,6.44 12.103,6.447 12.103,6.447C12.103,6.447 12.121,6.608 12.211,6.708C12.3,6.807 12.738,7.199 13.23,7.353C13.722,7.507 14.264,7.655 14.355,7.705C14.447,7.754 14.525,7.843 14.525,7.843C14.525,7.843 14.096,8.013 13.634,8.161C13.172,8.309 12.468,8.523 11.993,8.768C11.518,9.013 10.931,9.361 10.89,9.393C10.848,9.426 10.858,9.531 10.883,9.581C10.907,9.631 10.932,9.671 10.927,9.774C10.922,9.877 10.862,9.875 10.867,9.94C10.873,10.005 11.098,10.153 11.225,10.225C11.353,10.298 11.513,10.365 11.625,10.366C11.737,10.366 11.728,10.321 11.796,10.319C11.864,10.316 12.062,10.334 12.062,10.334C12.062,10.334 12.157,10.284 12.26,10.232C12.363,10.181 12.87,9.897 13.433,9.645C13.996,9.393 14.337,9.243 14.611,9.179C14.885,9.115 14.992,9.09 14.992,9.09L15.062,9.002L15.198,8.988L15.207,8.933L15.491,8.934L15.689,8.886C15.689,8.886 15.779,8.854 15.9,8.782C16.022,8.709 16.167,8.623 16.167,8.623L16.229,8.628C16.229,8.628 16.267,8.654 16.362,8.657C16.456,8.66 16.49,8.661 16.49,8.661C16.49,8.661 16.502,8.713 16.558,8.713C16.615,8.713 16.63,8.665 16.63,8.665C16.63,8.665 16.686,8.664 16.742,8.664C16.798,8.664 16.906,8.62 17.025,8.493C17.144,8.367 17.243,8.265 17.245,8.068C17.246,7.872 17.17,7.816 17.106,7.722C17.041,7.629 16.95,7.541 16.95,7.541L16.944,7.44L16.776,7.431L16.531,7.252L16.515,7.2C16.515,7.2 16.333,7.134 16.136,7.036C15.939,6.937 15.809,6.857 15.53,6.732C15.251,6.607 15.131,6.564 15.043,6.544C14.955,6.524 14.874,6.506 14.874,6.506L14.792,6.481C14.792,6.481 14.74,6.437 14.662,6.377C14.584,6.318 14.576,6.325 14.495,6.298C14.415,6.271 14.265,6.247 13.997,6.198C13.728,6.149 13.466,6.058 13.248,5.986C13.031,5.913 12.853,5.863 12.596,5.769C12.317,5.667 12.141,5.673 11.988,5.794Z" style="fill:rgb(219,189,48);"/></g></svg>