<svg width="100%" height="100%" viewBox="0 0 18 16" version="1.1" xmlns="http://www.w3.org/2000/svg" xmlns:xlink="http://www.w3.org/1999/xlink" xml:space="preserve" style="fill-rule:evenodd;clip-rule:evenodd;stroke-linejoin:round;stroke-miterlimit:2;"><g id="terraform" transform="matrix(0.245614,0,0,0.245614,58.9162,5.95807)"><g transform="matrix(1,0,0,1,-244.43,-27.6864)"><path d="M33.45,17.5L48.95,26.5L48.95,44.5L33.45,35.5L33.45,17.5Z" style="fill:rgb(123,66,188);"/></g><g transform="matrix(1,0,0,1,-244.43,-27.6864)"><path d="M50.65,26.5L50.65,44.5L66.15,35.5L66.15,17.5L50.65,26.5Z" style="fill:rgb(123,66,188);"/></g><g transform="matrix(1,0,0,1,-244.43,-27.6864)"><path d="M16.25,7.5L16.25,25.5L31.75,34.5L31.75,16.5L16.25,7.5Z" style="fill:rgb(123,66,188);"/></g><g transform="matrix(1,0,0,1,-244.43,-27.6864)"><path d="M33.45,55.5L48.95,64.5L48.95,46.5L33.45,37.5L33.45,55.5Z" style="fill:rgb(123,66,188);"/></g></g></svg>