<svg width="100%" height="100%" viewBox="0 0 18 16" version="1.1" xmlns="http://www.w3.org/2000/svg" xmlns:xlink="http://www.w3.org/1999/xlink" xml:space="preserve" style="fill-rule:evenodd;clip-rule:evenodd;stroke-linejoin:round;stroke-miterlimit:2;"><g id="tex" transform="matrix(0.0142731,0,0,0.0142731,1.6842,7.88582)"><g transform="matrix(75.2332,0,0,81.8234,-112.96,-619.176)"><path d="M15.532,4.347L15.532,10.983C15.532,12.814 13.915,14.301 11.923,14.301L4.706,14.301C2.714,14.301 1.097,12.814 1.097,10.983L1.097,4.347C1.097,2.516 2.714,1.029 4.706,1.029L11.923,1.029C13.915,1.029 15.532,2.516 15.532,4.347Z" style="fill:white;"/></g><g transform="matrix(1,0,0,1,0,-287.11)"><path d="M364.09,23.89L14.82,23.89L4.61,157.66L15.48,157.66C23.3,57.47 31.89,39.93 125.69,39.93L159.08,39.93C170.63,41.74 170.63,49.09 170.63,63.01L170.63,392.27C170.63,414.13 168.8,420.8 117.85,420.8L100.68,420.8L100.68,435.41C129.7,434.85 159.94,434.26 189.61,434.26C219.19,434.26 249.52,434.85 278.52,435.41L278.52,420.8L261.64,420.8C211.45,420.8 209.64,414.13 209.64,392.27L209.64,63.02C209.64,49.66 209.64,42.41 220.53,39.94L253.72,39.94C346.27,39.94 355.33,57.38 363.14,157.67L374.03,157.67" style="fill-rule:nonzero;"/></g><g transform="matrix(1,0,0,1,0,-287.11)"><path d="M667.6,414.32L656.73,414.32C643.47,504.01 635.65,552.76 529.26,552.76L445.31,552.76C421.15,552.76 420.01,549.71 420.01,528.9L420.01,359.83L477.07,359.83C534.13,359.83 539.57,380.74 539.57,431.79L549.29,431.79L549.29,274.44L539.57,274.44C539.57,324.63 534.12,345.15 477.07,345.15L420,345.15L420,195.25C420,174.83 421.15,171.78 445.3,171.78L528,171.78C621.6,171.78 632.49,208.98 640.97,288.95L651.87,288.95L637.36,155.17L331.1,155.17L331.1,171.78C373.94,171.78 380.8,171.78 380.8,198.97L380.8,525.39C380.8,552.58 374.03,552.58 331.1,552.58L331.1,567.19L645.86,567.19" style="fill-rule:nonzero;"/></g><g transform="matrix(1,0,0,1,0,-287.11)"><path d="M830.66,206.51L920.15,77.13C929.11,64.43 947.34,38.29 996.97,37.63L996.97,23.03C983.12,24.18 960.14,24.18 945.63,24.18C925.7,24.18 900.88,24.18 885.81,23.03L885.81,37.64C905.18,39.45 909.94,51.56 909.94,61.31C909.94,68.54 906.98,73.42 902.69,79.43L822.84,195.25L733.35,64.26C729.15,57.67 728.56,55.76 728.56,53.95C728.56,48.5 735.15,38.2 755.18,37.63L755.18,23.03C735.81,24.18 706.23,24.18 686.3,24.18C670.64,24.18 640.41,24.18 625.8,23.03L625.8,37.64C659.02,37.64 669.89,38.89 683.25,57.67L799.93,229.04L694.71,382.75C668.75,420.34 629.45,421 617.89,421L617.89,435.61C631.71,434.46 654.72,434.46 669.23,434.46C685.55,434.46 713.98,434.46 729.05,435.61L729.05,421C710.34,419.19 704.92,407.08 704.92,397.33C704.92,389.51 707.88,385.22 710.93,380.92L807.68,239.72L912.9,394.38C917.66,401.07 917.66,402.88 917.66,404.69C917.66,409.45 912.24,419.86 891.06,421.1L891.06,435.71C910.43,434.56 940.01,434.56 959.94,434.56C975.6,434.56 1005.83,434.56 1020.51,435.71L1020.51,421.1C981.77,421.1 975.67,418.14 963.65,401.07" style="fill-rule:nonzero;"/></g></g></svg>