<svg width="100%" height="100%" viewBox="0 0 18 16" version="1.1" xmlns="http://www.w3.org/2000/svg" xmlns:xlink="http://www.w3.org/1999/xlink" xml:space="preserve" style="fill-rule:evenodd;clip-rule:evenodd;stroke-linejoin:round;stroke-miterlimit:2;"><path id="text-light" d="M11.912,1.086C11.537,0.711 11.028,0.5 10.498,0.5C8.668,0.5 4.44,0.5 4.44,0.5C3.645,0.5 3,1.145 3,1.94L3,14.06C3,14.855 3.645,15.5 4.44,15.5L13.56,15.5C14.355,15.5 15,14.855 15,14.06L15,5.002C15,4.472 14.789,3.963 14.414,3.588C13.728,2.902 12.598,1.772 11.912,1.086ZM9.642,1.75L9.642,4.461C9.642,5.344 10.359,6.061 11.242,6.061L13.75,6.061L13.75,14.06C13.75,14.165 13.665,14.25 13.56,14.25C13.56,14.25 4.44,14.25 4.44,14.25C4.335,14.25 4.25,14.165 4.25,14.06C4.25,14.06 4.25,1.94 4.25,1.94C4.25,1.835 4.335,1.75 4.44,1.75L9.642,1.75ZM8.225,7.589L7.737,7.589C7.447,7.589 7.233,7.621 7.097,7.683C6.96,7.746 6.845,7.871 6.753,8.057C6.66,8.244 6.604,8.465 6.584,8.722L6.101,8.722L6.101,7.072L11.899,7.072L11.899,8.722L11.416,8.722C11.325,8.277 11.197,7.977 11.032,7.822C10.866,7.667 10.603,7.589 10.241,7.589L9.741,7.589L9.741,11.682C9.741,11.947 9.786,12.132 9.876,12.236C9.966,12.34 10.154,12.392 10.442,12.392L10.591,12.392L10.591,12.866L7.391,12.866L7.391,12.392L7.528,12.392C7.819,12.392 8.007,12.338 8.094,12.231C8.181,12.125 8.225,11.942 8.225,11.682L8.225,7.589ZM10.892,1.862C10.941,1.892 10.987,1.928 11.028,1.97L13.53,4.472C13.625,4.566 13.692,4.684 13.725,4.811L11.242,4.811C11.049,4.811 10.892,4.654 10.892,4.461L10.892,1.862Z" style="fill:rgb(180,180,180);"/></svg>