<svg width="100%" height="100%" viewBox="0 0 18 16" version="1.1" xmlns="http://www.w3.org/2000/svg" xmlns:xlink="http://www.w3.org/1999/xlink" xml:space="preserve" style="fill-rule:evenodd;clip-rule:evenodd;stroke-linejoin:round;stroke-miterlimit:2;"><g id="textile" transform="matrix(1.44148,0,0,1.44148,-4.46667,-3.38162)"><g transform="matrix(0.993132,0,0,1.0069,0.0998919,-0.028795)"><path d="M14.545,4.689L14.545,11.051C14.545,11.337 14.31,11.569 14.02,11.569L4.592,11.569C4.303,11.569 4.067,11.337 4.067,11.051L4.067,4.689C4.067,4.403 4.303,4.171 4.592,4.171L14.02,4.171C14.31,4.171 14.545,4.403 14.545,4.689Z" style="fill:rgb(255,231,172);"/></g><g transform="matrix(1.03239,0,0,1.09347,-0.299223,-0.893996)"><ellipse cx="9.423" cy="9.534" rx="0.577" ry="0.535"/></g><path d="M8.14,6.993L7.212,6.997C7.212,6.997 7.206,8.699 7.219,9.048C7.231,9.396 7.379,9.558 7.761,9.558C8.052,9.558 8.279,9.475 8.279,9.475L8.287,9.717C8.287,9.717 7.848,10.071 7.119,10.075C6.391,10.08 6.24,9.66 6.243,9.134C6.246,8.608 6.255,6.995 6.255,6.995L5.676,6.991L5.678,6.714L5.94,6.567L6.252,6.478L6.247,5.925C6.247,5.925 6.351,5.834 6.619,5.75C6.887,5.667 7.212,5.678 7.212,5.678L7.218,6.557L8.13,6.556L8.14,6.993Z"/></g></svg>