<svg width="100%" height="100%" viewBox="0 0 18 16" version="1.1" xmlns="http://www.w3.org/2000/svg" xmlns:xlink="http://www.w3.org/1999/xlink" xml:space="preserve" style="fill-rule:evenodd;clip-rule:evenodd;stroke-linejoin:round;stroke-miterlimit:2;"><g id="text-dark" transform="matrix(0.923077,0,0,0.923077,0.692308,1.54196)"><g transform="matrix(0.791019,0,0,1.04745,-1.13382,-0.428064)"><path d="M13.443,11.699L13.443,12.692C13.443,12.761 13.37,12.816 13.279,12.816L4.758,12.816C4.667,12.816 4.594,12.761 4.594,12.692L4.594,11.699C4.594,11.631 4.667,11.575 4.758,11.575L13.279,11.575C13.37,11.575 13.443,11.631 13.443,11.699Z" style="fill:rgb(93,108,121);"/></g><g transform="matrix(1.46904,0,0,1.04745,-4.24853,-4.12806)"><path d="M13.443,11.699L13.443,12.692C13.443,12.761 13.404,12.816 13.355,12.816L4.682,12.816C4.634,12.816 4.594,12.761 4.594,12.692L4.594,11.699C4.594,11.631 4.634,11.575 4.682,11.575L13.355,11.575C13.404,11.575 13.443,11.631 13.443,11.699Z" style="fill:rgb(93,108,121);"/></g><g transform="matrix(1.46904,0,0,1.04745,-4.24853,-7.62806)"><path d="M13.443,11.699L13.443,12.692C13.443,12.761 13.404,12.816 13.355,12.816L4.682,12.816C4.634,12.816 4.594,12.761 4.594,12.692L4.594,11.699C4.594,11.631 4.634,11.575 4.682,11.575L13.355,11.575C13.404,11.575 13.443,11.631 13.443,11.699Z" style="fill:rgb(93,108,121);"/></g><g transform="matrix(1.46904,0,0,1.04745,-4.24853,-11.1281)"><path d="M13.443,11.699L13.443,12.692C13.443,12.761 13.404,12.816 13.355,12.816L4.682,12.816C4.634,12.816 4.594,12.761 4.594,12.692L4.594,11.699C4.594,11.631 4.634,11.575 4.682,11.575L13.355,11.575C13.404,11.575 13.443,11.631 13.443,11.699Z" style="fill:rgb(93,108,121);"/></g></g></svg>