<svg width="100%" height="100%" viewBox="0 0 18 16" version="1.1" xmlns="http://www.w3.org/2000/svg" xmlns:xlink="http://www.w3.org/1999/xlink" xml:space="preserve" style="fill-rule:evenodd;clip-rule:evenodd;stroke-linejoin:round;stroke-miterlimit:2;"><g id="tidb" transform="matrix(0.416558,0,0,0.416558,30.6779,5.09609)"><g transform="matrix(1,0,0,1,-67.6353,-11.0292)"><path d="M0,26.961L0,9.05C0,9.012 0.019,8.984 0.047,8.965L15.548,0.01C15.576,-0.009 15.613,-0.009 15.642,0.01L31.142,8.956C31.171,8.975 31.189,9.003 31.189,9.04L31.189,26.951C31.189,26.989 31.171,27.017 31.142,27.036L15.642,35.991C15.613,36.01 15.576,36.01 15.548,35.991L0.047,27.036C0.019,27.017 0,26.989 0,26.961Z" style="fill:rgb(220,21,11);fill-rule:nonzero;"/></g><g transform="matrix(1,0,0,1,-67.6353,-11.0292)"><path d="M10.381,15.034C10.371,15.024 10.353,15.015 10.343,15.024L5.251,17.969L5.233,17.969C5.214,17.969 5.204,17.959 5.204,17.941L5.204,12.005C5.204,11.995 5.214,11.986 5.223,11.977L15.557,6.013C15.567,6.003 15.576,6.003 15.585,6.013L20.724,8.976L20.734,8.985C20.743,8.995 20.734,9.013 20.724,9.023L15.576,11.995C15.567,12.005 15.557,12.014 15.557,12.024L15.557,29.981C15.548,29.991 15.529,30 15.52,29.991L10.39,27.037C10.39,27.027 10.381,27.018 10.381,27.009L10.381,15.034Z" style="fill:white;fill-rule:nonzero;"/></g><g transform="matrix(1,0,0,1,-67.6353,-11.0292)"><path d="M20.799,26.999C20.78,26.999 20.762,26.981 20.762,26.962L20.762,15.034C20.762,15.015 20.771,15.006 20.78,14.996L25.929,12.024C25.938,12.014 25.938,12.014 25.947,12.014C25.966,12.014 25.985,12.033 25.985,12.052L25.985,23.98C25.985,23.999 25.976,24.008 25.966,24.017L20.818,26.99C20.809,26.999 20.809,26.999 20.799,26.999Z" style="fill:white;fill-rule:nonzero;"/></g></g></svg>