<svg width="100%" height="100%" viewBox="0 0 18 16" version="1.1" xmlns="http://www.w3.org/2000/svg" xmlns:xlink="http://www.w3.org/1999/xlink" xml:space="preserve" style="fill-rule:evenodd;clip-rule:evenodd;stroke-linejoin:round;stroke-miterlimit:2;"><g id="tmux" transform="matrix(0.0875,0,0,0.0875,2,1)"><g id="vlpc"><path d="M0,116L160,116L160,145C160,153.286 153.278,160 145,160L15,160C6.717,160 0,153.293 0,145L0,116ZM0,116L160,116L160,146L0,146L0,116Z" style="fill:rgb(27,185,31);"/></g><path id="vlpd" d="M83,70L83,0L77,0L77,146L83,146L83,76L160,76L160,70L83,70ZM0,15.01C0,6.722 6.722,-0 15,-0L145,-0C153.283,-0 160,6.725 160,15.01L160,146.01L0,146.01L0,15.01Z" style="fill:rgb(60,60,60);"/></g></svg>