<svg width="100%" height="100%" viewBox="0 0 18 16" version="1.1" xmlns="http://www.w3.org/2000/svg" xmlns:xlink="http://www.w3.org/1999/xlink" xml:space="preserve" style="fill-rule:evenodd;clip-rule:evenodd;stroke-linejoin:round;stroke-miterlimit:2;"><g id="toit-dark" transform="matrix(0.138211,0,0,0.138211,0.499888,2.40244)"><path d="M0.124,3.456C0.611,1.414 2.465,-0.028 4.564,0C4.934,-0.006 5.309,0.034 5.684,0.124L52.796,11.408L52.798,11.408L52.799,11.409C53.075,11.475 53.349,11.548 53.619,11.626C58.792,12.93 64.21,12.93 69.383,11.626C69.653,11.548 69.927,11.476 70.203,11.409L70.206,11.409L117.318,0.124C117.693,0.034 118.069,-0.006 118.437,0C118.453,-0 118.469,-0 118.485,-0C120.955,-0 122.987,2.032 122.987,4.502C122.987,6.573 121.559,8.389 119.546,8.877L72.376,20.143C72.181,20.197 71.986,20.249 71.791,20.3C68.363,21.349 66.004,24.534 66.001,28.119L66.001,33.879C66.001,36.599 66.787,39.261 68.265,41.548L86.195,69.275C88.305,72.537 92.937,72.945 95.587,70.095L115.205,48.992C116.056,48.077 117.251,47.556 118.501,47.556C120.97,47.556 123.001,49.587 123.001,52.056C123.001,53.192 122.571,54.288 121.797,55.12L102.178,76.223C95.538,83.365 83.935,82.353 78.638,74.163L62.34,48.96C62.156,48.675 61.839,48.503 61.5,48.503C61.161,48.503 60.844,48.675 60.66,48.96L44.364,74.163C39.068,82.354 27.464,83.366 20.824,76.223L1.205,55.122C0.431,54.29 0.001,53.194 0.001,52.058C0.001,49.589 2.032,47.558 4.501,47.558C5.751,47.558 6.946,48.079 7.797,48.994L27.415,70.097C30.065,72.947 34.697,72.539 36.807,69.277L54.737,41.55C56.214,39.265 57,36.601 57,33.88L57,28.12C56.997,24.535 54.639,21.349 51.21,20.3C51.015,20.25 50.82,20.198 50.626,20.144L3.456,8.878C1.437,8.396 0.001,6.577 0.001,4.501C0.001,4.149 0.042,3.798 0.124,3.456Z"/></g></svg>