<svg width="100%" height="100%" viewBox="0 0 18 16" version="1.1" xmlns="http://www.w3.org/2000/svg" xmlns:xlink="http://www.w3.org/1999/xlink" xml:space="preserve" style="fill-rule:evenodd;clip-rule:evenodd;"><g transform="matrix(0.0375,0,0,0.0375,9,8)"><g id="toml" transform="matrix(1,0,0,1,-200,-200)"><clipPath id="_clip1"><rect x="0" y="0" width="400" height="400"/></clipPath><g clip-path="url(#_clip1)"><g transform="matrix(2.08316,0,0,2.20158,-0.347664,-2.22586)"><path d="M192.183,20.997C192.183,9.966 182.718,1.011 171.061,1.011L21.289,1.011C9.631,1.011 0.167,9.966 0.167,20.997L0.167,162.713C0.167,173.744 9.631,182.699 21.289,182.699L171.061,182.699C182.718,182.699 192.183,173.744 192.183,162.713L192.183,20.997Z" style="fill:white;"/></g><g transform="matrix(1.02303,0,0,1.02303,-2.10526,-4.15132)"><path d="M200,324L200,122L114,122L286,122" style="fill:none;fill-rule:nonzero;stroke:black;stroke-width:38px;"/></g><g transform="matrix(1.02303,0,0,1.02303,-2.10526,-4.15132)"><path d="M104,50L48,50L48,348L104,348M296,348L352,348L352,50L296,50" style="fill:none;fill-rule:nonzero;stroke:rgb(156,66,33);stroke-width:38px;"/></g></g></g><g id="toml1"></g></g></svg>