<svg width="100%" height="100%" viewBox="0 0 18 16" version="1.1" xmlns="http://www.w3.org/2000/svg" xmlns:xlink="http://www.w3.org/1999/xlink" xml:space="preserve" style="fill-rule:evenodd;clip-rule:evenodd;stroke-linejoin:round;stroke-miterlimit:2;"><g id="tox"><g transform="matrix(1.48025,0,0,1.18621,-1.77731,-0.420557)"><path d="M3.863,11.175L5.097,11.164L6.723,12.959C5.603,12.795 4.603,12.141 3.863,11.175Z" style="fill:rgb(161,186,111);"/></g><path d="M3.102,11.77L4.661,7.963L5.768,12.822L3.94,12.835C3.628,12.509 3.347,12.152 3.102,11.77Z" style="fill:rgb(189,209,97);fill-opacity:0.97;"/><path d="M3.102,11.77C2.405,10.682 2,9.388 2,8C2,7.998 2,7.996 2,7.995L4.661,7.963L3.102,11.77Z" style="fill:rgb(214,229,79);fill-opacity:0.97;"/><path d="M2,7.995C2.001,6.599 2.411,5.299 3.117,4.207L4.661,7.963L2,7.995Z" style="fill:rgb(216,226,56);fill-opacity:0.97;"/><path d="M3.117,4.207C3.296,3.93 3.494,3.667 3.709,3.419L6.342,4.331L4.661,7.963L3.117,4.207Z" style="fill:rgb(195,203,56);fill-opacity:0.97;"/><path d="M6.342,4.331L8.547,1.014C6.618,1.138 4.9,2.044 3.709,3.419L6.342,4.331Z" style="fill:rgb(174,180,51);fill-opacity:0.97;"/><path d="M6.342,4.331L9.895,2.303L9.315,1.007C9.211,1.002 9.106,1 9,1C8.848,1 8.697,1.005 8.547,1.014L6.342,4.331Z" style="fill:rgb(126,131,62);fill-opacity:0.97;"/><path d="M9.895,2.303L13.709,2.822C12.538,1.756 11.004,1.082 9.315,1.007L9.895,2.303Z" style="fill:rgb(103,106,72);fill-opacity:0.97;"/><path d="M9.895,2.303L10.505,4.498L14.264,3.388C14.09,3.189 13.904,3 13.709,2.822L9.895,2.303Z" style="fill:rgb(93,98,81);fill-opacity:0.97;"/><path d="M10.505,4.498L12.807,6.572L14.723,3.971C14.58,3.768 14.427,3.574 14.264,3.388L10.505,4.498Z" style="fill:rgb(86,97,98);fill-opacity:0.97;"/><path d="M12.807,6.572L15.987,7.566C15.905,6.233 15.449,5 14.723,3.971L12.807,6.572Z" style="fill:rgb(56,72,117);fill-opacity:0.97;"/><path d="M12.807,6.572L12.4,9.927L15.982,8.503C15.994,8.337 16,8.169 16,8C16,7.854 15.996,7.709 15.987,7.566L12.807,6.572Z" style="fill:rgb(74,93,114);fill-opacity:0.97;"/><path d="M12.4,9.927L14.697,12.067C15.425,11.048 15.888,9.826 15.982,8.503L12.4,9.927Z" style="fill:rgb(47,73,131);fill-opacity:0.97;"/><path d="M12.4,9.927L11.947,13.598L13.571,13.299C13.993,12.935 14.371,12.521 14.697,12.067L12.4,9.927Z" style="fill:rgb(89,121,138);fill-opacity:0.97;"/><path d="M11.947,13.598L10.174,14.902C11.459,14.684 12.626,14.116 13.571,13.299L11.947,13.598Z" style="fill:rgb(88,121,136);fill-opacity:0.97;"/><path d="M11.947,13.598L8.514,12.906L8.901,14.999C8.934,15 8.967,15 9,15C9.4,15 9.792,14.966 10.174,14.902L11.947,13.598Z" style="fill:rgb(121,154,137);fill-opacity:0.97;"/><path d="M8.514,12.906L8.901,14.999C8.655,14.996 8.413,14.98 8.174,14.952L5.768,12.822L8.514,12.906Z" style="fill:rgb(140,170,124);fill-opacity:0.97;"/><path d="M8.514,12.906L5.768,12.822L8.371,7.234L8.514,12.906Z" style="fill:rgb(139,161,104);fill-opacity:0.97;"/><path d="M8.371,7.234L5.768,12.822L4.661,7.963L8.371,7.234Z" style="fill:rgb(166,184,91);fill-opacity:0.97;"/><path d="M8.371,7.234L4.661,7.963L6.342,4.331L8.371,7.234Z" style="fill:rgb(166,179,75);fill-opacity:0.97;"/><path d="M6.342,4.331L8.371,7.234L10.505,4.498L6.342,4.331Z" style="fill:rgb(137,147,73);fill-opacity:0.97;"/><path d="M10.505,4.498L6.342,4.331L9.895,2.303L10.505,4.498Z" style="fill:rgb(127,135,72);fill-opacity:0.97;"/><path d="M12.807,6.572L8.371,7.234L10.505,4.498L12.807,6.572Z" style="fill:rgb(115,129,97);fill-opacity:0.97;"/><path d="M12.4,9.927L12.807,6.572L8.371,7.234L12.4,9.927Z" style="fill:rgb(102,119,102);fill-opacity:0.97;"/><path d="M8.371,7.234L8.514,12.906L12.4,9.927L8.371,7.234Z" style="fill:rgb(125,148,109);fill-opacity:0.97;"/><path d="M12.4,9.927L11.947,13.598L8.514,12.906L12.4,9.927" style="fill:rgb(111,139,125);fill-opacity:0.97;"/></g></svg>