<svg width="100%" height="100%" viewBox="0 0 18 16" version="1.1" xmlns="http://www.w3.org/2000/svg" xmlns:xlink="http://www.w3.org/1999/xlink" xml:space="preserve" style="fill-rule:evenodd;clip-rule:evenodd;stroke-linejoin:round;stroke-miterlimit:2;"><g id="traefikproxy" transform="matrix(0.280002,0,0,0.280002,1.22984,-0.960015)"><path d="M27.75,7C30.267,7 32.504,8.777 32.504,10.965C32.504,13.154 30.374,14.931 27.75,14.931C27.45,14.931 27.058,14.882 26.574,14.783C26.199,14.706 25.808,14.769 25.475,14.959L8.43,24.66C8.183,24.802 8.031,25.065 8.031,25.349C8.031,25.635 8.185,25.9 8.434,26.041L26.912,36.422C27.392,36.692 27.977,36.693 28.458,36.426L47.037,26.091C47.288,25.951 47.445,25.685 47.445,25.398C47.445,25.113 47.291,24.849 47.043,24.708L41.246,21.415C40.767,21.142 40.178,21.14 39.696,21.408L33.576,24.804C33.423,24.889 33.32,25.044 33.301,25.218L33.298,25.277C33.298,27.465 31.168,29.242 28.543,29.242C25.918,29.242 23.789,27.465 23.789,25.277C23.789,23.088 25.919,21.311 28.543,21.311C28.641,21.311 28.753,21.316 28.879,21.327L29.079,21.347L29.302,21.375C29.64,21.421 29.985,21.356 30.284,21.19L39.334,16.167C40.024,15.785 40.861,15.77 41.565,16.127L41.66,16.179L54.297,23.359C55.882,24.259 55.9,26.522 54.364,27.457L54.279,27.507L45.825,32.209C45.574,32.349 45.417,32.615 45.417,32.902C45.417,33.196 45.581,33.467 45.841,33.604L54.214,38.012C55.876,38.886 55.916,41.254 54.284,42.184L28.856,56.688C28.127,57.103 27.229,57.103 26.5,56.688L1.215,42.244C-0.419,41.311 -0.374,38.938 1.294,38.068L9.758,33.648C10.019,33.512 10.184,33.24 10.184,32.945C10.184,32.659 10.029,32.394 9.78,32.254L1.214,27.442C-0.371,26.552 -0.406,24.296 1.118,23.349L1.202,23.299L22.241,11.326C22.573,11.136 22.825,10.833 22.953,10.473L22.98,10.389C23.718,8.188 25.399,7 27.75,7M39.49,36.21L29.1,42.188L29.005,42.24C28.297,42.605 27.451,42.589 26.757,42.198L16.401,36.355C15.936,36.093 15.368,36.085 14.895,36.332L8.925,39.456C8.664,39.593 8.5,39.864 8.5,40.159C8.5,40.443 8.652,40.707 8.899,40.848L27.138,51.29C27.623,51.568 28.218,51.569 28.704,51.29L47.101,40.773C47.348,40.632 47.501,40.368 47.501,40.084C47.501,39.789 47.337,39.518 47.077,39.381L41.012,36.181C40.534,35.929 39.958,35.94 39.489,36.209L39.49,36.21Z" style="fill:rgb(36,161,193);fill-rule:nonzero;"/></g></svg>