<svg width="100%" height="100%" viewBox="0 0 18 16" version="1.1" xmlns="http://www.w3.org/2000/svg" xmlns:xlink="http://www.w3.org/1999/xlink" xml:space="preserve" style="fill-rule:evenodd;clip-rule:evenodd;stroke-linejoin:round;stroke-miterlimit:2;"><g id="travisci" transform="matrix(0.0647256,0,0,0.0647256,1.49987,0.560906)"><g><path d="M55.366,100.315C55.366,100.315 19.308,125.695 17.898,135.364L20.604,134.808C20.604,134.808 63.784,106.188 98.012,102.698L98.787,98.354L55.366,100.316L55.366,100.315Z" style="fill:rgb(203,52,74);fill-rule:nonzero;"/><path d="M111.969,96.688L83.567,116.833L85.102,118.065C86.26,117.131 135.553,102.077 135.553,102.077L145.946,95.561C138.973,96.429 111.969,96.688 111.969,96.688Z" style="fill:rgb(203,52,74);fill-rule:nonzero;"/><path d="M136.654,121.053C156.822,121.053 187.054,101.301 187.054,101.301L177.281,99.441C176.798,99.924 161.522,98.906 161.522,98.906L154.271,96.892L136.947,116.632L135.537,120.057C136.783,119.551 136.655,121.052 136.655,121.052L136.654,121.053Z" style="fill:rgb(203,52,74);fill-rule:nonzero;"/></g><path d="M202.466,184.047L196.235,185.801L167.448,185.179L149.44,171.175L127.674,176.621L102.499,174.443L88.402,189.847L61.95,197.749L48.743,193.654C48.322,193.291 48.078,193.082 48.078,193.082L54.006,207.598C54.006,207.598 67.434,221.994 74.934,223.687C82.433,225.38 95.983,223.565 106.145,221.992C116.306,220.42 124.412,216.79 127.677,210.865C130.942,204.936 131.427,203.243 131.427,203.243C131.427,203.243 141.106,216.913 149.453,218.486C157.799,220.058 182.599,211.589 182.599,211.589C182.599,211.589 197.722,207.477 200.381,202.275C203.043,197.073 210.06,180.017 210.06,180.017L202.467,184.048L202.466,184.047ZM51.513,195.873C51.374,195.809 51.234,195.744 51.095,195.681C50.103,194.825 49.292,194.125 48.762,193.669L51.513,195.873Z" style="fill:rgb(203,52,74);fill-rule:nonzero;"/><g><path d="M226.92,81.211C226.857,80.433 226.772,79.656 226.677,78.883C226.61,78.335 226.523,77.762 226.428,77.233C224.35,75.484 221.989,73.929 219.531,72.516C216.867,70.96 214.08,69.566 211.236,68.271C208.411,66.938 205.509,65.732 202.591,64.555C201.134,63.964 199.665,63.39 198.19,62.844C196.72,62.27 195.235,61.736 193.746,61.194C196.871,61.712 199.964,62.421 203.033,63.211C205.03,63.728 207.016,64.306 208.989,64.922C194.954,28.242 161.399,4.355 124.763,4.355C88.127,4.355 54.569,28.242 40.538,64.922C42.511,64.306 44.497,63.727 46.491,63.211C49.565,62.421 52.659,61.712 55.782,61.194C54.288,61.736 52.807,62.27 51.332,62.844C49.864,63.391 48.393,63.965 46.931,64.555C44.012,65.732 41.119,66.939 38.287,68.271C35.448,69.565 32.659,70.959 29.995,72.516C27.537,73.929 25.178,75.485 23.092,77.233C23.005,77.763 22.917,78.335 22.849,78.883C22.755,79.656 22.669,80.433 22.606,81.211C22.469,82.774 22.414,84.343 22.401,85.917C22.37,89.061 22.582,92.204 22.98,95.314C23.409,98.433 23.981,101.532 24.828,104.527C25.245,106.028 25.718,107.507 26.265,108.94C26.54,109.655 26.839,110.359 27.15,111.044C27.305,111.385 27.467,111.722 27.629,112.045L27.828,112.425C28.059,112.542 28.301,112.661 28.531,112.773L29.926,113.439C30.704,113.792 31.78,114.303 32.67,114.702C32.72,114.659 32.77,114.615 32.813,114.57L30.223,104.706C30.772,104.555 35.69,103.287 44.165,101.674C43.481,101.544 42.791,101.395 42.112,101.233C40.183,100.753 38.278,100.168 36.435,99.421C35.52,99.035 34.618,98.613 33.759,98.129C32.899,97.635 32.053,97.077 31.399,96.335C40.711,99.373 59.951,97.997 77.053,96.23C92.695,94.618 108.373,93.573 124.133,93.542C139.894,93.573 155.578,94.618 171.213,96.23C188.323,97.997 207.563,99.374 216.874,96.335C216.22,97.077 215.376,97.636 214.516,98.129C213.657,98.613 212.756,99.035 211.842,99.421C209.997,100.168 208.095,100.754 206.165,101.233C205.879,101.301 205.59,101.364 205.304,101.425C214.597,103.149 220.007,104.55 220.586,104.705L218.109,114.102C218.607,113.877 219.11,113.661 219.604,113.437L220.997,112.771C221.229,112.659 221.464,112.54 221.7,112.423L221.892,112.043C222.061,111.72 222.223,111.383 222.378,111.042C222.691,110.357 222.99,109.653 223.263,108.938C223.811,107.506 224.285,106.026 224.701,104.525C225.548,101.53 226.12,98.431 226.549,95.312C226.949,92.201 227.159,89.057 227.13,85.915C227.117,84.344 227.06,82.775 226.923,81.212L226.92,81.211Z" style="fill:rgb(243,236,173);fill-rule:nonzero;"/><path d="M135.327,211.658C134.094,211.843 132.861,212 131.635,212.093C130.845,212.131 130.008,212.211 129.249,212.211L128.969,212.217C129.921,210.088 130.645,208.439 131.193,207.189C132.309,208.44 133.728,209.99 135.327,211.658Z" style="fill:rgb(231,204,174);fill-rule:nonzero;"/><path d="M138.008,214.39C141.837,218.181 146.58,220.353 151.802,220.739C143.031,224.301 134.766,225.675 128.399,226.104C122.051,226.529 115.616,225.781 109.31,224.052C109.838,223.957 110.225,223.89 110.692,223.833C111.21,223.77 122.518,222.295 127.616,214.716L128.095,214.726L129.346,214.716C130.193,214.716 130.962,214.646 131.772,214.615C133.696,214.448 135.576,214.174 137.424,213.8C137.618,213.998 137.81,214.192 138.008,214.39Z" style="fill:rgb(231,204,174);fill-rule:nonzero;"/><path d="M148.858,100.894C148.491,101.373 148.08,101.901 147.644,102.45C145.404,105.282 142.298,108.904 138.613,112.447C134.33,112.315 129.929,112.242 125.399,112.242C117.913,112.242 110.735,112.44 103.919,112.772C113.549,108.775 125.119,104.872 137.649,102.526C141.308,101.833 145.055,101.279 148.859,100.894L148.858,100.894Z" style="fill:rgb(113,114,114);fill-rule:nonzero;"/><path d="M92.493,105.205C89.056,107.62 85.173,110.702 81.408,114.441C71.766,115.406 63.357,116.575 56.417,117.697C67.086,112.793 79.259,108.28 92.492,105.205L92.493,105.205Z" style="fill:rgb(113,114,114);fill-rule:nonzero;"/><path d="M210.29,125.109L206.369,152.547L187.583,165.705L138.588,160.135L131.213,135.846C131.038,135.255 130.54,134.821 129.929,134.721C128.113,134.428 126.507,134.278 125.169,134.278C123.831,134.278 122.225,134.427 120.401,134.721C119.796,134.821 119.3,135.255 119.119,135.846L111.924,159.542L63.202,170.384L43.895,156.859L40.091,126.069C40.92,125.601 41.761,125.135 42.612,124.668C43.807,124.411 45.151,124.138 46.639,123.852L50.224,152.905C50.28,153.359 50.53,153.764 50.903,154.026L64.185,163.333C64.458,163.518 64.783,163.618 65.106,163.618C65.223,163.618 65.337,163.606 65.461,163.58L105.519,154.667C105.657,154.636 105.794,154.587 105.918,154.523C106.291,154.325 106.584,153.983 106.708,153.565L113.921,129.813C115.856,129.315 120.812,128.157 125.168,128.157C129.524,128.157 134.473,129.315 136.409,129.813L143.622,153.565C143.809,154.181 144.345,154.622 144.985,154.697L185.043,159.247C185.431,159.29 185.827,159.189 186.146,158.967L199.436,149.668C199.795,149.413 200.039,149.012 200.1,148.572L203.648,123.75C206.314,124.264 208.543,124.73 210.291,125.108L210.29,125.109Z" style="fill:rgb(113,114,114);fill-rule:nonzero;"/><path d="M215.239,107.902L211.791,120.984C204.739,119.429 189.246,116.378 168.159,114.325C175.049,111.388 182.064,107.703 188.473,103.097C201.021,104.87 210.234,106.769 215.239,107.902Z" style="fill:rgb(113,114,114);fill-rule:nonzero;"/><g><path d="M73.976,148.831C76.707,147.355 79.794,147.574 84.625,147.581C85.143,147.594 85.677,147.587 86.236,147.575C86.711,147.569 87.188,147.562 87.694,147.55C92.672,147.501 96.812,147.974 96.739,140.156C96.664,132.339 93.191,126.022 88.218,126.071C83.239,126.114 78.422,132.518 78.72,140.331C78.801,142.366 79.1,143.834 79.58,144.893C75.24,145.98 74.045,148.664 73.977,148.832L73.976,148.831ZM133.833,116.677C131.904,118.24 129.869,119.701 127.751,120.978L120.686,125.242C116.255,125.782 112.409,126.878 112.191,126.942C112.061,126.978 111.937,127.034 111.824,127.104C111.481,127.302 111.22,127.631 111.095,128.024L103.9,151.732L65.447,160.284L53.336,151.801L49.812,123.256C56.69,121.993 65.889,120.531 76.938,119.293C75.754,120.712 74.604,122.199 73.514,123.76L66.936,133.203L76.514,126.817C76.657,126.717 82.756,122.705 92.734,117.824C102.678,117.078 113.653,116.597 125.397,116.597C128.26,116.596 131.069,116.628 133.833,116.677Z" style="fill:rgb(229,203,164);fill-rule:nonzero;"/><path d="M175.939,145.626C175.89,145.441 174.844,142.297 170.212,142.848C170.746,141.686 170.984,140.118 170.816,137.97C170.204,130.17 165.668,123.972 160.694,124.145C155.721,124.321 152.534,130.786 152.809,138.604C153.082,146.415 157.259,146.361 162.232,146.186C168.918,146.062 172.59,144.008 175.939,145.626ZM200.481,123.164L197.014,147.433L184.802,155.983L146.4,151.619L139.235,128.023C139.073,127.5 138.663,127.097 138.14,126.941C137.902,126.871 133.148,125.516 128.106,125.079L129.027,125.018C129.823,124.961 143.069,123.337 158.885,117.884C176.4,119.229 190.702,121.383 200.481,123.164Z" style="fill:rgb(229,203,164);fill-rule:nonzero;"/></g><g><path d="M73.976,148.831C76.707,147.355 79.794,147.574 84.625,147.581C85.143,147.594 85.677,147.587 86.236,147.575C86.711,147.569 87.188,147.562 87.694,147.55C92.672,147.501 96.812,147.974 96.739,140.156C96.664,132.339 93.191,126.022 88.218,126.071C83.239,126.114 78.422,132.518 78.72,140.331C78.801,142.366 79.1,143.834 79.58,144.893C75.24,145.98 74.045,148.664 73.977,148.832L73.976,148.831ZM133.833,116.677C131.904,118.24 129.869,119.701 127.751,120.978L120.686,125.242C116.255,125.782 112.409,126.878 112.191,126.942C112.061,126.978 111.937,127.034 111.824,127.104C111.481,127.302 111.22,127.631 111.095,128.024L103.9,151.732L65.447,160.284L53.336,151.801L49.812,123.256C56.69,121.993 65.889,120.531 76.938,119.293C75.754,120.712 74.604,122.199 73.514,123.76L66.936,133.203L76.514,126.817C76.657,126.717 82.756,122.705 92.734,117.824C102.678,117.078 113.653,116.597 125.397,116.597C128.26,116.596 131.069,116.628 133.833,116.677Z" style="fill:rgb(200,179,154);fill-rule:nonzero;"/><path d="M175.939,145.626C175.89,145.441 174.844,142.297 170.212,142.848C170.746,141.686 170.984,140.118 170.816,137.97C170.204,130.17 165.668,123.972 160.694,124.145C155.721,124.321 152.534,130.786 152.809,138.604C153.082,146.415 157.259,146.361 162.232,146.186C168.918,146.062 172.59,144.008 175.939,145.626ZM200.481,123.164L197.014,147.433L184.802,155.983L146.4,151.619L139.235,128.023C139.073,127.5 138.663,127.097 138.14,126.941C137.902,126.871 133.148,125.516 128.106,125.079L129.027,125.018C129.823,124.961 143.069,123.337 158.885,117.884C176.4,119.229 190.702,121.383 200.481,123.164Z" style="fill:rgb(200,179,154);fill-rule:nonzero;"/></g><path d="M217.244,133.838C217.833,134.324 218.3,135.581 217.772,141.437C217.124,148.607 214.11,161.193 212.244,163.222C210.184,163.621 205.865,163.148 203.231,162.533C203.686,160.727 203.816,159.861 204.184,158.014L208.79,154.792C209.157,154.537 209.4,154.136 209.462,153.702L212.681,131.146C214.635,132.203 216.645,133.346 217.244,133.84L217.244,133.838Z" style="fill:rgb(231,204,174);fill-rule:nonzero;"/><path d="M47.436,163.277C47.667,164.093 47.909,164.907 48.159,165.71C45.68,166.438 40.633,167.135 38.35,166.737C36.458,164.831 32.928,151.713 32.156,144.746C31.527,139.102 31.968,137.882 32.542,137.406C33.208,136.846 35.703,135.427 37.864,134.269L40.783,157.964C40.839,158.419 41.081,158.823 41.462,159.085L47.435,163.276L47.436,163.277Z" style="fill:rgb(231,204,174);fill-rule:nonzero;"/><path d="M140.611,163.609L140.436,165.121C140.436,165.121 135.128,170.043 126.582,171.145C118.036,172.246 111.32,166.994 111.32,166.994C111.6,167.907 111.999,169.969 113.934,171.729C111.657,171.457 109.198,171.274 106.619,171.274C105.687,171.274 104.746,171.301 103.837,171.345C98.577,171.62 91.179,179.572 85.976,187.584C83.423,188.392 75.444,190.925 66.208,193.652C57.587,181.706 53.348,169.501 52.918,168.238L52.924,168.231C52.75,167.745 52.575,167.259 52.413,166.762L54.63,168.312L54.63,168.318L60.106,172.152L61.937,173.428C62.21,173.622 62.534,173.721 62.857,173.721C62.975,173.721 63.093,173.708 63.21,173.685L113.54,162.48C114.104,162.356 114.561,161.932 114.728,161.379L121.905,137.752C123.144,137.584 124.232,137.497 125.166,137.497C126.094,137.497 127.189,137.584 128.428,137.752L135.814,162.082C136.002,162.698 136.537,163.147 137.171,163.214L140.611,163.608L140.611,163.609Z" style="fill:rgb(231,204,174);fill-rule:nonzero;"/><path d="M198.061,162.302L199.686,161.162C199.417,162.289 199.125,163.41 198.82,164.518C196.562,171.758 193.895,178.161 190.935,183.818C190.28,183.863 189.59,183.889 188.849,183.889C186.564,183.889 184.23,183.695 181.647,183.459C177.165,183.048 170.051,182.233 167.805,181.972C165.87,180.429 159.248,175.167 153.738,170.831C153.521,170.656 153.335,170.494 153.153,170.344C152.183,169.524 151.08,168.591 148.846,168.591C146.817,168.591 143.854,169.33 136.692,171.497C140.414,168.715 140.438,165.124 140.438,165.124L140.613,163.612L187.83,168.976C188.215,169.02 188.613,168.92 188.937,168.697L193.681,165.374L198.062,162.303L198.061,162.302Z" style="fill:rgb(231,204,174);fill-rule:nonzero;"/><path d="M163.311,62.963C163.455,67.163 163.349,74.775 161.393,81.903C161.314,82.178 161.326,82.458 161.393,82.719C158.904,82.457 156.414,82.233 153.924,82.034C156.719,76.178 157.328,69.941 157.461,67.744C159.607,66.218 161.744,64.388 163.312,62.963L163.311,62.963Z" style="fill-rule:nonzero;"/><path d="M92.07,67.743C92.2,69.94 92.809,76.164 95.6,82.015C93.11,82.213 90.621,82.444 88.136,82.706C88.203,82.45 88.211,82.176 88.136,81.902C86.182,74.788 86.083,67.17 86.219,62.962C87.787,64.388 89.915,66.218 92.07,67.743Z" style="fill-rule:nonzero;"/><path d="M175.939,145.626C172.59,144.008 168.918,146.063 162.233,146.187C157.26,146.362 153.084,146.416 152.81,138.605C152.535,130.787 155.722,124.322 160.695,124.146C165.668,123.972 170.205,130.171 170.817,137.971C170.985,140.119 170.747,141.687 170.213,142.849C174.843,142.296 175.89,145.439 175.938,145.625L175.939,145.626ZM160.31,134.18C161.711,134.149 162.83,132.991 162.806,131.59C162.782,130.183 161.624,129.063 160.216,129.095C158.81,129.118 157.696,130.277 157.722,131.684C157.746,133.084 158.904,134.205 160.309,134.18L160.31,134.18Z" style="fill:rgb(46,50,55);fill-rule:nonzero;"/><circle cx="160.262" cy="131.628" r="2.542" style="fill:rgb(238,247,250);"/><path d="M96.737,140.154C96.81,147.972 92.671,147.499 87.692,147.548C87.188,147.561 86.709,147.567 86.234,147.573C85.675,147.586 85.14,147.592 84.623,147.579C79.793,147.573 76.705,147.354 73.974,148.829C74.041,148.661 75.237,145.977 79.577,144.889C79.097,143.83 78.797,142.362 78.717,140.327C78.419,132.516 83.236,126.11 88.215,126.067C93.188,126.018 96.661,132.337 96.736,140.153L96.737,140.154ZM89.05,136.065C90.451,136.029 91.559,134.856 91.522,133.457C91.484,132.05 90.316,130.943 88.915,130.981C87.507,131.017 86.398,132.187 86.436,133.588C86.473,134.996 87.643,136.104 89.05,136.065Z" style="fill:rgb(46,50,55);fill-rule:nonzero;"/><circle cx="88.984" cy="133.527" r="2.544" style="fill:rgb(238,247,250);"/><g opacity="0.8"><path d="M58.738,87.086C58.738,87.086 59.511,77.014 61.09,73.154C61.903,71.164 66.879,69.898 70.68,68.993C74.478,68.089 80.539,66.279 81.716,71.616C82.892,76.953 84.79,80.843 86.057,82.562L84.43,60.581L58.286,66.912L56.566,86.363L57.381,87.901L58.738,87.086" style="fill-rule:nonzero;"/><path d="M191.026,87.086C191.026,87.086 190.254,77.014 188.675,73.154C187.86,71.164 182.885,69.898 179.086,68.993C175.285,68.089 169.225,66.279 168.048,71.616C166.874,76.953 164.973,80.843 163.705,82.562L165.335,60.581L191.479,66.912L193.197,86.363L192.382,87.901L191.025,87.086" style="fill-rule:nonzero;"/></g><path d="M154.073,21.296C154.073,21.296 153.38,74.008 141.067,74.008L109.054,74.008C96.741,74.008 95.747,21.32 95.747,21.32L89.698,39.209L89.796,63.755L94.091,67.17L96.043,77.71L98.774,83.859L151.476,83.956L153.915,79.563L155.965,72.147L156.259,67.462L162.079,50.844L154.07,21.296L154.073,21.296Z" style="fill-opacity:0.75;fill-rule:nonzero;"/><path d="M192.85,70.445C192.85,70.445 195.384,88.628 202.09,91.907C208.797,95.185 202.09,91.907 202.09,91.907L192.701,89.075L192.85,70.445Z" style="fill-opacity:0.75;fill-rule:nonzero;"/><path d="M56.672,70.445C56.672,70.445 54.138,88.628 47.431,91.907C40.724,95.185 47.431,91.907 47.431,91.907L56.822,89.075L56.673,70.445L56.672,70.445Z" style="fill-opacity:0.75;fill-rule:nonzero;"/><path d="M194.655,88.992C197.847,90.037 201.058,91.145 203.967,92.845C202.411,92.229 200.805,91.787 199.186,91.388C197.574,90.977 195.95,90.629 194.318,90.317C191.05,89.702 187.771,89.179 184.471,88.779C181.179,88.35 177.881,87.989 174.568,87.708C171.256,87.429 167.953,87.148 164.634,86.955C151.371,86.139 138.071,85.935 124.761,85.921C111.455,85.928 98.154,86.177 84.89,86.96C81.574,87.152 78.268,87.434 74.957,87.714C71.646,87.993 68.341,88.349 65.054,88.784C61.755,89.184 58.475,89.706 55.207,90.322C53.577,90.628 51.951,90.982 50.333,91.387C48.721,91.786 47.108,92.227 45.552,92.844C48.459,91.145 51.67,90.032 54.87,88.984C55.139,88.897 55.411,88.823 55.685,88.736C55.668,88.668 55.648,88.605 55.635,88.531C55.579,88.164 54.396,79.424 56.457,66.926C56.557,66.328 56.985,65.843 57.572,65.68L60.952,64.717C61.687,38.5 72.484,26.17 72.821,25.79C63.173,41.314 63.261,59.725 63.428,64.013L84.434,58.043C84.453,58.037 84.464,58.037 84.483,58.031C84.571,58.012 84.658,58 84.745,57.994C84.769,57.994 84.802,57.987 84.832,57.987C84.939,57.981 85.058,57.994 85.176,58.018C85.193,58.018 85.212,58.031 85.237,58.037C85.324,58.056 85.405,58.086 85.497,58.124C85.535,58.143 85.56,58.162 85.597,58.181C85.664,58.219 85.735,58.262 85.802,58.311C85.821,58.324 85.841,58.33 85.859,58.349C85.872,58.362 85.883,58.374 85.896,58.386C85.915,58.405 85.939,58.417 85.959,58.437C85.973,58.456 86.531,59.008 87.421,59.838C87.21,52.917 87.539,33.062 96.995,16.605C96.796,17.182 89.294,39.117 91.879,63.702C92.718,64.374 93.601,65.033 94.462,65.613C94.878,65.899 95.134,66.372 95.14,66.876C95.147,66.957 95.327,74.794 98.788,81.46C98.837,81.56 98.874,81.665 98.906,81.771C107.514,81.186 116.146,80.949 124.76,80.944C133.376,80.95 142.002,81.199 150.608,81.791C150.639,81.679 150.678,81.567 150.734,81.461C154.194,74.795 154.375,66.958 154.375,66.877C154.387,66.372 154.643,65.9 155.06,65.614C155.919,65.035 156.79,64.375 157.637,63.703C160.226,39.118 152.724,17.183 152.526,16.606C161.973,33.061 162.31,52.917 162.1,59.839C162.983,59.01 163.544,58.458 163.561,58.438C163.58,58.419 163.606,58.407 163.622,58.387C163.636,58.375 163.643,58.363 163.66,58.35C163.679,58.331 163.698,58.325 163.717,58.312C163.787,58.263 163.855,58.22 163.922,58.175C163.954,58.163 163.985,58.144 164.016,58.125C164.11,58.087 164.196,58.057 164.289,58.032C164.308,58.032 164.327,58.019 164.346,58.019C164.457,57.995 164.578,57.982 164.689,57.988C164.72,57.988 164.746,57.995 164.77,57.995C164.857,58.001 164.951,58.014 165.038,58.032C165.052,58.039 165.07,58.039 165.087,58.044L186.094,64.014C186.263,59.727 186.35,41.314 176.703,25.791C177.038,26.171 187.837,38.501 188.565,64.718L191.951,65.681C192.529,65.843 192.965,66.329 193.066,66.927C195.125,79.425 193.937,88.165 193.886,88.532C193.874,88.607 193.856,88.676 193.837,88.743C194.114,88.824 194.382,88.904 194.656,88.992L194.655,88.992ZM190.835,87.87C190.997,86.471 191.749,78.821 190.15,68.402L166.372,61.643C166.585,65.67 166.679,74.403 164.394,82.731C164.364,82.831 164.327,82.93 164.277,83.03C164.512,83.054 164.75,83.073 164.979,83.104C171.664,83.87 178.317,84.939 184.897,86.383C186.881,86.844 188.867,87.337 190.834,87.87L190.835,87.87ZM161.392,81.902C163.348,74.776 163.453,67.163 163.31,62.962C161.742,64.387 159.605,66.217 157.459,67.742C157.327,69.939 156.717,76.175 153.922,82.032C156.412,82.232 158.902,82.456 161.391,82.717C161.324,82.457 161.312,82.178 161.391,81.902L161.392,81.902ZM95.598,82.015C92.808,76.163 92.198,69.939 92.068,67.743C89.915,66.218 87.785,64.388 86.217,62.963C86.079,67.17 86.18,74.789 88.134,81.903C88.209,82.178 88.201,82.451 88.134,82.707C90.62,82.444 93.107,82.215 95.598,82.015ZM85.247,83.016C85.202,82.929 85.166,82.829 85.133,82.73C82.844,74.402 82.944,65.67 83.149,61.642L59.378,68.401C57.779,78.809 58.525,86.458 58.686,87.865C60.659,87.33 62.638,86.837 64.632,86.377C67.917,85.649 71.229,85.04 74.546,84.479C77.87,83.925 81.205,83.502 84.541,83.098C84.779,83.067 85.009,83.049 85.246,83.017L85.247,83.016Z" style="fill:rgb(46,50,55);fill-rule:nonzero;"/><g><path d="M149.818,21.985L149.818,41.713L135.834,41.713L135.834,35.949L132.682,35.949L132.682,62.578L137.443,62.578L137.443,77.468L112.983,77.468L112.983,62.578L117.725,62.578L117.725,35.95L114.584,35.95L114.584,41.714L100.609,41.714L100.609,21.985L149.818,21.985ZM145.617,37.522L145.617,26.178L104.801,26.178L104.801,37.521L110.382,37.521L110.382,31.757L121.928,31.757L121.928,66.78L117.177,66.78L117.177,73.276L133.243,73.276L133.243,66.78L128.492,66.78L128.492,31.758L140.038,31.758L140.038,37.522L145.617,37.522Z" style="fill:rgb(46,50,55);fill-rule:nonzero;"/><path d="M145.617,26.177L145.617,37.521L140.036,37.521L140.036,31.758L128.49,31.758L128.49,66.781L133.241,66.781L133.241,73.277L117.176,73.277L117.176,66.781L121.927,66.781L121.927,31.758L110.381,31.758L110.381,37.521L104.801,37.521L104.801,26.177L145.617,26.177Z" style="fill:rgb(203,52,74);fill-rule:nonzero;"/></g><path d="M35.567,107.902C37.605,107.44 40.36,106.851 43.737,106.199C41.662,107.614 39.207,109.39 36.527,111.526L35.566,107.903L35.567,107.902Z" style="fill:rgb(113,114,114);fill-rule:nonzero;"/><path d="M110.21,161.97C110.21,161.97 110.78,165.637 105.647,167.206C100.516,168.776 68.008,178.464 64.3,177.94C60.593,177.417 51.184,171.134 51.184,171.134L48.902,163.018L62.826,171.699L110.21,161.97Z" style="fill:rgb(200,179,154);fill-rule:nonzero;"/><path d="M139.33,161.26C139.33,161.26 138.92,164.947 144.117,166.295C149.313,167.64 182.211,175.907 185.89,175.222C189.57,174.537 198.698,167.851 198.698,167.851L200.625,159.642L187.827,167.276L139.331,161.26L139.33,161.26Z" style="fill:rgb(200,179,154);fill-rule:nonzero;"/><path d="M32.922,155.222C32.922,155.222 37.426,164.231 44.702,161.112L49.899,163.018L49.38,166.83L38.466,168.215L35.522,166.484L32.923,155.222L32.922,155.222Z" style="fill:rgb(200,179,154);fill-rule:nonzero;"/><path d="M217.325,152.749C217.325,152.749 209.963,162.152 202.688,159.034L200.348,160.543L200.867,164.354L211.781,165.74L214.724,164.008L217.324,152.75L217.325,152.749Z" style="fill:rgb(200,179,154);fill-rule:nonzero;"/><path d="M103.452,223.528C103.452,223.528 130.138,236.982 160.354,218.675L150.651,218.013C150.651,218.013 129.478,226.393 112.716,221.762L103.453,223.528L103.452,223.528Z" style="fill:rgb(200,179,154);fill-rule:nonzero;"/><path d="M130.505,198.736L132.352,200.936C132.394,200.989 136.497,205.872 141.513,210.846C144.849,214.152 148.879,215.825 153.498,215.825C155.075,215.825 156.732,215.622 158.405,215.219C159.958,214.841 161.645,214.439 163.373,214.025C169.612,212.534 176.678,210.84 180.103,209.88C180.781,209.688 181.538,209.515 182.334,209.333C186.894,208.28 193.144,206.827 196.456,200.192C198.946,195.213 202.304,188.751 204.796,184.015C202.637,185.01 200.374,186.089 198.767,186.935C196.29,188.236 193.045,188.867 188.85,188.867C186.356,188.867 183.907,188.657 181.196,188.416C175.779,187.918 166.612,186.839 166.518,186.826L165.816,186.748L165.262,186.304C165.18,186.244 157.147,179.844 150.655,174.739C150.392,174.523 150.152,174.324 149.935,174.145C149.479,173.756 149.115,173.562 148.843,173.562C146.761,173.562 140.709,175.439 127.45,179.549L126.635,179.807L125.837,179.506C125.747,179.476 117.048,176.25 106.624,176.25C105.771,176.25 104.921,176.272 104.092,176.315C103.048,176.368 97.188,179.152 89.695,191.008L89.209,191.769L88.35,192.045C88.226,192.088 75.328,196.251 61.65,200.162L60.762,200.415L59.922,200.024C59.833,199.988 54.481,197.505 49.388,195.164C52.166,199.267 55.717,204.385 58.842,208.399C64.301,215.429 71.182,221.926 84.374,221.926C86.029,221.926 87.787,221.824 89.592,221.619C103.011,220.102 106.467,219.49 108.327,219.166C108.956,219.059 109.454,218.968 110.091,218.89C110.193,218.877 121.181,217.457 124.265,210.54C127.445,203.432 128.087,201.739 128.111,201.674L129.233,198.681C129.233,198.681 129.372,197.906 129.6,197.665C129.6,197.669 129.602,197.671 129.606,197.671L129.628,197.69C129.981,197.944 130.505,198.735 130.505,198.735L130.505,198.736ZM46.928,64.554C44.013,65.729 41.116,66.941 38.284,68.272C35.446,69.569 32.657,70.96 29.993,72.513C27.535,73.929 25.176,75.483 23.094,77.236C23.005,77.763 22.921,78.339 22.85,78.885C22.76,79.658 22.669,80.433 22.609,81.213C22.471,82.773 22.417,84.345 22.4,85.916C22.37,89.06 22.585,92.203 22.982,95.316C23.413,98.435 23.983,101.537 24.829,104.53C25.25,106.031 25.718,107.511 26.269,108.938C26.539,109.66 26.839,110.361 27.152,111.045C27.307,111.386 27.469,111.723 27.631,112.046L27.83,112.424C28.063,112.545 28.304,112.664 28.531,112.772L29.928,113.437C30.708,113.797 31.782,114.307 32.67,114.704C32.723,114.661 32.772,114.614 32.814,114.572L30.229,104.71C30.775,104.561 35.695,103.288 44.171,101.675C43.487,101.549 42.791,101.399 42.114,101.236C40.188,100.757 38.28,100.169 36.438,99.425C35.526,99.036 34.62,98.615 33.762,98.128C32.903,97.636 32.057,97.079 31.404,96.335C40.715,99.376 59.952,97.995 77.056,96.233C92.7,94.619 108.375,93.576 124.134,93.539C139.893,93.575 155.58,94.618 171.214,96.233C188.329,97.997 207.569,99.377 216.876,96.335C216.222,97.079 215.378,97.635 214.519,98.128C213.663,98.615 212.755,99.034 211.843,99.425C209.995,100.169 208.093,100.756 206.162,101.236C205.879,101.301 205.592,101.368 205.303,101.428C214.596,103.15 220.006,104.553 220.582,104.71L218.105,114.104C218.603,113.882 219.106,113.667 219.597,113.439L220.996,112.774C221.223,112.665 221.464,112.547 221.698,112.426L221.89,112.048C222.057,111.725 222.219,111.388 222.376,111.047C222.689,110.362 222.988,109.661 223.265,108.94C223.811,107.514 224.284,106.032 224.697,104.532C225.544,101.539 226.12,98.437 226.545,95.318C226.946,92.206 227.157,89.061 227.127,85.918C227.115,84.347 227.055,82.774 226.923,81.215C226.857,80.435 226.772,79.661 226.676,78.887C226.61,78.341 226.52,77.765 226.429,77.238C224.347,75.485 221.99,73.932 219.53,72.515C216.866,70.962 214.079,69.571 211.235,68.274C208.41,66.943 205.507,65.731 202.591,64.556C201.132,63.967 199.662,63.391 198.187,62.846C196.719,62.277 195.23,61.738 193.743,61.197C196.867,61.713 199.964,62.425 203.028,63.212C205.026,63.729 207.019,64.31 208.985,64.928C194.953,28.243 161.395,4.357 124.762,4.357C88.129,4.357 54.569,28.243 40.539,64.927C42.511,64.309 44.497,63.728 46.489,63.211C49.561,62.425 52.656,61.712 55.782,61.196C54.287,61.736 52.806,62.275 51.33,62.845C49.861,63.39 48.393,63.966 46.928,64.554ZM231.668,85.778C231.837,89.155 231.747,92.537 231.369,95.897C231.016,99.25 230.379,102.574 229.493,105.868C229.03,107.506 228.496,109.125 227.866,110.732C227.547,111.535 227.207,112.335 226.835,113.132C226.648,113.527 226.451,113.918 226.229,114.32L225.9,114.913C225.779,115.129 225.683,115.291 225.497,115.578L225.156,116.108L224.622,116.383C224.052,116.677 223.585,116.899 223.067,117.14L221.563,117.818C220.554,118.249 219.541,118.657 218.527,119.052C217.819,119.329 217.194,119.582 216.601,119.833L214.928,126.191C214.886,126.181 214.382,126.052 213.441,125.826L213.351,126.491C215.198,127.456 218.827,129.413 220.064,130.434C222.553,132.491 222.728,135.749 222.176,141.837C221.893,144.962 220.856,151.044 219.417,156.631C216.933,166.246 215.613,167.376 213.909,167.812C213.045,168.034 211.714,168.256 210.423,168.256C207.797,168.256 204.22,168.329 201.815,167.747C201.197,169.935 199.434,175.64 195.942,182.767C196.117,182.682 196.29,182.611 196.446,182.527C200.753,180.265 209.031,176.659 209.38,176.503L215.919,173.662L212.57,179.96C212.492,180.097 205.312,193.602 200.914,202.42C196.547,211.155 188.359,213.056 183.457,214.182C182.719,214.357 182.019,214.519 181.449,214.674C177.932,215.664 170.812,217.361 164.532,218.872C164.458,218.891 164.381,218.91 164.304,218.921C160.44,221.309 156.223,223.439 151.61,225.191C134.729,231.585 116.937,231.226 100.806,225.298C98.186,225.635 94.741,226.048 90.154,226.569C88.161,226.791 86.224,226.906 84.378,226.906C69.008,226.906 60.862,219.101 54.917,211.459C48.552,203.276 40.766,191.128 40.436,190.619L35.922,183.577L43.552,187.008C47.204,188.652 58.064,193.679 61.171,195.119C61.422,195.048 61.669,194.975 61.915,194.903C56.75,187.537 52.515,179.138 49.522,169.835C46.979,170.602 43.061,171.197 40.013,171.197C38.899,171.197 37.902,171.114 37.135,170.933C35.43,170.544 33.487,168.901 30.842,159.583C29.307,154.174 28.161,148.269 27.826,145.23C27.166,139.296 27.286,136.118 29.752,134.064C31.239,132.823 36.254,130.189 37.292,129.65L37.07,127.819C21.137,137.182 11.588,145.455 11.396,145.624L0.002,155.623L8.119,142.822C14.543,132.677 21.964,124.477 28.791,118.159C28.508,118.045 28.245,117.932 27.968,117.818L26.463,117.14C25.947,116.899 25.479,116.678 24.91,116.383L24.376,116.108L24.034,115.578C23.842,115.289 23.758,115.128 23.632,114.913L23.296,114.32C23.086,113.918 22.881,113.527 22.696,113.132C22.317,112.334 21.976,111.535 21.665,110.732C21.035,109.125 20.5,107.506 20.038,105.868C19.145,102.574 18.514,99.252 18.161,95.897C17.789,92.537 17.693,89.154 17.861,85.778C17.951,84.092 18.114,82.407 18.347,80.733C18.468,79.893 18.594,79.053 18.762,78.219C18.936,77.368 19.105,76.576 19.362,75.645L19.542,74.991L20.01,74.624C22.668,72.536 25.535,70.959 28.45,69.561C30.85,68.434 33.297,67.437 35.763,66.53C42.649,47.419 54.491,30.472 70.052,18.661C86.138,6.454 105.057,0 124.764,0C144.471,0 163.39,6.454 179.478,18.663C195.04,30.474 206.881,47.422 213.763,66.528C216.235,67.44 218.676,68.43 221.082,69.564C223.996,70.961 226.864,72.539 229.521,74.627L229.989,74.994L230.17,75.648C230.433,76.578 230.601,77.371 230.769,78.222C230.938,79.056 231.07,79.896 231.183,80.736C231.418,82.408 231.586,84.093 231.669,85.779L231.668,85.778ZM217.769,141.434C218.297,135.58 217.836,134.32 217.242,133.84C216.648,133.342 214.638,132.204 212.682,131.141L209.462,153.695C209.402,154.133 209.155,154.53 208.79,154.787L204.182,158.009C203.817,159.855 203.685,160.726 203.235,162.532C205.869,163.144 210.186,163.619 212.244,163.221C214.112,161.195 217.127,148.609 217.769,141.434ZM211.788,120.984L215.238,107.902C210.235,106.769 201.02,104.872 188.471,103.096C182.063,107.703 175.05,111.387 168.158,114.325C189.246,116.377 204.74,119.43 211.788,120.984ZM206.365,152.545L210.287,125.11C208.542,124.732 206.311,124.265 203.646,123.755L200.101,148.578C200.035,149.016 199.794,149.418 199.435,149.671L186.142,158.968C185.829,159.19 185.428,159.292 185.045,159.25L144.985,154.697C144.343,154.624 143.809,154.18 143.622,153.57L136.406,129.816C134.473,129.317 129.513,128.159 125.171,128.159C120.829,128.159 115.853,129.317 113.922,129.816L106.705,153.57C106.579,153.983 106.29,154.327 105.915,154.523C105.794,154.589 105.657,154.637 105.518,154.668L65.458,163.581C65.332,163.606 65.224,163.619 65.103,163.619C64.78,163.619 64.455,163.523 64.185,163.329L50.898,154.025C50.526,153.767 50.279,153.359 50.22,152.903L46.638,123.851C45.15,124.14 43.807,124.415 42.607,124.666C41.756,125.135 40.915,125.603 40.088,126.072L43.89,156.858L63.202,170.386L111.924,159.547L119.116,135.852C119.297,135.256 119.794,134.818 120.4,134.722C122.224,134.429 123.818,134.279 125.169,134.279C126.505,134.279 128.108,134.428 129.926,134.722C130.538,134.818 131.035,135.256 131.21,135.852L138.587,160.135L187.581,165.706L206.366,152.546L206.365,152.545ZM197.014,147.434L200.481,123.16C190.702,121.38 176.402,119.227 158.885,117.883C143.072,123.337 129.827,124.961 129.029,125.015L128.105,125.081C133.149,125.514 137.901,126.87 138.14,126.941C138.664,127.097 139.072,127.498 139.234,128.022L146.402,151.621L184.801,155.983L197.014,147.434ZM199.683,161.159L198.056,162.298L193.677,165.37L188.932,168.693C188.609,168.915 188.212,169.017 187.827,168.975L140.613,163.607L137.176,163.216C136.54,163.143 136.006,162.699 135.819,162.084L128.43,137.753C127.195,137.585 126.096,137.499 125.174,137.499C124.237,137.499 123.145,137.584 121.91,137.753L114.735,161.382C114.567,161.934 114.112,162.354 113.547,162.478L63.217,173.685C63.098,173.708 62.978,173.72 62.864,173.72C62.541,173.72 62.216,173.624 61.939,173.427L60.11,172.155L54.634,168.323L54.634,168.31L52.421,166.763C52.577,167.261 52.756,167.748 52.932,168.232L52.925,168.239C53.351,169.504 57.592,181.706 66.212,193.649C75.444,190.926 83.429,188.394 85.977,187.584C91.177,179.569 98.581,171.62 103.843,171.345C104.748,171.302 105.691,171.274 106.626,171.274C109.2,171.274 111.66,171.459 113.938,171.729C112.002,169.971 111.605,167.907 111.324,166.995C111.324,166.995 118.037,172.244 126.585,171.148C135.134,170.044 140.442,165.118 140.442,165.118C140.442,165.118 140.418,168.712 136.692,171.495C143.855,169.329 146.818,168.585 148.846,168.585C151.084,168.585 152.187,169.521 153.153,170.345C153.34,170.494 153.526,170.656 153.74,170.831C159.248,175.167 165.87,180.429 167.808,181.971C170.051,182.234 177.165,183.044 181.647,183.458C184.231,183.691 186.566,183.889 188.851,183.889C189.589,183.889 190.28,183.859 190.933,183.816C193.897,178.161 196.561,171.752 198.822,164.519C199.124,163.407 199.42,162.285 199.683,161.157L199.683,161.159ZM182.262,101.376C182.25,101.369 182.239,101.362 182.226,101.362C178.435,101.08 174.644,100.822 170.84,100.608C165.562,100.307 160.281,100.055 155.003,99.834C154.696,100.291 154.074,101.19 153.179,102.412C150.306,106.3 144.607,113.432 137.299,119.479C147.642,117.625 165.583,113.036 181.103,102.208C181.492,101.932 181.877,101.645 182.261,101.376L182.262,101.376ZM147.643,102.449C148.08,101.903 148.488,101.376 148.853,100.896C145.051,101.28 141.307,101.832 137.648,102.528C125.117,104.873 113.545,108.773 103.917,112.768C110.739,112.438 117.912,112.241 125.4,112.241C129.928,112.241 134.332,112.319 138.614,112.445C142.298,108.904 145.405,105.282 147.643,102.45L147.643,102.449ZM151.8,220.74C146.582,220.355 141.837,218.185 138.007,214.394C137.809,214.191 137.618,213.997 137.425,213.801C135.573,214.173 133.695,214.449 131.769,214.617C130.96,214.647 130.192,214.718 129.346,214.718L128.091,214.731L127.612,214.718C122.518,222.295 111.205,223.771 110.688,223.837C110.221,223.89 109.837,223.956 109.308,224.053C115.614,225.781 122.05,226.53 128.397,226.104C134.761,225.679 143.029,224.299 151.798,220.741L151.8,220.74ZM131.638,212.094C132.862,211.998 134.091,211.841 135.327,211.656C133.724,209.99 132.31,208.44 131.193,207.187C130.647,208.441 129.923,210.09 128.968,212.215L129.25,212.215C130.012,212.216 130.847,212.133 131.638,212.094ZM127.751,120.979C129.868,119.701 131.902,118.237 133.833,116.678C131.067,116.63 128.261,116.595 125.4,116.595C113.654,116.595 102.682,117.076 92.736,117.824C82.759,122.701 76.658,126.714 76.516,126.816L66.935,133.205L73.516,123.762C74.602,122.194 75.754,120.708 76.941,119.293C65.891,120.528 56.69,121.992 49.815,123.258L53.335,151.8L65.447,160.283L103.899,151.734L111.097,128.021C111.218,127.631 111.481,127.301 111.824,127.102C111.938,127.029 112.058,126.976 112.189,126.94C112.411,126.88 116.256,125.782 120.69,125.242L127.751,120.978L127.751,120.979ZM132.173,99.209C129.496,99.167 126.816,99.143 124.139,99.137L124.133,99.137C120.205,99.143 116.269,99.185 112.326,99.263L105.062,102.706C105.056,102.712 105.014,102.73 104.96,102.762C103.868,103.295 94.33,108.107 85.355,116.691C93.4,112.462 105.223,106.937 119.136,102.653C123.304,101.376 127.671,100.199 132.172,99.209L132.173,99.209ZM81.403,114.439C85.17,110.702 89.057,107.619 92.489,105.207C79.262,108.279 67.086,112.789 56.419,117.696C63.359,116.574 71.763,115.405 81.403,114.439ZM83.905,102.911C88.337,101.669 92.91,100.583 97.593,99.671C90.875,99.917 84.151,100.228 77.439,100.607C73.539,100.823 69.658,101.087 65.776,101.38C63.832,101.529 61.9,101.685 59.974,101.896C59.422,101.949 58.882,102.01 58.331,102.081C53.268,105.11 33.85,117.3 20.52,133.239C33.474,124.237 56.04,110.709 83.905,102.911ZM48.158,165.712C47.905,164.909 47.667,164.092 47.438,163.276L41.457,159.091C41.078,158.827 40.838,158.425 40.778,157.968L37.863,134.273C35.703,135.431 33.208,136.851 32.542,137.41C31.966,137.884 31.528,139.102 32.153,144.747C32.927,151.711 36.454,164.832 38.35,166.739C40.63,167.141 45.681,166.44 48.159,165.712L48.158,165.712ZM43.737,106.198C40.359,106.852 37.605,107.439 35.567,107.901L36.528,111.524C39.208,109.387 41.662,107.612 43.738,106.197L43.737,106.198Z" style="fill:rgb(46,50,55);fill-rule:nonzero;"/></g></g></svg>