<svg width="100%" height="100%" viewBox="0 0 18 16" version="1.1" xmlns="http://www.w3.org/2000/svg" xmlns:xlink="http://www.w3.org/1999/xlink" xml:space="preserve" style="fill-rule:evenodd;clip-rule:evenodd;stroke-linejoin:round;stroke-miterlimit:2;"><g id="twig" transform="matrix(1.06578,0,0,1.06578,0.810348,-0.824312)"><g transform="matrix(6.25493,0,0,0.986818,-36.4738,2.14036)"><g style="filter:url(#_Effect-avjuxtu);"><ellipse cx="6.971" cy="12.448" rx="0.183" ry="0.193" style="fill:rgb(46,69,17);"/></g></g><path d="M7.687,11.284C7.684,11.196 7.683,11.124 7.683,11.072C7.679,10.471 7.488,8.386 7.345,7.491C7.203,6.597 6.938,5.545 6.762,5.008C6.586,4.471 6.246,3.648 5.791,3.027C5.335,2.407 4.705,1.686 4.058,1.712C3.801,1.723 3.507,1.869 3.323,2.016C3.043,2.238 2.941,2.499 2.941,2.499C2.941,2.499 3.451,1.835 3.882,1.856C4.314,1.877 4.488,2.047 4.871,2.601C5.254,3.155 5.676,4.387 5.861,4.968C6.045,5.55 6.236,6.17 6.383,7.009C6.53,7.846 6.752,9.482 6.754,10.017C6.754,10.264 6.76,10.602 6.767,11.024C7.056,12.075 7.074,12.528 7.185,13.123C7.2,13.203 7.215,13.281 7.231,13.357C7.243,13.162 7.265,12.897 7.303,12.647C7.355,12.295 7.447,11.975 7.476,11.878C7.535,11.682 7.603,11.485 7.687,11.284Z" style="fill:url(#_Linear-785vea8);"/><path d="M4.048,1.713C3.793,1.727 3.505,1.871 3.323,2.016C3.043,2.238 2.941,2.499 2.941,2.499C2.941,2.499 3.451,1.835 3.882,1.856C4.314,1.877 4.488,2.047 4.871,2.601C5.254,3.155 5.676,4.387 5.861,4.968C6.045,5.55 6.236,6.17 6.383,7.009C6.53,7.846 6.752,9.482 6.754,10.017C6.754,10.264 6.76,10.602 6.767,11.024C7.056,12.075 7.074,12.528 7.185,13.123C7.227,13.348 7.271,13.558 7.312,13.742L7.288,11.124C7.288,11.124 7.248,9.799 7.21,9.098C7.172,8.398 7.03,7.596 6.838,6.688C6.662,5.858 6.285,4.684 6.105,4.205C6.063,4.095 5.961,3.865 5.884,3.721C5.502,3.008 5.239,2.574 4.882,2.188C4.617,1.901 4.356,1.756 4.048,1.713Z" style="fill:url(#_Linear-nmcogif);"/><path d="M4.048,1.713C3.958,1.718 3.864,1.739 3.772,1.771C4.28,1.762 4.498,1.974 4.697,2.177C4.939,2.423 5.173,2.796 5.404,3.211C5.634,3.626 6.045,4.824 6.169,5.189C6.292,5.554 6.6,6.666 6.695,7.185C6.791,7.705 6.952,8.609 6.986,9.266C7.019,9.923 6.997,12.958 6.997,12.958L7.07,13.923L7.314,13.913L7.288,11.124C7.288,11.124 7.248,9.799 7.21,9.098C7.172,8.398 7.03,7.596 6.838,6.688C6.662,5.858 6.285,4.684 6.105,4.205C6.063,4.095 5.961,3.865 5.884,3.721C5.502,3.008 5.239,2.574 4.882,2.188C4.617,1.901 4.356,1.756 4.048,1.713Z" style="fill:url(#_Linear-sewkrd4);"/><path d="M5.059,7.864C5.3,8.015 5.993,8.558 6.469,10.031C7.053,11.842 7.044,12.368 7.185,13.123C7.326,13.878 7.489,14.469 7.489,14.469L6.642,14.469L6.639,13.31C6.638,12.947 6.541,11.651 6.436,11.068C6.331,10.484 6.249,10.031 6.085,9.526C5.921,9.021 5.824,8.775 5.607,8.45C5.48,8.261 5.239,8.027 5.059,7.864Z" style="fill:url(#_Linear-isxsc9t);"/><path d="M6.642,14.469L6.232,14.469C6.232,14.469 6.424,12.585 6.287,11.526C6.24,11.163 6.191,10.751 6.065,10.164C6.046,10.076 5.927,9.635 5.876,9.479C5.79,9.217 5.696,8.927 5.601,8.742C5.311,8.179 4.972,7.815 4.972,7.815C4.972,7.815 5.004,7.83 5.059,7.864C5.239,8.027 5.48,8.261 5.607,8.45C5.824,8.775 5.921,9.021 6.085,9.526C6.249,10.031 6.331,10.484 6.436,11.068C6.541,11.651 6.638,12.947 6.639,13.31L6.642,14.469Z" style="fill:url(#_Linear-z0fot5r);"/><path d="M7.349,14.542L7.901,14.429L7.89,12.998C7.884,12.298 8.052,11.504 8.313,10.961C8.573,10.417 9.003,9.944 9.392,9.758C9.781,9.571 10.002,9.569 10.002,9.569C10.002,9.569 9.876,9.549 9.698,9.548C9.613,9.553 9.52,9.563 9.427,9.583C9.283,9.615 9.016,9.695 8.752,9.902C8.461,10.131 8.228,10.414 8.09,10.635C7.848,11.027 7.737,11.431 7.627,11.82C7.56,12.056 7.53,12.178 7.487,12.403C7.459,12.55 7.419,12.855 7.41,13.068L7.349,14.542Z" style="fill:url(#_Linear-dzoxpco);"/><path d="M9.698,9.548C9.534,9.548 9.326,9.563 9.129,9.623C8.717,9.749 8.257,10.185 8.009,10.626C7.76,11.066 7.597,11.474 7.476,11.878C7.447,11.975 7.355,12.295 7.303,12.647C7.241,13.062 7.22,13.516 7.219,13.63C7.216,14.087 7.147,14.583 7.147,14.583L7.349,14.542L7.41,13.068C7.419,12.855 7.459,12.55 7.487,12.403C7.53,12.178 7.56,12.056 7.627,11.82C7.737,11.431 7.848,11.027 8.09,10.635C8.228,10.414 8.461,10.131 8.752,9.902C9.016,9.695 9.283,9.615 9.427,9.583C9.52,9.563 9.613,9.553 9.698,9.548Z" style="fill:url(#_Linear-xt7wqyo);"/><path d="M5.537,14.445L5.405,14.182L5.678,14.412L5.68,14.462L5.537,14.445Z" style="fill:rgb(167,212,43);"/><path d="M6.053,14.62L5.782,13.83L6.219,14.563L6.225,14.625L6.053,14.62Z" style="fill:rgb(164,208,42);"/><path d="M7.736,14.668L8.048,13.637L8.047,14.607L7.736,14.668Z" style="fill:rgb(160,203,41);"/><path d="M8.348,14.426L8.715,14.06L8.502,14.421L8.348,14.426Z" style="fill:rgb(167,212,43);"/><g transform="matrix(1.2804,0,0,1.12275,-1.95806,-1.48696)"><g style="filter:url(#_Effect-jelxeto);"><ellipse cx="6.971" cy="12.448" rx="0.183" ry="0.193" style="fill:rgb(46,69,17);"/></g></g><g transform="matrix(1.04767,0,0,0.989808,-0.336568,0.164857)"><ellipse cx="6.971" cy="12.448" rx="0.183" ry="0.193" style="fill:white;"/></g><g transform="matrix(1.32977,0,0,1.12275,-1.81037,-1.51221)"><g style="filter:url(#_Effect-1n9rnbj);"><ellipse cx="6.971" cy="12.448" rx="0.183" ry="0.193" style="fill:rgb(46,69,17);"/></g></g><g transform="matrix(1.04767,0,0,0.989808,0.149753,0.14178)"><ellipse cx="6.971" cy="12.448" rx="0.183" ry="0.193" style="fill:white;"/></g><g><g transform="matrix(5.12033,0,0,1.02841,-24.7837,1.84771)"><g style="filter:url(#_Effect-uib6xn8);"><ellipse cx="6.971" cy="12.448" rx="0.183" ry="0.193" style="fill:rgb(46,69,17);"/></g></g><path d="M11.258,12.306C11.267,11.942 11.275,11.598 11.28,11.319C11.302,9.973 11.408,6.755 11.422,6.33C11.333,7.15 11.146,8.924 11.082,9.918C11.021,10.843 10.981,12.48 10.961,13.485C11.008,13.188 11.08,12.856 11.189,12.509C11.211,12.439 11.234,12.372 11.258,12.306Z" style="fill:url(#_Linear-c0uhtn7);"/><path d="M10.96,13.516C10.98,12.514 11.021,10.852 11.082,9.918C11.146,8.924 11.333,7.15 11.422,6.33L11.424,6.284C11.424,6.284 11.374,6.533 11.299,6.932C11.174,7.818 10.991,9.144 10.895,9.975C10.729,11.415 10.682,12.383 10.682,12.383C10.682,12.383 10.775,12.629 10.802,12.742C10.836,12.882 10.905,13.232 10.96,13.516Z" style="fill:url(#_Linear-ucrxxo2);"/><path d="M11.299,6.932C11.144,7.753 10.883,9.205 10.733,10.414C10.662,10.985 10.581,11.81 10.509,12.602C10.535,12.633 10.56,12.667 10.583,12.704C10.715,12.909 10.852,13.144 10.899,13.49C10.93,13.723 10.937,14.046 10.935,14.254C10.934,14.286 10.934,14.316 10.933,14.346L10.945,14.351C10.945,14.351 10.95,14.016 10.96,13.516C10.905,13.232 10.836,12.882 10.802,12.742C10.775,12.629 10.682,12.383 10.682,12.383C10.682,12.383 10.729,11.415 10.895,9.975C10.991,9.144 11.174,7.818 11.299,6.932Z" style="fill:url(#_Linear-0hl7lua);"/><path d="M10.998,14.711L11.002,14.71L11.415,14.651C11.415,14.651 11.367,13.472 11.567,12.571C11.901,11.069 12.427,10.708 12.427,10.708C12.427,10.708 12.391,10.73 12.328,10.776C12.015,11.117 11.584,11.697 11.298,12.531C11.046,13.265 11.005,14.321 10.998,14.711Z" style="fill:url(#_Linear-ormbrxb);"/><path d="M12.328,10.776C12.097,10.947 11.518,11.461 11.189,12.509C10.813,13.705 10.879,14.728 10.879,14.728L10.998,14.711C11.005,14.321 11.046,13.265 11.298,12.531C11.584,11.697 12.015,11.117 12.328,10.776Z" style="fill:url(#_Linear-ykcy6ff);"/><path d="M9.443,12.233C9.376,12.224 9.334,12.226 9.334,12.226C9.334,12.226 10.166,12.055 10.583,12.704C10.715,12.909 10.852,13.144 10.899,13.49C10.93,13.723 10.937,14.046 10.935,14.254C10.931,14.599 10.915,14.83 10.915,14.83L10.516,14.751C10.555,14.488 10.602,13.961 10.513,13.263C10.398,12.361 9.834,12.219 9.443,12.233Z" style="fill:url(#_Linear-x4twxqb);"/><path d="M10.516,14.751L10.299,14.698C10.299,14.698 10.437,13.807 10.292,13.156C10.127,12.415 9.658,12.263 9.443,12.233C9.834,12.219 10.398,12.361 10.513,13.263C10.602,13.961 10.555,14.488 10.516,14.751Z" style="fill:url(#_Linear-ar96mi3);"/><path d="M9.403,14.54L9.307,14.188L9.552,14.54L9.403,14.54Z" style="fill:rgb(162,205,41);"/><path d="M9.837,14.752L9.68,13.947L10.007,14.752L9.837,14.752Z" style="fill:rgb(164,209,43);"/><path d="M11.3,14.841L11.676,13.781L11.565,14.83L11.3,14.841Z" style="fill:rgb(160,202,40);"/><path d="M11.862,14.637L12.207,14.267L11.996,14.635L11.862,14.637Z" style="fill:rgb(167,212,44);fill-opacity:0.96;"/><g transform="matrix(1.32526,0,0,1.2834,-3.47289,-3.74322)"><g style="filter:url(#_Effect-j1b5g7h);"><ellipse cx="10.713" cy="13.317" rx="0.151" ry="0.156" style="fill:rgb(74,137,37);"/></g></g><g transform="matrix(1.09594,0,0,1.11962,-1.02839,-1.57427)"><ellipse cx="10.713" cy="13.317" rx="0.151" ry="0.156" style="fill:white;"/></g><g transform="matrix(1.3257,0,0,1.28383,-3.06987,-3.74949)"><g style="filter:url(#_Effect-30oxlhj);"><ellipse cx="10.713" cy="13.317" rx="0.151" ry="0.156" style="fill:rgb(74,137,37);"/></g></g><g transform="matrix(1.09594,0,0,1.11962,-0.610024,-1.56423)"><ellipse cx="10.713" cy="13.317" rx="0.151" ry="0.156" style="fill:white;"/></g></g></g><defs><filter id="_Effect-avjuxtu" filterUnits="userSpaceOnUse" x="6.66575" y="11.4785" width="0.610955" height="1.9384"><feGaussianBlur in="SourceGraphic" stdDeviation="0.0285067"/></filter><linearGradient id="_Linear-785vea8" x1="0" y1="0" x2="1" y2="0" gradientUnits="userSpaceOnUse" gradientTransform="matrix(-1.94822,-9.0834,9.0834,-1.94822,7.53945,11.1693)"><stop offset="0" style="stop-color:rgb(94,144,42);stop-opacity:1"/><stop offset="0.57" style="stop-color:rgb(144,181,67);stop-opacity:1"/><stop offset="0.79" style="stop-color:rgb(150,185,69);stop-opacity:1"/><stop offset="1" style="stop-color:rgb(169,198,74);stop-opacity:1"/></linearGradient><linearGradient id="_Linear-nmcogif" x1="0" y1="0" x2="1" y2="0" gradientUnits="userSpaceOnUse" gradientTransform="matrix(-2.7002,-8.38816,8.38816,-2.7002,6.76061,10.3998)"><stop offset="0" style="stop-color:rgb(74,117,11);stop-opacity:1"/><stop offset="0.47" style="stop-color:rgb(119,144,22);stop-opacity:1"/><stop offset="1" style="stop-color:rgb(137,147,27);stop-opacity:1"/></linearGradient><linearGradient id="_Linear-sewkrd4" x1="0" y1="0" x2="1" y2="0" gradientUnits="userSpaceOnUse" gradientTransform="matrix(-1.92297,-9.40961,9.40961,-1.92297,7.12644,11.3721)"><stop offset="0" style="stop-color:rgb(84,133,14);stop-opacity:1"/><stop offset="0.53" style="stop-color:rgb(138,169,28);stop-opacity:1"/><stop offset="1" style="stop-color:rgb(160,185,33);stop-opacity:1"/></linearGradient><linearGradient id="_Linear-isxsc9t" x1="0" y1="0" x2="1" y2="0" gradientUnits="userSpaceOnUse" gradientTransform="matrix(-0.378217,-6.14748,6.14748,-0.378217,6.99244,14.369)"><stop offset="0" style="stop-color:rgb(144,184,23);stop-opacity:1"/><stop offset="0.47" style="stop-color:rgb(178,199,37);stop-opacity:1"/><stop offset="1" style="stop-color:rgb(188,203,41);stop-opacity:1"/></linearGradient><linearGradient id="_Linear-z0fot5r" x1="0" y1="0" x2="1" y2="0" gradientUnits="userSpaceOnUse" gradientTransform="matrix(-0.739727,-5.77354,5.77354,-0.739727,6.3986,14.226)"><stop offset="0" style="stop-color:rgb(127,156,22);stop-opacity:0.98"/><stop offset="0.43" style="stop-color:rgb(175,193,39);stop-opacity:0.98"/><stop offset="0.55" style="stop-color:rgb(177,194,39);stop-opacity:0.98"/><stop offset="0.71" style="stop-color:rgb(182,195,39);stop-opacity:0.98"/><stop offset="1" style="stop-color:rgb(173,185,36);stop-opacity:0.98"/></linearGradient><linearGradient id="_Linear-dzoxpco" x1="0" y1="0" x2="1" y2="0" gradientUnits="userSpaceOnUse" gradientTransform="matrix(0.854459,-4.46032,4.46032,0.854459,7.62279,14.4146)"><stop offset="0" style="stop-color:rgb(122,171,25);stop-opacity:1"/><stop offset="0.48" style="stop-color:rgb(135,182,31);stop-opacity:1"/><stop offset="1" style="stop-color:rgb(170,214,48);stop-opacity:1"/></linearGradient><linearGradient id="_Linear-xt7wqyo" x1="0" y1="0" x2="1" y2="0" gradientUnits="userSpaceOnUse" gradientTransform="matrix(1.22046,-4.92747,4.92747,1.22046,7.20935,14.4016)"><stop offset="0" style="stop-color:rgb(101,148,21);stop-opacity:1"/><stop offset="0.55" style="stop-color:rgb(136,180,36);stop-opacity:1"/><stop offset="1" style="stop-color:rgb(155,195,41);stop-opacity:1"/></linearGradient><filter id="_Effect-jelxeto" filterUnits="userSpaceOnUse" x="6.19005" y="11.5725" width="1.56234" height="1.75047"><feGaussianBlur in="SourceGraphic" stdDeviation="0.106001"/></filter><filter id="_Effect-1n9rnbj" filterUnits="userSpaceOnUse" x="6.21226" y="11.5725" width="1.51793" height="1.75047"><feGaussianBlur in="SourceGraphic" stdDeviation="0.103721"/></filter><filter id="_Effect-uib6xn8" filterUnits="userSpaceOnUse" x="6.63861" y="11.5099" width="0.665217" height="1.87562"><feGaussianBlur in="SourceGraphic" stdDeviation="0.0345638"/></filter><linearGradient id="_Linear-c0uhtn7" x1="0" y1="0" x2="1" y2="0" gradientUnits="userSpaceOnUse" gradientTransform="matrix(0.355103,-5.82752,5.82752,0.355103,11.1097,12.7658)"><stop offset="0" style="stop-color:rgb(86,157,52);stop-opacity:1"/><stop offset="0.12" style="stop-color:rgb(99,166,54);stop-opacity:1"/><stop offset="0.27" style="stop-color:rgb(129,187,58);stop-opacity:1"/><stop offset="0.41" style="stop-color:rgb(135,186,39);stop-opacity:1"/><stop offset="1" style="stop-color:rgb(174,212,49);stop-opacity:1"/></linearGradient><linearGradient id="_Linear-ucrxxo2" x1="0" y1="0" x2="1" y2="0" gradientUnits="userSpaceOnUse" gradientTransform="matrix(0.337067,-4.67881,4.67881,0.337067,10.8558,12.2015)"><stop offset="0" style="stop-color:rgb(74,122,11);stop-opacity:1"/><stop offset="0.29" style="stop-color:rgb(125,172,25);stop-opacity:1"/><stop offset="1" style="stop-color:rgb(175,209,38);stop-opacity:1"/></linearGradient><linearGradient id="_Linear-0hl7lua" x1="0" y1="0" x2="1" y2="0" gradientUnits="userSpaceOnUse" gradientTransform="matrix(0.382735,-4.55444,4.55444,0.382735,10.613,12.5544)"><stop offset="0" style="stop-color:rgb(60,105,8);stop-opacity:1"/><stop offset="0.32" style="stop-color:rgb(100,145,15);stop-opacity:1"/><stop offset="1" style="stop-color:rgb(157,194,29);stop-opacity:1"/></linearGradient><linearGradient id="_Linear-ormbrxb" x1="0" y1="0" x2="1" y2="0" gradientUnits="userSpaceOnUse" gradientTransform="matrix(0.822314,-3.27397,3.27397,0.822314,11.2069,14.4714)"><stop offset="0" style="stop-color:rgb(130,175,20);stop-opacity:1"/><stop offset="0.55" style="stop-color:rgb(160,195,40);stop-opacity:1"/><stop offset="1" style="stop-color:rgb(171,202,47);stop-opacity:1"/></linearGradient><linearGradient id="_Linear-ykcy6ff" x1="0" y1="0" x2="1" y2="0" gradientUnits="userSpaceOnUse" gradientTransform="matrix(0.862026,-3.23975,3.23975,0.862026,10.9596,14.3327)"><stop offset="0" style="stop-color:rgb(123,164,19);stop-opacity:1"/><stop offset="0.47" style="stop-color:rgb(153,185,36);stop-opacity:1"/><stop offset="1" style="stop-color:rgb(167,198,45);stop-opacity:1"/></linearGradient><linearGradient id="_Linear-x4twxqb" x1="0" y1="0" x2="1" y2="0" gradientUnits="userSpaceOnUse" gradientTransform="matrix(-0.697001,-2.21471,2.21471,-0.697001,10.7284,14.6054)"><stop offset="0" style="stop-color:rgb(135,176,29);stop-opacity:1"/><stop offset="0.36" style="stop-color:rgb(167,195,39);stop-opacity:1"/><stop offset="1" style="stop-color:rgb(180,203,41);stop-opacity:1"/></linearGradient><linearGradient id="_Linear-ar96mi3" x1="0" y1="0" x2="1" y2="0" gradientUnits="userSpaceOnUse" gradientTransform="matrix(-0.534898,-2.19406,2.19406,-0.534898,10.4451,14.6059)"><stop offset="0" style="stop-color:rgb(114,147,23);stop-opacity:1"/><stop offset="0.43" style="stop-color:rgb(163,190,36);stop-opacity:1"/><stop offset="1" style="stop-color:rgb(177,198,40);stop-opacity:1"/></linearGradient><filter id="_Effect-j1b5g7h" filterUnits="userSpaceOnUse" x="10.3711" y="12.9641" width="0.683008" height="0.705286"><feGaussianBlur in="SourceGraphic" stdDeviation="0.0322476"/></filter><filter id="_Effect-30oxlhj" filterUnits="userSpaceOnUse" x="10.3712" y="12.9642" width="0.68288" height="0.705154"><feGaussianBlur in="SourceGraphic" stdDeviation="0.0322368"/></filter></defs></svg>