<svg width="100%" height="100%" viewBox="0 0 18 16" version="1.1" xmlns="http://www.w3.org/2000/svg" xmlns:xlink="http://www.w3.org/1999/xlink" xml:space="preserve" style="fill-rule:evenodd;clip-rule:evenodd;stroke-linejoin:round;stroke-miterlimit:2;"><g id="ty"><g transform="matrix(0.15,0,0,0.15,1.5,0.5)"><path d="M100,13.333L100,86.667C100,94.026 94.026,100 86.667,100L13.333,100C5.974,100 0,94.026 0,86.667L0,13.333C0,5.974 5.974,0 13.333,0L86.667,0C94.026,0 100,5.974 100,13.333Z" style="fill:rgb(38,18,48);"/></g><g transform="matrix(0.125,0,0,0.125,6,5)"><path d="M48,7.68L27.84,7.68L27.84,0L3.84,0L3.84,7.68L0,7.68L0,25.92L3.84,25.92L3.84,40.214C3.84,44.514 7.326,48 11.626,48L48,48L48,29.76L27.84,29.76L27.84,25.92L40.214,25.92C44.514,25.92 48,22.434 48,18.134L48,7.68Z" style="fill:rgb(70,235,225);fill-rule:nonzero;"/></g></g></svg>