<svg width="100%" height="100%" viewBox="0 0 18 16" version="1.1" xmlns="http://www.w3.org/2000/svg" xmlns:xlink="http://www.w3.org/1999/xlink" xml:space="preserve" style="fill-rule:evenodd;clip-rule:evenodd;stroke-linejoin:round;stroke-miterlimit:2;"><g id="typst" transform="matrix(1.10714,0,0,1.10714,-0.964286,-0.859654)"><g transform="matrix(1.15171,0,0,1.41385,-0.266325,-0.470478)"><path d="M14.124,3.02L14.124,8.965C14.124,10.058 13.034,10.945 11.692,10.945L4.399,10.945C3.057,10.945 1.968,10.058 1.968,8.965L1.968,3.02C1.968,1.927 3.057,1.04 4.399,1.04L11.692,1.04C13.034,1.04 14.124,1.927 14.124,3.02Z" style="fill:url(#_Linear-js3hakb);"/></g><g transform="matrix(0.327787,0,0,0.327787,-18.4028,3.9138)"><path d="M84.442,18.148C84.442,19.281 84.604,20.04 84.929,20.428C85.254,20.815 85.845,21.009 86.702,21.009C87.588,21.009 88.725,20.562 90.114,19.668L91,21.143C88.4,23.318 86.258,24.406 84.575,24.406C82.891,24.406 81.561,24.004 80.586,23.199C79.611,22.365 79.124,20.905 79.124,18.819L79.124,7.107L76.908,7.107L76.554,5.453L79.124,4.649L79.124,2.458L84.442,0L84.442,4.917L89.671,4.515L89.183,7.42L84.442,7.241L84.442,18.148Z" style="fill:white;fill-rule:nonzero;"/></g></g><defs><linearGradient id="_Linear-js3hakb" x1="0" y1="0" x2="1" y2="0" gradientUnits="userSpaceOnUse" gradientTransform="matrix(-9.99325,7.16754,-8.79899,-8.14038,13.612,2.2829)"><stop offset="0" style="stop-color:rgb(34,182,189);stop-opacity:1"/><stop offset="0.14" style="stop-color:rgb(40,181,184);stop-opacity:1"/><stop offset="0.31" style="stop-color:rgb(54,179,170);stop-opacity:1"/><stop offset="0.57" style="stop-color:rgb(45,172,178);stop-opacity:1"/><stop offset="0.78" style="stop-color:rgb(56,158,185);stop-opacity:1"/><stop offset="1" style="stop-color:rgb(59,153,187);stop-opacity:1"/></linearGradient></defs></svg>