<svg width="100%" height="100%" viewBox="0 0 18 16" version="1.1" xmlns="http://www.w3.org/2000/svg" xmlns:xlink="http://www.w3.org/1999/xlink" xml:space="preserve" style="fill-rule:evenodd;clip-rule:evenodd;stroke-linejoin:round;stroke-miterlimit:2;"><g id="uv" transform="matrix(0.15,0,0,0.15,7.72311,6.88592)"><g transform="matrix(1,0,0,1,-41.4874,-42.5728)"><path d="M100,13.333L100,86.667C100,94.026 94.026,100 86.667,100L13.333,100C5.974,100 0,94.026 0,86.667L0,13.333C0,5.974 5.974,0 13.333,0L86.667,0C94.026,0 100,5.974 100,13.333Z" style="fill:rgb(38,18,48);"/></g><g transform="matrix(1,0,0,1,-41.4874,-42.5728)"><path d="M30,30.169L30.084,50.169L30.152,66.169C30.161,68.378 31.959,70.161 34.168,70.152L50.168,70.084L60.168,70.042L61.185,70.038C63.388,70.028 65.168,68.203 65.168,66L67,66L67,69.999L70.168,70L70,30L51.6,30.078L51.677,46.019L51.677,56L48.4,56L48.477,46.032L48.4,30.091L30,30.169Z" style="fill:rgb(222,95,233);fill-rule:nonzero;"/></g></g></svg>