<svg width="100%" height="100%" viewBox="0 0 18 16" version="1.1" xmlns="http://www.w3.org/2000/svg" xmlns:xlink="http://www.w3.org/1999/xlink" xml:space="preserve" style="fill-rule:evenodd;clip-rule:evenodd;stroke-linejoin:round;stroke-miterlimit:2;"><g id="valkey" transform="matrix(0.287356,0,0,0.287356,0.824713,-1.22414)"><path d="M15.2,50L5.8,44.1L5.8,19.1L28.8,6L51.1,19.1L51.1,45.4L28.4,58.2L20.5,53.3L20.5,41.3L16.2,38.6L16.2,25L28.6,17.9L40.7,25L40.7,39.2L31.1,44.6L31.1,38.9C34,37.8 36,35 36,31.6C36,28.2 32.6,23.8 28.4,23.8C24.2,23.8 20.8,27.3 20.8,31.6C20.8,35.9 22.9,37.8 25.7,38.9L25.7,49.8L28.4,51.5L45.2,42L45.2,22.3L28.6,12.5L11.5,22.3L11.5,40.8L15.1,43.1L15.1,49.9L15.2,50ZM28.5,28.1C30.4,28.1 31.9,29.7 31.9,31.7C31.9,33.7 30.4,35.3 28.5,35.3C26.6,35.3 25.1,33.7 25.1,31.7C25.1,29.7 26.6,28.1 28.5,28.1Z" style="fill:rgb(105,131,255);"/></g></svg>