<svg width="100%" height="100%" viewBox="0 0 18 16" version="1.1" xmlns="http://www.w3.org/2000/svg" xmlns:xlink="http://www.w3.org/1999/xlink" xml:space="preserve" style="fill-rule:evenodd;clip-rule:evenodd;stroke-linejoin:round;stroke-miterlimit:2;"><g transform="matrix(0.5,0,0,0.5,9,8)"><g id="file-video" transform="matrix(1,0,0,1,-16,-16)"><path d="M4.5,2.375C4.91,2.125 5.381,1.995 5.861,2L26.227,2C27.381,2.024 28.381,2.829 28.65,3.951C28.711,4.234 28.735,4.524 28.722,4.813L28.722,15.989L27.149,15.989C27.075,15.992 27.002,15.999 26.929,16.011C26.736,15.997 26.542,15.993 26.348,16C26.048,16.007 25.738,15.986 25.434,16.014C25.302,15.996 25.168,15.989 25.034,15.994L20.295,15.994C20.095,15.994 19.903,16.002 19.708,15.984L19.808,15.919C17.69,14.648 15.572,13.377 13.455,12.106L13.455,15.995C11.242,15.99 9.028,15.995 6.815,15.995C6.731,15.997 6.647,16.004 6.564,16.016C6.352,15.984 6.137,16 5.922,16C5.638,16.006 5.352,15.985 5.069,16.015C4.985,16.002 4.901,15.995 4.816,15.993L3.275,15.993C3.281,12.358 3.275,8.723 3.275,5.093C3.254,4.715 3.278,4.335 3.346,3.962C3.503,3.3 3.919,2.728 4.5,2.375ZM5.04,4.563C4.759,4.631 4.558,4.88 4.551,5.169L4.551,6.485C4.571,6.816 4.846,7.079 5.178,7.085L6.487,7.085C6.812,7.066 7.072,6.802 7.087,6.477C7.092,6.051 7.087,5.624 7.087,5.198C7.092,4.961 6.965,4.739 6.758,4.623C6.648,4.566 6.524,4.539 6.4,4.545L5.264,4.545C5.189,4.543 5.114,4.549 5.04,4.563ZM25.381,4.563C25.106,4.636 24.912,4.885 24.907,5.17L24.907,6.476C24.922,6.801 25.182,7.065 25.507,7.084C25.943,7.089 26.379,7.084 26.815,7.084C27.149,7.078 27.425,6.812 27.442,6.478C27.448,6.04 27.442,5.602 27.442,5.164C27.434,4.836 27.175,4.566 26.848,4.543C26.5,4.534 26.148,4.543 25.803,4.543C25.662,4.536 25.52,4.544 25.381,4.567L25.381,4.563ZM5.042,8.38C4.834,8.429 4.664,8.579 4.59,8.78C4.553,8.905 4.539,9.036 4.549,9.166L4.549,10.301C4.567,10.623 4.827,10.883 5.149,10.901C5.549,10.909 5.944,10.901 6.341,10.901C6.476,10.912 6.612,10.89 6.736,10.836C6.955,10.729 7.095,10.506 7.096,10.262L7.096,8.983C7.089,8.652 6.826,8.379 6.496,8.359C6.158,8.351 5.819,8.359 5.48,8.359C5.334,8.353 5.187,8.36 5.042,8.38ZM25.38,8.38C25.179,8.434 25.017,8.584 24.947,8.78C24.91,8.905 24.896,9.037 24.906,9.167L24.906,10.298C24.922,10.625 25.187,10.89 25.514,10.905C25.92,10.911 26.326,10.905 26.732,10.905C26.863,10.913 26.995,10.886 27.112,10.827C27.317,10.716 27.445,10.502 27.447,10.269L27.447,8.985C27.44,8.657 27.181,8.386 26.854,8.363C26.505,8.354 26.154,8.363 25.807,8.363C25.664,8.354 25.52,8.362 25.379,8.385L25.38,8.38ZM5.041,12.2C4.759,12.267 4.556,12.518 4.55,12.808C4.55,13.246 4.545,13.685 4.55,14.123C4.57,14.454 4.845,14.718 5.177,14.723L6.477,14.723C6.804,14.708 7.069,14.443 7.085,14.116L7.085,12.809C7.079,12.476 6.813,12.2 6.48,12.183C6.132,12.176 5.78,12.183 5.435,12.183C5.303,12.176 5.172,12.182 5.041,12.2ZM25.376,12.206C25.177,12.26 25.017,12.407 24.946,12.6C24.909,12.725 24.895,12.856 24.905,12.986L24.905,14.117C24.92,14.444 25.185,14.709 25.512,14.725C25.947,14.73 26.382,14.725 26.818,14.725C27.152,14.72 27.428,14.453 27.446,14.12C27.452,13.682 27.446,13.244 27.446,12.807C27.439,12.48 27.181,12.208 26.854,12.185C26.505,12.175 26.154,12.185 25.808,12.185C25.664,12.174 25.52,12.179 25.377,12.2L25.376,12.206Z" style="fill:rgb(231,87,73);fill-rule:nonzero;"/><path d="M13.458,12.1C15.575,13.372 17.693,14.643 19.811,15.913L19.711,15.978C17.626,17.226 15.543,18.475 13.46,19.726L13.46,15.99C13.459,14.695 13.456,13.4 13.458,12.1Z" style="fill:white;fill-rule:nonzero;"/><path d="M3.275,15.988L4.816,15.988C4.901,15.99 4.985,15.997 5.069,16.01C4.902,16.043 4.755,16.142 4.66,16.283C4.571,16.44 4.532,16.621 4.549,16.801L4.549,17.846C4.549,17.847 4.549,17.848 4.549,17.849C4.549,18.225 4.858,18.534 5.234,18.535L6.426,18.535C6.752,18.528 7.03,18.288 7.083,17.966C7.091,17.519 7.083,17.066 7.083,16.623C7.079,16.321 6.859,16.063 6.562,16.01C6.645,15.998 6.729,15.991 6.813,15.989L13.453,15.989L13.453,19.725C15.538,18.478 17.621,17.228 19.704,15.977C19.904,15.995 20.095,15.984 20.291,15.987L25.032,15.987C25.166,15.982 25.3,15.989 25.432,16.007C25.219,16.046 25.039,16.191 24.957,16.392C24.914,16.523 24.898,16.662 24.912,16.799L24.912,17.813C24.911,17.827 24.911,17.841 24.911,17.855C24.911,18.227 25.216,18.532 25.588,18.532C25.593,18.532 25.598,18.532 25.603,18.532L26.763,18.532C27.129,18.533 27.435,18.24 27.449,17.874L27.449,16.89C27.472,16.688 27.437,16.484 27.349,16.301C27.256,16.15 27.103,16.044 26.929,16.009C27.002,15.997 27.075,15.99 27.149,15.987L28.722,15.987C28.733,17.708 28.722,19.43 28.722,21.152L28.722,27.445C28.719,28.05 28.502,28.635 28.11,29.096C27.712,29.565 27.156,29.874 26.547,29.964C26.221,29.996 25.893,30.007 25.566,29.997L6.724,29.997C6.267,30.015 5.81,29.999 5.356,29.949C4.392,29.769 3.612,29.05 3.356,28.103C3.293,27.859 3.263,27.609 3.266,27.357L3.266,16.891C3.273,16.591 3.264,16.289 3.275,15.988ZM5.07,19.831C4.916,19.857 4.778,19.941 4.684,20.065C4.59,20.201 4.543,20.364 4.55,20.529L4.55,21.691C4.564,22.057 4.87,22.35 5.236,22.349L6.519,22.349C6.861,22.289 7.107,21.98 7.087,21.633L7.087,20.442C7.088,20.268 7.015,20.102 6.887,19.984C6.752,19.868 6.578,19.808 6.4,19.814L5.264,19.814C5.199,19.814 5.134,19.819 5.07,19.831ZM25.436,19.831C25.148,19.877 24.929,20.12 24.914,20.411L24.914,21.633C24.913,21.647 24.913,21.661 24.913,21.675C24.913,22.046 25.218,22.351 25.589,22.351C25.594,22.351 25.599,22.351 25.604,22.351C26.032,22.351 26.461,22.356 26.889,22.351C27.214,22.286 27.45,21.998 27.451,21.667L27.451,20.654C27.474,20.456 27.431,20.256 27.328,20.086C27.203,19.918 27.005,19.819 26.796,19.819L25.842,19.819C25.707,19.81 25.571,19.814 25.436,19.83L25.436,19.831ZM5.071,23.648C4.91,23.674 4.765,23.764 4.671,23.897C4.584,24.03 4.541,24.186 4.547,24.345L4.547,25.477C4.549,25.822 4.806,26.116 5.147,26.165L6.523,26.165C6.865,26.105 7.11,25.795 7.09,25.448L7.09,24.259C7.091,24.085 7.018,23.918 6.89,23.8C6.756,23.685 6.583,23.624 6.406,23.63L5.265,23.63C5.2,23.63 5.135,23.636 5.071,23.648ZM25.433,23.648C25.201,23.685 25.01,23.851 24.941,24.075C24.913,24.183 24.903,24.294 24.912,24.405L24.912,25.6C24.966,25.921 25.243,26.16 25.568,26.167L26.761,26.167C27.138,26.166 27.448,25.855 27.448,25.478C27.448,25.468 27.447,25.458 27.447,25.448L27.447,24.284C27.448,24.066 27.341,23.862 27.161,23.739C26.914,23.63 26.641,23.592 26.374,23.629C26.062,23.639 25.745,23.609 25.434,23.647L25.433,23.648Z" style="fill:rgb(192,57,43);fill-rule:nonzero;"/></g><g id="file-video1"></g></g></svg>