<svg width="100%" height="100%" viewBox="0 0 18 16" version="1.1" xmlns="http://www.w3.org/2000/svg" xmlns:xlink="http://www.w3.org/1999/xlink" xml:space="preserve" style="fill-rule:evenodd;clip-rule:evenodd;stroke-linejoin:round;stroke-miterlimit:2;"><g id="video-light" transform="matrix(1.77312,0,0,1.77312,-7.43184,-6.54989)"><g transform="matrix(1,0,0,1.01356,0,-0.168015)"><path d="M11.291,6.65L11.291,9.874C11.291,10.573 10.716,11.141 10.008,11.141L6.059,11.141C5.35,11.141 4.775,10.573 4.775,9.874L4.775,6.65C4.775,5.951 5.35,5.383 6.059,5.383L10.008,5.383C10.716,5.383 11.291,5.951 11.291,6.65ZM10.586,6.65C10.586,6.334 10.327,6.079 10.008,6.079L6.059,6.079C5.739,6.079 5.48,6.334 5.48,6.65L5.48,9.874C5.48,10.189 5.739,10.445 6.059,10.445L10.008,10.445C10.327,10.445 10.586,10.189 10.586,9.874L10.586,6.65Z" style="fill:rgb(180,180,180);"/></g><g transform="matrix(7.01954e-17,-1.14638,0.473357,2.89848e-17,8.87442,22.1897)"><path d="M11.537,3.72L12.862,3.712C13.07,3.711 13.261,3.981 13.363,4.419L14.322,8.528C14.422,8.958 14.42,9.485 14.317,9.912C14.215,10.339 14.026,10.602 13.822,10.602L10.575,10.602C10.37,10.602 10.181,10.338 10.079,9.911C9.976,9.483 9.975,8.955 10.076,8.525L11.039,4.423C11.141,3.989 11.331,3.721 11.537,3.72ZM11.538,5.11L10.575,9.212L13.822,9.212L12.863,5.102L11.538,5.11Z" style="fill:rgb(180,180,180);"/></g></g></svg>