<svg width="100%" height="100%" viewBox="0 0 18 16" version="1.1" xmlns="http://www.w3.org/2000/svg" xmlns:xlink="http://www.w3.org/1999/xlink" xml:space="preserve" style="fill-rule:evenodd;clip-rule:evenodd;stroke-linejoin:round;stroke-miterlimit:2;"><g id="vue" transform="matrix(0.0611247,0,0,0.0611247,9,8)"><g transform="matrix(1,0,0,1,-130.88,-113.345)"><clipPath id="_clip1"><rect x="0" y="0" width="261.76" height="226.69"/></clipPath><g clip-path="url(#_clip1)"><g transform="matrix(1.3333,0,0,-1.3333,-76.311,313.34)"><g transform="matrix(1,0,0,1,178.06,235.01)"><path d="M0,0L-22.669,-39.264L-45.338,0L-120.829,0L-22.669,-170.02L75.491,0L0,0Z" style="fill:rgb(65,184,131);fill-rule:nonzero;"/></g><g transform="matrix(1,0,0,1,178.06,235.01)"><path d="M0,0L-22.669,-39.264L-45.338,0L-81.565,0L-22.669,-102.01L36.227,0L0,0Z" style="fill:rgb(52,73,94);fill-rule:nonzero;"/></g></g></g></g></g></svg>