<svg width="100%" height="100%" viewBox="0 0 18 16" version="1.1" xmlns="http://www.w3.org/2000/svg" xmlns:xlink="http://www.w3.org/1999/xlink" xml:space="preserve" style="fill-rule:evenodd;clip-rule:evenodd;stroke-linejoin:round;stroke-miterlimit:2;"><g id="vyper" transform="matrix(0.314925,0,0,0.314925,2.63753,1)"><path d="M23.314,36.866L9.948,23.5C9.403,22.933 9.103,22.166 9.103,21.311L9.103,2.233C9.103,1.122 7.992,0.011 6.881,0.011L2.425,0.011C1.314,0.011 0.203,1.122 0.203,2.233L0.203,24.455C0.203,25.633 0.636,26.766 1.47,27.6L17.025,43.155C17.892,44.022 19.025,44.455 20.17,44.455L22.392,44.455C23.625,44.455 24.614,43.455 24.614,42.233L24.614,40.022C24.614,38.877 24.181,37.744 23.314,36.877L23.314,36.866Z" style="fill:rgb(159,76,242);fill-rule:nonzero;"/><path d="M40.203,2.222C40.203,1.1 39.103,0 37.981,0L33.525,0C32.414,0 31.303,1.111 31.303,2.222L31.303,21.289C31.303,22.144 30.97,22.911 30.414,23.489L25.937,27.966C25.07,28.833 24.637,29.966 24.637,31.111L24.637,33.333C24.637,34.566 25.637,35.555 26.859,35.555L29.081,35.555C30.214,35.555 31.359,35.122 32.225,34.255L38.892,27.589C39.725,26.755 40.192,25.622 40.192,24.444L40.192,2.222L40.203,2.222Z" style="fill:rgb(159,76,242);fill-rule:nonzero;"/></g></svg>