<svg width="100%" height="100%" viewBox="0 0 18 16" version="1.1" xmlns="http://www.w3.org/2000/svg" xmlns:xlink="http://www.w3.org/1999/xlink" xml:space="preserve" style="fill-rule:evenodd;clip-rule:evenodd;"><g id="webidl" transform="matrix(1.07692,0,0,1.07692,2,1)"><g transform="matrix(0.0175084,0,0,0.0175084,-0.722222,-0.722222)"><circle cx="412.5" cy="412.5" r="371.25" style="fill:white;stroke:rgb(60,121,10);stroke-width:82.5px;"/></g><g transform="matrix(0.0175084,0,0,0.0175084,-0.722222,-0.722222)"><path d="M249.107,387.558L249.107,436.483C271.607,436.483 289.286,441.279 302.143,448.953C316.607,456.628 324.643,468.14 329.464,481.57C334.286,495 335.893,518.983 335.893,552.558C335.893,586.134 337.5,608.198 339.107,618.75C342.321,636.017 347.143,649.448 353.571,659.041C360,669.593 369.643,677.267 379.286,683.023C388.929,688.779 403.393,693.576 417.857,697.413C429.107,699.331 446.786,701.25 470.893,701.25L495,701.25L495,654.244L482.143,654.244C453.214,654.244 432.321,650.407 422.679,642.733C413.036,635.058 408.214,618.75 408.214,591.89C408.214,542.006 406.607,510.349 405,496.919C400.179,474.855 392.143,456.628 377.679,443.198C363.214,429.767 343.929,419.215 319.821,412.5C351.964,401.948 376.071,386.599 388.929,368.372C401.786,350.145 408.214,319.448 408.214,276.279C408.214,236.948 408.214,213.924 409.821,206.25C411.429,192.82 417.857,183.227 425.893,178.43C435.536,173.634 453.214,170.756 480.536,170.756L493.393,170.756L493.393,123.75L469.286,123.75C441.964,123.75 421.071,125.669 408.214,128.547C390.536,133.343 374.464,140.058 363.214,150.61C351.964,161.163 343.929,174.593 340.714,189.942C337.5,206.25 335.893,232.151 334.286,267.645C334.286,304.099 331.071,329.041 327.857,342.471C323.036,355.901 313.393,367.413 300.536,375.087C286.071,382.762 268.393,387.558 247.5,387.558L249.107,387.558Z" style="fill:rgb(60,121,10);fill-rule:nonzero;"/></g></g></svg>