<svg width="100%" height="100%" viewBox="0 0 18 16" version="1.1" xmlns="http://www.w3.org/2000/svg" xmlns:xlink="http://www.w3.org/1999/xlink" xml:space="preserve" style="fill-rule:evenodd;clip-rule:evenodd;stroke-linejoin:round;stroke-miterlimit:2;"><g transform="matrix(0.117188,0,0,0.117188,9,8)"><g id="webpack" transform="matrix(1,0,0,1,-64,-64)"><g id="original"><path d="M117.29,98.1L66.24,127L66.24,104.49L98,87L117.29,98.1ZM120.79,94.94L120.79,34.55L102.11,45.35L102.11,84.16L120.78,94.93L120.79,94.94ZM10.71,98.1L61.71,126.98L61.71,104.49L29.94,87L10.71,98.1ZM7.21,94.94L7.21,34.55L25.89,45.35L25.89,84.16L7.21,94.94ZM9.4,30.64L61.76,1L61.76,22.76L28.21,41.21L27.94,41.36L9.4,30.64ZM118.58,30.64L66.24,1L66.24,22.76L99.79,41.2L100.06,41.35L118.6,30.64L118.58,30.64Z" style="fill:rgb(142,214,251);fill-rule:nonzero;"/><path d="M61.76,99.37L30.37,82.1L30.37,47.92L61.76,66L61.76,99.37ZM66.24,99.37L97.63,82.12L97.63,47.92L66.24,66L66.24,99.37ZM32.5,44L64,26.66L95.5,44L64,62.16L32.5,44Z" style="fill:rgb(28,120,192);fill-rule:nonzero;"/></g></g><g id="webpack1"></g></g></svg>