<svg width="100%" height="100%" viewBox="0 0 18 16" version="1.1" xmlns="http://www.w3.org/2000/svg" xmlns:xlink="http://www.w3.org/1999/xlink" xml:space="preserve" style="fill-rule:evenodd;clip-rule:evenodd;stroke-linejoin:round;stroke-miterlimit:2;"><g id="wwpdb" transform="matrix(0.011583,0,0,0.0118319,8.46812,6.91203)"><g transform="matrix(4.4018,0,0,4.14633,-947.145,9.7428)"><path d="M98.542,50.253L119.703,50.253C146.515,50.253 164.209,40.561 164.209,26.084C164.209,18.787 159.101,12.061 150.71,7.844C141.773,3.512 131.376,1.801 112.589,1.801L60.786,1.801L59.149,76.139L60.786,77.841L98.542,77.841L98.542,50.253ZM98.179,33.949L98.179,19.242L111.677,19.242C122.074,19.242 126.998,21.639 126.998,26.539C126.998,31.555 121.709,33.949 110.584,33.949L98.179,33.949Z" style="fill:rgb(51,83,72);fill-rule:nonzero;"/></g><g transform="matrix(4.44829,0,0,4.16667,-958.306,-1.13687e-13)"><path d="M98.542,50.253L119.703,50.253C146.515,50.253 164.209,40.561 164.209,26.084C164.209,18.787 159.101,12.061 150.71,7.844C141.773,3.512 131.376,1.801 112.589,1.801L60.786,1.801L60.786,77.841L98.542,77.841L98.542,50.253ZM98.179,33.949L98.179,19.242L111.677,19.242C122.074,19.242 126.998,21.639 126.998,26.539C126.998,31.555 121.709,33.949 110.584,33.949L98.179,33.949Z" style="fill:rgb(101,152,100);"/></g><g transform="matrix(4.39093,0,0,4.13164,-957.884,11.4044)"><path d="M175.452,78.036L223.304,77.841C257.959,77.841 282.037,62.223 282.037,39.993C282.037,29.047 276.382,19.586 265.804,12.518C254.677,5.108 240.996,1.801 220.933,1.801L173.873,1.801L173.873,75.78L175.452,78.036ZM211.265,60.399L211.265,19.016L220.933,19.016C234.066,19.016 243.003,27.223 243.003,39.423C243.003,51.848 234.066,60.399 220.933,60.399L211.265,60.399Z" style="fill:rgb(51,83,72);fill-rule:nonzero;"/></g><g transform="matrix(4.37387,0,0,4.16667,-955.084,-1.13687e-13)"><path d="M173.873,77.841L223.304,77.841C257.959,77.841 282.037,62.223 282.037,39.993C282.037,29.047 276.382,19.586 265.804,12.518C254.677,5.108 240.996,1.801 220.933,1.801L173.873,1.801L173.873,77.841ZM211.265,60.399L211.265,19.016L220.933,19.016C234.066,19.016 243.003,27.223 243.003,39.423C243.003,51.848 234.066,60.399 220.933,60.399L211.265,60.399Z" style="fill:rgb(101,152,100);"/></g><g transform="matrix(4.32072,0,0,4.22044,-928.25,5.01884)"><path d="M328,30.985L328,18.104L344.597,18.104C352.625,18.104 357,20.385 357,24.489C357,28.592 352.625,30.985 345.144,30.985L328,30.985ZM293.525,77.841L351.527,77.841C366.121,77.841 375.242,76.7 381.806,73.966C390.015,70.544 395.304,63.591 395.304,56.067C395.304,46.719 387.279,40.79 371.775,38.397C385.089,35.889 392.203,30.074 392.203,21.75C392.203,9.553 377.976,1.801 355.359,1.801L293.525,1.801L292.183,75.527L293.525,77.841ZM328,60.854L328,47.175L344.962,47.175C354.082,47.175 359.189,49.682 359.189,54.13C359.189,58.231 354.082,60.854 346.238,60.854L328,60.854Z" style="fill:rgb(51,83,72);fill-rule:nonzero;"/></g><g transform="matrix(4.32116,0,0,4.16667,-933.675,-0.0689844)"><path d="M328,30.985L328,18.104L344.597,18.104C352.625,18.104 357,20.385 357,24.489C357,28.592 352.625,30.985 345.144,30.985L328,30.985ZM293.525,77.841L351.527,77.841C366.121,77.841 375.242,76.7 381.806,73.966C390.015,70.544 395.304,63.591 395.304,56.067C395.304,46.719 387.279,40.79 371.775,38.397C385.089,35.889 392.203,30.074 392.203,21.75C392.203,9.553 377.976,1.801 355.359,1.801L293.525,1.801L293.525,77.841ZM328,60.854L328,47.175L344.962,47.175C354.082,47.175 359.189,49.682 359.189,54.13C359.189,58.231 354.082,60.854 346.238,60.854L328,60.854Z" style="fill:rgb(101,152,100);"/></g></g></svg>