<svg width="100%" height="100%" viewBox="0 0 18 16" version="1.1" xmlns="http://www.w3.org/2000/svg" xmlns:xlink="http://www.w3.org/1999/xlink" xml:space="preserve" style="fill-rule:evenodd;clip-rule:evenodd;stroke-linejoin:round;stroke-miterlimit:2;"><g id="xmake" transform="matrix(0.234375,0,0,0.234375,6.95053,6.41928)"><g id="outside_s" transform="matrix(1,0,0,1,-23.2556,-25.2556)"><g style="filter:url(#_Effect-ava8q9t);"><circle cx="32" cy="32" r="30" style="fill:rgb(134,134,134);"/></g></g><g id="outside_s1" transform="matrix(1,0,0,1,-23.2556,-25.2556)"><circle cx="32" cy="32" r="30" style="fill:rgb(224,242,241);"/></g><g transform="matrix(0.910222,0,0,0.910222,-20.3827,-22.3827)"><path d="M7.355,14.898C12.776,7.105 21.796,2 32,2C38.753,2 44.987,4.236 50.003,8.007L23.092,24.603L7.355,14.898Z" style="fill:rgb(224,242,241);"/></g><g transform="matrix(0.990382,0,0,0.990382,-23.2328,-24.6503)"><path d="M48.387,10.161C55.016,15.145 59.307,23.076 59.307,32C59.307,36.728 58.102,41.177 55.984,45.057L23.892,25.267L48.387,10.161Z" style="fill:rgb(133,183,175);"/></g><g transform="matrix(1,0,0,1,-23.2556,-25.2556)"><g style="filter:url(#_Effect-occu8az);"><path d="M48.387,10.161C55.016,15.145 59.307,23.076 59.307,32C59.307,36.728 58.102,41.177 55.984,45.057L23.892,25.267L48.387,10.161Z" style="fill:rgb(133,183,175);"/></g></g><g transform="matrix(1,0,0,1,-24.1797,-25.7957)"><g style="filter:url(#_Effect-wtz2j9a);"><path d="M48.772,10.162C55.401,15.146 59.307,23.076 59.307,32C59.307,36.728 58.102,41.177 55.984,45.057L24.073,26.055L48.772,10.162Z" style="fill:rgb(133,183,175);"/></g></g><g transform="matrix(1,0,0,1,-23.2556,-25.2556)"><path d="M55.925,44.847C51.117,53.113 42.343,58.854 32,58.854C18.581,58.854 8.475,49.399 5.122,36.841L23.892,25.267L55.925,44.847Z" style="fill:rgb(72,162,124);"/></g><g transform="matrix(1.00664,0,0,1.00664,-23.4585,-25.5365)"><g style="filter:url(#_Effect-mz1d93j);"><path d="M55.984,45.057C51.35,53.544 42.343,59.307 32,59.307C18.581,59.307 7.41,49.606 5.122,36.841L23.892,25.267L55.984,45.057Z" style="fill:rgb(72,162,124);"/></g></g><g transform="matrix(1,0,0,1,-23.2556,-25.2556)"><path d="M5.172,36.804C4.89,35.233 4.772,33.688 4.772,32.036C4.772,26.253 6.495,20.851 9.568,16.433L23.892,25.267L5.172,36.804Z" style="fill:rgb(139,195,73);"/></g><g transform="matrix(1.04452,0,0,1.04452,-23.8919,-26.4416)"><g style="filter:url(#_Effect-55dg91m);"><path d="M5.122,36.841C4.84,35.27 4.693,33.652 4.693,32C4.693,26.217 6.495,20.851 9.568,16.433L23.892,25.267L5.122,36.841Z" style="fill:rgb(139,195,73);"/></g></g></g><defs><filter id="_Effect-ava8q9t" filterUnits="userSpaceOnUse" x="-1.96936" y="-1.96936" width="67.9387" height="67.9387"><feGaussianBlur in="SourceGraphic" stdDeviation="0.66156"/></filter><filter id="_Effect-occu8az" filterUnits="userSpaceOnUse" x="22.3266" y="8.59599" width="38.5453" height="38.0262"><feGaussianBlur in="SourceGraphic" stdDeviation="0.260879"/></filter><filter id="_Effect-wtz2j9a" filterUnits="userSpaceOnUse" x="20.9626" y="7.05168" width="41.454" height="41.1152"><feGaussianBlur in="SourceGraphic" stdDeviation="0.518326"/></filter><filter id="_Effect-mz1d93j" filterUnits="userSpaceOnUse" x="1.19186" y="21.3365" width="58.7224" height="41.9003"><feGaussianBlur in="SourceGraphic" stdDeviation="0.655025"/></filter><filter id="_Effect-55dg91m" filterUnits="userSpaceOnUse" x="0.461166" y="12.2013" width="27.6629" height="28.8723"><feGaussianBlur in="SourceGraphic" stdDeviation="0.705361"/></filter></defs></svg>