<svg width="100%" height="100%" viewBox="0 0 18 16" version="1.1" xmlns="http://www.w3.org/2000/svg" xmlns:xlink="http://www.w3.org/1999/xlink" xml:space="preserve" style="fill-rule:evenodd;clip-rule:evenodd;stroke-linejoin:round;stroke-miterlimit:2;"><g id="yaml-light" transform="matrix(0.0398388,0,0,0.0398388,-1.19873,-1.37406)"><g id="Y" transform="matrix(0.8,0,0,0.8,51.2,47.0412)"><path d="M235.793,0L143.978,137.674L143.978,224.949L87.702,224.949L87.702,137.674L0,0L63.25,0L119.018,88.646L175.243,0L235.793,0Z" style="fill:white;fill-rule:nonzero;"/></g><g id="A" transform="matrix(0.8,0,0,0.8,51.2,47.0412)"><path d="M330.294,175.451L228.433,175.451L207.716,225.475L162.61,225.475L257.99,0.526L304.127,0.526L395.637,225.475L347.437,225.475L330.293,175.451L330.294,175.451ZM313.374,130.54L282.148,47.99L247.311,130.54L313.374,130.54Z" style="fill:rgb(240,123,127);fill-rule:nonzero;"/></g><g id="M" transform="matrix(0.8,0,0,0.8,51.2,47.0412)"><path d="M87.701,250.177L87.701,470.647L135.004,470.647L135.004,318.569L184.509,420.789L221.743,420.789L272.939,314.976L272.939,470.602L318.318,470.602L318.318,250.177L256.358,250.177L201.381,349.883L149.021,250.177L87.701,250.177Z" style="fill:white;fill-rule:nonzero;"/></g><g id="L" transform="matrix(0.8,0,0,0.8,51.2,47.0412)"><path d="M512,422.735L395.638,422.735L395.638,250.125L347.442,250.125L347.442,469.647L512,469.647L512,422.735Z" style="fill:white;fill-rule:nonzero;"/></g></g></svg>