<svg width="100%" height="100%" viewBox="0 0 18 16" version="1.1" xmlns="http://www.w3.org/2000/svg" xmlns:xlink="http://www.w3.org/1999/xlink" xml:space="preserve" style="fill-rule:evenodd;clip-rule:evenodd;stroke-linejoin:round;stroke-miterlimit:2;"><g transform="matrix(0.117188,0,0,0.117188,9,8)"><g id="yarn" transform="matrix(1,0,0,1,-64,-64)"><g transform="matrix(1.6694,0,0,1.6694,-49.6325,-42.8108)"><path d="M99.24,80.71C94.9,80.76 91.1,83 87.89,85C81.89,88.71 78.89,88.47 78.89,88.47L78.79,88.3C78.38,87.63 80.71,81.62 78.1,74.46C75.28,66.63 70.8,64.74 71.16,64.14C72.69,61.55 76.52,57.44 78.05,49.78C78.96,45.14 78.72,37.5 76.66,33.5C76.28,32.76 72.88,34.74 72.88,34.74C72.88,34.74 69.7,27.65 68.81,27.08C65.94,25.24 62.81,34.69 62.81,34.69C58.419,34.26 54.073,35.93 51.1,39.19C50.012,40.238 48.693,41.015 47.25,41.46C46.84,41.6 46.34,41.58 45.1,44.93C43.2,50 48.34,55.74 48.34,55.74C48.34,55.74 42.21,60.07 39.94,65.46C38.424,69.155 37.823,73.163 38.19,77.14C38.557,81.117 33.83,80.92 33.55,84.82C33.29,87.552 33.911,90.296 35.32,92.65C35.639,93.331 36.325,93.768 37.077,93.768C37.38,93.768 37.679,93.696 37.95,93.56C38.221,93.424 35.05,96.94 37.76,98.37C40.23,99.66 44.39,100.37 46.59,98.18C48.19,96.58 48.51,93.01 49.1,91.55C49.24,91.21 49.72,92.12 50.18,92.55C50.604,92.921 51.059,93.256 51.54,93.55C52.021,93.844 47.64,95.23 49.24,99.06C49.77,100.33 51.66,101.14 54.75,101.12C55.9,101.12 68.51,100.4 71.87,99.59C72.886,99.429 73.811,98.911 74.48,98.13C79.936,96.507 85.147,94.152 89.97,91.13C94.71,88.04 96.65,87.2 100.48,86.29C103.64,85.54 103.43,80.64 99.24,80.71Z" style="fill:rgb(44,142,187);fill-rule:nonzero;"/></g></g><g id="yarn1"></g></g></svg>