<svg width="100%" height="100%" viewBox="0 0 18 16" version="1.1" xmlns="http://www.w3.org/2000/svg" xmlns:xlink="http://www.w3.org/1999/xlink" xml:space="preserve" style="fill-rule:evenodd;clip-rule:evenodd;stroke-linejoin:round;stroke-miterlimit:2;"><g id="yaws" transform="matrix(0.0392178,0,0,0.0392178,-3.63665,-0.345234)"><g transform="matrix(0.742562,0,0,2.25189,118.228,169.683)"><path d="M12.165,15.688C4.452,13.799 -1.622,9.066 0.388,0.076L227.27,0.074C227.27,0.074 226.093,8.436 227.589,11.848C230.278,17.981 240.782,20.567 276.448,20.567C312.091,20.567 321.755,17.337 324.268,11.453C325.775,7.919 324.696,0.125 324.696,0.125L548.992,0.076C548.992,0.076 551.626,9.409 543.799,12.891C510.803,27.564 382.747,28.849 382.747,28.849L382.035,38.172L162.088,38.213L160.123,28.199C160.123,28.199 63.34,28.22 12.165,15.688Z" style="fill:rgb(238,39,40);fill-rule:nonzero;"/></g><g transform="matrix(2.12391,0,0,2.12391,118.383,170.268)"><path d="M20.107,4.899C20.337,5.332 30.481,18.615 31.608,20.14C32.658,21.561 30.594,36.877 31.288,37.899C31.98,38.921 37.4,39.093 38.786,38.4C40.17,37.708 43.196,34.932 42.25,32.857C41.303,30.782 37.936,23.006 38.534,21.525C39.131,20.045 41.099,17.797 41.387,17.428C41.75,16.964 52.471,2.38 53.164,2.38C53.856,2.38 54.803,1.688 54.803,1.688C54.803,1.688 55.284,0.673 54.255,0.673C53.225,0.673 49.545,1.004 48.506,1.69C47.467,2.375 42.503,10.192 42.503,10.192L38.81,15.407C38.81,15.407 36.854,16.973 36.289,16.713C34.986,16.116 27.728,7.218 27.728,7.218C27.728,7.218 21.947,0.787 20.951,0.745C19.954,0.704 19.761,4.25 20.107,4.899Z" style="fill:rgb(17,35,41);"/></g><g transform="matrix(2.12391,0,0,2.12391,118.383,170.268)"><path d="M58.894,19.7C58.894,19.7 59.757,16.076 59.06,15.04C58.363,14.005 56.438,14.129 55.51,14.441C54.049,14.934 53.164,15.271 53.164,15.271C53.164,15.271 51.855,15.652 50.661,15.461C49.694,15.307 49.759,13.885 49.906,13.416C50.055,12.942 52.47,11.015 54.125,10.574C57.276,9.732 59.289,9.973 61.051,10.663C62.814,11.353 63.821,12.363 64.514,14.441C65.208,16.519 64.938,25.429 64.278,27.146C63.73,28.577 61.475,30.973 57.806,30.973C55.004,30.973 52.128,29.777 50.392,28.201C48.88,26.829 47.015,24.726 46.705,22.826C46.462,21.335 47.199,20.024 48.314,19.561C50.084,18.824 54.22,18.785 56.297,19.197L58.894,19.7ZM54.959,20.772C53.183,20.772 51.741,21.986 51.741,23.48C51.741,24.975 53.183,26.188 54.959,26.188C56.736,26.188 58.178,24.975 58.178,23.48C58.178,21.986 56.736,20.772 54.959,20.772Z" style="fill:rgb(17,35,41);"/></g><g transform="matrix(2.12391,0,0,2.12391,118.383,170.268)"><path d="M78.098,21.273C79.495,21.273 82.483,12.066 83.122,11.798C83.815,11.508 84.994,11.228 85.718,11.575C86.707,12.049 89.637,20.93 90.352,21.247C91.117,21.587 93.043,16.617 94.031,15.425C94.928,14.343 100.158,9.497 100.559,9.497C100.958,9.497 100.894,9.861 100.894,10.557C100.894,11.252 100.265,19.195 98.879,21.62C97.494,24.045 94.08,27.919 91.439,28.201C90.127,28.34 86.411,22.659 85.958,21.273C85.669,20.39 84.334,20.582 83.855,21.273C83.545,21.72 79.425,30.872 78.098,31.366C76.874,31.823 75.29,31.9 74.935,31.27C74.579,30.64 68.23,17.641 67.708,15.733C67.342,14.396 67.361,11.23 67.708,10.883C68.055,10.536 68.398,9.502 69.439,9.847C71.576,10.557 77.544,21.273 78.098,21.273Z" style="fill:rgb(17,35,41);"/></g><g transform="matrix(2.12391,0,0,2.12391,118.383,170.268)"><path d="M102.028,28.833C102.028,28.833 107.744,29.791 109.822,29.099C111.9,28.407 115.95,26.123 116.127,23.617C116.243,21.977 115.505,20.847 114.119,19.891C112.844,19.01 109.721,17.361 109.721,15.643C109.721,14.419 111.57,13.529 112.607,13.529C113.643,13.529 114.81,14.187 116.889,12.535C118.968,10.883 118.584,10.149 118.584,9.823C118.584,9.497 118.275,8.807 117.582,8.807C116.889,8.807 112.042,8.807 109.612,9.497C107.074,10.218 103.743,11.28 103.729,14.347C103.715,17.414 109.067,20.159 109.718,21.84C110.229,23.159 108.214,24.612 106.499,25.865C104.997,26.963 104.076,27.103 103.036,27.77C101.996,28.436 102.028,28.833 102.028,28.833Z" style="fill:rgb(17,35,41);"/></g></g></svg>