<svg width="100%" height="100%" viewBox="0 0 18 16" version="1.1" xmlns="http://www.w3.org/2000/svg" xmlns:xlink="http://www.w3.org/1999/xlink" xml:space="preserve" style="fill-rule:evenodd;clip-rule:evenodd;stroke-linejoin:round;stroke-miterlimit:2;"><g id="yugabyte" transform="matrix(1.11248,0,0,1.11248,-1.09057,-0.639751)"><path d="M11.23,7.766C11.23,7.766 11.232,3.454 11.232,2.475C11.232,2.171 11.428,1.923 11.753,1.923C12.363,1.924 14.266,1.924 14.901,1.924C15.307,1.924 15.467,2.083 15.462,2.486C15.454,3.038 15.475,4.224 15.479,4.815C15.481,5.132 15.336,5.493 14.97,5.887C14.74,6.134 14.015,6.503 13.387,6.817C12.353,7.333 11.23,7.766 11.23,7.766Z" style="fill:rgb(239,96,64);"/><g transform="matrix(-1,0,0,-1,22.4633,15.5324)"><path d="M11.23,7.766C11.23,7.766 11.232,3.454 11.232,2.475C11.232,2.171 11.428,1.923 11.753,1.923C12.363,1.924 14.266,1.924 14.901,1.924C15.307,1.924 15.467,2.083 15.462,2.486C15.454,3.038 15.475,4.224 15.479,4.815C15.481,5.132 15.336,5.493 14.97,5.887C14.74,6.134 14.015,6.503 13.387,6.817C12.353,7.333 11.23,7.766 11.23,7.766Z" style="fill:rgb(239,96,64);"/></g><g transform="matrix(-1,0,0,1,18.1407,0)"><path d="M12.421,7.3C11.765,7.638 11.225,7.482 11.231,6.756C11.241,5.421 11.232,3.154 11.232,2.475C11.232,2.171 11.428,1.923 11.753,1.923C12.363,1.924 14.266,1.924 14.901,1.924C15.307,1.924 15.467,2.083 15.462,2.486C15.454,3.038 15.475,4.224 15.479,4.815C15.481,5.132 15.336,5.493 14.97,5.887C14.74,6.134 14.015,6.503 13.387,6.817C12.961,7.029 12.795,7.106 12.421,7.3Z" style="fill:rgb(239,96,64);"/></g></g></svg>