<svg width="100%" height="100%" viewBox="0 0 18 16" version="1.1" xmlns="http://www.w3.org/2000/svg" xmlns:xlink="http://www.w3.org/1999/xlink" xml:space="preserve" style="fill-rule:evenodd;clip-rule:evenodd;stroke-linejoin:round;stroke-miterlimit:2;"><g id="zig" transform="matrix(0.0980392,0,0,0.0980392,1.5,1.13725)"><g><path d="M46,22L28,44L19,30L46,22Z" style="fill:rgb(247,164,29);fill-rule:nonzero;"/><path d="M46,22L33,33L28,44L22,44L22,95L31,95L20,100L12,117L0,117L0,22L46,22Z" style="fill:rgb(247,164,29);fill-rule:nonzero;"/><path d="M31,95L12,117L4,106L31,95Z" style="fill:rgb(247,164,29);fill-rule:nonzero;"/></g><g><path d="M56,22L62,36L37,44L56,22Z" style="fill:rgb(247,164,29);fill-rule:nonzero;"/><path d="M56,22L111,22L111,44L37,44L56,32L56,22Z" style="fill:rgb(247,164,29);fill-rule:nonzero;"/><path d="M116,95L97,117L90,104L116,95Z" style="fill:rgb(247,164,29);fill-rule:nonzero;"/><path d="M116,95L100,104L97,117L42,117L42,95L116,95Z" style="fill:rgb(247,164,29);fill-rule:nonzero;"/><path d="M150,0L52,117L3,140L101,22L150,0Z" style="fill:rgb(247,164,29);fill-rule:nonzero;"/></g><g><path d="M141,22L140,40L122,45L141,22Z" style="fill:rgb(247,164,29);fill-rule:nonzero;"/><path d="M153,22L153,117L106,117L120,105L125,95L131,95L131,45L122,45L132,36L141,22L153,22Z" style="fill:rgb(247,164,29);fill-rule:nonzero;"/><path d="M125,95L130,110L106,117L125,95Z" style="fill:rgb(247,164,29);fill-rule:nonzero;"/></g></g></svg>