<svg width="100%" height="100%" viewBox="0 0 18 16" version="1.1" xmlns="http://www.w3.org/2000/svg" xmlns:xlink="http://www.w3.org/1999/xlink" xml:space="preserve" style="fill-rule:evenodd;clip-rule:evenodd;stroke-linejoin:round;stroke-miterlimit:2;"><g id="zizmor" transform="matrix(0.388889,0,0,0.388889,5.59602,4.98491)"><g transform="matrix(1,0,0,1,-9.24691,-10.2469)"><path d="M36,1C16.118,1 1,16.118 1,36L18.042,36C18.042,26.083 26.084,18.042 36,18.042L36,1Z" style="fill:rgb(135,103,172);fill-rule:nonzero;"/></g><g transform="matrix(1,0,0,1,-9.24691,-10.2469)"><path d="M0,35.999L3.042,35.999C3.042,17.81 17.776,3.064 35.959,3.042L35.959,0C16.095,0.023 0,16.131 0,35.999Z" style="fill:rgb(235,32,39);fill-rule:nonzero;"/></g><g transform="matrix(1,0,0,1,-9.24691,-10.2469)"><path d="M3.083,36L6.083,36C6.083,19.468 19.473,6.065 36,6.043L36,3.043C17.817,3.065 3.083,17.811 3.083,36Z" style="fill:rgb(241,144,32);fill-rule:nonzero;"/></g><g transform="matrix(1,0,0,1,-9.24691,-10.2469)"><path d="M6.083,36L9.083,36C9.083,21.125 21.13,9.065 36,9.043L36,6.043C19.473,6.065 6.083,19.468 6.083,36Z" style="fill:rgb(255,203,76);fill-rule:nonzero;"/></g><g transform="matrix(1,0,0,1,-9.24691,-10.2469)"><path d="M9.083,36L12.083,36C12.083,22.783 22.788,12.065 36,12.043L36,9.043C21.13,9.065 9.083,21.125 9.083,36Z" style="fill:rgb(92,144,63);fill-rule:nonzero;"/></g><g transform="matrix(1,0,0,1,-9.24691,-10.2469)"><path d="M12.083,36L15.083,36C15.083,24.44 24.445,15.066 36,15.044L36,12.043C22.788,12.065 12.083,22.783 12.083,36Z" style="fill:rgb(34,103,152);fill-rule:nonzero;"/></g></g></svg>