<?xml version="1.0" encoding="UTF-8" standalone="no"?><!DOCTYPE svg PUBLIC "-//W3C//DTD SVG 1.1//EN" "http://www.w3.org/Graphics/SVG/1.1/DTD/svg11.dtd"><svg width="100%" height="100%" viewBox="0 0 18 16" version="1.1" xmlns="http://www.w3.org/2000/svg" xmlns:xlink="http://www.w3.org/1999/xlink" xml:space="preserve" xmlns:serif="http://www.serif.com/" style="fill-rule:evenodd;clip-rule:evenodd;stroke-linejoin:round;stroke-miterlimit:2;"><g transform="matrix(-1.34704,0,0,-1.34704,21.1233,18.4335)"><g id="zukan"><path d="M8.363,6.763C8.391,6.767 8.42,6.77 8.45,6.77C8.754,6.77 9,6.523 9,6.22C9,5.916 8.754,5.67 8.45,5.67C8.146,5.67 7.9,5.916 7.9,6.22C7.9,6.222 7.9,6.224 7.9,6.226C7.598,6.447 7.145,6.801 6.689,7.237C6.46,6.977 6.248,6.698 6.081,6.407C5.699,5.746 5.525,5.123 5.527,4.625C5.528,4.347 5.582,4.114 5.699,3.954C5.806,3.808 5.974,3.729 6.166,3.683C6.412,3.623 6.695,3.618 6.982,3.64C7.912,3.712 8.876,4.073 8.876,4.073C8.956,4.103 9.044,4.103 9.124,4.073C9.124,4.073 10.088,3.712 11.018,3.64C11.305,3.618 11.588,3.623 11.834,3.683C12.026,3.729 12.194,3.808 12.301,3.954C12.418,4.114 12.472,4.347 12.473,4.625C12.475,5.123 12.301,5.746 11.919,6.407C11.341,7.41 10.247,8.285 9.693,8.688C9.648,8.676 9.6,8.669 9.55,8.669C9.246,8.669 9,8.916 9,9.219C9,9.523 9.246,9.769 9.55,9.769C9.838,9.769 10.074,9.548 10.098,9.267C10.4,9.045 10.854,8.691 11.311,8.254C11.54,8.514 11.752,8.793 11.919,9.084C12.301,9.745 12.475,10.368 12.473,10.866C12.472,11.144 12.418,11.377 12.301,11.538C12.194,11.683 12.026,11.762 11.834,11.808C11.588,11.868 11.305,11.873 11.018,11.851C10.088,11.78 9.124,11.418 9.124,11.418C9.044,11.388 8.956,11.388 8.876,11.418C8.876,11.418 7.912,11.78 6.982,11.851C6.695,11.873 6.412,11.868 6.166,11.808C5.974,11.762 5.806,11.683 5.699,11.538C5.582,11.377 5.528,11.144 5.527,10.866C5.525,10.368 5.699,9.745 6.081,9.084C6.679,8.046 7.829,7.145 8.363,6.763Z" style="fill:url(#_Linear1);"/></g></g><defs><linearGradient id="_Linear1" x1="0" y1="0" x2="1" y2="0" gradientUnits="userSpaceOnUse" gradientTransform="matrix(-4.54738,6.17641,-6.17641,-4.54738,11.0556,4.77126)"><stop offset="0" style="stop-color:rgb(0,211,238);stop-opacity:1"/><stop offset="0.23" style="stop-color:rgb(1,217,243);stop-opacity:1"/><stop offset="0.5" style="stop-color:rgb(5,231,255);stop-opacity:1"/><stop offset="1" style="stop-color:rgb(0,163,255);stop-opacity:1"/></linearGradient></defs></svg>