<svg width="100%" height="100%" viewBox="0 0 18 16" version="1.1" xmlns="http://www.w3.org/2000/svg" xmlns:xlink="http://www.w3.org/1999/xlink" xml:space="preserve" style="fill-rule:evenodd;clip-rule:evenodd;stroke-linejoin:round;stroke-miterlimit:2;"><g id="zukan"><g transform="matrix(1.07381,0,0,1.16787,0.071922,-0.951721)"><path d="M15.532,4.347L15.532,10.983C15.532,12.814 13.915,14.301 11.923,14.301L4.706,14.301C2.714,14.301 1.097,12.814 1.097,10.983L1.097,4.347C1.097,2.516 2.714,1.029 4.706,1.029L11.923,1.029C13.915,1.029 15.532,2.516 15.532,4.347Z" style="fill:rgb(255,231,172);"/></g><g><path d="M4.481,12.734C4.486,12.748 4.505,12.748 4.514,12.762C4.523,12.776 4.529,12.781 4.525,12.789C4.522,12.797 4.505,12.808 4.516,12.829C4.527,12.851 4.527,12.845 4.536,12.85C4.544,12.855 4.55,12.862 4.544,12.874C4.538,12.885 4.525,12.907 4.546,12.917C4.568,12.927 4.58,12.934 4.587,12.939C4.594,12.945 4.6,12.95 4.602,12.955C4.603,12.96 4.607,12.975 4.612,12.982C4.618,12.99 4.619,12.989 4.631,12.998C4.643,13.007 4.652,13.013 4.656,13.017C4.661,13.021 4.664,13.026 4.659,13.037C4.654,13.047 4.646,13.058 4.651,13.067C4.656,13.076 4.658,13.083 4.663,13.088C4.668,13.094 4.67,13.101 4.67,13.107C4.67,13.112 4.674,13.114 4.675,13.122C4.676,13.13 4.662,13.181 4.674,13.191C4.685,13.201 4.698,13.202 4.72,13.204C4.741,13.205 4.768,13.21 4.779,13.216C4.789,13.221 4.802,13.246 4.822,13.249C4.841,13.252 4.851,13.251 4.872,13.248C4.893,13.246 4.91,13.248 4.93,13.265C4.95,13.281 4.957,13.291 4.967,13.292C4.977,13.293 5.002,13.293 5.021,13.3C5.04,13.307 5.062,13.317 5.064,13.326C5.067,13.334 5.054,13.34 5.044,13.348C5.035,13.357 5.002,13.381 5.007,13.389C5.012,13.397 5.054,13.403 5.074,13.404C5.094,13.405 5.125,13.401 5.139,13.399C5.153,13.396 5.186,13.388 5.194,13.396C5.202,13.404 5.199,13.409 5.196,13.414C5.192,13.42 5.181,13.436 5.186,13.442C5.192,13.448 5.223,13.453 5.232,13.465C5.241,13.476 5.25,13.493 5.265,13.496C5.279,13.499 5.279,13.502 5.315,13.49C5.351,13.478 5.417,13.464 5.436,13.466C5.455,13.468 5.479,13.475 5.516,13.465C5.553,13.454 5.602,13.446 5.627,13.447C5.653,13.448 5.678,13.451 5.718,13.433C5.758,13.415 5.766,13.412 5.789,13.407C5.812,13.402 5.819,13.405 5.859,13.388C5.899,13.371 6.222,13.218 6.222,13.218C6.222,13.218 6.389,13.128 6.451,13.102C6.513,13.075 6.594,13.041 6.65,13.008C6.705,12.974 6.749,12.95 6.797,12.923C6.844,12.895 6.904,12.853 6.938,12.829C6.973,12.806 7.02,12.767 7.059,12.752C7.098,12.736 7.107,12.745 7.208,12.687C7.264,12.655 7.294,12.62 7.355,12.58C7.416,12.54 7.441,12.531 7.464,12.513C7.487,12.495 7.536,12.468 7.593,12.443C7.65,12.418 7.736,12.336 7.782,12.311C7.828,12.286 7.826,12.281 7.878,12.262C7.929,12.244 7.978,12.203 8.009,12.172C8.04,12.14 8.107,12.098 8.141,12.074C8.175,12.05 8.311,11.952 8.358,11.92C8.406,11.889 8.511,11.805 8.564,11.779C8.616,11.752 8.712,11.661 8.772,11.615C8.831,11.57 9.037,11.42 9.14,11.334C9.244,11.248 9.259,11.231 9.345,11.153C9.43,11.076 9.45,11.079 9.471,11.059C9.492,11.038 9.51,11.027 9.51,11.027C9.51,11.027 9.601,11.119 9.694,11.159C9.788,11.198 9.817,11.252 9.873,11.294C9.928,11.336 10.012,11.392 10.075,11.437C10.137,11.482 10.204,11.544 10.281,11.595C10.357,11.646 10.389,11.669 10.436,11.692C10.483,11.716 10.586,11.773 10.63,11.797C10.675,11.82 10.74,11.857 10.809,11.898C10.879,11.939 10.963,11.989 11.02,12.03C11.078,12.071 11.154,12.139 11.228,12.179C11.301,12.219 11.376,12.26 11.442,12.295C11.508,12.331 11.58,12.381 11.654,12.409C11.728,12.437 11.851,12.494 11.91,12.536C11.97,12.578 11.975,12.596 11.99,12.615C12.005,12.633 12.084,12.692 12.163,12.72C12.242,12.748 12.303,12.787 12.37,12.807C12.398,12.815 12.437,12.836 12.462,12.851C12.497,12.872 12.533,12.894 12.561,12.909C12.608,12.936 12.629,12.944 12.656,12.958C12.683,12.971 12.778,13.019 12.835,13.045C12.892,13.072 12.929,13.096 12.988,13.125C13.027,13.143 13.078,13.166 13.128,13.183C13.154,13.192 13.184,13.197 13.205,13.204C13.228,13.212 13.251,13.223 13.262,13.228C13.281,13.236 13.297,13.24 13.329,13.249C13.38,13.264 13.554,13.326 13.608,13.351C13.662,13.375 13.684,13.4 13.722,13.417C13.761,13.433 13.763,13.427 13.786,13.439C13.81,13.452 13.817,13.458 13.833,13.467C13.85,13.476 13.88,13.484 13.913,13.501C13.947,13.518 13.987,13.53 14.012,13.535C14.037,13.539 14.083,13.547 14.113,13.56C14.143,13.573 14.156,13.573 14.179,13.569C14.202,13.566 14.227,13.577 14.254,13.581C14.26,13.582 14.275,13.582 14.279,13.581C14.287,13.58 14.288,13.574 14.291,13.566C14.296,13.557 14.292,13.555 14.312,13.55C14.333,13.546 14.363,13.556 14.385,13.561C14.407,13.565 14.423,13.564 14.435,13.561C14.447,13.559 14.465,13.556 14.488,13.572C14.511,13.587 14.524,13.603 14.568,13.599C14.612,13.595 14.62,13.601 14.653,13.616C14.686,13.631 14.748,13.642 14.778,13.635C14.808,13.627 14.825,13.616 14.837,13.603C14.849,13.589 14.853,13.584 14.85,13.572C14.847,13.561 14.842,13.562 14.841,13.555C14.839,13.549 14.834,13.525 14.842,13.518C14.85,13.51 14.856,13.508 14.859,13.508C14.861,13.508 14.863,13.511 14.869,13.505C14.876,13.499 14.879,13.497 14.881,13.483C14.883,13.469 14.877,13.462 14.877,13.461C14.876,13.459 14.867,13.452 14.869,13.443C14.871,13.433 14.88,13.434 14.886,13.433C14.891,13.431 14.905,13.425 14.906,13.416C14.907,13.407 14.906,13.399 14.899,13.387C14.893,13.374 14.879,13.359 14.879,13.342C14.88,13.324 14.888,13.313 14.888,13.305C14.888,13.297 14.869,13.256 14.87,13.245C14.872,13.234 14.9,13.234 14.906,13.218C14.913,13.201 14.907,13.2 14.907,13.19C14.907,13.181 14.913,13.178 14.915,13.17C14.917,13.163 14.916,13.156 14.927,13.147C14.938,13.137 14.957,13.122 14.96,13.109C14.963,13.095 14.954,13.08 14.939,13.068C14.925,13.055 14.901,13.035 14.894,13.018C14.886,13.001 14.895,12.99 14.881,12.968C14.867,12.945 14.825,12.93 14.818,12.914C14.81,12.897 14.813,12.888 14.81,12.876C14.806,12.864 14.806,12.851 14.8,12.844C14.795,12.837 14.771,12.819 14.761,12.794C14.751,12.769 14.748,12.764 14.752,12.758C14.756,12.751 14.777,12.752 14.792,12.752C14.807,12.752 14.83,12.752 14.831,12.744C14.833,12.736 14.813,12.71 14.802,12.701C14.792,12.691 14.769,12.669 14.748,12.655C14.728,12.642 14.703,12.629 14.705,12.617C14.706,12.606 14.74,12.604 14.74,12.591C14.74,12.578 14.728,12.57 14.726,12.548C14.724,12.527 14.73,12.506 14.721,12.494C14.712,12.481 14.641,12.452 14.617,12.433C14.594,12.415 14.564,12.374 14.542,12.361C14.52,12.348 14.49,12.335 14.464,12.306C14.439,12.278 14.423,12.256 14.353,12.23C14.338,12.225 14.325,12.211 14.318,12.206C14.304,12.195 14.295,12.189 14.273,12.179C14.245,12.165 14.145,12.126 14.104,12.107C14.062,12.088 13.989,12.056 13.96,12.044C13.93,12.031 13.814,11.985 13.769,11.964C13.725,11.942 13.642,11.898 13.614,11.882C13.586,11.866 13.509,11.827 13.468,11.811C13.427,11.795 13.36,11.764 13.329,11.749C13.298,11.734 13.163,11.682 13.132,11.671C13.1,11.66 13.057,11.636 13.041,11.62C13.025,11.605 12.952,11.55 12.902,11.534C12.851,11.517 12.732,11.467 12.7,11.445C12.667,11.422 12.632,11.417 12.598,11.391C12.564,11.365 12.499,11.319 12.463,11.305C12.426,11.291 12.329,11.242 12.293,11.22C12.256,11.198 12.206,11.144 12.159,11.125C12.112,11.106 12.023,11.063 11.994,11.045C11.966,11.027 11.862,10.969 11.82,10.944C11.778,10.918 11.607,10.818 11.561,10.782C11.515,10.746 11.391,10.674 11.353,10.652C11.314,10.63 11.186,10.548 11.146,10.52C11.106,10.492 10.972,10.405 10.921,10.369C10.885,10.344 10.783,10.277 10.738,10.251C10.693,10.225 10.626,10.186 10.596,10.159C10.586,10.15 10.575,10.143 10.567,10.137C10.547,10.122 10.533,10.111 10.533,10.111C10.533,10.111 10.567,10.065 10.593,10.044C10.619,10.023 10.678,9.987 10.723,9.944C10.768,9.9 10.839,9.836 10.871,9.799C10.902,9.763 10.928,9.73 10.967,9.693C10.979,9.682 11.004,9.664 11.025,9.646C11.058,9.617 11.089,9.584 11.106,9.562C11.132,9.526 11.165,9.497 11.197,9.455C11.23,9.412 11.272,9.348 11.319,9.307C11.367,9.266 11.438,9.192 11.461,9.164C11.484,9.135 11.523,9.083 11.549,9.054C11.576,9.024 11.663,8.912 11.705,8.854C11.747,8.797 11.836,8.683 11.875,8.629C11.914,8.574 11.996,8.451 12.041,8.408C12.085,8.365 12.149,8.273 12.221,8.175C12.293,8.076 12.334,8.014 12.332,8C12.331,7.986 12.314,7.999 12.349,7.942C12.384,7.885 12.443,7.819 12.518,7.747C12.555,7.713 12.605,7.612 12.653,7.535C12.701,7.458 12.737,7.418 12.813,7.28C12.889,7.142 12.935,7.041 12.961,7.011C12.987,6.981 12.994,6.97 12.991,6.992C12.987,7.015 12.987,7.034 13.021,6.965C13.034,6.939 13.033,6.92 13.043,6.9C13.059,6.871 13.082,6.834 13.13,6.762C13.184,6.682 13.193,6.666 13.214,6.618C13.234,6.57 13.252,6.533 13.287,6.474C13.322,6.415 13.348,6.36 13.383,6.318C13.418,6.277 13.461,6.191 13.469,6.146C13.478,6.102 13.501,6.06 13.517,6.04C13.532,6.019 13.579,5.944 13.607,5.898C13.634,5.851 13.685,5.754 13.712,5.707C13.738,5.659 13.797,5.512 13.818,5.464C13.838,5.415 13.889,5.32 13.912,5.272C13.936,5.225 14.006,5.07 14.026,5.026C14.046,4.982 14.144,4.758 14.167,4.705C14.191,4.652 14.198,4.614 14.201,4.581C14.203,4.566 14.227,4.525 14.235,4.483C14.243,4.442 14.224,4.415 14.244,4.35C14.264,4.284 14.244,4.262 14.252,4.225C14.259,4.187 14.267,4.144 14.26,4.116C14.253,4.087 14.244,4.056 14.227,4.036C14.21,4.016 14.208,4.011 14.2,4.014C14.192,4.017 14.181,4.019 14.177,4.012C14.172,4.005 14.174,3.995 14.172,3.992C14.17,3.99 14.16,3.988 14.155,3.98C14.151,3.973 14.147,3.953 14.145,3.932C14.144,3.911 14.143,3.871 14.135,3.866C14.127,3.86 14.113,3.888 14.105,3.884C14.097,3.881 14.092,3.867 14.08,3.841C14.069,3.814 14.078,3.791 14.07,3.778C14.061,3.766 14.036,3.743 14.031,3.728C14.026,3.713 14.034,3.694 14.025,3.686C14.015,3.679 13.991,3.674 13.982,3.665C13.974,3.655 13.966,3.648 13.95,3.643C13.934,3.638 13.919,3.644 13.895,3.63C13.871,3.616 13.847,3.585 13.836,3.561C13.826,3.536 13.815,3.531 13.81,3.527C13.805,3.523 13.789,3.522 13.78,3.507C13.771,3.492 13.762,3.471 13.758,3.468C13.753,3.466 13.735,3.464 13.722,3.446C13.71,3.428 13.698,3.41 13.67,3.393C13.656,3.384 13.651,3.39 13.63,3.377C13.608,3.363 13.616,3.359 13.603,3.355C13.589,3.351 13.584,3.363 13.564,3.356C13.544,3.35 13.54,3.335 13.517,3.333C13.494,3.331 13.491,3.332 13.48,3.329C13.469,3.327 13.464,3.319 13.449,3.323C13.433,3.326 13.426,3.335 13.423,3.336C13.419,3.338 13.412,3.331 13.397,3.335C13.383,3.339 13.36,3.358 13.349,3.372C13.338,3.385 13.325,3.416 13.302,3.431C13.28,3.446 13.264,3.465 13.245,3.505C13.225,3.544 13.19,3.586 13.178,3.613C13.165,3.64 13.115,3.737 13.101,3.778C13.088,3.819 13.053,3.877 13.032,3.905C13.011,3.933 12.982,4.019 12.968,4.052C12.954,4.086 12.959,4.099 12.94,4.138C12.92,4.177 12.843,4.343 12.816,4.394C12.81,4.405 12.798,4.435 12.779,4.474C12.762,4.508 12.741,4.549 12.721,4.594C12.695,4.653 12.672,4.718 12.645,4.775C12.605,4.862 12.568,4.933 12.556,4.952C12.521,5.004 12.463,5.136 12.447,5.164C12.432,5.192 12.382,5.296 12.368,5.322C12.355,5.347 12.287,5.481 12.251,5.54C12.215,5.598 12.114,5.802 12.093,5.862C12.072,5.922 11.957,6.118 11.918,6.158C11.88,6.198 11.807,6.335 11.771,6.383C11.735,6.432 11.647,6.579 11.621,6.635C11.597,6.687 11.571,6.747 11.541,6.789C11.512,6.832 11.367,7.032 11.329,7.078C11.291,7.124 11.144,7.298 11.111,7.37C11.077,7.442 10.981,7.568 10.934,7.632C10.887,7.697 10.892,7.724 10.846,7.78C10.809,7.826 10.795,7.816 10.735,7.89C10.696,7.937 10.71,7.948 10.654,8.017C10.598,8.085 10.513,8.174 10.46,8.243C10.408,8.312 10.294,8.44 10.231,8.501C10.167,8.563 10.103,8.646 10.056,8.71C10.01,8.774 9.917,8.833 9.846,8.935C9.776,9.037 9.654,9.142 9.593,9.184C9.57,9.2 9.554,9.219 9.532,9.236C9.516,9.247 9.502,9.254 9.489,9.262C9.471,9.273 9.457,9.283 9.457,9.283C9.457,9.283 9.423,9.261 9.382,9.233C9.34,9.206 9.321,9.197 9.299,9.175C9.295,9.171 9.288,9.165 9.281,9.157C9.269,9.143 9.254,9.123 9.237,9.106C9.213,9.082 9.189,9.063 9.175,9.05C9.147,9.023 9.115,8.998 9.084,8.968C9.053,8.939 9.021,8.923 8.992,8.898C8.964,8.873 8.922,8.846 8.889,8.804C8.855,8.762 8.818,8.736 8.785,8.705C8.752,8.675 8.714,8.647 8.683,8.619C8.652,8.591 8.602,8.566 8.569,8.529C8.536,8.492 8.484,8.435 8.462,8.408C8.439,8.38 8.368,8.324 8.339,8.294C8.311,8.263 8.245,8.2 8.219,8.177C8.194,8.153 8.115,8.079 8.081,8.046C8.047,8.012 7.962,7.927 7.929,7.896C7.896,7.866 7.824,7.788 7.793,7.76C7.761,7.732 7.731,7.679 7.712,7.658C7.694,7.638 7.663,7.595 7.629,7.559C7.595,7.523 7.545,7.464 7.515,7.433C7.484,7.402 7.432,7.342 7.412,7.329C7.408,7.326 7.404,7.322 7.402,7.322C7.398,7.321 7.397,7.324 7.395,7.325C7.392,7.326 7.388,7.325 7.378,7.316C7.359,7.3 7.317,7.249 7.293,7.217C7.27,7.184 7.258,7.164 7.247,7.137C7.236,7.11 7.183,7.032 7.156,7.003C7.13,6.973 7.049,6.886 7.021,6.847C6.994,6.809 6.973,6.792 6.947,6.756C6.921,6.72 6.871,6.663 6.834,6.621C6.798,6.579 6.728,6.517 6.701,6.473C6.673,6.429 6.673,6.44 6.66,6.42C6.647,6.4 6.635,6.375 6.638,6.372C6.641,6.369 6.666,6.392 6.669,6.389C6.672,6.385 6.658,6.362 6.638,6.341C6.618,6.32 6.582,6.3 6.556,6.26C6.531,6.22 6.488,6.161 6.472,6.135C6.456,6.108 6.407,6.037 6.382,6.016C6.358,5.996 6.32,5.948 6.305,5.92C6.29,5.892 6.248,5.846 6.23,5.814C6.213,5.782 6.165,5.706 6.149,5.673C6.133,5.64 6.096,5.603 6.075,5.587C6.054,5.57 6.016,5.531 5.999,5.495C5.982,5.46 5.956,5.42 5.941,5.392C5.926,5.365 5.896,5.318 5.874,5.281C5.852,5.244 5.828,5.217 5.799,5.161C5.77,5.105 5.715,5.043 5.697,5.019C5.679,4.994 5.605,4.896 5.589,4.866C5.573,4.836 5.513,4.741 5.49,4.707C5.468,4.674 5.393,4.557 5.373,4.524C5.353,4.491 5.242,4.318 5.22,4.28C5.203,4.251 5.169,4.192 5.139,4.154C5.129,4.141 5.117,4.132 5.109,4.126C5.093,4.113 5.08,4.082 5.063,4.058C5.045,4.034 5.021,4.02 4.993,4.002C4.965,3.984 4.93,3.934 4.906,3.913C4.881,3.893 4.886,3.91 4.85,3.875C4.813,3.841 4.814,3.831 4.78,3.815C4.768,3.809 4.755,3.806 4.747,3.803C4.728,3.796 4.718,3.791 4.711,3.79C4.707,3.79 4.701,3.789 4.693,3.788C4.683,3.788 4.671,3.787 4.664,3.79C4.652,3.796 4.66,3.808 4.648,3.813C4.637,3.819 4.633,3.807 4.625,3.808C4.616,3.808 4.612,3.817 4.585,3.804C4.559,3.791 4.533,3.769 4.52,3.762C4.507,3.756 4.502,3.758 4.501,3.768C4.5,3.778 4.511,3.796 4.486,3.793C4.461,3.79 4.439,3.784 4.424,3.771C4.409,3.759 4.407,3.756 4.392,3.756C4.376,3.757 4.358,3.755 4.347,3.757C4.336,3.759 4.325,3.75 4.318,3.744C4.312,3.738 4.305,3.727 4.284,3.741C4.264,3.755 4.245,3.753 4.234,3.754C4.224,3.754 4.206,3.768 4.197,3.781C4.188,3.795 4.167,3.8 4.153,3.803C4.139,3.806 4.098,3.801 4.072,3.795C4.047,3.788 4.035,3.794 4.026,3.8C4.016,3.805 4,3.806 3.989,3.801C3.979,3.796 3.967,3.792 3.95,3.802C3.932,3.813 3.911,3.804 3.894,3.804C3.878,3.803 3.871,3.809 3.863,3.81C3.854,3.811 3.845,3.806 3.835,3.811C3.825,3.817 3.821,3.822 3.805,3.828C3.79,3.835 3.785,3.829 3.774,3.836C3.764,3.843 3.759,3.857 3.747,3.866C3.735,3.875 3.725,3.869 3.702,3.885C3.679,3.902 3.685,3.903 3.671,3.912C3.657,3.92 3.656,3.918 3.645,3.934C3.635,3.95 3.641,3.961 3.638,3.966C3.636,3.97 3.625,3.972 3.62,3.997C3.615,4.021 3.626,4.06 3.632,4.081C3.639,4.102 3.642,4.122 3.639,4.136C3.637,4.149 3.654,4.206 3.668,4.233C3.681,4.26 3.703,4.351 3.722,4.376C3.731,4.387 3.736,4.411 3.747,4.435C3.755,4.45 3.765,4.463 3.772,4.475C3.78,4.488 3.786,4.5 3.789,4.504C3.799,4.518 3.819,4.56 3.828,4.576C3.837,4.592 3.865,4.674 3.876,4.692C3.887,4.71 3.931,4.778 3.947,4.804C3.962,4.83 3.991,4.858 4.002,4.881C4.014,4.905 4.074,5.007 4.083,5.02C4.091,5.033 4.142,5.122 4.149,5.137C4.157,5.152 4.274,5.341 4.286,5.36C4.298,5.379 4.357,5.466 4.372,5.486C4.388,5.506 4.479,5.641 4.497,5.674C4.516,5.708 4.734,6.043 4.765,6.082C4.779,6.099 4.806,6.142 4.836,6.186C4.875,6.244 4.918,6.304 4.928,6.317C4.945,6.341 5.001,6.425 5.013,6.442C5.024,6.459 5.12,6.59 5.136,6.609C5.151,6.628 5.368,6.884 5.393,6.932C5.418,6.98 5.533,7.16 5.589,7.225C5.646,7.29 5.774,7.497 5.834,7.54C5.894,7.582 6.088,7.826 6.122,7.871C6.157,7.916 6.311,8.131 6.371,8.212C6.431,8.292 6.521,8.381 6.598,8.449C6.675,8.518 6.76,8.637 6.809,8.672C6.858,8.706 6.933,8.772 6.963,8.82C6.992,8.868 7.034,8.929 7.11,8.981C7.141,9.002 7.176,9.041 7.206,9.072C7.247,9.115 7.291,9.159 7.316,9.182C7.358,9.222 7.623,9.478 7.719,9.575C7.747,9.603 7.786,9.651 7.836,9.692C7.881,9.729 7.937,9.758 7.981,9.796C8.056,9.858 8.108,9.915 8.154,9.946C8.257,10.016 8.303,10.053 8.336,10.077C8.352,10.089 8.403,10.127 8.415,10.134C8.427,10.141 8.441,10.152 8.441,10.152C8.441,10.152 8.365,10.218 8.294,10.267C8.222,10.315 8.074,10.405 8.022,10.466C7.969,10.528 7.79,10.673 7.713,10.731C7.636,10.79 7.538,10.856 7.471,10.884C7.403,10.913 7.261,11.037 7.179,11.085C7.096,11.134 6.97,11.255 6.872,11.31C6.826,11.335 6.79,11.34 6.758,11.347C6.722,11.356 6.69,11.368 6.644,11.395C6.558,11.447 6.452,11.541 6.399,11.573C6.365,11.594 6.319,11.611 6.27,11.635C6.241,11.649 6.211,11.667 6.181,11.684C6.154,11.699 6.114,11.722 6.072,11.745C6.006,11.782 5.913,11.814 5.861,11.854C5.779,11.916 5.722,11.934 5.657,11.987C5.591,12.04 5.536,12.056 5.457,12.101C5.423,12.121 5.381,12.126 5.344,12.138C5.321,12.146 5.298,12.157 5.279,12.166C5.259,12.174 5.242,12.179 5.228,12.184C5.178,12.202 5.1,12.239 5.086,12.247C5.072,12.255 5.039,12.282 5.026,12.288C5.012,12.295 4.988,12.306 4.973,12.313C4.965,12.317 4.957,12.32 4.95,12.328C4.943,12.336 4.937,12.348 4.931,12.354C4.919,12.366 4.909,12.366 4.887,12.383C4.866,12.399 4.868,12.401 4.872,12.414C4.876,12.428 4.874,12.444 4.859,12.454C4.844,12.464 4.816,12.475 4.798,12.49C4.781,12.505 4.777,12.521 4.76,12.529C4.742,12.538 4.709,12.533 4.687,12.547C4.665,12.561 4.663,12.571 4.645,12.583C4.626,12.596 4.612,12.591 4.585,12.603C4.558,12.616 4.507,12.641 4.494,12.668C4.481,12.696 4.483,12.7 4.482,12.712C4.481,12.725 4.475,12.72 4.481,12.734Z" style="fill:rgb(24,58,88);"/><path d="M6.673,4.189C6.68,4.219 6.696,4.229 6.706,4.258C6.716,4.287 6.729,4.309 6.744,4.332C6.76,4.354 6.78,4.379 6.791,4.393C6.801,4.407 6.819,4.435 6.828,4.443C6.831,4.446 6.843,4.457 6.846,4.461C6.85,4.468 6.857,4.477 6.86,4.481C6.867,4.489 6.875,4.498 6.888,4.507C6.9,4.516 6.912,4.53 6.927,4.547C6.942,4.562 6.959,4.58 6.974,4.597C6.988,4.614 6.997,4.63 7.005,4.642C7.013,4.653 7.034,4.674 7.048,4.686C7.071,4.704 7.088,4.723 7.113,4.744C7.139,4.765 7.145,4.766 7.148,4.772C7.15,4.777 7.154,4.783 7.159,4.787C7.164,4.792 7.162,4.795 7.177,4.812C7.193,4.829 7.192,4.831 7.205,4.836C7.217,4.841 7.225,4.848 7.234,4.865C7.243,4.882 7.263,4.894 7.278,4.909C7.285,4.916 7.292,4.922 7.3,4.93C7.308,4.939 7.317,4.951 7.327,4.956C7.346,4.968 7.362,4.967 7.371,4.977C7.375,4.982 7.378,4.987 7.38,4.994C7.382,5 7.382,5.008 7.385,5.014C7.391,5.025 7.392,5.024 7.397,5.029C7.4,5.031 7.406,5.036 7.409,5.043C7.414,5.053 7.421,5.058 7.424,5.061C7.431,5.066 7.443,5.065 7.449,5.066C7.452,5.067 7.457,5.068 7.462,5.073C7.465,5.076 7.467,5.08 7.47,5.083C7.473,5.086 7.475,5.088 7.477,5.09C7.479,5.091 7.479,5.093 7.48,5.095C7.485,5.103 7.487,5.11 7.489,5.116C7.491,5.121 7.494,5.126 7.494,5.129C7.496,5.136 7.496,5.145 7.502,5.152C7.508,5.16 7.516,5.164 7.532,5.169C7.548,5.174 7.55,5.18 7.556,5.186C7.562,5.193 7.566,5.195 7.578,5.194C7.591,5.193 7.594,5.202 7.592,5.21C7.59,5.218 7.592,5.226 7.603,5.227C7.614,5.228 7.617,5.228 7.625,5.239C7.633,5.25 7.638,5.25 7.643,5.256C7.648,5.262 7.658,5.271 7.667,5.278C7.67,5.281 7.671,5.283 7.672,5.285C7.675,5.288 7.677,5.291 7.68,5.295C7.683,5.302 7.684,5.306 7.693,5.314C7.702,5.322 7.711,5.317 7.721,5.323C7.732,5.329 7.732,5.338 7.739,5.343C7.747,5.347 7.753,5.345 7.761,5.35C7.768,5.356 7.775,5.357 7.78,5.358C7.784,5.36 7.788,5.361 7.789,5.367C7.79,5.373 7.79,5.379 7.793,5.384C7.797,5.389 7.798,5.398 7.796,5.406C7.795,5.413 7.793,5.418 7.797,5.423C7.801,5.428 7.816,5.435 7.827,5.446C7.837,5.456 7.852,5.477 7.862,5.486C7.872,5.494 7.877,5.499 7.878,5.504C7.878,5.51 7.874,5.512 7.877,5.517C7.879,5.521 7.884,5.525 7.891,5.525C7.897,5.524 7.903,5.523 7.905,5.527C7.907,5.531 7.907,5.541 7.907,5.548C7.907,5.55 7.909,5.554 7.912,5.558C7.916,5.562 7.921,5.567 7.924,5.572C7.929,5.581 7.927,5.59 7.934,5.602C7.941,5.614 7.945,5.616 7.959,5.619C7.972,5.623 7.995,5.633 8.01,5.648C8.025,5.664 8.023,5.665 8.023,5.674C8.023,5.683 8.022,5.697 8.037,5.706C8.051,5.714 8.054,5.719 8.061,5.728C8.068,5.736 8.076,5.737 8.085,5.739C8.093,5.741 8.112,5.751 8.106,5.766C8.1,5.782 8.086,5.795 8.1,5.808C8.103,5.811 8.108,5.81 8.112,5.812C8.115,5.813 8.117,5.816 8.12,5.816C8.129,5.819 8.14,5.823 8.143,5.826C8.149,5.833 8.143,5.845 8.154,5.855C8.165,5.864 8.173,5.878 8.177,5.889C8.18,5.897 8.184,5.901 8.193,5.904C8.197,5.905 8.205,5.905 8.21,5.907C8.214,5.909 8.22,5.912 8.224,5.914C8.231,5.917 8.238,5.918 8.245,5.921C8.257,5.925 8.268,5.941 8.275,5.949C8.282,5.956 8.318,6.005 8.327,6.023C8.336,6.04 8.354,6.07 8.368,6.083C8.383,6.095 8.397,6.117 8.404,6.13C8.411,6.142 8.441,6.179 8.451,6.192C8.461,6.205 8.484,6.239 8.506,6.256C8.529,6.274 8.549,6.291 8.56,6.304C8.571,6.318 8.585,6.338 8.602,6.345C8.619,6.352 8.62,6.349 8.636,6.364C8.651,6.379 8.67,6.394 8.677,6.392C8.684,6.39 8.688,6.38 8.698,6.381C8.707,6.382 8.722,6.385 8.743,6.409C8.763,6.433 8.772,6.434 8.784,6.439C8.795,6.443 8.81,6.45 8.816,6.465C8.822,6.479 8.838,6.511 8.855,6.517C8.871,6.523 8.891,6.536 8.901,6.553C8.91,6.57 8.94,6.608 8.966,6.623C8.98,6.63 8.995,6.636 9.009,6.638C9.022,6.638 9.034,6.635 9.043,6.632C9.057,6.628 9.056,6.625 9.058,6.617C9.06,6.609 9.064,6.594 9.074,6.584C9.084,6.575 9.093,6.58 9.098,6.581C9.104,6.582 9.117,6.581 9.123,6.571C9.129,6.561 9.127,6.545 9.133,6.541C9.139,6.537 9.158,6.549 9.17,6.538C9.181,6.527 9.177,6.494 9.186,6.478C9.195,6.462 9.206,6.462 9.211,6.453C9.215,6.444 9.218,6.413 9.226,6.406C9.234,6.4 9.252,6.411 9.258,6.406C9.261,6.404 9.266,6.402 9.268,6.397C9.271,6.391 9.275,6.385 9.28,6.381C9.289,6.374 9.298,6.366 9.309,6.365C9.32,6.364 9.347,6.36 9.353,6.35C9.359,6.341 9.353,6.316 9.348,6.3C9.343,6.283 9.341,6.267 9.344,6.258C9.346,6.25 9.36,6.239 9.357,6.217C9.354,6.195 9.337,6.172 9.337,6.154C9.336,6.145 9.341,6.136 9.346,6.126C9.348,6.121 9.348,6.116 9.35,6.112C9.352,6.106 9.355,6.1 9.356,6.097C9.356,6.087 9.354,6.089 9.35,6.077C9.346,6.065 9.347,6.054 9.349,6.04C9.351,6.026 9.354,6.012 9.358,6.012C9.363,6.012 9.372,6.016 9.381,6.023C9.39,6.03 9.415,6.044 9.419,6.042C9.424,6.039 9.423,6.025 9.422,6.015C9.421,6.005 9.408,5.955 9.4,5.941C9.392,5.927 9.376,5.902 9.384,5.892C9.391,5.883 9.411,5.899 9.419,5.89C9.427,5.882 9.418,5.87 9.429,5.846C9.44,5.823 9.447,5.826 9.445,5.813C9.445,5.807 9.443,5.799 9.436,5.788C9.427,5.773 9.414,5.754 9.407,5.742C9.396,5.721 9.388,5.709 9.385,5.692C9.382,5.676 9.38,5.648 9.363,5.626C9.347,5.604 9.332,5.565 9.329,5.544C9.325,5.523 9.31,5.493 9.29,5.469C9.282,5.459 9.276,5.452 9.27,5.442C9.264,5.431 9.259,5.417 9.253,5.406C9.243,5.387 9.225,5.366 9.207,5.344C9.188,5.322 9.168,5.298 9.157,5.283C9.146,5.268 9.124,5.244 9.111,5.228C9.107,5.223 9.103,5.218 9.099,5.213C9.092,5.204 9.085,5.195 9.078,5.19C9.066,5.182 9.068,5.18 9.065,5.171C9.061,5.162 9.06,5.147 9.046,5.139C9.04,5.135 9.036,5.131 9.033,5.128C9.029,5.125 9.024,5.123 9.019,5.119C9.01,5.114 9.005,5.114 9,5.112C8.995,5.111 8.994,5.107 8.995,5.1C8.996,5.093 9,5.084 8.993,5.077C8.987,5.071 8.978,5.074 8.971,5.07L8.964,5.066C8.964,5.066 8.961,5.059 8.957,5.055C8.952,5.051 8.95,5.052 8.948,5.047C8.946,5.042 8.95,5.03 8.941,5.023C8.937,5.02 8.922,5.019 8.917,5.006C8.913,4.997 8.921,4.992 8.916,4.984C8.911,4.976 8.905,4.981 8.893,4.973C8.885,4.968 8.877,4.959 8.87,4.951C8.869,4.949 8.862,4.941 8.859,4.938C8.851,4.928 8.846,4.929 8.841,4.916C8.836,4.903 8.833,4.897 8.82,4.89C8.807,4.883 8.802,4.875 8.796,4.866C8.79,4.856 8.782,4.855 8.775,4.842C8.768,4.83 8.756,4.818 8.749,4.814C8.742,4.81 8.738,4.813 8.728,4.802C8.717,4.791 8.721,4.788 8.711,4.777C8.701,4.765 8.689,4.741 8.678,4.726C8.676,4.723 8.674,4.721 8.672,4.718C8.67,4.716 8.668,4.713 8.666,4.71C8.666,4.709 8.664,4.708 8.662,4.706C8.661,4.704 8.66,4.701 8.66,4.7C8.655,4.693 8.651,4.689 8.646,4.687C8.637,4.682 8.628,4.683 8.62,4.676C8.612,4.669 8.615,4.657 8.609,4.649C8.602,4.64 8.592,4.631 8.582,4.63C8.573,4.628 8.565,4.627 8.562,4.623C8.56,4.619 8.564,4.606 8.559,4.598C8.554,4.59 8.548,4.579 8.539,4.574C8.529,4.569 8.527,4.572 8.522,4.565C8.518,4.558 8.52,4.548 8.514,4.542C8.509,4.536 8.497,4.528 8.49,4.526C8.483,4.523 8.474,4.528 8.468,4.513C8.462,4.498 8.462,4.49 8.455,4.486C8.448,4.481 8.446,4.481 8.442,4.477C8.439,4.473 8.424,4.462 8.413,4.455C8.403,4.448 8.387,4.437 8.377,4.429C8.367,4.42 8.359,4.418 8.354,4.414C8.349,4.409 8.349,4.396 8.342,4.386C8.336,4.377 8.325,4.371 8.32,4.366C8.319,4.365 8.314,4.364 8.312,4.361C8.309,4.358 8.306,4.355 8.302,4.355C8.296,4.354 8.295,4.359 8.292,4.36C8.29,4.361 8.285,4.366 8.278,4.357C8.271,4.348 8.272,4.339 8.274,4.327C8.277,4.315 8.267,4.303 8.257,4.299C8.247,4.295 8.241,4.289 8.235,4.281C8.229,4.274 8.219,4.266 8.212,4.263C8.206,4.261 8.198,4.263 8.191,4.257C8.183,4.251 8.175,4.247 8.178,4.239C8.18,4.23 8.185,4.232 8.188,4.23C8.192,4.228 8.193,4.226 8.192,4.223C8.192,4.22 8.186,4.22 8.183,4.221C8.181,4.222 8.173,4.226 8.168,4.219C8.164,4.212 8.159,4.206 8.157,4.199C8.156,4.193 8.151,4.187 8.143,4.187C8.135,4.187 8.13,4.186 8.127,4.18C8.123,4.173 8.116,4.17 8.113,4.162C8.11,4.154 8.111,4.144 8.106,4.139C8.101,4.133 8.095,4.133 8.089,4.135C8.083,4.137 8.074,4.138 8.073,4.128C8.071,4.118 8.066,4.11 8.064,4.102C8.062,4.095 8.056,4.094 8.054,4.09C8.051,4.085 8.048,4.077 8.042,4.072C8.037,4.066 8.03,4.065 8.02,4.061C8.011,4.058 8.002,4.05 7.996,4.039C7.993,4.034 7.989,4.031 7.984,4.027C7.978,4.021 7.971,4.015 7.965,4.009C7.955,4.001 7.95,3.994 7.94,3.985C7.931,3.976 7.905,3.957 7.887,3.949C7.87,3.941 7.857,3.927 7.846,3.917C7.835,3.907 7.813,3.888 7.792,3.88C7.772,3.871 7.76,3.87 7.741,3.86C7.721,3.85 7.695,3.828 7.676,3.819C7.657,3.809 7.648,3.812 7.629,3.804C7.611,3.795 7.6,3.785 7.583,3.776C7.566,3.766 7.553,3.76 7.528,3.759C7.502,3.757 7.495,3.754 7.488,3.756C7.48,3.757 7.477,3.759 7.469,3.761C7.461,3.764 7.457,3.761 7.448,3.769C7.439,3.776 7.445,3.784 7.439,3.79C7.432,3.795 7.42,3.789 7.417,3.789C7.414,3.79 7.411,3.798 7.403,3.799C7.395,3.799 7.374,3.795 7.354,3.787C7.346,3.784 7.337,3.781 7.33,3.78C7.321,3.778 7.315,3.777 7.312,3.78C7.307,3.785 7.312,3.788 7.313,3.792C7.315,3.796 7.32,3.804 7.315,3.808C7.31,3.811 7.296,3.812 7.279,3.812C7.269,3.813 7.262,3.812 7.254,3.81C7.248,3.808 7.241,3.804 7.234,3.802C7.219,3.799 7.212,3.805 7.202,3.808C7.191,3.811 7.176,3.817 7.167,3.813C7.159,3.81 7.147,3.803 7.142,3.807C7.137,3.81 7.131,3.814 7.127,3.819C7.123,3.824 7.119,3.827 7.113,3.83C7.106,3.834 7.093,3.838 7.085,3.847C7.076,3.857 7.077,3.868 7.063,3.88C7.05,3.893 7.039,3.898 7.022,3.903C7.005,3.907 6.993,3.91 6.986,3.909C6.979,3.908 6.973,3.91 6.962,3.913C6.952,3.916 6.95,3.916 6.946,3.92C6.942,3.925 6.939,3.929 6.927,3.933C6.916,3.937 6.912,3.935 6.906,3.935C6.901,3.934 6.893,3.936 6.887,3.942C6.882,3.948 6.875,3.952 6.86,3.957C6.845,3.962 6.841,3.961 6.829,3.967C6.818,3.973 6.81,3.972 6.801,3.978C6.792,3.985 6.797,3.986 6.783,3.999C6.77,4.012 6.762,4.007 6.753,4.017C6.745,4.026 6.752,4.035 6.74,4.047C6.733,4.053 6.721,4.061 6.712,4.071C6.705,4.079 6.7,4.089 6.695,4.095C6.685,4.11 6.679,4.108 6.676,4.123C6.673,4.138 6.679,4.148 6.678,4.152C6.678,4.157 6.672,4.162 6.671,4.172C6.67,4.181 6.665,4.16 6.673,4.189Z" style="fill:rgb(24,58,88);"/><path d="M9.606,3.76C9.62,3.775 9.662,3.826 9.675,3.844C9.688,3.863 9.718,3.903 9.736,3.917C9.754,3.931 9.788,3.975 9.795,3.985C9.803,3.995 9.844,4.042 9.868,4.067C9.878,4.078 9.89,4.095 9.904,4.111C9.922,4.131 9.942,4.151 9.952,4.16C9.969,4.174 10.013,4.209 10.027,4.224C10.04,4.238 10.058,4.255 10.068,4.267C10.077,4.279 10.098,4.296 10.108,4.301C10.119,4.306 10.144,4.318 10.158,4.333C10.172,4.348 10.214,4.382 10.224,4.382C10.235,4.383 10.232,4.373 10.241,4.372C10.25,4.371 10.274,4.382 10.292,4.398C10.309,4.414 10.335,4.444 10.364,4.459C10.392,4.474 10.408,4.483 10.419,4.501C10.431,4.519 10.453,4.554 10.474,4.569C10.494,4.584 10.523,4.598 10.536,4.611C10.548,4.624 10.568,4.654 10.596,4.679C10.602,4.684 10.609,4.691 10.617,4.7C10.621,4.704 10.626,4.709 10.63,4.713C10.641,4.722 10.655,4.731 10.664,4.738C10.684,4.752 10.696,4.756 10.704,4.759C10.722,4.767 10.725,4.766 10.742,4.766C10.759,4.765 10.771,4.766 10.774,4.757C10.777,4.748 10.772,4.74 10.774,4.727C10.775,4.715 10.778,4.701 10.787,4.702C10.795,4.702 10.811,4.71 10.821,4.708C10.831,4.707 10.837,4.697 10.838,4.693C10.84,4.689 10.834,4.664 10.838,4.66C10.843,4.656 10.872,4.672 10.882,4.665C10.892,4.658 10.884,4.641 10.883,4.623C10.882,4.605 10.877,4.598 10.881,4.586C10.885,4.574 10.896,4.571 10.9,4.562C10.904,4.553 10.899,4.505 10.903,4.5C10.907,4.495 10.937,4.506 10.94,4.506C10.943,4.507 10.949,4.503 10.95,4.499C10.951,4.495 10.952,4.49 10.957,4.481C10.959,4.478 10.965,4.472 10.967,4.472C10.968,4.472 10.974,4.467 10.978,4.465C10.985,4.46 10.987,4.459 11.004,4.461C11.02,4.463 11.041,4.456 11.039,4.44C11.037,4.424 11.014,4.382 11.008,4.368C11.002,4.354 10.994,4.336 10.996,4.322C10.999,4.308 11.004,4.305 11.002,4.293C11,4.28 10.98,4.237 10.963,4.217C10.946,4.196 10.948,4.172 10.95,4.158C10.953,4.145 10.951,4.135 10.953,4.128C10.955,4.121 10.948,4.111 10.944,4.102C10.94,4.093 10.933,4.082 10.928,4.063C10.924,4.044 10.923,4.026 10.923,4.022C10.923,4.018 10.921,4.009 10.927,4.009C10.933,4.009 10.951,4.022 10.958,4.028C10.965,4.033 11.005,4.062 11.013,4.058C11.018,4.056 11.004,4.023 11,4.012C10.995,4 10.974,3.958 10.963,3.941C10.952,3.924 10.927,3.89 10.921,3.878C10.914,3.867 10.915,3.859 10.917,3.857C10.919,3.855 10.929,3.856 10.938,3.86C10.948,3.863 10.954,3.866 10.96,3.861C10.965,3.857 10.955,3.836 10.955,3.822C10.956,3.808 10.956,3.798 10.963,3.789C10.97,3.78 10.965,3.761 10.959,3.753C10.954,3.745 10.911,3.692 10.902,3.677C10.892,3.662 10.866,3.629 10.857,3.613C10.849,3.596 10.842,3.581 10.839,3.573C10.837,3.564 10.814,3.525 10.803,3.513C10.793,3.501 10.752,3.442 10.746,3.427C10.744,3.421 10.739,3.413 10.734,3.403C10.726,3.385 10.716,3.364 10.709,3.354C10.698,3.338 10.677,3.314 10.666,3.301C10.655,3.289 10.627,3.258 10.621,3.247C10.616,3.237 10.587,3.195 10.576,3.182C10.566,3.169 10.524,3.124 10.509,3.108C10.494,3.092 10.448,3.043 10.442,3.035C10.435,3.026 10.385,2.977 10.377,2.969C10.369,2.96 10.338,2.929 10.328,2.921L10.319,2.912C10.319,2.912 10.272,2.879 10.257,2.866C10.242,2.853 10.204,2.818 10.193,2.806C10.188,2.8 10.171,2.787 10.152,2.774C10.133,2.762 10.112,2.752 10.098,2.745C10.078,2.735 10.011,2.683 9.988,2.665C9.964,2.647 9.943,2.639 9.932,2.635C9.921,2.631 9.874,2.6 9.863,2.59C9.853,2.58 9.823,2.559 9.799,2.548C9.775,2.537 9.765,2.536 9.754,2.534C9.743,2.532 9.733,2.526 9.72,2.524C9.708,2.522 9.701,2.525 9.693,2.524C9.685,2.524 9.672,2.521 9.665,2.526C9.655,2.533 9.665,2.549 9.66,2.552C9.655,2.555 9.649,2.553 9.644,2.55C9.638,2.547 9.632,2.545 9.626,2.549C9.621,2.553 9.618,2.555 9.612,2.553C9.607,2.552 9.563,2.535 9.543,2.523C9.523,2.511 9.498,2.5 9.493,2.505C9.488,2.51 9.513,2.538 9.509,2.542C9.504,2.546 9.474,2.542 9.45,2.535C9.425,2.528 9.407,2.513 9.395,2.51C9.382,2.507 9.356,2.515 9.339,2.515C9.322,2.516 9.291,2.491 9.284,2.492C9.276,2.493 9.263,2.515 9.256,2.518C9.25,2.52 9.232,2.521 9.224,2.529C9.216,2.537 9.219,2.553 9.206,2.566C9.192,2.58 9.169,2.586 9.137,2.585C9.105,2.585 9.099,2.579 9.081,2.582C9.062,2.585 9.069,2.59 9.05,2.598C9.03,2.606 9.018,2.591 9.004,2.594C8.989,2.597 8.999,2.605 8.975,2.61C8.952,2.614 8.944,2.611 8.93,2.615C8.915,2.619 8.905,2.619 8.896,2.624C8.89,2.629 8.89,2.633 8.886,2.638C8.885,2.639 8.883,2.64 8.88,2.642C8.876,2.646 8.871,2.651 8.865,2.653C8.859,2.655 8.852,2.655 8.846,2.66C8.835,2.67 8.849,2.68 8.835,2.694C8.821,2.708 8.819,2.7 8.807,2.718C8.795,2.736 8.797,2.74 8.788,2.751C8.779,2.763 8.773,2.764 8.777,2.781C8.78,2.797 8.787,2.804 8.787,2.809C8.787,2.813 8.778,2.816 8.78,2.827C8.781,2.839 8.81,2.892 8.825,2.909C8.839,2.926 8.864,2.964 8.874,2.987C8.883,3.01 8.916,3.046 8.927,3.058C8.931,3.062 8.94,3.071 8.95,3.084C8.957,3.092 8.964,3.103 8.972,3.112C8.987,3.13 9.003,3.148 9.008,3.155C9.019,3.171 9.057,3.213 9.065,3.22C9.073,3.226 9.099,3.257 9.106,3.265C9.113,3.272 9.147,3.308 9.158,3.316C9.169,3.324 9.202,3.363 9.214,3.374C9.219,3.377 9.224,3.384 9.231,3.391C9.246,3.406 9.264,3.425 9.273,3.434C9.286,3.448 9.307,3.475 9.317,3.49C9.328,3.506 9.368,3.547 9.383,3.562C9.399,3.576 9.48,3.656 9.496,3.668C9.513,3.68 9.535,3.703 9.535,3.703L9.542,3.696C9.542,3.696 9.575,3.726 9.582,3.734C9.59,3.742 9.592,3.746 9.606,3.76Z" style="fill:rgb(24,58,88);"/></g></g><path d="M8.782,2.83C8.784,2.846 8.801,2.878 8.816,2.896C8.83,2.913 8.853,2.948 8.869,2.978C8.885,3.009 8.916,3.046 8.948,3.081C8.979,3.116 9.011,3.162 9.031,3.185C9.052,3.208 9.063,3.219 9.071,3.226C9.08,3.233 9.087,3.244 9.098,3.257C9.11,3.271 9.121,3.282 9.133,3.293C9.145,3.304 9.161,3.317 9.169,3.327C9.178,3.336 9.197,3.357 9.205,3.364C9.214,3.371 9.231,3.394 9.247,3.407C9.25,3.409 9.255,3.415 9.257,3.418C9.261,3.422 9.264,3.425 9.268,3.429C9.276,3.438 9.284,3.447 9.289,3.453C9.298,3.465 9.326,3.503 9.337,3.514C9.343,3.52 9.354,3.532 9.364,3.543C9.374,3.553 9.384,3.563 9.391,3.569C9.403,3.581 9.422,3.598 9.434,3.609C9.445,3.62 9.477,3.654 9.489,3.664C9.494,3.668 9.502,3.674 9.506,3.677C9.514,3.684 9.52,3.689 9.524,3.693C9.53,3.699 9.534,3.703 9.534,3.703L9.542,3.696" style="fill:none;"/></svg>