<svg xmlns="http://www.w3.org/2000/svg" viewbox="0 0 728 184"><svg width="79" height="77" viewbox="0 0 79 77" x="12" y="8"><g transform="matrix(0.79,0,0,0.77,0,0)"><path d="M100,6.494L100,93.506C100,97.09 97.164,100 93.671,100L6.329,100C2.836,100 0,97.09 0,93.506L0,6.494C0,2.91 2.836,0 6.329,0L93.671,0C97.164,0 100,2.91 100,6.494Z" style="fill:rgba(235,235,235,1);" /></g><g transform="matrix(1,0,0,1,20,55)"><text style="font-family:&quot;ArialMT&quot;, &quot;Arial&quot;, sans-serif;font-size:8px;" dy="0" dominant-baseline="middle" text-anchor="middle"><tspan x="19" dy=".6em">Vitest</tspan><tspan x="19" dy="1.6em" style="font-family:&quot;ArialMT&quot;, &quot;Arial&quot;, sans-serif;font-size:6px;fill:rgb(155,155,155)">vitest.svg</tspan></text></g><svg width="32" height="28.4" viewBox="0 0 18 16" version="1.1" xml:space="preserve" style="fill-rule:evenodd;clip-rule:evenodd;stroke-linejoin:round;stroke-miterlimit:2;" viewbox="0 0 32 28.4" x="23" y="17"><g id="vitest" transform="matrix(0.0615385,0,0,0.0615385,9,8)"><g transform="matrix(1,0,0,1,-130,-130)"><path d="M190.4,90.219L133.456,172.553C132.852,173.426 131.979,174.08 130.969,174.416C129.959,174.752 128.867,174.748 127.859,174.411C126.851,174.072 125.982,173.415 125.383,172.541C124.785,171.665 124.49,170.618 124.543,169.561L126.822,124.104L90.03,116.301C89.244,116.134 88.511,115.777 87.897,115.261C87.283,114.745 86.806,114.086 86.509,113.343C86.212,112.599 86.104,111.794 86.195,110.998C86.285,110.203 86.571,109.441 87.028,108.782L143.973,26.447C144.577,25.574 145.45,24.92 146.46,24.585C147.47,24.249 148.562,24.251 149.57,24.59C150.578,24.928 151.447,25.585 152.046,26.461C152.644,27.336 152.939,28.382 152.886,29.44L150.607,74.898L187.399,82.7C188.185,82.867 188.918,83.224 189.532,83.74C190.147,84.256 190.623,84.915 190.919,85.658C191.217,86.402 191.324,87.207 191.234,88.003C191.144,88.798 190.857,89.56 190.4,90.22L190.4,90.219Z" style="fill:rgb(252,199,43);fill-rule:nonzero;" /><path d="M130.767,241.631C129.252,241.633 127.752,241.337 126.353,240.757C124.954,240.177 123.683,239.326 122.613,238.255L68.807,184.452C66.654,182.288 65.448,179.359 65.452,176.307C65.456,173.255 66.67,170.327 68.828,168.17C70.987,166.011 73.913,164.796 76.966,164.791C80.018,164.788 82.948,165.993 85.112,168.146L130.767,213.796L230.226,114.341C232.394,112.208 235.317,111.018 238.359,111.03C241.401,111.043 244.315,112.256 246.464,114.407C248.615,116.558 249.83,119.471 249.843,122.513C249.854,125.555 248.664,128.478 246.53,130.646L138.918,238.255C137.849,239.328 136.578,240.177 135.179,240.757C133.781,241.337 132.281,241.633 130.767,241.631Z" style="fill:rgb(114,155,27);fill-rule:nonzero;" /><path d="M130.72,241.631C132.235,241.633 133.735,241.337 135.134,240.757C136.534,240.177 137.804,239.326 138.874,238.255L192.68,184.452C194.833,182.288 196.04,179.359 196.035,176.307C196.032,173.255 194.817,170.327 192.658,168.17C190.5,166.011 187.573,164.796 184.521,164.791C181.469,164.788 178.54,165.993 176.375,168.146L130.72,213.796L31.261,114.341C29.093,112.208 26.17,111.018 23.128,111.03C20.086,111.043 17.173,112.256 15.022,114.407C12.871,116.558 11.658,119.471 11.645,122.513C11.633,125.555 12.823,128.478 14.956,130.646L122.569,238.255C123.638,239.328 124.909,240.177 126.308,240.757C127.707,241.337 129.206,241.633 130.72,241.631Z" style="fill:rgb(114,155,27);fill-opacity:0.5;fill-rule:nonzero;" /></g></g></svg></svg><svg width="79" height="77" viewbox="0 0 79 77" x="103" y="8"><g transform="matrix(0.79,0,0,0.77,0,0)"><path d="M100,6.494L100,93.506C100,97.09 97.164,100 93.671,100L6.329,100C2.836,100 0,97.09 0,93.506L0,6.494C0,2.91 2.836,0 6.329,0L93.671,0C97.164,0 100,2.91 100,6.494Z" style="fill:rgba(235,235,235,1);" /></g><g transform="matrix(1,0,0,1,20,55)"><text style="font-family:&quot;ArialMT&quot;, &quot;Arial&quot;, sans-serif;font-size:8px;" dy="0" dominant-baseline="middle" text-anchor="middle"><tspan x="19" dy=".6em">Vue</tspan><tspan x="19" dy="1.6em" style="font-family:&quot;ArialMT&quot;, &quot;Arial&quot;, sans-serif;font-size:6px;fill:rgb(155,155,155)">vue.svg</tspan></text></g><svg width="32" height="28.4" viewBox="0 0 18 16" version="1.1" xml:space="preserve" style="fill-rule:evenodd;clip-rule:evenodd;stroke-linejoin:round;stroke-miterlimit:2;" viewbox="0 0 32 28.4" x="23" y="17"><g id="vue" transform="matrix(0.0611247,0,0,0.0611247,9,8)"><g transform="matrix(1,0,0,1,-130.88,-113.345)"><clipPath id="_clip-g9guy97"><rect x="0" y="0" width="261.76" height="226.69" /></clipPath><g clip-path="url(#_clip-g9guy97)"><g transform="matrix(1.3333,0,0,-1.3333,-76.311,313.34)"><g transform="matrix(1,0,0,1,178.06,235.01)"><path d="M0,0L-22.669,-39.264L-45.338,0L-120.829,0L-22.669,-170.02L75.491,0L0,0Z" style="fill:rgb(65,184,131);fill-rule:nonzero;" /></g><g transform="matrix(1,0,0,1,178.06,235.01)"><path d="M0,0L-22.669,-39.264L-45.338,0L-81.565,0L-22.669,-102.01L36.227,0L0,0Z" style="fill:rgb(52,73,94);fill-rule:nonzero;" /></g></g></g></g></g></svg></svg><svg width="79" height="77" viewbox="0 0 79 77" x="194" y="8"><g transform="matrix(0.79,0,0,0.77,0,0)"><path d="M100,6.494L100,93.506C100,97.09 97.164,100 93.671,100L6.329,100C2.836,100 0,97.09 0,93.506L0,6.494C0,2.91 2.836,0 6.329,0L93.671,0C97.164,0 100,2.91 100,6.494Z" style="fill:rgba(235,235,235,1);" /></g><g transform="matrix(1,0,0,1,20,55)"><text style="font-family:&quot;ArialMT&quot;, &quot;Arial&quot;, sans-serif;font-size:8px;" dy="0" dominant-baseline="middle" text-anchor="middle"><tspan x="19" dy=".6em">Vyper</tspan><tspan x="19" dy="1.6em" style="font-family:&quot;ArialMT&quot;, &quot;Arial&quot;, sans-serif;font-size:6px;fill:rgb(155,155,155)">vyper.svg</tspan></text></g><svg width="32" height="28.4" viewBox="0 0 18 16" version="1.1" xml:space="preserve" style="fill-rule:evenodd;clip-rule:evenodd;stroke-linejoin:round;stroke-miterlimit:2;" viewbox="0 0 32 28.4" x="23" y="17"><g id="vyper" transform="matrix(0.314925,0,0,0.314925,2.63753,1)"><path d="M23.314,36.866L9.948,23.5C9.403,22.933 9.103,22.166 9.103,21.311L9.103,2.233C9.103,1.122 7.992,0.011 6.881,0.011L2.425,0.011C1.314,0.011 0.203,1.122 0.203,2.233L0.203,24.455C0.203,25.633 0.636,26.766 1.47,27.6L17.025,43.155C17.892,44.022 19.025,44.455 20.17,44.455L22.392,44.455C23.625,44.455 24.614,43.455 24.614,42.233L24.614,40.022C24.614,38.877 24.181,37.744 23.314,36.877L23.314,36.866Z" style="fill:rgb(159,76,242);fill-rule:nonzero;" /><path d="M40.203,2.222C40.203,1.1 39.103,0 37.981,0L33.525,0C32.414,0 31.303,1.111 31.303,2.222L31.303,21.289C31.303,22.144 30.97,22.911 30.414,23.489L25.937,27.966C25.07,28.833 24.637,29.966 24.637,31.111L24.637,33.333C24.637,34.566 25.637,35.555 26.859,35.555L29.081,35.555C30.214,35.555 31.359,35.122 32.225,34.255L38.892,27.589C39.725,26.755 40.192,25.622 40.192,24.444L40.192,2.222L40.203,2.222Z" style="fill:rgb(159,76,242);fill-rule:nonzero;" /></g></svg></svg><svg width="79" height="77" viewbox="0 0 79 77" x="285" y="8"><g transform="matrix(0.79,0,0,0.77,0,0)"><path d="M100,6.494L100,93.506C100,97.09 97.164,100 93.671,100L6.329,100C2.836,100 0,97.09 0,93.506L0,6.494C0,2.91 2.836,0 6.329,0L93.671,0C97.164,0 100,2.91 100,6.494Z" style="fill:rgba(235,235,235,1);" /></g><g transform="matrix(1,0,0,1,20,55)"><text style="font-family:&quot;ArialMT&quot;, &quot;Arial&quot;, sans-serif;font-size:8px;" dy="0" dominant-baseline="middle" text-anchor="middle"><tspan x="19" dy=".6em">Wallaby</tspan><tspan x="19" dy="1.6em" style="font-family:&quot;ArialMT&quot;, &quot;Arial&quot;, sans-serif;font-size:6px;fill:rgb(155,155,155)">wallaby.svg</tspan></text></g><svg width="32" height="28.4" viewBox="0 0 18 16" version="1.1" xml:space="preserve" style="fill-rule:evenodd;clip-rule:evenodd;stroke-linejoin:round;stroke-miterlimit:2;" viewbox="0 0 32 28.4" x="23" y="17"><g id="wallaby" transform="matrix(1.0571,0,0,1.0571,-0.128109,-0.29529)"><path d="M2.007,14.469L2.007,7.899L8.66,8L8.66,1.225L15.263,1.225L15.263,14.469L2.007,14.469Z" style="fill:rgb(98,180,85);" /></g></svg></svg><svg width="79" height="77" viewbox="0 0 79 77" x="376" y="8"><g transform="matrix(0.79,0,0,0.77,0,0)"><path d="M100,6.494L100,93.506C100,97.09 97.164,100 93.671,100L6.329,100C2.836,100 0,97.09 0,93.506L0,6.494C0,2.91 2.836,0 6.329,0L93.671,0C97.164,0 100,2.91 100,6.494Z" style="fill:rgba(235,235,235,1);" /></g><g transform="matrix(1,0,0,1,20,55)"><text style="font-family:&quot;ArialMT&quot;, &quot;Arial&quot;, sans-serif;font-size:8px;" dy="0" dominant-baseline="middle" text-anchor="middle"><tspan x="19" dy=".6em">Web IDL</tspan><tspan x="19" dy="1.6em" style="font-family:&quot;ArialMT&quot;, &quot;Arial&quot;, sans-serif;font-size:6px;fill:rgb(155,155,155)">webidl.svg</tspan></text></g><svg width="32" height="28.4" viewBox="0 0 18 16" version="1.1" xml:space="preserve" style="fill-rule:evenodd;clip-rule:evenodd;" viewbox="0 0 32 28.4" x="23" y="17"><g id="webidl" transform="matrix(1.07692,0,0,1.07692,2,1)"><g transform="matrix(0.0175084,0,0,0.0175084,-0.722222,-0.722222)"><circle cx="412.5" cy="412.5" r="371.25" style="fill:white;stroke:rgb(60,121,10);stroke-width:82.5px;" /></g><g transform="matrix(0.0175084,0,0,0.0175084,-0.722222,-0.722222)"><path d="M249.107,387.558L249.107,436.483C271.607,436.483 289.286,441.279 302.143,448.953C316.607,456.628 324.643,468.14 329.464,481.57C334.286,495 335.893,518.983 335.893,552.558C335.893,586.134 337.5,608.198 339.107,618.75C342.321,636.017 347.143,649.448 353.571,659.041C360,669.593 369.643,677.267 379.286,683.023C388.929,688.779 403.393,693.576 417.857,697.413C429.107,699.331 446.786,701.25 470.893,701.25L495,701.25L495,654.244L482.143,654.244C453.214,654.244 432.321,650.407 422.679,642.733C413.036,635.058 408.214,618.75 408.214,591.89C408.214,542.006 406.607,510.349 405,496.919C400.179,474.855 392.143,456.628 377.679,443.198C363.214,429.767 343.929,419.215 319.821,412.5C351.964,401.948 376.071,386.599 388.929,368.372C401.786,350.145 408.214,319.448 408.214,276.279C408.214,236.948 408.214,213.924 409.821,206.25C411.429,192.82 417.857,183.227 425.893,178.43C435.536,173.634 453.214,170.756 480.536,170.756L493.393,170.756L493.393,123.75L469.286,123.75C441.964,123.75 421.071,125.669 408.214,128.547C390.536,133.343 374.464,140.058 363.214,150.61C351.964,161.163 343.929,174.593 340.714,189.942C337.5,206.25 335.893,232.151 334.286,267.645C334.286,304.099 331.071,329.041 327.857,342.471C323.036,355.901 313.393,367.413 300.536,375.087C286.071,382.762 268.393,387.558 247.5,387.558L249.107,387.558Z" style="fill:rgb(60,121,10);fill-rule:nonzero;" /></g></g></svg></svg><svg width="79" height="77" viewbox="0 0 79 77" x="467" y="8"><g transform="matrix(0.79,0,0,0.77,0,0)"><path d="M100,6.494L100,93.506C100,97.09 97.164,100 93.671,100L6.329,100C2.836,100 0,97.09 0,93.506L0,6.494C0,2.91 2.836,0 6.329,0L93.671,0C97.164,0 100,2.91 100,6.494Z" style="fill:rgba(235,235,235,1);" /></g><g transform="matrix(1,0,0,1,20,55)"><text style="font-family:&quot;ArialMT&quot;, &quot;Arial&quot;, sans-serif;font-size:8px;" dy="0" dominant-baseline="middle" text-anchor="middle"><tspan x="19" dy=".6em">WebAssembly</tspan><tspan x="19" dy="1.6em" style="font-family:&quot;ArialMT&quot;, &quot;Arial&quot;, sans-serif;font-size:6px;fill:rgb(155,155,155)">webassembly.svg</tspan></text></g><svg width="32" height="28.4" viewBox="0 0 18 16" version="1.1" xml:space="preserve" style="fill-rule:evenodd;clip-rule:evenodd;stroke-linejoin:round;stroke-miterlimit:2;" viewbox="0 0 32 28.4" x="23" y="17"><g transform="matrix(0.0245098,0,0,0.0245098,9,8)"><g id="wast" transform="matrix(1,0,0,1,-306,-306)"><clipPath id="_clip-lzpwt3f"><rect x="0" y="0" width="612" height="612" /></clipPath><g clip-path="url(#_clip-lzpwt3f)"><path d="M376,0L376,3.3C376,42.06 344.58,73.47 305.83,73.47C267.07,73.47 235.66,42.05 235.66,3.3L235.66,-0L0,0L0,612L612,612L612,0L376,0Z" style="fill:rgb(101,79,240);fill-rule:nonzero;" /><path d="M142.16,329.81L182.72,329.81L210.41,477.28L210.91,477.28L244.19,329.81L282.13,329.81L312.19,479.09L312.78,479.09L344.34,329.81L384.12,329.81L332.43,546.5L292.18,546.5L262.37,399.03L261.59,399.03L229.68,546.5L188.68,546.5L142.16,329.81ZM429.85,329.81L493.79,329.81L557.29,546.5L515.45,546.5L501.64,498.28L428.8,498.28L418.14,546.5L377.39,546.5L429.85,329.81ZM454.19,383.22L436.5,462.72L491.56,462.72L471.25,383.22L454.19,383.22Z" style="fill:white;fill-rule:nonzero;" /></g></g><g id="wast1" /></g></svg></svg><svg width="79" height="77" viewbox="0 0 79 77" x="558" y="8"><g transform="matrix(0.79,0,0,0.77,0,0)"><path d="M100,6.494L100,93.506C100,97.09 97.164,100 93.671,100L6.329,100C2.836,100 0,97.09 0,93.506L0,6.494C0,2.91 2.836,0 6.329,0L93.671,0C97.164,0 100,2.91 100,6.494Z" style="fill:rgba(235,235,235,1);" /></g><g transform="matrix(1,0,0,1,20,55)"><text style="font-family:&quot;ArialMT&quot;, &quot;Arial&quot;, sans-serif;font-size:8px;" dy="0" dominant-baseline="middle" text-anchor="middle"><tspan x="19" dy=".6em">WebGPU</tspan><tspan x="19" dy="1.6em" style="font-family:&quot;ArialMT&quot;, &quot;Arial&quot;, sans-serif;font-size:6px;fill:rgb(155,155,155)">webgpu.svg</tspan></text></g><svg width="32" height="28.4" viewBox="0 0 18 16" version="1.1" xml:space="preserve" style="fill-rule:evenodd;clip-rule:evenodd;" viewbox="0 0 32 28.4" x="23" y="17"><g id="webgpu" transform="matrix(0.0208333,0,0,0.0208333,9,8)"><g transform="matrix(1,0,0,1,-384,-384)"><g transform="matrix(1.0419,0,0,1.0419,13.2234,76.1182)"><path id="Triangle_4" d="M626.63,295.5L566.441,191.25L686.991,191.25L626.63,295.5Z" style="fill:rgb(0,134,232);fill-rule:nonzero;stroke:rgb(0,134,232);stroke-width:1px;" /><path id="Triangle_5" d="M626.63,87.001L566.441,191.251L686.991,191.251L626.63,87.001Z" style="fill:rgb(0,147,255);fill-rule:nonzero;stroke:rgb(0,147,255);stroke-width:1px;" /><path id="Triangle_3" d="M506.26,504L385.88,295.5L626.64,295.498L506.26,504Z" style="fill:rgb(0,118,204);fill-rule:nonzero;stroke:rgb(0,118,204);stroke-width:1px;" /><path id="Triangle_2" d="M506.26,87L385.88,295.5L626.64,295.498L506.26,87Z" style="fill:rgb(0,102,176);fill-rule:nonzero;stroke:rgb(0,102,176);stroke-width:1px;" /><path id="Triangle_1" d="M265.5,504L24.74,87L506.25,87L265.5,504Z" style="fill:rgb(0,90,156);fill-rule:nonzero;stroke:rgb(0,90,156);stroke-width:1px;" /></g></g></g></svg></svg><svg width="79" height="77" viewbox="0 0 79 77" x="649" y="8"><g transform="matrix(0.79,0,0,0.77,0,0)"><path d="M100,6.494L100,93.506C100,97.09 97.164,100 93.671,100L6.329,100C2.836,100 0,97.09 0,93.506L0,6.494C0,2.91 2.836,0 6.329,0L93.671,0C97.164,0 100,2.91 100,6.494Z" style="fill:rgba(235,235,235,1);" /></g><g transform="matrix(1,0,0,1,20,55)"><text style="font-family:&quot;ArialMT&quot;, &quot;Arial&quot;, sans-serif;font-size:8px;" dy="0" dominant-baseline="middle" text-anchor="middle"><tspan x="19" dy=".6em">Webpack</tspan><tspan x="19" dy="1.6em" style="font-family:&quot;ArialMT&quot;, &quot;Arial&quot;, sans-serif;font-size:6px;fill:rgb(155,155,155)">webpack.svg</tspan></text></g><svg width="32" height="28.4" viewBox="0 0 18 16" version="1.1" xml:space="preserve" style="fill-rule:evenodd;clip-rule:evenodd;stroke-linejoin:round;stroke-miterlimit:2;" viewbox="0 0 32 28.4" x="23" y="17"><g transform="matrix(0.117188,0,0,0.117188,9,8)"><g id="webpack" transform="matrix(1,0,0,1,-64,-64)"><g id="original"><path d="M117.29,98.1L66.24,127L66.24,104.49L98,87L117.29,98.1ZM120.79,94.94L120.79,34.55L102.11,45.35L102.11,84.16L120.78,94.93L120.79,94.94ZM10.71,98.1L61.71,126.98L61.71,104.49L29.94,87L10.71,98.1ZM7.21,94.94L7.21,34.55L25.89,45.35L25.89,84.16L7.21,94.94ZM9.4,30.64L61.76,1L61.76,22.76L28.21,41.21L27.94,41.36L9.4,30.64ZM118.58,30.64L66.24,1L66.24,22.76L99.79,41.2L100.06,41.35L118.6,30.64L118.58,30.64Z" style="fill:rgb(142,214,251);fill-rule:nonzero;" /><path d="M61.76,99.37L30.37,82.1L30.37,47.92L61.76,66L61.76,99.37ZM66.24,99.37L97.63,82.12L97.63,47.92L66.24,66L66.24,99.37ZM32.5,44L64,26.66L95.5,44L64,62.16L32.5,44Z" style="fill:rgb(28,120,192);fill-rule:nonzero;" /></g></g><g id="webpack1" /></g></svg></svg><svg width="79" height="77" viewbox="0 0 79 77" x="12" y="100"><g transform="matrix(0.79,0,0,0.77,0,0)"><path d="M100,6.494L100,93.506C100,97.09 97.164,100 93.671,100L6.329,100C2.836,100 0,97.09 0,93.506L0,6.494C0,2.91 2.836,0 6.329,0L93.671,0C97.164,0 100,2.91 100,6.494Z" style="fill:rgba(235,235,235,1);" /></g><g transform="matrix(1,0,0,1,20,55)"><text style="font-family:&quot;ArialMT&quot;, &quot;Arial&quot;, sans-serif;font-size:8px;" dy="0" dominant-baseline="middle" text-anchor="middle"><tspan x="19" dy=".6em">XMake</tspan><tspan x="19" dy="1.6em" style="font-family:&quot;ArialMT&quot;, &quot;Arial&quot;, sans-serif;font-size:6px;fill:rgb(155,155,155)">xmake.svg</tspan></text></g><svg width="32" height="28.4" viewBox="0 0 18 16" version="1.1" xml:space="preserve" style="fill-rule:evenodd;clip-rule:evenodd;stroke-linejoin:round;stroke-miterlimit:2;" viewbox="0 0 32 28.4" x="23" y="17"><g id="xmake" transform="matrix(0.234375,0,0,0.234375,6.95053,6.41928)"><g id="outside_s" transform="matrix(1,0,0,1,-23.2556,-25.2556)"><g style="filter:url(#_Effect-ava8q9t);"><circle cx="32" cy="32" r="30" style="fill:rgb(134,134,134);" /></g></g><g id="outside_s1" transform="matrix(1,0,0,1,-23.2556,-25.2556)"><circle cx="32" cy="32" r="30" style="fill:rgb(224,242,241);" /></g><g transform="matrix(0.910222,0,0,0.910222,-20.3827,-22.3827)"><path d="M7.355,14.898C12.776,7.105 21.796,2 32,2C38.753,2 44.987,4.236 50.003,8.007L23.092,24.603L7.355,14.898Z" style="fill:rgb(224,242,241);" /></g><g transform="matrix(0.990382,0,0,0.990382,-23.2328,-24.6503)"><path d="M48.387,10.161C55.016,15.145 59.307,23.076 59.307,32C59.307,36.728 58.102,41.177 55.984,45.057L23.892,25.267L48.387,10.161Z" style="fill:rgb(133,183,175);" /></g><g transform="matrix(1,0,0,1,-23.2556,-25.2556)"><g style="filter:url(#_Effect-occu8az);"><path d="M48.387,10.161C55.016,15.145 59.307,23.076 59.307,32C59.307,36.728 58.102,41.177 55.984,45.057L23.892,25.267L48.387,10.161Z" style="fill:rgb(133,183,175);" /></g></g><g transform="matrix(1,0,0,1,-24.1797,-25.7957)"><g style="filter:url(#_Effect-wtz2j9a);"><path d="M48.772,10.162C55.401,15.146 59.307,23.076 59.307,32C59.307,36.728 58.102,41.177 55.984,45.057L24.073,26.055L48.772,10.162Z" style="fill:rgb(133,183,175);" /></g></g><g transform="matrix(1,0,0,1,-23.2556,-25.2556)"><path d="M55.925,44.847C51.117,53.113 42.343,58.854 32,58.854C18.581,58.854 8.475,49.399 5.122,36.841L23.892,25.267L55.925,44.847Z" style="fill:rgb(72,162,124);" /></g><g transform="matrix(1.00664,0,0,1.00664,-23.4585,-25.5365)"><g style="filter:url(#_Effect-mz1d93j);"><path d="M55.984,45.057C51.35,53.544 42.343,59.307 32,59.307C18.581,59.307 7.41,49.606 5.122,36.841L23.892,25.267L55.984,45.057Z" style="fill:rgb(72,162,124);" /></g></g><g transform="matrix(1,0,0,1,-23.2556,-25.2556)"><path d="M5.172,36.804C4.89,35.233 4.772,33.688 4.772,32.036C4.772,26.253 6.495,20.851 9.568,16.433L23.892,25.267L5.172,36.804Z" style="fill:rgb(139,195,73);" /></g><g transform="matrix(1.04452,0,0,1.04452,-23.8919,-26.4416)"><g style="filter:url(#_Effect-55dg91m);"><path d="M5.122,36.841C4.84,35.27 4.693,33.652 4.693,32C4.693,26.217 6.495,20.851 9.568,16.433L23.892,25.267L5.122,36.841Z" style="fill:rgb(139,195,73);" /></g></g></g><defs><filter id="_Effect-ava8q9t" filterUnits="userSpaceOnUse" x="-1.96936" y="-1.96936" width="67.9387" height="67.9387"><feGaussianBlur in="SourceGraphic" stdDeviation="0.66156" /></filter><filter id="_Effect-occu8az" filterUnits="userSpaceOnUse" x="22.3266" y="8.59599" width="38.5453" height="38.0262"><feGaussianBlur in="SourceGraphic" stdDeviation="0.260879" /></filter><filter id="_Effect-wtz2j9a" filterUnits="userSpaceOnUse" x="20.9626" y="7.05168" width="41.454" height="41.1152"><feGaussianBlur in="SourceGraphic" stdDeviation="0.518326" /></filter><filter id="_Effect-mz1d93j" filterUnits="userSpaceOnUse" x="1.19186" y="21.3365" width="58.7224" height="41.9003"><feGaussianBlur in="SourceGraphic" stdDeviation="0.655025" /></filter><filter id="_Effect-55dg91m" filterUnits="userSpaceOnUse" x="0.461166" y="12.2013" width="27.6629" height="28.8723"><feGaussianBlur in="SourceGraphic" stdDeviation="0.705361" /></filter></defs></svg></svg><svg width="79" height="77" viewbox="0 0 79 77" x="103" y="100"><g transform="matrix(0.79,0,0,0.77,0,0)"><path d="M100,6.494L100,93.506C100,97.09 97.164,100 93.671,100L6.329,100C2.836,100 0,97.09 0,93.506L0,6.494C0,2.91 2.836,0 6.329,0L93.671,0C97.164,0 100,2.91 100,6.494Z" style="fill:rgba(235,235,235,1);" /></g><g transform="matrix(1,0,0,1,20,55)"><text style="font-family:&quot;ArialMT&quot;, &quot;Arial&quot;, sans-serif;font-size:8px;" dy="0" dominant-baseline="middle" text-anchor="middle"><tspan x="19" dy=".6em">XML</tspan><tspan x="19" dy="1.6em" style="font-family:&quot;ArialMT&quot;, &quot;Arial&quot;, sans-serif;font-size:6px;fill:rgb(155,155,155)">xml.svg</tspan></text></g><svg width="32" height="28.4" viewBox="0 0 18 16" version="1.1" xml:space="preserve" style="fill-rule:evenodd;clip-rule:evenodd;stroke-linejoin:round;stroke-miterlimit:2;" viewbox="0 0 32 28.4" x="23" y="17"><g transform="matrix(0.472203,0,0,0.472203,9,8)"><g id="xml" transform="matrix(1,0,0,1,-18.0007,-7.00202)"><clipPath id="_clip-y207deu"><rect x="0" y="0" width="36.001" height="14.004" /></clipPath><g clip-path="url(#_clip-y207deu)"><path id="path2764" d="M35.998,14L34.995,13.021L34.975,0.995L35.998,0.008L35.998,14Z" style="fill:rgb(128,51,0);" /><rect id="rect1873" x="0.987" y="0.995" width="34.008" height="12.03" style="fill:rgb(255,102,0);" /><path id="path1875" d="M0,0L36.001,0.004L34.983,0.991L0.999,1.003L0,0Z" style="fill:rgb(255,204,170);" /><path id="path2762" d="M0.004,14L36.001,14.004L34.994,13.017L0.987,13.017L0.004,14Z" style="fill:rgb(85,34,0);" /><path id="path3651" d="M0.995,13.009L0,14L0,0L0.991,0.991L0.995,13.009Z" style="fill:rgb(255,153,85);" /><g id="g4580"><path id="text4574" d="M4.817,3.867L7.741,3.867L9.264,6.51L10.741,3.867L13.635,3.867L10.963,8.028L13.887,12.457L10.905,12.457L9.212,9.697L7.512,12.457L4.547,12.457L7.512,7.981L4.817,3.867ZM14.708,3.867L18.2,3.867L19.547,9.094L20.889,3.867L24.37,3.867L24.37,12.457L22.202,12.457L22.202,5.906L20.52,12.457L18.557,12.457L16.881,5.906L16.881,12.457L14.708,12.457L14.708,3.867ZM26.057,3.867L28.712,3.867L28.712,10.342L32.854,10.342L32.854,12.457L26.057,12.457L26.057,3.867Z" style="fill:rgb(128,51,0);fill-rule:nonzero;" /><path id="text4570" d="M4.242,2.939L7.166,2.939L8.69,5.582L10.166,2.939L13.061,2.939L10.389,7.099L13.313,11.529L10.33,11.529L8.637,8.769L6.938,11.529L3.973,11.529L6.938,7.053L4.242,2.939ZM14.133,2.939L17.625,2.939L18.973,8.166L20.315,2.939L23.795,2.939L23.795,11.529L21.627,11.529L21.627,4.978L19.946,11.529L17.983,11.529L16.307,4.978L16.307,11.529L14.133,11.529L14.133,2.939ZM25.483,2.939L28.137,2.939L28.137,9.414L32.28,9.414L32.28,11.529L25.483,11.529L25.483,2.939Z" style="fill:white;fill-rule:nonzero;" /></g></g></g><g id="xml1" /></g></svg></svg><svg width="79" height="77" viewbox="0 0 79 77" x="194" y="100"><g transform="matrix(0.79,0,0,0.77,0,0)"><path d="M100,6.494L100,93.506C100,97.09 97.164,100 93.671,100L6.329,100C2.836,100 0,97.09 0,93.506L0,6.494C0,2.91 2.836,0 6.329,0L93.671,0C97.164,0 100,2.91 100,6.494Z" style="fill:rgba(235,235,235,1);" /></g><g transform="matrix(1,0,0,1,20,55)"><text style="font-family:&quot;ArialMT&quot;, &quot;Arial&quot;, sans-serif;font-size:8px;" dy="0" dominant-baseline="middle" text-anchor="middle"><tspan x="19" dy=".6em">YAML</tspan><tspan x="19" dy="1.6em" style="font-family:&quot;ArialMT&quot;, &quot;Arial&quot;, sans-serif;font-size:6px;fill:rgb(155,155,155)">yaml.svg</tspan></text></g><svg width="32" height="28.4" viewBox="0 0 18 16" version="1.1" xml:space="preserve" style="fill-rule:evenodd;clip-rule:evenodd;stroke-linejoin:round;stroke-miterlimit:2;" viewbox="0 0 32 28.4" x="23" y="17"><g transform="matrix(0.0292969,0,0,0.0292969,1.5,1.10645)"><g transform="matrix(1.32345,0,0,2.47403,1.27188,-17.1725)"><path d="M385.908,39.964C385.908,17.12 351.238,-1.426 308.534,-1.426L76.413,-1.426C33.709,-1.426 -0.961,17.12 -0.961,39.964L-0.961,164.134C-0.961,186.978 33.709,205.524 76.413,205.524L308.534,205.524C351.238,205.524 385.908,186.978 385.908,164.134L385.908,39.964Z" style="fill:white;" /></g><g transform="matrix(1.08786,0,0,1.08786,-22.4932,-20.6744)"><g id="Y" transform="matrix(0.8,0,0,0.8,51.2,47.0412)"><path d="M235.793,0L143.978,137.674L143.978,224.949L87.702,224.949L87.702,137.674L0,0L63.25,0L119.018,88.646L175.243,0L235.793,0Z" style="fill-rule:nonzero;" /></g><g id="A" transform="matrix(0.8,0,0,0.8,51.2,47.0412)"><path d="M330.294,175.451L228.433,175.451L207.716,225.475L162.61,225.475L257.99,0.526L304.127,0.526L395.637,225.475L347.437,225.475L330.293,175.451L330.294,175.451ZM313.374,130.54L282.148,47.99L247.311,130.54L313.374,130.54Z" style="fill:rgb(203,23,30);fill-rule:nonzero;" /></g><g id="M" transform="matrix(0.8,0,0,0.8,51.2,47.0412)"><path d="M87.701,250.177L87.701,470.647L135.004,470.647L135.004,318.569L184.509,420.789L221.743,420.789L272.939,314.976L272.939,470.602L318.318,470.602L318.318,250.177L256.358,250.177L201.381,349.883L149.021,250.177L87.701,250.177Z" style="fill-rule:nonzero;" /></g><g id="L" transform="matrix(0.8,0,0,0.8,51.2,47.0412)"><path d="M512,422.735L395.638,422.735L395.638,250.125L347.442,250.125L347.442,469.647L512,469.647L512,422.735Z" style="fill-rule:nonzero;" /></g></g></g></svg></svg><svg width="79" height="77" viewbox="0 0 79 77" x="285" y="100"><g transform="matrix(0.79,0,0,0.77,0,0)"><path d="M100,6.494L100,93.506C100,97.09 97.164,100 93.671,100L6.329,100C2.836,100 0,97.09 0,93.506L0,6.494C0,2.91 2.836,0 6.329,0L93.671,0C97.164,0 100,2.91 100,6.494Z" style="fill:rgba(235,235,235,1);" /></g><g transform="matrix(1,0,0,1,20,55)"><text style="font-family:&quot;ArialMT&quot;, &quot;Arial&quot;, sans-serif;font-size:8px;" dy="0" dominant-baseline="middle" text-anchor="middle"><tspan x="19" dy=".6em">Yarn</tspan><tspan x="19" dy="1.6em" style="font-family:&quot;ArialMT&quot;, &quot;Arial&quot;, sans-serif;font-size:6px;fill:rgb(155,155,155)">yarn.svg</tspan></text></g><svg width="32" height="28.4" viewBox="0 0 18 16" version="1.1" xml:space="preserve" style="fill-rule:evenodd;clip-rule:evenodd;stroke-linejoin:round;stroke-miterlimit:2;" viewbox="0 0 32 28.4" x="23" y="17"><g transform="matrix(0.117188,0,0,0.117188,9,8)"><g id="yarn" transform="matrix(1,0,0,1,-64,-64)"><g transform="matrix(1.6694,0,0,1.6694,-49.6325,-42.8108)"><path d="M99.24,80.71C94.9,80.76 91.1,83 87.89,85C81.89,88.71 78.89,88.47 78.89,88.47L78.79,88.3C78.38,87.63 80.71,81.62 78.1,74.46C75.28,66.63 70.8,64.74 71.16,64.14C72.69,61.55 76.52,57.44 78.05,49.78C78.96,45.14 78.72,37.5 76.66,33.5C76.28,32.76 72.88,34.74 72.88,34.74C72.88,34.74 69.7,27.65 68.81,27.08C65.94,25.24 62.81,34.69 62.81,34.69C58.419,34.26 54.073,35.93 51.1,39.19C50.012,40.238 48.693,41.015 47.25,41.46C46.84,41.6 46.34,41.58 45.1,44.93C43.2,50 48.34,55.74 48.34,55.74C48.34,55.74 42.21,60.07 39.94,65.46C38.424,69.155 37.823,73.163 38.19,77.14C38.557,81.117 33.83,80.92 33.55,84.82C33.29,87.552 33.911,90.296 35.32,92.65C35.639,93.331 36.325,93.768 37.077,93.768C37.38,93.768 37.679,93.696 37.95,93.56C38.221,93.424 35.05,96.94 37.76,98.37C40.23,99.66 44.39,100.37 46.59,98.18C48.19,96.58 48.51,93.01 49.1,91.55C49.24,91.21 49.72,92.12 50.18,92.55C50.604,92.921 51.059,93.256 51.54,93.55C52.021,93.844 47.64,95.23 49.24,99.06C49.77,100.33 51.66,101.14 54.75,101.12C55.9,101.12 68.51,100.4 71.87,99.59C72.886,99.429 73.811,98.911 74.48,98.13C79.936,96.507 85.147,94.152 89.97,91.13C94.71,88.04 96.65,87.2 100.48,86.29C103.64,85.54 103.43,80.64 99.24,80.71Z" style="fill:rgb(44,142,187);fill-rule:nonzero;" /></g></g><g id="yarn1" /></g></svg></svg><svg width="79" height="77" viewbox="0 0 79 77" x="376" y="100"><g transform="matrix(0.79,0,0,0.77,0,0)"><path d="M100,6.494L100,93.506C100,97.09 97.164,100 93.671,100L6.329,100C2.836,100 0,97.09 0,93.506L0,6.494C0,2.91 2.836,0 6.329,0L93.671,0C97.164,0 100,2.91 100,6.494Z" style="fill:rgba(235,235,235,1);" /></g><g transform="matrix(1,0,0,1,20,55)"><text style="font-family:&quot;ArialMT&quot;, &quot;Arial&quot;, sans-serif;font-size:8px;" dy="0" dominant-baseline="middle" text-anchor="middle"><tspan x="19" dy=".6em">Yaws</tspan><tspan x="19" dy="1.6em" style="font-family:&quot;ArialMT&quot;, &quot;Arial&quot;, sans-serif;font-size:6px;fill:rgb(155,155,155)">yaws.svg</tspan></text></g><svg width="32" height="28.4" viewBox="0 0 18 16" version="1.1" xml:space="preserve" style="fill-rule:evenodd;clip-rule:evenodd;stroke-linejoin:round;stroke-miterlimit:2;" viewbox="0 0 32 28.4" x="23" y="17"><g id="yaws" transform="matrix(0.0392178,0,0,0.0392178,-3.63665,-0.345234)"><g transform="matrix(0.742562,0,0,2.25189,118.228,169.683)"><path d="M12.165,15.688C4.452,13.799 -1.622,9.066 0.388,0.076L227.27,0.074C227.27,0.074 226.093,8.436 227.589,11.848C230.278,17.981 240.782,20.567 276.448,20.567C312.091,20.567 321.755,17.337 324.268,11.453C325.775,7.919 324.696,0.125 324.696,0.125L548.992,0.076C548.992,0.076 551.626,9.409 543.799,12.891C510.803,27.564 382.747,28.849 382.747,28.849L382.035,38.172L162.088,38.213L160.123,28.199C160.123,28.199 63.34,28.22 12.165,15.688Z" style="fill:rgb(238,39,40);fill-rule:nonzero;" /></g><g transform="matrix(2.12391,0,0,2.12391,118.383,170.268)"><path d="M20.107,4.899C20.337,5.332 30.481,18.615 31.608,20.14C32.658,21.561 30.594,36.877 31.288,37.899C31.98,38.921 37.4,39.093 38.786,38.4C40.17,37.708 43.196,34.932 42.25,32.857C41.303,30.782 37.936,23.006 38.534,21.525C39.131,20.045 41.099,17.797 41.387,17.428C41.75,16.964 52.471,2.38 53.164,2.38C53.856,2.38 54.803,1.688 54.803,1.688C54.803,1.688 55.284,0.673 54.255,0.673C53.225,0.673 49.545,1.004 48.506,1.69C47.467,2.375 42.503,10.192 42.503,10.192L38.81,15.407C38.81,15.407 36.854,16.973 36.289,16.713C34.986,16.116 27.728,7.218 27.728,7.218C27.728,7.218 21.947,0.787 20.951,0.745C19.954,0.704 19.761,4.25 20.107,4.899Z" style="fill:rgb(17,35,41);" /></g><g transform="matrix(2.12391,0,0,2.12391,118.383,170.268)"><path d="M58.894,19.7C58.894,19.7 59.757,16.076 59.06,15.04C58.363,14.005 56.438,14.129 55.51,14.441C54.049,14.934 53.164,15.271 53.164,15.271C53.164,15.271 51.855,15.652 50.661,15.461C49.694,15.307 49.759,13.885 49.906,13.416C50.055,12.942 52.47,11.015 54.125,10.574C57.276,9.732 59.289,9.973 61.051,10.663C62.814,11.353 63.821,12.363 64.514,14.441C65.208,16.519 64.938,25.429 64.278,27.146C63.73,28.577 61.475,30.973 57.806,30.973C55.004,30.973 52.128,29.777 50.392,28.201C48.88,26.829 47.015,24.726 46.705,22.826C46.462,21.335 47.199,20.024 48.314,19.561C50.084,18.824 54.22,18.785 56.297,19.197L58.894,19.7ZM54.959,20.772C53.183,20.772 51.741,21.986 51.741,23.48C51.741,24.975 53.183,26.188 54.959,26.188C56.736,26.188 58.178,24.975 58.178,23.48C58.178,21.986 56.736,20.772 54.959,20.772Z" style="fill:rgb(17,35,41);" /></g><g transform="matrix(2.12391,0,0,2.12391,118.383,170.268)"><path d="M78.098,21.273C79.495,21.273 82.483,12.066 83.122,11.798C83.815,11.508 84.994,11.228 85.718,11.575C86.707,12.049 89.637,20.93 90.352,21.247C91.117,21.587 93.043,16.617 94.031,15.425C94.928,14.343 100.158,9.497 100.559,9.497C100.958,9.497 100.894,9.861 100.894,10.557C100.894,11.252 100.265,19.195 98.879,21.62C97.494,24.045 94.08,27.919 91.439,28.201C90.127,28.34 86.411,22.659 85.958,21.273C85.669,20.39 84.334,20.582 83.855,21.273C83.545,21.72 79.425,30.872 78.098,31.366C76.874,31.823 75.29,31.9 74.935,31.27C74.579,30.64 68.23,17.641 67.708,15.733C67.342,14.396 67.361,11.23 67.708,10.883C68.055,10.536 68.398,9.502 69.439,9.847C71.576,10.557 77.544,21.273 78.098,21.273Z" style="fill:rgb(17,35,41);" /></g><g transform="matrix(2.12391,0,0,2.12391,118.383,170.268)"><path d="M102.028,28.833C102.028,28.833 107.744,29.791 109.822,29.099C111.9,28.407 115.95,26.123 116.127,23.617C116.243,21.977 115.505,20.847 114.119,19.891C112.844,19.01 109.721,17.361 109.721,15.643C109.721,14.419 111.57,13.529 112.607,13.529C113.643,13.529 114.81,14.187 116.889,12.535C118.968,10.883 118.584,10.149 118.584,9.823C118.584,9.497 118.275,8.807 117.582,8.807C116.889,8.807 112.042,8.807 109.612,9.497C107.074,10.218 103.743,11.28 103.729,14.347C103.715,17.414 109.067,20.159 109.718,21.84C110.229,23.159 108.214,24.612 106.499,25.865C104.997,26.963 104.076,27.103 103.036,27.77C101.996,28.436 102.028,28.833 102.028,28.833Z" style="fill:rgb(17,35,41);" /></g></g></svg></svg><svg width="79" height="77" viewbox="0 0 79 77" x="467" y="100"><g transform="matrix(0.79,0,0,0.77,0,0)"><path d="M100,6.494L100,93.506C100,97.09 97.164,100 93.671,100L6.329,100C2.836,100 0,97.09 0,93.506L0,6.494C0,2.91 2.836,0 6.329,0L93.671,0C97.164,0 100,2.91 100,6.494Z" style="fill:rgba(235,235,235,1);" /></g><g transform="matrix(1,0,0,1,20,55)"><text style="font-family:&quot;ArialMT&quot;, &quot;Arial&quot;, sans-serif;font-size:8px;" dy="0" dominant-baseline="middle" text-anchor="middle"><tspan x="19" dy=".6em">Yugabyte</tspan><tspan x="19" dy="1.6em" style="font-family:&quot;ArialMT&quot;, &quot;Arial&quot;, sans-serif;font-size:6px;fill:rgb(155,155,155)">yugabyte.svg</tspan></text></g><svg width="32" height="28.4" viewBox="0 0 18 16" version="1.1" xml:space="preserve" style="fill-rule:evenodd;clip-rule:evenodd;stroke-linejoin:round;stroke-miterlimit:2;" viewbox="0 0 32 28.4" x="23" y="17"><g id="yugabyte" transform="matrix(1.11248,0,0,1.11248,-1.09057,-0.639751)"><path d="M11.23,7.766C11.23,7.766 11.232,3.454 11.232,2.475C11.232,2.171 11.428,1.923 11.753,1.923C12.363,1.924 14.266,1.924 14.901,1.924C15.307,1.924 15.467,2.083 15.462,2.486C15.454,3.038 15.475,4.224 15.479,4.815C15.481,5.132 15.336,5.493 14.97,5.887C14.74,6.134 14.015,6.503 13.387,6.817C12.353,7.333 11.23,7.766 11.23,7.766Z" style="fill:rgb(239,96,64);" /><g transform="matrix(-1,0,0,-1,22.4633,15.5324)"><path d="M11.23,7.766C11.23,7.766 11.232,3.454 11.232,2.475C11.232,2.171 11.428,1.923 11.753,1.923C12.363,1.924 14.266,1.924 14.901,1.924C15.307,1.924 15.467,2.083 15.462,2.486C15.454,3.038 15.475,4.224 15.479,4.815C15.481,5.132 15.336,5.493 14.97,5.887C14.74,6.134 14.015,6.503 13.387,6.817C12.353,7.333 11.23,7.766 11.23,7.766Z" style="fill:rgb(239,96,64);" /></g><g transform="matrix(-1,0,0,1,18.1407,0)"><path d="M12.421,7.3C11.765,7.638 11.225,7.482 11.231,6.756C11.241,5.421 11.232,3.154 11.232,2.475C11.232,2.171 11.428,1.923 11.753,1.923C12.363,1.924 14.266,1.924 14.901,1.924C15.307,1.924 15.467,2.083 15.462,2.486C15.454,3.038 15.475,4.224 15.479,4.815C15.481,5.132 15.336,5.493 14.97,5.887C14.74,6.134 14.015,6.503 13.387,6.817C12.961,7.029 12.795,7.106 12.421,7.3Z" style="fill:rgb(239,96,64);" /></g></g></svg></svg><svg width="79" height="77" viewbox="0 0 79 77" x="558" y="100"><g transform="matrix(0.79,0,0,0.77,0,0)"><path d="M100,6.494L100,93.506C100,97.09 97.164,100 93.671,100L6.329,100C2.836,100 0,97.09 0,93.506L0,6.494C0,2.91 2.836,0 6.329,0L93.671,0C97.164,0 100,2.91 100,6.494Z" style="fill:rgba(235,235,235,1);" /></g><g transform="matrix(1,0,0,1,20,55)"><text style="font-family:&quot;ArialMT&quot;, &quot;Arial&quot;, sans-serif;font-size:8px;" dy="0" dominant-baseline="middle" text-anchor="middle"><tspan x="19" dy=".6em">Zig</tspan><tspan x="19" dy="1.6em" style="font-family:&quot;ArialMT&quot;, &quot;Arial&quot;, sans-serif;font-size:6px;fill:rgb(155,155,155)">zig.svg</tspan></text></g><svg width="32" height="28.4" viewBox="0 0 18 16" version="1.1" xml:space="preserve" style="fill-rule:evenodd;clip-rule:evenodd;stroke-linejoin:round;stroke-miterlimit:2;" viewbox="0 0 32 28.4" x="23" y="17"><g id="zig" transform="matrix(0.0980392,0,0,0.0980392,1.5,1.13725)"><g><path d="M46,22L28,44L19,30L46,22Z" style="fill:rgb(247,164,29);fill-rule:nonzero;" /><path d="M46,22L33,33L28,44L22,44L22,95L31,95L20,100L12,117L0,117L0,22L46,22Z" style="fill:rgb(247,164,29);fill-rule:nonzero;" /><path d="M31,95L12,117L4,106L31,95Z" style="fill:rgb(247,164,29);fill-rule:nonzero;" /></g><g><path d="M56,22L62,36L37,44L56,22Z" style="fill:rgb(247,164,29);fill-rule:nonzero;" /><path d="M56,22L111,22L111,44L37,44L56,32L56,22Z" style="fill:rgb(247,164,29);fill-rule:nonzero;" /><path d="M116,95L97,117L90,104L116,95Z" style="fill:rgb(247,164,29);fill-rule:nonzero;" /><path d="M116,95L100,104L97,117L42,117L42,95L116,95Z" style="fill:rgb(247,164,29);fill-rule:nonzero;" /><path d="M150,0L52,117L3,140L101,22L150,0Z" style="fill:rgb(247,164,29);fill-rule:nonzero;" /></g><g><path d="M141,22L140,40L122,45L141,22Z" style="fill:rgb(247,164,29);fill-rule:nonzero;" /><path d="M153,22L153,117L106,117L120,105L125,95L131,95L131,45L122,45L132,36L141,22L153,22Z" style="fill:rgb(247,164,29);fill-rule:nonzero;" /><path d="M125,95L130,110L106,117L125,95Z" style="fill:rgb(247,164,29);fill-rule:nonzero;" /></g></g></svg></svg><svg width="79" height="77" viewbox="0 0 79 77" x="649" y="100"><g transform="matrix(0.79,0,0,0.77,0,0)"><path d="M100,6.494L100,93.506C100,97.09 97.164,100 93.671,100L6.329,100C2.836,100 0,97.09 0,93.506L0,6.494C0,2.91 2.836,0 6.329,0L93.671,0C97.164,0 100,2.91 100,6.494Z" style="fill:rgba(235,235,235,1);" /></g><g transform="matrix(1,0,0,1,20,55)"><text style="font-family:&quot;ArialMT&quot;, &quot;Arial&quot;, sans-serif;font-size:8px;" dy="0" dominant-baseline="middle" text-anchor="middle"><tspan x="19" dy=".6em">Zukan</tspan><tspan x="19" dy="1.6em" style="font-family:&quot;ArialMT&quot;, &quot;Arial&quot;, sans-serif;font-size:6px;fill:rgb(155,155,155)">zukan.svg</tspan></text></g><svg width="32" height="28.4" viewBox="0 0 18 16" version="1.1" xml:space="preserve" style="fill-rule:evenodd;clip-rule:evenodd;stroke-linejoin:round;stroke-miterlimit:2;" viewbox="0 0 32 28.4" x="23" y="17"><g id="zukan" transform="matrix(1.92252,0,0,1.92252,-8.30268,-6.52772)"><g transform="matrix(-0.74237,0,0,-0.74237,15.6813,13.3066)"><path d="M9.124,11.418C9.124,11.418 10.088,11.78 11.018,11.851C11.305,11.873 11.588,11.868 11.834,11.808C12.026,11.762 12.194,11.683 12.301,11.538C12.418,11.377 12.472,11.144 12.473,10.866C12.475,10.368 12.301,9.745 11.919,9.084C11.752,8.793 11.54,8.514 11.311,8.254C10.9,8.647 10.492,8.973 10.195,9.195C10.195,9.204 10.195,9.213 10.195,9.222C10.195,9.581 9.904,9.872 9.545,9.872C9.186,9.872 8.895,9.581 8.895,9.222C8.895,8.863 9.186,8.572 9.545,8.572C9.631,8.572 9.713,8.588 9.788,8.619C10.364,8.19 11.372,7.356 11.919,6.407C12.301,5.746 12.475,5.123 12.473,4.625C12.472,4.347 12.418,4.114 12.301,3.954C12.194,3.808 12.026,3.729 11.834,3.683C11.588,3.623 11.305,3.618 11.018,3.64C10.088,3.712 9.124,4.073 9.124,4.073C9.044,4.103 8.956,4.103 8.876,4.073C8.876,4.073 7.912,3.712 6.982,3.64C6.695,3.618 6.412,3.623 6.166,3.683C5.974,3.729 5.806,3.808 5.699,3.954C5.582,4.114 5.528,4.347 5.527,4.625C5.525,5.123 5.699,5.746 6.081,6.407C6.248,6.698 6.46,6.977 6.689,7.237C7.1,6.844 7.508,6.518 7.805,6.296C7.805,6.287 7.805,6.278 7.805,6.269C7.805,5.91 8.096,5.619 8.455,5.619C8.814,5.619 9.105,5.91 9.105,6.269C9.105,6.628 8.814,6.919 8.455,6.919C8.369,6.919 8.287,6.903 8.212,6.872C7.636,7.301 6.628,8.135 6.081,9.084C5.699,9.745 5.525,10.368 5.527,10.866C5.528,11.144 5.582,11.377 5.699,11.538C5.806,11.683 5.974,11.762 6.166,11.808C6.412,11.868 6.695,11.873 6.982,11.851C7.912,11.78 8.876,11.418 8.876,11.418C8.956,11.388 9.044,11.388 9.124,11.418Z" style="fill:url(#_Radial-gjenuza);" /></g><g transform="matrix(-0.74237,0,0,-0.74237,15.6813,13.3066)"><path d="M11.439,7.745C11.763,8.087 12.068,8.467 12.298,8.865C12.726,9.607 12.913,10.309 12.911,10.868C12.909,11.253 12.817,11.572 12.654,11.795C12.331,12.239 11.668,12.34 10.985,12.287C10.094,12.219 9.174,11.901 9,11.838C8.826,11.901 7.906,12.219 7.015,12.287C6.332,12.34 5.669,12.239 5.346,11.795C5.183,11.572 5.091,11.253 5.089,10.868C5.087,10.309 5.274,9.607 5.702,8.865C5.931,8.467 6.238,8.087 6.561,7.746C6.237,7.404 5.932,7.024 5.702,6.626C5.274,5.884 5.087,5.182 5.089,4.623C5.091,4.238 5.183,3.919 5.346,3.696C5.669,3.252 6.332,3.151 7.015,3.204C7.906,3.272 8.826,3.59 9,3.653C9.174,3.59 10.094,3.272 10.985,3.204C11.668,3.151 12.331,3.252 12.654,3.696C12.817,3.919 12.909,4.238 12.911,4.623C12.913,5.182 12.726,5.884 12.298,6.626C12.069,7.024 11.762,7.404 11.439,7.745ZM9.029,11.672C9.029,11.672 10.031,12.047 10.997,12.121C11.314,12.145 11.627,12.137 11.898,12.072C12.156,12.009 12.376,11.893 12.519,11.697C12.665,11.498 12.742,11.211 12.744,10.867C12.747,10.331 12.564,9.659 12.154,8.948C11.932,8.563 11.636,8.196 11.323,7.865C10.778,8.418 10.204,8.859 9.872,9.097C9.887,9.136 9.895,9.178 9.895,9.222C9.895,9.415 9.738,9.572 9.545,9.572C9.352,9.572 9.195,9.415 9.195,9.222C9.195,9.029 9.352,8.872 9.545,8.872C9.634,8.872 9.716,8.905 9.778,8.96C10.321,8.57 11.528,7.628 12.154,6.543C12.564,5.832 12.747,5.16 12.744,4.624C12.742,4.28 12.665,3.993 12.519,3.794C12.376,3.598 12.156,3.482 11.898,3.419C11.627,3.354 11.314,3.346 10.997,3.37C10.031,3.444 9.029,3.819 9.029,3.819C9.01,3.826 8.99,3.826 8.971,3.819C8.971,3.819 7.969,3.444 7.003,3.37C6.686,3.346 6.373,3.354 6.102,3.419C5.844,3.482 5.624,3.598 5.481,3.794C5.335,3.993 5.258,4.28 5.256,4.624C5.253,5.16 5.436,5.832 5.846,6.543C6.068,6.928 6.364,7.295 6.677,7.626C7.222,7.073 7.796,6.632 8.128,6.394C8.113,6.355 8.105,6.313 8.105,6.269C8.105,6.076 8.262,5.919 8.455,5.919C8.648,5.919 8.805,6.076 8.805,6.269C8.805,6.462 8.648,6.619 8.455,6.619C8.366,6.619 8.284,6.586 8.222,6.531C7.679,6.921 6.472,7.863 5.846,8.948C5.436,9.659 5.253,10.331 5.256,10.867C5.258,11.211 5.335,11.498 5.481,11.697C5.624,11.893 5.844,12.009 6.102,12.072C6.373,12.137 6.686,12.145 7.003,12.121C7.969,12.047 8.971,11.672 8.971,11.672C8.99,11.665 9.01,11.665 9.029,11.672Z" style="fill:rgb(242,54,18);" /></g></g><defs><radialGradient id="_Radial-gjenuza" cx="0" cy="0" r="1" gradientUnits="userSpaceOnUse" gradientTransform="matrix(-5.15635,6.47764,-6.47764,-5.15635,11.6247,4.58387)"><stop offset="0" style="stop-color:rgb(242,54,18);stop-opacity:1" /><stop offset="0.28" style="stop-color:rgb(242,45,46);stop-opacity:1" /><stop offset="0.55" style="stop-color:rgb(242,18,131);stop-opacity:1" /><stop offset="0.77" style="stop-color:rgb(242,45,45);stop-opacity:1" /><stop offset="1" style="stop-color:rgb(242,54,18);stop-opacity:1" /></radialGradient></defs></svg></svg></svg>