<svg xmlns="http://www.w3.org/2000/svg" viewbox="0 0 728 276"><svg width="79" height="77" viewbox="0 0 79 77" x="12" y="8"><g transform="matrix(0.79,0,0,0.77,0,0)"><path d="M100,6.494L100,93.506C100,97.09 97.164,100 93.671,100L6.329,100C2.836,100 0,97.09 0,93.506L0,6.494C0,2.91 2.836,0 6.329,0L93.671,0C97.164,0 100,2.91 100,6.494Z" style="fill:rgba(235,235,235,1);" /></g><g transform="matrix(1,0,0,1,20,55)"><text style="font-family:&quot;ArialMT&quot;, &quot;Arial&quot;, sans-serif;font-size:8px;" dy="0" dominant-baseline="middle" text-anchor="middle"><tspan x="19" dy=".6em">TSX</tspan><tspan x="19" dy="1.6em" style="font-family:&quot;ArialMT&quot;, &quot;Arial&quot;, sans-serif;font-size:6px;fill:rgb(155,155,155)">tsx.svg</tspan></text></g><svg width="32" height="28.4" viewBox="0 0 18 16" version="1.1" xml:space="preserve" style="fill-rule:evenodd;clip-rule:evenodd;stroke-linejoin:round;stroke-miterlimit:2;" viewbox="0 0 32 28.4" x="23" y="17"><g id="tsx" transform="matrix(0.125224,0,0,0.125224,0.985689,-0.0143113)"><circle cx="64" cy="64" r="11.4" style="fill:rgb(49,120,198);" /><path d="M107.3,45.2C105.1,44.4 102.8,43.6 100.4,42.9C101,40.5 101.5,38.1 101.9,35.8C104,22.6 101.7,13.3 95.3,9.7C93.4,8.6 91.3,8.1 88.9,8.1C81.9,8.1 73,13.3 64,22C55,13.3 46.1,8.1 39.1,8.1C36.7,8.1 34.6,8.6 32.7,9.7C26.3,13.4 24,22.7 26.1,35.8C26.5,38.1 27,40.5 27.6,42.9C25.2,43.6 22.9,44.3 20.7,45.2C8.2,50 1.4,56.6 1.4,64C1.4,71.4 8.3,78 20.7,82.8C22.9,83.6 25.2,84.4 27.6,85.1C27,87.5 26.5,89.9 26.1,92.2C24,105.4 26.3,114.7 32.7,118.3C34.6,119.4 36.7,119.9 39.1,119.9C46.2,119.9 55.1,114.7 64,106C73,114.7 81.9,119.9 88.9,119.9C91.3,119.9 93.4,119.4 95.3,118.3C101.7,114.6 104,105.3 101.9,92.2C101.5,89.9 101,87.5 100.4,85.1C102.8,84.4 105.1,83.7 107.3,82.8C119.8,78 126.6,71.4 126.6,64C126.6,56.6 119.8,50 107.3,45.2ZM92.5,14.7C96.6,17.1 98,24.5 96.3,35C96,37.1 95.5,39.3 94.9,41.6C89.7,40.4 84.2,39.6 78.4,39.1C75,34.3 71.5,30 68,26.1C75.4,18.8 82.9,13.8 89,13.8C90.3,13.8 91.5,14.1 92.5,14.7ZM81.3,74C79.5,77.2 77.4,80.4 75.2,83.6C71.5,83.9 67.8,84 64,84C60.1,84 56.4,83.9 52.8,83.6C50.6,80.4 48.6,77.2 46.8,74C44.9,70.7 43.1,67.3 41.5,64C43.1,60.7 44.9,57.3 46.8,54C48.6,50.8 50.7,47.6 52.9,44.4C56.6,44.1 60.3,44 64.1,44C68,44 71.7,44.1 75.3,44.4C77.5,47.6 79.5,50.8 81.3,54C83.2,57.3 85,60.7 86.6,64C84.9,67.3 83.2,70.6 81.3,74ZM89.6,70.7C91.1,74.2 92.3,77.6 93.4,81C90,81.8 86.4,82.4 82.6,82.9C83.8,81 85.1,79 86.2,76.9C87.4,74.8 88.5,72.7 89.6,70.7ZM64,97.8C61.6,95.2 59.3,92.4 57.1,89.5C59.4,89.6 61.7,89.7 64,89.7C66.3,89.7 68.6,89.6 70.9,89.5C68.7,92.4 66.4,95.2 64,97.8ZM45.4,82.8C41.6,82.3 38,81.7 34.6,80.9C35.7,77.6 36.9,74.1 38.4,70.6C39.5,72.6 40.6,74.7 41.8,76.7C43,78.9 44.2,80.8 45.4,82.8ZM38.4,57.3C36.9,53.8 35.7,50.4 34.6,47C38,46.2 41.6,45.6 45.4,45.1C44.2,47 42.9,49 41.8,51.1C40.6,53.2 39.5,55.3 38.4,57.3ZM64,30.2C66.4,32.8 68.7,35.6 70.9,38.5C68.6,38.4 66.3,38.3 64,38.3C61.7,38.3 59.4,38.4 57.1,38.5C59.3,35.6 61.6,32.8 64,30.2ZM86.2,51.2L82.6,45.2C86.4,45.7 90,46.3 93.4,47.1C92.3,50.4 91.1,53.9 89.6,57.4C88.5,55.3 87.4,53.2 86.2,51.2ZM31.7,35C30,24.5 31.4,17.1 35.5,14.7C36.5,14.1 37.7,13.8 39,13.8C45,13.8 52.5,18.7 60,26.1C56.5,29.9 53,34.3 49.6,39.1C43.8,39.6 38.3,40.5 33.1,41.6C32.5,39.3 32.1,37.1 31.7,35ZM7,64C7,59.3 12.7,54.3 22.7,50.6C24.7,49.8 26.9,49.1 29.1,48.5C30.7,53.5 32.7,58.8 35.1,64.1C32.7,69.4 30.6,74.6 29.1,79.6C15.3,75.6 7,69.6 7,64ZM35.5,113.3C31.4,110.9 30,103.5 31.7,93C32,90.9 32.5,88.7 33.1,86.4C38.3,87.6 43.8,88.4 49.6,88.9C53,93.7 56.5,98 60,101.9C52.6,109.2 45.1,114.2 39,114.2C37.7,114.2 36.5,113.9 35.5,113.3ZM96.3,93C98,103.5 96.6,110.9 92.5,113.3C91.5,113.9 90.3,114.2 89,114.2C83,114.2 75.5,109.3 68,101.9C71.5,98.1 75,93.7 78.4,88.9C84.2,88.4 89.7,87.5 94.9,86.4C95.5,88.7 95.9,90.9 96.3,93ZM105.3,77.4C103.3,78.2 101.1,78.9 98.9,79.5C97.3,74.5 95.3,69.2 92.9,63.9C95.3,58.6 97.4,53.4 98.9,48.4C112.7,52.4 121,58.4 121,64C121,68.7 115.2,73.7 105.3,77.4Z" style="fill:rgb(49,120,198);fill-rule:nonzero;" /></g></svg></svg><svg width="79" height="77" viewbox="0 0 79 77" x="103" y="8"><g transform="matrix(0.79,0,0,0.77,0,0)"><path d="M100,6.494L100,93.506C100,97.09 97.164,100 93.671,100L6.329,100C2.836,100 0,97.09 0,93.506L0,6.494C0,2.91 2.836,0 6.329,0L93.671,0C97.164,0 100,2.91 100,6.494Z" style="fill:rgba(235,235,235,1);" /></g><g transform="matrix(1,0,0,1,20,55)"><text style="font-family:&quot;ArialMT&quot;, &quot;Arial&quot;, sans-serif;font-size:8px;" dy="0" dominant-baseline="middle" text-anchor="middle"><tspan x="19" dy=".6em">Turbo</tspan><tspan x="19" dy="1.6em" style="font-family:&quot;ArialMT&quot;, &quot;Arial&quot;, sans-serif;font-size:6px;fill:rgb(155,155,155)">turbo.svg</tspan></text></g><svg width="32" height="28.4" viewBox="0 0 18 16" version="1.1" xml:space="preserve" style="fill-rule:evenodd;clip-rule:evenodd;stroke-linejoin:round;stroke-miterlimit:2;" viewbox="0 0 32 28.4" x="23" y="17"><g id="turbo" transform="matrix(0.144231,0,0,0.144231,9,8)"><g transform="matrix(1,0,0,1,-52,-52)"><g transform="matrix(2.32719,0,0,2.32719,-68.793,-68.7539)"><path d="M51.888,37.926C44.189,37.926 37.926,44.19 37.926,51.888C37.926,59.587 44.189,65.85 51.888,65.85C59.586,65.85 65.85,59.587 65.85,51.888C65.85,44.19 59.586,37.926 51.888,37.926ZM51.888,59.114C47.897,59.114 44.662,55.879 44.662,51.888C44.662,47.897 47.897,44.663 51.888,44.663C55.879,44.663 59.113,47.897 59.113,51.888C59.113,55.879 55.879,59.114 51.888,59.114Z" style="fill:white;fill-rule:nonzero;" /><path d="M53.058,35.633L53.058,30.42C64.389,31.026 73.39,40.407 73.39,51.888C73.39,63.37 64.389,72.748 53.058,73.356L53.058,68.143C61.503,67.54 68.19,60.484 68.19,51.888C68.19,43.293 61.503,36.236 53.058,35.633ZM39.575,62.548C37.336,59.964 35.893,56.672 35.636,53.058L30.42,53.058C30.69,58.115 32.713,62.704 35.883,66.238L39.572,62.548L39.575,62.548ZM50.718,73.356L50.718,68.143C47.102,67.886 43.81,66.446 41.226,64.204L37.536,67.894C41.072,71.066 45.661,73.086 50.716,73.356L50.718,73.356Z" style="fill:url(#_Linear-4ptrqxv);" /></g></g></g><defs><linearGradient id="_Linear-4ptrqxv" x1="0" y1="0" x2="1" y2="0" gradientUnits="userSpaceOnUse" gradientTransform="matrix(-21.1328,21.1328,-21.1328,-21.1328,53.9007,33.4389)"><stop offset="0" style="stop-color:rgb(0,150,255);stop-opacity:1" /><stop offset="1" style="stop-color:rgb(255,30,86);stop-opacity:1" /></linearGradient></defs></svg></svg><svg width="79" height="77" viewbox="0 0 79 77" x="194" y="8"><g transform="matrix(0.79,0,0,0.77,0,0)"><path d="M100,6.494L100,93.506C100,97.09 97.164,100 93.671,100L6.329,100C2.836,100 0,97.09 0,93.506L0,6.494C0,2.91 2.836,0 6.329,0L93.671,0C97.164,0 100,2.91 100,6.494Z" style="fill:rgba(235,235,235,1);" /></g><g transform="matrix(1,0,0,1,20,55)"><text style="font-family:&quot;ArialMT&quot;, &quot;Arial&quot;, sans-serif;font-size:8px;" dy="0" dominant-baseline="middle" text-anchor="middle"><tspan x="19" dy=".6em">Twig</tspan><tspan x="19" dy="1.6em" style="font-family:&quot;ArialMT&quot;, &quot;Arial&quot;, sans-serif;font-size:6px;fill:rgb(155,155,155)">twig.svg</tspan></text></g><svg width="32" height="28.4" viewBox="0 0 18 16" version="1.1" xml:space="preserve" style="fill-rule:evenodd;clip-rule:evenodd;stroke-linejoin:round;stroke-miterlimit:2;" viewbox="0 0 32 28.4" x="23" y="17"><g id="twig" transform="matrix(1.06578,0,0,1.06578,0.810348,-0.824312)"><g transform="matrix(6.25493,0,0,0.986818,-36.4738,2.14036)"><g style="filter:url(#_Effect-avjuxtu);"><ellipse cx="6.971" cy="12.448" rx="0.183" ry="0.193" style="fill:rgb(46,69,17);" /></g></g><path d="M7.687,11.284C7.684,11.196 7.683,11.124 7.683,11.072C7.679,10.471 7.488,8.386 7.345,7.491C7.203,6.597 6.938,5.545 6.762,5.008C6.586,4.471 6.246,3.648 5.791,3.027C5.335,2.407 4.705,1.686 4.058,1.712C3.801,1.723 3.507,1.869 3.323,2.016C3.043,2.238 2.941,2.499 2.941,2.499C2.941,2.499 3.451,1.835 3.882,1.856C4.314,1.877 4.488,2.047 4.871,2.601C5.254,3.155 5.676,4.387 5.861,4.968C6.045,5.55 6.236,6.17 6.383,7.009C6.53,7.846 6.752,9.482 6.754,10.017C6.754,10.264 6.76,10.602 6.767,11.024C7.056,12.075 7.074,12.528 7.185,13.123C7.2,13.203 7.215,13.281 7.231,13.357C7.243,13.162 7.265,12.897 7.303,12.647C7.355,12.295 7.447,11.975 7.476,11.878C7.535,11.682 7.603,11.485 7.687,11.284Z" style="fill:url(#_Linear-785vea8);" /><path d="M4.048,1.713C3.793,1.727 3.505,1.871 3.323,2.016C3.043,2.238 2.941,2.499 2.941,2.499C2.941,2.499 3.451,1.835 3.882,1.856C4.314,1.877 4.488,2.047 4.871,2.601C5.254,3.155 5.676,4.387 5.861,4.968C6.045,5.55 6.236,6.17 6.383,7.009C6.53,7.846 6.752,9.482 6.754,10.017C6.754,10.264 6.76,10.602 6.767,11.024C7.056,12.075 7.074,12.528 7.185,13.123C7.227,13.348 7.271,13.558 7.312,13.742L7.288,11.124C7.288,11.124 7.248,9.799 7.21,9.098C7.172,8.398 7.03,7.596 6.838,6.688C6.662,5.858 6.285,4.684 6.105,4.205C6.063,4.095 5.961,3.865 5.884,3.721C5.502,3.008 5.239,2.574 4.882,2.188C4.617,1.901 4.356,1.756 4.048,1.713Z" style="fill:url(#_Linear-nmcogif);" /><path d="M4.048,1.713C3.958,1.718 3.864,1.739 3.772,1.771C4.28,1.762 4.498,1.974 4.697,2.177C4.939,2.423 5.173,2.796 5.404,3.211C5.634,3.626 6.045,4.824 6.169,5.189C6.292,5.554 6.6,6.666 6.695,7.185C6.791,7.705 6.952,8.609 6.986,9.266C7.019,9.923 6.997,12.958 6.997,12.958L7.07,13.923L7.314,13.913L7.288,11.124C7.288,11.124 7.248,9.799 7.21,9.098C7.172,8.398 7.03,7.596 6.838,6.688C6.662,5.858 6.285,4.684 6.105,4.205C6.063,4.095 5.961,3.865 5.884,3.721C5.502,3.008 5.239,2.574 4.882,2.188C4.617,1.901 4.356,1.756 4.048,1.713Z" style="fill:url(#_Linear-sewkrd4);" /><path d="M5.059,7.864C5.3,8.015 5.993,8.558 6.469,10.031C7.053,11.842 7.044,12.368 7.185,13.123C7.326,13.878 7.489,14.469 7.489,14.469L6.642,14.469L6.639,13.31C6.638,12.947 6.541,11.651 6.436,11.068C6.331,10.484 6.249,10.031 6.085,9.526C5.921,9.021 5.824,8.775 5.607,8.45C5.48,8.261 5.239,8.027 5.059,7.864Z" style="fill:url(#_Linear-isxsc9t);" /><path d="M6.642,14.469L6.232,14.469C6.232,14.469 6.424,12.585 6.287,11.526C6.24,11.163 6.191,10.751 6.065,10.164C6.046,10.076 5.927,9.635 5.876,9.479C5.79,9.217 5.696,8.927 5.601,8.742C5.311,8.179 4.972,7.815 4.972,7.815C4.972,7.815 5.004,7.83 5.059,7.864C5.239,8.027 5.48,8.261 5.607,8.45C5.824,8.775 5.921,9.021 6.085,9.526C6.249,10.031 6.331,10.484 6.436,11.068C6.541,11.651 6.638,12.947 6.639,13.31L6.642,14.469Z" style="fill:url(#_Linear-z0fot5r);" /><path d="M7.349,14.542L7.901,14.429L7.89,12.998C7.884,12.298 8.052,11.504 8.313,10.961C8.573,10.417 9.003,9.944 9.392,9.758C9.781,9.571 10.002,9.569 10.002,9.569C10.002,9.569 9.876,9.549 9.698,9.548C9.613,9.553 9.52,9.563 9.427,9.583C9.283,9.615 9.016,9.695 8.752,9.902C8.461,10.131 8.228,10.414 8.09,10.635C7.848,11.027 7.737,11.431 7.627,11.82C7.56,12.056 7.53,12.178 7.487,12.403C7.459,12.55 7.419,12.855 7.41,13.068L7.349,14.542Z" style="fill:url(#_Linear-dzoxpco);" /><path d="M9.698,9.548C9.534,9.548 9.326,9.563 9.129,9.623C8.717,9.749 8.257,10.185 8.009,10.626C7.76,11.066 7.597,11.474 7.476,11.878C7.447,11.975 7.355,12.295 7.303,12.647C7.241,13.062 7.22,13.516 7.219,13.63C7.216,14.087 7.147,14.583 7.147,14.583L7.349,14.542L7.41,13.068C7.419,12.855 7.459,12.55 7.487,12.403C7.53,12.178 7.56,12.056 7.627,11.82C7.737,11.431 7.848,11.027 8.09,10.635C8.228,10.414 8.461,10.131 8.752,9.902C9.016,9.695 9.283,9.615 9.427,9.583C9.52,9.563 9.613,9.553 9.698,9.548Z" style="fill:url(#_Linear-xt7wqyo);" /><path d="M5.537,14.445L5.405,14.182L5.678,14.412L5.68,14.462L5.537,14.445Z" style="fill:rgb(167,212,43);" /><path d="M6.053,14.62L5.782,13.83L6.219,14.563L6.225,14.625L6.053,14.62Z" style="fill:rgb(164,208,42);" /><path d="M7.736,14.668L8.048,13.637L8.047,14.607L7.736,14.668Z" style="fill:rgb(160,203,41);" /><path d="M8.348,14.426L8.715,14.06L8.502,14.421L8.348,14.426Z" style="fill:rgb(167,212,43);" /><g transform="matrix(1.2804,0,0,1.12275,-1.95806,-1.48696)"><g style="filter:url(#_Effect-jelxeto);"><ellipse cx="6.971" cy="12.448" rx="0.183" ry="0.193" style="fill:rgb(46,69,17);" /></g></g><g transform="matrix(1.04767,0,0,0.989808,-0.336568,0.164857)"><ellipse cx="6.971" cy="12.448" rx="0.183" ry="0.193" style="fill:white;" /></g><g transform="matrix(1.32977,0,0,1.12275,-1.81037,-1.51221)"><g style="filter:url(#_Effect-1n9rnbj);"><ellipse cx="6.971" cy="12.448" rx="0.183" ry="0.193" style="fill:rgb(46,69,17);" /></g></g><g transform="matrix(1.04767,0,0,0.989808,0.149753,0.14178)"><ellipse cx="6.971" cy="12.448" rx="0.183" ry="0.193" style="fill:white;" /></g><g><g transform="matrix(5.12033,0,0,1.02841,-24.7837,1.84771)"><g style="filter:url(#_Effect-uib6xn8);"><ellipse cx="6.971" cy="12.448" rx="0.183" ry="0.193" style="fill:rgb(46,69,17);" /></g></g><path d="M11.258,12.306C11.267,11.942 11.275,11.598 11.28,11.319C11.302,9.973 11.408,6.755 11.422,6.33C11.333,7.15 11.146,8.924 11.082,9.918C11.021,10.843 10.981,12.48 10.961,13.485C11.008,13.188 11.08,12.856 11.189,12.509C11.211,12.439 11.234,12.372 11.258,12.306Z" style="fill:url(#_Linear-c0uhtn7);" /><path d="M10.96,13.516C10.98,12.514 11.021,10.852 11.082,9.918C11.146,8.924 11.333,7.15 11.422,6.33L11.424,6.284C11.424,6.284 11.374,6.533 11.299,6.932C11.174,7.818 10.991,9.144 10.895,9.975C10.729,11.415 10.682,12.383 10.682,12.383C10.682,12.383 10.775,12.629 10.802,12.742C10.836,12.882 10.905,13.232 10.96,13.516Z" style="fill:url(#_Linear-ucrxxo2);" /><path d="M11.299,6.932C11.144,7.753 10.883,9.205 10.733,10.414C10.662,10.985 10.581,11.81 10.509,12.602C10.535,12.633 10.56,12.667 10.583,12.704C10.715,12.909 10.852,13.144 10.899,13.49C10.93,13.723 10.937,14.046 10.935,14.254C10.934,14.286 10.934,14.316 10.933,14.346L10.945,14.351C10.945,14.351 10.95,14.016 10.96,13.516C10.905,13.232 10.836,12.882 10.802,12.742C10.775,12.629 10.682,12.383 10.682,12.383C10.682,12.383 10.729,11.415 10.895,9.975C10.991,9.144 11.174,7.818 11.299,6.932Z" style="fill:url(#_Linear-0hl7lua);" /><path d="M10.998,14.711L11.002,14.71L11.415,14.651C11.415,14.651 11.367,13.472 11.567,12.571C11.901,11.069 12.427,10.708 12.427,10.708C12.427,10.708 12.391,10.73 12.328,10.776C12.015,11.117 11.584,11.697 11.298,12.531C11.046,13.265 11.005,14.321 10.998,14.711Z" style="fill:url(#_Linear-ormbrxb);" /><path d="M12.328,10.776C12.097,10.947 11.518,11.461 11.189,12.509C10.813,13.705 10.879,14.728 10.879,14.728L10.998,14.711C11.005,14.321 11.046,13.265 11.298,12.531C11.584,11.697 12.015,11.117 12.328,10.776Z" style="fill:url(#_Linear-ykcy6ff);" /><path d="M9.443,12.233C9.376,12.224 9.334,12.226 9.334,12.226C9.334,12.226 10.166,12.055 10.583,12.704C10.715,12.909 10.852,13.144 10.899,13.49C10.93,13.723 10.937,14.046 10.935,14.254C10.931,14.599 10.915,14.83 10.915,14.83L10.516,14.751C10.555,14.488 10.602,13.961 10.513,13.263C10.398,12.361 9.834,12.219 9.443,12.233Z" style="fill:url(#_Linear-x4twxqb);" /><path d="M10.516,14.751L10.299,14.698C10.299,14.698 10.437,13.807 10.292,13.156C10.127,12.415 9.658,12.263 9.443,12.233C9.834,12.219 10.398,12.361 10.513,13.263C10.602,13.961 10.555,14.488 10.516,14.751Z" style="fill:url(#_Linear-ar96mi3);" /><path d="M9.403,14.54L9.307,14.188L9.552,14.54L9.403,14.54Z" style="fill:rgb(162,205,41);" /><path d="M9.837,14.752L9.68,13.947L10.007,14.752L9.837,14.752Z" style="fill:rgb(164,209,43);" /><path d="M11.3,14.841L11.676,13.781L11.565,14.83L11.3,14.841Z" style="fill:rgb(160,202,40);" /><path d="M11.862,14.637L12.207,14.267L11.996,14.635L11.862,14.637Z" style="fill:rgb(167,212,44);fill-opacity:0.96;" /><g transform="matrix(1.32526,0,0,1.2834,-3.47289,-3.74322)"><g style="filter:url(#_Effect-j1b5g7h);"><ellipse cx="10.713" cy="13.317" rx="0.151" ry="0.156" style="fill:rgb(74,137,37);" /></g></g><g transform="matrix(1.09594,0,0,1.11962,-1.02839,-1.57427)"><ellipse cx="10.713" cy="13.317" rx="0.151" ry="0.156" style="fill:white;" /></g><g transform="matrix(1.3257,0,0,1.28383,-3.06987,-3.74949)"><g style="filter:url(#_Effect-30oxlhj);"><ellipse cx="10.713" cy="13.317" rx="0.151" ry="0.156" style="fill:rgb(74,137,37);" /></g></g><g transform="matrix(1.09594,0,0,1.11962,-0.610024,-1.56423)"><ellipse cx="10.713" cy="13.317" rx="0.151" ry="0.156" style="fill:white;" /></g></g></g><defs><filter id="_Effect-avjuxtu" filterUnits="userSpaceOnUse" x="6.66575" y="11.4785" width="0.610955" height="1.9384"><feGaussianBlur in="SourceGraphic" stdDeviation="0.0285067" /></filter><linearGradient id="_Linear-785vea8" x1="0" y1="0" x2="1" y2="0" gradientUnits="userSpaceOnUse" gradientTransform="matrix(-1.94822,-9.0834,9.0834,-1.94822,7.53945,11.1693)"><stop offset="0" style="stop-color:rgb(94,144,42);stop-opacity:1" /><stop offset="0.57" style="stop-color:rgb(144,181,67);stop-opacity:1" /><stop offset="0.79" style="stop-color:rgb(150,185,69);stop-opacity:1" /><stop offset="1" style="stop-color:rgb(169,198,74);stop-opacity:1" /></linearGradient><linearGradient id="_Linear-nmcogif" x1="0" y1="0" x2="1" y2="0" gradientUnits="userSpaceOnUse" gradientTransform="matrix(-2.7002,-8.38816,8.38816,-2.7002,6.76061,10.3998)"><stop offset="0" style="stop-color:rgb(74,117,11);stop-opacity:1" /><stop offset="0.47" style="stop-color:rgb(119,144,22);stop-opacity:1" /><stop offset="1" style="stop-color:rgb(137,147,27);stop-opacity:1" /></linearGradient><linearGradient id="_Linear-sewkrd4" x1="0" y1="0" x2="1" y2="0" gradientUnits="userSpaceOnUse" gradientTransform="matrix(-1.92297,-9.40961,9.40961,-1.92297,7.12644,11.3721)"><stop offset="0" style="stop-color:rgb(84,133,14);stop-opacity:1" /><stop offset="0.53" style="stop-color:rgb(138,169,28);stop-opacity:1" /><stop offset="1" style="stop-color:rgb(160,185,33);stop-opacity:1" /></linearGradient><linearGradient id="_Linear-isxsc9t" x1="0" y1="0" x2="1" y2="0" gradientUnits="userSpaceOnUse" gradientTransform="matrix(-0.378217,-6.14748,6.14748,-0.378217,6.99244,14.369)"><stop offset="0" style="stop-color:rgb(144,184,23);stop-opacity:1" /><stop offset="0.47" style="stop-color:rgb(178,199,37);stop-opacity:1" /><stop offset="1" style="stop-color:rgb(188,203,41);stop-opacity:1" /></linearGradient><linearGradient id="_Linear-z0fot5r" x1="0" y1="0" x2="1" y2="0" gradientUnits="userSpaceOnUse" gradientTransform="matrix(-0.739727,-5.77354,5.77354,-0.739727,6.3986,14.226)"><stop offset="0" style="stop-color:rgb(127,156,22);stop-opacity:0.98" /><stop offset="0.43" style="stop-color:rgb(175,193,39);stop-opacity:0.98" /><stop offset="0.55" style="stop-color:rgb(177,194,39);stop-opacity:0.98" /><stop offset="0.71" style="stop-color:rgb(182,195,39);stop-opacity:0.98" /><stop offset="1" style="stop-color:rgb(173,185,36);stop-opacity:0.98" /></linearGradient><linearGradient id="_Linear-dzoxpco" x1="0" y1="0" x2="1" y2="0" gradientUnits="userSpaceOnUse" gradientTransform="matrix(0.854459,-4.46032,4.46032,0.854459,7.62279,14.4146)"><stop offset="0" style="stop-color:rgb(122,171,25);stop-opacity:1" /><stop offset="0.48" style="stop-color:rgb(135,182,31);stop-opacity:1" /><stop offset="1" style="stop-color:rgb(170,214,48);stop-opacity:1" /></linearGradient><linearGradient id="_Linear-xt7wqyo" x1="0" y1="0" x2="1" y2="0" gradientUnits="userSpaceOnUse" gradientTransform="matrix(1.22046,-4.92747,4.92747,1.22046,7.20935,14.4016)"><stop offset="0" style="stop-color:rgb(101,148,21);stop-opacity:1" /><stop offset="0.55" style="stop-color:rgb(136,180,36);stop-opacity:1" /><stop offset="1" style="stop-color:rgb(155,195,41);stop-opacity:1" /></linearGradient><filter id="_Effect-jelxeto" filterUnits="userSpaceOnUse" x="6.19005" y="11.5725" width="1.56234" height="1.75047"><feGaussianBlur in="SourceGraphic" stdDeviation="0.106001" /></filter><filter id="_Effect-1n9rnbj" filterUnits="userSpaceOnUse" x="6.21226" y="11.5725" width="1.51793" height="1.75047"><feGaussianBlur in="SourceGraphic" stdDeviation="0.103721" /></filter><filter id="_Effect-uib6xn8" filterUnits="userSpaceOnUse" x="6.63861" y="11.5099" width="0.665217" height="1.87562"><feGaussianBlur in="SourceGraphic" stdDeviation="0.0345638" /></filter><linearGradient id="_Linear-c0uhtn7" x1="0" y1="0" x2="1" y2="0" gradientUnits="userSpaceOnUse" gradientTransform="matrix(0.355103,-5.82752,5.82752,0.355103,11.1097,12.7658)"><stop offset="0" style="stop-color:rgb(86,157,52);stop-opacity:1" /><stop offset="0.12" style="stop-color:rgb(99,166,54);stop-opacity:1" /><stop offset="0.27" style="stop-color:rgb(129,187,58);stop-opacity:1" /><stop offset="0.41" style="stop-color:rgb(135,186,39);stop-opacity:1" /><stop offset="1" style="stop-color:rgb(174,212,49);stop-opacity:1" /></linearGradient><linearGradient id="_Linear-ucrxxo2" x1="0" y1="0" x2="1" y2="0" gradientUnits="userSpaceOnUse" gradientTransform="matrix(0.337067,-4.67881,4.67881,0.337067,10.8558,12.2015)"><stop offset="0" style="stop-color:rgb(74,122,11);stop-opacity:1" /><stop offset="0.29" style="stop-color:rgb(125,172,25);stop-opacity:1" /><stop offset="1" style="stop-color:rgb(175,209,38);stop-opacity:1" /></linearGradient><linearGradient id="_Linear-0hl7lua" x1="0" y1="0" x2="1" y2="0" gradientUnits="userSpaceOnUse" gradientTransform="matrix(0.382735,-4.55444,4.55444,0.382735,10.613,12.5544)"><stop offset="0" style="stop-color:rgb(60,105,8);stop-opacity:1" /><stop offset="0.32" style="stop-color:rgb(100,145,15);stop-opacity:1" /><stop offset="1" style="stop-color:rgb(157,194,29);stop-opacity:1" /></linearGradient><linearGradient id="_Linear-ormbrxb" x1="0" y1="0" x2="1" y2="0" gradientUnits="userSpaceOnUse" gradientTransform="matrix(0.822314,-3.27397,3.27397,0.822314,11.2069,14.4714)"><stop offset="0" style="stop-color:rgb(130,175,20);stop-opacity:1" /><stop offset="0.55" style="stop-color:rgb(160,195,40);stop-opacity:1" /><stop offset="1" style="stop-color:rgb(171,202,47);stop-opacity:1" /></linearGradient><linearGradient id="_Linear-ykcy6ff" x1="0" y1="0" x2="1" y2="0" gradientUnits="userSpaceOnUse" gradientTransform="matrix(0.862026,-3.23975,3.23975,0.862026,10.9596,14.3327)"><stop offset="0" style="stop-color:rgb(123,164,19);stop-opacity:1" /><stop offset="0.47" style="stop-color:rgb(153,185,36);stop-opacity:1" /><stop offset="1" style="stop-color:rgb(167,198,45);stop-opacity:1" /></linearGradient><linearGradient id="_Linear-x4twxqb" x1="0" y1="0" x2="1" y2="0" gradientUnits="userSpaceOnUse" gradientTransform="matrix(-0.697001,-2.21471,2.21471,-0.697001,10.7284,14.6054)"><stop offset="0" style="stop-color:rgb(135,176,29);stop-opacity:1" /><stop offset="0.36" style="stop-color:rgb(167,195,39);stop-opacity:1" /><stop offset="1" style="stop-color:rgb(180,203,41);stop-opacity:1" /></linearGradient><linearGradient id="_Linear-ar96mi3" x1="0" y1="0" x2="1" y2="0" gradientUnits="userSpaceOnUse" gradientTransform="matrix(-0.534898,-2.19406,2.19406,-0.534898,10.4451,14.6059)"><stop offset="0" style="stop-color:rgb(114,147,23);stop-opacity:1" /><stop offset="0.43" style="stop-color:rgb(163,190,36);stop-opacity:1" /><stop offset="1" style="stop-color:rgb(177,198,40);stop-opacity:1" /></linearGradient><filter id="_Effect-j1b5g7h" filterUnits="userSpaceOnUse" x="10.3711" y="12.9641" width="0.683008" height="0.705286"><feGaussianBlur in="SourceGraphic" stdDeviation="0.0322476" /></filter><filter id="_Effect-30oxlhj" filterUnits="userSpaceOnUse" x="10.3712" y="12.9642" width="0.68288" height="0.705154"><feGaussianBlur in="SourceGraphic" stdDeviation="0.0322368" /></filter></defs></svg></svg><svg width="79" height="77" viewbox="0 0 79 77" x="285" y="8"><g transform="matrix(0.79,0,0,0.77,0,0)"><path d="M100,6.494L100,93.506C100,97.09 97.164,100 93.671,100L6.329,100C2.836,100 0,97.09 0,93.506L0,6.494C0,2.91 2.836,0 6.329,0L93.671,0C97.164,0 100,2.91 100,6.494Z" style="fill:rgba(235,235,235,1);" /></g><g transform="matrix(1,0,0,1,20,55)"><text style="font-family:&quot;ArialMT&quot;, &quot;Arial&quot;, sans-serif;font-size:8px;" dy="0" dominant-baseline="middle" text-anchor="middle"><tspan x="19" dy=".6em">TypeScript</tspan><tspan x="19" dy="1.6em" style="font-family:&quot;ArialMT&quot;, &quot;Arial&quot;, sans-serif;font-size:6px;fill:rgb(155,155,155)">ts.svg</tspan></text></g><svg width="32" height="28.4" viewBox="0 0 18 16" version="1.1" xml:space="preserve" style="fill-rule:evenodd;clip-rule:evenodd;stroke-linejoin:round;stroke-miterlimit:2;" viewbox="0 0 32 28.4" x="23" y="17"><g transform="matrix(0.0292969,0,0,0.0292969,9,8)"><g id="typescript" transform="matrix(1,0,0,1,-256,-256)"><path d="M512,50C512,22.404 489.596,0 462,0L50,0C22.404,0 0,22.404 0,50L0,462C0,489.596 22.404,512 50,512L462,512C489.596,512 512,489.596 512,462L512,50Z" style="fill:rgb(49,120,198);" /><path d="M317,407L317,457C325.1,461.2 335,464.3 346,466.4C357,468.5 369,469.5 381,469.5C393,469.5 404,468.4 415,466.1C426,463.8 435,460 443,455.1C451.1,449.8 458,443.1 462,434.1C466,425.1 469.1,415.1 469.1,402.1C469.1,393 467.7,385.1 465,378.1C462.3,371.1 458.4,365.1 453,360.1C447.9,354.8 442,350.1 435,346.1C428,342.1 420,337.9 411,334.1C404.4,331.4 399,328.8 393,326.2C387.8,323.6 383.3,321 380,318.4C376.3,315.7 373.5,312.9 371.5,310C369.5,307 368.5,303.7 368.5,300C368.5,296.6 369.39,293.5 371.2,290.7C373.01,287.9 375.5,285.6 378.7,283.6C381.9,281.6 385.9,280.1 390.7,279C395.4,277.9 400.6,277.4 406.7,277.4C410.9,277.4 415.3,277.71 419.7,278.34C424.3,278.97 429,279.94 433.7,281.24C438.4,282.54 443,284.14 447.7,286.14C452.1,288.14 456.2,290.44 459.7,293.04L459.7,246.04C452.1,243.14 443.7,240.94 434.7,239.54C425.7,238.14 415.7,237.44 403.7,237.44C391.7,237.44 380.7,238.74 369.7,241.24C358.7,243.74 349.7,247.74 341.7,253.24C333.6,258.64 327.7,265.24 322.7,274.24C318,282.64 315.7,292.24 315.7,304.24C315.7,319.24 320,332.24 328.7,342.24C337.3,353.24 350.7,361.24 367.7,369.24C374.6,372.04 380.7,374.84 386.7,377.54C392.7,380.24 397.7,383.04 401.7,385.94C406,388.84 409.4,392.04 411.7,395.44C414.2,398.84 415.5,402.84 415.5,407.44C415.5,410.64 414.72,413.64 413.2,416.44C411.68,419.24 409.3,421.64 406.1,423.64C402.9,425.64 399,427.24 394.1,428.44C389.4,429.54 384.1,430.14 377.1,430.14C366.1,430.14 355.1,428.24 345.1,424.44C334.1,420.64 324.1,414.94 315.1,407.44L317,407ZM233,284L297,284L297,243L118,243L118,284L182,284L182,467L233,467L233,284Z" style="fill:white;" /></g><g id="typescript1" /></g></svg></svg><svg width="79" height="77" viewbox="0 0 79 77" x="376" y="8"><g transform="matrix(0.79,0,0,0.77,0,0)"><path d="M100,6.494L100,93.506C100,97.09 97.164,100 93.671,100L6.329,100C2.836,100 0,97.09 0,93.506L0,6.494C0,2.91 2.836,0 6.329,0L93.671,0C97.164,0 100,2.91 100,6.494Z" style="fill:rgba(235,235,235,1);" /></g><g transform="matrix(1,0,0,1,20,55)"><text style="font-family:&quot;ArialMT&quot;, &quot;Arial&quot;, sans-serif;font-size:8px;" dy="0" dominant-baseline="middle" text-anchor="middle"><tspan x="19" dy=".6em">Typst</tspan><tspan x="19" dy="1.6em" style="font-family:&quot;ArialMT&quot;, &quot;Arial&quot;, sans-serif;font-size:6px;fill:rgb(155,155,155)">typst.svg</tspan></text></g><svg width="32" height="28.4" viewBox="0 0 18 16" version="1.1" xml:space="preserve" style="fill-rule:evenodd;clip-rule:evenodd;stroke-linejoin:round;stroke-miterlimit:2;" viewbox="0 0 32 28.4" x="23" y="17"><g id="typst" transform="matrix(1.10714,0,0,1.10714,-0.964286,-0.859654)"><g transform="matrix(1.15171,0,0,1.41385,-0.266325,-0.470478)"><path d="M14.124,3.02L14.124,8.965C14.124,10.058 13.034,10.945 11.692,10.945L4.399,10.945C3.057,10.945 1.968,10.058 1.968,8.965L1.968,3.02C1.968,1.927 3.057,1.04 4.399,1.04L11.692,1.04C13.034,1.04 14.124,1.927 14.124,3.02Z" style="fill:url(#_Linear-js3hakb);" /></g><g transform="matrix(0.327787,0,0,0.327787,-18.4028,3.9138)"><path d="M84.442,18.148C84.442,19.281 84.604,20.04 84.929,20.428C85.254,20.815 85.845,21.009 86.702,21.009C87.588,21.009 88.725,20.562 90.114,19.668L91,21.143C88.4,23.318 86.258,24.406 84.575,24.406C82.891,24.406 81.561,24.004 80.586,23.199C79.611,22.365 79.124,20.905 79.124,18.819L79.124,7.107L76.908,7.107L76.554,5.453L79.124,4.649L79.124,2.458L84.442,0L84.442,4.917L89.671,4.515L89.183,7.42L84.442,7.241L84.442,18.148Z" style="fill:white;fill-rule:nonzero;" /></g></g><defs><linearGradient id="_Linear-js3hakb" x1="0" y1="0" x2="1" y2="0" gradientUnits="userSpaceOnUse" gradientTransform="matrix(-9.99325,7.16754,-8.79899,-8.14038,13.612,2.2829)"><stop offset="0" style="stop-color:rgb(34,182,189);stop-opacity:1" /><stop offset="0.14" style="stop-color:rgb(40,181,184);stop-opacity:1" /><stop offset="0.31" style="stop-color:rgb(54,179,170);stop-opacity:1" /><stop offset="0.57" style="stop-color:rgb(45,172,178);stop-opacity:1" /><stop offset="0.78" style="stop-color:rgb(56,158,185);stop-opacity:1" /><stop offset="1" style="stop-color:rgb(59,153,187);stop-opacity:1" /></linearGradient></defs></svg></svg><svg width="79" height="77" viewbox="0 0 79 77" x="467" y="8"><g transform="matrix(0.79,0,0,0.77,0,0)"><path d="M100,6.494L100,93.506C100,97.09 97.164,100 93.671,100L6.329,100C2.836,100 0,97.09 0,93.506L0,6.494C0,2.91 2.836,0 6.329,0L93.671,0C97.164,0 100,2.91 100,6.494Z" style="fill:rgba(235,235,235,1);" /></g><g transform="matrix(1,0,0,1,20,55)"><text style="font-family:&quot;ArialMT&quot;, &quot;Arial&quot;, sans-serif;font-size:8px;" dy="0" dominant-baseline="middle" text-anchor="middle"><tspan x="19" dy=".6em">Unity</tspan><tspan x="19" dy="1.6em" style="font-family:&quot;ArialMT&quot;, &quot;Arial&quot;, sans-serif;font-size:6px;fill:rgb(155,155,155)">unity.svg</tspan></text></g><svg width="32" height="28.4" viewBox="0 0 18 16" version="1.1" xml:space="preserve" style="fill-rule:evenodd;clip-rule:evenodd;stroke-linejoin:round;stroke-miterlimit:2;" viewbox="0 0 32 28.4" x="23" y="17"><g transform="matrix(0.123077,0,0,0.123077,9,8)"><g id="unity3d" transform="matrix(1,0,0,1,-65,-65)"><g transform="matrix(1.04129,0,0,1.05396,-0.210829,-0.275637)"><path d="M120.348,16.494C120.348,10.21 115.185,5.108 108.824,5.108L16.631,5.108C10.27,5.108 5.106,10.21 5.106,16.494L5.106,107.579C5.106,113.862 10.27,118.964 16.631,118.964L108.824,118.964C115.185,118.964 120.348,113.862 120.348,107.579L120.348,16.494Z" /></g><g transform="matrix(1,0,0,1,96.035,0)"><g transform="matrix(1,0,0,1,-118.435,-27.94)"><path d="M130.18,112.24L130.18,67.16L91.14,44.62L91.14,61.91L106.44,70.74C106.99,71.05 107.01,71.91 106.44,72.22L88.26,82.72C87.71,83.04 87.06,83.02 86.55,82.72L68.37,72.22C67.81,71.92 67.8,71.04 68.37,70.74L83.66,61.91L83.66,44.62L44.62,67.16L44.62,112.24L44.62,112.03L44.62,112.24L59.59,103.6L59.59,85.94C59.58,85.31 60.32,84.86 60.87,85.2L79.05,95.7C79.6,96.02 79.91,96.59 79.91,97.18L79.91,118.17C79.92,118.8 79.18,119.25 78.63,118.91L63.33,110.08L48.36,118.72L87.4,141.26L126.44,118.72L111.47,110.08L96.17,118.91C95.63,119.24 94.87,118.81 94.89,118.17L94.89,97.18C94.89,96.55 95.24,95.99 95.75,95.7L113.93,85.2C114.47,84.87 115.23,85.29 115.21,85.94L115.21,103.6L130.18,112.24Z" style="fill:rgb(204,204,204);fill-rule:nonzero;" /></g><g transform="matrix(1,0,0,1,-118.435,-27.94)"><path d="M87.4,141.26L126.44,118.72L111.47,110.08L96.17,118.91C95.63,119.24 94.87,118.81 94.89,118.17L94.89,97.18C94.89,96.55 95.24,95.99 95.75,95.7L113.93,85.2C114.47,84.87 115.23,85.29 115.21,85.94L115.21,103.6L130.18,112.24L130.18,67.16L87.4,91.86L87.4,141.26Z" style="fill:rgb(166,166,166);fill-rule:nonzero;" /></g><g transform="matrix(1,0,0,1,-118.435,-27.94)"><path d="M91.14,44.62L91.14,61.91L106.44,70.74C106.99,71.05 107.01,71.91 106.44,72.22L88.26,82.72C87.71,83.04 87.06,83.02 86.55,82.72L68.37,72.22C67.81,71.92 67.8,71.04 68.37,70.74L83.66,61.91L83.66,44.62L44.62,67.16L87.4,91.86L130.18,67.16L91.14,44.62Z" style="fill:white;fill-rule:nonzero;" /></g><g transform="matrix(1,0,0,1,-118.435,-27.94)"><path d="M78.64,118.91L63.34,110.08L48.37,118.72L87.41,141.26L87.41,91.86L44.63,67.16L44.63,112.24L44.63,112.03L44.63,112.24L59.6,103.6L59.6,85.94C59.59,85.31 60.33,84.86 60.88,85.2L79.06,95.7C79.61,96.02 79.92,96.59 79.92,97.18L79.92,118.17C79.93,118.8 79.19,119.25 78.64,118.91Z" style="fill:rgb(204,204,204);fill-rule:nonzero;" /></g></g></g><g id="unity3d1" /></g></svg></svg><svg width="79" height="77" viewbox="0 0 79 77" x="558" y="8"><g transform="matrix(0.79,0,0,0.77,0,0)"><path d="M100,6.494L100,93.506C100,97.09 97.164,100 93.671,100L6.329,100C2.836,100 0,97.09 0,93.506L0,6.494C0,2.91 2.836,0 6.329,0L93.671,0C97.164,0 100,2.91 100,6.494Z" style="fill:rgba(235,235,235,1);" /></g><g transform="matrix(1,0,0,1,20,55)"><text style="font-family:&quot;ArialMT&quot;, &quot;Arial&quot;, sans-serif;font-size:8px;" dy="0" dominant-baseline="middle" text-anchor="middle"><tspan x="19" dy=".6em">UnoCSS</tspan><tspan x="19" dy="1.6em" style="font-family:&quot;ArialMT&quot;, &quot;Arial&quot;, sans-serif;font-size:6px;fill:rgb(155,155,155)">unocss.svg</tspan></text></g><svg width="32" height="28.4" viewBox="0 0 18 16" version="1.1" xml:space="preserve" style="fill-rule:evenodd;clip-rule:evenodd;stroke-linejoin:round;stroke-miterlimit:2;" viewbox="0 0 32 28.4" x="23" y="17"><g id="unocss" transform="matrix(0.0636364,0,0,0.0636364,9,8)"><g transform="matrix(1,0,0,1,-110,-110)"><path d="M117.444,167.888C117.444,140.273 139.83,117.888 167.444,117.888C195.058,117.888 217.444,140.273 217.444,167.888C217.444,195.502 195.058,217.888 167.444,217.888C139.83,217.888 117.444,195.502 117.444,167.888Z" style="fill:rgb(133,133,133);fill-rule:nonzero;" /><path d="M117.444,53C117.444,25.386 139.83,3 167.444,3C195.058,3 217.444,25.386 217.444,53L217.444,98C217.444,100.761 215.205,103 212.444,103L122.444,103C119.683,103 117.444,100.761 117.444,98L117.444,53Z" style="fill:rgb(204,204,204);fill-rule:nonzero;" /><path d="M102,167.888C102,195.502 79.614,217.888 52,217.888C24.386,217.888 2,195.502 2,167.888L2,122.888C2,120.126 4.239,117.888 7,117.888L97,117.888C99.761,117.888 102,120.126 102,122.888L102,167.888Z" style="fill:rgb(77,77,77);fill-rule:nonzero;" /></g></g></svg></svg><svg width="79" height="77" viewbox="0 0 79 77" x="649" y="8"><g transform="matrix(0.79,0,0,0.77,0,0)"><path d="M100,6.494L100,93.506C100,97.09 97.164,100 93.671,100L6.329,100C2.836,100 0,97.09 0,93.506L0,6.494C0,2.91 2.836,0 6.329,0L93.671,0C97.164,0 100,2.91 100,6.494Z" style="fill:rgba(235,235,235,1);" /></g><g transform="matrix(1,0,0,1,20,55)"><text style="font-family:&quot;ArialMT&quot;, &quot;Arial&quot;, sans-serif;font-size:8px;" dy="0" dominant-baseline="middle" text-anchor="middle"><tspan x="19" dy=".6em">uv</tspan><tspan x="19" dy="1.6em" style="font-family:&quot;ArialMT&quot;, &quot;Arial&quot;, sans-serif;font-size:6px;fill:rgb(155,155,155)">uv.svg</tspan></text></g><svg width="32" height="28.4" viewBox="0 0 18 16" version="1.1" xml:space="preserve" style="fill-rule:evenodd;clip-rule:evenodd;stroke-linejoin:round;stroke-miterlimit:2;" viewbox="0 0 32 28.4" x="23" y="17"><g id="uv" transform="matrix(0.15,0,0,0.15,7.72311,6.88592)"><g transform="matrix(1,0,0,1,-41.4874,-42.5728)"><path d="M100,13.333L100,86.667C100,94.026 94.026,100 86.667,100L13.333,100C5.974,100 0,94.026 0,86.667L0,13.333C0,5.974 5.974,0 13.333,0L86.667,0C94.026,0 100,5.974 100,13.333Z" style="fill:rgb(38,18,48);" /></g><g transform="matrix(1,0,0,1,-41.4874,-42.5728)"><path d="M30,30.169L30.084,50.169L30.152,66.169C30.161,68.378 31.959,70.161 34.168,70.152L50.168,70.084L60.168,70.042L61.185,70.038C63.388,70.028 65.168,68.203 65.168,66L67,66L67,69.999L70.168,70L70,30L51.6,30.078L51.677,46.019L51.677,56L48.4,56L48.477,46.032L48.4,30.091L30,30.169Z" style="fill:rgb(222,95,233);fill-rule:nonzero;" /></g></g></svg></svg><svg width="79" height="77" viewbox="0 0 79 77" x="12" y="100"><g transform="matrix(0.79,0,0,0.77,0,0)"><path d="M100,6.494L100,93.506C100,97.09 97.164,100 93.671,100L6.329,100C2.836,100 0,97.09 0,93.506L0,6.494C0,2.91 2.836,0 6.329,0L93.671,0C97.164,0 100,2.91 100,6.494Z" style="fill:rgba(235,235,235,1);" /></g><g transform="matrix(1,0,0,1,20,55)"><text style="font-family:&quot;ArialMT&quot;, &quot;Arial&quot;, sans-serif;font-size:8px;" dy="0" dominant-baseline="middle" text-anchor="middle"><tspan x="19" dy=".6em">Vercel</tspan><tspan x="19" dy="1.6em" style="font-family:&quot;ArialMT&quot;, &quot;Arial&quot;, sans-serif;font-size:6px;fill:rgb(155,155,155)">vercel.svg</tspan></text></g><svg width="32" height="28.4" viewBox="0 0 18 16" version="1.1" xml:space="preserve" style="fill-rule:evenodd;clip-rule:evenodd;stroke-linejoin:round;stroke-miterlimit:2;" viewbox="0 0 32 28.4" x="23" y="17"><g id="vercel"><g transform="matrix(1.88017,0,0,2.58136,-7.56046,-4.52981)"><ellipse cx="8.808" cy="4.854" rx="3.989" ry="2.905" /></g><g transform="matrix(0.318182,0,0,0.318182,-24.6576,4.47266)"><path d="M105.781,0.086L118.483,22.086L93.079,22.086L105.781,0.086Z" style="fill:white;fill-rule:nonzero;" /></g></g></svg></svg><svg width="79" height="77" viewbox="0 0 79 77" x="103" y="100"><g transform="matrix(0.79,0,0,0.77,0,0)"><path d="M100,6.494L100,93.506C100,97.09 97.164,100 93.671,100L6.329,100C2.836,100 0,97.09 0,93.506L0,6.494C0,2.91 2.836,0 6.329,0L93.671,0C97.164,0 100,2.91 100,6.494Z" style="fill:rgba(235,235,235,1);" /></g><g transform="matrix(1,0,0,1,20,55)"><text style="font-family:&quot;ArialMT&quot;, &quot;Arial&quot;, sans-serif;font-size:8px;" dy="0" dominant-baseline="middle" text-anchor="middle"><tspan x="19" dy=".6em">Video</tspan><tspan x="19" dy="1.6em" style="font-family:&quot;ArialMT&quot;, &quot;Arial&quot;, sans-serif;font-size:6px;fill:rgb(155,155,155)">video-dark.svg</tspan></text></g><svg width="32" height="28.4" viewBox="0 0 18 16" version="1.1" xml:space="preserve" style="fill-rule:evenodd;clip-rule:evenodd;stroke-linejoin:round;stroke-miterlimit:2;" viewbox="0 0 32 28.4" x="23" y="17"><g id="video-dark" transform="matrix(1.77312,0,0,1.77312,-7.43184,-6.54989)"><g transform="matrix(1,0,0,1.01356,0,-0.168015)"><path d="M11.291,6.65L11.291,9.874C11.291,10.573 10.716,11.141 10.008,11.141L6.059,11.141C5.35,11.141 4.775,10.573 4.775,9.874L4.775,6.65C4.775,5.951 5.35,5.383 6.059,5.383L10.008,5.383C10.716,5.383 11.291,5.951 11.291,6.65ZM10.586,6.65C10.586,6.334 10.327,6.079 10.008,6.079L6.059,6.079C5.739,6.079 5.48,6.334 5.48,6.65L5.48,9.874C5.48,10.189 5.739,10.445 6.059,10.445L10.008,10.445C10.327,10.445 10.586,10.189 10.586,9.874L10.586,6.65Z" style="fill:rgb(93,108,121);" /></g><g transform="matrix(7.01954e-17,-1.14638,0.473357,2.89848e-17,8.87442,22.1897)"><path d="M11.537,3.72L12.862,3.712C13.07,3.711 13.261,3.981 13.363,4.419L14.322,8.528C14.422,8.958 14.42,9.485 14.317,9.912C14.215,10.339 14.026,10.602 13.822,10.602L10.575,10.602C10.37,10.602 10.181,10.338 10.079,9.911C9.976,9.483 9.975,8.955 10.076,8.525L11.039,4.423C11.141,3.989 11.331,3.721 11.537,3.72ZM11.538,5.11L10.575,9.212L13.822,9.212L12.863,5.102L11.538,5.11Z" style="fill:rgb(93,108,121);" /></g></g></svg></svg><svg width="79" height="77" viewbox="0 0 79 77" x="194" y="100"><g transform="matrix(0.79,0,0,0.77,0,0)"><path d="M100,6.494L100,93.506C100,97.09 97.164,100 93.671,100L6.329,100C2.836,100 0,97.09 0,93.506L0,6.494C0,2.91 2.836,0 6.329,0L93.671,0C97.164,0 100,2.91 100,6.494Z" style="fill:rgba(235,235,235,1);" /></g><g transform="matrix(1,0,0,1,20,55)"><text style="font-family:&quot;ArialMT&quot;, &quot;Arial&quot;, sans-serif;font-size:8px;" dy="0" dominant-baseline="middle" text-anchor="middle"><tspan x="19" dy=".6em">Vite</tspan><tspan x="19" dy="1.6em" style="font-family:&quot;ArialMT&quot;, &quot;Arial&quot;, sans-serif;font-size:6px;fill:rgb(155,155,155)">vite.svg</tspan></text></g><svg width="32" height="28.4" viewBox="0 0 18 16" version="1.1" xml:space="preserve" style="fill-rule:evenodd;clip-rule:evenodd;stroke-linejoin:round;stroke-miterlimit:2;" viewbox="0 0 32 28.4" x="23" y="17"><g id="vite" transform="matrix(0.0371287,0,0,0.0371287,9,8)"><g transform="matrix(1,0,0,1,-205,-202)"><path d="M399.641,59.525L215.643,388.545C211.844,395.338 202.084,395.378 198.228,388.618L10.582,59.556C6.381,52.19 12.68,43.267 21.028,44.759L205.223,77.682C206.398,77.892 207.601,77.89 208.776,77.676L389.119,44.806C397.439,43.289 403.768,52.143 399.641,59.525Z" style="fill:url(#_Linear-ryzna0v);fill-rule:nonzero;" /><path d="M292.965,1.574L156.801,28.255C154.563,28.694 152.906,30.59 152.771,32.866L144.395,174.33C144.198,177.662 147.258,180.248 150.51,179.498L188.42,170.749C191.967,169.931 195.172,173.055 194.443,176.622L183.18,231.775C182.422,235.487 185.907,238.661 189.532,237.56L212.947,230.446C216.577,229.344 220.065,232.527 219.297,236.242L201.398,322.875C200.278,328.294 207.486,331.249 210.492,326.603L212.5,323.5L323.454,102.072C325.312,98.365 322.108,94.137 318.036,94.923L279.014,102.454C275.347,103.161 272.227,99.746 273.262,96.158L298.731,7.867C299.767,4.273 296.636,0.855 292.965,1.574Z" style="fill:url(#_Linear-adj6f4s);fill-rule:nonzero;" /></g></g><defs><linearGradient id="_Linear-ryzna0v" x1="0" y1="0" x2="1" y2="0" gradientUnits="userSpaceOnUse" gradientTransform="matrix(229,311,-311,229,6.00017,32.9999)"><stop offset="0" style="stop-color:rgb(65,209,255);stop-opacity:1" /><stop offset="1" style="stop-color:rgb(189,52,254);stop-opacity:1" /></linearGradient><linearGradient id="_Linear-adj6f4s" x1="0" y1="0" x2="1" y2="0" gradientUnits="userSpaceOnUse" gradientTransform="matrix(41.425,284.171,-284.171,41.425,194.651,8.81818)"><stop offset="0" style="stop-color:rgb(255,234,131);stop-opacity:1" /><stop offset="0.08" style="stop-color:rgb(255,221,53);stop-opacity:1" /><stop offset="1" style="stop-color:rgb(255,168,0);stop-opacity:1" /></linearGradient></defs></svg></svg><svg width="79" height="77" viewbox="0 0 79 77" x="285" y="100"><g transform="matrix(0.79,0,0,0.77,0,0)"><path d="M100,6.494L100,93.506C100,97.09 97.164,100 93.671,100L6.329,100C2.836,100 0,97.09 0,93.506L0,6.494C0,2.91 2.836,0 6.329,0L93.671,0C97.164,0 100,2.91 100,6.494Z" style="fill:rgba(235,235,235,1);" /></g><g transform="matrix(1,0,0,1,20,55)"><text style="font-family:&quot;ArialMT&quot;, &quot;Arial&quot;, sans-serif;font-size:8px;" dy="0" dominant-baseline="middle" text-anchor="middle"><tspan x="19" dy=".6em">Vitest</tspan><tspan x="19" dy="1.6em" style="font-family:&quot;ArialMT&quot;, &quot;Arial&quot;, sans-serif;font-size:6px;fill:rgb(155,155,155)">vitest.svg</tspan></text></g><svg width="32" height="28.4" viewBox="0 0 18 16" version="1.1" xml:space="preserve" style="fill-rule:evenodd;clip-rule:evenodd;stroke-linejoin:round;stroke-miterlimit:2;" viewbox="0 0 32 28.4" x="23" y="17"><g id="vitest" transform="matrix(0.0615385,0,0,0.0615385,9,8)"><g transform="matrix(1,0,0,1,-130,-130)"><path d="M190.4,90.219L133.456,172.553C132.852,173.426 131.979,174.08 130.969,174.416C129.959,174.752 128.867,174.748 127.859,174.411C126.851,174.072 125.982,173.415 125.383,172.541C124.785,171.665 124.49,170.618 124.543,169.561L126.822,124.104L90.03,116.301C89.244,116.134 88.511,115.777 87.897,115.261C87.283,114.745 86.806,114.086 86.509,113.343C86.212,112.599 86.104,111.794 86.195,110.998C86.285,110.203 86.571,109.441 87.028,108.782L143.973,26.447C144.577,25.574 145.45,24.92 146.46,24.585C147.47,24.249 148.562,24.251 149.57,24.59C150.578,24.928 151.447,25.585 152.046,26.461C152.644,27.336 152.939,28.382 152.886,29.44L150.607,74.898L187.399,82.7C188.185,82.867 188.918,83.224 189.532,83.74C190.147,84.256 190.623,84.915 190.919,85.658C191.217,86.402 191.324,87.207 191.234,88.003C191.144,88.798 190.857,89.56 190.4,90.22L190.4,90.219Z" style="fill:rgb(252,199,43);fill-rule:nonzero;" /><path d="M130.767,241.631C129.252,241.633 127.752,241.337 126.353,240.757C124.954,240.177 123.683,239.326 122.613,238.255L68.807,184.452C66.654,182.288 65.448,179.359 65.452,176.307C65.456,173.255 66.67,170.327 68.828,168.17C70.987,166.011 73.913,164.796 76.966,164.791C80.018,164.788 82.948,165.993 85.112,168.146L130.767,213.796L230.226,114.341C232.394,112.208 235.317,111.018 238.359,111.03C241.401,111.043 244.315,112.256 246.464,114.407C248.615,116.558 249.83,119.471 249.843,122.513C249.854,125.555 248.664,128.478 246.53,130.646L138.918,238.255C137.849,239.328 136.578,240.177 135.179,240.757C133.781,241.337 132.281,241.633 130.767,241.631Z" style="fill:rgb(114,155,27);fill-rule:nonzero;" /><path d="M130.72,241.631C132.235,241.633 133.735,241.337 135.134,240.757C136.534,240.177 137.804,239.326 138.874,238.255L192.68,184.452C194.833,182.288 196.04,179.359 196.035,176.307C196.032,173.255 194.817,170.327 192.658,168.17C190.5,166.011 187.573,164.796 184.521,164.791C181.469,164.788 178.54,165.993 176.375,168.146L130.72,213.796L31.261,114.341C29.093,112.208 26.17,111.018 23.128,111.03C20.086,111.043 17.173,112.256 15.022,114.407C12.871,116.558 11.658,119.471 11.645,122.513C11.633,125.555 12.823,128.478 14.956,130.646L122.569,238.255C123.638,239.328 124.909,240.177 126.308,240.757C127.707,241.337 129.206,241.633 130.72,241.631Z" style="fill:rgb(114,155,27);fill-opacity:0.5;fill-rule:nonzero;" /></g></g></svg></svg><svg width="79" height="77" viewbox="0 0 79 77" x="376" y="100"><g transform="matrix(0.79,0,0,0.77,0,0)"><path d="M100,6.494L100,93.506C100,97.09 97.164,100 93.671,100L6.329,100C2.836,100 0,97.09 0,93.506L0,6.494C0,2.91 2.836,0 6.329,0L93.671,0C97.164,0 100,2.91 100,6.494Z" style="fill:rgba(235,235,235,1);" /></g><g transform="matrix(1,0,0,1,20,55)"><text style="font-family:&quot;ArialMT&quot;, &quot;Arial&quot;, sans-serif;font-size:8px;" dy="0" dominant-baseline="middle" text-anchor="middle"><tspan x="19" dy=".6em">Vue</tspan><tspan x="19" dy="1.6em" style="font-family:&quot;ArialMT&quot;, &quot;Arial&quot;, sans-serif;font-size:6px;fill:rgb(155,155,155)">vue.svg</tspan></text></g><svg width="32" height="28.4" viewBox="0 0 18 16" version="1.1" xml:space="preserve" style="fill-rule:evenodd;clip-rule:evenodd;stroke-linejoin:round;stroke-miterlimit:2;" viewbox="0 0 32 28.4" x="23" y="17"><g id="vue" transform="matrix(0.0611247,0,0,0.0611247,9,8)"><g transform="matrix(1,0,0,1,-130.88,-113.345)"><clipPath id="_clip-g9guy97"><rect x="0" y="0" width="261.76" height="226.69" /></clipPath><g clip-path="url(#_clip-g9guy97)"><g transform="matrix(1.3333,0,0,-1.3333,-76.311,313.34)"><g transform="matrix(1,0,0,1,178.06,235.01)"><path d="M0,0L-22.669,-39.264L-45.338,0L-120.829,0L-22.669,-170.02L75.491,0L0,0Z" style="fill:rgb(65,184,131);fill-rule:nonzero;" /></g><g transform="matrix(1,0,0,1,178.06,235.01)"><path d="M0,0L-22.669,-39.264L-45.338,0L-81.565,0L-22.669,-102.01L36.227,0L0,0Z" style="fill:rgb(52,73,94);fill-rule:nonzero;" /></g></g></g></g></g></svg></svg><svg width="79" height="77" viewbox="0 0 79 77" x="467" y="100"><g transform="matrix(0.79,0,0,0.77,0,0)"><path d="M100,6.494L100,93.506C100,97.09 97.164,100 93.671,100L6.329,100C2.836,100 0,97.09 0,93.506L0,6.494C0,2.91 2.836,0 6.329,0L93.671,0C97.164,0 100,2.91 100,6.494Z" style="fill:rgba(235,235,235,1);" /></g><g transform="matrix(1,0,0,1,20,55)"><text style="font-family:&quot;ArialMT&quot;, &quot;Arial&quot;, sans-serif;font-size:8px;" dy="0" dominant-baseline="middle" text-anchor="middle"><tspan x="19" dy=".6em">Vyper</tspan><tspan x="19" dy="1.6em" style="font-family:&quot;ArialMT&quot;, &quot;Arial&quot;, sans-serif;font-size:6px;fill:rgb(155,155,155)">vyper.svg</tspan></text></g><svg width="32" height="28.4" viewBox="0 0 18 16" version="1.1" xml:space="preserve" style="fill-rule:evenodd;clip-rule:evenodd;stroke-linejoin:round;stroke-miterlimit:2;" viewbox="0 0 32 28.4" x="23" y="17"><g id="vyper" transform="matrix(0.314925,0,0,0.314925,2.63753,1)"><path d="M23.314,36.866L9.948,23.5C9.403,22.933 9.103,22.166 9.103,21.311L9.103,2.233C9.103,1.122 7.992,0.011 6.881,0.011L2.425,0.011C1.314,0.011 0.203,1.122 0.203,2.233L0.203,24.455C0.203,25.633 0.636,26.766 1.47,27.6L17.025,43.155C17.892,44.022 19.025,44.455 20.17,44.455L22.392,44.455C23.625,44.455 24.614,43.455 24.614,42.233L24.614,40.022C24.614,38.877 24.181,37.744 23.314,36.877L23.314,36.866Z" style="fill:rgb(159,76,242);fill-rule:nonzero;" /><path d="M40.203,2.222C40.203,1.1 39.103,0 37.981,0L33.525,0C32.414,0 31.303,1.111 31.303,2.222L31.303,21.289C31.303,22.144 30.97,22.911 30.414,23.489L25.937,27.966C25.07,28.833 24.637,29.966 24.637,31.111L24.637,33.333C24.637,34.566 25.637,35.555 26.859,35.555L29.081,35.555C30.214,35.555 31.359,35.122 32.225,34.255L38.892,27.589C39.725,26.755 40.192,25.622 40.192,24.444L40.192,2.222L40.203,2.222Z" style="fill:rgb(159,76,242);fill-rule:nonzero;" /></g></svg></svg><svg width="79" height="77" viewbox="0 0 79 77" x="558" y="100"><g transform="matrix(0.79,0,0,0.77,0,0)"><path d="M100,6.494L100,93.506C100,97.09 97.164,100 93.671,100L6.329,100C2.836,100 0,97.09 0,93.506L0,6.494C0,2.91 2.836,0 6.329,0L93.671,0C97.164,0 100,2.91 100,6.494Z" style="fill:rgba(235,235,235,1);" /></g><g transform="matrix(1,0,0,1,20,55)"><text style="font-family:&quot;ArialMT&quot;, &quot;Arial&quot;, sans-serif;font-size:8px;" dy="0" dominant-baseline="middle" text-anchor="middle"><tspan x="19" dy=".6em">Wallaby</tspan><tspan x="19" dy="1.6em" style="font-family:&quot;ArialMT&quot;, &quot;Arial&quot;, sans-serif;font-size:6px;fill:rgb(155,155,155)">wallaby.svg</tspan></text></g><svg width="32" height="28.4" viewBox="0 0 18 16" version="1.1" xml:space="preserve" style="fill-rule:evenodd;clip-rule:evenodd;stroke-linejoin:round;stroke-miterlimit:2;" viewbox="0 0 32 28.4" x="23" y="17"><g id="wallaby" transform="matrix(1.0571,0,0,1.0571,-0.128109,-0.29529)"><path d="M2.007,14.469L2.007,7.899L8.66,8L8.66,1.225L15.263,1.225L15.263,14.469L2.007,14.469Z" style="fill:rgb(98,180,85);" /></g></svg></svg><svg width="79" height="77" viewbox="0 0 79 77" x="649" y="100"><g transform="matrix(0.79,0,0,0.77,0,0)"><path d="M100,6.494L100,93.506C100,97.09 97.164,100 93.671,100L6.329,100C2.836,100 0,97.09 0,93.506L0,6.494C0,2.91 2.836,0 6.329,0L93.671,0C97.164,0 100,2.91 100,6.494Z" style="fill:rgba(235,235,235,1);" /></g><g transform="matrix(1,0,0,1,20,55)"><text style="font-family:&quot;ArialMT&quot;, &quot;Arial&quot;, sans-serif;font-size:8px;" dy="0" dominant-baseline="middle" text-anchor="middle"><tspan x="19" dy=".6em">Web IDL</tspan><tspan x="19" dy="1.6em" style="font-family:&quot;ArialMT&quot;, &quot;Arial&quot;, sans-serif;font-size:6px;fill:rgb(155,155,155)">webidl.svg</tspan></text></g><svg width="32" height="28.4" viewBox="0 0 18 16" version="1.1" xml:space="preserve" style="fill-rule:evenodd;clip-rule:evenodd;" viewbox="0 0 32 28.4" x="23" y="17"><g id="webidl" transform="matrix(1.07692,0,0,1.07692,2,1)"><g transform="matrix(0.0175084,0,0,0.0175084,-0.722222,-0.722222)"><circle cx="412.5" cy="412.5" r="371.25" style="fill:white;stroke:rgb(60,121,10);stroke-width:82.5px;" /></g><g transform="matrix(0.0175084,0,0,0.0175084,-0.722222,-0.722222)"><path d="M249.107,387.558L249.107,436.483C271.607,436.483 289.286,441.279 302.143,448.953C316.607,456.628 324.643,468.14 329.464,481.57C334.286,495 335.893,518.983 335.893,552.558C335.893,586.134 337.5,608.198 339.107,618.75C342.321,636.017 347.143,649.448 353.571,659.041C360,669.593 369.643,677.267 379.286,683.023C388.929,688.779 403.393,693.576 417.857,697.413C429.107,699.331 446.786,701.25 470.893,701.25L495,701.25L495,654.244L482.143,654.244C453.214,654.244 432.321,650.407 422.679,642.733C413.036,635.058 408.214,618.75 408.214,591.89C408.214,542.006 406.607,510.349 405,496.919C400.179,474.855 392.143,456.628 377.679,443.198C363.214,429.767 343.929,419.215 319.821,412.5C351.964,401.948 376.071,386.599 388.929,368.372C401.786,350.145 408.214,319.448 408.214,276.279C408.214,236.948 408.214,213.924 409.821,206.25C411.429,192.82 417.857,183.227 425.893,178.43C435.536,173.634 453.214,170.756 480.536,170.756L493.393,170.756L493.393,123.75L469.286,123.75C441.964,123.75 421.071,125.669 408.214,128.547C390.536,133.343 374.464,140.058 363.214,150.61C351.964,161.163 343.929,174.593 340.714,189.942C337.5,206.25 335.893,232.151 334.286,267.645C334.286,304.099 331.071,329.041 327.857,342.471C323.036,355.901 313.393,367.413 300.536,375.087C286.071,382.762 268.393,387.558 247.5,387.558L249.107,387.558Z" style="fill:rgb(60,121,10);fill-rule:nonzero;" /></g></g></svg></svg><svg width="79" height="77" viewbox="0 0 79 77" x="12" y="192"><g transform="matrix(0.79,0,0,0.77,0,0)"><path d="M100,6.494L100,93.506C100,97.09 97.164,100 93.671,100L6.329,100C2.836,100 0,97.09 0,93.506L0,6.494C0,2.91 2.836,0 6.329,0L93.671,0C97.164,0 100,2.91 100,6.494Z" style="fill:rgba(235,235,235,1);" /></g><g transform="matrix(1,0,0,1,20,55)"><text style="font-family:&quot;ArialMT&quot;, &quot;Arial&quot;, sans-serif;font-size:8px;" dy="0" dominant-baseline="middle" text-anchor="middle"><tspan x="19" dy=".6em">WebAssembly</tspan><tspan x="19" dy="1.6em" style="font-family:&quot;ArialMT&quot;, &quot;Arial&quot;, sans-serif;font-size:6px;fill:rgb(155,155,155)">webassembly.svg</tspan></text></g><svg width="32" height="28.4" viewBox="0 0 18 16" version="1.1" xml:space="preserve" style="fill-rule:evenodd;clip-rule:evenodd;stroke-linejoin:round;stroke-miterlimit:2;" viewbox="0 0 32 28.4" x="23" y="17"><g transform="matrix(0.0245098,0,0,0.0245098,9,8)"><g id="wast" transform="matrix(1,0,0,1,-306,-306)"><clipPath id="_clip-lzpwt3f"><rect x="0" y="0" width="612" height="612" /></clipPath><g clip-path="url(#_clip-lzpwt3f)"><path d="M376,0L376,3.3C376,42.06 344.58,73.47 305.83,73.47C267.07,73.47 235.66,42.05 235.66,3.3L235.66,-0L0,0L0,612L612,612L612,0L376,0Z" style="fill:rgb(101,79,240);fill-rule:nonzero;" /><path d="M142.16,329.81L182.72,329.81L210.41,477.28L210.91,477.28L244.19,329.81L282.13,329.81L312.19,479.09L312.78,479.09L344.34,329.81L384.12,329.81L332.43,546.5L292.18,546.5L262.37,399.03L261.59,399.03L229.68,546.5L188.68,546.5L142.16,329.81ZM429.85,329.81L493.79,329.81L557.29,546.5L515.45,546.5L501.64,498.28L428.8,498.28L418.14,546.5L377.39,546.5L429.85,329.81ZM454.19,383.22L436.5,462.72L491.56,462.72L471.25,383.22L454.19,383.22Z" style="fill:white;fill-rule:nonzero;" /></g></g><g id="wast1" /></g></svg></svg><svg width="79" height="77" viewbox="0 0 79 77" x="103" y="192"><g transform="matrix(0.79,0,0,0.77,0,0)"><path d="M100,6.494L100,93.506C100,97.09 97.164,100 93.671,100L6.329,100C2.836,100 0,97.09 0,93.506L0,6.494C0,2.91 2.836,0 6.329,0L93.671,0C97.164,0 100,2.91 100,6.494Z" style="fill:rgba(235,235,235,1);" /></g><g transform="matrix(1,0,0,1,20,55)"><text style="font-family:&quot;ArialMT&quot;, &quot;Arial&quot;, sans-serif;font-size:8px;" dy="0" dominant-baseline="middle" text-anchor="middle"><tspan x="19" dy=".6em">WebGPU</tspan><tspan x="19" dy="1.6em" style="font-family:&quot;ArialMT&quot;, &quot;Arial&quot;, sans-serif;font-size:6px;fill:rgb(155,155,155)">webgpu.svg</tspan></text></g><svg width="32" height="28.4" viewBox="0 0 18 16" version="1.1" xml:space="preserve" style="fill-rule:evenodd;clip-rule:evenodd;" viewbox="0 0 32 28.4" x="23" y="17"><g id="webgpu" transform="matrix(0.0208333,0,0,0.0208333,9,8)"><g transform="matrix(1,0,0,1,-384,-384)"><g transform="matrix(1.0419,0,0,1.0419,13.2234,76.1182)"><path id="Triangle_4" d="M626.63,295.5L566.441,191.25L686.991,191.25L626.63,295.5Z" style="fill:rgb(0,134,232);fill-rule:nonzero;stroke:rgb(0,134,232);stroke-width:1px;" /><path id="Triangle_5" d="M626.63,87.001L566.441,191.251L686.991,191.251L626.63,87.001Z" style="fill:rgb(0,147,255);fill-rule:nonzero;stroke:rgb(0,147,255);stroke-width:1px;" /><path id="Triangle_3" d="M506.26,504L385.88,295.5L626.64,295.498L506.26,504Z" style="fill:rgb(0,118,204);fill-rule:nonzero;stroke:rgb(0,118,204);stroke-width:1px;" /><path id="Triangle_2" d="M506.26,87L385.88,295.5L626.64,295.498L506.26,87Z" style="fill:rgb(0,102,176);fill-rule:nonzero;stroke:rgb(0,102,176);stroke-width:1px;" /><path id="Triangle_1" d="M265.5,504L24.74,87L506.25,87L265.5,504Z" style="fill:rgb(0,90,156);fill-rule:nonzero;stroke:rgb(0,90,156);stroke-width:1px;" /></g></g></g></svg></svg><svg width="79" height="77" viewbox="0 0 79 77" x="194" y="192"><g transform="matrix(0.79,0,0,0.77,0,0)"><path d="M100,6.494L100,93.506C100,97.09 97.164,100 93.671,100L6.329,100C2.836,100 0,97.09 0,93.506L0,6.494C0,2.91 2.836,0 6.329,0L93.671,0C97.164,0 100,2.91 100,6.494Z" style="fill:rgba(235,235,235,1);" /></g><g transform="matrix(1,0,0,1,20,55)"><text style="font-family:&quot;ArialMT&quot;, &quot;Arial&quot;, sans-serif;font-size:8px;" dy="0" dominant-baseline="middle" text-anchor="middle"><tspan x="19" dy=".6em">Webpack</tspan><tspan x="19" dy="1.6em" style="font-family:&quot;ArialMT&quot;, &quot;Arial&quot;, sans-serif;font-size:6px;fill:rgb(155,155,155)">webpack.svg</tspan></text></g><svg width="32" height="28.4" viewBox="0 0 18 16" version="1.1" xml:space="preserve" style="fill-rule:evenodd;clip-rule:evenodd;stroke-linejoin:round;stroke-miterlimit:2;" viewbox="0 0 32 28.4" x="23" y="17"><g transform="matrix(0.117188,0,0,0.117188,9,8)"><g id="webpack" transform="matrix(1,0,0,1,-64,-64)"><g id="original"><path d="M117.29,98.1L66.24,127L66.24,104.49L98,87L117.29,98.1ZM120.79,94.94L120.79,34.55L102.11,45.35L102.11,84.16L120.78,94.93L120.79,94.94ZM10.71,98.1L61.71,126.98L61.71,104.49L29.94,87L10.71,98.1ZM7.21,94.94L7.21,34.55L25.89,45.35L25.89,84.16L7.21,94.94ZM9.4,30.64L61.76,1L61.76,22.76L28.21,41.21L27.94,41.36L9.4,30.64ZM118.58,30.64L66.24,1L66.24,22.76L99.79,41.2L100.06,41.35L118.6,30.64L118.58,30.64Z" style="fill:rgb(142,214,251);fill-rule:nonzero;" /><path d="M61.76,99.37L30.37,82.1L30.37,47.92L61.76,66L61.76,99.37ZM66.24,99.37L97.63,82.12L97.63,47.92L66.24,66L66.24,99.37ZM32.5,44L64,26.66L95.5,44L64,62.16L32.5,44Z" style="fill:rgb(28,120,192);fill-rule:nonzero;" /></g></g><g id="webpack1" /></g></svg></svg><svg width="79" height="77" viewbox="0 0 79 77" x="285" y="192"><g transform="matrix(0.79,0,0,0.77,0,0)"><path d="M100,6.494L100,93.506C100,97.09 97.164,100 93.671,100L6.329,100C2.836,100 0,97.09 0,93.506L0,6.494C0,2.91 2.836,0 6.329,0L93.671,0C97.164,0 100,2.91 100,6.494Z" style="fill:rgba(235,235,235,1);" /></g><g transform="matrix(1,0,0,1,20,55)"><text style="font-family:&quot;ArialMT&quot;, &quot;Arial&quot;, sans-serif;font-size:8px;" dy="0" dominant-baseline="middle" text-anchor="middle"><tspan x="19" dy=".6em">XMake</tspan><tspan x="19" dy="1.6em" style="font-family:&quot;ArialMT&quot;, &quot;Arial&quot;, sans-serif;font-size:6px;fill:rgb(155,155,155)">xmake.svg</tspan></text></g><svg width="32" height="28.4" viewBox="0 0 18 16" version="1.1" xml:space="preserve" style="fill-rule:evenodd;clip-rule:evenodd;stroke-linejoin:round;stroke-miterlimit:2;" viewbox="0 0 32 28.4" x="23" y="17"><g id="xmake" transform="matrix(0.234375,0,0,0.234375,6.95053,6.41928)"><g id="outside_s" transform="matrix(1,0,0,1,-23.2556,-25.2556)"><g style="filter:url(#_Effect-ava8q9t);"><circle cx="32" cy="32" r="30" style="fill:rgb(134,134,134);" /></g></g><g id="outside_s1" transform="matrix(1,0,0,1,-23.2556,-25.2556)"><circle cx="32" cy="32" r="30" style="fill:rgb(224,242,241);" /></g><g transform="matrix(0.910222,0,0,0.910222,-20.3827,-22.3827)"><path d="M7.355,14.898C12.776,7.105 21.796,2 32,2C38.753,2 44.987,4.236 50.003,8.007L23.092,24.603L7.355,14.898Z" style="fill:rgb(224,242,241);" /></g><g transform="matrix(0.990382,0,0,0.990382,-23.2328,-24.6503)"><path d="M48.387,10.161C55.016,15.145 59.307,23.076 59.307,32C59.307,36.728 58.102,41.177 55.984,45.057L23.892,25.267L48.387,10.161Z" style="fill:rgb(133,183,175);" /></g><g transform="matrix(1,0,0,1,-23.2556,-25.2556)"><g style="filter:url(#_Effect-occu8az);"><path d="M48.387,10.161C55.016,15.145 59.307,23.076 59.307,32C59.307,36.728 58.102,41.177 55.984,45.057L23.892,25.267L48.387,10.161Z" style="fill:rgb(133,183,175);" /></g></g><g transform="matrix(1,0,0,1,-24.1797,-25.7957)"><g style="filter:url(#_Effect-wtz2j9a);"><path d="M48.772,10.162C55.401,15.146 59.307,23.076 59.307,32C59.307,36.728 58.102,41.177 55.984,45.057L24.073,26.055L48.772,10.162Z" style="fill:rgb(133,183,175);" /></g></g><g transform="matrix(1,0,0,1,-23.2556,-25.2556)"><path d="M55.925,44.847C51.117,53.113 42.343,58.854 32,58.854C18.581,58.854 8.475,49.399 5.122,36.841L23.892,25.267L55.925,44.847Z" style="fill:rgb(72,162,124);" /></g><g transform="matrix(1.00664,0,0,1.00664,-23.4585,-25.5365)"><g style="filter:url(#_Effect-mz1d93j);"><path d="M55.984,45.057C51.35,53.544 42.343,59.307 32,59.307C18.581,59.307 7.41,49.606 5.122,36.841L23.892,25.267L55.984,45.057Z" style="fill:rgb(72,162,124);" /></g></g><g transform="matrix(1,0,0,1,-23.2556,-25.2556)"><path d="M5.172,36.804C4.89,35.233 4.772,33.688 4.772,32.036C4.772,26.253 6.495,20.851 9.568,16.433L23.892,25.267L5.172,36.804Z" style="fill:rgb(139,195,73);" /></g><g transform="matrix(1.04452,0,0,1.04452,-23.8919,-26.4416)"><g style="filter:url(#_Effect-55dg91m);"><path d="M5.122,36.841C4.84,35.27 4.693,33.652 4.693,32C4.693,26.217 6.495,20.851 9.568,16.433L23.892,25.267L5.122,36.841Z" style="fill:rgb(139,195,73);" /></g></g></g><defs><filter id="_Effect-ava8q9t" filterUnits="userSpaceOnUse" x="-1.96936" y="-1.96936" width="67.9387" height="67.9387"><feGaussianBlur in="SourceGraphic" stdDeviation="0.66156" /></filter><filter id="_Effect-occu8az" filterUnits="userSpaceOnUse" x="22.3266" y="8.59599" width="38.5453" height="38.0262"><feGaussianBlur in="SourceGraphic" stdDeviation="0.260879" /></filter><filter id="_Effect-wtz2j9a" filterUnits="userSpaceOnUse" x="20.9626" y="7.05168" width="41.454" height="41.1152"><feGaussianBlur in="SourceGraphic" stdDeviation="0.518326" /></filter><filter id="_Effect-mz1d93j" filterUnits="userSpaceOnUse" x="1.19186" y="21.3365" width="58.7224" height="41.9003"><feGaussianBlur in="SourceGraphic" stdDeviation="0.655025" /></filter><filter id="_Effect-55dg91m" filterUnits="userSpaceOnUse" x="0.461166" y="12.2013" width="27.6629" height="28.8723"><feGaussianBlur in="SourceGraphic" stdDeviation="0.705361" /></filter></defs></svg></svg><svg width="79" height="77" viewbox="0 0 79 77" x="376" y="192"><g transform="matrix(0.79,0,0,0.77,0,0)"><path d="M100,6.494L100,93.506C100,97.09 97.164,100 93.671,100L6.329,100C2.836,100 0,97.09 0,93.506L0,6.494C0,2.91 2.836,0 6.329,0L93.671,0C97.164,0 100,2.91 100,6.494Z" style="fill:rgba(235,235,235,1);" /></g><g transform="matrix(1,0,0,1,20,55)"><text style="font-family:&quot;ArialMT&quot;, &quot;Arial&quot;, sans-serif;font-size:8px;" dy="0" dominant-baseline="middle" text-anchor="middle"><tspan x="19" dy=".6em">XML</tspan><tspan x="19" dy="1.6em" style="font-family:&quot;ArialMT&quot;, &quot;Arial&quot;, sans-serif;font-size:6px;fill:rgb(155,155,155)">xml.svg</tspan></text></g><svg width="32" height="28.4" viewBox="0 0 18 16" version="1.1" xml:space="preserve" style="fill-rule:evenodd;clip-rule:evenodd;stroke-linejoin:round;stroke-miterlimit:2;" viewbox="0 0 32 28.4" x="23" y="17"><g transform="matrix(0.472203,0,0,0.472203,9,8)"><g id="xml" transform="matrix(1,0,0,1,-18.0007,-7.00202)"><clipPath id="_clip-y207deu"><rect x="0" y="0" width="36.001" height="14.004" /></clipPath><g clip-path="url(#_clip-y207deu)"><path id="path2764" d="M35.998,14L34.995,13.021L34.975,0.995L35.998,0.008L35.998,14Z" style="fill:rgb(128,51,0);" /><rect id="rect1873" x="0.987" y="0.995" width="34.008" height="12.03" style="fill:rgb(255,102,0);" /><path id="path1875" d="M0,0L36.001,0.004L34.983,0.991L0.999,1.003L0,0Z" style="fill:rgb(255,204,170);" /><path id="path2762" d="M0.004,14L36.001,14.004L34.994,13.017L0.987,13.017L0.004,14Z" style="fill:rgb(85,34,0);" /><path id="path3651" d="M0.995,13.009L0,14L0,0L0.991,0.991L0.995,13.009Z" style="fill:rgb(255,153,85);" /><g id="g4580"><path id="text4574" d="M4.817,3.867L7.741,3.867L9.264,6.51L10.741,3.867L13.635,3.867L10.963,8.028L13.887,12.457L10.905,12.457L9.212,9.697L7.512,12.457L4.547,12.457L7.512,7.981L4.817,3.867ZM14.708,3.867L18.2,3.867L19.547,9.094L20.889,3.867L24.37,3.867L24.37,12.457L22.202,12.457L22.202,5.906L20.52,12.457L18.557,12.457L16.881,5.906L16.881,12.457L14.708,12.457L14.708,3.867ZM26.057,3.867L28.712,3.867L28.712,10.342L32.854,10.342L32.854,12.457L26.057,12.457L26.057,3.867Z" style="fill:rgb(128,51,0);fill-rule:nonzero;" /><path id="text4570" d="M4.242,2.939L7.166,2.939L8.69,5.582L10.166,2.939L13.061,2.939L10.389,7.099L13.313,11.529L10.33,11.529L8.637,8.769L6.938,11.529L3.973,11.529L6.938,7.053L4.242,2.939ZM14.133,2.939L17.625,2.939L18.973,8.166L20.315,2.939L23.795,2.939L23.795,11.529L21.627,11.529L21.627,4.978L19.946,11.529L17.983,11.529L16.307,4.978L16.307,11.529L14.133,11.529L14.133,2.939ZM25.483,2.939L28.137,2.939L28.137,9.414L32.28,9.414L32.28,11.529L25.483,11.529L25.483,2.939Z" style="fill:white;fill-rule:nonzero;" /></g></g></g><g id="xml1" /></g></svg></svg><svg width="79" height="77" viewbox="0 0 79 77" x="467" y="192"><g transform="matrix(0.79,0,0,0.77,0,0)"><path d="M100,6.494L100,93.506C100,97.09 97.164,100 93.671,100L6.329,100C2.836,100 0,97.09 0,93.506L0,6.494C0,2.91 2.836,0 6.329,0L93.671,0C97.164,0 100,2.91 100,6.494Z" style="fill:rgba(235,235,235,1);" /></g><g transform="matrix(1,0,0,1,20,55)"><text style="font-family:&quot;ArialMT&quot;, &quot;Arial&quot;, sans-serif;font-size:8px;" dy="0" dominant-baseline="middle" text-anchor="middle"><tspan x="19" dy=".6em">YAML</tspan><tspan x="19" dy="1.6em" style="font-family:&quot;ArialMT&quot;, &quot;Arial&quot;, sans-serif;font-size:6px;fill:rgb(155,155,155)">yaml-dark.svg</tspan></text></g><svg width="32" height="28.4" viewBox="0 0 18 16" version="1.1" xml:space="preserve" style="fill-rule:evenodd;clip-rule:evenodd;stroke-linejoin:round;stroke-miterlimit:2;" viewbox="0 0 32 28.4" x="23" y="17"><g id="yaml-dark" transform="matrix(0.0398388,0,0,0.0398388,-1.19873,-1.37406)"><g id="Y" transform="matrix(0.8,0,0,0.8,51.2,47.0412)"><path d="M235.793,0L143.978,137.674L143.978,224.949L87.702,224.949L87.702,137.674L0,0L63.25,0L119.018,88.646L175.243,0L235.793,0Z" style="fill-rule:nonzero;" /></g><g id="A" transform="matrix(0.8,0,0,0.8,51.2,47.0412)"><path d="M330.294,175.451L228.433,175.451L207.716,225.475L162.61,225.475L257.99,0.526L304.127,0.526L395.637,225.475L347.437,225.475L330.293,175.451L330.294,175.451ZM313.374,130.54L282.148,47.99L247.311,130.54L313.374,130.54Z" style="fill:rgb(203,23,30);fill-rule:nonzero;" /></g><g id="M" transform="matrix(0.8,0,0,0.8,51.2,47.0412)"><path d="M87.701,250.177L87.701,470.647L135.004,470.647L135.004,318.569L184.509,420.789L221.743,420.789L272.939,314.976L272.939,470.602L318.318,470.602L318.318,250.177L256.358,250.177L201.381,349.883L149.021,250.177L87.701,250.177Z" style="fill-rule:nonzero;" /></g><g id="L" transform="matrix(0.8,0,0,0.8,51.2,47.0412)"><path d="M512,422.735L395.638,422.735L395.638,250.125L347.442,250.125L347.442,469.647L512,469.647L512,422.735Z" style="fill-rule:nonzero;" /></g></g></svg></svg><svg width="79" height="77" viewbox="0 0 79 77" x="558" y="192"><g transform="matrix(0.79,0,0,0.77,0,0)"><path d="M100,6.494L100,93.506C100,97.09 97.164,100 93.671,100L6.329,100C2.836,100 0,97.09 0,93.506L0,6.494C0,2.91 2.836,0 6.329,0L93.671,0C97.164,0 100,2.91 100,6.494Z" style="fill:rgba(235,235,235,1);" /></g><g transform="matrix(1,0,0,1,20,55)"><text style="font-family:&quot;ArialMT&quot;, &quot;Arial&quot;, sans-serif;font-size:8px;" dy="0" dominant-baseline="middle" text-anchor="middle"><tspan x="19" dy=".6em">Yarn</tspan><tspan x="19" dy="1.6em" style="font-family:&quot;ArialMT&quot;, &quot;Arial&quot;, sans-serif;font-size:6px;fill:rgb(155,155,155)">yarn.svg</tspan></text></g><svg width="32" height="28.4" viewBox="0 0 18 16" version="1.1" xml:space="preserve" style="fill-rule:evenodd;clip-rule:evenodd;stroke-linejoin:round;stroke-miterlimit:2;" viewbox="0 0 32 28.4" x="23" y="17"><g transform="matrix(0.117188,0,0,0.117188,9,8)"><g id="yarn" transform="matrix(1,0,0,1,-64,-64)"><g transform="matrix(1.6694,0,0,1.6694,-49.6325,-42.8108)"><path d="M99.24,80.71C94.9,80.76 91.1,83 87.89,85C81.89,88.71 78.89,88.47 78.89,88.47L78.79,88.3C78.38,87.63 80.71,81.62 78.1,74.46C75.28,66.63 70.8,64.74 71.16,64.14C72.69,61.55 76.52,57.44 78.05,49.78C78.96,45.14 78.72,37.5 76.66,33.5C76.28,32.76 72.88,34.74 72.88,34.74C72.88,34.74 69.7,27.65 68.81,27.08C65.94,25.24 62.81,34.69 62.81,34.69C58.419,34.26 54.073,35.93 51.1,39.19C50.012,40.238 48.693,41.015 47.25,41.46C46.84,41.6 46.34,41.58 45.1,44.93C43.2,50 48.34,55.74 48.34,55.74C48.34,55.74 42.21,60.07 39.94,65.46C38.424,69.155 37.823,73.163 38.19,77.14C38.557,81.117 33.83,80.92 33.55,84.82C33.29,87.552 33.911,90.296 35.32,92.65C35.639,93.331 36.325,93.768 37.077,93.768C37.38,93.768 37.679,93.696 37.95,93.56C38.221,93.424 35.05,96.94 37.76,98.37C40.23,99.66 44.39,100.37 46.59,98.18C48.19,96.58 48.51,93.01 49.1,91.55C49.24,91.21 49.72,92.12 50.18,92.55C50.604,92.921 51.059,93.256 51.54,93.55C52.021,93.844 47.64,95.23 49.24,99.06C49.77,100.33 51.66,101.14 54.75,101.12C55.9,101.12 68.51,100.4 71.87,99.59C72.886,99.429 73.811,98.911 74.48,98.13C79.936,96.507 85.147,94.152 89.97,91.13C94.71,88.04 96.65,87.2 100.48,86.29C103.64,85.54 103.43,80.64 99.24,80.71Z" style="fill:rgb(44,142,187);fill-rule:nonzero;" /></g></g><g id="yarn1" /></g></svg></svg><svg width="79" height="77" viewbox="0 0 79 77" x="649" y="192"><g transform="matrix(0.79,0,0,0.77,0,0)"><path d="M100,6.494L100,93.506C100,97.09 97.164,100 93.671,100L6.329,100C2.836,100 0,97.09 0,93.506L0,6.494C0,2.91 2.836,0 6.329,0L93.671,0C97.164,0 100,2.91 100,6.494Z" style="fill:rgba(235,235,235,1);" /></g><g transform="matrix(1,0,0,1,20,55)"><text style="font-family:&quot;ArialMT&quot;, &quot;Arial&quot;, sans-serif;font-size:8px;" dy="0" dominant-baseline="middle" text-anchor="middle"><tspan x="19" dy=".6em">Yaws</tspan><tspan x="19" dy="1.6em" style="font-family:&quot;ArialMT&quot;, &quot;Arial&quot;, sans-serif;font-size:6px;fill:rgb(155,155,155)">yaws.svg</tspan></text></g><svg width="32" height="28.4" viewBox="0 0 18 16" version="1.1" xml:space="preserve" style="fill-rule:evenodd;clip-rule:evenodd;stroke-linejoin:round;stroke-miterlimit:2;" viewbox="0 0 32 28.4" x="23" y="17"><g id="yaws" transform="matrix(0.0392178,0,0,0.0392178,-3.63665,-0.345234)"><g transform="matrix(0.742562,0,0,2.25189,118.228,169.683)"><path d="M12.165,15.688C4.452,13.799 -1.622,9.066 0.388,0.076L227.27,0.074C227.27,0.074 226.093,8.436 227.589,11.848C230.278,17.981 240.782,20.567 276.448,20.567C312.091,20.567 321.755,17.337 324.268,11.453C325.775,7.919 324.696,0.125 324.696,0.125L548.992,0.076C548.992,0.076 551.626,9.409 543.799,12.891C510.803,27.564 382.747,28.849 382.747,28.849L382.035,38.172L162.088,38.213L160.123,28.199C160.123,28.199 63.34,28.22 12.165,15.688Z" style="fill:rgb(238,39,40);fill-rule:nonzero;" /></g><g transform="matrix(2.12391,0,0,2.12391,118.383,170.268)"><path d="M20.107,4.899C20.337,5.332 30.481,18.615 31.608,20.14C32.658,21.561 30.594,36.877 31.288,37.899C31.98,38.921 37.4,39.093 38.786,38.4C40.17,37.708 43.196,34.932 42.25,32.857C41.303,30.782 37.936,23.006 38.534,21.525C39.131,20.045 41.099,17.797 41.387,17.428C41.75,16.964 52.471,2.38 53.164,2.38C53.856,2.38 54.803,1.688 54.803,1.688C54.803,1.688 55.284,0.673 54.255,0.673C53.225,0.673 49.545,1.004 48.506,1.69C47.467,2.375 42.503,10.192 42.503,10.192L38.81,15.407C38.81,15.407 36.854,16.973 36.289,16.713C34.986,16.116 27.728,7.218 27.728,7.218C27.728,7.218 21.947,0.787 20.951,0.745C19.954,0.704 19.761,4.25 20.107,4.899Z" style="fill:rgb(17,35,41);" /></g><g transform="matrix(2.12391,0,0,2.12391,118.383,170.268)"><path d="M58.894,19.7C58.894,19.7 59.757,16.076 59.06,15.04C58.363,14.005 56.438,14.129 55.51,14.441C54.049,14.934 53.164,15.271 53.164,15.271C53.164,15.271 51.855,15.652 50.661,15.461C49.694,15.307 49.759,13.885 49.906,13.416C50.055,12.942 52.47,11.015 54.125,10.574C57.276,9.732 59.289,9.973 61.051,10.663C62.814,11.353 63.821,12.363 64.514,14.441C65.208,16.519 64.938,25.429 64.278,27.146C63.73,28.577 61.475,30.973 57.806,30.973C55.004,30.973 52.128,29.777 50.392,28.201C48.88,26.829 47.015,24.726 46.705,22.826C46.462,21.335 47.199,20.024 48.314,19.561C50.084,18.824 54.22,18.785 56.297,19.197L58.894,19.7ZM54.959,20.772C53.183,20.772 51.741,21.986 51.741,23.48C51.741,24.975 53.183,26.188 54.959,26.188C56.736,26.188 58.178,24.975 58.178,23.48C58.178,21.986 56.736,20.772 54.959,20.772Z" style="fill:rgb(17,35,41);" /></g><g transform="matrix(2.12391,0,0,2.12391,118.383,170.268)"><path d="M78.098,21.273C79.495,21.273 82.483,12.066 83.122,11.798C83.815,11.508 84.994,11.228 85.718,11.575C86.707,12.049 89.637,20.93 90.352,21.247C91.117,21.587 93.043,16.617 94.031,15.425C94.928,14.343 100.158,9.497 100.559,9.497C100.958,9.497 100.894,9.861 100.894,10.557C100.894,11.252 100.265,19.195 98.879,21.62C97.494,24.045 94.08,27.919 91.439,28.201C90.127,28.34 86.411,22.659 85.958,21.273C85.669,20.39 84.334,20.582 83.855,21.273C83.545,21.72 79.425,30.872 78.098,31.366C76.874,31.823 75.29,31.9 74.935,31.27C74.579,30.64 68.23,17.641 67.708,15.733C67.342,14.396 67.361,11.23 67.708,10.883C68.055,10.536 68.398,9.502 69.439,9.847C71.576,10.557 77.544,21.273 78.098,21.273Z" style="fill:rgb(17,35,41);" /></g><g transform="matrix(2.12391,0,0,2.12391,118.383,170.268)"><path d="M102.028,28.833C102.028,28.833 107.744,29.791 109.822,29.099C111.9,28.407 115.95,26.123 116.127,23.617C116.243,21.977 115.505,20.847 114.119,19.891C112.844,19.01 109.721,17.361 109.721,15.643C109.721,14.419 111.57,13.529 112.607,13.529C113.643,13.529 114.81,14.187 116.889,12.535C118.968,10.883 118.584,10.149 118.584,9.823C118.584,9.497 118.275,8.807 117.582,8.807C116.889,8.807 112.042,8.807 109.612,9.497C107.074,10.218 103.743,11.28 103.729,14.347C103.715,17.414 109.067,20.159 109.718,21.84C110.229,23.159 108.214,24.612 106.499,25.865C104.997,26.963 104.076,27.103 103.036,27.77C101.996,28.436 102.028,28.833 102.028,28.833Z" style="fill:rgb(17,35,41);" /></g></g></svg></svg><svg width="79" height="77" viewbox="0 0 79 77" x="12" y="284"><g transform="matrix(0.79,0,0,0.77,0,0)"><path d="M100,6.494L100,93.506C100,97.09 97.164,100 93.671,100L6.329,100C2.836,100 0,97.09 0,93.506L0,6.494C0,2.91 2.836,0 6.329,0L93.671,0C97.164,0 100,2.91 100,6.494Z" style="fill:rgba(235,235,235,1);" /></g><g transform="matrix(1,0,0,1,20,55)"><text style="font-family:&quot;ArialMT&quot;, &quot;Arial&quot;, sans-serif;font-size:8px;" dy="0" dominant-baseline="middle" text-anchor="middle"><tspan x="19" dy=".6em">Yugabyte</tspan><tspan x="19" dy="1.6em" style="font-family:&quot;ArialMT&quot;, &quot;Arial&quot;, sans-serif;font-size:6px;fill:rgb(155,155,155)">yugabyte.svg</tspan></text></g><svg width="32" height="28.4" viewBox="0 0 18 16" version="1.1" xml:space="preserve" style="fill-rule:evenodd;clip-rule:evenodd;stroke-linejoin:round;stroke-miterlimit:2;" viewbox="0 0 32 28.4" x="23" y="17"><g id="yugabyte" transform="matrix(1.11248,0,0,1.11248,-1.09057,-0.639751)"><path d="M11.23,7.766C11.23,7.766 11.232,3.454 11.232,2.475C11.232,2.171 11.428,1.923 11.753,1.923C12.363,1.924 14.266,1.924 14.901,1.924C15.307,1.924 15.467,2.083 15.462,2.486C15.454,3.038 15.475,4.224 15.479,4.815C15.481,5.132 15.336,5.493 14.97,5.887C14.74,6.134 14.015,6.503 13.387,6.817C12.353,7.333 11.23,7.766 11.23,7.766Z" style="fill:rgb(239,96,64);" /><g transform="matrix(-1,0,0,-1,22.4633,15.5324)"><path d="M11.23,7.766C11.23,7.766 11.232,3.454 11.232,2.475C11.232,2.171 11.428,1.923 11.753,1.923C12.363,1.924 14.266,1.924 14.901,1.924C15.307,1.924 15.467,2.083 15.462,2.486C15.454,3.038 15.475,4.224 15.479,4.815C15.481,5.132 15.336,5.493 14.97,5.887C14.74,6.134 14.015,6.503 13.387,6.817C12.353,7.333 11.23,7.766 11.23,7.766Z" style="fill:rgb(239,96,64);" /></g><g transform="matrix(-1,0,0,1,18.1407,0)"><path d="M12.421,7.3C11.765,7.638 11.225,7.482 11.231,6.756C11.241,5.421 11.232,3.154 11.232,2.475C11.232,2.171 11.428,1.923 11.753,1.923C12.363,1.924 14.266,1.924 14.901,1.924C15.307,1.924 15.467,2.083 15.462,2.486C15.454,3.038 15.475,4.224 15.479,4.815C15.481,5.132 15.336,5.493 14.97,5.887C14.74,6.134 14.015,6.503 13.387,6.817C12.961,7.029 12.795,7.106 12.421,7.3Z" style="fill:rgb(239,96,64);" /></g></g></svg></svg><svg width="79" height="77" viewbox="0 0 79 77" x="103" y="284"><g transform="matrix(0.79,0,0,0.77,0,0)"><path d="M100,6.494L100,93.506C100,97.09 97.164,100 93.671,100L6.329,100C2.836,100 0,97.09 0,93.506L0,6.494C0,2.91 2.836,0 6.329,0L93.671,0C97.164,0 100,2.91 100,6.494Z" style="fill:rgba(235,235,235,1);" /></g><g transform="matrix(1,0,0,1,20,55)"><text style="font-family:&quot;ArialMT&quot;, &quot;Arial&quot;, sans-serif;font-size:8px;" dy="0" dominant-baseline="middle" text-anchor="middle"><tspan x="19" dy=".6em">Zig</tspan><tspan x="19" dy="1.6em" style="font-family:&quot;ArialMT&quot;, &quot;Arial&quot;, sans-serif;font-size:6px;fill:rgb(155,155,155)">zig.svg</tspan></text></g><svg width="32" height="28.4" viewBox="0 0 18 16" version="1.1" xml:space="preserve" style="fill-rule:evenodd;clip-rule:evenodd;stroke-linejoin:round;stroke-miterlimit:2;" viewbox="0 0 32 28.4" x="23" y="17"><g id="zig" transform="matrix(0.0980392,0,0,0.0980392,1.5,1.13725)"><g><path d="M46,22L28,44L19,30L46,22Z" style="fill:rgb(247,164,29);fill-rule:nonzero;" /><path d="M46,22L33,33L28,44L22,44L22,95L31,95L20,100L12,117L0,117L0,22L46,22Z" style="fill:rgb(247,164,29);fill-rule:nonzero;" /><path d="M31,95L12,117L4,106L31,95Z" style="fill:rgb(247,164,29);fill-rule:nonzero;" /></g><g><path d="M56,22L62,36L37,44L56,22Z" style="fill:rgb(247,164,29);fill-rule:nonzero;" /><path d="M56,22L111,22L111,44L37,44L56,32L56,22Z" style="fill:rgb(247,164,29);fill-rule:nonzero;" /><path d="M116,95L97,117L90,104L116,95Z" style="fill:rgb(247,164,29);fill-rule:nonzero;" /><path d="M116,95L100,104L97,117L42,117L42,95L116,95Z" style="fill:rgb(247,164,29);fill-rule:nonzero;" /><path d="M150,0L52,117L3,140L101,22L150,0Z" style="fill:rgb(247,164,29);fill-rule:nonzero;" /></g><g><path d="M141,22L140,40L122,45L141,22Z" style="fill:rgb(247,164,29);fill-rule:nonzero;" /><path d="M153,22L153,117L106,117L120,105L125,95L131,95L131,45L122,45L132,36L141,22L153,22Z" style="fill:rgb(247,164,29);fill-rule:nonzero;" /><path d="M125,95L130,110L106,117L125,95Z" style="fill:rgb(247,164,29);fill-rule:nonzero;" /></g></g></svg></svg><svg width="79" height="77" viewbox="0 0 79 77" x="194" y="284"><g transform="matrix(0.79,0,0,0.77,0,0)"><path d="M100,6.494L100,93.506C100,97.09 97.164,100 93.671,100L6.329,100C2.836,100 0,97.09 0,93.506L0,6.494C0,2.91 2.836,0 6.329,0L93.671,0C97.164,0 100,2.91 100,6.494Z" style="fill:rgba(235,235,235,1);" /></g><g transform="matrix(1,0,0,1,20,55)"><text style="font-family:&quot;ArialMT&quot;, &quot;Arial&quot;, sans-serif;font-size:8px;" dy="0" dominant-baseline="middle" text-anchor="middle"><tspan x="19" dy=".6em">Zukan</tspan><tspan x="19" dy="1.6em" style="font-family:&quot;ArialMT&quot;, &quot;Arial&quot;, sans-serif;font-size:6px;fill:rgb(155,155,155)">zukan.svg</tspan></text></g><svg width="32" height="28.4" viewBox="0 0 18 16" version="1.1" xml:space="preserve" style="fill-rule:evenodd;clip-rule:evenodd;stroke-linejoin:round;stroke-miterlimit:2;" viewbox="0 0 32 28.4" x="23" y="17"><g id="zukan" transform="matrix(1.92252,0,0,1.92252,-8.30268,-6.52772)"><g transform="matrix(-0.74237,0,0,-0.74237,15.6813,13.3066)"><path d="M9.124,11.418C9.124,11.418 10.088,11.78 11.018,11.851C11.305,11.873 11.588,11.868 11.834,11.808C12.026,11.762 12.194,11.683 12.301,11.538C12.418,11.377 12.472,11.144 12.473,10.866C12.475,10.368 12.301,9.745 11.919,9.084C11.752,8.793 11.54,8.514 11.311,8.254C10.9,8.647 10.492,8.973 10.195,9.195C10.195,9.204 10.195,9.213 10.195,9.222C10.195,9.581 9.904,9.872 9.545,9.872C9.186,9.872 8.895,9.581 8.895,9.222C8.895,8.863 9.186,8.572 9.545,8.572C9.631,8.572 9.713,8.588 9.788,8.619C10.364,8.19 11.372,7.356 11.919,6.407C12.301,5.746 12.475,5.123 12.473,4.625C12.472,4.347 12.418,4.114 12.301,3.954C12.194,3.808 12.026,3.729 11.834,3.683C11.588,3.623 11.305,3.618 11.018,3.64C10.088,3.712 9.124,4.073 9.124,4.073C9.044,4.103 8.956,4.103 8.876,4.073C8.876,4.073 7.912,3.712 6.982,3.64C6.695,3.618 6.412,3.623 6.166,3.683C5.974,3.729 5.806,3.808 5.699,3.954C5.582,4.114 5.528,4.347 5.527,4.625C5.525,5.123 5.699,5.746 6.081,6.407C6.248,6.698 6.46,6.977 6.689,7.237C7.1,6.844 7.508,6.518 7.805,6.296C7.805,6.287 7.805,6.278 7.805,6.269C7.805,5.91 8.096,5.619 8.455,5.619C8.814,5.619 9.105,5.91 9.105,6.269C9.105,6.628 8.814,6.919 8.455,6.919C8.369,6.919 8.287,6.903 8.212,6.872C7.636,7.301 6.628,8.135 6.081,9.084C5.699,9.745 5.525,10.368 5.527,10.866C5.528,11.144 5.582,11.377 5.699,11.538C5.806,11.683 5.974,11.762 6.166,11.808C6.412,11.868 6.695,11.873 6.982,11.851C7.912,11.78 8.876,11.418 8.876,11.418C8.956,11.388 9.044,11.388 9.124,11.418Z" style="fill:url(#_Radial-gjenuza);" /></g><g transform="matrix(-0.74237,0,0,-0.74237,15.6813,13.3066)"><path d="M11.439,7.745C11.763,8.087 12.068,8.467 12.298,8.865C12.726,9.607 12.913,10.309 12.911,10.868C12.909,11.253 12.817,11.572 12.654,11.795C12.331,12.239 11.668,12.34 10.985,12.287C10.094,12.219 9.174,11.901 9,11.838C8.826,11.901 7.906,12.219 7.015,12.287C6.332,12.34 5.669,12.239 5.346,11.795C5.183,11.572 5.091,11.253 5.089,10.868C5.087,10.309 5.274,9.607 5.702,8.865C5.931,8.467 6.238,8.087 6.561,7.746C6.237,7.404 5.932,7.024 5.702,6.626C5.274,5.884 5.087,5.182 5.089,4.623C5.091,4.238 5.183,3.919 5.346,3.696C5.669,3.252 6.332,3.151 7.015,3.204C7.906,3.272 8.826,3.59 9,3.653C9.174,3.59 10.094,3.272 10.985,3.204C11.668,3.151 12.331,3.252 12.654,3.696C12.817,3.919 12.909,4.238 12.911,4.623C12.913,5.182 12.726,5.884 12.298,6.626C12.069,7.024 11.762,7.404 11.439,7.745ZM9.029,11.672C9.029,11.672 10.031,12.047 10.997,12.121C11.314,12.145 11.627,12.137 11.898,12.072C12.156,12.009 12.376,11.893 12.519,11.697C12.665,11.498 12.742,11.211 12.744,10.867C12.747,10.331 12.564,9.659 12.154,8.948C11.932,8.563 11.636,8.196 11.323,7.865C10.778,8.418 10.204,8.859 9.872,9.097C9.887,9.136 9.895,9.178 9.895,9.222C9.895,9.415 9.738,9.572 9.545,9.572C9.352,9.572 9.195,9.415 9.195,9.222C9.195,9.029 9.352,8.872 9.545,8.872C9.634,8.872 9.716,8.905 9.778,8.96C10.321,8.57 11.528,7.628 12.154,6.543C12.564,5.832 12.747,5.16 12.744,4.624C12.742,4.28 12.665,3.993 12.519,3.794C12.376,3.598 12.156,3.482 11.898,3.419C11.627,3.354 11.314,3.346 10.997,3.37C10.031,3.444 9.029,3.819 9.029,3.819C9.01,3.826 8.99,3.826 8.971,3.819C8.971,3.819 7.969,3.444 7.003,3.37C6.686,3.346 6.373,3.354 6.102,3.419C5.844,3.482 5.624,3.598 5.481,3.794C5.335,3.993 5.258,4.28 5.256,4.624C5.253,5.16 5.436,5.832 5.846,6.543C6.068,6.928 6.364,7.295 6.677,7.626C7.222,7.073 7.796,6.632 8.128,6.394C8.113,6.355 8.105,6.313 8.105,6.269C8.105,6.076 8.262,5.919 8.455,5.919C8.648,5.919 8.805,6.076 8.805,6.269C8.805,6.462 8.648,6.619 8.455,6.619C8.366,6.619 8.284,6.586 8.222,6.531C7.679,6.921 6.472,7.863 5.846,8.948C5.436,9.659 5.253,10.331 5.256,10.867C5.258,11.211 5.335,11.498 5.481,11.697C5.624,11.893 5.844,12.009 6.102,12.072C6.373,12.137 6.686,12.145 7.003,12.121C7.969,12.047 8.971,11.672 8.971,11.672C8.99,11.665 9.01,11.665 9.029,11.672Z" style="fill:rgb(242,54,18);" /></g></g><defs><radialGradient id="_Radial-gjenuza" cx="0" cy="0" r="1" gradientUnits="userSpaceOnUse" gradientTransform="matrix(-5.15635,6.47764,-6.47764,-5.15635,11.6247,4.58387)"><stop offset="0" style="stop-color:rgb(242,54,18);stop-opacity:1" /><stop offset="0.28" style="stop-color:rgb(242,45,46);stop-opacity:1" /><stop offset="0.55" style="stop-color:rgb(242,18,131);stop-opacity:1" /><stop offset="0.77" style="stop-color:rgb(242,45,45);stop-opacity:1" /><stop offset="1" style="stop-color:rgb(242,54,18);stop-opacity:1" /></radialGradient></defs></svg></svg></svg>