<svg xmlns="http://www.w3.org/2000/svg" viewbox="0 0 728 0"><svg width="79" height="77" viewbox="0 0 79 77" x="12" y="8"><g transform="matrix(0.79,0,0,0.77,0,0)"><path d="M100,6.494L100,93.506C100,97.09 97.164,100 93.671,100L6.329,100C2.836,100 0,97.09 0,93.506L0,6.494C0,2.91 2.836,0 6.329,0L93.671,0C97.164,0 100,2.91 100,6.494Z" style="fill:rgba(235,235,235,1);" /></g><g transform="matrix(1,0,0,1,20,55)"><text style="font-family:&quot;ArialMT&quot;, &quot;Arial&quot;, sans-serif;font-size:8px;" dy="0" dominant-baseline="middle" text-anchor="middle"><tspan x="19" dy=".6em">Zig</tspan><tspan x="19" dy="1.6em" style="font-family:&quot;ArialMT&quot;, &quot;Arial&quot;, sans-serif;font-size:6px;fill:rgb(155,155,155)">zig.svg</tspan></text></g><svg width="32" height="28.4" viewBox="0 0 18 16" version="1.1" xml:space="preserve" style="fill-rule:evenodd;clip-rule:evenodd;stroke-linejoin:round;stroke-miterlimit:2;" viewbox="0 0 32 28.4" x="23" y="17"><g id="zig" transform="matrix(0.0980392,0,0,0.0980392,1.5,1.13725)"><g><path d="M46,22L28,44L19,30L46,22Z" style="fill:rgb(247,164,29);fill-rule:nonzero;" /><path d="M46,22L33,33L28,44L22,44L22,95L31,95L20,100L12,117L0,117L0,22L46,22Z" style="fill:rgb(247,164,29);fill-rule:nonzero;" /><path d="M31,95L12,117L4,106L31,95Z" style="fill:rgb(247,164,29);fill-rule:nonzero;" /></g><g><path d="M56,22L62,36L37,44L56,22Z" style="fill:rgb(247,164,29);fill-rule:nonzero;" /><path d="M56,22L111,22L111,44L37,44L56,32L56,22Z" style="fill:rgb(247,164,29);fill-rule:nonzero;" /><path d="M116,95L97,117L90,104L116,95Z" style="fill:rgb(247,164,29);fill-rule:nonzero;" /><path d="M116,95L100,104L97,117L42,117L42,95L116,95Z" style="fill:rgb(247,164,29);fill-rule:nonzero;" /><path d="M150,0L52,117L3,140L101,22L150,0Z" style="fill:rgb(247,164,29);fill-rule:nonzero;" /></g><g><path d="M141,22L140,40L122,45L141,22Z" style="fill:rgb(247,164,29);fill-rule:nonzero;" /><path d="M153,22L153,117L106,117L120,105L125,95L131,95L131,45L122,45L132,36L141,22L153,22Z" style="fill:rgb(247,164,29);fill-rule:nonzero;" /><path d="M125,95L130,110L106,117L125,95Z" style="fill:rgb(247,164,29);fill-rule:nonzero;" /></g></g></svg></svg><svg width="79" height="77" viewbox="0 0 79 77" x="103" y="8"><g transform="matrix(0.79,0,0,0.77,0,0)"><path d="M100,6.494L100,93.506C100,97.09 97.164,100 93.671,100L6.329,100C2.836,100 0,97.09 0,93.506L0,6.494C0,2.91 2.836,0 6.329,0L93.671,0C97.164,0 100,2.91 100,6.494Z" style="fill:rgba(235,235,235,1);" /></g><g transform="matrix(1,0,0,1,20,55)"><text style="font-family:&quot;ArialMT&quot;, &quot;Arial&quot;, sans-serif;font-size:8px;" dy="0" dominant-baseline="middle" text-anchor="middle"><tspan x="19" dy=".6em">Zukan</tspan><tspan x="19" dy="1.6em" style="font-family:&quot;ArialMT&quot;, &quot;Arial&quot;, sans-serif;font-size:6px;fill:rgb(155,155,155)">zukan.svg</tspan></text></g><svg width="32" height="28.4" viewBox="0 0 18 16" version="1.1" xml:space="preserve" style="fill-rule:evenodd;clip-rule:evenodd;stroke-linejoin:round;stroke-miterlimit:2;" viewbox="0 0 32 28.4" x="23" y="17"><g id="zukan" transform="matrix(1.92252,0,0,1.92252,-8.30268,-6.52772)"><g transform="matrix(-0.74237,0,0,-0.74237,15.6813,13.3066)"><path d="M9.124,11.418C9.124,11.418 10.088,11.78 11.018,11.851C11.305,11.873 11.588,11.868 11.834,11.808C12.026,11.762 12.194,11.683 12.301,11.538C12.418,11.377 12.472,11.144 12.473,10.866C12.475,10.368 12.301,9.745 11.919,9.084C11.752,8.793 11.54,8.514 11.311,8.254C10.9,8.647 10.492,8.973 10.195,9.195C10.195,9.204 10.195,9.213 10.195,9.222C10.195,9.581 9.904,9.872 9.545,9.872C9.186,9.872 8.895,9.581 8.895,9.222C8.895,8.863 9.186,8.572 9.545,8.572C9.631,8.572 9.713,8.588 9.788,8.619C10.364,8.19 11.372,7.356 11.919,6.407C12.301,5.746 12.475,5.123 12.473,4.625C12.472,4.347 12.418,4.114 12.301,3.954C12.194,3.808 12.026,3.729 11.834,3.683C11.588,3.623 11.305,3.618 11.018,3.64C10.088,3.712 9.124,4.073 9.124,4.073C9.044,4.103 8.956,4.103 8.876,4.073C8.876,4.073 7.912,3.712 6.982,3.64C6.695,3.618 6.412,3.623 6.166,3.683C5.974,3.729 5.806,3.808 5.699,3.954C5.582,4.114 5.528,4.347 5.527,4.625C5.525,5.123 5.699,5.746 6.081,6.407C6.248,6.698 6.46,6.977 6.689,7.237C7.1,6.844 7.508,6.518 7.805,6.296C7.805,6.287 7.805,6.278 7.805,6.269C7.805,5.91 8.096,5.619 8.455,5.619C8.814,5.619 9.105,5.91 9.105,6.269C9.105,6.628 8.814,6.919 8.455,6.919C8.369,6.919 8.287,6.903 8.212,6.872C7.636,7.301 6.628,8.135 6.081,9.084C5.699,9.745 5.525,10.368 5.527,10.866C5.528,11.144 5.582,11.377 5.699,11.538C5.806,11.683 5.974,11.762 6.166,11.808C6.412,11.868 6.695,11.873 6.982,11.851C7.912,11.78 8.876,11.418 8.876,11.418C8.956,11.388 9.044,11.388 9.124,11.418Z" style="fill:url(#_Radial-gjenuza);" /></g><g transform="matrix(-0.74237,0,0,-0.74237,15.6813,13.3066)"><path d="M11.439,7.745C11.763,8.087 12.068,8.467 12.298,8.865C12.726,9.607 12.913,10.309 12.911,10.868C12.909,11.253 12.817,11.572 12.654,11.795C12.331,12.239 11.668,12.34 10.985,12.287C10.094,12.219 9.174,11.901 9,11.838C8.826,11.901 7.906,12.219 7.015,12.287C6.332,12.34 5.669,12.239 5.346,11.795C5.183,11.572 5.091,11.253 5.089,10.868C5.087,10.309 5.274,9.607 5.702,8.865C5.931,8.467 6.238,8.087 6.561,7.746C6.237,7.404 5.932,7.024 5.702,6.626C5.274,5.884 5.087,5.182 5.089,4.623C5.091,4.238 5.183,3.919 5.346,3.696C5.669,3.252 6.332,3.151 7.015,3.204C7.906,3.272 8.826,3.59 9,3.653C9.174,3.59 10.094,3.272 10.985,3.204C11.668,3.151 12.331,3.252 12.654,3.696C12.817,3.919 12.909,4.238 12.911,4.623C12.913,5.182 12.726,5.884 12.298,6.626C12.069,7.024 11.762,7.404 11.439,7.745ZM9.029,11.672C9.029,11.672 10.031,12.047 10.997,12.121C11.314,12.145 11.627,12.137 11.898,12.072C12.156,12.009 12.376,11.893 12.519,11.697C12.665,11.498 12.742,11.211 12.744,10.867C12.747,10.331 12.564,9.659 12.154,8.948C11.932,8.563 11.636,8.196 11.323,7.865C10.778,8.418 10.204,8.859 9.872,9.097C9.887,9.136 9.895,9.178 9.895,9.222C9.895,9.415 9.738,9.572 9.545,9.572C9.352,9.572 9.195,9.415 9.195,9.222C9.195,9.029 9.352,8.872 9.545,8.872C9.634,8.872 9.716,8.905 9.778,8.96C10.321,8.57 11.528,7.628 12.154,6.543C12.564,5.832 12.747,5.16 12.744,4.624C12.742,4.28 12.665,3.993 12.519,3.794C12.376,3.598 12.156,3.482 11.898,3.419C11.627,3.354 11.314,3.346 10.997,3.37C10.031,3.444 9.029,3.819 9.029,3.819C9.01,3.826 8.99,3.826 8.971,3.819C8.971,3.819 7.969,3.444 7.003,3.37C6.686,3.346 6.373,3.354 6.102,3.419C5.844,3.482 5.624,3.598 5.481,3.794C5.335,3.993 5.258,4.28 5.256,4.624C5.253,5.16 5.436,5.832 5.846,6.543C6.068,6.928 6.364,7.295 6.677,7.626C7.222,7.073 7.796,6.632 8.128,6.394C8.113,6.355 8.105,6.313 8.105,6.269C8.105,6.076 8.262,5.919 8.455,5.919C8.648,5.919 8.805,6.076 8.805,6.269C8.805,6.462 8.648,6.619 8.455,6.619C8.366,6.619 8.284,6.586 8.222,6.531C7.679,6.921 6.472,7.863 5.846,8.948C5.436,9.659 5.253,10.331 5.256,10.867C5.258,11.211 5.335,11.498 5.481,11.697C5.624,11.893 5.844,12.009 6.102,12.072C6.373,12.137 6.686,12.145 7.003,12.121C7.969,12.047 8.971,11.672 8.971,11.672C8.99,11.665 9.01,11.665 9.029,11.672Z" style="fill:rgb(242,54,18);" /></g></g><defs><radialGradient id="_Radial-gjenuza" cx="0" cy="0" r="1" gradientUnits="userSpaceOnUse" gradientTransform="matrix(-5.15635,6.47764,-6.47764,-5.15635,11.6247,4.58387)"><stop offset="0" style="stop-color:rgb(242,54,18);stop-opacity:1" /><stop offset="0.28" style="stop-color:rgb(242,45,46);stop-opacity:1" /><stop offset="0.55" style="stop-color:rgb(242,18,131);stop-opacity:1" /><stop offset="0.77" style="stop-color:rgb(242,45,45);stop-opacity:1" /><stop offset="1" style="stop-color:rgb(242,54,18);stop-opacity:1" /></radialGradient></defs></svg></svg></svg>