<?xml version="1.0" encoding="UTF-8" standalone="no"?><!DOCTYPE svg PUBLIC "-//W3C//DTD SVG 1.1//EN" "http://www.w3.org/Graphics/SVG/1.1/DTD/svg11.dtd"><svg width="100%" height="100%" viewBox="0 0 470 470" version="1.1" xmlns="http://www.w3.org/2000/svg" xmlns:xlink="http://www.w3.org/1999/xlink" xml:space="preserve" xmlns:serif="http://www.serif.com/" style="fill-rule:evenodd;clip-rule:evenodd;stroke-linecap:round;stroke-linejoin:round;stroke-miterlimit:1.5;"><g transform="matrix(1,0,0,1,50,50)"><g transform="matrix(0.79,0,0,0.77,-38.2351,-42.0472)"><path d="M100,6.494L100,93.506C100,97.09 97.164,100 93.671,100L6.329,100C2.836,100 0,97.09 0,93.506L0,6.494C0,2.91 2.836,0 6.329,0L93.671,0C97.164,0 100,2.91 100,6.494Z" style="fill:rgb(235,235,235);"/></g><g transform="matrix(1,0,0,1,-19.6383,16.6861)"><g transform="matrix(10,0,0,10,29.0894,0)"></g><text x="12.034px" y="0px" style="font-family:'Helvetica';font-size:10px;">V<tspan x="18.528px 20.75px " y="0px 0px ">it</tspan>e</text></g><g transform="matrix(0.79,0,0,0.77,52.7879,-42.0472)"><path d="M100,6.494L100,93.506C100,97.09 97.164,100 93.671,100L6.329,100C2.836,100 0,97.09 0,93.506L0,6.494C0,2.91 2.836,0 6.329,0L93.671,0C97.164,0 100,2.91 100,6.494Z" style="fill:rgb(235,235,235);"/></g><g transform="matrix(1,0,0,1,70.7434,16.6861)"><g transform="matrix(10,0,0,10,26.9507,0)"></g><text x="14.172px" y="0px" style="font-family:'Helvetica';font-size:10px;">Git</text></g><g id="git.svg" transform="matrix(1.77778,0,0,1.77778,91.8396,-12.5876)"><g transform="matrix(1,0,0,1,-9,-8)"><g transform="matrix(0.297485,0,0,0.297485,0.780049,-11.0453)"><g id="git"><g><path d="M52.7,61.7L29.951,38.952C28.642,37.642 26.517,37.642 25.207,38.952L20.483,43.676L26.474,49.668C27.868,49.198 29.464,49.513 30.574,50.624C31.69,51.741 32.003,53.351 31.521,54.749L37.296,60.524C38.692,60.043 40.305,60.354 41.421,61.471C42.981,63.03 42.981,65.557 41.421,67.117C39.86,68.677 37.334,68.677 35.774,67.117C34.601,65.943 34.311,64.22 34.905,62.775L29.519,57.389L29.518,71.563C29.899,71.751 30.257,72.001 30.574,72.317C32.134,73.876 32.134,76.402 30.574,77.964C29.014,79.523 26.486,79.523 24.928,77.964C23.368,76.402 23.368,73.876 24.928,72.317C25.314,71.932 25.759,71.641 26.235,71.446L26.235,57.141C25.759,56.947 25.314,56.657 24.928,56.27C23.746,55.089 23.462,53.356 24.068,51.905L18.162,45.997L2.563,61.595C1.252,62.906 1.252,65.031 2.563,66.342L25.312,89.09C26.622,90.4 28.746,90.4 30.058,89.09L52.7,66.446C54.011,65.136 54.011,63.01 52.7,61.7Z" style="fill:rgb(243,79,41);fill-rule:nonzero;"/></g></g></g></g></g><g transform="matrix(0.79,0,0,0.77,143.811,-42.0472)"><path d="M100,6.494L100,93.506C100,97.09 97.164,100 93.671,100L6.329,100C2.836,100 0,97.09 0,93.506L0,6.494C0,2.91 2.836,0 6.329,0L93.671,0C97.164,0 100,2.91 100,6.494Z" style="fill:rgb(235,235,235);"/></g><g transform="matrix(1,0,0,1,163.792,16.6861)"><g transform="matrix(10,0,0,10,33.0688,0)"></g><text x="8.054px" y="0px" style="font-family:'Helvetica';font-size:10px;">Kotlin</text></g><g id="kotlin.svg" transform="matrix(1.77778,0,0,1.77778,183.311,-12.5876)"><g transform="matrix(1,0,0,1,-9,-8)"><g transform="matrix(0.7,0,0,0.7,2,1)"><g id="kotlin"><g><path d="M20,20L0,20L0,0L20,0L9.793,9.855L20,20Z" style="fill:url(#_Radial1);fill-rule:nonzero;"/></g></g></g></g></g><g transform="matrix(0.79,0,0,0.77,234.834,-42.0472)"><path d="M100,6.494L100,93.506C100,97.09 97.164,100 93.671,100L6.329,100C2.836,100 0,97.09 0,93.506L0,6.494C0,2.91 2.836,0 6.329,0L93.671,0C97.164,0 100,2.91 100,6.494Z" style="fill:rgb(235,235,235);"/></g><g transform="matrix(1,0,0,1,253.996,16.6861)"><g transform="matrix(10,0,0,10,35.2856,0)"></g><text x="5.837px" y="0px" style="font-family:'Helvetica';font-size:10px;">my[py]</text></g><g transform="matrix(0.79,0,0,0.77,325.857,-42.0472)"><path d="M100,6.494L100,93.506C100,97.09 97.164,100 93.671,100L6.329,100C2.836,100 0,97.09 0,93.506L0,6.494C0,2.91 2.836,0 6.329,0L93.671,0C97.164,0 100,2.91 100,6.494Z" style="fill:rgb(235,235,235);"/></g><g transform="matrix(1,0,0,1,345.017,16.6861)"><g transform="matrix(10,0,0,10,35.5688,0)"></g><text x="5.554px" y="0px" style="font-family:'Helvetica';font-size:10px;">RSpec</text></g><g id="vite.svg" transform="matrix(1.77778,0,0,1.77778,1.26495,-12.5876)"><g transform="matrix(1,0,0,1,-9,-8)"><g transform="matrix(0.0371287,0,0,0.0371287,1.38862,0.500003)"><g id="vite"><g><path d="M399.641,59.525L215.643,388.545C211.844,395.338 202.084,395.378 198.228,388.618L10.582,59.556C6.381,52.19 12.68,43.267 21.028,44.759L205.223,77.682C206.398,77.892 207.601,77.89 208.776,77.676L389.119,44.806C397.439,43.289 403.768,52.143 399.641,59.525Z" style="fill:url(#_Linear2);fill-rule:nonzero;"/><path d="M292.965,1.574L156.801,28.255C154.563,28.694 152.906,30.59 152.771,32.866L144.395,174.33C144.198,177.662 147.258,180.248 150.51,179.498L188.42,170.749C191.967,169.931 195.172,173.055 194.443,176.622L183.18,231.775C182.422,235.487 185.907,238.661 189.532,237.56L212.947,230.446C216.577,229.344 220.065,232.527 219.297,236.242L201.398,322.875C200.278,328.294 207.486,331.249 210.492,326.603L212.5,323.5L323.454,102.072C325.312,98.365 322.108,94.137 318.036,94.923L279.014,102.454C275.347,103.161 272.227,99.746 273.262,96.158L298.731,7.867C299.767,4.273 296.636,0.855 292.965,1.574Z" style="fill:url(#_Linear3);fill-rule:nonzero;"/></g></g></g></g></g><g id="mypy.svg" transform="matrix(1.77778,0,0,1.77778,274.334,-12.5876)"><g transform="matrix(1,0,0,1,-9,-8)"><g transform="matrix(0.0852757,0,0,0.0852757,1.5,0.500002)"><g id="mypy"><g><g><clipPath id="_clip4"><rect x="0" y="0" width="175.9" height="175.9"/></clipPath><g clip-path="url(#_clip4)"><g id="path8615" transform="matrix(1,0,0,1,0,-0.024005)"><path d="M87.797,0C42.897,0 45.701,19.472 45.701,19.472L45.751,39.644L88.598,39.644L88.598,45.7L28.732,45.7C28.732,45.7 0,42.442 0,87.747C0,133.052 25.078,131.445 25.078,131.445L40.044,131.445L40.044,110.422C40.044,110.422 39.237,85.344 64.721,85.344L107.218,85.344C107.218,85.344 131.095,85.73 131.095,62.269L131.095,23.476C131.095,23.476 134.72,-0 87.797,-0ZM64.171,13.565C68.434,13.565 71.879,17.01 71.879,21.273C71.879,25.536 68.434,28.982 64.171,28.982C59.908,28.982 56.462,25.536 56.462,21.273C56.462,17.01 59.908,13.565 64.171,13.565Z" style="fill:rgb(42,109,178);fill-rule:nonzero;"/></g><g id="path8620" transform="matrix(1,0,0,1,0,-0.024005)"><path d="M89.072,175.948C133.973,175.948 131.169,156.477 131.169,156.477L131.119,136.304L88.271,136.304L88.271,130.248L148.137,130.248C148.137,130.248 176.869,133.506 176.869,88.201C176.869,42.896 151.791,44.503 151.791,44.503L136.825,44.503L136.825,65.526C136.825,65.526 137.632,90.604 112.148,90.604L69.651,90.604C69.651,90.604 45.774,90.218 45.774,113.679L45.774,152.472C45.774,152.472 42.149,175.948 89.072,175.948ZM112.698,162.383C108.435,162.383 104.99,158.938 104.99,154.675C104.99,150.412 108.435,146.966 112.698,146.966C116.961,146.966 120.407,150.412 120.407,154.675C120.407,158.938 116.961,162.383 112.698,162.383Z" style="fill:rgb(80,80,80);fill-rule:nonzero;"/></g></g></g></g></g></g></g></g><g id="rspec.svg" transform="matrix(1.77778,0,0,1.77778,365.357,-12.5876)"><g transform="matrix(1,0,0,1,-9,-8)"><g id="rspec"><g transform="matrix(1,0,0,1.00846,0.02311,-0.0127989)"><path d="M2.442,10.473C2.132,9.69 1.962,8.837 1.962,7.946C1.962,4.115 5.105,1.004 8.977,1.004C9.057,1.004 9.136,1.006 9.216,1.008L9.748,1.923L9.12,2.791C9.073,2.79 9.025,2.789 8.977,2.789C6.112,2.789 3.786,5.1 3.786,7.946C3.786,8.643 3.926,9.309 4.179,9.916L3.134,9.65L2.442,10.473Z" style="fill:rgb(64,218,244);"/></g><g transform="matrix(1,0,0,1.00846,0.02311,-0.0127989)"><path d="M9.589,1.03C13.175,1.338 15.992,4.319 15.992,7.946C15.992,8.928 15.786,9.862 15.413,10.709L14.418,10.694L13.86,9.699C14.059,9.151 14.168,8.561 14.168,7.946C14.168,5.29 12.143,3.101 9.545,2.82L10.16,1.978L9.589,1.03Z" style="fill:rgb(151,240,255);"/></g><g transform="matrix(1,0,0,1.00846,0.02311,-0.0127989)"><path d="M15.268,11.019C14.121,13.31 11.734,14.887 8.977,14.887C6.136,14.887 3.687,13.212 2.584,10.807L3.247,10.052L4.353,10.289C5.212,11.958 6.961,13.102 8.977,13.102C11.055,13.102 12.85,11.886 13.679,10.132L14.146,11.019L15.268,11.019Z" style="fill:rgb(109,225,250);"/></g><path d="M5.54,7.702L8.92,11.773L12.118,7.954L12.7,6.939L10.868,5.024L7.065,5.027L5.167,6.995L5.54,7.702Z" style="fill:rgb(254,64,95);"/><path d="M8.043,7.045L8.99,5.025L9.869,7.038L8.043,7.045Z" style="fill:rgb(255,74,109);"/><path d="M10.231,5.022L9.869,7.038L11.518,7.004L10.645,5.022L10.231,5.022Z" style="fill:rgb(255,74,109);"/><path d="M6.321,7.034L7.311,5.046L7.822,5.05L8.025,7.021L6.321,7.034Z" style="fill:rgb(255,74,109);"/><path d="M5.869,8.01L6.81,8.057L6.362,7.098L5.237,6.979L5.869,8.01Z" style="fill:rgb(255,74,109);"/><path d="M7.589,8.121L8.495,8.283L8.042,7.076L7.589,8.121Z" style="fill:rgb(255,74,109);"/><path d="M9.478,8.257L10.322,8.146L9.893,7.083L9.478,8.257Z" style="fill:rgb(255,74,109);"/><path d="M11.032,8.116L11.59,7.099L12.594,7.051L12.008,8.009L11.032,8.116Z" style="fill:rgb(255,74,109);"/><path d="M6.869,8.115L7.561,8.131L8.86,11.652L6.869,8.115Z" style="fill:rgb(255,74,109);"/><path d="M8.488,8.272L9.442,8.271L8.991,11.691L8.488,8.272Z" style="fill:rgb(255,74,109);"/><path d="M10.343,8.174L11.065,8.12L9.111,11.532L10.343,8.174Z" style="fill:rgb(255,74,109);"/></g></g></g><g transform="matrix(0.79,0,0,0.77,-38.2351,49.8231)"><path d="M100,6.494L100,93.506C100,97.09 97.164,100 93.671,100L6.329,100C2.836,100 0,97.09 0,93.506L0,6.494C0,2.91 2.836,0 6.329,0L93.671,0C97.164,0 100,2.91 100,6.494Z" style="fill:rgb(235,235,235);"/></g><g transform="matrix(1,0,0,1,-19.6383,106.971)"><g transform="matrix(10,0,0,10,31.394,0)"></g><text x="9.729px" y="0px" style="font-family:'Helvetica';font-size:10px;">Elixir</text></g><g transform="matrix(0.79,0,0,0.77,52.7879,49.8231)"><path d="M100,6.494L100,93.506C100,97.09 97.164,100 93.671,100L6.329,100C2.836,100 0,97.09 0,93.506L0,6.494C0,2.91 2.836,0 6.329,0L93.671,0C97.164,0 100,2.91 100,6.494Z" style="fill:rgb(235,235,235);"/></g><g transform="matrix(1,0,0,1,70.8346,106.971)"><g transform="matrix(10,0,0,10,34.458,0)"></g><text x="6.665px" y="0px" style="font-family:'Helvetica';font-size:10px;">Svelte</text></g><g transform="matrix(0.79,0,0,0.77,143.811,49.8231)"><path d="M100,6.494L100,93.506C100,97.09 97.164,100 93.671,100L6.329,100C2.836,100 0,97.09 0,93.506L0,6.494C0,2.91 2.836,0 6.329,0L93.671,0C97.164,0 100,2.91 100,6.494Z" style="fill:rgb(235,235,235);"/></g><g transform="matrix(1,0,0,1,163.057,106.971)"><g transform="matrix(10,0,0,10,35.293,0)"></g><text x="5.83px" y="0px" style="font-family:'Helvetica';font-size:10px;">ESLint</text></g><g id="eslint.svg" transform="matrix(1.77778,0,0,1.77778,183.309,79.3231)"><g transform="matrix(1,0,0,1,-9,-8)"><g id="eslint.svg1" serif:id="eslint.svg" transform="matrix(0.625,0,0,0.625,1.5,0.5)"><g><path d="M12.183,6.521L12.184,6.522L12.185,6.522L12.183,6.521ZM11.815,17.644L11.814,17.643L11.813,17.643L11.815,17.644ZM23.849,11.066L23.851,11.071L23.852,11.071L23.849,11.066Z" style="fill-rule:nonzero;"/><path d="M7.309,9.012L11.862,6.383C11.976,6.317 12.116,6.317 12.23,6.383L16.783,9.012C16.897,9.078 16.967,9.2 16.967,9.331L16.967,14.589C16.967,14.721 16.897,14.842 16.783,14.908L12.23,17.537C12.116,17.603 11.976,17.603 11.862,17.537L7.309,14.908C7.195,14.842 7.125,14.72 7.125,14.589L7.125,9.331C7.125,9.199 7.195,9.078 7.309,9.012Z" style="fill:rgb(128,128,242);fill-rule:nonzero;"/><path d="M23.852,11.529L18.406,2.054C18.208,1.711 17.843,1.459 17.447,1.459L6.554,1.459C6.158,1.459 5.793,1.712 5.595,2.054L0.149,11.508C-0.049,11.854 -0.049,12.28 0.149,12.626L5.595,22.023C5.793,22.366 6.158,22.541 6.554,22.541L17.447,22.541C17.843,22.541 18.208,22.371 18.406,22.028L23.852,12.615C24.049,12.28 24.049,11.864 23.852,11.529ZM19.342,16.085C19.338,16.226 19.26,16.354 19.137,16.423L12.2,20.426C12.079,20.496 11.929,20.496 11.808,20.426L4.865,16.424C4.742,16.355 4.664,16.227 4.66,16.086L4.66,8.08C4.664,7.939 4.741,7.811 4.864,7.742L11.8,3.74C11.921,3.67 12.071,3.67 12.192,3.74L19.135,7.743C19.258,7.811 19.337,7.94 19.341,8.081L19.342,16.085Z" style="fill:rgb(75,50,195);fill-rule:nonzero;"/></g></g></g></g><g transform="matrix(0.79,0,0,0.77,234.834,49.8231)"><path d="M100,6.494L100,93.506C100,97.09 97.164,100 93.671,100L6.329,100C2.836,100 0,97.09 0,93.506L0,6.494C0,2.91 2.836,0 6.329,0L93.671,0C97.164,0 100,2.91 100,6.494Z" style="fill:rgb(235,235,235);"/></g><g transform="matrix(1,0,0,1,252.735,106.971)"><g transform="matrix(10,0,0,10,36.4014,0)"></g><text x="4.722px" y="0px" style="font-family:'Helvetica';font-size:10px;">Clojure</text></g><g transform="matrix(0.79,0,0,0.77,325.857,49.8231)"><path d="M100,6.494L100,93.506C100,97.09 97.164,100 93.671,100L6.329,100C2.836,100 0,97.09 0,93.506L0,6.494C0,2.91 2.836,0 6.329,0L93.671,0C97.164,0 100,2.91 100,6.494Z" style="fill:rgb(235,235,235);"/></g><g transform="matrix(1,0,0,1,344.41,106.971)"><g transform="matrix(10,0,0,10,36.6772,0)"></g><text x="4.446px" y="0px" style="font-family:'Helvetica';font-size:10px;">Prettier</text></g><g id="elixir.svg" transform="matrix(1.77778,0,0,1.77778,1.26495,79.3231)"><g transform="matrix(1,0,0,1,-9,-8)"><g id="elixir" transform="matrix(0.234375,0,0,0.234375,1.5,0.5)"><g><g><g><path d="M34.034,0.161C29.384,1.809 24.895,6.62 20.568,14.592C14.077,26.552 5.694,43.546 17.238,57.001C22.578,63.226 31.396,66.9 42.969,61.081C52.265,56.407 54.851,42.993 51.513,36.689C44.628,23.686 37.643,20.479 35.773,12.415C34.526,7.039 33.946,2.955 34.034,0.161Z" style="fill:url(#_Linear5);"/><path d="M34.034,-0C29.36,1.665 24.872,6.476 20.568,14.431C14.113,26.365 5.694,43.385 17.238,56.84C22.578,63.065 31.283,65.076 36.113,61.385C39.262,58.978 41.403,56.684 42.637,51.85C44.011,46.468 42.957,39.221 42.234,35.893C41.32,31.68 41.021,27.057 41.337,22.023C41.226,21.887 41.143,21.786 41.088,21.719C38.573,18.641 36.633,15.961 35.773,12.254C34.526,6.878 33.946,2.794 34.034,-0Z" style="fill:url(#_Linear6);"/><path d="M30.164,2.094C25.811,5.534 22.575,11.304 20.455,19.405C17.275,31.555 16.93,42.76 18.052,49.278C20.226,61.912 31.498,66.708 43.059,60.827C50.174,57.208 53.138,49.44 52.981,41.007C52.818,32.276 35.946,22.381 32.958,15.095C30.966,10.237 30.035,5.903 30.164,2.094Z" style="fill:url(#_Linear7);"/><path d="M41.199,24.874C46.42,31.569 47.558,36.23 44.613,38.856C40.197,42.795 29.396,45.365 22.677,40.6C18.197,37.423 16.502,30.609 17.592,20.156C15.743,24.018 14.179,27.93 12.902,31.892C11.624,35.854 11.251,40 11.782,44.331C13.384,47.571 17.277,49.734 23.463,50.822C32.741,52.454 41.523,51.647 47.415,48.677C51.344,46.697 53.202,44.725 52.99,42.763C53.131,39.865 52.238,37.107 50.309,34.487C48.38,31.868 45.343,28.664 41.199,24.874Z" style="fill:url(#_Linear8);"/><path d="M20.799,18.189C20.756,23.024 21.999,27.62 24.529,31.978C28.324,38.515 32.754,44.973 39.383,50.327C43.803,53.896 47.334,55.049 49.977,53.786C47.806,57.672 45.498,59.576 43.052,59.498C39.383,59.382 34.91,57.778 27.742,49.165C22.964,43.423 19.695,37.991 17.936,32.87C18.215,30.838 18.511,28.815 18.823,26.799C19.136,24.784 19.795,21.914 20.799,18.189Z" style="fill:url(#_Linear9);"/><path d="M32.011,24.824C32.417,28.763 33.949,35.064 32.011,39.259C30.073,43.454 21.121,51.032 23.592,57.708C26.063,64.384 32.085,62.886 35.863,59.809C39.641,56.732 41.663,51.73 42.111,48.211C42.559,44.693 41.039,37.924 40.544,32.035C40.215,28.11 40.438,24.744 41.215,21.938L40.058,20.482L33.244,18.464C32.152,20.079 31.741,22.199 32.011,24.824Z" style="fill:url(#_Linear10);"/><path d="M34.443,5.315C32.238,6.247 30.149,8.093 28.175,10.854C25.215,14.995 23.707,17.478 24.823,25.687C25.567,31.16 26.1,36.195 26.421,40.792L35.964,13.065C35.613,11.652 35.321,10.376 35.089,9.237C34.856,8.098 34.641,6.791 34.443,5.315Z" style="fill:url(#_Linear11);"/><path d="M35.946,13.01C33.523,14.424 31.646,17.321 30.314,21.701C28.983,26.08 27.764,32.203 26.659,40.069C28.133,35.066 29.111,31.443 29.592,29.198C30.314,25.832 30.561,21.071 32.479,17.839C33.757,15.684 34.913,14.075 35.946,13.01Z" style="fill:rgb(51,10,76);fill-opacity:0.31;"/><path d="M24.729,59.938C28.715,60.508 30.8,61.014 30.983,61.457C31.257,62.122 30.478,62.73 28.265,62.321C26.79,62.049 25.611,61.254 24.729,59.938Z" style="fill:white;"/><path d="M26.732,5.315C24.539,7.934 22.639,10.712 21.031,13.646C19.424,16.581 18.275,18.771 17.586,20.215C17.372,21.292 17.268,22.881 17.273,24.982C17.278,27.084 17.46,29.421 17.818,31.992C18.132,26.956 19.093,22.068 20.7,17.328C22.308,12.587 24.318,8.583 26.732,5.315Z" style="fill:rgb(237,237,237);fill-opacity:0.6;"/></g></g></g></g></g></g><g id="svelte.svg" transform="matrix(1.77778,0,0,1.77778,91.8396,79.3231)"><g transform="matrix(1,0,0,1,-9,-8)"><g transform="matrix(0.118644,0,0,0.118644,3.18051,1)"><g id="svelte"><g><g><clipPath id="_clip12"><rect x="0" y="0" width="98.1" height="118"/></clipPath><g clip-path="url(#_clip12)"><path d="M91.8,15.6C80.9,-0.1 59.2,-4.7 43.6,5.2L16.1,22.8C8.6,27.5 3.4,35.2 1.9,43.9C0.6,51.2 1.7,58.7 5.2,65.2C2.8,68.8 1.2,72.8 0.5,77C-1.1,85.9 1,95.1 6.2,102.4C17.2,118.1 38.8,122.7 54.4,112.8L81.9,95.3C89.4,90.6 94.6,82.9 96.1,74.2C97.4,66.9 96.3,59.4 92.8,52.9C95.2,49.3 96.8,45.3 97.5,41.1C99.2,32.1 97.1,22.9 91.8,15.6" style="fill:rgb(255,62,0);fill-rule:nonzero;"/><path d="M40.9,103.9C32,106.2 22.7,102.7 17.5,95.2C14.3,90.8 13.1,85.3 14,79.9C14.2,79 14.4,78.2 14.6,77.3L15.1,75.7L16.5,76.7C19.8,79.1 23.4,80.9 27.3,82.1L28.3,82.4L28.2,83.4C28.1,84.8 28.5,86.3 29.3,87.5C30.9,89.8 33.7,90.9 36.4,90.2C37,90 37.6,89.8 38.1,89.5L65.5,72C66.9,71.1 67.8,69.8 68.1,68.2C68.4,66.6 68,64.9 67.1,63.6C65.5,61.3 62.7,60.3 60,61C59.4,61.2 58.8,61.4 58.3,61.7L47.8,68.4C46.1,69.5 44.2,70.3 42.2,70.8C33.3,73.1 24,69.6 18.8,62.1C15.7,57.7 14.4,52.2 15.4,46.8C16.3,41.6 19.5,36.9 24,34.1L51.5,16.6C53.2,15.5 55.1,14.7 57.1,14.1C66,11.8 75.3,15.3 80.5,22.8C83.7,27.2 84.9,32.7 84,38.1C83.8,39 83.6,39.8 83.3,40.7L82.8,42.3L81.4,41.3C78.1,38.9 74.5,37.1 70.6,35.9L69.6,35.6L69.7,34.6C69.8,33.2 69.4,31.7 68.6,30.5C67,28.2 64.2,27.2 61.5,27.9C60.9,28.1 60.3,28.3 59.8,28.6L32.4,46.1C31,47 30.1,48.3 29.8,49.9C29.5,51.5 29.9,53.2 30.8,54.5C32.4,56.8 35.2,57.8 37.9,57.1C38.5,56.9 39.1,56.7 39.6,56.4L50.1,49.7C51.8,48.6 53.7,47.8 55.7,47.2C64.6,44.9 73.9,48.4 79.1,55.9C82.3,60.3 83.5,65.8 82.6,71.2C81.7,76.4 78.5,81.1 74,83.9L46.5,101.4C44.8,102.5 42.9,103.3 40.9,103.9" style="fill:white;fill-rule:nonzero;"/></g></g></g></g></g></g></g><g id="clojure.svg" transform="matrix(1.77778,0,0,1.77778,274.334,79.3231)"><g transform="matrix(1,0,0,1,-9,-8)"><g id="clojure" transform="matrix(0.0585938,0,0,0.0585938,1.5,0.499854)"><path id="path8" d="M127.999,0C57.423,0 0,57.423 0,128.001C0,198.585 57.423,256.005 127.999,256.005C198.577,256.005 256,198.585 256,128.001C256,57.423 198.577,0 127.999,0" style="fill:white;fill-rule:nonzero;"/><path id="path10" d="M123.318,130.303C122.168,132.795 120.899,135.595 119.585,138.575C114.94,149.099 109.796,161.905 107.917,170.109C107.242,173.031 106.824,176.652 106.832,180.667C106.832,182.255 106.917,183.924 107.052,185.624C113.619,188.037 120.712,189.364 128.119,189.377C134.862,189.364 141.34,188.25 147.403,186.234C145.978,184.931 144.618,183.542 143.38,181.977C135.16,171.495 130.574,156.133 123.318,130.303" style="fill:rgb(145,220,71);fill-rule:nonzero;"/><path id="path12" d="M92.97,78.225C77.271,89.289 66.998,107.537 66.959,128.217C66.998,148.588 76.962,166.6 92.266,177.71C96.02,162.073 105.43,147.755 119.541,119.055C118.703,116.753 117.748,114.233 116.679,111.586C112.77,101.78 107.128,90.392 102.093,85.235C99.526,82.541 96.411,80.213 92.97,78.225" style="fill:rgb(145,220,71);fill-rule:nonzero;"/><path id="path14" d="M181.394,198.367C173.294,197.352 166.609,196.127 160.761,194.064C150.925,198.948 139.848,201.707 128.119,201.707C87.535,201.707 54.636,168.813 54.631,128.217C54.631,106.19 64.335,86.444 79.687,72.977C75.581,71.985 71.299,71.406 66.925,71.414C45.363,71.617 22.602,83.55 13.126,115.777C12.24,120.468 12.451,124.015 12.451,128.219C12.451,192.104 64.242,243.895 128.122,243.895C167.244,243.895 201.804,224.456 222.733,194.726C211.413,197.547 200.527,198.896 191.205,198.925C187.711,198.925 184.431,198.738 181.394,198.367" style="fill:rgb(99,177,50);fill-rule:nonzero;"/><path id="path16" d="M159.658,175.953C160.372,176.307 161.991,176.885 164.244,177.524C179.401,166.397 189.251,148.474 189.29,128.217L189.284,128.217C189.227,94.446 161.898,67.121 128.119,67.054C121.405,67.067 114.955,68.175 108.916,70.176C121.335,84.332 127.307,104.562 133.084,126.691C133.087,126.701 133.092,126.709 133.094,126.717C133.105,126.735 134.942,132.862 138.096,140.991C141.228,149.109 145.69,159.159 150.556,166.483C153.751,171.391 157.265,174.918 159.658,175.953" style="fill:rgb(144,180,254);fill-rule:nonzero;"/><path id="path18" d="M128.122,12.541C89.378,12.541 55.106,31.614 34.114,60.859C45.039,54.017 56.194,51.549 65.929,51.637C79.375,51.676 89.946,55.845 95.018,58.697C96.243,59.403 97.406,60.163 98.545,60.944C107.595,56.958 117.595,54.729 128.119,54.729C168.708,54.734 201.612,87.628 201.618,128.217L201.612,128.217C201.612,148.681 193.242,167.184 179.749,180.508C183.061,180.879 186.593,181.11 190.2,181.092C203.011,181.098 216.858,178.271 227.239,169.54C234.008,163.838 239.679,155.489 242.824,142.971C243.439,138.136 243.793,133.221 243.793,128.219C243.793,64.337 192.007,12.541 128.122,12.541" style="fill:rgb(88,129,216);fill-rule:nonzero;"/></g></g></g><g id="prettier.svg" transform="matrix(1.77778,0,0,1.77778,365.357,79.3231)"><g transform="matrix(1,0,0,1,-9,-8)"><g id="Icon--Light-" transform="matrix(0.0626668,0,0,0.0626668,2.42,1.42)"><g id="prettier"><g><g id="Icon--Light-1" serif:id="Icon--Light-"><g id="key"><g id="prettier-banner-light"><g id="Icon--Light-11" serif:id="Icon--Light-1"><g id="line-11" transform="matrix(1,0,0,1,0,200)"><path id="line-11-dash-3" d="M210,2.234L210,7.766C210,8.999 208.999,10 207.766,10L152.234,10C151.001,10 150,8.999 150,7.766L150,2.234C150,1.001 151.001,0 152.234,0L207.766,0C208.999,0 210,1.001 210,2.234Z" style="fill:rgb(207,212,215);fill-opacity:0.5;"/><path id="line-11-dash-2" d="M140,2.234L140,7.766C140,8.999 138.999,10 137.766,10L72.234,10C71.001,10 70,8.999 70,7.766L70,2.234C70,1.001 71.001,0 72.234,0L137.766,0C138.999,0 140,1.001 140,2.234Z" style="fill:rgb(207,212,215);fill-opacity:0.5;"/><path id="line-11-dash-1" d="M60,2.234L60,7.766C60,8.999 58.999,10 57.766,10L2.234,10C1.001,10 0,8.999 0,7.766L0,2.234C0,1.001 1.001,0 2.234,0L57.766,0C58.999,0 60,1.001 60,2.234Z" style="fill:rgb(234,94,94);"/></g><g id="line-10" transform="matrix(1,0,0,1,0,180)"><path id="line-10-dash-5" d="M210,2.234L210,7.766C210,8.999 208.999,10 207.766,10L162.234,10C161.001,10 160,8.999 160,7.766L160,2.234C160,1.001 161.001,0 162.234,0L207.766,0C208.999,0 210,1.001 210,2.234Z" style="fill:rgb(207,212,215);fill-opacity:0.5;"/><path id="line-10-dash-4" d="M150,2.234L150,7.766C150,8.999 148.999,10 147.766,10L132.234,10C131.001,10 130,8.999 130,7.766L130,2.234C130,1.001 131.001,0 132.234,0L147.766,0C148.999,0 150,1.001 150,2.234Z" style="fill:rgb(207,212,215);fill-opacity:0.5;"/><path id="line-10-dash-3" d="M120,2.234L120,7.766C120,8.999 118.999,10 117.766,10L72.234,10C71.001,10 70,8.999 70,7.766L70,2.234C70,1.001 71.001,0 72.234,0L117.766,0C118.999,0 120,1.001 120,2.234Z" style="fill:rgb(207,212,215);fill-opacity:0.5;"/><path id="line-10-dash-2" d="M60,2.234L60,7.766C60,8.999 58.999,10 57.766,10L42.234,10C41.001,10 40,8.999 40,7.766L40,2.234C40,1.001 41.001,0 42.234,0L57.766,0C58.999,0 60,1.001 60,2.234Z" style="fill:rgb(247,185,62);"/><path id="line-10-dash-1" d="M30,2.234L30,7.766C30,8.999 28.999,10 27.766,10L2.234,10C1.001,10 0,8.999 0,7.766L0,2.234C0,1.001 1.001,0 2.234,0L27.766,0C28.999,0 30,1.001 30,2.234Z" style="fill:rgb(86,179,180);"/></g><g id="line-9" transform="matrix(1,0,0,1,0,160)"><path id="line-9-dash-3" d="M210,2.234L210,7.766C210,8.999 208.999,10 207.766,10L112.234,10C111.001,10 110,8.999 110,7.766L110,2.234C110,1.001 111.001,0 112.234,0L207.766,0C208.999,0 210,1.001 210,2.234Z" style="fill:rgb(207,212,215);fill-opacity:0.5;"/><path id="line-9-dash-2" d="M100,2.234L100,7.766C100,8.999 98.999,10 97.766,10L72.234,10C71.001,10 70,8.999 70,7.766L70,2.234C70,1.001 71.001,0 72.234,0L97.766,0C98.999,0 100,1.001 100,2.234Z" style="fill:rgb(207,212,215);fill-opacity:0.5;"/><path id="line-9-dash-1" d="M60,2.234L60,7.766C60,8.999 58.999,10 57.766,10L2.234,10C1.001,10 0,8.999 0,7.766L0,2.234C0,1.001 1.001,0 2.234,0L57.766,0C58.999,0 60,1.001 60,2.234Z" style="fill:rgb(191,133,191);"/></g><g id="line-8" transform="matrix(1,0,0,1,0,140)"><path id="line-8-dash-4" d="M210,2.234L210,7.766C210,8.999 208.999,10 207.766,10L182.234,10C181.001,10 180,8.999 180,7.766L180,2.234C180,1.001 181.001,0 182.234,0L207.766,0C208.999,0 210,1.001 210,2.234Z" style="fill:rgb(207,212,215);fill-opacity:0.5;"/><path id="line-8-dash-3" d="M170,2.234L170,7.766C170,8.999 168.999,10 167.766,10L142.234,10C141.001,10 140,8.999 140,7.766L140,2.234C140,1.001 141.001,0 142.234,0L167.766,0C168.999,0 170,1.001 170,2.234Z" style="fill:rgb(207,212,215);fill-opacity:0.5;"/><path id="line-8-dash-2" d="M130,2.234L130,7.766C130,8.999 128.999,10 127.766,10L32.234,10C31.001,10 30,8.999 30,7.766L30,2.234C30,1.001 31.001,0 32.234,0L127.766,0C128.999,0 130,1.001 130,2.234Z" style="fill:rgb(247,185,62);"/><path id="line-8-dash-1" d="M20,2.234L20,7.766C20,8.999 18.999,10 17.766,10L2.234,10C1.001,10 0,8.999 0,7.766L0,2.234C0,1.001 1.001,0 2.234,0L17.766,0C18.999,0 20,1.001 20,2.234Z" style="fill:rgb(191,133,191);"/></g><g id="line-7" transform="matrix(1,0,0,1,0,120)"><path id="line-7-dash-4" d="M210,2.234L210,7.766C210,8.999 208.999,10 207.766,10L172.234,10C171.001,10 170,8.999 170,7.766L170,2.234C170,1.001 171.001,0 172.234,0L207.766,0C208.999,0 210,1.001 210,2.234Z" style="fill:rgb(207,212,215);fill-opacity:0.5;"/><path id="line-7-dash-3" d="M160,2.234L160,7.766C160,8.999 158.999,10 157.766,10L122.234,10C121.001,10 120,8.999 120,7.766L120,2.234C120,1.001 121.001,0 122.234,0L157.766,0C158.999,0 160,1.001 160,2.234Z" style="fill:rgb(191,133,191);"/><path id="line-7-dash-2" d="M110,2.234L110,7.766C110,8.999 108.999,10 107.766,10L62.234,10C61.001,10 60,8.999 60,7.766L60,2.234C60,1.001 61.001,0 62.234,0L107.766,0C108.999,0 110,1.001 110,2.234Z" style="fill:rgb(234,94,94);"/><path id="line-7-dash-1" d="M50,2.234L50,7.766C50,8.999 48.999,10 47.766,10L2.234,10C1.001,10 0,8.999 0,7.766L0,2.234C0,1.001 1.001,0 2.234,0L47.766,0C48.999,0 50,1.001 50,2.234Z" style="fill:rgb(86,179,180);"/></g><g id="line-6" transform="matrix(1,0,0,1,0,100)"><path id="line-6-dash-4" d="M210,2.234L210,7.766C210,8.999 208.999,10 207.766,10L182.234,10C181.001,10 180,8.999 180,7.766L180,2.234C180,1.001 181.001,0 182.234,0L207.766,0C208.999,0 210,1.001 210,2.234Z" style="fill:rgb(207,212,215);fill-opacity:0.5;"/><path id="line-6-dash-3" d="M170,2.234L170,7.766C170,8.999 168.999,10 167.766,10L82.234,10C81.001,10 80,8.999 80,7.766L80,2.234C80,1.001 81.001,0 82.234,0L167.766,0C168.999,0 170,1.001 170,2.234Z" style="fill:rgb(86,179,180);"/><path id="line-6-dash-2" d="M70,2.234L70,7.766C70,8.999 68.999,10 67.766,10L32.234,10C31.001,10 30,8.999 30,7.766L30,2.234C30,1.001 31.001,0 32.234,0L67.766,0C68.999,0 70,1.001 70,2.234Z" style="fill:rgb(247,185,62);"/><path id="line-6-dash-1" d="M20,2.234L20,7.766C20,8.999 18.999,10 17.766,10L2.234,10C1.001,10 0,8.999 0,7.766L0,2.234C0,1.001 1.001,0 2.234,0L17.766,0C18.999,0 20,1.001 20,2.234Z" style="fill:rgb(234,94,94);"/></g><g id="line-5" transform="matrix(1,0,0,1,0,80)"><path id="line-5-dash-4" d="M210,2.234L210,7.766C210,8.999 208.999,10 207.766,10L192.234,10C191.001,10 190,8.999 190,7.766L190,2.234C190,1.001 191.001,0 192.234,0L207.766,0C208.999,0 210,1.001 210,2.234Z" style="fill:rgb(207,212,215);fill-opacity:0.5;"/><path id="line-5-dash-3" d="M180,2.234L180,7.766C180,8.999 178.999,10 177.766,10L122.234,10C121.001,10 120,8.999 120,7.766L120,2.234C120,1.001 121.001,0 122.234,0L177.766,0C178.999,0 180,1.001 180,2.234Z" style="fill:rgb(247,185,62);"/><path id="line-5-dash-2" d="M110,2.234L110,7.766C110,8.999 108.999,10 107.766,10L72.234,10C71.001,10 70,8.999 70,7.766L70,2.234C70,1.001 71.001,0 72.234,0L107.766,0C108.999,0 110,1.001 110,2.234Z" style="fill:rgb(207,212,215);fill-opacity:0.5;"/><path id="line-5-dash-1" d="M60,2.234L60,7.766C60,8.999 58.999,10 57.766,10L2.234,10C1.001,10 0,8.999 0,7.766L0,2.234C0,1.001 1.001,0 2.234,0L57.766,0C58.999,0 60,1.001 60,2.234Z" style="fill:rgb(191,133,191);"/></g><g id="line-4" transform="matrix(1,0,0,1,0,60)"><path id="line-4-dash-5" d="M210,2.234L210,7.766C210,8.999 208.999,10 207.766,10L192.234,10C191.001,10 190,8.999 190,7.766L190,2.234C190,1.001 191.001,0 192.234,0L207.766,0C208.999,0 210,1.001 210,2.234Z" style="fill:rgb(207,212,215);fill-opacity:0.5;"/><path id="line-4-dash-4" d="M180,2.234L180,7.766C180,8.999 178.999,10 177.766,10L122.234,10C121.001,10 120,8.999 120,7.766L120,2.234C120,1.001 121.001,0 122.234,0L177.766,0C178.999,0 180,1.001 180,2.234Z" style="fill:rgb(234,94,94);"/><path id="line-4-dash-3" d="M110,2.234L110,7.766C110,8.999 108.999,10 107.766,10L72.234,10C71.001,10 70,8.999 70,7.766L70,2.234C70,1.001 71.001,0 72.234,0L107.766,0C108.999,0 110,1.001 110,2.234Z" style="fill:rgb(207,212,215);fill-opacity:0.5;"/><path id="line-4-dash-2" d="M60,2.234L60,7.766C60,8.999 58.999,10 57.766,10L42.234,10C41.001,10 40,8.999 40,7.766L40,2.234C40,1.001 41.001,0 42.234,0L57.766,0C58.999,0 60,1.001 60,2.234Z" style="fill:rgb(86,179,180);"/><path id="line-4-dash-1" d="M30,2.234L30,7.766C30,8.999 28.999,10 27.766,10L2.234,10C1.001,10 0,8.999 0,7.766L0,2.234C0,1.001 1.001,0 2.234,0L27.766,0C28.999,0 30,1.001 30,2.234Z" style="fill:rgb(247,185,62);"/></g><g id="line-3" transform="matrix(1,0,0,1,0,40)"><path id="line-3-dash-4" d="M210,2.234L210,7.766C210,8.999 208.999,10 207.766,10L182.234,10C181.001,10 180,8.999 180,7.766L180,2.234C180,1.001 181.001,0 182.234,0L207.766,0C208.999,0 210,1.001 210,2.234Z" style="fill:rgb(207,212,215);fill-opacity:0.5;"/><path id="line-3-dash-3" d="M170,2.234L170,7.766C170,8.999 168.999,10 167.766,10L152.234,10C151.001,10 150,8.999 150,7.766L150,2.234C150,1.001 151.001,0 152.234,0L167.766,0C168.999,0 170,1.001 170,2.234Z" style="fill:rgb(86,179,180);"/><path id="line-3-dash-2" d="M140,2.234L140,7.766C140,8.999 138.999,10 137.766,10L92.234,10C91.001,10 90,8.999 90,7.766L90,2.234C90,1.001 91.001,0 92.234,0L137.766,0C138.999,0 140,1.001 140,2.234Z" style="fill:rgb(191,133,191);"/><path id="line-3-dash-1" d="M80,2.234L80,7.766C80,8.999 78.999,10 77.766,10L2.234,10C1.001,10 0,8.999 0,7.766L0,2.234C0,1.001 1.001,0 2.234,0L77.766,0C78.999,0 80,1.001 80,2.234Z" style="fill:rgb(86,179,180);"/></g><g id="line-2" transform="matrix(1,0,0,1,0,20)"><path id="line-2-dash-3" d="M210,2.234L210,7.766C210,8.999 208.999,10 207.766,10L172.234,10C171.001,10 170,8.999 170,7.766L170,2.234C170,1.001 171.001,0 172.234,0L207.766,0C208.999,0 210,1.001 210,2.234Z" style="fill:rgb(207,212,215);fill-opacity:0.5;"/><path id="line-2-dash-2" d="M160,2.234L160,7.766C160,8.999 158.999,10 157.766,10L52.234,10C51.001,10 50,8.999 50,7.766L50,2.234C50,1.001 51.001,0 52.234,0L157.766,0C158.999,0 160,1.001 160,2.234Z" style="fill:rgb(247,185,62);"/><path id="line-2-dash-1" d="M40,2.234L40,7.766C40,8.999 38.999,10 37.766,10L2.234,10C1.001,10 0,8.999 0,7.766L0,2.234C0,1.001 1.001,0 2.234,0L37.766,0C38.999,0 40,1.001 40,2.234Z" style="fill:rgb(234,94,94);"/></g><g id="line-1"><path id="line-1-dash-2" d="M210,2.234L210,7.766C210,8.999 208.999,10 207.766,10L142.234,10C141.001,10 140,8.999 140,7.766L140,2.234C140,1.001 141.001,0 142.234,0L207.766,0C208.999,0 210,1.001 210,2.234Z" style="fill:rgb(207,212,215);fill-opacity:0.5;"/><path id="line-1-dash-1" d="M130,2.234L130,7.766C130,8.999 128.999,10 127.766,10L2.234,10C1.001,10 0,8.999 0,7.766L0,2.234C0,1.001 1.001,0 2.234,0L127.766,0C128.999,0 130,1.001 130,2.234Z" style="fill:rgb(86,179,180);"/></g></g></g></g></g></g></g></g></g></g><g transform="matrix(0.79,0,0,0.77,-38.2351,141.693)"><path d="M100,6.494L100,93.506C100,97.09 97.164,100 93.671,100L6.329,100C2.836,100 0,97.09 0,93.506L0,6.494C0,2.91 2.836,0 6.329,0L93.671,0C97.164,0 100,2.91 100,6.494Z" style="fill:rgb(235,235,235);"/></g><g transform="matrix(1,0,0,1,-19.6383,198.346)"><g transform="matrix(10,0,0,10,53.0664,0)"></g><text x="-11.943px" y="0px" style="font-family:'Helvetica';font-size:10px;">UnitT<tspan x="10.84px 16.401px " y="0px 0px ">es</tspan>t (TSX)</text></g><g id="test-tsx.svg" transform="matrix(1.77778,0,0,1.77778,1.26495,169.537)"><g transform="matrix(1,0,0,1,-9,-8)"><g id="test_tsx"><g transform="matrix(1,0,0,1,-0.0341052,0.056695)"><path d="M7.053,3.959L7.018,3.959C6.672,3.959 6.393,3.679 6.393,3.334L6.393,1.904C6.393,1.559 6.672,1.279 7.018,1.279L11.051,1.279C11.396,1.279 11.676,1.559 11.676,1.904L11.676,3.334C11.676,3.679 11.396,3.959 11.051,3.959L10.941,3.959L10.941,5.096L15.012,12.192C15.299,12.691 15.298,13.305 15.009,13.803C14.721,14.301 14.189,14.607 13.613,14.607L4.488,14.607C3.901,14.607 3.358,14.294 3.064,13.786C2.769,13.278 2.768,12.652 3.06,12.142L7.053,5.182L7.053,3.959ZM8.303,3.334L8.303,5.349C8.303,5.458 8.275,5.565 8.22,5.66L4.144,12.764C4.074,12.887 4.074,13.038 4.145,13.16C4.216,13.282 4.347,13.357 4.488,13.357L13.613,13.357C13.743,13.357 13.863,13.288 13.927,13.176C13.992,13.064 13.993,12.926 13.928,12.814L9.774,5.573C9.72,5.479 9.691,5.371 9.691,5.262L9.691,3.334C9.691,2.989 9.971,2.709 10.316,2.709L10.426,2.709L10.426,2.529L7.643,2.529L7.643,2.709L7.678,2.709C8.023,2.709 8.303,2.989 8.303,3.334Z" style="fill:rgb(49,120,198);"/></g><g transform="matrix(1,0,0,1,-0.0341052,0.056695)"><path d="M9.32,10.326C9.414,10.42 9.542,10.473 9.675,10.473C9.808,10.473 9.936,10.42 10.03,10.326L10.187,10.169C10.293,10.063 10.442,10.013 10.59,10.034C10.738,10.055 10.868,10.145 10.94,10.276L11.564,11.41C11.64,11.547 11.637,11.714 11.557,11.849C11.478,11.984 11.333,12.066 11.176,12.066L6.882,12.066C6.728,12.066 6.585,11.985 6.506,11.852C6.427,11.719 6.425,11.554 6.499,11.419L7.544,9.519C7.626,9.372 7.772,9.271 7.939,9.247C8.105,9.223 8.274,9.28 8.393,9.399L9.32,10.326Z" style="fill:rgb(97,218,251);"/></g></g></g></g><g transform="matrix(0.79,0,0,0.77,52.7879,141.693)"><path d="M100,6.494L100,93.506C100,97.09 97.164,100 93.671,100L6.329,100C2.836,100 0,97.09 0,93.506L0,6.494C0,2.91 2.836,0 6.329,0L93.671,0C97.164,0 100,2.91 100,6.494Z" style="fill:rgb(235,235,235);"/></g><g transform="matrix(1,0,0,1,70.0241,198.346)"><g transform="matrix(10,0,0,10,35.0122,0)"></g><text x="6.111px" y="0px" style="font-family:'Helvetica';font-size:10px;">Poetry</text></g><g transform="matrix(0.79,0,0,0.77,143.811,141.693)"><path d="M100,6.494L100,93.506C100,97.09 97.164,100 93.671,100L6.329,100C2.836,100 0,97.09 0,93.506L0,6.494C0,2.91 2.836,0 6.329,0L93.671,0C97.164,0 100,2.91 100,6.494Z" style="fill:rgb(235,235,235);"/></g><g transform="matrix(1,0,0,1,162.644,198.346)"><g transform="matrix(10,0,0,10,43.6255,0)"></g><text x="-2.502px" y="0px" style="font-family:'Helvetica';font-size:10px;">Markdown</text></g><g id="markdown.svg" transform="matrix(1.77778,0,0,1.77778,183.309,169.537)"><g transform="matrix(1,0,0,1,-9,-8)"><g id="markdown" transform="matrix(0.0292969,0,0,0.0292969,1.49999,0.499994)"><g><path d="M512,76.8C512,34.413 477.587,0 435.2,0L76.8,0C34.413,0 0,34.413 0,76.8L0,435.2C0,477.587 34.413,512 76.8,512L435.2,512C477.587,512 512,477.587 512,435.2L512,76.8Z" style="fill:white;"/><g transform="matrix(1.17549,0,0,1.17549,-44.337,-43.7493)"><path d="M410,366L102,366C88,366 76,354 76,340L76,170C76,156 88,144 102,144L409,144C423,144 435,156 435,170L435,340C435,354 424,366 410,366ZM102,162C98,162 93,166 93,171L93,341C93,346 97,350 102,350L409,350C414,350 418,346 418,341L418,170C418,165 414,161 409,161C410,161 102,161 102,161L102,162ZM128,315L128,196L162,196L196,239L230,196L265,196L265,314L231,314L231,246L197,289L163,246L163,314L128,315ZM344,315L292,258L326,258L326,197L360,197L360,257L394,257L344,315Z" style="fill-rule:nonzero;"/></g></g></g></g></g><g transform="matrix(0.79,0,0,0.77,234.834,141.693)"><path d="M100,6.494L100,93.506C100,97.09 97.164,100 93.671,100L6.329,100C2.836,100 0,97.09 0,93.506L0,6.494C0,2.91 2.836,0 6.329,0L93.671,0C97.164,0 100,2.91 100,6.494Z" style="fill:rgb(235,235,235);"/></g><g transform="matrix(1,0,0,1,253.061,198.346)"><g transform="matrix(10,0,0,10,32.2266,0)"></g><text x="8.896px" y="0px" style="font-family:'Helvetica';font-size:10px;">SWC</text></g><g transform="matrix(0.79,0,0,0.77,325.857,141.693)"><path d="M100,6.494L100,93.506C100,97.09 97.164,100 93.671,100L6.329,100C2.836,100 0,97.09 0,93.506L0,6.494C0,2.91 2.836,0 6.329,0L93.671,0C97.164,0 100,2.91 100,6.494Z" style="fill:rgb(235,235,235);"/></g><g transform="matrix(1,0,0,1,344.931,198.346)"><g transform="matrix(10,0,0,10,50.0171,0)"></g><text x="-8.894px" y="0px" style="font-family:'Helvetica';font-size:10px;">T<tspan x="-3.894px 1.667px " y="0px 0px ">ai</tspan>lwind CSS</text></g><g id="swc.svg" transform="matrix(1.77778,0,0,1.77778,274.334,169.537)"><g transform="matrix(1,0,0,1,-9,-8)"><g transform="matrix(1,0,0,1,-0.00830689,-0.00513648)"><g id="swc"><g transform="matrix(1.14167,0,0,0.930283,0.334962,1.12489)"><g><clipPath id="_clip13"><path d="M6.548,8.517C6.545,8.513 6.542,8.509 6.539,8.506L4.097,5.513C3.848,5.207 3.848,4.711 4.097,4.404C4.346,4.098 4.75,4.098 5,4.404L7.451,7.408C7.456,7.413 7.461,7.419 7.465,7.425L8.589,8.807C8.598,8.818 8.607,8.83 8.616,8.842C8.765,9.05 8.964,9.085 9.074,8.95C9.177,8.824 9.168,8.625 9.065,8.506C9.061,8.501 9.056,8.495 9.052,8.49L8.101,7.319C8.098,7.316 8.096,7.313 8.093,7.309C7.622,6.709 7.567,5.767 7.87,5.126C8.206,4.413 8.671,4.195 9.199,4.173C9.206,4.173 9.213,4.172 9.221,4.172L11.677,4.171L11.683,4.171C12.134,4.175 12.326,4.594 12.322,5.024C12.319,5.305 12.115,5.705 11.729,5.735C11.665,5.74 11.342,5.739 11.342,5.739C11.186,5.739 11.105,5.855 11.076,5.982C11.048,6.105 11.106,6.22 11.219,6.344C11.228,6.354 11.236,6.364 11.245,6.374L13.314,8.91C13.319,8.916 13.324,8.923 13.329,8.929C13.395,9.016 13.485,9.055 13.568,9.03C13.659,9.001 13.732,8.899 13.737,8.735C13.75,8.303 14.046,7.965 14.399,7.981C14.751,7.997 15.026,8.361 15.013,8.793C14.982,9.812 14.447,10.373 13.881,10.549C13.379,10.705 12.81,10.534 12.406,10.013C12.406,10.013 10.354,7.498 10.363,7.508C9.844,6.936 9.724,6.318 9.812,5.74C9.475,5.74 9.227,5.741 9.224,5.741C9.127,5.748 9.037,5.78 8.975,5.912C8.932,6.002 8.946,6.134 9.011,6.219C9.011,6.219 9.952,7.377 9.945,7.369C10.567,8.092 10.599,9.297 9.977,10.059C9.432,10.727 8.416,10.913 7.672,9.899L7.61,9.822C7.561,9.903 7.507,9.981 7.447,10.056C6.916,10.724 5.936,10.844 5.281,10.026C5.281,10.026 1.831,5.795 1.823,5.787C1.742,5.708 1.613,5.702 1.539,5.797C1.422,5.948 1.429,6.103 1.474,6.199L2.538,7.505C2.552,7.523 2.566,7.542 2.58,7.562C3.099,8.339 2.895,9.502 2.512,9.994C2.119,10.498 1.839,10.634 0.945,10.598C0.593,10.584 0.317,10.222 0.328,9.789C0.34,9.357 0.635,9.017 0.987,9.032C1.319,9.045 1.443,9.098 1.588,8.911C1.641,8.844 1.665,8.691 1.604,8.577L0.533,7.261C0.515,7.238 0.497,7.214 0.481,7.189C0.158,6.68 -0.127,5.67 0.614,4.716C1.165,4.007 2.145,4.011 2.707,4.654C2.712,4.66 2.717,4.666 2.722,4.672L6.184,8.917C6.186,8.918 6.187,8.92 6.189,8.922C6.294,9.054 6.449,9.067 6.534,8.96C6.632,8.837 6.645,8.66 6.548,8.517Z"/></clipPath><g clip-path="url(#_clip13)"><rect x="0.15" y="4.144" width="14.894" height="6.504" style="fill:url(#_Linear14);"/></g></g></g><path id="line" d="M1.438,10.256C2.136,10.279 2.369,10.239 2.676,9.918C2.926,9.656 3.056,9.036 2.716,8.622L1.46,7.364C1.243,7.086 1.067,6.536 1.564,6.015C1.923,5.639 2.562,5.646 2.928,5.987L6.88,9.936C7.316,10.38 7.964,10.33 8.316,9.97C8.707,9.57 8.754,8.988 8.326,8.532L5.528,5.737L8.326,8.532L9.624,9.833C10.135,10.411 10.834,10.342 11.21,9.967C11.625,9.553 11.6,8.9 11.186,8.508L10.1,7.419C9.792,7.1 9.753,6.599 9.95,6.259C10.18,5.862 10.502,5.748 10.862,5.736L13.673,5.735L13.284,5.735C12.69,5.735 12.389,6.099 12.278,6.493C12.18,6.843 12.263,7.218 12.658,7.571L15.02,9.93C15.288,10.217 15.668,10.317 16.004,10.232C16.379,10.137 16.726,9.828 16.746,9.278" style="fill:none;stroke:white;stroke-width:0.21px;"/></g></g></g></g><g id="tailwindcss.svg" transform="matrix(1.77778,0,0,1.77778,365.357,169.537)"><g transform="matrix(1,0,0,1,-9,-8)"><g id="tailwindcss" transform="matrix(0.313523,0,0,0.313523,1,3.22881)"><path d="M25.517,0C18.712,0 14.46,3.382 12.758,10.146C15.31,6.764 18.287,5.496 21.689,6.341C23.63,6.823 25.018,8.223 26.553,9.773C29.055,12.297 31.951,15.218 38.275,15.218C45.079,15.218 49.332,11.836 51.033,5.073C48.482,8.455 45.505,9.723 42.103,8.877C40.161,8.395 38.773,6.995 37.238,5.446C34.736,2.92 31.841,0 25.517,0ZM12.758,15.218C5.954,15.218 1.701,18.6 0,25.364C2.552,21.982 5.529,20.714 8.93,21.559C10.872,22.041 12.26,23.441 13.795,24.991C16.297,27.515 19.192,30.436 25.517,30.436C32.321,30.436 36.574,27.055 38.275,20.291C35.723,23.673 32.746,24.941 29.344,24.096C27.403,23.613 26.015,22.213 24.48,20.664C21.978,18.14 19.082,15.218 12.758,15.218Z" style="fill:rgb(56,189,248);"/></g></g></g><g transform="matrix(0.79,0,0,0.77,-38.2351,233.564)"><path d="M100,6.494L100,93.506C100,97.09 97.164,100 93.671,100L6.329,100C2.836,100 0,97.09 0,93.506L0,6.494C0,2.91 2.836,0 6.329,0L93.671,0C97.164,0 100,2.91 100,6.494Z" style="fill:rgb(235,235,235);"/></g><g transform="matrix(1,0,0,1,-19.6383,292.297)"><g transform="matrix(10,0,0,10,40.2954,0)"></g><text x="0.828px" y="0px" style="font-family:'Helvetica';font-size:10px;">Codecov</text></g><g transform="matrix(0.79,0,0,0.77,52.7879,233.564)"><path d="M100,6.494L100,93.506C100,97.09 97.164,100 93.671,100L6.329,100C2.836,100 0,97.09 0,93.506L0,6.494C0,2.91 2.836,0 6.329,0L93.671,0C97.164,0 100,2.91 100,6.494Z" style="fill:rgb(235,235,235);"/></g><g transform="matrix(1,0,0,1,70.7434,292.297)"><g transform="matrix(10,0,0,10,45.564,0)"></g><text x="-4.441px" y="0px" style="font-family:'Helvetica';font-size:10px;">pre-commit</text></g><g transform="matrix(0.79,0,0,0.77,143.811,233.564)"><path d="M100,6.494L100,93.506C100,97.09 97.164,100 93.671,100L6.329,100C2.836,100 0,97.09 0,93.506L0,6.494C0,2.91 2.836,0 6.329,0L93.671,0C97.164,0 100,2.91 100,6.494Z" style="fill:rgb(235,235,235);"/></g><g transform="matrix(1,0,0,1,163.792,292.297)"><g transform="matrix(10,0,0,10,29.458,0)"></g><text x="11.665px" y="0px" style="font-family:'Helvetica';font-size:10px;">Bun</text></g><g transform="matrix(0.79,0,0,0.77,234.834,233.564)"><path d="M100,6.494L100,93.506C100,97.09 97.164,100 93.671,100L6.329,100C2.836,100 0,97.09 0,93.506L0,6.494C0,2.91 2.836,0 6.329,0L93.671,0C97.164,0 100,2.91 100,6.494Z" style="fill:rgb(235,235,235);"/></g><g transform="matrix(1,0,0,1,253.996,292.297)"><g transform="matrix(10,0,0,10,35.5688,0)"></g><text x="5.554px" y="0px" style="font-family:'Helvetica';font-size:10px;">Gradle</text></g><g transform="matrix(0.79,0,0,0.77,325.857,233.564)"><path d="M100,6.494L100,93.506C100,97.09 97.164,100 93.671,100L6.329,100C2.836,100 0,97.09 0,93.506L0,6.494C0,2.91 2.836,0 6.329,0L93.671,0C97.164,0 100,2.91 100,6.494Z" style="fill:rgb(235,235,235);"/></g><g transform="matrix(1,0,0,1,345.017,292.297)"><g transform="matrix(10,0,0,10,38.8989,0)"></g><text x="2.224px" y="0px" style="font-family:'Helvetica';font-size:10px;">Cypress</text></g><g transform="matrix(0.79,0,0,0.77,-38.2351,325.434)"><path d="M100,6.494L100,93.506C100,97.09 97.164,100 93.671,100L6.329,100C2.836,100 0,97.09 0,93.506L0,6.494C0,2.91 2.836,0 6.329,0L93.671,0C97.164,0 100,2.91 100,6.494Z" style="fill:rgb(235,235,235);"/></g><g transform="matrix(1,0,0,1,-19.6383,382.581)"><g transform="matrix(10,0,0,10,34.4531,0)"></g><text x="6.67px" y="0px" style="font-family:'Helvetica';font-size:10px;">HAML</text></g><g transform="matrix(0.79,0,0,0.77,52.7879,325.434)"><path d="M100,6.494L100,93.506C100,97.09 97.164,100 93.671,100L6.329,100C2.836,100 0,97.09 0,93.506L0,6.494C0,2.91 2.836,0 6.329,0L93.671,0C97.164,0 100,2.91 100,6.494Z" style="fill:rgb(235,235,235);"/></g><g transform="matrix(1,0,0,1,70.8346,382.581)"><g transform="matrix(10,0,0,10,34.3628,0)"></g><text x="6.76px" y="0px" style="font-family:'Helvetica';font-size:10px;">T<tspan x="12.693px 20.471px " y="0px 0px ">OM</tspan>L</text></g><g transform="matrix(0.79,0,0,0.77,143.811,325.434)"><path d="M100,6.494L100,93.506C100,97.09 97.164,100 93.671,100L6.329,100C2.836,100 0,97.09 0,93.506L0,6.494C0,2.91 2.836,0 6.329,0L93.671,0C97.164,0 100,2.91 100,6.494Z" style="fill:rgb(235,235,235);"/></g><g transform="matrix(1,0,0,1,163.057,382.581)"><g transform="matrix(10,0,0,10,36.3989,0)"></g><text x="4.724px" y="0px" style="font-family:'Helvetica';font-size:10px;">Docker</text></g><g transform="matrix(0.79,0,0,0.77,234.834,325.434)"><path d="M100,6.494L100,93.506C100,97.09 97.164,100 93.671,100L6.329,100C2.836,100 0,97.09 0,93.506L0,6.494C0,2.91 2.836,0 6.329,0L93.671,0C97.164,0 100,2.91 100,6.494Z" style="fill:rgb(235,235,235);"/></g><g transform="matrix(1,0,0,1,252.735,382.581)"><g transform="matrix(10,0,0,10,34.4531,0)"></g><text x="6.67px" y="0px" style="font-family:'Helvetica';font-size:10px;">Netlify</text></g><g transform="matrix(0.79,0,0,0.77,325.857,325.434)"><path d="M100,6.494L100,93.506C100,97.09 97.164,100 93.671,100L6.329,100C2.836,100 0,97.09 0,93.506L0,6.494C0,2.91 2.836,0 6.329,0L93.671,0C97.164,0 100,2.91 100,6.494Z" style="fill:rgb(235,235,235);"/></g><g transform="matrix(1,0,0,1,344.41,382.581)"><g transform="matrix(10,0,0,10,52.4268,0)"></g><text x="-11.304px" y="0px" style="font-family:'Helvetica';font-size:10px;">W<tspan x="-2.041px 3.521px " y="0px 0px ">eb</tspan>Assembly</text></g><g id="codecov.svg" transform="matrix(1.77778,0,0,1.77778,1.26495,263.023)"><g transform="matrix(1,0,0,1,-9,-8)"><g transform="matrix(0.25,0,0,0.25,1.5,0.5)"><g id="codecov"><g><g id="Page-1"><g id="codecov1"><circle id="Oval" cx="30" cy="30" r="30" style="fill:rgb(255,0,119);"/><path id="Path" d="M30.053,7.05C16.797,7.05 6,17.74 6,30.783L6,30.89L10.062,33.242L10.169,33.242C12.735,31.531 15.835,30.89 18.935,31.424C21.073,31.852 23.105,32.814 24.708,34.311L25.457,34.952L25.884,34.097C26.312,33.242 26.739,32.493 27.167,31.745C27.381,31.424 27.595,31.21 27.808,30.89L28.236,30.355L27.702,29.928C25.457,28.11 22.784,26.827 19.898,26.293C17.118,25.758 14.339,25.865 11.773,26.72C13.697,18.275 21.18,12.288 30.053,12.288C35.078,12.288 39.782,14.213 43.31,17.74C45.875,20.199 47.586,23.299 48.334,26.72C46.731,26.186 45.02,25.972 43.31,25.972L42.989,25.972C42.347,25.972 41.706,26.079 40.958,26.079L40.851,26.079C40.637,26.079 40.316,26.186 40.102,26.186C39.675,26.293 39.354,26.293 38.927,26.4C38.927,26.4 37.964,26.72 37.644,26.827L37.537,26.827C36.788,27.041 36.147,27.362 35.399,27.683C35.078,27.789 34.757,28.003 34.437,28.217L34.33,28.217C32.726,29.179 31.229,30.355 30.053,31.852L29.947,32.066C29.626,32.493 29.412,32.814 29.198,33.028C28.984,33.242 28.878,33.562 28.664,33.883L28.557,34.097C28.343,34.417 28.236,34.738 28.129,34.952L28.129,35.059C27.808,35.7 27.488,36.449 27.274,37.197L27.274,37.304C26.739,39.014 26.419,40.832 26.419,42.756L26.419,44.787C26.419,45.001 26.526,45.322 26.526,45.536C27.06,48.101 28.236,50.56 30.053,52.805L30.16,52.912L30.267,52.805C31.016,51.95 32.726,49.277 32.94,47.674C32.085,46.07 31.657,44.253 31.657,42.542C31.657,36.556 36.361,31.531 42.454,31.21L42.882,31.21C45.341,31.103 47.8,31.852 49.831,33.242L49.938,33.242L54,30.89L54,30.783C54,24.475 51.541,18.489 46.944,13.999C42.454,9.509 36.468,7.05 30.053,7.05" style="fill:white;fill-rule:nonzero;"/></g></g></g></g></g></g></g><g id="pre-commit.svg" transform="matrix(1.77778,0,0,1.77778,91.8396,263.023)"><g transform="matrix(1,0,0,1,-9,-8)"><g transform="matrix(0.0106666,0,0,-0.0106666,1,16)"><g id="pre-commit"><g><g><path d="M665.147,130.852L130.853,665.147C83.99,712.009 83.99,787.989 130.853,834.852L665.147,1369.15C712.01,1416.01 787.99,1416.01 834.853,1369.15L1369.15,834.853C1416.01,787.99 1416.01,712.01 1369.15,665.147L834.853,130.852C787.99,83.99 712.01,83.99 665.147,130.852" style="fill:rgb(250,176,64);fill-rule:nonzero;"/><path d="M687.775,233.225L233.225,687.775C198.859,722.141 198.859,777.86 233.225,812.225L687.775,1266.78C722.14,1301.14 777.859,1301.14 812.225,1266.78L1266.78,812.225C1301.14,777.86 1301.14,722.141 1266.78,687.775L812.225,233.225C777.859,198.86 722.14,198.86 687.775,233.225Z" style="fill:none;fill-rule:nonzero;stroke:rgb(4,5,33);stroke-width:34px;stroke-linecap:butt;stroke-linejoin:miter;stroke-miterlimit:10;"/><path d="M784.672,763.286C796.768,763.286 808.412,764.179 819.615,765.974C830.809,767.759 840.668,771.234 849.184,776.39C857.688,781.535 864.524,788.822 869.68,798.23C874.824,807.638 877.406,819.954 877.406,835.19C877.406,850.415 874.824,862.742 869.68,872.15C864.524,881.558 857.688,888.834 849.184,893.99C840.668,899.135 830.809,902.61 819.614,904.406C808.412,906.191 796.768,907.094 784.672,907.094L702.687,907.094L702.687,763.286L784.672,763.286ZM813.567,989.078C843.576,989.078 869.111,984.71 890.176,975.974C911.226,967.238 928.363,955.699 941.582,941.366C954.791,927.023 964.432,910.674 970.479,892.31C976.527,873.935 979.551,854.898 979.551,835.19C979.551,815.922 976.527,796.99 970.479,778.406C964.432,759.81 954.791,743.346 941.582,729.014C928.362,714.671 911.227,703.142 890.176,694.406C869.111,685.67 843.576,681.302 813.566,681.302L702.686,681.302L702.686,509.27L597.184,509.27L597.184,989.078L813.567,989.078Z" style="fill-rule:nonzero;"/></g></g></g></g></g></g><g id="bun.svg" transform="matrix(1.77778,0,0,1.77778,183.309,263.023)"><g transform="matrix(1,0,0,1,-9,-8)"><g id="bun" transform="matrix(0.2125,0,0,0.2125,0.5,0.5625)"><g><path id="Shadow" d="M71.09,20.74C70.93,20.57 70.76,20.4 70.59,20.24C70.42,20.08 70.26,19.9 70.09,19.74C69.92,19.58 69.76,19.4 69.59,19.24C69.42,19.08 69.26,18.9 69.09,18.74C68.92,18.58 68.76,18.4 68.59,18.24C68.42,18.08 68.26,17.9 68.09,17.74C67.92,17.58 67.76,17.4 67.59,17.24C72.548,22.113 75.392,28.749 75.5,35.7C75.5,52.27 58.68,65.75 38,65.75C26.42,65.75 16.06,61.52 9.17,54.89L12.67,58.39C19.55,65.3 30.14,69.75 42,69.75C62.68,69.75 79.5,56.27 79.5,39.75C79.5,32.69 76.46,26 71.09,20.74Z" style="fill-rule:nonzero;"/><g id="Body"><path id="Background" d="M73,35.7C73,50.91 57.33,63.24 38,63.24C18.67,63.24 3,50.91 3,35.7C3,26.27 9,17.94 18.22,13C27.44,8.06 33.18,3 38,3C42.82,3 46.94,7.13 57.78,13C67,17.94 73,26.27 73,35.7Z" style="fill:rgb(251,240,223);fill-rule:nonzero;"/><path id="Bottom_Shadow" d="M73,35.7C72.995,33.746 72.726,31.802 72.2,29.92C69.47,63.22 28.85,64.82 12.88,54.86C20.058,60.423 28.92,63.38 38,63.24C57.3,63.24 73,50.89 73,35.7Z" style="fill:rgb(246,222,206);fill-rule:nonzero;"/><path id="Light_Shine" d="M24.53,11.17C29,8.49 34.94,3.46 40.78,3.45C39.882,3.16 38.944,3.008 38,3C35.58,3 33,4.25 29.75,6.13C28.62,6.79 27.45,7.52 26.21,8.28C23.88,9.72 21.21,11.35 18.21,12.98C8.69,18.13 3,26.62 3,35.7L3,36.89C9.06,15.48 20.07,13.85 24.53,11.17Z" style="fill:rgb(255,254,252);fill-rule:nonzero;"/><path id="Top" d="M35.12,5.53C35.148,10.305 33.091,14.863 29.49,18C29.21,18.25 29.43,18.73 29.79,18.59C33.16,17.28 37.71,13.36 35.79,5.45C35.71,5 35.12,5.12 35.12,5.53ZM37.39,5.53C39.865,9.568 40.453,14.493 39,19C38.88,19.35 39.31,19.65 39.55,19.36C41.74,16.56 43.65,11 37.93,5C37.64,4.74 37.19,5.14 37.39,5.49L37.39,5.53ZM40.15,5.36C44.025,8.103 46.525,12.396 47,17.12C46.998,17.133 46.998,17.146 46.998,17.159C46.998,17.34 47.147,17.489 47.328,17.489C47.482,17.489 47.617,17.381 47.65,17.23C48.57,13.74 48.05,7.79 40.48,4.7C40.08,4.54 39.82,5.08 40.15,5.32L40.15,5.36ZM21.69,15.76C26.297,14.384 30.107,11.108 32.16,6.76C32.34,6.4 32.91,6.54 32.82,6.94C31.09,14.94 25.3,16.61 21.7,16.39C21.32,16.4 21.33,15.87 21.69,15.76Z" style="fill:rgb(204,190,167);"/><path id="Outline" d="M38,65.75C17.32,65.75 0.5,52.27 0.5,35.7C0.5,25.7 6.68,16.37 17.03,10.78C20.03,9.18 22.6,7.57 24.89,6.16C26.15,5.38 27.34,4.65 28.49,3.97C32,1.89 35,0.5 38,0.5C41,0.5 43.62,1.7 46.9,3.64C47.9,4.21 48.9,4.83 49.97,5.51C52.46,7.05 55.27,8.79 58.97,10.78C69.32,16.37 75.5,25.69 75.5,35.7C75.5,52.27 58.68,65.75 38,65.75ZM38,3C35.58,3 33,4.25 29.75,6.13C28.62,6.79 27.45,7.52 26.21,8.28C23.88,9.72 21.21,11.35 18.21,12.98C8.69,18.13 3,26.62 3,35.7C3,50.89 18.7,63.25 38,63.25C57.3,63.25 73,50.89 73,35.7C73,26.62 67.31,18.13 57.78,13C54,11 51.05,9.12 48.66,7.64C47.57,6.97 46.57,6.35 45.66,5.8C42.63,4 40.42,3 38,3Z" style="fill-rule:nonzero;"/></g><g id="Mouth"><g id="Background-2"><path d="M45.05,43C44.601,44.84 43.578,46.49 42.13,47.71C41.043,48.764 39.635,49.426 38.13,49.59C36.58,49.452 35.122,48.788 34,47.71C32.567,46.484 31.558,44.835 31.12,43C31.116,42.968 31.114,42.937 31.114,42.905C31.114,42.51 31.439,42.185 31.834,42.185C31.863,42.185 31.891,42.187 31.92,42.19L44.26,42.19C44.285,42.187 44.311,42.186 44.336,42.186C44.731,42.186 45.056,42.511 45.056,42.906C45.056,42.937 45.054,42.969 45.05,43Z" style="fill:rgb(183,20,34);fill-rule:nonzero;"/></g><g id="Tongue"><path id="Background-3" d="M34,47.79C35.12,48.869 36.572,49.538 38.12,49.69C39.664,49.536 41.112,48.867 42.23,47.79C42.588,47.457 42.922,47.099 43.23,46.72C41.985,45.308 40.211,44.472 38.33,44.41C36.309,44.458 34.437,45.499 33.33,47.19C33.56,47.4 33.76,47.6 34,47.79Z" style="fill:rgb(255,97,100);fill-rule:nonzero;"/><path id="Outline-2" d="M34.16,47C35.164,45.703 36.71,44.935 38.35,44.92C39.847,44.964 41.275,45.567 42.35,46.61C42.58,46.36 42.8,46.1 43.01,45.84C41.738,44.629 40.056,43.939 38.3,43.91C36.4,43.926 34.605,44.793 33.41,46.27C33.646,46.527 33.897,46.771 34.16,47Z" style="fill-rule:nonzero;"/></g><path id="Outline-3" d="M38.09,50.19C36.424,50.044 34.855,49.339 33.64,48.19C32.092,46.881 31.002,45.111 30.53,43.14C30.461,42.785 30.557,42.417 30.79,42.14C31.068,41.805 31.485,41.616 31.92,41.63L44.26,41.63C44.694,41.621 45.11,41.808 45.39,42.14C45.621,42.418 45.713,42.786 45.64,43.14C45.168,45.111 44.078,46.881 42.53,48.19C41.317,49.337 39.753,50.042 38.09,50.19ZM31.92,42.79C31.76,42.79 31.72,42.86 31.71,42.88C32.133,44.589 33.089,46.12 34.44,47.25C35.428,48.223 36.713,48.839 38.09,49C39.464,48.841 40.747,48.233 41.74,47.27C43.087,46.139 44.039,44.608 44.46,42.9C44.416,42.835 44.338,42.8 44.26,42.81L31.92,42.79Z" style="fill-rule:nonzero;"/></g><g id="Face"><ellipse id="Right_Blush" cx="53.22" cy="40.18" rx="5.85" ry="3.44" style="fill:rgb(254,187,208);"/><ellipse id="Left_Bluch" cx="22.95" cy="40.18" rx="5.85" ry="3.44" style="fill:rgb(254,187,208);"/><path id="Eyes" d="M25.7,38.8L25.71,38.8C28.733,38.8 31.22,36.313 31.22,33.29C31.22,30.267 28.733,27.78 25.71,27.78C22.687,27.78 20.2,30.267 20.2,33.29C20.2,36.309 22.681,38.795 25.7,38.8ZM50.47,38.8L50.51,38.8C53.533,38.8 56.02,36.313 56.02,33.29C56.02,30.267 53.533,27.78 50.51,27.78C47.487,27.78 45,30.267 45,33.29C44.994,36.3 47.46,38.784 50.47,38.8Z"/><path id="Iris" d="M24,33.64L24.01,33.64C25.146,33.64 26.08,32.706 26.08,31.57C26.08,30.434 25.146,29.5 24.01,29.5C22.874,29.5 21.94,30.434 21.94,31.57C21.94,32.702 22.868,33.635 24,33.64ZM48.75,33.64L48.78,33.64C49.916,33.64 50.85,32.706 50.85,31.57C50.85,30.434 49.916,29.5 48.78,29.5C47.644,29.5 46.71,30.434 46.71,31.57C46.71,32.694 47.626,33.624 48.75,33.64Z" style="fill:white;"/></g></g></g></g></g><g id="gradle.svg" transform="matrix(1.77778,0,0,1.77778,274.334,263.023)"><g transform="matrix(1,0,0,1,-9,-8)"><g id="gradle" transform="matrix(0.383496,0,0,0.383496,-9.1099,1.24624)"><g id="gradle1"><path id="gradle2" d="M63.492,5.902C61.3,3.709 57.715,3.647 55.449,5.763C55.339,5.866 55.275,6.009 55.272,6.159C55.272,6.309 55.331,6.453 55.436,6.56L56.157,7.306C56.35,7.498 56.659,7.52 56.878,7.356C57.449,6.925 58.147,6.692 58.863,6.695C58.868,6.694 58.873,6.694 58.878,6.694C60.696,6.694 62.191,8.19 62.191,10.008C62.191,10.889 61.84,11.735 61.216,12.356C56.621,16.951 50.487,4.077 36.567,10.699C35.902,11.01 35.475,11.68 35.475,12.414C35.475,12.743 35.561,13.066 35.723,13.351L38.11,17.478C38.624,18.366 39.772,18.682 40.668,18.182L40.727,18.149L40.681,18.182L41.739,17.588C42.918,16.856 44.033,16.023 45.07,15.101C45.288,14.913 45.614,14.913 45.833,15.101C45.962,15.202 46.038,15.358 46.039,15.522C46.042,15.682 45.976,15.836 45.858,15.944C44.766,16.913 43.591,17.785 42.346,18.549L42.313,18.549L41.254,19.139C40.807,19.393 40.301,19.525 39.787,19.523C38.708,19.523 37.707,18.949 37.161,18.018L34.906,14.118C30.572,17.179 27.941,23.077 29.354,30.56C29.405,30.816 29.631,31.004 29.893,31.006L32.465,31.006C32.74,31.006 32.975,30.799 33.009,30.526C33.244,28.652 34.855,27.232 36.744,27.232C38.632,27.232 40.243,28.652 40.479,30.526C40.515,30.8 40.751,31.007 41.027,31.006L43.531,31.006C43.806,31.006 44.041,30.799 44.075,30.526C44.318,28.657 45.928,27.244 47.812,27.244C49.696,27.244 51.306,28.657 51.549,30.526C51.583,30.799 51.818,31.006 52.093,31.006L54.568,31.006C54.865,31.006 55.111,30.764 55.116,30.467C55.175,26.98 56.115,22.975 58.796,20.969C68.083,14.021 65.642,8.065 63.492,5.902ZM54.02,16.412L52.249,15.522L52.249,15.518C52.249,14.907 52.751,14.405 53.362,14.405C53.972,14.405 54.475,14.907 54.475,15.518C54.475,15.872 54.305,16.206 54.02,16.416L54.02,16.412Z" style="fill:url(#_Linear15);"/></g></g></g></g><g id="cypress.svg" transform="matrix(1.77778,0,0,1.77778,365.357,263.023)"><g transform="matrix(1,0,0,1,-9,-8)"><clipPath id="_clip16"><rect x="0" y="0" width="18" height="16"/></clipPath><g clip-path="url(#_clip16)"><g><g transform="matrix(1.36921,0,0,1.69293,-1.13754,-1.81905)"><ellipse cx="7.404" cy="5.8" rx="5.843" ry="4.726" style="fill:white;"/></g><g transform="matrix(0.291667,0,0,0.291667,1.99999,0.999992)"><g id="cypress"><g><path d="M0.854,30.359C0.288,28.298 0,26.157 0,24.001C0,14.159 6.181,5.16 15.382,1.611L16.589,4.733C8.669,7.789 3.349,15.531 3.349,24.001C3.349,25.859 3.596,27.699 4.082,29.472L0.854,30.359Z" style="fill:rgb(88,208,158);fill-rule:nonzero;"/><g transform="matrix(0.104528,0.994522,-0.994522,0.104528,34.6712,-23.3363)"><path d="M22.854,21.959C22.288,19.898 22,17.757 22,15.601C22,5.759 28.181,-3.24 37.382,-6.789L38.589,-3.667C30.669,-0.611 25.349,7.131 25.349,15.601C25.349,17.459 25.596,19.299 26.082,21.072L22.854,21.959Z" style="fill:rgb(88,208,158);fill-rule:nonzero;"/></g><g transform="matrix(0.0871557,0.996195,-0.996195,0.0871557,65.984,-14.9156)"><path d="M53.451,35.793C49.87,28.919 42.822,24.648 35.061,24.648C32.312,24.648 29.639,25.178 27.123,26.218L25.84,23.127C28.764,21.917 31.867,21.3 35.061,21.3C44.077,21.3 52.262,26.26 56.422,34.246L53.451,35.793Z" style="fill:url(#_Linear17);fill-rule:nonzero;"/></g><path d="M16.877,19.049C18.819,19.049 20.401,20.085 21.214,21.892L21.278,22.033L24.54,20.925L24.47,20.758C23.207,17.682 20.298,15.77 16.877,15.77C14.472,15.77 12.517,16.541 10.902,18.124C9.296,19.697 8.484,21.676 8.484,24.006C8.484,26.317 9.296,28.285 10.902,29.858C12.517,31.441 14.472,32.212 16.877,32.212C20.298,32.212 23.207,30.3 24.47,27.226L24.54,27.059L21.273,25.949L21.211,26.096C20.483,27.871 18.863,28.933 16.877,28.933C15.524,28.933 14.382,28.46 13.476,27.529C12.561,26.586 12.098,25.402 12.098,24.009C12.098,22.606 12.55,21.444 13.476,20.458C14.379,19.522 15.524,19.049 16.877,19.049Z" style="fill:rgb(27,30,46);fill-rule:nonzero;"/><path d="M37.306,16.074L32.658,27.835L27.979,16.074L24.151,16.074L30.713,32.127L26.045,43.449L29.391,44.115L40.923,16.074L37.306,16.074Z" style="fill:rgb(27,30,46);fill-rule:nonzero;"/><path d="M26.643,41.989L25.828,43.963C25.666,44.354 25.296,44.618 24.879,44.636C24.604,44.647 24.326,44.654 24.045,44.654C14.448,44.649 5.957,37.883 3.853,28.56L0.586,29.298C1.767,34.527 4.73,39.273 8.931,42.665C13.18,46.096 18.533,47.99 24.009,48L24.058,48C24.38,48 24.699,47.992 25.018,47.98C26.736,47.908 28.272,46.831 28.928,45.235L29.993,42.655L26.643,41.989Z" style="fill:url(#_Linear18);fill-rule:nonzero;"/></g></g></g></g></g></g></g><g id="webassembly.svg" transform="matrix(1.77778,0,0,1.77778,365.357,354.934)"><g transform="matrix(1,0,0,1,-9,-8)"><g id="wast" transform="matrix(0.0245098,0,0,0.0245098,1.5,0.500001)"><g><g><path d="M376,0L376,3.3C376,42.06 344.58,73.47 305.83,73.47C267.07,73.47 235.66,42.05 235.66,3.3L235.66,-0L0,0L0,612L612,612L612,0L376,0Z" style="fill:rgb(101,79,240);fill-rule:nonzero;"/><path d="M142.16,329.81L182.72,329.81L210.41,477.28L210.91,477.28L244.19,329.81L282.13,329.81L312.19,479.09L312.78,479.09L344.34,329.81L384.12,329.81L332.43,546.5L292.18,546.5L262.37,399.03L261.59,399.03L229.68,546.5L188.68,546.5L142.16,329.81ZM429.85,329.81L493.79,329.81L557.29,546.5L515.45,546.5L501.64,498.28L428.8,498.28L418.14,546.5L377.39,546.5L429.85,329.81ZM454.19,383.22L436.5,462.72L491.56,462.72L471.25,383.22L454.19,383.22Z" style="fill:white;fill-rule:nonzero;"/></g></g></g></g></g><g id="netlify.svg" transform="matrix(1.77778,0,0,1.77778,274.334,354.934)"><g transform="matrix(1,0,0,1,-9,-8)"><g transform="matrix(0.117188,0,0,0.117188,1.49997,0.499968)"><g id="netlify"><g><g><path d="M125.189,54.774L73.226,2.811L71.296,0.885L69.161,0L58.839,0L56.704,0.885L54.774,2.811L2.811,54.774L0.885,56.704L0,58.839L0,69.161L0.885,71.296L2.811,73.226L54.774,125.189L56.704,127.115L58.839,128L69.161,128L71.296,127.115L73.226,125.189L125.189,73.226L127.115,71.296L128,69.161L128,58.839L127.115,56.704L125.189,54.774Z" style="fill:rgb(1,72,71);fill-rule:nonzero;"/><path d="M59.368,116.019L59.368,91.056L60.031,90.393L67.974,90.393L68.636,91.056L68.636,116.019L67.974,116.681L60.031,116.681L59.368,116.019Z" style="fill:rgb(50,230,226);fill-rule:nonzero;"/><path d="M59.368,36.944L59.368,11.981L60.031,11.319L67.974,11.319L68.636,11.981L68.636,36.944L67.974,37.607L60.031,37.607L59.368,36.944Z" style="fill:rgb(50,230,226);fill-rule:nonzero;"/><path d="M38.39,97.522L37.296,97.522L31.839,92.065L31.839,90.971L39.11,83.695L44.887,83.7L45.661,84.469L45.661,90.246L38.39,97.522Z" style="fill:rgb(50,230,226);fill-rule:nonzero;"/><path d="M31.839,37.305L31.839,36.215L37.296,30.754L38.385,30.754L45.661,38.03L45.661,43.802L44.892,44.581L39.115,44.581L31.839,37.305Z" style="fill:rgb(50,230,226);fill-rule:nonzero;"/><path d="M9.86,59.355L37.936,59.355L38.599,60.017L38.599,67.969L37.936,68.632L9.86,68.632L9.197,67.969L9.197,60.017L9.86,59.355Z" style="fill:rgb(50,230,226);fill-rule:nonzero;"/><path d="M78.883,80.538L70.945,80.538L70.282,79.875L70.282,61.294C70.286,57.985 68.988,55.423 64.994,55.339C62.944,55.285 60.591,55.339 58.083,55.441L57.705,55.828L57.709,79.875L57.047,80.538L49.108,80.538L48.445,79.875L48.445,48.125L49.108,47.462L66.969,47.462C73.911,47.462 79.537,53.088 79.537,60.031L79.537,79.875L78.874,80.538L78.883,80.538Z" style="fill:white;fill-rule:nonzero;"/><path d="M118.14,68.645L90.064,68.645L89.401,67.983L89.401,60.031L90.064,59.368L118.14,59.368L118.803,60.031L118.803,67.983L118.14,68.645Z" style="fill:rgb(50,230,226);fill-rule:nonzero;"/></g></g></g></g></g></g><g id="docker.svg" transform="matrix(1.77778,0,0,1.77778,183.309,354.934)"><g transform="matrix(1,0,0,1,-9,-8)"><g transform="matrix(0.0072,0,0,0.0072,0,2.90727)"><g id="docker"><g><path d="M1440.31,446.797L1663.61,446.797L1663.61,675.068L1776.51,675.068C1828.66,675.068 1882.29,665.781 1931.66,649.053C1955.93,640.82 1983.15,629.375 2007.09,614.971C1975.57,573.818 1959.47,521.855 1954.75,470.635C1948.3,400.957 1962.36,310.273 2009.51,255.742L2032.99,228.594L2060.96,251.084C2131.38,307.656 2190.61,386.719 2201.05,476.846C2285.84,451.904 2385.4,457.803 2460.14,500.938L2490.8,518.633L2474.67,550.137C2411.45,673.496 2279.3,711.719 2150.1,704.951C1956.77,1186.48 1535.86,1414.45 1025.52,1414.45C761.846,1414.45 519.951,1315.89 382.197,1081.96L379.941,1078.15L359.873,1037.31C313.311,934.346 297.842,821.543 308.33,708.828L311.484,675.068L502.441,675.068L502.441,446.797L725.732,446.797L725.732,223.496L1172.34,223.496L1172.34,0.195L1440.31,0.195L1440.31,446.797" style="fill:rgb(54,69,72);"/><path d="M2163.77,531.25C2178.74,414.883 2091.66,323.486 2037.66,280.088C1975.42,352.041 1965.75,540.615 2063.39,620.01C2008.9,668.408 1894.08,712.275 1776.51,712.275L345.41,712.275C333.984,835 355.527,948.018 404.736,1044.75L421.016,1074.53C431.323,1092.01 442.587,1108.91 454.756,1125.16C513.594,1128.94 567.842,1130.23 617.471,1129.14L617.49,1129.14C715.02,1126.99 794.6,1115.47 854.912,1094.57C856.566,1094.06 858.288,1093.79 860.02,1093.79C869.454,1093.79 877.217,1101.56 877.217,1110.99C877.217,1118.1 872.81,1124.51 866.172,1127.05C858.145,1129.84 849.785,1132.44 841.152,1134.91L841.123,1134.91C793.633,1148.48 742.705,1157.6 677.002,1161.65C680.908,1161.72 672.939,1162.24 672.92,1162.24C670.684,1162.38 667.871,1162.7 665.625,1162.82C639.766,1164.28 611.855,1164.58 583.32,1164.58C552.109,1164.58 521.377,1163.99 487.012,1162.24L486.133,1162.82C605.371,1296.85 791.816,1377.23 1025.53,1377.23C1520.14,1377.23 1939.67,1157.97 2125.45,665.732C2257.25,679.258 2383.92,645.645 2441.53,533.164C2349.76,480.205 2231.73,497.09 2163.77,531.25" style="fill:rgb(34,160,200);"/><path d="M2163.77,531.25C2178.74,414.883 2091.66,323.486 2037.66,280.088C1975.42,352.041 1965.75,540.615 2063.39,620.01C2008.9,668.408 1894.08,712.275 1776.51,712.275L430.156,712.275C424.316,900.225 494.063,1042.89 617.461,1129.14L617.49,1129.14C715.02,1126.99 794.6,1115.47 854.912,1094.57C856.566,1094.06 858.288,1093.79 860.02,1093.79C869.454,1093.79 877.217,1101.56 877.217,1110.99C877.217,1118.1 872.81,1124.51 866.172,1127.05C858.145,1129.84 849.785,1132.44 841.152,1134.91L841.123,1134.91C793.633,1148.48 738.33,1158.77 672.627,1162.82C672.607,1162.82 671.035,1161.31 671.016,1161.31C839.346,1247.66 1083.42,1247.34 1363.25,1139.85C1677.02,1019.31 1969,789.658 2172.72,526.992C2169.66,528.379 2166.67,529.795 2163.77,531.25" style="fill:rgb(55,177,217);"/><path d="M348.096,861.387C356.982,927.129 376.221,988.682 404.736,1044.75L421.016,1074.53C431.322,1092.02 442.586,1108.91 454.756,1125.16C513.604,1128.94 567.852,1130.23 617.49,1129.14C715.02,1126.99 794.6,1115.47 854.912,1094.57C856.566,1094.06 858.288,1093.79 860.02,1093.79C869.454,1093.79 877.217,1101.56 877.217,1110.99C877.217,1118.1 872.81,1124.51 866.172,1127.05C858.145,1129.84 849.785,1132.44 841.152,1134.91L841.123,1134.91C793.633,1148.48 738.623,1158.18 672.92,1162.25C670.664,1162.38 666.729,1162.41 664.453,1162.54C638.613,1163.98 610.986,1164.87 582.441,1164.87C551.24,1164.87 519.326,1164.28 484.98,1162.53C604.219,1296.55 791.816,1377.23 1025.53,1377.23C1448.96,1377.23 1817.36,1216.5 2031.18,861.387L348.096,861.387" style="fill:rgb(27,129,165);"/><path d="M443.037,861.387C468.35,976.816 529.18,1067.43 617.49,1129.14C715.02,1126.99 794.6,1115.47 854.912,1094.57C856.566,1094.06 858.288,1093.79 860.02,1093.79C869.454,1093.79 877.217,1101.56 877.217,1110.99C877.217,1118.1 872.81,1124.51 866.172,1127.05C858.145,1129.84 849.785,1132.44 841.152,1134.91L841.123,1134.91C793.633,1148.48 737.461,1158.18 671.748,1162.25C840.068,1248.57 1083.44,1247.33 1363.25,1139.85C1532.53,1074.81 1695.45,977.998 1841.61,861.387L443.037,861.387" style="fill:rgb(29,145,180);"/><path d="M539.648,484.014L733.184,484.014L733.184,677.549L539.648,677.549L539.648,484.014ZM555.771,500.146L571.045,500.146L571.045,661.426L555.771,661.426L555.771,500.146ZM584.482,500.146L600.371,500.146L600.371,661.426L584.492,661.426L584.492,500.146L584.482,500.146ZM613.799,500.146L629.688,500.146L629.688,661.426L613.799,661.426L613.799,500.146ZM643.135,500.146L659.014,500.146L659.014,661.426L643.135,661.426L643.135,500.146ZM672.461,500.146L688.34,500.146L688.34,661.426L672.461,661.426L672.461,500.146ZM701.777,500.146L717.061,500.146L717.061,661.426L701.777,661.426L701.777,500.146ZM762.939,260.713L956.494,260.713L956.494,454.238L762.939,454.238L762.939,260.713ZM779.082,276.846L794.346,276.846L794.346,438.115L779.082,438.115L779.082,276.846ZM807.793,276.846L823.672,276.846L823.672,438.115L807.803,438.115L807.803,276.846L807.793,276.846ZM837.109,276.846L852.988,276.846L852.988,438.115L837.109,438.115L837.109,276.846ZM866.436,276.846L882.314,276.846L882.314,438.115L866.436,438.115L866.436,276.846ZM895.762,276.846L911.65,276.846L911.65,438.115L895.762,438.115L895.762,276.846ZM925.078,276.846L940.371,276.846L940.371,438.115L925.078,438.115L925.078,276.846Z" style="fill:rgb(35,163,194);"/><path d="M762.939,484.014L956.494,484.014L956.494,677.549L762.939,677.549L762.939,484.014ZM779.082,500.146L794.346,500.146L794.346,661.426L779.082,661.426L779.082,500.146ZM807.793,500.146L823.672,500.146L823.672,661.426L807.803,661.426L807.803,500.146L807.793,500.146ZM837.109,500.146L852.988,500.146L852.988,661.426L837.109,661.426L837.109,500.146ZM866.436,500.146L882.314,500.146L882.314,661.426L866.436,661.426L866.436,500.146ZM895.762,500.146L911.65,500.146L911.65,661.426L895.762,661.426L895.762,500.146ZM925.078,500.146L940.371,500.146L940.371,661.426L925.078,661.426L925.078,500.146Z" style="fill:rgb(52,187,222);"/><path d="M986.26,484.014L1179.8,484.014L1179.8,677.549L986.26,677.549L986.26,484.014ZM1002.38,500.146L1017.65,500.146L1017.65,661.426L1002.38,661.426L1002.38,500.146ZM1031.09,500.146L1046.97,500.146L1046.97,661.426L1031.09,661.426L1031.09,500.146ZM1060.42,500.146L1076.3,500.146L1076.3,661.426L1060.42,661.426L1060.42,500.146ZM1089.75,500.146L1105.62,500.146L1105.62,661.426L1089.75,661.426L1089.75,500.146ZM1119.06,500.146L1134.96,500.146L1134.96,661.426L1119.06,661.426L1119.06,500.146ZM1148.39,500.146L1163.66,500.146L1163.66,661.426L1148.39,661.426L1148.39,500.146Z" style="fill:rgb(35,163,194);"/><path d="M986.26,260.713L1179.8,260.713L1179.8,454.238L986.26,454.238L986.26,260.713ZM1002.38,276.846L1017.65,276.846L1017.65,438.115L1002.38,438.115L1002.38,276.846ZM1031.09,276.846L1046.97,276.846L1046.97,438.115L1031.09,438.115L1031.09,276.846ZM1060.42,276.846L1076.3,276.846L1076.3,438.115L1060.42,438.115L1060.42,276.846ZM1089.75,276.846L1105.62,276.846L1105.62,438.115L1089.75,438.115L1089.75,276.846ZM1119.06,276.846L1134.96,276.846L1134.96,438.115L1119.06,438.115L1119.06,276.846ZM1148.39,276.846L1163.66,276.846L1163.66,438.115L1148.39,438.115L1148.39,276.846ZM1209.56,484.014L1403.1,484.014L1403.1,677.549L1209.56,677.549L1209.56,484.014ZM1225.69,500.146L1240.96,500.146L1240.96,661.426L1225.69,661.426L1225.69,500.146ZM1254.4,500.146L1270.28,500.146L1270.28,661.426L1254.4,661.426L1254.4,500.146ZM1283.72,500.146L1299.6,500.146L1299.6,661.426L1283.72,661.426L1283.72,500.146ZM1313.05,500.146L1328.94,500.146L1328.94,661.426L1313.05,661.426L1313.05,500.146ZM1342.37,500.146L1358.26,500.146L1358.26,661.426L1342.37,661.426L1342.37,500.146ZM1371.7,500.146L1386.97,500.146L1386.97,661.426L1371.7,661.426L1371.7,500.146Z" style="fill:rgb(52,187,222);"/><path d="M1209.56,260.713L1403.1,260.713L1403.1,454.238L1209.56,454.238L1209.56,260.713ZM1225.69,276.846L1240.96,276.846L1240.96,438.115L1225.69,438.115L1225.69,276.846ZM1254.4,276.846L1270.28,276.846L1270.28,438.115L1254.4,438.115L1254.4,276.846ZM1283.72,276.846L1299.6,276.846L1299.6,438.115L1283.72,438.115L1283.72,276.846ZM1313.05,276.846L1328.94,276.846L1328.94,438.115L1313.05,438.115L1313.05,276.846ZM1342.37,276.846L1358.26,276.846L1358.26,438.115L1342.37,438.115L1342.37,276.846ZM1371.7,276.846L1386.97,276.846L1386.97,438.115L1371.7,438.115L1371.7,276.846Z" style="fill:rgb(35,163,194);"/><path d="M1209.56,37.402L1403.1,37.402L1403.1,230.957L1209.56,230.957L1209.56,37.402ZM1225.69,53.525L1240.96,53.525L1240.96,214.814L1225.69,214.814L1225.69,53.516L1225.69,53.525ZM1254.4,53.525L1270.28,53.525L1270.28,214.814L1254.4,214.814L1254.4,53.516L1254.4,53.525ZM1283.72,53.525L1299.6,53.525L1299.6,214.814L1283.72,214.814L1283.72,53.516L1283.72,53.525ZM1313.05,53.525L1328.94,53.525L1328.94,214.814L1313.05,214.814L1313.05,53.516L1313.05,53.525ZM1342.37,53.525L1358.26,53.525L1358.26,214.814L1342.37,214.814L1342.37,53.516L1342.37,53.525ZM1371.7,53.525L1386.97,53.525L1386.97,214.814L1371.7,214.814L1371.7,53.516L1371.7,53.525Z" style="fill:rgb(52,187,222);"/><path d="M1432.86,484.014L1626.4,484.014L1626.4,677.549L1432.86,677.549L1432.86,484.014ZM1448.98,500.146L1464.26,500.146L1464.26,661.426L1448.98,661.426L1448.98,500.146ZM1477.69,500.146L1493.57,500.146L1493.57,661.426L1477.69,661.426L1477.69,500.146ZM1507.02,500.146L1522.91,500.146L1522.91,661.426L1507.02,661.426L1507.02,500.146ZM1536.34,500.146L1552.23,500.146L1552.23,661.426L1536.34,661.426L1536.34,500.146ZM1565.67,500.146L1581.55,500.146L1581.55,661.426L1565.67,661.426L1565.67,500.146ZM1594.99,500.146L1610.26,500.146L1610.26,661.426L1594.99,661.426L1594.99,500.146Z" style="fill:rgb(35,163,194);"/><path d="M944.375,991.328C944.612,991.325 944.85,991.323 945.087,991.323C974.381,991.323 998.486,1015.43 998.486,1044.72C998.486,1074.02 974.381,1098.12 945.087,1098.12L944.355,1098.12C915.341,1097.72 891.689,1073.74 891.689,1044.72C891.689,1015.7 915.353,991.715 944.375,991.328" style="fill:rgb(211,236,236);"/><path d="M944.375,1006.48C949.258,1006.48 953.916,1007.39 958.213,1009.06C953.409,1011.85 950.442,1017 950.442,1022.56C950.442,1031.1 957.461,1038.14 966.006,1038.16C971.914,1038.16 977.041,1034.89 979.697,1030.05C981.626,1034.69 982.619,1039.68 982.619,1044.71C982.619,1065.68 965.36,1082.94 944.386,1082.94C923.413,1082.94 906.154,1065.68 906.154,1044.71C906.154,1023.74 923.406,1006.48 944.375,1006.48M0,880.684L2483.66,880.684C2429.59,866.973 2312.57,848.438 2331.87,777.559C2233.53,891.348 1996.39,857.393 1936.53,801.289C1869.89,897.949 1481.9,861.201 1454.84,785.898C1371.29,883.955 1112.39,883.955 1028.84,785.898C1001.76,861.201 613.779,897.949 547.129,801.279C487.285,857.393 250.156,891.348 151.816,777.568C171.113,848.438 54.092,866.973 0,880.693" style="fill:rgb(54,69,72);"/><path d="M1086.3,1376.07C954.072,1313.33 881.504,1228.03 841.123,1134.92C792.002,1148.94 732.969,1157.9 664.365,1161.75C638.525,1163.19 611.338,1163.94 582.822,1163.94C549.932,1163.94 515.273,1162.96 478.887,1161.04C600.146,1282.23 749.316,1375.53 1025.53,1377.23C1045.92,1377.23 1066.15,1376.84 1086.3,1376.07" style="fill:rgb(189,217,215);"/><path d="M890.234,1220.84C871.943,1196.01 854.199,1164.8 841.152,1134.9C792.031,1148.94 732.979,1157.9 664.365,1161.76C711.494,1187.33 778.887,1211.04 890.244,1220.84" style="fill:rgb(211,236,236);"/></g></g></g></g></g><g id="toml.svg" transform="matrix(1.77778,0,0,1.77778,91.8396,354.934)"><g transform="matrix(1,0,0,1,-9,-8)"><g id="toml" transform="matrix(0.0375,0,0,0.0375,1.5,0.5)"><g><g><clipPath id="_clip19"><rect x="0" y="0" width="400" height="400"/></clipPath><g clip-path="url(#_clip19)"><g transform="matrix(2.08316,0,0,2.20158,-0.347664,-2.22586)"><path d="M192.183,20.997C192.183,9.966 182.718,1.011 171.061,1.011L21.289,1.011C9.631,1.011 0.167,9.966 0.167,20.997L0.167,162.713C0.167,173.744 9.631,182.699 21.289,182.699L171.061,182.699C182.718,182.699 192.183,173.744 192.183,162.713L192.183,20.997Z" style="fill:white;"/></g><g transform="matrix(1.02303,0,0,1.02303,-2.10526,-4.15132)"><path d="M200,324L200,122L114,122L286,122" style="fill:none;fill-rule:nonzero;stroke:black;stroke-width:38px;stroke-linecap:butt;stroke-linejoin:miter;stroke-miterlimit:4;"/></g><g transform="matrix(1.02303,0,0,1.02303,-2.10526,-4.15132)"><path d="M104,50L48,50L48,348L104,348M296,348L352,348L352,50L296,50" style="fill:none;fill-rule:nonzero;stroke:rgb(156,66,33);stroke-width:38px;stroke-linecap:butt;stroke-linejoin:miter;stroke-miterlimit:4;"/></g></g></g></g></g></g></g><g id="haml.svg" transform="matrix(1.77778,0,0,1.77778,1.26495,354.934)"><g transform="matrix(1,0,0,1,-9,-8)"><g id="haml"><g transform="matrix(1.07381,0,0,1.16787,0.071922,-0.951721)"><path d="M15.532,4.347L15.532,10.983C15.532,12.814 13.915,14.301 11.923,14.301L4.706,14.301C2.714,14.301 1.097,12.814 1.097,10.983L1.097,4.347C1.097,2.516 2.714,1.029 4.706,1.029L11.923,1.029C13.915,1.029 15.532,2.516 15.532,4.347Z" style="fill:rgb(62,62,42);"/></g><path d="M4.677,2.119L7.398,7.611L5.986,13.673C5.986,13.673 6.131,14.187 7.14,14.387C8.148,14.587 8.843,14.409 8.843,14.409L9.629,8.036L14.602,3.625L12.995,2.761L8.83,6.268L6.258,1.608L4.677,2.119Z" style="fill:rgb(236,226,169);"/><path d="M9.932,7.846C9.932,7.846 9.793,8.157 10.299,7.797C10.803,7.439 11.933,6.523 12.46,6.15C13.023,5.75 14.088,4.843 14.54,4.486C14.715,4.348 14.503,4.273 14.503,4.273C14.503,4.273 12.935,5.387 12.328,5.839C11.721,6.291 9.932,7.846 9.932,7.846Z" style="fill:rgb(62,62,41);"/><g transform="matrix(0.8322,0.554475,-0.133418,0.200245,2.68631,-5.305)"><ellipse cx="14.307" cy="3.422" rx="0.856" ry="0.585" style="fill:none;stroke:rgb(62,62,41);stroke-width:0.29px;stroke-miterlimit:1;"/></g><path d="M13.67,4.704C13.867,4.841 14.171,4.962 14.27,4.872C14.369,4.781 14.177,4.499 14.05,4.412C13.922,4.326 12.903,3.585 12.736,3.491C12.57,3.397 12.41,3.303 12.317,3.395C12.224,3.488 12.353,3.785 12.489,3.876C12.626,3.968 13.472,4.568 13.67,4.704Z" style="fill:rgb(62,62,41);"/><path d="M8.853,6.599L9.249,6.4L13.538,2.959L13.399,2.755L9.233,6.209L8.853,6.599Z" style="fill:rgb(62,62,41);"/><path d="M6.947,1.894L9.168,6.275L9.328,6.124L7.116,1.496L6.947,1.894Z" style="fill:rgb(62,62,41);"/><path d="M5.246,2.051L7.704,7.505L6.119,13.624L6.196,13.65L8.008,7.468L7.996,7.265L7.856,7.129L5.389,2.109L5.246,2.051Z" style="fill:rgb(62,62,41);"/><g transform="matrix(0.979382,-0.181965,0.12942,0.696569,-0.221695,1.74025)"><ellipse cx="6.257" cy="1.722" rx="0.929" ry="0.205" style="fill:none;stroke:rgb(62,62,41);stroke-width:0.14px;stroke-miterlimit:1;"/></g><path d="M6.701,1.709C6.728,1.792 6.53,1.873 6.53,1.873C6.53,1.873 6.92,1.874 6.977,1.761C7.034,1.649 6.896,1.597 6.896,1.597C6.896,1.597 6.644,1.577 6.507,1.599C6.369,1.621 6.675,1.626 6.701,1.709Z" style="fill:rgb(62,62,41);"/><path d="M5.2,2.535L5.203,2.766L5.478,3.182L7.757,2.621L7.657,2.356L5.2,2.535Z" style="fill:rgb(62,62,41);"/><path d="M7.305,6.041L7.285,4.748L7.045,4.002L6.437,2.893" style="fill:none;stroke:rgb(62,62,41);stroke-width:0.12px;stroke-miterlimit:1;"/><path d="M6.741,4.851C6.741,4.851 6.889,4.56 6.637,4.212C6.385,3.864 6.144,3.729 6.144,3.729" style="fill:none;stroke:rgb(62,62,41);stroke-width:0.12px;stroke-miterlimit:1;"/><path d="M8.529,13.792C8.529,13.792 8.24,13.034 8.239,12.47C8.238,11.907 8.537,11.552 8.633,11.482C8.729,11.411 8.906,11.273 8.906,11.273" style="fill:none;stroke:rgb(62,62,41);stroke-width:0.12px;stroke-miterlimit:1;"/><path d="M9.043,11.729C8.739,11.729 8.627,12.106 8.609,12.429C8.591,12.753 8.728,12.932 8.878,12.93C9.029,12.928 9.218,12.696 9.259,12.313C9.3,11.931 9.249,11.73 9.043,11.729Z" style="fill:none;stroke:rgb(62,62,41);stroke-width:0.12px;stroke-miterlimit:1;"/><path d="M6.16,13.705C6.16,13.705 6.948,14.364 7.709,14.444C8.47,14.524 9.036,14.337 9.036,14.337L10.074,7.981L9.904,7.897L8.842,14.128C8.842,14.128 8.772,14.354 7.885,14.276C6.998,14.197 6.209,13.589 6.209,13.589L6.16,13.705Z" style="fill:rgb(62,62,41);"/><path d="M9.476,10.558L8.741,8.75L8.796,8.653L9.528,10.375L9.476,10.558Z" style="fill:rgb(84,83,57);"/><path d="M13.308,4.584L12.455,5.397L11.697,6.316" style="fill:none;stroke:rgb(95,93,65);stroke-width:0.12px;stroke-miterlimit:1;"/><path d="M12.368,6.157C12.368,6.157 12.273,6.779 12.315,7.007C12.357,7.234 12.56,7.604 13.094,7.72C13.629,7.836 14.062,8.104 14.458,8.38C14.853,8.656 14.934,8.902 14.959,9.141C14.985,9.38 14.471,9.953 14.471,9.953L14.455,10.179C14.455,10.179 15.211,9.673 15.224,9.202C15.237,8.731 14.811,8.146 14.541,7.959C14.27,7.773 13.568,7.493 13.266,7.339C12.964,7.186 12.726,7.08 12.731,6.731C12.736,6.382 12.928,5.752 12.928,5.752L12.368,6.157Z" style="fill:rgb(236,226,169);"/><path d="M9.822,9.229C9.822,9.229 10.303,9.792 11.118,10.043C11.932,10.294 12.498,10.331 12.498,10.331L12.496,10.202C12.496,10.202 11.539,9.93 10.92,9.509C10.301,9.088 9.912,8.669 9.912,8.669L9.822,9.229Z" style="fill:rgb(236,226,169);"/><path d="M12.696,9.642L12.87,9.645L13.024,9.737C13.024,9.737 13.352,9.905 13.815,9.834C14.279,9.762 14.33,9.355 14.33,9.355L14.468,9.327L14.496,10.343C14.496,10.343 14.502,10.503 14.312,10.721C14.122,10.939 13.714,11.193 13.327,11.243C12.94,11.294 12.461,11.105 12.29,10.968C12.119,10.831 12.237,10.698 12.365,10.293C12.493,9.888 12.696,9.642 12.696,9.642ZM12.777,9.867C12.777,9.867 12.558,10.067 12.461,10.341C12.365,10.615 12.301,10.632 12.33,10.757C12.358,10.883 12.782,11.043 13.126,11.014C13.469,10.984 13.783,10.824 13.998,10.62C14.213,10.415 14.291,10.309 14.291,10.309C14.291,10.309 14.088,10.315 14.084,10.193C14.08,10.07 14.364,9.962 14.364,9.962L14.363,9.652C14.363,9.652 14.043,10.057 13.748,10.094C13.453,10.131 13.333,10.079 13.144,10.02C12.955,9.962 12.839,9.833 12.839,9.833L12.777,9.867Z" style="fill:rgb(236,226,169);"/></g></g></g><g id="poetry.svg" transform="matrix(1.77778,0,0,1.77778,91.8396,169.537)"><g transform="matrix(1,0,0,1,-9,-8)"><g id="poetry" transform="matrix(0.025,0,0,0.025,3.39787,1)"><g><g transform="matrix(1,0,0,1,-56.25,0)"><path d="M73.5,465.42L168.08,560C278.641,537.846 380.191,483.406 459.84,403.59C448.12,415.31 435.83,426.46 423.14,437.13L355.57,356.624C278.642,421.251 180.629,461.499 73.5,465.42Z" style="fill:url(#_Radial20);"/></g><g transform="matrix(1,0,0,1,-56.25,0)"><path d="M56.25,448.17L73.5,465.42C180.629,461.499 278.642,421.251 355.57,356.624L344.402,343.318C313.462,369.357 279.292,390.912 242.929,407.569C213.436,421.097 182.221,431.518 149.704,438.414C119.209,444.896 87.897,448.215 56.25,448.17Z" style="fill:rgb(61,75,194);"/></g><g transform="matrix(1,0,0,1,-56.25,0)"><path d="M56.25,0L56.25,448.17C88.297,448.17 119.56,444.807 149.704,438.414C181.875,431.575 213.138,421.216 242.929,407.569C279.697,390.705 313.789,369.013 344.402,343.318L56.25,0Z" style="fill:url(#_Linear21);"/></g><g transform="matrix(1,0,0,1,-56.25,0)"><path d="M381.514,308.314C457.688,227.978 504.42,119.449 504.42,0L56.25,0L381.514,308.314Z" style="fill:url(#_Radial22);"/></g><g transform="matrix(1,0,0,1,-56.25,0)"><path d="M56.25,0L344.402,343.318C354.357,334.951 363.961,326.141 373.183,316.908L56.25,0Z" style="fill:url(#_Linear23);"/></g><g transform="matrix(1,0,0,1,-56.25,0)"><path d="M459.84,403.59L385.481,329.209C375.913,338.77 365.933,347.918 355.57,356.624L423.14,437.13C435.83,426.46 448.12,415.31 459.84,403.59Z" style="fill:url(#_Linear24);"/></g><g transform="matrix(1,0,0,1,-56.25,0)"><path d="M344.402,343.318L355.57,356.624C365.933,347.918 375.913,338.77 385.481,329.209L373.183,316.908C363.961,326.141 354.357,334.951 344.402,343.318Z" style="fill:rgb(56,70,185);"/></g><g transform="matrix(1,0,0,1,-56.25,0)"><path d="M373.183,316.908C375.98,314.078 378.766,311.213 381.514,308.314L56.25,0L373.183,316.908Z" style="fill:url(#_Linear25);"/></g></g></g></g></g></g><defs><radialGradient id="_Radial1" cx="0" cy="0" r="1" gradientUnits="userSpaceOnUse" gradientTransform="matrix(22.9097,0,0,22.9097,19.3354,0.822178)"><stop offset="0" style="stop-color:rgb(239,72,87);stop-opacity:1"/><stop offset="0" style="stop-color:rgb(239,72,87);stop-opacity:1"/><stop offset="0.47" style="stop-color:rgb(210,17,236);stop-opacity:1"/><stop offset="1" style="stop-color:rgb(127,82,255);stop-opacity:1"/></radialGradient><linearGradient id="_Linear2" x1="0" y1="0" x2="1" y2="0" gradientUnits="userSpaceOnUse" gradientTransform="matrix(229,311,-311,229,6.00017,32.9999)"><stop offset="0" style="stop-color:rgb(65,209,255);stop-opacity:1"/><stop offset="1" style="stop-color:rgb(189,52,254);stop-opacity:1"/></linearGradient><linearGradient id="_Linear3" x1="0" y1="0" x2="1" y2="0" gradientUnits="userSpaceOnUse" gradientTransform="matrix(41.425,284.171,-284.171,41.425,194.651,8.81818)"><stop offset="0" style="stop-color:rgb(255,234,131);stop-opacity:1"/><stop offset="0.08" style="stop-color:rgb(255,221,53);stop-opacity:1"/><stop offset="1" style="stop-color:rgb(255,168,0);stop-opacity:1"/></linearGradient><linearGradient id="_Linear5" x1="0" y1="0" x2="1" y2="0" gradientUnits="userSpaceOnUse" gradientTransform="matrix(-0.934786,59.1219,-59.1219,-0.934786,33.138,4.87812)"><stop offset="0" style="stop-color:rgb(217,216,220);stop-opacity:1"/><stop offset="1" style="stop-color:white;stop-opacity:0.38"/></linearGradient><linearGradient id="_Linear6" x1="0" y1="0" x2="1" y2="0" gradientUnits="userSpaceOnUse" gradientTransform="matrix(-6.73434,58.3678,-58.3678,-6.73434,34.1416,4.86323)"><stop offset="0" style="stop-color:rgb(141,103,175);stop-opacity:0.67"/><stop offset="1" style="stop-color:rgb(159,141,175);stop-opacity:1"/></linearGradient><linearGradient id="_Linear7" x1="0" y1="0" x2="1" y2="0" gradientUnits="userSpaceOnUse" gradientTransform="matrix(2.50407e-15,40.8946,-40.8946,2.50407e-15,36.7317,21.3398)"><stop offset="0" style="stop-color:rgb(38,5,61);stop-opacity:0.76"/><stop offset="1" style="stop-color:rgb(183,180,180);stop-opacity:0.27"/></linearGradient><linearGradient id="_Linear8" x1="0" y1="0" x2="1" y2="0" gradientUnits="userSpaceOnUse" gradientTransform="matrix(16.5281,25.2686,-25.2686,16.5281,15.749,24.1052)"><stop offset="0" style="stop-color:rgb(145,115,159);stop-opacity:0.46"/><stop offset="1" style="stop-color:rgb(50,5,79);stop-opacity:0.54"/></linearGradient><linearGradient id="_Linear9" x1="0" y1="0" x2="1" y2="0" gradientUnits="userSpaceOnUse" gradientTransform="matrix(-22.5493,-31.0592,31.0592,-22.5493,43.5763,58.0173)"><stop offset="0" style="stop-color:rgb(70,61,73);stop-opacity:0.33"/><stop offset="1" style="stop-color:rgb(52,10,80);stop-opacity:0.82"/></linearGradient><linearGradient id="_Linear10" x1="0" y1="0" x2="1" y2="0" gradientUnits="userSpaceOnUse" gradientTransform="matrix(-5.01352,40.6942,-40.6942,-5.01352,37.6919,21.7252)"><stop offset="0" style="stop-color:rgb(113,83,131);stop-opacity:0.15"/><stop offset="1" style="stop-color:rgb(244,244,244);stop-opacity:0.23"/></linearGradient><linearGradient id="_Linear11" x1="0" y1="0" x2="1" y2="0" gradientUnits="userSpaceOnUse" gradientTransform="matrix(-13.8617,-8.04093,8.04093,-13.8617,39.6229,31.0943)"><stop offset="0" style="stop-color:rgb(165,161,168);stop-opacity:0.35"/><stop offset="1" style="stop-color:rgb(55,12,80);stop-opacity:0.58"/></linearGradient><linearGradient id="_Linear14" x1="0" y1="0" x2="1" y2="0" gradientUnits="userSpaceOnUse" gradientTransform="matrix(14.8944,0,0,14.8944,0.149852,7.39586)"><stop offset="0" style="stop-color:rgb(255,166,135);stop-opacity:1"/><stop offset="1" style="stop-color:rgb(241,227,38);stop-opacity:1"/></linearGradient><linearGradient id="_Linear15" x1="0" y1="0" x2="1" y2="0" gradientUnits="userSpaceOnUse" gradientTransform="matrix(31.0143,0.00101428,-0.00101428,31.0143,33.3452,20.7947)"><stop offset="0" style="stop-color:rgb(26,171,201);stop-opacity:1"/><stop offset="1" style="stop-color:rgb(61,191,194);stop-opacity:1"/></linearGradient><linearGradient id="_Linear17" x1="0" y1="0" x2="1" y2="0" gradientUnits="userSpaceOnUse" gradientTransform="matrix(18.2649,4.38445,-4.38445,18.2649,32.5577,26.5711)"><stop offset="0" style="stop-color:rgb(88,208,158);stop-opacity:1"/><stop offset="0.09" style="stop-color:rgb(88,208,158);stop-opacity:1"/><stop offset="0.99" style="stop-color:rgb(88,208,158);stop-opacity:0"/><stop offset="1" style="stop-color:rgb(88,208,158);stop-opacity:0"/></linearGradient><linearGradient id="_Linear18" x1="0" y1="0" x2="1" y2="0" gradientUnits="userSpaceOnUse" gradientTransform="matrix(23.8782,2.77753,-2.77753,23.8782,2.44441,37.1264)"><stop offset="0" style="stop-color:rgb(88,208,158);stop-opacity:1"/><stop offset="1" style="stop-color:rgb(27,30,46);stop-opacity:1"/></linearGradient><radialGradient id="_Radial20" cx="0" cy="0" r="1" gradientUnits="userSpaceOnUse" gradientTransform="matrix(-196.632,-30.7292,30.7292,-196.632,330.655,496.63)"><stop offset="0" style="stop-color:rgb(84,98,218);stop-opacity:1"/><stop offset="0.44" style="stop-color:rgb(79,93,212);stop-opacity:1"/><stop offset="1" style="stop-color:rgb(66,80,199);stop-opacity:1"/></radialGradient><linearGradient id="_Linear21" x1="0" y1="0" x2="1" y2="0" gradientUnits="userSpaceOnUse" gradientTransform="matrix(-119.158,85.7011,-85.7011,-119.158,208.042,226.84)"><stop offset="0" style="stop-color:rgb(0,142,231);stop-opacity:1"/><stop offset="0.46" style="stop-color:rgb(0,139,227);stop-opacity:1"/><stop offset="1" style="stop-color:rgb(0,133,216);stop-opacity:1"/></linearGradient><radialGradient id="_Radial22" cx="0" cy="0" r="1" gradientUnits="userSpaceOnUse" gradientTransform="matrix(746.46,0,0,746.46,65.64,-16.21)"><stop offset="0" style="stop-color:rgb(0,213,255);stop-opacity:1"/><stop offset="0.38" style="stop-color:rgb(0,184,235);stop-opacity:1"/><stop offset="1" style="stop-color:rgb(0,128,197);stop-opacity:1"/></radialGradient><linearGradient id="_Linear23" x1="0" y1="0" x2="1" y2="0" gradientUnits="userSpaceOnUse" gradientTransform="matrix(211.222,228.672,-228.672,211.222,136.559,87.149)"><stop offset="0" style="stop-color:rgb(0,114,214);stop-opacity:1"/><stop offset="1" style="stop-color:rgb(0,134,212);stop-opacity:1"/></linearGradient><linearGradient id="_Linear24" x1="0" y1="0" x2="1" y2="0" gradientUnits="userSpaceOnUse" gradientTransform="matrix(51.3621,49.3992,-49.3992,51.3621,385.391,358.672)"><stop offset="0" style="stop-color:rgb(71,85,204);stop-opacity:1"/><stop offset="1" style="stop-color:rgb(81,96,213);stop-opacity:1"/></linearGradient><linearGradient id="_Linear25" x1="0" y1="0" x2="1" y2="0" gradientUnits="userSpaceOnUse" gradientTransform="matrix(186.762,181.414,-181.414,186.762,184.884,125.321)"><stop offset="0" style="stop-color:rgb(151,230,249);stop-opacity:1"/><stop offset="0.48" style="stop-color:rgb(122,216,243);stop-opacity:1"/><stop offset="1" style="stop-color:rgb(41,179,227);stop-opacity:1"/></linearGradient></defs></svg>